<svg width="12" height="12" viewBox="0 0 12 12" fill="none" xmlns="http://www.w3.org/2000/svg">
<g clip-path="url(#clip0_405_7764)">
<rect width="12" height="12" rx="2.5" fill="#161823" fill-opacity="0.05"/>
<g opacity="0.5">
<path d="M5.9862 2.98692C6.71839 2.11433 8.01932 2.00051 8.89191 2.7327C9.7645 3.4649 9.87832 4.76583 9.14613 5.63842L8.76046 6.09805C8.56077 6.33603 8.20597 6.36707 7.96799 6.16738C7.73001 5.96769 7.69897 5.61289 7.89866 5.37491L8.28433 4.91528C8.61714 4.51865 8.56541 3.92732 8.16877 3.5945C7.77214 3.26169 7.18081 3.31342 6.848 3.71006L6.07665 4.62931C5.84424 4.90629 5.79935 5.27822 5.9285 5.59075C6.02341 5.82044 6.0627 6.10443 5.90295 6.29481L5.78243 6.43844C5.60936 6.64469 5.29568 6.67415 5.13552 6.45773C4.58128 5.70877 4.58961 4.6513 5.21485 3.90617L5.9862 2.98692Z" fill="#161823"/>
<path d="M7.24319 5.44924C7.08303 5.23282 6.76935 5.26228 6.59628 5.46853L6.47576 5.61216C6.31601 5.80254 6.3553 6.08653 6.45021 6.31622C6.57936 6.62875 6.53447 7.00068 6.30206 7.27766L5.53071 8.19691C5.1979 8.59354 4.60657 8.64528 4.20993 8.31247C3.8133 7.97965 3.76157 7.38832 4.09438 6.99169L4.48005 6.53206C4.67974 6.29408 4.6487 5.93928 4.41072 5.73959C4.17274 5.5399 3.81794 5.57094 3.61825 5.80892L3.23258 6.26855C2.50039 7.14114 2.61421 8.44207 3.4868 9.17427C4.35939 9.90646 5.66032 9.79264 6.39251 8.92005L7.16386 8.0008C7.7891 7.25567 7.79743 6.1982 7.24319 5.44924Z" fill="#161823"/>
</g>
</g>
<defs>
<clipPath id="clip0_405_7764">
<rect width="12" height="12" rx="2.5" fill="white"/>
</clipPath>
</defs>
</svg>
