<svg width="16" height="16" viewBox="0 0 16 16" fill="none" xmlns="http://www.w3.org/2000/svg">
<path fill-rule="evenodd" clip-rule="evenodd" d="M8.08383 2.78167C5.92202 2.78167 4.13169 4.25988 3.61628 6.22744C4.39604 6.19723 5.03342 6.84297 5.09891 7.59881C5.14724 8.15657 5.20926 8.78151 5.26974 9.15568C5.31947 9.4634 5.39752 9.89451 5.4754 10.3116C5.66572 11.3309 4.8457 12.2956 3.77525 12.1893C3.62027 12.1739 3.46524 12.1572 3.32024 12.1395C2.89567 12.0876 2.53041 11.941 2.26789 11.8064C1.77356 11.553 1.52518 11.0738 1.44853 10.6311C1.38794 10.2812 1.30825 9.79834 1.27707 9.49974C1.26177 9.35326 1.24094 9.15732 1.21924 8.95454C1.13635 8.17997 1.36194 7.29106 2.15957 6.7936C2.19529 6.77133 2.23229 6.74867 2.27063 6.72563L2.30715 6.70401C2.64661 3.84576 5.08073 1.58167 8.08383 1.58167C11.1235 1.58167 13.583 3.90216 13.8724 6.81418C14.6438 7.31529 14.8622 8.19054 14.7804 8.95454C14.7587 9.15732 14.7379 9.35326 14.7226 9.49974C14.6914 9.79834 14.6117 10.2812 14.5512 10.6311C14.4745 11.0738 14.2261 11.553 13.7318 11.8064C13.6015 11.8732 13.4459 11.943 13.2703 12.0026C12.9889 12.5578 12.5576 13.0164 11.965 13.3638C11.29 13.7594 10.4323 13.9954 9.40124 14.0999C9.19839 14.3515 8.88763 14.5124 8.53927 14.5124C7.9281 14.5124 7.43265 14.017 7.43265 13.4058C7.43265 12.7946 7.9281 12.2992 8.53927 12.2992C8.95988 12.2992 9.32567 12.5338 9.51289 12.8794C10.3116 12.7778 10.9153 12.5881 11.3581 12.3285C11.4587 12.2695 11.5521 12.2063 11.6385 12.1386C10.8753 11.9215 10.3707 11.1344 10.5243 10.3116C10.6022 9.89451 10.6802 9.4634 10.7299 9.15568C10.7904 8.78151 10.8524 8.15657 10.9008 7.59881C10.971 6.78791 11.6995 6.10373 12.5559 6.24502C12.0464 4.26761 10.2508 2.78167 8.08383 2.78167ZM3.77827 7.46995C3.72085 7.42882 3.65856 7.41792 3.58972 7.44205C3.32743 7.534 3.07829 7.64026 2.8888 7.75415C2.85601 7.77386 2.82463 7.79308 2.79459 7.81182C2.51459 7.98644 2.36018 8.33861 2.41243 8.82686C2.43415 9.02988 2.45512 9.22706 2.47058 9.37511C2.49687 9.62691 2.56927 10.0702 2.63093 10.4263C2.66247 10.6085 2.7454 10.7027 2.81536 10.7386C2.99685 10.8316 3.22383 10.9188 3.46588 10.9484C3.59937 10.9647 3.74496 10.9804 3.89378 10.9952C4.12993 11.0186 4.34645 10.8032 4.29578 10.5318C4.21768 10.1135 4.13733 9.67026 4.08511 9.34715C4.01658 8.92317 3.95138 8.25629 3.90339 7.7024C3.89415 7.59578 3.84063 7.51463 3.77827 7.46995ZM12.41 7.44205C12.3411 7.41792 12.2788 7.42882 12.2214 7.46995C12.159 7.51463 12.1055 7.59578 12.0963 7.7024C12.0483 8.25629 11.9831 8.92317 11.9146 9.34715C11.8623 9.67026 11.782 10.1135 11.7039 10.5318C11.6532 10.8032 11.8697 11.0186 12.1059 10.9952C12.2547 10.9804 12.4003 10.9647 12.5338 10.9484C12.7758 10.9188 13.0028 10.8316 13.1843 10.7386C13.2543 10.7027 13.3372 10.6085 13.3687 10.4263C13.4304 10.0702 13.5028 9.62691 13.5291 9.37511C13.5446 9.22706 13.5655 9.02988 13.5873 8.82686C13.6395 8.33861 13.4851 7.98644 13.2051 7.81182C13.175 7.79308 13.1437 7.77386 13.1109 7.75415C12.9214 7.64026 12.6723 7.534 12.41 7.44205Z" fill="#161823"/>
</svg>
