<svg width="24" height="24" viewBox="0 0 24 24" fill="none" xmlns="http://www.w3.org/2000/svg">
<path d="M2.46967 2.46967C2.76256 2.17678 3.23744 2.17678 3.53033 2.46967L7.5 6.43934V5.99404C7.5 5.00993 8.21592 4.17206 9.18797 4.01853L17.844 2.65132C18.451 2.55545 19 3.02458 19 3.63908V17.5079C19 17.6447 18.9908 17.7797 18.9728 17.9122L21.5303 20.4697C21.8232 20.7626 21.8232 21.2374 21.5303 21.5303C21.2391 21.8216 20.7679 21.8232 20.4747 21.5353L3.45904 4.51966C3.45742 4.51803 3.45578 4.51642 3.45415 4.51481L2.46967 3.53033C2.17678 3.23744 2.17678 2.76256 2.46967 2.46967ZM16.528 15.4674L16.6843 15.4381C17.1573 15.3494 17.5 14.9364 17.5 14.4552L17.5 7.71483L9.96346 8.9028L16.528 15.4674Z" fill="#161823"/>
<path d="M7.5 10.6819L7.5 16.327C7.5 16.8079 7.1577 17.2207 6.68511 17.3097L5.0007 17.627C3.84041 17.8456 3 18.8591 3 20.0398C3 21.5777 4.39777 22.737 5.90916 22.4526L6.55472 22.3312C7.97277 22.0644 9 20.8258 9 19.3829L9 12.1819L7.5 10.6819Z" fill="#161823"/>
<path d="M13.4996 16.6816C13.1844 17.0966 13 17.6129 13 18.1658C13 19.7032 14.3973 20.8621 15.9082 20.5778L16.5547 20.4562C16.7485 20.4197 16.9349 20.3651 17.1124 20.2944L13.4996 16.6816Z" fill="#161823"/>
</svg>
