<svg width="24" height="24" viewBox="0 0 24 24" fill="none" xmlns="http://www.w3.org/2000/svg">
<g clip-path="url(#clip0_21023_3089)">
<g filter="url(#filter0_d_21023_3089)">
<path fill-rule="evenodd" clip-rule="evenodd" d="M10.1666 4.41406C9.66955 4.41406 9.2666 4.81701 9.2666 5.31406V13.1149V13.2581C9.2666 13.7552 9.66955 14.1581 10.1666 14.1581C10.6637 14.1581 11.0666 13.7552 11.0666 13.2581V13.1149C11.0666 12.5073 11.5591 12.0149 12.1666 12.0149C12.7741 12.0149 13.2666 12.5073 13.2666 13.1149V17.0837C13.2666 17.6912 12.7741 18.1837 12.1666 18.1837C11.5591 18.1837 11.0666 17.6912 11.0666 17.0837V16.9405C11.0666 16.4434 10.6637 16.0405 10.1666 16.0405C9.66955 16.0405 9.2666 16.4434 9.2666 16.9405V17.0837C9.2666 18.6853 10.565 19.9837 12.1666 19.9837C13.7682 19.9837 15.0666 18.6853 15.0666 17.0837V13.1149C15.0666 11.5132 13.7682 10.2149 12.1666 10.2149C11.7772 10.2149 11.4058 10.2916 11.0666 10.4308V6.21406H14.1666C14.6637 6.21406 15.0666 5.81112 15.0666 5.31406C15.0666 4.81701 14.6637 4.41406 14.1666 4.41406H10.1666ZM3.51719 4.42175C1.91556 4.42175 0.617188 5.72012 0.617188 7.32175V17.0914C0.617188 18.693 1.91556 19.9914 3.51719 19.9914C5.11881 19.9914 6.41719 18.693 6.41719 17.0914V7.32175C6.41719 5.72012 5.11881 4.42175 3.51719 4.42175ZM2.41719 7.32175C2.41719 6.71423 2.90967 6.22175 3.51719 6.22175C4.1247 6.22175 4.61719 6.71423 4.61719 7.32175V17.0914C4.61719 17.6989 4.1247 18.1914 3.51719 18.1914C2.90967 18.1914 2.41719 17.6989 2.41719 17.0914V7.32175ZM8.7417 18.9898C8.7417 19.4869 8.33876 19.8898 7.8417 19.8898C7.34464 19.8898 6.9417 19.4869 6.9417 18.9898C6.9417 18.4928 7.34464 18.0898 7.8417 18.0898C8.33876 18.0898 8.7417 18.4928 8.7417 18.9898ZM16.2522 11.2449C16.6335 10.9259 17.2011 10.9765 17.52 11.3577L19.8238 14.1116L22.1277 11.3577C22.4466 10.9765 23.0142 10.9259 23.3955 11.2449C23.7767 11.5638 23.8272 12.1314 23.5083 12.5127L20.9972 15.5143L23.5083 18.5159C23.8272 18.8971 23.7767 19.4647 23.3955 19.7837C23.0142 20.1026 22.4466 20.0521 22.1277 19.6709L19.8238 16.9169L17.52 19.6709C17.2011 20.0521 16.6335 20.1026 16.2522 19.7837C15.871 19.4647 15.8205 18.8971 16.1394 18.5159L18.6504 15.5143L16.1394 12.5127C15.8205 12.1314 15.871 11.5638 16.2522 11.2449Z" fill="white"/>
</g>
</g>
<defs>
<filter id="filter0_d_21023_3089" x="-1.38281" y="2.91406" width="27.1006" height="19.5793" filterUnits="userSpaceOnUse" color-interpolation-filters="sRGB">
<feFlood flood-opacity="0" result="BackgroundImageFix"/>
<feColorMatrix in="SourceAlpha" type="matrix" values="0 0 0 0 0 0 0 0 0 0 0 0 0 0 0 0 0 0 127 0" result="hardAlpha"/>
<feOffset dy="0.5"/>
<feGaussianBlur stdDeviation="1"/>
<feComposite in2="hardAlpha" operator="out"/>
<feColorMatrix type="matrix" values="0 0 0 0 0 0 0 0 0 0 0 0 0 0 0 0 0 0 0.2 0"/>
<feBlend mode="normal" in2="BackgroundImageFix" result="effect1_dropShadow_21023_3089"/>
<feBlend mode="normal" in="SourceGraphic" in2="effect1_dropShadow_21023_3089" result="shape"/>
</filter>
<clipPath id="clip0_21023_3089">
<rect width="24" height="24" fill="white"/>
</clipPath>
</defs>
</svg>
