<svg width="24" height="24" viewBox="0 0 24 24" fill="none" xmlns="http://www.w3.org/2000/svg">
<path d="M11.0199 9.11092C10.7859 9.74999 10.515 9.90239 10.0159 9.90239C9.46367 9.90239 9.01595 9.45468 9.01595 8.90239C9.01595 7.39108 10.988 6.49745 12.266 6.49745C14.354 6.49745 15.5316 7.82732 15.5316 9.31014C15.5316 10.297 14.7959 10.8178 14.1177 11.2978C13.5782 11.6798 13.0751 12.0359 13.0081 12.5804C12.918 13.3115 12.5371 13.5026 12.011 13.5026C11.4588 13.5026 11.011 13.0548 11.011 12.5026C11.011 11.5735 11.7623 11.1029 12.442 10.6772C13.0034 10.3255 13.516 10.0044 13.516 9.4809C13.516 8.80609 12.8588 8.49745 12.266 8.49745C11.8223 8.49745 11.213 8.58318 11.0199 9.11092Z" fill="#161823"/>
<path d="M12.0159 16.6976C12.6235 16.6976 13.1159 16.2051 13.1159 15.5976C13.1159 14.9901 12.6235 14.4976 12.0159 14.4976C11.4084 14.4976 10.9159 14.9901 10.9159 15.5976C10.9159 16.2051 11.4084 16.6976 12.0159 16.6976Z" fill="#161823"/>
<path fill-rule="evenodd" clip-rule="evenodd" d="M8.21718 1.98096C7.40434 1.98095 6.74872 1.98094 6.21781 2.02432C5.67118 2.06898 5.19104 2.16334 4.74682 2.38968C4.04121 2.74921 3.46753 3.32289 3.10801 4.02849C2.88167 4.47271 2.78731 4.95285 2.74265 5.49949C2.69927 6.0304 2.69928 6.68601 2.69928 7.49885L2.69928 13.9634C2.69928 14.0215 2.69927 14.0788 2.69925 14.1354C2.6988 15.7006 2.69851 16.7062 3.05227 17.5718C3.36383 18.3342 3.86826 19.0025 4.51607 19.5111C5.25161 20.0886 6.2187 20.3639 7.72413 20.7924L7.72417 20.7925C7.7786 20.808 7.83373 20.8237 7.88958 20.8396L11.9993 22.0108L16.109 20.8396C16.1648 20.8236 16.22 20.8079 16.2744 20.7925C17.7799 20.3639 18.7469 20.0886 19.4825 19.5111C20.1303 19.0025 20.6347 18.3342 20.9463 17.5718C21.3001 16.7062 21.2998 15.7006 21.2993 14.1354C21.2993 14.0788 21.2993 14.0215 21.2993 13.9634V7.49882C21.2993 6.686 21.2993 6.03039 21.2559 5.49949C21.2113 4.95285 21.1169 4.47271 20.8906 4.02849C20.531 3.32289 19.9574 2.74921 19.2517 2.38968C18.8075 2.16334 18.3274 2.06898 17.7808 2.02432C17.2498 1.98094 16.5942 1.98095 15.7814 1.98096H8.21718ZM5.4278 3.72619C5.62532 3.62555 5.88609 3.55642 6.33996 3.51934C6.80259 3.48154 7.39683 3.48096 8.24928 3.48096H15.7493C16.6017 3.48096 17.196 3.48154 17.6586 3.51934C18.1125 3.55642 18.3732 3.62555 18.5708 3.72619C18.9941 3.94191 19.3383 4.28611 19.554 4.70948C19.6547 4.907 19.7238 5.16776 19.7609 5.62164C19.7987 6.08427 19.7993 6.6785 19.7993 7.53096V13.9634C19.7993 15.7621 19.7857 16.4466 19.5578 17.0044C19.3446 17.526 18.9995 17.9833 18.5562 18.3312C18.0823 18.7034 17.4277 18.904 15.6979 19.397L11.9993 20.4511L8.30071 19.397C6.57083 18.904 5.91631 18.7034 5.44234 18.3312C4.99911 17.9833 4.65397 17.526 4.4408 17.0044C4.21285 16.4466 4.19928 15.7621 4.19928 13.9634V7.53095C4.19928 6.6785 4.19987 6.08427 4.23766 5.62164C4.27475 5.16776 4.34388 4.907 4.44452 4.70948C4.66023 4.28611 5.00444 3.94191 5.4278 3.72619Z" fill="#161823"/>
</svg>
