<svg width="16" height="16" viewBox="0 0 16 16" fill="none" xmlns="http://www.w3.org/2000/svg">
<path d="M14.6663 7.99992C14.6663 11.6818 11.6816 14.6666 7.99967 14.6666C4.31778 14.6666 1.33301 11.6818 1.33301 7.99992C1.33301 4.31802 4.31778 1.33325 7.99967 1.33325C11.6816 1.33325 14.6663 4.31802 14.6663 7.99992ZM5.67969 4.49234C5.39937 4.66904 5.31537 5.03954 5.49208 5.31986L6.99618 7.70595H5.99963C5.66826 7.70595 5.39963 7.97458 5.39963 8.30595C5.39963 8.63732 5.66826 8.90595 5.99963 8.90595H7.39963V9.55989H5.99963C5.66826 9.55989 5.39963 9.82852 5.39963 10.1599C5.39963 10.4913 5.66826 10.7599 5.99963 10.7599H7.39963V11.756C7.39963 12.0874 7.66826 12.356 7.99963 12.356C8.331 12.356 8.59963 12.0874 8.59963 11.756V10.7599H9.99963C10.331 10.7599 10.5996 10.4913 10.5996 10.1599C10.5996 9.82852 10.331 9.55989 9.99963 9.55989H8.59963V8.90595H9.99963C10.331 8.90595 10.5996 8.63732 10.5996 8.30595C10.5996 7.97458 10.331 7.70595 9.99963 7.70595H9.00334L10.5081 5.31998C10.6849 5.03969 10.601 4.66918 10.3207 4.49241C10.0404 4.31564 9.66988 4.39956 9.49312 4.67984L7.99976 7.0477L6.50722 4.67995C6.33051 4.39963 5.96002 4.31563 5.67969 4.49234Z" fill="#161823"/>
</svg>
