<svg width="20" height="20" viewBox="0 0 20 20" fill="none" xmlns="http://www.w3.org/2000/svg">
<path d="M8.44247 6.21551C6.83524 6.21551 5.58535 7.52041 5.58535 9.2676C5.58535 10.2451 5.99587 11.161 6.62666 11.9741C7.25649 12.786 8.13478 13.5346 9.15678 14.2008C9.24745 14.2618 9.3586 14.3304 9.47718 14.3867C9.57938 14.4352 9.77186 14.5168 9.99845 14.5168C10.2234 14.5168 10.4158 14.4363 10.5183 14.3883C10.638 14.3322 10.7506 14.2635 10.8438 14.2009C11.8658 13.5346 12.7441 12.786 13.374 11.9741C14.0048 11.161 14.4153 10.2451 14.4153 9.2676C14.4153 7.52041 13.1654 6.21551 11.5582 6.21551C10.9305 6.21551 10.4085 6.43025 10.0008 6.76901C9.59224 6.42925 9.06832 6.21551 8.44247 6.21551ZM7.08535 9.2676C7.08535 8.27027 7.74011 7.71551 8.44247 7.71551C8.83788 7.71551 9.13468 7.91519 9.3355 8.2948L9.99048 9.53287L10.6578 8.30143C10.8684 7.91298 11.1653 7.71551 11.5582 7.71551C12.2605 7.71551 12.9153 8.27027 12.9153 9.2676C12.9153 9.81235 12.6866 10.413 12.1888 11.0547C11.6911 11.6962 10.9533 12.3394 10.0203 12.9471L10.01 12.954L10.0003 12.9604L9.99063 12.954L9.98036 12.9471C9.0473 12.3394 8.30955 11.6962 7.81184 11.0547C7.31408 10.413 7.08535 9.81235 7.08535 9.2676Z" fill="#161823"/>
<path d="M18.3337 9.99999C18.3337 14.6024 14.6027 18.3333 10.0003 18.3333C5.39795 18.3333 1.66699 14.6024 1.66699 9.99999C1.66699 5.39762 5.39795 1.66666 10.0003 1.66666C14.6027 1.66666 18.3337 5.39762 18.3337 9.99999ZM16.8337 9.99999C16.8337 6.22604 13.7743 3.16666 10.0003 3.16666C6.22638 3.16666 3.16699 6.22604 3.16699 9.99999C3.16699 13.7739 6.22638 16.8333 10.0003 16.8333C13.7743 16.8333 16.8337 13.7739 16.8337 9.99999Z" fill="#161823"/>
</svg>
