<svg width="24" height="24" viewBox="0 0 24 24" fill="none" xmlns="http://www.w3.org/2000/svg">
<path d="M6.57812 15.3027C6.41406 15.8535 6.17969 16.0703 5.75781 16.0703C5.32422 16.0703 5.02539 15.8066 5.02539 15.4082C5.02539 15.25 5.06641 15.0684 5.16602 14.7695L7.18164 8.99219C7.43359 8.24805 7.79102 7.9375 8.45898 7.9375C9.12109 7.9375 9.47266 8.24219 9.72461 8.99219L11.7402 14.7695C11.8223 15.0215 11.8633 15.2148 11.8633 15.3789C11.8633 15.8008 11.5645 16.0703 11.1133 16.0703C10.6855 16.0703 10.4395 15.8477 10.2812 15.3027L9.83008 13.9434H7.02344L6.57812 15.3027ZM8.39453 9.53125L7.375 12.7656H9.48438L8.4707 9.53125H8.39453Z" fill="#161823"/>
<path d="M13.6888 16C12.9857 16 12.6341 15.666 12.6341 14.9863V9.01562C12.6341 8.33594 12.9857 8.00195 13.6888 8.00195H15.5521C17.89 8.00195 19.1263 9.38477 19.1263 12.0039C19.1263 14.6172 17.89 16 15.5521 16H13.6888ZM14.2162 9.29102V14.7051H15.3529C16.8236 14.7051 17.5091 13.8379 17.5091 12.0039C17.5091 10.1582 16.8177 9.29102 15.3529 9.29102H14.2162Z" fill="#161823"/>
<path d="M1 7.75C1 5.67893 2.67893 4 4.75 4H19.25C21.3211 4 23 5.67893 23 7.75V16.25C23 18.3211 21.3211 20 19.25 20H4.75C2.67893 20 1 18.3211 1 16.25V7.75ZM4.75 5.5C3.50736 5.5 2.5 6.50736 2.5 7.75V16.25C2.5 17.4926 3.50736 18.5 4.75 18.5H19.25C20.4926 18.5 21.5 17.4926 21.5 16.25V7.75C21.5 6.50736 20.4926 5.5 19.25 5.5H4.75Z" fill="#161823"/>
</svg>
