<svg width="24" height="24" viewBox="0 0 24 24" fill="none" xmlns="http://www.w3.org/2000/svg">
<path d="M9.81725 8.77078C10.6903 8.67854 11.4458 9.01227 12.0007 9.45341C12.5556 9.01491 13.3077 8.68758 14.1744 8.77C15.0555 8.85379 15.7711 9.26668 16.2557 9.89322C16.7316 10.5085 16.9571 11.2913 16.9571 12.0975C16.9571 13.66 15.9491 14.9884 14.9566 15.8704C14.446 16.3241 13.9008 16.6955 13.4088 16.9572C12.9528 17.1997 12.4323 17.4082 11.9998 17.4082C11.5672 17.4082 11.0467 17.1997 10.5907 16.9572C10.0987 16.6955 9.55348 16.3241 9.04286 15.8704C8.05037 14.9884 7.04236 13.66 7.04236 12.0975C7.04236 11.2907 7.2683 10.511 7.74467 9.89747C8.22915 9.27352 8.94207 8.86325 9.81725 8.77078ZM9.97486 10.2625C9.49766 10.3129 9.15874 10.5221 8.92946 10.8174C8.69208 11.1231 8.54236 11.5625 8.54236 12.0975C8.54236 13.02 9.16471 13.972 10.0392 14.7491C10.4621 15.1249 10.9096 15.4278 11.2952 15.6329C11.4879 15.7354 11.6561 15.8087 11.7903 15.8547C11.9317 15.9031 11.9971 15.908 11.9998 15.9082C12.0026 15.908 12.0678 15.9031 12.2092 15.8547C12.3434 15.8087 12.5116 15.7354 12.7043 15.6329C13.0899 15.4278 13.5374 15.1249 13.9603 14.7491C14.8348 13.972 15.4571 13.02 15.4571 12.0975C15.4571 11.5618 15.3071 11.1185 15.0692 10.8109C14.84 10.5147 14.5037 10.3081 14.0324 10.2633C13.472 10.21 12.9233 10.5432 12.5915 10.9693L11.9998 11.7292L11.408 10.9693C11.0717 10.5374 10.5241 10.2044 9.97486 10.2625Z" fill="#161823"/>
<path d="M15.8892 4.10657C15.5148 3.5438 14.9374 3.14752 14.2777 3.00058C12.7776 2.66647 11.2224 2.66647 9.72229 3.00058C9.06257 3.14752 8.48518 3.5438 8.11085 4.10657L7.58407 4.89854C7.35496 5.24298 6.9934 5.47713 6.58537 5.54529L5.93788 5.65345C4.07423 5.96476 2.61887 7.43367 2.32484 9.30012L2.22251 9.94969C1.887 12.0794 1.93122 14.2517 2.35312 16.3661C2.75143 18.3621 4.22335 19.9729 6.17552 20.549L6.42455 20.6225C10.0639 21.6966 13.9361 21.6966 17.5754 20.6225L17.8245 20.549C19.7766 19.9729 21.2486 18.3621 21.6469 16.3661C22.0688 14.2517 22.113 12.0794 21.7775 9.94969L21.6752 9.30012C21.3811 7.43367 19.9258 5.96476 18.0621 5.65345L17.4146 5.54529C17.0066 5.47713 16.645 5.24298 16.4159 4.89854L15.8892 4.10657ZM8.83301 5.72928L9.35979 4.93732C9.51975 4.69684 9.76648 4.5275 10.0484 4.46471C11.3337 4.17843 12.6663 4.17843 13.9516 4.46471C14.2335 4.5275 14.4802 4.69684 14.6402 4.93732L15.167 5.72928C15.6259 6.41924 16.3502 6.88826 17.1675 7.02479L17.815 7.13295C19.0418 7.33789 19.9999 8.30487 20.1934 9.53355L20.2958 10.1831C20.6037 12.1379 20.5631 14.1319 20.1759 16.0725C19.8866 17.5222 18.8176 18.692 17.3999 19.1104L17.1509 19.1839C13.7886 20.1762 10.2114 20.1762 6.84914 19.1839L6.60011 19.1104C5.18236 18.692 4.11339 17.5222 3.82412 16.0725C3.43687 14.1319 3.39628 12.1379 3.70423 10.1831L3.80656 9.53355C4.00013 8.30487 4.95819 7.33789 6.18503 7.13295L6.83251 7.02479C7.64983 6.88826 8.37408 6.41924 8.83301 5.72928Z" fill="#161823"/>
</svg>
