<svg width="24" height="24" viewBox="0 0 24 24" fill="none" xmlns="http://www.w3.org/2000/svg">
<path d="M17.1215 4.86766L14.2647 14.947C14.1184 15.4653 13.6489 15.8423 13.0945 15.8423H12.4945V15.838H11.2616C10.4272 15.838 9.87735 15.0275 10.091 14.2611L10.0913 14.2598L12.7622 4.83779C12.8708 4.44552 13.1689 4.1302 13.559 4.00188L13.5602 4.00147L15.5805 3.34679C16.5402 3.03508 17.3828 3.95144 17.1215 4.86766Z" fill="#161823"/>
<path d="M11.1379 8.09374C11.3869 7.20674 10.5831 6.27306 9.61961 6.59127L7.68845 7.22982C7.30239 7.35887 7.01166 7.67429 6.90666 8.05986L5.16494 14.3123L5.16462 14.3134C4.96014 15.0591 5.48379 15.873 6.31573 15.873H8.06584C8.61749 15.873 9.07504 15.4931 9.21636 14.9841L11.1379 8.09374Z" fill="#161823"/>
<path d="M5.46113 11.1873L5.46086 11.1883L4.43851 14.9826C4.30599 15.4754 3.86888 15.8649 3.31884 15.8649H1.66312C0.831096 15.8649 0.354576 15.0394 0.542879 14.3301L0.543203 14.3289L1.39981 11.156C1.49852 10.7817 1.77398 10.4654 2.15427 10.334L2.15523 10.3337L3.97806 9.71112C4.4419 9.55287 4.89065 9.71611 5.17091 10.012C5.44856 10.3052 5.58164 10.7434 5.46113 11.1873Z" fill="#161823"/>
<path d="M17.9974 9.18119H20.4685C20.7666 9.18119 21.007 8.8942 21.007 8.53834C21.007 8.18247 20.7666 7.89548 20.4685 7.89548H17.9974C17.6994 7.89548 17.459 8.18247 17.459 8.53834C17.459 8.8942 17.6994 9.18119 17.9974 9.18119Z" fill="#161823"/>
<path d="M23.2841 12.5076C23.5766 12.5076 23.8126 12.2207 23.8126 11.8648C23.8126 11.5089 23.5766 11.2219 23.2841 11.2219H17.0553C16.7628 11.2219 16.5269 11.5089 16.5269 11.8648C16.5269 12.2207 16.7628 12.5076 17.0553 12.5076H23.2841Z" fill="#161823"/>
<path d="M15.7817 15.8575H19.0171C19.3152 15.8575 19.5556 15.5705 19.5556 15.2147C19.5556 14.8588 19.3152 14.5718 19.0171 14.5718H15.7817C15.4836 14.5718 15.2432 14.8588 15.2432 15.2147C15.2432 15.5705 15.4836 15.8575 15.7817 15.8575Z" fill="#161823"/>
<path d="M5.81152 17.8447C4.97986 17.8447 4.31152 18.519 4.31152 19.3447C4.31152 20.1764 4.98583 20.8447 5.81152 20.8447C6.64203 20.8447 7.31152 20.1752 7.31152 19.3447C7.31152 18.5131 6.63721 17.8447 5.81152 17.8447Z" fill="#161823"/>
<path d="M13.923 17.8462C13.0913 17.8462 12.423 18.5205 12.423 19.3462C12.423 20.1779 13.0973 20.8462 13.923 20.8462C14.7487 20.8462 15.423 20.1779 15.423 19.3462C15.423 18.5145 14.7487 17.8462 13.923 17.8462Z" fill="#161823"/>
</svg>
