<svg width="24" height="24" viewBox="0 0 24 24" fill="none" xmlns="http://www.w3.org/2000/svg">
<path d="M12.0001 2.25C9.79093 2.25 8.00007 4.04086 8.00007 6.25C8.00007 6.54114 8.03117 6.82501 8.09024 7.09848C5.98622 8.38629 4.56623 10.6823 4.50232 13.3144C4.23559 13.4 3.97384 13.5151 3.72137 13.6609C1.8082 14.7655 1.1527 17.2118 2.25727 19.125C3.36184 21.0382 5.8082 21.6937 7.72137 20.5891C7.97341 20.4436 8.20361 20.2748 8.41084 20.087C9.47691 20.6691 10.6998 21 12.0001 21C13.3003 21 14.5232 20.6691 15.5893 20.087C15.7965 20.2748 16.0267 20.4436 16.2788 20.5891C18.1919 21.6937 20.6383 21.0382 21.7429 19.125C22.8474 17.2118 22.1919 14.7655 20.2788 13.6609C20.0263 13.5151 19.7645 13.4 19.4978 13.3144C19.4339 10.6823 18.0139 8.38629 15.9099 7.09848C15.969 6.82501 16.0001 6.54114 16.0001 6.25C16.0001 4.04086 14.2092 2.25 12.0001 2.25ZM9.50007 6.25C9.50007 4.86929 10.6194 3.75 12.0001 3.75C13.3808 3.75 14.5001 4.86929 14.5001 6.25C14.5001 7.63071 13.3808 8.75 12.0001 8.75C10.6194 8.75 9.50007 7.63071 9.50007 6.25ZM9.32104 18.8701C9.87863 17.7174 9.87401 16.3176 9.18547 15.125C8.49713 13.9328 7.28772 13.2289 6.01098 13.1351C6.12725 11.1969 7.16365 9.50665 8.68925 8.49536C9.40885 9.55435 10.6232 10.25 12.0001 10.25C13.3769 10.25 14.5913 9.55435 15.3109 8.49536C16.8365 9.50665 17.8729 11.1969 17.9891 13.1351C16.7124 13.2289 15.503 13.9328 14.8147 15.125C14.1261 16.3176 14.1215 17.7173 14.6791 18.8701C13.8727 19.2732 12.9629 19.5 12.0001 19.5C11.0373 19.5 10.1274 19.2732 9.32104 18.8701ZM19.5288 14.9599C20.7245 15.6503 21.1342 17.1793 20.4438 18.375C19.7535 19.5707 18.2245 19.9804 17.0288 19.2901C15.833 18.5997 15.4233 17.0707 16.1137 15.875C16.8041 14.6793 18.333 14.2696 19.5288 14.9599ZM6.97137 19.2901C5.77564 19.9804 4.24666 19.5707 3.55631 18.375C2.86595 17.1793 3.27564 15.6503 4.47137 14.9599C5.6671 14.2696 7.19608 14.6793 7.88643 15.875C8.57679 17.0707 8.1671 18.5997 6.97137 19.2901Z" fill="#161823"/>
</svg>
