<svg width="24" height="24" viewBox="0 0 24 24" fill="none" xmlns="http://www.w3.org/2000/svg">
<path d="M12 22C17.5228 22 22 17.5228 22 12C22 6.47715 17.5228 2 12 2C6.47715 2 2 6.47715 2 12C2 17.5228 6.47715 22 12 22ZM8 11.1H16C16.4971 11.1 16.9 11.5029 16.9 12C16.9 12.4971 16.4971 12.9 16 12.9H8C7.50294 12.9 7.1 12.4971 7.1 12C7.1 11.5029 7.50294 11.1 8 11.1ZM7.1 8.5C7.1 8.00294 7.50294 7.6 8 7.6H16C16.4971 7.6 16.9 8.00294 16.9 8.5C16.9 8.99706 16.4971 9.4 16 9.4H8C7.50294 9.4 7.1 8.99706 7.1 8.5ZM8 14.6H16C16.4971 14.6 16.9 15.0029 16.9 15.5C16.9 15.9971 16.4971 16.4 16 16.4H8C7.50294 16.4 7.1 15.9971 7.1 15.5C7.1 15.0029 7.50294 14.6 8 14.6Z" fill="#161823"/>
</svg>
