<svg width="20" height="20" viewBox="0 0 20 20" fill="none" xmlns="http://www.w3.org/2000/svg">
<path d="M13.3333 5.25C13.3333 7.32107 11.8409 9 9.99996 9C8.15901 9 6.66663 7.32107 6.66663 5.25C6.66663 3.17893 8.15901 1.5 9.99996 1.5C11.8409 1.5 13.3333 3.17893 13.3333 5.25ZM11.8333 5.25C11.8333 3.83639 10.8513 3 9.99996 3C9.14865 3 8.16663 3.83639 8.16663 5.25C8.16663 6.66361 9.14865 7.5 9.99996 7.5C10.8513 7.5 11.8333 6.66361 11.8333 5.25Z" fill="#161823"/>
<path d="M10 10C8.00786 10 6.15542 10.497 4.75275 11.3874C3.36383 12.2691 2.25 13.6669 2.25 15.4394V16.0833C2.25 17.372 3.29467 18.4167 4.58333 18.4167H11.1662C11.2561 18.4167 11.302 18.3061 11.2403 18.2409C10.8496 17.8286 10.3361 17.2038 10.1628 16.9908C10.1245 16.9438 10.0675 16.9167 10.0069 16.9167H4.58333C4.1231 16.9167 3.75 16.5436 3.75 16.0833V15.4394C3.75 13.2637 6.48438 11.5 10 11.5C12.2212 11.5 14.1305 12.204 15.2354 13.2712C15.2803 13.3145 15.3536 13.3086 15.3896 13.2576L16.1451 12.1876C16.174 12.1468 16.1682 12.0908 16.1311 12.0572C15.8567 11.809 15.5589 11.5852 15.2472 11.3874C13.8446 10.497 11.9921 10 10 10Z" fill="#161823"/>
<path d="M12.6843 15.4707C12.3869 15.1824 11.912 15.1898 11.6237 15.4872C11.3354 15.7846 11.3428 16.2595 11.6402 16.5478L14.038 18.8721C14.1953 19.0246 14.4115 19.1007 14.6297 19.0803C14.8479 19.0599 15.0463 18.9452 15.1727 18.7661L19.3167 12.8971C19.5556 12.5587 19.475 12.0907 19.1366 11.8518C18.7982 11.6129 18.3302 11.6935 18.0913 12.0319L14.4528 17.1851L12.6843 15.4707Z" fill="#161823"/>
</svg>
