<svg width="24" height="24" viewBox="0 0 24 24" fill="none" xmlns="http://www.w3.org/2000/svg">
<path d="M3.09961 6.0001C3.09961 5.50304 3.50255 5.1001 3.99961 5.1001H19.9996C20.4967 5.1001 20.8996 5.50304 20.8996 6.0001C20.8996 6.49715 20.4967 6.9001 19.9996 6.9001H3.99961C3.50255 6.9001 3.09961 6.49715 3.09961 6.0001Z" fill="#161823"/>
<path d="M3.09961 12.0001C3.09961 11.503 3.50255 11.1001 3.99961 11.1001H10.8996V12.9001H3.99961C3.50255 12.9001 3.09961 12.4972 3.09961 12.0001Z" fill="#161823"/>
<path d="M3.99961 17.1001C3.50255 17.1001 3.09961 17.503 3.09961 18.0001C3.09961 18.4972 3.50255 18.9001 3.99961 18.9001H10.8996V17.1001H3.99961Z" fill="#161823"/>
<path d="M12.0996 14.5001C12.0996 14.003 12.5026 13.6001 12.9996 13.6001H16.5996V10.0001C16.5996 9.50304 17.0026 9.1001 17.4996 9.1001C17.9967 9.1001 18.3996 9.50304 18.3996 10.0001V13.6001H21.9996C22.4967 13.6001 22.8996 14.003 22.8996 14.5001C22.8996 14.9972 22.4967 15.4001 21.9996 15.4001H18.3996V19.0001C18.3996 19.4972 17.9967 19.9001 17.4996 19.9001C17.0026 19.9001 16.5996 19.4972 16.5996 19.0001V15.4001H12.9996C12.5026 15.4001 12.0996 14.9972 12.0996 14.5001Z" fill="#161823"/>
</svg>
