<svg width="20" height="20" viewBox="0 0 20 20" fill="none" xmlns="http://www.w3.org/2000/svg">
<path d="M9.99973 1.75C8.08975 1.75 6.5414 3.29835 6.5414 5.20833C6.5414 5.42938 6.56214 5.64557 6.60177 5.85509C4.87769 6.94328 3.71153 8.8351 3.62938 11.0045C3.42786 11.0749 3.23 11.1652 3.03834 11.2758C1.38424 12.2308 0.817508 14.3459 1.7725 16C2.72749 17.6541 4.84258 18.2208 6.49667 17.2658C6.68795 17.1554 6.86468 17.0294 7.02621 16.8905C7.91399 17.3595 8.92585 17.625 9.99974 17.625C11.0736 17.625 12.0855 17.3595 12.9732 16.8905C13.1348 17.0295 13.3115 17.1554 13.5028 17.2658C15.1569 18.2208 17.272 17.6541 18.227 16C19.182 14.3459 18.6152 12.2308 16.9611 11.2758C16.7695 11.1652 16.5716 11.075 16.3701 11.0045C16.2879 8.8351 15.1218 6.94328 13.3977 5.85509C13.4373 5.64558 13.4581 5.42938 13.4581 5.20833C13.4581 3.29835 11.9097 1.75 9.99973 1.75ZM8.0414 5.20833C8.0414 4.12678 8.91818 3.25 9.99973 3.25C11.0813 3.25 11.9581 4.12678 11.9581 5.20833C11.9581 6.28989 11.0813 7.16667 9.99973 7.16667C8.91818 7.16667 8.0414 6.28989 8.0414 5.20833ZM7.93213 15.6661C8.36066 14.692 8.33538 13.5339 7.76251 12.5417C7.1898 11.5497 6.19987 10.9488 5.14235 10.8326C5.26797 9.35107 6.05619 8.05835 7.20952 7.25195C7.83886 8.10977 8.85426 8.66667 9.99973 8.66667C11.1452 8.66667 12.1606 8.10977 12.79 7.25195C13.9433 8.05835 14.7315 9.35108 14.8571 10.8327C13.7996 10.9488 12.8097 11.5497 12.237 12.5417C11.6641 13.5339 11.6388 14.692 12.0673 15.6661C11.4396 15.9605 10.7389 16.125 9.99974 16.125C9.26058 16.125 8.55984 15.9605 7.93213 15.6661ZM16.2111 12.5749C17.1478 13.1157 17.4687 14.3134 16.9279 15.25C16.3872 16.1867 15.1895 16.5076 14.2528 15.9668C13.3161 15.426 12.9952 14.2283 13.536 13.2917C14.0768 12.355 15.2745 12.0341 16.2111 12.5749ZM5.74667 15.9668C4.81001 16.5076 3.61232 16.1866 3.07154 15.25C2.53076 14.3133 2.85168 13.1156 3.78834 12.5749C4.72499 12.0341 5.92269 12.355 6.46347 13.2917C7.00425 14.2283 6.68333 15.426 5.74667 15.9668Z" fill="#161823"/>
</svg>
