<svg width="20" height="20" viewBox="0 0 20 20" fill="none" xmlns="http://www.w3.org/2000/svg">
<path fill-rule="evenodd" clip-rule="evenodd" d="M2.52108 10.2991C1.8029 9.75508 1.21226 9.16652 0.823727 8.55246C0.411525 7.90099 0.187439 7.15178 0.390339 6.39455C0.593238 5.63732 1.16191 5.10053 1.84462 4.74244C2.52643 4.38482 3.39042 4.16545 4.34842 4.05959C4.66887 4.02418 5.00436 4.00099 5.35286 3.99011C6.65635 2.94034 8.31308 2.31201 10.1167 2.31201C13.4174 2.31201 16.2263 4.41651 17.2783 7.35732C17.4099 7.4463 17.5373 7.53607 17.6604 7.62653C18.4372 8.19721 19.0757 8.81919 19.4874 9.4698C19.8996 10.1213 20.1237 10.8705 19.9208 11.6277C19.7179 12.3849 19.1492 12.9217 18.4665 13.2798C17.7847 13.6374 16.9207 13.8568 15.9627 13.9627C14.0416 14.1749 11.5799 13.9482 9.01669 13.2614C8.99587 13.2558 8.97507 13.2502 8.95429 13.2446C6.38906 12.5548 4.1421 11.5204 2.58178 10.3776L2.52287 10.3342C2.52224 10.3225 2.52165 10.3108 2.52108 10.2991ZM17.401 12.116C17.5357 12.0647 17.6587 12.0097 17.7697 11.9515C18.2281 11.7111 18.4139 11.4559 18.4719 11.2395C18.5299 11.0231 18.4965 10.7092 18.2198 10.2718C18.0941 10.0732 17.9264 9.86338 17.7164 9.64623C17.7197 9.73819 17.7214 9.83057 17.7214 9.92333C17.7214 10.6855 17.6094 11.4216 17.401 12.116ZM3.81949 5.65485C3.29522 5.75705 2.86693 5.90004 2.54136 6.07081C2.08304 6.3112 1.89721 6.56638 1.83923 6.78278C1.78124 6.99918 1.81458 7.31309 2.0913 7.75043C2.22909 7.9682 2.41742 8.1994 2.65651 8.43896C2.85701 7.4239 3.25916 6.48133 3.81949 5.65485Z" fill="#161823"/>
<path d="M4.13142 14.6192C3.62364 13.9716 3.21835 13.2393 2.94022 12.4472C2.87996 12.2755 3.06809 12.1309 3.22573 12.2217C4.75876 13.1045 6.63126 13.8645 8.66522 14.4095C10.9375 15.0183 13.1695 15.294 15.0819 15.2238C15.265 15.2171 15.364 15.4354 15.2285 15.5587C13.8782 16.7864 12.0849 17.5347 10.1167 17.5347C9.03838 17.5347 8.01092 17.3096 7.07999 16.9034L5.42962 17.5917C4.48714 17.9848 3.50326 17.1342 3.74995 16.1465L4.13142 14.6192Z" fill="#161823"/>
</svg>
