<svg width="20" height="20" viewBox="0 0 20 20" fill="none" xmlns="http://www.w3.org/2000/svg">
<path d="M8.66699 6.19864C8.66699 6.75092 8.21928 7.19864 7.66699 7.19864C7.11471 7.19864 6.66699 6.75092 6.66699 6.19864C6.66699 5.64635 7.11471 5.19864 7.66699 5.19864C8.21928 5.19864 8.66699 5.64635 8.66699 6.19864Z" fill="#161823"/>
<path d="M11.127 6.68832C11.6792 6.68832 12.127 6.24061 12.127 5.68832C12.127 5.13604 11.6792 4.68832 11.127 4.68832C10.5747 4.68832 10.127 5.13604 10.127 5.68832C10.127 6.24061 10.5747 6.68832 11.127 6.68832Z" fill="#161823"/>
<path d="M14.8931 7.83646C14.8931 8.38874 14.4454 8.83646 13.8931 8.83646C13.3408 8.83646 12.8931 8.38874 12.8931 7.83646C12.8931 7.28417 13.3408 6.83646 13.8931 6.83646C14.4454 6.83646 14.8931 7.28417 14.8931 7.83646Z" fill="#161823"/>
<path d="M14.2633 12.3179C14.8156 12.3179 15.2633 11.8702 15.2633 11.3179C15.2633 10.7656 14.8156 10.3179 14.2633 10.3179C13.711 10.3179 13.2633 10.7656 13.2633 11.3179C13.2633 11.8702 13.711 12.3179 14.2633 12.3179Z" fill="#161823"/>
<path d="M2.33662 6.4151C3.68505 3.53698 6.60888 1.54102 10.0004 1.54102C14.6722 1.54102 18.4595 5.32825 18.4595 10C18.4595 14.6718 14.6722 18.4591 10.0004 18.4591C8.86988 18.4591 7.79871 18.2271 6.81967 17.8289L6.80428 17.8227L6.78919 17.8157C6.24279 17.5648 5.80549 17.0795 5.63713 16.4512C5.33789 15.3344 5.99798 14.1867 7.11233 13.8828L7.11554 13.8819C7.72607 13.7183 8.11622 13.0446 7.95383 12.4385C7.78748 11.8177 7.1404 11.442 6.50998 11.6067C4.7502 12.0773 2.55391 11.5101 1.99067 9.40813C1.85919 8.91744 1.85808 8.35042 1.92288 7.84415C1.98697 7.34348 2.12558 6.82412 2.33662 6.4151ZM10.0004 3.04102C7.20751 3.04102 4.79733 4.68633 3.68915 7.06384L3.68171 7.0798L3.67353 7.09539C3.5639 7.30439 3.46046 7.64619 3.41074 8.03459C3.36088 8.42416 3.37539 8.78041 3.43956 9.0199C3.70256 10.0014 4.79961 10.512 6.12385 10.1572L6.12746 10.1562C7.54683 9.7835 9.01993 10.6217 9.40272 12.0503C9.78128 13.4631 8.90807 14.9533 7.50577 15.3303C7.18855 15.4175 7.00072 15.7446 7.08601 16.063C7.13272 16.2373 7.25073 16.3727 7.40287 16.4468C8.21064 16.7728 9.08424 16.9591 10.0004 16.9591C13.8438 16.9591 16.9595 13.8434 16.9595 10C16.9595 6.15667 13.8438 3.04102 10.0004 3.04102Z" fill="#161823"/>
</svg>
