<svg width="12" height="12" viewBox="0 0 12 12" fill="none" xmlns="http://www.w3.org/2000/svg">
<g clip-path="url(#clip0_11783_2951)">
<path d="M10.9422 5.15381C10.4172 5.78864 9.76996 6.01555 8.70047 5.99346C8.69707 4.50342 7.48905 3.30304 6.00657 3.29976C5.98449 2.2302 6.21139 1.58293 6.84626 1.05783C7.45428 0.554538 8.47648 0.428937 9.18882 1.14127C9.50722 1.45967 9.67591 1.87385 9.69741 2.30244C10.126 2.32394 10.5404 2.49286 10.8588 2.81126C11.5711 3.52359 11.4455 4.5458 10.9422 5.15381Z" fill="#161823"/>
<path d="M8.70047 6.00607C8.69706 7.49609 7.48904 8.69647 6.00657 8.69974C5.98449 9.76932 6.21138 10.4166 6.84626 10.9417C7.45428 11.445 8.47648 11.5706 9.18882 10.8583C9.50722 10.5399 9.67591 10.1257 9.69741 9.69709C10.126 9.67559 10.5404 9.50667 10.8588 9.18827C11.5711 8.47593 11.4455 7.45373 10.9422 6.84571C10.4172 6.21088 9.76996 5.98397 8.70047 6.00607Z" fill="#161823"/>
<path d="M5.15479 1.05826C5.78957 1.58328 6.01649 2.23044 5.99444 3.29976C4.51177 3.30301 3.30362 4.50367 3.30049 5.99394C2.23108 6.01598 1.58387 5.78907 1.05881 5.15424C0.555515 4.54623 0.429914 3.52402 1.14225 2.81169C1.46065 2.49329 1.87483 2.32459 2.30342 2.30309C2.32491 1.87451 2.49383 1.4601 2.81223 1.1417C3.52457 0.429368 4.54677 0.554969 5.15479 1.05826Z" fill="#161823"/>
<path d="M1.05881 6.84579C1.58387 6.21097 2.23108 5.98405 3.30049 6.00609C3.3039 7.49612 4.51194 8.69649 5.99443 8.69974C6.01657 9.76938 5.78967 10.4167 5.15479 10.9418C4.54677 11.4451 3.52457 11.5707 2.81223 10.8583C2.49383 10.5399 2.32491 10.1255 2.30342 9.69694C1.87483 9.67544 1.46065 9.50675 1.14225 9.18834C0.429914 8.47601 0.555515 7.45381 1.05881 6.84579Z" fill="#161823"/>
<path d="M4.50049 5.99976C4.50049 6.82818 5.17206 7.49976 6.00049 7.49976C6.82892 7.49976 7.50049 6.82818 7.50049 5.99976C7.50049 5.17133 6.82892 4.49976 6.00049 4.49976C5.17206 4.49976 4.50049 5.17133 4.50049 5.99976Z" fill="#161823"/>
</g>
<defs>
<clipPath id="clip0_11783_2951">
<rect width="12" height="12" fill="white"/>
</clipPath>
</defs>
</svg>
