<svg width="20" height="20" viewBox="0 0 20 20" fill="none" xmlns="http://www.w3.org/2000/svg">
<path d="M6.77993 2.51868C7.19414 2.51868 7.52993 2.85446 7.52993 3.26868C7.52993 3.68289 7.19414 4.01868 6.77993 4.01868H4.26786C4.12979 4.01868 4.01786 4.13061 4.01786 4.26868V6.77636C4.01786 7.19057 3.68208 7.52636 3.26786 7.52636C2.85365 7.52636 2.51786 7.19057 2.51786 6.77636V4.26868C2.51786 3.30218 3.30136 2.51868 4.26786 2.51868H6.77993Z" fill="#161823"/>
<path d="M12.4699 3.26868C12.4699 2.85446 12.8057 2.51868 13.2199 2.51868H15.7319C16.6984 2.51868 17.4819 3.30218 17.4819 4.26868V6.77636C17.4819 7.19057 17.1461 7.52636 16.7319 7.52636C16.3177 7.52636 15.9819 7.19057 15.9819 6.77636V4.26868C15.9819 4.13061 15.87 4.01868 15.7319 4.01868H13.2199C12.8057 4.01868 12.4699 3.68289 12.4699 3.26868Z" fill="#161823"/>
<path d="M12.4699 16.7312C12.4699 17.1454 12.8057 17.4812 13.2199 17.4812H15.7319C16.6984 17.4812 17.4819 16.6977 17.4819 15.7312V13.2235C17.4819 12.8093 17.1461 12.4735 16.7319 12.4735C16.3177 12.4735 15.9819 12.8093 15.9819 13.2235V15.7312C15.9819 15.8693 15.87 15.9812 15.7319 15.9812H13.2199C12.8057 15.9812 12.4699 16.317 12.4699 16.7312Z" fill="#161823"/>
<path d="M7.52993 16.7312C7.52993 17.1454 7.19414 17.4812 6.77993 17.4812H4.26786C3.30136 17.4812 2.51786 16.6977 2.51786 15.7312V13.2235C2.51786 12.8093 2.85365 12.4735 3.26786 12.4735C3.68208 12.4735 4.01786 12.8093 4.01786 13.2235V15.7312C4.01786 15.8693 4.12979 15.9812 4.26786 15.9812H6.77993C7.19414 15.9812 7.52993 16.317 7.52993 16.7312Z" fill="#161823"/>
<path d="M3.17969 9.24994C2.76547 9.24994 2.42969 9.58573 2.42969 9.99994C2.42969 10.4142 2.76547 10.7499 3.17969 10.7499H16.8197C17.2339 10.7499 17.5697 10.4142 17.5697 9.99994C17.5697 9.58573 17.2339 9.24994 16.8197 9.24994H3.17969Z" fill="#161823"/>
</svg>
