<svg width="24" height="24" viewBox="0 0 24 24" fill="none" xmlns="http://www.w3.org/2000/svg">
<path d="M13.43 11.0777C13.43 11.8618 12.7904 12.497 12.0014 12.497C11.2125 12.497 10.5729 11.8618 10.5728 11.0777C10.5728 10.2952 11.2125 9.65991 12.0014 9.65991C12.7904 9.65991 13.43 10.2952 13.43 11.0777Z" fill="#161823"/>
<path d="M8.56999 11.0778C8.56999 11.8618 7.93012 12.4971 7.14077 12.4971C6.35275 12.4971 5.71285 11.8618 5.71285 11.0778C5.71285 10.2953 6.35275 9.66 7.14077 9.66C7.93012 9.66 8.56999 10.2953 8.56999 11.0778Z" fill="#161823"/>
<path d="M16.8618 12.4971C17.6511 12.4971 18.29 11.8618 18.29 11.0778C18.29 10.2953 17.651 9.66 16.8618 9.66C16.0726 9.66 15.4328 10.2953 15.4328 11.0778C15.4328 11.8618 16.0726 12.4971 16.8618 12.4971Z" fill="#161823"/>
<path d="M12 2C17.4348 2 22 5.91936 22 10.94C22 13.4411 20.7866 15.5348 18.8736 17.4511C17.4074 18.9198 15.2813 20.2307 13.9123 21.0012C12.7407 21.6605 11.3841 21.5753 11.3841 19.499V19.2972C6.3494 19.006 2 15.7965 2 10.9402C2 5.91937 6.56526 2 12 2ZM20.5 10.94C20.5 6.91415 16.7831 3.5 12 3.5C7.21693 3.5 3.5 6.91414 3.5 10.9402C3.5 14.8911 7.26084 17.8188 12.1341 17.8188C12.5483 17.8188 12.8841 18.1546 12.8841 18.5688V19.499C12.8841 19.5958 12.9298 19.6603 12.9869 19.6949C13.0411 19.7278 13.1044 19.7347 13.1766 19.694C14.5262 18.9345 16.4995 17.7062 17.8121 16.3913C19.5685 14.6318 20.5 12.897 20.5 10.94Z" fill="#161823"/>
</svg>
