<svg width="16" height="16" viewBox="0 0 16 16" fill="none" xmlns="http://www.w3.org/2000/svg">
<path d="M7.83897 0.756271C7.94642 0.725679 8.06028 0.725693 8.16772 0.756313L14.1648 2.46544C14.4226 2.53891 14.6004 2.77443 14.6004 3.04247V6.54748C14.6004 10.4994 12.0088 13.9949 8.18675 15.2373C8.06622 15.2765 7.93637 15.2765 7.81583 15.2373C3.99277 13.9949 1.40039 10.4987 1.40039 6.54586V3.04247C1.40039 2.77438 1.57824 2.53882 1.83609 2.4654L7.83897 0.756271ZM9.41455 4.90475C9.41455 4.03687 8.78135 3.33331 8.00026 3.33331C7.21917 3.33331 6.58597 4.03687 6.58597 4.90475C6.58597 5.77262 7.21917 6.47618 8.00026 6.47618C8.78135 6.47618 9.41455 5.77262 9.41455 4.90475ZM8.00035 7.33331C5.93785 7.33331 4.33368 8.41868 4.33368 9.75756C4.33368 10.2596 4.71251 10.6666 5.17983 10.6666H10.8209C11.2882 10.6666 11.667 10.2596 11.667 9.75756C11.667 8.41868 10.0628 7.33331 8.00035 7.33331Z" fill="#161823"/>
</svg>
