<svg width="24" height="24" viewBox="0 0 24 24" fill="none" xmlns="http://www.w3.org/2000/svg">
<path d="M1.96967 1.96967C1.67678 2.26256 1.67678 2.73744 1.96967 3.03033L3.25096 4.31162C3.25029 4.31191 3.24962 4.3122 3.24895 4.31249L7.41493 8.47848C7.4153 8.47788 7.41567 8.47729 7.41604 8.4767L8.47076 9.53142L8.4677 9.53125L8.47207 9.53562L8.47076 9.53142L10.6854 11.746L10.6869 11.7505L12.6341 13.6977V13.6948L14.9393 16H14.9365L18.9365 20H18.9393L20.9697 22.0303C21.2626 22.3232 21.7374 22.3232 22.0303 22.0303C22.3232 21.7374 22.3232 21.2626 22.0303 20.9697L20.749 19.6884C22.074 19.1099 23 17.7881 23 16.25V7.75C23 5.67893 21.3211 4 19.25 4H5.06066L3.03033 1.96967C2.73744 1.67678 2.26256 1.67678 1.96967 1.96967ZM9.23758 8.17692L9.38077 8.32011C9.33598 8.26637 9.28839 8.21873 9.23758 8.17692ZM19.1263 12.0039C19.1263 14.068 18.355 15.3644 16.8789 15.8182L15.7431 14.6825C16.9452 14.5353 17.5091 13.6672 17.5091 12.0039C17.5091 10.1582 16.8177 9.29102 15.3529 9.29102H14.2162V13.1555L12.6341 11.5735V9.01562C12.6341 8.33594 12.9857 8.00195 13.6888 8.00195H15.5521C17.89 8.00195 19.1263 9.38477 19.1263 12.0039Z" fill="#161823"/>
<path d="M2.00752 5.19238C1.38248 5.86231 1 6.76149 1 7.75V16.25C1 18.3211 2.67893 20 4.75 20H16.8151L11.8053 14.9902C11.844 15.1399 11.8633 15.2663 11.8633 15.3789C11.8633 15.8008 11.5645 16.0703 11.1133 16.0703C10.6855 16.0703 10.4395 15.8477 10.2812 15.3027L9.83008 13.9434H7.02344L6.57812 15.3027C6.41406 15.8535 6.17969 16.0703 5.75781 16.0703C5.32422 16.0703 5.02539 15.8066 5.02539 15.4082C5.02539 15.25 5.06641 15.0684 5.16602 14.7695L6.82618 10.011L2.00752 5.19238Z" fill="#161823"/>
<path d="M7.90365 11.0885L7.375 12.7656H9.48438L9.44038 12.6252L7.90365 11.0885Z" fill="#161823"/>
</svg>
