<svg width="20" height="20" viewBox="0 0 20 20" fill="none" xmlns="http://www.w3.org/2000/svg">
<path d="M18 10C18 10.0362 17.9998 10.0723 17.9993 10.1083H16.4991C16.4997 10.0723 16.5 10.0362 16.5 10C16.5 6.41015 13.5899 3.5 10 3.5C6.41015 3.5 3.5 6.41015 3.5 10C3.5 13.2574 5.89611 15.9552 9.02193 16.4269C8.83184 16.9109 8.81709 17.4451 8.97295 17.9347C5.03974 17.4306 2 14.0703 2 10C2 5.58172 5.58172 2 10 2C14.4183 2 18 5.58172 18 10Z" fill="#161823"/>
<path d="M6.57378 9.29289L9.28435 6.58232C9.67488 6.19179 10.308 6.19179 10.6986 6.58232L13.4091 9.29289C13.7997 9.68342 13.7997 10.3166 13.4091 10.7071L10.6986 13.4177C10.308 13.8082 9.67488 13.8082 9.28435 13.4177L6.57378 10.7071C6.18325 10.3166 6.18325 9.68342 6.57378 9.29289ZM9.99146 12.0035L11.9949 10L9.99146 7.99653L7.98799 10L9.99146 12.0035Z" fill="#161823"/>
<path d="M16.9996 15.1542L17.8893 16.0479C18.075 16.2344 18.3548 16.2905 18.5981 16.1901C18.8413 16.0896 19 15.8524 19 15.5893V12.6833C19 12.3243 18.7089 12.0333 18.35 12.0333H15.4566C15.194 12.0333 14.9572 12.1914 14.8564 12.4339C14.7556 12.6765 14.8107 12.9558 14.996 13.1419L15.9394 14.0895L14.7954 15.3697L13.674 14.3995C13.3657 14.1328 12.9008 14.1612 12.6272 14.4634L10.5606 16.7467C10.2826 17.0538 10.3062 17.5281 10.6133 17.806C10.9204 18.084 11.3947 18.0604 11.6727 17.7533L13.2472 16.0137L14.3722 16.987C14.6819 17.2549 15.1492 17.2249 15.4221 16.9195L16.9996 15.1542Z" fill="#161823"/>
</svg>
