<svg width="12" height="12" viewBox="0 0 12 12" fill="none" xmlns="http://www.w3.org/2000/svg">
<path fill-rule="evenodd" clip-rule="evenodd" d="M7 2H5C4.44772 2 4 2.44772 4 3H8C8 2.44772 7.55228 2 7 2ZM5 1C3.89543 1 3 1.89543 3 3H2.25C1.2835 3 0.5 3.7835 0.5 4.75V9.5C0.5 10.4665 1.2835 11.25 2.25 11.25H9.75C10.7165 11.25 11.5 10.4665 11.5 9.5V4.75C11.5 3.7835 10.7165 3 9.75 3H9C9 1.89543 8.10457 1 7 1H5ZM3 4H9H9.75C10.1642 4 10.5 4.33579 10.5 4.75V6.5H1.5V4.75C1.5 4.33579 1.83579 4 2.25 4H3ZM1.5 7.5V9.5C1.5 9.91421 1.83579 10.25 2.25 10.25H9.75C10.1642 10.25 10.5 9.91421 10.5 9.5V7.5H1.5ZM6 6.125C6.34517 6.125 6.625 5.84517 6.625 5.5C6.625 5.15483 6.34517 4.875 6 4.875C5.65483 4.875 5.375 5.15483 5.375 5.5C5.375 5.84517 5.65483 6.125 6 6.125Z" fill="#161823"/>
</svg>
