<svg width="24" height="24" viewBox="0 0 24 24" fill="none" xmlns="http://www.w3.org/2000/svg">
<path d="M9.25 14C9.25 13.5858 9.58579 13.25 10 13.25H14.5C14.9142 13.25 15.25 13.5858 15.25 14C15.25 14.4142 14.9142 14.75 14.5 14.75H10C9.58579 14.75 9.25 14.4142 9.25 14Z" fill="#161823"/>
<path d="M10 9.25C9.58579 9.25 9.25 9.58579 9.25 10C9.25 10.4142 9.58579 10.75 10 10.75H14.5C14.9142 10.75 15.25 10.4142 15.25 10C15.25 9.58579 14.9142 9.25 14.5 9.25H10Z" fill="#161823"/>
<path d="M4.75 4C3.23122 4 2 5.23122 2 6.75V8.80424C2 9.06299 2.19948 9.27416 2.44976 9.33982C3.62963 9.64935 4.5 10.723 4.5 12C4.5 13.277 3.62963 14.3507 2.44976 14.6602C2.19948 14.7258 2 14.937 2 15.1958V17.25C2 18.7688 3.23122 20 4.75 20H19.25C20.7688 20 22 18.7688 22 17.25V15.1958C22 14.937 21.8005 14.7258 21.5502 14.6602C20.3704 14.3507 19.5 13.277 19.5 12C19.5 10.723 20.3704 9.64935 21.5502 9.33982C21.8005 9.27416 22 9.06299 22 8.80424V6.75C22 5.23122 20.7688 4 19.25 4H4.75ZM4.75 5.5H19.25C19.9404 5.5 20.5 6.05964 20.5 6.75V8.12636C19.0263 8.79316 18 10.2753 18 12C18 13.7247 19.0263 15.2068 20.5 15.8736V17.25C20.5 17.9404 19.9404 18.5 19.25 18.5H4.75C4.05964 18.5 3.5 17.9404 3.5 17.25V15.8736C4.97366 15.2068 6 13.7247 6 12C6 10.2753 4.97366 8.79316 3.5 8.12636V6.75C3.5 6.05964 4.05964 5.5 4.75 5.5Z" fill="#161823"/>
</svg>
