<svg width="24" height="24" viewBox="0 0 24 24" fill="none" xmlns="http://www.w3.org/2000/svg">
<path fill-rule="evenodd" clip-rule="evenodd" d="M20 9.5C20 12.4611 18.3912 15.0465 16 16.4297V17.24C16 17.7627 16 18.0241 15.8983 18.2237C15.8088 18.3993 15.666 18.5421 15.4904 18.6316C15.2907 18.7333 15.0294 18.7333 14.5067 18.7333H9.49333C8.97062 18.7333 8.70926 18.7333 8.50961 18.6316C8.33399 18.5421 8.19121 18.3993 8.10173 18.2237C8 18.0241 8 17.7627 8 17.24V16.4297C5.60879 15.0465 4 12.4611 4 9.5C4 5.08172 7.58172 1.5 12 1.5C16.4183 1.5 20 5.08172 20 9.5ZM10.1516 11.3003L11.1584 11.4778L11.0015 12.1339C10.7155 13.33 10.5726 13.928 10.712 14.1436C10.832 14.3292 11.0443 14.4338 11.2646 14.4158C11.5206 14.3949 11.9075 13.917 12.6813 12.9613L14.6209 10.5657C15.0708 10.01 15.2958 9.73221 15.3106 9.47502C15.3235 9.25062 15.2415 9.03113 15.0845 8.87027C14.9045 8.6859 14.5525 8.62382 13.8484 8.49967L12.8416 8.32214L12.9985 7.66601C13.2844 6.47 13.4274 5.87198 13.288 5.65637C13.168 5.47076 12.9556 5.36617 12.7353 5.38416C12.4794 5.40506 12.0925 5.88293 11.3187 6.83866L9.37905 9.23426C8.92915 9.78992 8.7042 10.0677 8.68939 10.3249C8.67646 10.5493 8.75853 10.7688 8.91552 10.9297C9.09545 11.1141 9.44749 11.1761 10.1516 11.3003Z" fill="#161823"/>
<path d="M9.66667 20.2333C9.29848 20.2333 9 20.5318 9 20.9C9 21.7837 9.71634 22.5 10.6 22.5H13.4C14.2837 22.5 15 21.7837 15 20.9C15 20.5318 14.7015 20.2333 14.3333 20.2333H9.66667Z" fill="#161823"/>
</svg>
