<svg width="20" height="20" viewBox="0 0 20 20" fill="none" xmlns="http://www.w3.org/2000/svg">
<path d="M11.4606 9.29284C11.0464 9.29284 10.7106 8.95706 10.7106 8.54284V2.29291C10.7106 1.87869 11.0464 1.54291 11.4606 1.54291C11.8748 1.54291 12.2106 1.87869 12.2106 2.29291V7.79284H17.7088C18.123 7.79284 18.4588 8.12863 18.4588 8.54284C18.4588 8.95706 18.123 9.29284 17.7088 9.29284H11.4606Z" fill="#161823"/>
<path d="M8.54211 10.7096C8.95632 10.7096 9.29211 11.0454 9.29211 11.4596V17.7095C9.29211 18.1237 8.95632 18.4595 8.54211 18.4595C8.12789 18.4595 7.79211 18.1237 7.79211 17.7095V12.2096H2.29395C1.87973 12.2096 1.54395 11.8738 1.54395 11.4596C1.54395 11.0454 1.87973 10.7096 2.29395 10.7096H8.54211Z" fill="#161823"/>
</svg>
