<svg width="20" height="20" viewBox="0 0 20 20" fill="none" xmlns="http://www.w3.org/2000/svg">
<path d="M8.64475 3.5083C5.10967 3.5083 2.41992 5.99584 2.41992 8.86126C2.41992 10.6041 3.39582 12.1869 4.96888 13.1799L5.31855 13.4006V15.6984L7.34042 14.5214C7.56511 14.9721 7.84634 15.3907 8.17426 15.7717L5.76958 17.1714C4.90424 17.6752 3.81855 17.0509 3.81855 16.0496V14.214C2.07386 12.9746 0.919922 11.0532 0.919922 8.86126C0.919922 4.98553 4.47565 2.0083 8.64475 2.0083C11.6828 2.0083 14.3951 3.5892 15.6432 5.94666C15.0002 5.76547 14.3241 5.66838 13.635 5.66666C12.5163 4.3715 10.7272 3.5083 8.64475 3.5083Z" fill="#161823"/>
<path d="M13.6875 7.11502C10.7742 7.11502 8.2366 9.20143 8.2366 11.9783C8.2366 14.721 10.5661 16.8415 13.5173 16.8415C13.5813 16.8415 13.6451 16.8405 13.7086 16.8386L15.013 17.778C15.7435 18.3145 16.7729 17.8042 16.7942 16.9039L16.8542 15.924C18.137 15.068 19.1384 13.6922 19.1384 11.9783C19.1384 9.20143 16.6007 7.11502 13.6875 7.11502ZM9.7366 11.9783C9.7366 10.2117 11.4083 8.61502 13.6875 8.61502C15.9667 8.61502 17.6384 10.2117 17.6384 11.9783C17.6384 13.1555 16.8868 14.1924 15.7562 14.8407L15.4054 15.0418L15.3368 16.1627L14.1486 15.3069L13.8754 15.3279C13.7576 15.3369 13.6381 15.3415 13.5173 15.3415C11.276 15.3415 9.7366 13.7789 9.7366 11.9783Z" fill="#161823"/>
</svg>
