<svg width="16" height="16" viewBox="0 0 16 16" fill="none" xmlns="http://www.w3.org/2000/svg">
<path d="M6.36603 1.84112L12.3226 0.900296C12.8081 0.823599 13.2474 1.1989 13.2474 1.6905L13.2472 11.1155L13.2473 11.1262V11.2985C13.2473 12.3102 12.5271 13.1786 11.5328 13.3656L11.0779 13.4512C10.0194 13.6504 9.04053 12.8385 9.04053 11.7614C9.04053 10.9328 9.63156 10.222 10.4463 10.0708L11.6283 9.85152L11.6236 9.8473C11.9552 9.78512 12.1956 9.49558 12.1955 9.15819V4.43235L6.236 5.37175L6.236 12.4272L6.23604 12.4379V12.6131C6.23604 13.6248 5.51583 14.4932 4.5216 14.6802L4.06827 14.7655C3.00897 14.9648 2.0293 14.1523 2.0293 13.0744C2.0293 12.2463 2.61908 11.5357 3.43297 11.3831L4.61509 11.1614L4.61298 11.1596C4.94432 11.0971 5.18431 10.8077 5.18431 10.4705L5.18445 3.22398C5.18445 2.5351 5.68559 1.94859 6.36603 1.84112Z" fill="#161823"/>
</svg>
