<svg width="20" height="20" viewBox="0 0 20 20" fill="none" xmlns="http://www.w3.org/2000/svg">
<path d="M5.7666 1C4.24782 1 3.0166 2.23122 3.0166 3.75V16.25C3.0166 17.7688 4.24782 19 5.7666 19H9.20046C9.37098 19 9.46676 18.7971 9.37013 18.6566C9.18021 18.3805 9.02602 18.0858 8.90817 17.7794C8.84507 17.6154 8.69172 17.5 8.516 17.5H5.7666C5.07624 17.5 4.5166 16.9404 4.5166 16.25V3.75C4.5166 3.05964 5.07625 2.5 5.7666 2.5H6.5V2.70003C6.5 3.25232 6.94772 3.70003 7.5 3.70003H10.5C11.0523 3.70003 11.5 3.25232 11.5 2.70003V2.5H12.2333C12.9236 2.5 13.4833 3.05964 13.4833 3.75V8.42997C13.4833 8.6101 13.7085 8.70384 13.8476 8.58935C14.1224 8.36316 14.4203 8.17606 14.7333 8.02875C14.882 7.9588 14.9833 7.81284 14.9833 7.64855V3.75C14.9833 2.23122 13.7521 1 12.2333 1H5.7666Z" fill="#161823"/>
<path d="M14.439 10.1064C15.4152 8.94296 17.1498 8.79121 18.3132 9.76747C19.4767 10.7437 19.6284 12.4783 18.6522 13.6418L18.138 14.2546C17.8717 14.5719 17.3986 14.6133 17.0813 14.347C16.764 14.0808 16.7226 13.6077 16.9889 13.2904L17.5031 12.6776C17.9469 12.1487 17.8779 11.3603 17.3491 10.9165C16.8202 10.4728 16.0318 10.5418 15.588 11.0706L14.5596 12.2963C14.2497 12.6656 14.1898 13.1615 14.362 13.5782C14.4886 13.8844 14.541 14.2631 14.328 14.5169L14.1673 14.7085C13.9365 14.9835 13.5183 15.0227 13.3047 14.7342C12.5657 13.7356 12.5768 12.3256 13.4105 11.3321L14.439 10.1064Z" fill="#161823"/>
<path d="M15.2524 13.4152C15.4832 13.1402 15.9014 13.101 16.1149 13.3895C16.8539 14.3881 16.8428 15.7981 16.0092 16.7916L14.9807 18.0173C14.0045 19.1807 12.2699 19.3325 11.1064 18.3562C9.94297 17.38 9.79121 15.6454 10.7675 14.4819L11.2817 13.8691C11.5479 13.5518 12.021 13.5104 12.3383 13.7766C12.6556 14.0429 12.697 14.516 12.4308 14.8333L11.9165 15.4461C11.4728 15.975 11.5418 16.7634 12.0706 17.2071C12.5994 17.6509 13.3879 17.5819 13.8316 17.0531L14.8601 15.8274C15.17 15.4581 15.2298 14.9622 15.0576 14.5455C14.9311 14.2392 14.8787 13.8606 15.0917 13.6067L15.2524 13.4152Z" fill="#161823"/>
</svg>
