<svg width="20" height="20" viewBox="0 0 20 20" fill="none" xmlns="http://www.w3.org/2000/svg">
<path fill-rule="evenodd" clip-rule="evenodd" d="M6.40807 2.28057C8.10742 1.57668 9.99154 1.45318 11.7682 1.92924C13.5449 2.40531 15.1149 3.45431 16.2346 4.91357C17.3543 6.37279 17.9612 8.1607 17.9612 10H18.8176C19.1407 10 19.3305 10.3633 19.1458 10.6285L17.545 12.9284C17.3858 13.157 17.0475 13.157 16.8884 12.9284L15.2875 10.6285C15.1029 10.3633 15.2927 10 15.6158 10H16.4612C16.4612 8.4909 15.9632 7.02397 15.0446 5.82672C14.1258 4.62942 12.8377 3.76873 11.38 3.37813C9.92226 2.98754 8.37638 3.08886 6.9821 3.66639C5.58782 4.24392 4.42307 5.26537 3.66849 6.57234C2.91391 7.87931 2.61168 9.39874 2.80866 10.895C3.00565 12.3912 3.69084 13.7807 4.75798 14.8478C5.82511 15.9149 7.21455 16.6001 8.71079 16.7971C10.207 16.9941 11.7265 16.6919 13.0334 15.9373C13.3922 15.7302 13.8508 15.8531 14.058 16.2118C14.2651 16.5705 14.1422 17.0292 13.7834 17.2363C12.1905 18.156 10.3386 18.5244 8.515 18.2843C6.69138 18.0442 4.99794 17.2091 3.69731 15.9085C2.39669 14.6078 1.56158 12.9144 1.3215 11.0908C1.08141 9.26716 1.44977 7.41527 2.36945 5.82234C3.28913 4.22941 4.70873 2.98446 6.40807 2.28057ZM7.27398 7.94908C7.27398 6.51505 8.43649 5.35254 9.87052 5.35254C11.3045 5.35254 12.4671 6.51505 12.4671 7.94908V9.15754C12.9051 9.18897 13.2508 9.55433 13.2508 10.0004V13.3807C13.2508 13.8474 12.8724 14.2258 12.4057 14.2258H7.3353C6.86858 14.2258 6.49023 13.8474 6.49023 13.3807V10.0004C6.49023 9.55432 6.83589 9.18896 7.27398 9.15754V7.94908ZM11.1995 7.94908V9.15535H8.54158V7.94908C8.54158 7.21513 9.13656 6.62014 9.87052 6.62014C10.6045 6.62014 11.1995 7.21513 11.1995 7.94908Z" fill="#161823"/>
</svg>
