<svg width="16" height="16" viewBox="0 0 16 16" fill="none" xmlns="http://www.w3.org/2000/svg">
<path fill-rule="evenodd" clip-rule="evenodd" d="M12.8811 8.41856C13.1714 7.78503 13.3333 7.08036 13.3333 6.33789C13.3333 3.57647 11.0947 1.33789 8.33325 1.33789C6.61 1.33789 5.09037 2.20966 4.1913 3.53624C4.13737 3.47132 4.08408 3.40596 4.03144 3.34018C3.77264 3.01677 3.30066 2.96439 2.97725 3.2232C2.65384 3.482 2.60147 3.95398 2.86027 4.27739C3.06646 4.53505 3.28157 4.78679 3.50548 5.03212C3.39316 5.44838 3.33325 5.88614 3.33325 6.33789C3.33325 7.19189 3.54735 7.99587 3.9248 8.69911L2.53978 11.8394C2.11061 12.8125 2.48326 13.9526 3.40429 14.4843L3.742 14.6793C4.66302 15.2111 5.83671 14.9637 6.46483 14.1055L8.49227 11.3354C9.85727 11.2928 11.0844 10.703 11.9616 9.77812C12.1642 9.81744 12.3672 9.85257 12.5704 9.88355C12.9799 9.94598 13.3625 9.66463 13.4249 9.25515C13.4829 8.87453 13.2439 8.51718 12.8811 8.41856ZM11.3568 8.10201C11.6597 7.58402 11.8333 6.98123 11.8333 6.33789C11.8333 4.40489 10.2662 2.83789 8.33325 2.83789C7.00174 2.83789 5.84389 3.58142 5.25225 4.67593C6.04589 5.43743 6.94354 6.11666 7.93974 6.69182C9.03871 7.32631 10.1874 7.79361 11.3568 8.10201ZM10.1713 9.31699C9.15268 8.9879 8.15339 8.54722 7.18974 7.99086C6.339 7.49968 5.55247 6.93938 4.83329 6.32107C4.83327 6.32667 4.83325 6.33228 4.83325 6.33789C4.83325 8.27089 6.40026 9.83789 8.33325 9.83789C9.00744 9.83789 9.6371 9.64727 10.1713 9.31699ZM3.91222 12.4447L4.97273 10.0402C5.4949 10.5145 6.11782 10.8798 6.80558 11.1002L5.25439 13.2196C5.07852 13.4599 4.74988 13.5292 4.492 13.3803L4.15429 13.1853C3.8964 13.0364 3.79206 12.7172 3.91222 12.4447Z" fill="#161823"/>
</svg>
