<svg width="24" height="24" viewBox="0 0 24 24" fill="none" xmlns="http://www.w3.org/2000/svg">
<path d="M4.66719 3.7667C4.66719 3.26964 4.26424 2.8667 3.76719 2.8667C3.27013 2.8667 2.86719 3.26964 2.86719 3.7667V19.2334C2.86719 20.2827 3.71785 21.1334 4.76719 21.1334H20.2339C20.7309 21.1334 21.1339 20.7304 21.1339 20.2334C21.1339 19.7363 20.7309 19.3334 20.2339 19.3334H4.76719C4.71196 19.3334 4.66719 19.2886 4.66719 19.2334V3.7667Z" fill="#161823"/>
<path d="M17.7985 10.5172L18.8909 11.6097C19.0768 11.7956 19.3564 11.8512 19.5993 11.7506C19.8422 11.6499 20.0005 11.4129 20.0005 11.15V7.65003C20.0005 7.29105 19.7095 7.00003 19.3505 7.00003H15.8505C15.5876 7.00003 15.3506 7.1584 15.25 7.40129C15.1494 7.64418 15.205 7.92375 15.3909 8.10965L16.5237 9.24247L13.8125 12.2748L11.2796 10.0848C10.9097 9.76495 10.3521 9.79899 10.0239 10.1614L6.08342 14.5126C5.74977 14.881 5.77795 15.4501 6.14638 15.7838C6.51481 16.1174 7.08396 16.0893 7.41761 15.7208L10.7677 12.0217L13.3048 14.2154C13.6764 14.5366 14.2369 14.5006 14.5644 14.1344L17.7985 10.5172Z" fill="#161823"/>
</svg>
