<svg width="12" height="12" viewBox="0 0 12 12" fill="none" xmlns="http://www.w3.org/2000/svg">
<path fill-rule="evenodd" clip-rule="evenodd" d="M11 4.70356C11 5.12626 10.8316 5.53159 10.5319 5.83013L8.60156 7.75303L10.4243 9.57574C10.6586 9.81005 10.6586 10.1899 10.4243 10.4243C10.1899 10.6586 9.81005 10.6586 9.57574 10.4243L7.75139 8.59992L7.74994 8.60137L3.41301 4.26444L3.41446 4.26299L1.57574 2.42426C1.34142 2.18995 1.34142 1.81005 1.57574 1.57574C1.81005 1.34142 2.18995 1.34142 2.42426 1.57574L4.26445 3.41592L6.22209 1.46499C6.52087 1.16723 6.92577 1 7.3479 1H9.4063C10.2865 1 11 1.71246 11 2.59132L11 4.70356ZM8.10001 4.8C8.59707 4.8 9.00001 4.39706 9.00001 3.9C9.00001 3.40294 8.59707 3 8.10001 3C7.60296 3 7.20001 3.40294 7.20001 3.9C7.20001 4.39706 7.60296 4.8 8.10001 4.8Z" fill="#161823"/>
<path d="M2.56303 5.11151L6.89978 9.44826L5.8086 10.5352C5.18673 11.1547 4.18009 11.1549 3.55794 10.5357L1.46862 8.45629C0.844083 7.83471 0.843752 6.82489 1.46788 6.2029L2.56303 5.11151Z" fill="#161823"/>
</svg>
