<svg width="20" height="20" viewBox="0 0 20 20" fill="none" xmlns="http://www.w3.org/2000/svg">
<path d="M12 15.8223C11.6969 15.8223 11.4236 16.0048 11.3073 16.2847C11.1911 16.5646 11.2547 16.887 11.4687 17.1017L13.2957 18.9353C13.5881 19.2287 14.063 19.2296 14.3564 18.9372C14.6498 18.6449 14.6507 18.17 14.3583 17.8766L13.806 17.3223H18.2547C18.6689 17.3223 19.0047 16.9865 19.0047 16.5723C19.0047 16.1581 18.6689 15.8223 18.2547 15.8223H12Z" fill="#161823"/>
<path d="M10.2408 17.2278C10.2098 17.1436 10.1321 17.0834 10.0423 17.0834H4.58333C4.1231 17.0834 3.75 16.7103 3.75 16.25V15.6061C3.75 13.4304 6.48438 11.6667 10 11.6667C10.8333 11.6667 11.6228 11.7658 12.3423 11.946C12.3584 11.95 12.3748 11.9521 12.3914 11.9521H14.3585C14.4669 11.9521 14.5545 11.8653 14.5685 11.7577C14.5833 11.6431 14.6088 11.5295 14.6448 11.4187C14.6773 11.3187 14.6393 11.2063 14.5452 11.1596C13.2518 10.5182 11.6753 10.1667 10 10.1667C8.00786 10.1667 6.15542 10.6637 4.75275 11.5541C3.36383 12.4358 2.25 13.8336 2.25 15.6061V16.25C2.25 17.5387 3.29467 18.5834 4.58333 18.5834H10.87C11.0482 18.5834 11.1374 18.3679 11.0114 18.2419L10.6742 17.9047C10.4784 17.7089 10.3328 17.4772 10.2408 17.2278Z" fill="#161823"/>
<path d="M9.99978 9.16669C11.8407 9.16669 13.3331 7.48775 13.3331 5.41669C13.3331 3.34562 11.8407 1.66669 9.99978 1.66669C8.15883 1.66669 6.66644 3.34562 6.66644 5.41669C6.66644 7.48775 8.15883 9.16669 9.99978 9.16669ZM9.99978 7.66669C9.14846 7.66669 8.16644 6.8303 8.16644 5.41669C8.16644 4.00307 9.14846 3.16669 9.99978 3.16669C10.8511 3.16669 11.8331 4.00307 11.8331 5.41669C11.8331 6.8303 10.8511 7.66669 9.99978 7.66669Z" fill="#161823"/>
<path d="M18.948 14.1089C18.832 14.3894 18.5584 14.5723 18.2549 14.5723H12.0049C11.5906 14.5723 11.2549 14.2365 11.2549 13.8223C11.2549 13.4081 11.5906 13.0723 12.0049 13.0723H16.4409L15.8982 12.531C15.6049 12.2385 15.6043 11.7636 15.8968 11.4704C16.1893 11.1771 16.6642 11.1765 16.9574 11.469L18.7845 13.2913C18.9994 13.5057 19.0639 13.8284 18.948 14.1089Z" fill="#161823"/>
</svg>
