<svg width="12" height="12" viewBox="0 0 12 12" fill="none" xmlns="http://www.w3.org/2000/svg">
<g clip-path="url(#clip0_62644_37)">
<path fill-rule="evenodd" clip-rule="evenodd" d="M2.65194 4.62791C3.09943 3.20903 4.4258 2.16252 6.01517 2.16252C7.60227 2.16252 8.92839 3.20647 9.37718 4.62417C8.7129 4.60544 8.17569 5.15555 8.12108 5.79237C8.08239 6.2435 8.03205 6.75624 7.98347 7.05685C7.94232 7.31141 7.87637 7.67428 7.81172 8.01942C7.69691 8.63244 8.01605 9.22308 8.53727 9.47923C8.1949 9.67909 7.71681 9.82743 7.06891 9.904C6.90893 9.69629 6.65774 9.56246 6.37529 9.56246C5.89204 9.56246 5.50029 9.95422 5.50029 10.4375C5.50029 10.9207 5.89204 11.3125 6.37529 11.3125C6.57944 11.3125 6.76725 11.2426 6.91611 11.1254C7.81105 11.0501 8.56008 10.8569 9.14749 10.5125C9.62198 10.2343 9.97157 9.86907 10.2046 9.43001C10.3406 9.38093 10.4605 9.3254 10.5606 9.27303C10.9787 9.05417 11.1856 8.65067 11.2491 8.28511C11.2974 8.0071 11.3636 7.60845 11.3893 7.36198C11.4024 7.23675 11.4206 7.06566 11.4393 6.89143C11.504 6.28764 11.3355 5.57333 10.7108 5.15249C10.448 2.81546 8.46321 0.962524 6.01517 0.962524C3.59732 0.962524 1.63353 2.7693 1.33054 5.06197C1.2945 5.08384 1.25992 5.1053 1.22674 5.12633C0.569213 5.54324 0.392191 6.27494 0.458225 6.89143C0.476887 7.06566 0.495098 7.23675 0.508175 7.36198C0.533914 7.60845 0.60012 8.0071 0.648413 8.28511C0.711916 8.65067 0.918782 9.05417 1.33694 9.27303C1.55476 9.38703 1.86667 9.516 2.23337 9.56084C2.36604 9.57706 2.50898 9.59218 2.65005 9.60584C3.55539 9.69354 4.24668 8.87846 4.08578 8.01942C4.02114 7.67428 3.95519 7.31141 3.91404 7.05685C3.86545 6.75624 3.81512 6.2435 3.77643 5.79237C3.72547 5.19818 3.25438 4.67949 2.65194 4.62791ZM2.54004 5.82769L2.54395 5.82654C2.54395 5.82654 2.54667 5.82791 2.54892 5.82953C2.56051 5.83785 2.57773 5.85888 2.58082 5.8949C2.61911 6.34142 2.67264 6.89705 2.72942 7.24832C2.77313 7.51878 2.84148 7.89428 2.9063 8.24034C2.92669 8.34924 2.84059 8.41868 2.76576 8.41143C2.63107 8.39839 2.49867 8.38434 2.379 8.36971C2.20059 8.34789 2.03028 8.28149 1.89339 8.20984C1.8893 8.2077 1.87995 8.20197 1.86756 8.18279C1.85406 8.16189 1.83901 8.12752 1.83071 8.07973C1.78124 7.79499 1.72248 7.43649 1.70169 7.23734C1.68844 7.11046 1.67008 6.93806 1.6514 6.76363C1.61599 6.43302 1.72241 6.23294 1.86932 6.13979C1.90137 6.11947 1.93561 6.09831 1.97216 6.07634C2.12082 5.98699 2.32366 5.90171 2.54004 5.82769ZM9.35356 5.82654L9.35747 5.82769C9.57385 5.90171 9.77669 5.98699 9.92535 6.07634C9.9619 6.09831 9.99614 6.11947 10.0282 6.13979C10.1751 6.23294 10.2815 6.43302 10.2461 6.76363C10.2274 6.93806 10.2091 7.11046 10.1958 7.23734C10.175 7.43649 10.1163 7.79499 10.0668 8.07973C10.0585 8.12752 10.0435 8.16189 10.03 8.18279C10.0176 8.20197 10.0082 8.2077 10.0041 8.20984C9.86723 8.28149 9.69692 8.34789 9.51851 8.36971C9.39884 8.38434 9.26644 8.39839 9.13175 8.41143C9.05692 8.41868 8.97082 8.34924 8.99121 8.24034C9.05603 7.89428 9.12438 7.51878 9.16809 7.24832C9.22487 6.89705 9.27839 6.34142 9.31669 5.8949C9.31978 5.85888 9.337 5.83785 9.34859 5.82953C9.35084 5.82791 9.35356 5.82654 9.35356 5.82654Z" fill="#161823"/>
</g>
<defs>
<clipPath id="clip0_62644_37">
<rect width="12" height="12" fill="white"/>
</clipPath>
</defs>
</svg>
