<svg width="24" height="24" viewBox="0 0 24 24" fill="none" xmlns="http://www.w3.org/2000/svg">
<path d="M7.30614 3.00488C6.45016 3.05656 5.66323 3.50566 5.18404 4.22445L2.25097 8.62405C1.52383 9.71477 1.66764 11.1671 2.59457 12.094L11.2933 20.7928C11.4577 20.9571 11.665 21.0523 11.8791 21.0783C11.9187 21.0848 11.9592 21.0882 12.0003 21.0882C12.0412 21.0882 12.0815 21.0848 12.121 21.0784C12.3354 21.0525 12.543 20.9573 12.7075 20.7928L21.4063 12.094C22.3332 11.1671 22.477 9.71477 21.7499 8.62405L18.8168 4.22445C18.3376 3.50566 17.5507 3.05656 16.6947 3.00488H7.30614ZM10.294 4.49988L7.96312 8.75631C7.83294 8.99403 7.73207 9.24363 7.66084 9.49988H3.47114C3.48011 9.48515 3.48941 9.47056 3.49905 9.4561L6.43211 5.0565C6.66394 4.70875 7.05423 4.49988 7.47218 4.49988H10.294ZM3.65523 11.0334C3.64422 11.0224 3.63347 11.0112 3.62295 10.9999H7.57843C7.61861 11.2467 7.68551 11.4907 7.77938 11.7275L10.0329 17.4111L3.65523 11.0334ZM9.17377 11.1746C9.15095 11.117 9.13093 11.0587 9.11367 10.9999H14.887C14.8697 11.0587 14.8497 11.117 14.8269 11.1746L12.0003 18.3033L9.17377 11.1746ZM16.2213 11.7275C16.3151 11.4907 16.382 11.2467 16.4222 10.9999H20.3779C20.3674 11.0112 20.3566 11.0224 20.3456 11.0334L13.9676 17.4114L16.2213 11.7275ZM16.3398 9.49988C16.2686 9.24363 16.1677 8.99403 16.0375 8.75631L13.7066 4.49988H16.5287C16.9466 4.49988 17.3369 4.70875 17.5687 5.0565L20.5018 9.4561C20.5114 9.47056 20.5207 9.48515 20.5297 9.49988H16.3398ZM9.27877 9.47678L12.0003 4.50698L14.7219 9.47678L14.7343 9.49988H9.26632L9.27877 9.47678Z" fill="#161823"/>
</svg>
