<svg width="20" height="20" viewBox="0 0 20 20" fill="none" xmlns="http://www.w3.org/2000/svg">
<path fill-rule="evenodd" clip-rule="evenodd" d="M10 18.0005C14.4183 18.0005 18 14.4188 18 10.0005C18 5.58221 14.4183 2.00049 10 2.00049C5.58172 2.00049 2 5.58221 2 10.0005C2 14.4188 5.58172 18.0005 10 18.0005ZM10.1411 7.45204C10.2417 7.20915 10.4787 7.05078 10.7416 7.05078H13.6582C14.0172 7.05078 14.3082 7.3418 14.3082 7.70078V10.6174C14.3082 10.8803 14.1499 11.1174 13.907 11.218C13.6641 11.3186 13.3845 11.263 13.1986 11.0771L12.2965 10.1749L10.7012 11.9523C10.4285 12.2562 9.9629 12.2861 9.65357 12.0196L8.51369 11.0378L6.92154 12.7892C6.64291 13.0957 6.16857 13.1183 5.86208 12.8396C5.55558 12.561 5.533 12.0867 5.81163 11.7802L7.89496 9.4885C8.16833 9.1878 8.63147 9.15952 8.93939 9.42475L10.0757 10.4035L11.2343 9.11272L10.282 8.1604C10.0961 7.9745 10.0404 7.69493 10.1411 7.45204Z" fill="#161823"/>
</svg>
