<svg width="16" height="16" viewBox="0 0 16 16" fill="none" xmlns="http://www.w3.org/2000/svg">
<path d="M9.62362 2.16824C9.01097 1.62366 8.04247 2.05857 8.04247 2.87828V5.15016C7.16878 5.1509 6.4602 5.15622 5.87135 5.19425C5.17504 5.23922 4.59454 5.33216 4.05501 5.54238C2.55536 6.12671 1.36925 7.31281 0.784923 8.81246C0.57443 9.35268 0.481661 9.93677 0.436759 10.6384C0.392578 11.3289 0.392578 12.1842 0.392583 13.276L0.39258 13.3078C0.392568 13.3296 0.392563 13.3659 0.393844 13.3974C0.394035 13.4091 0.396232 13.5427 0.454029 13.6831C0.652587 14.1656 1.2465 14.3407 1.67506 14.0431C1.79849 13.9574 1.87215 13.8483 1.87994 13.8368L1.88056 13.8359C1.89876 13.8101 1.91799 13.7803 1.92957 13.7623L1.93258 13.7577C2.38218 13.0615 2.56575 12.781 2.77088 12.5495C3.42965 11.806 4.32803 11.3167 5.31 11.1667C5.61577 11.12 5.95099 11.118 6.77971 11.118H8.04247V13.1147C8.04247 13.9344 9.01096 14.3693 9.62362 13.8247L14.8771 9.15498C15.5708 8.5384 15.5708 7.45458 14.8771 6.83801L9.62362 2.16824Z" fill="#161823"/>
</svg>
