<svg width="16" height="16" viewBox="0 0 16 16" fill="none" xmlns="http://www.w3.org/2000/svg">
<path d="M1.00039 1.3999C0.66902 1.3999 0.400391 1.66853 0.400391 1.9999C0.400391 2.33127 0.66902 2.5999 1.00039 2.5999H1.36276C1.76326 2.5999 2.10205 2.89607 2.15558 3.29299L3.02599 9.74738C3.19994 11.0374 4.30101 11.9999 5.60266 11.9999H11.3602C12.6255 11.9999 13.7071 11.089 13.9223 9.84204L14.6088 5.86409C14.8303 4.58051 13.8419 3.40698 12.5394 3.40698H3.38181L3.34481 3.13261C3.211 2.14033 2.36402 1.3999 1.36276 1.3999H1.00039Z" fill="#161823"/>
<path d="M5.7004 13.9999C5.7004 14.5522 5.25268 14.9999 4.7004 14.9999C4.14811 14.9999 3.7004 14.5522 3.7004 13.9999C3.7004 13.4476 4.14811 12.9999 4.7004 12.9999C5.25268 12.9999 5.7004 13.4476 5.7004 13.9999Z" fill="#161823"/>
<path d="M12.0004 14.9999C12.5527 14.9999 13.0004 14.5522 13.0004 13.9999C13.0004 13.4476 12.5527 12.9999 12.0004 12.9999C11.4481 12.9999 11.0004 13.4476 11.0004 13.9999C11.0004 14.5522 11.4481 14.9999 12.0004 14.9999Z" fill="#161823"/>
</svg>
