<svg width="24" height="24" viewBox="0 0 24 24" fill="none" xmlns="http://www.w3.org/2000/svg">
<path d="M12 22C17.5228 22 22 17.5228 22 12C22 6.47715 17.5228 2 12 2C6.47715 2 2 6.47715 2 12C2 17.5228 6.47715 22 12 22ZM12 16.5C11.4477 16.5 11 16.0523 11 15.5V13H8.5C7.94772 13 7.5 12.5523 7.5 12C7.5 11.4477 7.94772 11 8.5 11H11V8.5C11 7.94771 11.4477 7.5 12 7.5C12.5523 7.5 13 7.94771 13 8.5V11H15.5C16.0523 11 16.5 11.4477 16.5 12C16.5 12.5523 16.0523 13 15.5 13H13V15.5C13 16.0523 12.5523 16.5 12 16.5Z" fill="#161823"/>
</svg>
