<svg width="20" height="20" viewBox="0 0 20 20" fill="none" xmlns="http://www.w3.org/2000/svg">
<path d="M1.98618 11.4143C1.20513 10.6332 1.20513 9.36689 1.98618 8.58584L3.3334 7.23862V5.33339C3.3334 4.22882 4.22883 3.33339 5.3334 3.33339H7.23863L8.58584 1.98618C9.36689 1.20513 10.6332 1.20513 11.4143 1.98618L12.7615 3.33339H14.6667C15.7713 3.33339 16.6667 4.22882 16.6667 5.33339V7.23864L18.0139 8.58584C18.795 9.36689 18.795 10.6332 18.0139 11.4143L16.6667 12.7615V14.6667C16.6667 15.7713 15.7713 16.6667 14.6667 16.6667H12.7615L11.4143 18.0139C10.6332 18.795 9.36689 18.795 8.58584 18.0139L7.23863 16.6667H5.3334C4.22883 16.6667 3.3334 15.7713 3.3334 14.6667V12.7615L1.98618 11.4143Z" fill="#161823"/>
</svg>
