<svg width="16" height="16" viewBox="0 0 16 16" fill="none" xmlns="http://www.w3.org/2000/svg">
<path fill-rule="evenodd" clip-rule="evenodd" d="M8.43965 13.6758C7.44176 13.0966 6.44473 12.2918 5.52783 11.3749C4.6109 10.458 3.81188 9.46675 3.23865 8.47435C2.66917 7.48845 2.29883 6.46017 2.29883 5.48106C2.29883 4.59745 2.59461 3.76416 3.29364 3.09552L3.29471 3.0945C3.7149 2.69456 4.25686 2.41745 4.83669 2.42369L4.83803 2.4237C5.31108 2.42985 5.79786 2.61684 6.12895 3.08304L7.37682 4.83991C7.60776 5.15985 7.77258 5.51189 7.77258 5.90022C7.77258 6.41293 7.46546 6.80036 7.19259 7.08204L7.19005 7.08465L6.92364 7.35632C7.1256 7.66372 7.55165 8.1676 8.14339 8.75935C8.71668 9.33263 9.23767 9.76224 9.55538 9.98358L9.81802 9.72094C10.0982 9.4408 10.4861 9.13046 11.0053 9.13422C11.3947 9.12969 11.7485 9.29906 12.0627 9.52584L13.8498 10.7941C14.29 11.1142 14.4886 11.5869 14.4832 12.0561C14.4818 12.6384 14.1954 13.1727 13.8183 13.589L13.8165 13.591C13.1722 14.2957 12.364 14.6286 11.4463 14.6286C10.4654 14.6286 9.43024 14.2507 8.43965 13.6758ZM9.042 12.6379C9.93658 13.1571 10.7589 13.4286 11.4463 13.4286C12.0405 13.4286 12.5223 13.2275 12.9299 12.7823C13.1841 12.5013 13.2832 12.2404 13.2832 12.052V12.0435C13.2848 11.9314 13.2456 11.8394 13.1462 11.7663L11.3619 10.4999C11.1452 10.3433 11.0431 10.3337 11.0184 10.3342L11.0079 10.3344L10.9974 10.3342C10.9912 10.3341 10.9691 10.3338 10.9168 10.3634C10.8578 10.3967 10.7773 10.4587 10.6666 10.5695L10.2515 10.9845C10.0508 11.1852 9.81319 11.2418 9.62593 11.2463C9.3527 11.2615 9.14195 11.1409 9.07603 11.1032L9.06426 11.0965L9.05529 11.091C8.65526 10.8433 7.98957 10.3026 7.29487 9.60787C6.61408 8.92709 6.04626 8.26338 5.80045 7.81691L5.79774 7.812C5.74472 7.71352 5.67087 7.5418 5.66098 7.33416L5.65955 7.30412L5.66113 7.27409C5.67086 7.08929 5.72832 6.88168 5.89669 6.69085L5.90714 6.67902L6.3307 6.24708L6.33191 6.24584C6.44178 6.13229 6.50525 6.04917 6.5404 5.98701C6.5724 5.93044 6.57258 5.90617 6.57258 5.90022C6.57258 5.86205 6.55734 5.75456 6.40282 5.54086L6.39985 5.53675L5.15062 3.77792C5.0791 3.67722 4.98253 3.62584 4.82321 3.62361C4.63884 3.62183 4.38402 3.71453 4.12248 3.96329C3.68777 4.37941 3.49883 4.88558 3.49883 5.48106C3.49883 6.17035 3.76544 6.98719 4.27776 7.87414C4.78632 8.75459 5.51393 9.66395 6.37636 10.5264C7.23883 11.3888 8.15471 12.123 9.042 12.6379Z" fill="#161823"/>
</svg>
