<svg width="20" height="20" viewBox="0 0 20 20" fill="none" xmlns="http://www.w3.org/2000/svg">
<path d="M1.66699 5.33325V12.9999C1.66699 14.1045 2.56242 14.9999 3.66699 14.9999H9.25031V16.2499H7.29163C6.87742 16.2499 6.54163 16.5857 6.54163 16.9999C6.54163 17.4141 6.87742 17.7499 7.29163 17.7499H12.7088C13.123 17.7499 13.4588 17.4141 13.4588 16.9999C13.4588 16.5857 13.123 16.2499 12.7088 16.2499H10.7503V14.9999H16.3337C17.4382 14.9999 18.3337 14.1045 18.3337 12.9999V5.33325C18.3337 4.22868 17.4382 3.33325 16.3337 3.33325H3.66699C2.56242 3.33325 1.66699 4.22868 1.66699 5.33325ZM3.16699 11.0999V5.33325C3.16699 5.05711 3.39085 4.83325 3.66699 4.83325H16.3337C16.6098 4.83325 16.8337 5.05711 16.8337 5.33325V11.0999H3.16699ZM3.16699 12.3999H16.8337V12.9999C16.8337 13.2761 16.6098 13.4999 16.3337 13.4999H3.66699C3.39085 13.4999 3.16699 13.2761 3.16699 12.9999V12.3999Z" fill="#161823"/>
</svg>
