<svg width="20" height="20" viewBox="0 0 20 20" fill="none" xmlns="http://www.w3.org/2000/svg">
<path fill-rule="evenodd" clip-rule="evenodd" d="M4.1528 15.4211C5.0614 15.5133 5.77054 16.2806 5.77054 17.2135L5.76117 17.3975C5.66897 18.3061 4.90169 19.0152 3.96878 19.0153L3.78473 19.0059C2.93662 18.9198 2.26243 18.2456 2.17637 17.3975L2.16699 17.2135C2.16699 16.2184 2.97371 15.4117 3.96878 15.4117L4.1528 15.4211ZM3.96878 16.7581C3.7171 16.7581 3.51338 16.9618 3.51338 17.2135C3.5134 17.4651 3.71711 17.6688 3.96878 17.6688C4.22043 17.6688 4.42413 17.4651 4.42415 17.2135C4.42415 16.9618 4.22044 16.7581 3.96878 16.7581Z" fill="#161823"/>
<path fill-rule="evenodd" clip-rule="evenodd" d="M9.84805 2.2002C11.4827 2.2002 12.8916 3.16226 13.5427 4.55036C13.6204 4.54592 13.6987 4.54284 13.7775 4.54284C16.0177 4.54284 17.8337 6.35974 17.8337 8.59997C17.8335 9.93375 17.1891 11.1161 16.1952 11.8553C16.2476 12.1003 16.2769 12.3542 16.2769 12.6148C16.2769 14.6139 14.6563 16.2342 12.6573 16.2344C11.6093 16.2344 10.6658 15.7885 10.0048 15.0768C9.43629 15.5344 8.71457 15.81 7.9279 15.8101C6.09651 15.8101 4.61175 14.3251 4.61159 12.4937C4.61159 12.4826 4.61148 12.4711 4.61159 12.4599C3.43127 11.7571 2.63989 10.4687 2.63984 8.99528C2.63984 7.01033 4.07541 5.36099 5.96462 5.02731C6.49334 3.38711 8.03202 2.2004 9.84805 2.2002ZM9.84805 3.62363C8.66772 3.62384 7.66335 4.3943 7.31855 5.46393L7.05563 6.27985L6.21247 6.42822C5.06715 6.63052 4.17991 7.58298 4.0736 8.75771L4.06325 8.99528C4.0633 9.94611 4.57163 10.7803 5.33926 11.2374L6.04255 11.6562L6.03408 12.474C6.03409 12.4759 6.03407 12.4772 6.03408 12.4806L6.03503 12.4937C6.03518 13.5394 6.88255 14.3866 7.9279 14.3866C8.37589 14.3866 8.786 14.231 9.11286 13.9679L10.1457 13.1369L11.047 14.1087C11.4506 14.5433 12.022 14.811 12.6573 14.811C13.7948 14.8108 14.7298 13.9468 14.8422 12.8393L14.8535 12.6148C14.8535 12.4614 14.8367 12.3074 14.8037 12.1529L14.6131 11.259L15.3464 10.7135C15.9549 10.2608 16.3575 9.55844 16.4055 8.76051L16.4103 8.59997C16.4103 7.23622 15.3743 6.11443 14.0469 5.97939L13.7775 5.96628C13.7348 5.96628 13.685 5.96745 13.6235 5.97096L12.663 6.02542L12.2545 5.15501C11.8552 4.30363 11.0224 3.70199 10.0452 3.63021L9.84805 3.62363Z" fill="#161823"/>
</svg>
