<svg width="16" height="16" viewBox="0 0 16 16" fill="none" xmlns="http://www.w3.org/2000/svg">
<path d="M5.8998 2.0834C5.8998 1.75203 5.63118 1.4834 5.2998 1.4834H3.8998C2.74001 1.4834 1.7998 2.4236 1.7998 3.5834V4.9834C1.7998 5.31477 2.06843 5.5834 2.3998 5.5834C2.73118 5.5834 2.9998 5.31477 2.9998 4.9834V3.5834C2.9998 3.08634 3.40275 2.6834 3.8998 2.6834H5.2998C5.63118 2.6834 5.8998 2.41477 5.8998 2.0834Z" fill="#161823"/>
<path d="M10.6998 1.4834C10.3684 1.4834 10.0998 1.75203 10.0998 2.0834C10.0998 2.41477 10.3684 2.6834 10.6998 2.6834H12.0998C12.5969 2.6834 12.9998 3.08634 12.9998 3.5834V4.9834C12.9998 5.31477 13.2684 5.5834 13.5998 5.5834C13.9312 5.5834 14.1998 5.31477 14.1998 4.9834V3.5834C14.1998 2.4236 13.2596 1.4834 12.0998 1.4834H10.6998Z" fill="#161823"/>
<path d="M10.6998 13.8838C10.3684 13.8838 10.0998 13.6152 10.0998 13.2838C10.0998 12.9524 10.3684 12.6838 10.6998 12.6838H12.0998C12.5969 12.6838 12.9998 12.2808 12.9998 11.7838V10.3838C12.9998 10.0524 13.2684 9.78379 13.5998 9.78379C13.9312 9.78379 14.1998 10.0524 14.1998 10.3838V11.7838C14.1998 12.9436 13.2596 13.8838 12.0998 13.8838H10.6998Z" fill="#161823"/>
<path d="M5.2998 13.8838C5.63118 13.8838 5.8998 13.6152 5.8998 13.2838C5.8998 12.9524 5.63118 12.6838 5.2998 12.6838H3.8998C3.40275 12.6838 2.9998 12.2808 2.9998 11.7838V10.3838C2.9998 10.0524 2.73118 9.78379 2.3998 9.78379C2.06843 9.78379 1.7998 10.0524 1.7998 10.3838V11.7838C1.7998 12.9436 2.74001 13.8838 3.8998 13.8838H5.2998Z" fill="#161823"/>
<path fill-rule="evenodd" clip-rule="evenodd" d="M4.23315 7.23382C4.23315 5.31003 5.79269 3.75049 7.71648 3.75049C9.64027 3.75049 11.1998 5.31003 11.1998 7.23382C11.1998 7.99336 10.9567 8.69613 10.5441 9.26855L11.68 10.3491C11.9201 10.5774 11.9296 10.9572 11.7012 11.1973C11.4728 11.4374 11.093 11.4469 10.8529 11.2185L9.68526 10.1078C9.12519 10.4922 8.4471 10.7172 7.71648 10.7172C5.79269 10.7172 4.23315 9.15761 4.23315 7.23382ZM7.71648 4.95049C6.45543 4.95049 5.43315 5.97277 5.43315 7.23382C5.43315 8.49487 6.45543 9.51715 7.71648 9.51715C8.97753 9.51715 9.99981 8.49487 9.99981 7.23382C9.99981 5.97277 8.97753 4.95049 7.71648 4.95049Z" fill="#161823"/>
</svg>
