<svg width="24" height="24" viewBox="0 0 24 24" fill="none" xmlns="http://www.w3.org/2000/svg">
<path d="M12.1645 6.31429C12.4493 5.87186 13.136 6.1388 13.0472 6.65748L12.7035 8.66635L13.9724 8.80876C14.4115 8.85803 14.6469 9.35042 14.4096 9.72306L11.8736 13.7052C11.5902 14.1502 10.9005 13.8841 10.9895 13.3641L11.3306 11.371L10.028 11.227C9.58716 11.1783 9.35137 10.683 9.59149 10.3101L12.1645 6.31429Z" fill="#161823"/>
<path fill-rule="evenodd" clip-rule="evenodd" d="M15.9998 16.2808V18.5C15.9998 18.7761 15.7759 19 15.4998 19H8.4998C8.22366 19 7.9998 18.7761 7.9998 18.5V16.2808C5.78124 14.9294 4.2998 12.4877 4.2998 9.7C4.2998 5.44741 7.74721 2 11.9998 2C16.2524 2 19.6998 5.44741 19.6998 9.7C19.6998 12.4877 18.2184 14.9294 15.9998 16.2808ZM14.4998 15.5505C14.4998 15.4807 14.5362 15.416 14.5958 15.3797L15.2195 14.9998C17.0098 13.9093 18.1998 11.9429 18.1998 9.7C18.1998 6.27583 15.424 3.5 11.9998 3.5C8.57564 3.5 5.7998 6.27583 5.7998 9.7C5.7998 11.9429 6.98984 13.9093 8.78013 14.9998L9.40385 15.3797C9.46344 15.416 9.4998 15.4807 9.4998 15.5505V17.5H14.4998V15.5505Z" fill="#161823"/>
<path d="M9.26648 20.7C9.26648 20.5895 9.35602 20.5 9.46648 20.5H14.5331C14.6436 20.5 14.7331 20.5895 14.7331 20.7V21C14.7331 21.5523 14.2854 22 13.7331 22H10.2665C9.7142 22 9.26648 21.5523 9.26648 21V20.7Z" fill="#161823"/>
</svg>
