<svg width="24" height="24" viewBox="0 0 24 24" fill="none" xmlns="http://www.w3.org/2000/svg">
<path d="M22.1593 6.70868C22.8606 5.50859 21.9949 4.00029 20.6049 4.00052L3.80027 4.00331C2.25469 4.00357 1.42814 5.82333 2.44487 6.98741L6.34474 11.4525C6.62251 11.7578 7.05879 11.8621 7.44463 11.7154L14.727 8.94754C14.8118 8.91534 14.8502 8.92865 14.867 8.93533C14.8964 8.947 14.9384 8.97728 14.9714 9.0332C15.0044 9.08912 15.0106 9.14056 15.0067 9.17189C15.0044 9.18981 14.9975 9.22992 14.9284 9.28856L8.94926 14.3599C8.64113 14.6213 8.51957 15.0418 8.64075 15.4272L10.367 20.9218C10.8353 22.4124 12.8501 22.6394 13.6383 21.2904L22.1593 6.70868Z" fill="#161823"/>
</svg>
