<svg width="20" height="20" viewBox="0 0 20 20" fill="none" xmlns="http://www.w3.org/2000/svg">
<g clip-path="url(#clip0_2_2591)">
<path d="M3.32617 4.42358C3.32617 2.9048 4.55739 1.67358 6.07617 1.67358H13.9245C15.4433 1.67358 16.6745 2.9048 16.6745 4.42358V7.9345C16.6745 8.05751 16.5645 8.15105 16.4421 8.13841C16.2969 8.12341 16.1495 8.11572 16.0003 8.11572C15.8015 8.11572 15.6059 8.12937 15.4144 8.15578C15.2896 8.17299 15.1745 8.07864 15.1745 7.95267V4.42358C15.1745 3.73323 14.6149 3.17358 13.9245 3.17358H6.07617C5.38582 3.17358 4.82617 3.73323 4.82617 4.42358V15.5764C4.82617 16.2667 5.38582 16.8264 6.07617 16.8264H10.3003C10.4108 16.8264 10.5003 16.9159 10.4998 17.0264C10.4982 17.3914 10.4932 17.7568 10.4976 18.1218C10.499 18.234 10.4088 18.3264 10.2965 18.3264H6.07617C4.55739 18.3264 3.32617 17.0952 3.32617 15.5764V4.42358Z" fill="#161823"/>
<path d="M6.3338 5.625C6.3338 5.21079 6.66959 4.875 7.0838 4.875H12.9171C13.3313 4.875 13.6671 5.21079 13.6671 5.625C13.6671 6.03921 13.3313 6.375 12.9171 6.375H7.0838C6.66959 6.375 6.3338 6.03921 6.3338 5.625Z" fill="#161823"/>
<path d="M6.3338 8.63049C6.3338 8.21628 6.66959 7.88049 7.0838 7.88049H10.8338C11.248 7.88049 11.5838 8.21628 11.5838 8.63049C11.5838 9.04471 11.248 9.38049 10.8338 9.38049H7.0838C6.66959 9.38049 6.3338 9.04471 6.3338 8.63049Z" fill="#161823"/>
<path d="M13.2503 12.3596C13.2503 10.8408 14.4815 9.60962 16.0003 9.60962C17.5191 9.60962 18.7503 10.8408 18.7503 12.3596V13.5725C19.4732 13.7876 20.0003 14.4572 20.0003 15.25V18.25C20.0003 19.2165 19.2168 20 18.2503 20H13.7503C12.7838 20 12.0003 19.2165 12.0003 18.25V15.25C12.0003 14.4572 12.5274 13.7876 13.2503 13.5725V12.3596ZM14.7503 13.5H17.2503V12.3596C17.2503 11.6693 16.6907 11.1096 16.0003 11.1096C15.3099 11.1096 14.7503 11.6693 14.7503 12.3596V13.5ZM13.5003 15.25V18.25C13.5003 18.3881 13.6122 18.5 13.7503 18.5H18.2503C18.3884 18.5 18.5003 18.3881 18.5003 18.25V15.25C18.5003 15.1119 18.3884 15 18.2503 15H13.7503C13.6122 15 13.5003 15.1119 13.5003 15.25Z" fill="#161823"/>
</g>
<defs>
<clipPath id="clip0_2_2591">
<rect width="20" height="20" fill="white"/>
</clipPath>
</defs>
</svg>
