<svg width="24" height="24" viewBox="0 0 24 24" fill="none" xmlns="http://www.w3.org/2000/svg">
<path d="M9.5 8C9.5 7.58579 9.83579 7.25 10.25 7.25H16.003C16.4173 7.25 16.753 7.58579 16.753 8C16.753 8.41421 16.4173 8.75 16.003 8.75H10.25C9.83579 8.75 9.5 8.41421 9.5 8Z" fill="#161823"/>
<path d="M10.25 10.25C9.83579 10.25 9.5 10.5858 9.5 11C9.5 11.4142 9.83579 11.75 10.25 11.75H14.25C14.6642 11.75 15 11.4142 15 11C15 10.5858 14.6642 10.25 14.25 10.25H10.25Z" fill="#161823"/>
<path d="M5.5 9.5H4C2.89543 9.5 2 8.60457 2 7.5V5.5C2 4.11929 3.11929 3 4.5 3C4.50745 3 4.5149 3.00003 4.52234 3.0001L16.25 3C18.3211 3 20 4.67893 20 6.75L20 14C21.1046 14 22 14.8954 22 16V18.5C22 19.8807 20.8807 21 19.5 21H8.5V20.9888C8.41766 20.9962 8.33427 21 8.25 21C6.73122 21 5.5 19.7688 5.5 18.25V9.5ZM9.5 18.25V16.5C9.5 15.1193 10.6193 14 12 14H18.5V6.75C18.5 5.50736 17.4927 4.5 16.25 4.5H7V18.25C7 18.9404 7.55964 19.5 8.25 19.5C8.94036 19.5 9.5 18.9404 9.5 18.25ZM10.7001 19.5H19.5C20.0523 19.5 20.5 19.0523 20.5 18.5V16C20.5 15.7239 20.2762 15.5 20 15.5H12C11.4477 15.5 11 15.9477 11 16.5V18.25C11 18.7001 10.8919 19.125 10.7001 19.5ZM5.5 8V5.5C5.5 4.94772 5.05228 4.5 4.5 4.5C3.94772 4.5 3.5 4.94772 3.5 5.5V7.5C3.5 7.77614 3.72386 8 4 8H5.5Z" fill="#161823"/>
</svg>
