<svg width="24" height="24" viewBox="0 0 24 24" fill="none" xmlns="http://www.w3.org/2000/svg">
<path d="M20.1687 6.47938L15.1402 10.4957C14.8011 10.7665 14.3067 10.7112 14.0359 10.3721C13.7651 10.033 13.8204 9.53863 14.1595 9.26782L20.0809 4.5384C20.8206 3.94761 21.9082 4.52774 21.8296 5.47114L21.09 14.347C21.0539 14.7794 20.6742 15.1008 20.2417 15.0647C19.8093 15.0287 19.4879 14.6489 19.524 14.2165L20.1687 6.47938ZM7.42055 9.05721L11.2722 18.1055H18.7004L7.42055 9.05721ZM5.20709 7.86947C4.76766 6.83714 5.99993 5.9031 6.87511 6.60515L20.7763 17.7562C21.5713 18.394 21.1204 19.6769 20.1011 19.6769H10.9467C10.5141 19.6769 10.1233 19.4186 9.95383 19.0205L5.20709 7.86947ZM5.58872 15.3371C5.92721 15.0655 6.42172 15.1198 6.69325 15.4583C6.96477 15.7968 6.91049 16.2913 6.572 16.5629L4.64887 18.1055H7.23273C7.66667 18.1055 8.01844 18.4573 8.01844 18.8912C8.01844 19.3252 7.66667 19.6769 7.23273 19.6769H3.24817C2.22889 19.6769 1.7779 18.394 2.57298 17.7562L5.58872 15.3371Z" fill="#161823"/>
</svg>
