<svg width="12" height="12" viewBox="0 0 12 12" fill="none" xmlns="http://www.w3.org/2000/svg">
<path d="M9.33886 11.0568C9.89115 11.0568 10.3389 10.609 10.3389 10.0568C10.3389 7.39009 10.3389 4.72343 10.3389 2.05676C10.3389 1.50448 9.89115 1.05676 9.33887 1.05676C9.1722 1.05676 9.00554 1.05676 8.83887 1.05676C8.28658 1.05676 7.83887 1.50448 7.83887 2.05676V10.0568C7.83887 10.609 8.28657 11.0568 8.83885 11.0568C9.00552 11.0568 9.17219 11.0568 9.33886 11.0568Z" fill="#161823"/>
<path d="M3.83889 11.0568C4.39116 11.0568 4.83887 10.609 4.83887 10.0568V2.05676C4.83887 1.50448 4.39115 1.05676 3.83887 1.05676C3.6722 1.05676 3.50553 1.05676 3.33887 1.05676C2.78658 1.05676 2.33887 1.50448 2.33887 2.05676V10.0568C2.33887 10.609 2.78657 11.0568 3.33885 11.0568C3.50553 11.0568 3.67221 11.0568 3.83889 11.0568Z" fill="#161823"/>
</svg>
