<svg width="24" height="24" viewBox="0 0 24 24" fill="none" xmlns="http://www.w3.org/2000/svg">
<path d="M7.75 2C5.67893 2 4 3.67893 4 5.75V18.25C4 20.3211 5.67893 22 7.75 22H12.5375C12.7198 22 12.815 21.7673 12.7018 21.6244C12.4697 21.331 12.2895 20.9993 12.1698 20.644C12.1413 20.5594 12.0634 20.5 11.9742 20.5H7.75C6.50736 20.5 5.5 19.4926 5.5 18.25V5.75C5.5 4.50736 6.50736 3.5 7.75 3.5H16.25C17.4926 3.5 18.5 4.50736 18.5 5.75V11.2679C18.5 11.3689 18.5754 11.4533 18.6748 11.4712C19.0391 11.5365 19.3949 11.6646 19.7254 11.8555C19.8474 11.9259 20 11.8378 20 11.6969V5.75C20 3.67893 18.3211 2 16.25 2H7.75Z" fill="#161823"/>
<path d="M7.75 6.75C7.75 6.33579 8.08579 6 8.5 6H15.5C15.9142 6 16.25 6.33579 16.25 6.75C16.25 7.16421 15.9142 7.5 15.5 7.5H8.5C8.08579 7.5 7.75 7.16421 7.75 6.75Z" fill="#161823"/>
<path d="M8.5 9.25C8.08579 9.25 7.75 9.58579 7.75 10C7.75 10.4142 8.08579 10.75 8.5 10.75H13C13.4142 10.75 13.75 10.4142 13.75 10C13.75 9.58579 13.4142 9.25 13 9.25H8.5Z" fill="#161823"/>
<path d="M19.5404 17.9567C19.5404 18.752 18.8957 19.3967 18.1004 19.3967C17.3051 19.3967 16.6604 18.752 16.6604 17.9567C16.6604 17.1614 17.3051 16.5167 18.1004 16.5167C18.8957 16.5167 19.5404 17.1614 19.5404 17.9567Z" fill="#161823"/>
<path d="M18.9754 13.1545C18.4339 12.8419 17.7668 12.8419 17.2254 13.1545L14.375 14.8002C13.8335 15.1128 13.5 15.6905 13.5 16.3157V19.6071C13.5 20.2323 13.8335 20.81 14.375 21.1226L17.2254 22.7683C17.7668 23.0809 18.4339 23.0809 18.9754 22.7683L21.8258 21.1226C22.3672 20.81 22.7008 20.2323 22.7008 19.6071V16.3157C22.7008 15.6905 22.3672 15.1128 21.8258 14.8002L18.9754 13.1545ZM17.9754 14.4535C18.0527 14.4089 18.148 14.4089 18.2254 14.4535L21.0758 16.0992C21.1531 16.1439 21.2008 16.2264 21.2008 16.3157V19.6071C21.2008 19.6964 21.1531 19.7789 21.0758 19.8236L18.2254 21.4692C18.148 21.5139 18.0527 21.5139 17.9754 21.4692L15.125 19.8236C15.0476 19.7789 15 19.6964 15 19.6071V16.3157C15 16.2264 15.0477 16.1439 15.125 16.0992L17.9754 14.4535Z" fill="#161823"/>
</svg>
