<svg width="20" height="20" viewBox="0 0 20 20" fill="none" xmlns="http://www.w3.org/2000/svg">
<path d="M1.99598 3.28177C1.74047 3.44472 1.62009 3.75449 1.69852 4.04721L3.8822 12.1968C3.88844 12.22 3.8958 12.2426 3.90421 12.2645L5.35925 17.6941C5.46647 18.0942 5.87773 18.3316 6.27782 18.2244C6.67792 18.1172 6.91534 17.7059 6.80812 17.3058L5.45141 12.2431C6.96259 11.4507 8.69656 11.1673 10.3921 11.4466L12.8109 11.8451C14.3191 12.0935 15.8672 11.8556 17.2312 11.1656C17.9913 10.7811 18.3778 9.91638 18.1573 9.09359L16.3635 2.39895C16.1775 1.70495 15.3711 1.39127 14.7651 1.77721C13.4328 2.62567 11.821 2.91822 10.2755 2.59209L8.19888 2.15388C6.06332 1.70324 3.8362 2.10821 1.99598 3.28177Z" fill="#161823"/>
</svg>
