<svg width="12" height="12" viewBox="0 0 12 12" fill="none" xmlns="http://www.w3.org/2000/svg">
<path d="M2.36953 1.77488C2.2104 1.77488 2.05779 1.83809 1.94527 1.95062C1.83275 2.06314 1.76953 2.21575 1.76953 2.37488V8.12495C1.76953 8.45632 2.03816 8.72495 2.36953 8.72495C2.7009 8.72495 2.96953 8.45632 2.96953 8.12495V3.81729L9.70354 10.5513C9.93786 10.7856 10.3178 10.7856 10.5521 10.5513C10.7864 10.317 10.7864 9.93711 10.5521 9.70279L3.82418 2.97488H8.12439C8.45576 2.97488 8.72439 2.70625 8.72439 2.37488C8.72439 2.04351 8.45576 1.77488 8.12439 1.77488H2.36953Z" fill="#161823"/>
</svg>
