<svg width="24" height="24" viewBox="0 0 24 24" fill="none" xmlns="http://www.w3.org/2000/svg">
<path d="M16 6.5C16 8.98528 14.2091 11 12 11C11.7896 11 11.583 10.9817 11.3814 10.9465L12.9686 12.5337C14.9367 12.6718 16.7354 13.2292 18.1359 14.1182C19.7494 15.1424 21 16.7372 21 18.7273V19.5C21 19.8168 20.9411 20.1198 20.8336 20.3987L21.5276 21.0928C21.8205 21.3857 21.8205 21.8605 21.5276 22.1534C21.2347 22.4463 20.7599 22.4463 20.467 22.1534L19.8911 21.5775L19.8894 21.5787L18.773 20.4623L18.7752 20.4617L12.3175 14.004L12.3146 14.0039L10.8577 12.547L10.8604 12.5468L3.22223 4.90871C2.92933 4.61582 2.92933 4.14095 3.22223 3.84805C3.51512 3.55516 3.98999 3.55516 4.28289 3.84805L8.14673 7.71189C8.05112 7.32632 8 6.91988 8 6.5C8 4.01472 9.79086 2 12 2C14.2091 2 16 4.01472 16 6.5ZM14.7566 14.3217L19.5 19.0651V18.7273C19.5 16.7224 17.5651 15.0091 14.7566 14.3217ZM14.5 6.5C14.5 4.67217 13.2195 3.5 12 3.5C10.7805 3.5 9.5 4.67217 9.5 6.5C9.5 8.32783 10.7805 9.5 12 9.5C13.2195 9.5 14.5 8.32783 14.5 6.5Z" fill="#161823"/>
<path d="M9.02188 12.8325C7.84381 13.1063 6.77053 13.5428 5.86408 14.1182C4.25055 15.1424 3 16.7372 3 18.7273V19.5C3 20.8807 4.11929 22 5.5 22H18.1893L16.6893 20.5H5.5C4.94772 20.5 4.5 20.0523 4.5 19.5V18.7273C4.5 16.4782 6.93509 14.5959 10.3069 14.1175L9.02188 12.8325Z" fill="#161823"/>
</svg>
