<svg width="16" height="16" viewBox="0 0 16 16" fill="none" xmlns="http://www.w3.org/2000/svg">
<path d="M5.90156 10.4667C5.90156 10.8986 6.13373 11.2972 6.50944 11.5104C6.88515 11.7235 7.34643 11.7183 7.71721 11.4967L10.6172 9.76336C10.9796 9.54673 11.2016 9.15556 11.2016 8.73332C11.2016 8.31108 10.9796 7.91991 10.6172 7.70329L7.71721 5.96995C7.34643 5.74834 6.88515 5.7431 6.50944 5.95625C6.13373 6.16939 5.90156 6.56802 5.90156 6.99999V10.4667ZM10.0016 8.73332L7.10156 10.4667V6.99999L10.0016 8.73332Z" fill="#161823"/>
<path d="M5.55264 1.29685C5.38866 1.0089 5.0223 0.90839 4.73434 1.07236C4.44639 1.23634 4.34588 1.6027 4.50986 1.89066L5.42629 3.5H3.75C2.23122 3.5 1 4.73122 1 6.25V11.25C1 12.7688 2.23122 14 3.75 14H12.25C13.7688 14 15 12.7688 15 11.25V6.25C15 4.73122 13.7688 3.5 12.25 3.5H10.608L11.5209 1.8969C11.6848 1.60894 11.5843 1.24258 11.2964 1.0786C11.0084 0.914628 10.6421 1.01513 10.4781 1.30309L9.22707 3.5H6.80721L5.55264 1.29685ZM3.75 4.7H12.25C13.106 4.7 13.8 5.39396 13.8 6.25V11.25C13.8 12.106 13.106 12.8 12.25 12.8H3.75C2.89396 12.8 2.2 12.106 2.2 11.25V6.25C2.2 5.39396 2.89396 4.7 3.75 4.7Z" fill="#161823"/>
</svg>
