<svg width="20" height="20" viewBox="0 0 20 20" fill="none" xmlns="http://www.w3.org/2000/svg">
<path fill-rule="evenodd" clip-rule="evenodd" d="M10.0003 1.66666C14.6027 1.66666 18.3337 5.39762 18.3337 9.99999C18.3337 14.6024 14.6027 18.3333 10.0003 18.3333C5.39795 18.3333 1.66699 14.6024 1.66699 9.99999C1.66699 5.39762 5.39795 1.66666 10.0003 1.66666ZM10.9171 6.58334C10.9171 6.07708 10.5066 5.66668 10.0004 5.66668C9.49412 5.66668 9.08372 6.07708 9.08372 6.58334C9.08372 7.0896 9.49412 7.50001 10.0004 7.50001C10.5066 7.50001 10.9171 7.0896 10.9171 6.58334ZM10.0004 14.1667C9.5421 14.1667 9.17247 13.7917 9.17912 13.3334L9.2408 9.08196C9.24683 8.66677 9.58512 8.33334 10.0004 8.33334C10.4156 8.33334 10.7539 8.66676 10.7599 9.08196L10.8216 13.3334C10.8283 13.7917 10.4586 14.1667 10.0004 14.1667Z" fill="#161823"/>
</svg>
