<svg width="24" height="24" viewBox="0 0 24 24" fill="none" xmlns="http://www.w3.org/2000/svg">
<path d="M14.7296 11.999L15.9237 13.1931C16.1096 13.379 16.3892 13.4346 16.632 13.334C16.8749 13.2334 17.0333 12.9964 17.0333 12.7335V9.2335C17.0333 8.87451 16.7423 8.5835 16.3833 8.5835H12.8833C12.6204 8.5835 12.3834 8.74186 12.2828 8.98475C12.1822 9.22764 12.2378 9.50722 12.4237 9.69312L13.6674 10.9368L12.0977 12.6856L10.6228 11.4151C10.3149 11.1499 9.85172 11.1782 9.57835 11.4789L7.07835 14.2289C6.79972 14.5354 6.82231 15.0097 7.1288 15.2884C7.43529 15.567 7.90963 15.5444 8.18826 15.2379L10.1971 13.0282L11.6756 14.3017C11.9849 14.5682 12.4505 14.5382 12.7232 14.2344L14.7296 11.999Z" fill="#161823"/>
<path fill-rule="evenodd" clip-rule="evenodd" d="M22 12C22 17.5228 17.5228 22 12 22C6.47715 22 2 17.5228 2 12C2 6.47715 6.47715 2 12 2C17.5228 2 22 6.47715 22 12ZM20.5 12C20.5 16.6944 16.6944 20.5 12 20.5C7.30558 20.5 3.5 16.6944 3.5 12C3.5 7.30558 7.30558 3.5 12 3.5C16.6944 3.5 20.5 7.30558 20.5 12Z" fill="#161823"/>
</svg>
