<svg width="24" height="24" viewBox="0 0 24 24" fill="none" xmlns="http://www.w3.org/2000/svg">
<path d="M7.50391 1.88571C7.02439 2.15972 6.8578 2.77058 7.13181 3.25009L8.56258 5.75395H5.75C3.817 5.75395 2.25 7.32096 2.25 9.25395V17.254C2.25 19.1869 3.817 20.754 5.75 20.754H18.25C20.183 20.754 21.75 19.1869 21.75 17.254V9.25395C21.75 7.32096 20.183 5.75395 18.25 5.75395H15.4374L16.8682 3.25009C17.1422 2.77058 16.9756 2.15972 16.4961 1.88571C16.0166 1.6117 15.4057 1.7783 15.1317 2.25782L13.1339 5.75395H10.8661L8.86829 2.25782C8.59428 1.7783 7.98343 1.6117 7.50391 1.88571ZM10.8831 16.618C10.4185 16.935 9.78858 16.6023 9.78858 16.0398L9.78858 10.4602C9.78858 9.89773 10.4185 9.56497 10.8831 9.88201L14.9718 12.6718C15.379 12.9497 15.379 13.5503 14.9718 13.8282L10.8831 16.618Z" fill="#161823"/>
</svg>
