<svg width="24" height="24" viewBox="0 0 24 24" fill="none" xmlns="http://www.w3.org/2000/svg">
<path d="M12 13C10.1857 13 8.71497 11.3658 8.71497 9.34995C8.71497 7.33411 10.1857 5.69995 12 5.69995C13.8142 5.69995 15.285 7.33411 15.285 9.34995C15.285 11.3658 13.8142 13 12 13ZM12 11.5C12.841 11.5 13.785 10.6899 13.785 9.34995C13.785 8.00997 12.841 7.19995 12 7.19995C11.1589 7.19995 10.215 8.00997 10.215 9.34995C10.215 10.6899 11.1589 11.5 12 11.5Z" fill="#161823"/>
<path d="M14.1551 21.7672C18.6421 20.7817 22 16.783 22 12C22 6.47715 17.5228 2 12 2C6.47715 2 2 6.47715 2 12C2 14.5554 2.95848 16.8869 4.53554 18.6546C4.53554 18.6546 4.53555 18.6546 4.53554 18.6546C6.36694 20.7074 9.03246 22 11.9999 22C11.9999 22 11.9999 22 11.9999 22C12.7398 22 13.461 21.9196 14.1551 21.7672ZM18.8017 17.0986C17.6206 15.4152 15.0563 14.25 12 14.25C8.94366 14.25 6.37939 15.4152 5.19831 17.0986C4.13188 15.6782 3.5 13.9129 3.5 12C3.5 7.30558 7.30558 3.5 12 3.5C16.6944 3.5 20.5 7.30558 20.5 12C20.5 13.9129 19.8681 15.6782 18.8017 17.0986ZM17.6942 18.3109C16.1871 19.6716 14.1903 20.5 12 20.5C9.78035 20.5 7.75942 19.6492 6.24552 18.2559C6.53505 17.7049 7.09902 17.1335 7.98397 16.6623C9.02184 16.1097 10.4101 15.75 12 15.75C13.5898 15.75 14.9781 16.1097 16.016 16.6623C16.9009 17.1335 17.4649 17.7049 17.7544 18.256C17.7344 18.2744 17.7143 18.2927 17.6942 18.3109Z" fill="#161823"/>
</svg>
