<svg width="20" height="20" viewBox="0 0 20 20" fill="none" xmlns="http://www.w3.org/2000/svg">
<path d="M17.3809 2.32259C17.0554 1.99715 16.5278 1.99715 16.2024 2.32259L8.30634 10.2186C8.07296 10.452 7.88809 10.7293 7.76242 11.0345C7.76241 11.0345 7.76242 11.0345 7.76242 11.0345L7.22619 12.3367C7.22619 12.3368 7.2262 12.3367 7.22619 12.3367C7.11338 12.6107 7.38736 12.8847 7.66134 12.7719L8.96359 12.2357C9.2688 12.11 9.54609 11.9251 9.77948 11.6918L17.6755 3.79573C18.0009 3.47029 18.0009 2.94266 17.6755 2.61722L17.3809 2.32259Z" fill="#161823"/>
<path d="M12.9949 2.375C13.3159 2.375 13.6291 2.40862 13.9311 2.47252L7.24568 9.15794C6.87226 9.53137 6.57648 9.97504 6.3754 10.4634L5.83918 11.7656C5.2187 13.2725 6.72557 14.7794 8.23246 14.1589L9.53472 13.6227C10.023 13.4216 10.4667 13.1258 10.8401 12.7524L17.4376 6.15496C17.4753 6.38941 17.4949 6.62992 17.4949 6.875V13.125C17.4949 15.6103 15.4802 17.625 12.9949 17.625H7.00489C4.51961 17.625 2.50488 15.6103 2.50488 13.125V6.875C2.50488 4.38972 4.5196 2.375 7.00488 2.375H12.9949Z" fill="#161823"/>
</svg>
