<svg width="16" height="16" viewBox="0 0 16 16" fill="none" xmlns="http://www.w3.org/2000/svg">
<path fill-rule="evenodd" clip-rule="evenodd" d="M8.20003 1.92251C8.49681 1.59007 8.9213 1.39999 9.36694 1.39999C10.4168 1.39999 11.1686 2.41366 10.8639 3.4183L10.2256 5.52263H13.4381C14.1376 5.52263 14.7047 6.08974 14.7047 6.7893V7.94695C14.7047 8.27874 14.6412 8.60747 14.5176 8.91539L12.8091 13.1723C12.5656 13.7788 11.9778 14.1763 11.3242 14.1763L3.25007 14.1762C2.5505 14.1762 1.9834 13.6091 1.9834 12.9096V6.7893C1.9834 6.08974 2.5505 5.52263 3.25007 5.52263H4.98604L8.20003 1.92251ZM4.65471 6.72263H3.25007C3.21325 6.72263 3.1834 6.75248 3.1834 6.7893V12.9096C3.1834 12.9464 3.21325 12.9762 3.25007 12.9762H4.65471V6.72263ZM5.85471 12.9762L11.3242 12.9763C11.4876 12.9763 11.6346 12.8769 11.6954 12.7253L13.404 8.46842C13.4705 8.30261 13.5047 8.12561 13.5047 7.94695V6.7893C13.5047 6.75248 13.4749 6.72263 13.4381 6.72263H9.4166C9.22662 6.72263 9.04786 6.63265 8.93469 6.48006C8.82151 6.32746 8.78729 6.13028 8.84244 5.94848L9.71552 3.06999C9.78648 2.83604 9.61141 2.59999 9.36694 2.59999C9.26316 2.59999 9.16431 2.64426 9.0952 2.72167L5.85471 6.35149V12.9762Z" fill="#161823"/>
</svg>
