<svg width="24" height="24" viewBox="0 0 24 24" fill="none" xmlns="http://www.w3.org/2000/svg">
<path d="M10.2498 18.0001C10.2498 17.5859 10.5856 17.2501 10.9998 17.2501H12.9998C13.414 17.2501 13.7498 17.5859 13.7498 18.0001C13.7498 18.4143 13.414 18.7501 12.9998 18.7501H10.9998C10.5856 18.7501 10.2498 18.4143 10.2498 18.0001Z" fill="#161823"/>
<path fill-rule="evenodd" clip-rule="evenodd" d="M7.32787 2.6001C5.51742 2.6001 3.90572 3.74702 3.3125 5.45752L2.56742 7.60587C2.10543 8.938 1.97884 10.8405 3.39003 11.9774C3.47247 12.0438 3.55907 12.1088 3.6498 12.1715V17.1501C3.6498 19.4973 5.55259 21.4001 7.8998 21.4001H16.0998C18.447 21.4001 20.3498 19.4973 20.3498 17.1501V12.1714C20.4405 12.1088 20.5271 12.0438 20.6095 11.9774C22.0206 10.8405 21.8941 8.938 21.4321 7.60587L20.687 5.45752C20.0938 3.74702 18.4821 2.6001 16.6716 2.6001H7.32787ZM18.8498 12.7924C18.663 12.8237 18.4677 12.8408 18.2639 12.8408C16.7558 12.8408 15.7215 11.9154 15.1368 11.1867C14.5552 11.9181 13.5236 12.8408 11.9997 12.8408C10.4658 12.8408 9.43769 11.9248 8.85821 11.1923C8.27312 11.9197 7.24016 12.8408 5.73556 12.8408C5.53186 12.8408 5.33658 12.8237 5.1498 12.7924V17.1501C5.1498 18.6689 6.38102 19.9001 7.8998 19.9001H16.0998C17.6186 19.9001 18.8498 18.6689 18.8498 17.1501V12.7924ZM4.72969 5.94902C5.11353 4.84222 6.1564 4.1001 7.32787 4.1001H16.6716C17.8431 4.1001 18.886 4.84222 19.2698 5.94902L20.0149 8.09737C20.4167 9.25603 20.3101 10.2923 19.6684 10.8094C19.2798 11.1224 18.8161 11.3408 18.2639 11.3408C17.2601 11.3408 16.5309 10.6014 16.1021 9.97112C15.8516 9.60281 15.4474 9.47615 15.1305 9.47758C14.8136 9.479 14.4114 9.60916 14.1639 9.97795C13.745 10.6021 13.0234 11.3408 11.9997 11.3408C10.9629 11.3408 10.2495 10.6089 9.838 9.99093C9.59064 9.61946 9.18657 9.48867 8.87022 9.48598C8.55386 9.48328 8.14577 9.60738 7.89262 9.97805C7.46271 10.6075 6.73525 11.3408 5.73556 11.3408C5.18341 11.3408 4.7197 11.1224 4.33111 10.8094C3.68937 10.2923 3.58278 9.25603 3.98462 8.09737L4.72969 5.94902Z" fill="#161823"/>
</svg>
