<svg width="16" height="16" viewBox="0 0 16 16" fill="none" xmlns="http://www.w3.org/2000/svg">
<path d="M1.33301 4C1.33301 2.89543 2.22844 2 3.33301 2H6.17137C6.7018 2 7.21051 2.21071 7.58558 2.58579L8.08068 3.08088C8.45575 3.45595 8.96446 3.66667 9.49489 3.66667H12.6663C13.7709 3.66667 14.6663 4.5621 14.6663 5.66667V12C14.6663 13.1046 13.7709 14 12.6663 14H3.33301C2.22844 14 1.33301 13.1046 1.33301 12V4ZM7.99966 12.25C8.41388 12.25 8.74966 11.9142 8.74966 11.5V9.75H10.4997C10.9139 9.75 11.2497 9.41421 11.2497 9C11.2497 8.58579 10.9139 8.25 10.4997 8.25H8.74966V6.5C8.74966 6.08579 8.41388 5.75 7.99966 5.75C7.58545 5.75 7.24966 6.08579 7.24966 6.5V8.25H5.49966C5.08545 8.25 4.74966 8.58579 4.74966 9C4.74966 9.41421 5.08545 9.75 5.49966 9.75H7.24966V11.5C7.24966 11.9142 7.58545 12.25 7.99966 12.25Z" fill="#161823"/>
</svg>
