<svg width="24" height="24" viewBox="0 0 24 24" fill="none" xmlns="http://www.w3.org/2000/svg">
<path d="M11.2402 12.3799C11.7815 12.3799 12.2207 12.8191 12.2207 13.3604V16.3203C12.2206 16.8172 11.8173 17.2207 11.3203 17.2207C10.8233 17.2207 10.4201 16.8173 10.4199 16.3203V14.1807H8.28027C7.7833 14.1807 7.38001 13.7772 7.37988 13.2803C7.3799 12.7832 7.78323 12.3799 8.28027 12.3799H11.2402Z" fill="#161823"/>
<path d="M12.6797 6.81934C13.1766 6.81934 13.5799 7.22284 13.5801 7.71973V9.85938H15.7197C16.2167 9.85938 16.6199 10.2629 16.6201 10.7598C16.6201 11.2568 16.2168 11.6602 15.7197 11.6602H12.7598C12.2185 11.6602 11.7793 11.2209 11.7793 10.6797V7.71973C11.7795 7.22285 12.1828 6.81936 12.6797 6.81934Z" fill="#161823"/>
<path fill-rule="evenodd" clip-rule="evenodd" d="M16.3994 1.71973C18.6085 1.71973 20.3993 3.5107 20.3994 5.71973V18.2393C20.3994 20.4484 18.6086 22.2393 16.3994 22.2393H7.59961C5.39047 22.2393 3.59961 20.4484 3.59961 18.2393V5.71973C3.59974 3.5107 5.39055 1.71973 7.59961 1.71973H16.3994ZM7.59961 3.51953C6.38466 3.51953 5.39955 4.50482 5.39941 5.71973V18.2393C5.39941 19.4543 6.38458 20.4395 7.59961 20.4395H16.3994C17.6144 20.4395 18.5996 19.4543 18.5996 18.2393V5.71973C18.5995 4.50481 17.6144 3.51953 16.3994 3.51953H7.59961Z" fill="#161823"/>
</svg>
