<svg width="24" height="24" viewBox="0 0 24 24" fill="none" xmlns="http://www.w3.org/2000/svg">
<path fill-rule="evenodd" clip-rule="evenodd" d="M5.23919 9.72278C6.41122 9.55641 7.40879 10.4967 7.50653 11.6243C7.57886 12.4589 7.67207 13.399 7.76358 13.9652C7.83828 14.4274 7.95526 15.0735 8.07178 15.6976C8.33977 17.1331 7.18521 18.4864 5.68376 18.3373C5.45329 18.3144 5.2232 18.2896 5.00827 18.2633C4.39546 18.1884 3.86586 17.9765 3.48278 17.7802C2.79413 17.4274 2.44225 16.7565 2.33292 16.1251C2.24206 15.6003 2.12371 14.8826 2.07763 14.4414C2.05475 14.2222 2.02362 13.9294 1.99119 13.6263C1.87069 12.5003 2.20021 11.2339 3.33217 10.5283C3.3844 10.4957 3.43852 10.4626 3.4946 10.4289C3.53316 10.4057 3.57231 10.3829 3.61196 10.3606C4.07832 6.11743 7.67826 2.74475 12.1258 2.74475C16.6262 2.74475 20.2629 6.19955 20.6555 10.5207C20.6596 10.5232 20.6636 10.5257 20.6677 10.5283C21.7997 11.2339 22.1292 12.5003 22.0087 13.6263C21.9763 13.9294 21.9451 14.2222 21.9222 14.4414C21.8762 14.8826 21.7578 15.6003 21.667 16.1251C21.5576 16.7565 21.2057 17.4274 20.5171 17.7802C20.3129 17.8848 20.0671 17.9939 19.7893 18.0843C19.3806 18.9165 18.7449 19.6002 17.8642 20.1165C16.9049 20.6788 15.686 21.0243 14.2144 21.1857C13.9214 21.654 13.4011 21.9655 12.808 21.9655C11.8925 21.9655 11.1503 21.2233 11.1503 20.3078C11.1503 19.3924 11.8925 18.6502 12.808 18.6502C13.4938 18.6502 14.0823 19.0667 14.3344 19.6605C15.521 19.5049 16.43 19.2185 17.1056 18.8224C17.3574 18.6748 17.5804 18.5099 17.7756 18.3262C16.5502 18.1495 15.6933 16.9551 15.9281 15.6976C16.0446 15.0735 16.1616 14.4274 16.2363 13.9652C16.3278 13.399 16.421 12.4589 16.4933 11.6243C16.5984 10.4128 17.7421 9.41755 19.0248 9.77867C18.3298 6.63669 15.5267 4.24475 12.1258 4.24475C8.74301 4.24475 5.9547 6.61015 5.23919 9.72278ZM5.34273 11.2348C5.60701 11.1421 5.97438 11.3183 6.01213 11.7539C6.08404 12.5836 6.18123 13.5761 6.2828 14.2045C6.36061 14.6859 6.48045 15.3472 6.59725 15.9729C6.69071 16.4735 6.29046 16.8902 5.83203 16.8447C5.60924 16.8225 5.39091 16.7989 5.19031 16.7744C4.80548 16.7274 4.44861 16.5897 4.16681 16.4453C4.00894 16.3644 3.86388 16.175 3.81093 15.8692C3.71873 15.3367 3.60949 14.6683 3.56952 14.2856C3.54644 14.0645 3.51513 13.7701 3.48267 13.4667C3.40047 12.6986 3.64102 12.1033 4.12569 11.8012C4.17091 11.773 4.21809 11.7441 4.26731 11.7145C4.56299 11.5368 4.94604 11.374 5.34273 11.2348ZM18.6571 11.2348C18.3929 11.1421 18.0255 11.3183 17.9877 11.7539C17.9158 12.5836 17.8186 13.5761 17.7171 14.2045C17.6393 14.6859 17.5194 15.3472 17.4026 15.9729C17.3092 16.4735 17.7094 16.8902 18.1678 16.8447C18.3906 16.8225 18.609 16.7989 18.8096 16.7744C19.1944 16.7274 19.5513 16.5897 19.8331 16.4453C19.9909 16.3644 20.136 16.175 20.1889 15.8692C20.2811 15.3367 20.3904 14.6683 20.4304 14.2856C20.4534 14.0645 20.4847 13.7701 20.5172 13.4667C20.5994 12.6986 20.3589 12.1033 19.8742 11.8012C19.829 11.773 19.7818 11.7441 19.7326 11.7145C19.4369 11.5368 19.0538 11.374 18.6571 11.2348Z" fill="#161823"/>
</svg>
