<svg width="20" height="20" viewBox="0 0 20 20" fill="none" xmlns="http://www.w3.org/2000/svg">
<path fill-rule="evenodd" clip-rule="evenodd" d="M16.5 4.25V15.4393L18.0303 16.9697C18.3232 17.2626 18.3232 17.7374 18.0303 18.0303C17.7374 18.3232 17.2626 18.3232 16.9697 18.0303L14.9684 16.0304L14.9687 16.0293L5 6.06066V6.06202L3.5 4.56202V4.56066L1.96967 3.03033C1.67678 2.73744 1.67678 2.26256 1.96967 1.96967C2.26256 1.67678 2.73744 1.67678 3.03033 1.96967L3.89306 2.8324C4.37431 2.03397 5.2498 1.5 6.25 1.5H13.75C15.2688 1.5 16.5 2.73122 16.5 4.25ZM6.25 3H13.75C14.4404 3 15 3.55964 15 4.25V13.9393L13.1924 12.1317C13.8926 12.0589 14.2671 11.1893 13.7529 10.6281L12.6163 9.38764L13.314 7.85666C13.6591 7.09916 12.8793 6.31931 12.1218 6.66449L10.5908 7.36213L9.35034 6.22553C8.78916 5.71135 7.91956 6.08588 7.8467 6.78604L5.03133 3.97067C5.15822 3.41479 5.65567 3 6.25 3ZM12.3261 10.8472L11.8541 10.7935L9.18496 8.12429L9.1312 7.6523L9.92651 8.38103C10.1928 8.625 10.5791 8.68618 10.9077 8.53643L11.8893 8.08914L11.442 9.07072C11.2923 9.39935 11.3534 9.78566 11.5974 10.0519L12.3261 10.8472Z" fill="#161823"/>
<path d="M3.84142 7.02476C3.71543 6.89877 3.5 6.988 3.5 7.16618V15.75C3.5 17.2688 4.73122 18.5 6.25 18.5H13.75C14.1074 18.5 14.4489 18.4318 14.7622 18.3077C14.8881 18.2579 14.9134 18.0967 14.8176 18.001L13.861 17.0443C13.8317 17.015 13.7914 17 13.75 17H6.25C5.55964 17 5 16.4404 5 15.75V8.26618C5 8.21314 4.97893 8.16227 4.94142 8.12476L3.84142 7.02476Z" fill="#161823"/>
<path d="M6.54996 9.73331C6.47563 9.65897 6.35395 9.65365 6.29102 9.73787C5.92276 10.2307 6.15478 11.0173 6.83796 11.1563L7.78153 11.3484L6.17686 12.953C5.94254 13.1873 5.94254 13.5672 6.17686 13.8016C6.41117 14.0359 6.79107 14.0359 7.02539 13.8016L8.63008 12.1969L8.8221 13.1405C8.96112 13.8237 9.74778 14.0557 10.2406 13.6874C10.3248 13.6245 10.3195 13.5028 10.2451 13.4285L6.54996 9.73331Z" fill="#161823"/>
</svg>
