<svg width="20" height="20" viewBox="0 0 20 20" fill="none" xmlns="http://www.w3.org/2000/svg">
<path d="M9.17815 6.66655C9.1715 6.20833 9.54112 5.8333 9.99939 5.8333C10.4577 5.8333 10.8273 6.20833 10.8206 6.66655L10.7589 10.918C10.7529 11.3332 10.4146 11.6666 9.99939 11.6666C9.58415 11.6666 9.24585 11.3332 9.23983 10.918L9.17815 6.66655Z" fill="#161823"/>
<path d="M9.99941 14.3333C10.5057 14.3333 10.9161 13.9229 10.9161 13.4166C10.9161 12.9104 10.5057 12.5 9.99941 12.5C9.49315 12.5 9.08274 12.9104 9.08274 13.4166C9.08274 13.9229 9.49315 14.3333 9.99941 14.3333Z" fill="#161823"/>
<path d="M9.99935 18.3333C14.6017 18.3333 18.3327 14.6024 18.3327 9.99999C18.3327 5.39762 14.6017 1.66666 9.99935 1.66666C5.39698 1.66666 1.66602 5.39762 1.66602 9.99999C1.66602 14.6024 5.39698 18.3333 9.99935 18.3333ZM9.99935 16.8333C6.2254 16.8333 3.16602 13.7739 3.16602 9.99999C3.16602 6.22604 6.2254 3.16666 9.99935 3.16666C13.7733 3.16666 16.8327 6.22604 16.8327 9.99999C16.8327 13.7739 13.7733 16.8333 9.99935 16.8333Z" fill="#161823"/>
</svg>
