<svg width="24" height="24" viewBox="0 0 24 24" fill="none" xmlns="http://www.w3.org/2000/svg">
<path d="M2 11.9998C2 8.96099 4.46343 6.49756 7.50222 6.49756C8.10385 6.49756 8.68149 6.59384 9.22144 6.77127C9.61495 6.90057 10.0388 6.68639 10.1681 6.29288C10.2974 5.89936 10.0832 5.47553 9.6897 5.34623C9.00051 5.11976 8.26489 4.99756 7.50222 4.99756C3.635 4.99756 0.5 8.13256 0.5 11.9998C0.5 15.867 3.635 19.002 7.50222 19.002C8.26539 19.002 9.00147 18.8796 9.69105 18.6529C10.0845 18.5235 10.2986 18.0996 10.1692 17.7061C10.0399 17.3127 9.61599 17.0986 9.2225 17.228C8.68225 17.4056 8.10424 17.502 7.50222 17.502C4.46343 17.502 2 15.0386 2 11.9998Z" fill="#161823"/>
<path d="M16.4982 5.00159C12.6332 5.00159 9.5 8.13477 9.5 11.9997C9.5 15.8647 12.6332 18.9979 16.4982 18.9979C20.3631 18.9979 23.4963 15.8647 23.4963 11.9997C23.4963 8.13477 20.3631 5.00159 16.4982 5.00159ZM11 11.9997C11 8.9632 13.4616 6.50159 16.4982 6.50159C19.5347 6.50159 21.9963 8.9632 21.9963 11.9997C21.9963 15.0363 19.5347 17.4979 16.4982 17.4979C13.4616 17.4979 11 15.0363 11 11.9997Z" fill="#161823"/>
</svg>
