<svg width="24" height="24" viewBox="0 0 24 24" fill="none" xmlns="http://www.w3.org/2000/svg">
<path d="M8.65119 2.38193C8.44568 2.02229 7.98754 1.89734 7.6279 2.10285C7.26826 2.30836 7.14332 2.7665 7.34882 3.12614L8.70762 5.50403H5.75C3.67893 5.50403 2 7.18296 2 9.25403V17.254C2 19.3251 3.67893 21.004 5.75 21.004H12.2349C11.9898 20.5348 11.8003 20.0319 11.6751 19.504H5.75C4.50736 19.504 3.5 18.4967 3.5 17.254V9.25403C3.5 8.01139 4.50736 7.00403 5.75 7.00403H9.9865C9.99596 7.00421 10.0054 7.00421 10.0149 7.00403H13.9851C13.9946 7.00421 14.004 7.00421 14.0135 7.00403H18.25C19.4926 7.00403 20.5 8.01139 20.5 9.25403V11.9987C21.0409 12.2245 21.5448 12.5212 22 12.8773V9.25403C22 7.18296 20.3211 5.50403 18.25 5.50403H15.2924L16.6512 3.12614C16.8567 2.7665 16.7317 2.30836 16.3721 2.10285C16.0125 1.89734 15.5543 2.02229 15.3488 2.38193L13.5648 5.50403H10.4352L8.65119 2.38193Z" fill="#161823"/>
<path d="M16.749 17.249C16.3348 17.249 15.999 17.5848 15.999 17.999C15.999 18.4132 16.3348 18.749 16.749 18.749H19.249C19.6632 18.749 19.999 18.4132 19.999 17.999C19.999 17.5848 19.6632 17.249 19.249 17.249H16.749Z" fill="#161823"/>
<path d="M17.999 22.998C20.7598 22.998 22.9979 20.7599 22.9979 17.999C22.9979 15.2382 20.7598 13.0001 17.999 13.0001C15.2381 13.0001 13 15.2382 13 17.999C13 20.7599 15.2381 22.998 17.999 22.998ZM17.999 21.498C16.0665 21.498 14.5 19.9315 14.5 17.999C14.5 16.0666 16.0665 14.5001 17.999 14.5001C19.9314 14.5001 21.4979 16.0666 21.4979 17.999C21.4979 19.9315 19.9314 21.498 17.999 21.498Z" fill="#161823"/>
</svg>
