<svg width="24" height="24" viewBox="0 0 24 24" fill="none" xmlns="http://www.w3.org/2000/svg">
<path d="M0.981216 12.5563L9.93149 9.16896C10.2762 9.03709 10.621 8.91346 10.9657 8.79808C11.3193 8.68269 11.6641 8.625 12 8.625C12.3359 8.625 12.6762 8.68269 13.021 8.79808C13.3746 8.91346 13.7282 9.03709 14.0818 9.16896L23.0188 12.5563C23.3193 12.6635 23.558 12.8324 23.7348 13.0632C23.9116 13.2857 24 13.533 24 13.8049C24 14.2665 23.8409 14.6456 23.5227 14.9423C23.2133 15.2308 22.8376 15.375 22.3956 15.375C22.1569 15.375 21.8917 15.3255 21.6 15.2266C21.3171 15.1277 21.0652 15.0288 20.8442 14.9299L12 11.609L3.1558 14.9299C2.93481 15.0288 2.68287 15.1277 2.4 15.2266C2.11713 15.3255 1.85193 15.375 1.60442 15.375C1.16243 15.375 0.78232 15.2308 0.464088 14.9423C0.154696 14.6456 0 14.2665 0 13.8049C0 13.533 0.0883978 13.2857 0.265193 13.0632C0.441989 12.8324 0.680663 12.6635 0.981216 12.5563Z" fill="#161823"/>
</svg>
