<svg width="16" height="16" viewBox="0 0 16 16" fill="none" xmlns="http://www.w3.org/2000/svg">
<path d="M7.6642 1.44224C7.8754 1.33664 8.12399 1.33664 8.33519 1.44224L13.8345 4.19191C14.0887 4.31898 14.2492 4.57874 14.2492 4.86289C14.2492 5.14704 14.0887 5.40681 13.8345 5.53388L8.3352 8.28361C8.124 8.38921 7.8754 8.38921 7.6642 8.28361L2.16486 5.53388C1.91071 5.40681 1.75017 5.14704 1.75017 4.86289C1.75017 4.57874 1.91071 4.31898 2.16486 4.19191L7.6642 1.44224ZM4.26726 4.81818C4.23041 4.83661 4.23041 4.8892 4.26726 4.90762L7.97734 6.7627C7.99141 6.76974 8.00798 6.76974 8.02206 6.7627L11.7321 4.90762C11.769 4.8892 11.769 4.83661 11.7321 4.81818L8.02206 2.96314C8.00798 2.95611 7.99141 2.95611 7.97734 2.96314L4.26726 4.81818Z" fill="#161823"/>
<path d="M1.82921 7.66784C2.01434 7.29718 2.46489 7.14678 2.83555 7.3319L7.97735 9.89994C7.99142 9.90696 8.00797 9.90696 8.02203 9.89994L13.1638 7.3319C13.5345 7.14678 13.985 7.29718 14.1702 7.66784C14.3553 8.0385 14.2049 8.48906 13.8342 8.67418L8.33489 11.4208C8.12385 11.5262 7.87553 11.5262 7.6645 11.4208L2.16516 8.67418C1.7945 8.48906 1.64409 8.0385 1.82921 7.66784Z" fill="#161823"/>
<path d="M2.83555 10.4688C2.46489 10.2837 2.01434 10.4341 1.82921 10.8047C1.64409 11.1754 1.7945 11.626 2.16516 11.8111L7.6645 14.5577C7.87553 14.6631 8.12385 14.6631 8.33489 14.5577L13.8342 11.8111C14.2049 11.626 14.3553 11.1754 14.1702 10.8047C13.985 10.4341 13.5345 10.2837 13.1638 10.4688L8.02203 13.0368C8.00797 13.0439 7.99142 13.0439 7.97735 13.0368L2.83555 10.4688Z" fill="#161823"/>
</svg>
