<svg width="16" height="16" viewBox="0 0 16 16" fill="none" xmlns="http://www.w3.org/2000/svg">
<path d="M8.57058 1.96614C9.44334 1.24385 10.9522 1.03242 12.0181 2.09829C12.3624 2.44258 12.5865 2.86137 12.6944 3.30447C13.1376 3.41243 13.5565 3.63668 13.9007 3.98093C14.9666 5.0468 14.7552 6.5557 14.0329 7.42846C13.8455 7.65496 13.6449 7.84423 13.4277 7.9996C13.6449 8.15496 13.8454 8.34405 14.0327 8.57055C14.755 9.4433 14.9666 10.9524 13.9007 12.0183C13.5565 12.3625 13.1376 12.5868 12.6944 12.6947C12.5865 13.1378 12.3624 13.5566 12.0181 13.9009C10.9522 14.9668 9.44315 14.7552 8.5704 14.0329C8.34395 13.8456 8.15491 13.6452 7.99956 13.428C7.8442 13.6452 7.65494 13.8458 7.42846 14.0332C6.5557 14.7555 5.0468 14.9669 3.98093 13.901C3.63668 13.5568 3.41243 13.1379 3.30447 12.6946C2.86137 12.5868 2.44258 12.3627 2.09829 12.0184C1.03242 10.9525 1.244 9.44343 1.9663 8.57067C2.15366 8.34416 2.3541 8.15508 2.57136 7.99971C2.3541 7.84434 2.15351 7.65507 1.96614 7.42856C1.24385 6.5558 1.03242 5.0469 2.09829 3.98104C2.44258 3.63674 2.86137 3.41265 3.30447 3.30478C3.41243 2.86155 3.63668 2.44264 3.98093 2.09839C5.0468 1.03253 6.55588 1.24411 7.42864 1.9664C7.65509 2.15372 7.84414 2.3541 7.99948 2.57129C8.15484 2.35406 8.3441 2.15349 8.57058 1.96614ZM13.1773 6.57286C13.527 6.07286 13.5607 5.33792 13.0522 4.82944C12.8053 4.58258 12.4818 4.4481 12.1371 4.43081C11.8294 4.41538 11.5834 4.16936 11.5679 3.86163C11.5506 3.51683 11.4163 3.19358 11.1696 2.9468C10.6611 2.43833 9.92615 2.47201 9.42614 2.8217C9.39507 2.84344 9.36452 2.8667 9.33537 2.89082C8.90239 3.24894 8.68827 3.65436 8.62458 4.3356C8.61043 4.48694 8.60393 4.64991 8.6046 4.82662C9.90695 5.07197 10.9355 6.09444 11.1828 7.39438C11.3555 7.39477 11.515 7.38825 11.6634 7.37439C12.3447 7.31072 12.7502 7.09642 13.1083 6.66344C13.1325 6.6343 13.1556 6.60393 13.1773 6.57286ZM9.33556 13.1085C9.36471 13.1326 9.39487 13.1556 9.42595 13.1773C9.92595 13.527 10.6611 13.5608 11.1696 13.0524C11.4163 12.8056 11.5506 12.4823 11.5679 12.1375C11.5834 11.8298 11.8294 11.5838 12.1371 11.5683C12.4818 11.5511 12.8053 11.4166 13.0522 11.1697C13.5607 10.6612 13.5269 9.9261 13.1772 9.4261C13.1554 9.39502 13.1323 9.36467 13.1082 9.33553C12.7501 8.90255 12.3447 8.68843 11.6634 8.62477C11.5151 8.61091 11.3556 8.60439 11.1829 8.60478C10.9359 9.905 9.90715 10.9277 8.6046 11.1731C8.60394 11.3496 8.61045 11.5124 8.62458 11.6636C8.68827 12.3448 8.90258 12.7504 9.33556 13.1085ZM7.39434 11.1732C6.09175 10.9278 5.063 9.90508 4.8159 8.60485C4.64331 8.60447 4.48388 8.61099 4.3356 8.62486C3.65436 8.68855 3.24879 8.90285 2.89067 9.33583C2.86654 9.36498 2.84358 9.39515 2.82184 9.42622C2.47215 9.92622 2.43833 10.6614 2.9468 11.1698C3.19358 11.4166 3.51683 11.5509 3.86162 11.5682C4.16936 11.5836 4.41538 11.8297 4.43081 12.1374C4.4481 12.4821 4.58258 12.8056 4.82944 13.0525C5.33791 13.5609 6.07285 13.5273 6.57286 13.1776C6.60393 13.1558 6.63448 13.1326 6.66363 13.1085C7.09661 12.7503 7.31072 12.3449 7.37438 11.6637C7.38851 11.5125 7.39501 11.3497 7.39434 11.1732ZM4.3356 7.37452C4.4839 7.38839 4.64336 7.39491 4.81597 7.39453C5.0632 6.09448 6.09188 5.07191 7.39434 4.82659C7.39502 4.64993 7.38852 4.48701 7.37439 4.33571C7.31072 3.65445 7.09642 3.24889 6.66344 2.89077C6.6343 2.86665 6.60413 2.84369 6.57306 2.82195C6.07305 2.47226 5.33791 2.43843 4.82944 2.9469C4.58258 3.19376 4.4481 3.5173 4.43081 3.86198C4.41538 4.16971 4.16936 4.41573 3.86162 4.43117C3.51683 4.44846 3.19358 4.58277 2.9468 4.82955C2.43833 5.33802 2.47201 6.07296 2.8217 6.57296C2.84344 6.60404 2.86669 6.63458 2.89082 6.66373C3.24894 7.09671 3.65436 7.31083 4.3356 7.37452ZM7.99945 5.97021C6.87037 5.97021 5.95923 6.88116 5.95923 7.99975C5.95923 9.11834 6.87037 10.0293 7.99945 10.0293C9.12853 10.0293 10.0397 9.11834 10.0397 7.99975C10.0397 6.88116 9.12853 5.97021 7.99945 5.97021Z" fill="#161823"/>
</svg>
