<svg width="20" height="20" viewBox="0 0 20 20" fill="none" xmlns="http://www.w3.org/2000/svg">
<path d="M10.0003 5.41669C10.4606 5.41669 10.8337 5.78978 10.8337 6.25002V9.16669H13.7503C14.2106 9.16669 14.5837 9.53978 14.5837 10C14.5837 10.4603 14.2106 10.8334 13.7503 10.8334H10.8337V13.75C10.8337 14.2103 10.4606 14.5834 10.0003 14.5834C9.54009 14.5834 9.16699 14.2103 9.16699 13.75V10.8334H6.25033C5.79009 10.8334 5.41699 10.4603 5.41699 10C5.41699 9.53978 5.79009 9.16669 6.25033 9.16669H9.16699V6.25002C9.16699 5.78978 9.54009 5.41669 10.0003 5.41669Z" fill="#161823"/>
<path d="M18.3337 10C18.3337 14.6024 14.6027 18.3334 10.0003 18.3334C5.39795 18.3334 1.66699 14.6024 1.66699 10C1.66699 5.39765 5.39795 1.66669 10.0003 1.66669C14.6027 1.66669 18.3337 5.39765 18.3337 10ZM16.8337 10C16.8337 6.22607 13.7743 3.16669 10.0003 3.16669C6.22638 3.16669 3.16699 6.22607 3.16699 10C3.16699 13.774 6.22638 16.8334 10.0003 16.8334C13.7743 16.8334 16.8337 13.774 16.8337 10Z" fill="#161823"/>
</svg>
