<svg width="24" height="24" viewBox="0 0 24 24" fill="none" xmlns="http://www.w3.org/2000/svg">
<path d="M15.9998 6.5C15.9998 8.98529 14.2089 11 11.9998 11C9.79067 11 7.9998 8.98529 7.9998 6.5C7.9998 4.01472 9.79067 2 11.9998 2C14.2089 2 15.9998 4.01472 15.9998 6.5Z" fill="#161823"/>
<path d="M5.86408 14.1182C7.49136 13.0852 9.6563 12.5 12 12.5C14.3437 12.5 16.5086 13.0852 18.1359 14.1182C18.6217 14.4265 19.0745 14.7866 19.4703 15.1936C19.5361 15.2612 19.5427 15.3662 19.4883 15.4433L17.1501 18.7549L16.1605 17.7956C15.2683 16.9307 13.8438 16.9528 12.9789 17.845C12.114 18.7373 12.1361 20.1617 13.0284 21.0266L13.678 21.6564C13.807 21.7815 13.7185 22 13.5388 22H5.5C4.11929 22 3 20.8807 3 19.5V18.7273C3 16.7372 4.25055 15.1424 5.86408 14.1182Z" fill="#161823"/>
<path d="M14.056 18.8891C14.3443 18.5917 14.8192 18.5843 15.1166 18.8726L17.3646 21.0518L21.832 14.7248C22.0709 14.3864 22.5389 14.3058 22.8772 14.5447C23.2156 14.7836 23.2962 15.2516 23.0573 15.59L18.0845 22.6329C17.9581 22.8119 17.7597 22.9267 17.5415 22.947C17.3233 22.9674 17.1072 22.8913 16.9498 22.7388L14.0725 19.9496C13.7751 19.6613 13.7677 19.1865 14.056 18.8891Z" fill="#161823"/>
</svg>
