<svg width="16" height="16" viewBox="0 0 16 16" fill="none" xmlns="http://www.w3.org/2000/svg">
<path fill-rule="evenodd" clip-rule="evenodd" d="M4.06927 2.5C3.20259 2.5 2.5 3.20259 2.5 4.06927V11.9307C2.5 12.7974 3.20259 13.5 4.06927 13.5H11.9307C12.7974 13.5 13.5 12.7974 13.5 11.9307V4.06927C13.5 3.20259 12.7974 2.5 11.9307 2.5H4.06927ZM8.58515 5.96336C8.38798 5.96336 8.21023 6.07118 8.13477 6.23655C8.05932 6.40192 8.10103 6.59227 8.24045 6.71883L8.95466 7.36721L8.08579 8.24605L7.23356 7.57965C7.00263 7.39908 6.65529 7.41832 6.45026 7.62306L4.88782 9.18332C4.67885 9.39199 4.69579 9.71493 4.92566 9.90464C5.15552 10.0943 5.51126 10.079 5.72022 9.87029L6.9143 8.67789L7.76918 9.34636C8.00116 9.52776 8.35036 9.5074 8.55487 9.30054L9.75129 8.0904L10.4279 8.70461C10.5673 8.83118 10.777 8.86904 10.9591 8.80055C11.1413 8.73205 11.2601 8.57068 11.2601 8.39169V6.40591C11.2601 6.1615 11.0418 5.96336 10.7726 5.96336H8.58515Z" fill="#161823"/>
</svg>
