<svg width="16" height="16" viewBox="0 0 16 16" fill="none" xmlns="http://www.w3.org/2000/svg">
<path d="M6.99912 1.30803C7.63301 1.00963 8.36699 1.00963 9.00088 1.30803L13.0815 3.22891C13.6421 3.49284 14 4.05682 14 4.67653V6.00003C14 6.15932 13.9367 6.31208 13.8239 6.42463C13.7112 6.53718 13.5583 6.60028 13.399 6.60003L12 6.5978V10.9H12.4001C13.2838 10.9 14.0001 11.6164 14.0001 12.5V14C14.0001 14.3314 13.7315 14.6 13.4001 14.6H2.6001C2.26873 14.6 2.0001 14.3314 2.0001 14V12.5C2.0001 11.6164 2.71644 10.9 3.6001 10.9H4V6.58508L2.59905 6.58285C2.26805 6.58233 2 6.31385 2 5.98285V4.67653C2 4.05682 2.35786 3.49284 2.91855 3.22891L6.99912 1.30803ZM8.4898 2.39375C8.17959 2.24772 7.82041 2.24772 7.51021 2.39375L3.42964 4.31463C3.28946 4.38061 3.2 4.52161 3.2 4.67653V5.38381L12.8 5.39907V4.67653C12.8 4.52161 12.7105 4.38061 12.5704 4.31463L8.4898 2.39375ZM10.8 10.9V6.59589L8.6 6.59239V10.9H10.8ZM5.2 6.58699V10.9H7.4V6.59049L5.2 6.58699ZM3.6001 12.1C3.37919 12.1 3.2001 12.2791 3.2001 12.5V13.4H12.8001V12.5C12.8001 12.2791 12.621 12.1 12.4001 12.1H3.6001Z" fill="#161823"/>
</svg>
