<svg width="16" height="16" viewBox="0 0 16 16" fill="none" xmlns="http://www.w3.org/2000/svg">
<path d="M9.16033 6.68822C9.25547 7.04741 9.3206 7.41837 9.19486 8.06061L9.17925 8.13883L13.6756 9.40608C13.6996 9.32264 13.7291 9.23611 13.7674 9.14136C13.8481 8.94226 13.983 8.73358 14.1407 8.48958C14.4807 7.96371 14.9268 7.27378 15.1642 6.16208C15.5753 4.23708 14.5715 1.14748 12.5941 0.797365C10.6167 0.447251 9.13547 2.85107 8.96045 5.06364C8.90481 5.76701 9.0152 6.16393 9.11819 6.53424C9.13254 6.58583 9.14674 6.63691 9.16033 6.68822Z" fill="#161823"/>
<path d="M8.47763 10.3264C8.56674 9.88837 8.64627 9.64638 8.723 9.46478L13.3614 10.7721C13.3046 10.9616 13.2324 11.18 13.1382 11.4365C12.6241 12.8364 11.4343 13.553 9.98698 13.0996C8.53969 12.6462 8.33307 11.0371 8.47763 10.3264Z" fill="#161823"/>
<path d="M6.9518 10.0099C6.77711 9.2827 6.86651 8.89891 6.96369 8.48169C6.97459 8.43494 6.9856 8.38765 6.99633 8.33952C7.07146 8.00237 7.13368 7.61856 7.05895 7.00573C6.7903 4.80256 5.20845 2.4637 3.24772 2.89732C1.28698 3.33094 0.415058 6.46032 0.907371 8.36616C1.19168 9.4668 1.66658 10.1372 2.02856 10.6482C2.1965 10.8853 2.34014 11.0881 2.42915 11.2836C2.47238 11.3785 2.50592 11.4653 2.53383 11.5492L6.97132 10.0899C6.96488 10.0639 6.95837 10.0373 6.9518 10.0099Z" fill="#161823"/>
<path d="M7.48383 11.3951L2.90574 12.9006C2.9702 13.0865 3.05111 13.3 3.15511 13.5499C3.72809 14.9268 4.94723 15.5924 6.374 15.078C7.80077 14.5636 7.939 12.9472 7.76443 12.2433C7.6573 11.8113 7.56788 11.5731 7.48383 11.3951Z" fill="#161823"/>
</svg>
