<svg width="24" height="24" viewBox="0 0 24 24" fill="none" xmlns="http://www.w3.org/2000/svg">
<path d="M8 13.5C8 12.9477 8.44772 12.5 9 12.5H11V10.5C11 9.94772 11.4477 9.5 12 9.5C12.5523 9.5 13 9.94772 13 10.5V12.5H15C15.5523 12.5 16 12.9477 16 13.5C16 14.0523 15.5523 14.5 15 14.5H13V16.5C13 17.0523 12.5523 17.5 12 17.5C11.4477 17.5 11 17.0523 11 16.5V14.5H9C8.44772 14.5 8 14.0523 8 13.5Z" fill="#161823"/>
<path d="M4.75 3C3.23122 3 2 4.23122 2 5.75V18.25C2 19.7688 3.23122 21 4.75 21H19.25C20.7688 21 22 19.7688 22 18.25V8.25C22 6.73122 20.7688 5.5 19.25 5.5H14.1393C13.4099 5.5 12.7105 5.21027 12.1947 4.69454L11.3056 3.80546C10.7899 3.28973 10.0904 3 9.3611 3H4.75ZM20.5 18.25C20.5 18.9404 19.9404 19.5 19.25 19.5H4.75C4.05964 19.5 3.5 18.9404 3.5 18.25V5.75C3.5 5.05964 4.05964 4.5 4.75 4.5H9.3611C9.69262 4.5 10.0106 4.6317 10.245 4.86612L11.1341 5.7552C11.9311 6.55223 13.0121 7 14.1393 7H19.25C19.9404 7 20.5 7.55964 20.5 8.25V18.25Z" fill="#161823"/>
</svg>
