<svg width="24" height="24" viewBox="0 0 24 24" fill="none" xmlns="http://www.w3.org/2000/svg">
<path d="M15.4841 10.7609C16.3569 11.3564 16.3569 12.6435 15.4841 13.239L11.3955 16.0288C10.3998 16.7082 9.05003 15.9951 9.05003 14.7898L9.05003 9.21021C9.05003 8.00484 10.3998 7.29179 11.3955 7.97116L15.4841 10.7609ZM14.6387 12L10.55 9.21021V14.7898L14.6387 12Z" fill="#161823"/>
<path d="M2 7C2 5.34315 3.34315 4 5 4H19C20.6569 4 22 5.34315 22 7V17C22 18.6569 20.6569 20 19 20H5C3.34315 20 2 18.6569 2 17V7ZM5 5.5C4.17157 5.5 3.5 6.17157 3.5 7V17C3.5 17.8284 4.17157 18.5 5 18.5H19C19.8284 18.5 20.5 17.8284 20.5 17V7C20.5 6.17157 19.8284 5.5 19 5.5H5Z" fill="#161823"/>
</svg>
