<svg width="16" height="16" viewBox="0 0 16 16" fill="none" xmlns="http://www.w3.org/2000/svg">
<path d="M10.5719 2.00002C11.0405 1.53139 11.8003 1.53139 12.2689 2.00002L13.4003 3.13139C13.8689 3.60002 13.8689 4.35981 13.4003 4.82844L6.49556 11.7332C6.30486 11.9239 6.06313 12.0555 5.79944 12.1121L3.70025 12.5627C3.16362 12.6778 2.68908 12.1965 2.81185 11.6616L3.28822 9.5859C3.34704 9.3296 3.47685 9.09504 3.6628 8.9091L10.5719 2.00002Z" fill="#161823"/>
<path d="M2.6002 13.36C2.24121 13.36 1.9502 13.651 1.9502 14.01C1.9502 14.369 2.24121 14.66 2.6002 14.66H13.4002C13.7592 14.66 14.0502 14.369 14.0502 14.01C14.0502 13.651 13.7592 13.36 13.4002 13.36H2.6002Z" fill="#161823"/>
</svg>
