<svg width="24" height="24" viewBox="0 0 24 24" fill="none" xmlns="http://www.w3.org/2000/svg">
<path d="M12.0005 3C9.37714 3 7.25049 5.12665 7.25049 7.75C7.25049 7.9185 7.25926 8.08495 7.27638 8.24892C6.7788 8.24595 6.27847 8.29092 5.78242 8.38572C5.7613 8.17668 5.75049 7.9646 5.75049 7.75C5.75049 4.29822 8.54871 1.5 12.0005 1.5C15.4523 1.5 18.2505 4.29822 18.2505 7.75C18.2505 11.0462 15.6988 13.7464 12.463 13.9831C11.4231 16.1939 12.2345 18.8702 14.3887 20.1139C16.6606 21.4256 19.5657 20.6472 20.8774 18.3753C22.189 16.1034 21.4106 13.1983 19.1387 11.8867C18.9928 11.8024 18.8442 11.7267 18.6936 11.6595C18.9449 11.2301 19.1562 10.7743 19.3221 10.2974C19.5137 10.3836 19.7028 10.4803 19.8887 10.5876C22.8781 12.3135 23.9023 16.136 22.1764 19.1253C20.4505 22.1146 16.6281 23.1388 13.6387 21.4129C10.784 19.7648 9.72144 16.2047 11.1345 13.284C9.73993 11.2781 7.01653 10.6427 4.86237 11.8864C2.59048 13.1981 1.81207 16.1032 3.12375 18.3751C4.43543 20.647 7.34048 21.4254 9.61237 20.1137C9.75827 20.0295 9.89801 19.9386 10.0314 19.8419C10.2776 20.2743 10.5667 20.6851 10.8968 21.0673C10.7264 21.1901 10.5482 21.3054 10.3624 21.4127C7.37304 23.1386 3.5506 22.1144 1.82471 19.1251C0.0988232 16.1357 1.12304 12.3133 4.11237 10.5874C6.96702 8.93927 10.5814 9.79904 12.4043 12.4831C14.8386 12.2782 16.7505 10.2373 16.7505 7.75C16.7505 5.12665 14.6238 3 12.0005 3Z" fill="#161823"/>
</svg>
