<svg width="16" height="16" viewBox="0 0 16 16" fill="none" xmlns="http://www.w3.org/2000/svg">
<path d="M6.54946 5.54246C6.54946 3.38498 8.29845 1.63599 10.4559 1.63599C12.6134 1.63599 14.3624 3.38498 14.3624 5.54246C14.3624 7.69995 12.6134 9.44894 10.4559 9.44894C9.97032 9.44894 9.50484 9.36019 9.07523 9.19785L7.7942 10.4789L7.79585 11.7436C7.79595 11.8232 7.76439 11.8996 7.70812 11.956C7.65185 12.0123 7.57548 12.044 7.49585 12.044H6.40485V13.135C6.40485 13.3005 6.27077 13.4347 6.10523 13.435L4.83811 13.4366L3.97731 14.2785C3.92126 14.3334 3.84596 14.3641 3.76754 14.3641L1.93366 14.3641C1.76809 14.3641 1.63382 14.2299 1.63366 14.0644L1.63184 12.2079C1.63176 12.1282 1.66337 12.0518 1.71971 11.9955L6.79824 6.91702C6.63736 6.48912 6.54946 6.02576 6.54946 5.54246ZM11.2582 5.81641C11.8519 5.81641 12.3331 5.33516 12.3331 4.74152C12.3331 4.14787 11.8519 3.66663 11.2582 3.66663C10.6646 3.66663 10.1833 4.14787 10.1833 4.74152C10.1833 5.33516 10.6646 5.81641 11.2582 5.81641Z" fill="#161823"/>
</svg>
