<svg width="20" height="20" viewBox="0 0 20 20" fill="none" xmlns="http://www.w3.org/2000/svg">
<path d="M18.2956 8.39632C18.2896 8.9851 18.0531 9.54807 17.6367 9.96442L14.331 13.2701L17.614 16.5532C17.9069 16.846 17.9069 17.3209 17.614 17.6138C17.3211 17.9067 16.8463 17.9067 16.5534 17.6138C11.8159 12.8763 7.08033 8.13686 2.34284 3.39937C2.09463 3.1047 2.10926 2.66394 2.38671 2.38648C2.67961 2.09359 3.15448 2.09359 3.44737 2.38648L6.78179 5.7209L10.1479 2.35481C10.5698 1.93285 11.1421 1.6958 11.7389 1.6958H16.0908C17.3424 1.6958 18.3534 2.71717 18.3407 3.96869L18.2956 8.39632ZM14.5 6.6668C15.1441 6.6668 15.6662 6.14467 15.6662 5.50058C15.6662 4.85649 15.1441 4.33435 14.5 4.33435C13.8559 4.33435 13.3337 4.85649 13.3337 5.50058C13.3337 6.14467 13.8559 6.6668 14.5 6.6668Z" fill="#161823"/>
<path d="M9.02756 18.5736L12.2116 15.3895L4.66242 7.84027L1.47835 11.0243C0.599667 11.903 0.599665 13.3276 1.47835 14.2063L5.84558 18.5736C6.72426 19.4522 8.14888 19.4522 9.02756 18.5736Z" fill="#161823"/>
</svg>
