<svg width="20" height="20" viewBox="0 0 20 20" fill="none" xmlns="http://www.w3.org/2000/svg">
<path d="M5.49977 7.17371C6.86106 6.81226 8.4159 6.64648 9.99778 6.64648C11.5797 6.64648 13.1246 6.81227 14.476 7.17411C15.8185 7.53352 17.0275 8.10182 17.8746 8.94897C18.6395 9.71378 19.1052 10.6918 19.0789 11.8763L19.0788 11.8782C19.0613 12.5885 18.8319 13.2997 18.3223 13.7984L18.3211 13.7995C17.9046 14.2054 17.318 14.4666 16.6239 14.349L14.034 13.9102C13.5572 13.8332 13.1073 13.6708 12.7688 13.3322C12.3214 12.8848 12.2522 12.2795 12.2446 11.8007L12.2445 11.7962L12.2401 11.3474C11.8003 11.2585 11.0068 11.1928 9.99778 11.1928C9.02074 11.1928 8.20961 11.2698 7.744 11.3516V11.7888C7.744 12.2727 7.67721 12.8813 7.22087 13.3311C6.88523 13.6746 6.42982 13.8346 5.96169 13.9102L3.3279 14.3575C2.66623 14.4619 2.08169 14.2232 1.67803 13.8103C1.17301 13.3029 0.958427 12.5904 0.92452 11.9037L0.924358 11.9003C0.872051 10.7321 1.28389 9.74349 2.07842 8.94897C2.92717 8.10021 4.14866 7.53245 5.49977 7.17371ZM5.88471 8.62347C4.66772 8.94661 3.72846 9.42025 3.13908 10.0096C2.63048 10.5182 2.39053 11.1018 2.42278 11.8315C2.44572 12.2899 2.58426 12.5952 2.74235 12.7533L2.74982 12.7608C2.84122 12.8548 2.94836 12.8978 3.09057 12.8763L5.72022 12.4297C6.04008 12.3783 6.13183 12.2996 6.14874 12.2821L6.15784 12.2726L6.16726 12.2635C6.17062 12.2603 6.18828 12.2434 6.20666 12.1772C6.22809 12.0999 6.244 11.9789 6.244 11.7888V11.0733C6.244 10.7215 6.40272 10.4636 6.56254 10.2958C6.7886 10.0432 7.07845 9.96433 7.16837 9.93985L7.18485 9.93535L7.19769 9.93233C7.75791 9.80052 8.79941 9.69278 9.99778 9.69278C11.1716 9.69278 12.2354 9.77537 12.8349 9.94913L12.8416 9.95108C12.9737 9.99071 13.1883 10.0761 13.3786 10.2491L13.4064 10.2744L13.4315 10.3024C13.5846 10.4725 13.7163 10.7048 13.7359 11.0194L13.7372 11.0391L13.7444 11.7769L13.7444 11.779C13.7476 11.9709 13.7645 12.0954 13.7871 12.1772C13.8072 12.2496 13.8262 12.2684 13.8293 12.2714C13.8583 12.3004 13.96 12.3791 14.2753 12.4298L14.2816 12.4308L16.8745 12.87C17.0161 12.894 17.1379 12.8579 17.2737 12.7258C17.4297 12.5727 17.5683 12.2783 17.5793 11.8419C17.5951 11.1142 17.3241 10.5198 16.814 10.0096C16.223 9.41865 15.2925 8.94554 14.0881 8.62308C12.8927 8.30304 11.4834 8.14648 9.99778 8.14648C8.51212 8.14648 7.09151 8.30305 5.88471 8.62347Z" fill="#161823"/>
</svg>
