<svg width="20" height="20" viewBox="0 0 20 20" fill="none" xmlns="http://www.w3.org/2000/svg">
<path d="M11.5364 8.37302L11.7277 8.60119C12.3185 9.30565 13.1054 9.54885 13.9269 9.54885C14.345 9.54885 14.6833 9.21101 14.6833 8.79492C14.6833 8.37883 14.345 8.041 13.9269 8.041C12.607 8.041 11.5365 6.97398 11.5365 5.6571C11.5365 5.64558 11.5362 5.63412 11.5357 5.62271C11.5189 5.22152 11.1872 4.90039 10.78 4.90039C10.3619 4.90039 10.0236 5.23823 10.0236 5.65432V12.2745C10.0236 13.104 9.34929 13.7759 8.51819 13.7759C7.68708 13.7759 7.01281 13.104 7.01281 12.2745C7.01281 11.445 7.68708 10.7731 8.51819 10.7731C8.93623 10.7731 9.27459 10.4353 9.27459 10.0192C9.27459 9.60309 8.93623 9.26525 8.51819 9.26525C6.851 9.26525 5.5 10.6128 5.5 12.2745C5.5 13.9362 6.851 15.2837 8.51819 15.2837C10.1854 15.2837 11.5364 13.9362 11.5364 12.2745V8.37302Z" fill="#161823"/>
<path fill-rule="evenodd" clip-rule="evenodd" d="M5.75 2C3.67893 2 2 3.67893 2 5.75V14.25C2 16.3211 3.67893 18 5.75 18H14.25C16.3211 18 18 16.3211 18 14.25V5.75C18 3.67893 16.3211 2 14.25 2H5.75ZM3.5 5.75C3.5 4.50736 4.50736 3.5 5.75 3.5H14.25C15.4926 3.5 16.5 4.50736 16.5 5.75V14.25C16.5 15.4926 15.4926 16.5 14.25 16.5H5.75C4.50736 16.5 3.5 15.4926 3.5 14.25V5.75Z" fill="#161823"/>
</svg>
