<svg width="16" height="16" viewBox="0 0 16 16" fill="none" xmlns="http://www.w3.org/2000/svg">
<path d="M8.00033 1C5.92926 1 4.25033 2.67893 4.25033 4.75V6.60023C3.35607 6.72216 2.66699 7.48894 2.66699 8.41666V13.1667C2.66699 14.1792 3.4878 15 4.50033 15H11.5003C12.5128 15 13.3337 14.1792 13.3337 13.1667V8.41666C13.3337 7.48894 12.6446 6.72217 11.7503 6.60023V4.75C11.7503 2.67893 10.0714 1 8.00033 1ZM10.2503 6.58333H5.75033V4.75C5.75033 3.50736 6.75769 2.5 8.00033 2.5C9.24297 2.5 10.2503 3.50736 10.2503 4.75V6.58333ZM4.50033 8.08333H11.5003C11.6844 8.08333 11.8337 8.23257 11.8337 8.41666V13.1667C11.8337 13.3508 11.6844 13.5 11.5003 13.5H4.50033C4.31623 13.5 4.16699 13.3508 4.16699 13.1667V8.41666C4.16699 8.23257 4.31623 8.08333 4.50033 8.08333Z" fill="#161823"/>
</svg>
