<svg width="16" height="16" viewBox="0 0 16 16" fill="none" xmlns="http://www.w3.org/2000/svg">
<path d="M4.73042 6.73472C4.49249 6.50407 4.11264 6.50998 3.88199 6.74791C3.65135 6.98584 3.65726 7.36569 3.89519 7.59633L5.16075 8.82314C5.28663 8.94516 5.45958 9.00603 5.63414 8.98973C5.80869 8.97344 5.96739 8.88162 6.06851 8.7384L8.25578 5.6406C8.44692 5.3699 8.38242 4.99552 8.11172 4.80439C7.84103 4.61326 7.46664 4.67776 7.27551 4.94845L5.4926 7.47356L4.73042 6.73472Z" fill="#161823"/>
<path fill-rule="evenodd" clip-rule="evenodd" d="M2.75 1.5H9.25C10.2165 1.5 11 2.2835 11 3.25V12.75C11 13.7165 10.2165 14.5 9.25 14.5H2.75C1.7835 14.5 1 13.7165 1 12.75V3.25C1 2.2835 1.7835 1.5 2.75 1.5ZM9.25 2.7H2.75C2.44624 2.7 2.2 2.94624 2.2 3.25V12.75C2.2 13.0538 2.44624 13.3 2.75 13.3H9.25C9.55376 13.3 9.8 13.0538 9.8 12.75V3.25C9.8 2.94624 9.55376 2.7 9.25 2.7Z" fill="#161823"/>
<path d="M13.3999 12.0334C13.3999 12.8883 12.9873 13.6468 12.3504 14.1207C12.2869 14.1679 12.2 14.1208 12.2 14.0418V7.73346C12.2 7.67824 12.2448 7.63346 12.3 7.63346H13.3C13.3552 7.63346 13.4 7.67824 13.4 7.73346L13.3999 12.0334Z" fill="#161823"/>
<path d="M13.3 4.40013C13.3552 4.40013 13.4 4.35536 13.4 4.30013V3.93333C13.4 3.07838 12.9873 2.31981 12.3503 1.84593C12.2869 1.79875 12.2 1.84579 12.2 1.92482V4.30013C12.2 4.35536 12.2448 4.40013 12.3 4.40013H13.3Z" fill="#161823"/>
<path d="M12.5 5C12.3343 5 12.2 5.13431 12.2 5.3V6.69756C12.2 6.86324 12.3343 6.99756 12.5 6.99756H14.8156C14.892 6.99756 14.9401 6.91538 14.9028 6.84872L14.4476 6.03519C14.4304 6.0045 14.4306 5.96704 14.4481 5.93654L14.9001 5.14981C14.9384 5.08315 14.8902 5 14.8134 5H12.5Z" fill="#161823"/>
</svg>
