<svg width="20" height="20" viewBox="0 0 20 20" fill="none" xmlns="http://www.w3.org/2000/svg">
<path fill-rule="evenodd" clip-rule="evenodd" d="M2.96967 2.46967C3.26256 2.17678 3.73744 2.17678 4.03033 2.46967L7.54399 5.98333H7.60569C8.08258 5.98333 8.55129 5.85931 8.96578 5.62344L13.8388 2.85048C14.5054 2.47112 15.3333 2.95259 15.3333 3.71961V13.7727L17.5303 15.9697C17.8232 16.2626 17.8232 16.7374 17.5303 17.0303C17.2374 17.3232 16.7626 17.3232 16.4697 17.0303L2.96967 3.53033C2.67678 3.23744 2.67678 2.76256 2.96967 2.46967ZM8.85593 7.29527L13.8333 12.2727V4.57942L9.70764 6.92714C9.43691 7.0812 9.15122 7.20438 8.85593 7.29527Z" fill="#161823"/>
<path d="M4 6.98071C4.3866 6.98071 4.7 7.29411 4.7 7.68071V12.2687C4.7 12.4344 4.83431 12.5687 5 12.5687H8.12826C8.60181 12.5687 9.06703 12.6933 9.47724 12.9299L11.2009 13.924L11.2058 13.9268L13.3982 15.1913C13.7331 15.3845 13.848 15.8125 13.6548 16.1474C13.4617 16.4823 13.0336 16.5972 12.6987 16.4041L12.1555 16.0908L12.1506 16.088L8.77777 14.1426C8.58026 14.0287 8.35627 13.9687 8.12826 13.9687H5C4.06111 13.9687 3.3 13.2076 3.3 12.2687V7.68071C3.3 7.29411 3.6134 6.98071 4 6.98071Z" fill="#161823"/>
</svg>
