<svg width="24" height="24" viewBox="0 0 24 24" fill="none" xmlns="http://www.w3.org/2000/svg">
<path d="M4.5689 17.3295L11.9995 13.0394L19.51 17.3755C19.9404 17.624 20.4909 17.4766 20.7394 17.0461C20.9879 16.6156 20.8404 16.0652 20.41 15.8167L12.8998 11.4807V2.9C12.8998 2.40294 12.4969 2 11.9998 2C11.5028 2 11.0998 2.40294 11.0998 2.9V11.4804L3.6689 15.7706C3.23844 16.0191 3.09095 16.5696 3.33948 17C3.58801 17.4305 4.13844 17.578 4.5689 17.3295Z" fill="#161823"/>
<path d="M11.0998 21.1001C11.0998 21.5972 11.5028 22.0001 11.9998 22.0001C12.4969 22.0001 12.8998 21.5972 12.8998 21.1001V17.2001C12.8998 16.703 12.4969 16.3001 11.9998 16.3001C11.5028 16.3001 11.0998 16.703 11.0998 17.2001V21.1001Z" fill="#161823"/>
<path d="M20.66 7.00022C20.9085 7.43069 20.7611 7.98112 20.3306 8.22965L16.9531 10.1796C16.5226 10.4282 15.9722 10.2807 15.7237 9.85022C15.4751 9.41976 15.6226 8.86933 16.0531 8.6208L19.4306 6.6708C19.8611 6.42227 20.4115 6.56976 20.66 7.00022Z" fill="#161823"/>
<path d="M3.66903 8.22965C3.23856 7.98112 3.09107 7.43069 3.3396 7.00022C3.58813 6.56976 4.13856 6.42227 4.56903 6.6708L7.94653 8.6208C8.37699 8.86933 8.52448 9.41976 8.27595 9.85022C8.02742 10.2807 7.47699 10.4282 7.04652 10.1796L3.66903 8.22965Z" fill="#161823"/>
</svg>
