<svg width="16" height="16" viewBox="0 0 16 16" fill="none" xmlns="http://www.w3.org/2000/svg">
<path d="M7.08464 1.56459C7.49124 1.64365 7.75676 2.03735 7.6777 2.44395L7.26171 4.58336H10.0669L10.5386 2.15765C10.6177 1.75105 11.0114 1.48553 11.418 1.56459C11.8246 1.64365 12.0901 2.03735 12.011 2.44395L11.595 4.58336H12.875C13.2892 4.58336 13.625 4.91915 13.625 5.33336C13.625 5.74757 13.2892 6.08336 12.875 6.08336H11.3034L10.558 9.91667H11.875C12.2892 9.91667 12.625 10.2525 12.625 10.6667C12.625 11.0809 12.2892 11.4167 11.875 11.4167H10.2663L9.79467 13.8424C9.71561 14.249 9.3219 14.5145 8.9153 14.4355C8.50871 14.3564 8.24318 13.9627 8.32224 13.5561L8.73824 11.4167H5.93301L5.46134 13.8424C5.38228 14.249 4.98857 14.5145 4.58197 14.4355C4.17538 14.3564 3.90986 13.9627 3.98892 13.5561L4.40491 11.4167H3.125C2.71079 11.4167 2.375 11.0809 2.375 10.6667C2.375 10.2525 2.71079 9.91667 3.125 9.91667H4.69658L5.44195 6.08336H4.12759C3.71337 6.08336 3.37759 5.74757 3.37759 5.33336C3.37759 4.91915 3.71337 4.58336 4.12759 4.58336H5.73361L6.20528 2.15765C6.28434 1.75105 6.67804 1.48553 7.08464 1.56459ZM9.02991 9.91667L9.77528 6.08336H6.97004L6.22467 9.91667H9.02991Z" fill="#161823"/>
</svg>
