<svg width="24" height="24" viewBox="0 0 24 24" fill="none" xmlns="http://www.w3.org/2000/svg">
<path d="M18.5629 20.5334C18.2274 20.8689 18.2274 21.4129 18.5629 21.7484C18.8984 22.0839 19.4423 22.0839 19.7778 21.7484L23.1187 18.4075C23.4542 18.072 23.4542 17.528 23.1187 17.1925L19.7778 13.8516C19.4423 13.5161 18.8984 13.5161 18.5629 13.8516C18.2274 14.1871 18.2274 14.7311 18.5629 15.0666L20.4372 16.9409H14.8749C14.4004 16.9409 14.0158 17.3255 14.0158 17.8C14.0158 18.2745 14.4004 18.6591 14.8749 18.6591H20.4372L18.5629 20.5334Z" fill="#161823"/>
<path d="M15.9998 6.5C15.9998 8.98528 14.2089 11 11.9998 11C9.79067 11 7.9998 8.98528 7.9998 6.5C7.9998 4.01472 9.79067 2 11.9998 2C14.2089 2 15.9998 4.01472 15.9998 6.5ZM14.4998 6.5C14.4998 4.67217 13.2193 3.5 11.9998 3.5C10.7803 3.5 9.4998 4.67217 9.4998 6.5C9.4998 8.32783 10.7803 9.5 11.9998 9.5C13.2193 9.5 14.4998 8.32783 14.4998 6.5Z" fill="#161823"/>
<path d="M12 12.5C9.6563 12.5 7.49136 13.0852 5.86408 14.1182C4.25055 15.1424 3 16.7372 3 18.7273V19.5C3 20.8807 4.11929 22 5.5 22H16.6799C16.8207 22 16.918 21.8578 16.8835 21.7214C16.8038 21.406 16.7901 21.0775 16.8425 20.7576C16.8639 20.6268 16.7681 20.5 16.6356 20.5H5.5C4.94772 20.5 4.5 20.0523 4.5 19.5V18.7273C4.5 16.1165 7.78125 14 12 14C13.6944 14 15.2375 14.3414 16.4776 14.9191C16.6394 14.9945 16.8352 14.8394 16.82 14.6616C16.7922 14.3371 16.8313 14.008 16.9374 13.6966C16.9727 13.593 16.9288 13.476 16.8281 13.4329C15.4212 12.8304 13.761 12.5 12 12.5Z" fill="#161823"/>
</svg>
