<svg width="20" height="20" viewBox="0 0 20 20" fill="none" xmlns="http://www.w3.org/2000/svg">
<path d="M10.9957 17.5502C10.6478 17.7883 10.2444 18 9.9835 18C9.72263 18 9.35217 17.7883 9.00435 17.5502C4.46522 14.5513 1.5 10.9967 1.5 7.41566C1.5 4.18743 3.7087 2 6.38696 2C7.29044 2 8.06405 2.27379 8.69677 2.7417C8.72174 2.76017 8.74648 2.77893 8.77101 2.79799C9.27354 3.18857 9.6837 3.70397 9.99565 4.30209C10.33 3.67624 10.7665 3.14096 11.3016 2.74448C11.351 2.70792 11.4011 2.67253 11.4522 2.63837C12.0565 2.23374 12.7783 2 13.613 2C16.2913 2 18.5 4.18743 18.5 7.41566C18.5 10.9967 15.5348 14.5513 10.9957 17.5502Z" fill="#161823"/>
</svg>
