<svg width="24" height="24" viewBox="0 0 24 24" fill="none" xmlns="http://www.w3.org/2000/svg">
<path d="M9.49968 8.25439C9.49968 4.80261 12.2979 2.00439 15.7497 2.00439C19.2015 2.00439 21.9997 4.80261 21.9997 8.25439C21.9997 11.7062 19.2015 14.5044 15.7497 14.5044C15.0319 14.5044 14.3411 14.3831 13.6976 14.1595L12.4995 15.3181V17.5001C12.4995 17.9143 12.1637 18.2501 11.7495 18.2501H9.99951V20.0001C9.99951 20.4143 9.66373 20.7501 9.24951 20.7501H7.13632L6.07317 21.787C5.9331 21.9236 5.74518 22.0001 5.54952 22.0001L2.75278 22.0001C2.33885 22.0001 2.00318 21.6648 2.00278 21.2508L2 18.4197C1.99981 18.2205 2.07884 18.0294 2.21967 17.8886L9.83365 10.2747C9.61703 9.64027 9.49968 8.96042 9.49968 8.25439ZM16.9995 8.5C17.8279 8.5 18.4995 7.82843 18.4995 7C18.4995 6.17157 17.8279 5.5 16.9995 5.5C16.1711 5.5 15.4995 6.17157 15.4995 7C15.4995 7.82843 16.1711 8.5 16.9995 8.5Z" fill="#161823"/>
</svg>
