<svg width="16" height="16" viewBox="0 0 16 16" fill="none" xmlns="http://www.w3.org/2000/svg">
<path d="M9.64794 4.10304V6.65004H8.61339C7.50201 6.65004 6.70401 6.65041 6.0735 6.69113C5.44924 6.73145 5.04111 6.80909 4.70506 6.94003C3.59662 7.37193 2.70665 8.26139 2.2488 9.3431C2.10851 9.67456 1.89332 10.1017 1.72677 10.9437C1.68038 11.1782 1.64494 11.6771 1.63907 11.8726C2.2488 10.7108 3.98579 9.86774 5.18892 9.68392C5.62124 9.61787 6.07698 9.61791 6.81903 9.61796C6.84083 9.61797 6.86287 9.61797 6.88518 9.61797H9.64794V11.8899L13.986 8.03386C14.0084 8.01397 14.0084 7.97901 13.986 7.95912L9.64794 4.10304ZM8.14794 2.87828C8.14794 2.05857 9.11644 1.62366 9.72909 2.16824L14.9826 6.83801C15.6762 7.45458 15.6762 8.5384 14.9826 9.15498L9.72909 13.8247C9.11643 14.3693 8.14794 13.9344 8.14794 13.1147V11.118H6.88518C6.05646 11.118 5.72124 11.12 5.41547 11.1667C4.4335 11.3167 3.53511 11.806 2.87635 12.5495C2.67122 12.781 2.48765 13.0615 2.03805 13.7577L2.03504 13.7623C2.02346 13.7803 2.00423 13.8101 1.98603 13.8359L1.98541 13.8368C1.97762 13.8483 1.90396 13.9574 1.78053 14.0431C1.35197 14.3407 0.758056 14.1656 0.559497 13.6831C0.501701 13.5427 0.499504 13.4091 0.499312 13.3974C0.498032 13.3659 0.498037 13.3296 0.498049 13.3078L0.498051 13.276C0.498048 12.1842 0.498046 11.3289 0.542228 10.6384C0.58713 9.93677 0.679899 9.35268 0.890391 8.81246C1.47472 7.31281 2.66082 6.12671 4.16047 5.54238C4.70001 5.33216 5.28051 5.23922 5.97682 5.19425C6.56566 5.15622 7.27425 5.1509 8.14794 5.15016V2.87828Z" fill="#161823"/>
</svg>
