<svg width="24" height="24" viewBox="0 0 24 24" fill="none" xmlns="http://www.w3.org/2000/svg">
<path d="M11 2C9.34315 2 8 3.34315 8 5V6H16V5C16 3.34315 14.6569 2 13 2H11Z" fill="#161823"/>
<path d="M15.9978 7.33333L8.00218 7.33333C8.07251 9.74918 9.83548 11.6833 12 11.6833C14.1645 11.6833 15.9275 9.74918 15.9978 7.33333Z" fill="#161823"/>
<path fill-rule="evenodd" clip-rule="evenodd" d="M5.86408 14.1182C7.49136 13.0852 9.6563 12.5 12 12.5C14.3437 12.5 16.5086 13.0852 18.1359 14.1182C19.7494 15.1424 21 16.7372 21 18.7273V19.5C21 20.8807 19.8807 22 18.5 22H5.5C4.11929 22 3 20.8807 3 19.5V18.7273C3 16.7372 4.25055 15.1424 5.86408 14.1182ZM12 14.15C12.4142 14.15 12.75 14.4858 12.75 14.9V18.9833C12.75 19.3975 12.4142 19.7333 12 19.7333C11.5858 19.7333 11.25 19.3975 11.25 18.9833V14.9C11.25 14.4858 11.5858 14.15 12 14.15Z" fill="#161823"/>
</svg>
