<svg width="20" height="20" viewBox="0 0 20 20" fill="none" xmlns="http://www.w3.org/2000/svg">
<path fill-rule="evenodd" clip-rule="evenodd" d="M17.5635 13.0078C18.3702 13.0897 18.9998 13.7713 19 14.5996V17.4004L18.9922 17.5635C18.9158 18.3166 18.3166 18.9158 17.5635 18.9922L17.4004 19H11.5996C10.7713 18.9998 10.0897 18.3702 10.0078 17.5635L10 17.4004V14.5996C10.0002 13.7163 10.7163 13.0002 11.5996 13H17.4004L17.5635 13.0078ZM11.5996 14.5C11.5447 14.5002 11.5002 14.5447 11.5 14.5996V17.4004C11.5002 17.4553 11.5447 17.4998 11.5996 17.5H17.4004C17.4553 17.4998 17.4998 17.4553 17.5 17.4004V14.5996C17.4998 14.5447 17.4553 14.5002 17.4004 14.5H11.5996Z" fill="#161823"/>
<path d="M12.3711 1.4375C14.1324 1.52655 15.533 2.98318 15.5332 4.7666V11.5332C15.5332 11.6068 15.4731 11.667 15.3994 11.667H14.167C14.0934 11.667 14.0332 11.6068 14.0332 11.5332V4.7666C14.033 3.7543 13.2125 2.9337 12.2002 2.93359H5.33301C4.32074 2.93377 3.50018 3.75434 3.5 4.7666V14.667C3.50017 15.6793 4.32074 16.4998 5.33301 16.5H8.5332C8.60675 16.5 8.66684 16.5593 8.66699 16.6328V17C8.66701 17.2847 8.7024 17.5613 8.76953 17.8252C8.79168 17.9124 8.7277 18 8.6377 18H5.33301C3.54995 17.9998 2.09349 16.5997 2.00391 14.8389L2 14.667V4.7666C2.00018 2.92591 3.49232 1.43377 5.33301 1.43359H12.2002L12.3711 1.4375Z" fill="#161823"/>
<path d="M10.5332 7.2168C10.9474 7.2168 11.2832 7.55258 11.2832 7.9668V11.5C11.2832 11.9142 10.9474 12.25 10.5332 12.25H7C6.58579 12.25 6.25 11.9142 6.25 11.5C6.25 11.0858 6.58579 10.75 7 10.75H8.72266L6.46973 8.49707C6.17687 8.20422 6.17695 7.72943 6.46973 7.43652C6.76262 7.14363 7.23738 7.14363 7.53027 7.43652L9.7832 9.68945V7.9668C9.7832 7.55263 10.119 7.21687 10.5332 7.2168Z" fill="#161823"/>
</svg>
