<svg width="24" height="24" viewBox="0 0 24 24" fill="none" xmlns="http://www.w3.org/2000/svg">
<path d="M19.805 12.0591L19.8898 11.27H20.6662C20.8825 11.27 21.0564 11.0918 21.0564 10.8755C21.0564 10.7609 20.997 10.6591 20.9249 10.5912C20.8486 10.5234 20.7468 10.4809 20.6407 10.4809H19.9662L20.0468 9.80219C20.085 9.56887 19.8898 9.39918 19.7032 9.36949C19.4656 9.33131 19.3002 9.53069 19.2662 9.71735L19.1814 10.5064H18.4051C18.1887 10.5064 18.0148 10.6846 18.0148 10.9009C18.0148 11.1173 18.1929 11.2955 18.4051 11.2955H19.105L19.0244 11.9742C18.9905 12.199 19.1729 12.373 19.3808 12.4112C19.5929 12.4112 19.771 12.2754 19.805 12.0633V12.0591Z" fill="#161823"/>
<path d="M23.4536 10.8755C23.5639 9.95067 23.5511 8.91557 23.2712 8.01622C23.2118 7.85077 23.0718 7.73623 22.9021 7.72775C22.866 7.72118 22.8299 7.72983 22.7957 7.73801C22.7857 7.74041 22.7759 7.74276 22.7663 7.74467L22.1979 7.93133C21.99 6.60352 21.4258 5.8739 20.7131 5.46665C20.6367 5.42423 20.5561 5.40302 20.4925 5.40302C20.4161 5.40302 20.3398 5.43267 20.2804 5.47933C20.221 5.52175 20.1659 5.58539 20.1319 5.66175V5.67027L20.1277 5.67876C20.0089 6.11571 19.678 6.7478 18.7277 7.26959C18.1126 7.60897 17.5781 7.93133 17.1454 8.28768L17.3151 6.65023C17.3533 6.30661 17.0987 5.99692 16.7551 5.95874C16.4115 5.92057 16.1018 6.1751 16.0636 6.51872L15.5121 11.7875C15.4358 12.462 14.774 13.0645 14.0231 13.0645C13.2723 13.0645 12.8565 12.5299 12.9244 11.9275L13.4759 6.65023C13.5098 6.30661 13.2595 5.99692 12.9159 5.95874C12.5723 5.92057 12.2626 6.1751 12.2244 6.51872L11.6729 11.7875C11.516 13.2002 12.6232 14.3244 14.0231 14.3244C15.0243 14.3244 15.9491 13.7559 16.4327 12.9245C17.0902 13.8323 18.2229 14.4092 19.5083 14.4092C21.3919 14.4092 23.1906 12.9541 23.4578 10.8839L23.4536 10.8755ZM21.3028 9.2507L22.3336 8.93254C22.393 9.39918 22.4524 10.0355 22.3633 10.727C22.1851 12.2075 20.9295 13.3402 19.4701 13.3402C18.6938 13.3402 17.9769 13.0474 17.5017 12.5553C17.2048 12.2372 16.8187 11.6857 16.8781 10.8755C16.9078 10.2349 17.0945 9.7725 17.4763 9.35252C17.8581 8.93678 18.4308 8.56342 19.2368 8.11375C19.8604 7.79558 20.3652 7.38833 20.6961 6.86654C20.904 7.1847 21.0185 7.55802 21.1076 8.05011L21.2858 9.23798C21.2858 9.24646 21.2943 9.2507 21.3028 9.24646V9.2507Z" fill="#161823"/>
<path d="M1.85689 5.89929C1.53448 5.89929 1.26298 6.14534 1.22905 6.46351H1.23329L0.486658 13.5226C0.465447 13.7007 0.524838 13.8789 0.64362 14.0104C0.762402 14.1419 0.93209 14.2183 1.11026 14.2183H2.20051C3.96103 14.2183 5.5052 12.7971 5.70458 11.0578L5.89972 9.19549C6.08214 7.38407 4.75857 5.89929 2.94714 5.89929H1.85689ZM1.80599 12.9626L2.42111 7.15923H2.94714C3.99921 7.15923 4.75857 7.98646 4.64827 9.06823L4.45313 10.9178C4.32162 12.042 3.29925 12.9626 2.19627 12.9626H1.80599Z" fill="#161823"/>
<path d="M9.17604 5.57684C7.78972 5.57798 6.58609 6.689 6.43769 8.05854L6.0771 11.4778V11.4862C5.94559 12.8989 6.98917 14.091 8.42728 14.091C9.86539 14.091 11.0193 12.9795 11.1678 11.6093L11.5241 8.19005V8.18156C11.6555 6.7696 10.6131 5.57802 9.17604 5.57684ZM7.33279 11.605L7.68914 8.19429C7.76974 7.44766 8.44849 6.83678 9.17816 6.83678C9.85267 6.83678 10.3405 7.36706 10.2769 8.06702L9.92054 11.4778C9.83994 12.2244 9.16119 12.8353 8.43153 12.8353C7.75701 12.8353 7.26916 12.305 7.33279 11.605Z" fill="#161823"/>
<path d="M9.17604 5.57684L9.17391 5.57684H9.17816L9.17604 5.57684Z" fill="#161823"/>
<path d="M6.03467 18.7786L6.00073 19.3046V19.3088H7.09947L7.03159 20.3397H5.71226C5.71651 20.2973 5.72499 20.2336 5.7462 20.1488C5.74821 20.1087 5.75116 20.0734 5.75371 20.0427C5.75657 20.0086 5.75893 19.9803 5.75893 19.9579C5.70802 19.9579 5.63166 19.9664 5.53833 19.9791C4.88079 20.0809 4.38445 20.1488 4.04932 20.1912L4.09598 20.7173C4.48657 20.6434 4.84148 20.5808 5.16071 20.5244C5.28182 20.503 5.3978 20.4826 5.50864 20.4627C5.58924 20.45 5.65287 20.4415 5.69105 20.4415L5.6656 20.7979H8.85999L8.88968 20.3355H7.57035L7.63823 19.3046H8.73696L8.7709 18.7786H6.03467Z" fill="#161823"/>
<path d="M4.15961 19.0925L4.28688 19.5761H4.29961C4.70262 19.504 5.1735 19.4488 5.70802 19.4064C5.71651 19.241 5.74196 19.0925 5.7759 18.9652V18.9228L4.88927 19.0289C5.38137 18.384 5.80559 17.7944 6.16194 17.2598L5.71651 17.0265C5.61045 17.2089 5.49167 17.3998 5.36016 17.595L4.77898 17.6162C5.11411 17.1792 5.44925 16.6871 5.7759 16.1399L5.26683 15.9702C5.02503 16.4199 4.75352 16.8865 4.45657 17.3617C4.38445 17.4762 4.29536 17.5738 4.19779 17.6586L4.30385 18.1422C4.39718 18.1125 4.56687 18.0998 4.80443 18.0998C4.89776 18.0871 4.96988 18.0786 5.02503 18.0786C4.84685 18.3289 4.72383 18.4986 4.65171 18.5834C4.61692 18.6331 4.58795 18.6755 4.56395 18.7107C4.54699 18.7355 4.5325 18.7567 4.5202 18.7743C4.43112 18.9016 4.31233 19.0076 4.15961 19.0925Z" fill="#161823"/>
<path d="M5.79711 18.1253L6.00498 18.6301L6.00073 18.6343C6.58616 18.4222 7.10371 18.1719 7.54914 17.875C7.98609 18.1422 8.36789 18.3968 8.69878 18.6343L9.04664 18.1931C8.94274 18.1277 8.78997 18.0344 8.59149 17.9131L8.52909 17.875C8.46065 17.8348 8.39747 17.798 8.33944 17.7642C8.18885 17.6764 8.07301 17.6089 7.99033 17.5568C8.24487 17.3447 8.48667 17.0944 8.71999 16.7974L8.75393 16.2714H6.28072L6.24678 16.7762H8.08366C7.59156 17.3532 6.82797 17.8029 5.79711 18.1253Z" fill="#161823"/>
<path d="M12.7462 17.0307L12.7632 16.7762H11.6856L11.6687 17.0307H11.1511L11.1681 16.7762H9.83179L9.86148 16.335H11.1978L11.2232 15.9786H11.7408L11.7153 16.335H12.7929L12.8183 15.9786H13.3359L13.3104 16.335H14.6297L14.6 16.7762H13.2807L13.2637 17.0307H12.7462Z" fill="#161823"/>
<path d="M9.85724 18.1465L9.92087 17.2004H14.4516L14.3879 18.1465H13.8704L13.9043 17.5992H10.4299L10.396 18.1465H9.85724Z" fill="#161823"/>
<path d="M10.0057 21.0311H10.5445L10.5614 20.7978H13.3359L13.3189 21.0311H13.8576L13.9595 19.4912H10.1075L10.0057 21.0311ZM10.6208 19.8942H13.3952L13.3613 20.4202H10.5869L10.6208 19.8942Z" fill="#161823"/>
<path d="M10.5105 19.1348L10.5911 17.9343H13.7049L13.6243 19.1348H10.5105ZM11.0832 18.3331L11.0578 18.7318H13.1322L13.1577 18.3331H11.0832Z" fill="#161823"/>
<path d="M15.1512 20.7174C15.2912 20.8319 15.4227 20.938 15.55 21.0355L15.5585 21.0271C15.8427 20.5477 16.0039 19.9156 16.0421 19.1308H16.4833L16.3645 20.9422H16.8227L16.8439 20.6071C16.933 20.7046 17.0348 20.8362 17.1578 21.0058C17.6881 20.3865 17.9723 19.5253 18.0063 18.4138L18.0317 18.0575H18.4093L18.0953 18.2696C18.1759 18.8763 18.3329 19.3938 18.5705 19.8307C18.3117 20.098 17.9766 20.3525 17.5608 20.5901C17.5948 20.6622 17.6499 20.7513 17.722 20.8658C17.7729 20.9507 17.8069 21.0058 17.8323 21.0355C18.2481 20.7386 18.5874 20.4713 18.842 20.2338C19.0626 20.4883 19.3383 20.7386 19.6692 20.9931C19.7052 20.9428 19.7533 20.8863 19.8111 20.8186C19.8215 20.8065 19.8321 20.7939 19.8431 20.781C19.9052 20.6972 19.9582 20.6293 19.9987 20.5773C20.0136 20.5582 20.0269 20.5413 20.0383 20.5265C19.6904 20.3271 19.4062 20.098 19.1856 19.8307C19.5207 19.3556 19.7795 18.749 19.9619 18.0193L19.9959 17.5357H18.0614L18.1038 16.8612C18.8547 16.806 19.5504 16.7339 20.1952 16.6491L20.0892 16.1231C19.351 16.2503 18.5323 16.3352 17.6372 16.3776L17.5142 18.2739C17.4717 19.3132 17.2469 20.0768 16.8439 20.5689L16.9669 18.6726H16.0676L16.11 18.0193H17.3063L17.336 17.5569H17.0348L17.1366 16.0382H16.6572L16.5554 17.5569H16.1354L16.2288 16.1655H15.7706L15.6052 18.6726C15.5543 19.6271 15.4058 20.3101 15.1512 20.7174ZM18.5026 18.066H19.4401C19.3129 18.6005 19.1304 19.0417 18.8929 19.3938C18.702 19.0841 18.5705 18.6429 18.5026 18.066Z" fill="#161823"/>
</svg>
