<svg width="24" height="24" viewBox="0 0 24 24" fill="none" xmlns="http://www.w3.org/2000/svg">
<path d="M12.7755 9.12737C12.5072 8.40984 11.4922 8.40985 11.2239 9.12737L10.427 11.2588L8.1536 11.3581C7.38828 11.3916 7.07465 12.3568 7.67415 12.8337L9.45496 14.2503L8.84692 16.4431C8.64223 17.1813 9.46332 17.7779 10.1021 17.3551L11.9997 16.0992L13.8973 17.3551C14.5361 17.7779 15.3572 17.1813 15.1525 16.4431L14.5445 14.2503L16.3253 12.8337C16.9248 12.3568 16.6111 11.3916 15.8458 11.3581L13.5725 11.2588L12.7755 9.12737ZM11.4216 11.8502L11.9997 10.3042L12.5778 11.8502C12.6942 12.1614 12.9854 12.373 13.3174 12.3875L14.9663 12.4596L13.6746 13.4871C13.4146 13.694 13.3033 14.0363 13.3921 14.3565L13.8332 15.947L12.4568 15.0361C12.1797 14.8527 11.8197 14.8527 11.5426 15.0361L10.1663 15.947L10.6073 14.3565C10.6961 14.0363 10.5848 13.694 10.3248 13.4871L9.03312 12.4596L10.682 12.3875C11.0141 12.373 11.3052 12.1614 11.4216 11.8502Z" fill="#161823"/>
<path d="M2.50977 6.06873C2.50977 4.62741 3.67819 3.45898 5.11952 3.45898H9.49545C10.1876 3.45898 10.8514 3.73394 11.3408 4.22336L12.1846 5.06711C12.674 5.55653 13.3378 5.83148 14.0299 5.83148H18.88C20.3213 5.83148 21.4898 6.99991 21.4898 8.44123V17.9312C21.4898 19.3726 20.3213 20.541 18.88 20.541H5.11952C3.67819 20.541 2.50977 19.3726 2.50977 17.9312V6.06873ZM20.0663 8.44123C20.0663 7.78609 19.5352 7.25498 18.88 7.25498H14.0299C12.9603 7.25498 11.9344 6.83006 11.178 6.07367L10.3343 5.22993C10.1118 5.00746 9.81006 4.88248 9.49545 4.88248H5.11952C4.46437 4.88248 3.93327 5.41359 3.93327 6.06873V17.9312C3.93327 18.5864 4.46437 19.1175 5.11952 19.1175H18.88C19.5352 19.1175 20.0663 18.5864 20.0663 17.9312V8.44123Z" fill="#161823"/>
</svg>
