<svg width="20" height="20" viewBox="0 0 20 20" fill="none" xmlns="http://www.w3.org/2000/svg">
<path d="M10.9497 1.86394C10.9497 1.55116 10.5807 1.38463 10.3461 1.59158L8.2707 3.42283C8.25921 3.43237 8.24802 3.44225 8.23713 3.45245L8.02814 3.63685C7.80963 3.82965 7.80963 4.17036 8.02814 4.36316L8.23884 4.54908C8.24862 4.55818 8.25864 4.56702 8.26889 4.57559L10.3461 6.40844C10.5807 6.61538 10.9497 6.44886 10.9497 6.13607V4.82672C11.9098 4.98291 12.8219 5.37439 13.6014 5.97253C14.6347 6.76536 15.3775 7.87698 15.7147 9.13499C16.0518 10.393 15.9645 11.7271 15.4662 12.9304C14.9678 14.1337 14.0864 15.139 12.9586 15.7903C11.8307 16.4416 10.5195 16.7026 9.22818 16.5328C7.93689 16.363 6.73771 15.7718 5.81663 14.851C4.89554 13.9302 4.30401 12.7312 4.13378 11.44C3.96354 10.1488 4.22411 8.83743 4.87508 7.70937C5.08211 7.35061 4.95911 6.89194 4.60035 6.68491C4.24159 6.47788 3.78292 6.60088 3.57589 6.95964C2.75989 8.37368 2.43325 10.0175 2.64665 11.6361C2.86004 13.2546 3.60153 14.7576 4.75613 15.9118C5.91074 17.0661 7.41392 17.8071 9.03258 18.02C10.6512 18.2329 12.2949 17.9057 13.7087 17.0893C15.1225 16.2728 16.2274 15.0127 16.852 13.5043C17.4767 11.996 17.5862 10.3236 17.1635 8.74668C16.7409 7.16974 15.8098 5.7763 14.5145 4.78247C13.4724 3.98285 12.2414 3.47786 10.9497 3.31105V1.86394Z" fill="#161823"/>
<path d="M7.59277 12.9588C7.59277 13.3291 7.79215 13.5488 8.13395 13.5488C8.47982 13.5488 8.6792 13.3332 8.6792 12.9588V8.59276C8.6792 8.18179 8.41471 7.90916 8.02002 7.90916C7.79215 7.90916 7.56022 7.99054 7.26725 8.18993L6.5389 8.69855C6.33138 8.8369 6.22559 8.98745 6.22559 9.15835C6.22559 9.38215 6.39242 9.54898 6.61621 9.54898C6.73421 9.54898 6.83594 9.51235 7.0109 9.39842L7.56836 9.00373H7.59277V12.9588Z" fill="#161823"/>
<path d="M9.60514 12.3729C9.60514 12.9954 10.3864 13.618 11.4891 13.618C12.7505 13.618 13.6009 12.8245 13.6009 11.6404C13.6009 10.5662 12.8726 9.83381 11.8146 9.83381C11.3385 9.83381 10.8869 10.0128 10.6956 10.2733H10.6387L10.7526 8.8369H12.8563C13.1859 8.8369 13.373 8.67821 13.373 8.39338C13.373 8.10855 13.1818 7.94172 12.8563 7.94172H10.5532C10.1056 7.94172 9.8737 8.12889 9.84521 8.51545L9.69466 10.6069C9.67025 10.9813 9.89811 11.2213 10.2318 11.2213C10.3823 11.2213 10.5003 11.1725 10.7404 10.9691C10.9805 10.7819 11.2572 10.6802 11.5298 10.6802C12.1157 10.6802 12.5348 11.0871 12.5348 11.6811C12.5348 12.2956 12.0994 12.7228 11.485 12.7228C11.07 12.7228 10.7445 12.5316 10.4881 12.1491C10.3538 11.9578 10.2236 11.8846 10.0527 11.8846C9.78011 11.8846 9.60514 12.1002 9.60514 12.3729Z" fill="#161823"/>
</svg>
