<svg width="24" height="24" viewBox="0 0 24 24" fill="none" xmlns="http://www.w3.org/2000/svg">
<path d="M17.25 3.50098C17.6642 3.50098 18 3.16519 18 2.75098C18 2.33676 17.6642 2.00098 17.25 2.00098H6.75C6.33579 2.00098 6 2.33676 6 2.75098C6 3.16519 6.33579 3.50098 6.75 3.50098H17.25Z" fill="#161823"/>
<path d="M17.25 22.0002C17.6642 22.0002 18 21.6645 18 21.2502C18 20.836 17.6642 20.5002 17.25 20.5002H6.75C6.33579 20.5002 6 20.836 6 21.2502C6 21.6645 6.33579 22.0002 6.75 22.0002H17.25Z" fill="#161823"/>
<path d="M4 8.75024C4 6.67918 5.67893 5.00024 7.75 5.00024H16.25C18.3211 5.00024 20 6.67918 20 8.75024V15.2502C20 17.3213 18.3211 19.0002 16.25 19.0002H7.75C5.67893 19.0002 4 17.3213 4 15.2502V8.75024Z" fill="#161823"/>
</svg>
