<svg width="24" height="24" viewBox="0 0 24 24" fill="none" xmlns="http://www.w3.org/2000/svg">
<path fill-rule="evenodd" clip-rule="evenodd" d="M12 1.5C12.9854 1.5 13.8377 2.07014 14.2449 2.89855C16.7284 3.81274 18.5 6.19815 18.5 9V10.9941C18.5 12.0238 18.7894 13.0328 19.3351 13.906L20.5329 15.8225C21.2614 16.9881 20.4234 18.5 19.0489 18.5H15.75C15.75 20.5711 14.071 22.25 12 22.25C9.92891 22.25 8.24998 20.5711 8.24998 18.5H4.95104C3.57654 18.5 2.73855 16.9881 3.46704 15.8225L4.66486 13.906C5.21061 13.0328 5.49998 12.0238 5.49998 10.9941V9C5.49998 6.19815 7.27155 3.81274 9.75507 2.89855C10.1623 2.07014 11.0146 1.5 12 1.5ZM6.99998 10.9941C6.99998 12.3049 6.6316 13.5894 5.93686 14.701L4.73904 16.6175C4.63497 16.784 4.75468 17 4.95104 17H19.0489C19.2453 17 19.365 16.784 19.2609 16.6175L18.0631 14.701C17.3684 13.5894 17 12.3049 17 10.9941V9C17 6.58104 15.2822 4.56329 13 4.10002V4C13 3.44772 12.5523 3 12 3C11.4477 3 11 3.44772 11 4V4.10002C8.71774 4.56329 6.99998 6.58104 6.99998 9V10.9941ZM9.74998 18.5C9.74998 19.7426 10.7573 20.75 12 20.75C13.2426 20.75 14.25 19.7426 14.25 18.5H9.74998Z" fill="#161823"/>
</svg>
