<svg width="24" height="24" viewBox="0 0 24 24" fill="none" xmlns="http://www.w3.org/2000/svg">
<path d="M17.8072 2.5H6.19281C5.24937 2.5 4.35382 2.98467 3.85382 3.81916C3.50157 4.40707 2.9464 5.35873 2.47499 6.28174C2.24023 6.74141 2.01345 7.21874 1.84175 7.65417C1.69481 8.02681 1.5 8.57779 1.5 9.1C1.5 11.0008 3.08437 12.7 5.1 12.7C5.9748 12.7 6.77639 12.3882 7.4 11.8696C8.02361 12.3882 8.82521 12.7 9.70001 12.7C10.5748 12.7 11.3764 12.3882 12 11.8696C12.6236 12.3882 13.4252 12.7 14.3 12.7C15.1748 12.7 15.9764 12.3882 16.6 11.8696C17.2236 12.3882 18.0252 12.7 18.9 12.7C20.9156 12.7 22.5 11.0008 22.5 9.1C22.5 8.57779 22.3052 8.02681 22.1583 7.65417C21.9866 7.21874 21.7598 6.74141 21.525 6.28174C21.0536 5.35873 20.4984 4.40707 20.1462 3.81916C19.6462 2.98467 18.7506 2.5 17.8072 2.5ZM5.1 11.2C3.9402 11.2 3 10.2 3 9.1C3 8.26262 4.44876 5.74468 5.14054 4.59011C5.36205 4.2204 5.76182 4 6.19281 4H17.8072C18.2382 4 18.6379 4.2204 18.8595 4.59011C19.5512 5.74468 21 8.26262 21 9.1C21 10.2 20.0598 11.2 18.9 11.2C18.3764 11.2 17.8975 11.0084 17.5297 10.6914C17.4339 10.6088 17.3457 10.5177 17.2661 10.4193C16.911 9.98006 16.289 9.98006 15.9339 10.4193C15.8543 10.5177 15.7661 10.6088 15.6703 10.6914C15.3025 11.0084 14.8236 11.2 14.3 11.2C13.7764 11.2 13.2975 11.0084 12.9297 10.6914C12.8339 10.6088 12.7457 10.5177 12.6661 10.4193C12.311 9.98006 11.689 9.98006 11.3339 10.4193C11.2543 10.5177 11.1661 10.6088 11.0703 10.6914C10.7025 11.0084 10.2236 11.2 9.70001 11.2C9.17639 11.2 8.69753 11.0084 8.32975 10.6914C8.23393 10.6088 8.14566 10.5177 8.06609 10.4193C7.7095 9.97825 7.09051 9.97825 6.73392 10.4193C6.65435 10.5177 6.56607 10.6088 6.47026 10.6914C6.10247 11.0084 5.62362 11.2 5.1 11.2Z" fill="#161823"/>
<path d="M3.75 19.25V14.0168C4.17819 14.1359 4.6305 14.2 5.1 14.2C5.15017 14.2 5.20018 14.1993 5.25 14.1979V19.25C5.25 19.9404 5.80964 20.5 6.5 20.5H17.5C18.1904 20.5 18.75 19.9404 18.75 19.25V14.1979C18.7998 14.1993 18.8498 14.2 18.9 14.2C19.3695 14.2 19.8218 14.1359 20.25 14.0168V19.25C20.25 20.7688 19.0188 22 17.5 22H6.5C4.98122 22 3.75 20.7688 3.75 19.25Z" fill="#161823"/>
</svg>
