<svg width="20" height="20" viewBox="0 0 20 20" fill="none" xmlns="http://www.w3.org/2000/svg">
<path d="M0.708008 5.95825C0.708008 4.43947 1.93923 3.20825 3.45801 3.20825H16.5413C18.0601 3.20825 19.2913 4.43947 19.2913 5.95825V14.0416C19.2913 15.5604 18.0601 16.7916 16.5413 16.7916H14.7748C14.6746 16.5628 14.5264 16.3448 14.3251 16.1496L11.6242 13.53C10.7191 12.6521 9.28029 12.6521 8.37517 13.53L5.67426 16.1496C5.47301 16.3448 5.32473 16.5628 5.22462 16.7916H3.45801C1.93923 16.7916 0.708008 15.5604 0.708008 14.0416V5.95825ZM13.2984 11.2585H13.2264L11.9732 7.12931C11.8148 6.60116 11.5507 6.34668 11.1426 6.34668C10.6865 6.34668 10.36 6.63957 10.36 7.06209C10.36 7.21574 10.4032 7.4366 10.4848 7.67668L11.9012 11.8875C12.1509 12.6702 12.5494 13.0063 13.2456 13.0063C13.9322 13.0063 14.3163 12.675 14.5708 11.8875L15.9872 7.67668C16.0593 7.45101 16.1121 7.20614 16.1121 7.04769C16.1121 6.62996 15.7904 6.34668 15.3342 6.34668C14.9117 6.34668 14.6764 6.57235 14.5228 7.12931L13.2984 11.2585ZM6.95113 13.0063C7.44568 13.0063 7.74817 12.6894 7.74817 12.1708V7.70548H9.00134C9.36625 7.70548 9.63513 7.427 9.63513 7.05729C9.63513 6.68278 9.36625 6.4043 9.00134 6.4043H4.91532C4.55042 6.4043 4.27673 6.68278 4.27673 7.05729C4.27673 7.427 4.55042 7.70548 4.91532 7.70548H6.15889V12.1708C6.15889 12.6894 6.45658 13.0063 6.95113 13.0063Z" fill="#161823"/>
<path d="M9.84348 14.3863C9.97571 14.3612 10.1128 14.3683 10.2423 14.4076C10.3653 14.4449 10.4814 14.5113 10.5799 14.6068L13.2808 17.2264C13.6032 17.5391 13.3818 18.0853 12.9327 18.0853H7.06668C6.61753 18.0853 6.39616 17.5391 6.71857 17.2264L9.41948 14.6068C9.54071 14.4892 9.68874 14.4157 9.84348 14.3863Z" fill="#161823"/>
</svg>
