<svg width="24" height="24" viewBox="0 0 24 24" fill="none" xmlns="http://www.w3.org/2000/svg">
<path d="M15.6406 1.5C18.3467 1.50015 20.54 3.69429 20.54 6.40039V6.67773L20.7178 6.5L20.7861 6.43848C21.1396 6.1505 21.6608 6.17177 21.9902 6.50098C22.3194 6.83045 22.3399 7.35168 22.0518 7.70508L21.9902 7.77344L20.293 9.4707C19.9416 9.82183 19.3719 9.82181 19.0205 9.4707L17.3232 7.77344C16.9719 7.42195 16.9718 6.85143 17.3232 6.5C17.6747 6.1488 18.2453 6.14874 18.5967 6.5L18.7402 6.64355V6.40039C18.7402 4.6884 17.3526 3.30093 15.6406 3.30078H8.36035C6.64827 3.30078 5.26074 4.68831 5.26074 6.40039V17.6006C5.26105 19.3124 6.64846 20.7002 8.36035 20.7002H15.6406C17.3524 20.7 18.7399 19.3123 18.7402 17.6006V13.9404C18.7402 13.4434 19.1436 13.04 19.6406 13.04C20.1376 13.0402 20.54 13.4435 20.54 13.9404V17.6006C20.5397 20.3064 18.3465 22.4999 15.6406 22.5H8.36035C5.65434 22.5 3.46026 20.3065 3.45996 17.6006V6.40039C3.45996 3.69419 5.65416 1.5 8.36035 1.5H15.6406Z" fill="#161823"/>
<path fill-rule="evenodd" clip-rule="evenodd" d="M9.13965 9.69824C9.13986 8.20261 10.8233 7.43846 11.9893 8.20508L15.4883 10.5068C16.5701 11.2184 16.57 12.7806 15.4883 13.4922L11.9893 15.7939C10.8233 16.5609 9.13986 15.7975 9.13965 14.3018V9.69824ZM10.9443 9.70703L10.9404 9.70898V14.2891L10.9443 14.292C10.9552 14.2975 10.9664 14.3001 10.9746 14.2998C10.9782 14.2997 10.9814 14.2988 10.9844 14.2979C10.9872 14.2969 10.9925 14.2949 11 14.29L14.4814 11.999L11 9.70898C10.9927 9.70419 10.9872 9.70205 10.9844 9.70117C10.9815 9.7003 10.9781 9.70032 10.9746 9.7002C10.9664 9.69994 10.9552 9.70159 10.9443 9.70703Z" fill="#161823"/>
</svg>
