<svg width="16" height="16" viewBox="0 0 16 16" fill="none" xmlns="http://www.w3.org/2000/svg">
<path d="M1.0004 4C1.0004 2.89543 1.89583 2 3.0004 2H13.0004C14.105 2 15.0004 2.89543 15.0004 4C15.0004 4.33137 14.7318 4.6 14.4004 4.6C14.069 4.6 13.8004 4.33137 13.8004 4C13.8004 3.55817 13.4422 3.2 13.0004 3.2H3.0004C2.55857 3.2 2.2004 3.55817 2.2004 4C2.2004 4.33137 1.93177 4.6 1.6004 4.6C1.26903 4.6 1.0004 4.33137 1.0004 4Z" fill="#161823"/>
<path d="M8.61635 10.7074C7.18764 10.7074 6.40704 9.84805 6.40704 8.34057V7.91088C6.40704 6.48933 7.21629 5.62637 8.61635 5.62637C9.27521 5.62637 9.88035 5.82331 10.2348 6.1599C10.4676 6.38191 10.6108 6.63972 10.6108 6.87605C10.6108 7.20547 10.3745 7.43106 10.0379 7.43106C9.82664 7.43106 9.66551 7.35228 9.4435 7.16251C9.18569 6.91544 8.98159 6.80801 8.71303 6.80801C8.1437 6.80801 7.82143 7.24128 7.82143 7.98965V8.26895C7.82143 9.08536 8.13296 9.52221 8.71303 9.52221C8.98159 9.52221 9.21792 9.4112 9.46499 9.1713C9.69057 8.97077 9.84096 8.89916 10.0451 8.89916C10.3817 8.89916 10.618 9.12833 10.618 9.45417C10.618 9.76928 10.4103 10.0808 10.0737 10.3064C9.71564 10.557 9.21076 10.7074 8.61635 10.7074Z" fill="#161823"/>
<path d="M1.93815 9.90534C1.93815 10.3673 1.70182 10.6358 1.29362 10.6358C0.892578 10.6358 0.677734 10.378 0.677734 9.90534V6.58959C0.677734 6.02383 1.00716 5.6765 1.53711 5.6765C1.99544 5.6765 2.30339 5.90925 2.51823 6.50365L3.25586 8.51244H3.30241L4.03288 6.49649C4.24772 5.89493 4.54134 5.6765 5.02116 5.6765C5.56185 5.6765 5.86979 6.00951 5.86979 6.58959V9.90534C5.86979 10.3673 5.63346 10.6358 5.22526 10.6358C4.82422 10.6358 4.60938 10.378 4.60938 9.90534V7.78913H4.58789L3.87533 9.6905C3.72852 10.0915 3.53874 10.2133 3.28092 10.2133C3.01595 10.2133 2.81901 10.0772 2.67578 9.6905L1.96322 7.78913H1.93815V9.90534Z" fill="#161823"/>
<path d="M12.455 9.90534V8.05053H12.5123L13.9231 10.1094C14.2024 10.5105 14.3886 10.6358 14.6894 10.6358C15.1084 10.6358 15.3304 10.3708 15.3304 9.87312V6.40697C15.3304 5.94864 15.0833 5.6765 14.6715 5.6765C14.2669 5.6765 14.027 5.94506 14.027 6.40697V8.2224H13.9733L12.5732 6.19213C12.2975 5.79825 12.1292 5.6765 11.8356 5.6765C11.388 5.6765 11.1552 5.95222 11.1552 6.48575V9.90534C11.1552 10.3601 11.3987 10.6358 11.8105 10.6358C12.2187 10.6358 12.455 10.3673 12.455 9.90534Z" fill="#161823"/>
<path d="M3.0004 14C1.89583 14 1.0004 13.1046 1.0004 12C1.0004 11.6686 1.26903 11.4 1.6004 11.4C1.93177 11.4 2.2004 11.6686 2.2004 12C2.2004 12.4418 2.55857 12.8 3.0004 12.8H13.0004C13.4422 12.8 13.8004 12.4418 13.8004 12C13.8004 11.6686 14.069 11.4 14.4004 11.4C14.7318 11.4 15.0004 11.6686 15.0004 12C15.0004 13.1046 14.105 14 13.0004 14H3.0004Z" fill="#161823"/>
</svg>
