<svg width="20" height="20" viewBox="0 0 20 20" fill="none" xmlns="http://www.w3.org/2000/svg">
<path d="M13.3333 5.41667C13.3333 7.48774 11.8409 9.16667 9.99996 9.16667C8.15901 9.16667 6.66663 7.48774 6.66663 5.41667C6.66663 3.3456 8.15901 1.66667 9.99996 1.66667C11.8409 1.66667 13.3333 3.3456 13.3333 5.41667Z" fill="#161823"/>
<path d="M4.75275 11.5541C6.15542 10.6637 8.00786 10.1667 10 10.1667C11.2689 10.1667 12.4811 10.3683 13.5565 10.7448C13.663 10.7821 13.7139 10.9011 13.681 11.0089C13.6175 11.217 13.5833 11.4378 13.5833 11.6667V12.75H12.5C11.2574 12.75 10.25 13.7574 10.25 15C10.25 16.2426 11.2574 17.25 12.5 17.25H13.5833V18.3333C13.5833 18.3424 13.5834 18.3515 13.5835 18.3605C13.5849 18.4797 13.4929 18.5833 13.3737 18.5833H4.58333C3.29467 18.5833 2.25 17.5387 2.25 16.25V15.6061C2.25 13.8335 3.36383 12.4358 4.75275 11.5541Z" fill="#161823"/>
<path d="M15.8333 10.9167C16.2475 10.9167 16.5833 11.2525 16.5833 11.6667V14.25H19.1667C19.5809 14.25 19.9167 14.5858 19.9167 15C19.9167 15.4142 19.5809 15.75 19.1667 15.75H16.5833V18.3333C16.5833 18.7475 16.2475 19.0833 15.8333 19.0833C15.4191 19.0833 15.0833 18.7475 15.0833 18.3333V15.75H12.5C12.0858 15.75 11.75 15.4142 11.75 15C11.75 14.5858 12.0858 14.25 12.5 14.25H15.0833V11.6667C15.0833 11.2525 15.4191 10.9167 15.8333 10.9167Z" fill="#161823"/>
</svg>
