<svg width="20" height="20" viewBox="0 0 20 20" fill="none" xmlns="http://www.w3.org/2000/svg">
<path d="M1.54199 8.75002C1.54199 4.76897 4.76927 1.54169 8.75033 1.54169C12.7314 1.54169 15.9587 4.76897 15.9587 8.75002C15.9587 10.1979 15.5318 11.5461 14.797 12.6756C14.8017 12.6801 14.8064 12.6847 14.811 12.6894L18.1443 16.0227C18.7301 16.6085 18.7301 17.5582 18.1443 18.144C17.5585 18.7298 16.6088 18.7298 16.023 18.144L12.6897 14.8107C12.685 14.806 12.6804 14.8014 12.6759 14.7967C11.5464 15.5315 10.1982 15.9584 8.75033 15.9584C4.76927 15.9584 1.54199 12.7311 1.54199 8.75002ZM8.75033 13.9584C11.6268 13.9584 13.9587 11.6265 13.9587 8.75002C13.9587 5.87354 11.6268 3.54169 8.75033 3.54169C5.87384 3.54169 3.54199 5.87354 3.54199 8.75002C3.54199 11.6265 5.87384 13.9584 8.75033 13.9584Z" fill="#161823"/>
</svg>
