<svg width="24" height="24" viewBox="0 0 24 24" fill="none" xmlns="http://www.w3.org/2000/svg">
<path d="M10.8349 13.6936C10.9674 13.7753 11.1439 13.8164 11.3644 13.8164C11.662 13.8164 11.9158 13.7423 12.1253 13.5955C12.3341 13.449 12.509 13.2592 12.638 13.0391C12.7714 12.8127 12.869 12.567 12.9274 12.3108C12.9882 12.0494 13.0183 11.8092 13.0183 11.5911C13.0183 11.4164 13.0018 11.2445 12.9689 11.0755C12.9356 10.9065 12.8776 10.7536 12.7952 10.6172C12.7125 10.4811 12.5994 10.3691 12.4561 10.2821C12.3126 10.1947 12.136 10.151 11.9269 10.151C11.662 10.151 11.4303 10.2273 11.2323 10.3802C11.028 10.5394 10.8566 10.7367 10.7275 10.9613C10.5896 11.1955 10.4847 11.4547 10.4131 11.7383C10.3415 12.0219 10.3057 12.2947 10.3057 12.5564C10.3066 12.6965 10.3205 12.8361 10.3472 12.9736C10.3743 13.1197 10.4305 13.2589 10.5126 13.3828C10.5959 13.5088 10.7059 13.6149 10.8349 13.6936Z" fill="#161823"/>
<path d="M12 22C17.5228 22 22 17.5228 22 12C22 6.47715 17.5228 2 12 2C6.47715 2 2 6.47715 2 12C2 17.5228 6.47715 22 12 22ZM13.2718 17.9903C13.2718 17.9903 12.4075 18.087 11.9599 18.087C11.0114 18.087 10.1485 17.9369 9.37114 17.6369C8.5938 17.3368 7.92924 16.9197 7.37784 16.3855C6.82643 15.8505 6.39927 15.21 6.096 14.4627C5.79272 13.7155 5.64126 12.8998 5.64126 12.0165C5.64126 11.1435 5.80669 10.3365 6.13753 9.59459C6.45782 8.86786 6.91878 8.2117 7.49385 7.66395C8.0671 7.11828 8.73738 6.6904 9.50362 6.37925C10.2699 6.06846 11.0887 5.91306 11.9599 5.91306C12.7 5.91159 13.4361 6.02193 14.1433 6.24032C14.849 6.45838 15.4746 6.78564 16.0202 7.22211C16.5663 7.65858 17.002 8.2039 17.3271 8.85843C17.6526 9.51295 17.8152 10.2821 17.8152 11.1654C17.8152 11.8199 17.7242 12.3982 17.5423 12.8998C17.3604 13.4018 17.1177 13.8218 16.8144 14.1598C16.5111 14.4982 16.1638 14.7517 15.7725 14.9207C15.3835 15.0893 14.964 15.1757 14.54 15.1745C14.0989 15.1745 13.7462 15.0711 13.4816 14.8634C13.217 14.6561 13.0845 14.3943 13.0845 14.0778H13.0018C12.8364 14.3399 12.5829 14.588 12.241 14.8226C11.899 15.0571 11.4801 15.1745 10.9838 15.1745C10.2341 15.1745 9.65543 14.9289 9.24725 14.438C8.83907 13.9471 8.63497 13.3091 8.63497 12.5235C8.63573 12.061 8.71404 11.602 8.86663 11.1654C9.02096 10.7182 9.24188 10.32 9.52832 9.97091C9.81111 9.62497 10.1596 9.3385 10.5538 9.12804C10.9509 8.91572 11.392 8.80937 11.8772 8.80937C12.2961 8.80937 12.6491 8.89638 12.9359 9.07111C13.2224 9.24549 13.41 9.45853 13.4981 9.70917H13.5146L13.618 9.19822C13.6626 8.9778 13.9639 8.68414 14.4773 8.75182C14.9908 8.81949 15.1265 9.12806 15.0649 9.42336L14.4738 12.1472C14.452 12.3001 14.4215 12.4691 14.3828 12.6545C14.3445 12.84 14.3252 13.0144 14.3252 13.178C14.3252 13.3635 14.361 13.5192 14.4326 13.6446C14.5042 13.7699 14.6449 13.8329 14.8544 13.8329C15.2844 13.8329 15.64 13.6037 15.9214 13.1454C16.2025 12.6871 16.3432 12.0709 16.3432 11.2964C16.3432 10.6419 16.2329 10.0611 16.0124 9.55377C15.7918 9.04641 15.4857 8.62104 15.0943 8.2773C14.7026 7.93393 14.2371 7.6747 13.6965 7.49996C13.1561 7.32559 12.5664 7.23858 11.9266 7.23858C11.232 7.23858 10.5953 7.36104 10.0164 7.60666C9.43738 7.85193 8.94398 8.1903 8.53579 8.62104C8.12796 9.05214 7.81073 9.55914 7.58479 10.1428C7.35886 10.7264 7.24571 11.3566 7.24571 12.0326C7.24571 12.7526 7.36423 13.4018 7.60126 13.9801C7.8383 14.5583 8.17201 15.0517 8.60203 15.4606C9.03206 15.8699 9.54479 16.1832 10.1402 16.4016C10.7357 16.6196 11.392 16.7289 12.1085 16.7289C12.2334 16.7289 12.3802 16.7228 12.5496 16.7102L12.7637 16.6923L12.999 16.6687L13.125 16.6544C13.125 16.6544 13.8422 16.5082 13.9148 17.209C13.9874 17.9098 13.2718 17.9903 13.2718 17.9903Z" fill="#161823"/>
</svg>
