<svg width="20" height="20" viewBox="0 0 20 20" fill="none" xmlns="http://www.w3.org/2000/svg">
<path d="M9.98688 3.80001L10 3.8L10.0131 3.80001C10.5102 3.80104 10.914 3.39893 10.915 2.90187C10.916 2.40482 10.5139 2.00104 10.0168 2.00002L10 2L9.98316 2.00002C9.48611 2.00104 9.084 2.40482 9.08502 2.90187C9.08605 3.39893 9.48982 3.80104 9.98688 3.80001Z" fill="#161823"/>
<path d="M6.91143 4.62268C7.34218 4.37466 7.49031 3.8244 7.24229 3.39365C6.99427 2.96289 6.44401 2.81476 6.01325 3.06278L5.98419 3.0796C5.55448 3.32943 5.40866 3.88031 5.65849 4.31002C5.90832 4.73973 6.4592 4.88554 6.88891 4.63571L6.91143 4.62268Z" fill="#161823"/>
<path d="M13.9868 3.06278C13.556 2.81476 13.0057 2.96289 12.7577 3.39365C12.5097 3.8244 12.6578 4.37466 13.0886 4.62268L13.1111 4.63571C13.5408 4.88554 14.0917 4.73973 14.3415 4.31002C14.5913 3.88031 14.4455 3.32943 14.0158 3.0796L13.9868 3.06278Z" fill="#161823"/>
<path d="M4.63571 6.88891C4.88554 6.4592 4.73973 5.90832 4.31002 5.65849C3.88031 5.40866 3.32943 5.55448 3.0796 5.98419L3.06278 6.01325C2.81476 6.44401 2.96289 6.99426 3.39365 7.24229C3.8244 7.49031 4.37466 7.34218 4.62268 6.91143L4.63571 6.88891Z" fill="#161823"/>
<path d="M16.9204 5.98419C16.6706 5.55448 16.1197 5.40866 15.69 5.65849C15.2603 5.90832 15.1145 6.4592 15.3643 6.88891L15.3773 6.91143C15.6253 7.34218 16.1756 7.49031 16.6064 7.24229C17.0371 6.99427 17.1852 6.44401 16.9372 6.01325L16.9204 5.98419Z" fill="#161823"/>
<path d="M3.80001 9.98688C3.80104 9.48982 3.39893 9.08605 2.90187 9.08502C2.40482 9.08399 2.00104 9.4861 2.00002 9.98316L2 10L2.00002 10.0168C2.00104 10.5139 2.40482 10.916 2.90187 10.915C3.39893 10.914 3.80104 10.5102 3.80001 10.0131L3.8 10L3.80001 9.98688Z" fill="#161823"/>
<path d="M18 9.98316C17.999 9.48611 17.5952 9.084 17.0981 9.08502C16.6011 9.08605 16.199 9.48982 16.2 9.98688L16.2 10L16.2 10.0131C16.199 10.5102 16.6011 10.914 17.0981 10.915C17.5952 10.916 17.999 10.5139 18 10.0168L18 10L18 9.98316Z" fill="#161823"/>
<path d="M4.62268 13.0886C4.37466 12.6578 3.8244 12.5097 3.39365 12.7577C2.96289 13.0057 2.81476 13.556 3.06278 13.9868L3.0796 14.0158C3.32943 14.4455 3.88031 14.5913 4.31002 14.3415C4.73973 14.0917 4.88554 13.5408 4.63571 13.1111L4.62268 13.0886Z" fill="#161823"/>
<path d="M16.9372 13.9868C17.1852 13.556 17.0371 13.0057 16.6064 12.7577C16.1756 12.5097 15.6253 12.6578 15.3773 13.0886L15.3643 13.1111C15.1145 13.5408 15.2603 14.0917 15.69 14.3415C16.1197 14.5913 16.6706 14.4455 16.9204 14.0158L16.9372 13.9868Z" fill="#161823"/>
<path d="M6.88891 15.3643C6.4592 15.1145 5.90832 15.2603 5.65849 15.69C5.40866 16.1197 5.55448 16.6706 5.98419 16.9204L6.01325 16.9372C6.44401 17.1852 6.99426 17.0371 7.24229 16.6064C7.49031 16.1756 7.34218 15.6253 6.91143 15.3773L6.88891 15.3643Z" fill="#161823"/>
<path d="M14.0158 16.9204C14.4455 16.6706 14.5913 16.1197 14.3415 15.69C14.0917 15.2603 13.5408 15.1145 13.1111 15.3643L13.0886 15.3773C12.6578 15.6253 12.5097 16.1756 12.7577 16.6064C13.0057 17.0371 13.556 17.1852 13.9868 16.9372L14.0158 16.9204Z" fill="#161823"/>
<path d="M9.98688 16.2C9.48982 16.199 9.08605 16.6011 9.08502 17.0981C9.08399 17.5952 9.4861 17.999 9.98316 18L10 18L10.0168 18C10.5139 17.999 10.916 17.5952 10.915 17.0981C10.914 16.6011 10.5102 16.199 10.0131 16.2L10 16.2L9.98688 16.2Z" fill="#161823"/>
<path d="M10.0001 14C12.2092 14 14.0001 12.2091 14.0001 9.99998C14.0001 7.79084 12.2092 5.99998 10.0001 5.99998C7.79095 5.99998 6.00009 7.79084 6.00009 9.99998C6.00009 12.2091 7.79095 14 10.0001 14ZM12.5001 9.99998C12.5001 11.3807 11.3808 12.5 10.0001 12.5C8.61938 12.5 7.50009 11.3807 7.50009 9.99998C7.50009 8.61927 8.61938 7.49998 10.0001 7.49998C11.3808 7.49998 12.5001 8.61927 12.5001 9.99998Z" fill="#161823"/>
</svg>
