<svg width="24" height="24" viewBox="0 0 24 24" fill="none" xmlns="http://www.w3.org/2000/svg">
<path d="M10.2701 12.5782C10.6774 12.3003 10.6774 11.6997 10.2701 11.4218L7.76975 9.71575C7.3051 9.39871 6.67522 9.73147 6.67522 10.294V13.706C6.67522 14.2686 7.3051 14.6013 7.76975 14.2843L10.2701 12.5782Z" fill="#161823"/>
<path d="M4.75 2C3.23122 2 2 3.23122 2 4.75V19.25C2 20.7688 3.23122 22 4.75 22H11.75C13.2688 22 14.5 20.7688 14.5 19.25V4.75C14.5 3.23122 13.2688 2 11.75 2H4.75ZM11.75 3.5C12.4404 3.5 13 4.05964 13 4.75V19.25C13 19.9404 12.4404 20.5 11.75 20.5H4.75C4.05964 20.5 3.5 19.9404 3.5 19.25V4.75C3.5 4.05964 4.05964 3.5 4.75 3.5H11.75Z" fill="#161823"/>
<path d="M15.3521 21.5066C16.9977 21.9399 18.4899 21.2173 18.9191 19.6154L21.8956 8.50721C22.2886 7.04018 21.418 5.53225 19.951 5.13916L15.9452 4.0658C16.0288 4.58261 15.9999 5.11192 15.9999 5.63339L19.5628 6.58805C20.2296 6.76673 20.6253 7.45215 20.4467 8.11898L17.4702 19.2271C17.2886 19.905 16.5813 20.283 15.9141 20.1042C15.8108 20.6102 15.6177 21.0834 15.3521 21.5066Z" fill="#161823"/>
</svg>
