<svg width="20" height="20" viewBox="0 0 20 20" fill="none" xmlns="http://www.w3.org/2000/svg">
<path d="M7.02818 1.72928C6.65925 1.49559 6.17073 1.60523 5.93705 1.97416C5.76717 2.24236 5.77872 2.57376 5.93944 2.82451C5.95926 2.86235 5.98242 2.89909 6.00897 2.93433C7.28251 4.62438 8.89408 6.76796 10.1874 8.48922C10.834 9.34981 11.401 10.1048 11.8064 10.6445L12.4554 11.5089C12.4678 11.5255 12.4808 11.5414 12.4942 11.5567C12.5065 11.5764 12.5198 11.5957 12.534 11.6146C13.5814 13.0045 13.3037 14.9804 11.9137 16.0278C10.5238 17.0752 8.54793 16.7975 7.50053 15.4075C6.45685 14.0225 6.72886 12.0558 8.10597 11.0055L8.73063 10.5818C9.09203 10.3366 9.18625 9.84488 8.94109 9.48348C8.69592 9.12208 8.2042 9.02786 7.8428 9.27303L7.18471 9.71947L7.16901 9.7313C5.62265 10.8966 4.99294 12.827 5.40981 14.5981L4.38232 14.0141C3.99145 13.7919 3.75 13.377 3.75 12.9274L3.75 7.29737C3.75 6.84777 3.99145 6.43281 4.38232 6.21064L4.94502 5.89081C5.30513 5.68613 5.43112 5.22828 5.22644 4.86817C5.02176 4.50806 4.56391 4.38206 4.2038 4.58674L3.6411 4.90657C2.78119 5.39534 2.25 6.30826 2.25 7.29737V12.9274C2.25 13.9165 2.78119 14.8294 3.6411 15.3182L7.38833 17.448C7.57703 17.574 7.77345 17.6854 7.97584 17.782L8.6411 18.1601C9.48373 18.639 10.5163 18.639 11.3589 18.1601L11.8865 17.8602C12.1993 17.7255 12.5021 17.5547 12.7891 17.3472L16.3589 15.3182C17.2188 14.8294 17.75 13.9165 17.75 12.9274V7.29737C17.75 6.30825 17.2188 5.39534 16.3589 4.90657L15.7962 4.58674C15.4361 4.38206 14.9782 4.50806 14.7736 4.86817C14.5689 5.22828 14.6949 5.68613 15.055 5.89081L15.6177 6.21064C16.0086 6.43281 16.25 6.84777 16.25 7.29737V12.9274C16.25 13.377 16.0086 13.7919 15.6177 14.0141L14.6287 14.5762C14.9318 13.2607 14.673 11.8253 13.797 10.6628C13.7849 10.6467 13.7722 10.6312 13.7591 10.6162C13.7471 10.597 13.7341 10.578 13.7202 10.5595L13.071 9.69489C12.6656 9.15501 12.0985 8.39995 11.4517 7.53922C10.755 6.61189 9.96569 5.56182 9.18658 4.526C10.4695 4.72196 12.0645 4.49399 13.9138 3.33442C14.2838 3.10242 14.3956 2.61441 14.1636 2.24442C13.9317 1.87442 13.4436 1.76255 13.0736 1.99455C11.1847 3.179 9.78257 3.12258 8.85176 2.82924C8.09121 2.58955 7.66974 2.24064 7.35129 1.97702C7.23348 1.87949 7.12975 1.79362 7.02818 1.72928Z" fill="#161823"/>
</svg>
