<svg width="16" height="16" viewBox="0 0 16 16" fill="none" xmlns="http://www.w3.org/2000/svg">
<path d="M10.7688 4.00284H8.75037L8.75037 8.85602L10.3038 7.3026C10.5967 7.00971 11.0716 7.00971 11.3644 7.3026C11.6573 7.59549 11.6573 8.07037 11.3644 8.36326L8.5307 11.197C8.23781 11.4899 7.76294 11.4899 7.47004 11.197L4.6363 8.36326C4.3434 8.07037 4.3434 7.59549 4.6363 7.3026C4.92919 7.00971 5.40406 7.00971 5.69696 7.3026L7.25037 8.85601L7.25037 4.00284H5.23194C4.68417 4.00283 4.23618 4.00283 3.87231 4.03304C3.4956 4.06433 3.15562 4.13107 2.83897 4.29556C2.3641 4.54224 1.9769 4.92943 1.73023 5.40431C1.56574 5.72096 1.49899 6.06094 1.46771 6.43764C1.43749 6.80152 1.43749 7.2495 1.4375 7.79726V10.2006C1.43749 10.7483 1.43749 11.1963 1.46771 11.5602C1.49899 11.9369 1.56574 12.2769 1.73023 12.5935C1.9769 13.0684 2.3641 13.4556 2.83897 13.7023C3.15562 13.8668 3.4956 13.9335 3.87231 13.9648C4.23619 13.995 4.68418 13.995 5.23196 13.995H10.7688C11.3166 13.995 11.7645 13.995 12.1284 13.9648C12.5051 13.9335 12.8451 13.8668 13.1618 13.7023C13.6366 13.4556 14.0238 13.0684 14.2705 12.5935C14.435 12.2769 14.5017 11.9369 14.533 11.5602C14.5632 11.1963 14.5632 10.7483 14.5632 10.2005V7.7973C14.5632 7.24952 14.5632 6.80153 14.533 6.43764C14.5017 6.06094 14.435 5.72096 14.2705 5.4043C14.0238 4.92943 13.6366 4.54224 13.1618 4.29556C12.8451 4.13107 12.5051 4.06433 12.1284 4.03304C11.7646 4.00283 11.3166 4.00283 10.7688 4.00284Z" fill="#161823"/>
<path d="M7.25037 4H8.75037L8.75037 2C8.75037 1.58579 8.41458 1.25 8.00037 1.25C7.58615 1.25 7.25037 1.58579 7.25037 2L7.25037 4Z" fill="#161823"/>
</svg>
