<svg width="24" height="24" viewBox="0 0 24 24" fill="none" xmlns="http://www.w3.org/2000/svg">
<path d="M8.50006 9.99982C9.32849 9.99982 10.0001 9.32824 10.0001 8.49982C10.0001 7.67139 9.32849 6.99982 8.50006 6.99982C7.67163 6.99982 7.00006 7.67139 7.00006 8.49982C7.00006 9.32824 7.67163 9.99982 8.50006 9.99982Z" fill="#161823"/>
<path d="M6.75 3C4.67893 3 3 4.67893 3 6.75V17.25C3 19.3211 4.67893 21 6.75 21H17.25C19.3211 21 21 19.3211 21 17.25V6.75C21 4.67893 19.3211 3 17.25 3H6.75ZM17.25 4.5C18.4926 4.5 19.5 5.50736 19.5 6.75V13.066L17.1617 11.0198C16.4948 10.4363 15.4971 10.4433 14.8385 11.0361L10.9811 14.508L9.13616 12.9705C8.47495 12.4195 7.51123 12.4311 6.86348 12.9979L4.5 15.0658V6.75C4.5 5.50736 5.50736 4.5 6.75 4.5H17.25ZM19.5 15.0592V17.25C19.5 18.4926 18.4926 19.5 17.25 19.5H6.75C5.50736 19.5 4.5 18.4926 4.5 17.25V17.059L7.85122 14.1267C7.94375 14.0458 8.08143 14.0441 8.17589 14.1228L10.5199 16.0762C10.8063 16.3149 11.2246 16.3069 11.5018 16.0574L15.842 12.151C15.9361 12.0663 16.0786 12.0653 16.1739 12.1487L19.5 15.0592Z" fill="#161823"/>
</svg>
