<svg width="20" height="20" viewBox="0 0 20 20" fill="none" xmlns="http://www.w3.org/2000/svg">
<path fill-rule="evenodd" clip-rule="evenodd" d="M8.26856 3.68709C9.41141 3.45852 10.5882 3.45852 11.731 3.68709C12.1685 3.77457 12.5532 4.03223 12.8006 4.40338L13.121 4.8839C13.3968 5.29764 13.8289 5.58155 14.3181 5.6705L14.9622 5.7876C15.8687 5.95243 16.572 6.6723 16.7157 7.58244L16.8589 8.48884C17.1041 10.0418 17.0718 11.626 16.7634 13.1677C16.5066 14.4517 15.5541 15.4845 14.2951 15.8442L14.0436 15.9161C11.4006 16.6713 8.59899 16.6713 5.95601 15.9161L5.70446 15.8442C4.4455 15.4845 3.49298 14.4517 3.2362 13.1677C2.92785 11.626 2.89554 10.0418 3.14075 8.48884L3.28386 7.58244C3.42757 6.6723 4.13089 5.95243 5.03745 5.7876L5.68148 5.6705C6.17071 5.58155 6.60281 5.29764 6.87863 4.8839L7.19898 4.40338C7.44641 4.03223 7.83115 3.77457 8.26856 3.68709ZM12.0056 2.31428C10.6815 2.04946 9.31809 2.04946 7.994 2.31428C7.1925 2.47458 6.4875 2.94671 6.03411 3.6268L5.71376 4.10732C5.64862 4.20503 5.54658 4.27208 5.43104 4.29309L4.78701 4.41018C3.29501 4.68145 2.1375 5.8662 1.90099 7.36409L1.75788 8.27049C1.48684 9.9871 1.52256 11.7382 1.86338 13.4423C2.22297 15.2402 3.55685 16.6867 5.31985 17.1904L5.5714 17.2622C8.46576 18.0892 11.5338 18.0892 14.4282 17.2622L14.6798 17.1904C16.4428 16.6867 17.7766 15.2402 18.1362 13.4423C18.4771 11.7382 18.5128 9.9871 18.2417 8.27049L18.0986 7.36409C17.8621 5.8662 16.7046 4.68145 15.2126 4.41018L14.5686 4.29309C14.453 4.27208 14.351 4.20503 14.2858 4.10732L13.9655 3.6268C13.5121 2.9467 12.8071 2.47458 12.0056 2.31428ZM10.0001 12.7918C10.5063 12.7918 10.9167 13.2022 10.9167 13.7085C10.9167 14.2147 10.5063 14.6251 10.0001 14.6251C9.49381 14.6251 9.0834 14.2147 9.0834 13.7085C9.0834 13.2022 9.49381 12.7918 10.0001 12.7918ZM9.16992 8.30289C8.97497 8.83545 8.74923 8.96245 8.33333 8.96245C7.8731 8.96245 7.5 8.58936 7.5 8.12912C7.5 6.8697 9.14334 6.125 10.2083 6.125C11.9484 6.125 12.9297 7.23323 12.9297 8.46891C12.9297 9.29131 12.3166 9.72531 11.7515 10.1253C11.3019 10.4436 10.8826 10.7404 10.8268 11.1941C10.7517 11.8034 10.4343 11.9626 9.99591 11.9626C9.53567 11.9626 9.16258 11.5895 9.16258 11.1293C9.16258 10.3551 9.78863 9.9629 10.355 9.60811C10.8229 9.31505 11.25 9.04749 11.25 8.61121C11.25 8.04887 10.7024 7.79167 10.2083 7.79167C9.83859 7.79167 9.33091 7.86311 9.16992 8.30289Z" fill="#161823"/>
</svg>
