<svg width="16" height="16" viewBox="0 0 16 16" fill="none" xmlns="http://www.w3.org/2000/svg">
<path d="M4.25 1.5C3.2835 1.5 2.5 2.2835 2.5 3.25V10.35C2.5 11.3165 3.2835 12.1 4.25 12.1H11.75C12.7165 12.1 13.5 11.3165 13.5 10.35V7.85267C13.5 7.76358 13.3923 7.71897 13.3293 7.78196L12.3293 8.78196C12.3105 8.80072 12.3 8.82615 12.3 8.85267V10.35C12.3 10.6538 12.0538 10.9 11.75 10.9H4.25C3.94624 10.9 3.7 10.6538 3.7 10.35V3.25C3.7 2.94624 3.94624 2.7 4.25 2.7H11.75C12.0538 2.7 12.3 2.94624 12.3 3.25V4.04435C12.3 4.13344 12.4077 4.17806 12.4707 4.11506L12.6934 3.8924C12.8978 3.68802 13.1496 3.56004 13.4134 3.50846C13.4627 3.49883 13.5 3.4568 13.5 3.40661V3.25C13.5 2.2835 12.7165 1.5 11.75 1.5H4.25Z" fill="#161823"/>
<path d="M13.5 4.52671C13.4642 4.5452 13.4305 4.56946 13.4005 4.59951L9.53324 8.46674C9.36889 8.63109 9.24373 8.83039 9.16707 9.04981L8.96468 9.62906C8.90944 9.78716 9.06135 9.93908 9.21945 9.88384L9.79871 9.68145C10.0181 9.60478 10.2174 9.47962 10.3818 9.31527L14.249 5.44804C14.4052 5.29183 14.4052 5.03856 14.249 4.88235L13.9662 4.59951C13.84 4.47334 13.6505 4.44908 13.5 4.52671Z" fill="#161823"/>
<path d="M5.49999 4.8C5.16862 4.8 4.89999 5.06863 4.89999 5.4C4.89999 5.73137 5.16862 6 5.49999 6H8.89999C9.23136 6 9.49999 5.73137 9.49999 5.4C9.49999 5.06863 9.23137 4.8 8.89999 4.8H5.49999Z" fill="#161823"/>
<path d="M2.5 13.9C2.5 13.5686 2.76863 13.3 3.1 13.3H12.9C13.2314 13.3 13.5 13.5686 13.5 13.9C13.5 14.2314 13.2314 14.5 12.9 14.5H3.1C2.76863 14.5 2.5 14.2314 2.5 13.9Z" fill="#161823"/>
</svg>
