<svg width="24" height="24" viewBox="0 0 24 24" fill="none" xmlns="http://www.w3.org/2000/svg">
<path d="M20.0474 3.7251H4.66289C3.17172 3.7251 1.96289 4.93393 1.96289 6.4251V16.4323C1.96289 17.9234 3.17172 19.1323 4.66289 19.1323H13.3542C13.1211 18.6782 12.978 18.1704 12.9482 17.6323H4.66289C4.00015 17.6323 3.46289 17.095 3.46289 16.4323V6.4251C3.46289 5.76236 4.00015 5.2251 4.66289 5.2251H20.0474C20.7102 5.2251 21.2474 5.76236 21.2474 6.4251V8.12019C21.8785 8.46214 22.4004 8.97985 22.7474 9.60767V6.4251C22.7474 4.93393 21.5386 3.7251 20.0474 3.7251Z" fill="#161823"/>
<path d="M10.2145 16.4613H12.9424V14.9613H10.2145C9.80026 14.9613 9.46448 15.2971 9.46448 15.7113C9.46448 16.1255 9.80026 16.4613 10.2145 16.4613Z" fill="#161823"/>
<path d="M16.6924 9.16943C15.4497 9.16943 14.4424 10.1768 14.4424 11.4194V17.4221C14.4424 18.6647 15.4497 19.6721 16.6924 19.6721H19.4633C20.706 19.6721 21.7133 18.6647 21.7133 17.4221V11.4194C21.7133 10.1768 20.706 9.16943 19.4633 9.16943H16.6924ZM15.9424 11.4194C15.9424 11.0052 16.2782 10.6694 16.6924 10.6694H16.759V11.0361C16.759 11.4043 17.0575 11.7027 17.4257 11.7027H18.759C19.1272 11.7027 19.4257 11.4043 19.4257 11.0361V10.6694H19.4633C19.8775 10.6694 20.2133 11.0052 20.2133 11.4194V17.4221C20.2133 17.8363 19.8775 18.1721 19.4633 18.1721H16.6924C16.2782 18.1721 15.9424 17.8363 15.9424 17.4221V11.4194Z" fill="#161823"/>
</svg>
