<svg width="24" height="24" viewBox="0 0 24 24" fill="none" xmlns="http://www.w3.org/2000/svg">
<path d="M6.16117 3.35431C5.92359 3.015 5.45593 2.93254 5.11663 3.17012C3.8777 4.03763 2.81394 5.13152 1.98137 6.39418C1.75335 6.73999 1.84884 7.20516 2.19464 7.43318C2.54045 7.66119 3.00562 7.56571 3.23364 7.2199C3.96214 6.11507 4.89293 5.15792 5.97699 4.39885C6.3163 4.16127 6.39876 3.69361 6.16117 3.35431Z" fill="#161823"/>
<path d="M18.8825 3.17015C18.5432 2.93257 18.0755 3.01503 17.8379 3.35434C17.6004 3.69364 17.6828 4.1613 18.0221 4.39888C19.1062 5.15795 20.037 6.1151 20.7655 7.21993C20.9935 7.56574 21.4587 7.66122 21.8045 7.43321C22.1503 7.20519 22.2458 6.74002 22.0178 6.39421C21.1852 5.13155 20.1214 4.03766 18.8825 3.17015Z" fill="#161823"/>
<path d="M12.7496 7.99998C12.7496 7.58577 12.4138 7.24998 11.9996 7.24998C11.5854 7.24998 11.2496 7.58576 11.2496 7.99998L11.2496 13C11.2496 13.1989 11.3286 13.3897 11.4692 13.5303L13.9692 16.0303C14.2621 16.3232 14.737 16.3232 15.0299 16.0303C15.3228 15.7374 15.3228 15.2625 15.0299 14.9696L12.7496 12.6893L12.7496 7.99998Z" fill="#161823"/>
<path d="M20.9996 13C20.9996 17.9705 16.9701 22 11.9996 22C7.029 22 2.99956 17.9705 2.99956 13C2.99956 8.02942 7.029 3.99998 11.9996 3.99998C16.9701 3.99998 20.9996 8.02942 20.9996 13ZM19.4996 13C19.4996 8.85784 16.1417 5.49998 11.9996 5.49998C7.85742 5.49998 4.49956 8.85784 4.49956 13C4.49956 17.1421 7.85742 20.5 11.9996 20.5C16.1417 20.5 19.4996 17.1421 19.4996 13Z" fill="#161823"/>
</svg>
