<svg width="24" height="24" viewBox="0 0 24 24" fill="none" xmlns="http://www.w3.org/2000/svg">
<path d="M12 22C17.5228 22 22 17.5228 22 12C22 6.47715 17.5228 2 12 2C6.47715 2 2 6.47715 2 12C2 17.5228 6.47715 22 12 22ZM5.72328 13.9097L8.99742 9.65335C9.28929 9.27392 9.80911 9.15455 10.2373 9.36863L14.0528 11.2764C14.3343 11.4172 14.6657 11.4172 14.9472 11.2764L17.5525 9.97373C18.0274 9.73629 18.4962 10.305 18.1725 10.7258L15.0252 14.8172C14.7234 15.2096 14.1798 15.3221 13.747 15.0816L10.4406 13.2448C10.1635 13.0908 9.82976 13.0774 9.54115 13.2086L6.32649 14.6698C5.85227 14.8853 5.40567 14.3226 5.72328 13.9097Z" fill="#161823"/>
</svg>
