<svg width="24" height="24" viewBox="0 0 24 24" fill="none" xmlns="http://www.w3.org/2000/svg">
<path fill-rule="evenodd" clip-rule="evenodd" d="M8.21718 1.98096H15.7814C16.5942 1.98095 17.2498 1.98094 17.7808 2.02432C18.3274 2.06898 18.8075 2.16334 19.2517 2.38968C19.9574 2.74921 20.531 3.32289 20.8906 4.02849C21.1169 4.47271 21.2113 4.95285 21.2559 5.49949C21.2993 6.03039 21.2993 6.686 21.2993 7.49882V13.9634C21.2993 14.0215 21.2993 14.0788 21.2993 14.1354C21.2998 15.7006 21.3001 16.7062 20.9463 17.5718C20.6347 18.3342 20.1303 19.0025 19.4825 19.5111C18.7469 20.0886 17.7799 20.3639 16.2744 20.7925C16.22 20.8079 16.1648 20.8236 16.109 20.8396L11.9993 22.0108L7.88958 20.8396C7.83373 20.8237 7.7786 20.808 7.72417 20.7925L7.72413 20.7924C6.2187 20.3639 5.25161 20.0886 4.51607 19.5111C3.86826 19.0025 3.36383 18.3342 3.05227 17.5718C2.69851 16.7062 2.6988 15.7006 2.69925 14.1354C2.69927 14.0788 2.69928 14.0215 2.69928 13.9634L2.69928 7.49885C2.69928 6.68601 2.69927 6.0304 2.74265 5.49949C2.78731 4.95285 2.88167 4.47271 3.10801 4.02849C3.46753 3.32289 4.04121 2.74921 4.74682 2.38968C5.19104 2.16334 5.67118 2.06898 6.21781 2.02432C6.74872 1.98094 7.40434 1.98095 8.21718 1.98096ZM11.0199 9.11092C10.7859 9.74999 10.515 9.90239 10.016 9.90239C9.46367 9.90239 9.01595 9.45468 9.01595 8.90239C9.01595 7.39108 10.988 6.49745 12.266 6.49745C14.354 6.49745 15.5316 7.82732 15.5316 9.31014C15.5316 10.297 14.7959 10.8178 14.1177 11.2978C13.5782 11.6798 13.0751 12.0359 13.0081 12.5804C12.918 13.3115 12.5371 13.5026 12.011 13.5026C11.4588 13.5026 11.011 13.0548 11.011 12.5026C11.011 11.5735 11.7623 11.1029 12.442 10.6772C13.0034 10.3255 13.516 10.0044 13.516 9.4809C13.516 8.80609 12.8588 8.49745 12.266 8.49745C11.8223 8.49745 11.213 8.58318 11.0199 9.11092ZM12.0159 16.6976C12.6235 16.6976 13.1159 16.2051 13.1159 15.5976C13.1159 14.9901 12.6235 14.4976 12.0159 14.4976C11.4084 14.4976 10.9159 14.9901 10.9159 15.5976C10.9159 16.2051 11.4084 16.6976 12.0159 16.6976Z" fill="#161823"/>
</svg>
