<svg width="24" height="24" viewBox="0 0 24 24" fill="none" xmlns="http://www.w3.org/2000/svg">
<path d="M7.75 1C6.23122 1 5 2.23122 5 3.75V9.90146C5 9.95669 5.04477 10.0015 5.1 10.0015H6.4C6.45523 10.0015 6.5 9.95669 6.5 9.90147V3.75C6.5 3.05964 7.05964 2.5 7.75 2.5H8.9C8.95523 2.5 9 2.54477 9 2.6V3C9 3.55228 9.44772 4 10 4H14C14.5523 4 15 3.55228 15 3V2.6C15 2.54477 15.0448 2.5 15.1 2.5H16.25C16.9404 2.5 17.5 3.05964 17.5 3.75V20.25C17.5 20.9404 16.9404 21.5 16.25 21.5H7.75C7.05964 21.5 6.5 20.9404 6.5 20.25V14.6015C6.5 14.5462 6.45523 14.5015 6.4 14.5015H5.1C5.04477 14.5015 5 14.5462 5 14.6015V20.25C5 21.7688 6.23122 23 7.75 23H16.25C17.7688 23 19 21.7688 19 20.25V3.75C19 2.23122 17.7688 1 16.25 1H7.75Z" fill="#161823"/>
<path d="M14.7846 12.7857L11.2849 16.2854C10.992 16.5783 10.5172 16.5783 10.2243 16.2854C9.93137 15.9925 9.93137 15.5176 10.2243 15.2247L12.4475 13.0015H2.74609C2.33188 13.0015 1.99609 12.6657 1.99609 12.2515C1.99609 11.8372 2.33188 11.5015 2.74609 11.5015H12.4397L10.2243 9.28601C9.93137 8.99311 9.93137 8.51824 10.2243 8.22535C10.5172 7.93245 10.992 7.93245 11.2849 8.22535L14.7846 11.725C15.0775 12.0179 15.0775 12.4928 14.7846 12.7857Z" fill="#161823"/>
</svg>
