<svg width="20" height="20" viewBox="0 0 20 20" fill="none" xmlns="http://www.w3.org/2000/svg">
<path d="M12.055 6.31521L7.54282 8.67435C7.4402 8.72778 7.43115 8.88305 7.52773 8.94816L9.51824 10.2989C9.59369 10.349 9.60878 10.4608 9.54993 10.5343L7.5217 13.0787C7.4236 13.2023 7.5383 13.3843 7.67713 13.3292L12.0686 11.5828C12.1561 11.5477 12.1909 11.4342 12.1411 11.349L10.7044 8.92479C10.6712 8.86969 10.6742 8.7979 10.7104 8.74447L12.2301 6.55062C12.3221 6.41872 12.1909 6.24342 12.055 6.31521Z" fill="#161823"/>
<path fill-rule="evenodd" clip-rule="evenodd" d="M2.33969 11.4188C2.49959 14.9392 3.65528 16.4489 3.65528 16.4489C3.70942 16.9562 4.16461 17.3252 4.67194 17.2711C4.67194 17.2711 7.14017 17.9795 10.3405 17.4995C13.5409 17.0194 17.3812 13.9791 17.5413 9.01856C17.6656 5.16683 17.1385 3.60532 17.1385 3.60532C17.0864 3.09599 16.6292 2.72903 16.1219 2.78317C16.1219 2.78317 13.5409 1.7703 9.22033 2.78318C4.89978 3.79605 2.1798 7.89844 2.33969 11.4188ZM15.5841 4.1835L15.7585 4.25196C15.7951 4.41216 15.8482 4.67968 15.8997 5.06576C16.0041 5.84858 16.1018 7.119 16.0421 8.97018C15.9084 13.1127 12.6996 15.6288 10.118 16.0161C8.6775 16.2322 7.39664 16.181 6.47768 16.0751C6.01986 16.0224 5.65687 15.9567 5.415 15.9061C5.29422 15.8808 5.20413 15.8594 5.14804 15.8454C5.12001 15.8383 5.10052 15.8332 5.09 15.8304C5.0861 15.8293 5.08344 15.8286 5.08203 15.8282L5.08165 15.8281L5.081 15.8279L5.06555 15.8235L4.85961 15.5545C4.85851 15.5528 4.8572 15.5509 4.85567 15.5486C4.8431 15.5296 4.81612 15.4874 4.77874 15.4212C4.70408 15.2888 4.58728 15.059 4.46061 14.7238C4.20811 14.0556 3.91097 12.9541 3.83815 11.3508C3.71082 8.54729 5.94948 5.09064 9.56269 4.24358C11.5468 3.77843 13.1019 3.78484 14.132 3.89486C14.6482 3.94999 15.0348 4.03142 15.2795 4.09398C15.4018 4.12526 15.4886 4.15182 15.5383 4.16797C15.5624 4.17583 15.5777 4.18122 15.5841 4.1835Z" fill="#161823"/>
</svg>
