<svg width="20" height="20" viewBox="0 0 20 20" fill="none" xmlns="http://www.w3.org/2000/svg">
<path d="M7.31818 1.92285C7.11267 1.56322 6.65453 1.43827 6.29489 1.64378C5.93525 1.84928 5.8103 2.30742 6.01581 2.66706L7.18413 4.71162H4.79199C3.13514 4.71162 1.79199 6.05477 1.79199 7.71163V14.3783C1.79199 16.0351 3.13514 17.3783 4.79199 17.3783H15.2087C16.8655 17.3783 18.2087 16.0351 18.2087 14.3783V7.71162C18.2087 6.05477 16.8655 4.71162 15.2087 4.71162H12.8165L13.9848 2.66706C14.1903 2.30742 14.0654 1.84928 13.7058 1.64378C13.3461 1.43827 12.888 1.56322 12.6825 1.92285L11.0889 4.71162H8.91176L7.31818 1.92285ZM12.4767 11.5235L9.06954 13.8483C8.68234 14.1125 8.15743 13.8352 8.15743 13.3665V8.71685C8.15743 8.2481 8.68234 7.9708 9.06954 8.235L12.4767 10.5598C12.8161 10.7914 12.8161 11.2919 12.4767 11.5235Z" fill="#161823"/>
</svg>
