<svg width="24" height="24" viewBox="0 0 24 24" fill="none" xmlns="http://www.w3.org/2000/svg">
<path d="M12.0031 15.2139L9.81353 13.0243C9.64149 12.8679 9.47466 12.7011 9.31826 12.529C8.76564 11.9087 8.34336 11.1996 8.07227 10.4124C7.83767 9.74512 7.72298 9.05175 7.72298 8.34794C7.72819 5.0479 10.2879 2.33696 13.5254 2.09193C13.0302 1.99809 12.5193 1.95117 12.0031 1.95117H11.8832C9.70405 1.98245 7.66042 2.84787 6.11727 4.3858C4.03193 6.47114 3.20301 9.53659 3.95373 12.3935C4.32909 13.8167 5.0746 15.1201 6.11727 16.1627L12.0031 22.0486L12.1491 21.9026C13.0249 21.0268 13.5046 19.8642 13.5046 18.6287C13.5046 17.3931 13.0249 16.2305 12.1491 15.3547L12.0031 15.2087V15.2139Z" fill="#161823"/>
<path d="M19.26 10.3758C18.4832 8.14975 16.3771 6.65352 14.0206 6.65352H13.8955C13.4472 6.66395 13.0092 6.7213 12.587 6.83599C12.8372 6.8777 13.077 6.94547 13.3116 7.03931C13.7339 7.21135 14.1301 7.46159 14.4742 7.80567C15.8349 9.16635 15.8349 11.382 14.4742 12.7427L12.5192 14.6977L12.6652 14.8437C13.6765 15.8551 14.2344 17.2001 14.2344 18.6286C14.2344 19.0978 14.1718 19.5565 14.0571 19.9945L17.9775 16.074L18.0714 15.9698C18.2226 15.8082 18.3477 15.6674 18.4572 15.5371C19.187 14.5778 19.5728 13.4152 19.5728 12.1953C19.5728 11.5697 19.4686 10.9545 19.2652 10.3706L19.26 10.3758Z" fill="#161823"/>
<path d="M17.8943 4.39102C17.9882 4.48486 18.0768 4.5787 18.1759 4.68818C19.8598 6.54934 20.5584 9.02047 20.2456 11.3873C20.1882 10.9598 20.0892 10.5428 19.9484 10.1361C19.0726 7.61808 16.6901 5.92374 14.0208 5.92374C12.3265 5.92374 10.7416 6.59105 9.55299 7.79533L9.53735 7.81097C9.52692 7.8214 9.51649 7.83704 9.51649 7.83704C9.03687 8.3271 8.72407 8.92663 8.58852 9.55744C8.49989 9.16123 8.45819 8.7598 8.45819 8.35316C8.45819 5.29293 10.9502 2.80095 14.0104 2.80095C15.3815 2.80095 16.7005 3.30664 17.7119 4.21898L17.764 4.2659C17.7849 4.28675 17.807 4.30761 17.8292 4.32846C17.8513 4.34931 17.8735 4.37017 17.8943 4.39102Z" fill="#161823"/>
</svg>
