<svg width="24" height="24" viewBox="0 0 24 24" fill="none" xmlns="http://www.w3.org/2000/svg">
<path d="M2 5.75C2 4.23122 3.23122 3 4.75 3H9.3611C10.0904 3 10.7899 3.28973 11.3056 3.80546L12.1947 4.69454C12.7105 5.21027 13.4099 5.5 14.1393 5.5H19.25C20.7688 5.5 22 6.73122 22 8.25V18.25C22 19.7688 20.7688 21 19.25 21H4.75C3.23122 21 2 19.7688 2 18.25V5.75ZM12 17.5C12.5523 17.5 13 17.0523 13 16.5V14.5H15C15.5523 14.5 16 14.0523 16 13.5C16 12.9477 15.5523 12.5 15 12.5H13V10.5C13 9.94771 12.5523 9.5 12 9.5C11.4477 9.5 11 9.94771 11 10.5V12.5H9C8.44771 12.5 8 12.9477 8 13.5C8 14.0523 8.44771 14.5 9 14.5H11V16.5C11 17.0523 11.4477 17.5 12 17.5Z" fill="#161823"/>
</svg>
