<svg width="20" height="20" viewBox="0 0 20 20" fill="none" xmlns="http://www.w3.org/2000/svg">
<path d="M2.25142 9.83694C2.61761 9.42351 3.24961 9.3852 3.66305 9.75139L10 15.3641L16.337 9.75139C16.7504 9.3852 17.3824 9.42351 17.7486 9.83694C18.1148 10.2504 18.0765 10.8824 17.663 11.2486L10.663 17.4486C10.2846 17.7838 9.71545 17.7838 9.33698 17.4486L2.33698 11.2486C1.92354 10.8824 1.88524 10.2504 2.25142 9.83694Z" fill="#161823"/>
<path d="M2.27759 2.30856C2.65947 1.90958 3.29249 1.89572 3.69147 2.2776L10 8.31578L16.3086 2.2776C16.7075 1.89572 17.3405 1.90958 17.7224 2.30856C18.1043 2.70754 18.0904 3.34055 17.6915 3.72243L10.6915 10.4224C10.3048 10.7925 9.69524 10.7925 9.30855 10.4224L2.30855 3.72243C1.90957 3.34055 1.89571 2.70754 2.27759 2.30856Z" fill="#161823"/>
</svg>
