<svg width="20" height="20" viewBox="0 0 20 20" fill="none" xmlns="http://www.w3.org/2000/svg">
<path d="M4 9.99996C4 13.3137 6.68629 16 10 16C12.9058 16 15.3291 13.9343 15.8817 11.1913C15.8965 11.1179 15.9834 11.0832 16.0463 11.1238C16.3885 11.3443 16.7979 11.4749 17.2268 11.4829C17.2915 11.4841 17.3414 11.5429 17.3276 11.6061C16.5923 14.9765 13.5908 17.5 10 17.5C5.85786 17.5 2.5 14.1421 2.5 9.99996C2.5 6.42105 5.00678 3.42762 8.3603 2.67974C8.4235 2.66565 8.48256 2.71544 8.48396 2.78017C8.49321 3.20924 8.62509 3.61792 8.84664 3.95938C8.88734 4.02209 8.85303 4.10899 8.77982 4.12412C6.05119 4.68781 4 7.10435 4 9.99996Z" fill="#161823"/>
<path d="M17.2667 1.98332C17.6809 1.98332 18.0167 2.3191 18.0167 2.73332V9.23332C18.0167 9.64753 17.6809 9.98332 17.2667 9.98332C16.8525 9.98332 16.5167 9.64753 16.5167 9.23332V4.53835L9.54231 11.5128C9.24942 11.8057 8.77455 11.8057 8.48165 11.5128C8.18876 11.2199 8.18876 10.745 8.48165 10.4521L15.4504 3.48332L10.7667 3.48332C10.3525 3.48332 10.0167 3.14753 10.0167 2.73332C10.0167 2.3191 10.3525 1.98332 10.7667 1.98332L17.2667 1.98332Z" fill="#161823"/>
</svg>
