<svg width="20" height="20" viewBox="0 0 20 20" fill="none" xmlns="http://www.w3.org/2000/svg">
<path fill-rule="evenodd" clip-rule="evenodd" d="M8.54167 5.08325C7.85131 5.08325 7.29167 4.52361 7.29167 3.83325V2.33325C7.29167 1.6429 7.85131 1.08325 8.54167 1.08325L11.4167 1.08325C12.107 1.08325 12.6667 1.6429 12.6667 2.33325V3.83325C12.6667 4.52361 12.107 5.08325 11.4167 5.08325H8.54167ZM8.79167 3.58325H11.1667V2.58325L8.79167 2.58325V3.58325Z" fill="#161823"/>
<path fill-rule="evenodd" clip-rule="evenodd" d="M6.04167 3.70825V2.45825C6.04167 2.37232 5.97387 2.29992 5.88794 2.29992H5.25C3.73122 2.29992 2.5 3.53114 2.5 5.04992V16.0166C2.5 17.5354 3.73122 18.7666 5.25 18.7666H14.75C16.2688 18.7666 17.5 17.5354 17.5 16.0166V5.04992C17.5 3.53114 16.2688 2.29992 14.75 2.29992H14.0704C13.9845 2.29992 13.9167 2.37232 13.9167 2.45825V3.70825C13.9167 5.158 12.7414 6.33325 11.2917 6.33325H8.66667C7.21692 6.33325 6.04167 5.158 6.04167 3.70825ZM11.9 9.46659C11.9 10.7 11.0493 11.6999 10 11.6999C8.95066 11.6999 8.1 10.7 8.1 9.46659C8.1 8.23315 8.95066 7.23325 10 7.23325C11.0493 7.23325 11.9 8.23315 11.9 9.46659ZM5.53333 15.7817C5.53333 13.9876 7.4875 12.5333 10 12.5333C12.5125 12.5333 14.4667 13.9876 14.4667 15.7817C14.4667 16.4545 13.9213 16.9999 13.2485 16.9999H6.75151C6.07873 16.9999 5.53333 16.4545 5.53333 15.7817Z" fill="#161823"/>
</svg>
