<svg width="24" height="24" viewBox="0 0 24 24" fill="none" xmlns="http://www.w3.org/2000/svg">
<path d="M9.53857 15.2617C9.37451 15.7949 9.14209 16 8.7251 16C8.29443 16 8.00049 15.7471 8.00049 15.3506C8.00049 15.1865 8.0415 15.0088 8.13037 14.749L10.6938 7.49609C10.9331 6.8125 11.2681 6.51172 11.8901 6.51172C12.5122 6.51172 12.8472 6.80566 13.0796 7.49609L15.6431 14.749C15.7183 14.9746 15.7593 15.1592 15.7593 15.3301C15.7593 15.7402 15.4653 16 15.021 16C14.604 16 14.3579 15.7881 14.2007 15.2617L13.5581 13.334H10.1812L9.53857 15.2617ZM11.8354 8.2002L10.5503 12.1445H13.189L11.9106 8.2002H11.8354Z" fill="#161823"/>
<path d="M2.05078 11.6747C2.05078 6.35897 6.36004 2.04971 11.6758 2.04971C16.9915 2.04971 21.3008 6.35897 21.3008 11.6747C21.3008 14.0628 20.4311 16.2477 18.9912 17.93L21.7807 20.7196C22.0736 21.0125 22.0736 21.4873 21.7807 21.7802C21.4878 22.0731 21.013 22.0731 20.7201 21.7802L17.9305 18.9906C16.2482 20.4302 14.0635 21.2997 11.6758 21.2997C6.36004 21.2997 2.05078 16.9905 2.05078 11.6747ZM11.6758 3.54971C7.18847 3.54971 3.55078 7.1874 3.55078 11.6747C3.55078 16.162 7.18847 19.7997 11.6758 19.7997C16.1631 19.7997 19.8008 16.162 19.8008 11.6747C19.8008 7.1874 16.1631 3.54971 11.6758 3.54971Z" fill="#161823"/>
</svg>
