<svg width="20" height="20" viewBox="0 0 20 20" fill="none" xmlns="http://www.w3.org/2000/svg">
<path fill-rule="evenodd" clip-rule="evenodd" d="M16.3994 15.3384C17.607 13.8925 18.3337 12.0311 18.3337 9.99999C18.3337 5.39762 14.6027 1.66666 10.0003 1.66666C7.96918 1.66666 6.10777 2.39333 4.66187 3.60087L3.03067 1.96967C2.73777 1.67678 2.2629 1.67678 1.97001 1.96967C1.67711 2.26256 1.67711 2.73744 1.97001 3.03033L16.97 18.0303C17.2629 18.3232 17.7378 18.3232 18.0307 18.0303C18.3236 17.7374 18.3236 17.2626 18.0307 16.9697L16.3994 15.3384ZM5.72777 4.66678C6.8979 3.72815 8.38354 3.16666 10.0003 3.16666C13.7743 3.16666 16.8337 6.22604 16.8337 9.99999C16.8337 11.5119 16.3426 12.9091 15.5114 14.0409C15.0802 13.5077 14.4771 13.0452 13.7471 12.6861L11.4412 10.3802C12.2209 9.84415 12.7404 8.88531 12.7404 7.79167C12.7404 6.1118 11.5148 4.75 10.0029 4.75C8.91588 4.75 7.97686 5.45394 7.53492 6.47392L5.72777 4.66678ZM10.4101 9.3491L8.67278 7.61179C8.75104 6.67512 9.43471 6.15 10.0029 6.15C10.6065 6.15 11.3404 6.7426 11.3404 7.79167C11.3404 8.61043 10.8933 9.15115 10.4101 9.3491Z" fill="#161823"/>
<path d="M14.0875 17.2639C13.231 17.7468 12.2806 18.0827 11.2705 18.2371C10.8563 18.3005 10.432 18.3333 10.0002 18.3333C7.52727 18.3333 5.30598 17.256 3.77982 15.5454C2.46567 14.0723 1.66699 12.1294 1.66699 9.99999C1.66699 8.51484 2.0555 7.12042 2.73643 5.91284L3.84742 7.02383C3.41146 7.92348 3.16699 8.93318 3.16699 9.99999C3.16699 11.5118 3.65794 12.9089 4.4891 14.0407C5.35082 12.9751 6.89922 12.192 8.77556 11.952L10.201 13.3774C10.1345 13.3758 10.0676 13.375 10.0001 13.375C8.71145 13.375 7.5957 13.6668 6.77097 14.1059C6.1608 14.4308 5.75926 14.8065 5.52437 15.1635C6.72338 16.2037 8.28833 16.8333 10.0003 16.8333C11.0671 16.8333 12.0768 16.5889 12.9765 16.1529L14.0875 17.2639Z" fill="#161823"/>
</svg>
