<svg width="20" height="20" viewBox="0 0 20 20" fill="none" xmlns="http://www.w3.org/2000/svg">
<path d="M5.75 2.5C5.46897 2.5 5.1943 2.52728 4.92852 2.57933C4.76223 2.61189 4.62127 2.4479 4.71051 2.30385C4.96461 1.89365 5.32359 1.55524 5.75 1.32607L5.76749 1.31675C6.15041 1.1145 6.58683 1 7.05 1H12.95C13.4202 1 13.8629 1.11802 14.25 1.32606C14.2735 1.3387 14.2968 1.35167 14.3199 1.36497C14.7157 1.59278 15.0494 1.91627 15.2895 2.30385C15.3787 2.4479 15.2378 2.6119 15.0715 2.57933C14.8057 2.52728 14.531 2.5 14.25 2.5H5.75Z" fill="#161823"/>
<path fill-rule="evenodd" clip-rule="evenodd" d="M12.8407 12.5022C13.5739 12.0065 13.5739 10.9268 12.8407 10.4311L9.40844 8.11062C8.57831 7.5494 7.45834 8.14412 7.45834 9.14616V13.7871C7.45834 14.7891 8.57831 15.3838 9.40844 14.8226L12.8407 12.5022ZM8.95834 9.61696L11.6942 11.4666L8.95834 13.3163V9.61696Z" fill="#161823"/>
<path fill-rule="evenodd" clip-rule="evenodd" d="M5.75 4C4.23122 4 3 5.23122 3 6.75V16.25C3 17.7688 4.23122 19 5.75 19H14.25C15.7688 19 17 17.7688 17 16.25V6.75C17 5.23122 15.7688 4 14.25 4H5.75ZM14.25 5.5H5.75C5.05964 5.5 4.5 6.05964 4.5 6.75V16.25C4.5 16.9404 5.05964 17.5 5.75 17.5H14.25C14.9404 17.5 15.5 16.9404 15.5 16.25V6.75C15.5 6.05964 14.9404 5.5 14.25 5.5Z" fill="#161823"/>
</svg>
