<svg width="24" height="24" viewBox="0 0 24 24" fill="none" xmlns="http://www.w3.org/2000/svg">
<path d="M19.3351 13.906C19.2352 13.7462 19.144 13.5819 19.0615 13.4138C18.7161 13.4705 18.3615 13.5 18 13.5C17.8167 13.5 17.6352 13.4924 17.4557 13.4775C17.6171 13.9023 17.8201 14.3122 18.0631 14.701L19.2609 16.6175C19.365 16.784 19.2453 17 19.0489 17H4.95104C4.75468 17 4.63497 16.784 4.73904 16.6175L5.93686 14.701C6.6316 13.5894 6.99998 12.3049 6.99998 10.9941V9C6.99998 6.58104 8.71774 4.56329 11 4.10002V4C11 3.44772 11.4477 3 12 3C12.2621 3 12.5007 3.10085 12.679 3.26586C12.9678 2.85504 13.303 2.47918 13.677 2.14589C13.2335 1.74449 12.6453 1.5 12 1.5C11.0146 1.5 10.1623 2.07014 9.75507 2.89855C7.27155 3.81274 5.49998 6.19815 5.49998 9V10.9941C5.49998 12.0238 5.21061 13.0328 4.66486 13.906L3.46704 15.8225C2.73855 16.9881 3.57654 18.5 4.95104 18.5H8.24998C8.24998 20.5711 9.92891 22.25 12 22.25C14.071 22.25 15.75 20.5711 15.75 18.5H19.0489C20.4234 18.5 21.2614 16.9881 20.5329 15.8225L19.3351 13.906ZM9.74998 18.5H14.25C14.25 19.7426 13.2426 20.75 12 20.75C10.7573 20.75 9.74998 19.7426 9.74998 18.5Z" fill="#161823"/>
<path d="M23 7C23 9.76142 20.7614 12 18 12C15.2386 12 13 9.76142 13 7C13 4.23858 15.2386 2 18 2C20.7614 2 23 4.23858 23 7ZM17.9987 9.53939C18.0957 9.53939 18.1905 9.47801 18.2928 9.40895C19.6279 8.53939 20.5 7.5087 20.5 6.47033C20.5 5.53427 19.8504 4.9 19.0627 4.9C18.6056 4.9 18.2637 5.16779 18.0453 5.52456C18.0245 5.55861 17.9734 5.55837 17.9528 5.52416C17.7382 5.16759 17.3943 4.9 16.9373 4.9C16.1496 4.9 15.5 5.53427 15.5 6.47033C15.5 7.5087 16.3721 8.53939 17.7072 9.40895C17.8095 9.47801 17.9017 9.53939 17.9987 9.53939Z" fill="#161823"/>
</svg>
