<svg width="24" height="24" viewBox="0 0 24 24" fill="none" xmlns="http://www.w3.org/2000/svg">
<path d="M20.5785 5.21496C21.0962 4.07871 19.9265 2.90893 18.7902 3.4267L13.9239 5.6442L9.98098 2.03145C9.06034 1.1879 7.58633 1.93895 7.72764 3.17959L8.33284 8.49298L3.67848 11.1265C2.59173 11.7414 2.85052 13.3754 4.0741 13.6243L8.42885 14.5105L2.21967 20.7197C1.92678 21.0126 1.92678 21.4874 2.21967 21.7803C2.51256 22.0732 2.98744 22.0732 3.28033 21.7803L9.49292 15.5677L10.3808 19.9311C10.6298 21.1546 12.2638 21.4134 12.8787 20.3267L15.5122 15.6723L20.8256 16.2775C22.0662 16.4188 22.8173 14.9448 21.9737 14.0242L18.361 10.0813L20.5785 5.21496ZM14.4555 7.05033L19.0472 4.958L16.9548 9.54963C16.7302 10.0426 16.822 10.622 17.1879 11.0214L20.5968 14.7418L15.5833 14.1707C15.0451 14.1094 14.5223 14.3758 14.2556 14.8472L11.7707 19.2389L10.7645 14.2943C10.6565 13.7635 10.2417 13.3486 9.71084 13.2406L4.7663 12.2345L9.15792 9.7496C9.62939 9.48284 9.89574 8.96009 9.83443 8.42187L9.2634 3.40841L12.9837 6.81722C13.3831 7.18318 13.9626 7.27496 14.4555 7.05033Z" fill="#161823"/>
</svg>
