<svg width="16" height="16" viewBox="0 0 16 16" fill="none" xmlns="http://www.w3.org/2000/svg">
<path d="M5.93333 2C4.54561 2 3.56667 3.27331 3.56667 4.65C3.56667 6.02669 4.54561 7.3 5.93333 7.3C7.32106 7.3 8.3 6.02669 8.3 4.65C8.3 3.27331 7.32106 2 5.93333 2ZM4.76667 4.65C4.76667 3.76232 5.36965 3.2 5.93333 3.2C6.49701 3.2 7.1 3.76232 7.1 4.65C7.1 5.53768 6.49701 6.1 5.93333 6.1C5.36965 6.1 4.76667 5.53768 4.76667 4.65Z" fill="#161823"/>
<path d="M13.8091 13.3H12.4538C12.3827 13.3 12.3341 13.2277 12.3578 13.1606C12.4668 12.8518 12.5236 12.5279 12.5321 12.2004C12.5335 12.145 12.5782 12.1 12.6336 12.1H13.8091C14.0802 12.1 14.3 11.8802 14.3 11.6091C14.3 11.0499 13.9857 10.488 13.3544 10.0422C12.8918 9.7157 12.2781 9.4691 11.5656 9.36068C11.5405 9.35686 11.5177 9.34382 11.5017 9.32412C11.1762 8.92376 10.7923 8.57428 10.3778 8.28217C10.3035 8.22988 10.3337 8.11214 10.4244 8.10779C10.532 8.10262 10.6406 8.10001 10.75 8.10001C12.0236 8.10001 13.1861 8.45452 14.0464 9.0619C14.9064 9.66904 15.5 10.5616 15.5 11.6091C15.5 12.543 14.743 13.3 13.8091 13.3Z" fill="#161823"/>
<path d="M2.14674 9.26313C3.12685 8.57258 4.45582 8.16666 5.91667 8.16666C7.37752 8.16666 8.70649 8.57258 9.68659 9.26313C10.6663 9.9534 11.3333 10.9612 11.3333 12.1364C11.3333 13.1656 10.499 14 9.4697 14H2.36364C1.33438 14 0.5 13.1656 0.5 12.1364C0.5 10.9612 1.16703 9.9534 2.14674 9.26313ZM2.8379 10.2441C2.08661 10.7734 1.7 11.4505 1.7 12.1364C1.7 12.5029 1.99712 12.8 2.36364 12.8H9.4697C9.83621 12.8 10.1333 12.5029 10.1333 12.1364C10.1333 11.4505 9.74672 10.7734 8.99544 10.2441C8.24456 9.71506 7.16519 9.36666 5.91667 9.36666C4.66814 9.36666 3.58878 9.71506 2.8379 10.2441Z" fill="#161823"/>
<path d="M11 2.83334C9.81199 2.83334 9 3.92335 9 5.06668C9 6.21001 9.81199 7.30001 11 7.30001C12.188 7.30001 13 6.21001 13 5.06668C13 3.92335 12.188 2.83334 11 2.83334ZM10.2 5.06668C10.2 4.40588 10.6416 4.03334 11 4.03334C11.3584 4.03334 11.8 4.40588 11.8 5.06668C11.8 5.72748 11.3584 6.10001 11 6.10001C10.6416 6.10001 10.2 5.72748 10.2 5.06668Z" fill="#161823"/>
</svg>
