<svg width="20" height="20" viewBox="0 0 20 20" fill="none" xmlns="http://www.w3.org/2000/svg">
<path d="M3.45801 3.20825C1.93923 3.20825 0.708008 4.43947 0.708008 5.95825V14.0416C0.708008 15.5604 1.93923 16.7916 3.45801 16.7916H5.50217C5.58697 16.6276 5.70154 16.4714 5.8483 16.3291L8.54922 13.7095C9.35735 12.9257 10.642 12.9257 11.4501 13.7095L14.151 16.3291C14.2978 16.4714 14.4124 16.6276 14.4972 16.7916H16.5413C18.0601 16.7916 19.2913 15.5604 19.2913 14.0416V5.95825C19.2913 4.43947 18.0601 3.20825 16.5413 3.20825H3.45801Z" fill="#161823"/>
<path d="M13.2808 17.2264C13.6032 17.5391 13.3818 18.0853 12.9327 18.0853H7.06668C6.61753 18.0853 6.39616 17.5391 6.71857 17.2264L9.41948 14.6068C9.42991 14.5966 9.44053 14.5869 9.45134 14.5774C9.73379 14.3302 10.1429 14.3057 10.4504 14.5039C10.4961 14.5333 10.5395 14.5676 10.5799 14.6068L13.2808 17.2264Z" fill="#161823"/>
</svg>
