<svg width="16" height="16" viewBox="0 0 16 16" fill="none" xmlns="http://www.w3.org/2000/svg">
<path d="M4.6 4.8C4.26863 4.8 4 5.06863 4 5.4C4 5.73137 4.26863 6 4.6 6H9C9.33137 6 9.6 5.73137 9.6 5.4C9.6 5.06863 9.33137 4.8 9 4.8H4.6Z" fill="#161823"/>
<path fill-rule="evenodd" clip-rule="evenodd" d="M1 3.6C1 2.71635 1.71634 2 2.6 2H11C11.8837 2 12.6 2.71634 12.6 3.6V9C12.6 9.88366 11.8837 10.6 11 10.6L4.2473 10.6L2.8751 11.9627C2.18104 12.6519 1 12.1603 1 11.1822V3.6ZM2.6 3.2C2.37909 3.2 2.2 3.37909 2.2 3.6V10.9419L3.40174 9.74852C3.62654 9.52528 3.93049 9.4 4.2473 9.4H11C11.2209 9.4 11.4 9.22091 11.4 9V3.6C11.4 3.37909 11.2209 3.2 11 3.2H2.6Z" fill="#161823"/>
<path d="M5.0876 11.9235C5.06623 11.8617 5.11406 11.8 5.17941 11.8H12.0546C12.3719 11.8007 12.6761 11.9271 12.9006 12.1516L13.8 13.0512L13.8 4.9794C13.8 4.91405 13.8618 4.86623 13.9235 4.8876C14.5501 5.10445 15 5.69968 15 6.39999V13.2927C15 14.2727 13.815 14.7635 13.1221 14.0704L12.0519 13H6.6C5.89968 13 5.30445 12.5501 5.0876 11.9235Z" fill="#161823"/>
</svg>
