<svg width="20" height="20" viewBox="0 0 20 20" fill="none" xmlns="http://www.w3.org/2000/svg">
<path d="M17.7381 3.40195C17.8101 2.99403 17.5378 2.605 17.1299 2.53302C16.722 2.46104 16.3329 2.73337 16.261 3.14128L14.3352 14.0547C14.1969 14.8386 13.4038 15.5028 12.6292 15.5028H4.48889C3.82011 15.5028 3.39141 15.0021 3.51252 14.3153L4.81907 6.93172C4.95753 6.14744 5.7506 5.48333 6.52521 5.48333H8.74955C9.16376 5.48333 9.49955 5.14754 9.49955 4.73332C9.49955 4.31911 9.16376 3.98332 8.74955 3.98332H6.52521C5.01219 3.98332 3.60517 5.18061 3.34191 6.67093L2.03533 14.0547C1.75525 15.6424 2.8696 17.0028 4.48889 17.0028H12.6292C14.142 17.0028 15.5494 15.8058 15.8123 14.3153L17.7381 3.40195Z" fill="#161823"/>
<path d="M12.4822 5.63838C12.8899 5.71153 13.1611 6.10133 13.0879 6.50904L11.9793 12.6884C11.9061 13.0961 11.5163 13.3673 11.1086 13.2941C10.7009 13.221 10.4297 12.8312 10.5029 12.4235L11.6115 6.24415C11.6846 5.83645 12.0744 5.56523 12.4822 5.63838Z" fill="#161823"/>
<path d="M8.27794 7.51846C8.68553 7.59221 8.95617 7.98242 8.88241 8.39002L8.09671 12.7322C8.02296 13.1398 7.63275 13.4105 7.22515 13.3367C6.81755 13.263 6.54692 12.8728 6.62067 12.4652L7.40638 8.12294C7.48013 7.71534 7.87034 7.44471 8.27794 7.51846Z" fill="#161823"/>
</svg>
