<svg width="16" height="16" viewBox="0 0 16 16" fill="none" xmlns="http://www.w3.org/2000/svg">
<path fill-rule="evenodd" clip-rule="evenodd" d="M5.59963 1.69995C5.931 1.69995 6.19963 1.96858 6.19963 2.29995V2.66602H9.99963V2.29995C9.99963 1.96858 10.2683 1.69995 10.5996 1.69995C10.931 1.69995 11.1996 1.96858 11.1996 2.29995V2.66602H11.3662C12.885 2.66602 14.1162 3.89723 14.1162 5.41602V11.2494C14.1162 12.7681 12.885 13.9993 11.3662 13.9993H4.86621C3.34743 13.9993 2.11621 12.7681 2.11621 11.2493V5.41601C2.11621 3.89723 3.34743 2.66602 4.86621 2.66602H4.99963V2.29995C4.99963 1.96858 5.26826 1.69995 5.59963 1.69995ZM9.99963 3.86602V4.55162C9.99963 4.88299 10.2683 5.15162 10.5996 5.15162C10.931 5.15162 11.1996 4.88299 11.1996 4.55162V3.86602H11.3662C12.2223 3.86602 12.9162 4.55997 12.9162 5.41602V6.40002H3.31621V5.41601C3.31621 4.55997 4.01017 3.86602 4.86621 3.86602H4.99963V4.55162C4.99963 4.88299 5.26826 5.15162 5.59963 5.15162C5.931 5.15162 6.19963 4.88299 6.19963 4.55162V3.86602H9.99963ZM3.31621 7.60002V11.2493C3.31621 12.1054 4.01017 12.7993 4.86621 12.7993H11.3662C12.2223 12.7993 12.9162 12.1054 12.9162 11.2494V7.60002H3.31621Z" fill="#161823"/>
</svg>
