<svg width="20" height="20" viewBox="0 0 20 20" fill="none" xmlns="http://www.w3.org/2000/svg">
<path d="M13.5173 16.0832C13.6573 16.0832 13.7958 16.0779 13.9327 16.0674L15.4548 17.1636C15.6985 17.3448 16.0445 17.1709 16.0445 16.8672L16.1293 15.483C17.418 14.744 18.3884 13.4925 18.3884 11.97C18.3884 9.69829 16.2837 7.85672 13.6875 7.85672C11.0913 7.85672 8.9866 9.69829 8.9866 11.97C8.9866 14.2417 10.9211 16.0832 13.5173 16.0832Z" fill="#161823"/>
<path d="M8.2558 14.9466C7.70479 14.0919 7.3866 13.0791 7.3866 11.97C7.3866 8.62062 10.415 6.25672 13.6875 6.25672C14.1415 6.25672 14.5909 6.30222 15.0281 6.38955C13.946 4.24598 11.495 2.75 8.64475 2.75C4.79266 2.75 1.66992 5.48239 1.66992 8.85296C1.66992 10.892 2.81276 12.6975 4.56855 13.8058V16.0413C4.56855 16.4641 5.02693 16.7276 5.39227 16.515L8.10185 14.9377C8.15301 14.9411 8.20433 14.9441 8.2558 14.9466Z" fill="#161823"/>
<path d="M15.5806 8.20388C15.0014 7.98065 14.361 7.85672 13.6875 7.85672C11.0913 7.85672 8.9866 9.69829 8.9866 11.97C8.9866 13.0683 9.43879 14.0661 10.1993 14.8038C13.3031 14.1856 15.6196 11.756 15.6196 8.85296C15.6196 8.63371 15.6064 8.41715 15.5806 8.20388Z" fill="#161823"/>
<path fill-rule="evenodd" clip-rule="evenodd" d="M13.5173 16.0832C10.9211 16.0832 8.9866 14.2417 8.9866 11.97C8.9866 9.69829 11.0913 7.85672 13.6875 7.85672C16.2837 7.85672 18.3884 9.69829 18.3884 11.97C18.3884 13.4925 17.418 14.744 16.1293 15.483L16.0445 16.8672C16.0445 17.1709 15.6985 17.3448 15.4548 17.1636L13.9327 16.0674C13.7958 16.0779 13.6573 16.0832 13.5173 16.0832Z" fill="#161823"/>
</svg>
