<svg width="24" height="24" viewBox="0 0 24 24" fill="none" xmlns="http://www.w3.org/2000/svg">
<path d="M12.3424 19.7856L12.3321 19.7925C12.1311 19.9282 11.8689 19.9282 11.6679 19.7925L11.6576 19.7856L11.6473 19.7789C9.06828 18.0991 7.00346 16.3054 5.59694 14.4923C4.19033 12.6792 3.5 10.9253 3.5 9.28133C3.5 6.28694 5.50334 4.5 7.74936 4.5C9.06463 4.5 10.0434 5.18891 10.669 6.37152L11.455 7.8572C11.679 8.28069 12.2846 8.28372 12.5128 7.8625L13.3137 6.38478C13.9642 5.18449 14.9405 4.5 16.2506 4.5C18.4967 4.5 20.5 6.28694 20.5 9.28133C20.5 10.9253 19.8097 12.6792 18.4031 14.4923C16.9965 16.3054 14.9317 18.0991 12.3527 19.7789L12.3424 19.7856ZM12.9589 4.35644C12.5832 4.73447 12.2615 5.17815 11.9949 5.67008C11.7338 5.17662 11.4143 4.7317 11.0388 4.35291C10.2077 3.51449 9.1023 3 7.74936 3C4.59847 3 2 5.53708 2 9.28133C2 13.4348 5.48849 17.5575 10.8286 21.0358C11.2379 21.312 11.688 21.5575 11.9949 21.5575C12.3018 21.5575 12.7621 21.312 13.1714 21.0358C18.5115 17.5575 22 13.4348 22 9.28133C22 5.53708 19.4015 3 16.2506 3C14.8958 3 13.7941 3.51594 12.9589 4.35644Z" fill="#161823"/>
</svg>
