<svg width="24" height="24" viewBox="0 0 24 24" fill="none" xmlns="http://www.w3.org/2000/svg">
<path d="M21.5895 6.70667L15.5005 3.74354C13.7812 2.90687 12.9215 2.48853 11.9999 2.48853C11.0783 2.48853 10.2186 2.90686 8.49933 3.74353L2.41021 6.70667C0.803404 7.48859 0 7.87955 0 8.50504C0 9.13053 0.803404 9.52149 2.41021 10.3034L4.41634 11.2797V16.1267C4.41634 17.162 4.41634 17.6796 4.64065 18.1124C4.68392 18.1959 4.73302 18.2762 4.78759 18.3528C5.0705 18.7498 5.5312 18.9858 6.4526 19.4579C8.98186 20.7538 10.2465 21.4017 11.6044 21.4844C11.8676 21.5005 12.1316 21.5005 12.3948 21.4844C13.7527 21.4017 15.0174 20.7538 17.5466 19.4579C18.468 18.9858 18.9287 18.7498 19.2116 18.3528C19.2662 18.2762 19.3153 18.1959 19.3586 18.1124C19.5829 17.6796 19.5829 17.162 19.5829 16.1267V11.2799L21.7999 10.201V14.3531C21.3241 14.6046 20.9999 15.1045 20.9999 15.6801V17.4306C20.9999 18.0289 21.4849 18.5139 22.0832 18.5139H22.9165C23.5149 18.5139 23.9999 18.0289 23.9999 17.4306V15.6801C23.9999 15.1458 23.7205 14.6768 23.2999 14.4111V9.40972C23.7664 9.11101 23.9997 8.84207 23.9997 8.50504C23.9997 7.87955 23.1963 7.48859 21.5895 6.70667ZM20.9332 8.05545C21.3011 8.23452 21.6 8.38077 21.844 8.50504C21.6 8.62931 21.3011 8.77556 20.9332 8.95463L14.8441 11.9178C12.9934 12.8184 12.4948 13.0216 11.9999 13.0216C11.505 13.0216 11.0064 12.8184 9.15568 11.9178L3.06656 8.95463C2.69858 8.77556 2.39973 8.62931 2.15567 8.50504C2.39973 8.38077 2.69858 8.23452 3.06657 8.05545L9.15568 5.0923C11.0064 4.1917 11.505 3.98852 11.9999 3.98853C12.4948 3.98853 12.9934 4.1917 14.8441 5.09231L20.9332 8.05545ZM18.0829 12.0099V16.1267C18.0829 16.6708 18.0815 16.981 18.0608 17.2116C18.0484 17.3507 18.0325 17.4067 18.0268 17.4222C18.016 17.4431 18.0038 17.4632 17.9901 17.4823C17.9789 17.4944 17.9363 17.5341 17.8182 17.6086C17.6223 17.7322 17.3469 17.8749 16.8626 18.1229C14.2152 19.4794 13.2744 19.9281 12.3036 19.9872C12.1011 19.9996 11.8981 19.9996 11.6956 19.9872C10.7248 19.9281 9.78407 19.4794 7.13658 18.1229C6.65235 17.8749 6.37691 17.7322 6.18106 17.6086C6.06297 17.5341 6.02038 17.4944 6.00915 17.4823C5.99551 17.4632 5.98319 17.4431 5.97238 17.4222C5.96674 17.4067 5.95085 17.3507 5.93839 17.2116C5.91772 16.981 5.91634 16.6708 5.91634 16.1267V12.0096L8.49933 13.2666C10.2186 14.1032 11.0783 14.5216 11.9999 14.5216C12.9215 14.5216 13.7811 14.1032 15.5005 13.2665L18.0829 12.0099Z" fill="#161823"/>
</svg>
