<svg width="12" height="12" viewBox="0 0 12 12" fill="none" xmlns="http://www.w3.org/2000/svg">
<g clip-path="url(#clip0_283_40)">
<path d="M4.05025 9.378C4.79381 9.80709 5.65818 9.97884 6.5093 9.86663C7.36042 9.75442 8.15074 9.36451 8.75769 8.75737C9.36464 8.15023 9.7543 7.35979 9.86624 6.50864C9.97819 5.65748 9.80616 4.79316 9.37684 4.04973C8.94751 3.30631 8.28489 2.72531 7.49172 2.39684C6.69856 2.06837 5.81917 2.01079 4.98995 2.23303C4.16072 2.45527 3.42799 2.9449 2.9054 3.626C2.48307 4.17642 2.21704 4.82703 2.13051 5.50952H2.57935C2.89881 5.50952 3.08937 5.86555 2.91218 6.13137L1.83066 7.75395C1.67234 7.99148 1.32331 7.99148 1.16498 7.75395L0.0834592 6.13137C-0.0937253 5.86555 0.096834 5.50952 0.416297 5.50952H0.92318C1.01472 4.56219 1.37002 3.65577 1.95335 2.89551C2.63675 2.00484 3.59493 1.36455 4.6793 1.07394C5.76368 0.783317 6.91364 0.858615 7.95086 1.28815C8.98807 1.71768 9.85458 2.47745 10.416 3.44963C10.9774 4.4218 11.2024 5.55206 11.056 6.66511C10.9096 7.77817 10.4001 8.81182 9.60635 9.60577C8.81265 10.3997 7.77916 10.9096 6.66615 11.0563C5.55314 11.2031 4.42282 10.9785 3.45046 10.4174C3.16345 10.2517 3.06505 9.8848 3.23068 9.59779C3.3963 9.31077 3.76324 9.21237 4.05025 9.378Z" fill="#161823"/>
<path d="M7.5153 6.33043C7.74803 6.17163 7.74803 5.82841 7.5153 5.66961L5.59141 4.35689C5.3259 4.17573 4.96596 4.36587 4.96596 4.68731V7.31273C4.96596 7.63416 5.3259 7.82431 5.59141 7.64315L7.5153 6.33043Z" fill="#161823"/>
</g>
<defs>
<clipPath id="clip0_283_40">
<rect width="12" height="12" fill="white"/>
</clipPath>
</defs>
</svg>
