<svg width="20" height="20" viewBox="0 0 20 20" fill="none" xmlns="http://www.w3.org/2000/svg">
<path d="M14.5 6.6668C15.1441 6.6668 15.6662 6.14467 15.6662 5.50058C15.6662 4.85649 15.1441 4.33435 14.5 4.33435C13.8559 4.33435 13.3337 4.85649 13.3337 5.50058C13.3337 6.14467 13.8559 6.6668 14.5 6.6668Z" fill="#161823"/>
<path d="M17.6367 9.96442C18.0531 9.54807 18.2896 8.9851 18.2956 8.39632L18.3407 3.96869C18.3534 2.71717 17.3424 1.6958 16.0908 1.6958H11.7389C11.1421 1.6958 10.5698 1.93285 10.1479 2.35481L6.78179 5.7209L3.44737 2.38648C3.15448 2.09359 2.67961 2.09359 2.38671 2.38648C2.10926 2.66394 2.09463 3.1047 2.34284 3.39937C7.08033 8.13686 11.8159 12.8763 16.5534 17.6138C16.8463 17.9067 17.3211 17.9067 17.614 17.6138C17.9069 17.3209 17.9069 16.846 17.614 16.5532L14.331 13.2701L17.6367 9.96442ZM13.2703 12.2095L7.84245 6.78156L11.2085 3.41547C11.3492 3.27482 11.54 3.1958 11.7389 3.1958L16.0908 3.1958C16.508 3.1958 16.845 3.53626 16.8407 3.95343L16.7957 8.38106C16.7937 8.57732 16.7148 8.76498 16.576 8.90376L13.2703 12.2095Z" fill="#161823"/>
<path d="M1.47835 11.0243L4.66242 7.84027L5.72308 8.90093L2.53901 12.085C2.24611 12.3779 2.24611 12.8528 2.53901 13.1457L6.90624 17.5129C7.19914 17.8058 7.67401 17.8058 7.9669 17.5129L11.151 14.3288L12.2116 15.3895L9.02756 18.5736C8.14888 19.4522 6.72426 19.4522 5.84558 18.5736L1.47835 14.2063C0.599665 13.3276 0.599667 11.903 1.47835 11.0243Z" fill="#161823"/>
</svg>
