<svg width="24" height="24" viewBox="0 0 24 24" fill="none" xmlns="http://www.w3.org/2000/svg">
<path d="M17.3993 7.9999C18.1722 7.9999 18.7987 7.37334 18.7987 6.60043C18.7987 5.82753 18.1722 5.20096 17.3993 5.20096C16.6264 5.20096 15.9998 5.82753 15.9998 6.60043C15.9998 7.37334 16.6264 7.9999 17.3993 7.9999Z" fill="#161823"/>
<path d="M21.2671 11.6333C21.6835 11.2169 21.92 10.6539 21.926 10.0652L21.985 4.27338C21.9977 3.02186 20.9867 2.00049 19.7351 2.00049H14.0329C13.4362 2.00049 12.8639 2.23754 12.4419 2.6595L8.08096 7.02045L4.03009 2.96958C3.73719 2.67669 3.26232 2.67669 2.96943 2.96958C2.67653 3.26247 2.67653 3.73735 2.96943 4.03024L7.0203 8.08111L7.01886 8.08255L8.07952 9.14321L8.08096 9.14177L14.8591 15.9199L14.8577 15.9214L15.9184 16.982L15.9198 16.9806L19.9694 21.0302C20.2623 21.3231 20.7372 21.3231 21.0301 21.0302C21.323 20.7373 21.323 20.2625 21.0301 19.9696L16.9805 15.9199L21.2671 11.6333ZM13.5026 3.72016C13.6432 3.57951 13.834 3.50049 14.0329 3.50049L19.7351 3.50049C20.1523 3.50049 20.4893 3.84094 20.485 4.25812L20.4261 10.0499C20.4241 10.2462 20.3453 10.4338 20.2065 10.5726L15.9198 14.8593L9.14162 8.08111L13.5026 3.72016Z" fill="#161823"/>
<path d="M14.8577 18.0427L10.5556 22.3448C9.6769 23.2235 8.25227 23.2235 7.37359 22.3448L1.65608 16.6273C0.777401 15.7486 0.7774 14.324 1.65608 13.4453L5.95819 9.14321L7.01885 10.2039L2.71674 14.506C2.42385 14.7989 2.42385 15.2738 2.71674 15.5667L8.43425 21.2842C8.72715 21.5771 9.20202 21.5771 9.49492 21.2842L13.797 16.982L14.8577 18.0427Z" fill="#161823"/>
</svg>
