<svg width="16" height="16" viewBox="0 0 16 16" fill="none" xmlns="http://www.w3.org/2000/svg">
<path d="M7.83897 0.756333C7.94642 0.72574 8.06028 0.725754 8.16772 0.756374L14.1648 2.46551C14.4226 2.53897 14.6004 2.77449 14.6004 3.04253V6.54754C14.6004 10.4994 12.0088 13.9949 8.18675 15.2373C8.06622 15.2765 7.93637 15.2765 7.81583 15.2374C3.99277 13.995 1.40039 10.4987 1.40039 6.54592V3.04253C1.40039 2.77444 1.57824 2.53888 1.83609 2.46546L7.83897 0.756333ZM6.34773 7.84961C6.05032 7.56131 5.5755 7.56869 5.2872 7.86611C4.9989 8.16352 5.00628 8.63833 5.30369 8.92664L7.13954 10.7063C7.29689 10.8588 7.51308 10.9349 7.73127 10.9145C7.94947 10.8941 8.14784 10.7794 8.27423 10.6003L11.4471 6.10661C11.6861 5.76824 11.6054 5.30026 11.2671 5.06135C10.9287 4.82244 10.4607 4.90306 10.2218 5.24143L7.55436 9.01928L6.34773 7.84961Z" fill="#161823"/>
</svg>
