<svg width="20" height="20" viewBox="0 0 20 20" fill="none" xmlns="http://www.w3.org/2000/svg">
<path d="M6.50035 11.25C6.50035 10.7529 6.90329 10.35 7.40035 10.35H9.1003V8.65C9.1003 8.15294 9.50324 7.75 10.0003 7.75C10.4974 7.75 10.9003 8.15294 10.9003 8.65V10.35H12.6004C13.0974 10.35 13.5004 10.7529 13.5004 11.25C13.5004 11.747 13.0974 12.15 12.6004 12.15H10.9003V13.85C10.9003 14.3471 10.4974 14.75 10.0003 14.75C9.50324 14.75 9.1003 14.3471 9.1003 13.85V12.15H7.40035C6.90329 12.15 6.50035 11.747 6.50035 11.25Z" fill="#161823"/>
<path d="M3.66699 2.5C2.56242 2.5 1.66699 3.39543 1.66699 4.5V15.5C1.66699 16.6046 2.56242 17.5 3.66699 17.5H16.3337C17.4382 17.5 18.3337 16.6046 18.3337 15.5V7.33333C18.3337 5.81455 17.1024 4.58333 15.5837 4.58333H11.6622C11.1318 4.58333 10.6231 4.37262 10.248 3.99755L9.33627 3.08579C8.96119 2.71071 8.45248 2.5 7.92205 2.5H3.66699ZM16.8337 15.5C16.8337 15.7761 16.6098 16 16.3337 16H3.66699C3.39085 16 3.16699 15.7761 3.16699 15.5V4.5C3.16699 4.22386 3.39085 4 3.66699 4H7.92205C8.05466 4 8.18184 4.05268 8.27561 4.14645L9.18737 5.05821C9.84374 5.71459 10.734 6.08333 11.6622 6.08333H15.5837C16.274 6.08333 16.8337 6.64298 16.8337 7.33333V15.5Z" fill="#161823"/>
</svg>
