<svg width="24" height="24" viewBox="0 0 24 24" fill="none" xmlns="http://www.w3.org/2000/svg">
<path fill-rule="evenodd" clip-rule="evenodd" d="M2.0166 7.7666C2.0166 5.69553 3.69553 4.0166 5.7666 4.0166H18.2333C20.3043 4.0166 21.9833 5.69553 21.9833 7.7666V8.47052L21.9834 8.47051V9.44337C21.9834 9.74263 21.7487 9.98338 21.4665 10.0831C20.6693 10.3649 20.0999 11.1252 20.0999 12.0167C20.0999 12.7696 20.5059 13.4278 21.1109 13.7842C21.56 14.0488 21.9834 14.4616 21.9834 14.9828V15.5628L21.9833 15.5628V16.1999C21.9833 18.271 20.3043 19.9499 18.2333 19.9499H5.7666C3.69553 19.9499 2.0166 18.271 2.0166 16.1999V14.794L2.01727 14.794C2.01727 14.3759 2.3474 14.0412 2.72236 13.8562C3.40026 13.5218 3.8666 12.8237 3.8666 12.0167C3.8666 11.2215 3.41392 10.5321 2.75221 10.1921C2.36346 9.99238 2.01727 9.64295 2.01727 9.20588L2.0166 9.20584V7.7666ZM20.4833 7.7666V8.88164C19.3634 9.47821 18.5999 10.6575 18.5999 12.0167C18.5999 13.3749 19.3627 14.555 20.4833 15.1519V16.1999C20.4833 17.4426 19.4759 18.4499 18.2333 18.4499H5.7666C4.52396 18.4499 3.5166 17.4426 3.5166 16.1999V15.1339C4.61892 14.5315 5.3666 13.3614 5.3666 12.0167C5.3666 10.6719 4.61892 9.50183 3.5166 8.89941V7.7666C3.5166 6.52396 4.52396 5.5166 5.7666 5.5166H18.2333C19.4759 5.5166 20.4833 6.52396 20.4833 7.7666ZM9.51605 9.73431C9.51605 9.3201 9.18026 8.98431 8.76605 8.98431C8.35183 8.98431 8.01605 9.3201 8.01605 9.73431V13.9343C8.01605 14.3485 8.35183 14.6843 8.76605 14.6843C9.18026 14.6843 9.51605 14.3485 9.51605 13.9343V9.73431Z" fill="#161823"/>
</svg>
