<svg width="24" height="24" viewBox="0 0 24 24" fill="none" xmlns="http://www.w3.org/2000/svg">
<path d="M6.79275 12.8598C6.88133 12.8047 6.84098 12.6658 6.73685 12.6725C5.24431 12.7686 3.86387 13.1788 2.77661 13.8526C1.54311 14.6171 0.5 15.863 0.5 17.4862V17.9032C0.5 19.1921 1.54492 20.2371 2.83389 20.2371H3.64337C3.71432 20.2371 3.76281 20.1652 3.73862 20.0985C3.59526 19.7032 3.51242 19.279 3.50129 18.837C3.4999 18.7818 3.45527 18.7371 3.40007 18.7371H2.83389C2.37335 18.7371 2 18.3637 2 17.9032V17.4862C2 16.2079 3.14192 15.0975 4.85974 14.5375C5.40251 13.8727 6.06509 13.3128 6.79275 12.8598Z" fill="#161823"/>
<path d="M8.98036 10.3837C9.01308 10.4293 9.00331 10.4931 8.95657 10.5241C8.50714 10.8221 7.98172 10.9934 7.4203 10.9934C5.76235 10.9934 4.4183 9.5 4.4183 7.65782C4.4183 5.81564 5.76235 4.32227 7.4203 4.32227C7.74518 4.32227 8.05801 4.37961 8.35103 4.48568C8.40489 4.50517 8.42895 4.56693 8.40565 4.61924C8.23364 5.0054 8.10251 5.41362 8.01692 5.8356C8.00355 5.9015 7.93097 5.93731 7.86851 5.9124C7.71924 5.85287 7.56675 5.82227 7.4203 5.82227C6.73552 5.82227 5.9183 6.4915 5.9183 7.65782C5.9183 8.82414 6.73552 9.49338 7.4203 9.49338C7.67543 9.49338 7.94893 9.40049 8.19171 9.22361C8.24768 9.18283 8.32946 9.20278 8.35627 9.26662C8.52313 9.66393 8.7328 10.0392 8.98036 10.3837Z" fill="#161823"/>
<path d="M13 11C14.9882 11 16.6 9.20914 16.6 7C16.6 4.79086 14.9882 3 13 3C11.0118 3 9.40002 4.79086 9.40002 7C9.40002 9.20914 11.0118 11 13 11ZM13 9.5C11.985 9.5 10.9 8.53328 10.9 7C10.9 5.46672 11.985 4.5 13 4.5C14.0151 4.5 15.1 5.46672 15.1 7C15.1 8.53328 14.0151 9.5 13 9.5Z" fill="#161823"/>
<path d="M7.58872 13.8966C9.03423 13.0007 10.9441 12.5 13 12.5C13.5381 12.5 14.0663 12.5343 14.5787 12.601C14.6723 12.6132 14.6956 12.7358 14.6139 12.783L13.925 13.1807C13.5701 13.3856 13.2633 13.6519 13.0149 13.9617C12.9956 13.9857 12.9663 14 12.9355 14.0002C9.31034 14.0211 6.5 15.8039 6.5 18V18.5C6.5 19.0523 6.94771 19.5 7.5 19.5H12.2134C12.2661 19.5 12.3096 19.5409 12.3145 19.5933C12.3565 20.0371 12.4889 20.4621 12.6979 20.8447C12.7355 20.9135 12.687 21 12.6086 21H7.5C6.11929 21 5 19.8807 5 18.5V18C5 16.1933 6.16121 14.7813 7.58872 13.8966Z" fill="#161823"/>
<path d="M19.8405 17.6377C19.8405 18.4329 19.1957 19.0777 18.4004 19.0777C17.6052 19.0777 16.9604 18.4329 16.9604 17.6377C16.9604 16.8424 17.6052 16.1977 18.4004 16.1977C19.1957 16.1977 19.8405 16.8424 19.8405 17.6377Z" fill="#161823"/>
<path d="M17.5254 12.8349C18.0669 12.5223 18.734 12.5223 19.2754 12.8349L22.1258 14.4805C22.6673 14.7931 23.0008 15.3709 23.0008 15.9961V19.2874C23.0008 19.9126 22.6673 20.4904 22.1258 20.803L19.2754 22.4486C18.734 22.7613 18.0669 22.7613 17.5254 22.4486L14.675 20.803C14.1336 20.4904 13.8 19.9126 13.8 19.2874V15.9961C13.8 15.3709 14.1336 14.7931 14.675 14.4805L17.5254 12.8349ZM18.5254 14.1339C18.4481 14.0892 18.3528 14.0892 18.2754 14.1339L15.425 15.7796C15.3477 15.8242 15.3 15.9068 15.3 15.9961V19.2874C15.3 19.3767 15.3477 19.4593 15.425 19.5039L18.2754 21.1496C18.3528 21.1943 18.4481 21.1943 18.5254 21.1496L21.3758 19.5039C21.4532 19.4593 21.5008 19.3767 21.5008 19.2874V15.9961C21.5008 15.9068 21.4532 15.8242 21.3758 15.7796L18.5254 14.1339Z" fill="#161823"/>
</svg>
