<svg width="20" height="20" viewBox="0 0 20 20" fill="none" xmlns="http://www.w3.org/2000/svg">
<path d="M1.51692 8.8045C0.724827 9.40472 0.724831 10.5953 1.51692 11.1956L7.43079 15.6769C8.41869 16.4255 9.83672 15.7208 9.83672 14.4813V5.51867C9.83672 4.27917 8.41869 3.57454 7.43079 4.32314L1.51692 8.8045ZM2.42285 10L8.33672 5.51867V14.4813L2.42285 10Z" fill="#161823"/>
<path d="M10.4323 8.80451C9.64023 9.40474 9.64024 10.5954 10.4323 11.1956L16.3462 15.6769C17.3341 16.4255 18.7521 15.7208 18.7521 14.4813V5.51868C18.7521 4.27918 17.3341 3.57455 16.3462 4.32315L10.4323 8.80451ZM11.3383 10L17.2521 5.51868V14.4813L11.3383 10Z" fill="#161823"/>
</svg>
