<svg width="24" height="24" viewBox="0 0 24 24" fill="none" xmlns="http://www.w3.org/2000/svg">
<path d="M11 16.2C11 16.7523 11.4477 17.2 12 17.2C12.5523 17.2 13 16.7523 13 16.2V11.2C13 10.6477 12.5523 10.2 12 10.2C11.4477 10.2 11 10.6477 11 11.2V16.2Z" fill="#161823"/>
<path d="M12 7C12.6075 7 13.1 7.49248 13.1 8.1C13.1 8.70751 12.6075 9.2 12 9.2C11.3925 9.2 10.9 8.70751 10.9 8.1C10.9 7.49248 11.3925 7 12 7Z" fill="#161823"/>
<path fill-rule="evenodd" clip-rule="evenodd" d="M12 22C17.5228 22 22 17.5228 22 12C22 6.47715 17.5228 2 12 2C6.47715 2 2 6.47715 2 12C2 17.5228 6.47715 22 12 22ZM12 20.5C16.6944 20.5 20.5 16.6944 20.5 12C20.5 7.30558 16.6944 3.5 12 3.5C7.30558 3.5 3.5 7.30558 3.5 12C3.5 16.6944 7.30558 20.5 12 20.5Z" fill="#161823"/>
</svg>
