<svg width="20" height="20" viewBox="0 0 20 20" fill="none" xmlns="http://www.w3.org/2000/svg">
<path fill-rule="evenodd" clip-rule="evenodd" d="M18.3337 9.73617C18.3337 14.3385 14.6027 18.0695 10.0003 18.0695C5.39795 18.0695 1.66699 14.3385 1.66699 9.73617C1.66699 5.13379 5.39795 1.40283 10.0003 1.40283C14.6027 1.40283 18.3337 5.13379 18.3337 9.73617ZM6.47256 5.8473C6.25778 5.8473 6.08367 6.02141 6.08367 6.23619V7.29174C6.08367 7.50652 6.25778 7.68063 6.47256 7.68063H7.52811C7.74289 7.68063 7.917 7.50652 7.917 7.29174V6.23619C7.917 6.02141 7.74289 5.8473 7.52811 5.8473H6.47256ZM9.47256 5.8473C9.25778 5.8473 9.08367 6.02141 9.08367 6.23619V7.29174C9.08367 7.50652 9.25778 7.68063 9.47256 7.68063H10.5281C10.7429 7.68063 10.917 7.50652 10.917 7.29174V6.23619C10.917 6.02141 10.7429 5.8473 10.5281 5.8473H9.47256ZM12.0837 6.23619C12.0837 6.02141 12.2578 5.8473 12.4726 5.8473H13.5281C13.7429 5.8473 13.917 6.02141 13.917 6.23619V7.29174C13.917 7.50652 13.7429 7.68063 13.5281 7.68063H12.4726C12.2578 7.68063 12.0837 7.50652 12.0837 7.29174V6.23619ZM6.47256 8.8473C6.25778 8.8473 6.08367 9.02141 6.08367 9.23619V10.264C6.08367 10.4787 6.25778 10.6529 6.47256 10.6529H7.52811C7.74289 10.6529 7.917 10.4787 7.917 10.264V9.23619C7.917 9.02141 7.74289 8.8473 7.52811 8.8473H6.47256ZM9.08367 9.23619C9.08367 9.02141 9.25778 8.8473 9.47256 8.8473H10.5281C10.7429 8.8473 10.917 9.02141 10.917 9.23619V10.264C10.917 10.4787 10.7429 10.6529 10.5281 10.6529H9.47256C9.25778 10.6529 9.08367 10.4787 9.08367 10.264V9.23619ZM12.4726 8.8473C12.2578 8.8473 12.0837 9.02141 12.0837 9.23619V10.264C12.0837 10.4787 12.2578 10.6529 12.4726 10.6529H13.5281C13.7429 10.6529 13.917 10.4787 13.917 10.264V9.23619C13.917 9.02141 13.7429 8.8473 13.5281 8.8473H12.4726ZM6.08366 12.5973C6.08366 12.3825 6.25777 12.2084 6.47255 12.2084H13.5281C13.7429 12.2084 13.917 12.3825 13.917 12.5973V13.6528C13.917 13.8676 13.7429 14.0417 13.5281 14.0417H6.47255C6.25777 14.0417 6.08366 13.8676 6.08366 13.6528V12.5973Z" fill="#161823"/>
</svg>
