<svg width="16" height="16" viewBox="0 0 16 16" fill="none" xmlns="http://www.w3.org/2000/svg">
<path fill-rule="evenodd" clip-rule="evenodd" d="M15.0014 6.33684C15.0014 6.81415 14.8111 7.27185 14.4726 7.60895L7.66515 14.3878C6.8457 15.2038 5.51931 15.2041 4.69954 14.3884L1.61651 11.3208C0.793552 10.502 0.793141 9.17164 1.61559 8.35229L8.4687 1.525C8.80617 1.18881 9.26345 1 9.74021 1H13.9014C14.5089 1 15.0014 1.49162 15.0014 2.09806L15.0014 6.33684ZM11.38 5.77258C12.0165 5.77258 12.5325 5.25752 12.5325 4.62215C12.5325 3.98678 12.0165 3.47172 11.38 3.47172C10.7435 3.47172 10.2275 3.98678 10.2275 4.62215C10.2275 5.25752 10.7435 5.77258 11.38 5.77258Z" fill="#161823"/>
</svg>
