<svg width="17" height="17" viewBox="0 0 17 17" fill="none" xmlns="http://www.w3.org/2000/svg">
<path d="M8.47332 7.76742C10.0333 7.76742 11.2978 6.34477 11.2978 4.58984C11.2978 2.83492 10.0333 1.41227 8.47332 1.41227C6.91338 1.41227 5.64881 2.83492 5.64881 4.58984C5.64881 6.34477 6.91338 7.76742 8.47332 7.76742Z" fill="#161823"/>
<path d="M8.47333 8.61476C6.78528 8.61476 5.21561 9.03592 4.02706 9.7904C2.85015 10.5375 1.90634 11.7219 1.90634 13.2238V13.7695C1.90634 14.8614 2.79154 15.7466 3.8835 15.7466H8.12583C8.28078 13.6642 9.81993 11.9672 11.8263 11.5726C11.6708 10.8305 11.9447 10.0451 12.5257 9.55996C11.3941 8.95069 9.98091 8.61476 8.47333 8.61476Z" fill="#161823"/>
<path d="M13.3609 16.487C13.092 16.2181 13.092 15.7822 13.3609 15.5133L14.6343 14.2398H12.7205C11.6968 14.2398 10.8669 15.0697 10.8669 16.0934V16.3115C10.8669 16.6918 10.5586 17 10.1784 17C9.79817 17 9.48993 16.6918 9.48993 16.3115V16.0934C9.48993 14.3092 10.9363 12.8629 12.7205 12.8629H14.5899L13.3609 11.6338C13.092 11.365 13.092 10.9291 13.3609 10.6602C13.6297 10.3913 14.0656 10.3913 14.3345 10.6602L16.7611 13.0868C17.0299 13.3556 17.0299 13.7915 16.7611 14.0604L14.3345 16.487C14.0656 16.7558 13.6297 16.7558 13.3609 16.487Z" fill="#161823"/>
</svg>
