<svg width="20" height="20" viewBox="0 0 20 20" fill="none" xmlns="http://www.w3.org/2000/svg">
<path fill-rule="evenodd" clip-rule="evenodd" d="M8.73575 2.30808C9.17308 1.13852 10.8274 1.13851 11.2647 2.30808L12.8359 6.5099L17.3176 6.70573C18.565 6.76024 19.0763 8.33359 18.0991 9.11093L14.5884 11.9036L15.7871 16.2265C16.1207 17.4297 14.7824 18.4021 13.7411 17.713L10.0002 15.2371L6.25938 17.713C5.21812 18.4021 3.87975 17.4297 4.21339 16.2265L5.41206 11.9036L1.90141 9.11093C0.924233 8.33359 1.43544 6.76024 2.68291 6.70573L7.16459 6.5099L8.73575 2.30808ZM10.0939 3.45968C10.0615 3.37305 9.93897 3.37305 9.90658 3.45968L8.53481 7.12824C8.34508 7.63564 7.87044 7.98048 7.32925 8.00413L3.41634 8.17511C3.32394 8.17915 3.28607 8.29569 3.35845 8.35327L6.42356 10.7915C6.8475 11.1288 7.02879 11.6868 6.88405 12.2088L5.8375 15.983C5.81279 16.0721 5.91193 16.1442 5.98906 16.0931L9.25517 13.9315C9.7069 13.6325 10.2936 13.6325 10.7453 13.9315L14.0114 16.0931C14.0886 16.1442 14.1877 16.0721 14.163 15.983L13.1164 12.2088C12.9717 11.6868 13.153 11.1288 13.5769 10.7915L16.642 8.35327C16.7144 8.29569 16.6765 8.17915 16.5841 8.17511L12.6712 8.00413C12.13 7.98048 11.6554 7.63564 11.4657 7.12824L10.0939 3.45968Z" fill="#161823"/>
</svg>
