<svg width="24" height="24" viewBox="0 0 24 24" fill="none" xmlns="http://www.w3.org/2000/svg">
<path d="M4.75 5.89839C3.64543 5.89839 2.75 6.79382 2.75 7.89839V12.9418C2.75 14.0464 3.64543 14.9418 4.75 14.9418H9.85799C10.9059 14.9418 11.9356 15.2163 12.8445 15.7379L16.3029 17.7227C17.1696 18.2201 18.25 17.5944 18.25 16.5952V4.24504C18.25 3.2458 17.1696 2.62015 16.3029 3.11753L12.8445 5.1023C11.9356 5.62392 10.9059 5.89839 9.858 5.89839H4.75Z" fill="#161823"/>
<path d="M22 10.4201C22 11.9127 21.0657 13.1871 19.75 13.6903V7.14986C21.0657 7.65306 22 8.92744 22 10.4201Z" fill="#161823"/>
<path d="M8.21495 21.4136L5.34448 16.4418H9.85798C9.8865 16.4418 9.915 16.4421 9.94348 16.4426L11.6638 19.4224C12.2137 20.3748 11.8874 21.5926 10.935 22.1424C9.98262 22.6923 8.76481 22.366 8.21495 21.4136Z" fill="#161823"/>
</svg>
