<svg width="24" height="24" viewBox="0 0 24 24" fill="none" xmlns="http://www.w3.org/2000/svg">
<path d="M14.2517 3.75C14.2517 3.33579 14.5875 3 15.0017 3H20.2504C20.6646 3 21.0004 3.33579 21.0004 3.75V9C21.0004 9.41421 20.6646 9.75 20.2504 9.75C19.8361 9.75 19.5004 9.41421 19.5004 9V5.56078L14.8172 10.2439C14.5243 10.5368 14.0495 10.5368 13.7566 10.2439C13.4637 9.95099 13.4637 9.47611 13.7566 9.18322L18.4398 4.5H15.0017C14.5875 4.5 14.2517 4.16421 14.2517 3.75Z" fill="#161823"/>
<path d="M6.37379 17.6708C7.74233 19.0393 9.22774 20.2377 10.7107 21.0984C12.1846 21.9539 13.7108 22.5073 15.1455 22.5073C16.4816 22.5073 17.6531 22.0244 18.59 20.9998L18.5923 20.9972C19.1427 20.3896 19.5491 19.6221 19.5508 18.7976C19.5585 18.1382 19.2805 17.4764 18.6625 17.027L15.9828 15.1252C15.5235 14.7937 15.0237 14.5591 14.4843 14.5658C13.7683 14.5601 13.2238 14.9872 12.8091 15.402L12.3273 15.8837C11.853 15.5692 11.012 14.8865 10.085 13.9596C9.13202 13.0066 8.45377 12.1945 8.17118 11.7287L8.65395 11.2364L8.65712 11.2332C9.06191 10.8153 9.48485 10.2714 9.48485 9.5648C9.48485 9.02589 9.25615 8.52828 8.91921 8.06162L8.91729 8.05896L7.04711 5.42589C6.58291 4.77226 5.90149 4.50873 5.23107 4.50002L5.22939 4.5C4.40906 4.49118 3.63197 4.88379 3.02146 5.46488L3.02012 5.46616C2.00455 6.43757 1.57422 7.64664 1.57422 8.93607C1.57422 10.3685 2.11677 11.8845 2.96384 13.351C3.8156 14.8256 5.00521 16.3022 6.37379 17.6708ZM15.1455 21.0073C14.0776 21.0073 12.8176 20.5869 11.4637 19.8011C10.1189 19.0206 8.73495 17.9106 7.43445 16.6101C6.13399 15.3097 5.03365 13.9354 4.26272 12.6007C3.4871 11.2579 3.07422 10.0062 3.07422 8.93607C3.07422 8.0067 3.37108 7.20646 4.05639 6.55066C4.46845 6.15875 4.88644 5.99673 5.21228 5.9999C5.49074 6.00367 5.68443 6.0977 5.8242 6.29451L7.69805 8.93274L7.70176 8.93788C8.07473 9.45368 8.01927 9.73536 7.58126 10.1879L7.57976 10.1895L6.94655 10.8352L6.93349 10.85C6.55426 11.2798 6.54082 11.8714 6.80467 12.3614L6.80804 12.3675C7.16565 13.017 8.00385 13.9997 9.02434 15.0202C10.0622 16.0581 11.0515 16.8604 11.6379 17.2234L11.6491 17.2303L11.6626 17.238C11.7573 17.2922 12.0425 17.4552 12.4089 17.434C12.6629 17.4284 12.9797 17.3526 13.2472 17.0852L13.8697 16.4626C14.2292 16.1032 14.3955 16.0646 14.4744 16.0658L14.4875 16.066L14.5006 16.0657C14.5839 16.0641 14.7691 16.0987 15.1067 16.3428L17.7832 18.2423C17.975 18.3831 18.0538 18.5688 18.0508 18.7818V18.7924C18.0508 19.1245 17.8786 19.5503 17.4817 19.9889C16.8408 20.6893 16.0772 21.0073 15.1455 21.0073Z" fill="#161823"/>
</svg>
