<svg width="20" height="20" viewBox="0 0 20 20" fill="none" xmlns="http://www.w3.org/2000/svg">
<path d="M1.55304 1.553C1.84594 1.2601 2.32081 1.2601 2.6137 1.553L4.15099 3.09028C4.42462 3.03114 4.70867 3 5 3H15C17.2091 3 19 4.79086 19 7V13C19 14.3443 18.3368 15.5338 17.3197 16.259L18.447 17.3863C18.7399 17.6792 18.7399 18.1541 18.447 18.447C18.1541 18.7399 17.6793 18.7399 17.3864 18.447L15.8491 16.9097L15.8479 16.91L12.2379 13.3H12.7518C14.7 13.3 15.7303 12.1477 15.7303 9.96992C15.7303 7.78731 14.7 6.63496 12.7518 6.63496H11.199C10.6131 6.63496 10.3201 6.91328 10.3201 7.47969V11.3822L8.69788 9.75997L7.89551 7.46016C7.68555 6.83516 7.39258 6.58125 6.84082 6.58125C6.43546 6.58125 6.16734 6.71849 5.97046 7.03256L2.67945 3.74154L2.68031 3.74093L1.55304 2.61366C1.26015 2.32077 1.26015 1.84589 1.55304 1.553Z" fill="#161823"/>
<path d="M1.64211 4.82552C1.23591 5.4515 1 6.1982 1 7V13C1 15.2091 2.79086 17 5 17H13.8166L9.67381 12.8572C9.64076 13.1655 9.40131 13.3586 9.05273 13.3586C8.69629 13.3586 8.49121 13.173 8.35938 12.7189L7.9834 11.5861H5.64453L5.27344 12.7189C5.13672 13.1779 4.94141 13.3586 4.58984 13.3586C4.22852 13.3586 3.97949 13.1389 3.97949 12.8068C3.97949 12.675 4.01367 12.5236 4.09668 12.2746L5.38849 8.57191L1.64211 4.82552Z" fill="#161823"/>
<path d="M5.9375 10.6047L6.29312 9.47653L7.42127 10.6047H5.9375Z" fill="#161823"/>
<path d="M6.84728 7.90938L6.85209 7.91419L6.85059 7.90938H6.84728Z" fill="#161823"/>
<path d="M11.6385 12.2209V7.70918H12.5857C13.8064 7.70918 14.3826 8.43184 14.3826 9.96992C14.3826 11.4982 13.8113 12.2209 12.5857 12.2209H11.6385Z" fill="#161823"/>
</svg>
