<svg width="16" height="16" viewBox="0 0 16 16" fill="none" xmlns="http://www.w3.org/2000/svg">
<path fill-rule="evenodd" clip-rule="evenodd" d="M7.99804 5.96802C6.74215 5.96802 5.5117 6.09972 4.43812 6.38477C3.37064 6.66821 2.42168 7.11301 1.76861 7.76607C1.16154 8.37314 0.849255 9.12358 0.889141 10.0144L0.889243 10.0164C0.915252 10.5431 1.07939 11.0726 1.44901 11.4437C1.74079 11.7425 2.16096 11.9141 2.63874 11.8386L4.74468 11.481C5.1046 11.4229 5.43326 11.3029 5.67021 11.0599C5.99085 10.7446 6.04501 10.3113 6.04501 9.93188V9.45835C6.40196 9.38201 7.12058 9.30505 7.99804 9.30505C8.89842 9.30505 9.60125 9.36985 9.94074 9.45906L9.94542 9.93629L9.94546 9.93903C9.95144 10.3156 10.0071 10.7467 10.3209 11.0605C10.5609 11.3005 10.8861 11.4221 11.2515 11.481L13.324 11.8321C13.8241 11.9169 14.2468 11.7304 14.552 11.433L14.5527 11.4323C14.9251 11.0679 15.0996 10.5406 15.1129 9.99967L15.1129 9.99856C15.133 9.09654 14.7799 8.35248 14.1935 7.76607C13.5414 7.11397 12.602 6.66884 11.5419 6.38501C10.4763 6.09972 9.25396 5.96802 7.99804 5.96802ZM5.99811 9.46731L5.89539 9.03075L6.01232 9.45952L6.01379 9.46489C6.00351 9.46769 5.9971 9.46967 5.9926 9.47123L5.98838 9.4728L5.98932 9.47236C5.98932 9.47236 5.99348 9.47027 5.99811 9.46731ZM6.01232 9.45952L6.0144 9.45643L6.01626 9.45357C6.02269 9.44794 6.0298 9.44089 6.03705 9.43219L6.02399 9.44786L6.01232 9.45952Z" fill="#161823"/>
</svg>
