<svg width="16" height="16" viewBox="0 0 16 16" fill="none" xmlns="http://www.w3.org/2000/svg">
<path d="M5.81107 11.092C6.70982 11.9907 7.6798 12.772 8.64082 13.3297C9.59941 13.8861 10.5636 14.2285 11.4467 14.2285C12.2567 14.2285 12.9568 13.9388 13.5222 13.3203C13.8588 12.9488 14.0831 12.5049 14.0836 12.0533C14.0881 11.7024 13.9425 11.3557 13.6149 11.1175L11.8303 9.85099C11.5478 9.6469 11.2764 9.5299 11.0066 9.53414C10.6553 9.53015 10.367 9.73797 10.1013 10.0037L9.68621 10.4187C9.67498 10.43 9.66486 10.4356 9.65449 10.4393C9.64295 10.4433 9.62635 10.4464 9.60161 10.4464H9.59254L9.58351 10.4473C9.57388 10.4481 9.55967 10.4468 9.53896 10.4398C9.51864 10.4328 9.4975 10.4222 9.47369 10.4087C9.14601 10.2052 8.53134 9.71249 7.86094 9.04209C7.1844 8.36555 6.68905 7.77083 6.50213 7.43186C6.48301 7.39614 6.46523 7.34859 6.46114 7.30541C6.46408 7.27086 6.47241 7.24893 6.49404 7.22342L6.90484 6.80449L6.90568 6.80362C7.1665 6.5344 7.37297 6.24636 7.37297 5.90012C7.37297 5.62816 7.25718 5.35665 7.0515 5.07201L5.80324 3.31458C5.55864 2.97014 5.20141 2.82835 4.83278 2.82357C4.38472 2.81875 3.93797 3.03474 3.57052 3.38448C2.95945 3.96898 2.69922 4.6933 2.69922 5.48096C2.69922 6.36347 3.03499 7.32126 3.58541 8.27418C4.13708 9.22926 4.9123 10.1932 5.81107 11.092Z" fill="#161823"/>
</svg>
