<svg width="24" height="24" viewBox="0 0 24 24" fill="none" xmlns="http://www.w3.org/2000/svg">
<path d="M10.4995 6.95483C10.4995 7.64519 9.93989 8.20483 9.24953 8.20483C8.55918 8.20483 7.99953 7.64519 7.99953 6.95483C7.99953 6.26448 8.55918 5.70483 9.24953 5.70483C9.93989 5.70483 10.4995 6.26448 10.4995 6.95483Z" fill="#161823"/>
<path d="M13.2495 7.63867C13.9399 7.63867 14.4995 7.07903 14.4995 6.38867C14.4995 5.69832 13.9399 5.13867 13.2495 5.13867C12.5592 5.13867 11.9995 5.69832 11.9995 6.38867C11.9995 7.07903 12.5592 7.63867 13.2495 7.63867Z" fill="#161823"/>
<path d="M17.8643 8.58179C17.8643 9.27214 17.3046 9.83179 16.6143 9.83179C15.9239 9.83179 15.3643 9.27214 15.3643 8.58179C15.3643 7.89143 15.9239 7.33179 16.6143 7.33179C17.3046 7.33179 17.8643 7.89143 17.8643 8.58179Z" fill="#161823"/>
<path d="M17.7364 13.6777C18.4267 13.6777 18.9864 13.1181 18.9864 12.4277C18.9864 11.7374 18.4267 11.1777 17.7364 11.1777C17.046 11.1777 16.4864 11.7374 16.4864 12.4277C16.4864 13.1181 17.046 13.6777 17.7364 13.6777Z" fill="#161823"/>
<path d="M2.93777 7.76417C4.53157 4.35976 7.9892 1.99902 11.9997 1.99902C17.5231 1.99902 22.0006 6.47655 22.0006 11.9998C22.0006 17.5232 17.5231 22.0007 11.9997 22.0007C10.6638 22.0007 9.39756 21.7266 8.23934 21.2556C8.22908 21.2514 8.21892 21.247 8.20885 21.2424C7.59201 20.959 7.09866 20.4115 6.90866 19.7024C6.57096 18.4421 7.3159 17.1468 8.57348 16.8039L8.57668 16.803C9.38862 16.5855 9.90521 15.6952 9.6887 14.8872C9.46743 14.0614 8.60828 13.5643 7.77285 13.7828C5.70465 14.3361 3.17881 13.6612 2.53292 11.2507C2.38187 10.687 2.3792 10.0277 2.45546 9.43183C2.531 8.84167 2.69408 8.23544 2.93777 7.76417ZM11.9997 3.49902C8.58778 3.49902 5.64377 5.50916 4.29025 8.41304C4.28529 8.42368 4.28008 8.4342 4.27463 8.4446C4.13244 8.71565 4.00451 9.14428 3.94332 9.62227C3.88199 10.1014 3.89807 10.55 3.98181 10.8625C4.32745 12.1525 5.75399 12.7708 7.38667 12.3333L7.39028 12.3324C9.01467 11.9058 10.6999 12.8654 11.1376 14.499C11.5703 16.1138 10.5706 17.8205 8.96682 18.2514C8.50644 18.3777 8.2338 18.8524 8.35755 19.3142C8.4258 19.5689 8.59948 19.7665 8.82172 19.8731C9.80891 20.2722 10.8779 20.5007 11.9997 20.5007C16.6946 20.5007 20.5006 16.6947 20.5006 11.9998C20.5006 7.30497 16.6946 3.49902 11.9997 3.49902Z" fill="#161823"/>
</svg>
