<svg width="20" height="20" viewBox="0 0 20 20" fill="none" xmlns="http://www.w3.org/2000/svg">
<path d="M16.2285 10.0566C17.1605 9.91454 17.9998 10.6354 18 11.5781V16.4639C18 16.4974 17.998 16.5303 17.9932 16.5625C17.9255 17.2701 17.3979 17.8586 16.6875 17.9932L16.3496 18.0566C15.5315 18.2114 14.7746 17.5845 14.7744 16.752C14.7744 16.1133 15.2289 15.5648 15.8564 15.4463L16.6807 15.291V11.5781C16.6805 11.4437 16.5607 11.3412 16.4277 11.3613L13.8613 11.752C13.7539 11.7683 13.6749 11.8611 13.6748 11.9697V17.3174C13.6747 18.0924 13.1082 18.7581 12.3467 18.9023L12.0098 18.9658C11.1916 19.1208 10.4338 18.4938 10.4336 17.6611C10.4336 17.0225 10.8881 16.474 11.5156 16.3555L12.3545 16.1973V11.9697C12.3545 11.2091 12.9101 10.562 13.6621 10.4473L16.2285 10.0566Z" fill="#161823"/>
<path d="M12.3711 1.4375C14.1324 1.52655 15.533 2.98318 15.5332 4.7666V8.81152C15.533 8.87717 15.4849 8.93245 15.4199 8.94238L14.1865 9.13184C14.106 9.14403 14.0334 9.08148 14.0332 9V4.7666C14.033 3.7543 13.2125 2.9337 12.2002 2.93359H5.33301C4.32074 2.93377 3.50018 3.75434 3.5 4.7666V14.667C3.50017 15.6793 4.32074 16.4998 5.33301 16.5H9.27832C9.37783 16.5002 9.44302 16.6061 9.40527 16.6982C9.28375 16.995 9.21592 17.3182 9.21582 17.6553C9.21583 17.7203 9.21877 17.785 9.22363 17.8486C9.22948 17.9288 9.16738 17.9999 9.08691 18H5.33301C3.54995 17.9998 2.09349 16.5997 2.00391 14.8389L2 14.667V4.7666C2.00018 2.92591 3.49232 1.43377 5.33301 1.43359H12.2002L12.3711 1.4375Z" fill="#161823"/>
<path d="M10.5332 7.2168C10.9474 7.2168 11.2832 7.55258 11.2832 7.9668V11.5C11.2832 11.9142 10.9474 12.25 10.5332 12.25H7C6.58579 12.25 6.25 11.9142 6.25 11.5C6.25 11.0858 6.58579 10.75 7 10.75H8.72266L6.46973 8.49707C6.17687 8.20422 6.17695 7.72943 6.46973 7.43652C6.76262 7.14363 7.23738 7.14363 7.53027 7.43652L9.7832 9.68945V7.9668C9.7832 7.55263 10.119 7.21687 10.5332 7.2168Z" fill="#161823"/>
</svg>
