<svg width="24" height="24" viewBox="0 0 24 24" fill="none" xmlns="http://www.w3.org/2000/svg">
<path d="M4.5166 3.7666C4.5166 3.35239 4.18082 3.0166 3.7666 3.0166C3.35239 3.0166 3.0166 3.35239 3.0166 3.7666V19.2333C3.0166 20.1998 3.8001 20.9833 4.7666 20.9833H20.2333C20.6475 20.9833 20.9833 20.6475 20.9833 20.2333C20.9833 19.8191 20.6475 19.4833 20.2333 19.4833H4.7666C4.62853 19.4833 4.5166 19.3713 4.5166 19.2333V3.7666Z" fill="#161823"/>
<path d="M17.6916 10.411L18.8902 11.6096C19.0761 11.7955 19.3557 11.8511 19.5986 11.7505C19.8415 11.6499 19.9998 11.4129 19.9998 11.15V7.65C19.9998 7.29102 19.7088 7 19.3498 7H15.8498C15.5869 7 15.3499 7.15837 15.2493 7.40126C15.1487 7.64414 15.2043 7.92372 15.3902 8.10962L16.6293 9.3487L13.8254 12.4848L11.1809 10.1982C10.8727 9.93172 10.408 9.96008 10.1344 10.2621L6.19397 14.6132C5.91592 14.9203 5.93941 15.3946 6.24643 15.6726C6.55346 15.9507 7.02775 15.9272 7.3058 15.6201L10.7543 11.8123L13.4023 14.1019C13.7119 14.3696 14.1791 14.3396 14.4519 14.0345L17.6916 10.411Z" fill="#161823"/>
</svg>
