<svg width="20" height="20" viewBox="0 0 20 20" fill="none" xmlns="http://www.w3.org/2000/svg">
<path d="M4.74902 1.50018C2.9541 1.50018 1.49902 2.95526 1.49902 4.75018V6.66685C1.49902 7.08106 1.83481 7.41685 2.24902 7.41685C2.66324 7.41685 2.99902 7.08106 2.99902 6.66685V4.75018C2.99902 3.78369 3.78253 3.00018 4.74902 3.00018H6.66569C7.0799 3.00018 7.41569 2.6644 7.41569 2.25018C7.41569 1.83597 7.0799 1.50018 6.66569 1.50018H4.74902Z" fill="#161823"/>
<path d="M15.2503 1.50018C17.0452 1.50018 18.5003 2.95526 18.5003 4.75018V6.66685C18.5003 7.08106 18.1645 7.41685 17.7503 7.41685C17.3361 7.41685 17.0003 7.08106 17.0003 6.66685V4.75018C17.0003 3.78369 16.2168 3.00018 15.2503 3.00018H13.3337C12.9194 3.00018 12.5837 2.6644 12.5837 2.25018C12.5837 1.83597 12.9194 1.50018 13.3337 1.50018H15.2503Z" fill="#161823"/>
<path d="M1.49902 15.2498C1.49902 17.0447 2.9541 18.4998 4.74902 18.4998H6.66569C7.0799 18.4998 7.41569 18.164 7.41569 17.7498C7.41569 17.3356 7.0799 16.9998 6.66569 16.9998H4.74902C3.78253 16.9998 2.99902 16.2163 2.99902 15.2498V13.3331C2.99902 12.9189 2.66324 12.5831 2.24902 12.5831C1.83481 12.5831 1.49902 12.9189 1.49902 13.3331V15.2498Z" fill="#161823"/>
<path d="M15.2503 18.4998C17.0452 18.4998 18.5003 17.0447 18.5003 15.2498V13.3331C18.5003 12.9189 18.1645 12.5831 17.7503 12.5831C17.3361 12.5831 17.0003 12.9189 17.0003 13.3331V15.2498C17.0003 16.2163 16.2168 16.9998 15.2503 16.9998H13.3337C12.9194 16.9998 12.5837 17.3356 12.5837 17.7498C12.5837 18.164 12.9194 18.4998 13.3337 18.4998H15.2503Z" fill="#161823"/>
<path fill-rule="evenodd" clip-rule="evenodd" d="M12.9276 11.8674C13.3926 11.195 13.665 10.3793 13.665 9.49998C13.665 7.19879 11.7996 5.33331 9.49837 5.33331C7.19719 5.33331 5.33171 7.19879 5.33171 9.49998C5.33171 11.8012 7.19719 13.6666 9.49837 13.6666C10.3783 13.6666 11.1946 13.3939 11.8672 12.9282L13.2193 14.2804C13.5122 14.5733 13.9871 14.5733 14.28 14.2804C14.5729 13.9875 14.5729 13.5126 14.28 13.2197L12.9276 11.8674ZM12.165 9.49998C12.165 10.9727 10.9711 12.1666 9.49837 12.1666C8.02561 12.1666 6.83171 10.9727 6.83171 9.49998C6.83171 8.02722 8.02561 6.83331 9.49837 6.83331C10.9711 6.83331 12.165 8.02722 12.165 9.49998Z" fill="#161823"/>
</svg>
