<svg width="16" height="16" viewBox="0 0 16 16" fill="none" xmlns="http://www.w3.org/2000/svg">
<path fill-rule="evenodd" clip-rule="evenodd" d="M4.56113 1.33887C3.23565 1.33887 2.16113 2.41338 2.16113 3.73887V12.2611C2.16113 13.5866 3.23565 14.6611 4.56113 14.6611H8.42628C8.69554 14.6611 8.83398 14.328 8.65887 14.1235C8.58454 14.0366 8.51281 13.9488 8.44386 13.8599C7.81536 13.0497 7.3671 12.0868 7.3671 11.0196C7.3671 9.20932 8.57622 7.62579 10.491 7.62579C11.0572 7.62579 11.5832 7.76068 12.0382 8.06445C12.2392 7.92824 12.4564 7.82207 12.6895 7.74832C12.777 7.72064 12.8398 7.64144 12.8398 7.54965V3.73887C12.8398 2.41338 11.7653 1.33887 10.4398 1.33887H4.56113ZM4.22812 4.50002C4.22812 4.16865 4.49675 3.90002 4.82812 3.90002H9.49479C9.82616 3.90002 10.0948 4.16865 10.0948 4.50002C10.0948 4.8314 9.82616 5.10002 9.49479 5.10002H4.82812C4.49675 5.10002 4.22812 4.8314 4.22812 4.50002ZM4.82812 6.06537C4.49675 6.06537 4.22812 6.334 4.22812 6.66537C4.22812 6.99674 4.49675 7.26537 4.82812 7.26537H7.82812C8.15949 7.26537 8.42812 6.99674 8.42812 6.66537C8.42812 6.334 8.15949 6.06537 7.82812 6.06537H4.82812Z" fill="#161823"/>
<path d="M11.9987 10.1014C12.417 9.37182 12.7817 8.92578 13.5113 8.92578C14.5616 8.92578 15.3337 9.77148 15.3337 11.0196C15.3337 12.404 14.1709 13.7783 12.3909 14.9377C12.2545 15.0298 12.101 15.1116 11.9987 15.1116C11.8964 15.1116 11.7464 15.0298 11.61 14.9377C11.4273 14.8187 11.2511 14.6975 11.0821 14.5742C10.158 13.9004 9.44564 13.1656 9.04135 12.406C8.79878 11.9502 8.66708 11.4855 8.66708 11.0196C8.66708 9.77148 9.44065 8.92578 10.491 8.92578C10.7395 8.92578 10.9464 8.96564 11.1226 9.041C11.5101 9.20671 11.7492 9.54413 11.9575 10.0071C11.9713 10.038 11.9851 10.0694 11.9987 10.1014Z" fill="#161823"/>
</svg>
