<svg width="16" height="16" viewBox="0 0 16 16" fill="none" xmlns="http://www.w3.org/2000/svg">
<path d="M7.99967 14.6667C11.6816 14.6667 14.6663 11.6819 14.6663 8.00004C14.6663 4.31814 11.6816 1.33337 7.99967 1.33337C4.31778 1.33337 1.33301 4.31814 1.33301 8.00004C1.33301 11.6819 4.31778 14.6667 7.99967 14.6667ZM6.66638 6.33333C6.66638 7.06971 6.21867 7.66667 5.66638 7.66667C5.1141 7.66667 4.66638 7.06971 4.66638 6.33333C4.66638 5.59695 5.1141 5 5.66638 5C6.21867 5 6.66638 5.59695 6.66638 6.33333ZM10.3331 7.66667C9.78078 7.66667 9.33307 7.06971 9.33307 6.33333C9.33307 5.59695 9.78078 5 10.3331 5C10.8854 5 11.3331 5.59695 11.3331 6.33333C11.3331 7.06971 10.8854 7.66667 10.3331 7.66667ZM7.99969 10.687C6.89513 10.687 5.99969 10.0474 5.99969 9.25838C5.99969 8.4694 9.99969 8.4694 9.99969 9.25838C9.99969 10.0474 9.10426 10.687 7.99969 10.687Z" fill="#161823"/>
</svg>
