<svg width="20" height="20" viewBox="0 0 20 20" fill="none" xmlns="http://www.w3.org/2000/svg">
<path d="M4.21967 7.633C3.92678 7.9259 3.92678 8.40077 4.21967 8.69366L7.63634 12.1103C7.92923 12.4032 8.4041 12.4032 8.697 12.1103C8.98989 11.8174 8.98989 11.3426 8.697 11.0497L6.56732 8.92H11.71C13.2509 8.92 14.5 10.1691 14.5 11.71C14.5 13.2509 13.2509 14.5 11.71 14.5H10.3333C9.91912 14.5 9.58334 14.8358 9.58334 15.25C9.58334 15.6642 9.91912 16 10.3333 16H11.71C14.0793 16 16 14.0793 16 11.71C16 9.34069 14.0793 7.42 11.71 7.42H6.554L8.697 5.277C8.98989 4.9841 8.98989 4.50923 8.697 4.21634C8.4041 3.92344 7.92923 3.92344 7.63634 4.21634L4.21967 7.633Z" fill="#161823"/>
</svg>
