<svg width="20" height="20" viewBox="0 0 20 20" fill="none" xmlns="http://www.w3.org/2000/svg">
<path d="M18.0959 8.0185C18.3577 9.09161 17.4375 10.0001 16.333 10.0001H10.7496V15.9084C10.7496 17.2431 9.66761 18.3251 8.33293 18.3251C6.99824 18.3251 5.91626 17.2431 5.91626 15.9084C5.91626 15.4942 6.25205 15.1584 6.66626 15.1584C7.08047 15.1584 7.41626 15.4942 7.41626 15.9084C7.41626 16.4147 7.82667 16.8251 8.33293 16.8251C8.83919 16.8251 9.24959 16.4147 9.24959 15.9084V10.0001H3.6663C2.56173 10.0001 1.64159 9.09161 1.90333 8.0185C2.79255 4.37276 6.08008 1.66675 9.99963 1.66675C13.9192 1.66675 17.2067 4.37276 18.0959 8.0185Z" fill="#161823"/>
</svg>
