<svg width="16" height="16" viewBox="0 0 16 16" fill="none" xmlns="http://www.w3.org/2000/svg">
<path d="M3.16634 3.93211C2.42996 3.93211 1.83301 4.52907 1.83301 5.26544V8.62773C1.83301 9.36411 2.42996 9.96106 3.16634 9.96106H6.20374C6.90217 9.96106 7.58842 10.1439 8.19424 10.4915L10.5017 11.8153C11.0795 12.1468 11.7997 11.7297 11.7997 11.0636V2.82962C11.7997 2.16352 11.0795 1.74641 10.5017 2.07788L8.19424 3.40168C7.58843 3.74924 6.90217 3.93211 6.20375 3.93211H3.16634Z" fill="#161823"/>
<path d="M14.6663 6.94656C14.6663 7.89042 14.1059 8.70339 13.2997 9.07086V4.82225C14.1059 5.18972 14.6663 6.00269 14.6663 6.94656Z" fill="#161823"/>
<path d="M5.47629 14.2756L3.85131 11.4611H6.20374C6.47211 11.4611 6.7376 11.5043 6.9903 11.588L7.77555 12.9481C8.14213 13.583 7.92458 14.3949 7.28966 14.7615C6.65473 15.1281 5.84286 14.9105 5.47629 14.2756Z" fill="#161823"/>
</svg>
