<svg width="24" height="24" viewBox="0 0 24 24" fill="none" xmlns="http://www.w3.org/2000/svg">
<path d="M16.7803 12.5303C16.4874 12.8232 16.0126 12.8232 15.7197 12.5303L12.75 9.56066L12.75 16.25C12.75 16.6642 12.4142 17 12 17C11.5858 17 11.25 16.6642 11.25 16.25V9.56066L8.28033 12.5303C7.98744 12.8232 7.51256 12.8232 7.21967 12.5303C6.92678 12.2374 6.92678 11.7626 7.21967 11.4697L11.4697 7.21967C11.7626 6.92678 12.2374 6.92678 12.5303 7.21967L16.7803 11.4697C17.0732 11.7626 17.0732 12.2374 16.7803 12.5303Z" fill="#161823"/>
<path fill-rule="evenodd" clip-rule="evenodd" d="M12 22C17.5228 22 22 17.5228 22 12C22 6.47715 17.5228 2 12 2C6.47715 2 2 6.47715 2 12C2 17.5228 6.47715 22 12 22ZM12 20.5C16.6944 20.5 20.5 16.6944 20.5 12C20.5 7.30558 16.6944 3.5 12 3.5C7.30558 3.5 3.5 7.30558 3.5 12C3.5 16.6944 7.30558 20.5 12 20.5Z" fill="#161823"/>
</svg>
