<svg width="24" height="24" viewBox="0 0 24 24" fill="none" xmlns="http://www.w3.org/2000/svg">
<path fill-rule="evenodd" clip-rule="evenodd" d="M17.2234 4.69268C17.5147 4.08606 18.128 3.7002 18.801 3.7002H19.5502C20.5167 3.7002 21.3002 4.4837 21.3002 5.4502V18.5502C21.3002 19.5167 20.5167 20.3002 19.5502 20.3002H12.5144C11.2259 20.3002 10.3792 18.9548 10.9367 17.7931L17.2234 4.69268ZM12.5144 18.8002H19.5502C19.6883 18.8002 19.8002 18.6883 19.8002 18.5502V5.4502C19.8002 5.31212 19.6883 5.2002 19.5502 5.2002H18.801C18.7048 5.2002 18.6172 5.25532 18.5756 5.34198L12.289 18.442C12.2094 18.608 12.3303 18.8002 12.5144 18.8002Z" fill="#161823"/>
<path fill-rule="evenodd" clip-rule="evenodd" d="M2.7002 14.0502C2.7002 13.0837 3.4837 12.3002 4.4502 12.3002H9.1222C10.41 12.3002 11.2567 13.6443 10.7006 14.8059L8.54631 19.3059C8.25541 19.9135 7.64155 20.3002 6.96787 20.3002H4.4502C3.4837 20.3002 2.7002 19.5167 2.7002 18.5502V14.0502ZM4.2002 14.0502V18.5502C4.2002 18.6883 4.31212 18.8002 4.4502 18.8002H6.96787C7.06411 18.8002 7.15181 18.745 7.19336 18.6581L9.34769 14.1581C9.42713 13.9922 9.30617 13.8002 9.1222 13.8002H4.4502C4.31212 13.8002 4.2002 13.9121 4.2002 14.0502Z" fill="#161823"/>
<path fill-rule="evenodd" clip-rule="evenodd" d="M4.4502 3.7002C3.4837 3.7002 2.7002 4.4837 2.7002 5.4502V9.01686C2.7002 9.98336 3.4837 10.7669 4.4502 10.7669H11.6167C12.2962 10.7669 12.9143 10.3735 13.2021 9.75788L14.8692 6.19122C15.4115 5.03091 14.5646 3.7002 13.2838 3.7002H4.4502ZM4.2002 9.01686V5.4502C4.2002 5.31212 4.31212 5.2002 4.4502 5.2002H13.2838C13.4668 5.2002 13.5878 5.3903 13.5103 5.55606L11.8432 9.12272C11.8021 9.21067 11.7138 9.26686 11.6167 9.26686H4.4502C4.31212 9.26686 4.2002 9.15493 4.2002 9.01686Z" fill="#161823"/>
</svg>
