<svg width="20" height="20" viewBox="0 0 20 20" fill="none" xmlns="http://www.w3.org/2000/svg">
<path d="M9.16465 11.4374C9.19614 11.4688 9.25 11.4465 9.25 11.402V2.37109C9.25 1.95688 9.58579 1.62109 10 1.62109C10.4142 1.62109 10.75 1.95688 10.75 2.37109V11.4019C10.75 11.4465 10.8039 11.4688 10.8354 11.4373L13.0118 9.26083C13.3047 8.96794 13.7796 8.96794 14.0725 9.26083C14.3654 9.55372 14.3654 10.0286 14.0725 10.3215L10.5303 13.8637C10.2374 14.1566 9.76254 14.1566 9.46965 13.8637L5.92746 10.3215C5.63457 10.0286 5.63457 9.55372 5.92746 9.26083C6.22036 8.96794 6.69523 8.96794 6.98812 9.26083L9.16465 11.4374Z" fill="#161823"/>
<path d="M6.49304 4.99738L6.80104 4.99738C7.21525 4.99738 7.55104 5.33316 7.55104 5.74738C7.55104 6.16159 7.21525 6.49738 6.80104 6.49738H6.525C5.80055 6.49738 5.30307 6.49798 4.91765 6.52999C4.5412 6.56125 4.33932 6.61855 4.1933 6.6944C3.87367 6.86043 3.61306 7.12105 3.44703 7.44067C3.37117 7.5867 3.31387 7.78858 3.28261 8.16502C3.2506 8.55045 3.25 9.04792 3.25 9.77238V12.7187C3.25 13.4432 3.2506 13.9407 3.28261 14.3261C3.31387 14.7025 3.37117 14.9044 3.44703 15.0504C3.61306 15.3701 3.87367 15.6307 4.1933 15.7967C4.33932 15.8726 4.5412 15.9299 4.91765 15.9611C5.30307 15.9931 5.80055 15.9937 6.525 15.9937H13.475C14.1995 15.9937 14.6969 15.9931 15.0824 15.9611C15.4588 15.9299 15.6607 15.8726 15.8067 15.7967C16.1263 15.6307 16.3869 15.3701 16.553 15.0504C16.6288 14.9044 16.6861 14.7025 16.7174 14.3261C16.7494 13.9407 16.75 13.4432 16.75 12.7187V9.77238C16.75 9.04793 16.7494 8.55045 16.7174 8.16502C16.6861 7.78858 16.6288 7.5867 16.553 7.44067C16.3869 7.12105 16.1263 6.86043 15.8067 6.6944C15.6607 6.61855 15.4588 6.56125 15.0824 6.52999C14.6969 6.49798 14.1995 6.49738 13.475 6.49738H13.191C12.7768 6.49738 12.441 6.16159 12.441 5.74738C12.441 5.33316 12.7768 4.99738 13.191 4.99738L13.507 4.99738C14.1917 4.99737 14.7516 4.99736 15.2065 5.03513C15.6774 5.07424 16.1023 5.15767 16.4982 5.36328C17.0918 5.67163 17.5757 6.15562 17.8841 6.74921C18.0897 7.14503 18.1731 7.57 18.2122 8.04088C18.25 8.49573 18.25 9.0557 18.25 9.74042V12.7507C18.25 13.4354 18.25 13.9954 18.2122 14.4502C18.1731 14.9211 18.0897 15.3461 17.8841 15.7419C17.5757 16.3355 17.0918 16.8195 16.4982 17.1278C16.1023 17.3334 15.6774 17.4169 15.2065 17.456C14.7516 17.4937 14.1917 17.4937 13.507 17.4937H6.49304C5.80833 17.4937 5.24835 17.4937 4.79351 17.456C4.32263 17.4169 3.89765 17.3334 3.50183 17.1278C2.90824 16.8195 2.42425 16.3355 2.11591 15.7419C1.9103 15.3461 1.82686 14.9211 1.78776 14.4502C1.74998 13.9954 1.74999 13.4354 1.75 12.7507V9.74042C1.74999 9.05571 1.74998 8.49572 1.78776 8.04088C1.82686 7.57 1.9103 7.14503 2.11591 6.74921C2.42425 6.15562 2.90824 5.67163 3.50183 5.36328C3.89765 5.15767 4.32263 5.07424 4.79351 5.03513C5.24835 4.99736 5.80833 4.99737 6.49304 4.99738Z" fill="#161823"/>
</svg>
