<svg width="24" height="24" viewBox="0 0 24 24" fill="none" xmlns="http://www.w3.org/2000/svg">
<path d="M12 20.5C7.30557 20.5 3.5 16.6944 3.5 12C3.5 7.30557 7.30557 3.5 12 3.5C16.6944 3.5 20.5 7.30557 20.5 12C20.5 16.6944 16.6944 20.5 12 20.5ZM12 22C17.5228 22 22 17.5228 22 12C22 6.47715 17.5228 2 12 2C6.47715 2 2 6.47715 2 12C2 17.5228 6.47715 22 12 22Z" fill="#161823"/>
<path d="M7.0999 12C7.0999 11.5029 7.50285 11.1 7.9999 11.1H15.9999C16.497 11.1 16.8999 11.5029 16.8999 12C16.8999 12.4971 16.497 12.9 15.9999 12.9H7.9999C7.50285 12.9 7.0999 12.4971 7.0999 12Z" fill="#161823"/>
</svg>
