<svg width="20" height="20" viewBox="0 0 20 20" fill="none" xmlns="http://www.w3.org/2000/svg">
<path d="M5.60001 5.27354C5.26864 5.27354 5.00001 5.54216 5.00001 5.87354C5.00001 6.20491 5.26864 6.47354 5.60001 6.47354H6.89273C7.11365 6.47354 7.29273 6.65262 7.29273 6.87354V7.62478C7.29273 7.8457 7.11365 8.02478 6.89273 8.02478H6.60001C5.71635 8.02478 5.00001 8.74113 5.00001 9.62478V9.91749C5.00001 10.8011 5.71635 11.5175 6.60001 11.5175H6.89273C7.11365 11.5175 7.29273 11.6966 7.29273 11.9175V12.1273C7.29273 12.9005 6.66593 13.5273 5.89273 13.5273H5.60001C5.26864 13.5273 5.00001 13.7959 5.00001 14.1273C5.00001 14.4586 5.26864 14.7273 5.60001 14.7273H5.89273C7.32867 14.7273 8.49273 13.5632 8.49273 12.1273V11.9175C8.49273 11.0338 7.77639 10.3175 6.89273 10.3175H6.60001C6.37909 10.3175 6.20001 10.1384 6.20001 9.91749V9.62478C6.20001 9.40387 6.37909 9.22478 6.60001 9.22478H6.89273C7.77639 9.22478 8.49273 8.50844 8.49273 7.62478V6.87354C8.49273 5.98988 7.77639 5.27354 6.89273 5.27354H5.60001Z" fill="#161823"/>
<path fill-rule="evenodd" clip-rule="evenodd" d="M9.25962 7.54053C9.25962 6.80719 9.84434 6.21043 10.573 6.19101L10.2775 5.74786C10.0937 5.47214 10.1682 5.09962 10.444 4.91581C10.7197 4.732 11.0922 4.8065 11.276 5.08222L12.0149 6.19053H12.2901L13.029 5.08222C13.2128 4.8065 13.5853 4.732 13.8611 4.91581C14.1368 5.09962 14.2113 5.47214 14.0275 5.74786L13.732 6.19102C14.4605 6.2106 15.0451 6.8073 15.0451 7.54053V9.70886C15.0451 10.4544 14.4407 11.0589 13.6951 11.0589H12.753V11.7003H14.7854C15.1167 11.7003 15.3854 11.9689 15.3854 12.3003C15.3854 12.6317 15.1167 12.9003 14.7854 12.9003H12.753V14.5857C12.753 14.9171 12.4843 15.1857 12.153 15.1857C11.8216 15.1857 11.553 14.9171 11.553 14.5857V12.9003H9.51869C9.18732 12.9003 8.91869 12.6317 8.91869 12.3003C8.91869 11.9689 9.18732 11.7003 9.51869 11.7003H11.553V11.0589H10.6096C9.86403 11.0589 9.25962 10.4544 9.25962 9.70886V7.54053ZM10.6096 7.39053C10.5268 7.39053 10.4596 7.45769 10.4596 7.54053V8.02451H11.553V7.39053H10.6096ZM11.553 9.22451H10.4596V9.70886C10.4596 9.7917 10.5268 9.85886 10.6096 9.85886H11.553V9.22451ZM13.8451 9.22451V9.70886C13.8451 9.7917 13.7779 9.85886 13.6951 9.85886H12.753V9.22451H13.8451ZM13.8451 8.02451H12.753V7.39053H13.6951C13.7779 7.39053 13.8451 7.45768 13.8451 7.54053V8.02451Z" fill="#161823"/>
<path fill-rule="evenodd" clip-rule="evenodd" d="M5.75 2.00049C3.67893 2.00049 2 3.67942 2 5.75049V14.2505C2 16.3216 3.67893 18.0005 5.75 18.0005H14.25C16.3211 18.0005 18 16.3216 18 14.2505V5.75049C18 3.67942 16.3211 2.00049 14.25 2.00049H5.75ZM3.5 5.75049C3.5 4.50785 4.50736 3.50049 5.75 3.50049H14.25C15.4926 3.50049 16.5 4.50785 16.5 5.75049V14.2505C16.5 15.4931 15.4926 16.5005 14.25 16.5005H5.75C4.50736 16.5005 3.5 15.4931 3.5 14.2505V5.75049Z" fill="#161823"/>
</svg>
