<svg width="16" height="16" viewBox="0 0 16 16" fill="none" xmlns="http://www.w3.org/2000/svg">
<path d="M10.5256 5.6194C10.7989 5.34603 11.2422 5.34603 11.5155 5.6194C11.8281 5.93202 12.0761 6.30316 12.2453 6.71163C12.4145 7.12009 12.5016 7.55788 12.5016 7.99999C12.5016 8.44211 12.4145 8.8799 12.2453 9.28836C12.0761 9.69682 11.8281 10.068 11.5155 10.3806C11.2422 10.654 10.7989 10.654 10.5256 10.3806C10.2522 10.1072 10.2522 9.664 10.5256 9.39064C10.7082 9.20801 10.8531 8.99121 10.9519 8.7526C11.0507 8.514 11.1016 8.25826 11.1016 7.99999C11.1016 7.74173 11.0507 7.48599 10.9519 7.24738C10.8531 7.00878 10.7082 6.79197 10.5256 6.60935C10.2522 6.33598 10.2522 5.89277 10.5256 5.6194Z" fill="#161823"/>
<path d="M12.2947 3.9695C12.5681 3.69613 13.0113 3.69613 13.2846 3.9695C13.8139 4.49879 14.2338 5.12716 14.5203 5.81871C14.8067 6.51027 14.9541 7.25147 14.9541 8.00001C14.9541 8.74854 14.8067 9.48975 14.5203 10.1813C14.2338 10.8729 13.8139 11.5012 13.2846 12.0305C13.0113 12.3039 12.5681 12.3039 12.2947 12.0305C12.0213 11.7571 12.0213 11.3139 12.2947 11.0406C12.694 10.6413 13.0107 10.1672 13.2268 9.64554C13.4429 9.12384 13.5541 8.56469 13.5541 8.00001C13.5541 7.43532 13.4429 6.87617 13.2268 6.35447C13.0107 5.83277 12.694 5.35874 12.2947 4.95945C12.0213 4.68608 12.0213 4.24286 12.2947 3.9695Z" fill="#161823"/>
<path d="M1.33301 6.33333C1.33301 5.78104 1.78072 5.33333 2.33301 5.33333H4.22685C4.51229 5.33333 4.7902 5.24173 5.01969 5.072L8.0573 2.82542C8.58535 2.43488 9.33301 2.81185 9.33301 3.46862V12.5276C9.33301 13.1841 8.58588 13.5611 8.05777 13.1711L5.01945 10.9274C4.7901 10.758 4.5125 10.6667 4.22739 10.6667H2.33301C1.78072 10.6667 1.33301 10.2189 1.33301 9.66666V6.33333Z" fill="#161823"/>
</svg>
