<svg width="20" height="20" viewBox="0 0 20 20" fill="none" xmlns="http://www.w3.org/2000/svg">
<path fill-rule="evenodd" clip-rule="evenodd" d="M9.99929 1.66992C8.02325 1.66992 6.59729 3.48007 6.59729 5.47992C6.59729 7.47977 8.02325 9.28992 9.99929 9.28992C11.9753 9.28992 13.4013 7.47977 13.4013 5.47992C13.4013 3.48007 11.9753 1.66992 9.99929 1.66992ZM8.09729 5.47992C8.09729 4.09979 9.04601 3.16992 9.99929 3.16992C10.9526 3.16992 11.9013 4.09979 11.9013 5.47992C11.9013 6.86005 10.9526 7.78992 9.99929 7.78992C9.04601 7.78992 8.09729 6.86005 8.09729 5.47992Z" fill="#161823"/>
<path d="M4.00488 15.798C4.00488 14.7877 4.5701 13.8052 5.63872 13.0462C6.70715 12.2873 8.23639 11.7916 9.99926 11.7916C10.5057 11.7916 10.9929 11.8325 11.4555 11.9089C11.6638 11.9432 11.8746 11.8723 12.0341 11.7339C12.3023 11.501 12.6123 11.3149 12.9513 11.1884C13.1476 11.1151 13.1787 10.7926 12.9787 10.7304C12.0648 10.4461 11.0576 10.2916 9.99926 10.2916C7.96841 10.2916 6.12547 10.8606 4.77014 11.8232C3.41499 12.7857 2.50488 14.1814 2.50488 15.798V15.9149C2.50488 17.2496 3.58686 18.3316 4.92155 18.3316H9.27873C9.546 18.3316 9.67985 18.0085 9.49086 17.8195L8.70802 17.0366C8.57675 16.9054 8.3987 16.8316 8.21305 16.8316H4.92155C4.41529 16.8316 4.00488 16.4212 4.00488 15.9149V15.798Z" fill="#161823"/>
<path d="M14.4062 12.8259C14.6991 13.1188 14.6991 13.5937 14.4062 13.8866L12.7967 15.4962H15.2062C16.6297 15.4962 17.4562 14.2996 17.4562 12.9888C17.4562 12.5746 17.792 12.2388 18.2062 12.2388C18.6204 12.2388 18.9562 12.5746 18.9562 12.9888C18.9562 15.121 17.4497 16.9962 15.2062 16.9962H12.8491L14.4062 18.5533C14.6991 18.8462 14.6991 19.3211 14.4062 19.614C14.1133 19.9069 13.6385 19.9069 13.3456 19.614L10.4819 16.7503C10.189 16.4574 10.189 15.9825 10.4819 15.6896L13.3456 12.8259C13.6385 12.533 14.1133 12.533 14.4062 12.8259Z" fill="#161823"/>
</svg>
