<svg width="16" height="16" viewBox="0 0 16 16" fill="none" xmlns="http://www.w3.org/2000/svg">
<path fill-rule="evenodd" clip-rule="evenodd" d="M8.51195 2.06081C8.69498 1.30148 9.63891 1.03573 10.1912 1.58803L14.4054 5.80224C14.9577 6.35454 14.692 7.29848 13.9326 7.4815L12.572 7.80946C12.393 7.8526 12.2294 7.94432 12.0992 8.07451L10.5076 9.66615C10.4238 9.74992 10.3727 9.85252 10.3676 9.97086C10.3581 10.1883 10.3472 10.6695 10.3472 11.7316C10.3472 12.7053 9.99928 13.5187 9.6667 14.0737C9.38283 14.5475 8.75395 14.557 8.36343 14.1665L5.52601 11.3291L2.42661 14.4285C2.19229 14.6628 1.81239 14.6628 1.57808 14.4285C1.34377 14.1941 1.34377 13.8142 1.57808 13.5799L4.67748 10.4805L1.8499 7.65296C1.45938 7.26244 1.46889 6.63357 1.94262 6.3497C2.49767 6.0171 3.31102 5.66917 4.28481 5.66917C5.05172 5.66917 5.55353 5.65214 5.85043 5.63675C6.07769 5.62497 6.28835 5.5248 6.44927 5.36389L7.91894 3.89421C8.04913 3.76402 8.14085 3.60042 8.18399 3.42143L8.51195 2.06081ZM9.35058 3.70262L9.59495 2.68882L13.3046 6.39851L12.2908 6.64287C11.8971 6.73778 11.5371 6.93957 11.2507 7.22598L9.65907 8.81762C9.39361 9.08309 9.18859 9.45991 9.16869 9.9189C9.15808 10.1638 9.1472 10.6666 9.1472 11.7316C9.1472 12.1974 9.03374 12.6228 8.87892 12.9849L3.03146 7.13746C3.39362 6.98264 3.81897 6.86917 4.28481 6.86917C5.06914 6.86917 5.59192 6.85176 5.91255 6.83514C6.45844 6.80685 6.94333 6.56687 7.29779 6.21241L8.76747 4.74274C9.05388 4.45632 9.25567 4.0964 9.35058 3.70262Z" fill="#161823"/>
</svg>
