<svg width="24" height="24" viewBox="0 0 24 24" fill="none" xmlns="http://www.w3.org/2000/svg">
<path d="M22.7515 15.9486C23.0829 15.6172 23.0829 15.0799 22.7515 14.7485C22.4201 14.4171 21.8828 14.4171 21.5514 14.7485L18.8514 17.4485L16.1515 14.7485C15.8201 14.4172 15.2828 14.4172 14.9514 14.7485C14.62 15.0799 14.62 15.6172 14.9514 15.9486L17.6514 18.6486L14.9514 21.3485C14.62 21.6799 14.62 22.2172 14.9514 22.5486C15.2828 22.88 15.8201 22.88 16.1515 22.5486L18.8514 19.8486L21.5514 22.5486C21.8828 22.88 22.4201 22.88 22.7515 22.5486C23.0829 22.2172 23.0829 21.6799 22.7515 21.3485L20.0515 18.6486L22.7515 15.9486Z" fill="#161823"/>
<path d="M15.9998 6.5C15.9998 8.98528 14.2089 11 11.9998 11C9.79067 11 7.9998 8.98528 7.9998 6.5C7.9998 4.01472 9.79067 2 11.9998 2C14.2089 2 15.9998 4.01472 15.9998 6.5ZM14.4998 6.5C14.4998 4.67217 13.2193 3.5 11.9998 3.5C10.7803 3.5 9.4998 4.67217 9.4998 6.5C9.4998 8.32783 10.7803 9.5 11.9998 9.5C13.2193 9.5 14.4998 8.32783 14.4998 6.5Z" fill="#161823"/>
<path d="M12 12.5C9.6563 12.5 7.49136 13.0852 5.86408 14.1182C4.25055 15.1424 3 16.7372 3 18.7273V19.5C3 20.8807 4.11929 22 5.5 22H13.0501C13.1343 22 13.2015 21.9308 13.2051 21.8467C13.2214 21.4675 13.3292 21.0915 13.5284 20.7545C13.5921 20.6468 13.5191 20.5 13.394 20.5H5.5C4.94772 20.5 4.5 20.0523 4.5 19.5V18.7273C4.5 16.1165 7.78125 14 12 14C12.5035 14 12.9937 14.0302 13.4666 14.0877C13.5247 14.0948 13.5815 14.0677 13.6146 14.0195C13.6949 13.9028 13.787 13.7917 13.8908 13.6879C14.2391 13.3396 14.6695 13.1236 15.1198 13.0398C15.1947 13.0259 15.2088 12.8879 15.1349 12.8696C14.1532 12.6263 13.1033 12.5 12 12.5Z" fill="#161823"/>
</svg>
