<svg width="24" height="24" viewBox="0 0 24 24" fill="none" xmlns="http://www.w3.org/2000/svg">
<path fill-rule="evenodd" clip-rule="evenodd" d="M3.5 4.75C3.5 3.23122 4.73122 2 6.25 2H13.25C14.5088 2 15.57 2.84575 15.8965 4C15.9639 4.23842 16 4.48999 16 4.75V15.25C16 16.7688 14.7688 18 13.25 18H6.25C4.73122 18 3.5 16.7688 3.5 15.25V4.75ZM8.52332 8.60644C8.52332 9.27027 8.11516 9.80841 7.61166 9.80841C7.10816 9.80841 6.7 9.27027 6.7 8.60644C6.7 7.94261 7.10816 7.40446 7.61166 7.40446C8.11516 7.40446 8.52332 7.94261 8.52332 8.60644ZM11.855 9.80841C12.3585 9.80841 12.7667 9.27027 12.7667 8.60644C12.7667 7.94261 12.3585 7.40446 11.855 7.40446C11.3515 7.40446 10.9434 7.94261 10.9434 8.60644C10.9434 9.27027 11.3515 9.80841 11.855 9.80841ZM9.73333 12.5462C8.7355 12.5462 7.92659 11.9649 7.92659 11.2478C7.92659 10.5306 11.5401 10.5306 11.5401 11.2478C11.5401 11.9649 10.7312 12.5462 9.73333 12.5462Z" fill="#161823"/>
<path d="M6.74134 19.5C6.61955 19.4997 6.51964 19.6023 6.54041 19.7223C6.76435 21.0161 7.89227 22 9.25 22H17.75C19.2688 22 20.5 20.7688 20.5 19.25V6.75C20.5 5.23122 19.2688 4 17.75 4H17.6728C17.5483 4 17.4544 4.11252 17.4692 4.23611C17.4896 4.40457 17.5 4.57607 17.5 4.75V15.25C17.5 17.5972 15.5972 19.5 13.25 19.5H6.75C6.74711 19.5 6.74423 19.5 6.74134 19.5Z" fill="#161823"/>
</svg>
