<svg width="16" height="16" viewBox="0 0 16 16" fill="none" xmlns="http://www.w3.org/2000/svg">
<path fill-rule="evenodd" clip-rule="evenodd" d="M5.0199 2.98723C5.0199 3.76411 5.64968 4.3939 6.42656 4.3939H9.57323C10.3501 4.3939 10.9799 3.76411 10.9799 2.98723C10.9799 2.21035 10.3501 1.58057 9.57323 1.58057H6.42656C5.64968 1.58057 5.0199 2.21035 5.0199 2.98723ZM6.42656 3.3939C6.20197 3.3939 6.0199 3.21183 6.0199 2.98723C6.0199 2.76264 6.20197 2.58057 6.42656 2.58057L9.57323 2.58057C9.79783 2.58057 9.9799 2.76264 9.9799 2.98723C9.9799 3.21183 9.79783 3.3939 9.57323 3.3939L6.42656 3.3939Z" fill="#161823"/>
<path d="M2 5.00001C2 3.91841 2.66044 2.99106 3.60005 2.59925C3.66993 2.57011 3.7422 2.63056 3.73442 2.70588C3.72487 2.79838 3.71997 2.89226 3.71997 2.98729C3.71997 3.2499 3.75737 3.50378 3.82714 3.74389C3.83984 3.7876 3.82273 3.83453 3.78572 3.86104C3.43109 4.11503 3.2 4.53053 3.2 5.00001V11.8C3.2 12.5732 3.8268 13.2 4.6 13.2H11.4C12.1732 13.2 12.8 12.5732 12.8 11.8V5C12.8 4.53051 12.5689 4.115 12.2142 3.86101C12.1772 3.83451 12.1601 3.78757 12.1728 3.74386C12.2426 3.50376 12.28 3.24989 12.28 2.98728C12.28 2.89225 12.2751 2.79836 12.2655 2.70586C12.2577 2.63054 12.33 2.57009 12.3999 2.59922C13.3395 2.99102 14 3.91838 14 5V11.8C14 13.2359 12.8359 14.4 11.4 14.4H4.6C3.16406 14.4 2 13.2359 2 11.8V5.00001Z" fill="#161823"/>
<path d="M5.40005 7.20005C5.06868 7.20005 4.80005 7.46868 4.80005 7.80005C4.80005 8.13142 5.06868 8.40005 5.40005 8.40005L10.6 8.40005C10.9314 8.40005 11.2 8.13142 11.2 7.80005C11.2 7.46868 10.9314 7.20005 10.6 7.20005L5.40005 7.20005Z" fill="#161823"/>
<path d="M4.80005 10.3999C4.80005 10.0685 5.06868 9.79991 5.40005 9.79991H8.60005C8.93142 9.79991 9.20005 10.0685 9.20005 10.3999C9.20005 10.7313 8.93142 10.9999 8.60005 10.9999H5.40005C5.06868 10.9999 4.80005 10.7313 4.80005 10.3999Z" fill="#161823"/>
</svg>
