<svg width="20" height="20" viewBox="0 0 20 20" fill="none" xmlns="http://www.w3.org/2000/svg">
<path d="M10 18.75C14.8325 18.75 18.75 14.8325 18.75 10C18.75 5.16751 14.8325 1.25 10 1.25C5.16751 1.25 1.25 5.16751 1.25 10C1.25 14.8325 5.16751 18.75 10 18.75ZM9.47332 5.5031C9.76622 5.21021 10.2411 5.21021 10.534 5.5031L13.9566 8.92569C14.2495 9.21858 14.2495 9.69345 13.9566 9.98635C13.6637 10.2792 13.1888 10.2792 12.8959 9.98635L10.75 7.84047V14.2428C10.75 14.657 10.4142 14.9928 10 14.9928C9.58582 14.9928 9.25003 14.657 9.25003 14.2428V7.84772L7.1114 9.98635C6.81851 10.2792 6.34363 10.2792 6.05074 9.98635C5.75785 9.69345 5.75785 9.21858 6.05074 8.92569L9.47332 5.5031Z" fill="#161823"/>
</svg>
