<svg width="20" height="20" viewBox="0 0 20 20" fill="none" xmlns="http://www.w3.org/2000/svg">
<path d="M13.85 3C14.2642 3 14.6 2.66421 14.6 2.25C14.6 1.83579 14.2642 1.5 13.85 1.5H5.08337C4.66916 1.5 4.33337 1.83579 4.33337 2.25C4.33337 2.66421 4.66916 3 5.08337 3H13.85Z" fill="#161823"/>
<path d="M13.85 18.5C14.2642 18.5 14.6 18.1642 14.6 17.75C14.6 17.3358 14.2642 17 13.85 17H5.08337C4.66916 17 4.33337 17.3358 4.33337 17.75C4.33337 18.1642 4.66916 18.5 5.08337 18.5H13.85Z" fill="#161823"/>
<path d="M2.9834 6.75C2.9834 5.23122 4.21462 4 5.7334 4H13.2334C14.7522 4 15.9834 5.23122 15.9834 6.75V13.25C15.9834 14.7688 14.7522 16 13.2334 16H5.7334C4.21461 16 2.9834 14.7688 2.9834 13.25V6.75Z" fill="#161823"/>
</svg>
