<svg width="20" height="20" viewBox="0 0 20 20" fill="none" xmlns="http://www.w3.org/2000/svg">
<path d="M6.79975 13.8271C6.50685 13.5342 6.50686 13.0593 6.79975 12.7664C7.29047 12.2757 7.95603 12 8.65001 12C9.34399 12 10.0096 12.2757 10.5003 12.7664C10.5221 12.7883 10.5424 12.8111 10.561 12.8349C10.762 13.0054 11.0178 13.1 11.2833 13.1C11.5795 13.1 11.8635 12.9824 12.0729 12.7729C12.3658 12.4801 12.8407 12.4801 13.1336 12.7729C13.4265 13.0658 13.4265 13.5407 13.1336 13.8336C12.6429 14.3243 11.9773 14.6 11.2833 14.6C10.5894 14.6 9.9238 14.3243 9.43308 13.8336C9.41122 13.8117 9.39098 13.7889 9.37238 13.7651C9.17138 13.5946 8.91557 13.5 8.65001 13.5C8.35385 13.5 8.06982 13.6176 7.86041 13.8271C7.56751 14.12 7.09264 14.12 6.79975 13.8271Z" fill="#161823"/>
<path d="M3.5 4.47949C3.5 2.96071 4.73122 1.72949 6.25 1.72949H13.75C15.2688 1.72949 16.5 2.96071 16.5 4.47949V15.9795C16.5 17.4983 15.2688 18.7295 13.75 18.7295H6.25C4.73122 18.7295 3.5 17.4983 3.5 15.9795V4.47949ZM6.25 3.22949C5.55964 3.22949 5 3.78914 5 4.47949V15.9795C5 16.6698 5.55964 17.2295 6.25 17.2295H13.75C14.4404 17.2295 15 16.6698 15 15.9795V4.47949C15 3.78914 14.4404 3.22949 13.75 3.22949H6.25Z" fill="#161823"/>
</svg>
