<svg width="16" height="16" viewBox="0 0 16 16" fill="none" xmlns="http://www.w3.org/2000/svg">
<path d="M7.04995 7.3999C6.71858 7.3999 6.44995 7.66853 6.44995 7.9999C6.44995 8.33127 6.71858 8.5999 7.04995 8.5999H8.94995C9.28132 8.5999 9.54995 8.33127 9.54995 7.9999C9.54995 7.66853 9.28132 7.3999 8.94995 7.3999H7.04995Z" fill="#161823"/>
<path fill-rule="evenodd" clip-rule="evenodd" d="M4.75 1C3.7835 1 3 1.7835 3 2.75V13.25C3 14.2165 3.7835 15 4.75 15H11.25C12.2165 15 13 14.2165 13 13.25V2.75C13 1.7835 12.2165 1 11.25 1H4.75ZM11.25 2.2H4.75C4.44624 2.2 4.2 2.44624 4.2 2.75V7.3999H5.14995C5.48132 7.3999 5.74995 7.66853 5.74995 7.9999C5.74995 8.33127 5.48132 8.5999 5.14995 8.5999H4.2V13.25C4.2 13.5538 4.44624 13.8 4.75 13.8H11.25C11.5538 13.8 11.8 13.5538 11.8 13.25V8.5999H10.85C10.5186 8.5999 10.25 8.33127 10.25 7.9999C10.25 7.66853 10.5186 7.3999 10.85 7.3999H11.8L11.8 2.75C11.8 2.44624 11.5538 2.2 11.25 2.2Z" fill="#161823"/>
</svg>
