<svg width="20" height="20" viewBox="0 0 20 20" fill="none" xmlns="http://www.w3.org/2000/svg">
<path d="M11.7106 3.46886L11.6742 3.5053C11.3891 3.79039 11.1477 4.03181 10.9631 4.24466C10.7699 4.46743 10.6008 4.70091 10.4899 4.98175C10.257 5.57165 10.257 6.22801 10.4899 6.8179C10.6008 7.09875 10.7699 7.33223 10.9631 7.555C11.1477 7.76784 11.3891 8.00926 11.6742 8.29436L11.7106 8.3308C11.9957 8.61591 12.2372 8.85734 12.45 9.04193C12.6728 9.23512 12.9062 9.40424 13.1871 9.51512C13.777 9.74802 14.4333 9.74802 15.0232 9.51512C15.3041 9.40424 15.5376 9.23512 15.7603 9.04193C15.9732 8.85734 16.2146 8.61591 16.4997 8.33081L16.5361 8.29436C16.8212 8.00927 17.0627 7.76784 17.2473 7.555C17.4405 7.33223 17.6096 7.09875 17.7205 6.8179C17.9534 6.22801 17.9534 5.57165 17.7205 4.98175C17.6096 4.70091 17.4405 4.46743 17.2473 4.24466C17.0627 4.03181 16.8212 3.79039 16.5361 3.5053L16.4997 3.46886C16.2146 3.18376 15.9732 2.94232 15.7603 2.75773C15.5376 2.56453 15.3041 2.39542 15.0232 2.28454C14.4333 2.05164 13.777 2.05164 13.1871 2.28454C12.9062 2.39542 12.6728 2.56453 12.45 2.75773C12.2372 2.94232 11.9957 3.18375 11.7106 3.46886ZM11.8851 5.5326C11.9076 5.47554 11.9555 5.38976 12.0963 5.22743C12.2417 5.0597 12.4449 4.85593 12.7531 4.54774C13.0613 4.23955 13.265 4.0364 13.4328 3.89094C13.5951 3.75016 13.6809 3.70226 13.7379 3.67973C13.9739 3.58657 14.2364 3.58657 14.4724 3.67973C14.5295 3.70226 14.6152 3.75016 14.7776 3.89094C14.9453 4.0364 15.1491 4.23955 15.4573 4.54774C15.7654 4.85593 15.9686 5.0597 16.1141 5.22743C16.2548 5.38976 16.3027 5.47554 16.3253 5.5326C16.4184 5.76856 16.4184 6.0311 16.3253 6.26706C16.3027 6.32412 16.2548 6.4099 16.1141 6.57223C15.9686 6.73996 15.7654 6.94373 15.4573 7.25192C15.1491 7.56011 14.9453 7.76325 14.7776 7.90872C14.6152 8.0495 14.5295 8.0974 14.4724 8.11993C14.2364 8.21308 13.9739 8.21308 13.7379 8.11993C13.6809 8.0974 13.5951 8.0495 13.4328 7.90872C13.265 7.76325 13.0613 7.56011 12.7531 7.25192C12.4449 6.94373 12.2417 6.73996 12.0963 6.57223C11.9555 6.4099 11.9076 6.32412 11.8851 6.26706C11.7919 6.0311 11.7919 5.76856 11.8851 5.5326Z" fill="#161823"/>
<path d="M5.94279 2.47948H5.89126C5.48807 2.47947 5.14664 2.47946 4.86561 2.49944C4.57148 2.52036 4.2868 2.56587 4.00981 2.68605C3.42801 2.93848 2.96389 3.4026 2.71145 3.9844C2.59127 4.26139 2.54576 4.54607 2.52485 4.84021C2.50487 5.12123 2.50487 5.46264 2.50488 5.86582V5.91739C2.50487 6.32057 2.50487 6.66202 2.52485 6.94304C2.54576 7.23717 2.59127 7.52185 2.71145 7.79884C2.96389 8.38065 3.42801 8.84476 4.00981 9.0972C4.2868 9.21738 4.57148 9.26289 4.86561 9.2838C5.14664 9.30378 5.48807 9.30378 5.89127 9.30377H5.94279C6.34599 9.30378 6.68742 9.30378 6.96845 9.2838C7.26258 9.26289 7.54726 9.21738 7.82425 9.0972C8.40605 8.84476 8.87017 8.38065 9.1226 7.79884C9.24278 7.52185 9.2883 7.23717 9.30921 6.94304C9.32919 6.66201 9.32918 6.32058 9.32917 5.91739V5.86586C9.32918 5.46267 9.32919 5.12124 9.30921 4.84021C9.2883 4.54607 9.24278 4.26139 9.1226 3.9844C8.87017 3.4026 8.40605 2.93848 7.82425 2.68605C7.54726 2.56587 7.26258 2.52036 6.96845 2.49944C6.68742 2.47946 6.34599 2.47947 5.94279 2.47948ZM4.60685 4.06211C4.66313 4.03769 4.75766 4.0109 4.97199 3.99567C5.19345 3.97992 5.48118 3.97948 5.91703 3.97948C6.35288 3.97948 6.6406 3.97992 6.86207 3.99567C7.0764 4.0109 7.17092 4.03769 7.2272 4.06211C7.45992 4.16308 7.64557 4.34873 7.74654 4.58145C7.77096 4.63773 7.79775 4.73225 7.81298 4.94658C7.82873 5.16805 7.82917 5.45577 7.82917 5.89162C7.82917 6.32747 7.82873 6.6152 7.81298 6.83667C7.79775 7.05099 7.77096 7.14552 7.74654 7.2018C7.64557 7.43452 7.45992 7.62017 7.2272 7.72114C7.17092 7.74556 7.0764 7.77234 6.86207 7.78758C6.6406 7.80333 6.35288 7.80377 5.91703 7.80377C5.48118 7.80377 5.19345 7.80333 4.97199 7.78758C4.75766 7.77234 4.66313 7.74556 4.60685 7.72114C4.37413 7.62017 4.18849 7.43452 4.08751 7.2018C4.06309 7.14552 4.03631 7.05099 4.02107 6.83667C4.00533 6.6152 4.00488 6.32747 4.00488 5.89162C4.00488 5.45577 4.00533 5.16805 4.02107 4.94658C4.03631 4.73225 4.06309 4.63773 4.08751 4.58145C4.18849 4.34873 4.37413 4.16308 4.60685 4.06211Z" fill="#161823"/>
<path d="M14.0825 10.6707H14.1341C14.5372 10.6707 14.8787 10.6707 15.1597 10.6907C15.4539 10.7116 15.7385 10.7571 16.0155 10.8773C16.5973 11.1297 17.0615 11.5938 17.3139 12.1756C17.4341 12.4526 17.4796 12.7373 17.5005 13.0314C17.5205 13.3125 17.5205 13.6539 17.5205 14.0571V14.1086C17.5205 14.5118 17.5205 14.8532 17.5005 15.1343C17.4796 15.4284 17.4341 15.7131 17.3139 15.9901C17.0615 16.5719 16.5973 17.036 16.0155 17.2884C15.7385 17.4086 15.4539 17.4541 15.1597 17.475C14.8787 17.495 14.5373 17.495 14.1341 17.495H14.0825C13.6794 17.495 13.3379 17.495 13.0569 17.475C12.7628 17.4541 12.4781 17.4086 12.2011 17.2884C11.6193 17.036 11.1552 16.5719 10.9027 15.9901C10.7826 15.7131 10.737 15.4284 10.7161 15.1343C10.6962 14.8532 10.6962 14.5118 10.6962 14.1087V14.0571C10.6962 13.6539 10.6962 13.3124 10.7161 13.0314C10.737 12.7373 10.7826 12.4526 10.9027 12.1756C11.1552 11.5938 11.6193 11.1297 12.2011 10.8773C12.4781 10.7571 12.7628 10.7116 13.0569 10.6907C13.3379 10.6707 13.6794 10.6707 14.0825 10.6707ZM13.1633 12.1869C12.9489 12.2021 12.8544 12.2289 12.7981 12.2533C12.5654 12.3543 12.3798 12.54 12.2788 12.7727C12.2544 12.829 12.2276 12.9235 12.2124 13.1378C12.1966 13.3593 12.1962 13.647 12.1962 14.0828C12.1962 14.5187 12.1966 14.8064 12.2124 15.0279C12.2276 15.2422 12.2544 15.3367 12.2788 15.393C12.3798 15.6257 12.5654 15.8114 12.7981 15.9124C12.8544 15.9368 12.9489 15.9636 13.1633 15.9788C13.3847 15.9945 13.6725 15.995 14.1083 15.995C14.5442 15.995 14.8319 15.9945 15.0534 15.9788C15.2677 15.9636 15.3622 15.9368 15.4185 15.9124C15.6512 15.8114 15.8369 15.6257 15.9378 15.393C15.9622 15.3367 15.989 15.2422 16.0043 15.0279C16.02 14.8064 16.0205 14.5187 16.0205 14.0828C16.0205 13.647 16.02 13.3593 16.0043 13.1378C15.989 12.9235 15.9622 12.829 15.9378 12.7727C15.8369 12.54 15.6512 12.3543 15.4185 12.2533C15.3622 12.2289 15.2677 12.2021 15.0534 12.1869C14.8319 12.1711 14.5442 12.1707 14.1083 12.1707C13.6725 12.1707 13.3847 12.1711 13.1633 12.1869Z" fill="#161823"/>
<path d="M5.94279 10.6707H5.89126C5.48808 10.6707 5.14663 10.6707 4.86561 10.6907C4.57148 10.7116 4.2868 10.7571 4.00981 10.8773C3.42801 11.1297 2.96389 11.5938 2.71145 12.1756C2.59127 12.4526 2.54576 12.7373 2.52485 13.0314C2.50487 13.3125 2.50487 13.6539 2.50488 14.057V14.1086C2.50487 14.5118 2.50487 14.8532 2.52485 15.1343C2.54576 15.4284 2.59127 15.7131 2.71145 15.9901C2.96389 16.5719 3.42801 17.036 4.00981 17.2884C4.2868 17.4086 4.57148 17.4541 4.86561 17.475C5.14663 17.495 5.48806 17.495 5.89124 17.495H5.94279C6.34598 17.495 6.68742 17.495 6.96845 17.475C7.26258 17.4541 7.54726 17.4086 7.82425 17.2884C8.40605 17.036 8.87017 16.5719 9.1226 15.9901C9.24278 15.7131 9.2883 15.4284 9.30921 15.1343C9.32919 14.8532 9.32918 14.5118 9.32917 14.1086V14.0571C9.32918 13.6539 9.32919 13.3125 9.30921 13.0314C9.2883 12.7373 9.24278 12.4526 9.1226 12.1756C8.87017 11.5938 8.40605 11.1297 7.82425 10.8773C7.54726 10.7571 7.26258 10.7116 6.96845 10.6907C6.68742 10.6707 6.34598 10.6707 5.94279 10.6707ZM4.60685 12.2533C4.66313 12.2289 4.75766 12.2021 4.97199 12.1869C5.19345 12.1711 5.48118 12.1707 5.91703 12.1707C6.35288 12.1707 6.6406 12.1711 6.86207 12.1869C7.0764 12.2021 7.17092 12.2289 7.2272 12.2533C7.45992 12.3543 7.64557 12.54 7.74654 12.7727C7.77096 12.829 7.79775 12.9235 7.81298 13.1378C7.82873 13.3593 7.82917 13.647 7.82917 14.0828C7.82917 14.5187 7.82873 14.8064 7.81298 15.0279C7.79775 15.2422 7.77096 15.3367 7.74654 15.393C7.64557 15.6257 7.45992 15.8114 7.2272 15.9124C7.17092 15.9368 7.0764 15.9636 6.86207 15.9788C6.6406 15.9945 6.35288 15.995 5.91703 15.995C5.48118 15.995 5.19345 15.9945 4.97199 15.9788C4.75766 15.9636 4.66313 15.9368 4.60685 15.9124C4.37413 15.8114 4.18849 15.6257 4.08751 15.393C4.06309 15.3367 4.03631 15.2422 4.02107 15.0279C4.00533 14.8064 4.00488 14.5187 4.00488 14.0828C4.00488 13.647 4.00533 13.3593 4.02107 13.1378C4.03631 12.9235 4.06309 12.829 4.08751 12.7727C4.18849 12.54 4.37413 12.3543 4.60685 12.2533Z" fill="#161823"/>
</svg>
