<svg width="16" height="16" viewBox="0 0 16 16" fill="none" xmlns="http://www.w3.org/2000/svg">
<path d="M7.00026 1.18335C3.7878 1.18335 1.18359 3.78756 1.18359 7.00002C1.18359 10.2125 3.7878 12.8167 7.00026 12.8167C8.15406 12.8167 9.22939 12.4807 10.1338 11.9013L12.783 14.5506C13.2712 15.0387 14.0626 15.0387 14.5508 14.5506C15.0389 14.0624 15.0389 13.271 14.5508 12.7828L11.9016 10.1336C12.481 9.22918 12.8169 8.15383 12.8169 7.00002C12.8169 3.78756 10.2127 1.18335 7.00026 1.18335ZM7.00029 11.1667C4.6991 11.1667 2.83362 9.3012 2.83362 7.00001C2.83362 4.69882 4.6991 2.83334 7.00029 2.83334C9.30147 2.83334 11.167 4.69882 11.167 7.00001C11.167 9.3012 9.30147 11.1667 7.00029 11.1667Z" fill="#161823"/>
</svg>
