<svg width="24" height="24" viewBox="0 0 24 24" fill="none" xmlns="http://www.w3.org/2000/svg">
<path fill-rule="evenodd" clip-rule="evenodd" d="M7.44774 5.44997H7.2002C5.95755 5.44997 4.9502 6.45733 4.9502 7.69997V17.9C4.9502 19.1426 5.95755 20.15 7.20019 20.15H16.8002C18.0428 20.15 19.0502 19.1426 19.0502 17.9V7.69997C19.0502 6.45733 18.0428 5.44997 16.8002 5.44997H16.5527C16.2369 6.34328 15.385 6.9833 14.3835 6.9833H9.61686C8.61543 6.9833 7.76348 6.34328 7.44774 5.44997ZM16.5641 3.94997H16.8002C18.8713 3.94997 20.5502 5.6289 20.5502 7.69997V17.9C20.5502 19.971 18.8713 21.65 16.8002 21.65H7.20019C5.12913 21.65 3.4502 19.971 3.4502 17.9V7.69997C3.4502 5.6289 5.12913 3.94997 7.2002 3.94997H7.43624C7.74238 3.03928 8.60301 2.3833 9.61686 2.3833H14.3835C15.3974 2.3833 16.258 3.03928 16.5641 3.94997ZM8.81686 4.6833C8.81686 4.24147 9.17503 3.8833 9.61686 3.8833H14.3835C14.8254 3.8833 15.1835 4.24147 15.1835 4.6833C15.1835 5.12513 14.8254 5.4833 14.3835 5.4833H9.61686C9.17503 5.4833 8.81686 5.12513 8.81686 4.6833ZM7.33353 11.25C7.33353 10.8358 7.66932 10.5 8.08353 10.5H15.9169C16.3311 10.5 16.6669 10.8358 16.6669 11.25C16.6669 11.6642 16.3311 12 15.9169 12H8.08353C7.66931 12 7.33353 11.6642 7.33353 11.25ZM8.08353 14.0333C7.66932 14.0333 7.33353 14.3691 7.33353 14.7833C7.33353 15.1975 7.66932 15.5333 8.08353 15.5333H13.1502C13.5644 15.5333 13.9002 15.1975 13.9002 14.7833C13.9002 14.3691 13.5644 14.0333 13.1502 14.0333H8.08353Z" fill="#161823"/>
</svg>
