<svg width="20" height="20" viewBox="0 0 20 20" fill="none" xmlns="http://www.w3.org/2000/svg">
<path fill-rule="evenodd" clip-rule="evenodd" d="M14.6836 12.8005C15.8157 12.8005 16.7333 13.7182 16.7334 14.8503C16.7331 15.9823 15.8156 16.9001 14.6836 16.9001C13.5517 16.9 12.6341 15.9822 12.6338 14.8503C12.6339 13.7183 13.5516 12.8006 14.6836 12.8005ZM14.6836 14.1335C14.2879 14.1337 13.9669 14.4547 13.9668 14.8503C13.9671 15.2459 14.288 15.567 14.6836 15.5671C15.0792 15.5671 15.4001 15.2459 15.4004 14.8503C15.4003 14.4546 15.0793 14.1335 14.6836 14.1335Z" fill="#161823"/>
<path fill-rule="evenodd" clip-rule="evenodd" d="M13.9121 10.3005C14.3769 10.0336 14.9493 10.0335 15.4141 10.3005L18.2402 11.9255C18.705 12.1927 18.9922 12.6862 18.9922 13.2205V16.4685L18.9785 16.6667C18.9173 17.1228 18.647 17.5306 18.2402 17.7644L15.4141 19.3884C15.0074 19.622 14.5181 19.6515 14.0908 19.4763L13.9121 19.3884L11.085 17.7644C10.6203 17.4973 10.3341 17.0026 10.334 16.4685V13.2205C10.334 12.6864 10.6204 12.1928 11.085 11.9255L13.9121 10.3005ZM14.6592 11.6013L11.834 13.2244V16.4636L14.6592 18.0876L14.6631 18.0886L14.667 18.0876L17.4922 16.4636V13.2244L14.667 11.6013L14.6631 11.6003C14.6611 11.6003 14.6592 11.6013 14.6592 11.6013Z" fill="#161823"/>
<path d="M12.3711 1.43726C14.1324 1.5263 15.533 2.98293 15.5332 4.76636V8.68335C15.5332 8.78241 15.4279 8.84839 15.335 8.81421C14.9741 8.68162 14.583 8.65813 14.2119 8.74585C14.123 8.76679 14.0332 8.7024 14.0332 8.61108V4.76636C14.033 3.75405 13.2125 2.93346 12.2002 2.93335H5.33301C4.32074 2.93353 3.50018 3.75409 3.5 4.76636V14.6667C3.50003 15.6791 4.32066 16.4996 5.33301 16.4998H8.92188C8.99551 16.4998 9.05566 16.5599 9.05566 16.6335V16.95C9.05567 17.2443 9.12272 17.5291 9.24609 17.7859C9.29187 17.8811 9.22675 17.9998 9.12109 17.9998H5.33301C3.54987 17.9996 2.09337 16.5996 2.00391 14.8386L2 14.6667V4.76636C2.00018 2.92567 3.49232 1.43353 5.33301 1.43335H12.2002L12.3711 1.43726Z" fill="#161823"/>
<path fill-rule="evenodd" clip-rule="evenodd" d="M6.61621 7.5603C6.61621 6.38595 7.93462 5.78994 8.8457 6.3894L11.4141 8.07983C12.2613 8.63766 12.2614 9.86289 11.4141 10.4207L8.8457 12.1111C7.93464 12.7104 6.61626 12.1144 6.61621 10.9402V7.5603ZM8.11621 10.7957L10.4629 9.24976L8.11621 7.70386V10.7957Z" fill="#161823"/>
</svg>
