<svg width="20" height="20" viewBox="0 0 20 20" fill="none" xmlns="http://www.w3.org/2000/svg">
<g clip-path="url(#clip0_2_2706)">
<path d="M11.8334 5.16472C11.8334 3.83222 10.8819 3 10 3C9.11812 3 8.16669 3.83222 8.16669 5.16472C8.16669 6.49722 9.11812 7.32945 10 7.32945C10.8819 7.32945 11.8334 6.49722 11.8334 5.16472ZM13.3334 5.16472C13.3334 7.18869 11.841 8.82945 10 8.82945C8.15907 8.82945 6.66669 7.18869 6.66669 5.16472C6.66669 3.14075 8.15907 1.5 10 1.5C11.841 1.5 13.3334 3.14075 13.3334 5.16472ZM10 10.3333C8.03747 10.3333 6.20909 10.7693 4.81775 11.5568C3.46558 12.3222 2.25 13.6061 2.25 15.3461V15.83C2.25 17.1187 3.29467 18.1633 4.58333 18.1633H11.0622C11.2457 18.1633 11.3415 17.9265 11.2286 17.7819C11.004 17.494 10.8341 17.1661 10.7287 16.815C10.7021 16.7267 10.6225 16.6633 10.5303 16.6633H4.58333C4.1231 16.6633 3.75 16.2902 3.75 15.83V15.3461C3.75 13.406 6.48438 11.8333 10 11.8333C10.2464 11.8333 10.489 11.8411 10.7271 11.8561C10.811 11.8614 10.8892 11.8145 10.9276 11.7398C11.1084 11.3872 11.3582 11.0789 11.6586 10.8261C11.8019 10.7055 11.7496 10.4511 11.5638 10.4282C11.0565 10.3655 10.5332 10.3333 10 10.3333ZM15.177 10.4587C15.7185 10.1461 16.3856 10.1461 16.927 10.4587L19.1357 11.7339C19.6772 12.0465 20.0107 12.6242 20.0107 13.2494V15.7998C20.0107 16.425 19.6772 17.0027 19.1357 17.3153L16.927 18.5905C16.3856 18.9031 15.7185 18.9031 15.177 18.5905L12.9684 17.3153C12.4269 17.0027 12.0934 16.425 12.0934 15.7998V13.2494C12.0934 12.6242 12.4269 12.0465 12.9684 11.7339L15.177 10.4587ZM16.177 11.7578C16.0997 11.7131 16.0044 11.7131 15.927 11.7578L13.7184 13.0329C13.641 13.0776 13.5934 13.1601 13.5934 13.2494V15.7998C13.5934 15.8891 13.641 15.9716 13.7184 16.0163L15.927 17.2915C16.0044 17.3361 16.0997 17.3361 16.177 17.2915L18.3857 16.0163C18.4631 15.9716 18.5107 15.8891 18.5107 15.7998V13.2494C18.5107 13.1601 18.4631 13.0776 18.3857 13.0329L16.177 11.7578ZM17.2481 14.5207C17.2481 15.1835 16.7108 15.7207 16.0481 15.7207C15.3854 15.7207 14.8481 15.1835 14.8481 14.5207C14.8481 13.858 15.3854 13.3207 16.0481 13.3207C16.7108 13.3207 17.2481 13.858 17.2481 14.5207Z" fill="#161823"/>
</g>
<defs>
<clipPath id="clip0_2_2706">
<rect width="20" height="20" fill="white"/>
</clipPath>
</defs>
</svg>
