<svg width="16" height="16" viewBox="0 0 16 16" fill="none" xmlns="http://www.w3.org/2000/svg">
<path d="M3.34985 1.40052C3.34985 1.04153 3.64087 0.750519 3.99985 0.750519H11.9999C12.3588 0.750519 12.6499 1.04153 12.6499 1.40052C12.6499 1.7595 12.3588 2.05052 11.9999 2.05052H3.99985C3.64087 2.05052 3.34985 1.7595 3.34985 1.40052Z" fill="#161823"/>
<path d="M8.42507 2.97671C8.31247 2.86359 8.15944 2.8 7.99983 2.8C7.84022 2.8 7.68719 2.86359 7.57459 2.97671L2.42409 8.15106C1.85914 8.71863 2.26115 9.68598 3.06196 9.68598H5.5887V15.4C5.5887 15.7314 5.85733 16 6.1887 16H9.81096C10.1423 16 10.411 15.7314 10.411 15.4V9.68598H12.9377C13.7385 9.68598 14.1405 8.71863 13.5756 8.15106L8.42507 2.97671Z" fill="#161823"/>
</svg>
