<svg width="16" height="16" viewBox="0 0 16 16" fill="none" xmlns="http://www.w3.org/2000/svg">
<path fill-rule="evenodd" clip-rule="evenodd" d="M3.51094 3.69298C3.32613 2.97929 3.51307 2.18914 4.07175 1.63011C4.91138 0.789963 6.27268 0.789963 7.11231 1.63011L7.89013 2.40841C7.92851 2.44681 7.96513 2.48631 8 2.52679C8.03487 2.48631 8.07149 2.44681 8.10987 2.40841L8.88769 1.63011C9.72732 0.789963 11.0886 0.789963 11.9282 1.63011C12.4869 2.18914 12.6739 2.97929 12.4891 3.69298H13.5C14.3284 3.69298 15 4.36497 15 5.19391V5.69422C15 6.24685 14.5523 6.69484 14 6.69484H2C1.44772 6.69484 1 6.24685 1 5.69422V5.19391C1 4.36497 1.67157 3.69298 2.5 3.69298H3.51094ZM7.29009 3.69298H4.81114C4.55379 3.32241 4.59017 2.80948 4.92028 2.47917C5.29128 2.10794 5.89279 2.10794 6.26378 2.47917L7.0416 3.25747C7.16644 3.38238 7.24927 3.53341 7.29009 3.69298ZM11.1889 3.69298H8.70991C8.75073 3.53341 8.83356 3.38238 8.9584 3.25747L9.73622 2.47917C10.1072 2.10794 10.7087 2.10794 11.0797 2.47917C11.4098 2.80948 11.4462 3.32241 11.1889 3.69298Z" fill="#161823"/>
<path d="M7.39995 7.86224H2.3V13.4991C2.3 14.328 2.97157 15 3.8 15H7.39995V7.86224Z" fill="#161823"/>
<path d="M8.59995 15H12.2C13.0284 15 13.7 14.328 13.7 13.4991V7.86224H8.59995V15Z" fill="#161823"/>
</svg>
