<svg width="20" height="20" viewBox="0 0 20 20" fill="none" xmlns="http://www.w3.org/2000/svg">
<path d="M12.0834 13.3333C15.0749 13.3333 17.5 10.9082 17.5 7.91667C17.5 4.92512 15.0749 2.5 12.0834 2.5C9.09182 2.5 6.66669 4.92512 6.66669 7.91667C6.66669 9.14198 7.07355 10.2723 7.75953 11.1798L6.25001 12.6893L3.8637 10.303C3.57081 10.0101 3.09594 10.0101 2.80304 10.303C2.51015 10.5959 2.51015 11.0708 2.80304 11.3637L5.18935 13.75L2.59467 16.3447C2.30178 16.6376 2.30178 17.1124 2.59467 17.4053C2.88756 17.6982 3.36244 17.6982 3.65533 17.4053L6.25001 14.8106L8.63636 17.197C8.92926 17.4899 9.40413 17.4899 9.69702 17.197C9.98992 16.9041 9.98992 16.4292 9.69702 16.1363L7.31067 13.75L8.82019 12.2405C9.72773 12.9265 10.858 13.3333 12.0834 13.3333ZM12.0834 11.8333C9.92024 11.8333 8.16669 10.0798 8.16669 7.91667C8.16669 5.75355 9.92024 4 12.0834 4C14.2465 4 16 5.75355 16 7.91667C16 10.0798 14.2465 11.8333 12.0834 11.8333Z" fill="#161823"/>
</svg>
