<svg width="24" height="24" viewBox="0 0 24 24" fill="none" xmlns="http://www.w3.org/2000/svg">
<path d="M19 13.4999C19 14.3284 18.3284 14.9999 17.5 14.9999C16.6716 14.9999 16 14.3284 16 13.4999C16 12.6715 16.6716 11.9999 17.5 11.9999C18.3284 11.9999 19 12.6715 19 13.4999Z" fill="#161823"/>
<path d="M2 18.2499V6.93251C2 5.58582 2.97525 4.43725 4.30411 4.2189L16.9663 2.13832C18.0317 1.96325 19 2.7854 19 3.86517V5.99994H19.25C20.7688 5.99994 22 7.23116 22 8.74994V18.2499C22 19.7687 20.7688 20.9999 19.25 20.9999H4.75C3.23122 20.9999 2 19.7687 2 18.2499ZM4.75 7.49994C4.05964 7.49994 3.5 8.05958 3.5 8.74994V18.2499C3.5 18.9403 4.05964 19.4999 4.75 19.4999H19.25C19.9404 19.4999 20.5 18.9403 20.5 18.2499V8.74994C20.5 8.05958 19.9404 7.49994 19.25 7.49994H4.75ZM17.5001 3.80193C17.5001 3.67851 17.3894 3.58455 17.2676 3.60458L4.51512 5.70193C4.33323 5.73184 4.35513 5.99994 4.53946 5.99994H17.5L17.5001 3.80193Z" fill="#161823"/>
</svg>
