<svg width="20" height="20" viewBox="0 0 20 20" fill="none" xmlns="http://www.w3.org/2000/svg">
<path d="M3.95801 4.70825C2.99151 4.70825 2.20801 5.49175 2.20801 6.45825V13.5416C2.20801 14.5081 2.99151 15.2916 3.95801 15.2916H6.34416L5.67426 15.9413C5.41271 16.195 5.24063 16.4871 5.14747 16.7916H3.95801C2.16308 16.7916 0.708008 15.3365 0.708008 13.5416V6.45825C0.708008 4.66332 2.16308 3.20825 3.95801 3.20825H16.0413C17.8363 3.20825 19.2913 4.66333 19.2913 6.45825V13.5416C19.2913 15.3365 17.8363 16.7916 16.0413 16.7916H14.8519C14.7588 16.4871 14.5867 16.195 14.3251 15.9413L13.6552 15.2916H16.0413C17.0078 15.2916 17.7913 14.5081 17.7913 13.5416V6.45825C17.7913 5.49175 17.0078 4.70825 16.0413 4.70825H3.95801Z" fill="#161823"/>
<path d="M10.5798 14.3984C10.2566 14.0849 9.74274 14.0849 9.41948 14.3984L6.71857 17.0181C6.39616 17.3308 6.61753 17.877 7.06668 17.877H12.9327C13.3818 17.877 13.6032 17.3308 13.2808 17.0181L10.5798 14.3984Z" fill="#161823"/>
</svg>
