<svg width="24" height="24" viewBox="0 0 24 24" fill="none" xmlns="http://www.w3.org/2000/svg">
<path d="M13.0317 1.51292C12.3602 1.32155 11.6486 1.32146 10.977 1.51266L4.24695 3.42884C3.06516 3.76532 2.25 4.84497 2.25 6.07373V9.81877C2.25 15.5681 5.9483 20.6693 11.4441 22.6031C11.8045 22.73 12.1982 22.7299 12.5586 22.6031C18.0529 20.6693 21.75 15.5692 21.75 9.8212V6.07333C21.75 4.84483 20.9352 3.76534 19.7537 3.42864L13.0317 1.51292ZM14.2 8.27594C14.2 9.64284 13.2151 10.5659 12 10.5659C10.785 10.5659 9.80005 9.64284 9.80005 8.27594C9.80005 6.90903 10.785 5.99094 12 5.99094C13.2151 5.99094 14.2 6.90903 14.2 8.27594ZM8.62529 12.6559C9.5203 12.0878 10.711 11.7659 12 11.7659C13.2891 11.7659 14.4798 12.0878 15.3748 12.6559C16.2622 13.2193 16.95 14.0964 16.95 15.1909C16.95 15.9503 16.3344 16.5659 15.575 16.5659H8.42505C7.66566 16.5659 7.05005 15.9503 7.05005 15.1909C7.05005 14.0964 7.73785 13.2193 8.62529 12.6559Z" fill="#161823"/>
</svg>
