<svg width="24" height="24" viewBox="0 0 24 24" fill="none" xmlns="http://www.w3.org/2000/svg">
<path d="M11.9995 1.5C12.9849 1.5 13.8372 2.07014 14.2444 2.89855C16.7279 3.81274 18.4995 6.19815 18.4995 9V10.9941C18.4995 12.0238 18.7889 13.0328 19.3346 13.906L20.5324 15.8225C21.2609 16.9881 20.4229 18.5 19.0484 18.5H15.7495C15.7495 20.5711 14.0706 22.25 11.9995 22.25C9.92842 22.25 8.24949 20.5711 8.24949 18.5H4.95055C3.57605 18.5 2.73806 16.9881 3.46656 15.8225L4.66438 13.906C5.21012 13.0328 5.49949 12.0238 5.49949 10.9941V9C5.49949 6.19815 7.27107 3.81274 9.75458 2.89855C10.1618 2.07014 11.0141 1.5 11.9995 1.5ZM6.99949 10.9941C6.99949 12.3049 6.63111 13.5894 5.93637 14.701L4.73855 16.6175C4.63448 16.784 4.75419 17 4.95055 17H19.0484C19.2448 17 19.3645 16.784 19.2604 16.6175L18.0626 14.701C17.3679 13.5894 16.9995 12.3049 16.9995 10.9941V9C16.9995 6.58104 15.2817 4.56329 12.9995 4.10002V4C12.9995 3.44772 12.5518 3 11.9995 3C11.4472 3 10.9995 3.44772 10.9995 4V4.10002C8.71725 4.56329 6.99949 6.58104 6.99949 9V10.9941ZM9.74949 18.5C9.74949 19.7426 10.7568 20.75 11.9995 20.75C13.2421 20.75 14.2495 19.7426 14.2495 18.5H9.74949Z" fill="#161823"/>
<path d="M6.69548 2.0002C6.97302 2.30768 6.94874 2.78193 6.64126 3.05947C5.68031 3.92684 4.93138 5.02331 4.48029 6.26157C4.33851 6.65076 3.90808 6.85133 3.51888 6.70955C3.12969 6.56778 2.92912 6.13734 3.0709 5.74814C3.60728 4.27572 4.49682 2.9744 5.63621 1.94598C5.94369 1.66844 6.41794 1.69271 6.69548 2.0002Z" fill="#161823"/>
<path d="M17.3538 3.05947C17.0463 2.78193 17.022 2.30768 17.2996 2.0002C17.5771 1.69271 18.0514 1.66844 18.3588 1.94598C19.4982 2.9744 20.3878 4.27572 20.9242 5.74814C21.0659 6.13734 20.8654 6.56778 20.4762 6.70955C20.087 6.85133 19.6565 6.65076 19.5148 6.26157C19.0637 5.02331 18.3148 3.92684 17.3538 3.05947Z" fill="#161823"/>
</svg>
