<svg width="20" height="20" viewBox="0 0 20 20" fill="none" xmlns="http://www.w3.org/2000/svg">
<path d="M8.76249 10.3889C9.11159 10.1507 9.11159 9.63583 8.76249 9.39763L6.93606 8.15141C6.53779 7.87966 5.99789 8.16488 5.99789 8.64703L5.99788 11.1395C5.99788 11.6216 6.53779 11.9068 6.93606 11.6351L8.76249 10.3889Z" fill="#161823"/>
<path d="M4.84375 2.03477C3.46304 2.03477 2.34375 3.15406 2.34375 4.53477V15.2517C2.34375 16.6324 3.46304 17.7517 4.84375 17.7517H9.66684C11.0475 17.7517 12.1668 16.6324 12.1668 15.2517V4.53477C12.1668 3.15406 11.0475 2.03477 9.66684 2.03477H4.84375ZM9.66684 3.53477C10.2191 3.53477 10.6668 3.98249 10.6668 4.53477V15.2517C10.6668 15.804 10.2191 16.2517 9.66684 16.2517H4.84375C4.29147 16.2517 3.84375 15.804 3.84375 15.2517V4.53477C3.84375 3.98249 4.29146 3.53477 4.84375 3.53477H9.66684Z" fill="#161823"/>
<path d="M13.0284 17.2432C12.9896 17.3056 13.0263 17.3883 13.0995 17.3947C14.2847 17.4974 15.4088 16.7394 15.7274 15.5504L17.891 7.47584C18.2483 6.14218 17.4569 4.77133 16.1232 4.41398L13.6978 3.76411C13.6239 3.74429 13.5555 3.81171 13.5709 3.88671C13.6623 4.33114 13.6666 4.77862 13.6668 5.23198C13.6669 5.27724 13.6972 5.31686 13.741 5.32858L15.735 5.86287C16.2684 6.00581 16.585 6.55415 16.4421 7.08761L14.2785 15.1622C14.1947 15.4748 13.9717 15.713 13.694 15.8278C13.6247 15.8564 13.5694 15.9138 13.5521 15.9867C13.4451 16.4376 13.2663 16.8607 13.0284 17.2432Z" fill="#161823"/>
</svg>
