<svg width="24" height="24" viewBox="0 0 24 24" fill="none" xmlns="http://www.w3.org/2000/svg">
<path d="M12 8.50482C9.65279 8.50482 7.75 10.4076 7.75 12.7548C7.75 15.102 9.65279 17.0048 12 17.0048C14.3472 17.0048 16.25 15.102 16.25 12.7548C16.25 10.4076 14.3472 8.50482 12 8.50482ZM9.25 12.7548C9.25 11.236 10.4812 10.0048 12 10.0048C13.5188 10.0048 14.75 11.236 14.75 12.7548C14.75 14.2736 13.5188 15.5048 12 15.5048C10.4812 15.5048 9.25 14.2736 9.25 12.7548Z" fill="#161823"/>
<path d="M2 9.75C2 7.67893 3.67893 6 5.75 6H6.78593C6.91967 6 7.04456 5.93316 7.11875 5.82188L8.40627 3.8906C8.7772 3.3342 9.40166 3 10.0704 3H13.9296C14.5983 3 15.2228 3.3342 15.5937 3.8906L16.8813 5.82188C16.9554 5.93316 17.0803 6 17.2141 6H18.25C20.3211 6 22 7.67893 22 9.75V17.25C22 19.3211 20.3211 21 18.25 21H5.75C3.67893 21 2 19.3211 2 17.25V9.75ZM20.5 9.75C20.5 8.50736 19.4926 7.5 18.25 7.5H17.2141C16.5788 7.5 15.9856 7.18251 15.6332 6.65393L14.3457 4.72265C14.2529 4.58355 14.0968 4.5 13.9296 4.5H10.0704C9.90319 4.5 9.74708 4.58355 9.65434 4.72265L8.36682 6.65393C8.01444 7.18251 7.4212 7.5 6.78593 7.5H5.75C4.50736 7.5 3.5 8.50736 3.5 9.75V17.25C3.5 18.4926 4.50736 19.5 5.75 19.5H18.25C19.4926 19.5 20.5 18.4926 20.5 17.25V9.75Z" fill="#161823"/>
</svg>
