<svg width="20" height="20" viewBox="0 0 20 20" fill="none" xmlns="http://www.w3.org/2000/svg">
<path d="M10.0003 18.3334C14.6027 18.3334 18.3337 14.6024 18.3337 10C18.3337 5.39765 14.6027 1.66669 10.0003 1.66669C5.39795 1.66669 1.66699 5.39765 1.66699 10C1.66699 14.6024 5.39795 18.3334 10.0003 18.3334ZM8.33374 7.91667C8.33374 8.83714 7.7741 9.58333 7.08374 9.58333C6.39338 9.58333 5.83374 8.83714 5.83374 7.91667C5.83374 6.99619 6.39338 6.25 7.08374 6.25C7.7741 6.25 8.33374 6.99619 8.33374 7.91667ZM12.917 9.58333C12.2266 9.58333 11.667 8.83714 11.667 7.91667C11.667 6.99619 12.2266 6.25 12.917 6.25C13.6073 6.25 14.167 6.99619 14.167 7.91667C14.167 8.83714 13.6073 9.58333 12.917 9.58333ZM10.0004 13.3587C8.61965 13.3587 7.50037 12.5592 7.50037 11.573C7.50037 10.5868 12.5004 10.5868 12.5004 11.573C12.5004 12.5592 11.3811 13.3587 10.0004 13.3587Z" fill="#161823"/>
</svg>
