<svg width="24" height="24" viewBox="0 0 24 24" fill="none" xmlns="http://www.w3.org/2000/svg">
<path d="M10 9.5C10 10.6046 9.32843 11.5 8.5 11.5C7.67157 11.5 7 10.6046 7 9.5C7 8.39543 7.67157 7.5 8.5 7.5C9.32843 7.5 10 8.39543 10 9.5Z" fill="#161823"/>
<path d="M15.5 11.5C16.3284 11.5 17 10.6046 17 9.5C17 8.39543 16.3284 7.5 15.5 7.5C14.6716 7.5 14 8.39543 14 9.5C14 10.6046 14.6716 11.5 15.5 11.5Z" fill="#161823"/>
<path d="M12 13.75C13.5662 13.75 15.2977 14.5135 16.2235 15.8123C16.4639 16.1496 16.3854 16.6179 16.0481 16.8583C15.7108 17.0988 15.2424 17.0202 15.002 16.6829C14.3986 15.8364 13.1562 15.25 12 15.25C10.8442 15.25 9.60223 15.836 8.99858 16.6822C8.75802 17.0194 8.28966 17.0977 7.95245 16.8571C7.61525 16.6166 7.5369 16.1482 7.77746 15.811C8.7034 14.5131 10.4342 13.75 12 13.75Z" fill="#161823"/>
<path d="M22 12C22 17.5228 17.5228 22 12 22C6.47715 22 2 17.5228 2 12C2 6.47715 6.47715 2 12 2C17.5228 2 22 6.47715 22 12ZM20.5 12C20.5 7.30558 16.6944 3.5 12 3.5C7.30558 3.5 3.5 7.30558 3.5 12C3.5 16.6944 7.30558 20.5 12 20.5C16.6944 20.5 20.5 16.6944 20.5 12Z" fill="#161823"/>
</svg>
