<svg width="24" height="24" viewBox="0 0 24 24" fill="none" xmlns="http://www.w3.org/2000/svg">
<path fill-rule="evenodd" clip-rule="evenodd" d="M1.24316 10.9291C1.24316 8.8935 2.89331 7.24334 4.92888 7.24335C5.65754 7.24335 6.33682 7.4548 6.9087 7.81968L10.8644 3.864C12.3204 2.40796 14.6811 2.40796 16.1372 3.864C17.5932 5.32004 17.5932 7.68075 16.1372 9.1368L9.13717 16.1368C8.38407 16.8899 8.38407 18.1109 9.13717 18.864C9.89027 19.6171 11.1113 19.6171 11.8644 18.864L15.8556 14.8728C15.5568 14.3402 15.3864 13.7259 15.3864 13.0719C15.3864 11.0363 17.0365 9.38614 19.0721 9.38614C21.1077 9.38614 22.7578 11.0363 22.7578 13.0719C22.7578 15.1074 21.1077 16.7576 19.0721 16.7576C18.3436 16.7576 17.6644 16.5462 17.0926 16.1814L13.1372 20.1368C11.6811 21.5928 9.32042 21.5928 7.86438 20.1368C6.40834 18.6808 6.40834 16.32 7.86438 14.864L14.8644 7.864C15.6175 7.1109 15.6175 5.88989 14.8644 5.1368C14.1113 4.3837 12.8903 4.3837 12.1372 5.1368L8.14555 9.12841C8.44427 9.66088 8.61459 10.2751 8.61459 10.9291C8.61459 12.9646 6.96444 14.6148 4.92888 14.6148C2.89331 14.6148 1.24316 12.9646 1.24316 10.9291ZM4.92888 9.04334C3.88743 9.04334 3.04316 9.88761 3.04316 10.9291C3.04316 11.9705 3.88743 12.8148 4.92888 12.8148C5.97033 12.8148 6.81459 11.9705 6.81459 10.9291C6.81459 9.88761 5.97033 9.04335 4.92888 9.04334ZM17.1864 13.0719C17.1864 12.0304 18.0307 11.1861 19.0721 11.1861C20.1136 11.1861 20.9578 12.0304 20.9578 13.0719C20.9578 14.1133 20.1136 14.9576 19.0721 14.9576C18.0307 14.9576 17.1864 14.1133 17.1864 13.0719Z" fill="#161823"/>
</svg>
