<svg width="12" height="12" viewBox="0 0 12 12" fill="none" xmlns="http://www.w3.org/2000/svg">
<path d="M10.1278 1.77488C10.2869 1.77488 10.4396 1.83809 10.5521 1.95062C10.6646 2.06314 10.7278 2.21575 10.7278 2.37488V8.12495C10.7278 8.45632 10.4592 8.72495 10.1278 8.72495C9.79644 8.72495 9.52781 8.45632 9.52781 8.12495V3.81729L2.7938 10.5513C2.55948 10.7856 2.17958 10.7856 1.94527 10.5513C1.71095 10.317 1.71095 9.93711 1.94527 9.70279L8.67316 2.97488H4.37295C4.04158 2.97488 3.77295 2.70625 3.77295 2.37488C3.77295 2.04351 4.04158 1.77488 4.37295 1.77488H10.1278Z" fill="#161823"/>
</svg>
