<svg width="24" height="24" viewBox="0 0 24 24" fill="none" xmlns="http://www.w3.org/2000/svg">
<path d="M15.9998 6.5C15.9998 8.98528 14.2089 11 11.9998 11C9.79062 11 7.99976 8.98528 7.99976 6.5C7.99976 4.01472 9.79062 2 11.9998 2C14.2089 2 15.9998 4.01472 15.9998 6.5Z" fill="#161823"/>
<path d="M5.86408 14.1182C7.49136 13.0852 9.6563 12.5 12 12.5C12.2284 12.5 12.4548 12.5055 12.6789 12.5165C12.8626 12.5254 12.9351 12.7647 12.8025 12.8921C11.8783 13.7804 11.3519 15.0963 11.3519 16.5293C11.3519 18.0431 11.9877 19.4239 12.9037 20.6046C13.1813 20.9625 13.4905 21.3099 13.8265 21.6463C13.955 21.775 13.8658 22 13.6839 22H5.5C4.11929 22 3 20.8807 3 19.5V18.7273C3 16.7372 4.25055 15.1424 5.86408 14.1182Z" fill="#161823"/>
<path d="M18.4978 14.3669C18.9582 13.7465 19.4659 13.3886 20.2663 13.3886C21.8417 13.3886 23 14.6572 23 16.5293C23 18.606 21.2558 20.6674 18.5857 22.4065C18.3811 22.5446 18.1509 22.6674 17.9974 22.6674C17.844 22.6674 17.6189 22.5446 17.4143 22.4065C17.2091 22.2729 17.0094 22.1373 16.8155 22C15.3599 20.969 14.2333 19.8387 13.5931 18.6678C13.209 17.9653 13 17.2482 13 16.5293C13 14.6571 14.1603 13.3886 15.7358 13.3886C16.2427 13.3886 16.634 13.4991 16.9512 13.7036C17.183 13.8531 17.3752 14.0527 17.5442 14.2963C17.7131 14.5398 17.8588 14.8271 17.9974 15.152C18.1659 14.858 18.3287 14.5948 18.4978 14.3669Z" fill="#161823"/>
</svg>
