<svg width="20" height="20" viewBox="0 0 20 20" fill="none" xmlns="http://www.w3.org/2000/svg">
<path d="M1.66504 10C1.66504 5.39672 5.39675 1.66501 10 1.66501C14.6033 1.66501 18.335 5.39672 18.335 10C18.335 10.1538 18.3309 10.3066 18.3227 10.4583H16.9584C15.7157 10.4583 14.7084 11.4657 14.7084 12.7083C14.7084 12.84 14.7197 12.969 14.7414 13.0944C13.8737 13.4066 13.2533 14.2369 13.2533 15.2121C13.2533 15.2953 13.2578 15.3775 13.2666 15.4584L12.7919 15.4584C11.5492 15.4584 10.5419 16.4657 10.5419 17.7084C10.5419 17.9175 10.5704 18.1199 10.6238 18.312C10.4178 18.3273 10.2098 18.335 10 18.335C5.39675 18.335 1.66504 14.6033 1.66504 10ZM9.03929 13.5163L13.2847 10.6195C13.721 10.3218 13.721 9.67824 13.2847 9.38049L9.03929 6.48378C8.54146 6.14409 7.86658 6.50062 7.86658 7.1033V12.8967C7.86658 13.4994 8.54146 13.8559 9.03929 13.5163Z" fill="#161823"/>
<path d="M16.9584 11.9583C16.5442 11.9583 16.2084 12.2941 16.2084 12.7083C16.2084 13.1225 16.5442 13.4583 16.9584 13.4583H19.0417C19.4559 13.4583 19.7917 13.1225 19.7917 12.7083C19.7917 12.2941 19.4559 11.9583 19.0417 11.9583H16.9584Z" fill="#161823"/>
<path d="M12.7919 16.9583C12.3777 16.9583 12.0419 17.2941 12.0419 17.7083C12.0419 18.1226 12.3777 18.4583 12.7919 18.4583L19.0418 18.4584C19.456 18.4584 19.7918 18.1226 19.7918 17.7084C19.7918 17.2942 19.456 16.9584 19.0418 16.9584L12.7919 16.9583Z" fill="#161823"/>
<path d="M14.7533 15.2121C14.7533 14.7979 15.0891 14.4621 15.5033 14.4621L19.0417 14.4621C19.4559 14.4621 19.7917 14.7979 19.7917 15.2121C19.7917 15.6263 19.4559 15.9621 19.0417 15.9621L15.5033 15.9621C15.0891 15.9621 14.7533 15.6263 14.7533 15.2121Z" fill="#161823"/>
</svg>
