<svg width="12" height="12" viewBox="0 0 12 12" fill="none" xmlns="http://www.w3.org/2000/svg">
<path fill-rule="evenodd" clip-rule="evenodd" d="M7.13823 1.4583C7.46841 1.53169 7.75748 1.72984 7.9451 2.01135L8.20776 2.40546C8.3223 2.57733 8.50285 2.69411 8.70654 2.72807L9.03605 2.783C9.96462 2.93781 10.69 3.66963 10.8368 4.59977L10.8891 4.93147C11.0563 5.99038 11.0343 7.07057 10.8241 8.12178C10.6245 9.11988 9.88428 9.92284 8.90588 10.2025L8.74299 10.249C6.9502 10.7614 5.0498 10.7614 3.25701 10.249L3.09412 10.2025C2.11572 9.92284 1.37547 9.11988 1.17591 8.12178C0.965733 7.07057 0.943705 5.99038 1.11085 4.93147L1.16321 4.59977C1.31003 3.66963 2.03538 2.93781 2.96395 2.783L3.29346 2.72807C3.49715 2.69411 3.6777 2.57733 3.79224 2.40546L4.0549 2.01135C4.24252 1.72984 4.53159 1.53169 4.86177 1.4583C5.61145 1.29165 6.38855 1.29165 7.13823 1.4583ZM5.05801 6.94319C4.95115 6.87678 4.81431 6.83967 4.35616 6.73279L4.17833 6.6913C3.99928 6.64953 3.87261 6.48986 3.87261 6.30596C3.87261 6.12205 3.99928 5.96238 4.17833 5.92061L4.35616 5.87912C4.81431 5.77224 4.95115 5.73513 5.05801 5.66872C5.16433 5.60265 5.25492 5.51412 5.32343 5.40934C5.3923 5.30402 5.43257 5.16804 5.55007 4.71237L5.60939 4.48234C5.65445 4.30759 5.812 4.18549 5.99241 4.18549C6.17282 4.18549 6.33037 4.30759 6.37543 4.48234L6.43475 4.71237C6.55225 5.16804 6.59253 5.30402 6.66139 5.40934C6.7299 5.51412 6.82049 5.60265 6.92681 5.66872C7.03367 5.73513 7.17051 5.77224 7.62866 5.87912L7.8065 5.92061C7.98554 5.96238 8.11221 6.12205 8.11221 6.30596C8.11221 6.48986 7.98554 6.64953 7.8065 6.6913L7.62866 6.73279C7.17051 6.83967 7.03367 6.87678 6.92681 6.94319C6.82049 7.00926 6.7299 7.09779 6.66139 7.20257C6.59253 7.30789 6.55225 7.44387 6.43475 7.89955L6.37543 8.12957C6.33037 8.30432 6.17282 8.42642 5.99241 8.42642C5.812 8.42642 5.65445 8.30432 5.60939 8.12957L5.55007 7.89954C5.43257 7.44387 5.3923 7.30789 5.32343 7.20257C5.25492 7.09779 5.16433 7.00926 5.05801 6.94319Z" fill="#161823"/>
</svg>
