<svg width="20" height="20" viewBox="0 0 20 20" fill="none" xmlns="http://www.w3.org/2000/svg">
<path d="M7.25 8.5C7.94036 8.5 8.5 7.94036 8.5 7.25C8.5 6.55964 7.94036 6 7.25 6C6.55964 6 6 6.55964 6 7.25C6 7.94036 6.55964 8.5 7.25 8.5Z" fill="#161823"/>
<path fill-rule="evenodd" clip-rule="evenodd" d="M17.4168 15.2045C17.4712 14.9785 17.5 14.7426 17.5 14.5V5.5C17.5 3.84315 16.1569 2.5 14.5 2.5H5.5C3.84315 2.5 2.5 3.84315 2.5 5.5V14.5C2.5 14.7431 2.52892 14.9795 2.5835 15.2058C2.59866 15.2687 2.61581 15.3308 2.63487 15.3921C3.01471 16.6133 4.15381 17.5 5.5 17.5H14.5C15.9142 17.5 17.0999 16.5214 17.4168 15.2045ZM14.5 4H5.5C4.67157 4 4 4.67157 4 5.5V12.439L6.1365 10.3025C6.42939 10.0096 6.90427 10.0096 7.19716 10.3025L9.16681 12.2722L12.803 8.6357C12.9437 8.49504 13.1345 8.41602 13.3334 8.41602C13.5323 8.41601 13.7231 8.49503 13.8637 8.63569L16 10.772V5.5C16 4.67157 15.3284 4 14.5 4Z" fill="#161823"/>
</svg>
