<svg width="20" height="20" viewBox="0 0 20 20" fill="none" xmlns="http://www.w3.org/2000/svg">
<path d="M9.2189 3.58068C10.6325 3.40868 12.0634 3.70809 13.2894 4.43246C14.1001 4.91145 14.7913 5.55852 15.3202 6.32394L14.272 6.70545C14.0094 6.80102 13.9855 7.17033 14.2329 7.30949L16.6778 8.68481C16.9083 8.81446 17.1943 8.71036 17.2875 8.46289L18.2764 5.83776C18.3765 5.57215 18.1208 5.30459 17.8582 5.40016L16.7678 5.79705C16.0936 4.71145 15.1643 3.79792 14.0524 3.14102C12.542 2.24863 10.7792 1.87976 9.03772 2.09166C7.29621 2.30357 5.67335 3.08439 4.42099 4.31295C3.43648 5.27876 2.72424 6.47881 2.34545 7.79183C2.23064 8.18981 2.4602 8.60551 2.85818 8.72032C3.25616 8.83514 3.67187 8.60558 3.78668 8.2076C4.09415 7.14178 4.6723 6.16767 5.47143 5.38373C6.48799 4.38649 7.80529 3.75269 9.2189 3.58068Z" fill="#161823"/>
<path d="M17.6543 12.2088C17.7691 11.8108 17.5396 11.3951 17.1416 11.2803C16.7436 11.1654 16.3279 11.3949 16.2131 11.7929C15.9084 12.8487 15.3384 13.8135 14.5524 14.5926C13.5944 15.5423 12.3633 16.1686 11.0316 16.3839C9.69989 16.5991 8.33421 16.3924 7.12578 15.7929C6.14065 15.3041 5.30024 14.5742 4.67969 13.676L5.72783 13.2945C5.9904 13.199 6.0143 12.8297 5.76691 12.6905L3.32197 11.3152C3.09149 11.1855 2.80548 11.2896 2.71226 11.5371L1.72337 14.1622C1.62331 14.4279 1.879 14.6954 2.14157 14.5998L3.23208 14.2029C4.01208 15.459 5.12843 16.4764 6.4591 17.1366C7.94783 17.8752 9.63029 18.1298 11.2709 17.8646C12.9115 17.5995 14.4281 16.8279 15.6084 15.658C16.5768 14.6981 17.279 13.5094 17.6543 12.2088Z" fill="#161823"/>
</svg>
