<svg width="12" height="12" viewBox="0 0 12 12" fill="none" xmlns="http://www.w3.org/2000/svg">
<path d="M5.73809 10.0694C6.05259 9.79987 6.08901 9.3264 5.81944 9.0119L3.23781 6L5.81944 2.98809C6.08901 2.6736 6.05259 2.20012 5.73809 1.93056C5.4236 1.66099 4.95012 1.69741 4.68056 2.01191L1.68056 5.5119C1.43981 5.79277 1.43981 6.20722 1.68056 6.48809L4.68056 9.98809C4.95012 10.3026 5.4236 10.339 5.73809 10.0694Z" fill="#161823"/>
<path d="M9.73777 10.0697C10.0524 9.80032 10.0891 9.32687 9.81972 9.01222L7.24072 5.99998L9.81971 2.98778C10.0891 2.67313 10.0524 2.19968 9.73778 1.93029C9.42313 1.66089 8.94968 1.69758 8.68029 2.01222L5.68367 5.5122C5.44329 5.79296 5.44329 6.20699 5.68367 6.48775L8.68028 9.98777C8.94967 10.3024 9.42313 10.3391 9.73777 10.0697Z" fill="#161823"/>
</svg>
