<svg width="12" height="12" viewBox="0 0 12 12" fill="none" xmlns="http://www.w3.org/2000/svg">
<path fill-rule="evenodd" clip-rule="evenodd" d="M3.85059 0.43335C4.18196 0.43335 4.45059 0.701979 4.45059 1.03335V1.16665H7.00059V1.03335C7.00059 0.701979 7.26922 0.43335 7.60059 0.43335C7.93196 0.43335 8.20059 0.701979 8.20059 1.03335V1.16665H8.85052C9.81702 1.16665 10.6005 1.95015 10.6005 2.91665V8.64998C10.6005 9.61648 9.81702 10.4 8.85052 10.4H2.61719C1.65069 10.4 0.867188 9.61648 0.867188 8.64998V2.91665C0.867188 1.95015 1.65069 1.16665 2.61719 1.16665H3.25059V1.03335C3.25059 0.701979 3.51922 0.43335 3.85059 0.43335ZM7.00059 2.36665V2.52215C7.00059 2.85352 7.26922 3.12215 7.60059 3.12215C7.93196 3.12215 8.20059 2.85352 8.20059 2.52215V2.36665H8.85052C9.15428 2.36665 9.40052 2.61289 9.40052 2.91665V4.18335H2.06719V2.91665C2.06719 2.61289 2.31343 2.36665 2.61719 2.36665H3.25059V2.52215C3.25059 2.85352 3.51922 3.12215 3.85059 3.12215C4.18196 3.12215 4.45059 2.85352 4.45059 2.52215V2.36665H7.00059ZM2.06719 5.38335V8.64998C2.06719 8.95374 2.31343 9.19998 2.61719 9.19998H8.85052C9.15428 9.19998 9.40052 8.95374 9.40052 8.64998V5.38335H2.06719Z" fill="#161823"/>
</svg>
