<svg width="20" height="20" viewBox="0 0 20 20" fill="none" xmlns="http://www.w3.org/2000/svg">
<path d="M12 2.6C12 3.48366 11.1046 4.2 10 4.2C8.89543 4.2 8 3.48366 8 2.6C8 1.71634 8.89543 1 10 1C11.1046 1 12 1.71634 12 2.6Z" fill="#161823"/>
<path d="M10.75 10.25C10.75 9.83579 10.4142 9.5 10 9.5C9.58579 9.5 9.25 9.83579 9.25 10.25V13.75C9.25 14.1642 9.58579 14.5 10 14.5C10.4142 14.5 10.75 14.1642 10.75 13.75V10.25Z" fill="#161823"/>
<path d="M7 10.5C6.44772 10.5 6 10.9477 6 11.5V12.5C6 13.0523 6.44772 13.5 7 13.5C7.55228 13.5 8 13.0523 8 12.5V11.5C8 10.9477 7.55228 10.5 7 10.5Z" fill="#161823"/>
<path d="M12 11.5C12 10.9477 12.4477 10.5 13 10.5C13.5523 10.5 14 10.9477 14 11.5V12.5C14 13.0523 13.5523 13.5 13 13.5C12.4477 13.5 12 13.0523 12 12.5V11.5Z" fill="#161823"/>
<path d="M10 19C13.866 19 17 15.866 17 12C17 8.13401 13.866 5 10 5C6.13401 5 3 8.13401 3 12C3 15.866 6.13401 19 10 19ZM10 17.5C6.96243 17.5 4.5 15.0376 4.5 12C4.5 8.96243 6.96243 6.5 10 6.5C13.0376 6.5 15.5 8.96243 15.5 12C15.5 15.0376 13.0376 17.5 10 17.5Z" fill="#161823"/>
</svg>
