<svg width="20" height="20" viewBox="0 0 20 20" fill="none" xmlns="http://www.w3.org/2000/svg">
<path fill-rule="evenodd" clip-rule="evenodd" d="M7.35519 7.23165C6.93963 5.68073 7.86001 4.08658 9.41092 3.67102C10.9618 3.25545 12.556 4.17583 12.9716 5.72675L13.0141 5.88546C13.1213 6.28556 13.5325 6.523 13.9326 6.41579C14.3327 6.30859 14.5702 5.89733 14.463 5.49723L14.4204 5.33852C13.7905 2.98741 11.3738 1.59215 9.0227 2.22213C6.67158 2.85211 5.27632 5.26876 5.9063 7.61988L6.27611 9.00001H5C3.89543 9.00001 3 9.89545 3 11V16C3 17.1046 3.89543 18 5 18H15C16.1046 18 17 17.1046 17 16V11C17 9.89545 16.1046 9.00001 15 9.00001H7.82902L7.35519 7.23165ZM5 10.5H15C15.2761 10.5 15.5 10.7239 15.5 11V16C15.5 16.2762 15.2761 16.5 15 16.5H5C4.72386 16.5 4.5 16.2762 4.5 16V11C4.5 10.7239 4.72386 10.5 5 10.5Z" fill="#161823"/>
</svg>
