<svg width="20" height="20" viewBox="0 0 20 20" fill="none" xmlns="http://www.w3.org/2000/svg">
<path d="M8.61113 6.95825C9.02534 6.95825 9.36113 7.29404 9.36113 7.70825V11.4583C9.36113 11.8725 9.02534 12.2083 8.61113 12.2083C8.19692 12.2083 7.86113 11.8725 7.86113 11.4583V7.70825C7.86113 7.29404 8.19692 6.95825 8.61113 6.95825Z" fill="#161823"/>
<path d="M6.58337 10.2083C6.58337 9.79404 6.24759 9.45825 5.83337 9.45825C5.41916 9.45825 5.08337 9.79404 5.08337 10.2083L5.08337 11.4583C5.08337 11.8725 5.41916 12.2083 5.83337 12.2083C6.24759 12.2083 6.58337 11.8725 6.58337 11.4583V10.2083Z" fill="#161823"/>
<path d="M11.3834 7.7915C11.7976 7.7915 12.1334 8.12729 12.1334 8.5415V11.4582C12.1334 11.8724 11.7976 12.2082 11.3834 12.2082C10.9692 12.2082 10.6334 11.8724 10.6334 11.4582V8.5415C10.6334 8.12729 10.9692 7.7915 11.3834 7.7915Z" fill="#161823"/>
<path d="M14.9167 6.0415C14.9167 5.62729 14.5809 5.2915 14.1667 5.2915C13.7525 5.2915 13.4167 5.62729 13.4167 6.0415V11.4582C13.4167 11.8724 13.7525 12.2082 14.1667 12.2082C14.5809 12.2082 14.9167 11.8724 14.9167 11.4582V6.0415Z" fill="#161823"/>
<path d="M14.9317 2.50488H5.06836C4.61939 2.50487 4.23706 2.50486 3.92335 2.53091C3.5937 2.55829 3.2732 2.61827 2.96769 2.77697C2.5263 3.00625 2.16641 3.36614 1.93712 3.80753C1.77842 4.11304 1.71845 4.43354 1.69107 4.7632C1.66502 5.07691 1.66503 5.45921 1.66504 5.90819V11.6016C1.66503 12.0505 1.66502 12.4329 1.69107 12.7466C1.71845 13.0762 1.77842 13.3967 1.93712 13.7022C2.16641 14.1436 2.5263 14.5035 2.96769 14.7328C3.2732 14.8915 3.5937 14.9515 3.92335 14.9789C4.23707 15.0049 4.61937 15.0049 5.06836 15.0049H14.9317C15.3807 15.0049 15.763 15.0049 16.0767 14.9789C16.4064 14.9515 16.7269 14.8915 17.0324 14.7328C17.4738 14.5035 17.8337 14.1436 18.063 13.7022C18.2217 13.3967 18.2816 13.0762 18.309 12.7466C18.3351 12.4329 18.3351 12.0506 18.335 11.6016V5.90821C18.3351 5.45922 18.3351 5.07691 18.309 4.7632C18.2816 4.43354 18.2217 4.11304 18.063 3.80753C17.8337 3.36614 17.4738 3.00625 17.0324 2.77697C16.7269 2.61827 16.4064 2.55829 16.0767 2.53091C15.763 2.50486 15.3807 2.50487 14.9317 2.50488ZM3.65915 4.10809C3.71487 4.07915 3.81227 4.0453 4.0475 4.02577C4.2917 4.00549 4.61121 4.00488 5.09837 4.00488H14.9017C15.3889 4.00488 15.7084 4.00549 15.9526 4.02577C16.1878 4.0453 16.2852 4.07915 16.3409 4.10809C16.5084 4.19506 16.6449 4.33157 16.7318 4.49899C16.7608 4.55471 16.7946 4.65211 16.8142 4.88734C16.8344 5.13154 16.835 5.45105 16.835 5.93822V11.5716C16.835 12.0587 16.8344 12.3782 16.8142 12.6224C16.7946 12.8577 16.7608 12.9551 16.7318 13.0108C16.6449 13.1782 16.5084 13.3147 16.3409 13.4017C16.2852 13.4306 16.1878 13.4645 15.9526 13.484C15.7084 13.5043 15.3889 13.5049 14.9017 13.5049H5.09837C4.61121 13.5049 4.2917 13.5043 4.0475 13.484C3.81227 13.4645 3.71487 13.4306 3.65915 13.4017C3.49172 13.3147 3.35521 13.1782 3.26825 13.0108C3.2393 12.9551 3.20546 12.8577 3.18592 12.6224C3.16564 12.3782 3.16504 12.0587 3.16504 11.5716V5.93822C3.16504 5.45105 3.16564 5.13154 3.18592 4.88734C3.20546 4.65211 3.2393 4.55471 3.26825 4.49899C3.35521 4.33157 3.49172 4.19506 3.65915 4.10809Z" fill="#161823"/>
<path d="M5.00005 16.5006C4.58583 16.5006 4.25005 16.8364 4.25005 17.2506C4.25005 17.6648 4.58583 18.0006 5.00005 18.0006H15C15.4143 18.0006 15.75 17.6648 15.75 17.2506C15.75 16.8364 15.4143 16.5006 15 16.5006H5.00005Z" fill="#161823"/>
</svg>
