<svg width="16" height="16" viewBox="0 0 16 16" fill="none" xmlns="http://www.w3.org/2000/svg">
<path d="M7.83104 13.7433C7.42053 13.3738 7.38726 12.7415 7.75671 12.331L11.6546 7.99999L7.75671 3.66895C7.38726 3.25844 7.42053 2.62615 7.83104 2.25669C8.24155 1.88723 8.87384 1.92051 9.2433 2.33102L13.7433 7.33103C14.0856 7.71134 14.0856 8.28866 13.7433 8.66896L9.2433 13.669C8.87384 14.0795 8.24155 14.1127 7.83104 13.7433Z" fill="#161823"/>
<path d="M2.33104 13.7433C2.74155 14.1127 3.37384 14.0795 3.7433 13.669L8.2433 8.66896C8.58558 8.28866 8.58558 7.71134 8.2433 7.33103L3.7433 2.33102C3.37384 1.92051 2.74156 1.88723 2.33104 2.25669C1.92053 2.62615 1.88726 3.25844 2.25671 3.66895L6.15465 7.99999L2.25672 12.331C1.88726 12.7415 1.92053 13.3738 2.33104 13.7433Z" fill="#161823"/>
</svg>
