<svg width="24" height="24" viewBox="0 0 24 24" fill="none" xmlns="http://www.w3.org/2000/svg">
<path d="M22 12C22 17.5228 17.5228 22 12 22C6.47715 22 2 17.5228 2 12C2 6.47715 6.47715 2 12 2C17.5228 2 22 6.47715 22 12ZM12 7C11.4501 7 11.0065 7.45003 11.0145 7.9999L11.0885 13.1017C11.0958 13.5999 11.5017 14 12 14C12.4983 14 12.9042 13.5999 12.9115 13.1017L12.9855 7.99989C12.9935 7.45003 12.5499 7 12 7ZM13.1 16.1C13.1 15.4925 12.6075 15 12 15C11.3925 15 10.9 15.4925 10.9 16.1C10.9 16.7075 11.3925 17.2 12 17.2C12.6075 17.2 13.1 16.7075 13.1 16.1Z" fill="#161823"/>
</svg>
