<svg width="20" height="20" viewBox="0 0 20 20" fill="none" xmlns="http://www.w3.org/2000/svg">
<path d="M6.83154 7.9427L5.98193 10.638H7.73975L6.89502 7.9427H6.83154Z" fill="#161823"/>
<path d="M11.9829 7.74251V12.2542H12.9302C14.1558 12.2542 14.7271 11.5316 14.7271 10.0033C14.7271 8.46516 14.1509 7.74251 12.9302 7.74251H11.9829Z" fill="#161823"/>
<path d="M0.5 6.125C0.5 4.39911 1.89911 3 3.625 3H16.375C18.1009 3 19.5 4.39911 19.5 6.125V13.875C19.5 15.6009 18.1009 17 16.375 17H3.625C1.89911 17 0.5 15.6009 0.5 13.875V6.125ZM5.31787 12.7523L5.68896 11.6195H8.02783L8.40381 12.7523C8.53564 13.2064 8.74072 13.3919 9.09717 13.3919C9.47314 13.3919 9.72217 13.1673 9.72217 12.8158C9.72217 12.679 9.68799 12.5179 9.61963 12.3079L7.93994 7.49348C7.72998 6.86848 7.43701 6.61458 6.88525 6.61458C6.32861 6.61458 6.03076 6.87337 5.8208 7.49348L4.14111 12.3079C4.05811 12.557 4.02393 12.7083 4.02393 12.8402C4.02393 13.1722 4.27295 13.3919 4.63428 13.3919C4.98584 13.3919 5.18115 13.2113 5.31787 12.7523ZM11.5435 13.3333H13.0962C15.0444 13.3333 16.0747 12.181 16.0747 10.0033C16.0747 7.82063 15.0444 6.66829 13.0962 6.66829H11.5435C10.9575 6.66829 10.6646 6.94661 10.6646 7.51302V12.4886C10.6646 13.055 10.9575 13.3333 11.5435 13.3333Z" fill="#161823"/>
</svg>
