<svg width="12" height="12" viewBox="0 0 12 12" fill="none" xmlns="http://www.w3.org/2000/svg">
<path d="M5.20641 6.91471C5.02603 5.54588 3.92429 4.44768 2.55146 4.26773C2.07003 4.20462 2.07003 3.50324 2.55146 3.44014C3.92429 3.26019 5.02603 2.16198 5.20641 0.793149C5.26967 0.313091 5.97301 0.313091 6.03627 0.793149C6.21665 2.16198 7.31839 3.26019 8.69122 3.44014C9.17265 3.50324 9.17264 4.20462 8.69122 4.26773C7.31839 4.44768 6.21664 5.54588 6.03627 6.91471C5.97301 7.39477 5.26967 7.39477 5.20641 6.91471Z" fill="#161823"/>
<path d="M8.71806 10.5112C8.5969 9.59173 7.87129 8.86819 6.94918 8.74732L6.6471 8.70772C6.26851 8.65809 6.26851 8.11181 6.6471 8.06218L6.94917 8.02259C7.87129 7.90172 8.5969 7.17817 8.71806 6.25875L8.75763 5.95839C8.80738 5.58088 9.35532 5.58088 9.40507 5.95839L9.44465 6.25875C9.5658 7.17817 10.2914 7.90172 11.2135 8.02259L11.5156 8.06218C11.8942 8.11181 11.8942 8.65809 11.5156 8.70772L11.2135 8.74731C10.2914 8.86819 9.5658 9.59173 9.44465 10.5112L9.40507 10.8115C9.35532 11.189 8.80738 11.189 8.75763 10.8115L8.71806 10.5112Z" fill="#161823"/>
<path d="M1.30824 9.68765C2.06037 9.78625 2.65223 10.3764 2.75105 11.1264L2.77923 11.3402C2.81898 11.6418 3.25674 11.6418 3.29649 11.3402L3.32467 11.1264C3.4235 10.3764 4.01535 9.78625 4.76748 9.68765L4.98266 9.65945C5.28513 9.6198 5.28513 9.18336 4.98266 9.14371L4.76749 9.11551C4.01535 9.01692 3.4235 8.42675 3.32467 7.6768L3.29649 7.46292C3.25674 7.16132 2.81898 7.16132 2.77923 7.46293L2.75105 7.6768C2.65223 8.42675 2.06037 9.01692 1.30824 9.11551L1.09306 9.14371C0.790595 9.18336 0.790594 9.6198 1.09306 9.65945L1.30824 9.68765Z" fill="#161823"/>
</svg>
