<svg width="24" height="24" viewBox="0 0 24 24" fill="none" xmlns="http://www.w3.org/2000/svg">
<path d="M7.50346 7.39441C8.92903 6.80392 10.457 6.5 12 6.5C13.543 6.5 15.0709 6.80392 16.4965 7.39442C17.9221 7.98491 19.2174 8.85041 20.3085 9.9415C20.699 10.332 21.3322 10.332 21.7227 9.9415C22.1132 9.55097 22.1132 8.91781 21.7227 8.52728C20.4459 7.25048 18.9301 6.23766 17.2619 5.54666C15.5937 4.85565 13.8057 4.5 12 4.5C10.1943 4.5 8.40632 4.85565 6.73809 5.54666C5.06986 6.23766 3.55407 7.25048 2.27727 8.52728C1.88674 8.91781 1.88674 9.55097 2.27727 9.9415C2.66779 10.332 3.30096 10.332 3.69148 9.9415C4.78257 8.85041 6.07788 7.98491 7.50346 7.39441Z" fill="#161823"/>
<path d="M12 10.5C10.9822 10.5 9.97447 10.7005 9.03419 11.0899C8.09392 11.4794 7.23957 12.0503 6.51991 12.7699C6.12939 13.1604 5.49622 13.1604 5.1057 12.7699C4.71517 12.3794 4.71517 11.7462 5.1057 11.3557C6.01107 10.4503 7.0859 9.73216 8.26883 9.24217C9.45175 8.75219 10.7196 8.5 12 8.5C13.2804 8.5 14.5482 8.75219 15.7312 9.24218C16.9141 9.73216 17.9889 10.4503 18.8943 11.3557C19.2848 11.7462 19.2848 12.3794 18.8943 12.7699C18.5038 13.1604 17.8706 13.1604 17.4801 12.7699C16.7604 12.0503 15.9061 11.4794 14.9658 11.0899C14.0255 10.7005 13.0177 10.5 12 10.5Z" fill="#161823"/>
<path d="M10.5649 14.7855C11.0199 14.597 11.5075 14.5 12 14.5C12.4925 14.5 12.9801 14.597 13.4351 14.7855C13.89 14.9739 14.3034 15.2501 14.6516 15.5984C15.0422 15.9889 15.6753 15.9889 16.0659 15.5984C16.4564 15.2078 16.4564 14.5747 16.0659 14.1841C15.5319 13.6502 14.898 13.2267 14.2004 12.9377C13.5028 12.6487 12.7551 12.5 12 12.5C11.2449 12.5 10.4972 12.6487 9.79956 12.9377C9.10194 13.2267 8.46807 13.6502 7.93413 14.1841C7.5436 14.5747 7.5436 15.2078 7.93413 15.5983C8.32465 15.9889 8.95782 15.9889 9.34834 15.5983C9.69656 15.2501 10.11 14.9739 10.5649 14.7855Z" fill="#161823"/>
<path d="M12 20C12.9665 20 13.75 19.2165 13.75 18.25C13.75 17.2835 12.9665 16.5 12 16.5C11.0335 16.5 10.25 17.2835 10.25 18.25C10.25 19.2165 11.0335 20 12 20Z" fill="#161823"/>
</svg>
