<svg width="24" height="24" viewBox="0 0 24 24" fill="none" xmlns="http://www.w3.org/2000/svg">
<path fill-rule="evenodd" clip-rule="evenodd" d="M6.75005 5.5C6.20814 5.5 5.6854 5.58211 5.1936 5.73456C5.59759 4.71837 6.58993 4 7.75005 4H16.25C17.4102 4 18.4025 4.71838 18.8065 5.73456C18.3147 5.58211 17.792 5.5 17.25 5.5H6.75005Z" fill="#161823"/>
<path fill-rule="evenodd" clip-rule="evenodd" d="M11.9241 15.4371C11.4944 15.4371 11.2795 15.1686 11.2795 14.817C11.2795 14.2946 11.5383 13.9576 12.1438 13.4987L12.1763 13.4739C12.5887 13.1602 12.8762 12.9415 12.8762 12.5465C12.8762 12.1022 12.4612 11.8434 11.9973 11.8434C11.6165 11.8434 11.3235 11.985 11.094 12.2828C10.928 12.4537 10.7961 12.5465 10.5715 12.5465C10.2004 12.5465 10.01 12.2877 10.01 11.9899C10.01 11.6871 10.1809 11.3795 10.4495 11.1451C10.8108 10.8326 11.387 10.6324 12.1487 10.6324C13.5061 10.6324 14.4583 11.3014 14.4583 12.4537C14.4583 13.2936 13.9553 13.6989 13.3645 14.109C12.9641 14.402 12.7737 14.5729 12.6223 14.9196C12.4565 15.2122 12.329 15.4371 11.9241 15.4371Z" fill="#161823"/>
<path fill-rule="evenodd" clip-rule="evenodd" d="M11.9143 17.5172C11.4456 17.5172 11.0598 17.2145 11.0598 16.7457C11.0598 16.277 11.4456 15.9742 11.9143 15.9742C12.3831 15.9742 12.7639 16.277 12.7639 16.7457C12.7639 17.2145 12.3831 17.5172 11.9143 17.5172Z" fill="#161823"/>
<path fill-rule="evenodd" clip-rule="evenodd" d="M6.75 7C4.67893 7 3 8.67893 3 10.75V17.25C3 19.3211 4.67893 21 6.75 21H17.25C19.3211 21 21 19.3211 21 17.25V10.75C21 8.67893 19.3211 7 17.25 7H6.75ZM17.25 8.5H6.75C5.50736 8.5 4.5 9.50736 4.5 10.75V17.25C4.5 18.4926 5.50736 19.5 6.75 19.5H17.25C18.4926 19.5 19.5 18.4926 19.5 17.25V10.75C19.5 9.50736 18.4926 8.5 17.25 8.5Z" fill="#161823"/>
</svg>
