<svg width="12" height="12" viewBox="0 0 12 12" fill="none" xmlns="http://www.w3.org/2000/svg">
<g clip-path="url(#clip0_1977_2863)">
<path fill-rule="evenodd" clip-rule="evenodd" d="M7.25527 1.59847C8.07537 0.778373 9.40502 0.778373 10.2251 1.59847L10.4019 1.77525C11.222 2.59535 11.222 3.925 10.4019 4.7451L7.64539 7.5016C6.94245 8.20455 5.80275 8.20454 5.09981 7.5016L5.02255 7.42435C4.78824 7.19003 4.78824 6.81013 5.02256 6.57582C5.25687 6.3415 5.63677 6.3415 5.87108 6.57582L5.94834 6.65307C6.18265 6.88739 6.56255 6.88739 6.79687 6.65307L9.55337 3.89657C9.90484 3.5451 9.90484 2.97525 9.55337 2.62378L9.37659 2.447C9.02512 2.09553 8.45527 2.09553 8.1038 2.447L7.28627 3.26453C7.05196 3.49884 6.67206 3.49884 6.43775 3.26453C6.20343 3.03021 6.20343 2.65031 6.43775 2.416L7.25527 1.59847ZM6.05468 5.34465C5.82036 5.11034 5.44046 5.11034 5.20615 5.34465L2.447 8.1038C2.09553 8.45527 2.09553 9.02512 2.447 9.37659L2.62378 9.55337C2.97525 9.90484 3.5451 9.90484 3.89657 9.55337L4.71158 8.73836C4.9459 8.50404 5.3258 8.50404 5.56011 8.73836C5.79443 8.97267 5.79443 9.35257 5.56011 9.58688L4.7451 10.4019C3.925 11.222 2.59535 11.222 1.77525 10.4019L1.59847 10.2251C0.778373 9.40502 0.778374 8.07537 1.59847 7.25527L4.35762 4.49612C5.06056 3.79318 6.20026 3.79318 6.9032 4.49612L6.93127 4.52419C7.16558 4.75851 7.16558 5.1384 6.93127 5.37272C6.69695 5.60703 6.31705 5.60703 6.08274 5.37271L6.05468 5.34465Z" fill="#161823"/>
</g>
<defs>
<clipPath id="clip0_1977_2863">
<rect width="12" height="12" fill="white"/>
</clipPath>
</defs>
</svg>
