<svg width="16" height="16" viewBox="0 0 16 16" fill="none" xmlns="http://www.w3.org/2000/svg">
<path opacity="0.9" fill-rule="evenodd" clip-rule="evenodd" d="M14.6404 7.35672C14.6404 3.97853 11.5975 1.36011 8.00033 1.36011C4.40318 1.36011 1.36035 3.97854 1.36035 7.35681C1.36035 10.5896 4.18759 12.7149 7.44731 12.9621V13.8397C7.44731 14.3668 8.007 14.7619 8.52128 14.4979C9.07538 14.2134 11.2381 13.0637 12.5694 11.7189C13.8263 10.4494 14.6404 9.04481 14.6404 7.35672ZM8.00033 2.64011C11.031 2.64011 13.3604 4.81809 13.3604 7.35672C13.3604 8.58437 12.7831 9.68382 11.6598 10.8184C10.8273 11.6593 9.58037 12.4431 8.72731 12.9296V11.7063H8.08731C4.97996 11.7063 2.64035 9.83101 2.64035 7.35681C2.64035 4.81809 4.96976 2.64011 8.00033 2.64011Z" fill="#161823"/>
</svg>
