<svg width="24" height="24" viewBox="0 0 24 24" fill="none" xmlns="http://www.w3.org/2000/svg">
<path d="M3.11406 15.2426C1.65227 16.7075 1.65355 19.0797 3.11691 20.5431L3.47046 20.8966C4.93603 22.3622 7.3126 22.3609 8.7766 20.8938L13.1332 16.5278L12.0726 15.4671L7.7148 19.8342C6.8364 20.7145 5.41046 20.7153 4.53112 19.836L4.17757 19.4824C3.29955 18.6044 3.29879 17.1811 4.17586 16.3021L8.53705 11.9316L7.47639 10.8709L3.11406 15.2426Z" fill="#161823"/>
<path d="M20.89 8.75431L16.5237 13.13L15.4631 12.0693L19.8282 7.69478C20.7053 6.81583 20.7045 5.39253 19.8265 4.51451L19.473 4.16096C18.5936 3.28162 17.1677 3.28238 16.2893 4.16267L11.9275 8.53381L10.8669 7.47315L15.2275 3.10315C16.6915 1.636 19.0681 1.63472 20.5336 3.1003L20.8872 3.45385C22.3505 4.91721 22.3518 7.28938 20.89 8.75431Z" fill="#161823"/>
<path d="M5.53009 4.46981C5.23719 4.17691 4.76232 4.17691 4.46943 4.46981C4.17653 4.7627 4.17653 5.23757 4.46943 5.53047L18.4694 19.5305C18.7623 19.8234 19.2372 19.8234 19.5301 19.5305C19.823 19.2376 19.823 18.7627 19.5301 18.4698L5.53009 4.46981Z" fill="#161823"/>
</svg>
