<svg width="20" height="20" viewBox="0 0 20 20" fill="none" xmlns="http://www.w3.org/2000/svg">
<path d="M9.36719 10.3164C9.81799 10.3165 10.1833 10.682 10.1836 11.1328V13.5996C10.1836 14.0138 9.84781 14.3496 9.43359 14.3496C9.01944 14.3495 8.68359 14.0138 8.68359 13.5996V11.8164H6.90039C6.48622 11.8164 6.15046 11.4806 6.15039 11.0664C6.15059 10.6524 6.4863 10.3164 6.90039 10.3164H9.36719Z" fill="#161823"/>
<path d="M10.5664 5.68359C10.9806 5.68366 11.3164 6.01942 11.3164 6.43359V8.2168H13.0996C13.5138 8.2168 13.8495 8.55264 13.8496 8.9668C13.8495 9.3809 13.5137 9.7168 13.0996 9.7168H10.6328C10.182 9.71673 9.81661 9.35121 9.81641 8.90039V6.43359C9.81641 6.01938 10.1522 5.68359 10.5664 5.68359Z" fill="#161823"/>
<path fill-rule="evenodd" clip-rule="evenodd" d="M13.8379 1.4375C15.5992 1.52661 16.9998 2.98322 17 4.7666V15.2002C16.9999 16.9836 15.5992 18.4402 13.8379 18.5293L13.667 18.5332H6.33301C4.49229 18.533 3.00013 17.0409 3 15.2002V4.7666C3.00018 2.92591 4.49232 1.43377 6.33301 1.43359H13.667L13.8379 1.4375ZM6.33301 2.93359C5.32075 2.93377 4.50018 3.75434 4.5 4.7666V15.2002C4.50013 16.2125 5.32072 17.033 6.33301 17.0332H13.667C14.6793 17.033 15.4999 16.2125 15.5 15.2002V4.7666C15.4998 3.75434 14.6793 2.93377 13.667 2.93359H6.33301Z" fill="#161823"/>
</svg>
