<svg width="24" height="24" viewBox="0 0 24 24" fill="none" xmlns="http://www.w3.org/2000/svg">
<path d="M12 6.49963C10.0667 6.49963 8.49951 8.06684 8.49951 10.0001C8.49951 11.9333 10.0667 13.5005 12 13.5005C13.9332 13.5005 15.5004 11.9333 15.5004 10.0001C15.5004 8.06684 13.9332 6.49963 12 6.49963ZM9.99951 10.0001C9.99951 8.89527 10.8951 7.99963 12 7.99963C13.1048 7.99963 14.0004 8.89527 14.0004 10.0001C14.0004 11.1049 13.1048 12.0005 12 12.0005C10.8951 12.0005 9.99951 11.1049 9.99951 10.0001Z" fill="#161823"/>
<path d="M8.34667 21.4972C8.1511 21.2831 7.93145 21.0187 7.70058 20.6987C7.17945 21.0617 6.72001 21.5303 6.35844 21.9732L6.33723 21.9991C6.22581 22.1357 6.10157 22.2879 5.99394 22.4043C5.9366 22.4663 5.84104 22.5657 5.71958 22.6606C5.62676 22.7331 5.34294 22.9472 4.91839 23.0022C4.37462 23.0726 3.8415 22.8826 3.46484 22.4842C3.17765 22.1805 3.09076 21.8454 3.06235 21.7236C3.02698 21.5718 3.0154 21.4338 3.01002 21.35C3.00001 21.1938 3.00006 21.0013 3.00011 20.8328L3.00006 20.6094C2.99947 19.3457 2.99904 18.4232 3.24559 17.5517C3.44836 16.835 3.77284 16.1584 4.20484 15.5515C4.50917 15.1241 4.86877 14.7606 5.29323 14.3881C5.10894 13.2408 4.99999 11.9494 4.99999 10.5C4.99999 8.53361 6.09564 6.3395 7.29938 4.73223C7.92263 3.90005 8.63973 3.13631 9.38067 2.56473C10.0723 2.0312 10.9964 1.5 12 1.5C13.0036 1.5 13.9277 2.0312 14.6193 2.56473C15.3603 3.13631 16.0774 3.90005 16.7006 4.73224C17.9043 6.33951 19 8.53362 19 10.5C19 11.9494 18.8911 13.2408 18.7068 14.388C19.1313 14.7605 19.4909 15.124 19.7953 15.5515C20.2273 16.1584 20.5517 16.835 20.7545 17.5517C21.0011 18.4232 21.0006 19.3457 21 20.6094L21 20.8328C21 21.0013 21.0001 21.1938 20.9901 21.35C20.9847 21.4338 20.9731 21.5718 20.9378 21.7236C20.9094 21.8454 20.8225 22.1805 20.5353 22.4842C20.1586 22.8826 19.6255 23.0726 19.0817 23.0022C18.6572 22.9472 18.3734 22.7331 18.2805 22.6606C18.1591 22.5657 18.0635 22.4663 18.0062 22.4043C17.8985 22.2879 17.7743 22.1356 17.6628 21.9991L17.6417 21.9732C17.2801 21.5303 16.8206 21.0616 16.2994 20.6987C16.0686 21.0186 15.8489 21.283 15.6533 21.4972C15.4506 21.7191 15.2745 21.8862 15.1394 22.0047C15.0536 22.08 14.9649 22.1542 14.872 22.2206C14.6175 22.4023 14.3127 22.5001 14 22.5001H9.99999C9.68731 22.5001 9.38153 22.4017 9.12711 22.2199C9.03417 22.1535 8.94639 22.08 8.86058 22.0047C8.72548 21.8862 8.54934 21.7191 8.34667 21.4972ZM4.50786 19.5329C4.50449 19.6872 4.50259 19.8527 4.50151 20.0315C4.50071 20.1652 4.50037 20.3064 4.50023 20.456L4.50012 20.7996C4.50012 21.1971 4.50012 21.3959 4.55479 21.4537C4.60172 21.5033 4.65806 21.5234 4.7258 21.5146C4.80472 21.5044 4.93532 21.3444 5.19652 21.0245C5.25612 20.9515 5.31929 20.8763 5.38593 20.7996C5.47942 20.6919 5.57975 20.5812 5.68662 20.4694C5.78597 20.3655 5.89098 20.2607 6.00144 20.1564C6.60278 19.5888 7.36528 19.039 8.25288 18.7552C9.12692 20.3763 10 21.0001 10 21.0001H14C14 21.0001 14.8731 20.3763 15.7471 18.7552C16.6348 19.0389 17.3973 19.5888 17.9987 20.1564C18.1091 20.2607 18.2141 20.3655 18.3135 20.4694C18.4204 20.5812 18.5207 20.6919 18.6142 20.7996C18.6808 20.8763 18.744 20.9515 18.8036 21.0245C19.0648 21.3444 19.1954 21.5044 19.2743 21.5146C19.3421 21.5234 19.3984 21.5033 19.4453 21.4537C19.5 21.3959 19.5 21.1971 19.5 20.7996L19.4999 20.456C19.4998 20.3064 19.4994 20.1652 19.4986 20.0315C19.4975 19.8527 19.4956 19.6872 19.4923 19.5329C19.4776 18.8591 19.4349 18.3975 19.3112 17.9601C19.1552 17.4087 18.9056 16.8883 18.5733 16.4215C18.2491 15.966 17.8195 15.5833 17.0738 14.9773C17.3338 13.7253 17.5 12.2432 17.5 10.5C17.5 7.51711 14 3 12 3C10 3 6.5 7.5171 6.5 10.5C6.5 12.2433 6.66621 13.7254 6.9262 14.9774C6.18063 15.5833 5.75102 15.9661 5.42683 16.4215C5.09453 16.8883 4.84493 17.4087 4.68895 17.9601C4.56521 18.3975 4.52256 18.8591 4.50786 19.5329Z" fill="#161823"/>
</svg>
