<svg width="24" height="24" viewBox="0 0 24 24" fill="none" xmlns="http://www.w3.org/2000/svg">
<path d="M2 7V15C2 16.6569 3.34315 18 5 18H11.25V19.5H8.74964C8.33543 19.5 7.99964 19.8358 7.99964 20.25C7.99964 20.6642 8.33543 21 8.74964 21H15.2502C15.6645 21 16.0002 20.6642 16.0002 20.25C16.0002 19.8358 15.6645 19.5 15.2502 19.5H12.75V18H19C20.6569 18 22 16.6569 22 15V7C22 5.34315 20.6569 4 19 4H5C3.34315 4 2 5.34315 2 7ZM3.5 13.5V7C3.5 6.17157 4.17157 5.5 5 5.5H19C19.8284 5.5 20.5 6.17157 20.5 7V13.5H3.5ZM20.5 15C20.5 15.8284 19.8284 16.5 19 16.5H5C4.17157 16.5 3.5 15.8284 3.5 15H20.5Z" fill="#161823"/>
</svg>
