<svg width="16" height="16" viewBox="0 0 16 16" fill="none" xmlns="http://www.w3.org/2000/svg">
<path d="M7.9998 7.33334C9.47256 7.33334 10.6665 5.9902 10.6665 4.33334C10.6665 2.67649 9.47256 1.33334 7.9998 1.33334C6.52704 1.33334 5.33313 2.67649 5.33313 4.33334C5.33313 5.9902 6.52704 7.33334 7.9998 7.33334Z" fill="#161823"/>
<path d="M7.9998 8.13333C6.40609 8.13333 4.92414 8.53096 3.80201 9.24327C2.69087 9.9486 1.7998 11.0668 1.7998 12.4848V13C1.7998 14.0309 2.63554 14.8667 3.66647 14.8667H8.71663C8.62247 14.2937 8.79636 13.6852 9.23828 13.2433L10.119 12.3626L9.23828 11.4818C8.24186 10.4854 8.72475 8.7369 10.0541 8.36574C9.4067 8.21329 8.71449 8.13333 7.9998 8.13333Z" fill="#161823"/>
<path d="M15.3576 9.76256C15.5785 9.98348 15.5785 10.3417 15.3576 10.5626L13.5576 12.3626L15.3576 14.1626C15.5785 14.3835 15.5785 14.7417 15.3576 14.9626C15.1366 15.1835 14.7784 15.1835 14.5575 14.9626L12.7575 13.1626L10.9576 14.9626C10.7366 15.1835 10.3784 15.1835 10.1575 14.9626C9.93659 14.7417 9.93659 14.3835 10.1575 14.1626L11.9575 12.3626L10.1575 10.5626C9.93659 10.3417 9.93659 9.98349 10.1575 9.76256C10.3784 9.54163 10.7366 9.54163 10.9576 9.76256L12.7575 11.5625L14.5575 9.76256C14.7784 9.54163 15.1366 9.54163 15.3576 9.76256Z" fill="#161823"/>
</svg>
