<svg width="20" height="20" viewBox="0 0 20 20" fill="none" xmlns="http://www.w3.org/2000/svg">
<path d="M9.99779 6.89648C8.43194 6.89648 6.89947 7.06073 5.56393 7.41534C4.23517 7.76814 3.06073 8.32022 2.2552 9.12575C1.50826 9.87268 1.12507 10.7939 1.17411 11.8891L1.17422 11.8914C1.20627 12.5403 1.40831 13.1854 1.85599 13.6347C2.20773 13.995 2.71317 14.2014 3.28891 14.1105L5.92084 13.6636C6.36472 13.592 6.76068 13.4453 7.04372 13.1547C7.426 12.7791 7.494 12.2598 7.494 11.7888V11.1468C7.92783 11.0464 8.85734 10.9428 9.99779 10.9428C11.1609 10.9428 12.0678 11.029 12.4841 11.1489L12.4882 11.1502L12.4945 11.7937L12.4946 11.7968C12.502 12.2647 12.5717 12.7816 12.9456 13.1554C13.2327 13.4426 13.6248 13.591 14.0749 13.6636L16.6657 14.1025C17.2678 14.2045 17.7769 13.9808 18.1467 13.6205L18.1475 13.6197C18.5981 13.1786 18.8125 12.5368 18.8289 11.872L18.8289 11.8708C18.8536 10.7623 18.4203 9.84815 17.6979 9.12575C16.8934 8.32129 15.7308 7.76885 14.4114 7.4156C13.0859 7.06073 11.5637 6.89648 9.99779 6.89648Z" fill="#161823"/>
</svg>
