<svg width="24" height="24" viewBox="0 0 24 24" fill="none" xmlns="http://www.w3.org/2000/svg">
<path d="M18.4109 10.8038C17.8318 10.6691 17.3869 10.2051 17.2766 9.62082C16.8072 7.13222 14.6193 5.25 11.995 5.25C9.64011 5.25 7.63526 6.76529 6.9097 8.87842C6.74618 9.35467 6.3546 9.7171 5.86715 9.84337C3.92935 10.3454 2.5 12.1076 2.5 14.2C2.5 16.6852 4.51472 18.7 7 18.7C7.41421 18.7 7.75 19.0357 7.75 19.45C7.75 19.8642 7.41421 20.2 7 20.2C3.68629 20.2 1 17.5137 1 14.2C1 11.4074 2.90773 9.06049 5.491 8.3913C6.41823 5.69083 8.97996 3.75 11.995 3.75C15.3538 3.75 18.15 6.15858 18.7506 9.34277C21.1857 9.90898 23 12.0926 23 14.7C23 17.7375 20.5376 20.2 17.5 20.2C17.0858 20.2 16.75 19.8642 16.75 19.45C16.75 19.0357 17.0858 18.7 17.5 18.7C19.7091 18.7 21.5 16.9091 21.5 14.7C21.5 12.8056 20.1817 11.2155 18.4109 10.8038Z" fill="#161823"/>
<path d="M11.25 10C11.25 9.58579 11.5858 9.25 12 9.25C12.4142 9.25 12.75 9.58579 12.75 10V17.3282L15.3585 14.7197C15.6514 14.4268 16.1263 14.4268 16.4192 14.7197C16.712 15.0126 16.712 15.4874 16.4192 15.7803L12.5301 19.6694C12.2372 19.9623 11.7623 19.9623 11.4694 19.6694L7.58032 15.7803C7.28743 15.4874 7.28743 15.0126 7.58032 14.7197C7.87321 14.4268 8.34809 14.4268 8.64098 14.7197L11.25 17.3287V10Z" fill="#161823"/>
</svg>
