<svg width="16" height="16" viewBox="0 0 16 16" fill="none" xmlns="http://www.w3.org/2000/svg">
<path d="M14.9973 2.3313C14.9973 2.22162 14.8668 2.16583 14.7871 2.24102C14.3855 2.61925 13.8438 2.85061 13.2476 2.85061H7.24866C7.11058 2.85061 6.9987 2.96249 6.9987 3.10057V6.22822C6.9987 6.32971 7.11188 6.3872 7.19567 6.32991C7.65489 6.01556 8.21369 5.83639 8.81579 5.85089C10.3174 5.88678 11.4979 7.15506 11.4979 8.6571V13.2872C11.4979 13.3779 11.5909 13.4373 11.6741 13.4013C13.6293 12.5583 14.9973 10.6138 14.9973 8.34966V2.3313Z" fill="#161823"/>
<path d="M9.49853 13.5985V9.09924C9.49853 8.40936 8.93962 7.84946 8.24874 7.84946C7.56086 7.84946 7.00196 8.40636 6.99896 9.09424V11.5988C6.99896 11.7369 6.88708 11.8488 6.749 11.8488C5.78267 11.8488 4.99931 11.0654 4.99931 10.0991V3.22666C4.99931 3.14288 4.91782 3.08139 4.83793 3.10668C2.61322 3.81096 1 5.8919 1 8.34937V13.5985C1 13.7365 1.11188 13.8484 1.24996 13.8484H9.24857C9.38664 13.8484 9.49853 13.7365 9.49853 13.5985Z" fill="#161823"/>
</svg>
