<svg width="16" height="16" viewBox="0 0 16 16" fill="none" xmlns="http://www.w3.org/2000/svg">
<path d="M9.12398 4.77971C8.94864 4.31079 8.50062 4 7.99999 4C7.49936 4 7.05134 4.31079 6.876 4.77971L6.55344 5.64233L5.63337 5.68254C5.13322 5.70439 4.69919 6.03445 4.54448 6.51057C4.38978 6.9867 4.54692 7.50883 4.9387 7.8205L5.65943 8.39383L5.41334 9.2813C5.27957 9.76372 5.45935 10.2785 5.86437 10.5728C6.26939 10.867 6.81453 10.8789 7.232 10.6026L7.99999 10.0943L8.76798 10.6026C9.18545 10.8789 9.73059 10.867 10.1356 10.5728C10.5406 10.2785 10.7204 9.76372 10.5866 9.2813L10.3406 8.39383L11.0613 7.8205C11.4531 7.50883 11.6102 6.9867 11.4555 6.51057C11.3008 6.03445 10.8668 5.70439 10.3666 5.68254L9.44654 5.64233L9.12398 4.77971ZM7.02801 7.94915L5.68575 6.88139L7.39927 6.80652L7.99999 5.2L8.60071 6.80652L10.3142 6.88139L8.97197 7.94915L9.43027 9.60194L7.99999 8.65533L6.56971 9.60194L7.02801 7.94915Z" fill="#161823"/>
<path d="M3.6 2C2.16406 2 1 3.16406 1 4.6V10.4C1 11.8359 2.16406 13 3.6 13H4.99999V13.7542C4.99999 14.808 6.26104 15.35 7.0257 14.6249L8.73924 13H12.4C13.8359 13 15 11.8359 15 10.4V4.6C15 3.16406 13.8359 2 12.4 2H3.6ZM2.2 4.6C2.2 3.8268 2.8268 3.2 3.6 3.2H12.4C13.1732 3.2 13.8 3.8268 13.8 4.6V10.4C13.8 11.1732 13.1732 11.8 12.4 11.8H8.73924C8.432 11.8 8.13647 11.9178 7.91353 12.1292L6.19999 13.7542V12.4C6.19999 12.0686 5.93136 11.8 5.59999 11.8H3.6C2.8268 11.8 2.2 11.1732 2.2 10.4V4.6Z" fill="#161823"/>
</svg>
