<svg width="20" height="20" viewBox="0 0 20 20" fill="none" xmlns="http://www.w3.org/2000/svg">
<path fill-rule="evenodd" clip-rule="evenodd" d="M10.0001 1.66664C8.02171 1.66664 6.58347 3.46575 6.58347 5.46664C6.58347 7.46754 8.02171 9.26664 10.0001 9.26664C11.9786 9.26664 13.4168 7.46754 13.4168 5.46664C13.4168 3.46575 11.9786 1.66664 10.0001 1.66664ZM8.08347 5.46664C8.08347 4.0986 9.03304 3.16664 10.0001 3.16664C10.9672 3.16664 11.9168 4.0986 11.9168 5.46664C11.9168 6.83468 10.9672 7.76664 10.0001 7.76664C9.03304 7.76664 8.08347 6.83468 8.08347 5.46664Z" fill="#161823"/>
<path d="M10.0001 10.3C9.06083 10.3 8.16185 10.4225 7.33309 10.6501C7.16825 10.6953 7.13786 10.9206 7.26421 11.0357C7.29025 11.0594 7.31587 11.0839 7.34104 11.109L8.13585 11.9038C8.18355 11.9515 8.25204 11.9718 8.31825 11.9589C8.84688 11.8559 9.41038 11.8 10.0001 11.8C11.7547 11.8 13.2767 12.2949 14.3401 13.0525C15.4035 13.8101 15.9668 14.7915 15.9668 15.8015V15.9166C15.9668 16.4229 15.5564 16.8333 15.0501 16.8333H10.8639C10.7916 16.8333 10.7255 16.8728 10.6868 16.9339C10.5993 17.0725 10.4951 17.2035 10.3743 17.3243L9.70677 17.9919C9.58078 18.1179 9.67001 18.3333 9.84819 18.3333H15.0501C16.3848 18.3333 17.4668 17.2513 17.4668 15.9166V15.8015C17.4668 14.1873 16.5608 12.7929 15.2105 11.8308C13.86 10.8687 12.0237 10.3 10.0001 10.3Z" fill="#161823"/>
<path d="M2.53945 16.0878C1.32851 15.466 0.5 14.2047 0.5 12.7498V11.75C0.5 11.3358 0.835786 11 1.25 11C1.66421 11 2 11.3358 2 11.75V12.7498C2 13.4203 2.29329 14.0223 2.75859 14.4345C3.08648 14.725 3.49978 14.9212 3.95606 14.9808C4.05226 14.9933 4.15038 14.9998 4.25 14.9998H6.98914L5.21972 13.2304C4.92682 12.9375 4.92681 12.4626 5.2197 12.1697C5.40277 11.9866 5.65692 11.918 5.89329 11.9638C6.03511 11.9912 6.17053 12.0599 6.28036 12.1697L9.31366 15.203C9.60656 15.4959 9.60656 15.9708 9.31366 16.2636L8.01688 17.5605L8.00933 17.568L6.28036 19.2969C5.98747 19.5898 5.5126 19.5898 5.2197 19.2969C4.92681 19.0041 4.92681 18.5292 5.2197 18.2363L6.9562 16.4998H4.25C4.24762 16.4998 4.24523 16.4998 4.24285 16.4998C3.96422 16.4993 3.69273 16.4684 3.43151 16.4102C3.1175 16.3403 2.81833 16.231 2.53945 16.0878Z" fill="#161823"/>
</svg>
