<svg width="24" height="24" viewBox="0 0 24 24" fill="none" xmlns="http://www.w3.org/2000/svg">
<path d="M3.03033 2.96967C2.73744 2.67678 2.26256 2.67678 1.96967 2.96967C1.67678 3.26256 1.67678 3.73744 1.96967 4.03033L2.95416 5.01482L2.95904 5.01966L20.2752 22.3358C20.5685 22.6238 21.0396 22.6221 21.3309 22.3309C21.6238 22.038 21.6238 21.5631 21.3309 21.2702L20.1433 20.0827C20.6112 19.5595 20.881 18.8576 20.8388 18.0975L20.1444 5.59746C20.0634 4.14019 18.8581 3 17.3986 3H6.60151C5.64337 3 4.79479 3.49138 4.30194 4.24128L3.03033 2.96967ZM12 10.875C9.92893 10.875 8.25 9.19607 8.25 7.125V7C8.25 6.58579 8.58579 6.25 9 6.25C9.41421 6.25 9.75 6.58579 9.75 7V7.125C9.75 8.36764 10.7574 9.375 12 9.375C13.2426 9.375 14.25 8.36764 14.25 7.125V7C14.25 6.58579 14.5858 6.25 15 6.25C15.4142 6.25 15.75 6.58579 15.75 7V7.125C15.75 9.19607 14.0711 10.875 12 10.875Z" fill="#161823"/>
<path d="M3.1613 18.0975L3.72731 7.90925L16.8181 21H5.90707C4.32834 21 3.07373 19.6738 3.1613 18.0975Z" fill="#161823"/>
</svg>
