<svg width="20" height="20" viewBox="0 0 20 20" fill="none" xmlns="http://www.w3.org/2000/svg">
<path fill-rule="evenodd" clip-rule="evenodd" d="M13.8337 5.83333C13.8337 7.67428 12.4905 9.16667 10.8337 9.16667C9.17683 9.16667 7.83368 7.67428 7.83368 5.83333C7.83368 3.99238 9.17683 2.5 10.8337 2.5C12.4905 2.5 13.8337 3.99238 13.8337 5.83333ZM12.5837 5.83333C12.5837 7.11107 11.6796 7.91667 10.8337 7.91667C9.98781 7.91667 9.08368 7.11107 9.08368 5.83333C9.08368 4.5556 9.98781 3.75 10.8337 3.75C11.6796 3.75 12.5837 4.5556 12.5837 5.83333Z" fill="#161823"/>
<path d="M10.8337 10.4167C9.12042 10.4167 7.52885 10.8339 6.32426 11.5805C5.13467 12.3177 4.16699 13.4944 4.16699 15V15.4167C4.16699 16.5673 5.09973 17.5 6.25033 17.5H8.65661C8.79468 17.5 8.89155 17.3629 8.86215 17.228C8.80984 16.988 8.797 16.7406 8.82414 16.4965C8.83831 16.3691 8.74359 16.25 8.61538 16.25H6.25033C5.79009 16.25 5.41699 15.8769 5.41699 15.4167V15C5.41699 13.1591 7.78679 11.6667 10.8337 11.6667C11.4738 11.6667 12.0841 11.7325 12.6488 11.8537C12.7677 11.8792 12.8835 11.7969 12.9065 11.6775C12.939 11.5086 12.9888 11.3413 13.0563 11.1783C13.0864 11.1056 13.1196 11.0348 13.1557 10.9661C13.2197 10.8441 13.1606 10.6877 13.0263 10.6571C12.3352 10.4994 11.5965 10.4167 10.8337 10.4167Z" fill="#161823"/>
<path d="M17.8924 15.54L16.99 14.6376L15.3949 16.4147C15.1223 16.7185 14.6566 16.7484 14.3473 16.482L13.2074 15.5001L11.6153 17.2515C11.3366 17.558 10.8623 17.5806 10.5558 17.302C10.2493 17.0233 10.2267 16.549 10.5054 16.2425L12.5887 13.9508C12.8621 13.6501 13.3252 13.6219 13.6331 13.8871L14.7695 14.8659L15.9278 13.5754L14.9757 12.6233C14.7898 12.4374 14.7342 12.1578 14.8348 11.9149C14.9354 11.6721 15.1724 11.5137 15.4353 11.5137H18.352C18.711 11.5137 19.002 11.8047 19.002 12.1637V15.0804C19.002 15.3433 18.8436 15.5803 18.6007 15.6809C18.3578 15.7815 18.0783 15.7259 17.8924 15.54Z" fill="#161823"/>
<path d="M7.53452 8.72214C7.14495 9.00029 6.6814 9.16163 6.18394 9.16163C4.80231 9.16163 3.68227 7.91715 3.68227 6.382C3.68227 4.84685 4.80231 3.60237 6.18394 3.60237C6.48512 3.60237 6.77387 3.66151 7.04129 3.7699C6.86438 4.14844 6.73507 4.55372 6.65988 4.97415C6.50374 4.89394 6.33973 4.85237 6.18394 4.85237C5.61329 4.85237 4.93227 5.41007 4.93227 6.382C4.93227 7.35393 5.61329 7.91163 6.18394 7.91163C6.42972 7.91163 6.69597 7.80817 6.91947 7.61272C7.07561 8.01149 7.28293 8.3854 7.53452 8.72214Z" fill="#161823"/>
<path d="M5.94969 10.5458C4.57798 10.5817 3.30112 10.9327 2.31417 11.5443C1.28625 12.1814 0.416992 13.2197 0.416992 14.5723V14.9198C0.416992 15.9939 1.28776 16.8647 2.3619 16.8647H3.16039C3.00376 16.4787 2.91735 16.0568 2.91699 15.6147H2.3619C1.97811 15.6147 1.66699 15.3036 1.66699 14.9198V14.5723C1.66699 13.5072 2.61835 12.582 4.04957 12.1153C4.51792 11.5415 5.0865 11.0723 5.66577 10.7133C5.75879 10.6557 5.85346 10.5998 5.94969 10.5458Z" fill="#161823"/>
</svg>
