<svg width="16" height="16" viewBox="0 0 16 16" fill="none" xmlns="http://www.w3.org/2000/svg">
<path d="M2.87346 2C2.12278 2 1.7231 2.88564 2.21978 3.44854L6 7.73278V13.7621C6 14.1553 6.43299 14.3947 6.76597 14.1855L9.53195 12.4479C9.82322 12.2649 10 11.9451 10 11.6011V7.73279L13.7802 3.44854C14.2769 2.88565 13.8772 2 13.1265 2H2.87346Z" fill="#161823"/>
<path d="M11.4979 8.3979C11.4979 7.98369 11.8337 7.6479 12.2479 7.6479H13.9092C14.3234 7.6479 14.6592 7.98369 14.6592 8.3979C14.6592 8.81212 14.3234 9.1479 13.9092 9.1479H12.2479C11.8337 9.1479 11.4979 8.81212 11.4979 8.3979Z" fill="#161823"/>
<path d="M12.2479 10.6505C11.8337 10.6505 11.4979 10.9863 11.4979 11.4005C11.4979 11.8147 11.8337 12.1505 12.2479 12.1505H13.9092C14.3234 12.1505 14.6592 11.8147 14.6592 11.4005C14.6592 10.9863 14.3234 10.6505 13.9092 10.6505H12.2479Z" fill="#161823"/>
</svg>
