<svg width="20" height="20" viewBox="0 0 20 20" fill="none" xmlns="http://www.w3.org/2000/svg">
<path d="M9.99984 2.625C7.88275 2.625 6.1665 4.34124 6.1665 6.45833L6.16673 6.50037C5.66833 6.48997 5.16617 6.53405 4.66938 6.63508C4.66747 6.5764 4.6665 6.51748 4.6665 6.45833C4.6665 3.51281 7.05432 1.125 9.99984 1.125C12.9454 1.125 15.3332 3.51281 15.3332 6.45833C15.3332 9.24604 13.1944 11.5342 10.4682 11.7714C9.67532 13.5425 10.3353 15.6619 12.0524 16.6533C13.8859 17.7119 16.2303 17.0837 17.2889 15.2502C18.3474 13.4168 17.7192 11.0723 15.8858 10.0138L15.8492 9.99291C16.1074 9.5665 16.3203 9.10959 16.4812 8.62885C16.533 8.65654 16.5845 8.68517 16.6358 8.71475C19.1867 10.1875 20.0607 13.4493 18.5879 16.0002C17.1152 18.5511 13.8533 19.4251 11.3024 17.9524C8.88817 16.5585 7.97598 13.562 9.13377 11.0825C7.99636 9.51034 5.831 9.02221 4.11385 10.0136C2.28039 11.0722 1.6522 13.4166 2.71075 15.25C3.76929 17.0835 6.11372 17.7117 7.94718 16.6531L7.98343 16.6319C8.22361 17.0688 8.51286 17.4816 8.84873 17.8614C8.79889 17.8923 8.74837 17.9226 8.69718 17.9522C6.14629 19.4249 2.88447 18.5509 1.41171 16C-0.0610486 13.4491 0.812952 10.1873 3.36385 8.71457C5.77808 7.32071 8.82911 8.0289 10.3976 10.2713C12.3278 10.0723 13.8332 8.44111 13.8332 6.45833C13.8332 4.34124 12.1169 2.625 9.99984 2.625Z" fill="#161823"/>
</svg>
