<svg width="20" height="20" viewBox="0 0 20 20" fill="none" xmlns="http://www.w3.org/2000/svg">
<path d="M5.75 1C4.23122 1 3 2.23122 3 3.75V16.25C3 17.7688 4.23121 19 5.75 19H9.18386C9.35438 19 9.45016 18.7971 9.35353 18.6566C9.16361 18.3805 9.00942 18.0858 8.89156 17.7794C8.82847 17.6154 8.67512 17.5 8.4994 17.5H5.75C5.05964 17.5 4.5 16.9404 4.5 16.25V3.75C4.5 3.05964 5.05964 2.5 5.75 2.5H6.4834V2.70003C6.4834 3.25232 6.93111 3.70003 7.4834 3.70003H10.4834C11.0357 3.70003 11.4834 3.25232 11.4834 2.70003V2.5H12.2167C12.907 2.5 13.4667 3.05964 13.4667 3.75V8.42997C13.4667 8.6101 13.6919 8.70384 13.831 8.58935C14.1058 8.36316 14.4037 8.17606 14.7167 8.02875C14.8654 7.9588 14.9667 7.81284 14.9667 7.64855V3.75C14.9667 2.23122 13.7355 1 12.2167 1H5.75Z" fill="#161823"/>
<path d="M14.4223 10.1064C15.3986 8.94296 17.1332 8.79121 18.2966 9.76747C19.4601 10.7437 19.6118 12.4783 18.6356 13.6418L18.1214 14.2546C17.8551 14.5719 17.382 14.6133 17.0647 14.347C16.7474 14.0808 16.706 13.6077 16.9723 13.2904L17.4865 12.6776C17.9303 12.1487 17.8613 11.3603 17.3325 10.9165C16.8036 10.4728 16.0152 10.5418 15.5714 11.0706L14.543 12.2963C14.2331 12.6656 14.1732 13.1615 14.3454 13.5782C14.472 13.8844 14.5244 14.2631 14.3114 14.5169L14.1507 14.7085C13.9199 14.9835 13.5017 15.0227 13.2881 14.7342C12.5491 13.7356 12.5602 12.3256 13.3939 11.3321L14.4223 10.1064Z" fill="#161823"/>
<path d="M16.0983 13.3895C15.8848 13.101 15.4666 13.1402 15.2358 13.4152L15.0751 13.6067C14.8621 13.8606 14.9145 14.2392 15.041 14.5455C15.2132 14.9622 15.1534 15.4581 14.8435 15.8274L13.815 17.0531C13.3713 17.5819 12.5828 17.6509 12.054 17.2071C11.5252 16.7634 11.4562 15.975 11.8999 15.4461L12.4142 14.8333C12.6804 14.516 12.639 14.0429 12.3217 13.7766C12.0044 13.5104 11.5313 13.5518 11.2651 13.8691L10.7509 14.4819C9.77461 15.6454 9.92636 17.38 11.0898 18.3562C12.2533 19.3325 13.9879 19.1807 14.9641 18.0173L15.9926 16.7916C16.8262 15.7981 16.8373 14.3881 16.0983 13.3895Z" fill="#161823"/>
<path d="M8.9834 6.75C9.39761 6.75 9.7334 7.08579 9.7334 7.5V9.25H11.4834C11.8976 9.25 12.2334 9.58579 12.2334 10C12.2334 10.4142 11.8976 10.75 11.4834 10.75H9.7334V12.5C9.7334 12.9142 9.39761 13.25 8.9834 13.25C8.56918 13.25 8.2334 12.9142 8.2334 12.5V10.75H6.4834C6.06918 10.75 5.7334 10.4142 5.7334 10C5.7334 9.58579 6.06918 9.25 6.4834 9.25H8.2334V7.5C8.2334 7.08579 8.56918 6.75 8.9834 6.75Z" fill="#161823"/>
</svg>
