<svg width="20" height="20" viewBox="0 0 20 20" fill="none" xmlns="http://www.w3.org/2000/svg">
<path d="M16.4983 10.5C16.4983 10.9142 16.1625 11.25 15.7483 11.25C15.3341 11.25 14.9983 10.9142 14.9983 10.5V5.00162L9.4999 5.00006C9.08569 4.99994 8.75 4.66406 8.75011 4.24985C8.75023 3.83563 9.08611 3.49994 9.50033 3.50006L15.7485 3.50184C16.1626 3.50195 16.4983 3.83771 16.4983 4.25184V10.5Z" fill="#161823"/>
<path d="M3.50195 9.5C3.50195 9.08578 3.83774 8.75 4.25195 8.75C4.66617 8.75 5.00195 9.08578 5.00195 9.5V14.9999H10.5001C10.9143 14.9999 11.2501 15.3357 11.2501 15.7499C11.2501 16.1641 10.9143 16.4999 10.5001 16.4999H4.25195C3.83774 16.4999 3.50195 16.1641 3.50195 15.7499V9.5Z" fill="#161823"/>
</svg>
