<svg width="12" height="12" viewBox="0 0 12 12" fill="none" xmlns="http://www.w3.org/2000/svg">
<path d="M10.7838 4.10304L10.2506 5.02038C9.83653 4.84926 9.38592 4.79897 8.95036 4.86951L9.74629 3.50005L2.46605 3.50358L4.72411 5.90424L7.39143 4.82797C7.4979 4.78501 7.58101 4.92604 7.49184 4.99837L5.23622 6.828L5.57999 8.00717L5.57996 8.02057V9.58444C5.57996 10.0923 5.74043 10.5773 6.02558 10.9774C5.55402 10.9485 5.10045 10.6498 4.94464 10.1153L4.01126 6.91374C4.00685 6.89859 3.99891 6.88471 3.9881 6.87322L1.59196 4.32575C0.871741 3.56005 1.41427 2.30409 2.46547 2.30358L9.74571 2.30005C10.6713 2.2996 11.2489 3.30282 10.7838 4.10304Z" fill="#161823"/>
<path d="M10.0703 8.80252C10.0703 9.2082 9.74146 9.53707 9.33578 9.53707C8.93009 9.53707 8.60122 9.2082 8.60122 8.80252C8.60122 8.39684 8.93009 8.06797 9.33578 8.06797C9.74146 8.06797 10.0703 8.39684 10.0703 8.80252Z" fill="#161823"/>
<path d="M8.73441 6.19934C9.10569 5.98499 9.56313 5.98499 9.9344 6.19934L11.2888 6.98128C11.6601 7.19564 11.8888 7.5918 11.8888 8.02052V9.58439C11.8888 10.0131 11.6601 10.4093 11.2888 10.6236L9.9344 11.4056C9.56313 11.6199 9.10569 11.6199 8.73441 11.4056L7.38004 10.6236C7.00875 10.4093 6.78003 10.0131 6.78003 9.58439V8.02052C6.78003 7.5918 7.00875 7.19564 7.38004 6.98128L8.73441 6.19934ZM9.33441 7.23857L7.98003 8.02052L7.98003 9.58439L9.33441 10.3663L10.6888 9.58439V8.02052L9.33441 7.23857Z" fill="#161823"/>
</svg>
