<svg width="24" height="24" viewBox="0 0 24 24" fill="none" xmlns="http://www.w3.org/2000/svg">
<path d="M18 15.0406V16.25C18 17.7688 16.7688 19 15.25 19H4.75C3.23122 19 2 17.7688 2 16.25V7.75C2 6.23122 3.23122 5 4.75 5H15.25C16.7688 5 18 6.23122 18 7.75V8.95942L21.4863 7.46398C22.231 7.21576 23 7.77002 23 8.55497V15.445C23 16.23 22.231 16.7842 21.4863 16.536L18 15.0406ZM4.75 6.5C4.05964 6.5 3.5 7.05964 3.5 7.75V16.25C3.5 16.9404 4.05964 17.5 4.75 17.5H15.25C15.9404 17.5 16.5 16.9404 16.5 16.25V7.75C16.5 7.05964 15.9404 6.5 15.25 6.5H4.75ZM18 13.4594L21.5 14.9594V9.04056L18 10.5406V13.4594Z" fill="#161823"/>
</svg>
