<svg width="16" height="16" viewBox="0 0 16 16" fill="none" xmlns="http://www.w3.org/2000/svg">
<g clip-path="url(#clip0_7_1366)">
<path d="M10.6665 4.33334C10.6665 5.9902 9.47256 7.33334 7.9998 7.33334C6.52704 7.33334 5.33313 5.9902 5.33313 4.33334C5.33313 2.67649 6.52704 1.33334 7.9998 1.33334C9.47256 1.33334 10.6665 2.67649 10.6665 4.33334Z" fill="#161823"/>
<path d="M3.80201 9.24327C4.92414 8.53096 6.40609 8.13333 7.9998 8.13333C8.56312 8.13333 9.11247 8.18301 9.63691 8.2787C9.38938 8.76287 9.24976 9.31136 9.24976 9.89247V10.0789C8.63936 10.5828 8.24976 11.3451 8.24976 12.2V14.6C8.24976 14.6899 8.25408 14.7789 8.26252 14.8667H3.66647C2.63554 14.8667 1.7998 14.0309 1.7998 13V12.4848C1.7998 11.0668 2.69087 9.9486 3.80201 9.24327Z" fill="#161823"/>
<path d="M10.5498 9.88776C10.5498 8.64511 11.5572 7.63776 12.7998 7.63776C14.0424 7.63776 15.0498 8.64512 15.0498 9.88776V10.8212C15.6303 11.0105 16.0498 11.5563 16.0498 12.2V14.6C16.0498 15.4008 15.4006 16.05 14.5998 16.05H10.9998C10.199 16.05 9.5498 15.4008 9.5498 14.6V12.2C9.5498 11.5563 9.96928 11.0105 10.5498 10.8212V9.88776ZM13.7498 9.88776C13.7498 9.36309 13.3245 8.93776 12.7998 8.93776C12.2751 8.93776 11.8498 9.36309 11.8498 9.88776V10.75H13.7498V9.88776ZM10.9998 12.05C10.917 12.05 10.8498 12.1172 10.8498 12.2V14.6C10.8498 14.6829 10.917 14.75 10.9998 14.75H14.5998C14.6826 14.75 14.7498 14.6829 14.7498 14.6V12.2C14.7498 12.1172 14.6826 12.05 14.5998 12.05H10.9998Z" fill="#161823"/>
</g>
<defs>
<clipPath id="clip0_7_1366">
<rect width="16" height="16" fill="white"/>
</clipPath>
</defs>
</svg>
