<svg width="20" height="20" viewBox="0 0 20 20" fill="none" xmlns="http://www.w3.org/2000/svg">
<path d="M10.0003 18.3332C14.6027 18.3332 18.3337 14.6022 18.3337 9.99984C18.3337 5.39746 14.6027 1.6665 10.0003 1.6665C5.39795 1.6665 1.66699 5.39746 1.66699 9.99984C1.66699 14.6022 5.39795 18.3332 10.0003 18.3332ZM12.0333 5.05005C12.6833 5.70006 13.1989 6.47174 13.5507 7.32102C13.9025 8.1703 14.0835 9.08055 14.0835 9.9998C14.0835 10.9191 13.9025 11.8293 13.5507 12.6786C13.1989 13.5279 12.6833 14.2995 12.0333 14.9495C11.7404 15.2424 11.2655 15.2424 10.9726 14.9495C10.6797 14.6567 10.6797 14.1818 10.9726 13.8889C11.4833 13.3782 11.8885 12.7719 12.1649 12.1046C12.4413 11.4373 12.5835 10.7221 12.5835 9.9998C12.5835 9.27753 12.4413 8.56233 12.1649 7.89504C11.8885 7.22775 11.4833 6.62144 10.9726 6.11071C10.6797 5.81782 10.6797 5.34295 10.9726 5.05005C11.2655 4.75716 11.7404 4.75716 12.0333 5.05005ZM8.91034 7.11243C9.20324 6.81954 9.67811 6.81954 9.971 7.11243C10.3502 7.4916 10.651 7.94175 10.8562 8.43716C11.0614 8.93257 11.167 9.46355 11.167 9.99978C11.167 10.536 11.0614 11.067 10.8562 11.5624C10.651 12.0578 10.3502 12.508 9.971 12.8871C9.67811 13.18 9.20324 13.18 8.91034 12.8871C8.61745 12.5942 8.61745 12.1194 8.91034 11.8265C9.15023 11.5866 9.34052 11.3018 9.47034 10.9884C9.60016 10.675 9.66698 10.339 9.66698 9.99978C9.66698 9.66054 9.60016 9.32461 9.47034 9.01119C9.34052 8.69776 9.15023 8.41298 8.91034 8.17309C8.61745 7.8802 8.61745 7.40532 8.91034 7.11243ZM7.0835 11.2498C6.39314 11.2498 5.8335 10.6902 5.8335 9.99982C5.8335 9.30946 6.39314 8.74982 7.0835 8.74982C7.77385 8.74982 8.3335 9.30946 8.3335 9.99982C8.3335 10.6902 7.77385 11.2498 7.0835 11.2498Z" fill="#161823"/>
</svg>
