<svg width="16" height="16" viewBox="0 0 16 16" fill="none" xmlns="http://www.w3.org/2000/svg">
<path d="M11.667 1C9.59592 1 7.91699 2.67893 7.91699 4.75V6.58333H2.50033C1.4878 6.58333 0.666992 7.40414 0.666992 8.41666V13.1667C0.666992 14.1792 1.4878 15 2.50033 15H9.50033C10.5128 15 11.3337 14.1792 11.3337 13.1667V8.41666C11.3337 7.40414 10.5128 6.58333 9.50032 6.58333H9.41699V4.75C9.41699 3.50736 10.4244 2.5 11.667 2.5C12.9096 2.5 13.917 3.50736 13.917 4.75V6.41667C13.917 6.83088 14.2528 7.16667 14.667 7.16667C15.0812 7.16667 15.417 6.83088 15.417 6.41667V4.75C15.417 2.67893 13.7381 1 11.667 1ZM2.50033 8.08333H9.50032C9.68442 8.08333 9.83366 8.23257 9.83366 8.41666V13.1667C9.83366 13.3508 9.68442 13.5 9.50033 13.5H2.50033C2.31623 13.5 2.16699 13.3508 2.16699 13.1667V8.41666C2.16699 8.23257 2.31623 8.08333 2.50033 8.08333Z" fill="#161823"/>
</svg>
