<svg width="24" height="24" viewBox="0 0 24 24" fill="none" xmlns="http://www.w3.org/2000/svg">
<path d="M9.77355 13.6611C8.31937 11.6204 8.50783 8.76896 10.3386 6.93821L13.4219 3.85489C15.2786 1.99824 18.2888 1.99824 20.1454 3.85489C22.0021 5.71155 22.0021 8.72178 20.1454 10.5784L18.4783 12.2456C18.1854 12.5385 17.7105 12.5385 17.4176 12.2456C17.1247 11.9527 17.1247 11.4778 17.4176 11.1849L19.0848 9.51777C20.3556 8.2469 20.3556 6.18642 19.0848 4.91555C17.8139 3.64469 15.7534 3.64469 14.4826 4.91555L11.3992 7.99887C10.1707 9.2274 9.97967 11.1001 10.8255 12.5292C11.0556 12.918 11.0512 13.4037 10.7628 13.692C10.4641 13.9907 9.99815 13.9763 9.77355 13.6611Z" fill="#161823"/>
<path d="M4.9165 14.4795C3.64502 15.751 3.64502 17.8125 4.9165 19.084C6.18797 20.3554 8.24944 20.3554 9.52091 19.084L12.6041 16.0007C13.8333 14.7716 14.0243 12.8979 13.178 11.4682C12.9478 11.0794 12.9522 10.5937 13.2405 10.3054C13.5393 10.0067 14.0052 10.0211 14.2299 10.3363C15.6846 12.3776 15.4962 15.23 13.6648 17.0614L10.5816 20.1446C8.72431 22.0019 5.7131 22.0019 3.85584 20.1446C1.99858 18.2874 1.99858 15.2761 3.85584 13.4189L5.49237 11.7824C5.78526 11.4895 6.26013 11.4895 6.55302 11.7824C6.84592 12.0752 6.84592 12.5501 6.55303 12.843L4.9165 14.4795Z" fill="#161823"/>
</svg>
