<svg width="24" height="24" viewBox="0 0 24 24" fill="none" xmlns="http://www.w3.org/2000/svg">
<path d="M17.8936 16.8246V7.39959C17.8936 6.68551 17.3147 6.10663 16.6006 6.10663H11.4932C11.079 6.10663 10.7432 5.77084 10.7432 5.35663C10.7432 4.94242 11.079 4.60663 11.4932 4.60663H16.6006C18.1432 4.60663 19.3936 5.85708 19.3936 7.39959V16.8248L21.1778 15.0406C21.4707 14.7477 21.9456 14.7477 22.2385 15.0406C22.5314 15.3335 22.5314 15.8084 22.2385 16.1013L19.3185 19.0212C18.9458 19.3939 18.3416 19.3939 17.9689 19.0212L15.0489 16.1013C14.756 15.8084 14.756 15.3335 15.0489 15.0406C15.3418 14.7477 15.8167 14.7477 16.1096 15.0406L17.8936 16.8246Z" fill="#161823"/>
<path d="M7.89838 8.95025L6.11426 7.16613V16.5917C6.11426 17.3058 6.69314 17.8847 7.40723 17.8847H12.5146C12.9289 17.8847 13.2646 18.2204 13.2646 18.6347C13.2646 19.0489 12.9289 19.3847 12.5146 19.3847H7.40723C5.86471 19.3847 4.61426 18.1342 4.61426 16.5917V7.16613L2.83013 8.95025C2.53724 9.24314 2.06237 9.24314 1.76947 8.95025C1.47658 8.65736 1.47658 8.18248 1.76947 7.88959L4.68947 4.9696C5.06214 4.59692 5.66637 4.59692 6.03905 4.9696L8.95904 7.88959C9.25193 8.18248 9.25193 8.65736 8.95904 8.95025C8.66614 9.24314 8.19127 9.24314 7.89838 8.95025Z" fill="#161823"/>
</svg>
