<svg width="24" height="24" viewBox="0 0 24 24" fill="none" xmlns="http://www.w3.org/2000/svg">
<path d="M16.3256 3.542C14.4679 2.5919 12.349 2.27984 10.2963 2.654C8.24356 3.02816 6.37109 4.06773 4.96808 5.61218C3.81317 6.88351 3.02925 8.43871 2.69 10.1087C2.60753 10.5146 2.86975 10.9105 3.27567 10.993C3.68159 11.0754 4.07751 10.8132 4.15997 10.4073C4.44566 9.00101 5.10581 7.69136 6.07836 6.62078C7.25984 5.3202 8.83665 4.44477 10.5653 4.12968C12.2939 3.8146 14.0782 4.07739 15.6426 4.87748C17.0739 5.60951 18.2483 6.75405 19.017 8.1582L17.652 8.655C17.3493 8.76518 17.3218 9.19098 17.607 9.35142L20.4259 10.9371C20.6916 11.0866 21.0213 10.9665 21.1288 10.6812L22.269 7.6546C22.3843 7.34836 22.0895 7.03989 21.7868 7.15007L20.4403 7.64015C19.5313 5.88035 18.0935 4.44618 16.3256 3.542Z" fill="#161823"/>
<path d="M21.3072 13.9032C21.3902 13.4974 21.1285 13.1011 20.7226 13.0181C20.3168 12.9351 19.9206 13.1968 19.8376 13.6027C19.5698 14.9121 18.9762 16.1425 18.1005 17.1748C16.8744 18.6203 15.1748 19.5835 13.3046 19.8927C11.4345 20.2018 9.51528 19.8369 7.88912 18.8629C6.66193 18.1279 5.66178 17.082 4.9827 15.8418L6.34758 15.345C6.65031 15.2348 6.67786 14.809 6.39264 14.6486L3.57376 13.0629C3.30804 12.9134 2.97828 13.0335 2.87081 13.3188L1.73067 16.3454C1.61531 16.6516 1.9101 16.9601 2.21283 16.8499L3.55937 16.3598C4.36596 17.9213 5.59482 19.2372 7.11838 20.1498C9.04944 21.3064 11.3285 21.7397 13.5493 21.3726C15.7701 21.0054 17.7884 19.8617 19.2444 18.1451C20.2843 16.9193 20.9892 15.4582 21.3072 13.9032Z" fill="#161823"/>
<path d="M8.74982 9.12595C8.74982 8.66591 9.11359 8.29297 9.56232 8.29297H10.3748C10.8235 8.29297 11.1873 8.66591 11.1873 9.12595V14.9568C11.1873 15.4169 10.8235 15.7898 10.3748 15.7898H9.56232C9.11359 15.7898 8.74982 15.4169 8.74982 14.9568V9.12595Z" fill="#161823"/>
<path d="M12.8123 9.12595C12.8123 8.66591 13.1761 8.29297 13.6248 8.29297H14.4373C14.886 8.29297 15.2498 8.66591 15.2498 9.12595V14.9568C15.2498 15.4169 14.886 15.7898 14.4373 15.7898H13.6248C13.1761 15.7898 12.8123 15.4169 12.8123 14.9568V9.12595Z" fill="#161823"/>
</svg>
