<svg width="24" height="24" viewBox="0 0 24 24" fill="none" xmlns="http://www.w3.org/2000/svg">
<path d="M14.7953 19.6977C14.4922 19.6977 14.2189 19.8801 14.1027 20.16C13.9864 20.44 14.0501 20.7623 14.264 20.9771L16.4565 23.1774C16.7489 23.4708 17.2237 23.4717 17.5172 23.1793C17.8106 22.8869 17.8114 22.4121 17.5191 22.1186L16.6014 21.1977H22.301C22.7152 21.1977 23.051 20.8619 23.051 20.4477C23.051 20.0335 22.7152 19.6977 22.301 19.6977H14.7953Z" fill="#161823"/>
<path d="M12.7166 19.5945C12.7925 19.4113 12.8909 19.2419 13.0077 19.0891C13.0696 19.0081 13.0698 18.8942 13.0081 18.8129C12.7213 18.4353 12.5511 17.9642 12.5511 17.4534C12.5511 16.2107 13.5584 15.2034 14.8011 15.2034H17.6644C17.7728 15.2034 17.8606 15.1167 17.8727 15.0089C17.8998 14.7668 17.9661 14.5283 18.0717 14.3037C18.1173 14.2067 18.0894 14.0882 17.9978 14.0326C16.2118 12.9474 14.073 12.5 12 12.5C9.6563 12.5 7.49136 13.0852 5.86408 14.1182C4.25055 15.1424 3 16.7372 3 18.7273V19.5C3 20.8807 4.11929 22 5.5 22H12.6952C12.8707 22 12.9693 21.7819 12.8775 21.6323C12.506 21.027 12.4369 20.2698 12.7166 19.5945Z" fill="#161823"/>
<path d="M15.9998 6.5C15.9998 8.98528 14.2089 11 11.9998 11C9.79062 11 7.99976 8.98528 7.99976 6.5C7.99976 4.01472 9.79062 2 11.9998 2C14.2089 2 15.9998 4.01472 15.9998 6.5Z" fill="#161823"/>
<path d="M22.9941 17.7342C22.8781 18.0147 22.6045 18.1977 22.301 18.1977H14.801C14.3868 18.1977 14.051 17.8619 14.051 17.4477C14.051 17.0335 14.3868 16.6977 14.801 16.6977H20.487L19.5789 15.7919C19.2856 15.4994 19.285 15.0245 19.5775 14.7313C19.87 14.438 20.3449 14.4374 20.6382 14.7299L22.8306 16.9167C23.0455 17.131 23.1101 17.4537 22.9941 17.7342Z" fill="#161823"/>
</svg>
