<svg width="24" height="24" viewBox="0 0 24 24" fill="none" xmlns="http://www.w3.org/2000/svg">
<path d="M4.75 4C2.67893 4 1 5.67893 1 7.75V16.25C1 18.3211 2.67893 20 4.75 20H6.80811C6.88722 19.5643 7.0883 19.1368 7.43129 18.7628L10.1575 15.7899C11.1483 14.7095 12.8518 14.7095 13.8426 15.7899L16.5688 18.7628C16.9117 19.1368 17.1128 19.5643 17.1919 20H19.25C21.3211 20 23 18.3211 23 16.25V7.75C23 5.67893 21.3211 4 19.25 4H4.75Z" fill="#161823"/>
<path d="M15.62 20C15.5797 19.9221 15.5278 19.8469 15.4632 19.7766L12.7371 16.8037C12.5884 16.6417 12.3997 16.5404 12.201 16.4998C12.0583 16.4708 11.9105 16.473 11.7686 16.5066C11.5811 16.5509 11.404 16.65 11.263 16.8037L8.5368 19.7766C7.94866 20.4179 8.40363 21.4524 9.27382 21.4524H14.7262C15.5009 21.4524 15.9465 20.6325 15.62 20Z" fill="#161823"/>
</svg>
