<svg width="24" height="24" viewBox="0 0 24 24" fill="none" xmlns="http://www.w3.org/2000/svg">
<path d="M11.3291 20.8068C9.26219 19.2462 6.39563 19.2231 4.29782 20.787L4.01442 20.9983C3.18277 21.6182 2 21.0247 2 19.9874V8.44339C2 7.73766 2.32883 7.07223 2.88942 6.64352C5.34876 4.76276 8.73096 4.65106 11.309 6.36546L11.4866 6.48354C11.6848 6.61537 11.8632 6.76993 12.0192 6.94251C12.1554 6.79971 12.3078 6.67042 12.4748 6.5576L12.5936 6.47729C15.2146 4.70643 18.6826 4.84615 21.1526 6.82212C21.6882 7.25062 22 7.89936 22 8.58529V19.9919C22 21.0232 20.8211 21.6105 19.9978 20.9893L19.7996 20.8397C17.6773 19.2382 14.7613 19.2498 12.6568 20.8345C12.5309 21.0512 12.2939 21.1839 12.0475 21.1855C11.7578 21.2196 11.4654 21.0686 11.3291 20.8068ZM11.25 8.84095C11.25 8.39536 11.027 7.97932 10.656 7.73257L10.4784 7.6145C8.4337 6.25477 5.75118 6.34336 3.80062 7.83503C3.61114 7.97994 3.5 8.20485 3.5 8.44339V19.5121C5.80394 17.8528 8.81468 17.6899 11.25 18.983V8.84095ZM12.75 19.0034C15.1864 17.7146 18.1873 17.8678 20.5 19.4943V8.58529C20.5 8.35504 20.3953 8.13726 20.2155 7.99342C18.2583 6.42766 15.5102 6.31694 13.4334 7.72018L13.3146 7.80048C12.9615 8.039 12.75 8.43724 12.75 8.86328V19.0034Z" fill="#161823"/>
</svg>
