<svg width="24" height="24" viewBox="0 0 24 24" fill="none" xmlns="http://www.w3.org/2000/svg">
<path d="M5.25 2C5.25 1.58579 5.58579 1.25 6 1.25H18C18.4142 1.25 18.75 1.58579 18.75 2C18.75 2.41421 18.4142 2.75 18 2.75H6C5.58579 2.75 5.25 2.41421 5.25 2Z" fill="#161823"/>
<path d="M12.5101 4.22145C12.3764 4.08327 12.1924 4.00525 12.0001 4.00525C11.8078 4.00525 11.6238 4.08327 11.4901 4.22145L8.21477 7.60689L3.53033 2.92244C3.23744 2.62955 2.76256 2.62955 2.46967 2.92244C2.17678 3.21534 2.17678 3.69021 2.46967 3.9831L3.45415 4.96759C3.45579 4.96919 3.45742 4.97081 3.45904 4.97243L20.4747 21.9881C20.7679 22.276 21.2391 22.2743 21.5303 21.9831C21.8232 21.6902 21.8232 21.2153 21.5303 20.9224L15.2384 14.6305L15.2384 13.5923H18.7863C19.8306 13.5923 20.3624 12.3378 19.6363 11.5873L12.5101 4.22145Z" fill="#161823"/>
<path d="M15.2384 18.956C15.2384 18.903 15.2174 18.8521 15.1799 18.8146L6.27232 9.90703C6.1933 9.82801 6.06486 9.82907 5.98716 9.90939L4.36386 11.5873C3.63776 12.3378 4.16959 13.5923 5.21385 13.5923H8.76179L8.76187 22.2927C8.76188 22.6846 9.07958 23.0023 9.47148 23.0023H14.5289C14.7171 23.0023 14.8976 22.9275 15.0306 22.7945C15.1637 22.6614 15.2385 22.4809 15.2385 22.2927L15.2384 18.956Z" fill="#161823"/>
</svg>
