<svg width="24" height="24" viewBox="0 0 24 24" fill="none" xmlns="http://www.w3.org/2000/svg">
<path d="M4.75 5.5H19.25C20.4926 5.5 21.5 6.50736 21.5 7.75V11.9987C22.0409 12.2244 22.5448 12.5211 23 12.8772V7.75C23 5.67893 21.3211 4 19.25 4H4.75C2.67893 4 1 5.67893 1 7.75V16.25C1 18.3211 2.67893 20 4.75 20H12.8139C12.6593 19.5219 12.5586 19.0195 12.519 18.5H4.75C3.50736 18.5 2.5 17.4926 2.5 16.25V7.75C2.5 6.50736 3.50736 5.5 4.75 5.5Z" fill="#161823"/>
<path d="M15.5521 8.00195C17.7355 8.00195 18.9581 9.20805 19.1102 11.5009C19.0732 11.5003 19.0361 11.5 18.999 11.5C18.4835 11.5 17.9821 11.56 17.5012 11.6734C17.4209 10.0545 16.7274 9.29102 15.3529 9.29102H14.2162V13.5988C13.647 14.2171 13.1962 14.9461 12.8997 15.7499C12.7227 15.5814 12.6341 15.3274 12.6341 14.9863V9.01562C12.6341 8.33594 12.9857 8.00195 13.6888 8.00195H15.5521Z" fill="#161823"/>
<path d="M5.75781 16.0703C6.17969 16.0703 6.41406 15.8535 6.57812 15.3027L7.02344 13.9434H9.83008L10.2812 15.3027C10.4395 15.8477 10.6855 16.0703 11.1133 16.0703C11.5645 16.0703 11.8633 15.8008 11.8633 15.3789C11.8633 15.2148 11.8223 15.0215 11.7402 14.7695L9.72461 8.99219C9.47266 8.24219 9.12109 7.9375 8.45898 7.9375C7.79102 7.9375 7.43359 8.24805 7.18164 8.99219L5.16602 14.7695C5.06641 15.0684 5.02539 15.25 5.02539 15.4082C5.02539 15.8066 5.32422 16.0703 5.75781 16.0703ZM7.375 12.7656L8.39453 9.53125H8.4707L9.48438 12.7656H7.375Z" fill="#161823"/>
<path d="M17.749 17.249C17.3348 17.249 16.999 17.5847 16.999 17.999C16.999 18.4132 17.3348 18.749 17.749 18.749H20.249C20.6632 18.749 20.999 18.4132 20.999 17.999C20.999 17.5847 20.6632 17.249 20.249 17.249H17.749Z" fill="#161823"/>
<path d="M18.999 22.9979C21.7598 22.9979 23.9979 20.7598 23.9979 17.999C23.9979 15.2381 21.7598 13 18.999 13C16.2381 13 14 15.2381 14 17.999C14 20.7598 16.2381 22.9979 18.999 22.9979ZM18.999 21.4979C17.0665 21.4979 15.5 19.9314 15.5 17.999C15.5 16.0665 17.0665 14.5 18.999 14.5C20.9314 14.5 22.4979 16.0665 22.4979 17.999C22.4979 19.9314 20.9314 21.4979 18.999 21.4979Z" fill="#161823"/>
</svg>
