<svg width="12" height="12" viewBox="0 0 12 12" fill="none" xmlns="http://www.w3.org/2000/svg">
<path d="M0.646484 1.35029C0.646484 1.04654 0.892728 0.800293 1.19648 0.800293H1.46214C2.19115 0.800293 2.80796 1.3391 2.90591 2.06151L2.93993 2.31245H9.53119C10.2469 2.31245 10.7887 2.95913 10.6634 3.66374L10.0713 6.99425C9.93983 7.73404 9.29666 8.27295 8.54528 8.27295H3.99209C3.21653 8.27295 2.56035 7.69974 2.45614 6.93122L1.81588 2.2093C1.79188 2.03231 1.64076 1.90029 1.46214 1.90029H1.19648C0.892728 1.90029 0.646484 1.65405 0.646484 1.35029Z" fill="#161823"/>
<path d="M3.60941 10.4999C4.02253 10.4999 4.35743 10.165 4.35743 9.75193C4.35743 9.33881 4.02253 9.00391 3.60941 9.00391C3.19629 9.00391 2.86139 9.33881 2.86139 9.75193C2.86139 10.165 3.19629 10.4999 3.60941 10.4999Z" fill="#161823"/>
<path d="M8.88568 10.5C9.29882 10.5 9.63373 10.1651 9.63373 9.75195C9.63373 9.33882 9.29882 9.00391 8.88568 9.00391C8.47255 9.00391 8.13763 9.33882 8.13763 9.75195C8.13763 10.1651 8.47255 10.5 8.88568 10.5Z" fill="#161823"/>
</svg>
