<svg width="24" height="24" viewBox="0 0 24 24" fill="none" xmlns="http://www.w3.org/2000/svg">
<path fill-rule="evenodd" clip-rule="evenodd" d="M14.3247 2.65944C14.9989 2.80928 15.5893 3.21377 15.9724 3.78846L16.5087 4.59301C16.7427 4.94387 17.1113 5.18226 17.5273 5.25158L18.2002 5.36373C20.0964 5.67976 21.5776 7.1737 21.8774 9.07253L21.9843 9.74966C22.3256 11.9113 22.2807 14.1165 21.8515 16.2624C21.4439 18.3 19.9323 19.9392 17.9343 20.51L17.6017 20.605C13.9407 21.651 10.06 21.651 6.399 20.605L6.06637 20.51C4.06842 19.9392 2.55677 18.3 2.14926 16.2624C1.72006 14.1165 1.67508 11.9113 2.0164 9.74966L2.12332 9.07253C2.42313 7.1737 3.90436 5.67976 5.80055 5.36373L6.47343 5.25158C6.88937 5.18226 7.25807 4.94387 7.49197 4.59301L8.02833 3.78846C8.41146 3.21377 9.00178 2.80928 9.67603 2.65944C11.2069 2.31925 12.7938 2.31925 14.3247 2.65944ZM13.0044 7.49907C13.4366 7.02539 14.2395 7.46573 14.0242 8.1002L14.0226 8.10474L12.9195 11.245L14.0333 11.3807L14.96 11.4783C15.4534 11.5302 15.6703 12.1139 15.3502 12.4786L10.9219 17.5945C10.4906 18.0803 9.67433 17.6337 9.89804 16.9948L10.9768 13.8445L8.67147 13.6018C8.17437 13.5494 7.95891 12.9583 8.28707 12.5949L8.29083 12.5907L13.0044 7.49907Z" fill="#161823"/>
</svg>
