<svg width="21" height="21" viewBox="0 0 21 21" fill="none" xmlns="http://www.w3.org/2000/svg">
<path d="M13.3283 17.1798C13.3283 17.1043 13.2508 17.0536 13.181 17.0823C12.3434 17.4265 11.4261 17.6163 10.4644 17.6163C6.51496 17.6163 3.31327 14.4146 3.31327 10.4651C3.31327 6.51563 6.51496 3.31395 10.4644 3.31395C14.4139 3.31395 17.6156 6.51563 17.6156 10.4651C17.6156 11.0421 17.5473 11.6032 17.4182 12.1406C17.4018 12.2091 17.4549 12.2749 17.5252 12.2718C17.9633 12.2521 18.4191 12.2249 18.8623 12.1873C18.9547 12.1794 19.0308 12.1111 19.0472 12.0198C19.138 11.5153 19.1854 10.9958 19.1854 10.4651C19.1854 5.64867 15.2809 1.74418 10.4644 1.74418C5.648 1.74418 1.74351 5.64867 1.74351 10.4651C1.74351 15.2816 5.648 19.1861 10.4644 19.1861C11.4153 19.1861 12.3305 19.0339 13.1873 18.7526C13.2719 18.7248 13.3283 18.6452 13.3283 18.5561V17.1798Z" fill="#161823"/>
<path d="M20.9917 13.8679C21.0476 14.2394 20.7917 14.5858 20.4202 14.6417C19.7863 14.737 19.0728 14.8018 18.3742 14.8459V15.6954H20.1237C20.4994 15.6954 20.804 16 20.804 16.3756V18.9921C20.804 19.6086 20.3042 20.1084 19.6877 20.1084H19.3341C18.9584 20.1084 18.6539 19.8038 18.6539 19.4282C18.6539 19.0525 18.9584 18.7479 19.3341 18.7479H19.4435V17.0559H18.3742V20.3198C18.3742 20.6955 18.0697 21 17.694 21C17.3183 21 17.0137 20.6955 17.0137 20.3198V17.0559H15.9445V19.4282C15.9445 19.8038 15.64 20.1084 15.2643 20.1084C14.8886 20.1084 14.584 19.8038 14.584 19.4282V16.3756C14.584 16 14.8886 15.6954 15.2643 15.6954H17.0137V14.9096C16.0908 14.9395 15.3331 14.9394 15.0297 14.9394H15.0213C14.6456 14.9394 14.341 14.6349 14.341 14.2592C14.341 13.8835 14.6456 13.579 15.0213 13.579C15.6788 13.579 18.3471 13.5776 20.2179 13.2963C20.5894 13.2405 20.9359 13.4964 20.9917 13.8679Z" fill="#161823"/>
<path d="M11.5069 5.34255C11.9292 5.34255 12.2736 5.67606 12.2911 6.09407C12.2916 6.106 12.2919 6.118 12.2919 6.13006C12.2919 7.33241 13.2666 8.30711 14.4689 8.30711C14.9024 8.30711 15.2538 8.65852 15.2538 9.092C15.2538 9.52548 14.9024 9.87688 14.4689 9.87688C13.657 9.87688 12.8708 9.62791 12.2918 8.89297V12.3765C12.2918 13.9858 10.9872 15.2903 9.37801 15.2903C7.76877 15.2903 6.46423 13.9858 6.46423 12.3765C6.46423 10.7673 7.76877 9.46275 9.37801 9.46275C9.81149 9.46275 10.1629 9.81415 10.1629 10.2476C10.1629 10.6811 9.81149 11.0325 9.37801 11.0325C8.63573 11.0325 8.034 11.6342 8.034 12.3765C8.034 13.1188 8.63573 13.7205 9.37801 13.7205C10.1203 13.7205 10.722 13.1188 10.722 12.3765V6.12743C10.722 5.69395 11.0734 5.34255 11.5069 5.34255Z" fill="#161823"/>
</svg>
