<svg width="12" height="12" viewBox="0 0 12 12" fill="none" xmlns="http://www.w3.org/2000/svg">
<g clip-path="url(#clip0_7_1535)">
<path d="M3.9913 1.14948C5.05902 0.70731 6.24281 0.629798 7.35907 0.928962C8.47534 1.22813 9.4617 1.88725 10.1652 2.80411C10.8687 3.72098 11.25 4.84434 11.25 6C11.25 6.41422 10.9142 6.75 10.5 6.75C10.0858 6.75 9.75001 6.41422 9.75001 6C9.75001 5.17453 9.47764 4.37213 8.97514 3.71722C8.47265 3.06232 7.7681 2.59152 6.97077 2.37783C6.17344 2.16414 5.32788 2.21951 4.56522 2.53534C3.80256 2.85118 3.16542 3.40983 2.75261 4.12466C2.3398 4.8395 2.17439 5.67057 2.28203 6.48899C2.38966 7.30741 2.76434 8.06745 3.34794 8.65124C3.93154 9.23502 4.69146 9.60993 5.50985 9.71783C6.32824 9.82573 7.15936 9.66058 7.87433 9.24799C8.23309 9.04096 8.69176 9.16396 8.89879 9.52272C9.10582 9.88149 8.98282 10.3402 8.62405 10.5472C7.62311 11.1248 6.45953 11.356 5.31379 11.205C4.16805 11.0539 3.10416 10.529 2.28711 9.71173C1.47007 8.89443 0.945526 7.83037 0.794832 6.68458C0.644139 5.53879 0.875715 4.37529 1.45365 3.37453C2.03158 2.37376 2.92358 1.59164 3.9913 1.14948Z" fill="#161823"/>
</g>
<defs>
<clipPath id="clip0_7_1535">
<rect width="12" height="12" fill="white"/>
</clipPath>
</defs>
</svg>
