<svg width="24" height="24" viewBox="0 0 24 24" fill="none" xmlns="http://www.w3.org/2000/svg">
<path fill-rule="evenodd" clip-rule="evenodd" d="M8.9 4.69995C8.9 5.39031 9.45964 5.94995 10.15 5.94995H13.8C14.4904 5.94995 15.05 5.39031 15.05 4.69995V2.69995C15.05 2.0096 14.4904 1.44995 13.8 1.44995L10.15 1.44995C9.45964 1.44995 8.9 2.0096 8.9 2.69995V4.69995ZM13.55 4.44995L10.4 4.44995V2.94995L13.55 2.94995V4.44995Z" fill="#161823"/>
<path d="M7.38333 2.94995V4.06662C7.38333 4.17707 7.29379 4.26662 7.18333 4.26662H6.75C5.50736 4.26662 4.5 5.27398 4.5 6.51662V18.75C4.5 19.9926 5.50736 21 6.75 21H17.25C18.4926 21 19.5 19.9926 19.5 18.75V6.51662C19.5 5.27398 18.4926 4.26662 17.25 4.26662H16.7667C16.6562 4.26662 16.5667 4.17707 16.5667 4.06662V2.94995C16.5667 2.85046 16.6451 2.76662 16.7446 2.76662H17.25C19.3211 2.76662 21 4.44555 21 6.51662V18.75C21 20.821 19.3211 22.5 17.25 22.5H6.75C4.67893 22.5 3 20.821 3 18.75V6.51662C3 4.44555 4.67893 2.76662 6.75 2.76662H7.20537C7.30486 2.76662 7.38333 2.85047 7.38333 2.94995Z" fill="#161823"/>
<path d="M14.3396 10.2369C14.3396 11.7557 13.2921 12.9869 12 12.9869C10.7079 12.9869 9.66046 11.7557 9.66046 10.2369C9.66046 8.71811 10.7079 7.4869 12 7.4869C13.2921 7.4869 14.3396 8.71811 14.3396 10.2369Z" fill="#161823"/>
<path d="M6.50002 18.013C6.50002 15.8039 8.90626 14.013 12 14.013C15.0938 14.013 17.5 15.8039 17.5 18.013C17.5 18.8414 16.8284 19.513 16 19.513H8.00001C7.17159 19.513 6.50002 18.8414 6.50002 18.013Z" fill="#161823"/>
</svg>
