<svg width="24" height="24" viewBox="0 0 24 24" fill="none" xmlns="http://www.w3.org/2000/svg">
<path fill-rule="evenodd" clip-rule="evenodd" d="M19.5601 4.51997H14.0801C13.7487 4.51997 13.4801 4.7886 13.4801 5.11997V7.99997C13.4801 8.33134 13.7487 8.59997 14.0801 8.59997H19.5601C19.8914 8.59997 20.1601 8.33134 20.1601 7.99997V5.11997C20.1601 4.7886 19.8915 4.51997 19.5601 4.51997ZM14.0801 2.71997C12.7546 2.71997 11.6801 3.79449 11.6801 5.11997V7.99997C11.6801 9.32545 12.7546 10.4 14.0801 10.4H19.5601C20.8856 10.4 21.9601 9.32545 21.9601 7.99997V5.11997C21.9601 3.79449 20.8856 2.71997 19.5601 2.71997H14.0801ZM10.0311 3.99997H5.68008C3.69185 3.99997 2.08008 5.61174 2.08008 7.59997V16.16C2.08008 18.1482 3.69186 19.76 5.68008 19.76H17.9601C19.9483 19.76 21.5601 18.1482 21.5601 16.16V11.6941C21.0205 11.9869 20.4096 12.1648 19.7601 12.1953V16.16C19.7601 17.1541 18.9542 17.96 17.9601 17.96H5.68008C4.68597 17.96 3.88008 17.1541 3.88008 16.16V7.59997C3.88008 6.60586 4.68597 5.79997 5.68008 5.79997H9.88008V5.11997C9.88008 4.73211 9.93265 4.35653 10.0311 3.99997ZM5.59998 12.2596C5.59998 11.7626 6.00293 11.3596 6.49998 11.3596H11.74C12.237 11.3596 12.64 11.7626 12.64 12.2596C12.64 12.7567 12.237 13.1596 11.74 13.1596H6.49998C6.00293 13.1596 5.59998 12.7567 5.59998 12.2596ZM5.59979 15.34C5.59979 14.843 6.00273 14.44 6.49979 14.44H9.65979C10.1568 14.44 10.5598 14.843 10.5598 15.34C10.5598 15.8371 10.1568 16.24 9.65979 16.24H6.49978C6.00273 16.24 5.59979 15.8371 5.59979 15.34Z" fill="#161823"/>
</svg>
