<svg width="16" height="16" viewBox="0 0 16 16" fill="none" xmlns="http://www.w3.org/2000/svg">
<path d="M7.99572 0.881897C4.94442 0.881897 2.41504 3.2296 2.41504 6.19261C2.41504 8.02735 3.33213 9.92012 4.33991 11.4621C5.35883 13.0211 6.52884 14.3084 7.14765 14.9491C7.61436 15.4322 8.37708 15.4322 8.84378 14.9491C9.4626 14.3084 10.6326 13.0211 11.6515 11.4621C12.6593 9.92012 13.5764 8.02735 13.5764 6.19261C13.5764 3.2296 11.047 0.881897 7.99572 0.881897ZM5.6004 6.464C5.6004 5.13851 6.67492 4.064 8.0004 4.064C9.32589 4.064 10.4004 5.13851 10.4004 6.464C10.4004 7.78948 9.32589 8.864 8.0004 8.864C6.67492 8.864 5.6004 7.78948 5.6004 6.464Z" fill="#161823"/>
</svg>
