<svg width="20" height="20" viewBox="0 0 20 20" fill="none" xmlns="http://www.w3.org/2000/svg">
<path d="M10.0003 18.3333C14.6027 18.3333 18.3337 14.6024 18.3337 9.99999C18.3337 5.39762 14.6027 1.66666 10.0003 1.66666C5.39795 1.66666 1.66699 5.39762 1.66699 9.99999C1.66699 14.6024 5.39795 18.3333 10.0003 18.3333ZM5.37167 8.38274C5.33744 8.3002 5.31855 8.2097 5.31855 8.11479C5.31855 8.01987 5.33744 7.92937 5.37167 7.84684C5.40583 7.76428 5.45647 7.68693 5.52358 7.61981L7.80501 5.33839C8.07837 5.06502 8.52159 5.06502 8.79496 5.33839C9.06832 5.61175 9.06832 6.05497 8.79496 6.32834L7.7085 7.41479H11.2719C13.1553 7.41479 14.6821 8.9416 14.6821 10.825C14.6821 12.7084 13.1553 14.2353 11.2719 14.2353H9.89583C9.50923 14.2353 9.19583 13.9219 9.19583 13.5353C9.19583 13.1487 9.50923 12.8353 9.89583 12.8353H11.2719C12.3821 12.8353 13.2821 11.9352 13.2821 10.825C13.2821 9.7148 12.3821 8.81479 11.2719 8.81479H7.7085L8.79496 9.90124C9.06832 10.1746 9.06832 10.6178 8.79496 10.8912C8.52159 11.1646 8.07837 11.1646 7.80501 10.8912L5.52358 8.60976C5.45647 8.54265 5.40583 8.4653 5.37167 8.38274Z" fill="#161823"/>
</svg>
