<svg width="24" height="24" viewBox="0 0 24 24" fill="none" xmlns="http://www.w3.org/2000/svg">
<path d="M15.9998 6.50006C15.9998 8.98534 14.2089 11.0001 11.9998 11.0001C9.79062 11.0001 7.99976 8.98534 7.99976 6.50006C7.99976 4.01478 9.79062 2.00006 11.9998 2.00006C14.2089 2.00006 15.9998 4.01478 15.9998 6.50006ZM14.4998 6.50006C14.4998 4.67224 13.2193 3.50006 11.9998 3.50006C10.7803 3.50006 9.49976 4.67224 9.49976 6.50006C9.49976 8.32789 10.7803 9.50006 11.9998 9.50006C13.2193 9.50006 14.4998 8.32789 14.4998 6.50006Z" fill="#161823"/>
<path d="M12 12.5001C9.6563 12.5001 7.49136 13.0853 5.86408 14.1182C4.25055 15.1425 3 16.7372 3 18.7273V19.5001C3 20.8808 4.11929 22.0001 5.5 22.0001H13.3198C13.4982 22.0001 13.5891 21.7824 13.4679 21.6514C13.1559 21.3143 12.8657 20.9594 12.6058 20.5872C12.5679 20.5329 12.5061 20.5001 12.4399 20.5001H5.5C4.94772 20.5001 4.5 20.0523 4.5 19.5001V18.7273C4.5 16.1165 7.78125 14.0001 12 14.0001C12.057 14.0001 12.1098 13.9704 12.1402 13.9222C12.3792 13.5429 12.6659 13.1993 12.9938 12.9015C13.1298 12.778 13.0614 12.5393 12.8781 12.5277C12.5892 12.5094 12.2963 12.5001 12 12.5001Z" fill="#161823"/>
<path d="M16.1782 13.3481C14.3804 13.3481 12.9882 14.8241 12.9882 16.8048C12.9882 19.0013 14.7704 20.9818 17.0932 22.5176C17.196 22.5877 17.3196 22.665 17.4496 22.7276C17.5634 22.7823 17.765 22.8678 17.9979 22.8678C18.2292 22.8678 18.431 22.7834 18.5452 22.7291C18.6765 22.6667 18.8017 22.5894 18.907 22.5176C21.2298 20.9819 23.0121 19.0013 23.0121 16.8048C23.0121 14.8241 21.6198 13.3481 19.8221 13.3481C19.076 13.3481 18.4656 13.6238 18.0005 14.052C17.5352 13.6226 16.9223 13.3481 16.1782 13.3481ZM14.4394 16.8048C14.4394 15.5296 15.2747 14.7994 16.1782 14.7994C16.7007 14.7994 17.0956 15.0738 17.3545 15.5702L17.9902 16.789L18.6379 15.5766C18.9077 15.0717 19.3019 14.7994 19.8221 14.7994C20.7255 14.7994 21.5608 15.5296 21.5608 16.8048C21.5608 18.2184 20.355 19.8215 18.1022 21.3099L18.0923 21.3166C18.0588 21.3394 18.0278 21.3594 17.9998 21.3761C17.9724 21.3594 17.9416 21.3396 17.908 21.3166L17.898 21.3099C15.6453 19.8215 14.4394 18.2184 14.4394 16.8048Z" fill="#161823"/>
</svg>
