<svg width="24" height="24" viewBox="0 0 24 24" fill="none" xmlns="http://www.w3.org/2000/svg">
<path d="M14.0235 6.55025C14.2071 5.47711 12.7865 4.92487 12.1971 5.84021L7.7918 12.6816C7.40983 13.2748 7.78492 14.0626 8.48618 14.1401L10.5595 14.3693L10.0314 17.456C9.84727 18.5319 11.2742 19.0825 11.8605 18.1618L16.2074 11.3361C16.5849 10.7433 16.2104 9.96006 15.512 9.88169L13.4923 9.65502L14.0235 6.55025Z" fill="#161823"/>
<path d="M22 12C22 17.5228 17.5228 22 12 22C6.47715 22 2 17.5228 2 12C2 6.47715 6.47715 2 12 2C17.5228 2 22 6.47715 22 12ZM20.5 12C20.5 7.30558 16.6944 3.5 12 3.5C7.30558 3.5 3.5 7.30558 3.5 12C3.5 16.6944 7.30558 20.5 12 20.5C16.6944 20.5 20.5 16.6944 20.5 12Z" fill="#161823"/>
</svg>
