<svg width="20" height="20" viewBox="0 0 20 20" fill="none" xmlns="http://www.w3.org/2000/svg">
<path d="M5.83333 3.0555C5.83333 2.59526 6.20643 2.22217 6.66667 2.22217C7.1269 2.22217 7.5 2.59526 7.5 3.0555V4.72217C7.5 5.18241 7.1269 5.5555 6.66667 5.5555C6.20643 5.5555 5.83333 5.18241 5.83333 4.72217V3.0555Z" fill="#161823"/>
<path d="M11.6897 3.33328C11.6746 3.42361 11.6667 3.51641 11.6667 3.61106V4.72217C11.6667 5.64264 12.4129 6.38884 13.3333 6.38884C14.2538 6.38884 15 5.64264 15 4.72217V3.61106C15 3.5205 14.9928 3.43162 14.9789 3.34498C16.3927 3.4745 17.5 4.66347 17.5 6.11106V7.59717L2.5 7.59717V6.11106C2.5 4.66347 3.60731 3.4745 5.02112 3.34498C5.00722 3.43162 5 3.5205 5 3.61106V4.72217C5 5.64264 5.74619 6.38884 6.66667 6.38884C7.58714 6.38884 8.33333 5.64264 8.33333 4.72217V3.61106C8.33333 3.51641 8.32544 3.42361 8.31029 3.33328H11.6897Z" fill="#161823"/>
<path d="M2.5 8.90266L17.5 8.90266V14.7222C17.5 16.2563 16.2563 17.4999 14.7222 17.4999H5.27778C3.74365 17.4999 2.5 16.2563 2.5 14.7222V8.90266Z" fill="#161823"/>
<path d="M13.3333 2.22217C12.8731 2.22217 12.5 2.59526 12.5 3.0555V4.72217C12.5 5.18241 12.8731 5.5555 13.3333 5.5555C13.7936 5.5555 14.1667 5.18241 14.1667 4.72217V3.0555C14.1667 2.59526 13.7936 2.22217 13.3333 2.22217Z" fill="#161823"/>
</svg>
