<svg width="20" height="20" viewBox="0 0 20 20" fill="none" xmlns="http://www.w3.org/2000/svg">
<path d="M6.22255 3.2989C6.35706 2.54339 7.01398 1.9931 7.78136 1.9931H12.2186C12.9859 1.9931 13.6429 2.54339 13.7774 3.2989L13.9974 4.53473L16.875 4.53473C17.2892 4.53473 17.625 4.87052 17.625 5.28473C17.625 5.69894 17.2892 6.03473 16.875 6.03473H15.9146L15.3079 16.0306C15.2305 17.3061 14.1735 18.3008 12.8957 18.3008H7.10428C5.82645 18.3008 4.76946 17.3061 4.69205 16.0306L4.08537 6.03473H3.125C2.71079 6.03473 2.375 5.69894 2.375 5.28473C2.375 4.87052 2.71079 4.53473 3.125 4.53473L6.00251 4.53473L6.22255 3.2989ZM12.4738 4.53473L12.3006 3.56183C12.2935 3.52207 12.259 3.4931 12.2186 3.4931H7.78136C7.74098 3.4931 7.7064 3.52207 7.69932 3.56183L7.5261 4.53473L12.4738 4.53473ZM8.33325 7.66666C7.91904 7.66666 7.58325 8.00244 7.58325 8.41666V14.25C7.58325 14.6642 7.91904 15 8.33325 15C8.74747 15 9.08325 14.6642 9.08325 14.25V8.41666C9.08325 8.00244 8.74747 7.66666 8.33325 7.66666ZM12.4167 8.41666C12.4167 8.00244 12.081 7.66666 11.6667 7.66666C11.2525 7.66666 10.9167 8.00244 10.9167 8.41666V14.25C10.9167 14.6642 11.2525 15 11.6667 15C12.081 15 12.4167 14.6642 12.4167 14.25V8.41666Z" fill="#161823"/>
</svg>
