<svg width="24" height="24" viewBox="0 0 24 24" fill="none" xmlns="http://www.w3.org/2000/svg">
<path d="M3.54533 12.2228C2.63033 11.7762 2 10.8367 2 9.75C2 8.23122 3.23122 7 4.75 7H9.57668L9.37624 3.79289C9.28165 2.27943 10.4836 1 12 1C13.5164 1 14.7184 2.27943 14.6238 3.79289L14.4234 7H19.25C20.7688 7 22 8.23122 22 9.75C22 10.8217 21.387 11.7502 20.4925 12.204L21.0869 21.1305C21.1541 22.1405 20.353 22.9968 19.3407 22.9968H4.69832C3.68606 22.9968 2.88493 22.1405 2.95219 21.1305L3.54533 12.2228ZM10.8733 3.69932L11.1103 7.49074C11.1445 8.03765 10.7101 8.5 10.1621 8.5H4.75C4.05964 8.5 3.5 9.05964 3.5 9.75C3.5 10.41 4.01155 10.9506 4.6598 10.9968H19.3402C19.9885 10.9506 20.5 10.41 20.5 9.75C20.5 9.05964 19.9404 8.5 19.25 8.5H13.8379C13.2899 8.5 12.8556 8.03765 12.8898 7.49074L13.1267 3.69932C13.1673 3.04941 12.6512 2.5 12 2.5C11.3488 2.5 10.8327 3.04941 10.8733 3.69932ZM5.03019 12.5L4.44887 21.2302C4.43927 21.3745 4.55371 21.4968 4.69832 21.4968H7.50048V16.7496C7.50048 16.3354 7.83626 15.9996 8.25048 15.9996C8.66469 15.9996 9.00048 16.3354 9.00048 16.7496V21.4968H11.2499V16.7607C11.2499 16.3465 11.5857 16.0107 11.9999 16.0107C12.4142 16.0107 12.7499 16.3465 12.7499 16.7607V21.4968H14.9994V16.7607C14.9994 16.3465 15.3352 16.0107 15.7494 16.0107C16.1636 16.0107 16.4994 16.3465 16.4994 16.7607V21.4968H19.3407C19.4853 21.4968 19.5998 21.3745 19.5902 21.2302L19.0088 12.5H5.03019Z" fill="#161823"/>
</svg>
