<svg width="24" height="24" viewBox="0 0 24 24" fill="none" xmlns="http://www.w3.org/2000/svg">
<path fill-rule="evenodd" clip-rule="evenodd" d="M14.3237 2.65944C14.998 2.80928 15.5883 3.21377 15.9714 3.78846L16.5078 4.59301C16.7417 4.94387 17.1104 5.18226 17.5263 5.25158L18.1992 5.36373C20.0954 5.67976 21.5766 7.1737 21.8764 9.07253L21.9833 9.74966C22.3247 11.9113 22.2797 14.1165 21.8505 16.2624C21.443 18.3 19.9313 19.9392 17.9334 20.51L17.6007 20.605C13.9398 21.651 10.059 21.651 6.39802 20.605L6.06539 20.51C4.06744 19.9392 2.55579 18.3 2.14828 16.2624C1.71909 14.1165 1.6741 11.9113 2.01542 9.74966L2.12234 9.07252C2.42215 7.1737 3.90338 5.67976 5.79958 5.36373L6.47246 5.25158C6.8884 5.18226 7.25709 4.94387 7.49099 4.59301L8.02736 3.78846C8.41049 3.21377 9.0008 2.80928 9.67505 2.65944C11.2059 2.31925 12.7928 2.31925 14.3237 2.65944ZM10.0758 13.8564C9.85756 13.7209 9.57813 13.6451 8.64256 13.4269L8.27941 13.3422C7.91378 13.2569 7.65511 12.931 7.65511 12.5556C7.65511 12.1801 7.91378 11.8542 8.27941 11.7689L8.64256 11.6842C9.57813 11.466 9.85756 11.3903 10.0758 11.2547C10.2929 11.1198 10.4779 10.9391 10.6178 10.7252C10.7584 10.5102 10.8406 10.2326 11.0806 9.30237L11.2017 8.8328C11.2937 8.47606 11.6155 8.22679 11.9839 8.22679C12.3523 8.22679 12.674 8.47606 12.766 8.8328L12.8872 9.30237C13.1271 10.2326 13.2094 10.5102 13.35 10.7252C13.4899 10.9391 13.6749 11.1198 13.892 11.2547C14.1102 11.3903 14.3896 11.466 15.3252 11.6842L15.6884 11.7689C16.054 11.8542 16.3127 12.1801 16.3127 12.5556C16.3127 12.931 16.054 13.2569 15.6884 13.3422L15.3252 13.4269C14.3896 13.6451 14.1102 13.7209 13.892 13.8564C13.6749 13.9913 13.4899 14.172 13.35 14.3859C13.2094 14.6009 13.1271 14.8785 12.8872 15.8088L12.766 16.2783C12.674 16.6351 12.3523 16.8843 11.9839 16.8843C11.6155 16.8843 11.2937 16.6351 11.2017 16.2783L11.0806 15.8088C10.8406 14.8785 10.7584 14.6009 10.6178 14.3859C10.4779 14.172 10.2929 13.9913 10.0758 13.8564Z" fill="#161823"/>
</svg>
