<svg width="24" height="24" viewBox="0 0 24 24" fill="none" xmlns="http://www.w3.org/2000/svg">
<path fill-rule="evenodd" clip-rule="evenodd" d="M3.47504 3.47504C3.76793 3.18215 4.24281 3.18215 4.5357 3.47504L8.21032 7.14966L12.4251 4.18861C13.0878 3.7231 14 4.19707 14 5.00687V12.9393L15.6445 14.5838L15.9656 14.2628C16.2627 13.9656 16.4984 13.6128 16.6593 13.2246C16.8201 12.8364 16.9028 12.4202 16.9028 12C16.9028 11.5798 16.8201 11.1637 16.6593 10.7754C16.4984 10.3872 16.2627 10.0344 15.9656 9.73727C15.6532 9.42485 15.6532 8.91832 15.9656 8.6059C16.278 8.29348 16.7845 8.29348 17.097 8.6059C17.5427 9.05162 17.8962 9.58077 18.1375 10.1631C18.3787 10.7455 18.5028 11.3697 18.5028 12C18.5028 12.6304 18.3787 13.2545 18.1375 13.8369C17.8962 14.4193 17.5427 14.9484 17.097 15.3941L16.7759 15.7152L18.1194 17.0587L18.4404 16.7376C19.0626 16.1155 19.5561 15.3769 19.8928 14.564C20.2295 13.7511 20.4028 12.8799 20.4028 12C20.4028 11.1202 20.2295 10.2489 19.8928 9.43605C19.5561 8.62317 19.0626 7.88457 18.4404 7.26241C18.128 6.94999 18.128 6.44346 18.4404 6.13104C18.7529 5.81862 19.2594 5.81862 19.5718 6.13104C20.3425 6.90177 20.9539 7.81676 21.371 8.82376C21.7881 9.83076 22.0028 10.9101 22.0028 12C22.0028 13.09 21.7881 14.1693 21.371 15.1763C20.9539 16.1833 20.3425 17.0983 19.5718 17.869L19.2507 18.1901L20.5357 19.475C20.8286 19.7679 20.8286 20.2428 20.5357 20.5357C20.2518 20.8196 19.7968 20.8283 19.5025 20.5618L3.44896 4.50829C3.18242 4.2139 3.19112 3.75897 3.47504 3.47504ZM9.28705 8.22639L12.5 11.4393V5.96919L9.28705 8.22639Z" fill="#161823"/>
<path d="M4.87787 8.05852C4.84036 8.02102 4.78949 7.99994 4.73645 7.99994H3C2.44772 7.99994 2 8.44766 2 8.99994V14.9999C2 15.5522 2.44772 15.9999 3 15.9999H6.36668C6.77881 15.9999 7.18088 16.1273 7.51789 16.3645L12.4244 19.8182C13.0869 20.2845 14 19.8107 14 19.0005V17.2635C14 17.2105 13.9789 17.1596 13.9414 17.1221L12.8414 16.0221C12.7154 15.8961 12.5 15.9853 12.5 16.1635V18.0371L8.38129 15.1379C7.79152 14.7227 7.08791 14.4999 6.36668 14.4999H3.5V9.49994H5.83645C6.01463 9.49994 6.10386 9.28452 5.97787 9.15852L4.87787 8.05852Z" fill="#161823"/>
</svg>
