<svg width="24" height="24" viewBox="0 0 24 24" fill="none" xmlns="http://www.w3.org/2000/svg">
<path d="M8.54006 11C10.5283 11 12.1401 9.20914 12.1401 7C12.1401 4.79086 10.5283 3 8.54006 3C6.55183 3 4.94006 4.79086 4.94006 7C4.94006 9.20914 6.55183 11 8.54006 11ZM8.54006 9.5C7.52501 9.5 6.44006 8.53328 6.44006 7C6.44006 5.46672 7.52501 4.5 8.54006 4.5C9.55511 4.5 10.6401 5.46672 10.6401 7C10.6401 8.53328 9.55511 9.5 8.54006 9.5Z" fill="#161823"/>
<path d="M3.12876 13.8966C4.57427 13.0007 6.48415 12.5 8.54004 12.5C10.5959 12.5 12.5058 13.0007 13.9513 13.8966C15.3788 14.7813 16.54 16.1933 16.54 18V18.5C16.54 19.8807 15.4208 21 14.04 21H3.04004C1.65933 21 0.540039 19.8807 0.540039 18.5V18C0.540039 16.1933 1.70125 14.7813 3.12876 13.8966ZM2.04004 18V18.5C2.04004 19.0523 2.48775 19.5 3.04004 19.5H14.04C14.5923 19.5 15.04 19.0523 15.04 18.5V18C15.04 15.7909 12.1963 14 8.54004 14C4.88379 14 2.04004 15.7909 2.04004 18Z" fill="#161823"/>
<path d="M19.5421 7.65648C19.5421 9.49865 18.198 10.992 16.5401 10.992C14.8821 10.992 13.5381 9.49865 13.5381 7.65648C13.5381 5.8143 14.8821 4.32092 16.5401 4.32092C18.198 4.32092 19.5421 5.8143 19.5421 7.65648ZM18.0421 7.65648C18.0421 6.49016 17.2249 5.82092 16.5401 5.82092C15.8553 5.82092 15.0381 6.49016 15.0381 7.65648C15.0381 8.8228 15.8553 9.49203 16.5401 9.49203C17.2249 9.49203 18.0421 8.8228 18.0421 7.65648Z" fill="#161823"/>
<path d="M16.5401 12.6493C15.899 12.6493 15.273 12.7064 14.6755 12.8167C15.2611 13.1728 15.8335 13.6165 16.3395 14.1515C16.406 14.15 16.4729 14.1493 16.5401 14.1493C19.589 14.1493 21.9603 15.6427 21.9603 17.4849V17.9018C21.9603 18.3624 21.587 18.7357 21.1264 18.7357H18.0401C18.0401 19.2662 17.9368 19.7725 17.7493 20.2357H21.1264C22.4154 20.2357 23.4603 19.1908 23.4603 17.9018V17.4849C23.4603 15.8617 22.4172 14.6158 21.1837 13.8513C19.9322 13.0757 18.2923 12.6493 16.5401 12.6493Z" fill="#161823"/>
</svg>
