<svg width="20" height="20" viewBox="0 0 20 20" fill="none" xmlns="http://www.w3.org/2000/svg">
<path d="M2.90121 10.1283C2.16479 9.72732 1.66504 8.94652 1.66504 8.04899C1.66504 6.74229 2.72433 5.68299 4.03104 5.68299H7.78145L7.62905 3.24463C7.54744 1.93886 8.58447 0.834991 9.89279 0.834991C11.2011 0.834991 12.2381 1.93886 12.1565 3.24463L12.0041 5.68299H15.7513C17.058 5.68299 18.1173 6.74228 18.1173 8.04899C18.1173 8.90897 17.6585 9.66179 16.9723 10.076L17.4473 17.1934C17.5147 18.2035 16.7135 19.06 15.7012 19.06H4.17578C3.16342 19.06 2.36224 18.2035 2.42966 17.1934L2.90121 10.1283ZM9.12613 3.15106L9.31726 6.20914C9.35024 6.73687 8.93113 7.18299 8.40238 7.18299H4.03104C3.55276 7.18299 3.16504 7.57071 3.16504 8.04899C3.16504 8.49567 3.50322 8.86336 3.93752 8.91H15.8448C16.2791 8.86336 16.6173 8.49567 16.6173 8.04899C16.6173 7.57071 16.2296 7.18299 15.7513 7.18299H11.3832C10.8544 7.18299 10.4353 6.73687 10.4683 6.20915L10.6594 3.15106C10.6871 2.70884 10.3359 2.33499 9.89279 2.33499C9.4497 2.33499 9.09849 2.70884 9.12613 3.15106ZM4.38542 10.415L3.92633 17.2933C3.9167 17.4376 4.03115 17.56 4.17578 17.56H6.13645V13.8386C6.13645 13.4244 6.47224 13.0886 6.88645 13.0886C7.30067 13.0886 7.63645 13.4244 7.63645 13.8386V17.56H9.18704V13.8502C9.18704 13.436 9.52283 13.1002 9.93704 13.1002C10.3513 13.1002 10.687 13.436 10.687 13.8502V17.56H12.2377V13.8502C12.2377 13.436 12.5735 13.1002 12.9877 13.1002C13.402 13.1002 13.7377 13.436 13.7377 13.8502V17.56H15.7012C15.8458 17.56 15.9602 17.4376 15.9506 17.2933L15.4916 10.415H4.38542Z" fill="#161823"/>
</svg>
