<svg width="20" height="20" viewBox="0 0 20 20" fill="none" xmlns="http://www.w3.org/2000/svg">
<path d="M9.44746 12.6359C9.44746 13.0852 9.20332 13.3488 8.7834 13.3488C8.36836 13.3488 8.12422 13.0852 8.12422 12.6359V10.4387H5.32637V12.6359C5.32637 13.0852 5.08223 13.3488 4.66719 13.3488C4.24727 13.3488 4.00801 13.0852 4.00801 12.6359V7.29902C4.00801 6.8498 4.24727 6.58613 4.66719 6.58613C5.08223 6.58613 5.32637 6.8498 5.32637 7.29902V9.35469H8.12422V7.29902C8.12422 6.8498 8.36836 6.58613 8.7834 6.58613C9.20332 6.58613 9.44746 6.8498 9.44746 7.29902V12.6359Z" fill="#161823"/>
<path fill-rule="evenodd" clip-rule="evenodd" d="M11.7424 13.3C11.1564 13.3 10.8635 13.0217 10.8635 12.4553V7.47969C10.8635 6.91328 11.1564 6.63496 11.7424 6.63496H13.2951C15.2434 6.63496 16.2736 7.7873 16.2736 9.96992C16.2736 12.1477 15.2434 13.3 13.2951 13.3H11.7424ZM12.1818 7.70918V12.2209H13.1291C14.3547 12.2209 14.926 11.4982 14.926 9.96992C14.926 8.43184 14.3498 7.70918 13.1291 7.70918H12.1818Z" fill="#161823"/>
<path fill-rule="evenodd" clip-rule="evenodd" d="M1 5.75C1 4.23122 2.23122 3 3.75 3H16.25C17.7688 3 19 4.23122 19 5.75V14.25C19 15.7688 17.7688 17 16.25 17H3.75C2.23122 17 1 15.7688 1 14.25V5.75ZM3.75 4.5H16.25C16.9404 4.5 17.5 5.05964 17.5 5.75V14.25C17.5 14.9404 16.9404 15.5 16.25 15.5H3.75C3.05964 15.5 2.5 14.9404 2.5 14.25V5.75C2.5 5.05964 3.05964 4.5 3.75 4.5Z" fill="#161823"/>
</svg>
