<svg width="20" height="20" viewBox="0 0 20 20" fill="none" xmlns="http://www.w3.org/2000/svg">
<path fill-rule="evenodd" clip-rule="evenodd" d="M10.0001 2.01666C8.17707 2.01666 6.8834 3.69327 6.8834 5.51666C6.8834 7.34005 8.17707 9.01666 10.0001 9.01666C11.8231 9.01666 13.1167 7.34005 13.1167 5.51666C13.1167 3.69327 11.8231 2.01666 10.0001 2.01666ZM8.3834 5.51666C8.3834 4.30249 9.20891 3.51666 10.0001 3.51666C10.7912 3.51666 11.6167 4.30249 11.6167 5.51666C11.6167 6.73084 10.7912 7.51666 10.0001 7.51666C9.20891 7.51666 8.3834 6.73084 8.3834 5.51666Z" fill="#161823"/>
<path d="M10.0001 10.5C8.11645 10.5 6.39575 10.9862 5.12311 11.8517C3.84512 12.7207 2.9834 14.0064 2.9834 15.5515C2.9834 16.8773 4.05655 17.9833 5.40006 17.9833H10.1994C10.3209 17.9833 10.4137 17.8758 10.4084 17.7545C10.3972 17.4974 10.4262 17.2288 10.5025 16.9537L10.5627 16.7368C10.598 16.6094 10.5022 16.4833 10.3699 16.4833H5.40006C4.90263 16.4833 4.4834 16.0666 4.4834 15.5515C4.4834 14.6196 4.99251 13.7545 5.9666 13.092C6.79527 12.5285 7.93402 12.1368 9.25904 12.0296C9.32472 12.0243 9.38363 11.9875 9.41942 11.9322C9.82524 11.3048 10.5122 10.8496 11.401 10.8108C11.5556 10.804 11.5699 10.6156 11.4167 10.5947C10.9585 10.5322 10.4847 10.5 10.0001 10.5Z" fill="#161823"/>
<path d="M15.2731 14.4694L15.2735 14.4704L15.2737 14.4699L15.2731 14.4694Z" fill="#161823"/>
<path fill-rule="evenodd" clip-rule="evenodd" d="M13.4635 18.4556C12.8882 18.8364 12.1904 18.5323 11.9755 17.9833C11.9069 17.808 11.8876 17.6077 11.9372 17.3968C11.9405 17.3827 11.9441 17.3686 11.948 17.3545L12.4978 15.3718L10.8876 14.091C10.1638 13.5152 10.5424 12.3497 11.4665 12.3093L13.522 12.2195L14.2426 10.2924C14.5665 9.42604 15.792 9.42603 16.1159 10.2924L16.8365 12.2195L18.892 12.3093C19.8161 12.3497 20.1947 13.5152 19.4709 14.091L17.8608 15.3718L18.4105 17.3545C18.6577 18.2458 17.6663 18.9661 16.895 18.4556L15.1793 17.3201L13.4635 18.4556ZM17.1112 17.1597L16.669 15.5649C16.6632 15.544 16.6581 15.5229 16.6537 15.5019C16.6229 15.3544 16.6264 15.2045 16.6607 15.0627C16.6727 15.0128 16.6886 14.9639 16.7082 14.9165C16.7543 14.8045 16.8209 14.7006 16.9061 14.6106C16.9382 14.5767 16.9729 14.5448 17.0101 14.5151L18.3053 13.4848L16.6519 13.4126C16.5548 13.4084 16.4605 13.3901 16.3714 13.3596C16.3013 13.3356 16.2343 13.3039 16.1717 13.2654C16.128 13.2385 16.0864 13.2083 16.0473 13.175C15.9203 13.0669 15.8198 12.9267 15.7589 12.7638L15.1793 11.2137L14.5996 12.7638C14.5958 12.774 14.5919 12.7841 14.5878 12.7941C14.5261 12.9441 14.4303 13.0737 14.3112 13.175C14.2861 13.1964 14.2599 13.2165 14.2328 13.2353C14.0808 13.3407 13.8994 13.4042 13.7066 13.4126L12.0532 13.4848L13.3484 14.5151C13.6624 14.7649 13.7967 15.1782 13.6895 15.5649L13.2473 17.1597L14.6274 16.2463C14.8424 16.104 15.0987 16.0531 15.3433 16.0937C15.4623 16.1135 15.5785 16.1549 15.6858 16.218C15.7011 16.227 15.7162 16.2364 15.7312 16.2463L17.1112 17.1597Z" fill="#161823"/>
</svg>
