<svg width="16" height="16" viewBox="0 0 16 16" fill="none" xmlns="http://www.w3.org/2000/svg">
<path d="M10.6665 4.33336C10.6665 5.99021 9.47256 7.33336 7.9998 7.33336C6.52704 7.33336 5.33313 5.99021 5.33313 4.33336C5.33313 2.6765 6.52704 1.33336 7.9998 1.33336C9.47256 1.33336 10.6665 2.6765 10.6665 4.33336Z" fill="#161823"/>
<path d="M3.80201 9.24329C4.92414 8.53097 6.40609 8.13335 7.9998 8.13335C9.1379 8.13335 10.219 8.33612 11.1528 8.71147C10.9285 9.10426 10.8579 9.56093 10.9409 9.99394H9.91636C8.88208 9.99394 8.04363 10.8324 8.04363 11.8667C8.04363 12.9009 8.88208 13.7394 9.91636 13.7394H10.9409C10.8686 14.1165 10.9128 14.5115 11.0736 14.8667H3.66647C2.63554 14.8667 1.7998 14.0309 1.7998 13V12.4849C1.7998 11.0668 2.69087 9.94861 3.80201 9.24329Z" fill="#161823"/>
<path d="M12.3203 13.6343C12.0665 13.8882 12.0665 14.2997 12.3203 14.5535C12.5742 14.8074 12.9857 14.8074 13.2396 14.5535L15.4668 12.3263C15.7207 12.0724 15.7207 11.6609 15.4668 11.407L13.2396 9.17976C12.9857 8.92592 12.5742 8.92592 12.3203 9.17976C12.0665 9.43361 12.0665 9.84516 12.3203 10.099L13.438 11.2166H9.91628C9.5573 11.2166 9.26628 11.5077 9.26628 11.8666C9.26628 12.2256 9.5573 12.5166 9.91628 12.5166H13.438L12.3203 13.6343Z" fill="#161823"/>
</svg>
