<svg width="24" height="24" viewBox="0 0 24 24" fill="none" xmlns="http://www.w3.org/2000/svg">
<path d="M5.66667 3.2H18.3333C19.6956 3.2 20.8 4.30436 20.8 5.66667V12.6019C20.8 12.691 20.8591 12.7691 20.9442 12.7958C21.3799 12.9322 21.7959 13.1132 22.1868 13.3335C22.3245 13.4111 22.5 13.3144 22.5 13.1563V5.66667C22.5 3.36548 20.6345 1.5 18.3333 1.5H5.66667C3.36548 1.5 1.5 3.36548 1.5 5.66667V18.3333C1.5 20.6345 3.36548 22.5 5.66667 22.5H13.1563C13.3144 22.5 13.4111 22.3245 13.3335 22.1868C13.1132 21.7959 12.9322 21.3799 12.7958 20.9442C12.7691 20.8591 12.691 20.8 12.6019 20.8H5.66667C4.30436 20.8 3.2 19.6956 3.2 18.3333V5.66667C3.2 4.30436 4.30436 3.2 5.66667 3.2ZM13.2758 15.2955C13.4373 15.2955 13.5336 15.478 13.4494 15.6158C13.1596 16.09 12.929 16.6043 12.7676 17.1483C12.7419 17.2348 12.6631 17.2955 12.5728 17.2955H6.27271C5.72042 17.2955 5.27271 16.8478 5.27271 16.2955C5.27271 15.7432 5.72042 15.2955 6.27271 15.2955H13.2758ZM5.27271 7.70453C5.27271 7.15224 5.72042 6.70453 6.27271 6.70453H11.4272C11.9795 6.70453 12.4272 7.15224 12.4272 7.70453C12.4272 8.25681 11.9795 8.70453 11.4272 8.70453H6.27271C5.72042 8.70453 5.27271 8.25681 5.27271 7.70453ZM13.5772 7.70453C13.5772 7.15224 14.025 6.70453 14.5773 6.70453H17.7272C18.2795 6.70453 18.7272 7.15224 18.7272 7.70453C18.7272 8.25681 18.2795 8.70453 17.7272 8.70453H14.5773C14.025 8.70453 13.5772 8.25681 13.5772 7.70453ZM5.27271 12C5.27271 11.4477 5.72042 11 6.27271 11H8.56361C9.1159 11 9.56361 11.4477 9.56361 12C9.56361 12.5523 9.1159 13 8.56361 13H6.27271C5.72042 13 5.27271 12.5523 5.27271 12ZM11 12C11 11.4477 11.4477 11 12 11H17.7272C18.2795 11 18.7272 11.4477 18.7272 12C18.7272 12.5523 18.2795 13 17.7272 13H12C11.4477 13 11 12.5523 11 12ZM21.948 20.8874L17.1126 16.052C17.6572 15.7026 18.3049 15.5 19 15.5C20.933 15.5 22.5 17.067 22.5 19C22.5 19.6951 22.2974 20.3428 21.948 20.8874ZM20.8874 21.948C20.3428 22.2974 19.6951 22.5 19 22.5C17.067 22.5 15.5 20.933 15.5 19C15.5 18.3049 15.7026 17.6572 16.052 17.1126L20.8874 21.948ZM19 24C21.7614 24 24 21.7614 24 19C24 16.2386 21.7614 14 19 14C16.2386 14 14 16.2386 14 19C14 21.7614 16.2386 24 19 24Z" fill="#161823"/>
</svg>
