<svg width="16" height="16" viewBox="0 0 16 16" fill="none" xmlns="http://www.w3.org/2000/svg">
<path d="M5.98419 1.46396C5.77868 1.10432 5.32054 0.979376 4.9609 1.18488C4.60126 1.39039 4.47632 1.84853 4.68182 2.20817L5.51681 3.6694H3.83301C2.4523 3.6694 1.33301 4.78869 1.33301 6.1694V11.5027C1.33301 12.8834 2.45229 14.0027 3.83301 14.0027H12.1663C13.5471 14.0027 14.6663 12.8834 14.6663 11.5027V6.1694C14.6663 4.78869 13.5471 3.6694 12.1663 3.6694H10.4825L11.3175 2.20817C11.523 1.84853 11.3981 1.39039 11.0384 1.18488C10.6788 0.979376 10.2207 1.10432 10.0152 1.46396L8.7549 3.6694H7.24444L5.98419 1.46396ZM10.3782 10.3191H10.4289L11.5813 6.64334C11.6907 6.27225 11.8508 6.1199 12.1321 6.1199C12.4328 6.1199 12.6516 6.31131 12.6516 6.59256C12.6516 6.69803 12.6164 6.87381 12.5696 7.01834L11.2493 10.8074C11.0774 11.323 10.8313 11.5418 10.3977 11.5418C9.95628 11.5418 9.70238 11.3191 9.5305 10.8074L8.21409 7.01834C8.15941 6.85818 8.12816 6.70584 8.12816 6.59647C8.12816 6.31522 8.35081 6.1199 8.6555 6.1199C8.92894 6.1199 9.10081 6.28397 9.21019 6.64334L10.3782 10.3191ZM6.30175 10.9793C6.30175 11.3269 6.09863 11.5418 5.77441 11.5418C5.44628 11.5418 5.24706 11.3308 5.24706 10.9793V7.0574H4.11816C3.85644 7.0574 3.66503 6.8699 3.66503 6.616C3.66503 6.35818 3.85644 6.17068 4.11816 6.17068H7.43456C7.70019 6.17068 7.88769 6.35428 7.88769 6.616C7.88769 6.87381 7.70019 7.0574 7.43456 7.0574H6.30175V10.9793Z" fill="#161823"/>
</svg>
