<svg width="20" height="20" viewBox="0 0 20 20" fill="none" xmlns="http://www.w3.org/2000/svg">
<path fill-rule="evenodd" clip-rule="evenodd" d="M13.5072 3.59872C13.5183 3.51354 13.5129 3.38268 13.5072 3.24419V3.24417L13.5072 3.24398V3.24394C13.5052 3.19396 13.5031 3.14298 13.5017 3.0928L13.5007 3.05105L13.5003 3.0239C13.4997 2.97101 13.5004 2.92 13.5033 2.87312C13.5139 2.69931 13.5547 2.5822 13.6744 2.63594C13.744 2.68617 13.8127 2.73639 13.8805 2.78659L13.946 2.83533C14.2459 3.05935 14.5276 3.28302 14.7922 3.50655C14.8645 3.56768 14.9356 3.62881 15.0054 3.68992C17.6909 6.04134 18.5 8.38277 18.5 10.9486C18.5 15.9999 15 18.9999 9.99999 18.9999C4.99998 18.9999 1.5 15.9999 1.5 10.9486C1.5 7.99994 2.4848 6.54482 3.73428 5.19759C4.42147 4.45664 5.06456 3.96762 5.62779 3.6486L5.6375 3.64311C6.09436 3.38551 6.49837 3.23982 6.83036 3.1621C7.08287 3.08367 7.09797 3.25205 7.11498 3.44186C7.1323 3.63502 7.1516 3.85037 7.42514 3.85037C7.74803 3.82125 8.07623 3.31555 8.29208 2.73189C8.32268 2.64914 8.35103 2.56482 8.37678 2.48008C8.52428 1.99464 8.58669 1.49508 8.50098 1.19485C8.42207 0.918419 8.81319 0.827974 9.41706 0.933344C9.59216 0.963897 9.78515 1.01091 9.98975 1.07464L10.0076 1.08022C10.6612 1.28622 11.4309 1.66167 12.1139 2.21431C12.2447 2.32018 12.3724 2.43255 12.4954 2.55147C12.5489 2.60313 12.6015 2.65602 12.6531 2.71015C12.8278 2.89348 12.9913 3.09105 13.1389 3.30303L13.1631 3.3444C13.2055 3.41618 13.243 3.47553 13.276 3.52375C13.433 3.75304 13.49 3.73078 13.5072 3.59872ZM9.89091 2.63121C10.606 2.91982 11.3818 3.42982 11.8773 4.11697C11.9706 4.27447 12.0824 4.44786 12.2101 4.59729C12.2762 4.67466 12.4175 4.83133 12.6312 4.96298C12.8364 5.08936 13.3734 5.34561 14.0188 5.0889C14.0893 5.06085 14.1545 5.02916 14.2149 4.99482C15.1368 5.83424 15.7581 6.63819 16.1749 7.41361C16.7709 8.52248 17 9.66765 17 10.9486C17 13.1098 16.2623 14.7029 15.1088 15.7651C13.9402 16.8414 12.2046 17.4999 9.99999 17.4999C7.79536 17.4999 6.05981 16.8414 4.89114 15.7651C3.73769 14.7029 3 13.1098 3 10.9486C3 9.64895 3.21537 8.76215 3.51815 8.08436C3.82419 7.39926 4.25837 6.83836 4.83408 6.2176C5.40213 5.60512 5.90728 5.22156 6.31849 4.98172C6.38222 5.03115 6.45148 5.07764 6.52662 5.12011C6.84212 5.29846 7.16278 5.35037 7.42514 5.35037H7.49264L7.55987 5.34431C8.38736 5.26968 8.888 4.67994 9.08795 4.41361C9.34505 4.07116 9.53933 3.67187 9.67864 3.3063C9.7612 3.08964 9.83331 2.8615 9.89091 2.63121ZM8.5 10.4999C8.5 11.3284 7.82843 11.9999 7 11.9999C6.17157 11.9999 5.5 11.3284 5.5 10.4999C5.5 9.67151 6.17157 8.99994 7 8.99994C7.82843 8.99994 8.5 9.67151 8.5 10.4999ZM13 11.9999C13.8284 11.9999 14.5 11.3284 14.5 10.4999C14.5 9.67151 13.8284 8.99994 13 8.99994C12.1716 8.99994 11.5 9.67151 11.5 10.4999C11.5 11.3284 12.1716 11.9999 13 11.9999Z" fill="#161823"/>
</svg>
