<svg width="20" height="20" viewBox="0 0 20 20" fill="none" xmlns="http://www.w3.org/2000/svg">
<path d="M13.3333 5.25C13.3333 7.32107 11.8409 9 9.99996 9C8.15901 9 6.66663 7.32107 6.66663 5.25C6.66663 3.17893 8.15901 1.5 9.99996 1.5C11.8409 1.5 13.3333 3.17893 13.3333 5.25ZM11.8333 5.25C11.8333 3.83639 10.8513 3 9.99996 3C9.14865 3 8.16663 3.83639 8.16663 5.25C8.16663 6.66361 9.14865 7.5 9.99996 7.5C10.8513 7.5 11.8333 6.66361 11.8333 5.25Z" fill="#161823"/>
<path d="M10 10C8.00786 10 6.15542 10.497 4.75275 11.3874C3.36383 12.2691 2.25 13.6669 2.25 15.4394V16.0833C2.25 17.372 3.29467 18.4167 4.58333 18.4167H13.7906C13.8644 18.4167 13.9132 18.3392 13.8858 18.2706C13.7291 17.8785 13.6871 17.4513 13.7599 17.0403C13.7711 16.9768 13.7236 16.9167 13.6591 16.9167H4.58333C4.1231 16.9167 3.75 16.5436 3.75 16.0833V15.4394C3.75 13.2637 6.48438 11.5 10 11.5C11.3464 11.5 12.5781 11.7587 13.5856 12.2001C13.6604 12.2328 13.7441 12.1686 13.7361 12.0875C13.6949 11.6679 13.7713 11.239 13.9651 10.8542C13.9922 10.8004 13.9696 10.7339 13.9136 10.7116C12.7527 10.2495 11.4114 10 10 10Z" fill="#161823"/>
<path d="M15.4392 18.197C15.1463 17.9041 15.1463 17.4292 15.4392 17.1363L16.943 15.6326H12.39C11.9758 15.6326 11.64 15.2968 11.64 14.8826C11.64 14.4684 11.9758 14.1326 12.39 14.1326H16.943L15.4392 12.6288C15.1463 12.3359 15.1463 11.861 15.4392 11.5682C15.7321 11.2753 16.207 11.2753 16.4999 11.5682L19.284 14.3522C19.5769 14.6451 19.5769 15.12 19.284 15.4129L16.4999 18.197C16.207 18.4899 15.7321 18.4899 15.4392 18.197Z" fill="#161823"/>
</svg>
