<svg width="20" height="20" viewBox="0 0 20 20" fill="none" xmlns="http://www.w3.org/2000/svg">
<path d="M7.69427 10.1998C7.39965 9.90866 6.92479 9.91147 6.63363 10.2061C6.34248 10.5007 6.34529 10.9756 6.63991 11.2667L9.39514 13.9896C9.73058 14.321 10.2703 14.321 10.6057 13.9896L13.3609 11.2667C13.6556 10.9756 13.6584 10.5007 13.3672 10.2061C13.0761 9.91147 12.6012 9.90866 12.3066 10.1998L10.0004 12.4788L7.69427 10.1998Z" fill="#161823"/>
<path fill-rule="evenodd" clip-rule="evenodd" d="M4.02989 3.02691C4.45428 2.38566 5.17198 2 5.94095 2H14.0599C14.8289 2 15.5466 2.38566 15.971 3.02691L18.671 7.10666C19.2705 8.01258 19.1516 9.21497 18.3863 9.98594L10.5918 17.8376C10.2659 18.1659 9.73494 18.1659 9.40902 17.8376L1.61456 9.98594C0.849209 9.21497 0.730321 8.01258 1.32987 7.10666L4.02989 3.02691ZM5.94095 3.5H14.0599C14.3255 3.5 14.5735 3.63323 14.7201 3.85475L17.4201 7.9345C17.6272 8.24746 17.5862 8.66283 17.3218 8.92916L10.0004 16.3042L2.67909 8.92916C2.41469 8.66283 2.37362 8.24746 2.58074 7.9345L5.28077 3.85475C5.42737 3.63323 5.6753 3.5 5.94095 3.5Z" fill="#161823"/>
</svg>
