<svg width="20" height="20" viewBox="0 0 20 20" fill="none" xmlns="http://www.w3.org/2000/svg">
<path fill-rule="evenodd" clip-rule="evenodd" d="M10 5C8.36295 5 7.26667 6.55048 7.26667 8.15C7.26667 9.74952 8.36295 11.3 10 11.3C11.6371 11.3 12.7333 9.74952 12.7333 8.15C12.7333 6.55048 11.6371 5 10 5ZM8.76667 8.15C8.76667 7.09856 9.44634 6.5 10 6.5C10.5537 6.5 11.2333 7.09856 11.2333 8.15C11.2333 9.20144 10.5537 9.8 10 9.8C9.44634 9.8 8.76667 9.20144 8.76667 8.15Z" fill="#161823"/>
<path fill-rule="evenodd" clip-rule="evenodd" d="M2.5 5.25C2.5 3.73122 3.73122 2.5 5.25 2.5H14.75C16.2688 2.5 17.5 3.73122 17.5 5.25V14.75C17.5 16.2688 16.2688 17.5 14.75 17.5H5.25C3.73122 17.5 2.5 16.2688 2.5 14.75V5.25ZM5.25 4H14.75C15.4404 4 16 4.55964 16 5.25V14.75C16 14.9813 15.9372 15.1978 15.8277 15.3836C15.4902 14.7601 14.9841 14.2172 14.3739 13.7824C13.2391 12.9738 11.7027 12.5 10.0167 12.5C8.3306 12.5 6.79425 12.9738 5.65945 13.7824C5.03973 14.2239 4.5274 14.777 4.18999 15.4128C4.0696 15.2207 4 14.9935 4 14.75V5.25C4 4.55964 4.55964 4 5.25 4ZM5.58036 16H14.453C14.239 15.6405 13.9219 15.3021 13.5035 15.004C12.6557 14.3999 11.4337 14 10.0167 14C8.59961 14 7.37763 14.3999 6.52988 15.004C6.11145 15.3021 5.79429 15.6405 5.58036 16Z" fill="#161823"/>
</svg>
