<svg width="24" height="24" viewBox="0 0 24 24" fill="none" xmlns="http://www.w3.org/2000/svg">
<path d="M5.43025 13.2396C5.59461 13.1058 5.48323 12.8298 5.27603 12.8746C4.34903 13.0748 3.49825 13.4059 2.77661 13.8531C1.54311 14.6176 0.5 15.8635 0.5 17.4867V17.9037C0.5 19.1926 1.54492 20.2375 2.83389 20.2375H3.07739C3.22487 20.2375 3.32243 20.0828 3.26912 19.9453C3.14254 19.6188 3.05758 19.2715 3.02077 18.91C3.01092 18.8134 2.93106 18.7375 2.83389 18.7375C2.37335 18.7375 2 18.3642 2 17.9037V17.4867C2 16.4785 2.71035 15.5747 3.85335 14.9631C3.88433 14.9465 3.91079 14.9222 3.92986 14.8927C4.34435 14.2513 4.86632 13.6989 5.43025 13.2396Z" fill="#161823"/>
<path d="M9.04101 10.4665C8.57353 10.8003 8.01727 10.9939 7.4203 10.9939C5.76235 10.9939 4.4183 9.50049 4.4183 7.65831C4.4183 5.81613 5.76235 4.32275 7.4203 4.32275C7.78174 4.32275 8.12825 4.39372 8.44917 4.52381C8.23688 4.97805 8.0817 5.4644 7.99147 5.96891C7.80409 5.87264 7.60726 5.82275 7.4203 5.82275C6.73552 5.82275 5.9183 6.49199 5.9183 7.65831C5.9183 8.82463 6.73552 9.49387 7.4203 9.49387C7.71525 9.49387 8.03476 9.36971 8.30296 9.13516C8.49033 9.61368 8.73911 10.0624 9.04101 10.4665Z" fill="#161823"/>
<path d="M16.6001 6.99988C16.6001 9.20902 14.9884 10.9999 13.0001 10.9999C11.0119 10.9999 9.40014 9.20902 9.40014 6.99988C9.40014 4.79074 11.0119 2.99988 13.0001 2.99988C14.9884 2.99988 16.6001 4.79074 16.6001 6.99988ZM15.1001 6.99988C15.1001 5.4666 14.0152 4.49988 13.0001 4.49988C11.9851 4.49988 10.9001 5.4666 10.9001 6.99988C10.9001 8.53316 11.9851 9.49988 13.0001 9.49988C14.0152 9.49988 15.1001 8.53316 15.1001 6.99988Z" fill="#161823"/>
<path d="M13.0001 12.4999C10.9442 12.4999 9.03435 13.0006 7.58884 13.8965C6.16133 14.7812 5.00012 16.1932 5.00012 17.9999V18.4999C5.00012 19.8806 6.11941 20.9999 7.50012 20.9999H12.5305C12.6848 20.9999 12.7818 20.832 12.7115 20.6947C12.5403 20.3606 12.3972 20.0097 12.2853 19.6452C12.259 19.5595 12.1806 19.4999 12.0911 19.4999H7.50012C6.94784 19.4999 6.50012 19.0522 6.50012 18.4999V17.9999C6.50012 15.7907 9.34387 13.9999 13.0001 13.9999C13.0246 13.9999 13.049 14 13.0733 14.0001C13.1396 14.0005 13.2019 13.9687 13.2408 13.9152C13.5088 13.547 13.8144 13.2081 14.1521 12.9041C14.2846 12.7848 14.2198 12.5584 14.0421 12.5434C13.7001 12.5146 13.3523 12.4999 13.0001 12.4999Z" fill="#161823"/>
<path d="M18.499 21.2343C16.5666 21.2343 15.0001 19.6678 15.0001 17.7353C15.0001 15.8029 16.5666 14.2364 18.499 14.2364C20.4315 14.2364 21.998 15.8029 21.998 17.7353C21.998 19.6678 20.4315 21.2343 18.499 21.2343ZM18.499 22.7343C21.2599 22.7343 23.498 20.4962 23.498 17.7353C23.498 14.9745 21.2599 12.7364 18.499 12.7364C15.7382 12.7364 13.5001 14.9745 13.5001 17.7353C13.5001 20.4962 15.7382 22.7343 18.499 22.7343ZM18.7503 15.3351C18.6693 15.1185 18.3629 15.1185 18.2819 15.3351L17.769 16.707L16.3057 16.7709C16.0747 16.781 15.98 17.0723 16.161 17.2163L17.3072 18.1281L16.9158 19.5395C16.8541 19.7623 17.1019 19.9424 17.2947 19.8148L18.5161 19.0064L19.7375 19.8148C19.9303 19.9424 20.1782 19.7623 20.1164 19.5395L19.725 18.1281L20.8712 17.2163C21.0522 17.0723 20.9575 16.781 20.7265 16.7709L19.2633 16.707L18.7503 15.3351Z" fill="#161823"/>
</svg>
