<svg width="16" height="16" viewBox="0 0 16 16" fill="none" xmlns="http://www.w3.org/2000/svg">
<g clip-path="url(#clip0_7_1337)">
<path d="M5.13379 4.20012C5.13379 2.51277 6.34257 1.00012 8.00046 1.00012C9.65834 1.00012 10.8671 2.51277 10.8671 4.20012C10.8671 5.88748 9.65834 7.40012 8.00046 7.40012C6.34257 7.40012 5.13379 5.88748 5.13379 4.20012Z" fill="#161823"/>
<path d="M3.57385 9.58104C4.71568 8.77642 6.26966 8.29993 7.98366 8.29993C8.59951 8.29993 9.19471 8.36144 9.75755 8.47759C9.84094 8.4948 9.86395 8.60262 9.79806 8.65654C8.78214 9.48789 8.13372 10.7516 8.13372 12.1667C8.13372 13.1639 8.45571 14.0859 9.0014 14.8345C9.05082 14.9023 9.00351 14.9999 8.91961 14.9999H3.76699C2.6072 14.9999 1.66699 14.0597 1.66699 12.8999C1.66699 11.5507 2.43242 10.3854 3.57385 9.58104Z" fill="#161823"/>
<path d="M11.4821 9.05014C11.8503 8.91007 12.2497 8.83337 12.6671 8.83337C14.508 8.83337 16.0004 10.3258 16.0004 12.1667C16.0004 14.0077 14.508 15.5 12.6671 15.5C10.8261 15.5 9.33372 14.0077 9.33372 12.1667C9.33372 11.3173 9.65147 10.542 10.1746 9.95335C10.369 9.73461 10.5917 9.54163 10.8371 9.38019C10.8706 9.3581 10.9046 9.33659 10.939 9.31569C11.1105 9.21153 11.2922 9.1224 11.4821 9.05014ZM14.5392 13.1904C14.7057 12.8865 14.8004 12.5377 14.8004 12.1667C14.8004 10.9885 13.8453 10.0334 12.6671 10.0334C12.2961 10.0334 11.9473 10.128 11.6434 10.2946L14.5392 13.1904ZM13.6907 14.0389L10.7949 11.1431C10.6284 11.447 10.5337 11.7958 10.5337 12.1667C10.5337 13.3449 11.4888 14.3 12.6671 14.3C13.038 14.3 13.3868 14.2054 13.6907 14.0389Z" fill="#161823"/>
</g>
<defs>
<clipPath id="clip0_7_1337">
<rect width="16" height="16" fill="white"/>
</clipPath>
</defs>
</svg>
