<svg width="20" height="20" viewBox="0 0 20 20" fill="none" xmlns="http://www.w3.org/2000/svg">
<path d="M9.27231 1.73164C9.38367 1.40492 9.7388 1.23033 10.0655 1.34169L10.9017 1.62671C12.276 2.09512 13.3598 3.15967 13.8558 4.51569L14.7969 3.57453C15.041 3.33045 15.4368 3.33045 15.6808 3.57453C15.9249 3.81861 15.9249 4.21434 15.6808 4.45841L14.0222 6.11705C13.9876 6.153 13.9484 6.18506 13.9052 6.21221C13.8352 6.25638 13.7583 6.28529 13.6793 6.29896C13.5955 6.31362 13.5118 6.31067 13.4324 6.29238C13.3421 6.27176 13.2556 6.23088 13.1799 6.16976C13.1256 6.12603 13.0782 6.07295 13.0405 6.01196C13.0105 5.96343 12.9877 5.91168 12.9721 5.85827L12.7355 5.10303C12.3979 4.02582 11.567 3.17407 10.4985 2.80987L9.66225 2.52486C9.33553 2.4135 9.16095 2.05836 9.27231 1.73164Z" fill="#161823"/>
<path fill-rule="evenodd" clip-rule="evenodd" d="M4.75 3.99993C3.23122 3.99993 2 5.23115 2 6.74993V14.2499C2 15.7687 3.23122 16.9999 4.75 16.9999H8.75C10.2688 16.9999 11.5 15.7687 11.5 14.2499V6.74993C11.5 5.23115 10.2688 3.99993 8.75 3.99993H4.75ZM3.5 6.74993C3.5 6.05958 4.05964 5.49993 4.75 5.49993H4.8V5.8666C4.8 6.32684 5.1731 6.69993 5.63333 6.69993H7.66667C8.1269 6.69993 8.5 6.32684 8.5 5.8666V5.49993H8.75C9.44036 5.49993 10 6.05958 10 6.74993V14.2499C10 14.9403 9.44036 15.4999 8.75 15.4999H4.75C4.05964 15.4999 3.5 14.9403 3.5 14.2499V6.74993Z" fill="#161823"/>
<path d="M15.58 9.99993H13.2C13.0895 9.99993 13 9.91039 13 9.79993V8.69993C13 8.58948 13.0895 8.49993 13.2 8.49993H15.58C16.9147 8.49993 18 9.58191 18 10.9166V14.5833C18 15.918 16.9147 16.9999 15.58 16.9999H13.2C13.0895 16.9999 13 16.9104 13 16.7999V15.6999C13 15.5895 13.0895 15.4999 13.2 15.4999H15.58C16.0863 15.4999 16.5 15.0895 16.5 14.5833V10.9166C16.5 10.4103 16.0863 9.99993 15.58 9.99993Z" fill="#161823"/>
</svg>
