<svg width="20" height="20" viewBox="0 0 20 20" fill="none" xmlns="http://www.w3.org/2000/svg">
<path d="M3.13046 5.50665L16.8475 5.5C16.8785 5.49999 16.8911 5.50678 16.8976 5.51071C16.9082 5.51703 16.9224 5.52966 16.9342 5.55011C16.9459 5.57056 16.9497 5.58922 16.9499 5.60147C16.95 5.60909 16.9496 5.62342 16.934 5.65025L14.743 9.41994C15.3101 9.26405 15.9097 9.26497 16.4764 9.42271L18.2308 6.40399C18.851 5.33703 18.0808 3.9994 16.8467 4L3.12974 4.00665C1.72815 4.00733 1.00477 5.68194 1.96506 6.70288L6.59003 11.6199C6.60084 11.6314 6.60878 11.6453 6.6132 11.6605L8.42914 17.8894C8.76748 19.0499 10.1588 19.3769 10.9918 18.6737C10.6105 18.2688 10.3385 17.7714 10.2038 17.23L10.0517 17.4918C10.0392 17.5132 10.0297 17.5227 10.026 17.526C10.0219 17.5297 10.0183 17.532 10.0142 17.534C10.0045 17.5385 9.98311 17.5445 9.95309 17.5408C9.92306 17.5371 9.90371 17.5262 9.89542 17.5195C9.89185 17.5166 9.88894 17.5135 9.8859 17.509C9.8831 17.5048 9.87612 17.4933 9.86919 17.4695L8.22497 11.8297L13.0651 8.02555C13.2485 7.88142 13.0787 7.59341 12.8638 7.68401L7.19501 10.0738L3.05767 5.67517C3.04087 5.6573 3.03454 5.64553 3.03233 5.64097C3.02993 5.63602 3.02874 5.6319 3.02805 5.62732C3.02645 5.61671 3.0268 5.59457 3.03871 5.56699C3.05062 5.53942 3.0665 5.52399 3.07533 5.51788C3.07913 5.51524 3.08295 5.51329 3.08819 5.51164C3.09303 5.51012 3.10594 5.50666 3.13046 5.50665Z" fill="#161823"/>
<path d="M16.8547 15.1482C16.8547 15.8386 16.2951 16.3982 15.6047 16.3982C14.9143 16.3982 14.3547 15.8386 14.3547 15.1482C14.3547 14.4579 14.9143 13.8982 15.6047 13.8982C16.2951 13.8982 16.8547 14.4579 16.8547 15.1482Z" fill="#161823"/>
<path d="M14.7297 11.0382C15.2711 10.7256 15.9382 10.7256 16.4797 11.0382L18.7266 12.3354C19.2681 12.648 19.6016 13.2257 19.6016 13.851V16.4455C19.6016 17.0707 19.2681 17.6484 18.7266 17.961L16.4797 19.2583C15.9382 19.5709 15.2711 19.5709 14.7297 19.2583L12.4828 17.961C11.9413 17.6484 11.6078 17.0707 11.6078 16.4455V13.851C11.6078 13.2257 11.9413 12.648 12.4828 12.3354L14.7297 11.0382ZM15.7297 12.3372C15.6523 12.2925 15.557 12.2925 15.4797 12.3372L13.2328 13.6345C13.1554 13.6791 13.1078 13.7616 13.1078 13.851V16.4455C13.1078 16.5348 13.1554 16.6173 13.2328 16.662L15.4797 17.9592C15.557 18.0039 15.6523 18.0039 15.7297 17.9592L17.9766 16.662C18.054 16.6173 18.1016 16.5348 18.1016 16.4455V13.851C18.1016 13.7616 18.054 13.6791 17.9766 13.6345L15.7297 12.3372Z" fill="#161823"/>
</svg>
