<svg width="24" height="24" viewBox="0 0 24 24" fill="none" xmlns="http://www.w3.org/2000/svg">
<path d="M11.5569 3.10411C11.836 2.96465 12.164 2.96465 12.4431 3.10411L20.448 7.10448C21.184 7.47229 21.184 8.52747 20.448 8.89528L12.4431 12.8957C12.164 13.0351 11.836 13.0351 11.5569 12.8957L3.55201 8.89528C2.816 8.52747 2.816 7.47229 3.55201 7.10448L11.5569 3.10411Z" fill="#161823"/>
<path fill-rule="evenodd" clip-rule="evenodd" d="M3.09967 11.6794C3.31048 11.26 3.82141 11.0908 4.24085 11.3017L11.9104 15.1565C11.9669 15.1849 12.0334 15.1849 12.0899 15.1565L19.7402 11.315C20.1597 11.1043 20.6706 11.2736 20.8813 11.6931C21.0919 12.1126 20.9226 12.6235 20.5031 12.8342L12.3814 16.9125C12.1413 17.0331 11.8583 17.033 11.6182 16.9123L3.47741 12.8206C3.05797 12.6098 2.88885 12.0989 3.09967 11.6794Z" fill="#161823"/>
<path fill-rule="evenodd" clip-rule="evenodd" d="M3.09967 15.6763C3.31048 15.2569 3.82141 15.0878 4.24085 15.2986L11.9104 19.1534C11.9669 19.1818 12.0334 19.1818 12.0899 19.1535L19.7402 15.3119C20.1597 15.1012 20.6706 15.2705 20.8813 15.69C21.0919 16.1096 20.9226 16.6204 20.5031 16.8311L12.3814 20.9094C12.1413 21.03 11.8583 21.0299 11.6182 20.9093L3.47741 16.8175C3.05797 16.6067 2.88885 16.0958 3.09967 15.6763Z" fill="#161823"/>
</svg>
