<svg width="24" height="24" viewBox="0 0 24 24" fill="none" xmlns="http://www.w3.org/2000/svg">
<path fill-rule="evenodd" clip-rule="evenodd" d="M13.7321 4C12.9623 2.66667 11.0378 2.66667 10.268 4L2.25726 17.875C1.48746 19.2083 2.44971 20.875 3.98931 20.875H12.4746C12.6015 20.875 12.6961 20.7584 12.6767 20.633C12.64 20.3951 12.6209 20.1513 12.6209 19.9031C12.6209 17.2847 14.7436 15.162 17.362 15.162C17.4386 15.162 17.5031 15.1016 17.5031 15.025V12.7375C17.5031 12.2618 17.6476 11.8198 17.895 11.4529C17.9401 11.3861 17.9463 11.2993 17.906 11.2295L13.7321 4ZM12 8.5C11.45 8.5 11.0065 8.95003 11.0145 9.4999L11.0885 13.6017C11.0957 14.0999 11.5017 14.5 12 14.5C12.4982 14.5 12.9042 14.0999 12.9114 13.6017L12.9854 9.4999C12.9934 8.95003 12.5499 8.5 12 8.5ZM13.1 16.6C13.1 17.2075 12.6075 17.7 12 17.7C11.3924 17.7 10.9 17.2075 10.9 16.6C10.9 15.9925 11.3924 15.5 12 15.5C12.6075 15.5 13.1 15.9925 13.1 16.6Z" fill="#161823"/>
<path d="M20.6031 16.036C20.6485 16.0717 20.6946 16.1066 20.7414 16.1405C21.4323 16.6408 22.2817 16.9358 23.2 16.9358C23.6419 16.9358 24 16.5776 24 16.1358C24 15.694 23.6419 15.3358 23.2 15.3358C21.7661 15.3358 20.6037 14.1734 20.6037 12.7395C20.6037 12.6627 20.5929 12.5885 20.5727 12.5183C20.4774 12.183 20.169 11.9375 19.8031 11.9375C19.3613 11.9375 19.0031 12.2957 19.0031 12.7375V19.9031C19.0031 20.2668 18.8848 20.6029 18.6845 20.875C18.3858 21.2809 17.9047 21.5442 17.362 21.5442C16.8194 21.5442 16.3382 21.2809 16.0395 20.875C15.8392 20.6029 15.7209 20.2668 15.7209 19.9031C15.7209 18.9967 16.4556 18.262 17.362 18.262C17.4102 18.262 17.4573 18.2577 17.5031 18.2496C17.8777 18.1829 18.162 17.8557 18.162 17.462C18.162 17.0683 17.8777 16.7411 17.5031 16.6744C17.4573 16.6662 17.4102 16.662 17.362 16.662C15.572 16.662 14.1209 18.1131 14.1209 19.9031C14.1209 20.2417 14.1728 20.5682 14.2691 20.875C14.682 22.1902 15.9106 23.1442 17.362 23.1442C18.8324 23.1442 20.0741 22.1651 20.4707 20.8233C20.5569 20.5316 20.6031 20.2228 20.6031 19.9031V16.036Z" fill="#161823"/>
</svg>
