<svg width="16" height="16" viewBox="0 0 16 16" fill="none" xmlns="http://www.w3.org/2000/svg">
<path fill-rule="evenodd" clip-rule="evenodd" d="M13.5035 2.41658C13.7025 2.41658 13.8932 2.4956 14.0339 2.63625C14.1745 2.7769 14.2535 2.96767 14.2535 3.16658V10.8333C14.2535 11.2476 13.9178 11.5833 13.5035 11.5833C13.0893 11.5833 12.7535 11.2476 12.7535 10.8333V4.96908L3.68951 14.0331C3.39662 14.326 2.92174 14.326 2.62885 14.0331C2.33596 13.7403 2.33596 13.2654 2.62885 12.9725L11.6847 3.91658H5.8304C5.41619 3.91658 5.0804 3.58079 5.0804 3.16658C5.0804 2.75237 5.41619 2.41658 5.8304 2.41658H13.5035Z" fill="#161823"/>
</svg>
