<svg width="12" height="12" viewBox="0 0 12 12" fill="none" xmlns="http://www.w3.org/2000/svg">
<path d="M8.11037 9.64984C6.55264 9.64984 5.39196 8.5449 5.39196 7.18189C5.39196 5.81887 6.65475 4.71393 8.21249 4.71393C9.77022 4.71393 11.033 5.81887 11.033 7.18189C11.033 8.09538 10.4508 8.84632 9.67757 9.2897L9.6267 10.1202C9.6267 10.3024 9.41908 10.4068 9.27287 10.2981L8.35961 9.64034C8.27749 9.64663 8.19436 9.64984 8.11037 9.64984Z" fill="#161823"/>
<path d="M4.71804 9.04581C4.38444 8.50834 4.19196 7.87547 4.19196 7.18189C4.19196 5.01063 6.14754 3.51393 8.21249 3.51393C8.43198 3.51393 8.65025 3.53084 8.86505 3.56368C8.1559 2.42362 6.77464 1.6499 5.18685 1.6499C2.8756 1.6499 1.00195 3.28933 1.00195 5.31168C1.00195 6.53511 1.68766 7.61841 2.74113 8.28337V9.6247C2.74113 9.87835 3.01616 10.0365 3.23536 9.90888L4.71804 9.04581Z" fill="#161823"/>
<path d="M9.34836 4.92223C9.00085 4.78829 8.61659 4.71393 8.21249 4.71393C6.65475 4.71393 5.39196 5.81887 5.39196 7.18189C5.39196 7.84087 5.66327 8.43953 6.11959 8.88216C7.98187 8.51125 9.37175 7.05348 9.37175 5.31168C9.37175 5.18013 9.36382 5.05019 9.34836 4.92223Z" fill="#161823"/>
</svg>
