<svg width="16" height="16" viewBox="0 0 16 16" fill="none" xmlns="http://www.w3.org/2000/svg">
<path d="M10.0652 1.8556C10.0406 1.38054 9.64757 1.00293 9.16639 1.00293C8.66933 1.00293 8.26639 1.40587 8.26639 1.90293V10.7374C8.26639 11.9025 7.32186 12.8471 6.15673 12.8471C4.9916 12.8471 4.04707 11.9025 4.04707 10.7374C4.04707 9.57227 4.9916 8.62774 6.15673 8.62774C6.65379 8.62774 7.05673 8.2248 7.05673 7.72774C7.05673 7.23068 6.65379 6.82774 6.15673 6.82774C3.99748 6.82774 2.24707 8.57816 2.24707 10.7374C2.24707 12.8966 3.99748 14.6471 6.15673 14.6471C8.31597 14.6471 10.0664 12.8966 10.0664 10.7374V5.62283C10.8735 6.26138 11.8935 6.6426 13.0026 6.6426C13.4996 6.6426 13.9026 6.23966 13.9026 5.7426C13.9026 5.24554 13.4996 4.8426 13.0026 4.8426C11.3811 4.8426 10.0666 3.52813 10.0666 1.90664C10.0666 1.88951 10.0661 1.87249 10.0652 1.8556Z" fill="#161823"/>
</svg>
