<svg width="20" height="20" viewBox="0 0 20 20" fill="none" xmlns="http://www.w3.org/2000/svg">
<path d="M9.46648 14.4942C8.91028 15.6558 9.75698 17 11.0449 17H16.25C17.2165 17 18 16.2165 18 15.25V4.75C18 3.7835 17.2165 3 16.25 3H16.0725C15.399 3 14.7853 3.38648 14.4943 3.99385L9.46648 14.4942Z" fill="#161823"/>
<path d="M3.75 10.3C2.7835 10.3 2 11.0835 2 12.05V15.25C2 16.2165 2.7835 17 3.75 17H5.47999C6.15276 17 6.76597 16.6143 7.05735 16.0079L8.59495 12.8079C9.15318 11.6462 8.30651 10.3 7.01759 10.3H3.75Z" fill="#161823"/>
<path d="M2 4.75C2 3.7835 2.7835 3 3.75 3H10.4527C11.7412 3 12.5878 4.34532 12.0305 5.50702L10.9269 7.80702C10.6357 8.41391 10.0223 8.8 9.34914 8.8H3.75C2.7835 8.8 2 8.0165 2 7.05V4.75Z" fill="#161823"/>
</svg>
