<svg width="24" height="24" viewBox="0 0 24 24" fill="none" xmlns="http://www.w3.org/2000/svg">
<path d="M8.43359 10.814C8.01938 10.814 7.68359 11.1498 7.68359 11.564C7.68359 11.9782 8.01938 12.314 8.43359 12.314H13.8336C14.2478 12.314 14.5836 11.9782 14.5836 11.564C14.5836 11.1498 14.2478 10.814 13.8336 10.814H8.43359Z" fill="#161823"/>
<path d="M7.68359 15.3306C7.68359 14.9164 8.01938 14.5806 8.43359 14.5806H11.6669C12.0811 14.5806 12.4169 14.9164 12.4169 15.3306C12.4169 15.7448 12.0811 16.0806 11.6669 16.0806H8.43359C8.01938 16.0806 7.68359 15.7448 7.68359 15.3306Z" fill="#161823"/>
<path d="M3.68359 4.53027H3.70462C3.85947 3.37302 4.85063 2.48047 6.05026 2.48047H14.3503C15.8598 2.48047 17.0836 3.70422 17.0836 5.2138V5.72424H17.2812C18.9578 5.72424 20.3169 7.08338 20.3169 8.75996V18.4446C20.3169 20.1211 18.9578 21.4803 17.2812 21.4803H6.71931C5.04273 21.4803 3.68359 20.1211 3.68359 18.4446V4.53027ZM8.21693 7.2138H6.05026C5.74434 7.2138 5.45199 7.15576 5.18359 7.05009V18.4446C5.18359 19.2927 5.87116 19.9803 6.71931 19.9803H17.2812C18.1294 19.9803 18.8169 19.2927 18.8169 18.4446V8.75996C18.8169 7.91181 18.1294 7.22424 17.2812 7.22424H8.21693V7.2138ZM5.18359 4.84714C5.18359 5.32578 5.57161 5.7138 6.05026 5.7138H15.5836V5.2138C15.5836 4.53265 15.0314 3.98047 14.3503 3.98047H6.05026C5.57161 3.98047 5.18359 4.36849 5.18359 4.84714Z" fill="#161823"/>
</svg>
