<svg width="20" height="20" viewBox="0 0 20 20" fill="none" xmlns="http://www.w3.org/2000/svg">
<path d="M4.37695 6.94338C4.37695 3.75729 6.96867 1.45825 10.0821 1.45825C13.6814 1.45825 16.1238 3.99867 16.1238 7.08325C16.1238 8.6346 15.8849 9.92697 15.3237 11.0925C14.7634 12.256 13.9042 13.2466 12.7358 14.2284C11.9776 14.8655 11.6299 15.5012 11.2705 16.1584C11.1443 16.3891 11.0168 16.6223 10.8695 16.8593C10.5942 17.302 10.2484 17.7386 9.70261 18.0513C9.15976 18.3622 8.48271 18.5147 7.60262 18.5147C5.65284 18.5147 4.37695 16.732 4.37695 15.1003V6.94338ZM8.15198 6.94339C8.15198 6.37073 8.33381 5.91795 8.64216 5.60973C8.94832 5.30371 9.44463 5.07496 10.2003 5.07496C10.9628 5.07496 11.4979 5.30005 11.8356 5.61131C12.17 5.91952 12.3651 6.36103 12.3651 6.9101C12.3651 7.26908 12.6561 7.5601 13.0151 7.5601C13.374 7.5601 13.6651 7.26908 13.6651 6.9101C13.6651 6.03473 13.344 5.23368 12.7167 4.65543C12.0927 4.08023 11.2204 3.77496 10.2003 3.77496C9.1733 3.77496 8.32045 4.09322 7.72312 4.6903C7.12797 5.28519 6.85198 6.09162 6.85198 6.94339L6.85197 8.12294C6.85195 8.94221 7.5161 9.60625 8.33529 9.60625H10.3866C10.9212 9.60625 11.1889 10.2525 10.8109 10.6305L9.74067 11.7007C9.48683 11.9546 9.48683 12.3661 9.74067 12.62C9.99451 12.8738 10.4061 12.8738 10.6599 12.62L11.7301 11.5498C12.9271 10.3528 12.0794 8.30625 10.3866 8.30625H8.33529C8.234 8.30625 8.15196 8.22417 8.15197 8.12296L8.15198 6.94339Z" fill="#161823"/>
</svg>
