<svg width="16" height="16" viewBox="0 0 16 16" fill="none" xmlns="http://www.w3.org/2000/svg">
<path d="M1.47358 1.47309C1.76647 1.18019 2.24134 1.18019 2.53424 1.47309L4.03622 2.97507C5.12631 2.11392 6.5033 1.59991 8.00034 1.59991C11.535 1.59991 14.4003 4.46529 14.4003 7.99991C14.4003 9.49696 13.8863 10.874 13.0252 11.964L14.5342 13.4731C14.8271 13.766 14.8271 14.2409 14.5342 14.5337C14.268 14.8 13.8515 14.8242 13.5579 14.6065L2.242 3.29062C2.21532 3.26394 2.18712 3.23969 2.15769 3.21787L1.47358 2.53375C1.18068 2.24085 1.18068 1.76598 1.47358 1.47309Z" fill="#161823"/>
<path d="M2.17521 5.34515C1.80604 6.15387 1.60034 7.05287 1.60034 7.99991C1.60034 11.5345 4.46572 14.3999 8.00034 14.3999C8.94739 14.3999 9.84639 14.1942 10.6551 13.8251L2.17521 5.34515Z" fill="#161823"/>
</svg>
