<svg width="24" height="24" viewBox="0 0 24 24" fill="none" xmlns="http://www.w3.org/2000/svg">
<path d="M11.9997 11C14.2088 11 15.9997 8.98528 15.9997 6.5C15.9997 4.01472 14.2088 2 11.9997 2C9.79052 2 7.99966 4.01472 7.99966 6.5C7.99966 8.98528 9.79052 11 11.9997 11Z" fill="#161823"/>
<path d="M18.5629 20.5334C18.2274 20.8689 18.2274 21.4129 18.5629 21.7484C18.8984 22.0839 19.4423 22.0839 19.7778 21.7484L23.1187 18.4075C23.4542 18.072 23.4542 17.528 23.1187 17.1925L19.7778 13.8516C19.4423 13.5161 18.8984 13.5161 18.5629 13.8516C18.2274 14.1871 18.2274 14.7311 18.5629 15.0665L20.4372 16.9409H14.8749C14.4004 16.9409 14.0158 17.3255 14.0158 17.8C14.0158 18.2745 14.4004 18.6591 14.8749 18.6591H20.4372L18.5629 20.5334Z" fill="#161823"/>
<path d="M16.9374 13.6966C16.9727 13.593 16.9288 13.476 16.8281 13.4329C15.4212 12.8304 13.761 12.5 12 12.5C9.6563 12.5 7.49136 13.0852 5.86408 14.1182C4.25055 15.1424 3 16.7372 3 18.7273V19.5C3 20.8807 4.11929 22 5.5 22H16.6799C16.8207 22 16.918 21.8578 16.8835 21.7213C16.7779 21.3038 16.7882 20.863 16.9143 20.45C16.9568 20.3107 16.8589 20.1591 16.7132 20.1591H14.875C13.5721 20.1591 12.5159 19.1029 12.5159 17.8C12.5159 16.4971 13.5721 15.4409 14.875 15.4409H16.7132C16.8589 15.4409 16.9568 15.2893 16.9143 15.1499C16.7697 14.6764 16.7774 14.1663 16.9374 13.6966Z" fill="#161823"/>
</svg>
