<svg width="16" height="16" viewBox="0 0 16 16" fill="none" xmlns="http://www.w3.org/2000/svg">
<path fill-rule="evenodd" clip-rule="evenodd" d="M4.3291 1.59961C3.54878 1.59961 2.84081 2.05456 2.49738 2.78301C2.31503 3.16978 2.09577 3.65784 1.88839 4.17897C1.84019 4.3001 1.79631 4.41439 1.75637 4.5221C1.74205 4.56071 1.72123 4.60503 1.6903 4.66297C1.47059 5.07451 1.34668 5.54942 1.34668 6.05173C1.34668 7.54859 2.47062 8.85294 3.96446 8.85294C4.78198 8.85294 5.49567 8.45527 5.96839 7.85446C6.44928 8.47149 7.1827 8.85294 8.00001 8.85294C8.81751 8.85294 9.53118 8.4553 10.0039 7.85451C10.4848 8.47157 11.2183 8.85294 12.0356 8.85294C13.5294 8.85294 14.6533 7.54859 14.6533 6.05173C14.6533 5.56295 14.536 5.10009 14.3273 4.69633C14.3045 4.6523 14.2879 4.61702 14.2755 4.58581C14.2215 4.45008 14.1597 4.30509 14.089 4.15084L13.4984 2.86205C13.1534 2.10928 12.4283 1.59961 11.5994 1.59961H4.3291ZM3.5828 3.29474C3.73424 2.97353 4.02743 2.79961 4.3291 2.79961H11.5994C11.917 2.79961 12.2398 2.9961 12.4075 3.362L12.9981 4.65081C13.0605 4.78687 13.1142 4.91307 13.1605 5.02937C13.1929 5.11087 13.2287 5.18447 13.2613 5.24746C13.3824 5.48176 13.4533 5.75573 13.4533 6.05173C13.4533 6.98627 12.7705 7.65294 12.0356 7.65294C11.5174 7.65294 11.0527 7.36511 10.8041 6.88911L10.7244 6.71519C10.4446 6.10483 9.59971 6.09881 9.30882 6.69714L9.22473 6.85797L9.22407 6.85924C8.96726 7.35327 8.50161 7.65294 8.00001 7.65294C7.48192 7.65294 7.01721 7.3651 6.76859 6.88909L6.68889 6.71519C6.40916 6.10487 5.56435 6.09881 5.27341 6.69701L5.18933 6.85768L5.18855 6.85916C4.93175 7.35324 4.46608 7.65294 3.96446 7.65294C3.22952 7.65294 2.54668 6.98627 2.54668 6.05173C2.54668 5.74756 2.62155 5.46663 2.74889 5.22811C2.79204 5.14728 2.8406 5.04962 2.88149 4.93935C2.91805 4.84076 2.95853 4.73528 3.00335 4.62267C3.1991 4.13077 3.40767 3.6662 3.5828 3.29474Z" fill="#161823"/>
<path d="M13.5494 10.2682C13.5945 9.93988 13.365 9.63719 13.0367 9.59208C12.7084 9.54698 12.4057 9.77654 12.3606 10.1048L12.0094 12.6608C11.9911 12.7427 11.9181 12.8694 11.7198 12.9901C11.5182 13.1128 11.2282 13.1998 10.8923 13.1998H5.06932C4.72971 13.1998 4.43751 13.1109 4.23596 12.9865C4.03699 12.8637 3.96705 12.7362 3.95093 12.655L3.64046 10.1137C3.60027 9.78481 3.30105 9.55074 2.97212 9.59093C2.6432 9.63111 2.40913 9.93034 2.44931 10.2593L2.76166 12.8158C2.76261 12.8236 2.76371 12.8313 2.76496 12.839C2.84939 13.3602 3.19891 13.7566 3.60568 14.0077C4.01645 14.2612 4.53155 14.3998 5.06932 14.3998H10.8923C11.4245 14.3998 11.9348 14.264 12.3437 14.0152C12.7485 13.7688 13.0981 13.3802 13.1917 12.8673C13.1933 12.8587 13.1947 12.85 13.1959 12.8412L13.5494 10.2682Z" fill="#161823"/>
</svg>
