<svg width="20" height="20" viewBox="0 0 20 20" fill="none" xmlns="http://www.w3.org/2000/svg">
<path d="M15.6673 7.16667C17.2321 7.16667 18.5007 5.89814 18.5007 4.33333C18.5007 2.76853 17.2321 1.5 15.6673 1.5C14.1025 1.5 12.834 2.76853 12.834 4.33333C12.834 5.89814 14.1025 7.16667 15.6673 7.16667Z" fill="#161823"/>
<path d="M17.4173 13.6663V8.29845C16.9542 8.50311 16.4486 8.62903 15.9173 8.65925V13.6663C15.9173 14.909 14.91 15.9163 13.6673 15.9163H6.33398C5.09134 15.9163 4.08398 14.909 4.08398 13.6663V6.33301C4.08398 5.09037 5.09134 4.08301 6.33398 4.08301H11.3411C11.3713 3.55174 11.4972 3.04608 11.7019 2.58301H6.33398C4.26292 2.58301 2.58398 4.26194 2.58398 6.33301V13.6663C2.58398 15.7374 4.26292 17.4163 6.33398 17.4163H13.6673C15.7384 17.4163 17.4173 15.7374 17.4173 13.6663Z" fill="#161823"/>
</svg>
