<svg width="20" height="20" viewBox="0 0 20 20" fill="none" xmlns="http://www.w3.org/2000/svg">
<path d="M12.0587 2.90967C12.0587 2.49545 12.3945 2.15967 12.8087 2.15967C14.137 2.15967 15.4109 2.68733 16.3502 3.62658C17.2894 4.56582 17.8171 5.83971 17.8171 7.168C17.8171 7.58221 17.4813 7.918 17.0671 7.918C16.6528 7.918 16.3171 7.58221 16.3171 7.168C16.3171 6.23753 15.9474 5.34518 15.2895 4.68724C14.6315 4.0293 13.7392 3.65967 12.8087 3.65967C12.3945 3.65967 12.0587 3.32388 12.0587 2.90967Z" fill="#161823"/>
<path fill-rule="evenodd" clip-rule="evenodd" d="M2.96816 6.15448C1.89422 7.22842 1.89422 8.96963 2.96817 10.0436L9.95674 17.0321C11.0307 18.1061 12.7719 18.1061 13.8458 17.0321L17.016 13.8619C18.09 12.788 18.09 11.0468 17.016 9.97286L10.0274 2.98429C8.95351 1.91034 7.2123 1.91034 6.13836 2.98428L2.96816 6.15448ZM4.02883 8.98291C3.54067 8.49475 3.54067 7.7033 4.02883 7.21514L4.21343 7.03053C4.60481 7.31952 5.15917 7.28679 5.51363 6.93233L6.92784 5.51811C7.2823 5.16365 7.31503 4.6093 7.02604 4.21792L7.19902 4.04495C7.68718 3.55679 8.47863 3.55679 8.96679 4.04495L15.9554 11.0335C16.4435 11.5217 16.4435 12.3131 15.9554 12.8013L12.7852 15.9715C12.297 16.4596 11.5056 16.4596 11.0174 15.9715L4.02883 8.98291Z" fill="#161823"/>
<path d="M2.14355 12.8249C2.14355 12.4107 2.47934 12.0749 2.89355 12.0749C3.30777 12.0749 3.64355 12.4106 3.64355 12.8249C3.64356 13.7553 4.01318 14.6477 4.67112 15.3056C5.32906 15.9636 6.22142 16.3332 7.15189 16.3332C7.5661 16.3332 7.90189 16.669 7.90189 17.0832C7.90189 17.4974 7.5661 17.8332 7.15189 17.8332C5.8236 17.8332 4.54971 17.3055 3.61046 16.3663C2.67122 15.427 2.14355 14.1532 2.14355 12.8249Z" fill="#161823"/>
</svg>
