<svg width="24" height="24" viewBox="0 0 24 24" fill="none" xmlns="http://www.w3.org/2000/svg">
<path d="M3.27043 11.8169C3.64814 11.414 4.28097 11.3935 4.68391 11.7712L12 18.6293L19.3161 11.7712C19.719 11.3935 20.3519 11.414 20.7296 11.8169C21.1073 12.2198 21.0868 12.8527 20.6839 13.2304L12.6839 20.7296C12.2993 21.0902 11.7007 21.0902 11.3161 20.7296L3.3161 13.2304C2.91317 12.8527 2.89272 12.2198 3.27043 11.8169Z" fill="#161823"/>
<path d="M3.27025 3.31629C3.64785 2.91326 4.28068 2.89265 4.68371 3.27025L12 10.1249L19.3164 3.27025C19.7194 2.89265 20.3522 2.91326 20.7298 3.3163C21.1074 3.71933 21.0868 4.35216 20.6838 4.72976L12.6837 12.225C12.2991 12.5853 11.7009 12.5853 11.3163 12.225L3.31629 4.72976C2.91326 4.35215 2.89265 3.71933 3.27025 3.31629Z" fill="#161823"/>
</svg>
