<svg width="20" height="20" viewBox="0 0 20 20" fill="none" xmlns="http://www.w3.org/2000/svg">
<path d="M15.1456 2.82782C14.8829 2.62306 14.4997 2.81023 14.4997 3.1433V4.2492H5.83152C4.0366 4.2492 2.58152 5.70428 2.58152 7.4992V8.4367C2.58152 8.85091 2.91731 9.1867 3.33152 9.1867C3.74573 9.1867 4.08152 8.85091 4.08152 8.4367V7.4992C4.08152 6.5327 4.86502 5.7492 5.83152 5.7492L14.4997 5.7492V6.85834C14.4997 7.1914 14.8829 7.37858 15.1456 7.17381L17.5285 5.31629C17.7339 5.15614 17.7339 4.84549 17.5285 4.68534L15.1456 2.82782Z" fill="#161823"/>
<path d="M17.2495 12.4906C17.2495 14.2855 15.7944 15.7406 13.9995 15.7406H5.4912V16.8414C5.4912 17.1744 5.10806 17.3616 4.84537 17.1569L2.46275 15.3006C2.2572 15.1405 2.2572 14.8297 2.46275 14.6696L4.84537 12.8133C5.10806 12.6086 5.4912 12.7958 5.4912 13.1288V14.2406H13.9995C14.966 14.2406 15.7495 13.4571 15.7495 12.4906V11.5531C15.7495 11.1389 16.0853 10.8031 16.4995 10.8031C16.9137 10.8031 17.2495 11.1389 17.2495 11.5531V12.4906Z" fill="#161823"/>
<path d="M9.71964 12.0707C9.71964 12.515 9.9589 12.7787 10.3691 12.7787C10.7841 12.7787 11.0234 12.5199 11.0234 12.0707L11.0234 8.04161C11.0234 7.54844 10.706 7.2213 10.2324 7.2213C9.95893 7.2213 9.68061 7.31895 9.32905 7.55821L8.734 7.98301C8.48498 8.14903 8.35802 8.32969 8.35802 8.53477C8.35802 8.80333 8.55822 9.00352 8.82677 9.00352C8.96838 9.00352 9.09045 8.95958 9.30041 8.82286L9.69038 8.53477H9.71968L9.71964 12.0707Z" fill="#161823"/>
</svg>
