<svg width="20" height="20" viewBox="0 0 20 20" fill="none" xmlns="http://www.w3.org/2000/svg">
<path d="M17.9957 8.63144C17.093 9.72282 15.9672 10.0691 14.0357 9.97858C14.0174 7.7864 12.2285 6.01468 10.0236 6.01252C9.92516 4.05152 10.268 2.91446 11.3685 2.00428C12.3522 1.18996 14.0061 0.98674 15.1587 2.13927C15.6738 2.65444 15.9468 3.32457 15.9816 4.01801C16.675 4.05279 17.3455 4.3261 17.8607 4.84126C19.0132 5.99379 18.81 7.64768 17.9957 8.63144Z" fill="#161823"/>
<path d="M10.1807 14.0094C10.1282 14.0114 10.0754 14.0125 10.0224 14.0125C9.92808 15.9583 10.2727 17.0896 11.3685 17.9959C12.3522 18.8102 14.0061 19.0134 15.1587 17.8609C15.6738 17.3457 15.9468 16.6756 15.9816 15.9822C16.675 15.9474 17.3455 15.6741 17.8607 15.1589C19.0132 14.0064 18.81 12.3525 17.9957 11.3687C17.093 10.2774 15.9672 9.93111 14.0358 10.0216C14.031 12.1728 12.3211 13.9252 10.1807 14.0094Z" fill="#161823"/>
<path d="M9.85837 14.0094C7.71858 13.9252 6.00906 12.1738 6.00332 10.0234C4.04796 9.92649 2.91304 10.27 2.00428 11.3687C1.18996 12.3525 0.986741 14.0064 2.13928 15.1589C2.65444 15.6741 3.32457 15.947 4.01801 15.9818C4.05279 16.6752 4.3261 17.3457 4.84126 17.8609C5.99379 19.0134 7.64768 18.8102 8.63144 17.9959C9.72726 17.0896 10.0719 15.9582 9.97746 14.0123C9.93762 14.0119 9.89792 14.0109 9.85837 14.0094Z" fill="#161823"/>
<path d="M6.00346 9.97702C6.02247 7.7986 7.78994 6.03576 9.97624 6.01275C10.0748 4.05171 9.73188 2.91467 8.63144 2.0045C7.64768 1.19019 5.99379 0.986968 4.84126 2.1395C4.3261 2.65466 4.05279 3.32516 4.01801 4.01859C3.32457 4.05338 2.65444 4.32632 2.13927 4.84149C0.98674 5.99402 1.18996 7.64791 2.00428 8.63167C2.91306 9.73043 4.04801 10.0739 6.00346 9.97702Z" fill="#161823"/>
<path d="M7.5 10C7.5 11.3807 8.61929 12.5 10 12.5C11.3807 12.5 12.5 11.3807 12.5 10C12.5 8.61929 11.3807 7.5 10 7.5C8.61929 7.5 7.5 8.61929 7.5 10Z" fill="#161823"/>
</svg>
