<svg width="20" height="20" viewBox="0 0 20 20" fill="none" xmlns="http://www.w3.org/2000/svg">
<path fill-rule="evenodd" clip-rule="evenodd" d="M11.4049 5.97464C11.1857 5.38849 10.6257 5 9.99993 5C9.37415 5 8.81412 5.38849 8.59494 5.97464L8.19175 7.05292L7.04166 7.10317C6.41647 7.13049 5.87393 7.54306 5.68055 8.13821C5.48717 8.73337 5.68359 9.38604 6.17332 9.77562L7.07423 10.4923L6.76663 11.6016C6.59941 12.2047 6.82414 12.8481 7.33041 13.216C7.83668 13.5838 8.5181 13.5987 9.03995 13.2533L9.99993 12.6179L10.9599 13.2533C11.4818 13.5987 12.1632 13.5838 12.6695 13.216C13.1757 12.8481 13.4005 12.2047 13.2332 11.6016L12.9256 10.4923L13.8265 9.77562C14.3163 9.38604 14.5127 8.73337 14.3193 8.13821C14.1259 7.54306 13.5834 7.13049 12.9582 7.10317L11.8081 7.05292L11.4049 5.97464ZM8.78496 9.93644L7.10714 8.60174L9.24904 8.50815L9.99993 6.5L10.7508 8.50815L12.8927 8.60174L11.2149 9.93644L11.7878 12.0024L9.99993 10.8192L8.21209 12.0024L8.78496 9.93644Z" fill="#161823"/>
<path fill-rule="evenodd" clip-rule="evenodd" d="M4.25 2.5C2.73122 2.5 1.5 3.73122 1.5 5.25V13.25C1.5 14.7688 2.73122 16 4.25 16H5.98337V17.1351C5.98337 18.2998 7.35936 18.9179 8.23004 18.1443L10.6434 16H15.75C17.2688 16 18.5 14.7688 18.5 13.25V5.25C18.5 3.73122 17.2688 2.5 15.75 2.5H4.25ZM3 5.25C3 4.55964 3.55964 4 4.25 4H15.75C16.4404 4 17 4.55964 17 5.25V13.25C17 13.9404 16.4404 14.5 15.75 14.5H10.6434C10.2762 14.5 9.92167 14.6348 9.64712 14.8787L7.48337 16.8012V15.25C7.48337 14.8358 7.14758 14.5 6.73337 14.5H4.25C3.55964 14.5 3 13.9404 3 13.25V5.25Z" fill="#161823"/>
</svg>
