<svg width="16" height="16" viewBox="0 0 16 16" fill="none" xmlns="http://www.w3.org/2000/svg">
<path d="M11.2169 6.29376C11.4528 5.95326 11.368 5.48602 11.0275 5.25015C10.687 5.01428 10.2197 5.0991 9.98387 5.43959L7.21384 9.43832L5.92794 8.16579C5.63352 7.87443 5.15866 7.87691 4.8673 8.17133C4.57594 8.46575 4.57842 8.94062 4.87284 9.23198L6.76571 11.1052C7.11184 11.4477 7.68333 11.3947 7.96063 10.9944L11.2169 6.29376Z" fill="#161823"/>
<path fill-rule="evenodd" clip-rule="evenodd" d="M15 8C15 11.866 11.866 15 8 15C4.13401 15 1 11.866 1 8C1 4.13401 4.13401 1 8 1C11.866 1 15 4.13401 15 8ZM13.8 8C13.8 11.2033 11.2033 13.8 8 13.8C4.79675 13.8 2.2 11.2033 2.2 8C2.2 4.79675 4.79675 2.2 8 2.2C11.2033 2.2 13.8 4.79675 13.8 8Z" fill="#161823"/>
</svg>
