<svg width="24" height="24" viewBox="0 0 24 24" fill="none" xmlns="http://www.w3.org/2000/svg">
<path fill-rule="evenodd" clip-rule="evenodd" d="M17.1217 4.86688L17.1215 4.8677L14.2647 14.947L14.2645 14.9477C14.1182 15.466 13.6489 15.8424 13.0945 15.8424H12.4945V15.838H11.2616C10.4272 15.838 9.87735 15.0275 10.091 14.2611L10.0913 14.2599L12.7622 4.83783C12.8708 4.44556 13.1689 4.13024 13.559 4.00192L13.5602 4.00151L15.5805 3.34683C16.5402 3.03512 17.383 3.95066 17.1217 4.86688ZM13.1008 14.638C13.1039 14.6348 13.1074 14.6295 13.1097 14.6216L13.1098 14.6212L15.9675 4.53848L15.9677 4.53782C15.9701 4.5296 15.9705 4.52401 15.9705 4.52062C15.9705 4.51711 15.9701 4.51409 15.9693 4.51128C15.9676 4.50519 15.9639 4.49838 15.9583 4.49273C15.9558 4.49022 15.9537 4.48869 15.9522 4.4878C15.9519 4.4879 15.9515 4.48802 15.9511 4.48816L15.9509 4.48823L13.9339 5.14185L13.9335 5.14198C13.9304 5.14308 13.9273 5.14497 13.9245 5.14791C13.9216 5.15104 13.9197 5.15459 13.9187 5.15809L13.918 5.16057L11.2469 14.5833L11.2467 14.584C11.2435 14.5958 11.2438 14.6045 11.2451 14.611C11.2465 14.6186 11.2496 14.6255 11.2535 14.6308C11.2568 14.6353 11.2595 14.6373 11.2605 14.638L11.2608 14.638L11.2611 14.638C11.2612 14.638 11.2614 14.638 11.2616 14.638H13.1008Z" fill="#161823"/>
<path fill-rule="evenodd" clip-rule="evenodd" d="M11.1377 8.09446L11.1379 8.09379C11.3869 7.20678 10.5831 6.2731 9.61961 6.59132L7.68845 7.22986L7.68752 7.23017C7.30146 7.35922 7.01166 7.67433 6.90666 8.0599L5.16494 14.3123L5.16462 14.3135C4.96014 15.0591 5.48379 15.8731 6.31573 15.8731H8.06584C8.61749 15.8731 9.07504 15.4931 9.21636 14.9842L11.1377 8.09446ZM9.97338 7.72783C9.97338 7.72783 9.97345 7.72786 9.97356 7.72794C9.97344 7.72787 9.97338 7.72783 9.97338 7.72783ZM9.9841 7.74449C9.98329 7.74149 9.982 7.73856 9.98041 7.73591L8.06863 8.36805C8.06847 8.36818 8.06823 8.3684 8.06793 8.36872C8.06668 8.37006 8.06529 8.37224 8.06448 8.37525L8.06384 8.37761L6.3219 14.6308L6.32173 14.6314C6.31874 14.6427 6.31904 14.651 6.3202 14.6572C6.32141 14.6637 6.32381 14.6692 6.32636 14.6731H8.05579C8.05716 14.671 8.05881 14.6678 8.06011 14.6631L8.06023 14.6626L9.9824 7.77016L9.98258 7.76952C9.98477 7.76172 9.98518 7.7564 9.98519 7.75316C9.9852 7.7498 9.98478 7.747 9.9841 7.74449Z" fill="#161823"/>
<path fill-rule="evenodd" clip-rule="evenodd" d="M5.46086 11.1883L5.46113 11.1873C5.58164 10.7434 5.44856 10.3052 5.17091 10.0121C4.89064 9.71615 4.4419 9.55292 3.97806 9.71116L2.15523 10.3338L2.15427 10.3341C1.77398 10.4654 1.49852 10.7818 1.39981 11.156L0.543203 14.3289L0.542879 14.3302C0.354576 15.0395 0.831096 15.865 1.66312 15.865H3.31884C3.86888 15.865 4.30599 15.4755 4.43851 14.9826L5.46086 11.1883ZM2.55971 11.4637L4.30427 10.8678C4.30419 10.8682 4.30411 10.8686 4.30401 10.869C4.30396 10.8693 4.3039 10.8695 4.30383 10.8698L4.30367 10.8705C4.30354 10.871 4.3034 10.8716 4.30325 10.8722C4.30318 10.8724 4.3031 10.8727 4.30302 10.873L4.30281 10.8738L3.2813 14.665H1.70104C1.69987 14.6581 1.69983 14.6493 1.70254 14.6387L2.5595 11.4645L2.55971 11.4637Z" fill="#161823"/>
<path fill-rule="evenodd" clip-rule="evenodd" d="M5.81569 17.5262C4.80511 17.5262 3.993 18.3456 3.993 19.3489C3.993 20.3595 4.81237 21.1716 5.81569 21.1716C6.82486 21.1716 7.63838 20.3581 7.63838 19.3489C7.63838 18.3383 6.81901 17.5262 5.81569 17.5262ZM5.193 19.3489C5.193 19.0055 5.47068 18.7262 5.81569 18.7262C6.1591 18.7262 6.43838 19.0039 6.43838 19.3489C6.43838 19.6954 6.16212 19.9716 5.81569 19.9716C5.47228 19.9716 5.193 19.6939 5.193 19.3489Z" fill="#161823"/>
<path fill-rule="evenodd" clip-rule="evenodd" d="M12.1037 19.3495C12.1037 18.3461 12.9159 17.5268 13.9264 17.5268C14.9298 17.5268 15.7491 18.3389 15.7491 19.3495C15.7491 20.36 14.9298 21.1721 13.9264 21.1721C12.9231 21.1721 12.1037 20.36 12.1037 19.3495ZM13.9264 18.7268C13.5814 18.7268 13.3038 19.006 13.3038 19.3495C13.3038 19.6945 13.583 19.9721 13.9264 19.9721C14.2699 19.9721 14.5491 19.6945 14.5491 19.3495C14.5491 19.0044 14.2699 18.7268 13.9264 18.7268Z" fill="#161823"/>
<path d="M17.9974 9.18123H20.4685C20.7666 9.18123 21.007 8.89424 21.007 8.53838C21.007 8.18251 20.7666 7.89552 20.4685 7.89552H17.9974C17.6994 7.89552 17.459 8.18251 17.459 8.53838C17.459 8.89424 17.6994 9.18123 17.9974 9.18123Z" fill="#161823"/>
<path d="M23.8126 11.8648C23.8126 12.2207 23.5766 12.5077 23.2841 12.5077H17.0553C16.7628 12.5077 16.5269 12.2207 16.5269 11.8648C16.5269 11.509 16.7628 11.222 17.0553 11.222H23.2841C23.5766 11.222 23.8126 11.509 23.8126 11.8648Z" fill="#161823"/>
<path d="M15.7817 15.8576H19.0171C19.3152 15.8576 19.5556 15.5706 19.5556 15.2147C19.5556 14.8588 19.3152 14.5719 19.0171 14.5719H15.7817C15.4836 14.5719 15.2432 14.8588 15.2432 15.2147C15.2432 15.5706 15.4836 15.8576 15.7817 15.8576Z" fill="#161823"/>
</svg>
