<svg width="16" height="16" viewBox="0 0 16 16" fill="none" xmlns="http://www.w3.org/2000/svg">
<path d="M11.6159 0.709853L5.87134 1.61719C5.0995 1.7391 4.53104 2.4044 4.53104 3.18581L4.53089 10.2087C4.53089 10.5434 4.29269 10.8306 3.96382 10.8926L3.96593 10.8944L2.79261 11.1144C1.98479 11.2659 1.39941 11.9712 1.39941 12.7931C1.39941 13.863 2.37177 14.6695 3.42317 14.4716L3.87311 14.387C4.85992 14.2013 5.57476 13.3394 5.57476 12.3353L5.57473 5.14795L11.4898 4.21557V8.01446C11.52 8.01377 11.5503 8.01343 11.5807 8.01343C11.9094 8.01343 12.2287 8.05411 12.5337 8.13071L12.5338 1.49416C12.5338 1.00623 12.0978 0.633728 11.6159 0.709853Z" fill="#161823"/>
<path fill-rule="evenodd" clip-rule="evenodd" d="M11.5807 8.91333C9.92381 8.91333 8.58066 10.2565 8.58066 11.9133C8.58066 13.5702 9.92381 14.9133 11.5807 14.9133C13.2375 14.9133 14.5807 13.5702 14.5807 11.9133C14.5807 10.2565 13.2375 8.91333 11.5807 8.91333ZM11.5803 10.0129C11.8012 10.0129 11.9803 10.192 11.9803 10.4129V11.5129H13.0803C13.3012 11.5129 13.4803 11.692 13.4803 11.9129C13.4803 12.1339 13.3012 12.3129 13.0803 12.3129L11.5803 12.3129C11.3594 12.3129 11.1803 12.1339 11.1803 11.9129V10.4129C11.1803 10.192 11.3594 10.0129 11.5803 10.0129Z" fill="#161823"/>
</svg>
