<svg width="12" height="12" viewBox="0 0 12 12" fill="none" xmlns="http://www.w3.org/2000/svg">
<path fill-rule="evenodd" clip-rule="evenodd" d="M6.00001 0.5C4.30307 0.5 2.92743 1.87564 2.92743 3.57258V5.00259C2.40902 5.03977 2 5.47212 2 6V10C2 10.5523 2.44772 11 3 11H9C9.55228 11 10 10.5523 10 10V6C10 5.47213 9.59099 5.03978 9.07259 5.00259V3.57258C9.07259 1.87564 7.69695 0.5 6.00001 0.5ZM7.57259 5V3.57258C7.57259 2.70407 6.86852 2 6.00001 2C5.1315 2 4.42743 2.70407 4.42743 3.57258V5H7.57259Z" fill="#161823"/>
</svg>
