<svg width="24" height="24" viewBox="0 0 24 24" fill="none" xmlns="http://www.w3.org/2000/svg">
<path d="M2 5.75C2 4.23122 3.23122 3 4.75 3H8.36091C9.09026 3 9.78973 3.28973 10.3055 3.80546L11.1945 4.69454C11.7103 5.21027 12.4097 5.5 13.1391 5.5H19.25C20.7688 5.5 22 6.73122 22 8.25V12.2322C21.5307 11.9876 21.0278 11.7986 20.5 11.6739V10.5H3.5V18.25C3.5 18.9404 4.05964 19.5 4.75 19.5H12.6739C12.7986 20.0278 12.9876 20.5307 13.2322 21H4.75C3.23122 21 2 19.7688 2 18.25V5.75ZM20.5 9V8.25C20.5 7.55964 19.9404 7 19.25 7H13.1391C12.0119 7 10.9309 6.55223 10.1339 5.7552L9.2448 4.86612C9.01038 4.6317 8.69243 4.5 8.36091 4.5H4.75C4.05964 4.5 3.5 5.05964 3.5 5.75V9H20.5Z" fill="#161823"/>
<path d="M24 18C24 20.7614 21.7614 23 19 23C16.2386 23 14 20.7614 14 18C14 15.2386 16.2386 13 19 13C21.7614 13 24 15.2386 24 18ZM19.5 15.75C19.5 15.4739 19.2761 15.25 19 15.25C18.7239 15.25 18.5 15.4739 18.5 15.75V17.5H16.75C16.4739 17.5 16.25 17.7239 16.25 18C16.25 18.2761 16.4739 18.5 16.75 18.5H18.5V20.25C18.5 20.5261 18.7239 20.75 19 20.75C19.2761 20.75 19.5 20.5261 19.5 20.25V18.5H21.25C21.5261 18.5 21.75 18.2761 21.75 18C21.75 17.7239 21.5261 17.5 21.25 17.5H19.5V15.75Z" fill="#161823"/>
</svg>
