<svg width="16" height="16" viewBox="0 0 16 16" fill="none" xmlns="http://www.w3.org/2000/svg">
<path d="M7.99967 14.6667C11.6816 14.6667 14.6663 11.6819 14.6663 8.00001C14.6663 4.31811 11.6816 1.33334 7.99967 1.33334C4.31778 1.33334 1.33301 4.31811 1.33301 8.00001C1.33301 11.6819 4.31778 14.6667 7.99967 14.6667ZM7.99955 4.33334C8.36774 4.33334 8.66622 4.63182 8.66622 5.00001V7.33334H10.9996C11.3677 7.33334 11.6662 7.63182 11.6662 8.00001C11.6662 8.3682 11.3677 8.66668 10.9996 8.66668H8.66622V11C8.66622 11.3682 8.36774 11.6667 7.99955 11.6667C7.63136 11.6667 7.33289 11.3682 7.33289 11V8.66668H4.99955C4.63136 8.66668 4.33289 8.3682 4.33289 8.00001C4.33289 7.63182 4.63136 7.33334 4.99955 7.33334H7.33289V5.00001C7.33289 4.63182 7.63136 4.33334 7.99955 4.33334Z" fill="#161823"/>
</svg>
