<svg width="20" height="20" viewBox="0 0 20 20" fill="none" xmlns="http://www.w3.org/2000/svg">
<path d="M4.5834 12.2437V14.6667C4.5834 15.0809 4.91918 15.4167 5.3334 15.4167H7.7564L9.46972 17.13C9.76262 17.4229 10.2375 17.4229 10.5304 17.13L12.2437 15.4167H14.6667C15.0809 15.4167 15.4167 15.0809 15.4167 14.6667V12.2437L17.13 10.5304C17.4229 10.2375 17.4229 9.76262 17.13 9.46973L15.4167 7.75641V5.33339C15.4167 4.91917 15.0809 4.58339 14.6667 4.58339H12.2437L10.5304 2.87006C10.2375 2.57717 9.76262 2.57717 9.46973 2.87006L7.7564 4.58339H5.3334C4.91918 4.58339 4.5834 4.91917 4.5834 5.33339V7.75639L2.87006 9.46972C2.57717 9.76262 2.57717 10.2375 2.87006 10.5304L4.5834 12.2437ZM1.98618 11.4143C1.20513 10.6332 1.20513 9.36689 1.98618 8.58584L3.3334 7.23862V5.33339C3.3334 4.22882 4.22883 3.33339 5.3334 3.33339H7.23863L8.58584 1.98618C9.36689 1.20513 10.6332 1.20513 11.4143 1.98618L12.7615 3.33339H14.6667C15.7713 3.33339 16.6667 4.22882 16.6667 5.33339V7.23864L18.0139 8.58584C18.795 9.36689 18.795 10.6332 18.0139 11.4143L16.6667 12.7615V14.6667C16.6667 15.7713 15.7713 16.6667 14.6667 16.6667H12.7615L11.4143 18.0139C10.6332 18.795 9.36689 18.795 8.58584 18.0139L7.23863 16.6667H5.3334C4.22883 16.6667 3.3334 15.7713 3.3334 14.6667V12.7615L1.98618 11.4143Z" fill="#161823"/>
</svg>
