<svg width="20" height="20" viewBox="0 0 20 20" fill="none" xmlns="http://www.w3.org/2000/svg">
<path d="M9.99216 10.0085L10.8491 6.81046C10.8777 6.70359 10.8142 6.59319 10.7058 6.57101C10.478 6.52438 10.2421 6.49989 10.0004 6.49989C8.06742 6.49989 6.50042 8.0669 6.50042 9.99989C6.50042 11.9329 8.06742 13.4999 10.0004 13.4999C11.9334 13.4999 13.5004 11.9329 13.5004 9.99989C13.5004 9.75839 13.476 9.52261 13.4294 9.29488C13.4072 9.18648 13.2968 9.12298 13.1899 9.15162L9.99216 10.0085Z" fill="#161823"/>
<path fill-rule="evenodd" clip-rule="evenodd" d="M10.0004 2.96655C14.3437 2.96655 17.994 5.93321 19.0356 9.95069C19.044 9.98289 19.044 10.0169 19.0356 10.0491C17.994 14.0666 14.3437 17.0332 10.0004 17.0332C5.6572 17.0332 2.00686 14.0666 0.965246 10.0491C0.956897 10.0169 0.956897 9.98286 0.965246 9.95066C2.00686 5.9332 5.6572 2.96655 10.0004 2.96655ZM10.0004 15.5332C6.47611 15.5332 3.49221 13.2045 2.50977 9.99988C3.49221 6.79529 6.47611 4.46655 10.0004 4.46655C13.5248 4.46655 16.5087 6.7953 17.4911 9.9999C16.5087 13.2045 13.5248 15.5332 10.0004 15.5332Z" fill="#161823"/>
</svg>
