<svg width="20" height="20" viewBox="0 0 20 20" fill="none" xmlns="http://www.w3.org/2000/svg">
<path fill-rule="evenodd" clip-rule="evenodd" d="M5 1.00067C4.58579 1.00067 4.25 1.33646 4.25 1.75067C4.25 2.16488 4.58579 2.50067 5 2.50067H15C15.4142 2.50067 15.75 2.16488 15.75 1.75067C15.75 1.33646 15.4142 1.00067 15 1.00067H5ZM10.5186 3.74098C10.2259 3.44954 9.75274 3.44954 9.4601 3.74099L7.12611 6.06545L3.03033 1.96967C2.73744 1.67678 2.26256 1.67678 1.96967 1.96967C1.67678 2.26256 1.67678 2.73744 1.96967 3.03033L6.06329 7.12395L6.0626 7.12463L7.12327 8.18529L7.12395 8.18461L11.5033 12.564V12.5653L13.0033 14.0653V14.0639L16.9697 18.0303C17.2626 18.3232 17.7374 18.3232 18.0303 18.0303C18.3232 17.7374 18.3232 17.2626 18.0303 16.9697L13.1289 12.0682H16.0553C17.0958 12.0682 17.6158 10.8092 16.8785 10.0749L10.5186 3.74098ZM13.0033 16.1866L11.5033 14.6866L11.5033 17.5081H8.47544L8.47548 11.6588L7.38487 10.5682H4.73058L6.06044 9.24378L4.99978 8.18312L3.10024 10.0749C2.36297 10.8092 2.88297 12.0682 3.92351 12.0682H6.97548L6.97544 18.2581C6.97544 18.457 7.05445 18.6478 7.19511 18.7884C7.33576 18.9291 7.52652 19.0081 7.72544 19.0081H12.2533C12.6675 19.0081 13.0033 18.6723 13.0033 18.2581L13.0033 16.1866ZM8.18678 7.12612L11.7895 10.7288C11.9171 10.6282 12.0782 10.5682 12.2533 10.5682H15.2482L9.98935 5.3309L8.18678 7.12612Z" fill="#161823"/>
</svg>
