<svg width="20" height="20" viewBox="0 0 20 20" fill="none" xmlns="http://www.w3.org/2000/svg">
<path d="M13.6376 16.9198C13.0142 18.0682 12.3095 18.7499 11.6667 18.7499H8.33338C7.69065 18.7499 6.98597 18.0683 6.36269 16.9201C5.87494 17.2901 5.4097 17.8865 5.12582 18.5145C4.84328 19.1647 4.14369 19.5286 3.44856 19.386C2.75092 19.2428 2.25014 18.6288 2.25014 17.9166C2.24928 16.4939 2.15209 14.9638 2.77348 13.6431C3.1881 12.7619 3.8742 12.0808 4.74159 11.3404C4.63983 10.5106 4.58338 9.6415 4.58338 8.74984C4.58338 7.24311 5.43513 5.50333 6.41637 4.19314C6.91887 3.52218 7.49087 2.91514 8.07177 2.46702C8.62528 2.04003 9.30361 1.6665 10 1.6665C10.6965 1.6665 11.3748 2.04004 11.9283 2.46702C12.5092 2.91515 13.0812 3.52218 13.5837 4.19314C14.565 5.50333 15.4167 7.24311 15.4167 8.74984C15.4167 9.6415 15.3603 10.5106 15.2585 11.3403C16.1259 12.0808 16.812 12.7619 17.2267 13.6431C17.8479 14.9633 17.7509 16.4929 17.75 17.9151C17.75 18.6273 17.2493 19.2412 16.5518 19.3845C15.8567 19.5272 15.1571 19.1634 14.8745 18.5133C14.5961 17.898 14.178 17.3296 13.6376 16.9198ZM10 10.4166C11.1506 10.4166 12.0834 9.48381 12.0834 8.33322C12.0834 7.18263 11.1506 6.24989 10 6.24989C8.84945 6.24989 7.91671 7.18263 7.91671 8.33322C7.91671 9.48381 8.84945 10.4166 10 10.4166Z" fill="#161823"/>
</svg>
