<svg width="16" height="16" viewBox="0 0 16 16" fill="none" xmlns="http://www.w3.org/2000/svg">
<g clip-path="url(#clip0_7_1286)">
<path d="M2.49414 2.94457C2.49414 2.69604 2.69561 2.49457 2.94414 2.49457H4.87186C5.28607 2.49457 5.62186 2.15878 5.62186 1.74457C5.62186 1.33035 5.28607 0.994568 4.87186 0.994568H2.94414C1.86719 0.994568 0.994141 1.86761 0.994141 2.94457V4.87229C0.994141 5.2865 1.32993 5.62229 1.74414 5.62229C2.15835 5.62229 2.49414 5.2865 2.49414 4.87229V2.94457Z" fill="#161823"/>
<path d="M11.1273 0.994568C10.7131 0.994568 10.3773 1.33035 10.3773 1.74457C10.3773 2.15878 10.7131 2.49457 11.1273 2.49457H13.055C13.3036 2.49457 13.505 2.69604 13.505 2.94457V4.87229C13.505 5.2865 13.8408 5.62229 14.255 5.62229C14.6692 5.62229 15.005 5.2865 15.005 4.87229V2.94457C15.005 1.86761 14.132 0.994568 13.055 0.994568H11.1273Z" fill="#161823"/>
<path d="M2.49414 11.1277C2.49414 10.7135 2.15835 10.3777 1.74414 10.3777C1.32993 10.3777 0.994141 10.7135 0.994141 11.1277V13.0554C0.994141 14.1324 1.86718 15.0054 2.94414 15.0054H4.87186C5.28607 15.0054 5.62186 14.6697 5.62186 14.2554C5.62186 13.8412 5.28607 13.5054 4.87186 13.5054H2.94414C2.69561 13.5054 2.49414 13.304 2.49414 13.0554V11.1277Z" fill="#161823"/>
<path d="M15.005 11.1277C15.005 10.7135 14.6692 10.3777 14.255 10.3777C13.8408 10.3777 13.505 10.7135 13.505 11.1277V13.0555C13.505 13.304 13.3036 13.5054 13.055 13.5054H11.1273C10.7131 13.5054 10.3773 13.8412 10.3773 14.2554C10.3773 14.6697 10.7131 15.0054 11.1273 15.0054H13.055C14.132 15.0054 15.005 14.1324 15.005 13.0555V11.1277Z" fill="#161823"/>
<path d="M6.21713 11.1615C6.06205 11.6821 5.8405 11.8871 5.44172 11.8871C5.03185 11.8871 4.74938 11.6378 4.74938 11.2612C4.74938 11.1117 4.78815 10.94 4.88231 10.6575L6.78761 5.19636C7.02578 4.49295 7.36363 4.1994 7.99504 4.1994C8.62091 4.1994 8.95323 4.48741 9.1914 5.19636L11.0967 10.6575C11.1742 10.8957 11.213 11.0784 11.213 11.2335C11.213 11.6323 10.9305 11.8871 10.5041 11.8871C10.0997 11.8871 9.86711 11.6766 9.71757 11.1615L9.29109 9.87654H6.63807L6.21713 11.1615ZM7.93412 5.70592L6.97039 8.76327H8.96431L8.00612 5.70592H7.93412Z" fill="#161823"/>
</g>
<defs>
<clipPath id="clip0_7_1286">
<rect width="16" height="16" fill="white"/>
</clipPath>
</defs>
</svg>
