<svg width="20" height="20" viewBox="0 0 20 20" fill="none" xmlns="http://www.w3.org/2000/svg">
<path d="M2.34375 4.03477C2.34375 2.9302 3.23918 2.03477 4.34375 2.03477H10.1668C11.2714 2.03477 12.1668 2.93021 12.1668 4.03477V15.7517C12.1668 16.8563 11.2714 17.7517 10.1668 17.7517H4.34375C3.23918 17.7517 2.34375 16.8563 2.34375 15.7517V4.03477ZM9.23875 10.4715C9.64603 10.1936 9.64604 9.59292 9.23875 9.31502L6.93454 7.74281C6.4699 7.42577 5.84001 7.75853 5.84001 8.32103L5.84001 11.4655C5.84001 12.028 6.4699 12.3607 6.93454 12.0437L9.23875 10.4715Z" fill="#161823"/>
<path d="M13.2195 17.4652C13.5044 16.9587 13.6669 16.3742 13.6669 15.7517V4.03477C13.6669 3.93983 13.6631 3.84577 13.6557 3.75273L16.6064 4.54338C17.6734 4.82927 18.3065 5.92594 18.0206 6.99287L15.5983 16.0334C15.3187 17.0767 14.2637 17.7053 13.2195 17.4652Z" fill="#161823"/>
</svg>
