<svg width="16" height="16" viewBox="0 0 16 16" fill="none" xmlns="http://www.w3.org/2000/svg">
<path d="M7.9998 7.33334C9.47256 7.33334 10.6665 5.9902 10.6665 4.33334C10.6665 2.67649 9.47256 1.33334 7.9998 1.33334C6.52704 1.33334 5.33313 2.67649 5.33313 4.33334C5.33313 5.9902 6.52704 7.33334 7.9998 7.33334Z" fill="#161823"/>
<path d="M7.9998 8.13333C6.40609 8.13333 4.92414 8.53096 3.80201 9.24327C2.69087 9.9486 1.7998 11.0668 1.7998 12.4848V13C1.7998 14.0309 2.63554 14.8667 3.66647 14.8667H8.91468L8.37228 14.3409C7.59901 13.5913 7.57981 12.3568 8.3294 11.5835C9.07899 10.8102 10.3135 10.791 11.0868 11.5406L11.369 11.8142L12.844 9.72513C12.6415 9.54799 12.4241 9.38705 12.1976 9.24327C11.0755 8.53096 9.59352 8.13333 7.9998 8.13333Z" fill="#161823"/>
<path d="M10.182 12.474C9.92425 12.2242 9.51274 12.2306 9.26288 12.4883C9.01301 12.7461 9.01941 13.1576 9.27717 13.4075L11.1954 15.2669C11.3317 15.3991 11.5191 15.465 11.7082 15.4474C11.8973 15.4297 12.0692 15.3302 12.1788 15.1751L15.494 10.4798C15.701 10.1866 15.6311 9.781 15.3379 9.57394C15.0446 9.36688 14.6391 9.43676 14.432 9.73001L11.5549 13.8049L10.182 12.474Z" fill="#161823"/>
</svg>
