<svg width="12" height="12" viewBox="0 0 12 12" fill="none" xmlns="http://www.w3.org/2000/svg">
<path fill-rule="evenodd" clip-rule="evenodd" d="M3.2394 1C2.44482 1 1.78289 1.60907 1.7169 2.4009L1.1382 9.34535C1.06397 10.2361 1.76688 11 2.6607 11H9.33992C10.2337 11 10.9366 10.2361 10.8624 9.34535L10.2837 2.4009C10.2177 1.60907 9.5558 1 8.76122 1H3.2394ZM6.00031 5.59628C4.74846 5.59628 3.73364 4.58146 3.73364 3.32962C3.73364 2.99825 4.00227 2.72962 4.33364 2.72962C4.66501 2.72962 4.93364 2.99825 4.93364 3.32962C4.93364 3.91872 5.41121 4.39628 6.00031 4.39628C6.58941 4.39628 7.06698 3.91872 7.06698 3.32962C7.06698 2.99825 7.3356 2.72962 7.66698 2.72962C7.99835 2.72962 8.26698 2.99825 8.26698 3.32962C8.26698 4.58146 7.25215 5.59628 6.00031 5.59628Z" fill="#161823"/>
</svg>
