<svg width="24" height="24" viewBox="0 0 24 24" fill="none" xmlns="http://www.w3.org/2000/svg">
<path d="M6.36309 2.52441C4.87192 2.52441 3.66309 3.73325 3.66309 5.22441V8.76074V18.5002V18.8002C3.66309 20.2914 4.87192 21.5002 6.36309 21.5002H6.66309H14.3383H17.2924C18.9493 21.5002 20.2924 20.1571 20.2924 18.5002V8.76074C20.2924 7.10389 18.9493 5.76074 17.2924 5.76074H17.0383V5.22441C17.0383 3.73325 15.8295 2.52441 14.3383 2.52441H6.36309ZM6.04944 3.97656H14.3922C15.0549 3.97656 15.5922 4.51382 15.5922 5.17656V5.74731H6.04944C5.56046 5.74731 5.16406 5.35092 5.16406 4.86194C5.16406 4.37296 5.56046 3.97656 6.04944 3.97656ZM7.68652 11.5571C7.68652 11.1429 8.02231 10.8071 8.43652 10.8071H13.8336C14.2478 10.8071 14.5836 11.1429 14.5836 11.5571C14.5836 11.9713 14.2478 12.3071 13.8336 12.3071H8.43652C8.02231 12.3071 7.68652 11.9713 7.68652 11.5571ZM7.68652 15.3184C7.68652 14.9041 8.02231 14.5684 8.43652 14.5684H11.6704C12.0846 14.5684 12.4204 14.9041 12.4204 15.3184C12.4204 15.7326 12.0846 16.0684 11.6704 16.0684H8.43652C8.02231 16.0684 7.68652 15.7326 7.68652 15.3184Z" fill="#161823"/>
</svg>
