<svg width="20" height="20" viewBox="0 0 20 20" fill="none" xmlns="http://www.w3.org/2000/svg">
<path d="M9.99993 11.2501C10.6903 11.2501 11.2499 10.6905 11.2499 10.0001C11.2499 9.30979 10.6903 8.75014 9.99993 8.75014C9.30958 8.75014 8.74993 9.30979 8.74993 10.0001C8.74993 10.6905 9.30958 11.2501 9.99993 11.2501Z" fill="#161823"/>
<path d="M8.23677 2.56633C8.81351 2.73596 9.40525 2.97189 9.99993 3.26939C10.5946 2.97189 11.1864 2.73596 11.7631 2.56633C13.5925 2.02827 15.4639 2.11522 16.6744 3.32571C17.503 4.15434 17.8054 5.30554 17.7416 6.51597C17.6839 7.61367 17.326 8.81004 16.7307 10.0001C17.0282 10.5948 17.2641 11.1866 17.4337 11.7633C17.9718 13.5927 17.8849 15.4641 16.6744 16.6746C15.4639 17.8851 13.5925 17.972 11.7631 17.434C11.1864 17.2643 10.5946 17.0284 9.99993 16.7309C9.40525 17.0284 8.81351 17.2643 8.23677 17.434C6.40735 17.972 4.53599 17.8851 3.3255 16.6746C2.49744 15.8465 2.19491 14.6963 2.25809 13.4868C2.31546 12.3884 2.67345 11.1911 3.26919 10.0002C2.97169 9.40548 2.73575 8.81373 2.56612 8.23698C2.02806 6.40756 2.115 4.5362 3.3255 3.32571C4.53599 2.11521 6.40735 2.02827 8.23677 2.56633ZM4.38616 4.38637C3.74576 5.02676 3.53245 6.20647 4.00517 7.81373C4.46878 9.38999 5.55353 11.1957 7.17893 12.8211C8.0868 13.729 9.05094 14.4682 9.99993 15.0247C10.9489 14.4682 11.9131 13.729 12.8209 12.8211C13.0448 12.5973 13.2587 12.3697 13.4623 12.1395C13.7367 11.8292 14.2107 11.8001 14.521 12.0745C14.8313 12.349 14.8603 12.8229 14.5859 13.1332C14.3619 13.3865 14.127 13.6364 13.8816 13.8818C13.1499 14.6135 12.3756 15.2543 11.5874 15.7929C11.7901 15.8698 11.99 15.9372 12.1863 15.9949C13.7936 16.4676 14.9733 16.2543 15.6137 15.6139C16.2541 14.9735 16.4674 13.7938 15.9947 12.1866C15.8274 11.6178 15.5793 11.0192 15.2541 10.41C15.2329 10.3772 15.2144 10.3429 15.1987 10.3074C14.6259 9.26038 13.827 8.18521 12.8209 7.17914C11.9131 6.27127 10.9489 5.53207 9.99993 4.97557C9.05094 5.53207 8.0868 6.27127 7.17893 7.17914C6.94494 7.41314 6.72181 7.65122 6.50989 7.89219C6.23633 8.20322 5.76243 8.23361 5.4514 7.96006C5.14036 7.6865 5.10998 7.2126 5.38353 6.90157C5.61666 6.6365 5.8617 6.37506 6.11827 6.11848C6.84999 5.38677 7.6243 4.74598 8.4125 4.20741C8.20981 4.13053 8.00988 4.06314 7.81352 4.00538C6.20626 3.53266 5.02655 3.74597 4.38616 4.38637ZM13.8816 6.11848C14.6133 6.85021 15.2541 7.62453 15.7927 8.41274C16.0626 7.70096 16.2124 7.03165 16.2437 6.43711C16.2925 5.51101 16.0549 4.82753 15.6137 4.38637C14.9733 3.74597 13.7936 3.53266 12.1863 4.00538C11.99 4.06314 11.7901 4.13053 11.5874 4.20741C12.3756 4.74598 13.1499 5.38677 13.8816 6.11848ZM6.11827 13.8818C5.38655 13.1501 4.74576 12.3758 4.20718 11.5876C3.93695 12.3001 3.78712 12.9701 3.75604 13.5651C3.70772 14.4902 3.94529 15.1731 4.38616 15.6139C5.02655 16.2543 6.20626 16.4676 7.81352 15.9949C8.00988 15.9372 8.20981 15.8698 8.4125 15.7929C7.6243 15.2543 6.84999 14.6135 6.11827 13.8818Z" fill="#161823"/>
</svg>
