<svg width="16" height="16" viewBox="0 0 16 16" fill="none" xmlns="http://www.w3.org/2000/svg">
<path d="M13.3333 6.33789C13.3333 6.54917 13.3201 6.7574 13.2947 6.96179C11.6492 6.70293 10.2095 6.27397 8.71042 5.40845C7.30036 4.59435 6.21235 3.61289 5.21904 2.42592C6.07337 1.7449 7.15578 1.33789 8.33325 1.33789C11.0947 1.33789 13.3333 3.57647 13.3333 6.33789Z" fill="#161823"/>
<path fill-rule="evenodd" clip-rule="evenodd" d="M10.2514 7.76038C11.1102 8.06001 11.9773 8.26448 12.8829 8.41469C12.8823 8.41598 12.8817 8.41727 12.8811 8.41856C13.2439 8.51718 13.4829 8.87454 13.4249 9.25515C13.3625 9.66463 12.9799 9.94598 12.5704 9.88355C12.3672 9.85257 12.1642 9.81744 11.9616 9.77813C11.0844 10.703 9.85727 11.2928 8.49227 11.3354L6.46483 14.1055C5.83671 14.9637 4.66302 15.2111 3.742 14.6793L3.40429 14.4843C2.48326 13.9526 2.11061 12.8125 2.53978 11.8394L3.92481 8.69911C3.54735 7.99587 3.33326 7.19189 3.33326 6.33789C3.33326 5.88614 3.39317 5.44838 3.50548 5.03212C3.28158 4.78679 3.06646 4.53505 2.86027 4.27739C2.60147 3.95398 2.65384 3.482 2.97725 3.2232C3.30066 2.9644 3.77264 3.01677 4.03144 3.34018C4.08408 3.40596 4.13737 3.47132 4.1913 3.53624C4.19164 3.53575 4.19197 3.53526 4.19231 3.53476C4.92895 4.39691 5.7305 5.17336 6.6693 5.86442C7.07296 6.15953 7.4966 6.43598 7.93974 6.69182C8.69018 7.12509 9.46381 7.48039 10.2514 7.76038ZM4.97273 10.0402L3.91222 12.4447C3.79206 12.7172 3.8964 13.0364 4.15429 13.1853L4.492 13.3803C4.74988 13.5292 5.07852 13.4599 5.25439 13.2196L6.80558 11.1002C6.11782 10.8798 5.4949 10.5145 4.97273 10.0402Z" fill="#161823"/>
</svg>
