<svg width="20" height="20" viewBox="0 0 20 20" fill="none" xmlns="http://www.w3.org/2000/svg">
<path opacity="0.9" d="M15.7146 14.4336C17.3675 12.7779 18.3337 11.0533 18.3337 9.04516C18.3337 4.97013 14.603 1.66675 10.0003 1.66675C5.39771 1.66675 1.66699 4.97013 1.66699 9.04528C1.66699 13.0908 5.34349 15.8771 9.89989 15.9175C9.95511 15.918 10.0003 15.9627 10.0003 16.018V17.3968C10.0003 17.7661 10.3838 18.0039 10.7092 17.8293C11.8544 17.2147 14.2514 15.8994 15.7146 14.4336ZM7.14319 9.23162C7.14319 9.88501 6.60996 10.4144 5.95217 10.4144C5.29549 10.4144 4.76224 9.88501 4.76224 9.23162C4.76224 8.57953 5.29549 8.05014 5.95217 8.05014C6.60996 8.05014 7.14319 8.57953 7.14319 9.23162ZM10.0003 10.4144C9.34295 10.4144 8.80991 9.88501 8.80988 9.23162C8.80988 8.57953 9.34293 8.05014 10.0003 8.05014C10.6578 8.05014 11.1908 8.57953 11.1908 9.23162C11.1908 9.88501 10.6578 10.4144 10.0003 10.4144ZM15.2384 9.23162C15.2384 9.88501 14.7059 10.4144 14.0482 10.4144C13.3905 10.4144 12.8574 9.88501 12.8574 9.23162C12.8574 8.57953 13.3906 8.05014 14.0482 8.05014C14.7059 8.05014 15.2384 8.57953 15.2384 9.23162Z" fill="#161823"/>
</svg>
