<svg width="24" height="24" viewBox="0 0 24 24" fill="none" xmlns="http://www.w3.org/2000/svg">
<path d="M11.7989 1.27867C11.9333 1.24043 12.0756 1.24044 12.2099 1.27872L21.2056 3.84242C21.5278 3.93425 21.75 4.22865 21.75 4.5637V9.82121C21.75 15.6821 17.9064 20.8691 12.2332 22.7133C12.0825 22.7622 11.9202 22.7622 11.7695 22.7133C6.09481 20.8692 2.25 15.681 2.25 9.81878V4.5637C2.25 4.22858 2.47232 3.93413 2.79462 3.84236L11.7989 1.27867ZM3.75 5.12997V9.81878C3.75 14.9319 7.05379 19.4955 12.0013 21.2089C16.9473 19.4955 20.25 14.933 20.25 9.82121V5.12982L12.0042 2.77983L3.75 5.12997Z" fill="#161823"/>
<path d="M9.7913 10.8403C8.57091 9.61995 8.57091 7.64131 9.7913 6.42092C11.0117 5.20054 12.9903 5.20054 14.2107 6.42092C15.4311 7.64131 15.4311 9.61995 14.2107 10.8403C13.9562 11.0949 13.6682 11.2966 13.3606 11.4452L13.35 11.9518L14.2297 12.8315C14.3762 12.978 14.3762 13.2154 14.2297 13.3619L13.5052 14.0864L14.3007 14.8819C14.371 14.9522 14.4106 15.0476 14.4106 15.147C14.4106 15.2465 14.371 15.3419 14.3007 15.4122L13.3729 16.34L13.3643 16.838C13.3627 16.9352 13.3233 17.0279 13.2546 17.0967L12.2658 18.0855C12.1194 18.2318 11.8822 18.2319 11.7357 18.0857L10.7337 17.0858C10.6633 17.0154 10.6237 16.9199 10.6237 16.8203L10.6237 11.4366C10.3228 11.2888 10.0409 11.09 9.7913 10.8403ZM12.7083 8.81064C13.0997 8.41924 13.0997 7.78466 12.7083 7.39326C12.3169 7.00186 11.6823 7.00186 11.2909 7.39326C10.8995 7.78466 10.8995 8.41924 11.2909 8.81064C11.6823 9.20203 12.3169 9.20203 12.7083 8.81064Z" fill="#161823"/>
</svg>
