<svg width="20" height="20" viewBox="0 0 20 20" fill="none" xmlns="http://www.w3.org/2000/svg">
<path d="M6.28612 7.25746L6.12119 7.09253C5.73081 6.70215 5.09787 6.70215 4.70748 7.09253L2.94034 8.85967C2.54996 9.25006 2.54996 9.88299 2.94034 10.2734L7.36997 14.703C7.76035 15.0934 8.39329 15.0934 8.78368 14.703L10.5508 12.9359C10.9333 12.5534 10.941 11.938 10.574 11.5461L11.3167 10.8034L11.3284 10.8153L16.724 16.211C17.0168 16.5038 17.4915 16.5038 17.7843 16.211C18.0771 15.9182 18.0771 15.4435 17.7843 15.1507L12.3887 9.75502L12.3767 9.74336L13.1194 9.00065C13.5113 9.36771 14.1267 9.35998 14.5092 8.97748L16.2764 7.21034C16.6667 6.81996 16.6667 6.18702 16.2764 5.79663L11.8467 1.36701C11.4563 0.976623 10.8234 0.976622 10.433 1.36701L8.66588 3.13415C8.27549 3.52453 8.27549 4.15747 8.66588 4.54786L8.8308 4.71278L6.28612 7.25746ZM5.93072 9.02263L5.93269 9.0246L8.80724 11.8991L8.80921 11.9011L9.13711 12.229L8.07682 13.2893L4.35405 9.56653L5.41434 8.50624L5.93072 9.02263ZM7.3464 8.31775L9.89108 5.77307L12.0588 7.94076L9.51409 10.4854L7.3464 8.31775ZM11.1399 2.78072L14.8626 6.50349L13.8024 7.56377L10.0796 3.841L11.1399 2.78072Z" fill="#161823"/>
<path d="M2.5 16.7473C2.5 16.3332 2.83567 15.9976 3.24973 15.9976H10.2472C10.6613 15.9976 10.997 16.3332 10.997 16.7473C10.997 17.1614 10.6613 17.497 10.2472 17.497H3.24973C2.83567 17.497 2.5 17.1614 2.5 16.7473Z" fill="#161823"/>
</svg>
