<svg width="12" height="12" viewBox="0 0 12 12" fill="none" xmlns="http://www.w3.org/2000/svg">
<path d="M1.01434 2.37427C0.966929 2.19719 1.03969 2.00978 1.19413 1.91121C2.30645 1.20124 3.65263 0.956246 4.94346 1.22887L6.19868 1.49397C7.13285 1.69127 8.10707 1.51429 8.91237 1.001C9.27868 0.767511 9.76613 0.957276 9.87853 1.37713L10.9628 5.42716C11.0961 5.92492 10.8625 6.44803 10.403 6.68064C9.57859 7.09806 8.64282 7.24204 7.73119 7.09174L6.26917 6.85068C5.33513 6.69668 4.38181 6.82541 3.52872 7.21232L4.34641 10.2786C4.43179 10.5988 4.24145 10.9276 3.92126 11.013C3.60108 11.0984 3.27231 10.908 3.18693 10.5878L1.01434 2.37427Z" fill="#161823"/>
</svg>
