<svg width="24" height="24" viewBox="0 0 24 24" fill="none" xmlns="http://www.w3.org/2000/svg">
<g clip-path="url(#clip0_1_2775)">
<path d="M7.13215 1.49613C6.85814 1.01661 7.02474 0.405755 7.50425 0.131745C7.98377 -0.142265 8.59463 0.0243316 8.86864 0.503849L10.8664 4H13.1344L15.1322 0.503849C15.4062 0.0243316 16.017 -0.142265 16.4965 0.131745C16.9761 0.405755 17.1427 1.01661 16.8686 1.49613L15.4379 4H20.2504C21.7692 4 23.0004 5.23122 23.0004 6.75C23.0004 7.16421 22.6646 7.5 22.2504 7.5C21.8362 7.5 21.5004 7.16421 21.5004 6.75C21.5004 6.05964 20.9408 5.5 20.2504 5.5H14.0173C14.0054 5.50021 13.9935 5.50021 13.9816 5.5H10.0191C10.0073 5.50021 9.99536 5.50021 9.98349 5.5H3.7504C3.06004 5.5 2.5004 6.05964 2.5004 6.75C2.5004 7.16421 2.16461 7.5 1.7504 7.5C1.33618 7.5 1.0004 7.16421 1.0004 6.75C1.0004 5.23122 2.23161 4 3.7504 4H8.56293L7.13215 1.49613Z" fill="#161823"/>
<path d="M2.5004 21.25C2.5004 20.8358 2.16461 20.5 1.7504 20.5C1.33618 20.5 1.0004 20.8358 1.0004 21.25C1.0004 22.7688 2.23161 24 3.7504 24H20.2504C21.7692 24 23.0004 22.7688 23.0004 21.25C23.0004 20.8358 22.6646 20.5 22.2504 20.5C21.8362 20.5 21.5004 20.8358 21.5004 21.25C21.5004 21.9404 20.9408 22.5 20.2504 22.5H3.7504C3.06004 22.5 2.5004 21.9404 2.5004 21.25Z" fill="#161823"/>
<path d="M15.4303 14.3932C15.7261 14.2439 15.8448 13.883 15.6954 13.5872C15.5562 13.3115 15.2332 13.1896 14.9504 13.2953V11.2H15.1996C15.531 11.2 15.7996 10.9314 15.7996 10.6C15.7996 10.2686 15.531 10 15.1996 10H14.9504V8.49999C14.9504 8.11339 14.637 7.79999 14.2504 7.79999C13.8638 7.79999 13.5504 8.11339 13.5504 8.49999V10H12.602C12.2706 10 12.002 10.2686 12.002 10.6C12.002 10.9314 12.2706 11.2 12.602 11.2H13.5504V13.9982L12.0847 14.7384C11.7889 14.8878 11.6702 15.2487 11.8195 15.5445C11.9689 15.8403 12.3298 15.959 12.6256 15.8096L13.5504 15.3426V18.4H12.8049C12.4735 18.4 12.2049 18.6686 12.2049 19C12.2049 19.3314 12.4735 19.6 12.8049 19.6H14.2504C14.3753 19.6 14.4913 19.5618 14.5874 19.4965C14.8038 19.3774 14.9504 19.1472 14.9504 18.8828V14.6356L15.4303 14.3932Z" fill="#161823"/>
<path d="M1.40039 9.39944C1.40039 9.06807 1.66902 8.79944 2.00039 8.79944H5.2504V8.5C5.2504 8.08579 5.58618 7.75 6.0004 7.75C6.41461 7.75 6.7504 8.08579 6.7504 8.5V8.79944H10.0004C10.3318 8.79944 10.6004 9.06807 10.6004 9.39944C10.6004 9.73081 10.3318 9.99944 10.0004 9.99944H6.7504V10.8H8.61514C9.16743 10.8 9.61514 11.2477 9.61514 11.8V18.4H10.5004C10.8318 18.4 11.1004 18.6686 11.1004 19C11.1004 19.3314 10.8318 19.6 10.5004 19.6H1.50039C1.16902 19.6 0.900391 19.3314 0.900391 19C0.900391 18.6686 1.16902 18.4 1.50039 18.4H2.41165V11.8C2.41165 11.2477 2.85937 10.8 3.41165 10.8H5.2504V9.99944H2.00039C1.66902 9.99944 1.40039 9.73081 1.40039 9.39944ZM3.61165 14.7H8.41514V13.8945H3.61165V14.7ZM3.61165 15.7V16.5055H8.41514V15.7H3.61165ZM3.61165 18.4H8.41514V17.5055H3.61165V18.4ZM8.41514 12.8945V12H3.61165V12.8945H8.41514Z" fill="#161823"/>
<path d="M16.4037 9.0003C16.4037 8.66893 16.6723 8.4003 17.0037 8.4003H21.9972C22.3286 8.4003 22.5972 8.66893 22.5972 9.0003C22.5972 9.33167 22.3286 9.6003 21.9972 9.6003H20.2004V11.1021H20.742L21.1232 10.1973C21.2304 9.94281 21.5236 9.82343 21.7781 9.93066C22.0326 10.0379 22.152 10.3311 22.0447 10.5856L21.8012 11.1021H22.4051C22.7365 11.1021 23.0051 11.3707 23.0051 11.7021C23.0051 12.0335 22.7365 12.3021 22.4051 12.3021H21.2004L22.9625 13.6615C23.1686 13.8453 23.1867 14.1614 23.0029 14.3675C22.8659 14.5211 22.6555 14.5702 22.4719 14.5092C22.5537 14.6542 22.6004 14.8217 22.6004 15V18.6121C22.6004 19.1644 22.1527 19.6121 21.6004 19.6121H17.4043C16.852 19.6121 16.4043 19.1644 16.4043 18.6121V15C16.4043 14.821 16.4513 14.653 16.5337 14.5077C16.349 14.571 16.1362 14.5223 15.9981 14.3675C15.8143 14.1614 15.8323 13.8453 16.0384 13.6615L17.8036 12.3021H16.6051C16.2738 12.3021 16.0051 12.0335 16.0051 11.7021C16.0051 11.3707 16.2738 11.1021 16.6051 11.1021H17.2227L16.9561 10.5856C16.8489 10.3311 16.9682 10.0379 17.2227 9.93066C17.4772 9.82343 17.7704 9.94281 17.8776 10.1973L18.2589 11.1021H18.8004V9.6003H17.0037C16.6723 9.6003 16.4037 9.33167 16.4037 9.0003ZM21.886 14.0414L20.2004 12.5977V12.9975C20.2004 13.3841 19.887 13.6975 19.5004 13.6975C19.1138 13.6975 18.8004 13.3841 18.8004 12.9975V12.5977L17.113 14.0431C17.2052 14.0151 17.303 14 17.4043 14H21.6004C21.6996 14 21.7955 14.0145 21.886 14.0414ZM17.5004 17.3V18.5H18.9004V17.3H17.5004ZM20.1004 18.5H21.5004V17.3H20.1004V18.5ZM21.5004 16.3V15.1H20.1004V16.3H21.5004ZM18.9004 15.1H17.5004V16.3H18.9004V15.1Z" fill="#161823"/>
</g>
<defs>
<clipPath id="clip0_1_2775">
<rect width="24" height="24" fill="white"/>
</clipPath>
</defs>
</svg>
