<svg width="20" height="20" viewBox="0 0 20 20" fill="none" xmlns="http://www.w3.org/2000/svg">
<path d="M16.0118 2.61747L16.0118 14.6275C16.0118 15.8921 15.1115 16.9776 13.8687 17.2114L13.3001 17.3184C11.977 17.5673 10.7533 16.5524 10.7533 15.2061C10.7533 14.1703 11.4921 13.2819 12.5105 13.0929L13.9881 12.8187L13.9822 12.8135C14.3967 12.7358 14.6971 12.3738 14.6971 11.9521V6.0448L7.28248 7.21905L7.28253 16.2708C7.28253 17.5354 6.38226 18.6208 5.13947 18.8547L4.55263 18.9613C3.2285 19.2104 2.00391 18.1947 2.00391 16.8474C2.00391 15.8123 2.74113 14.924 3.75849 14.7332L5.25615 14.456L5.2537 14.4538C5.66788 14.3758 5.96787 14.014 5.96787 13.5925L5.96799 4.74794C5.96798 3.76383 6.6839 2.92596 7.65596 2.77243L14.8558 1.62972C15.4628 1.53385 16.0118 2.00297 16.0118 2.61747ZM7.88998 4.25406C7.64696 4.29244 7.46799 4.50191 7.46799 4.74794V5.66271L14.5118 4.54705V3.20265L7.88998 4.25406ZM13.0227 15.8442L13.5914 15.7373C14.2628 15.6109 14.5118 15.0234 14.5118 14.4121C14.5118 14.3263 14.434 14.2616 14.3497 14.2773L12.7842 14.5677C12.4765 14.6248 12.2533 14.8932 12.2533 15.2061C12.2533 15.6129 12.623 15.9195 13.0227 15.8442ZM4.27527 17.4871L4.86211 17.3805C5.53579 17.2538 5.78253 16.6642 5.78253 16.0518C5.78253 15.9644 5.70316 15.8985 5.61729 15.9146L4.03492 16.2075C3.72702 16.2653 3.50391 16.5341 3.50391 16.8474C3.50391 17.2551 3.87452 17.5625 4.27527 17.4871Z" fill="#161823"/>
</svg>
