<svg width="16" height="16" viewBox="0 0 16 16" fill="none" xmlns="http://www.w3.org/2000/svg">
<path d="M12.333 14.6667C12.8853 14.6667 13.333 14.2189 13.333 13.6666C13.333 9.88887 13.333 6.1111 13.333 2.33332C13.333 1.78104 12.8853 1.33332 12.333 1.33332C11.8886 1.33332 11.4441 1.33332 10.9997 1.33332C10.4474 1.33332 9.99967 1.78103 9.99967 2.33332L9.99967 13.6667C9.99967 14.2189 10.4474 14.6667 10.9997 14.6667C11.4441 14.6667 11.8886 14.6667 12.333 14.6667Z" fill="#161823"/>
<path d="M4.99969 14.6667C5.55197 14.6667 5.99967 14.2189 5.99967 13.6667L5.99967 2.33332C5.99967 1.78104 5.55196 1.33332 4.99967 1.33332C4.55523 1.33332 4.11078 1.33332 3.66634 1.33332C3.11405 1.33332 2.66634 1.78103 2.66634 2.33332L2.66634 13.6667C2.66634 14.2189 3.11404 14.6667 3.66632 14.6667C4.11078 14.6667 4.55523 14.6667 4.99969 14.6667Z" fill="#161823"/>
</svg>
