<svg width="16" height="16" viewBox="0 0 16 16" fill="none" xmlns="http://www.w3.org/2000/svg">
<path d="M6.83334 5.5C7.16471 5.5 7.43334 5.76863 7.43334 6.1V8.9C7.43334 9.23137 7.16471 9.5 6.83334 9.5C6.50197 9.5 6.23334 9.23137 6.23334 8.9V6.1C6.23334 5.76863 6.50197 5.5 6.83334 5.5Z" fill="#161823"/>
<path d="M12.1 5.1C12.1 4.76863 11.8314 4.5 11.5 4.5C11.1686 4.5 10.9 4.76863 10.9 5.1V8.9C10.9 9.23137 11.1686 9.5 11.5 9.5C11.8314 9.5 12.1 9.23137 12.1 8.9V5.1Z" fill="#161823"/>
<path d="M4.49999 7.43332C4.83136 7.43332 5.09999 7.70195 5.09999 8.03332V8.89999C5.09999 9.23136 4.83136 9.49999 4.49999 9.49999C4.16862 9.49999 3.89999 9.23136 3.89999 8.89999L3.89999 8.03332C3.89999 7.70195 4.16862 7.43332 4.49999 7.43332Z" fill="#161823"/>
<path d="M9.76667 7.1C9.76667 6.76863 9.49804 6.5 9.16667 6.5C8.83529 6.5 8.56667 6.76863 8.56667 7.1V8.9C8.56667 9.23137 8.83529 9.5 9.16667 9.5C9.49804 9.5 9.76667 9.23137 9.76667 8.9V7.1Z" fill="#161823"/>
<path d="M1 3.75C1 2.7835 1.7835 2 2.75 2H13.25C14.2165 2 15 2.7835 15 3.75V10.25C15 11.2165 14.2165 12 13.25 12H2.75C1.7835 12 1 11.2165 1 10.25V3.75ZM2.75 3.2C2.44624 3.2 2.2 3.44624 2.2 3.75V10.25C2.2 10.5538 2.44624 10.8 2.75 10.8H13.25C13.5538 10.8 13.8 10.5538 13.8 10.25V3.75C13.8 3.44624 13.5538 3.2 13.25 3.2H2.75Z" fill="#161823"/>
<path d="M4.1 12.8C3.76863 12.8 3.5 13.0686 3.5 13.4C3.5 13.7314 3.76863 14 4.1 14H11.9C12.2314 14 12.5 13.7314 12.5 13.4C12.5 13.0686 12.2314 12.8 11.9 12.8H4.1Z" fill="#161823"/>
</svg>
