<svg width="12" height="12" viewBox="0 0 12 12" fill="none" xmlns="http://www.w3.org/2000/svg">
<path d="M8.54336 10.4702H3.87075V4.39584L6.5575 1.7091C6.88007 1.38652 7.40307 1.38652 7.72565 1.7091C7.78016 1.76361 7.82494 1.83759 7.85999 1.93104C7.89503 2.0245 7.91256 2.11405 7.91256 2.19972V2.36326L7.39857 4.39584H9.94514C10.1943 4.39584 10.4124 4.4893 10.5993 4.6762C10.7862 4.86311 10.8797 5.08116 10.8797 5.33037C10.8797 5.52253 10.8747 5.82439 10.8701 6.06481C10.8653 6.31287 10.8137 6.55652 10.7182 6.78552C10.426 7.48637 9.76111 9.07921 9.40779 9.90952C9.3377 10.0653 9.22089 10.1977 9.05734 10.3067C8.8938 10.4157 8.72247 10.4702 8.54336 10.4702ZM3.11904 4.39584V10.4702H2C1.58579 10.4702 1.25 10.1344 1.25 9.72023V5.14584C1.25 4.73162 1.58579 4.39584 2 4.39584H3.11904Z" fill="#161823"/>
</svg>
