<svg width="24" height="24" viewBox="0 0 24 24" fill="none" xmlns="http://www.w3.org/2000/svg">
<path d="M17.9912 3.06104H5.3416C3.85043 3.06104 2.6416 4.26987 2.6416 5.76104V13.8602C2.6416 15.3514 3.85043 16.5602 5.3416 16.5602H12.9431V15.0602C12.2804 15.0602 12.9431 15.7229 12.9431 15.0602V11.4194C12.9431 9.16943 14.4431 7.66943 16.6931 7.66943H19.1912H19.464C19.8938 7.66943 20.3067 7.74173 20.6912 7.87481V5.76103C20.6912 4.26987 19.4823 3.06104 17.9912 3.06104Z" fill="#161823"/>
<path d="M7.35854 18.1713L13.018 18.1713C13.1303 18.7254 13.3648 19.2352 13.6922 19.6713L7.35854 19.6713C6.94432 19.6713 6.60854 19.3355 6.60854 18.9213C6.60854 18.5071 6.94432 18.1713 7.35854 18.1713Z" fill="#161823"/>
<path d="M16.6931 9.16943C15.4504 9.16943 14.4431 10.1768 14.4431 11.4194V17.4221C14.4431 18.6647 15.4504 19.6721 16.6931 19.6721H19.464C20.7067 19.6721 21.714 18.6647 21.714 17.4221V11.4194C21.714 10.1768 20.7067 9.16943 19.464 9.16943H16.6931ZM15.9431 11.4194C15.9431 11.0052 16.2789 10.6694 16.6931 10.6694H16.7597V11.0361C16.7597 11.4043 17.0582 11.7027 17.4264 11.7027H18.7597C19.1279 11.7027 19.4264 11.4043 19.4264 11.0361V10.6694H19.464C19.8782 10.6694 20.214 11.0052 20.214 11.4194V17.4221C20.214 17.8363 19.8782 18.1721 19.464 18.1721H16.6931C16.2789 18.1721 15.9431 17.8363 15.9431 17.4221V11.4194Z" fill="#161823"/>
</svg>
