<svg width="20" height="20" viewBox="0 0 20 20" fill="none" xmlns="http://www.w3.org/2000/svg">
<path fill-rule="evenodd" clip-rule="evenodd" d="M9.25098 1.60947L9.25098 10.9653L6.98931 8.70362C6.69642 8.41072 6.22155 8.41072 5.92865 8.70362C5.63576 8.99651 5.63576 9.47138 5.92865 9.76428L9.47084 13.3065C9.76373 13.5994 10.2386 13.5994 10.5315 13.3065L14.0737 9.76428C14.3666 9.47138 14.3666 8.99651 14.0737 8.70362C13.7808 8.41072 13.3059 8.41072 13.013 8.70362L10.751 10.9657L10.751 1.60947C10.751 1.19525 10.4152 0.859467 10.001 0.859467C9.58676 0.859467 9.25098 1.19525 9.25098 1.60947ZM5.5 5.77609H8.00098V4.27609H5.5C3.84315 4.27609 2.5 5.61924 2.5 7.27609V15.2761C2.5 16.9329 3.84315 18.2761 5.5 18.2761H14.5C16.1569 18.2761 17.5 16.9329 17.5 15.2761V7.27609C17.5 5.61924 16.1569 4.27609 14.5 4.27609H12.001L12.001 5.77609H14.5C15.3284 5.77609 16 6.44767 16 7.27609V15.2761C16 16.1045 15.3284 16.7761 14.5 16.7761H5.5C4.67157 16.7761 4 16.1045 4 15.2761V7.27609C4 6.44767 4.67157 5.77609 5.5 5.77609Z" fill="#161823"/>
</svg>
