<svg width="24" height="24" viewBox="0 0 24 24" fill="none" xmlns="http://www.w3.org/2000/svg">
<path fill-rule="evenodd" clip-rule="evenodd" d="M3 7.8C3 6.11984 3 5.27976 3.32698 4.63803C3.6146 4.07354 4.07354 3.6146 4.63803 3.32698C5.27976 3 6.11984 3 7.8 3H16.2C17.8802 3 18.7202 3 19.362 3.32698C19.9265 3.6146 20.3854 4.07354 20.673 4.63803C21 5.27976 21 6.11984 21 7.8V12.7C21 14.3802 21 15.2202 20.673 15.862C20.3854 16.4265 19.9265 16.8854 19.362 17.173C18.7202 17.5 17.8802 17.5 16.2 17.5H7.8C6.11984 17.5 5.27976 17.5 4.63803 17.173C4.07354 16.8854 3.6146 16.4265 3.32698 15.862C3 15.2202 3 14.3802 3 12.7V7.8ZM14.7333 9.25C14.7333 8.83579 15.0691 8.5 15.4833 8.5C15.8975 8.5 16.2333 8.83579 16.2333 9.25V13.25C16.2333 13.6642 15.8975 14 15.4833 14C15.0691 14 14.7333 13.6642 14.7333 13.25V9.25ZM11.9833 6.5C11.5691 6.5 11.2333 6.83579 11.2333 7.25V13.25C11.2333 13.6642 11.5691 14 11.9833 14C12.3975 14 12.7333 13.6642 12.7333 13.25V7.25C12.7333 6.83579 12.3975 6.5 11.9833 6.5ZM7.73333 11.25C7.73333 10.8358 8.06912 10.5 8.48333 10.5C8.89755 10.5 9.23333 10.8358 9.23333 11.25V13.25C9.23333 13.6642 8.89755 14 8.48333 14C8.06912 14 7.73333 13.6642 7.73333 13.25V11.25Z" fill="#161823"/>
<path d="M7 19C6.44772 19 6 19.4477 6 20C6 20.5523 6.44772 21 7 21H17C17.5523 21 18 20.5523 18 20C18 19.4477 17.5523 19 17 19H7Z" fill="#161823"/>
</svg>
