<svg width="24" height="24" viewBox="0 0 24 24" fill="none" xmlns="http://www.w3.org/2000/svg">
<path d="M1.96973 19.6396C2.48535 19.6396 2.77539 19.4033 2.97949 18.7588L4.21484 15.0957H9.7041L10.9395 18.7588C11.1436 19.3926 11.4336 19.6396 11.9492 19.6396C12.4971 19.6396 12.8516 19.3281 12.8516 18.8232C12.8516 18.6191 12.7979 18.3936 12.7119 18.1572L8.29688 5.81445C8.02832 5.0625 7.65234 4.71875 6.96484 4.71875C6.27734 4.71875 5.90137 5.0625 5.63281 5.81445L1.21777 18.1572C1.13184 18.415 1.07812 18.6191 1.07812 18.834C1.07812 19.3281 1.43262 19.6396 1.96973 19.6396ZM4.71973 13.5811L6.92188 7.0498H6.99707L9.19922 13.5811H4.71973Z" fill="#161823"/>
<path d="M20.9086 17.9961H20.9838V18.6299C21.0053 19.2422 21.3276 19.6074 21.8754 19.6074C22.4448 19.6074 22.7778 19.2314 22.7778 18.5869V11.7764C22.7778 9.35938 21.2739 8.02734 18.5561 8.02734C17.4496 8.02734 16.601 8.23145 15.9457 8.60742C15.0434 9.12305 14.603 9.74609 14.603 10.3799C14.603 10.8203 14.893 11.1104 15.3227 11.1104C15.6557 11.1104 15.9028 11.0029 16.1606 10.7021C16.8373 9.92871 17.4819 9.5957 18.4379 9.5957C20.06 9.5957 20.9301 10.3369 20.9301 11.7871V12.8828H17.9438C15.4623 12.8828 13.9692 14.1611 13.9692 16.2129C13.9692 18.2861 15.4516 19.6826 17.6538 19.6826C19.0825 19.6826 20.2319 19.0918 20.9086 17.9961ZM15.8598 16.1699C15.8598 15.0205 16.6547 14.376 18.0405 14.376H20.9301V15.6543C20.9301 17.0615 19.7163 18.1357 18.1586 18.1357C16.7836 18.1357 15.8598 17.3408 15.8598 16.1699Z" fill="#161823"/>
</svg>
