<svg width="24" height="24" viewBox="0 0 24 24" fill="none" xmlns="http://www.w3.org/2000/svg">
<path d="M4 5.25C3.58579 5.25 3.25 5.58579 3.25 6C3.25 6.41421 3.58579 6.75 4 6.75H20C20.4142 6.75 20.75 6.41421 20.75 6C20.75 5.58579 20.4142 5.25 20 5.25H4Z" fill="#161823"/>
<path d="M17.5 11.75C17.9142 11.75 18.25 12.0858 18.25 12.5V14.0365L19.8354 14.8292C20.2059 15.0144 20.3561 15.4649 20.1708 15.8354C19.9856 16.2059 19.5351 16.3561 19.1646 16.1708L17.1646 15.1708C16.9105 15.0438 16.75 14.7841 16.75 14.5V12.5C16.75 12.0858 17.0858 11.75 17.5 11.75Z" fill="#161823"/>
<path d="M12.25 14.5C12.25 11.6005 14.6005 9.25 17.5 9.25C20.3995 9.25 22.75 11.6005 22.75 14.5C22.75 17.3995 20.3995 19.75 17.5 19.75C14.6005 19.75 12.25 17.3995 12.25 14.5ZM17.5 10.75C15.4289 10.75 13.75 12.4289 13.75 14.5C13.75 16.5711 15.4289 18.25 17.5 18.25C19.5711 18.25 21.25 16.5711 21.25 14.5C21.25 12.4289 19.5711 10.75 17.5 10.75Z" fill="#161823"/>
<path d="M3.25 12C3.25 11.5858 3.58579 11.25 4 11.25H10.7719V12.75H4C3.58579 12.75 3.25 12.4142 3.25 12Z" fill="#161823"/>
<path d="M4 17.25C3.58579 17.25 3.25 17.5858 3.25 18C3.25 18.4142 3.58579 18.75 4 18.75H10.772V17.25H4Z" fill="#161823"/>
</svg>
