<svg width="16" height="16" viewBox="0 0 16 16" fill="none" xmlns="http://www.w3.org/2000/svg">
<path d="M1.33301 3.6C1.33301 2.71634 2.04935 2 2.93301 2H6.33705C6.7614 2 7.16837 2.16857 7.46843 2.46863L8.19783 3.19804C8.49789 3.4981 8.90486 3.66667 9.32921 3.66667H13.0663C13.95 3.66667 14.6663 4.38301 14.6663 5.26667V12.4C14.6663 13.2837 13.95 14 13.0663 14H2.93301C2.04935 14 1.33301 13.2837 1.33301 12.4V3.6ZM7.6421 6.05205L7.03586 7.67333L5.30659 7.74889C4.95377 7.76431 4.80919 8.20929 5.08556 8.42915L6.44016 9.50672L5.97765 11.1747C5.88328 11.515 6.26181 11.79 6.55631 11.5951L7.99973 10.6398L9.44315 11.5951C9.73765 11.79 10.1162 11.515 10.0218 11.1747L9.55931 9.50672L10.9139 8.42915C11.1903 8.2093 11.0457 7.76431 10.6929 7.74889L8.9636 7.67333L8.35737 6.05205C8.23368 5.72126 7.76579 5.72126 7.6421 6.05205Z" fill="#161823"/>
</svg>
