<svg width="20" height="20" viewBox="0 0 20 20" fill="none" xmlns="http://www.w3.org/2000/svg">
<g opacity="0.9">
<path d="M11.1915 9.23141C11.1915 9.8848 10.6585 10.4142 10.001 10.4142C9.34364 10.4142 8.8106 9.8848 8.81057 9.23141C8.81057 8.57931 9.34362 8.04993 10.001 8.04993C10.6585 8.04993 11.1915 8.57931 11.1915 9.23141Z" fill="#161823"/>
<path d="M7.14154 9.23148C7.14154 9.88487 6.60831 10.4142 5.95052 10.4142C5.29384 10.4142 4.76059 9.88487 4.76059 9.23148C4.76059 8.57939 5.29384 8.05 5.95052 8.05C6.60831 8.05 7.14154 8.57939 7.14154 9.23148Z" fill="#161823"/>
<path d="M14.0514 10.4142C14.7091 10.4142 15.2415 9.88487 15.2415 9.23148C15.2415 8.57939 14.7091 8.05 14.0514 8.05C13.3937 8.05 12.8606 8.57939 12.8606 9.23148C12.8605 9.88487 13.3937 10.4142 14.0514 10.4142Z" fill="#161823"/>
<path d="M9.9999 1.66992C14.5123 1.66992 18.3299 4.92729 18.3299 9.13132C18.3299 11.23 17.3101 12.9781 15.7284 14.5625C14.2077 16.0859 11.8273 17.4067 10.8849 17.9013C10.1747 18.2739 9.35978 17.7444 9.35978 16.9754V16.1066C5.2434 15.8181 1.66992 13.1673 1.66992 9.13143C1.66992 4.92729 5.48754 1.66992 9.9999 1.66992ZM16.8299 9.13132C16.8299 5.92207 13.8607 3.16992 9.9999 3.16992C6.13921 3.16992 3.16992 5.92206 3.16992 9.13143C3.16992 12.2657 6.15894 14.6328 10.1098 14.6328C10.524 14.6328 10.8598 14.9686 10.8598 15.3828V16.2081C11.9467 15.5984 13.5838 14.5877 14.6668 13.5028C16.0921 12.0751 16.8299 10.6858 16.8299 9.13132Z" fill="#161823"/>
</g>
</svg>
