<svg width="20" height="20" viewBox="0 0 20 20" fill="none" xmlns="http://www.w3.org/2000/svg">
<path fill-rule="evenodd" clip-rule="evenodd" d="M3.12109 3.87988C2.77592 3.87988 2.49609 4.21567 2.49609 4.62988C2.49609 5.0441 2.77592 5.37988 3.12109 5.37988H16.8776C17.2228 5.37988 17.5026 5.0441 17.5026 4.62988C17.5026 4.21567 17.2228 3.87988 16.8776 3.87988H3.12109ZM3.125 9.375C2.77982 9.375 2.5 9.71079 2.5 10.125C2.5 10.5392 2.77982 10.875 3.125 10.875H16.8815C17.2267 10.875 17.5065 10.5392 17.5065 10.125C17.5065 9.71079 17.2267 9.375 16.8815 9.375H3.125ZM9.74923 14.8789C9.44331 14.8789 9.19531 15.2147 9.19531 15.6289C9.19531 16.0431 9.44331 16.3789 9.74923 16.3789L16.9521 16.3789C17.258 16.3789 17.506 16.0431 17.506 15.6289C17.506 15.2147 17.258 14.8789 16.9521 14.8789L9.74923 14.8789ZM2.92275 13.2781C3.18401 13.1302 3.50464 13.1342 3.76208 13.2887L6.26208 14.7887C6.51308 14.9393 6.66667 15.2105 6.66667 15.5033C6.66667 15.796 6.51308 16.0672 6.26208 16.2178L3.76208 17.7178C3.50464 17.8723 3.18401 17.8763 2.92275 17.7284C2.66149 17.5805 2.5 17.3035 2.5 17.0033V14.0033C2.5 13.703 2.66149 13.426 2.92275 13.2781Z" fill="#161823"/>
</svg>
