<svg width="24" height="24" viewBox="0 0 24 24" fill="none" xmlns="http://www.w3.org/2000/svg">
<path d="M22 10.8541C22 13.2638 20.8406 15.3333 18.8571 17.3202C17.4106 18.7693 15.302 20.4924 13.8355 21.3272C13.0653 21.7656 12.1449 21.8966 12.1449 20.3135V19C6.6217 19 2 15.7444 2 10.8542C2 5.96406 6.47686 2 12 2C17.5232 2 22 5.96406 22 10.8541ZM10.7416 12.5037L10.5023 14.9369C10.4103 15.805 11.5063 16.249 12.0072 15.5238L15.3303 10.4036C15.7125 9.85051 15.3273 9.0594 14.6459 9.0594H13.5641L14.3998 7.08777C14.6379 6.52601 14.2422 5.88751 13.6376 5.88751H10.6572C10.2795 5.88751 9.95216 6.14887 9.85444 6.52029L8.51107 11.418C8.36766 11.963 8.76033 12.5037 9.31274 12.5037H10.7416Z" fill="#161823"/>
</svg>
