<svg width="24" height="24" viewBox="0 0 24 24" fill="none" xmlns="http://www.w3.org/2000/svg">
<path d="M6.75 1.5C5.23122 1.5 4 2.73122 4 4.25V19.75C4 21.2688 5.23122 22.5 6.75 22.5H12.8405C13.0167 22.5 13.1098 22.2857 12.9972 22.1502C12.7291 21.8274 12.4916 21.4782 12.2893 21.1071C12.2536 21.0416 12.1855 21 12.1109 21H6.75C6.05964 21 5.5 20.4404 5.5 19.75V4.25C5.5 3.55965 6.05965 3 6.75 3H8V3.5C8 4.05228 8.44772 4.5 9 4.5H13C13.5523 4.5 14 4.05228 14 3.5V3H15.25C15.9404 3 16.5 3.55964 16.5 4.25V11.4212C16.5 11.5502 16.6204 11.6454 16.747 11.6207C17.0892 11.5538 17.4409 11.5139 17.8 11.503C17.9104 11.4997 18 11.4105 18 11.3V4.25C18 2.73122 16.7688 1.5 15.25 1.5H6.75Z" fill="#161823"/>
<path d="M14.5 18C14.5 16.067 16.067 14.5 18 14.5C18.4142 14.5 18.75 14.1642 18.75 13.75C18.75 13.3358 18.4142 13 18 13C15.2386 13 13 15.2386 13 18C13 20.7614 15.2386 23 18 23C20.7614 23 23 20.7614 23 18C23 16.7161 22.5151 15.5437 21.7197 14.6587C21.5821 14.5056 21.3876 14.4158 21.1819 14.4103C20.9761 14.4048 20.7771 14.4842 20.6315 14.6297L17.9206 17.3407L17.4178 16.8379C17.1249 16.545 16.65 16.545 16.3571 16.8379C16.0642 17.1308 16.0642 17.6057 16.3571 17.8986L17.3902 18.9317C17.5309 19.0723 17.7216 19.1514 17.9206 19.1514C18.1195 19.1514 18.3102 19.0723 18.4509 18.9317L21.0683 16.3143C21.3436 16.8142 21.5 17.3884 21.5 18C21.5 19.933 19.933 21.5 18 21.5C16.067 21.5 14.5 19.933 14.5 18Z" fill="#161823"/>
</svg>
