<svg width="24" height="24" viewBox="0 0 24 24" fill="none" xmlns="http://www.w3.org/2000/svg">
<path d="M10.5 1.75C5.66751 1.75 1.75 5.66751 1.75 10.5C1.75 15.3325 5.66751 19.25 10.5 19.25C12.5559 19.25 14.4463 18.5409 15.9398 17.354L20.5429 21.9571C20.9334 22.3476 21.5666 22.3476 21.9571 21.9571C22.3476 21.5666 22.3476 20.9334 21.9571 20.5429L17.354 15.9398C18.5409 14.4463 19.25 12.5559 19.25 10.5C19.25 5.66751 15.3325 1.75 10.5 1.75ZM3.75 10.5C3.75 6.77208 6.77208 3.75 10.5 3.75C14.2279 3.75 17.25 6.77208 17.25 10.5C17.25 14.2279 14.2279 17.25 10.5 17.25C6.77208 17.25 3.75 14.2279 3.75 10.5Z" fill="#161823"/>
</svg>
