<svg width="24" height="24" viewBox="0 0 24 24" fill="none" xmlns="http://www.w3.org/2000/svg">
<path d="M21.0001 5.25003C21.0001 7.04496 19.5442 8.50003 17.7482 8.50003C16.8092 8.50003 15.9631 8.10224 15.3695 7.46607L11.2556 9.81586C11.4154 10.263 11.5024 10.7447 11.5024 11.2467C11.5024 11.8881 11.3604 12.4962 11.1061 13.0415L14.6634 15.5274C15.3363 14.8879 16.2463 14.4955 17.2478 14.4955C19.3201 14.4955 21.0001 16.1754 21.0001 18.2478C21.0001 20.3201 19.3201 22 17.2478 22C15.1755 22 13.4956 20.3201 13.4956 18.2478C13.4956 17.7179 13.6054 17.2136 13.8036 16.7565L10.2422 14.2678C9.47413 15.0283 8.41753 15.498 7.25122 15.498C4.90334 15.498 3 13.5946 3 11.2467C3 8.89885 4.90334 6.99551 7.25122 6.99551C8.55903 6.99551 9.72891 7.58606 10.5087 8.51503L14.6265 6.16306C14.5418 5.87341 14.4964 5.56702 14.4964 5.25003C14.4964 3.45511 15.9523 2.00003 17.7482 2.00003C19.5442 2.00003 21.0001 3.45511 21.0001 5.25003ZM19.5001 5.25003C19.5001 4.28434 18.7166 3.50003 17.7482 3.50003C16.7799 3.50003 15.9964 4.28434 15.9964 5.25003C15.9964 6.21572 16.7799 7.00003 17.7482 7.00003C18.7166 7.00003 19.5001 6.21572 19.5001 5.25003ZM10.0024 11.2467C10.0024 9.72728 8.77068 8.49551 7.25122 8.49551C5.73176 8.49551 4.5 9.72728 4.5 11.2467C4.5 12.7662 5.73176 13.998 7.25122 13.998C8.77068 13.998 10.0024 12.7662 10.0024 11.2467ZM19.5001 18.2478C19.5001 17.0039 18.4917 15.9955 17.2478 15.9955C16.004 15.9955 14.9956 17.0039 14.9956 18.2478C14.9956 19.4916 16.004 20.5 17.2478 20.5C18.4917 20.5 19.5001 19.4916 19.5001 18.2478Z" fill="#161823"/>
</svg>
