<svg width="20" height="20" viewBox="0 0 20 20" fill="none" xmlns="http://www.w3.org/2000/svg">
<path d="M10.7833 13.0167V15.8821C14.85 13.0532 17 10.056 17 7.41566C17 4.91659 15.367 3.5 13.613 3.5C12.6086 3.5 11.99 4.33763 11.3187 5.00895L10.1473 6.28897C10.0681 6.37554 9.93176 6.37563 9.85244 6.28917L8.66568 4.99575C8.00493 4.335 7.39637 3.5 6.38696 3.5C4.63325 3.5 3.00042 4.91623 3 7.4147C3.00715 7.49061 3.00884 7.56693 3.01054 7.64332C3.01219 7.71782 3.01384 7.79239 3.02056 7.86667H3.01736C3.02781 8.00919 3.0441 8.15197 3.06614 8.29503C3.12921 8.70442 2.84847 9.08742 2.43909 9.15049C2.0297 9.21356 1.6467 8.93282 1.58363 8.52343C1.54408 8.26671 1.51883 8.00872 1.50857 7.74984C1.50287 7.63848 1.5 7.52708 1.5 7.41566C1.5 4.18743 3.7087 2 6.38696 2C7.45214 2 8.33681 2.38057 9.0229 3.01114C9.41218 3.36892 9.73753 3.80719 9.99565 4.30209C10.2593 3.80855 10.5865 3.37134 10.9755 3.0141C11.664 2.38176 12.5462 2 13.613 2C16.2913 2 18.5 4.18743 18.5 7.41566C18.5 10.9967 15.5348 14.5513 10.9957 17.5502C10.6478 17.7883 10.2565 18 9.99565 18C9.91072 18 9.81288 17.9776 9.70753 17.9391C9.43156 17.8382 9.28333 17.5493 9.28333 17.2554V13.0167C9.28333 12.6025 9.61912 12.2667 10.0333 12.2667C10.4475 12.2667 10.7833 12.6025 10.7833 13.0167Z" fill="#161823"/>
<path d="M2 14.4167C2 14.8309 2.33579 15.1667 2.75 15.1667C3.16421 15.1667 3.5 14.8309 3.5 14.4167L3.5 11.4167C3.5 11.0025 3.16421 10.6667 2.75 10.6667C2.33579 10.6667 2 11.0025 2 11.4167L2 14.4167Z" fill="#161823"/>
<path d="M4.41667 16.0167C4.41667 16.4309 4.75245 16.7667 5.16667 16.7667C5.58088 16.7667 5.91667 16.4309 5.91667 16.0167V13.0167C5.91667 12.6025 5.58088 12.2667 5.16667 12.2667C4.75245 12.2667 4.41667 12.6025 4.41667 13.0167L4.41667 16.0167Z" fill="#161823"/>
<path d="M7.6 15.1667C7.18579 15.1667 6.85 14.8309 6.85 14.4167V11.4167C6.85 11.0025 7.18579 10.6667 7.6 10.6667C8.01421 10.6667 8.35 11.0025 8.35 11.4167V14.4167C8.35 14.8309 8.01421 15.1667 7.6 15.1667Z" fill="#161823"/>
</svg>
