<svg width="12" height="12" viewBox="0 0 12 12" fill="none" xmlns="http://www.w3.org/2000/svg">
<path d="M10.0695 6.26191C10.339 6.5764 10.3026 7.04987 9.98811 7.31944L6.48811 10.3194C6.20724 10.5602 5.79279 10.5602 5.51192 10.3194L2.01192 7.31944C1.69743 7.04987 1.661 6.5764 1.93057 6.26191C2.20014 5.94741 2.67361 5.91099 2.98811 6.18056L6.00001 8.76219L9.01192 6.18056C9.32641 5.91099 9.79989 5.94741 10.0695 6.26191Z" fill="#161823"/>
<path d="M10.0697 2.26222C9.80034 1.94758 9.32689 1.91089 9.01224 2.18028L6 4.75928L2.98779 2.18029C2.67315 1.91089 2.19969 1.94758 1.9303 2.26222C1.66091 2.57687 1.69759 3.05032 2.01224 3.31971L5.51222 6.31632C5.79298 6.55671 6.20701 6.55671 6.48777 6.31633L9.98779 3.31971C10.3024 3.05032 10.3391 2.57687 10.0697 2.26222Z" fill="#161823"/>
</svg>
