<svg width="16" height="16" viewBox="0 0 16 16" fill="none" xmlns="http://www.w3.org/2000/svg">
<path d="M7.99967 14.6667C11.6816 14.6667 14.6663 11.6819 14.6663 8.00004C14.6663 4.31814 11.6816 1.33337 7.99967 1.33337C4.31778 1.33337 1.33301 4.31814 1.33301 8.00004C1.33301 11.6819 4.31778 14.6667 7.99967 14.6667ZM4.66638 9C4.1141 9 3.66638 8.55228 3.66638 8C3.66638 7.44772 4.1141 7 4.66638 7C5.21867 7 5.66638 7.44772 5.66638 8C5.66638 8.55228 5.21867 9 4.66638 9ZM8.99969 8C8.99969 8.55228 8.55198 9 7.99969 9C7.44741 9 6.99969 8.55228 6.99969 8C6.99969 7.44772 7.44741 7 7.99969 7C8.55198 7 8.99969 7.44772 8.99969 8ZM11.333 9C10.7807 9 10.333 8.55228 10.333 8C10.333 7.44772 10.7807 7 11.333 7C11.8853 7 12.333 7.44772 12.333 8C12.333 8.55228 11.8853 9 11.333 9Z" fill="#161823"/>
</svg>
