<svg width="16" height="16" viewBox="0 0 16 16" fill="none" xmlns="http://www.w3.org/2000/svg">
<path d="M8.73335 10.7333C8.73335 11.1383 8.40503 11.4667 8.00002 11.4667C7.59501 11.4667 7.26669 11.1383 7.26669 10.7333C7.26669 10.3283 7.59501 10 8.00002 10C8.40503 10 8.73335 10.3283 8.73335 10.7333Z" fill="#161823"/>
<path d="M6.66667 6.9365C6.99939 6.9365 7.17997 6.8349 7.33594 6.40885C7.46473 6.05702 7.87087 5.99987 8.16667 5.99987C8.56191 5.99987 9 6.20563 9 6.6555C9 7.00453 8.65829 7.21857 8.28402 7.45302C7.83091 7.73686 7.33006 8.05059 7.33006 8.66994C7.33006 9.03813 7.62854 9.3366 7.99673 9.3366C8.34745 9.3366 8.60136 9.20926 8.6614 8.72183C8.70612 8.35882 9.0415 8.12141 9.40119 7.8668C9.85327 7.54678 10.3438 7.19959 10.3438 6.54166C10.3438 5.55312 9.55869 4.66653 8.16667 4.66653C7.31467 4.66653 6 5.26229 6 6.26983C6 6.63802 6.29848 6.9365 6.66667 6.9365Z" fill="#161823"/>
<path fill-rule="evenodd" clip-rule="evenodd" d="M8 15C11.866 15 15 11.866 15 8C15 4.13401 11.866 1 8 1C4.13401 1 1 4.13401 1 8C1 11.866 4.13401 15 8 15ZM8 13.8C11.2033 13.8 13.8 11.2033 13.8 8C13.8 4.79675 11.2033 2.2 8 2.2C4.79675 2.2 2.2 4.79675 2.2 8C2.2 11.2033 4.79675 13.8 8 13.8Z" fill="#161823"/>
</svg>
