<svg width="20" height="20" viewBox="0 0 20 20" fill="none" xmlns="http://www.w3.org/2000/svg">
<path d="M5.10157 2.50488H14.8983H14.8983C15.3472 2.50487 15.7296 2.50486 16.0433 2.53091C16.3729 2.55829 16.6934 2.61827 16.9989 2.77697C17.4403 3.00625 17.8002 3.36614 18.0295 3.80753C18.1882 4.11304 18.2482 4.43354 18.2755 4.7632C18.3016 5.07691 18.3016 5.45922 18.3016 5.90821V11.6016C18.3016 12.0506 18.3016 12.4329 18.2755 12.7466C18.2482 13.0762 18.1882 13.3967 18.0295 13.7022C17.8002 14.1436 17.4403 14.5035 16.9989 14.7328C16.6934 14.8915 16.3729 14.9515 16.0433 14.9789C15.7296 15.0049 15.3472 15.0049 14.8983 15.0049H5.10157C4.65258 15.0049 4.27027 15.0049 3.95656 14.9789C3.6269 14.9515 3.3064 14.8915 3.00089 14.7328C2.5595 14.5035 2.19961 14.1436 1.97033 13.7022C1.81163 13.3967 1.75165 13.0762 1.72427 12.7466C1.69822 12.4329 1.69823 12.0506 1.69824 11.6016V11.6016V5.90819V5.90816C1.69823 5.45919 1.69822 5.0769 1.72427 4.7632C1.75165 4.43354 1.81163 4.11304 1.97033 3.80753C2.19961 3.36614 2.5595 3.00625 3.00089 2.77697C3.3064 2.61827 3.6269 2.55829 3.95656 2.53091C4.27026 2.50486 4.65258 2.50487 5.10154 2.50488H5.10157ZM4.0807 4.02577C3.84547 4.0453 3.74807 4.07915 3.69235 4.10809C3.52493 4.19506 3.38842 4.33157 3.30145 4.49899C3.2725 4.55471 3.23866 4.65212 3.21913 4.88734C3.19885 5.13154 3.19824 5.45105 3.19824 5.93822V11.5716C3.19824 12.0587 3.19885 12.3782 3.21913 12.6224C3.23866 12.8577 3.2725 12.9551 3.30145 13.0108C3.38842 13.1782 3.52493 13.3147 3.69235 13.4017C3.74807 13.4306 3.84547 13.4645 4.0807 13.484C4.3249 13.5043 4.64441 13.5049 5.13158 13.5049H14.8682C15.3554 13.5049 15.6749 13.5043 15.9191 13.484C16.1543 13.4645 16.2518 13.4306 16.3075 13.4017C16.4749 13.3147 16.6114 13.1782 16.6984 13.0108C16.7273 12.9551 16.7612 12.8577 16.7807 12.6224C16.801 12.3782 16.8016 12.0587 16.8016 11.5716V5.93822C16.8016 5.45105 16.801 5.13154 16.7807 4.88734C16.7612 4.65212 16.7273 4.55471 16.6984 4.49899C16.6114 4.33157 16.4749 4.19506 16.3075 4.10809C16.2518 4.07915 16.1543 4.0453 15.9191 4.02577C15.6749 4.00549 15.3554 4.00489 14.8682 4.00489H5.13158C4.64441 4.00489 4.3249 4.00549 4.0807 4.02577ZM4.24992 17.2506C4.24992 16.8364 4.5857 16.5006 4.99992 16.5006H14.9999C15.4141 16.5006 15.7499 16.8364 15.7499 17.2506C15.7499 17.6648 15.4141 18.0006 14.9999 18.0006H4.99992C4.5857 18.0006 4.24992 17.6648 4.24992 17.2506ZM14.523 6.9337L11.8173 10.1381C11.4183 10.6108 10.7335 10.7204 10.2068 10.3961L8.39648 9.28119L6.62876 11.4268C6.36537 11.7464 5.89269 11.7921 5.57301 11.5287C5.25332 11.2653 5.20768 10.7926 5.47107 10.4729L7.37733 8.15923C7.77432 7.67739 8.46596 7.56234 8.99755 7.88973L10.8101 9.00598L13.3769 5.966C13.6441 5.64951 14.1173 5.60957 14.4338 5.87679C14.7503 6.14402 14.7902 6.61721 14.523 6.9337Z" fill="#161823"/>
</svg>
