<svg width="24" height="24" viewBox="0 0 24 24" fill="none" xmlns="http://www.w3.org/2000/svg">
<path fill-rule="evenodd" clip-rule="evenodd" d="M11.9996 2C11.1835 2 10.3893 2.09785 9.62853 2.28279C9.27204 2.36944 9.03309 2.7044 9.06725 3.06958C9.14214 3.8702 8.75606 4.67624 8.01653 5.10308C7.27749 5.52965 6.38691 5.46128 5.73093 4.99696C5.4319 4.7853 5.02291 4.8246 4.76967 5.08932C3.6767 6.23185 2.85136 7.634 2.39589 9.19498C2.29325 9.54677 2.46401 9.92062 2.79715 10.0735C3.52823 10.4089 4.03351 11.1462 4.03351 12C4.03351 12.8538 3.52823 13.5911 2.79715 13.9265C2.46401 14.0794 2.29325 14.4533 2.39589 14.805C2.85136 16.366 3.6767 17.7682 4.76967 18.9107C5.02291 19.1754 5.4319 19.2147 5.73093 19.0031C6.38691 18.5387 7.2775 18.4704 8.01653 18.8969C8.75606 19.3238 9.14214 20.1298 9.06725 20.9304C9.03309 21.2956 9.27205 21.6306 9.62853 21.7172C10.3893 21.9022 11.1835 22 11.9996 22C12.8105 22 13.5999 21.9034 14.3564 21.7207C14.7137 21.6344 14.9533 21.2986 14.9187 20.9328C14.8428 20.1314 15.2289 19.3242 15.9692 18.8969C16.7104 18.4691 17.6042 18.5392 18.2607 19.0072C18.5596 19.2204 18.9696 19.1818 19.2236 18.9168C20.3195 17.7732 21.1469 16.3688 21.6032 14.805C21.7059 14.4533 21.5351 14.0794 21.202 13.9265C20.4709 13.5911 19.9656 12.8538 19.9656 12C19.9656 11.1462 20.4709 10.4089 21.202 10.0735C21.5351 9.92062 21.7059 9.54677 21.6032 9.19498C21.1469 7.63122 20.3195 6.22685 19.2236 5.0832C18.9696 4.81817 18.5596 4.77966 18.2607 4.99277C17.6042 5.46086 16.7104 5.53094 15.9692 5.10309C15.2289 4.67582 14.8428 3.86861 14.9187 3.06724C14.9533 2.70137 14.7137 2.36566 14.3564 2.27936C13.5999 2.09664 12.8105 2 11.9996 2ZM8.75565 6.38293C9.80566 5.77687 10.4335 4.72203 10.5388 3.60235C11.013 3.52053 11.501 3.47783 11.9996 3.47783C12.4933 3.47783 12.9767 3.51972 13.4467 3.60001C13.5514 4.72057 14.1793 5.77644 15.2301 6.38293C16.283 6.99066 17.5145 7.00522 18.5388 6.53258C19.1643 7.27942 19.6638 8.13454 20.0053 9.06529C19.0876 9.71625 18.4874 10.7875 18.4874 12C18.4874 13.2125 19.0876 14.2838 20.0053 14.9347C19.6638 15.8655 19.1643 16.7206 18.5388 17.4674C17.5145 16.9948 16.283 17.0094 15.2301 17.6171C14.1793 18.2236 13.5514 19.2795 13.4467 20.4C12.9767 20.4803 12.4933 20.5222 11.9996 20.5222C11.501 20.5222 11.013 20.4795 10.5388 20.3977C10.4335 19.278 9.80566 18.2232 8.75565 17.6171C7.70605 17.0113 6.47893 16.9949 5.45658 17.463C4.83283 16.7172 4.33458 15.8636 3.99377 14.9347C4.91152 14.2838 5.51174 13.2125 5.51174 12C5.51174 10.7875 4.91152 9.71625 3.99377 9.06529C4.33458 8.13639 4.83283 7.28282 5.45658 6.53703C6.47893 7.00512 7.70605 6.98875 8.75565 6.38293ZM15.0874 12C15.0874 13.7049 13.7049 15.087 11.9996 15.087C10.2942 15.087 8.91168 13.7049 8.91168 12C8.91168 10.2951 10.2942 8.91298 11.9996 8.91298C13.7049 8.91298 15.0874 10.2951 15.0874 12ZM11.9996 16.5649C14.5213 16.5649 16.5657 14.5211 16.5657 12C16.5657 9.4789 14.5213 7.43514 11.9996 7.43514C9.47776 7.43514 7.43345 9.4789 7.43345 12C7.43345 14.5211 9.47776 16.5649 11.9996 16.5649Z" fill="#161823"/>
</svg>
