<svg preserveAspectRatio="none" width="100%" height="100%" overflow="visible" style="display: block;" viewBox="0 0 9 9" fill="none" xmlns="http://www.w3.org/2000/svg">
<g id="ic_s_s_phonelinkplus" opacity="0.5">
<g id="icon">
<path d="M3.98612 1.48694C4.71831 0.614352 6.01925 0.500538 6.89184 1.23273C7.76443 1.96492 7.87825 3.26585 7.14605 4.13844L6.76038 4.59807C6.56069 4.83605 6.20589 4.86709 5.96791 4.6674C5.72993 4.46771 5.69889 4.11291 5.89858 3.87494L6.28425 3.41531C6.61707 3.01868 6.56533 2.42734 6.1687 2.09453C5.77207 1.76171 5.18074 1.81345 4.84792 2.21008L4.07658 3.12933C3.84416 3.40631 3.79928 3.77824 3.92842 4.09077C4.02333 4.32046 4.06263 4.60445 3.90288 4.79483L3.78235 4.93847C3.60929 5.14472 3.29561 5.17418 3.13545 4.95775C2.5812 4.2088 2.58954 3.15133 3.21478 2.4062L3.98612 1.48694Z" fill="var(--fill-0, #161823)"/>
<path d="M5.24311 3.94927C5.08296 3.73284 4.76927 3.7623 4.59621 3.96855L4.47569 4.11218C4.31594 4.30257 4.35523 4.58655 4.45014 4.81624C4.57928 5.12878 4.5344 5.5007 4.30199 5.77768L3.53064 6.69694C3.19783 7.09357 2.60649 7.14531 2.20986 6.81249C1.81323 6.47968 1.76149 5.88834 2.09431 5.49171L2.47998 5.03208C2.67967 4.7941 2.64863 4.4393 2.41065 4.23962C2.17267 4.03993 1.81787 4.07097 1.61818 4.30895L1.23251 4.76857C0.500317 5.64117 0.614134 6.9421 1.48673 7.67429C2.35932 8.40648 3.66025 8.29267 4.39244 7.42008L5.16379 6.50082C5.78902 5.75569 5.79736 4.69822 5.24311 3.94927Z" fill="var(--fill-0, #161823)"/>
</g>
</g>
</svg>
