<svg width="24" height="24" viewBox="0 0 24 24" fill="none" xmlns="http://www.w3.org/2000/svg">
<path d="M17.3131 3.18991C17.3131 2.81457 17.7559 2.61473 18.0374 2.86307L20.819 5.3174C21.0812 5.54876 21.0812 5.95761 20.819 6.18897L18.0374 8.6433C17.7559 8.89163 17.3131 8.69181 17.3131 8.31646V6.50317L6.76465 6.50317C5.52201 6.50317 4.51465 7.51053 4.51465 8.75317V9.87817C4.51465 10.2924 4.17886 10.6282 3.76465 10.6282C3.35043 10.6282 3.01465 10.2924 3.01465 9.87817V8.75317C3.01465 6.68211 4.69358 5.00317 6.76465 5.00317L17.3131 5.00317V3.18991ZM20.9966 15.246C20.9966 17.3171 19.3176 18.996 17.2466 18.996H6.7025V20.8093C6.7025 21.1846 6.25968 21.3845 5.97823 21.1361L3.19666 18.6818C2.93445 18.4504 2.93445 18.0416 3.19666 17.8102L5.97823 15.3559C6.25968 15.1075 6.7025 15.3074 6.7025 15.6827V17.496H17.2466C18.4892 17.496 19.4966 16.4886 19.4966 15.246V14.121C19.4966 13.7068 19.8324 13.371 20.2466 13.371C20.6608 13.371 20.9966 13.7068 20.9966 14.121V15.246ZM12.1689 15.5088C11.7588 15.5088 11.5195 15.2451 11.5195 14.8008V10.0547H11.4902L10.8213 10.5283C10.6113 10.665 10.4893 10.709 10.3477 10.709C10.0791 10.709 9.87891 10.5088 9.87891 10.2402C9.87891 10.0352 10.0059 9.85449 10.2549 9.68848L11.1289 9.07812C11.4805 8.83887 11.7588 8.74121 12.0322 8.74121C12.5059 8.74121 12.8232 9.06836 12.8232 9.56152V14.8008C12.8232 15.25 12.584 15.5088 12.1689 15.5088Z" fill="#161823"/>
</svg>
