<svg width="16" height="16" viewBox="0 0 16 16" fill="none" xmlns="http://www.w3.org/2000/svg">
<path fill-rule="evenodd" clip-rule="evenodd" d="M1.71387 3.08582C1.71387 2.01281 2.58371 1.14297 3.65672 1.14297H10.6282C11.7012 1.14297 12.571 2.01281 12.571 3.08582V8.01251C12.1726 7.87523 11.745 7.80068 11.3 7.80068C9.14626 7.80068 7.40032 9.54662 7.40032 11.7003C7.40032 12.6922 7.77064 13.5976 8.38056 14.2858H3.65672C2.58371 14.2858 1.71387 13.416 1.71387 12.343V3.08582ZM8.77956 7.00882L6.7999 5.70019C6.45056 5.46927 5.97698 5.71164 5.97698 6.12136L5.97698 8.73861C5.97698 9.14833 6.45056 9.39071 6.7999 9.15978L8.77956 7.85116C9.08577 7.64874 9.08577 7.21124 8.77956 7.00882ZM11.3 8.70068C9.64317 8.70068 8.30002 10.0438 8.30002 11.7007C8.30002 13.3575 9.64317 14.7007 11.3 14.7007C12.9569 14.7007 14.3 13.3575 14.3 11.7007C14.3 10.0438 12.9569 8.70068 11.3 8.70068ZM11.2998 9.80039C11.5207 9.80039 11.6998 9.97948 11.6998 10.2004V11.3004H12.7998C13.0207 11.3004 13.1998 11.4795 13.1998 11.7004C13.1998 11.9213 13.0207 12.1004 12.7998 12.1004L11.2998 12.1004C11.0789 12.1004 10.8998 11.9213 10.8998 11.7004V10.2004C10.8998 9.97948 11.0789 9.80039 11.2998 9.80039Z" fill="#161823"/>
</svg>
