<svg width="24" height="24" viewBox="0 0 24 24" fill="none" xmlns="http://www.w3.org/2000/svg">
<path fill-rule="evenodd" clip-rule="evenodd" d="M17.6191 15.3604C18.9778 15.3604 20.0791 16.4617 20.0791 17.8203C20.0789 19.1788 18.9777 20.2803 17.6191 20.2803C16.2606 20.2802 15.1594 19.1788 15.1592 17.8203C15.1592 16.4617 16.2605 15.3604 17.6191 15.3604ZM17.6191 16.8604C17.089 16.8604 16.6592 17.2902 16.6592 17.8203C16.6594 18.3503 17.0891 18.7802 17.6191 18.7803C18.1492 18.7803 18.5789 18.3504 18.5791 17.8203C18.5791 17.2901 18.1493 16.8604 17.6191 16.8604Z" fill="#161823"/>
<path fill-rule="evenodd" clip-rule="evenodd" d="M16.6924 12.3604C17.2502 12.0398 17.9383 12.0398 18.4961 12.3604L21.8877 14.3096C22.4454 14.6302 22.789 15.2232 22.7891 15.8643V19.7627L22.7852 19.8818C22.7455 20.4763 22.4105 21.0158 21.8877 21.3164L18.4961 23.2656L18.3896 23.3223C17.8525 23.5853 17.2154 23.5662 16.6924 23.2656L13.3008 21.3164C12.7779 21.0158 12.443 20.4764 12.4033 19.8818L12.3994 19.7627V15.8643C12.3994 15.2231 12.743 14.6301 13.3008 14.3096L16.6924 12.3604ZM17.5898 13.9209L14.1992 15.8691V19.7559L17.5898 21.7051C17.5898 21.7051 17.5917 21.706 17.5938 21.7061C17.5962 21.706 17.5986 21.7051 17.5986 21.7051L20.9893 19.7559V15.8691L17.5986 13.9209C17.5986 13.9209 17.596 13.9199 17.5938 13.9199L17.5898 13.9209Z" fill="#161823"/>
<path d="M14.8457 1.72461C16.9587 1.83215 18.6395 3.58002 18.6396 5.71973V10.7236C18.6396 10.8397 18.5195 10.9178 18.4092 10.8818C17.9727 10.7395 17.5034 10.7295 17.0625 10.8525C16.9539 10.8828 16.8398 10.8051 16.8398 10.6924V5.71973C16.8397 4.50503 15.8543 3.51987 14.6396 3.51953H6.39941C5.18447 3.51953 4.19936 4.50482 4.19922 5.71973V17.5996C4.19922 18.8146 5.18439 19.7998 6.39941 19.7998H10.8955C10.9838 19.7998 11.0556 19.8716 11.0557 19.96V20.4541C11.0557 20.7674 11.1212 21.0719 11.2422 21.3506C11.2913 21.4641 11.2126 21.5996 11.0889 21.5996H6.39941C4.19028 21.5996 2.39941 19.8087 2.39941 17.5996V5.71973C2.39955 3.57981 4.08006 1.83184 6.19336 1.72461L6.39941 1.71973H14.6396L14.8457 1.72461Z" fill="#161823"/>
<path fill-rule="evenodd" clip-rule="evenodd" d="M7.93945 9.07227C7.93945 7.70691 9.42491 6.99335 10.5117 7.60449L10.6152 7.66699L13.6973 9.69531C14.714 10.3647 14.7141 11.8356 13.6973 12.5049L10.6152 14.5332C9.52209 15.2523 7.93987 14.5377 7.93945 13.1289V9.07227ZM9.74023 12.9541L12.5566 11.0996L9.74023 9.24512V12.9541Z" fill="#161823"/>
</svg>
