<svg width="24" height="24" viewBox="0 0 24 24" fill="none" xmlns="http://www.w3.org/2000/svg">
<path d="M8.00006 9.5C8.00006 11.0247 8.525 12.4267 9.40402 13.5353L7.50003 15.4393L4.5304 12.4697C4.23751 12.1768 3.76264 12.1768 3.46974 12.4697C3.17685 12.7626 3.17685 13.2374 3.46974 13.5303L6.43937 16.5L3.21967 19.7197C2.92678 20.0126 2.92678 20.4874 3.21967 20.7803C3.51256 21.0732 3.98744 21.0732 4.28033 20.7803L7.50003 17.5606L10.4697 20.5303C10.7626 20.8232 11.2375 20.8232 11.5304 20.5303C11.8233 20.2374 11.8233 19.7626 11.5304 19.4697L8.56069 16.5L10.4647 14.596C11.5733 15.475 12.9754 16 14.5001 16C18.0899 16 21.0001 13.0899 21.0001 9.5C21.0001 5.91015 18.0899 3 14.5001 3C10.9102 3 8.00006 5.91015 8.00006 9.5ZM14.5001 14.5C13.1979 14.5 12.0121 14.0023 11.1224 13.1867C11.0883 13.1229 11.0445 13.063 10.9907 13.0093C10.937 12.9555 10.8771 12.9116 10.8133 12.8776C9.99777 11.9879 9.50006 10.8021 9.50006 9.5C9.50006 6.73858 11.7386 4.5 14.5001 4.5C17.2615 4.5 19.5001 6.73858 19.5001 9.5C19.5001 12.2614 17.2615 14.5 14.5001 14.5Z" fill="#161823"/>
</svg>
