<svg width="24" height="24" viewBox="0 0 24 24" fill="none" xmlns="http://www.w3.org/2000/svg">
<path d="M5 3.5H17C17.2761 3.5 17.5 3.72386 17.5 4V10.6259C17.7131 10.5543 17.9407 10.5156 18.1767 10.5156H19V4C19 2.89543 18.1046 2 17 2H5C3.89543 2 3 2.89543 3 4V20C3 21.1046 3.89543 22 5 22H17C18.1046 22 19 21.1046 19 20V18.8902C18.5824 19.2861 18.0438 19.493 17.5 19.501V20C17.5 20.2761 17.2761 20.5 17 20.5H5C4.72386 20.5 4.5 20.2761 4.5 20V4C4.5 3.72386 4.72386 3.5 5 3.5ZM6.51172 6.25C6.51172 5.83579 6.84751 5.5 7.26172 5.5L14.2612 5.5C14.6754 5.5 15.0112 5.83579 15.0112 6.25C15.0112 6.66421 14.6754 7 14.2612 7L7.26172 7C6.84751 7 6.51172 6.66421 6.51172 6.25ZM7.26172 9C6.84751 9 6.51172 9.33579 6.51172 9.75C6.51172 10.1642 6.84751 10.5 7.26172 10.5L14.2612 10.5C14.6754 10.5 15.0112 10.1642 15.0112 9.75C15.0112 9.33579 14.6754 9 14.2612 9L7.26172 9ZM6.51172 13.25C6.51172 12.8358 6.84751 12.5 7.26172 12.5H11.2578C11.6721 12.5 12.0078 12.8358 12.0078 13.25C12.0078 13.6642 11.6721 14 11.2578 14H7.26172C6.84751 14 6.51172 13.6642 6.51172 13.25ZM18.1767 12.0156C17.9177 12.0156 17.6842 12.1763 17.5851 12.4227C17.4859 12.6691 17.5407 12.9527 17.7239 13.1413L18.9492 14.4031L17.4028 16.1773L15.9496 14.8884C15.6462 14.6193 15.1899 14.648 14.9206 14.9531L12.4575 17.7429C12.183 18.0539 12.2053 18.5351 12.5073 18.8177C12.8092 19.1004 13.2765 19.0775 13.5511 18.7666L15.5302 16.5248L16.9869 17.8168C17.2916 18.0871 17.7503 18.0568 18.019 17.7485L19.9957 15.4807L21.1722 16.6921C21.3553 16.8807 21.6308 16.9371 21.8701 16.835C22.1094 16.7329 22.2654 16.4925 22.2654 16.2258V12.675C22.2654 12.3109 21.9787 12.0156 21.625 12.0156H18.1767Z" fill="#161823"/>
</svg>
