<svg width="20" height="20" viewBox="0 0 20 20" fill="none" xmlns="http://www.w3.org/2000/svg">
<path d="M3.45801 3.20825C1.93923 3.20825 0.708008 4.43947 0.708008 5.95825V14.0416C0.708008 15.5604 1.93923 16.7916 3.45801 16.7916H5.14747C5.24063 16.4871 5.41271 16.195 5.67426 15.9413L6.34416 15.2916H3.45801C2.76765 15.2916 2.20801 14.7319 2.20801 14.0416V5.95825C2.20801 5.2679 2.76765 4.70825 3.45801 4.70825H16.5413C17.2317 4.70825 17.7913 5.2679 17.7913 5.95825V14.0416C17.7913 14.7319 17.2317 15.2916 16.5413 15.2916H13.6552L14.3251 15.9413C14.5867 16.195 14.7588 16.4871 14.8519 16.7916H16.5413C18.0601 16.7916 19.2913 15.5604 19.2913 14.0416V5.95825C19.2913 4.43947 18.0601 3.20825 16.5413 3.20825H3.45801Z" fill="#161823"/>
<path d="M10.5798 14.3984C10.2566 14.0849 9.74274 14.0849 9.41948 14.3984L6.71857 17.0181C6.39616 17.3308 6.61753 17.877 7.06668 17.877H12.9327C13.3818 17.877 13.6032 17.3308 13.2808 17.0181L10.5798 14.3984Z" fill="#161823"/>
<path d="M6.99969 9.74992C6.99969 9.33571 7.33548 8.99992 7.74969 8.99992H12.2497C12.6639 8.99992 12.9997 9.33571 12.9997 9.74992C12.9997 10.1641 12.6639 10.4999 12.2497 10.4999H7.74969C7.33548 10.4999 6.99969 10.1641 6.99969 9.74992Z" fill="#161823"/>
</svg>
