<svg width="20" height="20" viewBox="0 0 20 20" fill="none" xmlns="http://www.w3.org/2000/svg">
<path d="M15.3711 2.53536C14.7658 1.93005 13.7844 1.93005 13.1791 2.53536L5.17504 10.5394C4.93021 10.7842 4.76351 11.0962 4.69603 11.4358L4.20842 13.8896C4.07764 14.5478 4.65186 15.1304 5.31182 15.0092L7.79488 14.5531C8.14393 14.489 8.46524 14.3203 8.71619 14.0693L16.7146 6.07089C17.3199 5.46558 17.3199 4.48418 16.7146 3.87886L15.3711 2.53536ZM14.2398 3.59602C14.2593 3.57649 14.2909 3.57649 14.3105 3.59602L15.654 4.93952C15.6735 4.95905 15.6735 4.99071 15.654 5.01023L7.65553 13.0087C7.61968 13.0445 7.57377 13.0686 7.52391 13.0778L5.90995 13.3742C5.87522 13.3806 5.845 13.3499 5.85188 13.3153L6.16727 11.7281C6.17691 11.6796 6.20072 11.6351 6.2357 11.6001L14.2398 3.59602Z" fill="#161823"/>
<path d="M3.25 16.4814C2.83579 16.4814 2.5 16.8172 2.5 17.2314C2.5 17.6456 2.83579 17.9814 3.25 17.9814H16.75C17.1642 17.9814 17.5 17.6456 17.5 17.2314C17.5 16.8172 17.1642 16.4814 16.75 16.4814H3.25Z" fill="#161823"/>
</svg>
