<svg width="20" height="20" viewBox="0 0 20 20" fill="none" xmlns="http://www.w3.org/2000/svg">
<path fill-rule="evenodd" clip-rule="evenodd" d="M11.0449 17C9.75698 17 8.91028 15.6558 9.46648 14.4942L14.4943 3.99385C14.7853 3.38648 15.399 3 16.0725 3H16.25C17.2165 3 18 3.7835 18 4.75V15.25C18 16.2165 17.2165 17 16.25 17H11.0449ZM11.0449 15.5H16.25C16.3881 15.5 16.5 15.3881 16.5 15.25V4.75C16.5 4.61193 16.3881 4.5 16.25 4.5H16.0725C15.9763 4.5 15.8886 4.55521 15.847 4.64198L10.8194 15.142C10.7399 15.308 10.8609 15.5 11.0449 15.5Z" fill="#161823"/>
<path fill-rule="evenodd" clip-rule="evenodd" d="M2 12.05C2 11.0835 2.7835 10.3 3.75 10.3H7.01759C8.30651 10.3 9.15318 11.6462 8.59495 12.8079L7.05735 16.0079C6.76597 16.6143 6.15276 17 5.47999 17H3.75C2.7835 17 2 16.2165 2 15.25V12.05ZM3.5 12.05V15.25C3.5 15.3881 3.61193 15.5 3.75 15.5H5.47999C5.5761 15.5 5.6637 15.4449 5.70533 15.3583L7.24293 12.1583C7.32267 11.9923 7.20172 11.8 7.01759 11.8H3.75C3.61193 11.8 3.5 11.9119 3.5 12.05Z" fill="#161823"/>
<path fill-rule="evenodd" clip-rule="evenodd" d="M3.75 3C2.7835 3 2 3.7835 2 4.75V7.05C2 8.0165 2.7835 8.8 3.75 8.8H9.34914C10.0223 8.8 10.6357 8.41391 10.9269 7.80702L12.0305 5.50702C12.5878 4.34532 11.7412 3 10.4527 3H3.75ZM3.5 7.05V4.75C3.5 4.61193 3.61193 4.5 3.75 4.5H10.4527C10.6368 4.5 10.7577 4.69219 10.6781 4.85814L9.57454 7.15815C9.53295 7.24484 9.44531 7.3 9.34914 7.3H3.75C3.61193 7.3 3.5 7.18807 3.5 7.05Z" fill="#161823"/>
</svg>
