<svg width="24" height="24" viewBox="0 0 24 24" fill="none" xmlns="http://www.w3.org/2000/svg">
<path d="M3 4C3 2.89543 3.89543 2 5 2H17C18.1046 2 19 2.89543 19 4V6.93714L14.576 14.5997C14.2614 15.1446 14.0864 15.7587 14.0664 16.3875L14.0185 17.892C13.9729 19.3282 15.5457 20.2363 16.7667 19.4786C18.6088 18.2575 16.776 19.4725 18.5996 18.2636C18.6083 18.2578 18.6172 18.2507 18.6254 18.2442C18.7661 18.1323 19 18.2249 19 18.4081V20C19 21.1046 18.1046 22 17 22H5C3.89543 22 3 21.1046 3 20V4ZM6.75781 5.49231C6.3436 5.49231 6.00781 5.8281 6.00781 6.24231C6.00781 6.65652 6.3436 6.99231 6.75781 6.99231H14.2612C14.6754 6.99231 15.0112 6.65652 15.0112 6.24231C15.0112 5.8281 14.6754 5.49231 14.2612 5.49231H6.75781ZM6.00781 9.74231C6.00781 10.1565 6.3436 10.4923 6.75781 10.4923H14.2612C14.6754 10.4923 15.0112 10.1565 15.0112 9.74231C15.0112 9.3281 14.6754 8.99231 14.2612 8.99231H6.75781C6.3436 8.99231 6.00781 9.3281 6.00781 9.74231ZM6.75781 12.4923C6.3436 12.4923 6.00781 12.8281 6.00781 13.2423C6.00781 13.6565 6.3436 13.9923 6.75781 13.9923H11.2578C11.672 13.9923 12.0078 13.6565 12.0078 13.2423C12.0078 12.8281 11.672 12.4923 11.2578 12.4923H6.75781Z" fill="#161823"/>
<path d="M15.875 15.3497L21.0175 6.44282C21.2384 6.06019 21.7277 5.92909 22.1103 6.15L22.8897 6.6C23.2724 6.82091 23.4035 7.31019 23.1825 7.69282L18.0401 16.5997C17.8491 16.9305 17.5794 17.209 17.2548 17.4104L15.9758 18.2041C15.9504 18.2199 15.924 18.2313 15.8974 18.2388C15.8175 18.2612 15.7352 18.248 15.6677 18.209C15.5777 18.1571 15.514 18.0594 15.5178 17.9396L15.5656 16.4352C15.5778 16.0534 15.684 15.6805 15.875 15.3497Z" fill="#161823"/>
</svg>
