<svg width="24" height="24" viewBox="0 0 24 24" fill="none" xmlns="http://www.w3.org/2000/svg">
<path d="M6.5 2C4.01472 2 2 4.01472 2 6.5V17.5C2 19.9853 4.01472 22 6.5 22H14.0946C14.2933 22 14.3862 21.7186 14.246 21.5779C13.8983 21.2292 13.6349 20.8063 13.4749 20.3425C13.446 20.2587 13.3685 20.2 13.2797 20.2H6.5C5.00883 20.2 3.8 18.9912 3.8 17.5V6.5C3.8 5.00883 5.00883 3.8 6.5 3.8H17.5C18.9912 3.8 20.2 5.00883 20.2 6.5V11.041C20.2 11.1325 20.2622 11.2117 20.3497 11.2384C20.5817 11.3095 20.8076 11.4072 21.0228 11.5314L21.7 11.9224C21.8333 11.9994 22 11.9032 22 11.7492V6.5C22 4.01472 19.9853 2 17.5 2H6.5Z" fill="#161823"/>
<path fill-rule="evenodd" clip-rule="evenodd" d="M17.8424 9.07761V11.4125C17.8424 11.4617 17.8154 11.5068 17.7728 11.5314L14.9224 13.1771C14.4812 13.4318 14.1143 13.7814 13.8415 14.1916V13.1603H12.639C11.7554 13.1603 11.039 12.4439 11.039 11.5603V9.07761C11.039 8.19395 11.7554 7.47761 12.639 7.47761H12.7593L12.2606 6.72957C12.0767 6.45385 12.1512 6.08133 12.427 5.89751C12.7027 5.7137 13.0752 5.78821 13.259 6.06392L14.2015 7.47761H14.6804L15.6228 6.06392C15.8066 5.78821 16.1792 5.7137 16.4549 5.89751C16.7306 6.08133 16.8051 6.45385 16.6213 6.72957L16.1226 7.47761H16.2424C17.1261 7.47761 17.8424 8.19395 17.8424 9.07761ZM16.6424 9.71857V9.07761C16.6424 8.85669 16.4633 8.67761 16.2424 8.67761H15.0415V9.71857H16.6424ZM15.0415 10.9186H16.6424V11.5603C16.6424 11.7812 16.4633 11.9603 16.2424 11.9603H15.0415V10.9186ZM13.8415 9.71857V8.67761H12.639C12.4181 8.67761 12.239 8.8567 12.239 9.07761V9.71857H13.8415ZM12.239 10.9186H13.8415V11.9603H12.639C12.4181 11.9603 12.239 11.7812 12.239 11.5603V10.9186Z" fill="#161823"/>
<path d="M13.1849 15.4016C13.2813 15.4016 13.3634 15.3326 13.3858 15.2388C13.4741 14.8678 13.6268 14.517 13.8348 14.2016H11.0792C10.7478 14.2016 10.4792 14.4702 10.4792 14.8016C10.4792 15.133 10.7478 15.4016 11.0792 15.4016H13.1849Z" fill="#161823"/>
<path d="M5.99671 6.95684C5.99671 6.62547 6.26534 6.35684 6.59671 6.35684H8.39841C9.28207 6.35684 9.99841 7.07319 9.99841 7.95684V9.31886C9.99841 10.2025 9.28207 10.9189 8.39841 10.9189H7.59671C7.3758 10.9189 7.19671 11.0979 7.19671 11.3189V12.1205C7.19671 12.3414 7.3758 12.5205 7.59671 12.5205H8.39841C9.28207 12.5205 9.99841 13.2369 9.99841 14.1205V15.0429C9.99841 16.4788 8.83436 17.6429 7.39841 17.6429H6.59671C6.26534 17.6429 5.99671 17.3743 5.99671 17.0429C5.99671 16.7115 6.26534 16.4429 6.59671 16.4429H7.39841C8.17161 16.4429 8.79841 15.8161 8.79841 15.0429V14.1205C8.79841 13.8996 8.61933 13.7205 8.39841 13.7205H7.59671C6.71305 13.7205 5.99671 13.0042 5.99671 12.1205V11.3189C5.99671 10.4352 6.71306 9.71886 7.59671 9.71886H8.39841C8.61933 9.71886 8.79841 9.53977 8.79841 9.31886V7.95684C8.79841 7.73593 8.61933 7.55684 8.39841 7.55684H6.59671C6.26534 7.55684 5.99671 7.28821 5.99671 6.95684Z" fill="#161823"/>
<path d="M20.8378 17.6327C20.8378 18.428 20.1931 19.0727 19.3978 19.0727C18.6025 19.0727 17.9578 18.428 17.9578 17.6327C17.9578 16.8374 18.6025 16.1927 19.3978 16.1927C20.1931 16.1927 20.8378 16.8374 20.8378 17.6327Z" fill="#161823"/>
<path fill-rule="evenodd" clip-rule="evenodd" d="M18.5228 12.8305C19.0642 12.5178 19.7313 12.5178 20.2728 12.8305L23.1231 14.4761C23.6646 14.7887 23.9982 15.3665 23.9982 15.9917V19.283C23.9982 19.9082 23.6646 20.486 23.1231 20.7986L20.2728 22.4442C19.7313 22.7568 19.0642 22.7568 18.5228 22.4442L15.6724 20.7986C15.1309 20.486 14.7974 19.9082 14.7974 19.283V15.9917C14.7974 15.3665 15.1309 14.7887 15.6724 14.4761L18.5228 12.8305ZM19.5228 14.1295C19.4454 14.0848 19.3501 14.0848 19.2728 14.1295L16.4224 15.7752C16.345 15.8198 16.2974 15.9024 16.2974 15.9917V19.283C16.2974 19.3723 16.345 19.4549 16.4224 19.4995L19.2728 21.1452C19.3501 21.1899 19.4454 21.1899 19.5228 21.1452L22.3732 19.4995C22.4505 19.4549 22.4982 19.3723 22.4982 19.283V15.9917C22.4982 15.9024 22.4505 15.8198 22.3731 15.7752L19.5228 14.1295Z" fill="#161823"/>
</svg>
