<svg width="20" height="20" viewBox="0 0 20 20" fill="none" xmlns="http://www.w3.org/2000/svg">
<path d="M10 1.25C14.8325 1.25 18.75 5.16751 18.75 10C18.75 14.8325 14.8325 18.75 10 18.75C5.16751 18.75 1.25 14.8325 1.25 10C1.25 5.16751 5.16751 1.25 10 1.25ZM9.47332 14.4969C9.76622 14.7898 10.2411 14.7898 10.534 14.4969L13.9566 11.0743C14.2495 10.7814 14.2495 10.3065 13.9566 10.0137C13.6637 9.72076 13.1888 9.72076 12.8959 10.0137L10.75 12.1595V5.75719C10.75 5.34297 10.4142 5.00719 10 5.00719C9.58582 5.00719 9.25003 5.34297 9.25003 5.75719V12.1523L7.1114 10.0137C6.81851 9.72076 6.34363 9.72076 6.05074 10.0137C5.75785 10.3065 5.75785 10.7814 6.05074 11.0743L9.47332 14.4969Z" fill="#161823"/>
</svg>
