<svg width="24" height="24" viewBox="0 0 24 24" fill="none" xmlns="http://www.w3.org/2000/svg">
<path d="M19.75 15.25C19.75 14.8358 20.0858 14.5 20.5 14.5H23C23.4142 14.5 23.75 14.8358 23.75 15.25C23.75 15.6642 23.4142 16 23 16H20.5C20.0858 16 19.75 15.6642 19.75 15.25Z" fill="#161823"/>
<path d="M18.0039 18.2545C18.0039 17.8403 18.3397 17.5045 18.7539 17.5045L23 17.5045C23.4142 17.5045 23.75 17.8403 23.75 18.2545C23.75 18.6687 23.4142 19.0045 23 19.0045L18.7539 19.0045C18.3397 19.0045 18.0039 18.6687 18.0039 18.2545Z" fill="#161823"/>
<path d="M14.7502 21.25C14.7502 20.8358 15.086 20.5 15.5002 20.5L23.0001 20.5001C23.4143 20.5001 23.7501 20.8359 23.7501 21.2501C23.7501 21.6643 23.4143 22.0001 23.0001 22.0001L15.5002 22C15.086 22 14.7502 21.6642 14.7502 21.25Z" fill="#161823"/>
<path d="M12 3.5C7.30558 3.5 3.5 7.30558 3.5 12C3.5 16.6944 7.30558 20.5 12 20.5C12.4142 20.5 12.75 20.8358 12.75 21.25C12.75 21.6642 12.4142 22 12 22C6.47715 22 2 17.5228 2 12C2 6.47715 6.47715 2 12 2C17.5228 2 22 6.47715 22 12C22 12.4142 21.6642 12.75 21.25 12.75C20.8358 12.75 20.5 12.4142 20.5 12C20.5 7.30558 16.6944 3.5 12 3.5Z" fill="#161823"/>
<path d="M16.3193 13.2969C17.2328 12.6736 17.2328 11.3264 16.3193 10.7031L11.2249 7.22707C10.1827 6.516 8.76997 7.26233 8.76997 8.52395V15.4761C8.76997 16.7377 10.1827 17.484 11.2249 16.7729L16.3193 13.2969ZM14.8386 12.1376L10.8198 14.8798C10.7136 14.9522 10.5696 14.8762 10.5696 14.7476L10.5696 9.26333C10.5696 9.13476 10.7136 9.0587 10.8198 9.13117L14.8386 11.8733C14.9317 11.9368 14.9317 12.0741 14.8386 12.1376Z" fill="#161823"/>
</svg>
