<svg width="24" height="24" viewBox="0 0 24 24" fill="none" xmlns="http://www.w3.org/2000/svg">
<path d="M5 3C3.89543 3 3 3.89543 3 5V19C3 20.1046 3.89543 21 5 21H9.25C10.3546 21 11.25 20.1046 11.25 19V5C11.25 3.89543 10.3546 3 9.25 3H5Z" fill="#161823"/>
<path d="M19 21C20.1046 21 21 20.1046 21 19V15.5C21 14.3954 20.1046 13.5 19 13.5H14.75C13.6454 13.5 12.75 14.3954 12.75 15.5V19C12.75 20.1046 13.6454 21 14.75 21H19Z" fill="#161823"/>
<path d="M19 3C20.1046 3 21 3.89543 21 5V10C21 11.1046 20.1046 12 19 12H14.75C13.6454 12 12.75 11.1046 12.75 10V5C12.75 3.89543 13.6454 3 14.75 3H19Z" fill="#161823"/>
</svg>
