<svg width="24" height="24" viewBox="0 0 24 24" fill="none" xmlns="http://www.w3.org/2000/svg">
<path d="M4.75 4C2.67893 4 1 5.67893 1 7.75V16.25C1 18.3211 2.67893 20 4.75 20H6.55471C6.65965 19.7667 6.81266 19.5445 7.01838 19.345L7.8896 18.5H4.75C3.50736 18.5 2.5 17.4926 2.5 16.25V7.75C2.5 6.50736 3.50736 5.5 4.75 5.5H19.25C20.4926 5.5 21.5 6.50736 21.5 7.75V16.25C21.5 17.4926 20.4926 18.5 19.25 18.5H16.1104L16.9817 19.345C17.1874 19.5445 17.3404 19.7667 17.4453 20H19.25C21.3211 20 23 18.3211 23 16.25V7.75C23 5.67893 21.3211 4 19.25 4H4.75Z" fill="#161823"/>
<path d="M15.9373 20.4217C16.3242 20.797 16.0586 21.4524 15.5196 21.4524H8.48042C7.94144 21.4524 7.67579 20.797 8.06269 20.4217L11.3038 17.2782C11.6917 16.902 12.3083 16.902 12.6962 17.2782L15.9373 20.4217Z" fill="#161823"/>
<path d="M15.6553 14.2542H15.5804L13.8576 8.83243C13.6963 8.30236 13.4428 8.06036 13.0394 8.06036C12.59 8.06036 12.2616 8.34845 12.2616 8.76329C12.2616 8.92462 12.3077 9.14933 12.3884 9.38556L14.3301 14.9744C14.5836 15.7292 14.9581 16.0576 15.6092 16.0576C16.2487 16.0576 16.6117 15.735 16.8652 14.9744L18.8127 9.38556C18.8818 9.17238 18.9337 8.9131 18.9337 8.75753C18.9337 8.34269 18.611 8.06036 18.1674 8.06036C17.7525 8.06036 17.5163 8.28507 17.355 8.83243L15.6553 14.2542Z" fill="#161823"/>
<path d="M8.19983 16.0576C8.67805 16.0576 8.97766 15.7407 8.97766 15.2279V9.44318H10.6486C11.0404 9.44318 11.3169 9.17238 11.3169 8.7921C11.3169 8.40607 11.0404 8.13527 10.6486 8.13527H5.75686C5.37083 8.13527 5.0885 8.41183 5.0885 8.7921C5.0885 9.16661 5.37083 9.44318 5.75686 9.44318H7.422V15.2279C7.422 15.7465 7.71584 16.0576 8.19983 16.0576Z" fill="#161823"/>
</svg>
