<svg width="20" height="20" viewBox="0 0 20 20" fill="none" xmlns="http://www.w3.org/2000/svg">
<path fill-rule="evenodd" clip-rule="evenodd" d="M9.22033 2.78318C13.5409 1.7703 16.1219 2.78317 16.1219 2.78317C16.6292 2.72903 17.0864 3.09599 17.1385 3.60532C17.1385 3.60532 17.6656 5.16683 17.5413 9.01856C17.3812 13.9791 13.5409 17.0194 10.3405 17.4995C7.14017 17.9795 4.67194 17.2711 4.67194 17.2711C4.16461 17.3252 3.70942 16.9562 3.65528 16.4489C3.65528 16.4489 2.49959 14.9392 2.33969 11.4188C2.1798 7.89844 4.89978 3.79605 9.22033 2.78318ZM12.055 6.31521L7.54282 8.67435C7.4402 8.72778 7.43115 8.88305 7.52773 8.94816L9.51824 10.2989C9.59369 10.349 9.60878 10.4608 9.54993 10.5343L7.5217 13.0787C7.4236 13.2023 7.5383 13.3843 7.67713 13.3292L12.0686 11.5828C12.1561 11.5477 12.1909 11.4342 12.1411 11.349L10.7044 8.92479C10.6712 8.86969 10.6742 8.7979 10.7104 8.74447L12.2301 6.55062C12.3221 6.41872 12.1909 6.24342 12.055 6.31521Z" fill="#161823"/>
</svg>
