<svg width="24" height="24" viewBox="0 0 24 24" fill="none" xmlns="http://www.w3.org/2000/svg">
<path d="M14.2 8.28498C14.2 9.65189 13.2151 10.5737 12 10.5737C10.785 10.5737 9.80005 9.65189 9.80005 8.28498C9.80005 6.91808 10.785 5.99998 12 5.99998C13.2151 5.99998 14.2 6.91808 14.2 8.28498Z" fill="#161823"/>
<path d="M8.62529 12.665C9.5203 12.0969 10.711 11.775 12 11.775C13.2891 11.775 14.4798 12.0969 15.3748 12.665C16.2622 13.2283 16.95 14.1054 16.95 15.2C16.95 15.9594 16.3344 16.575 15.575 16.575H8.42505C7.66566 16.575 7.05005 15.9594 7.05005 15.2C7.05005 14.1054 7.73785 13.2283 8.62529 12.665Z" fill="#161823"/>
<path d="M13.0317 1.51292C12.3602 1.32155 11.6486 1.32146 10.977 1.51266L4.24695 3.42884C3.06516 3.76532 2.25 4.84497 2.25 6.07373V9.81877C2.25 15.5681 5.9483 20.6693 11.4441 22.6031C11.8045 22.73 12.1982 22.7299 12.5586 22.6031C18.0529 20.6693 21.75 15.5692 21.75 9.8212V6.07333C21.75 4.84483 20.9352 3.76534 19.7537 3.42864L13.0317 1.51292ZM11.3878 2.95533C11.7907 2.8406 12.2177 2.84066 12.6206 2.95548L19.3426 4.8712C19.8796 5.02425 20.25 5.51492 20.25 6.07333V9.8212C20.25 14.9126 16.9737 19.4589 12.0606 21.1882C12.0225 21.2016 11.9801 21.2016 11.9419 21.1882C7.02739 19.4589 3.75 14.9115 3.75 9.81877V6.07373C3.75 5.5152 4.12053 5.02445 4.65771 4.87151L11.3878 2.95533Z" fill="#161823"/>
</svg>
