<svg width="24" height="24" viewBox="0 0 24 24" fill="none" xmlns="http://www.w3.org/2000/svg">
<path d="M11 13.5858L8.4565 11.0423C8.06597 10.6517 7.43281 10.6517 7.04228 11.0423C6.65176 11.4328 6.65176 12.0659 7.04228 12.4565L11.2929 16.7071C11.6834 17.0976 12.3166 17.0976 12.7071 16.7071L16.9577 12.4565C17.3483 12.0659 17.3483 11.4328 16.9577 11.0423C16.5672 10.6517 15.934 10.6517 15.5435 11.0423L13 13.5858L13 2C13 1.44772 12.5523 1 12 1C11.4477 1 11 1.44771 11 2L11 13.5858Z" fill="#161823"/>
<path d="M6.75 6.49998H9.5L9.5 4.99998H6.75C4.67893 4.99998 3 6.67892 3 8.74998V18.25C3 20.3211 4.67893 22 6.75 22H17.25C19.3211 22 21 20.3211 21 18.25V8.74998C21 6.67892 19.3211 4.99998 17.25 4.99998H14.5V6.49998H17.25C18.4926 6.49998 19.5 7.50734 19.5 8.74998V18.25C19.5 19.4926 18.4926 20.5 17.25 20.5H6.75C5.50736 20.5 4.5 19.4926 4.5 18.25V8.74998C4.5 7.50734 5.50736 6.49998 6.75 6.49998Z" fill="#161823"/>
</svg>
