<svg width="16" height="16" viewBox="0 0 16 16" fill="none" xmlns="http://www.w3.org/2000/svg">
<path fill-rule="evenodd" clip-rule="evenodd" d="M2 4C2 2.89543 2.89543 2 4 2H9.6C10.7046 2 11.6 2.89543 11.6 4V9.6C11.6 10.7046 10.7046 11.6 9.6 11.6H4C2.89543 11.6 2 10.7046 2 9.6V4ZM4 3.2H9.6C10.0418 3.2 10.4 3.55817 10.4 4V9.6C10.4 10.0418 10.0418 10.4 9.6 10.4H4C3.55817 10.4 3.2 10.0418 3.2 9.6V4C3.2 3.55817 3.55817 3.2 4 3.2Z" fill="#161823"/>
<path d="M6.4 14C5.68885 14 5.06439 13.6288 4.70978 13.0696C4.63256 12.9479 4.72788 12.8 4.87207 12.8H9.6L9.61224 12.8H12C12.4418 12.8 12.8 12.4418 12.8 12L12.8 4.87205C12.8 4.72786 12.9479 4.63253 13.0696 4.70975C13.6288 5.06436 14 5.68883 14 6.39999V12C14 13.1046 13.1046 14 12 14H6.4Z" fill="#161823"/>
</svg>
