<svg width="12" height="12" viewBox="0 0 12 12" fill="none" xmlns="http://www.w3.org/2000/svg">
<g clip-path="url(#clip0_3435_3153)">
<path d="M5.15694 4.82232C5.15694 5.33957 4.84245 5.75889 4.45451 5.75889C4.06656 5.75889 3.75208 5.33957 3.75208 4.82232C3.75208 4.30506 4.06656 3.88574 4.45451 3.88574C4.84245 3.88574 5.15694 4.30506 5.15694 4.82232Z" fill="#161823"/>
<path d="M7.5452 5.75889C7.93315 5.75889 8.24764 5.33957 8.24764 4.82232C8.24764 4.30506 7.93315 3.88574 7.5452 3.88574C7.15726 3.88574 6.84277 4.30506 6.84277 4.82232C6.84277 5.33957 7.15726 5.75889 7.5452 5.75889Z" fill="#161823"/>
<path d="M5.99984 6.66412C6.70557 6.66412 7.49022 7.00534 7.91729 7.60449C8.07757 7.82936 8.02521 8.14158 7.80035 8.30186C7.57548 8.46214 7.26326 8.40979 7.10298 8.18493C6.89078 7.88723 6.4322 7.66412 5.99984 7.66412C5.56764 7.66412 5.10919 7.88708 4.89689 8.18466C4.73652 8.40946 4.42428 8.46169 4.19948 8.30132C3.97468 8.14095 3.92245 7.82871 4.08282 7.6039C4.50997 7.00514 5.29431 6.66412 5.99984 6.66412Z" fill="#161823"/>
<path fill-rule="evenodd" clip-rule="evenodd" d="M11.2499 5.99959C11.2499 8.89905 8.89942 11.2495 5.99995 11.2495C3.10048 11.2495 0.75 8.89905 0.75 5.99959C0.75 3.10012 3.10048 0.749634 5.99995 0.749634C8.89942 0.749634 11.2499 3.10012 11.2499 5.99959ZM10.0499 5.99959C10.0499 8.23631 8.23668 10.0495 5.99995 10.0495C3.76323 10.0495 1.95 8.23631 1.95 5.99959C1.95 3.76286 3.76323 1.94963 5.99995 1.94963C8.23668 1.94963 10.0499 3.76286 10.0499 5.99959Z" fill="#161823"/>
</g>
<defs>
<clipPath id="clip0_3435_3153">
<rect width="12" height="12" fill="white"/>
</clipPath>
</defs>
</svg>
