<svg width="24" height="24" viewBox="0 0 24 24" fill="none" xmlns="http://www.w3.org/2000/svg">
<path fill-rule="evenodd" clip-rule="evenodd" d="M7 20.2C3.68629 20.2 1 17.5137 1 14.2C1 11.4074 2.90773 9.06049 5.491 8.3913C6.41823 5.69083 8.97996 3.75 11.995 3.75C15.3538 3.75 18.15 6.15858 18.7506 9.34277C21.1857 9.90898 23 12.0926 23 14.7C23 17.7375 20.5376 20.2 17.5 20.2H7ZM11.2502 8.5C11.2502 8.08579 11.586 7.75 12.0002 7.75C12.4144 7.75 12.7502 8.08579 12.7502 8.5V15.8286L15.3586 13.2201C15.6515 12.9272 16.1264 12.9272 16.4193 13.2201C16.7122 13.513 16.7122 13.9879 16.4193 14.2808L12.5302 18.1699C12.2373 18.4628 11.7625 18.4628 11.4696 18.1699C11.4641 18.1644 11.4588 18.1589 11.4536 18.1534L7.58051 14.2803C7.28762 13.9874 7.28762 13.5126 7.58051 13.2197C7.8734 12.9268 8.34828 12.9268 8.64117 13.2197L11.2502 15.8287V8.5Z" fill="#161823"/>
</svg>
