<svg width="20" height="20" viewBox="0 0 20 20" fill="none" xmlns="http://www.w3.org/2000/svg">
<path d="M2.05776 1.67114C1.47573 1.67114 1.00391 2.14297 1.00391 2.725C1.00391 3.30703 1.47573 3.77886 2.05776 3.77886H2.78606L3.83859 12.4998C4.0053 13.8811 5.17744 14.9203 6.56878 14.9203H15.9332C16.3474 14.9203 16.6832 14.5845 16.6832 14.1703C16.6832 13.7561 16.3474 13.4203 15.9332 13.4203H6.56878C5.98736 13.4203 5.49014 13.0211 5.35485 12.4688L16.7885 11.8045C17.1307 11.7846 17.4158 11.5353 17.4812 11.1989L17.683 10.1607C17.6845 10.1531 17.6858 10.1456 17.6871 10.138L18.3054 6.33548C18.4786 5.27086 17.6567 4.30457 16.5781 4.30457H4.3604L4.15765 2.62467C4.09198 2.08052 3.63023 1.67114 3.08212 1.67114H2.05776ZM16.1199 10.3408L5.16572 10.9772L4.54143 5.80457H16.5781C16.7322 5.80457 16.8496 5.94262 16.8249 6.0947L16.2084 9.88581L16.1199 10.3408Z" fill="#161823"/>
<path d="M4.58325 17.0833C4.58325 16.393 5.1429 15.8333 5.83325 15.8333C6.52361 15.8333 7.08325 16.393 7.08325 17.0833C7.08325 17.7737 6.52361 18.3333 5.83325 18.3333C5.1429 18.3333 4.58325 17.7737 4.58325 17.0833Z" fill="#161823"/>
<path d="M13.7499 17.0833C13.7499 16.393 14.3096 15.8333 14.9999 15.8333C15.6903 15.8333 16.2499 16.393 16.2499 17.0833C16.2499 17.7737 15.6903 18.3333 14.9999 18.3333C14.3096 18.3333 13.7499 17.7737 13.7499 17.0833Z" fill="#161823"/>
</svg>
