<svg width="12" height="12" viewBox="0 0 12 12" fill="none" xmlns="http://www.w3.org/2000/svg">
<g clip-path="url(#clip0_29356_47)">
<path fill-rule="evenodd" clip-rule="evenodd" d="M4.59381 2.70691L4.88039 2.27636C4.91284 2.22762 4.96286 2.19331 5.02001 2.18059C5.665 2.03704 6.33366 2.03704 6.97865 2.18059C7.0358 2.19331 7.08583 2.22762 7.11827 2.27636L7.40486 2.70691C7.7135 3.17061 8.20041 3.48577 8.74983 3.57748L9.10437 3.63666C9.60857 3.72083 10.0024 4.11818 10.082 4.62312L10.139 4.98467C10.2988 5.99852 10.2777 7.03266 10.0767 8.03915C9.94722 8.68775 9.46624 9.20967 8.83036 9.39163L8.65854 9.4408C6.92061 9.93813 5.07805 9.93813 3.34012 9.4408L3.1683 9.39163C2.53242 9.20967 2.05145 8.68775 1.92193 8.03915C1.72094 7.03266 1.69988 5.99852 1.85971 4.98467L1.91671 4.62313C1.99631 4.11818 2.39009 3.72083 2.89429 3.63666L3.24884 3.57748C3.79825 3.48577 4.28516 3.17061 4.59381 2.70691ZM8.11721 1.61144C7.91322 1.30499 7.5987 1.08923 7.23936 1.00925C6.42266 0.827482 5.576 0.827482 4.7593 1.00925C4.39997 1.08923 4.08544 1.30499 3.88146 1.61144L3.59487 2.04199C3.47012 2.22941 3.27332 2.35679 3.05126 2.39386L2.69672 2.45304C1.68305 2.62225 0.891385 3.4211 0.731347 4.43625L0.674349 4.7978C0.492443 5.95167 0.516418 7.12864 0.745162 8.27414C0.962658 9.36332 1.77034 10.2398 2.83816 10.5453L3.00998 10.5945C4.96367 11.1536 7.03499 11.1536 8.98868 10.5945L9.1605 10.5453C10.2283 10.2398 11.036 9.36332 11.2535 8.27414C11.4822 7.12864 11.5062 5.95167 11.3243 4.7978L11.2673 4.43625C11.1073 3.4211 10.3156 2.62225 9.30194 2.45304L8.9474 2.39386C8.72534 2.35679 8.52854 2.22941 8.40379 2.04199L8.11721 1.61144ZM5.9992 3.79989C4.65936 3.79989 3.58253 4.89451 3.58253 6.23322C3.58253 7.57194 4.65936 8.66655 5.9992 8.66655C7.33904 8.66655 8.41587 7.57194 8.41587 6.23322C8.41587 4.89451 7.33904 3.79989 5.9992 3.79989ZM4.78253 6.23322C4.78253 5.54689 5.33241 4.99989 5.9992 4.99989C6.66599 4.99989 7.21587 5.54689 7.21587 6.23322C7.21587 6.91955 6.66599 7.46655 5.9992 7.46655C5.33241 7.46655 4.78253 6.91955 4.78253 6.23322Z" fill="#161823"/>
</g>
<defs>
<clipPath id="clip0_29356_47">
<rect width="12" height="12" fill="white"/>
</clipPath>
</defs>
</svg>
