<svg width="20" height="20" viewBox="0 0 20 20" fill="none" xmlns="http://www.w3.org/2000/svg">
<path fill-rule="evenodd" clip-rule="evenodd" d="M4.87012 1.68286C4.26075 1.68286 3.69055 1.85057 3.20316 2.14235L3.03048 1.96967C2.73759 1.67678 2.26272 1.67678 1.96982 1.96967C1.67693 2.26256 1.67693 2.73744 1.96982 3.03033L2.12765 3.18815C2.12749 3.18841 2.12732 3.18866 2.12716 3.18891L3.23811 4.29986C3.23822 4.29956 3.23834 4.29926 3.23846 4.29896L5.51018 6.57068C5.51007 6.57099 5.50997 6.57131 5.50987 6.57162L7.59501 8.65675C7.59532 8.65665 7.59563 8.65655 7.59594 8.65645L10.1894 11.2499L10.1888 11.2506L11.2495 12.3112L11.2501 12.3106L15.6514 16.7119C15.6511 16.712 15.6508 16.7121 15.6504 16.7122L16.7804 17.8422C16.7807 17.842 16.781 17.8419 16.7812 17.8417L16.9698 18.0303C17.2627 18.3232 17.7376 18.3232 18.0305 18.0303C18.3234 17.7374 18.3234 17.2626 18.0305 16.9697L17.864 16.8032C18.1927 16.2952 18.3835 15.6898 18.3835 15.0398V4.93286C18.3835 3.13794 16.9284 1.68286 15.1335 1.68286H4.87012ZM15.1067 18.2898L13.6067 16.7898H4.87012C4.02814 16.7898 3.32504 16.1952 3.15785 15.403L6.66682 11.894L8.63649 13.8637C8.77715 14.0043 8.96792 14.0833 9.16683 14.0833C9.36575 14.0833 9.55652 14.0043 9.69717 13.8636L10.1889 13.3719L6.95951 10.1426C6.68653 10.027 6.359 10.0805 6.13649 10.303L3.12012 13.3194V6.30318L1.62256 4.80563C1.62094 4.84784 1.62012 4.89025 1.62012 4.93286V15.0398C1.62012 16.8347 3.07519 18.2898 4.87012 18.2898H15.1067ZM4.32895 3.26814L6.57076 5.50995C6.73218 5.45737 6.9045 5.42896 7.08347 5.42896C7.99706 5.42896 8.73767 6.16957 8.73767 7.08316C8.73767 7.26212 8.70925 7.43445 8.65668 7.59587L11.2501 10.1893L12.803 8.63619C12.9437 8.49553 13.1345 8.41651 13.3334 8.4165C13.5323 8.4165 13.7231 8.49552 13.8637 8.63617L16.8835 11.6559V4.93286C16.8835 3.96636 16.1 3.18286 15.1335 3.18286H4.87012C4.68125 3.18286 4.49937 3.21278 4.32895 3.26814ZM12.3107 11.2499L16.7564 15.6956C16.8384 15.4931 16.8835 15.2717 16.8835 15.0398V13.7773L13.3334 10.2272L12.3107 11.2499Z" fill="#161823"/>
</svg>
