<svg width="16" height="16" viewBox="0 0 16 16" fill="none" xmlns="http://www.w3.org/2000/svg">
<path d="M10.4986 9.48923C9.46148 10.5274 7.77819 10.525 6.74395 9.48402L6.62883 9.36815C6.37581 9.11348 6.37715 8.70193 6.63182 8.44892C6.88649 8.19591 7.29804 8.19725 7.55105 8.45191L7.66617 8.56778C8.19305 9.09811 9.05058 9.0993 9.57893 8.57044L12.8448 5.30146C13.3715 4.77417 13.3713 3.91976 12.8443 3.39273L12.6079 3.15634C12.0807 2.62914 11.2259 2.62914 10.6987 3.15634L8.91918 4.9345C8.66534 5.18834 8.25378 5.18834 7.99994 4.9345C7.7461 4.68066 7.7461 4.2691 7.99994 4.01526L9.77948 2.2371C10.8144 1.20222 12.4923 1.20221 13.5271 2.2371L13.7635 2.47349C14.7981 3.50803 14.7985 5.18522 13.7644 6.22025L10.4986 9.48923Z" fill="#161823"/>
<path d="M5.50128 6.51091C6.53841 5.47283 8.22167 5.47518 9.2559 6.51616L9.37105 6.63206C9.62406 6.88672 9.62272 7.29828 9.36805 7.55129C9.11339 7.80431 8.70183 7.80297 8.44882 7.5483L8.33367 7.4324C7.8068 6.90209 6.94929 6.90089 6.42094 7.42973L3.15493 10.6988C2.62813 11.226 2.62833 12.0805 3.15537 12.6075L3.39172 12.8439C3.91893 13.3711 4.7737 13.3711 5.30091 12.8439L7.0807 11.0641C7.33454 10.8102 7.7461 10.8102 7.99994 11.0641C8.25378 11.3179 8.25378 11.7295 7.99994 11.9833L6.22015 13.7631C5.18526 14.798 3.50737 14.798 2.47249 13.7631L2.23613 13.5267C1.20158 12.4922 1.20119 10.815 2.23526 9.77995L5.50128 6.51091Z" fill="#161823"/>
</svg>
