<svg width="16" height="16" viewBox="0 0 16 16" fill="none" xmlns="http://www.w3.org/2000/svg">
<path d="M3.51708 8.26227C3.59604 8.19597 3.54054 8.06526 3.43922 8.08437C2.7523 8.21396 2.11823 8.44938 1.58348 8.7808C0.744509 9.30076 0 10.1709 0 11.3297V11.5846C0 12.5543 0.786155 13.3405 1.75593 13.3405C1.78672 13.3405 1.80878 13.3108 1.80038 13.2811C1.71493 12.9798 1.66919 12.6619 1.66919 12.3332V12.2193C1.66919 12.1701 1.63291 12.1291 1.58601 12.114C1.36209 12.0422 1.2 11.8323 1.2 11.5846V11.3297C1.2 10.724 1.5954 10.1766 2.24296 9.78404C2.57906 9.1775 3.03207 8.66948 3.51708 8.26227Z" fill="#161823"/>
<path d="M6.40902 8.17884L6.41006 8.17912C5.90713 8.33307 5.43735 8.53707 5.01504 8.78856C5.43707 8.5372 5.90648 8.33297 6.40902 8.17884Z" fill="#161823"/>
<path d="M5.13147 2.76766C5.14988 2.71275 5.11951 2.65273 5.06296 2.64024C4.94237 2.61359 4.81766 2.59961 4.69001 2.59961C3.63994 2.59961 2.78868 3.54545 2.78868 4.7122C2.78868 5.87895 3.63994 6.82479 4.69001 6.82479C4.98945 6.82479 5.27272 6.74788 5.5247 6.61087C5.57405 6.58404 5.5879 6.52075 5.55835 6.47298C5.38918 6.19952 5.24994 5.90569 5.14394 5.59842C5.12009 5.5293 5.03221 5.50491 4.96895 5.5416C4.87242 5.59758 4.7737 5.62479 4.69001 5.62479C4.41848 5.62479 3.98868 5.33827 3.98868 4.7122C3.98868 4.08614 4.41848 3.79961 4.69001 3.79961C4.71735 3.79961 4.7463 3.80251 4.77624 3.80838C4.84501 3.82184 4.91919 3.77902 4.92652 3.70934C4.96041 3.38713 5.02978 3.07103 5.13147 2.76766Z" fill="#161823"/>
<path d="M8.80259 6.83138C10.1281 6.83138 11.2026 5.63747 11.2026 4.16471C11.2026 2.69195 10.1281 1.49805 8.80259 1.49805C7.4771 1.49805 6.40259 2.69195 6.40259 4.16471C6.40259 5.63747 7.4771 6.83138 8.80259 6.83138ZM8.80259 5.53138C8.32052 5.53138 7.70259 5.05173 7.70259 4.16471C7.70259 3.2777 8.32052 2.79805 8.80259 2.79805C9.28465 2.79805 9.90259 3.2777 9.90259 4.16471C9.90259 5.05173 9.28465 5.53138 8.80259 5.53138Z" fill="#161823"/>
<path d="M4.93161 8.83926C5.98779 8.18468 7.3563 7.8331 8.80282 7.8331C9.20051 7.8331 9.59228 7.85967 9.97327 7.91179C10.066 7.92448 10.0882 8.04552 10.0071 8.09231L9.64419 8.30184C9.21993 8.54679 8.87139 8.8883 8.61985 9.28952C8.60175 9.31839 8.57034 9.33666 8.5363 9.33789C6.22851 9.42124 4.46948 10.5811 4.46948 11.9998V12.3331C4.46948 12.7013 4.76796 12.9998 5.13615 12.9998H8.09882C8.14968 12.9998 8.19225 13.038 8.19952 13.0883C8.26461 13.5386 8.43259 13.964 8.68552 14.3332C8.7328 14.4023 8.68506 14.4998 8.6014 14.4998H5.13615C3.93954 14.4998 2.96919 13.5298 2.96919 12.3332L2.96948 11.9998C2.96948 10.5613 3.89342 9.48268 4.93161 8.83926Z" fill="#161823"/>
<path d="M13.6461 11.7584C13.6461 12.2886 13.2163 12.7184 12.6861 12.7184C12.1559 12.7184 11.7261 12.2886 11.7261 11.7584C11.7261 11.2282 12.1559 10.7984 12.6861 10.7984C13.2163 10.7984 13.6461 11.2282 13.6461 11.7584Z" fill="#161823"/>
<path d="M12.3361 8.19093C12.5526 8.06589 12.8195 8.06589 13.0361 8.19093L15.603 9.67295C15.8196 9.79799 15.953 10.0291 15.953 10.2792V13.2432C15.953 13.4933 15.8196 13.7244 15.603 13.8494L13.0361 15.3314C12.8195 15.4565 12.5527 15.4565 12.3361 15.3314L9.76914 13.8494C9.55256 13.7244 9.41914 13.4933 9.41914 13.2432V10.2792C9.41914 10.0291 9.55256 9.79799 9.76914 9.67295L12.3361 8.19093ZM12.6861 9.60544L10.8191 10.6833V12.8391L12.6861 13.9169L14.553 12.8391V10.6833L12.6861 9.60544Z" fill="#161823"/>
</svg>
