<svg width="24" height="24" viewBox="0 0 24 24" fill="none" xmlns="http://www.w3.org/2000/svg">
<path d="M15.6406 1.5C18.3467 1.50015 20.54 3.69429 20.54 6.40039V6.59766L20.6377 6.5L20.7061 6.43848C21.0595 6.1505 21.5807 6.17177 21.9102 6.50098C22.2393 6.83045 22.2598 7.35168 21.9717 7.70508L21.9102 7.77344L20.3457 9.33691C20.2994 9.39557 20.2458 9.44763 20.1865 9.49316C19.8336 9.82012 19.2836 9.81362 18.9404 9.4707L17.2432 7.77344C16.8918 7.42195 16.8917 6.85143 17.2432 6.5C17.5946 6.1488 18.1652 6.14874 18.5166 6.5L18.7402 6.72363V6.40039C18.7402 4.6884 17.3526 3.30093 15.6406 3.30078H8.36035C6.64827 3.30078 5.26074 4.68831 5.26074 6.40039V17.6006C5.26105 19.3124 6.64846 20.7002 8.36035 20.7002H15.6406C17.3524 20.7 18.7399 19.3123 18.7402 17.6006V13.96C18.7405 13.4631 19.1437 13.0605 19.6406 13.0605C20.1374 13.0607 20.5398 13.4632 20.54 13.96V17.6006C20.5397 20.3064 18.3465 22.4999 15.6406 22.5H8.36035C5.65434 22.5 3.46026 20.3065 3.45996 17.6006V6.40039C3.45996 3.69419 5.65416 1.5 8.36035 1.5H15.6406Z" fill="#161823"/>
<path d="M13.791 7.41992C14.8239 7.26241 15.6541 8.06169 15.6543 9.10645V14.5205C15.6543 14.5576 15.6518 14.5943 15.6465 14.6299C15.5715 15.414 15.0871 16.0667 14.2998 16.2158L13.9258 16.2861C13.019 16.4579 12.1797 15.7628 12.1797 14.8398C12.1797 14.1321 12.6834 13.5239 13.3789 13.3926L14.3916 13.2207V8.87305C14.3914 8.72395 14.2588 8.61032 14.1113 8.63281L11.0342 9.19922C10.9152 9.21739 10.8272 9.32006 10.8271 9.44043V15.4668C10.8271 16.3257 10.3331 17.0628 9.48926 17.2227L9.11523 17.2939C8.2086 17.4656 7.36935 16.7704 7.36914 15.8477C7.36914 15.1399 7.87287 14.5317 8.56836 14.4004L9.56445 14.2246V9.54102C9.56445 8.69799 10.1139 8.08123 10.9473 7.9541L13.791 7.41992Z" fill="#161823"/>
</svg>
