<svg width="20" height="20" viewBox="0 0 20 20" fill="none" xmlns="http://www.w3.org/2000/svg">
<path d="M4.3 2.25C2.61553 2.25 1.25 3.61553 1.25 5.3V5.5C1.25 5.91421 1.58579 6.25 2 6.25C2.41421 6.25 2.75 5.91421 2.75 5.5V5.3C2.75 4.44396 3.44396 3.75 4.3 3.75H15.7C16.556 3.75 17.25 4.44396 17.25 5.3V5.5C17.25 5.91421 17.5858 6.25 18 6.25C18.4142 6.25 18.75 5.91421 18.75 5.5V5.3C18.75 3.61553 17.3845 2.25 15.7 2.25H4.3Z" fill="#161823"/>
<path d="M2.75 14.5C2.75 14.0858 2.41421 13.75 2 13.75C1.58579 13.75 1.25 14.0858 1.25 14.5V14.7C1.25 16.3845 2.61553 17.75 4.3 17.75H15.7C17.3845 17.75 18.75 16.3845 18.75 14.7V14.5C18.75 14.0858 18.4142 13.75 18 13.75C17.5858 13.75 17.25 14.0858 17.25 14.5V14.7C17.25 15.556 16.556 16.25 15.7 16.25H4.3C3.44396 16.25 2.75 15.556 2.75 14.7V14.5Z" fill="#161823"/>
<path d="M13.3535 12.0469C13.5801 12.5938 14.2676 13.1406 15.4668 13.1406C16.8809 13.1406 17.791 12.4609 17.791 11.4062C17.791 10.6445 17.252 10.1641 16.4004 10.0781V10.0508C17.0449 9.92188 17.5684 9.46094 17.5684 8.73828C17.5684 7.78125 16.6855 7.22266 15.459 7.22266C14.3496 7.22266 13.6855 7.75391 13.4629 8.30078C13.4121 8.42188 13.3926 8.51953 13.3926 8.64062C13.3926 8.96875 13.5918 9.20312 13.9824 9.20312C14.2988 9.20312 14.4707 9.08984 14.6309 8.78906C14.8027 8.45312 15.0645 8.28906 15.4668 8.28906C15.9551 8.28906 16.2363 8.54297 16.2363 8.94141C16.2363 9.35156 15.9004 9.62109 15.3496 9.62109H15.2207C14.8809 9.62109 14.7012 9.82031 14.7012 10.1055C14.7012 10.3984 14.8809 10.5938 15.2207 10.5938H15.3574C15.9824 10.5938 16.334 10.8477 16.334 11.3203C16.334 11.7266 15.9902 12.0156 15.498 12.0156C14.9629 12.0156 14.709 11.8086 14.502 11.457C14.3613 11.2305 14.1855 11.1328 13.9121 11.1328C13.5215 11.1328 13.2832 11.3594 13.2832 11.7188C13.2832 11.8203 13.3066 11.9375 13.3535 12.0469Z" fill="#161823"/>
<path d="M7.99512 13C7.53418 13 7.32324 12.7422 7.32324 12.3867C7.32324 12.1172 7.43652 11.9258 7.71777 11.6836L9.32715 10.2227C9.9873 9.62109 10.167 9.36328 10.167 8.99609C10.167 8.58984 9.85449 8.30078 9.40527 8.30078C9.03418 8.30078 8.78027 8.48047 8.57324 8.85547C8.39355 9.13281 8.22559 9.24609 7.93652 9.24609C7.56543 9.24609 7.34277 9.03125 7.34277 8.67969C7.34277 8.57031 7.3584 8.46875 7.40137 8.36719C7.64746 7.71875 8.39746 7.22266 9.4248 7.22266C10.71 7.22266 11.5537 7.90625 11.5537 8.90234C11.5537 9.625 11.1865 10.0391 10.292 10.8477L9.1709 11.8711V11.8984H11.1201C11.4834 11.8984 11.6943 12.1133 11.6943 12.4492C11.6943 12.7773 11.4834 13 11.1201 13H7.99512Z" fill="#161823"/>
<path d="M3.75781 12.3828C3.75781 12.8125 4.04688 13.0898 4.47266 13.0898C4.89844 13.0898 5.18359 12.8125 5.18359 12.3828V8.07422C5.18359 7.58203 4.88281 7.27344 4.36719 7.27344C4.08594 7.27344 3.84375 7.30469 3.54297 7.50781L2.47656 8.23438C2.27344 8.375 2.19141 8.53516 2.19141 8.74219C2.19141 9.03125 2.39844 9.23828 2.67578 9.23828C2.8125 9.23828 2.89844 9.20703 3.02734 9.11719L3.73047 8.62891H3.75781V12.3828Z" fill="#161823"/>
</svg>
