<svg width="16" height="16" viewBox="0 0 16 16" fill="none" xmlns="http://www.w3.org/2000/svg">
<path d="M10.6665 4.33334C10.6665 5.9902 9.47256 7.33334 7.9998 7.33334C6.52704 7.33334 5.33313 5.9902 5.33313 4.33334C5.33313 2.67649 6.52704 1.33334 7.9998 1.33334C9.47256 1.33334 10.6665 2.67649 10.6665 4.33334Z" fill="#161823"/>
<path d="M3.80201 9.24327C4.92414 8.53096 6.40609 8.13333 7.9998 8.13333C9.59352 8.13333 11.0755 8.53096 12.1976 9.24327C12.3466 9.33785 12.4916 9.43986 12.6311 9.54901C11.0795 9.81906 9.89983 11.1724 9.89983 12.8013C9.89983 13.5829 10.1715 14.3012 10.6256 14.8667H3.66647C2.63554 14.8667 1.7998 14.0309 1.7998 13V12.4848C1.7998 11.0668 2.69087 9.9486 3.80201 9.24327Z" fill="#161823"/>
<path d="M13.7905 10.8882C13.7905 10.8882 13.7905 10.8882 13.7905 10.8882C13.6275 10.838 13.4555 10.8081 13.2777 10.8014C13.2523 10.8005 13.2267 10.8 13.2011 10.8C13.2011 10.8 13.2011 10.8 13.2011 10.8C13.1968 10.8 13.1924 10.8 13.1882 10.8C13.1506 10.8003 13.1132 10.8015 13.0761 10.8038C12.029 10.8683 11.1997 11.7379 11.1997 12.8013C11.1997 13.9065 12.0957 14.8025 13.201 14.8025C14.3062 14.8025 15.2022 13.9065 15.2022 12.8013C15.2022 11.9012 14.608 11.1399 13.7905 10.8882Z" fill="#161823"/>
</svg>
