<svg width="20" height="20" viewBox="0 0 20 20" fill="none" xmlns="http://www.w3.org/2000/svg">
<path d="M10.1169 5.83333C10.1169 7.67428 8.77374 9.16667 7.11688 9.16667C6.71454 9.16667 6.33069 9.07866 5.98009 8.91903L7.22829 10.1672C8.93752 10.1849 10.5337 10.6092 11.758 11.368C12.9908 12.132 14.0335 13.3774 14.0335 15V15.4167C14.0335 15.8617 13.9089 16.2777 13.6927 16.6316L14.2762 17.2151C14.569 17.508 14.569 17.9829 14.2762 18.2758C14.0009 18.551 13.565 18.5676 13.2704 18.3256L1.67559 6.73075C1.65792 6.71307 1.63958 6.69646 1.62065 6.68092L0.852605 5.91287C0.559711 5.61997 0.559711 5.1451 0.852605 4.85221C1.1455 4.55931 1.62037 4.55931 1.91326 4.85221L4.47489 7.41383C4.24651 6.9435 4.11688 6.40524 4.11688 5.83333C4.11688 3.99238 5.46003 2.5 7.11688 2.5C8.77374 2.5 10.1169 3.99238 10.1169 5.83333Z" fill="#161823"/>
<path d="M10.5735 17.75L3.6206 10.7971C3.21224 10.9585 2.82856 11.1493 2.47576 11.368C1.24292 12.132 0.200195 13.3774 0.200195 15V15.4167C0.200195 16.7053 1.24486 17.75 2.53353 17.75H10.5735Z" fill="#161823"/>
<path d="M13.7836 9.16003C15.1653 9.16003 16.2853 7.91555 16.2853 6.3804C16.2853 4.84525 15.1653 3.60077 13.7836 3.60077C12.402 3.60077 11.282 4.84525 11.282 6.3804C11.282 7.91555 12.402 9.16003 13.7836 9.16003Z" fill="#161823"/>
<path d="M15.5189 15.1238C15.5189 12.9352 14.2189 11.3172 12.8022 10.3442C13.1235 10.309 13.4515 10.2911 13.7836 10.2911C15.2817 10.2911 16.6958 10.6552 17.785 11.3302C18.8562 11.9941 19.8005 13.101 19.8005 14.5707V14.9182C19.8005 16.1304 18.8178 17.1131 17.6056 17.1131H15.1935C15.4023 16.647 15.5189 16.1278 15.5189 15.5805V15.1238Z" fill="#161823"/>
</svg>
