<svg width="20" height="20" viewBox="0 0 20 20" fill="none" xmlns="http://www.w3.org/2000/svg">
<path d="M17.6537 4.79496C19.0266 6.16788 18.7552 8.11223 17.8236 9.23781C17.5717 9.54236 17.3014 9.79474 17.0074 9.99989C17.3014 10.205 17.5715 10.4572 17.8235 10.7617C18.755 11.8873 19.0266 13.8319 17.6537 15.2048C17.2055 15.653 16.659 15.9434 16.0811 16.0809C15.9437 16.6587 15.6535 17.205 15.2053 17.6532C13.8323 19.0263 11.8877 18.7547 10.7622 17.823C10.4577 17.5711 10.2056 17.301 10.0004 17.0071C9.79526 17.3011 9.5431 17.5712 9.23853 17.8232C8.11295 18.7547 6.16836 19.0263 4.79545 17.6534C4.34724 17.2052 4.05682 16.6587 3.91939 16.0808C3.34159 15.9434 2.79528 15.6532 2.34702 15.205C0.974009 13.832 1.24558 11.8874 2.17727 10.7619C2.4292 10.4573 2.69935 10.2052 2.99335 10C2.69936 9.79485 2.4292 9.5427 2.17727 9.23814C1.24558 8.11259 0.974009 6.16806 2.34701 4.79505C2.79528 4.34679 3.34159 4.05659 3.91939 3.91926C4.05682 3.34131 4.34724 2.79483 4.79545 2.34662C6.16836 0.973704 8.11272 1.24515 9.2383 2.17668C9.54282 2.42858 9.79518 2.69889 10.0003 2.99284C10.2055 2.69885 10.4576 2.42871 10.7622 2.17678C11.8877 1.24509 13.8323 0.97352 15.2053 2.34653C15.6535 2.79479 15.9437 3.34111 16.0811 3.9189C16.659 4.05633 17.2055 4.34675 17.6537 4.79496ZM16.668 8.28157C17.2121 7.62424 17.3088 6.57138 16.593 5.85562C16.2663 5.52891 15.8383 5.35118 15.383 5.32835C14.9984 5.30905 14.6909 5.00153 14.6716 4.61686C14.6487 4.16145 14.4712 3.7338 14.1446 3.40719C13.4289 2.69143 12.376 2.78815 11.7187 3.33227C11.1486 3.80378 10.8666 4.33903 10.7832 5.23198C10.764 5.43684 10.7556 5.65789 10.7572 5.89817C12.4588 6.20819 13.8031 7.54463 14.1154 9.24305C14.3505 9.24427 14.5672 9.23582 14.7682 9.21703C15.6612 9.13358 16.1965 8.85164 16.668 8.28157ZM14.1154 10.7567C13.8031 12.4551 12.4588 13.7916 10.7572 14.1016C10.7556 14.3419 10.764 14.5629 10.7832 14.7678C10.8666 15.6607 11.1484 16.1958 11.7184 16.6673C12.3758 17.2114 13.4289 17.3083 14.1446 16.5926C14.4712 16.266 14.6487 15.8383 14.6716 15.3829C14.6909 14.9982 14.9984 14.6907 15.383 14.6714C15.8383 14.6486 16.2663 14.4709 16.593 14.1442C17.3088 13.4284 17.2121 12.3755 16.668 11.7182C16.1965 11.1481 15.6612 10.8662 14.7682 10.7827C14.5672 10.764 14.3505 10.7555 14.1154 10.7567ZM9.24346 14.1015C7.54196 13.7915 6.19774 12.4551 5.88542 10.7568C5.65025 10.7556 5.43356 10.7641 5.23247 10.7829C4.33952 10.8663 3.80446 11.1481 3.33295 11.7181C2.78883 12.3755 2.69192 13.4286 3.40768 14.1443C3.73429 14.4709 4.16194 14.6484 4.61735 14.6713C5.00202 14.6906 5.30954 14.9981 5.32884 15.3827C5.35168 15.838 5.5294 16.266 5.85611 16.5927C6.57187 17.3085 7.62473 17.2118 8.28206 16.6677C8.85214 16.1962 9.13407 15.6609 9.21752 14.7679C9.23667 14.563 9.24508 14.3419 9.24346 14.1015ZM5.88536 9.24322C6.19759 7.54476 7.54187 6.20826 9.24346 5.89819C9.24508 5.65794 9.23666 5.43691 9.21751 5.23208C9.13407 4.33911 8.85213 3.80387 8.28206 3.33236C7.62473 2.78824 6.57187 2.69152 5.85611 3.40728C5.5294 3.73399 5.35167 4.16202 5.32884 4.61728C5.30954 5.00195 5.00202 5.30947 4.61735 5.32877C4.16194 5.35161 3.73429 5.5291 3.40767 5.85571C2.69192 6.57147 2.78883 7.62456 3.33295 8.28189C3.80446 8.85197 4.33952 9.13368 5.23247 9.21716C5.43354 9.23596 5.65021 9.24443 5.88536 9.24322ZM10.0004 7.33008C8.51535 7.33008 7.31669 8.52825 7.31669 9.99987C7.31669 11.4715 8.51535 12.6697 10.0004 12.6697C11.4854 12.6697 12.6841 11.4715 12.6841 9.99987C12.6841 8.52825 11.4854 7.33008 10.0004 7.33008Z" fill="#161823"/>
</svg>
