<svg width="24" height="24" viewBox="0 0 24 24" fill="none" xmlns="http://www.w3.org/2000/svg">
<path d="M2.46967 3.53033C2.17678 3.23744 2.17678 2.76256 2.46967 2.46967C2.76256 2.17678 3.23744 2.17678 3.53033 2.46967L7.5004 6.43973C7.53265 3.98223 9.53484 2 12 2C14.4853 2 16.5 4.01472 16.5 6.5V11.5C16.5 12.5999 16.1054 13.6076 15.45 14.3894L16.5138 15.4531C17.4391 14.3974 18 13.0142 18 11.5V11C18 10.5858 18.3358 10.25 18.75 10.25C19.1642 10.25 19.5 10.5858 19.5 11V11.5C19.5 13.4284 18.7722 15.1869 17.5763 16.5156L21.5303 20.4697C21.8232 20.7626 21.8232 21.2374 21.5303 21.5303C21.2374 21.8232 20.7626 21.8232 20.4697 21.5303L2.46967 3.53033ZM9 7.93934L14.3832 13.3225C14.7701 12.8173 15 12.1855 15 11.5V6.5C15 4.84315 13.6569 3.5 12 3.5C10.3431 3.5 9 4.84315 9 6.5V7.93934Z" fill="#161823"/>
<path d="M7.5 11.5V10.682L9.10403 12.286C9.38159 13.3111 10.1889 14.1184 11.214 14.396L12.7549 15.9369C12.5095 15.9784 12.2573 16 12 16C9.51472 16 7.5 13.9853 7.5 11.5Z" fill="#161823"/>
<path d="M13.9827 17.1647C13.362 17.3819 12.6948 17.5 12 17.5C8.68629 17.5 6 14.8137 6 11.5V11C6 10.5858 5.66421 10.25 5.25 10.25C4.83579 10.25 4.5 10.5858 4.5 11V11.5C4.5 15.3893 7.46047 18.5872 11.2509 18.9631C11.2503 18.9753 11.25 18.9876 11.25 19V20.5H9C8.58579 20.5 8.25 20.8358 8.25 21.25C8.25 21.6642 8.58579 22 9 22H15C15.4142 22 15.75 21.6642 15.75 21.25C15.75 20.8358 15.4142 20.5 15 20.5H12.75V19C12.75 18.9876 12.7497 18.9753 12.7491 18.9631C13.593 18.8794 14.3958 18.6558 15.1339 18.3159L13.9827 17.1647Z" fill="#161823"/>
</svg>
