<svg width="16" height="16" viewBox="0 0 16 16" fill="none" xmlns="http://www.w3.org/2000/svg">
<path d="M5.1161 3.72654C5.1161 2.13401 6.40709 0.843018 7.99962 0.843018C9.59214 0.843018 10.8831 2.13401 10.8831 3.72653V7.10132C10.8831 8.69384 9.59214 9.98484 7.99962 9.98484C6.40709 9.98484 5.1161 8.69384 5.1161 7.10132V3.72654ZM9.68313 3.72653C9.68313 2.79675 8.9294 2.04302 7.99962 2.04302C7.06984 2.04302 6.3161 2.79675 6.3161 3.72654V7.10132C6.3161 8.0311 7.06983 8.78484 7.99962 8.78484C8.9294 8.78484 9.68313 8.0311 9.68313 7.10132V3.72653Z" fill="#161823"/>
<path d="M3.19375 6.14243C3.52512 6.14243 3.79375 6.41106 3.79375 6.74243V7.84535C3.79375 9.75567 5.34237 11.3043 7.25268 11.3043H8.74655C10.6569 11.3043 12.2055 9.75567 12.2055 7.84535V6.74243C12.2055 6.41106 12.4741 6.14243 12.8055 6.14243C13.1368 6.14243 13.4055 6.41106 13.4055 6.74243V7.84535C13.4055 10.4184 11.3196 12.5043 8.74655 12.5043H8.59942L8.5996 12.5188V13.44H10.1355C10.4669 13.44 10.7355 13.7087 10.7355 14.04C10.7355 14.3714 10.4669 14.64 10.1355 14.64H5.86367C5.5323 14.64 5.26367 14.3714 5.26367 14.04C5.26367 13.7087 5.5323 13.44 5.86367 13.44H7.3996V12.5188L7.39977 12.5043H7.25268C4.67962 12.5043 2.59375 10.4184 2.59375 7.84535V6.74243C2.59375 6.41106 2.86238 6.14243 3.19375 6.14243Z" fill="#161823"/>
</svg>
