<svg width="24" height="24" viewBox="0 0 24 24" fill="none" xmlns="http://www.w3.org/2000/svg">
<path d="M13 11C14.9882 11 16.6 9.20914 16.6 7C16.6 4.79086 14.9882 3 13 3C11.0118 3 9.40002 4.79086 9.40002 7C9.40002 9.20914 11.0118 11 13 11Z" fill="#161823"/>
<path d="M7.58872 13.8966C9.03423 13.0007 10.9441 12.5 13 12.5C14.2399 12.5 15.4267 12.6821 16.4905 13.0232C16.6227 13.0656 16.668 13.2282 16.5923 13.3445C16.5068 13.4758 16.4325 13.6162 16.371 13.7646C16.2066 14.1614 16.1475 14.583 16.1865 14.9931C16.1992 15.1272 16.0901 15.2477 15.9555 15.2504C15.3582 15.2624 14.7676 15.5108 14.3352 15.9864L11.8352 18.7364C11.3266 19.2959 11.1525 20.0417 11.3013 20.7283C11.3305 20.8631 11.2336 21 11.0957 21H7.5C6.11929 21 5 19.8807 5 18.5V18C5 16.1933 6.16121 14.7813 7.58872 13.8966Z" fill="#161823"/>
<path d="M8.54526 4.32803C8.13056 5.13419 7.8999 6.05254 7.8999 7C7.8999 8.20699 8.27422 9.36672 8.92651 10.3075C8.48379 10.5933 7.96927 10.757 7.42033 10.757C5.76238 10.757 4.41833 9.26367 4.41833 7.42149C4.41833 5.57932 5.76238 4.08594 7.42033 4.08594C7.81812 4.08594 8.19784 4.17191 8.54526 4.32803Z" fill="#161823"/>
<path d="M7.59341 12.4157C7.31895 12.5511 7.05357 12.6979 6.79853 12.856C5.11148 13.9015 3.5 15.7256 3.5 18.2344V18.7344C3.5 19.1769 3.57188 19.6027 3.70459 20.0007H2.83389C1.54492 20.0007 0.5 18.9558 0.5 17.6668V17.2499C0.5 15.6267 1.54311 14.3807 2.77661 13.6163C4.02811 12.8407 5.66806 12.4143 7.42028 12.4143C7.47812 12.4143 7.53583 12.4148 7.59341 12.4157Z" fill="#161823"/>
<path d="M18.1495 14.5013C18.2501 14.2584 18.4871 14.1 18.75 14.1H22.25C22.609 14.1 22.9 14.3911 22.9 14.75V18.25C22.9 18.5129 22.7416 18.75 22.4987 18.8506C22.2558 18.9512 21.9763 18.8956 21.7904 18.7097L20.5963 17.5156L18.5899 19.751C18.3172 20.0548 17.8516 20.0848 17.5423 19.8183L16.0638 18.5448L14.055 20.7545C13.7763 21.061 13.302 21.0836 12.9955 20.805C12.689 20.5263 12.6664 20.052 12.9451 19.7455L15.4451 16.9955C15.7184 16.6948 16.1816 16.6665 16.4895 16.9317L17.9644 18.2022L19.5341 16.4534L18.2904 15.2097C18.1045 15.0238 18.0489 14.7442 18.1495 14.5013Z" fill="#161823"/>
</svg>
