<svg width="20" height="20" viewBox="0 0 20 20" fill="none" xmlns="http://www.w3.org/2000/svg">
<path fill-rule="evenodd" clip-rule="evenodd" d="M5.38981 3.11702C5.03834 2.76555 4.46849 2.76555 4.11702 3.11702C3.76555 3.46849 3.76555 4.03834 4.11702 4.38981L8.72718 8.99997L7.00307 10.7241C6.97771 10.7494 6.95417 10.7759 6.93247 10.8034C6.49523 10.607 6.01037 10.4978 5.5 10.4978C3.567 10.4978 2 12.0648 2 13.9978C2 15.9308 3.567 17.4978 5.5 17.4978C7.433 17.4978 9 15.9308 9 13.9978C9 13.229 8.75215 12.5182 8.332 11.9407L9.99997 10.2728L11.6689 11.9417C11.2482 12.5194 11 13.2307 11 14C11 15.933 12.567 17.5 14.5 17.5C16.433 17.5 18 15.933 18 14C18 12.067 16.433 10.5 14.5 10.5C13.9901 10.5 13.5057 10.609 13.0688 10.8051C13.0467 10.777 13.0227 10.7499 12.9968 10.724L11.2728 8.99997L15.8829 4.38981C16.2344 4.03834 16.2344 3.46849 15.8829 3.11702C15.5314 2.76555 14.9616 2.76555 14.6101 3.11702L9.99997 7.72718L5.38981 3.11702ZM12.8 14C12.8 14.9389 13.5611 15.7 14.5 15.7C15.4389 15.7 16.2 14.9389 16.2 14C16.2 13.0611 15.4389 12.3 14.5 12.3C13.5611 12.3 12.8 13.0611 12.8 14ZM7.2 13.9978C7.2 14.9367 6.43888 15.6978 5.5 15.6978C4.56112 15.6978 3.8 14.9367 3.8 13.9978C3.8 13.0589 4.56112 12.2978 5.5 12.2978C6.43888 12.2978 7.2 13.0589 7.2 13.9978Z" fill="#161823"/>
</svg>
