<svg width="16" height="16" viewBox="0 0 16 16" fill="none" xmlns="http://www.w3.org/2000/svg">
<path d="M5.69351 7.33333C7.01899 7.33333 8.09351 6.13943 8.09351 4.66667C8.09351 3.19391 7.01899 2 5.69351 2C4.36802 2 3.29351 3.19391 3.29351 4.66667C3.29351 4.98583 3.34397 5.2919 3.43652 5.57556L1.63665 3.7757C1.34376 3.48281 0.868886 3.48281 0.575993 3.7757C0.2831 4.06859 0.2831 4.54347 0.575993 4.83636L1.42827 5.68864C1.43441 5.69438 1.44048 5.70025 1.44647 5.70624L10.4845 14.7443C10.7785 15.0194 11.2401 15.0136 11.527 14.7267C11.8199 14.4338 11.8199 13.9589 11.527 13.666L11.0298 13.1689C11.1559 12.9175 11.2268 12.6337 11.2268 12.3333V12C11.2268 10.7019 10.3926 9.70563 9.40637 9.09438C8.47897 8.51962 7.28483 8.18475 5.99974 8.13879L5.1168 7.25584C5.30153 7.30647 5.4947 7.33333 5.69351 7.33333Z" fill="#161823"/>
<path d="M2.45256 8.83366L7.8189 14.2H2.02682C0.995895 14.2 0.160156 13.3643 0.160156 12.3333V12C0.160156 10.7019 0.994332 9.70563 1.98061 9.09438C2.13115 9.00108 2.28872 8.9141 2.45256 8.83366Z" fill="#161823"/>
<path d="M13.0282 5.10432C13.0282 6.33244 12.1322 7.32802 11.0268 7.32802C9.92154 7.32802 9.02551 6.33244 9.02551 5.10432C9.02551 3.8762 9.92154 2.88062 11.0268 2.88062C12.1322 2.88062 13.0282 3.8762 13.0282 5.10432Z" fill="#161823"/>
<path d="M12.415 12.099C12.415 10.3482 11.375 9.05375 10.2417 8.27538C10.4987 8.2472 10.7611 8.23289 11.0268 8.23289C12.2253 8.23289 13.3566 8.52418 14.228 9.0642C15.0849 9.59529 15.8403 10.4808 15.8403 11.6566V11.9346C15.8403 12.9043 15.0542 13.6905 14.0844 13.6905H12.1547C12.3217 13.3176 12.415 12.9022 12.415 12.4644V12.099Z" fill="#161823"/>
</svg>
