<svg width="16" height="16" viewBox="0 0 16 16" fill="none" xmlns="http://www.w3.org/2000/svg">
<path fill-rule="evenodd" clip-rule="evenodd" d="M6.75 15C7.16421 15 7.5 14.6642 7.5 14.25V9.25C7.5 8.83579 7.16421 8.5 6.75 8.5H1.75C1.33579 8.5 1 8.83579 1 9.25C1 9.66421 1.33579 10 1.75 10H6V14.25C6 14.6642 6.33579 15 6.75 15Z" fill="#161823"/>
<path fill-rule="evenodd" clip-rule="evenodd" d="M9.25 1C8.83579 1 8.5 1.33579 8.5 1.75V6.74858C8.5 7.16271 8.83566 7.49846 9.24979 7.49858L14.2498 7.5C14.664 7.50012 14.9999 7.16443 15 6.75021C15.0001 6.336 14.6644 6.00012 14.2502 6L10 5.99879V1.75C10 1.33579 9.66421 1 9.25 1Z" fill="#161823"/>
</svg>
