<svg width="24" height="24" viewBox="0 0 24 24" fill="none" xmlns="http://www.w3.org/2000/svg">
<path d="M2.83301 4.33331C2.83301 2.82373 4.05676 1.59998 5.56634 1.59998H14.833C16.3426 1.59998 17.5663 2.82373 17.5663 4.33331V9.28817L16.0663 9.51937V4.33331C16.0663 3.65216 15.5142 3.09998 14.833 3.09998H13.286L13.0117 4.09086C12.9317 4.37967 12.6688 4.57963 12.3692 4.57963H8.01653C7.71685 4.57963 7.454 4.37967 7.37403 4.09086L7.09967 3.09998H5.56634C4.88519 3.09998 4.33301 3.65216 4.33301 4.33331V19.4666C4.33301 20.1478 4.88519 20.7 5.56634 20.7H8.97876C8.96701 20.8139 8.961 20.9294 8.961 21.0461C8.961 21.4538 9.03292 21.8419 9.16394 22.2H5.56634C4.05676 22.2 2.83301 20.9762 2.83301 19.4666V4.33331Z" fill="#161823"/>
<path d="M19.1836 12.0712C19.335 12.0478 19.4716 12.165 19.4716 12.3183V17.7608C19.4141 17.7645 19.356 17.7717 19.2976 17.7828L17.9826 18.031C17.1076 18.1962 16.474 18.9607 16.474 19.8512C16.474 21.0124 17.5301 21.8872 18.671 21.6711L19.1416 21.5819C20.2034 21.3807 20.972 20.4529 20.972 19.3722V19.1706C20.972 19.1603 20.9719 19.15 20.9716 19.1398V12.3183C20.9716 11.2455 20.0153 10.4253 18.9551 10.5887L14.9551 11.2052C14.1016 11.3368 13.4716 12.0712 13.4716 12.9348V18.9505C13.4141 18.9543 13.356 18.9615 13.2977 18.9726L11.9827 19.2208C11.1077 19.386 10.4741 20.1505 10.4741 21.0409C10.4741 22.2021 11.5302 23.077 12.6711 22.8608L13.1417 22.7717C14.2035 22.5705 14.9721 21.6426 14.9721 20.562V20.3604C14.9721 20.3486 14.9719 20.3368 14.9716 20.3251V12.9348C14.9716 12.8114 15.0616 12.7065 15.1836 12.6877L19.1836 12.0712Z" fill="#161823"/>
</svg>
