<svg width="24" height="24" viewBox="0 0 24 24" fill="none" xmlns="http://www.w3.org/2000/svg">
<path d="M16.3797 12.9546L15.5828 11.8887C15.0845 11.2224 14.3876 10.2906 13.5928 9.22835C12.7365 8.0839 11.7666 6.78799 10.8091 5.50968L10.4667 5.05257L11.0313 5.13916C12.547 5.37166 14.451 5.10599 16.6811 3.70175C17.0267 3.48413 17.1318 3.02551 16.9145 2.67756C16.6976 2.33019 16.2422 2.2258 15.8972 2.44305C13.5207 3.9395 11.7267 3.88199 10.514 3.49819C9.53571 3.18858 8.98952 2.73451 8.592 2.40404L8.59123 2.4034C8.44318 2.28032 8.32784 2.18492 8.21807 2.1151C7.87403 1.89626 7.41817 1.99856 7.19971 2.34492C7.04091 2.59667 7.05127 2.90824 7.20198 3.14437L7.20746 3.15296L7.21218 3.162C7.2307 3.19751 7.25239 3.23209 7.27737 3.26538C8.8426 5.3513 10.8232 7.99691 12.4127 10.1212C13.2074 11.1833 13.9042 12.1151 14.4024 12.7813L15.2 13.8481C15.2086 13.8596 15.2176 13.8709 15.2268 13.8819C15.2422 13.9002 15.2556 13.9197 15.2689 13.9393C15.2779 13.9523 15.2868 13.9654 15.2963 13.9781C16.6605 15.7961 16.2991 18.3804 14.4882 19.7508C12.6768 21.1216 10.1018 20.7579 8.73717 18.9393C7.37783 17.1278 7.73184 14.5553 9.52599 13.1813L9.53113 13.1773L10.3042 12.6507C10.6418 12.4207 10.7304 11.9585 10.5008 11.6187C10.2717 11.2795 9.81286 11.1916 9.4758 11.4212L8.67184 11.9689L8.65718 11.98C6.67894 13.477 5.97203 16.0404 6.73249 18.2732L4.87829 17.219C4.33174 16.9082 3.99415 16.3278 3.99415 15.699L3.99415 8.6501C3.99415 8.02129 4.33174 7.44088 4.87829 7.13013L5.58257 6.72969C5.94526 6.52348 6.0722 6.06214 5.86602 5.69927C5.65985 5.33643 5.19873 5.20952 4.83608 5.41572L4.1318 5.81615C3.11285 6.3955 2.4834 7.47763 2.4834 8.6501V15.699C2.4834 16.8715 3.11285 17.9536 4.1318 18.5329L10.3899 22.0911C11.3883 22.6588 12.6118 22.6588 13.6103 22.0911L19.8683 18.5329C20.8873 17.9536 21.5167 16.8715 21.5167 15.699V8.6501C21.5167 7.47762 20.8873 6.3955 19.8683 5.81615L19.164 5.41572C18.8014 5.20952 18.3403 5.33643 18.1341 5.69927C17.9279 6.06214 18.0549 6.52348 18.4176 6.72969L19.1218 7.13013C19.6684 7.44088 20.006 8.02129 20.006 8.6501V15.699C20.006 16.3278 19.6684 16.9082 19.1218 17.219L17.3076 18.2505C17.8747 16.5562 17.6274 14.619 16.4752 13.0836C16.466 13.0712 16.4568 13.0588 16.4476 13.0464C16.4404 13.0367 16.4333 13.027 16.4261 13.0173C16.4107 12.9963 16.3953 12.9754 16.3797 12.9546Z" fill="#161823"/>
</svg>
