<svg width="20" height="20" viewBox="0 0 20 20" fill="none" xmlns="http://www.w3.org/2000/svg">
<path d="M5.31789 12.7523C5.18117 13.2113 4.98586 13.3919 4.63429 13.3919C4.27296 13.3919 4.02394 13.1722 4.02394 12.8402C4.02394 12.7083 4.05812 12.557 4.14113 12.3079L5.82082 7.49348C6.03078 6.87337 6.32863 6.61458 6.88527 6.61458C7.43703 6.61458 7.73 6.86848 7.93996 7.49348L9.61964 12.3079C9.688 12.5179 9.72218 12.679 9.72218 12.8158C9.72218 13.1673 9.47316 13.3919 9.09718 13.3919C8.74074 13.3919 8.53566 13.2064 8.40382 12.7523L8.02785 11.6195H5.68898L5.31789 12.7523ZM6.83156 7.9427L5.98195 10.638H7.73976L6.89503 7.9427H6.83156Z" fill="#161823"/>
<path d="M11.5435 13.3333C10.9575 13.3333 10.6646 13.055 10.6646 12.4886V7.51302C10.6646 6.94661 10.9575 6.66829 11.5435 6.66829H13.0962C15.0444 6.66829 16.0747 7.82063 16.0747 10.0033C16.0747 12.181 15.0444 13.3333 13.0962 13.3333H11.5435ZM12.0829 7.74251C12.0277 7.74251 11.9829 7.78728 11.9829 7.84251V12.1542C11.9829 12.2095 12.0277 12.2542 12.0829 12.2542H12.9302C14.1558 12.2542 14.7271 11.5316 14.7271 10.0033C14.7271 8.46516 14.1509 7.74251 12.9302 7.74251H12.0829Z" fill="#161823"/>
<path d="M0.5 6.125C0.5 4.39911 1.89911 3 3.625 3H16.375C18.1009 3 19.5 4.39911 19.5 6.125V13.875C19.5 15.6009 18.1009 17 16.375 17H3.625C1.89911 17 0.5 15.6009 0.5 13.875V6.125ZM3.625 4.5C2.72754 4.5 2 5.22754 2 6.125V13.875C2 14.7725 2.72754 15.5 3.625 15.5H16.375C17.2725 15.5 18 14.7725 18 13.875V6.125C18 5.22754 17.2725 4.5 16.375 4.5H3.625Z" fill="#161823"/>
</svg>
