<svg width="20" height="20" viewBox="0 0 20 20" fill="none" xmlns="http://www.w3.org/2000/svg">
<path d="M9.96532 17.5C7.5229 17.4948 4.87658 15.5796 3.23865 12.7463C2.16813 10.8946 1.66882 8.907 1.76072 7.16947C1.85219 5.44025 2.54485 3.85574 3.97291 3.03232C5.81873 1.96805 8.12159 2.58919 9.99979 4.03913C10.4327 3.70418 10.8806 3.41854 11.3352 3.18747C12.8798 2.40229 14.5993 2.20913 16.0271 3.03237C17.4551 3.85577 18.1478 5.44026 18.2393 7.16949C18.3312 8.90702 17.8319 10.8946 16.7614 12.7464C15.6908 14.5982 14.2171 16.0236 12.6648 16.8126C11.7928 17.2559 10.8649 17.5105 9.96532 17.5ZM10.045 15.9997C10.6369 15.9967 11.2944 15.8266 11.9851 15.4754C13.2431 14.836 14.5161 13.6331 15.4628 11.9957C16.4094 10.3581 16.8158 8.65596 16.7414 7.24872C16.6665 5.83318 16.1208 4.81787 15.2778 4.33183C14.4346 3.84561 13.2805 3.88128 12.0149 4.52462C10.7569 5.16409 9.48391 6.36693 8.53726 8.00442C7.59061 9.64194 7.1842 11.3441 7.25863 12.7513C7.3335 14.1669 7.87921 15.1822 8.72217 15.6682C9.09776 15.8848 9.53501 15.9978 10.0163 15.9997C10.0259 15.9998 10.0354 15.9998 10.045 15.9997ZM8.8679 5.06473C7.30678 3.93823 5.76303 3.73164 4.72217 4.33179C3.87921 4.81784 3.3335 5.83316 3.25863 7.2487C3.1842 8.65593 3.59061 10.3581 4.53726 11.9956C4.94047 12.6931 5.63602 13.6774 6.12323 14.2006C5.93214 13.7695 5.77871 13.1707 5.76072 12.8306C5.66882 11.093 6.16813 9.10546 7.23865 7.25369C7.7122 6.43454 8.26466 5.69883 8.8679 5.06473Z" fill="#161823"/>
</svg>
