<svg width="20" height="20" viewBox="0 0 20 20" fill="none" xmlns="http://www.w3.org/2000/svg">
<path d="M11.5151 4.36882C10.2744 4.03638 8.95868 4.12261 7.77198 4.61416C6.58527 5.10572 5.59392 5.97511 4.95167 7.0875C4.30943 8.1999 4.05219 9.49313 4.21985 10.7666C4.38751 12.0401 4.9707 13.2227 5.87897 14.131C6.78723 15.0392 7.96982 15.6224 9.24331 15.7901C10.5168 15.9577 11.81 15.7005 12.9224 15.0583C13.5203 14.7131 14.2848 14.9179 14.63 15.5158C14.9751 16.1137 14.7703 16.8781 14.1724 17.2233C12.5834 18.1407 10.7361 18.5082 8.917 18.2687C7.09788 18.0292 5.40861 17.1961 4.1112 15.8987C2.81379 14.6013 1.98073 12.9121 1.74124 11.0929C1.50175 9.27382 1.8692 7.4265 2.78661 5.8375C3.70402 4.2485 5.12011 3.00662 6.81527 2.30447C8.51042 1.60231 10.3899 1.47912 12.1622 1.95401C13.9345 2.42889 15.5006 3.47531 16.6175 4.93097C17.7345 6.38663 18.3399 8.17018 18.3399 10.005C18.3399 10.6954 17.7803 11.255 17.0899 11.255C16.3996 11.255 15.8399 10.6954 15.8399 10.005C15.8399 8.72052 15.4161 7.47193 14.6341 6.45288C13.8522 5.43383 12.7559 4.70127 11.5151 4.36882Z" fill="#161823"/>
</svg>
