<svg width="24" height="24" viewBox="0 0 24 24" fill="none" xmlns="http://www.w3.org/2000/svg">
<path d="M3.53033 2.92231C3.23744 2.62941 2.76256 2.62941 2.46967 2.92231C2.17678 3.2152 2.17678 3.69007 2.46967 3.98297L3.47149 4.98478C3.47144 4.98484 3.47139 4.9849 3.47134 4.98496L16.8029 18.3165C16.803 18.3165 16.803 18.3164 16.8031 18.3164L20.4697 21.983C20.7626 22.2759 21.2374 22.2759 21.5303 21.983C21.8232 21.6901 21.8232 21.2152 21.5303 20.9223L17.9042 17.2961C20.4774 14.7559 22 12.0253 22 9.28133C22 5.53708 19.4015 3 16.2506 3C14.2864 3 12.8542 4.0844 11.9949 5.67008C11.156 4.0844 9.71355 3 7.74936 3C6.58359 3 5.49344 3.34729 4.58254 3.97451L3.53033 2.92231ZM11.9949 21.5575C12.3018 21.5575 12.7621 21.312 13.1714 21.0358C14.0468 20.4656 14.8724 19.8781 15.6411 19.276L2.64379 6.27873C2.2329 7.14761 2 8.16037 2 9.28133C2 13.4348 5.48849 17.5575 10.8286 21.0358C11.2379 21.312 11.688 21.5575 11.9949 21.5575Z" fill="#161823"/>
</svg>
