<svg width="24" height="24" viewBox="0 0 24 24" fill="none" xmlns="http://www.w3.org/2000/svg">
<path d="M20.8662 5.2057C19.816 3.96721 17.9513 2.82766 15.7879 2.95522C14.0384 3.05837 12.803 4.01974 12.0798 4.76177C11.539 4.20656 10.7623 3.5628 9.8289 3.26511C9.07984 3.02621 8.111 2.99567 7.22326 3.10045C6.34048 3.20465 5.39283 3.45965 4.71951 3.90958C3.81507 4.51395 3.04559 5.27619 2.50771 6.28311C1.97043 7.2889 1.69043 8.48976 1.69043 9.93328C1.69043 10.3851 2.05674 10.7515 2.50861 10.7515C2.96048 10.7515 3.32679 10.3851 3.32679 9.93328C3.32679 8.70508 3.56357 7.77948 3.95105 7.05411C4.33793 6.32987 4.90119 5.75625 5.62867 5.27013C5.99736 5.02377 6.65443 4.81531 7.41507 4.72554C8.17074 4.63635 8.88401 4.68133 9.3317 4.82411C10.1045 5.07057 10.8162 5.76293 11.2806 6.31748C11.6968 6.81444 12.4682 6.81998 12.887 6.31213C13.4023 5.68725 14.4026 4.6761 15.8842 4.58875C17.4197 4.49821 18.8189 5.32155 19.6182 6.26405C19.9799 6.69054 20.4027 7.51852 20.5838 8.54745C20.7623 9.56184 20.6954 10.7127 20.1598 11.8098C19.7147 12.7214 18.925 13.6864 17.975 14.6418C17.0322 15.59 15.9775 16.484 15.0402 17.2654C14.3092 17.8747 13.6591 18.3825 13.126 18.7647C13.0474 18.821 12.9723 18.8739 12.9008 18.9235V11.6235C12.9008 11.1717 12.5345 10.8054 12.0826 10.8054C11.6307 10.8054 11.2644 11.1717 11.2644 11.6235V20.0476C11.2644 20.348 11.3959 20.6496 11.6517 20.8487C11.9224 21.0593 12.2932 21.1197 12.6333 20.9767C13.0159 20.8158 13.5212 20.4948 14.0794 20.0946C14.6541 19.6826 15.3367 19.1486 16.0879 18.5224C17.0263 17.7402 18.1335 16.8032 19.1354 15.7956C20.1301 14.7951 21.068 13.6794 21.6302 12.5278C22.3457 11.0622 22.4215 9.54923 22.1954 8.26388C21.9718 6.99307 21.4427 5.88542 20.8662 5.2057Z" fill="#161823"/>
<path d="M3.32679 12.2725C3.32679 11.8206 2.96048 11.4543 2.50861 11.4543C2.05674 11.4543 1.69043 11.8206 1.69043 12.2725V15.7076C1.69043 16.1595 2.05674 16.5258 2.50861 16.5258C2.96048 16.5258 3.32679 16.1595 3.32679 15.7076V12.2725Z" fill="#161823"/>
<path d="M5.76423 13.0905C6.2161 13.0905 6.58241 13.4568 6.58241 13.9087V17.3439C6.58241 17.7957 6.2161 18.162 5.76423 18.162C5.31236 18.162 4.94604 17.7957 4.94604 17.3439V13.9087C4.94604 13.4568 5.31236 13.0905 5.76423 13.0905Z" fill="#161823"/>
<path d="M9.72914 12.7087C9.72914 12.2569 9.36282 11.8906 8.91096 11.8906C8.45909 11.8906 8.09277 12.2569 8.09277 12.7087V16.1439C8.09277 16.5958 8.45909 16.9621 8.91096 16.9621C9.36282 16.9621 9.72914 16.5958 9.72914 16.1439V12.7087Z" fill="#161823"/>
</svg>
