<svg width="24" height="24" viewBox="0 0 24 24" fill="none" xmlns="http://www.w3.org/2000/svg">
<path d="M14.8907 8.71429C14.8907 10.4895 13.5955 11.9286 11.9978 11.9286C10.4002 11.9286 9.10498 10.4895 9.10498 8.71429C9.10498 6.93909 10.4002 5.5 11.9978 5.5C13.5955 5.5 14.8907 6.93909 14.8907 8.71429Z" fill="#161823"/>
<path d="M12 22C17.5228 22 22 17.5228 22 12C22 6.47715 17.5228 2 12 2C6.47715 2 2 6.47715 2 12C2 17.5228 6.47715 22 12 22ZM19.0508 16.7488C18.0149 14.8527 15.2931 13.5 12 13.5C8.70697 13.5 5.98514 14.8527 4.94921 16.7488C4.0342 15.3929 3.5 13.7588 3.5 12C3.5 7.30558 7.30558 3.5 12 3.5C16.6944 3.5 20.5 7.30558 20.5 12C20.5 13.7588 19.9658 15.3929 19.0508 16.7488Z" fill="#161823"/>
</svg>
