<svg width="20" height="20" viewBox="0 0 20 20" fill="none" xmlns="http://www.w3.org/2000/svg">
<path d="M15.8123 18.3522C15.5194 18.6451 15.5194 19.1199 15.8123 19.4128C16.1052 19.7057 16.58 19.7057 16.8729 19.4128L19.7366 16.5492C20.0295 16.2563 20.0295 15.7814 19.7366 15.4885L16.8729 12.6248C16.58 12.3319 16.1052 12.3319 15.8123 12.6248C15.5194 12.9177 15.5194 13.3926 15.8123 13.6855L17.3694 15.2426H15.0123C12.9413 15.2426 11.2623 16.9215 11.2623 18.9926V19.25C11.2623 19.6642 11.5981 20 12.0123 20C12.4265 20 12.7623 19.6642 12.7623 19.25V18.9926C12.7623 17.75 13.7697 16.7426 15.0123 16.7426H17.4219L15.8123 18.3522Z" fill="#161823"/>
<path d="M13.3333 5.41667C13.3333 7.48774 11.8409 9.16667 9.99996 9.16667C8.15901 9.16667 6.66663 7.48774 6.66663 5.41667C6.66663 3.3456 8.15901 1.66667 9.99996 1.66667C11.8409 1.66667 13.3333 3.3456 13.3333 5.41667Z" fill="#161823"/>
<path d="M4.75275 11.5541C6.15542 10.6637 8.00786 10.1667 10 10.1667C11.7005 10.1667 13.2992 10.5288 14.6033 11.1887C14.7298 11.2527 14.7453 11.4257 14.6476 11.5284C14.0988 12.1049 13.8674 12.9438 14.0628 13.7266C11.752 14.1405 9.95571 16.0382 9.69496 18.3985C9.68348 18.5025 9.59694 18.5833 9.49233 18.5833H4.58333C3.29467 18.5833 2.25 17.5387 2.25 16.25V15.6061C2.25 13.8335 3.36383 12.4358 4.75275 11.5541Z" fill="#161823"/>
</svg>
