<svg width="24" height="24" viewBox="0 0 24 24" fill="none" xmlns="http://www.w3.org/2000/svg">
<path fill-rule="evenodd" clip-rule="evenodd" d="M4.92976 0.770585C4.53923 0.380061 3.90607 0.380061 3.51554 0.770585C3.12502 1.16111 3.12502 1.79427 3.51554 2.1848L21.0696 19.7388C21.4601 20.1294 22.0933 20.1294 22.4838 19.7388C22.8743 19.3483 22.8743 18.7152 22.4838 18.3246L20.8394 16.6802C21.5803 15.2838 22 13.6909 22 12C22 6.47716 17.5228 2.00001 12 2.00001C10.3091 2.00001 8.71616 2.4197 7.31976 3.16059L4.92976 0.770585ZM8.43887 4.2797L12.0495 7.89037C12.5692 7.42955 13.2447 7.13623 14.0645 7.13623C16.0752 7.13623 17.6532 8.76668 17.6532 10.9834C17.6532 11.6895 17.4841 12.3742 17.1871 13.0279L19.7203 15.5611C20.2208 14.478 20.5 13.2716 20.5 12C20.5 7.30559 16.6944 3.50001 12 3.50001C10.7284 3.50001 9.52205 3.77923 8.43887 4.2797ZM15.9496 11.7904C16.0248 11.5154 16.062 11.2461 16.062 10.9834C16.062 9.56216 15.1153 8.72751 14.0645 8.72751C13.7202 8.72751 13.4253 8.82862 13.1784 9.01927L15.9496 11.7904ZM12 22C14.3931 22 16.5899 21.1594 18.3112 19.7573L17.244 18.6901C15.7995 19.8239 13.9787 20.5 12 20.5C7.30558 20.5 3.5 16.6944 3.5 12C3.5 10.0213 4.17612 8.20051 5.30992 6.75605L4.24271 5.68884C2.84063 7.4101 2 9.60689 2 12C2 17.5229 6.47715 22 12 22ZM13.5487 14.9948L14.6784 16.1246C14.1688 16.5543 13.6081 16.966 13.008 17.3572C12.8894 17.437 12.7487 17.5225 12.6018 17.5914C12.4732 17.6517 12.2505 17.743 11.997 17.743C11.7417 17.743 11.5192 17.6505 11.3911 17.5897C11.2456 17.5206 11.1068 17.4352 10.9909 17.3571C9.6477 16.4817 8.50186 15.5032 7.68435 14.4494C6.86581 13.3942 6.34569 12.2219 6.34569 10.9834C6.34569 10.0424 6.63004 9.20709 7.11114 8.55726L8.25695 9.70308C8.05618 10.0486 7.93696 10.4791 7.93696 10.9834C7.93696 11.7628 8.26423 12.6008 8.94164 13.474C9.61901 14.3471 10.6158 15.2138 11.8646 16.0272L11.8755 16.0344C11.9214 16.0654 11.9629 16.0914 11.999 16.1124C12.0359 16.0913 12.0779 16.0652 12.1234 16.0344L12.1343 16.0272C12.6504 15.6911 13.1234 15.3458 13.5487 14.9948Z" fill="#161823"/>
</svg>
