<svg width="24" height="24" viewBox="0 0 24 24" fill="none" xmlns="http://www.w3.org/2000/svg">
<path d="M8.27758 3.58667C8.37877 3.1931 8.14175 2.79202 7.74817 2.69083C7.3546 2.58965 6.95352 2.82667 6.85233 3.22024C6.3995 4.98157 5.2192 7.00362 2.82336 7.90202C2.44286 8.0447 2.25007 8.46882 2.39275 8.84932C2.53543 9.22982 2.95955 9.42261 3.34005 9.27993C3.95825 9.04811 4.50947 8.7565 4.99964 8.42149V20.3746C4.99964 20.781 5.32906 21.1104 5.73544 21.1104C6.14181 21.1104 6.47123 20.781 6.47123 20.3746V7.10253C7.42028 6.00007 7.98497 4.7248 8.27758 3.58667Z" fill="#161823"/>
<path fill-rule="evenodd" clip-rule="evenodd" d="M11.3382 3.54233C11.3382 3.13596 11.6676 2.80653 12.074 2.80653H20.7775C21.0628 2.80653 21.3224 2.97147 21.4436 3.22975C21.5648 3.48803 21.5257 3.7931 21.3434 4.01255L17.4044 8.7535C17.7551 9.33516 18.1248 10.1225 18.4552 11.0068C18.5057 11.1418 18.5555 11.2798 18.6044 11.4205C19.3861 11.4619 20.2292 11.5461 21.1373 11.6743C21.5396 11.7311 21.8198 12.1034 21.763 12.5058C21.7061 12.9081 21.3339 13.1883 20.9315 13.1315C20.2634 13.0371 19.6409 12.9689 19.0614 12.9248C19.2385 13.6044 19.3838 14.3149 19.4781 15.0301C19.7129 16.8118 19.4269 18.3719 18.6797 19.53C17.9221 20.7041 16.7246 21.4058 15.2966 21.4859C13.7122 21.5747 12.2785 20.9813 11.3382 19.8979C10.3931 18.8089 9.99492 17.2805 10.3771 15.6048C10.7463 13.9858 11.735 12.7101 13.5446 12.0075C14.487 11.6416 15.64 11.4353 17.0295 11.3971C16.6279 10.3471 16.2042 9.54814 15.9019 9.14975C15.6951 8.87716 15.7035 8.49798 15.9221 8.2348L19.2095 4.27813H12.074C11.6676 4.27813 11.3382 3.9487 11.3382 3.54233ZM17.5186 12.8622C16.0441 12.8615 14.9203 13.052 14.0773 13.3793C12.7356 13.9003 12.0755 14.7762 11.8119 15.932C11.5262 17.1843 11.8344 18.2244 12.4496 18.9334C13.0698 19.6479 14.0504 20.0819 15.2142 20.0166C16.1747 19.9627 16.9421 19.5086 17.4431 18.7321C17.9546 17.9395 18.221 16.7541 18.0191 15.2224C17.9134 14.4204 17.7356 13.6175 17.5186 12.8622Z" fill="#161823"/>
</svg>
