<svg width="24" height="24" viewBox="0 0 24 24" fill="none" xmlns="http://www.w3.org/2000/svg">
<path d="M7.21967 11.4697C7.51256 11.1768 7.98744 11.1768 8.28033 11.4697L11.25 14.4393L11.25 7.75C11.25 7.33579 11.5858 7 12 7C12.4142 7 12.75 7.33579 12.75 7.75V14.4393L15.7197 11.4697C16.0126 11.1768 16.4874 11.1768 16.7803 11.4697C17.0732 11.7626 17.0732 12.2374 16.7803 12.5303L12.5303 16.7803C12.2374 17.0732 11.7626 17.0732 11.4697 16.7803L7.21967 12.5303C6.92678 12.2374 6.92678 11.7626 7.21967 11.4697Z" fill="#161823"/>
<path fill-rule="evenodd" clip-rule="evenodd" d="M12 2C6.47715 2 2 6.47715 2 12C2 17.5228 6.47715 22 12 22C17.5228 22 22 17.5228 22 12C22 6.47715 17.5228 2 12 2ZM12 3.5C7.30558 3.5 3.5 7.30558 3.5 12C3.5 16.6944 7.30558 20.5 12 20.5C16.6944 20.5 20.5 16.6944 20.5 12C20.5 7.30558 16.6944 3.5 12 3.5Z" fill="#161823"/>
</svg>
