<svg width="20" height="20" viewBox="0 0 20 20" fill="none" xmlns="http://www.w3.org/2000/svg">
<path d="M10.0001 6.88331C8.05364 6.88331 6.48342 8.46949 6.48342 10.4166C6.48342 12.3638 8.05364 13.95 10.0001 13.95C11.9465 13.95 13.5167 12.3638 13.5167 10.4166C13.5167 8.46949 11.9465 6.88331 10.0001 6.88331ZM7.98342 10.4166C7.98342 9.28941 8.89055 8.38331 10.0001 8.38331C11.1096 8.38331 12.0167 9.28941 12.0167 10.4166C12.0167 11.5439 11.1096 12.45 10.0001 12.45C8.89055 12.45 7.98342 11.5439 7.98342 10.4166Z" fill="#161823"/>
<path d="M13.2909 3.26376C12.9736 2.78761 12.4847 2.45245 11.9262 2.32826C10.6576 2.04618 9.34256 2.04618 8.07398 2.32826C7.51548 2.45245 7.02655 2.78761 6.70931 3.26376L6.26457 3.93127C6.07077 4.22216 5.76518 4.41982 5.42041 4.47732L4.8655 4.56986C3.29294 4.83212 2.06462 6.07122 1.81611 7.64602L1.72754 8.20732C1.44481 9.99902 1.48208 11.8267 1.8376 13.6054C2.17534 15.2951 3.42875 16.6546 5.08556 17.1283L5.35777 17.2061C8.39187 18.0735 11.6083 18.0735 14.6424 17.2061L14.9146 17.1283C16.5714 16.6546 17.8248 15.2951 18.1626 13.6054C18.5181 11.8267 18.5554 9.99902 18.2726 8.20732L18.1841 7.64602C17.9356 6.07122 16.7072 4.83212 15.1347 4.56986L14.5798 4.47732C14.235 4.41982 13.9294 4.22216 13.7356 3.93127L13.2909 3.26376ZM7.51288 4.76297L7.95762 4.09546C8.06036 3.94126 8.2187 3.83271 8.39957 3.7925C9.45371 3.5581 10.5465 3.5581 11.6006 3.7925C11.7815 3.83271 11.9398 3.94126 12.0426 4.09546L12.4873 4.76297C12.911 5.39898 13.5792 5.83117 14.333 5.95689L14.8879 6.04943C15.8236 6.20548 16.5545 6.94278 16.7024 7.87982L16.791 8.44112C17.0461 10.0576 17.0124 11.7066 16.6917 13.3114C16.464 14.4504 15.6191 15.3668 14.5023 15.6861L14.2301 15.7639C11.4655 16.5543 8.53471 16.5543 5.77009 15.7639L5.49787 15.6861C4.38106 15.3668 3.53617 14.4504 3.3085 13.3114C2.98774 11.7066 2.95413 10.0576 3.20921 8.44112L3.29778 7.87982C3.44565 6.94278 4.17653 6.20548 5.11225 6.04943L5.66715 5.95689C6.42099 5.83117 7.08913 5.39898 7.51288 4.76297Z" fill="#161823"/>
</svg>
