<svg width="24" height="24" viewBox="0 0 24 24" fill="none" xmlns="http://www.w3.org/2000/svg">
<path d="M20.9239 8.88281C20.7691 9.25648 20.4045 9.50012 20 9.50012H4.00003C3.44774 9.50012 3.00003 9.05241 3.00003 8.50012C3.00003 7.94784 3.44774 7.50012 4.00003 7.50012H17.5858L15.2929 5.20723C14.9024 4.8167 14.9024 4.18354 15.2929 3.79302C15.6834 3.40249 16.3166 3.40249 16.7071 3.79302L20.7071 7.79302C20.9931 8.07901 21.0787 8.50913 20.9239 8.88281Z" fill="#161823"/>
<path d="M3.07615 15.1172C3.23093 14.7435 3.59557 14.4999 4.00003 14.4999H20C20.5523 14.4999 21 14.9476 21 15.4999C21 16.0522 20.5523 16.4999 20 16.4999H6.41424L8.70714 18.7928C9.09766 19.1833 9.09766 19.8165 8.70714 20.207C8.31661 20.5975 7.68345 20.5975 7.29292 20.207L3.29292 16.207C3.00692 15.921 2.92137 15.4909 3.07615 15.1172Z" fill="#161823"/>
</svg>
