<svg width="20" height="20" viewBox="0 0 20 20" fill="none" xmlns="http://www.w3.org/2000/svg">
<path fill-rule="evenodd" clip-rule="evenodd" d="M6.71176 2C3.81331 2 1.5 4.3619 1.5 7.66431C1.5 9.5046 2.26727 11.2786 3.52609 12.9131C4.78394 14.5464 6.56203 16.0806 8.67171 17.4654C8.84569 17.5834 9.04497 17.7065 9.24695 17.8031C9.43193 17.8915 9.70378 18 9.99604 18C10.2866 18 10.5594 17.8926 10.7457 17.8047C10.9498 17.7083 11.1517 17.5852 11.3283 17.4654C13.438 16.0806 15.2161 14.5464 16.4739 12.9131C17.7327 11.2786 18.5 9.5046 18.5 7.66431C18.5 4.3619 16.1867 2 13.2882 2C11.8938 2 10.7897 2.59494 10 3.50041C9.21301 2.59281 8.10323 2 6.71176 2ZM3.02827 7.66431C3.02827 5.13146 4.73524 3.53942 6.71176 3.53942C7.79205 3.53942 8.617 4.06953 9.16406 4.93819L8.11112 8.14038C7.96032 8.59898 8.05291 9.10341 8.35652 9.47739L10.484 12.0979L9.33632 16.0633C7.39741 14.7713 5.82428 13.3857 4.7336 11.9695C3.61032 10.511 3.02827 9.0605 3.02827 7.66431ZM10.9926 15.8407C12.7809 14.6127 14.2381 13.3047 15.2664 11.9695C16.3897 10.511 16.9717 9.0605 16.9717 7.66431C16.9717 5.13146 15.2648 3.53942 13.2882 3.53942C12.1271 3.53942 11.2635 4.15236 10.7038 5.15157L9.5839 8.55745L11.7095 11.1756C12.0017 11.5356 12.0992 12.0174 11.97 12.4639L10.9926 15.8407Z" fill="#161823"/>
</svg>
