<svg width="20" height="20" viewBox="0 0 20 20" fill="none" xmlns="http://www.w3.org/2000/svg">
<path fill-rule="evenodd" clip-rule="evenodd" d="M4.37422 1.82483C2.96589 1.82483 1.82422 2.9665 1.82422 4.37483V6.62483C1.82422 8.03315 2.96589 9.17483 4.37422 9.17483H6.62422C8.03254 9.17483 9.17422 8.03316 9.17422 6.62483V4.37483C9.17422 2.9665 8.03255 1.82483 6.62422 1.82483H4.37422ZM3.32422 4.37483C3.32422 3.79493 3.79432 3.32483 4.37422 3.32483H6.62422C7.20412 3.32483 7.67422 3.79493 7.67422 4.37483V6.62483C7.67422 7.20473 7.20412 7.67483 6.62422 7.67483H4.37422C3.79432 7.67483 3.32422 7.20473 3.32422 6.62483V4.37483ZM13.3742 1.82483C11.9659 1.82483 10.8242 2.9665 10.8242 4.37483V6.62483C10.8242 8.03315 11.9659 9.17483 13.3742 9.17483H15.6242C17.0325 9.17483 18.1742 8.03316 18.1742 6.62483V4.37483C18.1742 2.9665 17.0325 1.82483 15.6242 1.82483H13.3742ZM12.3242 4.37483C12.3242 3.79493 12.7943 3.32483 13.3742 3.32483H15.6242C16.2041 3.32483 16.6742 3.79493 16.6742 4.37483V6.62483C16.6742 7.20473 16.2041 7.67483 15.6242 7.67483H13.3742C12.7943 7.67483 12.3242 7.20473 12.3242 6.62483V4.37483ZM1.82422 13.3748C1.82422 11.9665 2.96589 10.8248 4.37422 10.8248H6.62422C8.03255 10.8248 9.17422 11.9665 9.17422 13.3748V15.6248C9.17422 17.0332 8.03254 18.1748 6.62422 18.1748H4.37422C2.96589 18.1748 1.82422 17.0332 1.82422 15.6248V13.3748ZM4.37422 12.3248C3.79432 12.3248 3.32422 12.7949 3.32422 13.3748V15.6248C3.32422 16.2047 3.79432 16.6748 4.37422 16.6748H6.62422C7.20412 16.6748 7.67422 16.2047 7.67422 15.6248V13.3748C7.67422 12.7949 7.20412 12.3248 6.62422 12.3248H4.37422ZM12.5493 11.7998C12.5493 11.3856 12.2135 11.0498 11.7993 11.0498C11.3851 11.0498 11.0493 11.3856 11.0493 11.7998V13.1498C11.0493 13.564 11.3851 13.8998 11.7993 13.8998C12.2135 13.8998 12.5493 13.564 12.5493 13.1498V11.7998ZM12.5493 15.8498C12.5493 15.4356 12.2135 15.0998 11.7993 15.0998C11.3851 15.0998 11.0493 15.4356 11.0493 15.8498V17.1998C11.0493 17.614 11.3851 17.9498 11.7993 17.9498C12.2135 17.9498 12.5493 17.614 12.5493 17.1998V15.8498ZM17.1992 11.0498C17.6134 11.0498 17.9492 11.3856 17.9492 11.7998V13.1498C17.9492 13.564 17.6134 13.8998 17.1992 13.8998C16.785 13.8998 16.4492 13.564 16.4492 13.1498V11.7998C16.4492 11.3856 16.785 11.0498 17.1992 11.0498ZM17.1992 15.0998C17.6134 15.0998 17.9492 15.4356 17.9492 15.8498V17.1998C17.9492 17.614 17.6134 17.9498 17.1992 17.9498C16.785 17.9498 16.4492 17.614 16.4492 17.1998V15.8498C16.4492 15.4356 16.785 15.0998 17.1992 15.0998ZM15.2493 11.7998C15.2493 11.3856 14.9135 11.0498 14.4993 11.0498C14.0851 11.0498 13.7493 11.3856 13.7493 11.7998V17.1998C13.7493 17.614 14.0851 17.9498 14.4993 17.9498C14.9135 17.9498 15.2493 17.614 15.2493 17.1998V11.7998Z" fill="#161823"/>
</svg>
