<svg width="16" height="16" viewBox="0 0 16 16" fill="none" xmlns="http://www.w3.org/2000/svg">
<path d="M9.8056 2.47904L9.04289 3.24175C8.85338 3.43124 8.68988 3.59474 8.56648 3.74049C8.43619 3.89438 8.32102 4.06168 8.2559 4.26757C8.16281 4.56193 8.16281 4.87783 8.2559 5.17219C8.32102 5.37808 8.43619 5.54538 8.56648 5.69927C8.68988 5.84503 8.85338 6.00851 9.04289 6.19802L9.8056 6.96072C9.99511 7.15024 10.1586 7.31374 10.3044 7.43714C10.4582 7.56743 10.6255 7.6826 10.8314 7.74772C11.1258 7.84081 11.4417 7.84081 11.736 7.74772C11.9419 7.6826 12.1092 7.56743 12.2631 7.43714C12.4089 7.31374 12.5724 7.15026 12.7618 6.96075L13.5246 6.19801C13.7141 6.00852 13.8776 5.84502 14.001 5.69927C14.1313 5.54538 14.2465 5.37808 14.3116 5.17219C14.4047 4.87783 14.4047 4.56193 14.3116 4.26757C14.2465 4.06168 14.1313 3.89438 14.001 3.74049C13.8776 3.59475 13.7141 3.43129 13.5246 3.24181L12.7619 2.47903C12.5724 2.28952 12.4089 2.12602 12.2631 2.00262C12.1092 1.87233 11.9419 1.75716 11.736 1.69204C11.4417 1.59895 11.1258 1.59895 10.8314 1.69204C10.6255 1.75716 10.4582 1.87233 10.3044 2.00262C10.1586 2.12603 9.99511 2.28952 9.8056 2.47904Z" fill="#161823"/>
<path d="M5.27255 2.08359H4.19392C3.9259 2.08358 3.6947 2.08357 3.50437 2.09938C3.30342 2.11607 3.10369 2.15292 2.91206 2.25247C2.63809 2.39478 2.41471 2.61816 2.2724 2.89213C2.17285 3.08376 2.13599 3.2835 2.11931 3.48444C2.1035 3.67476 2.10351 3.90596 2.10352 4.17395V5.25262C2.10351 5.52062 2.1035 5.75184 2.11931 5.94217C2.13599 6.14311 2.17285 6.34285 2.2724 6.53448C2.41471 6.80845 2.63809 7.03183 2.91206 7.17414C3.10369 7.27368 3.30342 7.31054 3.50437 7.32723C3.6947 7.34304 3.9259 7.34303 4.19391 7.34302H5.27256C5.54056 7.34303 5.77176 7.34304 5.9621 7.32723C6.16304 7.31054 6.36277 7.27368 6.55441 7.17414C6.82837 7.03183 7.05175 6.80845 7.19407 6.53448C7.29361 6.34285 7.33047 6.14311 7.34716 5.94217C7.36296 5.75184 7.36296 5.52064 7.36295 5.25263V4.17398C7.36296 3.90597 7.36296 3.67477 7.34716 3.48444C7.33047 3.2835 7.29361 3.08376 7.19407 2.89213C7.05175 2.61816 6.82837 2.39478 6.55441 2.25247C6.36277 2.15292 6.16304 2.11607 5.9621 2.09938C5.77176 2.08357 5.54056 2.08358 5.27255 2.08359Z" fill="#161823"/>
<path d="M11.8255 8.63651H10.7469C10.4789 8.6365 10.2477 8.63649 10.0573 8.6523C9.8564 8.66898 9.65667 8.70584 9.46503 8.80539C9.19107 8.9477 8.96769 9.17108 8.82538 9.44505C8.72583 9.63668 8.68897 9.83642 8.67228 10.0374C8.65648 10.2277 8.65649 10.4589 8.6565 10.7269V11.8055C8.65649 12.0735 8.65648 12.3048 8.67228 12.4951C8.68897 12.696 8.72583 12.8958 8.82538 13.0874C8.96769 13.3614 9.19107 13.5847 9.46503 13.7271C9.65667 13.8266 9.8564 13.8635 10.0573 13.8801C10.2477 13.896 10.4789 13.8959 10.7469 13.8959H11.8255C12.0935 13.8959 12.3247 13.896 12.5151 13.8801C12.716 13.8635 12.9158 13.8266 13.1074 13.7271C13.3814 13.5847 13.6047 13.3614 13.747 13.0874C13.8466 12.8958 13.8834 12.696 13.9001 12.4951C13.9159 12.3048 13.9159 12.0736 13.9159 11.8056V10.7269C13.9159 10.4589 13.9159 10.2277 13.9001 10.0374C13.8834 9.83642 13.8466 9.63668 13.747 9.44505C13.6047 9.17108 13.3814 8.9477 13.1074 8.80539C12.9158 8.70584 12.716 8.66898 12.5151 8.6523C12.3247 8.63649 12.0935 8.6365 11.8255 8.63651Z" fill="#161823"/>
<path d="M5.27255 8.63651H4.19392C3.92591 8.6365 3.6947 8.63649 3.50437 8.6523C3.30342 8.66898 3.10369 8.70584 2.91206 8.80539C2.63809 8.9477 2.41471 9.17108 2.2724 9.44505C2.17285 9.63668 2.13599 9.83642 2.11931 10.0374C2.1035 10.2277 2.10351 10.4589 2.10352 10.7269V11.8055C2.10351 12.0735 2.1035 12.3048 2.11931 12.4951C2.13599 12.696 2.17285 12.8958 2.2724 13.0874C2.41471 13.3614 2.63809 13.5847 2.91206 13.7271C3.10369 13.8266 3.30342 13.8635 3.50437 13.8801C3.6947 13.896 3.9259 13.8959 4.19391 13.8959H5.27256C5.54056 13.8959 5.77177 13.896 5.9621 13.8801C6.16304 13.8635 6.36277 13.8266 6.55441 13.7271C6.82837 13.5847 7.05175 13.3614 7.19407 13.0874C7.29361 12.8958 7.33047 12.696 7.34716 12.4951C7.36296 12.3048 7.36296 12.0736 7.36295 11.8055V10.7269C7.36296 10.4589 7.36296 10.2277 7.34716 10.0374C7.33047 9.83642 7.29361 9.63668 7.19407 9.44505C7.05175 9.17108 6.82837 8.9477 6.55441 8.80539C6.36277 8.70584 6.16304 8.66898 5.9621 8.6523C5.77177 8.63649 5.54055 8.6365 5.27255 8.63651Z" fill="#161823"/>
</svg>
