<svg width="24" height="24" viewBox="0 0 24 24" fill="none" xmlns="http://www.w3.org/2000/svg">
<path d="M2.51172 6.06972C2.51172 4.62866 3.67993 3.46045 5.12099 3.46045H9.49612C10.1881 3.46045 10.8518 3.73535 11.3411 4.22469L12.1847 5.06828C12.6741 5.55761 13.3377 5.83251 14.0298 5.83251H18.879C20.32 5.83251 21.4882 7.00072 21.4882 8.44178V17.93C21.4882 19.3711 20.32 20.5393 18.879 20.5393H5.12099C3.67993 20.5393 2.51172 19.3711 2.51172 17.93V6.06972ZM11.5354 9.24414L10.6666 11.5676C10.6635 11.5758 10.6559 11.5813 10.6473 11.5816L8.16902 11.6899C7.71071 11.71 7.5229 12.288 7.88191 12.5736L9.82322 14.1179C9.82999 14.1233 9.83289 14.1322 9.83058 14.1405L9.16774 16.531C9.04516 16.973 9.53687 17.3303 9.91941 17.0771L11.988 15.708C11.9952 15.7032 12.0046 15.7032 12.0118 15.708L14.0804 17.0771C14.463 17.3303 14.9547 16.973 14.8321 16.531L14.1693 14.1405C14.167 14.1322 14.1699 14.1233 14.1766 14.1179L16.118 12.5736C16.477 12.288 16.2891 11.71 15.8308 11.6899L13.3526 11.5816C13.3439 11.5813 13.3363 11.5758 13.3333 11.5676L12.4645 9.24414C12.3038 8.81445 11.696 8.81445 11.5354 9.24414Z" fill="#161823"/>
</svg>
