<svg width="24" height="24" viewBox="0 0 24 24" fill="none" xmlns="http://www.w3.org/2000/svg">
<path d="M12 2C6.47715 2 2 6.47715 2 12C2 17.5228 6.47715 22 12 22C12.4573 22 12.9075 21.9693 13.3485 21.9098C13.2846 21.7012 13.2502 21.4796 13.2502 21.25C13.2503 20.0074 14.2576 19 15.5003 19L16.504 19C16.5 19 16.504 18.4748 16.504 18.2545C16.504 17.1851 17.25 16.29 18.2501 16.0612C18.2501 15.9133 18.2501 15.5073 18.2501 15.25C18.2501 14.0074 19.2574 13 20.5001 13H21.9506C21.9833 12.6711 22 12.3375 22 12C22 6.47715 17.5228 2 12 2ZM15.9416 12.7434L10.8472 16.2195C10.2498 16.6271 9.43994 16.1993 9.43994 15.4761V8.52395C9.43994 7.80072 10.2498 7.37289 10.8472 7.78051L15.9416 11.2566C16.4653 11.6139 16.4653 12.3861 15.9416 12.7434Z" fill="#161823"/>
<path d="M14.7503 21.25C14.7503 20.8358 15.0861 20.5 15.5003 20.5L23.0002 20.5001C23.4144 20.5001 23.7502 20.8359 23.7502 21.2501C23.7502 21.6643 23.4144 22.0001 23.0002 22.0001L15.5003 22C15.0861 22 14.7503 21.6642 14.7503 21.25Z" fill="#161823"/>
<path d="M19.7501 15.25C19.7501 14.8358 20.0859 14.5 20.5001 14.5H23.0001C23.4143 14.5 23.7501 14.8358 23.7501 15.25C23.7501 15.6642 23.4143 16 23.0001 16H20.5001C20.0859 16 19.7501 15.6642 19.7501 15.25Z" fill="#161823"/>
<path d="M18.004 18.2545C18.004 17.8403 18.3398 17.5045 18.754 17.5045L23.0002 17.5045C23.4144 17.5045 23.7502 17.8403 23.7502 18.2545C23.7502 18.6687 23.4144 19.0045 23.0002 19.0045L18.754 19.0045C18.3398 19.0045 18.004 18.6687 18.004 18.2545Z" fill="#161823"/>
</svg>
