<svg width="16" height="16" viewBox="0 0 16 16" fill="none" xmlns="http://www.w3.org/2000/svg">
<path fill-rule="evenodd" clip-rule="evenodd" d="M15.0014 6.32732C15.0014 6.80463 14.8111 7.26233 14.4726 7.59943L11.454 10.6054L14.4244 13.5757C14.6587 13.8101 14.6587 14.1899 14.4244 14.4243C14.1901 14.6586 13.8102 14.6586 13.5759 14.4243L10.6037 11.4521L10.6022 11.4535L4.55908 5.41038L4.56053 5.40893L1.57586 2.42426C1.34154 2.18995 1.34154 1.81005 1.57586 1.57574C1.81017 1.34142 2.19007 1.34142 2.42439 1.57574L5.41066 4.56201L8.4687 1.51548C8.80617 1.17929 9.26345 0.990479 9.74022 0.990479H13.2014C14.1955 0.990479 15.0014 1.79495 15.0014 2.78731L15.0014 6.32732ZM11.3801 5.77172C12.0166 5.77172 12.5326 5.25575 12.5326 4.61926C12.5326 3.98277 12.0166 3.4668 11.3801 3.4668C10.7436 3.4668 10.2277 3.98277 10.2277 4.61926C10.2277 5.25575 10.7436 5.77172 11.3801 5.77172Z" fill="#161823"/>
<path d="M3.70895 6.2573L9.75193 12.3003L7.66515 14.3783C6.8457 15.1943 5.51932 15.1946 4.69954 14.3789L1.61651 11.3113C0.793552 10.4924 0.793141 9.16212 1.6156 8.34277L3.70895 6.2573Z" fill="#161823"/>
</svg>
