<svg width="16" height="16" viewBox="0 0 16 16" fill="none" xmlns="http://www.w3.org/2000/svg">
<path d="M8.93482 2.03721C8.50475 1.34274 7.4945 1.34274 7.06443 2.03721L4.51897 6.1476L2.01261 4.81834C1.13708 4.35399 0.142183 5.1934 0.45254 6.1346L2.84864 13.4011C3.06491 14.0569 3.67757 14.5 4.36816 14.5H11.6311C12.3217 14.5 12.9343 14.0569 13.1506 13.4011L15.5467 6.1346C15.8571 5.1934 14.8622 4.35399 13.9866 4.81834L11.4803 6.1476L8.93482 2.03721ZM5.48994 6.85891L7.99962 2.80629L10.5093 6.85891C10.8141 7.35117 11.4484 7.52284 11.9599 7.25156L14.3292 5.99499L13.0085 10H2.9907L1.67006 5.99499L4.03935 7.25156C4.55086 7.52284 5.1851 7.35116 5.48994 6.85891ZM3.3864 11.2H12.6128L12.011 13.0253C11.9569 13.1892 11.8037 13.3 11.6311 13.3H4.36816C4.19551 13.3 4.04235 13.1892 3.98828 13.0253L3.3864 11.2Z" fill="#161823"/>
</svg>
