<svg width="24" height="24" viewBox="0 0 24 24" fill="none" xmlns="http://www.w3.org/2000/svg">
<path d="M11.7961 2.27935C11.9319 2.2402 12.076 2.24022 12.2118 2.2794L20.2079 4.58673C20.529 4.67936 20.75 4.9732 20.75 5.30733V10.0391C20.75 15.3413 17.3153 20.0405 12.2356 21.7124C12.0834 21.7625 11.919 21.7625 11.7668 21.7124C6.68578 20.0406 3.25 15.3404 3.25 10.0369V5.30733C3.25 4.97313 3.47113 4.67925 3.79225 4.58667L11.7961 2.27935ZM4.75 5.87166V10.0369C4.75 14.6011 7.65568 18.6698 12.0011 20.2075C16.3453 18.6698 19.25 14.6021 19.25 10.0391V5.87151L12.0037 3.78057L4.75 5.87166Z" fill="#161823"/>
</svg>
