<svg width="24" height="24" viewBox="0 0 24 24" fill="none" xmlns="http://www.w3.org/2000/svg">
<path d="M12.7034 8.61808C12.4508 7.12439 11.7753 5.73068 10.6661 4.62153C8.93281 2.88819 6.50451 2.21397 4.0857 2.55745C3.12717 2.69356 2.37423 3.44651 2.23811 4.40504C1.89464 6.82385 2.56885 9.25215 4.30219 10.9855C6.03553 12.7188 8.46383 13.393 10.8826 13.0496C11.0075 13.0318 11.1289 13.0036 11.2459 12.9659C11.2411 13.1523 11.2426 13.3395 11.2502 13.5272V20.5041H8.74988C8.33567 20.5041 7.99988 20.8399 7.99988 21.2541C7.99988 21.6683 8.33567 22.0041 8.74988 22.0041H15.2505C15.6647 22.0041 16.0005 21.6683 16.0005 21.2541C16.0005 20.8399 15.6647 20.5041 15.2505 20.5041H12.7502V16.1406C12.8868 16.1894 13.0297 16.2251 13.1775 16.2461C15.5963 16.5896 18.0246 15.9154 19.7579 14.182C21.4913 12.4487 22.1655 10.0204 21.822 7.60157C21.6859 6.64304 20.933 5.89009 19.9744 5.75398C17.5556 5.4105 15.1273 6.08471 13.394 7.81805C13.1413 8.07069 12.9112 8.33809 12.7034 8.61808ZM3.72321 4.61593C3.76547 4.31836 3.99903 4.0848 4.29659 4.04255C6.30996 3.75665 8.24734 4.32403 9.60549 5.68219C10.9372 7.01392 11.5087 8.90257 11.2608 10.8737C11.2576 10.8928 11.2551 10.9121 11.2533 10.9317C11.2507 10.9515 11.2479 10.9713 11.2451 10.9911C11.2029 11.2886 10.9693 11.5222 10.6718 11.5645C8.65838 11.8504 6.721 11.283 5.36285 9.92483C4.0047 8.56668 3.43731 6.62929 3.72321 4.61593ZM14.4546 8.87871C15.8128 7.52056 17.7502 6.95318 19.7635 7.23908C20.0611 7.28133 20.2947 7.51489 20.3369 7.81245C20.6228 9.82582 20.0554 11.7632 18.6973 13.1214C17.3391 14.4795 15.4018 15.0469 13.3884 14.761C13.0908 14.7187 12.8573 14.4852 12.815 14.1876C12.7822 13.9569 12.7607 13.7271 12.7502 13.4991V12.8599C12.8209 11.3404 13.3988 9.93454 14.4546 8.87871Z" fill="#161823"/>
</svg>
