<svg width="24" height="24" viewBox="0 0 24 24" fill="none" xmlns="http://www.w3.org/2000/svg">
<path d="M2.99609 6C2.99609 5.58579 3.33188 5.25 3.74609 5.25H20.2539C20.6681 5.25 21.0039 5.58579 21.0039 6C21.0039 6.41421 20.6681 6.75 20.2539 6.75H3.74609C3.33188 6.75 2.99609 6.41421 2.99609 6Z" fill="#161823"/>
<path d="M2.99609 12C2.99609 11.5858 3.33188 11.25 3.74609 11.25H20.2539C20.6681 11.25 21.0039 11.5858 21.0039 12C21.0039 12.4142 20.6681 12.75 20.2539 12.75H3.74609C3.33188 12.75 2.99609 12.4142 2.99609 12Z" fill="#161823"/>
<path d="M10.5 17.25C10.0858 17.25 9.75 17.5858 9.75 18C9.75 18.4142 10.0858 18.75 10.5 18.75L20.2525 18.75C20.6667 18.75 21.0025 18.4142 21.0025 18C21.0025 17.5858 20.6667 17.25 20.2525 17.25L10.5 17.25Z" fill="#161823"/>
<path d="M4.5145 15.3425C4.20556 15.1571 3.82081 15.1522 3.5073 15.3298C3.19379 15.5073 3 15.8397 3 16.2V19.8C3 20.1602 3.19379 20.4926 3.5073 20.6702C3.82081 20.8477 4.20556 20.8428 4.5145 20.6574L7.5145 18.8574C7.8157 18.6767 8 18.3512 8 18C8 17.6487 7.8157 17.3232 7.5145 17.1425L4.5145 15.3425Z" fill="#161823"/>
</svg>
