<svg width="24" height="24" viewBox="0 0 24 24" fill="none" xmlns="http://www.w3.org/2000/svg">
<path d="M11.9996 22.0002L12.0005 22.0009L12.0014 22.0002C17.5236 21.9994 22 17.5226 22 12.0002C22 6.47801 17.5239 2.00128 12.002 2.00018L12.0005 1.99902L11.9989 2.00018C6.72895 2.00073 2.41134 6.07785 2.02772 11.2499H2.00049V11.9003C2.00016 11.9336 2 11.9669 2 12.0002C2 12.0335 2.00016 12.0668 2.00049 12.1V12.7499H2.02768C2.41108 17.9225 6.72914 22 11.9996 22.0002ZM15.4753 12.7499C15.2819 15.6246 13.9848 18.1967 12.0005 20.0468C10.0162 18.1967 8.71905 15.6246 8.52563 12.7499H15.4753ZM16.9784 12.7499H20.4674C20.1421 16.4725 17.4173 19.5072 13.8485 20.2986C15.6544 18.2658 16.8073 15.64 16.9784 12.7499ZM10.1527 20.2989C6.58337 19.5079 3.85798 16.4729 3.53261 12.7499H7.02262C7.19365 15.6401 8.34667 18.2661 10.1527 20.2989ZM8.52563 11.2499C8.71905 8.37523 10.0162 5.80314 12.0005 3.95306C13.9848 5.80314 15.2819 8.37523 15.4753 11.2499H8.52563ZM7.02262 11.2499H3.53266C3.8582 7.52741 6.58325 4.49276 10.1522 3.7016C8.34644 5.73433 7.19363 8.36006 7.02262 11.2499ZM13.849 3.70187C17.4174 4.49344 20.1418 7.52783 20.4673 11.2499H16.9784C16.8074 8.36019 15.6546 5.73456 13.849 3.70187Z" fill="#161823"/>
</svg>
