<svg width="24" height="24" viewBox="0 0 24 24" fill="none" xmlns="http://www.w3.org/2000/svg">
<path d="M11.9997 2.12402C8.03862 2.12402 4.62346 4.45608 3.04992 7.81941C2.81423 8.27433 2.65386 8.86639 2.57945 9.4477C2.50443 10.0338 2.50822 10.6756 2.65366 11.2184C3.27457 13.5357 5.70909 14.2057 7.74104 13.6619C8.6422 13.4261 9.57014 13.9618 9.80945 14.8549C10.044 15.7301 9.48705 16.6885 8.60903 16.9237L8.60636 16.9245C7.41516 17.2493 6.70952 18.4763 7.0294 19.6701C7.20937 20.3417 7.67654 20.8603 8.26103 21.1288L8.27361 21.1346L8.28643 21.1398C9.4308 21.6052 10.6811 21.8757 11.9997 21.8757C17.454 21.8757 21.8756 17.4541 21.8756 11.9998C21.8756 6.54558 17.454 2.12402 11.9997 2.12402ZM10.4995 6.95484C10.4995 7.6452 9.93989 8.20484 9.24954 8.20484C8.55918 8.20484 7.99954 7.6452 7.99954 6.95484C7.99954 6.26449 8.55918 5.70484 9.24954 5.70484C9.93989 5.70484 10.4995 6.26449 10.4995 6.95484ZM13.2495 7.63868C12.5592 7.63868 11.9995 7.07904 11.9995 6.38868C11.9995 5.69833 12.5592 5.13868 13.2495 5.13868C13.9399 5.13868 14.4995 5.69833 14.4995 6.38868C14.4995 7.07904 13.9399 7.63868 13.2495 7.63868ZM17.8643 8.5818C17.8643 9.27215 17.3046 9.8318 16.6143 9.8318C15.9239 9.8318 15.3643 9.27215 15.3643 8.5818C15.3643 7.89144 15.9239 7.3318 16.6143 7.3318C17.3046 7.3318 17.8643 7.89144 17.8643 8.5818ZM17.7364 13.6777C17.046 13.6777 16.4864 13.1181 16.4864 12.4277C16.4864 11.7374 17.046 11.1777 17.7364 11.1777C18.4267 11.1777 18.9864 11.7374 18.9864 12.4277C18.9864 13.1181 18.4267 13.6777 17.7364 13.6777Z" fill="#161823"/>
</svg>
