<svg width="24" height="24" viewBox="0 0 24 24" fill="none" xmlns="http://www.w3.org/2000/svg">
<path d="M12.7669 6.06033C13.1184 5.70885 13.6883 5.70885 14.0397 6.06033C14.8197 6.84034 15.4385 7.76635 15.8606 8.78548C16.2828 9.80462 16.5 10.8969 16.5 12C16.5 13.1031 16.2828 14.1954 15.8606 15.2146C15.4385 16.2337 14.8197 17.1597 14.0397 17.9397C13.6883 18.2912 13.1184 18.2912 12.7669 17.9397C12.4155 17.5883 12.4155 17.0184 12.7669 16.6669C13.3798 16.0541 13.866 15.3265 14.1976 14.5257C14.5293 13.725 14.7 12.8667 14.7 12C14.7 11.1333 14.5293 10.2751 14.1976 9.47431C13.866 8.67356 13.3798 7.94599 12.7669 7.33312C12.4155 6.98165 12.4155 6.4118 12.7669 6.06033Z" fill="#161823"/>
<path d="M11.5649 8.53518C11.2134 8.18371 10.6436 8.18371 10.2921 8.53518C9.94061 8.88665 9.94061 9.4565 10.2921 9.80797C10.5799 10.0958 10.8083 10.4376 10.9641 10.8137C11.1199 11.1898 11.2001 11.5929 11.2001 12C11.2001 12.4071 11.1199 12.8102 10.9641 13.1863C10.8083 13.5624 10.5799 13.9042 10.2921 14.192C9.94061 14.5435 9.94061 15.1134 10.2921 15.4648C10.6436 15.8163 11.2134 15.8163 11.5649 15.4648C12.0199 15.0098 12.3808 14.4696 12.6271 13.8752C12.8733 13.2807 13.0001 12.6435 13.0001 12C13.0001 11.3565 12.8733 10.7194 12.6271 10.1249C12.3808 9.53036 12.0199 8.99019 11.5649 8.53518Z" fill="#161823"/>
<path d="M8.30073 13.2993C9.01829 13.2993 9.59999 12.7176 9.59999 12C9.59999 11.2824 9.01829 10.7007 8.30073 10.7007C7.58316 10.7007 7.00146 11.2824 7.00146 12C7.00146 12.7176 7.58316 13.2993 8.30073 13.2993Z" fill="#161823"/>
<path d="M22 12C22 6.47715 17.5228 2 12 2C6.47715 2 2 6.47715 2 12C2 17.5228 6.47715 22 12 22C17.5228 22 22 17.5228 22 12ZM20.5 12C20.5 16.6944 16.6944 20.5 12 20.5C7.30558 20.5 3.5 16.6944 3.5 12C3.5 7.30558 7.30558 3.5 12 3.5C16.6944 3.5 20.5 7.30558 20.5 12Z" fill="#161823"/>
</svg>
