<svg width="20" height="20" viewBox="0 0 20 20" fill="none" xmlns="http://www.w3.org/2000/svg">
<path d="M15.9587 3.5499C15.9587 2.35111 14.6781 1.58716 13.6232 2.1566L10.3036 3.94855C9.68335 4.28334 8.9896 4.45863 8.28478 4.45863H3.95866C2.62397 4.45863 1.54199 5.54061 1.54199 6.8753V10.6304C1.54199 11.817 2.39722 12.8039 3.52491 13.0082L6.19667 17.6359C6.86199 18.7882 8.33553 19.1831 9.48791 18.5178C10.6403 17.8524 11.0351 16.3789 10.3698 15.2265L9.16464 13.1391C9.56085 13.223 9.94453 13.3633 10.3036 13.5572L13.6232 15.3491C14.6781 15.9185 15.9587 15.1546 15.9587 13.9558V12.0015C17.4384 11.6612 18.542 10.3359 18.542 8.75285C18.542 7.16979 17.4384 5.84448 15.9587 5.50423V3.5499ZM15.9587 7.07946C16.5972 7.36612 17.042 8.00755 17.042 8.75285C17.042 9.49817 16.5972 10.1396 15.9587 10.4263V7.07946ZM7.37943 13.0471L9.07075 15.9765C9.32186 16.4115 9.17284 16.9676 8.73791 17.2187C8.30297 17.4698 7.74682 17.3208 7.49571 16.8859L5.27937 13.0471H7.37943ZM14.3357 3.47657C14.3544 3.46649 14.3674 3.46508 14.3771 3.46545C14.3889 3.46591 14.4035 3.46965 14.418 3.47834C14.4326 3.48703 14.4428 3.49805 14.4488 3.50824C14.4537 3.51659 14.4587 3.52869 14.4587 3.5499V13.9558C14.4587 13.977 14.4537 13.9891 14.4488 13.9975C14.4428 14.0077 14.4326 14.0187 14.418 14.0274C14.4035 14.0361 14.3889 14.0398 14.3771 14.0402C14.3674 14.0406 14.3544 14.0392 14.3357 14.0291L11.0161 12.2372C10.177 11.7842 9.23835 11.5471 8.28477 11.5471H3.95866C3.4524 11.5471 3.04199 11.1367 3.04199 10.6304V6.8753C3.04199 6.36904 3.4524 5.95863 3.95866 5.95863H8.28478C9.23836 5.95863 10.177 5.72148 11.0161 5.26851L14.3357 3.47657Z" fill="#161823"/>
</svg>
