<svg width="24" height="24" viewBox="0 0 24 24" fill="none" xmlns="http://www.w3.org/2000/svg">
<path fill-rule="evenodd" clip-rule="evenodd" d="M22 12C22 17.5228 17.5228 22 12 22C6.47715 22 2 17.5228 2 12C2 6.47715 6.47715 2 12 2C17.5228 2 22 6.47715 22 12ZM17.2618 18.676C15.8145 19.8183 13.9869 20.5 12 20.5C7.30558 20.5 3.5 16.6944 3.5 12C3.5 10.0131 4.1817 8.18548 5.32397 6.73819L17.2618 18.676ZM18.676 17.2618L6.73819 5.32397C8.18548 4.1817 10.0131 3.5 12 3.5C16.6944 3.5 20.5 7.30558 20.5 12C20.5 13.9869 19.8183 15.8145 18.676 17.2618Z" fill="#161823"/>
</svg>
