<svg width="16" height="16" viewBox="0 0 16 16" fill="none" xmlns="http://www.w3.org/2000/svg">
<path d="M11.6313 14.2515C11.7666 14.2515 11.9182 14.2434 12.0753 14.2145C13.1082 14.0242 13.8482 13.5226 14.3164 12.8172C14.7731 12.1291 14.9359 11.3014 14.9359 10.4999V4.54943C14.9359 4.29461 14.9751 4.0413 15.0521 3.79839L15.3512 2.8547C15.5794 2.13438 15.0417 1.3999 14.2861 1.3999H6.7268C3.95077 1.3999 1.70035 3.65032 1.70035 6.42636V7.99365C1.70035 8.05665 1.7579 8.10396 1.81971 8.09176L2.81971 7.89441C2.86657 7.88516 2.90035 7.84406 2.90035 7.7963V6.42636C2.90035 4.31306 4.61351 2.5999 6.7268 2.5999H14.1731L13.9082 3.43586C13.794 3.79603 13.7359 4.17161 13.7359 4.54943V10.4999C13.7359 11.1538 13.6011 11.7249 13.3166 12.1536C13.0435 12.5649 12.5988 12.8978 11.8579 13.0343C11.7946 13.046 11.7209 13.0515 11.632 13.0515L7.24634 13.0525C7.20634 13.0525 7.1702 13.0763 7.15445 13.1131L6.74011 14.0798C6.71194 14.1456 6.75985 14.2188 6.83135 14.2192L11.6313 14.2515Z" fill="#161823"/>
<path d="M7.6109 5.19292C7.6109 4.68721 8.02086 4.27725 8.52657 4.27725C9.03228 4.27725 9.44225 4.68721 9.44225 5.19292V6.34269C9.44225 6.8484 9.03228 7.25836 8.52657 7.25836C8.02086 7.25836 7.6109 6.8484 7.6109 6.34269V5.19292Z" fill="#161823"/>
<path d="M10.8572 5.51909C10.8572 5.01338 11.2671 4.60342 11.7729 4.60342C12.2786 4.60342 12.6885 5.01338 12.6885 5.51909V6.35053C12.6885 6.85625 12.2786 7.26621 11.7729 7.26621C11.2671 7.26621 10.8572 6.85625 10.8572 6.35053V5.51909Z" fill="#161823"/>
<path fill-rule="evenodd" clip-rule="evenodd" d="M6.45383 8.09457C7.32152 7.92333 8.02626 8.79416 7.67787 9.60707L5.51073 14.6637C5.12977 15.5526 3.8696 15.5526 3.48862 14.6637L2.5203 12.4044L0.614615 11.1748C-0.216676 10.6384 0.0274359 9.36283 0.998031 9.17128L6.45383 8.09457ZM6.50024 9.30856L1.47322 10.3006L2.95494 11.2567L3.3395 10.9362C3.59407 10.7241 3.97241 10.7585 4.18455 11.0131C4.39669 11.2676 4.36229 11.646 4.10773 11.8581L3.72753 12.1749L4.49967 13.9765L6.50024 9.30856Z" fill="#161823"/>
</svg>
