<svg width="20" height="20" viewBox="0 0 20 20" fill="none" xmlns="http://www.w3.org/2000/svg">
<path d="M3.95866 4.91512C3.03818 4.91512 2.29199 5.66131 2.29199 6.58179V10.7846C2.29199 11.7051 3.03818 12.4513 3.95866 12.4513H8.21532C9.08861 12.4513 9.94667 12.68 10.7041 13.1147L13.5861 14.7687C14.3083 15.1832 15.2087 14.6618 15.2087 13.8291V3.53733C15.2087 2.70463 14.3083 2.18326 13.5861 2.59774L10.7041 4.25172C9.94666 4.6864 9.08861 4.91512 8.21532 4.91512H3.95866Z" fill="#161823"/>
<path d="M18.3337 8.68318C18.3337 9.83022 17.6716 10.8226 16.7087 11.299V6.06738C17.6716 6.54374 18.3337 7.53614 18.3337 8.68318Z" fill="#161823"/>
<path d="M6.84623 17.8445L4.59851 13.9513H8.21534C8.28861 13.9513 8.36173 13.9536 8.43459 13.9582L9.72031 16.1851C10.1785 16.9788 9.9066 17.9936 9.11294 18.4518C8.31929 18.9101 7.30444 18.6381 6.84623 17.8445Z" fill="#161823"/>
</svg>
