<svg width="24" height="24" viewBox="0 0 24 24" fill="none" xmlns="http://www.w3.org/2000/svg">
<path d="M18.0155 17.4223C13.1365 17.4917 9.50018 12.9925 9.50018 8.17966C9.50018 6.7445 9.663 5.02658 10.4529 3.97176C6.92001 5.14514 3.99805 8.13203 3.99805 12C3.99805 16.4192 7.58052 20.0016 11.9997 20.0016C14.2407 20.0016 16.9869 18.7313 18.0155 17.4223ZM19.0002 16.1797C19.6713 16.1797 20.1867 16.8715 19.8033 17.4223C18.0868 19.888 15.2317 21.5016 11.9997 21.5016C6.75209 21.5016 2.49805 17.2476 2.49805 12C2.49805 6.75234 6.75209 2.49829 11.9997 2.49829C12.531 2.49829 12.7661 3.13762 12.4598 3.57165C11.5403 4.87433 11.0002 6.46392 11.0002 8.17966C11.0002 12.5979 14.5819 16.1797 19.0002 16.1797Z" fill="#161823"/>
</svg>
