<svg width="20" height="20" viewBox="0 0 20 20" fill="none" xmlns="http://www.w3.org/2000/svg">
<path fill-rule="evenodd" clip-rule="evenodd" d="M13.3699 11.1155C11.8533 11.1155 10.6976 12.3635 10.6976 13.9987C10.6976 15.8125 12.1598 17.4071 13.9807 18.6129C14.0648 18.6703 14.1692 18.7358 14.2815 18.79C14.3771 18.8361 14.5651 18.9178 14.7894 18.9178C15.012 18.9178 15.1998 18.8372 15.2956 18.7916C15.409 18.7376 15.5148 18.672 15.6014 18.6129C17.4223 17.4071 18.8846 15.8125 18.8846 13.9987C18.8846 12.3635 17.7289 11.1155 16.2123 11.1155C15.6425 11.1155 15.1668 11.3059 14.7915 11.6066C14.4154 11.3051 13.9381 11.1155 13.3699 11.1155ZM12.1976 13.9987C12.1976 13.0907 12.7795 12.6155 13.3699 12.6155C13.696 12.6155 13.9475 12.7795 14.1242 13.1187L14.6061 14.044C14.6804 14.1867 14.8842 14.1877 14.96 14.0458L15.4511 13.1253C15.6368 12.7773 15.8887 12.6155 16.2123 12.6155C16.8027 12.6155 17.3846 13.0907 17.3846 13.9987C17.3846 15.0001 16.524 16.1986 14.7911 17.3504C13.0581 16.1986 12.1976 15.0001 12.1976 13.9987Z" fill="#161823"/>
<path d="M13.3337 5.25C13.3337 7.32107 11.8413 9 10.0003 9C8.15938 9 6.66699 7.32107 6.66699 5.25C6.66699 3.17893 8.15938 1.5 10.0003 1.5C11.8413 1.5 13.3337 3.17893 13.3337 5.25ZM11.8337 5.25C11.8337 3.83639 10.8516 3 10.0003 3C9.14901 3 8.16699 3.83639 8.16699 5.25C8.16699 6.66361 9.14901 7.5 10.0003 7.5C10.8516 7.5 11.8337 6.66361 11.8337 5.25Z" fill="#161823"/>
<path d="M10 10C8.00786 10 6.15542 10.497 4.75275 11.3874C3.36383 12.2691 2.25 13.6669 2.25 15.4394V16.0833C2.25 17.372 3.29467 18.4167 4.58333 18.4167H9.98264C10.0663 18.4167 10.1136 18.3196 10.064 18.2521C9.7927 17.8826 9.56642 17.478 9.39328 17.0463C9.36217 16.9688 9.28774 16.9167 9.20416 16.9167H4.58333C4.1231 16.9167 3.75 16.5436 3.75 16.0833V15.4394C3.75 13.2637 6.48438 11.5 10 11.5C10.0526 11.5 10.1051 11.5004 10.1573 11.5012C10.2187 11.5021 10.2773 11.4753 10.3172 11.4286C10.7262 10.95 11.0746 10.575 11.7099 10.3146C11.798 10.2784 11.7689 10.1382 11.6746 10.125C11.1541 10.0519 10.5481 10 10 10Z" fill="#161823"/>
</svg>
