<svg width="24" height="24" viewBox="0 0 24 24" fill="none" xmlns="http://www.w3.org/2000/svg">
<path d="M3.33776 4.61708C3 5.26729 3 6.12153 3 7.83V12.67C3 14.3785 3 15.2327 3.33776 15.8829C3.62239 16.4309 4.06915 16.8776 4.61708 17.1622C5.26729 17.5 6.12153 17.5 7.83 17.5H12.67C14.3785 17.5 15.2327 17.5 15.8829 17.1622C16.4309 16.8776 16.8776 16.4309 17.1622 15.8829C17.5 15.2327 17.5 14.3785 17.5 12.67V7.83C17.5 6.12153 17.5 5.26729 17.1622 4.61708C16.8776 4.06915 16.4309 3.62239 15.8829 3.33776C15.2327 3 14.3785 3 12.67 3H7.83C6.12153 3 5.26729 3 4.61708 3.33776C4.06915 3.62239 3.62239 4.06915 3.33776 4.61708Z" fill="#161823"/>
<path d="M6.83774 19.383C6.78834 19.2879 6.76364 19.2403 6.76784 19.1837C6.77216 19.1256 6.81282 19.0588 6.86238 19.0282C6.91073 18.9984 6.97346 18.9985 7.09892 18.9986C7.2403 18.9988 7.3868 18.9988 7.5387 18.9988H12.9613C15.0968 18.9988 16.1646 18.9988 16.9774 18.5766C17.6623 18.2208 18.2208 17.6624 18.5766 16.9774C18.9988 16.1647 18.9988 15.0969 18.9988 12.9613V7.53873C18.9988 7.38683 18.9988 7.24033 18.9986 7.09895C18.9985 6.97349 18.9984 6.91076 19.0282 6.86241C19.0587 6.81285 19.1256 6.77219 19.1836 6.76787C19.2403 6.76367 19.2878 6.78837 19.3829 6.83777C19.9309 7.1224 20.3776 7.56916 20.6622 8.11709C21 8.7673 21 9.62154 21 11.33V15.365C21 17.3583 21 18.3549 20.6059 19.1134C20.2739 19.7527 19.7527 20.2739 19.1134 20.606C18.3548 21 17.3582 21 15.365 21H11.33C9.62151 21 8.76727 21 8.11706 20.6623C7.56913 20.3776 7.12237 19.9309 6.83774 19.383Z" fill="#161823"/>
</svg>
