<svg width="24" height="24" viewBox="0 0 24 24" fill="none" xmlns="http://www.w3.org/2000/svg">
<path d="M16 6.5C16 8.98528 14.2091 11 12 11C9.79086 11 8 8.98528 8 6.5C8 4.01472 9.79086 2 12 2C14.2091 2 16 4.01472 16 6.5Z" fill="#161823"/>
<path d="M5.86408 14.1182C7.49136 13.0852 9.6563 12.5 12 12.5C12.6059 12.5 13.1998 12.5391 13.7756 12.615C13.9524 12.6382 14.0072 12.8674 13.8695 12.9809C12.4226 14.173 11.5 15.9788 11.5 18C11.5 19.3613 11.9185 20.6249 12.6338 21.6691C12.728 21.8066 12.6326 22 12.4659 22H5.5C4.11929 22 3 20.8807 3 19.5V18.7273C3 16.7372 4.25055 15.1424 5.86408 14.1182Z" fill="#161823"/>
<path d="M23 18C23 20.7614 20.7614 23 18 23C15.2386 23 13 20.7614 13 18C13 15.2386 15.2386 13 18 13C20.7614 13 23 15.2386 23 18ZM19.8874 20.948L15.052 16.1126C14.7026 16.6572 14.5 17.3049 14.5 18C14.5 19.933 16.067 21.5 18 21.5C18.6951 21.5 19.3428 21.2974 19.8874 20.948ZM20.948 19.8874C21.2974 19.3428 21.5 18.6951 21.5 18C21.5 16.067 19.933 14.5 18 14.5C17.3049 14.5 16.6572 14.7026 16.1126 15.052L20.948 19.8874Z" fill="#161823"/>
</svg>
