<svg width="24" height="24" viewBox="0 0 24 24" fill="none" xmlns="http://www.w3.org/2000/svg">
<path d="M11.9972 8C7.9464 8 4.13885 8.85132 2.23975 10.7504C1.37907 11.6111 0.948737 12.6495 1.00487 13.9031C1.04229 14.6609 1.27617 15.3344 1.71586 15.7741C2.04329 16.1109 2.50169 16.298 3.03494 16.2138L6.5057 15.6245C7.02959 15.5403 7.39444 15.3812 7.62832 15.138C7.93704 14.8386 8.03059 14.3896 8.03059 13.8002V12.8553C8.03059 12.7056 8.09608 12.5934 8.18963 12.4998C8.28318 12.3876 8.42351 12.3408 8.52642 12.3127C9.16257 12.163 10.4536 12.0227 11.9972 12.0227C13.5408 12.0227 14.8224 12.135 15.4679 12.3221C15.5615 12.3501 15.6925 12.4063 15.7954 12.4998C15.8796 12.5934 15.9357 12.6963 15.9451 12.846L15.9544 13.8002C15.9638 14.3896 16.0573 14.8386 16.3567 15.138C16.5999 15.3812 16.9648 15.5403 17.4887 15.6245L20.9126 16.2045C21.4646 16.298 21.9324 16.1016 22.2972 15.7461C22.7369 15.3157 22.9801 14.6515 22.9988 13.8938C23.0269 12.6308 22.5404 11.5924 21.6985 10.7504C19.7994 8.85132 16.048 8 11.9972 8Z" fill="#161823"/>
</svg>
