<svg width="20" height="20" viewBox="0 0 20 20" fill="none" xmlns="http://www.w3.org/2000/svg">
<path d="M7.68273 6.17276L9.4044 7.58523C9.51535 7.67627 9.57165 7.818 9.5534 7.96035L9.2452 10.3641C9.2252 10.5201 9.41265 10.6145 9.52604 10.5054L12.2409 7.89454C12.3899 7.75124 12.4113 7.52036 12.2912 7.35211L11.4821 6.21884C11.3956 6.09774 11.3803 5.93971 11.4419 5.80425L12.5004 3.47672L12.9949 2.53519C13.1715 2.51198 13.3541 2.5 13.5425 2.5C16.1683 2.5 18.3337 4.61424 18.3337 7.73444C18.3337 11.1957 15.4266 14.6313 10.9765 17.5298C10.6354 17.76 10.2518 17.9646 9.99606 17.9646C9.74031 17.9646 9.3652 17.76 9.0242 17.5298C4.57407 14.6313 1.66699 11.1957 1.66699 7.73444C1.66699 4.61424 3.83238 2.5 6.45813 2.5C7.01703 2.5 7.52524 2.60536 7.98004 2.79673L7.8974 3.33335L7.53481 5.78978C7.51344 5.93456 7.56959 6.07993 7.68273 6.17276Z" fill="#161823"/>
</svg>
