<svg width="24" height="24" viewBox="0 0 24 24" fill="none" xmlns="http://www.w3.org/2000/svg">
<path d="M12.7593 4.00202C12.3837 3.97325 12.0559 4.25443 12.0271 4.63005C11.9983 5.00567 12.2795 5.33349 12.6551 5.36226C13.941 5.46075 15.1915 5.84632 16.3133 6.49395C17.626 7.25186 18.7161 8.34196 19.474 9.65469C20.2319 10.9674 20.6309 12.4565 20.6309 13.9723C20.6309 15.4882 20.2319 16.9773 19.474 18.29C19.2857 18.6162 19.3974 19.0334 19.7237 19.2218C20.0499 19.4101 20.4671 19.2984 20.6555 18.9721C21.5331 17.452 21.9951 15.7276 21.9951 13.9723C21.9951 12.2171 21.5331 10.4927 20.6555 8.97259C19.7778 7.45247 18.5155 6.19015 16.9954 5.3125C15.6964 4.56256 14.2484 4.11608 12.7593 4.00202Z" fill="#161823"/>
<path d="M9.85495 5.60658C10.2199 5.51319 10.4401 5.14163 10.3467 4.77667C10.2533 4.41171 9.88172 4.19156 9.51676 4.28495C8.63729 4.50999 7.78878 4.85471 6.99586 5.3125C5.95507 5.9134 5.03513 6.69463 4.27678 7.61546C4.03729 7.90626 4.07888 8.33613 4.36968 8.57562C4.66047 8.81511 5.09035 8.77352 5.32984 8.48272C5.98474 7.68751 6.77917 7.01287 7.67796 6.49395C8.36272 6.09861 9.09545 5.80092 9.85495 5.60658Z" fill="#161823"/>
<path d="M3.92488 10.9012C4.05886 10.5491 3.88204 10.1551 3.52995 10.0211C3.17786 9.88715 2.78383 10.064 2.64985 10.4161C2.63856 10.4457 2.62741 10.4754 2.61641 10.5052C2.20766 11.611 1.99609 12.7846 1.99609 13.9723C1.99609 14.0291 1.99658 14.0858 1.99754 14.1425C2.00395 14.5192 2.31449 14.8193 2.69116 14.8129C3.06782 14.8065 3.36797 14.496 3.36156 14.1193C3.36073 14.0703 3.36031 14.0214 3.36031 13.9723C3.36031 12.9466 3.54301 11.9331 3.896 10.9782C3.9055 10.9525 3.91513 10.9269 3.92488 10.9012Z" fill="#161823"/>
<path d="M3.85189 16.8443C3.7266 16.489 3.33702 16.3026 2.98175 16.4279C2.62648 16.5532 2.44004 16.9428 2.56533 17.298C2.76927 17.8763 3.02676 18.4369 3.33578 18.9721C3.52414 19.2984 3.94131 19.4101 4.26755 19.2218C4.5938 19.0334 4.70558 18.6162 4.51722 18.29C4.25036 17.8278 4.028 17.3437 3.85189 16.8443Z" fill="#161823"/>
<path d="M14.7161 10.4834C14.467 10.3396 14.1496 10.4038 13.976 10.6332L10.2904 15.502C9.80618 16.1417 9.99218 17.061 10.687 17.4621C11.3818 17.8633 12.271 17.5647 12.5828 16.8255L14.9565 11.1993C15.0684 10.9342 14.9653 10.6273 14.7161 10.4834Z" fill="#161823"/>
</svg>
