<svg width="20" height="20" viewBox="0 0 20 20" fill="none" xmlns="http://www.w3.org/2000/svg">
<path d="M9.79822 0.945324C9.93254 0.907083 10.0749 0.907101 10.2092 0.945376L17.7056 3.08179C18.0278 3.17362 18.25 3.46802 18.25 3.80307V8.18433C18.25 13.1242 15.0105 17.4936 10.233 19.0466C10.0823 19.0956 9.91997 19.0956 9.7693 19.0466C4.99047 17.4936 1.75 13.1233 1.75 8.18231V3.80307C1.75 3.46795 1.97232 3.17351 2.29462 3.08174L9.79822 0.945324ZM11.7677 6.13098C11.7677 5.04613 10.9762 4.16669 9.99984 4.16669C9.02347 4.16669 8.23197 5.04613 8.23197 6.13098C8.23197 7.21582 9.02347 8.09527 9.99984 8.09527C10.9762 8.09527 11.7677 7.21582 11.7677 6.13098ZM9.99996 9.16669C7.42183 9.16669 5.41663 10.5234 5.41663 12.197C5.41663 12.8246 5.89017 13.3334 6.47432 13.3334H13.5256C14.1097 13.3334 14.5833 12.8246 14.5833 12.197C14.5833 10.5234 12.5781 9.16669 9.99996 9.16669Z" fill="#161823"/>
</svg>
