<svg width="24" height="24" viewBox="0 0 24 24" fill="none" xmlns="http://www.w3.org/2000/svg">
<path d="M8.52327 8.60639C8.52327 9.27022 8.11511 9.80837 7.61161 9.80837C7.10811 9.80837 6.69995 9.27022 6.69995 8.60639C6.69995 7.94256 7.10811 7.40442 7.61161 7.40442C8.11511 7.40442 8.52327 7.94256 8.52327 8.60639Z" fill="#161823"/>
<path d="M11.855 9.80824C12.3585 9.80824 12.7667 9.2701 12.7667 8.60627C12.7667 7.94244 12.3585 7.4043 11.855 7.4043C11.3515 7.4043 10.9434 7.94244 10.9434 8.60627C10.9434 9.2701 11.3515 9.80824 11.855 9.80824Z" fill="#161823"/>
<path d="M9.7333 12.5461C8.73546 12.5461 7.92655 11.9648 7.92655 11.2476C7.92655 10.5305 11.54 10.5305 11.54 11.2476C11.54 11.9648 10.7311 12.5461 9.7333 12.5461Z" fill="#161823"/>
<path d="M6.25 2C4.73122 2 3.5 3.23122 3.5 4.75V15.25C3.5 16.7688 4.73122 18 6.25 18H13.25C14.7688 18 16 16.7688 16 15.25V4.75C16 3.23122 14.7688 2 13.25 2H6.25ZM13.25 3.5C13.9404 3.5 14.5 4.05964 14.5 4.75V15.25C14.5 15.9404 13.9404 16.5 13.25 16.5H6.25C5.55964 16.5 5 15.9404 5 15.25V4.75C5 4.05964 5.55964 3.5 6.25 3.5H13.25Z" fill="#161823"/>
<path d="M9.25002 22C7.89045 22 6.76131 21.0134 6.53952 19.7171C6.5197 19.6012 6.61252 19.5 6.73006 19.5H7.86154C7.95666 19.5 8.03699 19.5677 8.06799 19.6576C8.23701 20.1478 8.70239 20.5 9.25002 20.5H17.75C18.4404 20.5 19 19.9404 19 19.25V6.75C19 6.05964 18.4404 5.5 17.75 5.5H17.7C17.5896 5.5 17.5 5.41046 17.5 5.3V4.75C17.5 4.57607 17.4896 4.40457 17.4693 4.23611C17.4544 4.11252 17.5483 4 17.6728 4H17.75C19.2688 4 20.5 5.23122 20.5 6.75V19.25C20.5 20.7688 19.2688 22 17.75 22H9.25002Z" fill="#161823"/>
</svg>
