<svg width="24" height="24" viewBox="0 0 24 24" fill="none" xmlns="http://www.w3.org/2000/svg">
<path d="M17.3993 7.9999C18.1722 7.9999 18.7987 7.37334 18.7987 6.60043C18.7987 5.82753 18.1722 5.20096 17.3993 5.20096C16.6264 5.20096 15.9998 5.82753 15.9998 6.60043C15.9998 7.37334 16.6264 7.9999 17.3993 7.9999Z" fill="#161823"/>
<path d="M21.2671 11.6333C21.6835 11.2169 21.92 10.6539 21.926 10.0652L21.985 4.27338C21.9977 3.02186 20.9867 2.00049 19.7351 2.00049H14.0329C13.4362 2.00049 12.8639 2.23754 12.4419 2.6595L1.65608 13.4453C0.7774 14.324 0.777401 15.7486 1.65608 16.6273L7.37359 22.3448C8.25227 23.2235 9.6769 23.2235 10.5556 22.3448L21.2671 11.6333ZM20.4261 10.0499C20.4241 10.2462 20.3453 10.4338 20.2065 10.5726L9.49492 21.2842C9.20202 21.5771 8.72715 21.5771 8.43425 21.2842L2.71674 15.5667C2.42385 15.2738 2.42385 14.7989 2.71674 14.506L13.5026 3.72016C13.6432 3.57951 13.834 3.50049 14.0329 3.50049L19.7351 3.50049C20.1523 3.50049 20.4893 3.84094 20.485 4.25812L20.4261 10.0499Z" fill="#161823"/>
</svg>
