<svg width="24" height="24" viewBox="0 0 24 24" fill="none" xmlns="http://www.w3.org/2000/svg">
<path d="M12 22C17.5228 22 22 17.5228 22 12C22 6.47715 17.5228 2 12 2C6.47715 2 2 6.47715 2 12C2 17.5228 6.47715 22 12 22ZM8.78102 12.3209L10.8431 14.3198L15.1831 8.17321C15.5017 7.72205 16.1256 7.61456 16.5768 7.93311C17.0279 8.25166 17.1354 8.87563 16.8169 9.32679L11.803 16.4279C11.6344 16.6666 11.3699 16.8197 11.079 16.8468C10.7881 16.874 10.4998 16.7725 10.29 16.5692L7.38897 13.7569C6.99242 13.3725 6.98258 12.7394 7.36698 12.3429C7.75138 11.9463 8.38447 11.9365 8.78102 12.3209Z" fill="#161823"/>
</svg>
