<svg width="20" height="20" viewBox="0 0 20 20" fill="none" xmlns="http://www.w3.org/2000/svg">
<path fill-rule="evenodd" clip-rule="evenodd" d="M17.04 4.70471C17.5578 3.56846 16.388 2.39868 15.2518 2.91645L11.2555 4.7375L8.01748 1.77065C7.09684 0.927099 5.62283 1.67815 5.76414 2.91878L6.26114 7.28224L2.4389 9.44493C1.35214 10.0598 1.61094 11.6938 2.83452 11.9428L6.25663 12.6391L1.84955 17.0462C1.55666 17.3391 1.55666 17.814 1.84955 18.1069C2.14245 18.3998 2.61732 18.3998 2.91021 18.1069L7.31732 13.6998L8.0137 17.122C8.26269 18.3455 9.89664 18.6043 10.5115 17.5176L12.6742 13.6953L17.0377 14.1923C18.2783 14.3336 19.0294 12.8596 18.1858 11.939L15.219 8.70102L17.04 4.70471ZM11.7871 6.14363L15.5087 4.44775L13.8128 8.16937C13.5882 8.6623 13.68 9.24177 14.046 9.64117L16.8089 12.6566L12.7454 12.1937C12.2071 12.1324 11.6844 12.3988 11.4176 12.8703L9.40359 16.4298L8.58807 12.4221C8.48005 11.8913 8.0652 11.4764 7.53438 11.3684L3.52671 10.5529L7.08622 8.53886C7.55769 8.27209 7.82404 7.74935 7.76273 7.21112L7.2999 3.1476L10.3153 5.91052C10.7147 6.27648 11.2942 6.36826 11.7871 6.14363Z" fill="#161823"/>
</svg>
