<svg width="24" height="24" viewBox="0 0 24 24" fill="none" xmlns="http://www.w3.org/2000/svg">
<path d="M14.9799 2.03616C12.8357 1.3948 10.5418 1.46224 8.43902 2.22848C6.33621 2.99471 4.53667 4.41885 3.30775 6.28933C2.07883 8.15981 1.48608 10.3768 1.61758 12.611C1.74908 14.8452 2.5978 16.9774 4.03766 18.6908C5.47752 20.4042 7.43169 21.6074 9.60987 22.1217C11.7881 22.636 14.074 22.4338 16.1282 21.5454C16.7111 21.2933 16.9793 20.6163 16.7272 20.0334C16.475 19.4504 15.7981 19.1823 15.2151 19.4344C13.6153 20.1264 11.8348 20.2838 10.1384 19.8832C8.44191 19.4827 6.91991 18.5456 5.79848 17.2111C4.67705 15.8766 4.01603 14.216 3.91361 12.4759C3.81119 10.7358 4.27285 9.00908 5.22999 7.55226C6.18713 6.09545 7.58869 4.98626 9.22646 4.38948C10.8642 3.7927 12.6508 3.74017 14.3208 4.23969C16.0099 4.74493 17.4943 5.74782 18.4801 7.13993C19.2284 8.19675 19.5811 9.80103 19.488 11.3927C19.4475 12.0857 19.2532 13.1344 18.8462 13.9826C18.432 14.8457 17.8744 15.3619 17.1497 15.3226C16.7667 15.3018 16.5354 15.1932 16.4049 15.0623C16.2806 14.9376 16.1969 14.7417 16.2139 14.4284L16.5472 8.28509C16.567 7.9201 16.4827 7.57149 16.2615 7.30307C16.0366 7.03017 15.7096 6.88845 15.3433 6.86857C14.9774 6.84872 14.6358 6.95374 14.3803 7.1982C14.2124 7.35891 14.1002 7.56208 14.038 7.78862C13.4141 7.10947 12.488 6.71367 11.4701 6.65844C10.1778 6.58834 9.0326 7.08062 8.19625 7.98759C7.36433 8.88976 6.85275 10.184 6.76998 11.7097C6.68636 13.251 7.05002 14.6102 7.783 15.6112C8.52047 16.6182 9.61776 17.2408 10.939 17.3125C12.1658 17.3791 13.2452 16.9218 13.9603 16.0434C14.4119 17.0118 15.4879 17.5593 16.7196 17.6261C18.3974 17.7171 19.6271 16.8856 20.4432 15.7169C21.2503 14.561 21.6688 13.0608 21.7713 11.7173C21.9231 9.7254 21.5301 7.46733 20.3571 5.81078C19.0421 3.95374 17.1049 2.67178 14.9799 2.03616ZM9.44172 11.8429C9.49436 10.8725 9.75327 10.1644 10.1352 9.71603C10.5058 9.28102 11.0213 9.05482 11.6902 9.09111C12.3702 9.128 12.8915 9.42218 13.2406 9.90861C13.5964 10.4045 13.7959 11.134 13.7454 12.0646C13.6936 13.0197 13.4118 13.745 12.9988 14.2144C12.5938 14.6747 12.0405 14.9163 11.3644 14.8796C10.7066 14.8439 10.2217 14.5589 9.90012 14.0741C9.56864 13.5743 9.38839 12.8258 9.44172 11.8429Z" fill="#161823"/>
</svg>
