<svg width="24" height="24" viewBox="0 0 24 24" fill="none" xmlns="http://www.w3.org/2000/svg">
<path d="M5.24999 2C5.24999 1.58579 5.58578 1.25 5.99999 1.25H18C18.4142 1.25 18.75 1.58579 18.75 2C18.75 2.41421 18.4142 2.75 18 2.75H5.99999C5.58578 2.75 5.24999 2.41421 5.24999 2Z" fill="#161823"/>
<path fill-rule="evenodd" clip-rule="evenodd" d="M12 4.00524C11.8077 4.00524 11.6237 4.08326 11.49 4.22144L8.21471 7.60682L3.53033 2.92244C3.23744 2.62955 2.76256 2.62955 2.46967 2.92244C2.17678 3.21534 2.17678 3.69021 2.46967 3.9831L3.45415 4.96759C3.45579 4.96919 3.45742 4.97081 3.45904 4.97243L20.4747 21.9881C20.7679 22.276 21.2391 22.2743 21.5303 21.9831C21.8232 21.6902 21.8232 21.2153 21.5303 20.9224L15.2383 14.6304L15.2383 13.5923H18.7862C19.8305 13.5923 20.3623 12.3378 19.6362 11.5873L12.51 4.22144C12.3763 4.08326 12.1922 4.00524 12 4.00524ZM9.21838 8.6105L13.8191 13.2112L13.819 12.8827C13.819 12.6945 13.8938 12.514 14.0269 12.3809C14.16 12.2478 14.3405 12.1731 14.5287 12.1731H18.2282L12 5.7354L9.21838 8.6105Z" fill="#161823"/>
<path d="M15.2383 18.9559C15.2383 18.9028 15.2172 18.852 15.1797 18.8145L14.1605 17.7952C14.0345 17.6692 13.8191 17.7585 13.8191 17.9367L13.8191 21.5831H10.181L10.1809 13.8984C10.1809 13.8454 10.1598 13.7945 10.1223 13.757L8.59693 12.2316C8.55942 12.1941 8.50855 12.1731 8.45551 12.1731H5.77169L6.99537 10.9082C7.07127 10.8298 7.07024 10.705 6.99305 10.6278L6.27225 9.90697C6.19324 9.82795 6.0648 9.82901 5.98709 9.90932L4.36374 11.5873C3.63764 12.3378 4.16947 13.5923 5.21373 13.5923H8.76167L8.76175 22.2927C8.76175 22.6846 9.07945 23.0023 9.47136 23.0023H14.5287C14.7169 23.0023 14.8974 22.9275 15.0305 22.7945C15.1636 22.6614 15.2384 22.4809 15.2384 22.2927L15.2383 18.9559Z" fill="#161823"/>
</svg>
