<svg width="24" height="24" viewBox="0 0 24 24" fill="none" xmlns="http://www.w3.org/2000/svg">
<path fill-rule="evenodd" clip-rule="evenodd" d="M18.2343 14.3415C18.4601 14.383 18.6862 14.421 18.9126 14.4555C19.3221 14.518 19.7046 14.2366 19.767 13.8271C19.8288 13.4221 19.5542 13.0435 19.152 12.9748C19.6938 11.9377 20.0001 10.7582 20.0001 9.50708C20.0001 5.36494 16.6422 2.00708 12.5001 2.00708C9.77432 2.00708 7.38816 3.46119 6.07503 5.63601C5.9666 5.50697 5.85985 5.37679 5.75479 5.2455C5.49599 4.92209 5.02401 4.86972 4.7006 5.12852C4.37719 5.38732 4.32482 5.8593 4.58362 6.18271C4.84128 6.50468 5.10838 6.8204 5.38482 7.12942C5.13527 7.87654 5.0001 8.67603 5.0001 9.50708C5.0001 10.9542 5.40995 12.3056 6.1199 13.4515L4.15322 17.9106C3.58671 19.1951 4.07861 20.7 5.29436 21.4019L5.80093 21.6944C7.01668 22.3963 8.56595 22.0698 9.39506 20.937L12.2738 17.0037C12.349 17.006 12.4244 17.0071 12.5001 17.0071C14.8002 17.0071 16.8585 15.9717 18.2343 14.3415ZM16.5237 13.958C14.6226 13.4535 12.7564 12.6924 10.9725 11.6625C9.35565 10.729 7.89619 9.62646 6.6039 8.39003C6.53575 8.75196 6.5001 9.12536 6.5001 9.50708C6.5001 12.8208 9.18639 15.5071 12.5001 15.5071C14.0482 15.5071 15.4594 14.9207 16.5237 13.958ZM7.13911 6.80979C8.1267 4.85077 10.1565 3.50708 12.5001 3.50708C15.8138 3.50708 18.5001 6.19337 18.5001 9.50708C18.5001 10.6713 18.1685 11.758 17.5947 12.678C15.5831 12.2158 13.6048 11.4501 11.7225 10.3634C9.99739 9.3674 8.46542 8.16665 7.13911 6.80979ZM5.52566 18.5159L7.17129 14.7847C8.10041 15.7228 9.27548 16.4169 10.5918 16.7621L8.18463 20.0511C7.80776 20.566 7.10354 20.7144 6.55093 20.3954L6.04436 20.1029C5.49175 19.7838 5.26816 19.0998 5.52566 18.5159Z" fill="#161823"/>
</svg>
