<svg width="20" height="20" viewBox="0 0 20 20" fill="none" xmlns="http://www.w3.org/2000/svg">
<path d="M10.0003 18.3334C14.6027 18.3334 18.3337 14.6024 18.3337 10C18.3337 5.39765 14.6027 1.66669 10.0003 1.66669C5.39795 1.66669 1.66699 5.39765 1.66699 10C1.66699 14.6024 5.39795 18.3334 10.0003 18.3334ZM7.08374 10C7.08374 10.6904 6.5241 11.25 5.83374 11.25C5.14338 11.25 4.58374 10.6904 4.58374 10C4.58374 9.30964 5.14338 8.75 5.83374 8.75C6.5241 8.75 7.08374 9.30964 7.08374 10ZM10.0004 11.25C9.31001 11.25 8.75037 10.6904 8.75037 10C8.75037 9.30964 9.31001 8.75 10.0004 8.75C10.6907 8.75 11.2504 9.30964 11.2504 10C11.2504 10.6904 10.6907 11.25 10.0004 11.25ZM14.167 11.25C13.4767 11.25 12.917 10.6904 12.917 10C12.917 9.30964 13.4767 8.75 14.167 8.75C14.8574 8.75 15.417 9.30964 15.417 10C15.417 10.6904 14.8574 11.25 14.167 11.25Z" fill="#161823"/>
</svg>
