<svg width="16" height="16" viewBox="0 0 16 16" fill="none" xmlns="http://www.w3.org/2000/svg">
<path d="M8.33519 1.44224C8.12399 1.33664 7.8754 1.33664 7.6642 1.44224L2.16486 4.19191C1.91071 4.31898 1.75017 4.57874 1.75017 4.86289C1.75017 5.14704 1.91071 5.40681 2.16486 5.53388L7.6642 8.28361C7.8754 8.38921 8.124 8.38921 8.3352 8.28361L13.8345 5.53388C14.0887 5.40681 14.2492 5.14704 14.2492 4.86289C14.2492 4.57874 14.0887 4.31898 13.8345 4.19191L8.33519 1.44224Z" fill="#161823"/>
<path d="M1.82921 7.6679C2.01434 7.29725 2.46489 7.14684 2.83555 7.33196L7.97735 9.9C7.99142 9.90702 8.00797 9.90702 8.02203 9.9L13.1638 7.33196C13.5345 7.14684 13.985 7.29725 14.1702 7.6679C14.3553 8.03856 14.2049 8.48912 13.8342 8.67424L8.33489 11.4208C8.12385 11.5262 7.87553 11.5262 7.6645 11.4208L2.16516 8.67424C1.7945 8.48912 1.64409 8.03856 1.82921 7.6679Z" fill="#161823"/>
<path d="M2.83555 10.4688C2.46489 10.2837 2.01434 10.4341 1.82921 10.8047C1.64409 11.1754 1.7945 11.626 2.16516 11.8111L7.6645 14.5577C7.87553 14.6631 8.12385 14.6631 8.33489 14.5577L13.8342 11.8111C14.2049 11.626 14.3553 11.1754 14.1702 10.8047C13.985 10.4341 13.5345 10.2837 13.1638 10.4688L8.02203 13.0368C8.00797 13.0439 7.99142 13.0439 7.97735 13.0368L2.83555 10.4688Z" fill="#161823"/>
</svg>
