<svg width="20" height="20" viewBox="0 0 20 20" fill="none" xmlns="http://www.w3.org/2000/svg">
<path d="M5.27614 1.83325H14.7239C15.6672 1.83325 16.5649 2.31832 17.0642 3.15657C17.3686 3.66773 17.8201 4.44808 18.1998 5.19898C18.3887 5.57268 18.5725 5.9638 18.7126 6.32463C18.8297 6.62622 19 7.10812 19 7.58325C19 9.30067 17.5723 10.8333 15.75 10.8333C15.033 10.8333 14.3706 10.6013 13.8333 10.2083C13.2961 10.6013 12.6336 10.8333 11.9167 10.8333C11.1997 10.8333 10.5372 10.6013 10 10.2083C9.46277 10.6013 8.8003 10.8333 8.08334 10.8333C7.36637 10.8333 6.7039 10.6013 6.16667 10.2083C5.62944 10.6013 4.96697 10.8333 4.25 10.8333C2.42767 10.8333 1 9.30067 1 7.58325C1 7.10812 1.17027 6.62622 1.28737 6.32463C1.42747 5.9638 1.61127 5.57268 1.80022 5.19898C2.17989 4.44808 2.63137 3.66773 2.93583 3.15657C3.43512 2.31832 4.33281 1.83325 5.27614 1.83325ZM5.18815 9.0608C5.27701 9.00426 5.36043 8.93993 5.43743 8.86876C5.7374 8.59155 5.94013 8.21066 5.98872 7.78301C5.98998 7.77195 5.99113 7.76087 5.99218 7.74975C6.00083 7.65811 6.07462 7.58325 6.16667 7.58325C6.25872 7.58325 6.33251 7.65811 6.34116 7.74975C6.34221 7.76087 6.34336 7.77195 6.34461 7.78301C6.39321 8.21066 6.59594 8.59155 6.89591 8.86876C6.97291 8.93993 7.05633 9.00426 7.14519 9.0608C7.41633 9.23332 7.73816 9.33325 8.08334 9.33325C8.42851 9.33325 8.75034 9.23332 9.02148 9.0608C9.11034 9.00427 9.19376 8.93993 9.27077 8.86876C9.57073 8.59155 9.77347 8.21066 9.82206 7.783C9.82332 7.77195 9.82447 7.76086 9.82552 7.74974C9.83417 7.6581 9.90796 7.58325 10 7.58325C10.092 7.58325 10.1658 7.6581 10.1745 7.74974C10.1755 7.76086 10.1767 7.77195 10.1779 7.783C10.2265 8.21065 10.4293 8.59155 10.7292 8.86876C10.8062 8.93993 10.8897 9.00426 10.9785 9.0608C11.2497 9.23332 11.5715 9.33325 11.9167 9.33325C12.2618 9.33325 12.5837 9.23332 12.8548 9.0608C12.9437 9.00426 13.0271 8.93993 13.1041 8.86876C13.4041 8.59155 13.6068 8.21066 13.6554 7.78301C13.6566 7.77195 13.6578 7.76087 13.6588 7.74975C13.6675 7.65811 13.7413 7.58325 13.8333 7.58325C13.9254 7.58325 13.9992 7.65811 14.0078 7.74975C14.0089 7.76087 14.01 7.77195 14.0113 7.78301C14.0599 8.21066 14.2626 8.59155 14.5626 8.86876C14.6396 8.93993 14.723 9.00426 14.8119 9.0608C15.083 9.23331 15.4048 9.33325 15.75 9.33325C16.7165 9.33325 17.5 8.49992 17.5 7.58325C17.5 6.90853 16.3713 4.9245 15.7755 3.92417C15.5549 3.55389 15.1548 3.33325 14.7239 3.33325H5.27614C4.84516 3.33325 4.4451 3.55389 4.22454 3.92417C3.62872 4.9245 2.5 6.90853 2.5 7.58325C2.5 8.49992 3.2835 9.33325 4.25 9.33325C4.59518 9.33325 4.91701 9.23332 5.18815 9.0608Z" fill="#161823"/>
<path d="M3 12.2193V15.7083C3 17.227 4.23122 18.4583 5.75 18.4583H14.25C15.7688 18.4583 17 17.227 17 15.7083V12.2234C16.6859 12.2952 16.3582 12.3333 16.0203 12.3333C15.8443 12.3333 15.6707 12.3231 15.5 12.3032V15.7083C15.5 16.3986 14.9404 16.9583 14.25 16.9583H5.75C5.05964 16.9583 4.5 16.3986 4.5 15.7083V12.3052C4.33511 12.3238 4.16747 12.3333 3.99759 12.3333C3.65325 12.3333 3.31952 12.2937 3 12.2193Z" fill="#161823"/>
</svg>
