<svg width="20" height="20" viewBox="0 0 20 20" fill="none" xmlns="http://www.w3.org/2000/svg">
<path d="M6.96118 0.97998C5.4424 0.97998 4.21118 2.21119 4.21118 3.72998V3.84639C4.46373 3.78342 4.72796 3.75 5 3.75H5.71118V3.72998C5.71118 3.03962 6.27082 2.47998 6.96118 2.47998H7.58154V2.56407C7.58154 3.11636 8.02926 3.56407 8.58154 3.56407H11.4188C11.9711 3.56407 12.4188 3.11636 12.4188 2.56407V2.47998H13.0388C13.7291 2.47998 14.2888 3.03962 14.2888 3.72998V3.75H15C15.272 3.75 15.5362 3.78342 15.7888 3.84637V3.72998C15.7888 2.2112 14.5575 0.97998 13.0388 0.97998H6.96118Z" fill="#161823"/>
<path d="M4.21118 16.2572V12.1536C4.46373 12.2166 4.72796 12.25 5 12.25H5.71118V16.2572C5.71118 16.9475 6.27083 17.5072 6.96118 17.5072H13.0388C13.7291 17.5072 14.2888 16.9475 14.2888 16.2572V12.25H15C15.272 12.25 15.5362 12.2166 15.7888 12.1536V16.2572C15.7888 17.776 14.5575 19.0072 13.0388 19.0072H6.96118C5.4424 19.0072 4.21118 17.776 4.21118 16.2572Z" fill="#161823"/>
<path d="M5 5.25H15C15.9665 5.25 16.75 6.0335 16.75 7V9C16.75 9.9665 15.9665 10.75 15 10.75H5C4.0335 10.75 3.25 9.9665 3.25 9V7C3.25 6.0335 4.0335 5.25 5 5.25ZM4.75 7V9C4.75 9.13807 4.86193 9.25 5 9.25H15C15.1381 9.25 15.25 9.13807 15.25 9V7C15.25 6.86193 15.1381 6.75 15 6.75H5C4.86193 6.75 4.75 6.86193 4.75 7Z" fill="#161823"/>
</svg>
