<svg width="20" height="20" viewBox="0 0 20 20" fill="none" xmlns="http://www.w3.org/2000/svg">
<path d="M14.25 3H9.75C9.37695 3 9.04206 3.16342 8.81303 3.42258C8.77137 3.46971 8.7129 3.5 8.65 3.5H7.36793C7.23527 3.5 7.13942 3.37294 7.18771 3.24939C7.5879 2.22537 8.58424 1.5 9.75 1.5H14.25C15.7688 1.5 17 2.73122 17 4.25V12.25C17 13.6096 16.0134 14.7387 14.7171 14.9605C14.6012 14.9803 14.5 14.8875 14.5 14.77V13.6385C14.5 13.5434 14.5677 13.463 14.6576 13.432C15.1478 13.263 15.5 12.7976 15.5 12.25V4.25C15.5 3.55964 14.9404 3 14.25 3Z" fill="#161823"/>
<path d="M6.53333 13.1887V10.278C6.53333 9.89042 6.95514 9.65021 7.28843 9.84793L9.74176 11.3033C10.0683 11.497 10.0683 11.9696 9.74176 12.1633L7.28843 13.6187C6.95514 13.8164 6.53333 13.5762 6.53333 13.1887Z" fill="#161823"/>
<path d="M5.75 5C4.23122 5 3 6.23122 3 7.75V15.75C3 17.2688 4.23122 18.5 5.75 18.5H10.25C11.7688 18.5 13 17.2688 13 15.75V7.75C13 6.23122 11.7688 5 10.25 5H5.75ZM10.25 6.5C10.9404 6.5 11.5 7.05964 11.5 7.75V15.75C11.5 16.4404 10.9404 17 10.25 17H5.75C5.05964 17 4.5 16.4404 4.5 15.75V7.75C4.5 7.05964 5.05964 6.5 5.75 6.5H10.25Z" fill="#161823"/>
</svg>
