<svg width="20" height="20" viewBox="0 0 20 20" fill="none" xmlns="http://www.w3.org/2000/svg">
<path d="M6.88342 5.51666C6.88342 3.69327 8.1771 2.01666 10.0001 2.01666C11.8231 2.01666 13.1168 3.69327 13.1168 5.51666C13.1168 7.34005 11.8231 9.01666 10.0001 9.01666C8.1771 9.01666 6.88342 7.34005 6.88342 5.51666Z" fill="#161823"/>
<path d="M5.12311 11.8517C6.39575 10.9862 8.11645 10.5 10.0001 10.5C10.4846 10.5 10.9584 10.5322 11.4166 10.5947C11.5699 10.6156 11.5555 10.804 11.4009 10.8108C9.09078 10.9117 8.1441 13.8253 9.9537 15.2649L10.7869 15.9277L10.5024 16.9537C10.4261 17.2288 10.3971 17.4974 10.4083 17.7545C10.4136 17.8758 10.3208 17.9833 10.1993 17.9833H5.40007C4.05655 17.9833 2.9834 16.8773 2.9834 15.5515C2.9834 14.0064 3.84512 12.7208 5.12311 11.8517Z" fill="#161823"/>
<path d="M16.1158 10.2924C15.7919 9.42605 14.5664 9.42605 14.2425 10.2924L13.5219 12.2195L11.4664 12.3094C10.5423 12.3497 10.1637 13.5152 10.8875 14.091L12.4976 15.3718L11.9479 17.3545C11.7007 18.2458 12.6921 18.9661 13.4634 18.4556L15.1792 17.3201L16.8949 18.4556C17.6662 18.9661 18.6576 18.2458 18.4104 17.3545L17.8607 15.3718L19.4708 14.091C20.1946 13.5152 19.816 12.3497 18.8919 12.3094L16.8364 12.2195L16.1158 10.2924Z" fill="#161823"/>
</svg>
