<svg width="12" height="12" viewBox="0 0 12 12" fill="none" xmlns="http://www.w3.org/2000/svg">
<path fill-rule="evenodd" clip-rule="evenodd" d="M5.99972 0.745544C6.50035 0.745544 6.94837 1.05634 7.12371 1.52526L7.91575 3.64343L10.175 3.74215C10.6751 3.764 11.1092 4.09406 11.2639 4.57018C11.4186 5.04631 11.2614 5.56845 10.8697 5.88011L9.09992 7.28793L9.70417 9.46711C9.83794 9.94954 9.65816 10.4643 9.25315 10.7586C8.84813 11.0528 8.30299 11.0647 7.88552 10.7884L5.99972 9.54036L4.11392 10.7884C3.69644 11.0647 3.1513 11.0528 2.74629 10.7586C2.34127 10.4643 2.16149 9.94954 2.29526 9.46711L2.89952 7.28793L1.12977 5.88011C0.737988 5.56845 0.580852 5.04631 0.735554 4.57018C0.890257 4.09406 1.32429 3.764 1.82444 3.74215L4.08369 3.64343L4.87573 1.52526C5.05107 1.05634 5.49909 0.745544 5.99972 0.745544ZM4.92952 4.80761L1.87682 4.941L4.2681 6.84325L3.45163 9.78776L5.99972 8.10134L8.54781 9.78776L7.73133 6.84325L10.1226 4.941L7.06992 4.80761L5.99972 1.94554L4.92952 4.80761Z" fill="#161823"/>
</svg>
