<svg width="16" height="16" viewBox="0 0 16 16" fill="none" xmlns="http://www.w3.org/2000/svg">
<path d="M7.99967 14.6667C11.6816 14.6667 14.6663 11.6819 14.6663 8.00001C14.6663 4.31811 11.6816 1.33334 7.99967 1.33334C4.31778 1.33334 1.33301 4.31811 1.33301 8.00001C1.33301 11.6819 4.31778 14.6667 7.99967 14.6667ZM8.39005 11.2119C8.25364 11.304 8.10019 11.3859 7.99789 11.3859C7.89559 11.3859 7.74554 11.304 7.60914 11.2119C5.82909 10.0525 4.66626 8.67827 4.66626 7.29379C4.66626 6.04571 5.53241 5.20001 6.58271 5.20001C7.23744 5.20001 7.71826 5.84599 7.99789 6.37455C8.28433 5.84599 8.76174 5.20001 9.41647 5.20001C10.4668 5.20001 11.3329 6.04571 11.3329 7.29379C11.3329 8.67827 10.1701 10.0525 8.39005 11.2119Z" fill="#161823"/>
</svg>
