<svg width="16" height="16" viewBox="0 0 16 16" fill="none" xmlns="http://www.w3.org/2000/svg">
<path d="M1.24324 1.2424C1.47756 1.00809 1.85745 1.00809 2.09177 1.2424L3.29229 2.44292C3.45757 2.4147 3.62746 2.4 3.80078 2.4H12.2008C13.8576 2.4 15.2008 3.74315 15.2008 5.4V10.6C15.2008 11.6203 14.6914 12.5217 13.9131 13.0637L14.7584 13.9091C14.9928 14.1434 14.9928 14.5233 14.7584 14.7576C14.5241 14.9919 14.1442 14.9919 13.9099 14.7576L12.7094 13.5571C12.709 13.5571 12.7087 13.5572 12.7084 13.5572L9.79115 10.64H9.79231L8.25689 9.10458V9.10573L6.95908 7.80792L6.95846 7.80615L5.48193 6.32961L5.48245 6.3313L5.47865 6.3275H5.47981L4.77762 5.62531C4.77748 5.62555 4.77777 5.62508 4.77762 5.62531L2.0879 2.93674C2.08767 2.9369 2.08813 2.93659 2.0879 2.93674L1.24324 2.09093C1.00893 1.85662 1.00893 1.47672 1.24324 1.2424ZM12.585 7.97594C12.585 6.22984 11.7608 5.30797 10.2022 5.30797H8.96001C8.49126 5.30797 8.25689 5.53062 8.25689 5.98375V7.40752L9.31157 8.46221V6.16734H10.0694C11.0459 6.16734 11.5069 6.74547 11.5069 7.97594C11.5069 8.96994 11.2048 9.53794 10.565 9.71562L11.2935 10.4441C12.1427 10.0882 12.585 9.25216 12.585 7.97594Z" fill="#161823"/>
<path d="M1.25932 3.80522C0.96881 4.2672 0.800781 4.81398 0.800781 5.4V10.6C0.800781 12.2569 2.14393 13.6 3.80078 13.6H11.0541L7.73985 10.2857C7.71342 10.5324 7.52185 10.6869 7.24298 10.6869C6.95782 10.6869 6.79376 10.5384 6.68829 10.1752L6.38751 9.26891H4.51642L4.21954 10.1752C4.11017 10.5423 3.95392 10.6869 3.67267 10.6869C3.38361 10.6869 3.18439 10.5111 3.18439 10.2455C3.18439 10.14 3.21173 10.0189 3.27814 9.81969L4.3116 6.8575L1.25932 3.80522Z" fill="#161823"/>
<path d="M5.03529 7.58119L4.75079 8.48375H5.93785L5.03529 7.58119Z" fill="#161823"/>
</svg>
