<svg width="20" height="20" viewBox="0 0 20 20" fill="none" xmlns="http://www.w3.org/2000/svg">
<path d="M3.1543 10.0001C3.1543 6.21885 6.21958 3.15356 10.0008 3.15356C13.782 3.15356 16.8473 6.21885 16.8473 10.0001C16.8473 13.7813 13.782 16.8466 10.0008 16.8466C9.05319 16.8466 8.15237 16.6545 7.33367 16.3078C6.77749 16.0723 6.11771 15.9657 5.45938 16.139L3.42201 16.6752L3.94114 14.7378C4.12431 14.0542 4.00541 13.3682 3.74891 12.7955C3.36704 11.9429 3.1543 10.9973 3.1543 10.0001ZM10.0008 1.65356C5.39115 1.65356 1.6543 5.39042 1.6543 10.0001C1.6543 11.2127 1.91339 12.3669 2.37995 13.4086C2.53003 13.7437 2.56652 14.0724 2.49225 14.3496L1.89924 16.5627C1.63407 17.5523 2.53693 18.4592 3.52773 18.1985L5.84115 17.5896C6.1082 17.5193 6.42385 17.5515 6.74881 17.6891C7.7492 18.1127 8.84864 18.3466 10.0008 18.3466C14.6104 18.3466 18.3473 14.6097 18.3473 10.0001C18.3473 5.39042 14.6104 1.65356 10.0008 1.65356ZM9.70535 5.66895C10.0532 5.58034 10.4071 5.79052 10.4957 6.1384L10.7629 7.18778H13.5377C13.8966 7.18778 14.1877 7.47879 14.1877 7.83778C14.1877 8.19676 13.8966 8.48778 13.5377 8.48778H12.6633C12.5022 9.35963 12.0115 10.5524 11.001 11.6344C11.6617 12.1104 12.4661 12.4908 13.4334 12.6808C13.7857 12.75 14.0152 13.0916 13.946 13.4439C13.8768 13.7961 13.5351 14.0256 13.1829 13.9564C11.8939 13.7032 10.8475 13.1741 10.0101 12.5194C9.21657 13.1107 8.21601 13.6178 6.96715 13.9471C6.62003 14.0387 6.26443 13.8315 6.17288 13.4844C6.08133 13.1373 6.28852 12.7816 6.63563 12.6901C7.6136 12.4322 8.40455 12.0524 9.04019 11.6141C8.0764 10.5463 7.52297 9.35051 7.27675 8.48778H6.55838C6.19939 8.48778 5.90838 8.19676 5.90838 7.83778C5.90838 7.47879 6.19939 7.18778 6.55838 7.18778H9.42144L9.23589 6.45927C9.14729 6.11139 9.35747 5.75755 9.70535 5.66895ZM11.3332 8.48778H8.64126C8.8853 9.16432 9.33137 10.0073 10.0297 10.7689C10.785 9.96998 11.1725 9.11601 11.3332 8.48778Z" fill="#161823"/>
</svg>
