<svg width="20" height="20" viewBox="0 0 20 20" fill="none" xmlns="http://www.w3.org/2000/svg">
<path d="M5.13758 2.33325H14.8624C15.5487 2.33325 16.1987 2.68543 16.5618 3.29067C16.8518 3.7741 17.3141 4.56523 17.7067 5.33239C17.9023 5.71473 18.0893 6.10764 18.2297 6.46262C18.3534 6.77525 18.5 7.19813 18.5 7.58325C18.5 9.03375 17.2871 10.3333 15.75 10.3333C15.0045 10.3333 14.3285 10.0368 13.8333 9.55525C13.3381 10.0368 12.6622 10.3333 11.9167 10.3333C11.1712 10.3333 10.4952 10.0368 10 9.55526C9.50481 10.0368 8.82885 10.3333 8.08334 10.3333C7.33782 10.3333 6.66187 10.0368 6.16667 9.55525C5.67147 10.0368 4.99552 10.3333 4.25 10.3333C2.71294 10.3333 1.5 9.03375 1.5 7.58325C1.5 7.19813 1.64665 6.77525 1.77032 6.46263C1.91074 6.10764 2.09766 5.71474 2.29333 5.33239C2.68594 4.56523 3.14819 3.7741 3.43819 3.29067C3.80126 2.68543 4.4513 2.33325 5.13758 2.33325Z" fill="#161823"/>
<path d="M3.75 15.7083V11.8502C3.83189 11.8547 3.91445 11.857 3.99763 11.857C4.71876 11.857 5.39951 11.6854 6.00142 11.3808C6.60332 11.6854 7.28408 11.857 8.00521 11.857C8.72633 11.857 9.40708 11.6855 10.009 11.3808C10.6109 11.6855 11.2916 11.857 12.0128 11.857C12.7339 11.857 13.4147 11.6854 14.0166 11.3808C14.6185 11.6854 15.2992 11.857 16.0204 11.857C16.0974 11.857 16.174 11.8551 16.25 11.8511V15.7083C16.25 16.8128 15.3546 17.7083 14.25 17.7083H5.75C4.64543 17.7083 3.75 16.8128 3.75 15.7083Z" fill="#161823"/>
</svg>
