<svg width="24" height="24" viewBox="0 0 24 24" fill="none" xmlns="http://www.w3.org/2000/svg">
<path d="M14.7954 19.6977C14.4923 19.6977 14.219 19.8801 14.1028 20.16C13.9865 20.44 14.0502 20.7623 14.2642 20.9771L16.4566 23.1774C16.749 23.4708 17.2239 23.4717 17.5173 23.1793C17.8107 22.8869 17.8116 22.4121 17.5192 22.1186L16.6015 21.1977H22.3011C22.7153 21.1977 23.0511 20.8619 23.0511 20.4477C23.0511 20.0335 22.7153 19.6977 22.3011 19.6977H14.7954Z" fill="#161823"/>
<path d="M12.5582 20.6956C12.5465 20.5873 12.4586 20.5 12.3497 20.5H5.5C4.94772 20.5 4.5 20.0523 4.5 19.5V18.7273C4.5 16.1165 7.78125 14 12 14C13.9335 14 15.6701 14.4446 16.9842 15.1776C17.0144 15.1944 17.0482 15.2034 17.0828 15.2034H17.6644C17.7728 15.2034 17.8606 15.1167 17.8727 15.0089C17.9057 14.7142 17.9968 14.4248 18.1461 14.1593C18.1541 14.145 18.1497 14.127 18.1359 14.1182C16.5086 13.0852 14.3437 12.5 12 12.5C9.6563 12.5 7.49136 13.0852 5.86408 14.1182C4.25055 15.1424 3 16.7372 3 18.7273V19.5C3 20.8807 4.11929 22 5.5 22H12.6952C12.8707 22 12.9693 21.7819 12.8775 21.6324C12.7017 21.3459 12.5936 21.0253 12.5582 20.6956Z" fill="#161823"/>
<path d="M15.9998 6.5C15.9998 8.98528 14.2089 11 11.9998 11C9.79067 11 7.9998 8.98528 7.9998 6.5C7.9998 4.01472 9.79067 2 11.9998 2C14.2089 2 15.9998 4.01472 15.9998 6.5ZM14.4998 6.5C14.4998 4.67217 13.2193 3.5 11.9998 3.5C10.7803 3.5 9.4998 4.67217 9.4998 6.5C9.4998 8.32783 10.7803 9.5 11.9998 9.5C13.2193 9.5 14.4998 8.32783 14.4998 6.5Z" fill="#161823"/>
<path d="M22.9942 17.7342C22.8783 18.0147 22.6046 18.1977 22.3011 18.1977H14.8011C14.3869 18.1977 14.0511 17.8619 14.0511 17.4477C14.0511 17.0335 14.3869 16.6977 14.8011 16.6977H20.4871L19.579 15.7919C19.2857 15.4994 19.2851 15.0245 19.5776 14.7313C19.8701 14.438 20.345 14.4374 20.6383 14.7299L22.8308 16.9167C23.0457 17.131 23.1102 17.4537 22.9942 17.7342Z" fill="#161823"/>
</svg>
