<svg width="20" height="20" viewBox="0 0 20 20" fill="none" xmlns="http://www.w3.org/2000/svg">
<path d="M6.10672 2.16675C4.59801 2.16675 3.25493 3.00672 2.76058 4.25944L2.13968 5.83282C1.75469 6.80843 1.6492 8.20175 2.82519 9.03442C3.30822 9.37643 3.96281 9.66675 4.7798 9.66675C6.03363 9.66675 6.89443 8.99212 7.382 8.45939C7.86491 8.99588 8.7217 9.66675 9.99995 9.66675C11.2698 9.66675 12.1295 8.99098 12.6142 8.45533C13.1014 8.98899 13.9633 9.66675 15.2201 9.66675C16.0371 9.66675 16.6917 9.37643 17.1747 9.03442C18.3507 8.20175 18.2452 6.80843 17.8602 5.83282L17.2393 4.25944C16.745 3.00672 15.4019 2.16675 13.8932 2.16675H6.10672Z" fill="#161823"/>
<path fill-rule="evenodd" clip-rule="evenodd" d="M7.37906 10.1079C6.73354 10.548 5.86824 10.9167 4.7798 10.9167C4.12133 10.9167 3.54007 10.7791 3.04167 10.5735V14.2917C3.04167 16.2478 4.62732 17.8334 6.58333 17.8334H13.4167C15.3727 17.8334 16.9583 16.2478 16.9583 14.2917V10.5735C16.4599 10.7791 15.8786 10.9167 15.2201 10.9167C14.1289 10.9167 13.2619 10.5461 12.6158 10.1045C11.9681 10.5474 11.0986 10.9167 9.99995 10.9167C8.89764 10.9167 8.02746 10.5505 7.37906 10.1079ZM8.54167 15.0001C8.54167 14.6549 8.82149 14.3751 9.16667 14.3751H10.8333C11.1785 14.3751 11.4583 14.6549 11.4583 15.0001C11.4583 15.3453 11.1785 15.6251 10.8333 15.6251H9.16667C8.82149 15.6251 8.54167 15.3453 8.54167 15.0001Z" fill="#161823"/>
</svg>
