<svg width="20" height="20" viewBox="0 0 20 20" fill="none" xmlns="http://www.w3.org/2000/svg">
<path d="M2.50033 6.66666C2.04009 6.66666 1.66699 7.03976 1.66699 7.49999V12.5C1.66699 12.9602 2.04009 13.3333 2.50033 13.3333H5.30589C5.64933 13.3333 5.98439 13.4394 6.26523 13.6371L10.354 16.5152C10.9061 16.9038 11.667 16.5089 11.667 15.8338V4.17243C11.667 3.4976 10.9068 3.10262 10.3546 3.49055L6.26482 6.36376C5.98422 6.56088 5.64965 6.66666 5.30673 6.66666H2.50033Z" fill="#161823"/>
<path d="M15.3674 5.10919C15.6278 4.84884 16.0499 4.84884 16.3102 5.10919C16.9525 5.75146 17.462 6.51395 17.8096 7.35312C18.1572 8.19229 18.3361 9.09171 18.3361 10C18.3361 10.9083 18.1572 11.8077 17.8096 12.6469C17.462 13.4861 16.9525 14.2486 16.3102 14.8908C16.0499 15.1512 15.6278 15.1512 15.3674 14.8908C15.1071 14.6305 15.1071 14.2084 15.3674 13.948C15.8859 13.4296 16.2971 12.8141 16.5777 12.1367C16.8583 11.4593 17.0027 10.7332 17.0027 10C17.0027 9.2668 16.8583 8.54077 16.5777 7.86336C16.2971 7.18596 15.8859 6.57046 15.3674 6.052C15.1071 5.79165 15.1071 5.36954 15.3674 5.10919Z" fill="#161823"/>
<path d="M13.305 7.17157C13.5654 6.91122 13.9875 6.91122 14.2478 7.17157C14.6193 7.543 14.9139 7.98396 15.1149 8.46926C15.3159 8.95457 15.4194 9.47471 15.4194 10C15.4194 10.5253 15.3159 11.0454 15.1149 11.5307C14.9139 12.016 14.6193 12.457 14.2478 12.8284C13.9875 13.0888 13.5654 13.0888 13.305 12.8284C13.0447 12.5681 13.0447 12.146 13.305 11.8856C13.5526 11.638 13.7491 11.344 13.8831 11.0205C14.0171 10.697 14.0861 10.3502 14.0861 10C14.0861 9.6498 14.0171 9.30304 13.8831 8.97951C13.7491 8.65597 13.5526 8.362 13.305 8.11438C13.0447 7.85403 13.0447 7.43192 13.305 7.17157Z" fill="#161823"/>
</svg>
