<svg width="20" height="20" viewBox="0 0 20 20" fill="none" xmlns="http://www.w3.org/2000/svg">
<path d="M5.75 2.00049C3.67893 2.00049 2 3.67942 2 5.75049V14.2505C2 16.3216 3.67893 18.0005 5.75 18.0005H14.25C16.3211 18.0005 18 16.3216 18 14.2505V5.75049C18 3.67942 16.3211 2.00049 14.25 2.00049H5.75ZM3.5 5.75049C3.5 4.50785 4.50736 3.50049 5.75 3.50049H14.25C15.4926 3.50049 16.5 4.50785 16.5 5.75049V14.2505C16.5 15.4931 15.4926 16.5005 14.25 16.5005H5.75C4.50736 16.5005 3.5 15.4931 3.5 14.2505V5.75049Z" fill="#161823"/>
<path d="M7.68172 7C8.56067 7 9.3561 7.3361 9.93199 7.88L8.80725 8.9408C8.58491 8.73074 8.3015 8.58759 7.99288 8.52947C7.68427 8.47135 7.3643 8.50087 7.07347 8.61429C6.78265 8.72771 6.53402 8.91994 6.35905 9.16666C6.18408 9.41338 6.09063 9.7035 6.09052 10.0003C6.09041 10.2971 6.18364 10.5873 6.35843 10.8342C6.53321 11.081 6.78169 11.2734 7.07244 11.387C7.36318 11.5006 7.68312 11.5303 7.99178 11.4724C8.30044 11.4145 8.58396 11.2716 8.80646 11.0616L9.9312 12.1224C9.48608 12.5416 8.91924 12.827 8.30226 12.9425C7.68529 13.0581 7.04585 12.9986 6.46471 12.7716C5.88357 12.5445 5.38678 12.1602 5.0371 11.6671C4.68741 11.1739 4.50051 10.5941 4.5 10.0008C4.5 8.34438 5.92541 7 7.68172 7ZM13.2497 7C14.1287 7 14.9241 7.3361 15.5 7.88L14.3753 8.9408C14.1529 8.73074 13.8695 8.58759 13.5609 8.52947C13.2523 8.47135 12.9323 8.50087 12.6415 8.61429C12.3507 8.72771 12.102 8.91994 11.9271 9.16666C11.7521 9.41338 11.6586 9.7035 11.6585 10.0003C11.6584 10.2971 11.7517 10.5873 11.9264 10.8342C12.1012 11.081 12.3497 11.2734 12.6404 11.387C12.9312 11.5006 13.2511 11.5303 13.5598 11.4724C13.8685 11.4145 14.152 11.2716 14.3745 11.0616L15.4992 12.1224C15.0541 12.5416 14.4872 12.827 13.8703 12.9425C13.2533 13.0581 12.6139 12.9986 12.0327 12.7716C11.4516 12.5445 10.9548 12.1602 10.6051 11.6671C10.2554 11.1739 10.0685 10.5941 10.068 10.0008C10.068 8.34438 11.4934 7 13.2497 7Z" fill="#161823"/>
</svg>
