<svg width="24" height="24" viewBox="0 0 24 24" fill="none" xmlns="http://www.w3.org/2000/svg">
<path fill-rule="evenodd" clip-rule="evenodd" d="M6.46083 2.5C5.34542 2.5 4.3309 3.15007 3.83757 4.19646C3.56338 4.77804 3.23394 5.51139 2.92254 6.2939C2.85025 6.47555 2.78449 6.64686 2.72466 6.80819C2.69962 6.87572 2.66462 6.94949 2.61636 7.03988C2.29683 7.63843 2.11621 8.32987 2.11621 9.06212C2.11621 11.2478 3.75495 13.1333 5.91066 13.1333C7.1639 13.1333 8.25226 12.4862 8.93497 11.5217C9.62687 12.5133 10.7455 13.1333 11.9995 13.1333C13.2527 13.1333 14.3411 12.4862 15.0238 11.5218C15.7157 12.5134 16.8344 13.1333 18.0884 13.1333C20.2441 13.1333 21.8829 11.2478 21.8829 9.06212C21.8829 8.34958 21.7119 7.67567 21.4082 7.0884C21.3726 7.01952 21.3451 6.96132 21.3238 6.90773C21.2433 6.70545 21.1511 6.48911 21.0455 6.25873L20.1543 4.31419C19.6567 3.22847 18.6149 2.5 17.4304 2.5H6.46083ZM5.19435 4.83612C5.44768 4.29878 5.94373 4 6.46083 4H17.4304C17.9756 4 18.5148 4.337 18.7907 4.93915L19.6819 6.8837C19.7771 7.09136 19.8592 7.28419 19.93 7.46218C19.9763 7.57864 20.0279 7.68473 20.0758 7.77731C20.2699 8.15275 20.3829 8.59057 20.3829 9.06212C20.3829 10.5449 19.2955 11.6333 18.0884 11.6333C17.2448 11.6333 16.4909 11.163 16.0908 10.3938L15.9689 10.1279C15.6014 9.32599 14.4942 9.31861 14.113 10.1057L13.985 10.3505L13.9842 10.3521C13.5735 11.1423 12.8214 11.6333 11.9995 11.6333C11.156 11.6333 10.4022 11.163 10.002 10.3938L9.88014 10.1279C9.51264 9.32604 8.40552 9.31862 8.02433 10.1056L7.89634 10.3501L7.89537 10.352C7.48464 11.1422 6.73259 11.6333 5.91066 11.6333C4.70356 11.6333 3.61621 10.5449 3.61621 9.06212C3.61621 8.57754 3.73553 8.12857 3.9396 7.74631C4.00314 7.6273 4.07281 7.48685 4.13107 7.32975C4.18667 7.17982 4.24819 7.01953 4.31624 6.84852C4.6131 6.10256 4.92917 5.39857 5.19435 4.83612Z" fill="#161823"/>
<path d="M20.2992 14.8315C20.3533 14.4208 20.0643 14.0441 19.6536 13.9899C19.243 13.9358 18.8662 14.2248 18.812 14.6355L18.1612 19.5725C18.1242 19.7468 17.9818 19.9694 17.6573 20.167C17.329 20.3668 16.8664 20.5035 16.3379 20.5035H7.60353C7.06936 20.5035 6.6032 20.3639 6.27472 20.1612C5.94848 19.9598 5.81031 19.7344 5.77777 19.56L5.18437 14.6436C5.13473 14.2324 4.76113 13.9393 4.3499 13.9889C3.93867 14.0385 3.64554 14.4121 3.69518 14.8234L4.29081 19.7582C4.29203 19.7683 4.29344 19.7783 4.29506 19.7883C4.41279 20.5149 4.90186 21.0765 5.48686 21.4376C6.07687 21.8018 6.82165 22.0035 7.60353 22.0035H16.3379C17.1118 22.0035 17.8498 21.8058 18.4371 21.4483C19.0194 21.094 19.509 20.5432 19.6396 19.8278C19.6418 19.8156 19.6438 19.8034 19.6454 19.7911L20.2992 14.8315Z" fill="#161823"/>
<path d="M10.1514 15.4756C9.92809 15.1207 9.45938 15.014 9.1045 15.2373C8.74961 15.4606 8.64293 15.9293 8.86622 16.2842C9.51724 17.3189 10.6699 18.0102 11.9852 18.0102C13.3005 18.0102 14.4531 17.3189 15.1041 16.2842C15.3274 15.9293 15.2208 15.4606 14.8659 15.2373C14.511 15.014 14.0423 15.1207 13.819 15.4756C13.4333 16.0886 12.7554 16.4918 11.9852 16.4918C11.215 16.4918 10.5371 16.0886 10.1514 15.4756Z" fill="#161823"/>
</svg>
