<svg width="24" height="24" viewBox="0 0 24 24" fill="none" xmlns="http://www.w3.org/2000/svg">
<path d="M6.75003 3.5C6.54434 3.5 6.34205 3.51461 6.14417 3.54286C5.97928 3.56639 5.84746 3.40072 5.93777 3.26077C6.42735 2.5022 7.28004 2 8.25003 2H15.75C16.72 2 17.5727 2.5022 18.0623 3.26077C18.1526 3.40072 18.0208 3.56639 17.8559 3.54286C17.658 3.51461 17.4557 3.5 17.25 3.5H6.75003Z" fill="#161823"/>
<path fill-rule="evenodd" clip-rule="evenodd" d="M4 7.75C4 6.23122 5.23122 5 6.75 5H17.25C18.7688 5 20 6.23122 20 7.75V19.25C20 20.7688 18.7688 22 17.25 22H6.75C5.23122 22 4 20.7688 4 19.25V7.75ZM14.9252 12.8722C15.3613 13.17 15.3613 13.8133 14.9252 14.111L10.9355 16.8349C10.4376 17.1748 9.76257 16.8183 9.76257 16.2155V10.7678C9.76257 10.165 10.4376 9.80848 10.9355 10.1484L14.9252 12.8722Z" fill="#161823"/>
</svg>
