<svg width="24" height="24" viewBox="0 0 24 24" fill="none" xmlns="http://www.w3.org/2000/svg">
<path d="M5.75 3C4.23122 3 3 4.23122 3 5.75V8.25C3 9.76878 4.23122 11 5.75 11H8.25C9.76878 11 11 9.76878 11 8.25V5.75C11 4.23122 9.76878 3 8.25 3H5.75ZM4.5 5.75C4.5 5.05964 5.05964 4.5 5.75 4.5H8.25C8.94036 4.5 9.5 5.05964 9.5 5.75V8.25C9.5 8.94036 8.94036 9.5 8.25 9.5H5.75C5.05964 9.5 4.5 8.94036 4.5 8.25V5.75Z" fill="#161823"/>
<path d="M15.75 3C14.2312 3 13 4.23122 13 5.75V8.25C13 9.76878 14.2312 11 15.75 11H18.25C19.7688 11 21 9.76878 21 8.25V5.75C21 4.23122 19.7688 3 18.25 3H15.75ZM14.5 5.75C14.5 5.05964 15.0596 4.5 15.75 4.5H18.25C18.9404 4.5 19.5 5.05964 19.5 5.75V8.25C19.5 8.94036 18.9404 9.5 18.25 9.5H15.75C15.0596 9.5 14.5 8.94036 14.5 8.25V5.75Z" fill="#161823"/>
<path d="M3 15.75C3 14.2312 4.23122 13 5.75 13H8.25C9.76878 13 11 14.2312 11 15.75V18.25C11 19.7688 9.76878 21 8.25 21H5.75C4.23122 21 3 19.7688 3 18.25V15.75ZM5.75 14.5C5.05964 14.5 4.5 15.0596 4.5 15.75V18.25C4.5 18.9404 5.05964 19.5 5.75 19.5H8.25C8.94036 19.5 9.5 18.9404 9.5 18.25V15.75C9.5 15.0596 8.94036 14.5 8.25 14.5H5.75Z" fill="#161823"/>
<path d="M14.75 14C14.75 13.5858 14.4142 13.25 14 13.25C13.5858 13.25 13.25 13.5858 13.25 14V15.5C13.25 15.9142 13.5858 16.25 14 16.25C14.4142 16.25 14.75 15.9142 14.75 15.5V14Z" fill="#161823"/>
<path d="M14.75 18.5C14.75 18.0858 14.4142 17.75 14 17.75C13.5858 17.75 13.25 18.0858 13.25 18.5V20C13.25 20.4142 13.5858 20.75 14 20.75C14.4142 20.75 14.75 20.4142 14.75 20V18.5Z" fill="#161823"/>
<path d="M20 13.25C20.4142 13.25 20.75 13.5858 20.75 14V15.5C20.75 15.9142 20.4142 16.25 20 16.25C19.5858 16.25 19.25 15.9142 19.25 15.5V14C19.25 13.5858 19.5858 13.25 20 13.25Z" fill="#161823"/>
<path d="M20 17.75C20.4142 17.75 20.75 18.0858 20.75 18.5V20C20.75 20.4142 20.4142 20.75 20 20.75C19.5858 20.75 19.25 20.4142 19.25 20V18.5C19.25 18.0858 19.5858 17.75 20 17.75Z" fill="#161823"/>
<path d="M17.75 14C17.75 13.5858 17.4142 13.25 17 13.25C16.5858 13.25 16.25 13.5858 16.25 14V20C16.25 20.4142 16.5858 20.75 17 20.75C17.4142 20.75 17.75 20.4142 17.75 20V14Z" fill="#161823"/>
</svg>
