<svg width="24" height="24" viewBox="0 0 24 24" fill="none" xmlns="http://www.w3.org/2000/svg">
<path d="M10.2468 5.37075C11.3189 4.3037 12.7969 3.6442 14.4289 3.6442C17.7031 3.6442 20.3573 6.29839 20.3573 9.57251C20.3573 11.198 19.7031 12.6707 18.6436 13.7417C18.6571 13.9434 18.664 14.147 18.664 14.3522C18.664 14.8275 18.6271 15.2943 18.5561 15.7497C20.5467 14.4171 21.8573 12.1479 21.8573 9.57251C21.8573 5.46997 18.5315 2.1442 14.4289 2.1442C11.8454 2.1442 9.56992 3.46311 8.23906 5.46435C8.70316 5.39052 9.17908 5.35218 9.66396 5.35218C9.85978 5.35218 10.0541 5.35843 10.2468 5.37075Z" fill="#161823"/>
<path d="M9.66406 8.35218C6.35035 8.35218 3.66406 11.0385 3.66406 14.3522C3.66406 17.6659 6.35035 20.3522 9.66406 20.3522C12.9778 20.3522 15.6641 17.6659 15.6641 14.3522C15.6641 11.0385 12.9778 8.35218 9.66406 8.35218ZM2.16406 14.3522C2.16406 10.21 5.52193 6.85218 9.66406 6.85218C13.8062 6.85218 17.1641 10.21 17.1641 14.3522C17.1641 18.4943 13.8062 21.8522 9.66406 21.8522C5.52193 21.8522 2.16406 18.4943 2.16406 14.3522Z" fill="#161823"/>
<path d="M7.22469 14.1647C7.81034 14.1647 8.28512 13.5317 8.28512 12.7508C8.28512 11.9699 7.81034 11.3369 7.22469 11.3369C6.63903 11.3369 6.16426 11.9699 6.16426 12.7508C6.16426 13.5317 6.63903 14.1647 7.22469 14.1647Z" fill="#161823"/>
<path d="M12.1733 14.1647C12.7589 14.1647 13.2337 13.5317 13.2337 12.7508C13.2337 11.9699 12.7589 11.3369 12.1733 11.3369C11.5876 11.3369 11.1128 11.9699 11.1128 12.7508C11.1128 13.5317 11.5876 14.1647 12.1733 14.1647Z" fill="#161823"/>
<path d="M9.69921 17.3675C8.52789 17.3675 7.57835 16.6893 7.57835 15.8526C7.57835 15.016 11.8201 15.016 11.8201 15.8526C11.8201 16.6893 10.8705 17.3675 9.69921 17.3675Z" fill="#161823"/>
</svg>
