<svg width="16" height="16" viewBox="0 0 16 16" fill="none" xmlns="http://www.w3.org/2000/svg">
<path fill-rule="evenodd" clip-rule="evenodd" d="M8.19905 1.92251C8.49583 1.59007 8.92032 1.39999 9.36596 1.39999C10.4158 1.39999 11.1676 2.41366 10.8629 3.4183L10.2246 5.52263H13.4371C14.1366 5.52263 14.7037 6.08974 14.7037 6.7893V7.94695C14.7037 8.27874 14.6402 8.60747 14.5166 8.91539L13.2699 12.0218L15.2238 13.9757C15.4581 14.2101 15.4581 14.5899 15.2238 14.8243C14.9895 15.0586 14.6096 15.0586 14.3752 14.8243L2.37525 2.82426C2.14093 2.58995 2.14093 2.21005 2.37525 1.97574C2.60956 1.74142 2.98946 1.74142 3.22378 1.97574L5.82728 4.57924L8.19905 1.92251ZM6.67717 5.42913L12.3471 11.0991L13.403 8.46842C13.4695 8.30261 13.5037 8.12561 13.5037 7.94695V6.7893C13.5037 6.75248 13.4739 6.72263 13.4371 6.72263H9.41563C9.22564 6.72263 9.04689 6.63265 8.93371 6.48006C8.82053 6.32746 8.78631 6.13028 8.84146 5.94848L9.71454 3.06999C9.7855 2.83604 9.61043 2.59999 9.36596 2.59999C9.26219 2.59999 9.16334 2.64426 9.09423 2.72167L6.67717 5.42913Z" fill="#161823"/>
<path fill-rule="evenodd" clip-rule="evenodd" d="M10.9272 12.9763L11.9843 14.0334C11.7807 14.1258 11.5561 14.1763 11.3232 14.1763L3.24909 14.1762C2.54953 14.1762 1.98242 13.6091 1.98242 12.9096V6.7893C1.98242 6.08974 2.54953 5.52263 3.24909 5.52263H3.47352L5.85373 7.90284V12.9762L10.9272 12.9763ZM4.65373 6.72263H3.24909C3.21227 6.72263 3.18242 6.75248 3.18242 6.7893V12.9096C3.18242 12.9464 3.21227 12.9762 3.24909 12.9762H4.65373V6.72263Z" fill="#161823"/>
</svg>
