<svg width="20" height="20" viewBox="0 0 20 20" fill="none" xmlns="http://www.w3.org/2000/svg">
<path d="M11.4547 5.39475C11.5694 4.72406 10.6815 4.37887 10.3131 4.95097L6.60847 10.7043C6.37728 11.0633 6.6043 11.5402 7.02875 11.5871L9.07199 11.8129L8.59318 14.6112C8.47813 15.2836 9.36996 15.6278 9.73641 15.0523L13.3904 9.31462C13.6188 8.95584 13.3922 8.48178 12.9695 8.43434L10.9729 8.21027L11.4547 5.39475Z" fill="#161823"/>
<path d="M18.3337 9.99984C18.3337 14.6022 14.6027 18.3332 10.0003 18.3332C5.39795 18.3332 1.66699 14.6022 1.66699 9.99984C1.66699 5.39746 5.39795 1.6665 10.0003 1.6665C14.6027 1.6665 18.3337 5.39746 18.3337 9.99984ZM16.8337 9.99984C16.8337 6.22589 13.7743 3.1665 10.0003 3.1665C6.22638 3.1665 3.16699 6.22589 3.16699 9.99984C3.16699 13.7738 6.22638 16.8332 10.0003 16.8332C13.7743 16.8332 16.8337 13.7738 16.8337 9.99984Z" fill="#161823"/>
</svg>
