<svg width="24" height="24" viewBox="0 0 24 24" fill="none" xmlns="http://www.w3.org/2000/svg">
<path d="M6.64126 3.05944C6.94874 2.7819 6.97302 2.30765 6.69548 2.00017C6.41794 1.69268 5.94369 1.66841 5.63621 1.94594C4.49682 2.97437 3.60728 4.27569 3.0709 5.74811C2.92912 6.13731 3.12969 6.56775 3.51888 6.70952C3.90808 6.8513 4.33851 6.65073 4.48029 6.26154C4.93138 5.02328 5.68031 3.92681 6.64126 3.05944Z" fill="#161823"/>
<path d="M17.2996 2.00017C17.022 2.30765 17.0463 2.7819 17.3538 3.05944C18.3148 3.92681 19.0637 5.02328 19.5148 6.26154C19.6565 6.65073 20.087 6.8513 20.4762 6.70952C20.8654 6.56775 21.0659 6.13731 20.9242 5.74811C20.3878 4.27569 19.4982 2.97437 18.3588 1.94594C18.0514 1.66841 17.5771 1.69268 17.2996 2.00017Z" fill="#161823"/>
<path d="M11.9995 1.99997C12.8573 1.99997 13.5889 2.53997 13.873 3.29857C16.2692 4.08567 17.9995 6.33981 17.9995 8.99997V10.9941C17.9995 12.1175 18.3152 13.2183 18.9106 14.171L20.1084 16.0875C20.6288 16.92 20.0302 18 19.0484 18H4.95055C3.96876 18 3.3702 16.92 3.89055 16.0875L5.08837 14.171C5.68378 13.2183 5.99948 12.1175 5.99948 10.9941V8.99997C5.99948 6.33981 7.72981 4.08567 10.1259 3.29857C10.4101 2.53997 11.1417 1.99997 11.9995 1.99997Z" fill="#161823"/>
<path d="M8.56152 19.5C9.14019 20.8244 10.4617 21.75 11.9995 21.75C13.5372 21.75 14.8588 20.8244 15.4375 19.5H8.56152Z" fill="#161823"/>
</svg>
