<svg width="20" height="20" viewBox="0 0 20 20" fill="none" xmlns="http://www.w3.org/2000/svg">
<path d="M10 7.66666C9.14869 7.66666 8.16667 6.83027 8.16667 5.41666C8.16667 4.00304 9.14869 3.16666 10 3.16666C10.8513 3.16666 11.8333 4.00304 11.8333 5.41666C11.8333 6.83027 10.8513 7.66666 10 7.66666ZM10 9.16666C11.841 9.16666 13.3333 7.48772 13.3333 5.41666C13.3333 3.34559 11.841 1.66666 10 1.66666C8.15905 1.66666 6.66667 3.34559 6.66667 5.41666C6.66667 7.48772 8.15905 9.16666 10 9.16666ZM10.4996 18.3626C10.5063 18.4809 10.4139 18.5833 10.2955 18.5833H4.58333C3.29467 18.5833 2.25 17.5387 2.25 16.25V15.6061C2.25 13.8335 3.36383 12.4357 4.75275 11.5541C6.15542 10.6637 8.00786 10.1667 10 10.1667C10.6789 10.1667 11.3416 10.2244 11.9758 10.3357C12.1074 10.3588 12.1761 10.5038 12.1214 10.6256C11.9812 10.9377 11.8775 11.2697 11.8158 11.6163C11.7957 11.7293 11.6891 11.8076 11.5758 11.7895C11.0743 11.7093 10.5466 11.6667 10 11.6667C6.48438 11.6667 3.75 13.4304 3.75 15.6061V16.25C3.75 16.7102 4.1231 17.0833 4.58333 17.0833H10.3C10.4105 17.0833 10.5 17.1729 10.4985 17.2833C10.4935 17.642 10.4794 18.0046 10.4996 18.3626ZM13.25 12.3597C13.25 10.8409 14.4812 9.60968 16 9.60968C17.5188 9.60968 18.75 10.8409 18.75 12.3597V13.5725C19.4729 13.7876 20 14.4572 20 15.25V18.25C20 19.2165 19.2165 20 18.25 20H13.75C12.7835 20 12 19.2165 12 18.25V15.25C12 14.4572 12.5271 13.7876 13.25 13.5725V12.3597ZM17.25 12.3597C17.25 11.6693 16.6904 11.1097 16 11.1097C15.3096 11.1097 14.75 11.6693 14.75 12.3597V13.5H17.25V12.3597ZM13.75 15C13.6119 15 13.5 15.1119 13.5 15.25V18.25C13.5 18.3881 13.6119 18.5 13.75 18.5H18.25C18.3881 18.5 18.5 18.3881 18.5 18.25V15.25C18.5 15.1119 18.3881 15 18.25 15H13.75Z" fill="#161823"/>
</svg>
