<svg width="24" height="24" viewBox="0 0 24 24" fill="none" xmlns="http://www.w3.org/2000/svg">
<path fill-rule="evenodd" clip-rule="evenodd" d="M21.8906 7.16075C22.6626 4.55957 20.255 2.1519 17.6538 2.92389L4.42987 6.84854C1.43845 7.73634 1.0709 11.8278 3.85917 13.2013L7.57525 15.0319C8.53454 15.5044 9.31014 16.28 9.78268 17.2393L11.6132 20.9554C12.9867 23.7436 17.0782 23.3761 17.966 20.3847L21.8906 7.16075ZM18.2002 4.79858C19.3149 4.46773 20.3468 5.49959 20.016 6.61438L16.0913 19.8383C15.7108 21.1203 13.9573 21.2779 13.3687 20.0829L11.5381 16.3668C11.4134 16.1136 11.2736 15.8696 11.1199 15.6358L13.9878 11.6287C14.1515 11.4 14.1257 11.0864 13.9268 10.8875C13.7279 10.6886 13.4144 10.6628 13.1856 10.8265L9.17851 13.6945C8.9448 13.5408 8.70083 13.4011 8.44774 13.2764L4.73166 11.4458C3.53668 10.8572 3.69421 9.10372 4.97624 8.72323L18.2002 4.79858Z" fill="#161823"/>
</svg>
