<svg width="20" height="20" viewBox="0 0 20 20" fill="none" xmlns="http://www.w3.org/2000/svg">
<path d="M1.97016 1.96967C2.26305 1.67678 2.73793 1.67678 3.03082 1.96967L5.78929 4.72814C6.96805 4.14424 8.36824 3.75 10.0005 3.75C15.3606 3.75 18.2243 8.0138 18.9549 9.26808C19.2194 9.72214 19.2194 10.2779 18.9549 10.7319C18.5369 11.4495 17.4209 13.1519 15.5387 14.4776L18.0308 16.9697C18.3237 17.2626 18.3237 17.7374 18.0308 18.0303C17.7651 18.2961 17.3495 18.3207 17.056 18.1042L3.44744 4.49567C3.4203 4.46853 3.3916 4.4439 3.36162 4.42179L1.97016 3.03033C1.67726 2.73744 1.67726 2.26256 1.97016 1.96967ZM7.99261 6.93147L9.09307 8.03193C9.36911 7.90444 9.67651 7.83331 10.0005 7.83331C11.1971 7.83331 12.1672 8.80336 12.1672 9.99998C12.1672 10.324 12.0961 10.6314 11.9686 10.9074L13.069 12.0079C13.4472 11.4311 13.6672 10.7412 13.6672 9.99998C13.6672 7.97494 12.0256 6.33331 10.0005 6.33331C9.25928 6.33331 8.56941 6.55327 7.99261 6.93147Z" fill="#161823"/>
<path d="M3.29625 6.46579C2.14992 7.52938 1.42205 8.63051 1.08314 9.20393C0.77359 9.72765 0.824405 10.3649 1.17808 10.8355C1.66828 11.4878 2.75616 12.8229 4.2595 14.0014C5.75533 15.1741 7.73744 16.25 10.0005 16.25C10.9821 16.25 11.8799 16.107 12.6962 15.8657L10.4676 13.6372C10.3147 13.6566 10.1588 13.6666 10.0005 13.6666C7.97548 13.6666 6.33386 12.025 6.33386 9.99998C6.33386 9.84174 6.34389 9.68584 6.36333 9.53288L3.29625 6.46579Z" fill="#161823"/>
</svg>
