<svg width="24" height="24" viewBox="0 0 24 24" fill="none" xmlns="http://www.w3.org/2000/svg">
<path d="M17.1298 12.885L12.4331 4.75C12.2406 4.41667 11.7595 4.41666 11.567 4.75L3.5563 18.625C3.37588 18.9375 3.57603 19.3232 3.91891 19.3702C3.94177 19.3734 3.96526 19.375 3.98932 19.375H12.4264C12.5456 19.375 12.638 19.4786 12.6304 19.5975C12.624 19.6986 12.6207 19.8005 12.6207 19.9031C12.6207 20.0697 12.6293 20.2342 12.6461 20.3963L12.6498 20.4312C12.6653 20.5713 12.687 20.7095 12.7144 20.8456C12.7175 20.8608 12.7059 20.875 12.6904 20.875H3.98932C2.44971 20.875 1.48746 19.2083 2.25726 17.875L10.268 4C10.5326 3.54167 10.9337 3.24089 11.3774 3.09766C11.4177 3.08464 11.4584 3.07292 11.4994 3.0625C11.6581 3.02214 11.8211 3.00132 11.9843 3.00006L12 3C12.1684 3 12.3368 3.02083 12.5007 3.0625C12.9924 3.1875 13.4434 3.5 13.7321 4L17.906 11.2293C17.9463 11.2992 17.94 11.386 17.8949 11.4528C17.6475 11.8197 17.503 12.2617 17.503 12.7375V12.785C17.503 12.9896 17.2321 13.0622 17.1298 12.885Z" fill="#161823"/>
<path d="M11.0145 9.4999C11.0066 8.95003 11.4501 8.5 12 8.5C12.5499 8.5 12.9935 8.95003 12.9855 9.49989L12.9115 13.6017C12.9043 14.0999 12.4983 14.5 12 14.5C11.5017 14.5 11.0958 14.0999 11.0886 13.6017L11.0145 9.4999Z" fill="#161823"/>
<path d="M13.1 16.6C13.1 17.2075 12.6075 17.7 12 17.7C11.3925 17.7 10.9 17.2075 10.9 16.6C10.9 15.9925 11.3925 15.5 12 15.5C12.6075 15.5 13.1 15.9925 13.1 16.6Z" fill="#161823"/>
<path d="M19.003 12.7375C19.003 12.2957 19.3612 11.9375 19.803 11.9375C20.1689 11.9375 20.4774 12.1831 20.5726 12.5185C20.5928 12.5887 20.6035 12.6628 20.6035 12.7395C20.6035 14.1734 21.766 15.3358 23.1999 15.3358C23.6417 15.3358 23.9999 15.694 23.9999 16.1358C23.9999 16.5776 23.6417 16.9358 23.1999 16.9358C22.8204 16.9358 22.4526 16.8854 22.103 16.791C21.5492 16.6414 21.0409 16.3814 20.603 16.0359V19.9031C20.603 21.6931 19.1519 23.1442 17.3619 23.1442C15.5718 23.1442 14.1207 21.6931 14.1207 19.9031C14.1207 18.1131 15.5718 16.662 17.3619 16.662C17.41 16.662 17.4572 16.6662 17.503 16.6744C17.8775 16.7411 18.1619 17.0683 18.1619 17.462C18.1619 17.8557 17.8775 18.1829 17.503 18.2496C17.4572 18.2577 17.41 18.262 17.3619 18.262C16.4555 18.262 15.7207 18.9967 15.7207 19.9031C15.7207 20.8095 16.4555 21.5442 17.3619 21.5442C18.2682 21.5442 19.003 20.8095 19.003 19.9031V12.7375Z" fill="#161823"/>
</svg>
