<svg width="12" height="12" viewBox="0 0 12 12" fill="none" xmlns="http://www.w3.org/2000/svg">
<path d="M4.21662 8.68C4.21662 8.90091 4.03753 9.08 3.81662 9.08H3.60062C3.37971 9.08 3.20062 8.90091 3.20062 8.68V3.72C3.20062 3.49909 3.37971 3.32 3.60062 3.32H3.81662C4.03753 3.32 4.21662 3.49909 4.21662 3.72V8.68Z" fill="#161823"/>
<path d="M7.55162 7H6.59162V8.68C6.59162 8.90091 6.41253 9.08 6.19162 9.08H5.97562C5.75471 9.08 5.57562 8.90091 5.57562 8.68V3.72C5.57562 3.49909 5.75471 3.32 5.97562 3.32H7.59962C8.95962 3.32 9.63962 4.008 9.63962 5.144C9.63962 6.384 8.91962 7 7.55162 7ZM7.55962 4.24H6.59162V6.088H7.55962C8.27962 6.088 8.57562 5.808 8.57562 5.16C8.57562 4.528 8.25562 4.24 7.55962 4.24Z" fill="#161823"/>
<path d="M9.73301 1.95868C10.2853 1.95868 10.733 2.4064 10.733 2.95868V8.96326C10.733 9.51554 10.2853 9.96326 9.73301 9.96326H2.26758C1.71529 9.96326 1.26758 9.51554 1.26758 8.96326V2.95868C1.26758 2.40639 1.71529 1.95868 2.26758 1.95868H9.73301ZM2.26758 0.958679C1.16301 0.958679 0.267578 1.85411 0.267578 2.95868V8.96326C0.267578 10.0678 1.16301 10.9633 2.26758 10.9633H9.73301C10.8376 10.9633 11.733 10.0678 11.733 8.96326V2.95868C11.733 1.85411 10.8376 0.958679 9.73301 0.958679H2.26758Z" fill="#161823"/>
</svg>
