<svg width="24" height="24" viewBox="0 0 24 24" fill="none" xmlns="http://www.w3.org/2000/svg">
<path d="M13.7321 4C12.9623 2.66666 11.0378 2.66667 10.268 4L2.25726 17.875C1.48746 19.2083 2.44971 20.875 3.98932 20.875H20.0108C21.5504 20.875 22.5126 19.2083 21.7428 17.875L13.7321 4ZM12.0001 8.49998C12.55 8.49998 12.9936 8.95002 12.9856 9.49988L12.9116 13.6016C12.9043 14.0999 12.4984 14.5 12.0001 14.5C11.5018 14.5 11.0958 14.0999 11.0886 13.6016L11.0146 9.49988C11.0066 8.95002 11.4502 8.49998 12.0001 8.49998ZM13.1001 16.6C13.1001 17.2075 12.6076 17.7 12.0001 17.7C11.3926 17.7 10.9001 17.2075 10.9001 16.6C10.9001 15.9925 11.3926 15.5 12.0001 15.5C12.6076 15.5 13.1001 15.9925 13.1001 16.6Z" fill="#161823"/>
</svg>
