<svg width="20" height="20" viewBox="0 0 20 20" fill="none" xmlns="http://www.w3.org/2000/svg">
<path fill-rule="evenodd" clip-rule="evenodd" d="M10.0538 3.11306C10.0227 3.08666 9.97709 3.08666 9.94599 3.11306L4.07082 8.09923V16.5671C4.07082 16.6131 4.10813 16.6504 4.15415 16.6504H7.77364H12.2265H15.846C15.892 16.6504 15.9293 16.6131 15.9293 16.5671V8.09947L10.0538 3.11306ZM2.07711 9.79125L2.57082 9.37226V16.5671C2.57082 17.4415 3.2797 18.1504 4.15415 18.1504H7.77364H12.2265H15.846C16.7204 18.1504 17.4293 17.4415 17.4293 16.5671V9.3725L17.9227 9.79125C18.2385 10.0593 18.7118 10.0205 18.9798 9.70473C19.2479 9.38892 19.2091 8.91563 18.8933 8.6476L11.0244 1.96941C10.4335 1.46788 9.56634 1.46788 8.97539 1.96941L1.10651 8.6476C0.790702 8.91563 0.751963 9.38892 1.01999 9.70473C1.28801 10.0205 1.7613 10.0593 2.07711 9.79125ZM8.58678 7.36035C7.08677 7.36035 5.92529 8.57893 5.92529 10.1987C5.92529 11.1055 6.30614 11.951 6.88454 12.6966C7.46198 13.4409 8.26516 14.1249 9.19632 14.732C9.28008 14.7883 9.38391 14.8524 9.49555 14.9054C9.59088 14.9507 9.77692 15.0302 9.99828 15.0302C10.218 15.0302 10.4039 14.9518 10.4994 14.907C10.6121 14.8542 10.7173 14.79 10.8036 14.732C11.7348 14.1249 12.538 13.4409 13.1154 12.6966C13.6938 11.951 14.0747 11.1055 14.0747 10.1987C14.0747 8.57893 12.9132 7.36035 11.4132 7.36035C10.8481 7.36035 10.3747 7.5467 10.0004 7.8425C9.62522 7.54582 9.1502 7.36035 8.58678 7.36035ZM7.42529 10.1987C7.42529 9.32878 7.99164 8.86035 8.58678 8.86035C8.91535 8.86035 9.16306 9.02314 9.33534 9.34879L9.99032 10.5869L10.6577 9.35542C10.839 9.02093 11.0872 8.86035 11.4132 8.86035C12.0083 8.86035 12.5747 9.32878 12.5747 10.1987C12.5747 10.6728 12.3756 11.2031 11.9302 11.7772C11.4884 12.3467 10.8327 12.9206 9.99998 13.4653C9.16724 12.9206 8.51153 12.3467 8.06972 11.7772C7.62435 11.2031 7.42529 10.6728 7.42529 10.1987Z" fill="#161823"/>
</svg>
