<svg width="16" height="16" viewBox="0 0 16 16" fill="none" xmlns="http://www.w3.org/2000/svg">
<path d="M9.19998 2.60405C9.19998 2.21745 9.51339 1.90405 9.89998 1.90405H13.3991C13.7857 1.90405 14.0991 2.21745 14.0991 2.60405V6.10405C14.0991 6.49065 13.7857 6.80405 13.3991 6.80405C13.0125 6.80405 12.6991 6.49065 12.6991 6.10405V4.29209L9.92303 7.0681C9.64967 7.34146 9.20645 7.34146 8.93308 7.0681C8.65972 6.79473 8.65972 6.35151 8.93309 6.07815L11.7072 3.30405H9.89998C9.51339 3.30405 9.19998 2.99065 9.19998 2.60405Z" fill="#161823"/>
<path d="M5.79446 10.5915C6.69322 11.4902 7.6632 12.2715 8.62422 12.8293C9.58281 13.3856 10.547 13.728 11.4301 13.728C12.2401 13.728 12.9402 13.4383 13.5056 12.8198C13.8422 12.4483 14.0665 12.0045 14.067 11.5528C14.0715 11.2019 13.9259 10.8553 13.5983 10.6171L11.8137 9.35051C11.5312 9.14642 11.2598 9.02942 10.99 9.03367C10.6387 9.02967 10.3504 9.23749 10.0847 9.50321L9.66961 9.91826C9.65838 9.92949 9.64825 9.93515 9.63789 9.93879C9.62635 9.94284 9.60975 9.94597 9.58501 9.94597H9.57594L9.56691 9.9468C9.55728 9.94767 9.54307 9.94636 9.52236 9.93928C9.50204 9.93233 9.4809 9.92176 9.45709 9.90827C9.12941 9.70472 8.51474 9.21201 7.84434 8.54161C7.1678 7.86507 6.67245 7.27036 6.48553 6.93139C6.4664 6.89567 6.44863 6.84811 6.44454 6.80493C6.44748 6.77039 6.45581 6.74846 6.47744 6.72295L6.88823 6.30402L6.88908 6.30315C7.14989 6.03392 7.35637 5.74588 7.35637 5.39964C7.35637 5.12768 7.24058 4.85618 7.03489 4.57153L5.78664 2.81411C5.54204 2.46967 5.18481 2.32788 4.81618 2.32309C4.36812 2.31827 3.92137 2.53426 3.55392 2.884C2.94285 3.46851 2.68262 4.19282 2.68262 4.98049C2.68262 5.86299 3.01838 6.82079 3.56881 7.7737C4.12048 8.72879 4.8957 9.69273 5.79446 10.5915Z" fill="#161823"/>
</svg>
