<svg width="16" height="16" viewBox="0 0 16 16" fill="none" xmlns="http://www.w3.org/2000/svg">
<path fill-rule="evenodd" clip-rule="evenodd" d="M13.3317 6.33333C13.3317 8.30742 12.2592 10.031 10.665 10.9532V11.54C10.665 11.876 10.665 12.044 10.5996 12.1724C10.5421 12.2853 10.4503 12.3771 10.3374 12.4346C10.2091 12.5 10.0411 12.5 9.70504 12.5H6.29171C5.95567 12.5 5.78766 12.5 5.65931 12.4346C5.54641 12.3771 5.45463 12.2853 5.3971 12.1724C5.33171 12.044 5.33171 11.876 5.33171 11.54V10.9532C3.73757 10.031 2.66504 8.30742 2.66504 6.33333C2.66504 3.38781 5.05285 1 7.99837 1C10.9439 1 13.3317 3.38781 13.3317 6.33333ZM6.76641 7.53356L7.43763 7.65191L7.33304 8.08934C7.14239 8.88668 7.04707 9.28536 7.14001 9.4291C7.22003 9.55284 7.3616 9.62256 7.50846 9.61057C7.67907 9.59664 7.93701 9.27806 8.4529 8.6409L9.74599 7.04383C10.0459 6.6734 10.1959 6.48818 10.2058 6.31672C10.2144 6.16712 10.1597 6.0208 10.055 5.91355C9.93506 5.79064 9.70036 5.74926 9.23097 5.66649L8.55974 5.54813L8.66433 5.11071C8.85498 4.31337 8.95031 3.91469 8.85736 3.77095C8.77735 3.64721 8.63578 3.57749 8.48891 3.58948C8.31831 3.60341 8.06036 3.92199 7.54447 4.55915L6.25138 6.15622C5.95145 6.52665 5.80149 6.71187 5.79161 6.88333C5.78299 7.03293 5.83771 7.17925 5.94237 7.2865C6.06232 7.40941 6.29701 7.45079 6.76641 7.53356Z" fill="#161823"/>
<path d="M5.99998 13.8776C5.99935 13.8888 5.99935 13.902 5.99935 13.9286C5.99935 13.9949 5.99935 14.0281 6.00092 14.0561C6.02946 14.5642 6.43512 14.9699 6.94328 14.9984C6.97129 15 7.00445 15 7.07078 15H8.92792C8.99424 15 9.02741 15 9.05542 14.9984C9.56358 14.9699 9.96924 14.5642 9.99778 14.0561C9.99935 14.0281 9.99935 13.9949 9.99935 13.9286C9.99935 13.902 9.99935 13.8888 9.99872 13.8776C9.9873 13.6743 9.82504 13.512 9.62178 13.5006C9.61057 13.5 9.59731 13.5 9.57078 13.5H6.42792C6.40139 13.5 6.38813 13.5 6.37692 13.5006C6.17366 13.512 6.01139 13.6743 5.99998 13.8776Z" fill="#161823"/>
</svg>
