<svg width="24" height="24" viewBox="0 0 24 24" fill="none" xmlns="http://www.w3.org/2000/svg">
<path d="M4.67327 3.10053C4.38038 2.80764 3.90551 2.80764 3.61261 3.10053C3.31972 3.39342 3.31972 3.8683 3.61261 4.16119L21.6126 22.1612C21.9055 22.4541 22.3804 22.4541 22.6733 22.1612C22.9662 21.8683 22.9662 21.3934 22.6733 21.1005L19.9353 18.3626L22.1191 13.2306C22.1659 13.1216 22.2009 13.0048 22.2243 12.8802C22.2476 12.7556 22.2593 12.6388 22.2593 12.5297V10.6607C22.2593 10.1623 22.0724 9.72617 21.6986 9.35236C21.3248 8.97855 20.8887 8.79165 20.3903 8.79165H15.2971L16.3251 4.72648V4.3994C16.3251 4.22807 16.2901 4.04895 16.22 3.86205C16.1499 3.67515 16.0603 3.52718 15.9513 3.41815C15.3061 2.773 14.2601 2.773 13.615 3.41815L9.30295 7.7302L4.67327 3.10053Z" fill="#161823"/>
<path d="M17.5867 20.9404H8.2415V10.909L18.1713 20.8388C17.9813 20.9066 17.7864 20.9404 17.5867 20.9404Z" fill="#161823"/>
<path d="M6.73809 9.4056L6.12412 8.79163H4.5C3.67157 8.79163 3 9.46321 3 10.2916V19.4404C3 20.2688 3.67157 20.9404 4.5 20.9404H6.73809V9.4056Z" fill="#161823"/>
</svg>
