<svg width="16" height="16" viewBox="0 0 16 16" fill="none" xmlns="http://www.w3.org/2000/svg">
<path d="M11.38 5.77253C12.0165 5.77253 12.5325 5.25746 12.5325 4.62209C12.5325 3.98672 12.0165 3.47166 11.38 3.47166C10.7435 3.47166 10.2276 3.98672 10.2276 4.62209C10.2276 5.25746 10.7435 5.77253 11.38 5.77253Z" fill="#161823"/>
<path fill-rule="evenodd" clip-rule="evenodd" d="M14.4726 7.60895C14.8111 7.27185 15.0014 6.81415 15.0014 6.33684L15.0014 2.09806C15.0014 1.49162 14.5089 1 13.9014 1H9.74021C9.26345 1 8.80617 1.18881 8.4687 1.525L1.61559 8.35229C0.793141 9.17164 0.793552 10.502 1.61651 11.3208L4.69954 14.3884C5.51931 15.2041 6.8457 15.2038 7.66515 14.3878L14.4726 7.60895ZM13.8014 6.33684C13.8014 6.49595 13.738 6.64851 13.6251 6.76088L6.81766 13.5398C6.46647 13.8895 5.89802 13.8896 5.54668 13.54L2.46366 10.4724C2.11096 10.1215 2.11079 9.55133 2.46327 9.20017L9.31638 2.37289C9.42886 2.26083 9.58129 2.19789 9.74022 2.19789L13.8014 2.19789L13.8014 6.33684Z" fill="#161823"/>
</svg>
