<svg width="20" height="20" viewBox="0 0 20 20" fill="none" xmlns="http://www.w3.org/2000/svg">
<path d="M2.84384 12.2761C1.57708 13.5457 1.57824 15.6015 2.84643 16.8697L3.14106 17.1643C4.41128 18.4345 6.47106 18.4333 7.73985 17.1617L10.856 14.0385L9.79537 12.9778L6.67799 16.1022C5.9948 16.787 4.88568 16.7876 4.20172 16.1036L3.90709 15.809C3.22422 15.1261 3.2236 14.0192 3.9057 13.3355L7.02586 10.2083L5.9652 9.14764L2.84384 12.2761Z" fill="#161823"/>
<path d="M17.1593 7.72099L14.0344 10.8529L12.9738 9.79223L16.0974 6.66153C16.7795 5.97788 16.7789 4.87092 16.096 4.18805L15.8014 3.89342C15.1174 3.20946 14.0083 3.21009 13.3251 3.89482L10.2043 7.02273L9.14359 5.96207L12.2632 2.83536C13.532 1.56371 15.5918 1.56254 16.862 2.83276L17.1567 3.12739C18.4249 4.39558 18.426 6.45136 17.1593 7.72099Z" fill="#161823"/>
<path d="M4.69647 3.63623C4.40357 3.34334 3.9287 3.34334 3.63581 3.63623C3.34291 3.92913 3.34291 4.404 3.63581 4.6969L15.3025 16.3636C15.5954 16.6565 16.0702 16.6565 16.3631 16.3636C16.656 16.0707 16.656 15.5958 16.3631 15.3029L4.69647 3.63623Z" fill="#161823"/>
</svg>
