<svg width="12" height="12" viewBox="0 0 12 12" fill="none" xmlns="http://www.w3.org/2000/svg">
<path fill-rule="evenodd" clip-rule="evenodd" d="M9.58943 7.12377C9.46173 7.10431 9.33416 7.08266 9.20679 7.05883C8.56626 7.88196 7.59008 8.43099 6.48381 8.50036L4.64385 10.9924C4.31135 11.4427 3.6937 11.5715 3.20892 11.2916L2.10485 10.6542C1.62007 10.3743 1.4228 9.775 1.64655 9.26189L2.88452 6.42288C2.63551 5.92121 2.49551 5.35586 2.49551 4.75781C2.49551 4.29268 2.5802 3.84733 2.73498 3.43634C2.57859 3.26347 2.42796 3.08643 2.28319 2.90551C2.07614 2.64678 2.11804 2.2692 2.37677 2.06216C2.6355 1.85512 3.01308 1.89702 3.22012 2.15574C3.27094 2.21925 3.32257 2.28223 3.375 2.34466C4.0629 1.52724 5.09355 1.00781 6.24551 1.00781C8.31658 1.00781 9.99551 2.68674 9.99551 4.75781C9.99551 5.17222 9.92829 5.57093 9.80416 5.94363C10.1132 6.00879 10.3212 6.30489 10.273 6.62105C10.2231 6.94864 9.91702 7.17371 9.58943 7.12377ZM3.71351 7.52397L2.78223 9.65964L3.73154 10.2077L5.11476 8.33432C4.58787 8.1679 4.11128 7.88827 3.71351 7.52397ZM6.24551 7.30781C6.86226 7.30781 7.42786 7.08886 7.86884 6.72445C7.07311 6.47412 6.29254 6.13367 5.54082 5.69966C4.88188 5.31922 4.27412 4.88365 3.72013 4.40208C3.7039 4.51833 3.69551 4.63709 3.69551 4.75781C3.69551 6.16614 4.83719 7.30781 6.24551 7.30781ZM6.24551 2.20781C5.41246 2.20781 4.6727 2.60728 4.20735 3.22512C4.78182 3.76538 5.4275 4.2486 6.14082 4.66043C6.93824 5.12082 7.77065 5.46341 8.61823 5.69387C8.73265 5.40407 8.79551 5.08828 8.79551 4.75781C8.79551 3.34949 7.65384 2.20781 6.24551 2.20781Z" fill="#161823"/>
</svg>
