<svg width="24" height="24" viewBox="0 0 24 24" fill="none" xmlns="http://www.w3.org/2000/svg">
<path fill-rule="evenodd" clip-rule="evenodd" d="M5.36601 9.27552C5.58008 6.08363 8.51922 3.45337 12.2137 3.45337C15.9041 3.45337 18.8164 6.08014 19.0282 9.27563C18.9344 9.26053 18.8381 9.25269 18.74 9.25269H17.8034C16.2754 9.25269 15.0367 10.4914 15.0367 12.0194V13.8238C15.0367 15.3518 16.2754 16.5904 17.8034 16.5904H18.74C18.7823 16.5904 18.8242 16.589 18.8657 16.5861C18.3806 18.2012 16.9382 19.402 15.1976 19.5293C14.9122 19.0669 14.4009 18.7588 13.8176 18.7588H12.0337C11.1386 18.7588 10.4131 19.4843 10.4131 20.3794C10.4131 21.2744 11.1386 21.9999 12.0337 21.9999H13.8176C14.4829 21.9999 15.0546 21.599 15.3042 21.0256C18.2315 20.8138 20.5406 18.3718 20.5406 15.3905L20.5406 9.64886C20.5406 5.33867 16.7497 1.95337 12.2137 1.95337C7.68211 1.95337 3.85352 5.3346 3.85352 9.64886V11.0527V11.4542V14.7904C3.85352 15.7846 4.6594 16.5904 5.65351 16.5904H6.59017C8.11816 16.5904 9.35684 15.3518 9.35684 13.8238V12.0194C9.35684 10.4914 8.11816 9.25269 6.59017 9.25269H5.65352C5.55566 9.25269 5.45963 9.2605 5.36601 9.27552ZM5.35352 11.0527V11.4542V14.7904C5.35352 14.9561 5.48783 15.0904 5.65351 15.0904H6.59017C7.28973 15.0904 7.85684 14.5233 7.85684 13.8238V12.0194C7.85684 11.3198 7.28973 10.7527 6.59017 10.7527H5.65352C5.48783 10.7527 5.35352 10.887 5.35352 11.0527ZM17.8034 10.7527H18.74C18.9057 10.7527 19.04 10.887 19.04 11.0527V14.7904C19.04 14.9561 18.9057 15.0904 18.74 15.0904H17.8034C17.1038 15.0904 16.5367 14.5233 16.5367 13.8238V12.0194C16.5367 11.3198 17.1038 10.7527 17.8034 10.7527Z" fill="#161823"/>
</svg>
