<svg width="12" height="12" viewBox="0 0 12 12" fill="none" xmlns="http://www.w3.org/2000/svg">
<path d="M10.9354 3.80482C11.325 3.1381 10.844 2.30016 10.0718 2.30029L2.14338 2.30161C1.28472 2.30175 0.825528 3.31272 1.39038 3.95944L3.1739 6.00143C3.31186 6.15307 3.52855 6.20488 3.72018 6.13204L7.33715 4.75731C7.37924 4.74131 7.39834 4.74792 7.40667 4.75124C7.42125 4.75704 7.44213 4.77208 7.45852 4.79985C7.47492 4.82762 7.478 4.85317 7.47604 4.86873C7.47492 4.87763 7.47148 4.89755 7.43714 4.92668L4.46749 7.44548C4.31445 7.57529 4.25408 7.78415 4.31426 7.97559L5.09985 10.4761C5.36002 11.3042 6.47933 11.4303 6.91727 10.6809L10.9354 3.80482Z" fill="#161823"/>
</svg>
