<svg width="16" height="16" viewBox="0 0 16 16" fill="none" xmlns="http://www.w3.org/2000/svg">
<path fill-rule="evenodd" clip-rule="evenodd" d="M5.41845 1.76389C3.14258 1.76389 1.32617 3.60502 1.32617 6.1793C1.32617 7.61383 1.92863 8.99671 2.91706 10.2708C3.90472 11.544 5.30088 12.7399 6.9574 13.8194C7.09401 13.9114 7.25049 14.0073 7.40908 14.0826C7.55433 14.1516 7.76778 14.2361 7.99727 14.2361C8.22542 14.2361 8.43963 14.1524 8.58593 14.0839C8.74617 14.0087 8.90466 13.9128 9.04334 13.8194C10.6999 12.7399 12.096 11.544 13.0837 10.2708C14.0721 8.99671 14.6746 7.61383 14.6746 6.1793C14.6746 3.60502 12.8582 1.76389 10.5823 1.76389C9.48741 1.76389 8.62046 2.22765 8.00039 2.93348C7.38243 2.22599 6.51103 1.76389 5.41845 1.76389ZM2.52617 6.1793C2.52617 4.20491 3.86648 2.96389 5.41845 2.96389C6.2667 2.96389 6.91445 3.37711 7.344 4.05425L6.51723 6.5504C6.39882 6.90789 6.47152 7.3011 6.70992 7.59262L8.38041 9.63531L7.47926 12.7265C5.95683 11.7193 4.7216 10.6392 3.8652 9.53528C2.9832 8.39835 2.52617 7.26765 2.52617 6.1793ZM8.77981 12.5529C10.1839 11.5957 11.3281 10.5761 12.1356 9.53528C13.0176 8.39835 13.4746 7.26765 13.4746 6.1793C13.4746 4.20491 12.1343 2.96389 10.5823 2.96389C9.67057 2.96389 8.99249 3.44168 8.55301 4.22058L7.67365 6.87551L9.34266 8.9164C9.57213 9.197 9.64863 9.57263 9.54718 9.92062L8.77981 12.5529Z" fill="#161823"/>
</svg>
