<svg width="24" height="24" viewBox="0 0 24 24" fill="none" xmlns="http://www.w3.org/2000/svg">
<path d="M20.5 12.25C20.5 12.6642 20.1642 13 19.75 13C19.3358 13 19 12.6642 19 12.25V5.00206L11.7498 5C11.3356 4.99988 10.9999 4.664 11 4.24979C11.0001 3.83557 11.336 3.49988 11.7502 3.5L19.7502 3.50227C20.1643 3.50239 20.5 3.83814 20.5 4.25227V12.25Z" fill="#161823"/>
<path d="M4.5 10.75C4.5 10.3358 4.83579 10 5.25 10C5.66421 10 6 10.3358 6 10.75V18H13.25C13.6642 18 14 18.3358 14 18.75C14 19.1642 13.6642 19.5 13.25 19.5H5.25C4.83579 19.5 4.5 19.1642 4.5 18.75V10.75Z" fill="#161823"/>
</svg>
