<svg width="16" height="16" viewBox="0 0 16 16" fill="none" xmlns="http://www.w3.org/2000/svg">
<path d="M1.875 3.22782C1.875 2.34417 2.59134 1.62782 3.475 1.62782H8.13347C9.01713 1.62782 9.73347 2.34417 9.73347 3.22782V12.6014C9.73347 13.485 9.01713 14.2014 8.13347 14.2014H3.475C2.59134 14.2014 1.875 13.485 1.875 12.6014V3.22782ZM7.51563 8.24501C7.74837 8.0862 7.74837 7.74298 7.51563 7.58418L5.16488 5.98021C4.89937 5.79904 4.53944 5.98919 4.53944 6.31062L4.53943 9.51856C4.53943 9.83999 4.89937 10.0301 5.16488 9.84897L7.51563 8.24501Z" fill="#161823"/>
<path d="M10.8944 14.0125C11.1112 13.5892 11.2335 13.1096 11.2335 12.6014V3.22783C11.2335 3.17968 11.2324 3.13179 11.2302 3.08418L13.2848 3.63472C14.1384 3.86342 14.6449 4.74076 14.4162 5.59431L12.4783 12.8267C12.2832 13.5548 11.6161 14.0304 10.8944 14.0125Z" fill="#161823"/>
</svg>
