<svg width="24" height="24" viewBox="0 0 24 24" fill="none" xmlns="http://www.w3.org/2000/svg">
<path d="M2.46967 2.46967C2.76256 2.17678 3.23744 2.17678 3.53033 2.46967L5.06066 4H19C20.6569 4 22 5.34315 22 7V17C22 18.0689 21.441 19.0073 20.5993 19.5386L21.5303 20.4697C21.8232 20.7626 21.8232 21.2374 21.5303 21.5303C21.2391 21.8216 20.7679 21.8232 20.4747 21.5353L3.45904 4.51966C3.43909 4.4997 3.41829 4.48111 3.39676 4.46387L3.40071 4.46137L2.46967 3.53033C2.17678 3.23744 2.17678 2.76256 2.46967 2.46967ZM6.56066 5.5L9.3574 8.29674C9.81394 7.70571 10.6929 7.49175 11.3955 7.97116L15.4841 10.7609C16.3569 11.3564 16.3569 12.6435 15.4841 13.239L14.7801 13.7194L19.4817 18.421C20.0738 18.2203 20.5 17.6599 20.5 17V7C20.5 6.17157 19.8284 5.5 19 5.5H6.56066ZM10.55 9.48937L13.7007 12.64L14.6387 12L10.55 9.21021V9.48937Z" fill="#161823"/>
<path d="M2.37177 5.55233C2.13484 5.98156 2 6.47503 2 7V17C2 18.6569 3.34315 20 5 20H16.8181L15.3181 18.5H5C4.17157 18.5 3.5 17.8284 3.5 17V7C3.5 6.90077 3.50963 6.8038 3.52802 6.70996L2.39838 5.58032C2.38923 5.57116 2.38036 5.56183 2.37177 5.55233Z" fill="#161823"/>
<path d="M9.05003 12.232L9.05003 14.7898C9.05003 15.9951 10.3998 16.7082 11.3955 16.0288L12.2582 15.4401L11.1788 14.3607L10.55 14.7898V13.732L9.05003 12.232Z" fill="#161823"/>
</svg>
