<svg width="24" height="24" viewBox="0 0 24 24" fill="none" xmlns="http://www.w3.org/2000/svg">
<path d="M12.0001 22.0002C17.523 22.0002 22.0002 17.523 22.0002 12.0001C22.0002 6.4772 17.523 2 12.0001 2C6.4772 2 2 6.4772 2 12.0001C2 17.523 6.4772 22.0002 12.0001 22.0002ZM18.2511 12.0001C18.2511 12.821 18.0894 13.6338 17.7752 14.3922C17.4611 15.1506 17.0007 15.8397 16.4202 16.4201C15.8398 17.0006 15.1507 17.461 14.3923 17.7751C13.6339 18.0893 12.8211 18.2509 12.0002 18.2509C11.586 18.2509 11.2502 17.9152 11.2502 17.5009C11.2502 17.0867 11.586 16.7509 12.0002 16.7509C12.6241 16.7509 13.2419 16.6281 13.8183 16.3893C14.3947 16.1506 14.9184 15.8006 15.3596 15.3594C15.8007 14.9183 16.1507 14.3946 16.3894 13.8182C16.6282 13.2418 16.7511 12.624 16.7511 12.0001C16.7511 11.5859 17.0869 11.2501 17.5011 11.2501C17.9153 11.2501 18.2511 11.5859 18.2511 12.0001Z" fill="#161823"/>
</svg>
