<svg width="20" height="20" viewBox="0 0 20 20" fill="none" xmlns="http://www.w3.org/2000/svg">
<path d="M6.44337 2.39088C6.04405 2.28822 5.63712 2.5287 5.53445 2.92801C5.17362 4.33149 4.23726 5.92837 2.34595 6.63758C1.9599 6.78234 1.7643 7.21265 1.90906 7.5987C2.05382 7.98475 2.48413 8.18035 2.87018 8.03559C3.29 7.87817 3.6729 7.68755 4.02147 7.47113V16.6739C4.02147 17.0862 4.35571 17.4205 4.76801 17.4205C5.18031 17.4205 5.51455 17.0862 5.51455 16.6739V6.17968C6.28314 5.27154 6.74155 4.22918 6.9805 3.29979C7.08316 2.90048 6.84268 2.49355 6.44337 2.39088Z" fill="#161823"/>
<path fill-rule="evenodd" clip-rule="evenodd" d="M9.83003 2.51646C9.41773 2.51646 9.0835 2.85069 9.0835 3.26299C9.0835 3.67529 9.41773 4.00953 9.83003 4.00953H15.4217L12.9467 6.98839C12.7249 7.25541 12.7164 7.64012 12.9262 7.91669C12.9671 7.97058 13.0107 8.02466 13.0556 8.08035L13.056 8.08088L13.0565 8.08148C13.2591 8.3328 13.5049 8.63762 13.7476 9.22357C12.6966 9.26915 11.8095 9.43649 11.0715 9.72302C9.55155 10.3132 8.71378 11.3917 8.40264 12.756C8.08186 14.1625 8.41501 15.4556 9.21742 16.3802C10.0149 17.2991 11.2275 17.7981 12.5593 17.7234C13.7685 17.6556 14.7865 17.0596 15.4289 16.064C16.0608 15.0846 16.2956 13.7771 16.1011 12.3017C16.0328 11.7832 15.9319 11.268 15.8094 10.7711C16.2187 10.8064 16.6542 10.8562 17.1173 10.9216C17.1178 10.9217 17.1184 10.9218 17.119 10.9219L17.3029 10.944C17.7062 10.9925 18.0742 10.7095 18.131 10.3073C18.1895 9.89312 17.8963 9.51177 17.4811 9.46184L17.3251 9.44309C16.621 9.34369 15.9634 9.27646 15.3502 9.24088C15.3206 9.15747 15.2907 9.07526 15.2605 8.99437C15.0666 8.47566 14.8555 8.15208 14.6483 7.83453L14.6478 7.83364C14.5801 7.72996 14.5133 7.62752 14.4472 7.51877L17.5867 3.74007C17.7717 3.51742 17.8113 3.2079 17.6883 2.94585C17.5654 2.6838 17.302 2.51646 17.0125 2.51646H9.83003ZM11.6119 11.1149C12.2554 10.865 13.1156 10.7131 14.2483 10.7043C14.4094 11.2815 14.5409 11.8899 14.6209 12.4968C14.7819 13.7185 14.567 14.6459 14.1743 15.2545C13.7922 15.8467 13.2107 16.1915 12.4757 16.2327C11.5705 16.2835 10.8178 15.9462 10.3451 15.4016C9.87727 14.8625 9.63552 14.0649 9.85833 13.088C9.96093 12.6381 10.1391 12.247 10.4197 11.9182C10.7002 11.5894 11.0867 11.3188 11.6119 11.1149Z" fill="#161823"/>
</svg>
