<svg width="20" height="20" viewBox="0 0 20 20" fill="none" xmlns="http://www.w3.org/2000/svg">
<path fill-rule="evenodd" clip-rule="evenodd" d="M6.47263 6.08057C6.25785 6.08057 6.08374 6.25468 6.08374 6.46946V7.52501C6.08374 7.73979 6.25785 7.9139 6.47263 7.9139H7.52818C7.74296 7.9139 7.91707 7.73979 7.91707 7.52501V6.46946C7.91707 6.25468 7.74296 6.08057 7.52818 6.08057H6.47263Z" fill="#161823"/>
<path fill-rule="evenodd" clip-rule="evenodd" d="M9.47263 6.08057C9.25785 6.08057 9.08374 6.25468 9.08374 6.46946V7.52501C9.08374 7.73979 9.25785 7.9139 9.47263 7.9139H10.5282C10.743 7.9139 10.9171 7.73979 10.9171 7.52501V6.46946C10.9171 6.25468 10.743 6.08057 10.5282 6.08057H9.47263Z" fill="#161823"/>
<path fill-rule="evenodd" clip-rule="evenodd" d="M12.4726 6.08057C12.2579 6.08057 12.0837 6.25468 12.0837 6.46946V7.52501C12.0837 7.73979 12.2579 7.9139 12.4726 7.9139H13.5282C13.743 7.9139 13.9171 7.73979 13.9171 7.52501V6.46946C13.9171 6.25468 13.743 6.08057 13.5282 6.08057H12.4726Z" fill="#161823"/>
<path fill-rule="evenodd" clip-rule="evenodd" d="M6.47263 9.08057C6.25785 9.08057 6.08374 9.25468 6.08374 9.46946V10.4972C6.08374 10.712 6.25785 10.8861 6.47263 10.8861H7.52818C7.74296 10.8861 7.91707 10.712 7.91707 10.4972V9.46946C7.91707 9.25468 7.74296 9.08057 7.52818 9.08057H6.47263Z" fill="#161823"/>
<path fill-rule="evenodd" clip-rule="evenodd" d="M9.47263 9.08057C9.25785 9.08057 9.08374 9.25468 9.08374 9.46946V10.4972C9.08374 10.712 9.25785 10.8861 9.47263 10.8861H10.5282C10.743 10.8861 10.9171 10.712 10.9171 10.4972V9.46946C10.9171 9.25468 10.743 9.08057 10.5282 9.08057H9.47263Z" fill="#161823"/>
<path fill-rule="evenodd" clip-rule="evenodd" d="M12.4726 9.08057C12.2579 9.08057 12.0837 9.25468 12.0837 9.46946V10.4972C12.0837 10.712 12.2579 10.8861 12.4726 10.8861H13.5282C13.743 10.8861 13.9171 10.712 13.9171 10.4972V9.46946C13.9171 9.25468 13.743 9.08057 13.5282 9.08057H12.4726Z" fill="#161823"/>
<path fill-rule="evenodd" clip-rule="evenodd" d="M13.5282 12.4419H6.47263C6.25785 12.4419 6.08374 12.616 6.08374 12.8308V13.8863C6.08374 14.1011 6.25785 14.2752 6.47263 14.2752H13.5282C13.743 14.2752 13.9171 14.1011 13.9171 13.8863V12.8308C13.9171 12.616 13.743 12.4419 13.5282 12.4419Z" fill="#161823"/>
<path fill-rule="evenodd" clip-rule="evenodd" d="M18.3337 9.96956C18.3337 14.5719 14.6027 18.3029 10.0003 18.3029C5.39795 18.3029 1.66699 14.5719 1.66699 9.96956C1.66699 5.36719 5.39795 1.63623 10.0003 1.63623C14.6027 1.63623 18.3337 5.36719 18.3337 9.96956ZM10.0003 16.8029C13.7743 16.8029 16.8337 13.7435 16.8337 9.96956C16.8337 6.19562 13.7743 3.13623 10.0003 3.13623C6.22638 3.13623 3.16699 6.19562 3.16699 9.96956C3.16699 13.7435 6.22638 16.8029 10.0003 16.8029Z" fill="#161823"/>
</svg>
