<svg width="20" height="20" viewBox="0 0 20 20" fill="none" xmlns="http://www.w3.org/2000/svg">
<path fill-rule="evenodd" clip-rule="evenodd" d="M15.0002 11.5C15.3955 11.5 15.7814 11.4595 16.1539 11.3824C16.2205 11.3686 16.2888 11.3981 16.3248 11.4558L17.323 13.0529C18.0341 14.1907 17.2161 15.6667 15.8743 15.6667H13.2407C13.1131 17.3448 11.711 18.6666 10.0002 18.6666C8.28941 18.6666 6.88735 17.3448 6.75968 15.6667H4.1261C2.78432 15.6667 1.96629 14.1907 2.67744 13.0529L3.67562 11.4558C4.10558 10.7679 4.33355 9.97299 4.33355 9.16176V7.5C4.33355 5.09178 5.83463 3.03676 7.95161 2.21544C8.34766 1.4912 9.11658 1 10.0002 1C10.4315 1 10.8354 1.11701 11.1821 1.32101C11.2938 1.38678 11.2976 1.5415 11.2014 1.62846C10.9282 1.87539 10.6793 2.14856 10.4584 2.444C10.3999 2.52224 10.2949 2.54747 10.2001 2.52412C10.136 2.50836 10.0691 2.5 10.0002 2.5C9.53998 2.5 9.16689 2.8731 9.16689 3.33333V3.41668C7.26502 3.80274 5.83355 5.4842 5.83355 7.5V9.16176C5.83355 10.2541 5.52657 11.3245 4.94762 12.2508L3.94944 13.8479C3.86271 13.9867 3.96247 14.1667 4.1261 14.1667H15.8743C16.038 14.1667 16.1377 13.9867 16.051 13.8479L15.0528 12.2508C14.958 12.0992 14.8706 11.9437 14.7905 11.7849C14.7233 11.6515 14.8287 11.4993 14.9781 11.4999C14.9854 11.4999 14.9928 11.5 15.0002 11.5ZM8.26793 15.6667C8.38925 16.5147 9.1186 17.1666 10.0002 17.1666C10.8818 17.1666 11.6111 16.5147 11.7325 15.6667H8.26793Z" fill="#161823"/>
<path fill-rule="evenodd" clip-rule="evenodd" d="M19.1669 5.83504C19.1669 8.13531 17.3022 10 15.0019 10C12.7016 10 10.8369 8.13531 10.8369 5.83504C10.8369 3.53478 12.7016 1.67004 15.0019 1.67004C17.3022 1.67004 19.1669 3.53478 19.1669 5.83504ZM12.9404 5.85012C13.1711 5.61219 13.5509 5.60628 13.7889 5.83692L14.4938 6.52025L16.1777 4.13532C16.3689 3.86463 16.7432 3.80013 17.0139 3.99126C17.2846 4.18239 17.3491 4.55677 17.158 4.82747L15.0697 7.7851C14.9686 7.92831 14.8099 8.02013 14.6353 8.03643C14.4608 8.05272 14.2878 7.99186 14.1619 7.86983L12.9536 6.69854C12.7157 6.4679 12.7098 6.08805 12.9404 5.85012Z" fill="#161823"/>
</svg>
