<svg width="16" height="16" viewBox="0 0 16 16" fill="none" xmlns="http://www.w3.org/2000/svg">
<g clip-path="url(#clip0_7_1284)">
<path d="M2.40039 3.6C2.40039 2.16406 3.56445 1 5.00039 1H11.0004C12.4363 1 13.6004 2.16406 13.6004 3.6V7.09811C13.6004 7.15875 13.5468 7.20532 13.4865 7.19924C13.3817 7.18869 13.2758 7.18332 13.1693 7.18332H12.5004C12.4452 7.18332 12.4004 7.13855 12.4004 7.08332V3.6C12.4004 2.8268 11.7736 2.2 11.0004 2.2H5.00039C4.22719 2.2 3.60039 2.8268 3.60039 3.6V12.4C3.60039 13.1732 4.22719 13.8 5.00039 13.8H7.30296C7.33076 13.8 7.35725 13.8116 7.37644 13.8317C7.39291 13.849 7.40961 13.8661 7.42654 13.883L8.3715 14.8293C8.43442 14.8924 8.38979 15 8.30073 15H5.00039C3.56445 15 2.40039 13.8359 2.40039 12.4V3.6Z" fill="#161823"/>
<path d="M4.80039 4.39999C4.80039 4.06862 5.06902 3.79999 5.40039 3.79999L10.6004 3.79999C10.9318 3.79999 11.2004 4.06862 11.2004 4.39999C11.2004 4.73136 10.9318 4.99999 10.6004 4.99999L5.40039 4.99999C5.06902 4.99999 4.80039 4.73136 4.80039 4.39999Z" fill="#161823"/>
<path d="M4.80039 7C4.80039 6.66863 5.06902 6.4 5.40039 6.4L8.40039 6.4C8.73176 6.4 9.00039 6.66863 9.00039 7C9.00039 7.33137 8.73176 7.6 8.40039 7.6H5.40039C5.06902 7.6 4.80039 7.33137 4.80039 7Z" fill="#161823"/>
<path d="M10.2337 11C10.2337 10.6686 10.5024 10.4 10.8337 10.4H12.9004C13.2318 10.4 13.5004 10.6686 13.5004 11C13.5004 11.3314 13.2318 11.6 12.9004 11.6H10.8337C10.5024 11.6 10.2337 11.3314 10.2337 11Z" fill="#161823"/>
<path fill-rule="evenodd" clip-rule="evenodd" d="M13.1693 8.38331H10.5315C9.87489 8.38331 9.26177 8.7117 8.8979 9.25828L8.03074 10.5609C7.5129 11.3387 7.61536 12.3739 8.27567 13.0351L10.8051 15.5681C11.3821 16.146 12.3186 16.146 12.8957 15.5681L15.4251 13.0351C16.0854 12.3739 16.1879 11.3387 15.67 10.5609L14.8029 9.25828C14.439 8.7117 13.8259 8.38331 13.1693 8.38331ZM9.8968 9.92327C10.0382 9.7109 10.2764 9.58331 10.5315 9.58331H13.1693C13.4244 9.58331 13.6626 9.7109 13.804 9.92327L14.6711 11.2259C14.8723 11.5281 14.8325 11.9303 14.576 12.1872L12.0466 14.7202C11.9383 14.8286 11.7625 14.8286 11.6542 14.7202L9.1248 12.1872C8.86825 11.9303 8.82844 11.5281 9.02964 11.2259L9.8968 9.92327Z" fill="#161823"/>
</g>
<defs>
<clipPath id="clip0_7_1284">
<rect width="16" height="16" fill="white"/>
</clipPath>
</defs>
</svg>
