<svg width="16" height="16" viewBox="0 0 16 16" fill="none" xmlns="http://www.w3.org/2000/svg">
<path d="M7.99968 1C8.65663 1 9.2248 1.38009 9.49628 1.93237C11.152 2.54183 12.333 4.1321 12.333 6V7.32941C12.333 8.01588 12.5259 8.68853 12.8897 9.27065L13.6883 10.5483C14.1739 11.3254 13.6153 12.3333 12.699 12.3333L11.1997 12.3333V12.3302H4.79968V12.3333H3.30037C2.38403 12.3333 1.82538 11.3254 2.31104 10.5483L3.10958 9.27065C3.47341 8.68853 3.66633 8.01588 3.66633 7.32941V6C3.66633 4.13209 4.84739 2.54181 6.50308 1.93235C6.77456 1.38009 7.34273 1 7.99968 1Z" fill="#161823"/>
<path d="M5.59893 13.3333C5.99076 14.2729 6.91808 14.9333 7.99966 14.9333C9.08124 14.9333 10.0086 14.2729 10.4004 13.3333H5.59893Z" fill="#161823"/>
</svg>
