<svg width="16" height="16" viewBox="0 0 16 16" fill="none" xmlns="http://www.w3.org/2000/svg">
<path d="M14.5219 6.60974C14.6823 7.3661 14.0403 7.99992 13.2671 7.99992H8.60037V12.7266C8.60037 13.7944 7.73479 14.66 6.66704 14.66C5.59929 14.66 4.7337 13.7944 4.7337 12.7266C4.7337 12.3953 5.00233 12.1266 5.3337 12.1266C5.66507 12.1266 5.9337 12.3953 5.9337 12.7266C5.9337 13.1316 6.26203 13.46 6.66704 13.46C7.07205 13.46 7.40037 13.1316 7.40037 12.7266V7.99992H2.73372C1.96052 7.99992 1.31843 7.3661 1.47888 6.60973C2.11835 3.59512 4.79522 1.33325 8.00039 1.33325C11.2055 1.33325 13.8824 3.59512 14.5219 6.60974Z" fill="#161823"/>
</svg>
