<svg width="20" height="20" viewBox="0 0 20 20" fill="none" xmlns="http://www.w3.org/2000/svg">
<path d="M13.3333 5.25C13.3333 7.32107 11.8409 9 9.99996 9C8.15901 9 6.66663 7.32107 6.66663 5.25C6.66663 3.17893 8.15901 1.5 9.99996 1.5C11.8409 1.5 13.3333 3.17893 13.3333 5.25ZM11.8333 5.25C11.8333 3.83639 10.8513 3 9.99996 3C9.14865 3 8.16663 3.83639 8.16663 5.25C8.16663 6.66361 9.14865 7.5 9.99996 7.5C10.8513 7.5 11.8333 6.66361 11.8333 5.25Z" fill="#161823"/>
<path d="M10 10C8.00786 10 6.15542 10.497 4.75275 11.3874C3.36383 12.2691 2.25 13.6669 2.25 15.4394V16.0833C2.25 17.372 3.29467 18.4167 4.58333 18.4167H9.98264C10.0663 18.4167 10.1136 18.3196 10.064 18.2521C9.7927 17.8826 9.56642 17.478 9.39328 17.0463C9.36217 16.9688 9.28774 16.9167 9.20416 16.9167H4.58333C4.1231 16.9167 3.75 16.5436 3.75 16.0833V15.4394C3.75 13.2637 6.48438 11.5 10 11.5C10.0526 11.5 10.1051 11.5004 10.1573 11.5012C10.2187 11.5021 10.2773 11.4753 10.3172 11.4286C10.6952 10.9862 11.1422 10.6046 11.6414 10.3003C11.7228 10.2507 11.7005 10.124 11.6061 10.1107C11.0856 10.0376 10.5481 10 10 10Z" fill="#161823"/>
<path d="M14.5 19C16.7091 19 18.5 17.2091 18.5 15C18.5 12.7909 16.7091 11 14.5 11C12.2909 11 10.5 12.7909 10.5 15C10.5 17.2091 12.2909 19 14.5 19ZM14.5 17.752C12.9801 17.752 11.748 16.5199 11.748 15C11.748 14.5015 11.8806 14.0339 12.1124 13.6306L15.8694 17.3876C15.4661 17.6194 14.9985 17.752 14.5 17.752ZM13.1306 12.6124C13.5339 12.3806 14.0015 12.248 14.5 12.248C16.0199 12.248 17.252 13.4801 17.252 15C17.252 15.4985 17.1194 15.9661 16.8876 16.3694L13.1306 12.6124Z" fill="#161823"/>
</svg>
