<svg width="24" height="24" viewBox="0 0 24 24" fill="none" xmlns="http://www.w3.org/2000/svg">
<path d="M2 9.75C2 7.67893 3.67893 6 5.75 6H6.78593C6.91967 6 7.04456 5.93316 7.11875 5.82188L8.40627 3.8906C8.7772 3.3342 9.40166 3 10.0704 3H13.9296C14.5983 3 15.2228 3.3342 15.5937 3.8906L16.8813 5.82188C16.9554 5.93316 17.0803 6 17.2141 6H18.25C20.3211 6 22 7.67893 22 9.75V17.25C22 19.3211 20.3211 21 18.25 21H5.75C3.67893 21 2 19.3211 2 17.25V9.75ZM12 9.15482C10.0118 9.15482 8.40002 10.7666 8.40002 12.7548C8.40002 14.743 10.0118 16.3548 12 16.3548C13.9882 16.3548 15.6 14.743 15.6 12.7548C15.6 10.7666 13.9882 9.15482 12 9.15482Z" fill="#161823"/>
</svg>
