<svg width="20" height="20" viewBox="0 0 20 20" fill="none" xmlns="http://www.w3.org/2000/svg">
<path d="M10 11.0001C8.20507 11.0001 6.75 9.54505 6.75 7.75012C6.75 7.33591 7.08579 7.00012 7.5 7.00012C7.91421 7.00012 8.25 7.33591 8.25 7.75012C8.25 8.71662 9.0335 9.50012 10 9.50012C10.9665 9.50012 11.75 8.71662 11.75 7.75012C11.75 7.33591 12.0858 7.00012 12.5 7.00012C12.9142 7.00012 13.25 7.33591 13.25 7.75012C13.25 9.54505 11.7949 11.0001 10 11.0001Z" fill="#161823"/>
<path fill-rule="evenodd" clip-rule="evenodd" d="M5.01361 2.83499C3.21338 2.82745 1.75 4.28472 1.75 6.08496V12.8786C1.75 14.661 3.18554 16.1108 4.96783 16.1284L7.00001 16.1486V17.3048C7.00001 18.2256 8.10077 18.7004 8.77054 18.0686L10.7975 16.1564L14.9944 16.1629C16.7913 16.1657 18.2494 14.7098 18.2494 12.9129V6.12684C18.2494 4.33723 16.8026 2.88436 15.013 2.87687L5.01361 2.83499ZM3.25 6.08496C3.25 5.1156 4.03797 4.33092 5.00733 4.33498L15.0068 4.37685C15.9704 4.38089 16.7494 5.1632 16.7494 6.12684V12.9129C16.7494 13.8805 15.9643 14.6644 14.9967 14.6629L10.7998 14.6564C10.4163 14.6558 10.0471 14.8021 9.76814 15.0653L8.50001 16.2616V15.4059C8.50001 14.9946 8.16873 14.6601 7.75743 14.656L4.98268 14.6285C4.02298 14.619 3.25 13.8383 3.25 12.8786V6.08496Z" fill="#161823"/>
</svg>
