<svg width="24" height="24" viewBox="0 0 24 24" fill="none" xmlns="http://www.w3.org/2000/svg">
<path d="M4 5.75C4 3.67893 5.67893 2 7.75 2H16.25C18.3211 2 20 3.67893 20 5.75V10.9245C19.7175 11.1057 19.4713 11.3531 19.287 11.6604L18.5 12.972V5.75C18.5 4.50736 17.4926 3.5 16.25 3.5H7.75C6.50736 3.5 5.5 4.50736 5.5 5.75V18.25C5.5 19.4926 6.50736 20.5 7.75 20.5H13.584C13.8003 21.2159 14.3637 21.7811 15.0785 22H7.75C5.67893 22 4 20.3211 4 18.25V5.75Z" fill="#161823"/>
<path d="M7.75 6.75C7.75 6.33579 8.08579 6 8.5 6H15.5C15.9142 6 16.25 6.33579 16.25 6.75C16.25 7.16421 15.9142 7.5 15.5 7.5H8.5C8.08579 7.5 7.75 7.16421 7.75 6.75Z" fill="#161823"/>
<path d="M8.5 9.25C8.08579 9.25 7.75 9.58579 7.75 10C7.75 10.4142 8.08579 10.75 8.5 10.75H13C13.4142 10.75 13.75 10.4142 13.75 10C13.75 9.58579 13.4142 9.25 13 9.25H8.5Z" fill="#161823"/>
<path d="M15.3523 12.1749C15.7075 11.9618 16.1682 12.0769 16.3813 12.4321L18.4772 15.9254L20.5732 12.4321C20.7863 12.0769 21.247 11.9618 21.6022 12.1749C21.9574 12.388 22.0726 12.8487 21.8595 13.2039L19.6923 16.8158H21.2163C21.6306 16.8158 21.9663 17.1516 21.9663 17.5658C21.9663 17.98 21.6306 18.3158 21.2163 18.3158H19.2269V19.0983H21.2163C21.6306 19.0983 21.9663 19.434 21.9663 19.8483C21.9663 20.2625 21.6306 20.5983 21.2163 20.5983H19.2269V21.9484C19.2269 22.3626 18.8911 22.6984 18.4769 22.6984C18.0627 22.6984 17.7269 22.3626 17.7269 21.9484V20.5983H15.7382C15.3239 20.5983 14.9882 20.2625 14.9882 19.8483C14.9882 19.434 15.3239 19.0983 15.7382 19.0983H17.7269V18.3158H15.7382C15.3239 18.3158 14.9882 17.98 14.9882 17.5658C14.9882 17.1516 15.3239 16.8158 15.7382 16.8158H17.2622L15.095 13.2039C14.8819 12.8487 14.9971 12.388 15.3523 12.1749Z" fill="#161823"/>
</svg>
