<svg width="20" height="20" viewBox="0 0 20 20" fill="none" xmlns="http://www.w3.org/2000/svg">
<path d="M7.05776 7.77205C6.36014 7.77205 5.52717 7.09018 5.52717 5.90132C5.52717 4.71247 6.36014 4.03059 7.05776 4.03059C7.75539 4.03059 8.58836 4.71247 8.58836 5.90132C8.58836 7.09018 7.75539 7.77205 7.05776 7.77205ZM7.05776 9.30264C8.74841 9.30264 10.119 7.77982 10.119 5.90132C10.119 4.02282 8.74841 2.5 7.05776 2.5C5.36712 2.5 3.99657 4.02282 3.99657 5.90132C3.99657 6.34143 4.0718 6.76201 4.20875 7.14806L1.9129 4.85221C1.62001 4.55931 1.14513 4.55931 0.852238 4.85221C0.559345 5.1451 0.559345 5.61997 0.852238 5.91287C4.98651 10.0471 9.13037 14.1859 13.2699 18.3254C13.5645 18.5676 14.0005 18.551 14.2758 18.2758C14.5687 17.9829 14.5687 17.508 14.2758 17.2151L13.8447 16.784C14.0176 16.454 14.1155 16.0785 14.1155 15.6801V15.255C14.1155 13.5993 13.0515 12.3285 11.7935 11.5489C10.5963 10.8069 9.05053 10.3783 7.38873 10.328L6.24089 9.1802C6.50094 9.26001 6.77487 9.30264 7.05776 9.30264ZM10.6428 18.061C10.7318 18.061 10.7765 17.9533 10.7135 17.8903L9.41216 16.589C9.37465 16.5515 9.32378 16.5305 9.27074 16.5305H2.38092C1.9113 16.5305 1.53059 16.1497 1.53059 15.6801V15.255C1.53059 13.9157 2.75961 12.7573 4.59179 12.2025C4.7404 12.1575 4.79215 11.969 4.68236 11.8592L3.79722 10.9741C3.74231 10.9192 3.66061 10.9007 3.58808 10.9285C1.74674 11.6324 0 13.1364 0 15.255V15.6801C0 16.9951 1.06597 18.061 2.38092 18.061H10.6428ZM12.5849 15.255V15.5242L9.1641 12.1034C11.1933 12.6095 12.5849 13.8299 12.5849 15.255ZM14.8825 6.45955C14.8825 5.58273 14.2772 5.15382 13.8604 5.15382C13.4436 5.15382 12.8383 5.58273 12.8383 6.45955C12.8383 7.33636 13.4436 7.76528 13.8604 7.76528C14.2772 7.76528 14.8825 7.33636 14.8825 6.45955ZM16.4131 6.45955C16.4131 8.026 15.2702 9.29587 13.8604 9.29587C12.4506 9.29587 11.3077 8.026 11.3077 6.45955C11.3077 4.89309 12.4506 3.62322 13.8604 3.62322C15.2702 3.62322 16.4131 4.89309 16.4131 6.45955ZM13.8604 10.45C13.7046 10.45 13.5497 10.4539 13.3959 10.4615C13.2107 10.4708 13.1468 10.7091 13.2917 10.8248C13.6901 11.1428 14.0693 11.5128 14.4019 11.9331C14.4371 11.9776 14.4894 12.0058 14.5459 12.0108C16.7999 12.2118 18.4694 13.3916 18.4694 14.8169V15.1715C18.4694 15.5631 18.1519 15.8806 17.7603 15.8806H15.8292C15.7194 15.8806 15.6307 15.9691 15.6242 16.0787C15.6025 16.444 15.5299 16.7951 15.4136 17.1245C15.3653 17.2612 15.4628 17.4111 15.6078 17.4111H17.7603C18.9973 17.4111 20 16.4084 20 15.1715V14.8169C20 13.3173 19.0364 12.1878 17.9434 11.5104C16.832 10.8216 15.3891 10.45 13.8604 10.45Z" fill="#161823"/>
</svg>
