<svg width="24" height="24" viewBox="0 0 24 24" fill="none" xmlns="http://www.w3.org/2000/svg">
<path d="M8.39453 9.53125L7.375 12.7656H9.48438L8.4707 9.53125H8.39453Z" fill="#161823"/>
<path d="M1 7.75C1 5.67893 2.67893 4 4.75 4H19.25C21.3211 4 23 5.67893 23 7.75V12.8772C21.9241 12.0356 20.5762 11.5255 19.1102 11.5009C18.9581 9.20805 17.7355 8.00195 15.5521 8.00195H13.6888C12.9857 8.00195 12.6341 8.33594 12.6341 9.01562V14.9863C12.6341 15.3274 12.7227 15.5814 12.8997 15.7499C12.6412 16.4507 12.5 17.2083 12.5 17.999C12.5 18.6972 12.6101 19.3696 12.8139 20H4.75C2.67893 20 1 18.3211 1 16.25V7.75ZM5.75781 16.0703C6.17969 16.0703 6.41406 15.8535 6.57812 15.3027L7.02344 13.9434H9.83008L10.2812 15.3027C10.4395 15.8477 10.6855 16.0703 11.1133 16.0703C11.5645 16.0703 11.8633 15.8008 11.8633 15.3789C11.8633 15.2148 11.8223 15.0215 11.7402 14.7695L9.72461 8.99219C9.47266 8.24219 9.12109 7.9375 8.45898 7.9375C7.79102 7.9375 7.43359 8.24805 7.18164 8.99219L5.16602 14.7695C5.06641 15.0684 5.02539 15.25 5.02539 15.4082C5.02539 15.8066 5.32422 16.0703 5.75781 16.0703Z" fill="#161823"/>
<path d="M17.5012 11.6734C16.2172 11.9763 15.0803 12.66 14.2162 13.5988V9.29102H15.3529C16.7274 9.29102 17.4209 10.0545 17.5012 11.6734Z" fill="#161823"/>
<path d="M18.9989 21.4979C17.0665 21.4979 15.4999 19.9314 15.4999 17.999C15.4999 16.0665 17.0665 14.5 18.9989 14.5C20.9313 14.5 22.4979 16.0665 22.4979 17.999C22.4979 19.9314 20.9313 21.4979 18.9989 21.4979ZM18.9989 22.9979C21.7597 22.9979 23.9979 20.7598 23.9979 17.999C23.9979 15.2381 21.7597 13 18.9989 13C16.238 13 13.9999 15.2381 13.9999 17.999C13.9999 20.7598 16.238 22.9979 18.9989 22.9979Z" fill="#161823"/>
<path d="M16.9989 17.999C16.9989 17.5848 17.3347 17.249 17.7489 17.249H20.2489C20.6632 17.249 20.9989 17.5848 20.9989 17.999C20.9989 18.4132 20.6632 18.749 20.2489 18.749H17.7489C17.3347 18.749 16.9989 18.4132 16.9989 17.999Z" fill="#161823"/>
</svg>
