<svg width="20" height="20" viewBox="0 0 20 20" fill="none" xmlns="http://www.w3.org/2000/svg">
<path d="M8.81492 1.67004C4.86885 1.67004 1.66992 4.86897 1.66992 8.81504C1.66992 12.7611 4.86885 15.96 8.81492 15.96C10.5178 15.96 12.0815 15.3643 13.3091 14.3699L17.1779 18.2387C17.4708 18.5316 17.9456 18.5316 18.2385 18.2387C18.5314 17.9458 18.5314 17.4709 18.2385 17.178L14.3698 13.3093C15.3642 12.0817 15.9599 10.5179 15.9599 8.81504C15.9599 4.86897 12.761 1.67004 8.81492 1.67004ZM3.16992 8.81504C3.16992 5.6974 5.69727 3.17004 8.81492 3.17004C11.9326 3.17004 14.4599 5.6974 14.4599 8.81504C14.4599 11.9327 11.9326 14.46 8.81492 14.46C5.69727 14.46 3.16992 11.9327 3.16992 8.81504Z" fill="#161823"/>
</svg>
