<svg width="24" height="24" viewBox="0 0 24 24" fill="none" xmlns="http://www.w3.org/2000/svg">
<path d="M14.2777 3.00058C14.9374 3.14752 15.5148 3.5438 15.8892 4.10657L16.4159 4.89854C16.645 5.24299 17.0066 5.47713 17.4146 5.54529L18.0621 5.65345C19.9258 5.96476 21.3811 7.43367 21.6752 9.30012L21.7775 9.94969C22.113 12.0794 22.0688 14.2517 21.6469 16.3661C21.2486 18.3621 19.7766 19.9729 17.8245 20.549L17.5754 20.6225C13.9361 21.6966 10.0639 21.6966 6.42455 20.6225L6.17552 20.549C4.22335 19.9729 2.75143 18.3621 2.35312 16.3661C1.93122 14.2517 1.887 12.0794 2.22251 9.94969L2.32484 9.30012C2.61887 7.43367 4.07423 5.96476 5.93788 5.65345L6.58537 5.54529C6.9934 5.47713 7.35496 5.24299 7.58407 4.89854L8.11085 4.10657C8.48518 3.5438 9.06257 3.14752 9.72229 3.00058C11.2224 2.66647 12.7776 2.66647 14.2777 3.00058ZM14.1035 9.51659C13.2063 9.43128 12.4312 9.95439 11.9998 10.5084C11.5683 9.95439 10.7921 9.42191 9.89606 9.51659C8.54369 9.65947 7.79237 10.7556 7.79237 12.0975C7.79237 14.5825 11.0531 16.6582 11.9998 16.6582C12.9464 16.6582 16.2071 14.5825 16.2071 12.0975C16.2071 10.7556 15.4558 9.64518 14.1035 9.51659Z" fill="#161823"/>
</svg>
