<svg width="24" height="24" viewBox="0 0 24 24" fill="none" xmlns="http://www.w3.org/2000/svg">
<path d="M16.3067 11.9999C16.3067 9.62143 14.3785 7.69327 12 7.69327C9.62152 7.69327 7.69336 9.62143 7.69336 11.9999C7.69336 14.3784 9.62152 16.3066 12 16.3066C14.3785 16.3066 16.3067 14.3784 16.3067 11.9999ZM9.19336 11.9999C9.19336 10.4499 10.4499 9.19327 12 9.19327C13.5501 9.19327 14.8067 10.4499 14.8067 11.9999C14.8067 13.55 13.5501 14.8066 12 14.8066C10.4499 14.8066 9.19336 13.55 9.19336 11.9999Z" fill="#161823"/>
<path d="M10.939 2.00673L11.0863 2H12.9136C13.7075 2 14.3814 2.58219 14.4965 3.36721L14.705 4.79L14.9491 4.88552L15.184 4.988L16.339 4.13049C16.9335 3.68838 17.7465 3.71549 18.3088 4.17736L18.4252 4.28297L19.7171 5.57475C20.2789 6.13626 20.3434 7.02447 19.8699 7.66115L19.011 8.814L19.1133 9.04834C19.1745 9.19574 19.2312 9.34513 19.2831 9.49631L19.288 9.513L20.677 9.75814C21.3944 9.88421 21.9295 10.4763 21.9935 11.1897L22 11.3339V12.6661C22 13.4426 21.4425 14.1074 20.6781 14.2418L19.288 14.486L19.1786 14.7896C19.1369 14.8969 19.0928 15.0032 19.0463 15.1085L18.911 15.394L19.7213 16.551C20.1369 17.1446 20.0989 17.9368 19.6455 18.4862L19.5421 18.6001L18.6001 19.5421C18.0513 20.0908 17.1883 20.1666 16.5511 19.7215L15.394 18.911L15.1083 19.0465C15.0031 19.093 14.8968 19.1371 14.7894 19.1788L14.486 19.288L14.2419 20.677C14.1158 21.3944 13.5237 21.9295 12.8103 21.9935L12.6661 22H11.3339C10.5574 22 9.89255 21.4425 9.75822 20.6781L9.513 19.288L9.21059 19.179C9.10327 19.1372 8.99695 19.0931 8.8917 19.0467L8.604 18.912L7.44855 19.7219C6.85516 20.1369 6.06342 20.0989 5.51403 19.6456L5.40018 19.5422L4.45831 18.6003C3.9093 18.0515 3.83366 17.188 4.27877 16.5512L5.087 15.395L4.97951 15.1669C4.91378 15.0214 4.85258 14.8738 4.79601 14.7242L4.789 14.705L3.36773 14.4967C2.63129 14.3887 2.07357 13.7897 2.00673 13.061L2 12.9137V11.0864C2 10.2925 2.58219 9.61862 3.36718 9.50346L4.79 9.294L4.88524 9.05092L4.988 8.815L4.13025 7.66105C3.68821 7.06653 3.71534 6.25338 4.17724 5.69141L4.28286 5.575L5.57492 4.28293C6.13618 3.72167 7.02414 3.6567 7.66101 4.13035L8.815 4.988L9.05091 4.8854L9.294 4.79L9.50328 3.36773C9.61132 2.63129 10.2103 2.07357 10.939 2.00673ZM13.0125 3.58545C13.0053 3.53637 12.9632 3.5 12.9136 3.5H11.0863C11.0367 3.5 10.9946 3.53637 10.9874 3.58545L10.6397 5.94975C9.93499 6.10748 9.27558 6.38519 8.68404 6.76031L6.76596 5.33405C6.72616 5.30445 6.67066 5.30851 6.63558 5.34359L5.34352 6.63566C5.30844 6.67073 5.30438 6.72623 5.33398 6.76604L6.7602 8.68406C6.38504 9.27562 6.10729 9.93505 5.94953 10.6398L3.58545 10.9875C3.53637 10.9947 3.5 11.0368 3.5 11.0864V12.9137C3.5 12.9633 3.53637 13.0054 3.58545 13.0126L5.9495 13.3603C6.12144 14.1284 6.43594 14.8428 6.86376 15.4741L5.5076 17.4114C5.47978 17.4512 5.48451 17.5052 5.51882 17.5395L6.46083 18.4815C6.49514 18.5158 6.54913 18.5205 6.58888 18.4927L8.52635 17.1365C9.20786 17.5983 9.98616 17.928 10.8245 18.0888L11.2354 20.4174C11.2438 20.4652 11.2853 20.5 11.3339 20.5H12.6661C12.7146 20.5 12.7561 20.4652 12.7645 20.4174L13.1755 18.0888C14.0138 17.9279 14.7921 17.5981 15.4736 17.1363L17.4113 18.4927C17.4511 18.5205 17.505 18.5158 17.5394 18.4814L18.4814 17.5394C18.5157 17.5051 18.5204 17.4511 18.4926 17.4114L17.1362 15.4737C17.598 14.7922 17.9277 14.0139 18.0886 13.1756L20.4174 12.7646C20.4652 12.7562 20.5 12.7147 20.5 12.6661V11.3339C20.5 11.2854 20.4652 11.2439 20.4174 11.2355L18.0885 10.8245C17.9399 10.0503 17.6473 9.32731 17.2397 8.68447L18.6662 6.76609C18.6958 6.72629 18.6918 6.67079 18.6567 6.63571L17.3646 5.34365C17.3295 5.30857 17.274 5.30451 17.2342 5.33411L15.316 6.76051C14.7244 6.38534 14.065 6.10758 13.3602 5.94981L13.0125 3.58545Z" fill="#161823"/>
</svg>
