<svg width="20" height="20" viewBox="0 0 20 20" fill="none" xmlns="http://www.w3.org/2000/svg">
<path d="M9.79822 0.945324C9.93254 0.907083 10.0749 0.907101 10.2092 0.945376L17.7056 3.08179C18.0278 3.17362 18.25 3.46802 18.25 3.80307V8.18433C18.25 13.1242 15.0105 17.4936 10.233 19.0466C10.0823 19.0956 9.91997 19.0956 9.7693 19.0466C4.99047 17.4936 1.75 13.1233 1.75 8.18231V3.80307C1.75 3.46795 1.97232 3.17351 2.29462 3.08174L9.79822 0.945324ZM3.25 4.36934V8.18231C3.25 12.3741 5.94961 16.1198 10.0011 17.5417C14.0513 16.1198 16.75 12.3751 16.75 8.18433V4.36919L10.0035 2.44649L3.25 4.36934Z" fill="#161823"/>
<path d="M9.99988 8.09524C10.9762 8.09524 11.7677 7.21579 11.7677 6.13095C11.7677 5.0461 10.9762 4.16666 9.99988 4.16666C9.02351 4.16666 8.23201 5.0461 8.23201 6.13095C8.23201 7.21579 9.02351 8.09524 9.99988 8.09524Z" fill="#161823"/>
<path d="M5.41667 12.197C5.41667 10.5234 7.42188 9.16666 10 9.16666C12.5781 9.16666 14.5833 10.5234 14.5833 12.197C14.5833 12.8246 14.1098 13.3333 13.5256 13.3333H6.47436C5.89021 13.3333 5.41667 12.8246 5.41667 12.197Z" fill="#161823"/>
</svg>
