<svg width="12" height="12" viewBox="0 0 12 12" fill="none" xmlns="http://www.w3.org/2000/svg">
<path d="M2 5.4C2 4.90294 2.40294 4.5 2.9 4.5C3.39706 4.5 3.8 4.90294 3.8 5.4V9.1C3.8 9.59706 3.39706 10 2.9 10C2.40294 10 2 9.59706 2 9.1V5.4Z" fill="#161823"/>
<path d="M5.1 2.4C5.1 1.90294 5.50294 1.5 6 1.5C6.49706 1.5 6.9 1.90294 6.9 2.4V9.1C6.9 9.59706 6.49706 10 6 10C5.50294 10 5.1 9.59706 5.1 9.1V2.4Z" fill="#161823"/>
<path d="M8.2 6.2C8.2 5.70294 8.60294 5.3 9.1 5.3C9.59706 5.3 10 5.70294 10 6.2V9.1C10 9.59706 9.59706 10 9.1 10C8.60294 10 8.2 9.59706 8.2 9.1V6.2Z" fill="#161823"/>
</svg>
