<svg width="16" height="16" viewBox="0 0 16 16" fill="none" xmlns="http://www.w3.org/2000/svg">
<path d="M8.00033 1.00009C6.34244 1.00009 5.13366 2.51273 5.13366 4.20009C5.13366 5.88745 6.34244 7.40009 8.00033 7.40009C9.65821 7.40009 10.867 5.88745 10.867 4.20009C10.867 2.51273 9.65821 1.00009 8.00033 1.00009Z" fill="#161823"/>
<path d="M7.98359 8.79999C6.3627 8.79999 4.88087 9.18761 3.78421 9.89359C2.68187 10.6032 1.93359 11.666 1.93359 12.9727C1.93359 14.0923 2.84124 15 3.96087 15H12.0063C13.126 15 14.0336 14.0923 14.0336 12.9727C14.0336 11.666 13.2853 10.6032 12.183 9.89359C11.0863 9.18761 9.60449 8.79999 7.98359 8.79999Z" fill="#161823"/>
</svg>
