<svg width="20" height="20" viewBox="0 0 20 20" fill="none" xmlns="http://www.w3.org/2000/svg">
<path fill-rule="evenodd" clip-rule="evenodd" d="M13.9995 10C13.9995 12.2091 12.2087 14 9.99952 14C7.79038 14 5.99952 12.2091 5.99952 10C5.99952 7.79086 7.79038 6 9.99952 6C12.2087 6 13.9995 7.79086 13.9995 10ZM12.4995 10C12.4995 11.3807 11.3802 12.5 9.99952 12.5C8.61881 12.5 7.49952 11.3807 7.49952 10C7.49952 8.61929 8.61881 7.5 9.99952 7.5C11.3802 7.5 12.4995 8.61929 12.4995 10Z" fill="#161823"/>
<path fill-rule="evenodd" clip-rule="evenodd" d="M9.99955 3C14.3305 3 17.9725 5.94988 19.0258 9.95002C19.0344 9.98268 19.0344 10.0172 19.0258 10.0499C17.9725 14.0501 14.3305 17 9.99953 17C5.66859 17 2.02662 14.0501 0.973246 10.05C0.964647 10.0173 0.964647 9.98277 0.973246 9.95011C2.02659 5.94992 5.66858 3 9.99955 3ZM9.99953 15.5C6.48749 15.5 3.51206 13.1875 2.51918 10C3.51204 6.81257 6.48748 4.5 9.99955 4.5C13.5116 4.5 16.487 6.81253 17.4799 9.99996C16.487 13.1874 13.5116 15.5 9.99953 15.5Z" fill="#161823"/>
</svg>
