<svg width="24" height="24" viewBox="0 0 24 24" fill="none" xmlns="http://www.w3.org/2000/svg">
<path d="M16.6001 7C16.6001 9.20914 14.9883 11 13.0001 11C11.0118 11 9.40006 9.20914 9.40006 7C9.40006 4.79086 11.0118 3 13.0001 3C14.9883 3 16.6001 4.79086 16.6001 7Z" fill="#161823"/>
<path d="M13 12.5C10.9441 12.5 9.03427 13.0007 7.58876 13.8966C6.16124 14.7813 5.00004 16.1933 5.00004 18V18.5C5.00004 19.8807 6.11932 21 7.50004 21H16.1735C16.284 21 16.3735 20.9105 16.3735 20.8V19.4059C15.4911 20.0876 14.2185 20.0237 13.4092 19.2144C12.5305 18.3357 12.5305 16.9111 13.4092 16.0324L16.2025 13.2391C16.3087 13.1329 16.2641 12.9524 16.1195 12.9121C15.1536 12.6427 14.0976 12.5 13 12.5Z" fill="#161823"/>
<path d="M7.8999 7C7.8999 6.05254 8.13056 5.1342 8.54526 4.32804C8.19783 4.17191 7.8181 4.08594 7.4203 4.08594C5.76235 4.08594 4.4183 5.57932 4.4183 7.42149C4.4183 9.26367 5.76235 10.757 7.4203 10.757C7.96925 10.757 8.48377 10.5933 8.9265 10.3075C8.27422 9.36671 7.8999 8.20698 7.8999 7Z" fill="#161823"/>
<path d="M6.79853 12.856C7.05356 12.6979 7.31891 12.5511 7.59336 12.4157C7.53579 12.4148 7.4781 12.4143 7.42028 12.4143C5.66806 12.4143 4.02811 12.8407 2.77661 13.6163C1.54311 14.3808 0.5 15.6267 0.5 17.2499V17.6668C0.5 18.9558 1.54492 20.0007 2.83389 20.0007H3.7046C3.57188 19.6028 3.5 19.177 3.5 18.7344V18.2344C3.5 15.7256 5.11148 13.9015 6.79853 12.856Z" fill="#161823"/>
<path d="M22.7771 18.1537C22.4842 18.4466 22.0094 18.4466 21.7165 18.1537L19.3734 15.8106V22C19.3734 22.4142 19.0376 22.75 18.6234 22.75C18.2092 22.75 17.8734 22.4142 17.8734 22V15.8107L15.5303 18.1537C15.2374 18.4466 14.7626 18.4466 14.4697 18.1537C14.1768 17.8608 14.1768 17.386 14.4697 17.0931L18.0931 13.4697C18.386 13.1768 18.8608 13.1768 19.1537 13.4697L22.7771 17.0931C23.07 17.386 23.07 17.8608 22.7771 18.1537Z" fill="#161823"/>
</svg>
