<svg width="24" height="24" viewBox="0 0 24 24" fill="none" xmlns="http://www.w3.org/2000/svg">
<path d="M17.9492 3.06104H5.29961C3.80844 3.06104 2.59961 4.26987 2.59961 5.76104V13.8602C2.59961 15.3514 3.80844 16.5602 5.29961 16.5602H12.9011V15.0602H5.29961C4.63687 15.0602 4.09961 14.5229 4.09961 13.8602V5.76104C4.09961 5.09829 4.63687 4.56104 5.29961 4.56104H17.9492C18.6119 4.56104 19.1492 5.09829 19.1492 5.76103V7.66943H19.422C19.8518 7.66943 20.2647 7.74173 20.6492 7.87481V5.76103C20.6492 4.26987 19.4403 3.06104 17.9492 3.06104Z" fill="#161823"/>
<path d="M7.31654 18.1713L12.976 18.1713C13.0883 18.7254 13.3228 19.2352 13.6502 19.6713L7.31654 19.6713C6.90233 19.6713 6.56654 19.3355 6.56654 18.9213C6.56654 18.5071 6.90233 18.1713 7.31654 18.1713Z" fill="#161823"/>
<path d="M16.6511 9.16943C15.4084 9.16943 14.4011 10.1768 14.4011 11.4194V17.4221C14.4011 18.6647 15.4084 19.6721 16.6511 19.6721H19.422C20.6647 19.6721 21.672 18.6647 21.672 17.4221V11.4194C21.672 10.1768 20.6647 9.16943 19.422 9.16943H16.6511ZM15.9011 11.4194C15.9011 11.0052 16.2369 10.6694 16.6511 10.6694H16.7177V11.0361C16.7177 11.4043 17.0162 11.7027 17.3844 11.7027H18.7177C19.0859 11.7027 19.3844 11.4043 19.3844 11.0361V10.6694H19.422C19.8362 10.6694 20.172 11.0052 20.172 11.4194V17.4221C20.172 17.8363 19.8362 18.1721 19.422 18.1721H16.6511C16.2369 18.1721 15.9011 17.8363 15.9011 17.4221V11.4194Z" fill="#161823"/>
</svg>
