<svg width="25" height="24" viewBox="0 0 25 24" fill="none" xmlns="http://www.w3.org/2000/svg">
<path d="M8.39453 9.53125L7.375 12.7656H9.48438L8.4707 9.53125H8.39453Z" fill="#161823"/>
<path fill-rule="evenodd" clip-rule="evenodd" d="M1 7.75C1 5.67893 2.67893 4 4.75 4H19.25C21.3211 4 23 5.67893 23 7.75V11.5928C23 11.7906 22.728 11.879 22.596 11.7317C21.7429 10.7799 20.5022 10.1833 19.1289 10.1833C19.0936 10.1833 19.0584 10.1837 19.0233 10.1845C18.9329 10.1865 18.851 10.1304 18.8195 10.0457C18.3193 8.70073 17.214 8.00195 15.5521 8.00195H13.6888C12.9857 8.00195 12.6341 8.33594 12.6341 9.01563V14.9863C12.6341 15.666 12.9857 16 13.6888 16H14.4929C14.5783 16 14.6525 16.0575 14.677 16.1393L14.8043 16.679C14.826 16.7711 14.7799 16.8652 14.6961 16.9091C13.6176 17.4739 12.8479 18.5483 12.7067 19.8125C12.695 19.9176 12.6081 20 12.5024 20H4.75C2.67893 20 1 18.3211 1 16.25V7.75ZM6.57813 15.3027C6.41406 15.8535 6.17969 16.0703 5.75781 16.0703C5.32422 16.0703 5.02539 15.8066 5.02539 15.4082C5.02539 15.25 5.06641 15.0684 5.16602 14.7695L7.18164 8.99219C7.43359 8.24805 7.79102 7.9375 8.45898 7.9375C9.12109 7.9375 9.47266 8.24219 9.72461 8.99219L11.7402 14.7695C11.8223 15.0215 11.8633 15.2148 11.8633 15.3789C11.8633 15.8008 11.5645 16.0703 11.1133 16.0703C10.6855 16.0703 10.4395 15.8477 10.2813 15.3027L9.83008 13.9434H7.02344L6.57813 15.3027Z" fill="#161823"/>
<path d="M21.8333 17.9833C22.0723 17.9833 22.3025 18.0206 22.5186 18.0896C23.4261 18.3794 24.0833 19.2296 24.0833 20.2333V21.4556C24.0833 22.2073 23.4739 22.8167 22.7222 22.8167H15.5444C14.7927 22.8167 14.1833 22.2073 14.1833 21.4556V20.2333C14.1833 20.1545 14.1874 20.0767 14.1953 20C14.269 19.2842 14.6784 18.6678 15.2634 18.311C15.6043 18.1031 16.0048 17.9833 16.4333 17.9833H16.653L16.1258 15.7474C16.033 15.4517 15.9833 15.138 15.9833 14.8139C15.9833 14.7557 15.9849 14.6979 15.9881 14.6405C16.0466 13.5726 16.642 12.6497 17.508 12.1306C17.9795 11.848 18.5311 11.685 19.1199 11.6833C19.1229 11.6833 19.1259 11.6833 19.1289 11.6833C20.8617 11.6833 22.2744 13.0806 22.2744 14.8139C22.2744 15.1378 22.2247 15.4515 22.1321 15.7471L21.6048 17.9833H21.8333Z" fill="#161823"/>
<path d="M15.3529 9.29102C16.2881 9.29102 16.908 9.64446 17.2341 10.3803C17.2769 10.4769 17.2275 10.5869 17.1322 10.6322C15.6385 11.3421 14.5793 12.8242 14.4895 14.5724C14.4857 14.646 14.4257 14.7051 14.3519 14.7051C14.277 14.7051 14.2162 14.6443 14.2162 14.5693V9.29102H15.3529Z" fill="#161823"/>
</svg>
