<svg width="20" height="20" viewBox="0 0 20 20" fill="none" xmlns="http://www.w3.org/2000/svg">
<path d="M6.6145 9.25006C6.20029 9.25006 5.8645 9.58585 5.8645 10.0001C5.8645 10.4143 6.20029 10.7501 6.6145 10.7501H13.2812C13.6954 10.7501 14.0312 10.4143 14.0312 10.0001C14.0312 9.58585 13.6954 9.25006 13.2812 9.25006H6.6145Z" fill="#161823"/>
<path d="M5.8645 7.00006C5.8645 6.58585 6.20029 6.25006 6.6145 6.25006H13.2812C13.6954 6.25006 14.0312 6.58585 14.0312 7.00006C14.0312 7.41427 13.6954 7.75006 13.2812 7.75006H6.6145C6.20029 7.75006 5.8645 7.41427 5.8645 7.00006Z" fill="#161823"/>
<path d="M6.6145 12.2501C6.20029 12.2501 5.8645 12.5858 5.8645 13.0001C5.8645 13.4143 6.20029 13.7501 6.6145 13.7501H13.2812C13.6954 13.7501 14.0312 13.4143 14.0312 13.0001C14.0312 12.5858 13.6954 12.2501 13.2812 12.2501H6.6145Z" fill="#161823"/>
<path d="M18.3337 10.0001C18.3337 14.6025 14.6027 18.3334 10.0003 18.3334C5.39795 18.3334 1.66699 14.6025 1.66699 10.0001C1.66699 5.39771 5.39795 1.66675 10.0003 1.66675C14.6027 1.66675 18.3337 5.39771 18.3337 10.0001ZM16.8337 10.0001C16.8337 6.22614 13.7743 3.16675 10.0003 3.16675C6.22638 3.16675 3.16699 6.22614 3.16699 10.0001C3.16699 13.774 6.22638 16.8334 10.0003 16.8334C13.7743 16.8334 16.8337 13.774 16.8337 10.0001Z" fill="#161823"/>
</svg>
