<svg width="20" height="20" viewBox="0 0 20 20" fill="none" xmlns="http://www.w3.org/2000/svg">
<path d="M6.07617 1.67358C4.55739 1.67358 3.32617 2.9048 3.32617 4.42358V15.5764C3.32617 17.0952 4.55739 18.3264 6.07617 18.3264H11.0015C11.1813 18.3264 11.2768 18.1001 11.1679 17.957C10.943 17.6614 10.7696 17.3287 10.6562 16.9736C10.6287 16.8874 10.5501 16.8264 10.4596 16.8264H6.07617C5.38582 16.8264 4.82617 16.2667 4.82617 15.5764V4.42358C4.82617 3.73323 5.38582 3.17358 6.07617 3.17358H13.9245C14.6149 3.17358 15.1745 3.73323 15.1745 4.42358V8.69548C15.1745 8.82646 15.2984 8.92194 15.4274 8.89901C15.7591 8.84003 16.0979 8.83284 16.4314 8.87743C16.5574 8.89427 16.6745 8.79971 16.6745 8.67258V4.42358C16.6745 2.9048 15.4433 1.67358 13.9245 1.67358H6.07617Z" fill="#161823"/>
<path d="M6.33363 5.625C6.33363 5.21079 6.66942 4.875 7.08363 4.875H12.917C13.3312 4.875 13.667 5.21079 13.667 5.625C13.667 6.03921 13.3312 6.375 12.917 6.375H7.08363C6.66942 6.375 6.33363 6.03921 6.33363 5.625Z" fill="#161823"/>
<path d="M7.08363 7.58337C6.66941 7.58337 6.33363 7.91916 6.33363 8.33337C6.33363 8.74759 6.66941 9.08337 7.08363 9.08337H10.8336C11.2478 9.08337 11.5836 8.74759 11.5836 8.33337C11.5836 7.91916 11.2478 7.58337 10.8336 7.58337H7.08363Z" fill="#161823"/>
<path d="M16.8796 10.5847C16.3345 10.2699 15.6629 10.2699 15.1177 10.5847L12.8827 11.875C12.3376 12.1898 12.0018 12.7714 12.0018 13.4009V15.9816C12.0018 16.6111 12.3376 17.1928 12.8827 17.5075L15.1177 18.7979C15.6629 19.1126 16.3345 19.1126 16.8796 18.7979L19.1146 17.5075C19.6598 17.1928 19.9956 16.6111 19.9956 15.9816V13.4009C19.9956 12.7714 19.6598 12.1898 19.1146 11.875L16.8796 10.5847ZM15.8677 11.8837C15.9487 11.8369 16.0486 11.8369 16.1296 11.8837L18.3646 13.1741C18.4457 13.2209 18.4956 13.3073 18.4956 13.4009V15.9816C18.4956 16.0752 18.4457 16.1617 18.3646 16.2085L16.1296 17.4988C16.0486 17.5456 15.9487 17.5456 15.8677 17.4988L13.6327 16.2085C13.5517 16.1617 13.5018 16.0752 13.5018 15.9816V13.4009C13.5018 13.3073 13.5517 13.2209 13.6327 13.1741L15.8677 11.8837ZM15.9987 15.9413C16.689 15.9413 17.2487 15.3816 17.2487 14.6913C17.2487 14.0009 16.689 13.4413 15.9987 13.4413C15.3083 13.4413 14.7487 14.0009 14.7487 14.6913C14.7487 15.3816 15.3083 15.9413 15.9987 15.9413Z" fill="#161823"/>
</svg>
