<svg width="16" height="16" viewBox="0 0 16 16" fill="none" xmlns="http://www.w3.org/2000/svg">
<path fill-rule="evenodd" clip-rule="evenodd" d="M10.6241 12.5472C9.62311 13.1248 8.45954 13.356 7.31379 13.205C6.16805 13.0539 5.10416 12.529 4.28712 11.7117C3.47007 10.8944 2.94553 9.83037 2.79483 8.68458C2.64414 7.53879 2.87572 6.37529 3.45365 5.37453C4.03158 4.37376 4.92358 3.59164 5.9913 3.14948C7.05903 2.70731 8.24281 2.6298 9.35908 2.92896C10.4753 3.22813 11.4617 3.88725 12.1652 4.80411C12.8687 5.72098 13.25 6.84434 13.25 8C13.25 8.41422 13.5858 8.75 14 8.75C14.4142 8.75 14.75 8.41422 14.75 8C14.75 6.51416 14.2597 5.06983 13.3553 3.891C12.4508 2.71218 11.1826 1.86473 9.74738 1.48009C8.31218 1.09545 6.79017 1.19511 5.41739 1.76361C4.0446 2.33211 2.89775 3.33769 2.15469 4.62439C1.41163 5.91109 1.11389 7.40702 1.30764 8.88018C1.50139 10.3533 2.1758 11.7214 3.22629 12.7722C4.27678 13.823 5.64463 14.4979 7.11773 14.6921C8.59083 14.8863 10.0869 14.589 11.3738 13.8464C11.7325 13.6393 11.8556 13.1807 11.6485 12.8219C11.4415 12.4632 10.9828 12.3402 10.6241 12.5472Z" fill="#161823"/>
</svg>
