<svg width="16" height="16" viewBox="0 0 16 16" fill="none" xmlns="http://www.w3.org/2000/svg">
<path fill-rule="evenodd" clip-rule="evenodd" d="M2 5.2C2 4.0799 2 3.51984 2.21799 3.09202C2.40973 2.71569 2.71569 2.40973 3.09202 2.21799C3.51984 2 4.0799 2 5.2 2H10.8C11.9201 2 12.4802 2 12.908 2.21799C13.2843 2.40973 13.5903 2.71569 13.782 3.09202C14 3.51984 14 4.0799 14 5.2V8.26667C14 9.38677 14 9.94682 13.782 10.3746C13.5903 10.751 13.2843 11.0569 12.908 11.2487C12.4802 11.4667 11.9201 11.4667 10.8 11.4667H5.2C4.0799 11.4667 3.51984 11.4667 3.09202 11.2487C2.71569 11.0569 2.40973 10.751 2.21799 10.3746C2 9.94682 2 9.38677 2 8.26667V5.2ZM9.93333 6.1C9.93333 5.76863 10.202 5.5 10.5333 5.5C10.8647 5.5 11.1333 5.76863 11.1333 6.1V8.86667C11.1333 9.19804 10.8647 9.46667 10.5333 9.46667C10.202 9.46667 9.93333 9.19804 9.93333 8.86667V6.1ZM8 4C7.66863 4 7.4 4.26863 7.4 4.6V8.86667C7.4 9.19804 7.66863 9.46667 8 9.46667C8.33137 9.46667 8.6 9.19804 8.6 8.86667V4.6C8.6 4.26863 8.33137 4 8 4ZM4.86667 7.4C4.86667 7.06863 5.1353 6.8 5.46667 6.8C5.79804 6.8 6.06667 7.06863 6.06667 7.4V8.86667C6.06667 9.19804 5.79804 9.46667 5.46667 9.46667C5.1353 9.46667 4.86667 9.19804 4.86667 8.86667V7.4Z" fill="#161823"/>
<path d="M4.66667 12.6667C4.29848 12.6667 4 12.9651 4 13.3333C4 13.7015 4.29848 14 4.66667 14H11.3333C11.7015 14 12 13.7015 12 13.3333C12 12.9651 11.7015 12.6667 11.3333 12.6667H4.66667Z" fill="#161823"/>
</svg>
