<svg width="20" height="20" viewBox="0 0 20 20" fill="none" xmlns="http://www.w3.org/2000/svg">
<path d="M8.16809 7.1846C8.89543 7.10775 9.52627 7.36659 10.001 7.72036C10.4754 7.36912 11.1029 7.11524 11.8241 7.18382C12.5925 7.25689 13.2203 7.61816 13.6455 8.1678C14.0619 8.70614 14.2561 9.38679 14.2561 10.0812C14.2561 11.4366 13.384 12.575 12.5471 13.3187C12.1143 13.7033 11.6517 14.0184 11.2328 14.2413C10.8501 14.4449 10.3931 14.6318 9.99998 14.6318C9.60683 14.6318 9.14989 14.4449 8.76711 14.2413C8.34821 14.0184 7.8857 13.7033 7.45287 13.3187C6.61596 12.575 5.74382 11.4366 5.74382 10.0812C5.74382 9.38615 5.93845 8.70807 6.35535 8.17115C6.78034 7.6238 7.40561 7.26516 8.16809 7.1846ZM8.3257 8.6763C7.9612 8.71481 7.70993 8.87241 7.54013 9.09109C7.36223 9.32021 7.24382 9.65795 7.24382 10.0812C7.24382 10.7966 7.73031 11.5585 8.44926 12.1974C8.79436 12.5041 9.15908 12.7508 9.47155 12.917C9.62772 13.0001 9.76175 13.0582 9.86599 13.0939C9.94313 13.1203 9.98612 13.1283 9.99998 13.1307C10.0138 13.1283 10.0568 13.1203 10.134 13.0939C10.2382 13.0582 10.3722 13.0001 10.5284 12.917C10.8409 12.7508 11.2056 12.5041 11.5507 12.1974C12.2696 11.5585 12.7561 10.7966 12.7561 10.0812C12.7561 9.65732 12.6374 9.31618 12.459 9.08551C12.2893 8.86614 12.0406 8.71118 11.6821 8.67708C11.2712 8.63801 10.8516 8.88404 10.5917 9.2178L9.99998 9.97769L9.40823 9.2178C9.1438 8.87823 8.7256 8.63405 8.3257 8.6763Z" fill="#161823"/>
<path d="M13.2909 3.29708C12.9736 2.82094 12.4847 2.48577 11.9262 2.36158C10.6576 2.0795 9.34256 2.0795 8.07398 2.36158C7.51548 2.48577 7.02655 2.82094 6.70931 3.29708L6.26457 3.96459C6.07077 4.25548 5.76518 4.45315 5.42041 4.51065L4.8655 4.60319C3.29294 4.86544 2.06462 6.10455 1.81611 7.67934L1.72754 8.24064C1.44481 10.0323 1.48208 11.86 1.8376 13.6387C2.17534 15.3284 3.42875 16.688 5.08556 17.1616L5.35777 17.2394C8.39187 18.1069 11.6083 18.1069 14.6424 17.2394L14.9146 17.1616C16.5714 16.688 17.8248 15.3284 18.1626 13.6387C18.5181 11.86 18.5554 10.0323 18.2726 8.24064L18.1841 7.67934C17.9356 6.10455 16.7072 4.86544 15.1347 4.60319L14.5798 4.51065C14.235 4.45315 13.9294 4.25548 13.7356 3.96459L13.2909 3.29708ZM7.51288 4.79629L7.95762 4.12878C8.06036 3.97458 8.2187 3.86604 8.39957 3.82582C9.45371 3.59143 10.5465 3.59143 11.6006 3.82582C11.7815 3.86604 11.9398 3.97458 12.0426 4.12878L12.4873 4.79629C12.911 5.4323 13.5792 5.8645 14.333 5.99021L14.8879 6.08275C15.8236 6.2388 16.5545 6.9761 16.7024 7.91315L16.791 8.47445C17.0461 10.091 17.0124 11.7399 16.6917 13.3447C16.464 14.4837 15.6191 15.4001 14.5023 15.7194L14.2301 15.7972C11.4655 16.5876 8.53471 16.5876 5.77009 15.7972L5.49787 15.7194C4.38106 15.4001 3.53617 14.4837 3.3085 13.3447C2.98774 11.7399 2.95413 10.091 3.20921 8.47445L3.29778 7.91315C3.44565 6.9761 4.17653 6.2388 5.11225 6.08275L5.66715 5.99021C6.42099 5.8645 7.08913 5.4323 7.51288 4.79629Z" fill="#161823"/>
</svg>
