<svg width="24" height="24" viewBox="0 0 24 24" fill="none" xmlns="http://www.w3.org/2000/svg">
<path fill-rule="evenodd" clip-rule="evenodd" d="M11.7961 2.27935C11.9319 2.2402 12.076 2.24022 12.2118 2.2794L20.2079 4.58673C20.529 4.67936 20.75 4.9732 20.75 5.30733V10.0391C20.75 15.3413 17.3153 20.0405 12.2356 21.7124C12.0834 21.7625 11.919 21.7625 11.7668 21.7124C6.68578 20.0406 3.25 15.3404 3.25 10.0369V5.30733C3.25 4.97313 3.47113 4.67925 3.79225 4.58667L11.7961 2.27935ZM9.28421 7.05108C9.06065 6.73171 8.62051 6.65404 8.30114 6.87759C7.98177 7.10115 7.9041 7.54129 8.12766 7.86066L10.776 11.644H9.17651C8.78667 11.644 8.47064 11.96 8.47064 12.3499C8.47064 12.7397 8.78667 13.0557 9.17651 13.0557H11.2941V13.9969H9.17651C8.78667 13.9969 8.47064 14.3129 8.47064 14.7028C8.47064 15.0926 8.78667 15.4086 9.17651 15.4086H11.2941V16.8675C11.2941 17.2573 11.6102 17.5734 12 17.5734C12.3898 17.5734 12.7059 17.2573 12.7059 16.8675V15.4086H14.8235C15.2133 15.4086 15.5294 15.0926 15.5294 14.7028C15.5294 14.3129 15.2133 13.9969 14.8235 13.9969H12.7059V13.0557H14.8235C15.2133 13.0557 15.5294 12.7397 15.5294 12.3499C15.5294 11.96 15.2133 11.644 14.8235 11.644H13.224L15.8723 7.86066C16.0959 7.54129 16.0182 7.10115 15.6989 6.87759C15.3795 6.65404 14.9394 6.73171 14.7158 7.05108L12 10.9308L9.28421 7.05108Z" fill="#161823"/>
</svg>
