<svg width="20" height="20" viewBox="0 0 20 20" fill="none" xmlns="http://www.w3.org/2000/svg">
<path d="M1.5 7.66431C1.5 4.3619 3.81331 2 6.71176 2C8.10323 2 9.21301 2.59281 10 3.50041C10.7897 2.59494 11.8938 2 13.2882 2C16.1867 2 18.5 4.3619 18.5 7.66431C18.5 9.5046 17.7327 11.2786 16.4739 12.9131C15.2161 14.5464 13.438 16.0806 11.3283 17.4654C11.1517 17.5852 10.9498 17.7083 10.7457 17.8047C10.5594 17.8926 10.2866 18 9.99604 18C9.70378 18 9.43193 17.8915 9.24695 17.8031C9.04497 17.7065 8.84569 17.5834 8.67171 17.4654C6.56203 16.0806 4.78394 14.5464 3.52609 12.9131C2.26727 11.2786 1.5 9.5046 1.5 7.66431ZM6.71176 3.53942C4.73524 3.53942 3.02827 5.13146 3.02827 7.66431C3.02827 9.0605 3.61032 10.511 4.7336 11.9695C5.85683 13.428 7.49175 14.854 9.5109 16.1788L9.52143 16.1857C9.66274 16.2818 9.79376 16.3605 9.90231 16.4124C9.94236 16.4315 9.97381 16.4444 9.99695 16.4526C10.0214 16.4441 10.0548 16.4308 10.0971 16.4108C10.2075 16.3587 10.34 16.28 10.4786 16.1858L10.489 16.1787C12.5082 14.8539 14.1432 13.428 15.2664 11.9695C16.3897 10.511 16.9717 9.0605 16.9717 7.66431C16.9717 5.13146 15.2648 3.53942 13.2882 3.53942C12.1019 3.53942 11.2262 4.17921 10.6679 5.21705L10.2107 6.0667C10.1158 6.2431 9.86239 6.24183 9.76925 6.0645L9.3206 5.21025C8.78029 4.18148 7.90066 3.53942 6.71176 3.53942Z" fill="#161823"/>
</svg>
