<svg width="20" height="20" viewBox="0 0 20 20" fill="none" xmlns="http://www.w3.org/2000/svg">
<path fill-rule="evenodd" clip-rule="evenodd" d="M5.64912 16.5C5.49846 16.5 5.40372 16.6597 5.48965 16.7834C5.98624 17.4985 6.81345 17.9667 7.75 17.9667H15.25C16.7688 17.9667 18 16.7355 18 15.2167V7.71667C18 6.76483 17.5164 5.92594 16.7815 5.43227C16.6575 5.34893 16.5 5.44393 16.5 5.59339V15.2167C16.5 15.907 15.9404 16.4667 15.25 16.4667H12.7848C12.6096 16.4887 12.4311 16.5 12.25 16.5H5.64912Z" fill="#161823"/>
<path fill-rule="evenodd" clip-rule="evenodd" d="M12.25 3.5H4.75C4.05964 3.5 3.5 4.05964 3.5 4.75V12.25C3.5 12.9404 4.05964 13.5 4.75 13.5H12.25C12.9404 13.5 13.5 12.9404 13.5 12.25V4.75C13.5 4.05964 12.9404 3.5 12.25 3.5ZM4.75 2C3.23122 2 2 3.23122 2 4.75V12.25C2 13.7688 3.23122 15 4.75 15H12.25C13.7688 15 15 13.7688 15 12.25V4.75C15 3.23122 13.7688 2 12.25 2H4.75Z" fill="#161823"/>
</svg>
