<svg width="12" height="12" viewBox="0 0 12 12" fill="none" xmlns="http://www.w3.org/2000/svg">
<path fill-rule="evenodd" clip-rule="evenodd" d="M10.9976 4.93128C10.9976 5.22317 10.8813 5.50306 10.6745 5.70921L5.43267 10.9332C5.00344 11.361 4.30864 11.3611 3.87922 10.9336L1.07345 8.13979C0.642383 7.71057 0.642154 7.01326 1.07294 6.58375L6.34716 1.32524C6.55338 1.11963 6.83285 1.00415 7.12422 1.00415H9.89758C10.5051 1.00415 10.9976 1.49613 10.9976 2.10301L10.9976 4.93128ZM8.10519 4.99591C8.7127 4.99591 9.20519 4.50393 9.20519 3.89705C9.20519 3.29016 8.7127 2.79819 8.10519 2.79819C7.49767 2.79819 7.00519 3.29016 7.00519 3.89705C7.00519 4.50393 7.49767 4.99591 8.10519 4.99591Z" fill="#161823"/>
</svg>
