<svg width="24" height="24" viewBox="0 0 24 24" fill="none" xmlns="http://www.w3.org/2000/svg">
<path d="M11.0145 7.9999C11.0065 7.45003 11.4501 7 12 7C12.5499 7 12.9935 7.45003 12.9855 7.9999L12.9115 13.1017C12.9042 13.5999 12.4983 14 12 14C11.5017 14 11.0958 13.5999 11.0885 13.1017L11.0145 7.9999Z" fill="#161823"/>
<path d="M12 17.2C12.6075 17.2 13.1 16.7075 13.1 16.1C13.1 15.4925 12.6075 15 12 15C11.3925 15 10.9 15.4925 10.9 16.1C10.9 16.7075 11.3925 17.2 12 17.2Z" fill="#161823"/>
<path d="M12 22C17.5228 22 22 17.5228 22 12C22 6.47715 17.5228 2 12 2C6.47715 2 2 6.47715 2 12C2 17.5228 6.47715 22 12 22ZM12 20.5C7.30558 20.5 3.5 16.6944 3.5 12C3.5 7.30558 7.30558 3.5 12 3.5C16.6944 3.5 20.5 7.30558 20.5 12C20.5 16.6944 16.6944 20.5 12 20.5Z" fill="#161823"/>
</svg>
