<svg width="24" height="24" viewBox="0 0 24 24" fill="none" xmlns="http://www.w3.org/2000/svg">
<path d="M12.0001 8.50001C11.4502 8.50001 11.0066 8.95005 11.0146 9.49991L11.0886 13.6017C11.0958 14.0999 11.5018 14.5 12.0001 14.5C12.4984 14.5 12.9043 14.0999 12.9116 13.6017L12.9856 9.49991C12.9936 8.95004 12.55 8.50001 12.0001 8.50001Z" fill="#161823"/>
<path d="M13.1001 16.6C13.1001 17.2075 12.6076 17.7 12.0001 17.7C11.3926 17.7 10.9001 17.2075 10.9001 16.6C10.9001 15.9925 11.3926 15.5 12.0001 15.5C12.6076 15.5 13.1001 15.9925 13.1001 16.6Z" fill="#161823"/>
<path d="M10.268 4.00003C11.0378 2.6667 12.9623 2.6667 13.7321 4.00003L21.7428 17.875C22.5126 19.2084 21.5504 20.875 20.0108 20.875H3.98932C2.44971 20.875 1.48746 19.2084 2.25726 17.875L10.268 4.00003ZM12.4331 4.75003C12.2406 4.4167 11.7595 4.41669 11.567 4.75003L3.5563 18.625C3.36385 18.9584 3.60441 19.375 3.98932 19.375H20.0108C20.3957 19.375 20.6362 18.9584 20.4438 18.625L12.4331 4.75003Z" fill="#161823"/>
</svg>
