<svg width="24" height="24" viewBox="0 0 24 24" fill="none" xmlns="http://www.w3.org/2000/svg">
<path d="M8.67188 2.75C8.67188 2.33579 8.33609 2 7.92188 2H5.71875C3.64768 2 1.96875 3.67893 1.96875 5.75V7.95312C1.96875 8.36734 2.30454 8.70312 2.71875 8.70312C3.13296 8.70312 3.46875 8.36734 3.46875 7.95312V5.75C3.46875 4.50736 4.47611 3.5 5.71875 3.5H7.92188C8.33609 3.5 8.67188 3.16421 8.67188 2.75Z" fill="#161823"/>
<path d="M15.2969 2.75C15.2969 2.33579 15.6327 2 16.0469 2H18.25C20.3211 2 22 3.67893 22 5.75V7.95312C22 8.36734 21.6642 8.70312 21.25 8.70312C20.8358 8.70312 20.5 8.36734 20.5 7.95312V5.75C20.5 4.50736 19.4926 3.5 18.25 3.5H16.0469C15.6327 3.5 15.2969 3.16421 15.2969 2.75Z" fill="#161823"/>
<path d="M8.5 12C9.32843 12 10 11.1046 10 10C10 8.89543 9.32843 8 8.5 8C7.67157 8 7 8.89543 7 10C7 11.1046 7.67157 12 8.5 12Z" fill="#161823"/>
<path d="M15.5 12C16.3284 12 17 11.1046 17 10C17 8.89543 16.3284 8 15.5 8C14.6716 8 14 8.89543 14 10C14 11.1046 14.6716 12 15.5 12Z" fill="#161823"/>
<path d="M12 16.5305C10.3431 16.5305 9 15.5711 9 14.3877C9 13.2042 15 13.2042 15 14.3877C15 15.5711 13.6569 16.5305 12 16.5305Z" fill="#161823"/>
<path d="M16.0469 22C15.6327 22 15.2969 21.6642 15.2969 21.25C15.2969 20.8358 15.6327 20.5 16.0469 20.5H18.25C19.4926 20.5 20.5 19.4926 20.5 18.25V16.0469C20.5 15.6327 20.8358 15.2969 21.25 15.2969C21.6642 15.2969 22 15.6327 22 16.0469V18.25C22 20.3211 20.3211 22 18.25 22H16.0469Z" fill="#161823"/>
<path d="M7.92188 22C8.33609 22 8.67188 21.6642 8.67188 21.25C8.67188 20.8358 8.33609 20.5 7.92188 20.5H5.71875C4.47611 20.5 3.46875 19.4926 3.46875 18.25V16.0469C3.46875 15.6327 3.13296 15.2969 2.71875 15.2969C2.30454 15.2969 1.96875 15.6327 1.96875 16.0469V18.25C1.96875 20.3211 3.64768 22 5.71875 22H7.92188Z" fill="#161823"/>
</svg>
