<svg width="24" height="24" viewBox="0 0 24 24" fill="none" xmlns="http://www.w3.org/2000/svg">
<path d="M22.8038 19.0019C22.8038 20.6598 21.4598 22.0038 19.8019 22.0038C18.144 22.0038 16.8 20.6598 16.8 19.0019C16.8 17.344 18.144 16 19.8019 16C21.4598 16 22.8038 17.344 22.8038 19.0019Z" fill="#161823"/>
<path d="M15.9998 6.50001C15.9998 8.98529 14.2089 11 11.9998 11C9.79067 11 7.9998 8.98529 7.9998 6.50001C7.9998 4.01473 9.79067 2.00001 11.9998 2.00001C14.2089 2.00001 15.9998 4.01473 15.9998 6.50001ZM14.4998 6.50001C14.4998 4.67218 13.2193 3.50001 11.9998 3.50001C10.7803 3.50001 9.4998 4.67218 9.4998 6.50001C9.4998 8.32783 10.7803 9.50001 11.9998 9.50001C13.2193 9.50001 14.4998 8.32783 14.4998 6.50001Z" fill="#161823"/>
<path d="M12 12.5C9.6563 12.5 7.49136 13.0852 5.86408 14.1182C4.25055 15.1424 3 16.7372 3 18.7273V19.5C3 20.8807 4.11929 22 5.5 22H15.9967C16.1695 22 16.2646 21.7922 16.1628 21.6526C15.9351 21.3406 15.7466 20.9982 15.6045 20.6327C15.5738 20.5537 15.4986 20.5 15.4138 20.5H5.5C4.94772 20.5 4.5 20.0523 4.5 19.5V18.7273C4.5 16.1165 7.78125 14 12 14C13.9942 14 15.7789 14.4729 17.1066 15.2474C17.1752 15.2874 17.2607 15.2845 17.327 15.2407C17.6623 15.0197 18.0289 14.8422 18.4187 14.7165C18.5786 14.6649 18.6252 14.4527 18.4883 14.3552C18.3731 14.2731 18.2555 14.1941 18.1359 14.1182C16.5086 13.0852 14.3437 12.5 12 12.5Z" fill="#161823"/>
</svg>
