<svg width="24" height="24" viewBox="0 0 24 24" fill="none" xmlns="http://www.w3.org/2000/svg">
<path d="M11 2V5H6.75C4.67893 5 3 6.67893 3 8.75V18.25C3 20.3211 4.67893 22 6.75 22H17.25C19.3211 22 21 20.3211 21 18.25V8.75C21 6.67893 19.3211 5 17.25 5H13V2C13 1.44772 12.5523 1 12 1C11.4477 1 11 1.44772 11 2ZM13 5V13.5858L15.5436 11.0423C15.9341 10.6517 16.5672 10.6517 16.9578 11.0423C17.3483 11.4328 17.3483 12.066 16.9578 12.4565L12.7071 16.7071C12.3166 17.0976 11.6835 17.0976 11.2929 16.7071L7.04231 12.4565C6.65179 12.066 6.65179 11.4328 7.04231 11.0423C7.43284 10.6517 8.066 10.6517 8.45653 11.0423L11 13.5857V5H13Z" fill="#161823"/>
</svg>
