<svg width="24" height="24" viewBox="0 0 24 24" fill="none" xmlns="http://www.w3.org/2000/svg">
<path d="M18.7902 3.4267C19.9265 2.90893 21.0962 4.07871 20.5785 5.21496L18.361 10.0813L21.9737 14.0242C22.8173 14.9448 22.0662 16.4188 20.8256 16.2775L15.5122 15.6723L12.8787 20.3267C12.2638 21.4134 10.6298 21.1546 10.3808 19.9311L9.49292 15.5677L3.28033 21.7803C2.98744 22.0732 2.51256 22.0732 2.21967 21.7803C1.92678 21.4874 1.92678 21.0126 2.21967 20.7197L8.42885 14.5105L4.0741 13.6243C2.85052 13.3754 2.59173 11.7414 3.67848 11.1265L8.33284 8.49298L7.72764 3.17959C7.58633 1.93895 9.06034 1.1879 9.98098 2.03145L13.9239 5.6442L18.7902 3.4267Z" fill="#161823"/>
</svg>
