<svg width="24" height="24" viewBox="0 0 24 24" fill="none" xmlns="http://www.w3.org/2000/svg">
<path d="M5.25195 8.33215C5.25195 4.50884 8.36202 1.75 12.0981 1.75C16.4172 1.75 19.3481 4.7985 19.3481 8.5C19.3481 10.3616 19.0615 11.9125 18.3881 13.3111C17.7157 14.7073 16.6846 15.8961 15.2825 17.0742C14.3727 17.8387 13.9555 18.6015 13.5242 19.3902C13.3728 19.667 13.2197 19.9469 13.043 20.2312C12.7127 20.7625 12.2977 21.2864 11.6427 21.6616C10.9913 22.0348 10.1789 22.2178 9.12275 22.2178C6.78302 22.2178 5.25195 20.0785 5.25195 18.1204V8.33215ZM9.75209 8.33217C9.75209 7.63854 9.97247 7.08704 10.3491 6.71056C10.7232 6.33662 11.327 6.06006 12.2401 6.06006C13.1611 6.06006 13.811 6.33201 14.2228 6.71161C14.6308 7.0877 14.8678 7.62581 14.8678 8.29222C14.8678 8.70643 15.2036 9.04222 15.6178 9.04222C16.032 9.04222 16.3678 8.70643 16.3678 8.29222C16.3678 7.24931 15.9855 6.29634 15.2394 5.60867C14.4972 4.92453 13.4582 4.56006 12.2401 4.56006C11.0139 4.56006 9.99875 4.9399 9.28867 5.64968C8.58111 6.35693 8.25209 7.31649 8.25209 8.33217L8.25208 9.74763C8.25206 10.7142 9.03561 11.4976 10.0021 11.4976H12.4637C13.1319 11.4976 13.4665 12.3055 12.994 12.7779L11.7097 14.0622C11.4168 14.3551 11.4168 14.83 11.7097 15.1229C12.0026 15.4158 12.4775 15.4158 12.7704 15.1229L14.0547 13.8386C15.4721 12.4212 14.4682 9.9976 12.4637 9.9976H10.0021C9.86395 9.9976 9.75207 9.88568 9.75208 9.74766L9.75209 8.33217Z" fill="#161823"/>
</svg>
