<svg width="24" height="24" viewBox="0 0 24 24" fill="none" xmlns="http://www.w3.org/2000/svg">
<path d="M22 12C22 17.5228 17.5228 22 12 22C6.47715 22 2 17.5228 2 12C2 6.47715 6.47715 2 12 2C17.5228 2 22 6.47715 22 12ZM12.1971 5.84021L7.79183 12.6816C7.40986 13.2748 7.78495 14.0626 8.48621 14.1401L10.5596 14.3693L10.0314 17.456C9.8473 18.5319 11.2743 19.0825 11.8605 18.1618L16.2074 11.3361C16.5849 10.7433 16.2104 9.96006 15.512 9.88169L13.4923 9.65502L14.0235 6.55025C14.2072 5.47711 12.7865 4.92487 12.1971 5.84021Z" fill="#161823"/>
</svg>
