<svg width="24" height="24" viewBox="0 0 24 24" fill="none" xmlns="http://www.w3.org/2000/svg">
<path fill-rule="evenodd" clip-rule="evenodd" d="M22 12C22 17.5228 17.5228 22 12 22C6.47715 22 2 17.5228 2 12C2 6.47715 6.47715 2 12 2C17.5228 2 22 6.47715 22 12ZM13.1 8.1C13.1 7.49249 12.6075 7 12 7C11.3925 7 10.9 7.49249 10.9 8.1C10.9 8.70751 11.3925 9.2 12 9.2C12.6075 9.2 13.1 8.70751 13.1 8.1ZM12 17.2C11.4477 17.2 11 16.7523 11 16.2V11.2C11 10.6477 11.4477 10.2 12 10.2C12.5523 10.2 13 10.6477 13 11.2V16.2C13 16.7523 12.5523 17.2 12 17.2Z" fill="#161823"/>
</svg>
