<svg width="24" height="24" viewBox="0 0 24 24" fill="none" xmlns="http://www.w3.org/2000/svg">
<path d="M17.25 4.5H3.75C3.05964 4.5 2.5 5.05964 2.5 5.75V15.25C2.5 15.9404 3.05964 16.5 3.75 16.5H6.5V18H3.75C2.23122 18 1 16.7688 1 15.25V5.75C1 4.23122 2.23122 3 3.75 3H17.25C18.7688 3 20 4.23122 20 5.75V8.5H18.5V5.75C18.5 5.05964 17.9404 4.5 17.25 4.5Z" fill="#161823"/>
<path d="M10.75 10C9.23122 10 8 11.2312 8 12.75V18.25C8 19.7688 9.23122 21 10.75 21H20.25C21.7688 21 23 19.7688 23 18.25V12.75C23 11.2312 21.7688 10 20.25 10H10.75Z" fill="#161823"/>
<path d="M5.03033 5.96967C4.73744 5.67678 4.26256 5.67678 3.96967 5.96967C3.67678 6.26256 3.67678 6.73744 3.96967 7.03033L5.14944 8.2101L4.49762 8.86192C4.07765 9.2819 4.37509 9.99999 4.96903 9.99999H7.33333C7.70152 9.99999 7.99999 9.70152 7.99999 9.33333V6.96903C7.99999 6.37509 7.2819 6.07765 6.86192 6.49762L6.2101 7.14944L5.03033 5.96967Z" fill="#161823"/>
</svg>
