<svg width="20" height="20" viewBox="0 0 20 20" fill="none" xmlns="http://www.w3.org/2000/svg">
<path d="M3.59183 2.5C2.65348 2.5 2.15388 3.60705 2.77473 4.31067L7.5 9.66598V16.5242C7.5 17.3106 8.36598 17.7893 9.03195 17.371L12.0319 15.4863C12.3232 15.3034 12.5 14.9835 12.5 14.6396V9.66599L17.2253 4.31067C17.8461 3.60706 17.3465 2.5 16.4082 2.5H3.59183ZM9 9.66598C9 9.3005 8.86657 8.9476 8.62476 8.67355L4.50104 4H15.499L11.3752 8.67355C11.1334 8.9476 11 9.30051 11 9.66599V14.3632L9 15.6196V9.66598Z" fill="#161823"/>
<path d="M14 10.8334C14 10.4192 14.3358 10.0834 14.75 10.0834H16.7451C17.1593 10.0834 17.4951 10.4192 17.4951 10.8334C17.4951 11.2476 17.1593 11.5834 16.7451 11.5834H14.75C14.3358 11.5834 14 11.2476 14 10.8334Z" fill="#161823"/>
<path d="M14 13.83C14 13.4157 14.3358 13.08 14.75 13.08H16.7451C17.1593 13.08 17.4951 13.4157 17.4951 13.83C17.4951 14.2442 17.1593 14.58 16.7451 14.58H14.75C14.3358 14.58 14 14.2442 14 13.83Z" fill="#161823"/>
</svg>
