<svg width="20" height="20" viewBox="0 0 20 20" fill="none" xmlns="http://www.w3.org/2000/svg">
<path d="M4 4.75C4 3.23122 5.23122 2 6.75 2H13.25C14.7688 2 16 3.23122 16 4.75V5.82734C16 5.93788 15.9557 6.04415 15.8775 6.12222C14.7343 7.26268 13.3401 8.00244 11.8721 8.34054C11.5995 7.55998 10.8568 7 9.98333 7C9.11153 7 8.37001 7.55781 8.0962 8.33599C6.63819 7.99603 5.25519 7.25819 4.12125 6.12154C4.04361 6.04371 4 5.93826 4 5.82832V4.75Z" fill="#161823"/>
<path d="M4 8C5.27239 8.63772 6.62372 9.05927 8.0008 9.2655C8.13066 10.2446 8.96877 11 9.98333 11C10.9968 11 11.8342 10.2462 11.9655 9.2686C13.3538 9.06325 14.7167 8.6401 16 8V15.25C16 16.7688 14.7688 18 13.25 18H6.75C5.23122 18 4 16.7688 4 15.25V8Z" fill="#161823"/>
</svg>
