<svg width="24" height="24" viewBox="0 0 24 24" fill="none" xmlns="http://www.w3.org/2000/svg">
<path fill-rule="evenodd" clip-rule="evenodd" d="M3.35479 20.3255C1.7927 18.7634 1.7927 16.2307 3.35479 14.6686L9.01165 9.01179C10.5737 7.44969 13.1064 7.44969 14.6685 9.01179L15.0211 9.36441C15.4116 9.75493 15.4116 10.3881 15.0211 10.7786C14.6306 11.1691 13.9974 11.1691 13.6069 10.7786L13.2543 10.426C12.4732 9.64495 11.2069 9.64495 10.4259 10.426L4.76901 16.0829C3.98796 16.8639 3.98796 18.1302 4.76901 18.9113L5.12256 19.2648C5.90361 20.0459 7.16994 20.0459 7.95099 19.2648L9.93215 17.2837C10.3227 16.8932 10.9558 16.8932 11.3464 17.2837C11.7369 17.6742 11.7369 18.3074 11.3464 18.6979L9.3652 20.6791C7.8031 22.2411 5.27045 22.2411 3.70835 20.6791L3.35479 20.3255ZM9.00877 14.6665C8.61825 14.276 8.61825 13.6428 9.00877 13.2523C9.39929 12.8617 10.0325 12.8617 10.423 13.2523L10.7793 13.6086C11.5603 14.3896 12.8267 14.3896 13.6077 13.6086L19.2646 7.95173C20.0456 7.17068 20.0456 5.90435 19.2646 5.12331L18.911 4.76975C18.13 3.9887 16.8636 3.9887 16.0826 4.76975L14.1033 6.74908C13.7127 7.13961 13.0796 7.13961 12.6891 6.74908C12.2985 6.35856 12.2985 5.7254 12.6891 5.33487L14.6684 3.35554C16.2305 1.79344 18.7631 1.79344 20.3252 3.35554L20.6788 3.70909C22.2409 5.27119 22.2409 7.80385 20.6788 9.36595L15.0219 15.0228C13.4598 16.5849 10.9272 16.5849 9.36509 15.0228L9.00877 14.6665Z" fill="#161823"/>
</svg>
