<svg width="20" height="20" viewBox="0 0 20 20" fill="none" xmlns="http://www.w3.org/2000/svg">
<path d="M18.2946 8.39632C18.2886 8.9851 18.0521 9.54807 17.6357 9.96442L9.02659 18.5736C8.14791 19.4522 6.72329 19.4522 5.84461 18.5736L1.47737 14.2063C0.598689 13.3276 0.59869 11.903 1.47737 11.0243L10.1469 2.35481C10.5689 1.93285 11.1412 1.6958 11.7379 1.6958H16.0898C17.3414 1.6958 18.3524 2.71717 18.3397 3.96869L18.2946 8.39632ZM14.4991 6.6668C15.1432 6.6668 15.6653 6.14467 15.6653 5.50058C15.6653 4.85649 15.1432 4.33435 14.4991 4.33435C13.855 4.33435 13.3329 4.85649 13.3329 5.50058C13.3329 6.14467 13.855 6.6668 14.4991 6.6668Z" fill="#161823"/>
</svg>
