<svg width="20" height="20" viewBox="0 0 20 20" fill="none" xmlns="http://www.w3.org/2000/svg">
<path d="M8.50024 7.91667C8.50024 8.83714 7.9406 9.58333 7.25024 9.58333C6.55989 9.58333 6.00024 8.83714 6.00024 7.91667C6.00024 6.99619 6.55989 6.25 7.25024 6.25C7.9406 6.25 8.50024 6.99619 8.50024 7.91667Z" fill="#161823"/>
<path d="M12.7502 9.58333C13.4406 9.58333 14.0002 8.83714 14.0002 7.91667C14.0002 6.99619 13.4406 6.25 12.7502 6.25C12.0599 6.25 11.5002 6.99619 11.5002 7.91667C11.5002 8.83714 12.0599 9.58333 12.7502 9.58333Z" fill="#161823"/>
<path d="M10.0001 11.484C11.1768 11.484 12.4786 12.057 13.1763 13.0358C13.3687 13.3057 13.3058 13.6803 13.036 13.8727C12.7662 14.065 12.3915 14.0022 12.1992 13.7323C11.7593 13.1152 10.8487 12.684 10.0001 12.684C9.15181 12.684 8.24155 13.1149 7.80151 13.7318C7.60906 14.0015 7.23437 14.0642 6.96461 13.8718C6.69485 13.6793 6.63217 13.3046 6.82461 13.0349C7.52249 12.0566 8.82382 11.484 10.0001 11.484Z" fill="#161823"/>
<path fill-rule="evenodd" clip-rule="evenodd" d="M18.3337 9.99935C18.3337 14.6017 14.6027 18.3327 10.0003 18.3327C5.39795 18.3327 1.66699 14.6017 1.66699 9.99935C1.66699 5.39698 5.39795 1.66602 10.0003 1.66602C14.6027 1.66602 18.3337 5.39698 18.3337 9.99935ZM16.8337 9.99935C16.8337 13.7733 13.7743 16.8327 10.0003 16.8327C6.22638 16.8327 3.16699 13.7733 3.16699 9.99935C3.16699 6.2254 6.22638 3.16602 10.0003 3.16602C13.7743 3.16602 16.8337 6.2254 16.8337 9.99935Z" fill="#161823"/>
</svg>
