<svg width="20" height="20" viewBox="0 0 20 20" fill="none" xmlns="http://www.w3.org/2000/svg">
<path fill-rule="evenodd" clip-rule="evenodd" d="M4.25 1.75067C4.25 1.33646 4.58579 1.00067 5 1.00067H15C15.4142 1.00067 15.75 1.33646 15.75 1.75067C15.75 2.16488 15.4142 2.50067 15 2.50067H5C4.58579 2.50067 4.25 2.16488 4.25 1.75067ZM10.5186 3.74098C10.226 3.44954 9.75276 3.44954 9.46012 3.74099L7.12612 6.06546L3.03033 1.96967C2.73744 1.67678 2.26256 1.67678 1.96967 1.96967C1.67678 2.26256 1.67678 2.73744 1.96967 3.03033L6.06329 7.12395L13.0033 14.0653V14.064L16.9697 18.0303C17.2626 18.3232 17.7374 18.3232 18.0303 18.0303C18.3232 17.7374 18.3232 17.2626 18.0303 16.9697L13.1289 12.0682H16.0553C17.0958 12.0682 17.6158 10.8092 16.8785 10.0749L10.5186 3.74098ZM13.0033 16.1866L4.99978 8.18312L3.10025 10.0749C2.36298 10.8092 2.88298 12.0682 3.92352 12.0682H6.97549L6.97545 18.2581C6.97545 18.457 7.05447 18.6478 7.19512 18.7884C7.33577 18.9291 7.52654 19.0081 7.72545 19.0081H12.2533C12.6675 19.0081 13.0033 18.6723 13.0033 18.2581L13.0033 16.1866Z" fill="#161823"/>
</svg>
