<svg width="20" height="20" viewBox="0 0 20 20" fill="none" xmlns="http://www.w3.org/2000/svg">
<path d="M13.3934 5.35736C13.3934 7.48773 11.8823 9.21473 10.0182 9.21473C9.84426 9.21473 9.67338 9.19969 9.50651 9.17068L9.97931 9.64348C12.0059 9.63648 13.895 10.1735 15.3147 11.1333C16.7203 12.0836 17.7864 13.5495 17.7864 15.3515V15.9295C17.7864 16.3682 17.6734 16.7806 17.4749 17.139L17.9148 17.579C18.2077 17.8719 18.2077 18.3468 17.9148 18.6397C17.6219 18.9326 17.1471 18.9326 16.8542 18.6397L2.9402 4.7257C2.6473 4.4328 2.6473 3.95793 2.9402 3.66504C3.23309 3.37214 3.70796 3.37214 4.00086 3.66504L6.77845 6.44263C6.69031 6.09838 6.64303 5.73418 6.64303 5.35736C6.64303 3.227 8.15415 1.5 10.0182 1.5C11.8823 1.5 13.3934 3.227 13.3934 5.35736ZM11.8934 5.35736C11.8934 3.86102 10.872 3 10.0182 3C9.16446 3 8.14303 3.86102 8.14303 5.35736C8.14303 6.85371 9.16446 7.71473 10.0182 7.71473C10.872 7.71473 11.8934 6.85371 11.8934 5.35736ZM16.2862 15.9504C16.2903 15.7509 16.2864 15.551 16.2864 15.3515C16.2864 13.3922 14.3374 11.7456 11.6129 11.2771L16.2862 15.9504Z" fill="#161823"/>
<path d="M4.72176 11.1333C5.26133 10.7685 5.86817 10.4648 6.52469 10.2288C6.59663 10.2029 6.67685 10.2216 6.73091 10.2757L7.72483 11.2696C7.78002 11.3248 7.75334 11.4194 7.67792 11.4394C5.3504 12.0575 3.75 13.5761 3.75 15.3515V15.9295C3.75 16.4817 4.19771 16.9295 4.75 16.9295H13.3019C13.3549 16.9295 13.4058 16.9505 13.4433 16.988L14.714 18.2588C14.777 18.3217 14.7324 18.4295 14.6433 18.4295H4.75C3.36929 18.4295 2.25 17.3102 2.25 15.9295V15.3515C2.25 13.5495 3.31618 12.0836 4.72176 11.1333Z" fill="#161823"/>
</svg>
