<svg width="24" height="24" viewBox="0 0 24 24" fill="none" xmlns="http://www.w3.org/2000/svg">
<path d="M7.32787 2.6001C5.51742 2.6001 3.90572 3.60806 3.3125 5.11132L2.56742 6.99939C2.10543 8.17012 1.97884 9.8421 3.39003 10.8413C3.96967 11.2517 4.75517 11.6001 5.73556 11.6001C7.24016 11.6001 8.27312 10.7905 8.85821 10.1513C9.43769 10.7951 10.4658 11.6001 11.9997 11.6001C13.5236 11.6001 14.5552 10.7892 15.1368 10.1464C15.7215 10.7868 16.7558 11.6001 18.2639 11.6001C19.2443 11.6001 20.0298 11.2517 20.6095 10.8413C22.0206 9.8421 21.8941 8.17012 21.4321 6.99939L20.687 5.11133C20.0938 3.60806 18.4821 2.6001 16.6716 2.6001H7.32787Z" fill="#161823"/>
<path fill-rule="evenodd" clip-rule="evenodd" d="M8.85467 12.1295C8.08006 12.6576 7.0417 13.1001 5.73556 13.1001C4.9454 13.1001 4.24788 12.9349 3.6498 12.6882V17.1501C3.6498 19.4973 5.55259 21.4001 7.8998 21.4001H16.0998C18.447 21.4001 20.3498 19.4973 20.3498 17.1501V12.6882C19.7517 12.9349 19.0541 13.1001 18.2639 13.1001C16.9544 13.1001 15.9141 12.6553 15.1387 12.1253C14.3616 12.6569 13.3182 13.1001 11.9997 13.1001C10.677 13.1001 9.63275 12.6606 8.85467 12.1295ZM10.2498 18.0001C10.2498 17.5859 10.5856 17.2501 10.9998 17.2501H12.9998C13.414 17.2501 13.7498 17.5859 13.7498 18.0001C13.7498 18.4143 13.414 18.7501 12.9998 18.7501H10.9998C10.5856 18.7501 10.2498 18.4143 10.2498 18.0001Z" fill="#161823"/>
</svg>
