<svg width="20" height="20" viewBox="0 0 20 20" fill="none" xmlns="http://www.w3.org/2000/svg">
<path d="M13.3333 5.25C13.3333 7.32107 11.8409 9 9.99996 9C8.15901 9 6.66663 7.32107 6.66663 5.25C6.66663 3.17893 8.15901 1.5 9.99996 1.5C11.8409 1.5 13.3333 3.17893 13.3333 5.25ZM11.8333 5.25C11.8333 3.83639 10.8513 3 9.99996 3C9.14865 3 8.16663 3.83639 8.16663 5.25C8.16663 6.66361 9.14865 7.5 9.99996 7.5C10.8513 7.5 11.8333 6.66361 11.8333 5.25Z" fill="#161823"/>
<path d="M10 10C8.00786 10 6.15542 10.497 4.75275 11.3874C3.36383 12.2691 2.25 13.6669 2.25 15.4394V16.0833C2.25 17.372 3.29467 18.4167 4.58333 18.4167H13.1094C13.192 18.4167 13.2397 18.3216 13.1932 18.2533C12.9496 17.8962 12.7624 17.4976 12.6443 17.0703C12.6196 16.9808 12.5394 16.9167 12.4465 16.9167H4.58333C4.1231 16.9167 3.75 16.5436 3.75 16.0833V15.4394C3.75 13.2637 6.48438 11.5 10 11.5C11.6683 11.5 13.1607 11.8972 14.2685 12.5471C14.3342 12.5856 14.4157 12.5851 14.4814 12.5466C14.9 12.3013 15.3671 12.13 15.8649 12.0504C15.9508 12.0366 15.9848 11.9283 15.9176 11.8729C15.7045 11.697 15.4797 11.535 15.2472 11.3874C13.8446 10.497 11.9921 10 10 10Z" fill="#161823"/>
<path d="M16.5016 18.5032C17.8832 18.5032 19.0032 17.3832 19.0032 16.0016C19.0032 14.62 17.8832 13.5 16.5016 13.5C15.12 13.5 14 14.62 14 16.0016C14 17.3832 15.12 18.5032 16.5016 18.5032Z" fill="#161823"/>
</svg>
