<svg width="20" height="20" viewBox="0 0 20 20" fill="none" xmlns="http://www.w3.org/2000/svg">
<path d="M2.67744 13.0529C1.96629 14.1907 2.78432 15.6667 4.1261 15.6667H6.75972L6.75997 15.67H13.2405L13.2408 15.6667H15.8743C17.2161 15.6667 18.0341 14.1907 17.323 13.0529L16.3248 11.4558C15.8949 10.7679 15.6669 9.97299 15.6669 9.16176V7.5C15.6669 5.09178 14.1658 3.03676 12.0488 2.21544C11.6528 1.49119 10.8839 1 10.0002 1C9.11658 1 8.34766 1.4912 7.95161 2.21544C5.83463 3.03676 4.33355 5.09178 4.33355 7.5V9.16176C4.33355 9.973 4.10558 10.7679 3.67562 11.4558L2.67744 13.0529Z" fill="#161823"/>
<path d="M10.0002 18.6667C8.72772 18.6667 7.62602 17.9353 7.09252 16.87H12.908C12.3745 17.9353 11.2728 18.6667 10.0002 18.6667Z" fill="#161823"/>
</svg>
