<svg width="24" height="24" viewBox="0 0 24 24" fill="none" xmlns="http://www.w3.org/2000/svg">
<path d="M5.75155 12.75C5.33734 12.75 5.00155 13.0858 5.00155 13.5C5.00155 13.9142 5.33734 14.25 5.75155 14.25H7.75155V16.25C7.75155 16.6642 8.08734 17 8.50155 17C8.91576 17 9.25155 16.6642 9.25155 16.25V14.25H11.2515C11.6658 14.25 12.0015 13.9142 12.0015 13.5C12.0015 13.0858 11.6658 12.75 11.2515 12.75H9.25155V10.75C9.25155 10.3358 8.91576 10 8.50155 10C8.08733 10 7.75155 10.3358 7.75155 10.75V12.75H5.75155Z" fill="#161823"/>
<path d="M19 11.75C19 12.4404 18.4404 13 17.75 13C17.0596 13 16.5 12.4404 16.5 11.75C16.5 11.0596 17.0596 10.5 17.75 10.5C18.4404 10.5 19 11.0596 19 11.75Z" fill="#161823"/>
<path d="M16.5 15.25C16.5 15.9404 15.9404 16.5 15.25 16.5C14.5596 16.5 14 15.9404 14 15.25C14 14.5596 14.5596 14 15.25 14C15.9404 14 16.5 14.5596 16.5 15.25Z" fill="#161823"/>
<path d="M15.5 2C15.9142 2 16.25 2.33579 16.25 2.75C16.25 3.16421 15.9142 3.5 15.5 3.5C15.1389 3.5 14.7813 3.57113 14.4476 3.70933C14.114 3.84753 13.8108 4.0501 13.5555 4.30546C13.3001 4.56082 13.0975 4.86398 12.9593 5.19762C12.8531 5.45402 12.7865 5.72457 12.7614 6H15.5C19.6421 6 23 9.35786 23 13.5C23 17.6421 19.6421 21 15.5 21H8.5C4.35786 21 1 17.6421 1 13.5C1 9.35786 4.35786 6 8.5 6H11.2574C11.2852 5.52736 11.3919 5.06209 11.5735 4.6236C11.7871 4.10796 12.1001 3.63945 12.4948 3.2448C12.8894 2.85015 13.358 2.53709 13.8736 2.32351C14.3892 2.10993 14.9419 2 15.5 2ZM2.5 13.5C2.5 16.8137 5.18629 19.5 8.5 19.5H15.5C18.8137 19.5 21.5 16.8137 21.5 13.5C21.5 10.1863 18.8137 7.5 15.5 7.5H8.5C5.18629 7.5 2.5 10.1863 2.5 13.5Z" fill="#161823"/>
</svg>
