<svg width="20" height="20" viewBox="0 0 20 20" fill="none" xmlns="http://www.w3.org/2000/svg">
<path fill-rule="evenodd" clip-rule="evenodd" d="M10.0003 18.3327C14.6027 18.3327 18.3337 14.6017 18.3337 9.99935C18.3337 5.39698 14.6027 1.66602 10.0003 1.66602C5.39795 1.66602 1.66699 5.39698 1.66699 9.99935C1.66699 14.6017 5.39795 18.3327 10.0003 18.3327ZM8.50024 7.91667C8.50024 8.83714 7.9406 9.58333 7.25024 9.58333C6.55989 9.58333 6.00024 8.83714 6.00024 7.91667C6.00024 6.99619 6.55989 6.25 7.25024 6.25C7.9406 6.25 8.50024 6.99619 8.50024 7.91667ZM12.7502 9.58333C13.4406 9.58333 14.0002 8.83714 14.0002 7.91667C14.0002 6.99619 13.4406 6.25 12.7502 6.25C12.0599 6.25 11.5002 6.99619 11.5002 7.91667C11.5002 8.83714 12.0599 9.58333 12.7502 9.58333ZM10.0002 11.484C11.1768 11.484 12.4787 12.057 13.1764 13.0358C13.3687 13.3057 13.3059 13.6803 13.0361 13.8727C12.7662 14.065 12.3915 14.0022 12.1992 13.7323C11.7593 13.1152 10.8488 12.684 10.0002 12.684C9.15186 12.684 8.2416 13.1149 7.80156 13.7318C7.60911 14.0015 7.23442 14.0642 6.96466 13.8718C6.6949 13.6793 6.63222 13.3046 6.82466 13.0349C7.52254 12.0566 8.82387 11.484 10.0002 11.484Z" fill="#161823"/>
</svg>
