<svg width="20" height="20" viewBox="0 0 20 20" fill="none" xmlns="http://www.w3.org/2000/svg">
<path d="M10.75 5.75C10.75 5.33579 10.4142 5 10 5C9.58579 5 9.25 5.33579 9.25 5.75V9.99995C9.25 10.1989 9.32902 10.3896 9.46967 10.5303L11.7664 12.827C12.0592 13.1199 12.5341 13.1199 12.827 12.827C13.1199 12.5341 13.1199 12.0592 12.827 11.7663L10.75 9.68929V5.75Z" fill="#161823"/>
<path fill-rule="evenodd" clip-rule="evenodd" d="M18 10C18 14.4183 14.4183 18 10 18C5.58172 18 2 14.4183 2 10C2 5.58172 5.58172 2 10 2C14.4183 2 18 5.58172 18 10ZM16.5 10C16.5 13.5899 13.5899 16.5 10 16.5C6.41015 16.5 3.5 13.5899 3.5 10C3.5 6.41015 6.41015 3.5 10 3.5C13.5899 3.5 16.5 6.41015 16.5 10Z" fill="#161823"/>
</svg>
