<svg width="16" height="16" viewBox="0 0 16 16" fill="none" xmlns="http://www.w3.org/2000/svg">
<path d="M4.929 2.38592C5.04086 1.75766 5.58714 1.30005 6.22529 1.30005H9.77504C10.4132 1.30005 10.9595 1.75766 11.0713 2.38592L11.2697 3.50006L13.5 3.50006C13.9142 3.50006 14.25 3.83585 14.25 4.25006C14.25 4.66428 13.9142 5.00006 13.5 5.00006H12.7217L12.2461 12.8831C12.1845 13.9038 11.3388 14.7001 10.3163 14.7001H5.68405C4.66152 14.7001 3.8158 13.9038 3.75423 12.8831L3.27865 5.00006H2.5C2.08579 5.00006 1.75 4.66427 1.75 4.25006C1.75 3.83585 2.08579 3.50006 2.5 3.50006L4.73064 3.50006L4.929 2.38592ZM9.94925 3.50006L9.79145 2.61379C9.79004 2.60584 9.78312 2.60005 9.77504 2.60005H6.22529C6.21721 2.60005 6.21029 2.60584 6.20888 2.61379L6.05108 3.50006L9.94925 3.50006ZM6.66666 6.50007C6.33529 6.50007 6.06666 6.7687 6.06666 7.10007V11.4001C6.06666 11.7314 6.33529 12.0001 6.66666 12.0001C6.99803 12.0001 7.26666 11.7314 7.26666 11.4001V7.10007C7.26666 6.7687 6.99803 6.50007 6.66666 6.50007ZM9.93334 7.10007C9.93334 6.7687 9.66471 6.50007 9.33334 6.50007C9.00197 6.50007 8.73334 6.7687 8.73334 7.10007V11.4001C8.73334 11.7314 9.00197 12.0001 9.33334 12.0001C9.66471 12.0001 9.93334 11.7314 9.93334 11.4001V7.10007Z" fill="#161823"/>
</svg>
