<svg width="16" height="16" viewBox="0 0 16 16" fill="none" xmlns="http://www.w3.org/2000/svg">
<path d="M4.47 3.50391C4.47 2.67548 5.14157 2.00391 5.97 2.00391H12.5C13.3284 2.00391 14 2.67548 14 3.50391V11.5C14 12.8807 12.8807 14 11.5 14H2.90234C3.76814 14 4.47 13.2981 4.47 12.4323V3.50391ZM6.46997 4.4V4.8C6.46997 5.02091 6.64906 5.2 6.86997 5.2H11.6C11.8209 5.2 12 5.02091 12 4.8V4.4C12 4.17909 11.8209 4 11.6 4H6.86997C6.64906 4 6.46997 4.17909 6.46997 4.4ZM6.86997 6.49752C6.64906 6.49752 6.46997 6.67661 6.46997 6.89752V7.29752C6.46997 7.51843 6.64906 7.69752 6.86997 7.69752H11.6C11.8209 7.69752 12 7.51843 12 7.29752V6.89752C12 6.67661 11.8209 6.49752 11.6 6.49752H6.86997ZM6.46997 9.39504V9.79504C6.46997 10.016 6.64906 10.195 6.86997 10.195H10.6C10.8209 10.195 11 10.016 11 9.79504V9.39504C11 9.17413 10.8209 8.99504 10.6 8.99504H6.86997C6.64906 8.99504 6.46997 9.17413 6.46997 9.39504Z" fill="#161823"/>
<path d="M2.2 8C2.08954 8 2 8.08954 2 8.2V12.5823C2 12.9965 2.33579 13.3323 2.75 13.3323H3.05C3.46421 13.3323 3.8 12.9965 3.8 12.5823V8.2C3.8 8.08954 3.71046 8 3.6 8H2.2Z" fill="#161823"/>
</svg>
