<svg width="20" height="20" viewBox="0 0 20 20" fill="none" xmlns="http://www.w3.org/2000/svg">
<path fill-rule="evenodd" clip-rule="evenodd" d="M13.8338 5.83339C13.8338 7.67434 12.4906 9.16673 10.8338 9.16673C9.17691 9.16673 7.83376 7.67434 7.83376 5.83339C7.83376 3.99245 9.17691 2.50006 10.8338 2.50006C12.4906 2.50006 13.8338 3.99245 13.8338 5.83339ZM9.08376 5.83339C9.08376 7.11113 9.98789 7.91673 10.8338 7.91673C11.6796 7.91673 12.5838 7.11113 12.5838 5.83339C12.5838 4.55566 11.6796 3.75006 10.8338 3.75006C9.98789 3.75006 9.08376 4.55566 9.08376 5.83339Z" fill="#161823"/>
<path d="M6.18394 9.16164C6.68141 9.16164 7.14497 9.00029 7.53454 8.72213C7.28296 8.38539 7.07564 8.01147 6.9195 7.6127C6.696 7.80817 6.42973 7.91163 6.18394 7.91163C5.61329 7.91163 4.93227 7.35394 4.93227 6.38201C4.93227 5.41007 5.61329 4.85238 6.18394 4.85238C6.33974 4.85238 6.50377 4.89395 6.65992 4.97418C6.73511 4.55375 6.86442 4.14846 7.04134 3.76992C6.7739 3.66152 6.48513 3.60238 6.18394 3.60238C4.8023 3.60238 3.68227 4.84686 3.68227 6.38201C3.68227 7.91715 4.8023 9.16164 6.18394 9.16164Z" fill="#161823"/>
<path d="M2.31417 11.5444C3.30114 10.9327 4.57802 10.5817 5.94975 10.5458C5.85349 10.5998 5.75881 10.6557 5.66577 10.7133C5.08651 11.0723 4.51795 11.5415 4.0496 12.1153C2.61836 12.5819 1.66699 13.5072 1.66699 14.5723V14.9198C1.66699 15.3036 1.97811 15.6147 2.3619 15.6147H2.91699C2.91734 16.0568 3.00375 16.4787 3.16038 16.8647H2.3619C1.28776 16.8647 0.416992 15.9939 0.416992 14.9198V14.5723C0.416992 13.2197 1.28625 12.1814 2.31417 11.5444Z" fill="#161823"/>
<path d="M6.32434 11.5805C7.52893 10.834 9.1205 10.4167 10.8337 10.4167C11.5663 10.4167 12.5098 10.493 13.1773 10.6387C13.1778 10.6388 13.1783 10.639 13.1788 10.6393C13.2682 10.684 13.2708 10.8005 13.2708 10.9672C13.2708 11.0614 13.27 11.2843 13.2692 11.4781L13.2692 11.4823C13.2686 11.6293 13.2681 11.7588 13.2681 11.802C13.2681 11.8029 13.2679 11.8036 13.2676 11.8045C13.2325 11.8832 13.1248 11.8692 13.0617 11.8599C12.6484 11.799 11.2817 11.6667 10.8337 11.6667C7.78687 11.6667 5.41708 13.1591 5.41708 15.0001V15.4167C5.41708 15.877 5.79017 16.2501 6.25041 16.2501H13.27V17.3001C13.27 17.4105 13.1805 17.5001 13.07 17.5001H6.25041C5.09981 17.5001 4.16708 16.5673 4.16708 15.4167V15.0001C4.16708 13.4945 5.13475 12.3178 6.32434 11.5805Z" fill="#161823"/>
<path d="M15.8337 10.3833C16.2479 10.3833 16.5837 10.7191 16.5837 11.1334V13.7167H19.167C19.5812 13.7167 19.917 14.0525 19.917 14.4667C19.917 14.8809 19.5812 15.2167 19.167 15.2167H16.5837V17.8C16.5837 18.2142 16.2479 18.55 15.8337 18.55C15.4195 18.55 15.0837 18.2142 15.0837 17.8V15.2167H12.5004C12.0862 15.2167 11.7504 14.8809 11.7504 14.4667C11.7504 14.0525 12.0862 13.7167 12.5004 13.7167H15.0837V11.1334C15.0837 10.7191 15.4195 10.3833 15.8337 10.3833Z" fill="#161823"/>
</svg>
