<svg width="20" height="20" viewBox="0 0 20 20" fill="none" xmlns="http://www.w3.org/2000/svg">
<path fill-rule="evenodd" clip-rule="evenodd" d="M1.5 12.2749C0.570077 11.2899 0 9.96154 0 8.5C0 5.46243 2.46243 3 5.5 3C8.5346 3 10.9952 5.45762 11 8.4911L12.1899 10.5521C12.4661 11.0304 12.3022 11.642 11.8239 11.9182L10.5 12.6825V13.35C10.5 14.3165 9.7165 15.1 8.75 15.1H8V16.5C8 17.0523 7.55229 17.5 7 17.5H2.5C1.94772 17.5 1.5 17.0523 1.5 16.5V12.2749ZM9.50063 8.89412L9.5 8.49347C9.4965 6.28737 7.70697 4.5 5.5 4.5C3.29086 4.5 1.5 6.29086 1.5 8.5C1.5 9.56364 1.91317 10.5275 2.59072 11.2452L2.94543 11.6209C2.98048 11.6581 3 11.7072 3 11.7582V15.8C3 15.9105 3.08954 16 3.2 16H6.3C6.41046 16 6.5 15.9105 6.5 15.8V13.8C6.5 13.6895 6.58954 13.6 6.7 13.6H8.75C8.88807 13.6 9 13.4881 9 13.35V11.932C9 11.8605 9.03812 11.7945 9.1 11.7588L10.4677 10.9691C10.5633 10.9139 10.5961 10.7916 10.5409 10.6959L9.50063 8.89412Z" fill="#161823"/>
<path d="M16.4307 3.97538C16.7236 3.68248 17.1984 3.68248 17.4913 3.97538C19.087 5.571 19.9834 7.73513 19.9834 9.99168C19.9834 12.2482 19.087 14.4124 17.4913 16.008C17.1984 16.3009 16.7236 16.3009 16.4307 16.008C16.1378 15.7151 16.1378 15.2402 16.4307 14.9473C17.745 13.633 18.4834 11.8504 18.4834 9.99168C18.4834 8.13295 17.745 6.35035 16.4307 5.03604C16.1378 4.74314 16.1378 4.26827 16.4307 3.97538Z" fill="#161823"/>
<path d="M15.0164 6.45023C14.7235 6.15734 14.2486 6.15734 13.9558 6.45023C13.6629 6.74312 13.6629 7.218 13.9558 7.51089C14.6137 8.16883 14.9833 9.06119 14.9833 9.99166C14.9833 10.9221 14.6137 11.8145 13.9558 12.4724C13.6629 12.7653 13.6629 13.2402 13.9558 13.5331C14.2486 13.826 14.7235 13.826 15.0164 13.5331C15.9557 12.5938 16.4833 11.3199 16.4833 9.99166C16.4833 8.66336 15.9557 7.38948 15.0164 6.45023Z" fill="#161823"/>
</svg>
