<svg width="20" height="20" viewBox="0 0 20 20" fill="none" xmlns="http://www.w3.org/2000/svg">
<path fill-rule="evenodd" clip-rule="evenodd" d="M1.66699 7.66665C1.66699 7.11437 2.11471 6.66665 2.66699 6.66665H5.30673C5.64965 6.66665 5.98422 6.56088 6.26482 6.36375L10.0921 3.67494C10.7548 3.20943 11.667 3.6834 11.667 4.4932V15.5126C11.667 16.3228 10.7539 16.7967 10.0914 16.3303L6.26523 13.6371C5.98439 13.4394 5.64933 13.3333 5.30589 13.3333H2.66699C2.11471 13.3333 1.66699 12.8856 1.66699 12.3333V7.66665ZM3.16699 11.8333V8.16665H5.30673C5.95828 8.16665 6.59396 7.96568 7.1271 7.59114L10.167 5.45552V14.5492L7.12863 12.4105C6.59503 12.0349 5.95843 11.8333 5.30589 11.8333H3.16699Z" fill="#161823"/>
<path d="M15.3085 5.05028C15.6014 4.75738 16.0762 4.75738 16.3691 5.05028C17.0191 5.70029 17.5348 6.47196 17.8865 7.32124C18.2383 8.17052 18.4194 9.08077 18.4194 10C18.4194 10.9193 18.2383 11.8295 17.8865 12.6788C17.5347 13.5281 17.0191 14.2998 16.3691 14.9498C16.0762 15.2427 15.6014 15.2427 15.3085 14.9498C15.0156 14.6569 15.0156 14.182 15.3085 13.8891C15.8192 13.3784 16.2243 12.7721 16.5007 12.1048C16.7771 11.4375 16.9194 10.7223 16.9194 10C16.9194 9.27775 16.7771 8.56256 16.5007 7.89526C16.2243 7.22797 15.8192 6.62166 15.3085 6.11094C15.0156 5.81804 15.0156 5.34317 15.3085 5.05028Z" fill="#161823"/>
<path d="M13.2461 7.11271C13.539 6.81982 14.0139 6.81982 14.3067 7.11271C14.6859 7.49188 14.9867 7.94203 15.1919 8.43744C15.3971 8.93285 15.5027 9.46383 15.5027 10.0001C15.5027 10.5363 15.3971 11.0673 15.1919 11.5627C14.9867 12.0581 14.6859 12.5082 14.3067 12.8874C14.0139 13.1803 13.539 13.1803 13.2461 12.8874C12.9532 12.5945 12.9532 12.1196 13.2461 11.8268C13.486 11.5869 13.6763 11.3021 13.8061 10.9887C13.9359 10.6752 14.0027 10.3393 14.0027 10.0001C14.0027 9.66082 13.9359 9.32489 13.8061 9.01146C13.6763 8.69804 13.486 8.41326 13.2461 8.17337C12.9532 7.88048 12.9532 7.4056 13.2461 7.11271Z" fill="#161823"/>
</svg>
