<svg width="16" height="16" viewBox="0 0 16 16" fill="none" xmlns="http://www.w3.org/2000/svg">
<path d="M5.06704 4.71658C5.06704 4.38521 5.33567 4.11658 5.66704 4.11658H10.3337C10.6651 4.11658 10.9337 4.38521 10.9337 4.71658C10.9337 5.04795 10.6651 5.31658 10.3337 5.31658H5.66704C5.33567 5.31658 5.06704 5.04795 5.06704 4.71658Z" fill="#161823"/>
<path d="M5.66714 6.91614C5.33577 6.91614 5.06714 7.18477 5.06714 7.51614C5.06714 7.84751 5.33577 8.11614 5.66714 8.11614H8.66714C8.99851 8.11614 9.26714 7.84751 9.26714 7.51614C9.26714 7.18477 8.99851 6.91614 8.66714 6.91614H5.66714Z" fill="#161823"/>
<path fill-rule="evenodd" clip-rule="evenodd" d="M2.66113 3.85605C2.66113 2.53057 3.73565 1.45605 5.06113 1.45605H10.9398C12.2653 1.45605 13.3398 2.53057 13.3398 3.85605V12.3783C13.3398 13.7038 12.2653 14.7783 10.9398 14.7783H5.06113C3.73565 14.7783 2.66113 13.7038 2.66113 12.3783V3.85605ZM5.06113 2.65605C4.39839 2.65605 3.86113 3.19331 3.86113 3.85605V12.3783C3.86113 13.041 4.39839 13.5783 5.06113 13.5783H10.9398C11.6025 13.5783 12.1398 13.041 12.1398 12.3783V3.85605C12.1398 3.19331 11.6025 2.65605 10.9398 2.65605H5.06113Z" fill="#161823"/>
</svg>
