<svg width="24" height="24" viewBox="0 0 24 24" fill="none" xmlns="http://www.w3.org/2000/svg">
<path d="M10.7865 1.57876C10.8812 1.17551 11.2848 0.925353 11.6881 1.02002L12.2954 1.16259C14.1993 1.60955 15.7203 2.98438 16.3787 4.77726L17.4363 3.71964C17.7292 3.42674 18.2041 3.42674 18.497 3.71964C18.7899 4.01253 18.7899 4.4874 18.497 4.7803L16.5039 6.77343C16.4428 6.83625 16.3703 6.88872 16.2891 6.92733C16.2147 6.96277 16.1356 6.98524 16.0553 6.99475C15.8386 7.02071 15.6304 6.95084 15.4756 6.81692C15.4017 6.753 15.34 6.67449 15.2953 6.58484C15.2609 6.51582 15.2378 6.44259 15.2259 6.36791L15.1703 6.04284C14.882 4.36004 13.6147 3.01309 11.9526 2.62289L11.3453 2.48032C10.942 2.38565 10.6919 1.98201 10.7865 1.57876Z" fill="#161823"/>
<path fill-rule="evenodd" clip-rule="evenodd" d="M4.75 4.00006C3.23122 4.00006 2 5.23128 2 6.75006V18.2501C2 19.7688 3.23122 21.0001 4.75 21.0001H11C12.5188 21.0001 13.75 19.7688 13.75 18.2501V6.75006C13.75 5.23128 12.5188 4.00006 11 4.00006H4.75ZM3.5 6.75006C3.5 6.05971 4.05964 5.50006 4.75 5.50006H5.375V6.00006C5.375 6.55235 5.82271 7.00006 6.375 7.00006H9.375C9.92728 7.00006 10.375 6.55235 10.375 6.00006V5.50006H11C11.6904 5.50006 12.25 6.05971 12.25 6.75006V18.2501C12.25 18.9404 11.6904 19.5001 11 19.5001H4.75C4.05964 19.5001 3.5 18.9404 3.5 18.2501V6.75006Z" fill="#161823"/>
<path d="M19.25 12.5001H15.45C15.3395 12.5001 15.25 12.4105 15.25 12.3001V11.2001C15.25 11.0896 15.3395 11.0001 15.45 11.0001H19.25C20.7688 11.0001 22 12.2313 22 13.7501V18.2501C22 19.7688 20.7688 21.0001 19.25 21.0001H15.45C15.3395 21.0001 15.25 20.9105 15.25 20.8001V19.7001C15.25 19.5896 15.3395 19.5001 15.45 19.5001H19.25C19.9404 19.5001 20.5 18.9404 20.5 18.2501V13.7501C20.5 13.0597 19.9404 12.5001 19.25 12.5001Z" fill="#161823"/>
</svg>
