<svg width="24" height="24" viewBox="0 0 24 24" fill="none" xmlns="http://www.w3.org/2000/svg">
<path fill-rule="evenodd" clip-rule="evenodd" d="M12.2132 21.3808C11.7964 21.8476 11.2004 22.1145 10.5747 22.1145C9.10062 22.1145 8.04499 20.6912 8.47285 19.2806L9.48897 15.9305H4.46802C3.50153 15.9305 2.71802 15.147 2.71802 14.1805V12.4441C2.71802 11.9655 2.80962 11.4914 2.98787 11.0473L5.55068 4.66196C5.89302 3.80901 6.71972 3.25003 7.6388 3.25004L19.75 3.25015C20.7165 3.25015 21.5 4.03366 21.5 5.00015V14.1805C21.5 15.147 20.7165 15.9305 19.75 15.9305H17.0789L12.2132 21.3808ZM17.493 14.4305H19.75C19.8881 14.4305 20 14.3186 20 14.1805V5.00015C20 4.86208 19.8881 4.75015 19.75 4.75015H17.493V14.4305ZM15.993 4.75014L7.63878 4.75004C7.33242 4.75003 7.05686 4.93636 6.94274 5.22068L4.37993 11.606C4.27298 11.8725 4.21802 12.1569 4.21802 12.4441V14.1805C4.21802 14.3186 4.32995 14.4305 4.46802 14.4305H10.5002C10.7377 14.4305 10.9611 14.543 11.1026 14.7338C11.2441 14.9245 11.2868 15.171 11.2179 15.3982L9.90827 19.716C9.77262 20.1632 10.1073 20.6145 10.5747 20.6145C10.7731 20.6145 10.9621 20.5299 11.0942 20.3819L15.993 14.8945V4.75014Z" fill="#161823"/>
</svg>
