<svg width="20" height="20" viewBox="0 0 20 20" fill="none" xmlns="http://www.w3.org/2000/svg">
<path d="M18.4833 8.8045C19.2753 9.40472 19.2753 10.5953 18.4832 11.1956L12.5694 15.6769C11.5815 16.4255 10.1635 15.7208 10.1635 14.4813V5.51867C10.1635 4.27917 11.5815 3.57454 12.5694 4.32314L18.4833 8.8045ZM17.5773 10L11.6635 5.51867V14.4813L17.5773 10Z" fill="#161823"/>
<path d="M9.56785 8.80451L3.65398 4.32315C2.66608 3.57455 1.24805 4.27918 1.24805 5.51868V14.4813C1.24805 15.7208 2.66608 16.4255 3.65398 15.6769L9.56784 11.1956C10.3599 10.5953 10.3599 9.40474 9.56785 8.80451ZM8.66191 10L2.74805 14.4813L2.74805 5.51868L8.66191 10Z" fill="#161823"/>
</svg>
