<svg width="24" height="24" viewBox="0 0 24 24" fill="none" xmlns="http://www.w3.org/2000/svg">
<path d="M10.9367 17.7931C10.3792 18.9548 11.2259 20.3002 12.5144 20.3002H19.5502C20.5167 20.3002 21.3002 19.5167 21.3002 18.5502V5.4502C21.3002 4.4837 20.5167 3.7002 19.5502 3.7002H18.801C18.128 3.7002 17.5147 4.08606 17.2234 4.69268L10.9367 17.7931Z" fill="#161823"/>
<path d="M4.4502 12.3002C3.4837 12.3002 2.7002 13.0837 2.7002 14.0502V18.5502C2.7002 19.5167 3.4837 20.3002 4.4502 20.3002H6.96787C7.64155 20.3002 8.25541 19.9135 8.54631 19.3059L10.7006 14.8059C11.2567 13.6443 10.41 12.3002 9.1222 12.3002H4.4502Z" fill="#161823"/>
<path d="M2.7002 5.4502C2.7002 4.4837 3.4837 3.7002 4.4502 3.7002H13.2838C14.5646 3.7002 15.4115 5.03091 14.8692 6.19122L13.2021 9.75788C12.9143 10.3735 12.2962 10.7669 11.6167 10.7669H4.4502C3.4837 10.7669 2.7002 9.98336 2.7002 9.01686V5.4502Z" fill="#161823"/>
</svg>
