<svg width="24" height="24" viewBox="0 0 24 24" fill="none" xmlns="http://www.w3.org/2000/svg">
<path d="M5.25024 3.25C5.25024 2.83579 5.58603 2.5 6.00024 2.5H18.0002C18.4145 2.5 18.7502 2.83579 18.7502 3.25C18.7502 3.66421 18.4145 4 18.0002 4H6.00024C5.58603 4 5.25024 3.66421 5.25024 3.25Z" fill="#161823"/>
<path d="M12.7502 8.01446L17.8481 13.1124C18.141 13.4053 18.6159 13.4053 18.9088 13.1124C19.2017 12.8195 19.2017 12.3446 18.9088 12.0517L12.5306 5.6735C12.2377 5.3806 11.7628 5.3806 11.4699 5.6735L5.09174 12.0517C4.79885 12.3446 4.79885 12.8195 5.09174 13.1124C5.38463 13.4053 5.85951 13.4053 6.1524 13.1124L11.2502 8.01452V21.251C11.2502 21.6652 11.586 22.001 12.0002 22.001C12.4145 22.001 12.7502 21.6652 12.7502 21.251V8.01446Z" fill="#161823"/>
</svg>
