<svg width="20" height="20" viewBox="0 0 20 20" fill="none" xmlns="http://www.w3.org/2000/svg">
<path d="M13.3333 5.41667C13.3333 7.48774 11.8409 9.16667 9.99996 9.16667C8.15901 9.16667 6.66663 7.48774 6.66663 5.41667C6.66663 3.3456 8.15901 1.66667 9.99996 1.66667C11.8409 1.66667 13.3333 3.3456 13.3333 5.41667ZM11.8333 5.41667C11.8333 4.00306 10.8513 3.16667 9.99996 3.16667C9.14865 3.16667 8.16663 4.00306 8.16663 5.41667C8.16663 6.83028 9.14865 7.66667 9.99996 7.66667C10.8513 7.66667 11.8333 6.83028 11.8333 5.41667Z" fill="#161823"/>
<path d="M10 10.1667C8.00786 10.1667 6.15542 10.6637 4.75275 11.5541C3.36383 12.4358 2.25 13.8335 2.25 15.6061V16.25C2.25 17.5387 3.29467 18.5833 4.58333 18.5833H13.3737C13.4929 18.5833 13.5849 18.4797 13.5835 18.3605L13.5833 18.3333V17.2833C13.5833 17.1729 13.4938 17.0833 13.3833 17.0833H4.58333C4.1231 17.0833 3.75 16.7102 3.75 16.25V15.6061C3.75 13.4304 6.48438 11.6667 10 11.6667C11.2219 11.6667 12.3495 11.8797 13.3006 12.2491C13.4351 12.3013 13.5833 12.2041 13.5833 12.0599V11.6667C13.5833 11.4378 13.6175 11.217 13.681 11.0089C13.7139 10.9011 13.663 10.7821 13.5565 10.7448C12.4811 10.3683 11.2689 10.1667 10 10.1667Z" fill="#161823"/>
<path d="M16.5833 11.6667C16.5833 11.2525 16.2475 10.9167 15.8333 10.9167C15.4191 10.9167 15.0833 11.2525 15.0833 11.6667V14.25H12.5C12.0858 14.25 11.75 14.5858 11.75 15C11.75 15.4142 12.0858 15.75 12.5 15.75H15.0833V18.3333C15.0833 18.7475 15.4191 19.0833 15.8333 19.0833C16.2475 19.0833 16.5833 18.7475 16.5833 18.3333V15.75H19.1667C19.5809 15.75 19.9167 15.4142 19.9167 15C19.9167 14.5858 19.5809 14.25 19.1667 14.25H16.5833V11.6667Z" fill="#161823"/>
</svg>
