<svg width="24" height="24" viewBox="0 0 24 24" fill="none" xmlns="http://www.w3.org/2000/svg">
<path d="M13.7917 12.091C14.0073 10.99 13.8489 10.4205 13.6767 9.80144C13.5222 9.24598 13.3567 8.65059 13.4401 7.59554C13.7026 4.27667 15.9246 0.522608 18.8906 1.04778C21.8566 1.57295 23.3623 6.3557 22.7457 9.2432C22.3896 10.9108 21.7205 11.9456 21.2106 12.7344C20.9739 13.1004 20.7716 13.4135 20.6506 13.7121C20.4888 14.1116 20.4331 14.4136 20.364 14.7891C20.27 15.2993 20.151 15.945 19.7067 17.1548C18.9356 19.2547 17.1509 20.3296 14.9799 19.6495C12.809 18.9694 12.499 16.5558 12.7159 15.4897C12.9095 14.5379 13.073 14.2032 13.2372 13.867C13.4094 13.5145 13.5824 13.1603 13.7917 12.091ZM14.9454 7.66331C14.8824 8.45992 14.9931 8.85809 15.134 9.36483L15.1609 9.46189C15.3568 10.1721 15.5376 10.9807 15.2739 12.3275C15.233 12.5363 15.1927 12.7234 15.1527 12.8925L18.9898 14.0201C19.0488 13.7726 19.1291 13.4994 19.251 13.1983C19.4041 12.8205 19.6192 12.4719 19.7949 12.1962C19.8519 12.1068 19.9064 12.0223 19.9598 11.9398C20.0908 11.7372 20.2145 11.5459 20.3483 11.3199C20.6977 10.7295 21.0506 10.003 21.2687 8.98168C21.5033 7.88315 21.3417 6.26668 20.7608 4.86021C20.1592 3.4038 19.3217 2.6465 18.5773 2.5147C17.8918 2.39332 17.1259 2.70576 16.3579 3.73692C15.5924 4.76479 15.0571 6.25111 14.9454 7.66331ZM18.6765 15.4915L14.6721 14.3147C14.65 14.3615 14.6279 14.4074 14.6056 14.453L14.5809 14.5034C14.4658 14.7369 14.3526 14.9667 14.1959 15.7369C14.1439 15.9924 14.1434 16.5768 14.3632 17.1383C14.566 17.656 14.9075 18.0489 15.479 18.2279C16.225 18.4616 16.7734 18.3641 17.1683 18.1476C17.582 17.9208 18.0038 17.4647 18.2891 16.6878C18.4717 16.1904 18.5921 15.8046 18.6765 15.4915Z" fill="#161823"/>
<path d="M10.4451 12.7226C10.2993 13.3485 10.1652 13.9241 10.4272 15.015C10.6817 16.0744 10.8696 16.421 11.0566 16.7659C11.2349 17.0949 11.4124 17.4223 11.6462 18.365C11.908 19.421 11.7007 21.8456 9.56051 22.6171C7.42035 23.3886 5.59165 22.3903 4.73218 20.325C4.23704 19.1351 4.0908 18.495 3.97525 17.9893C3.89023 17.6171 3.82181 17.3177 3.64324 16.9254C3.50972 16.6322 3.29426 16.328 3.04234 15.9724C2.49938 15.2059 1.78704 14.2003 1.36057 12.5493C0.622099 9.69057 1.92998 4.99651 4.87109 4.34607C7.81219 3.69564 10.185 7.20393 10.5879 10.5087C10.716 11.5592 10.5758 12.1611 10.4451 12.7226ZM8.9706 12.3482C9.08989 11.8359 9.18361 11.4334 9.08688 10.6402C8.91586 9.23771 8.32261 7.82025 7.52629 6.86828C6.73514 5.92247 5.956 5.64144 5.24625 5.7984C4.48968 5.96572 3.6902 6.74405 3.157 8.17127C2.63946 9.55656 2.54426 11.1379 2.82518 12.2254C3.08639 13.2366 3.46978 13.9475 3.8439 14.5225C3.98713 14.7427 4.11879 14.9285 4.25828 15.1254C4.31495 15.2054 4.37337 15.2879 4.43392 15.3746C4.62116 15.6426 4.85086 15.9817 5.01978 16.3528C5.15437 16.6484 5.24619 16.9179 5.31559 17.1627L9.1014 15.8734C9.05433 15.7062 9.00611 15.521 8.95642 15.3141C8.63589 13.9797 8.78219 13.1642 8.94783 12.4463L8.9706 12.3482ZM9.6419 17.274L5.69097 18.6195C5.7886 18.9287 5.92518 19.3091 6.12876 19.7983C6.44672 20.5624 6.88748 21.0002 7.31046 21.2093C7.71412 21.4088 8.26619 21.4831 9.00166 21.2179C9.56503 21.0148 9.8896 20.6078 10.0702 20.082C10.2661 19.5117 10.2407 18.9278 10.178 18.6748C9.98877 17.9119 9.86589 17.6871 9.74105 17.4587L9.7142 17.4094C9.69 17.3647 9.66592 17.3198 9.6419 17.274Z" fill="#161823"/>
</svg>
