<svg width="24" height="24" viewBox="0 0 24 24" fill="none" xmlns="http://www.w3.org/2000/svg">
<path d="M10.0454 2.17576C12.3183 1.72366 14.6776 2.07363 16.7214 3.16605C18.7652 4.25847 20.3669 6.02574 21.2538 8.16675C22.1406 10.3078 22.2576 12.69 21.5849 14.9076C20.9122 17.1253 19.4914 19.041 17.5645 20.3285C15.6377 21.616 13.324 22.1955 11.0178 21.9684C8.71152 21.7412 6.55538 20.7215 4.91672 19.0828L4.92854 19.071C4.63573 18.7781 4.63576 18.3033 4.92862 18.0104C5.22152 17.7175 5.69639 17.7175 5.98928 18.0104C7.31238 19.3335 9.03509 20.1831 10.8902 20.4273C12.7454 20.6715 14.6292 20.2968 16.2497 19.3612C17.8701 18.4256 19.1366 16.9815 19.8527 15.2528C20.5687 13.5241 20.6943 11.6074 20.2101 9.80004C19.7258 7.99266 18.6586 6.39558 17.1742 5.2565C15.6897 4.11742 13.8708 3.5 11.9997 3.5C10.1286 3.5 8.3097 4.11742 6.82522 5.2565C6.13135 5.78893 5.4554 6.67203 4.88011 7.70044C4.30978 8.71997 3.87015 9.82521 3.62324 10.7467C3.60638 10.8096 3.58199 10.8685 3.5513 10.9227C3.5185 11.1799 3.49738 11.4392 3.48819 11.7H4.63575C4.9585 11.7 5.14836 12.0625 4.96452 12.3278L3.09504 15.0255C2.93596 15.2551 2.59657 15.2551 2.43749 15.0255L0.568012 12.3278C0.38418 12.0625 0.574037 11.7 0.896785 11.7H1.9874C2.0536 9.4893 2.84997 7.35942 4.25659 5.64545C5.72674 3.85407 7.77254 2.62786 10.0454 2.17576Z" fill="#161823"/>
<path fill-rule="evenodd" clip-rule="evenodd" d="M16.319 10.7032C17.2325 11.3265 17.2325 12.6736 16.319 13.2969L11.2245 16.773C10.1824 17.484 8.76965 16.7377 8.76965 15.4761V8.52398C8.76965 7.26236 10.1824 6.51603 11.2245 7.22711L16.319 10.7032ZM14.8383 11.8733C14.9314 11.9368 14.9314 12.0741 14.8383 12.1376L10.8195 14.8798C10.7133 14.9522 10.5693 14.8762 10.5693 14.7476V9.26335C10.5693 9.13478 10.7133 9.05872 10.8195 9.13119L14.8383 11.8733Z" fill="#161823"/>
</svg>
