<svg width="20" height="20" viewBox="0 0 20 20" fill="none" xmlns="http://www.w3.org/2000/svg">
<path d="M15.3271 1.60066C15.6828 1.61627 15.9455 1.79808 16.1143 2.00203C16.2636 2.18261 16.3519 2.39287 16.4082 2.54988C16.4377 2.632 16.4649 2.71881 16.4902 2.80476L16.5605 3.05379L16.5615 3.05574L18.0674 8.57234L18.1113 8.74715C18.2069 9.16271 18.2434 9.64182 18.0645 10.1202C17.8794 10.6147 17.5082 10.9966 16.9971 11.2911L16.7695 11.4122C15.6143 11.9792 13.9975 12.0924 12.5186 11.8995L12.2256 11.8575L9.85938 11.4796C8.35726 11.2395 6.82162 11.4833 5.48535 12.1632C5.47358 12.1691 5.46115 12.1735 5.44922 12.1788C5.59492 12.7123 5.83706 13.5997 6.0791 14.4854C6.27004 15.1842 6.46075 15.8831 6.60449 16.4083C6.67634 16.6708 6.73703 16.8901 6.7793 17.044C6.80039 17.1208 6.81673 17.1815 6.82812 17.2227C6.83382 17.2433 6.83804 17.2587 6.84082 17.2686C6.84224 17.2737 6.84375 17.2774 6.84375 17.2774L6.8457 17.2843C6.94958 17.65 6.76141 18.0424 6.40039 18.1856C6.0396 18.3287 5.63424 18.1721 5.45898 17.835L5.42676 17.7647L5.41211 17.7257C5.41082 17.7217 5.40913 17.7149 5.4082 17.712C5.40656 17.7067 5.40489 17.7023 5.4043 17.7003C5.40301 17.6959 5.40203 17.6918 5.40137 17.6895C5.39994 17.6845 5.39812 17.6788 5.39648 17.6729C5.39306 17.6607 5.38862 17.6432 5.38281 17.6221C5.37105 17.5796 5.35422 17.5177 5.33301 17.4405C5.29055 17.2859 5.23009 17.0664 5.1582 16.8038C5.01437 16.2783 4.82278 15.5797 4.63184 14.8809C3.7328 11.591 2.83369 8.29909 1.96191 5.00203C1.87745 4.68256 1.76965 4.23431 1.76953 3.90633L1.77539 3.80965C1.80048 3.59237 1.9044 3.43486 1.9707 3.35164C2.05317 3.2482 2.1485 3.16949 2.22559 3.11336C2.38179 2.99963 2.57394 2.89915 2.76855 2.81258C3.16608 2.63576 3.69424 2.46321 4.27246 2.32234C5.4104 2.04512 6.89412 1.8562 8.09766 2.10261L10.1279 2.51863L10.3809 2.56355C10.9876 2.6536 11.7059 2.64798 12.4199 2.54109C13.2386 2.41853 13.993 2.17167 14.5332 1.83797L14.7002 1.74519C14.8789 1.65733 15.0914 1.59033 15.3271 1.60066ZM15.0576 3.26375C14.3424 3.64791 13.4873 3.89788 12.6416 4.02449C11.8058 4.14957 10.9344 4.16228 10.1553 4.04597L9.82715 3.98836L7.79688 3.57234C6.91172 3.39111 5.68055 3.5227 4.62695 3.77937C4.10972 3.9054 3.67256 4.05308 3.37891 4.18367C3.35663 4.19358 3.33585 4.20382 3.31641 4.21297C3.40007 4.61481 3.523 5.0071 3.63574 5.40144L3.63672 5.4073L5.05176 10.7061C6.61201 9.97422 8.3733 9.72266 10.0967 9.99812L12.4619 10.3761L12.7236 10.4141C14.0308 10.5833 15.3159 10.4545 16.1084 10.0655L16.248 9.99129C16.5434 9.82175 16.628 9.67709 16.6592 9.59383C16.7016 9.48018 16.7126 9.29954 16.6221 8.97176L16.6211 8.9698L15.1143 3.45222C15.0947 3.38126 15.0739 3.32026 15.0576 3.26375Z" fill="#161823"/>
</svg>
