<svg width="24" height="24" viewBox="0 0 24 24" fill="none" xmlns="http://www.w3.org/2000/svg">
<path d="M13 11C14.9882 11 16.6 9.20914 16.6 7C16.6 4.79086 14.9882 3 13 3C11.0118 3 9.40002 4.79086 9.40002 7C9.40002 9.20914 11.0118 11 13 11ZM13 9.5C11.985 9.5 10.9 8.53328 10.9 7C10.9 5.46672 11.985 4.5 13 4.5C14.0151 4.5 15.1 5.46672 15.1 7C15.1 8.53328 14.0151 9.5 13 9.5Z" fill="#161823"/>
<path d="M7.58872 13.8966C9.03423 13.0007 10.9441 12.5 13 12.5C14.2373 12.5 15.4216 12.6813 16.4838 13.021C16.6156 13.0632 16.6613 13.2251 16.5862 13.3415C16.5032 13.4702 16.431 13.6074 16.371 13.7522C16.3036 13.915 16.2539 14.082 16.2214 14.2506C16.1969 14.3778 16.0676 14.4619 15.9438 14.4237C15.0655 14.1526 14.0673 14 13 14C9.34375 14 6.5 15.7909 6.5 18V18.5C6.5 19.0523 6.94771 19.5 7.5 19.5H11.0928C11.2303 19.5 11.3271 19.636 11.2987 19.7705C11.232 20.0863 11.234 20.413 11.3037 20.727C11.3337 20.8622 11.2368 21 11.0983 21H7.5C6.11929 21 5 19.8807 5 18.5V18C5 16.1933 6.16121 14.7813 7.58872 13.8966Z" fill="#161823"/>
<path d="M9.04101 10.4665C8.57353 10.8003 8.01727 10.9939 7.4203 10.9939C5.76235 10.9939 4.4183 9.50055 4.4183 7.65837C4.4183 5.81619 5.76235 4.32281 7.4203 4.32281C7.78174 4.32281 8.12825 4.39379 8.44917 4.52387C8.23688 4.97811 8.0817 5.46446 7.99147 5.96897C7.80409 5.8727 7.60726 5.82281 7.4203 5.82281C6.73552 5.82281 5.9183 6.49205 5.9183 7.65837C5.9183 8.82469 6.73552 9.49393 7.4203 9.49393C7.71525 9.49393 8.03476 9.36977 8.30296 9.13522C8.49033 9.61374 8.73911 10.0624 9.04101 10.4665Z" fill="#161823"/>
<path d="M7.13928 12.6549C5.49321 12.698 3.96097 13.1192 2.77661 13.8532C1.54311 14.6177 0.5 15.8636 0.5 17.4868V17.9037C0.5 19.1927 1.54492 20.2376 2.83389 20.2376H3.79207C3.60412 19.7745 3.50042 19.2681 3.5 18.7376H2.83389C2.37335 18.7376 2 18.3643 2 17.9037V17.4868C2 16.2086 3.14164 15.0983 4.85912 14.5383C5.42114 13.8497 6.10342 13.2868 6.79853 12.856C6.91017 12.7868 7.02379 12.7197 7.13928 12.6549Z" fill="#161823"/>
<path d="M18.1495 14.4889C18.2501 14.246 18.4871 14.0876 18.75 14.0876H22.25C22.609 14.0876 22.9 14.3787 22.9 14.7376V18.2376C22.9 18.5005 22.7416 18.7376 22.4987 18.8382C22.2558 18.9388 21.9763 18.8832 21.7904 18.6973L20.5963 17.5032L18.5899 19.7386C18.3172 20.0425 17.8516 20.0724 17.5423 19.8059L16.0638 18.5324L14.055 20.7421C13.7763 21.0486 13.302 21.0712 12.9955 20.7926C12.689 20.5139 12.6664 20.0396 12.9451 19.7331L15.4451 16.9831C15.7184 16.6824 16.1816 16.6541 16.4895 16.9194L17.9644 18.1898L19.5341 16.441L18.2904 15.1973C18.1045 15.0114 18.0489 14.7318 18.1495 14.4889Z" fill="#161823"/>
</svg>
