<svg width="16" height="16" viewBox="0 0 16 16" fill="none" xmlns="http://www.w3.org/2000/svg">
<path d="M4.85125 12.6296C4.71654 12.6293 4.64919 12.6291 4.59722 12.6656C4.55886 12.6925 4.52313 12.7487 4.51508 12.7949C4.50416 12.8574 4.52762 12.907 4.57454 13.0061C4.58184 13.0215 4.58941 13.0367 4.59725 13.0518C4.78716 13.4171 5.08524 13.715 5.45083 13.9047C5.88466 14.1299 6.45462 14.1299 7.59453 14.1299H10.1016C11.5265 14.1299 12.2389 14.1299 12.7812 13.8484C13.2382 13.6112 13.6108 13.2389 13.8482 12.7823C14.1299 12.2405 14.1299 11.5286 14.1299 10.1049V7.59988C14.1299 6.46089 14.1299 5.8914 13.9045 5.45793C13.7146 5.09264 13.4165 4.7948 13.0509 4.60505C13.0359 4.59721 13.0206 4.58965 13.0051 4.58235C12.906 4.53547 12.8564 4.51203 12.7938 4.52294C12.7476 4.53099 12.6913 4.56668 12.6644 4.60501C12.6279 4.65694 12.628 4.72424 12.6283 4.85884C12.6287 5.00086 12.6287 5.15017 12.6287 5.30738V8.20238C12.6287 9.76848 12.6287 10.5515 12.3188 11.1476C12.0577 11.6498 11.6478 12.0594 11.1451 12.3203C10.5486 12.6299 9.76491 12.6299 8.19753 12.6299H5.30016C5.14283 12.6299 4.99339 12.6299 4.85125 12.6296Z" fill="#161823"/>
<path d="M1.87988 5.09988C1.87988 3.9609 1.87988 3.39141 2.10524 2.95793C2.29515 2.59265 2.59323 2.29481 2.95882 2.10506C3.39265 1.87988 3.96261 1.87988 5.10252 1.87988H8.41523C9.55515 1.87988 10.1251 1.87988 10.5589 2.10506C10.9245 2.29481 11.2226 2.59265 11.4125 2.95793C11.6379 3.39141 11.6379 3.9609 11.6379 5.09988V8.40988C11.6379 9.54886 11.6379 10.1184 11.4125 10.5518C11.2226 10.9171 10.9245 11.215 10.5589 11.4047C10.1251 11.6299 9.55515 11.6299 8.41523 11.6299H5.10252C3.96261 11.6299 3.39265 11.6299 2.95882 11.4047C2.59323 11.215 2.29515 10.9171 2.10524 10.5518C1.87988 10.1184 1.87988 9.54886 1.87988 8.40988V5.09988Z" fill="#161823"/>
</svg>
