<svg width="20" height="20" viewBox="0 0 20 20" fill="none" xmlns="http://www.w3.org/2000/svg">
<path d="M9.98515 4.70455C9.72787 4.22341 9.4035 3.79835 9.01538 3.45307C8.3466 2.85809 7.48851 2.5 6.45813 2.5C3.83238 2.5 1.66699 4.61424 1.66699 7.73444C1.66699 11.1957 4.57407 14.6313 9.0242 17.5298C9.3652 17.76 9.74031 17.9646 9.99606 17.9646C10.2518 17.9646 10.6354 17.76 10.9765 17.5298C15.4266 14.6313 18.3337 11.1957 18.3337 7.73444C18.3337 4.61424 16.1683 2.5 13.5425 2.5C12.5105 2.5 11.6546 2.85927 10.9836 3.45598C10.5941 3.80233 10.2669 4.22868 10.0036 4.7112C9.99735 4.70936 9.99119 4.70714 9.98515 4.70455ZM10.1578 16.2729L10.1475 16.2797L10.1372 16.2866C10.0899 16.3185 10.0438 16.3482 9.99995 16.375C9.95673 16.3483 9.91102 16.3187 9.86341 16.2866L9.85319 16.2797L9.84286 16.2729C7.70884 14.883 6.01188 13.406 4.86197 11.9237C3.71197 10.4413 3.16699 9.03231 3.16699 7.73444C3.16699 5.36409 4.73725 4 6.45813 4C6.94885 4 7.378 4.12539 7.7452 4.36416L7.53477 5.78976C7.5134 5.93454 7.56955 6.07992 7.68269 6.17274L9.40435 7.58522C9.51531 7.67625 9.57161 7.81798 9.55335 7.96034L9.21948 10.3587C9.19947 10.5147 9.38692 10.6091 9.50032 10.5L12.2409 7.89453C12.3899 7.75123 12.4113 7.52034 12.2912 7.35209L11.482 6.21883C11.3956 6.09772 11.3803 5.93969 11.4419 5.80423L12.0138 4.54658C12.4343 4.18761 12.9427 4 13.5425 4C15.2634 4 16.8337 5.36409 16.8337 7.73444C16.8337 9.03231 16.2887 10.4413 15.1387 11.9237C13.9888 13.406 12.2918 14.883 10.1578 16.2729Z" fill="#161823"/>
</svg>
