<svg width="20" height="20" viewBox="0 0 20 20" fill="none" xmlns="http://www.w3.org/2000/svg">
<path d="M6.07617 1.67358C4.55739 1.67358 3.32617 2.9048 3.32617 4.42358V15.5764C3.32617 17.0952 4.55739 18.3264 6.07617 18.3264H9.12933C9.18745 18.3264 9.23455 18.2792 9.23448 18.2211C9.23448 17.8242 9.28843 17.4483 9.38581 17.0952C9.42242 16.9624 9.32576 16.8264 9.18806 16.8264H6.07617C5.38582 16.8264 4.82617 16.2667 4.82617 15.5764V4.42358C4.82617 3.73323 5.38582 3.17358 6.07617 3.17358H13.9245C14.6149 3.17358 15.1745 3.73323 15.1745 4.42358V7.22367C15.1745 7.32777 15.2615 7.41035 15.3656 7.41035C15.734 7.41035 16.0796 7.46012 16.4007 7.55138C16.5349 7.58952 16.6745 7.49255 16.6745 7.353V4.42358C16.6745 2.9048 15.4433 1.67358 13.9245 1.67358H6.07617Z" fill="#161823"/>
<path d="M6.3338 5.625C6.3338 5.21079 6.66959 4.875 7.0838 4.875H12.9171C13.3313 4.875 13.6671 5.21079 13.6671 5.625C13.6671 6.03921 13.3313 6.375 12.9171 6.375H7.0838C6.66959 6.375 6.3338 6.03921 6.3338 5.625Z" fill="#161823"/>
<path d="M7.0838 7.88049C6.66959 7.88049 6.3338 8.21628 6.3338 8.63049C6.3338 9.04471 6.66959 9.38049 7.0838 9.38049H10.8338C11.248 9.38049 11.5838 9.04471 11.5838 8.63049C11.5838 8.21628 11.248 7.88049 10.8338 7.88049H7.0838Z" fill="#161823"/>
<path d="M13.0086 11.5146C13.0086 12.8486 13.9667 14.1189 15.3656 14.1189C16.7646 14.1189 17.7227 12.8486 17.7227 11.5146C17.7227 10.1807 16.7646 8.91035 15.3656 8.91035C13.9667 8.91035 13.0086 10.1807 13.0086 11.5146ZM15.3656 10.4104C15.7418 10.4104 16.2227 10.8004 16.2227 11.5146C16.2227 12.2288 15.7418 12.6189 15.3656 12.6189C14.9895 12.6189 14.5086 12.2288 14.5086 11.5146C14.5086 10.8004 14.9895 10.4104 15.3656 10.4104Z" fill="#161823"/>
<path d="M15.3655 14.7722C14.1416 14.7722 13.0156 15.1111 12.175 15.7021C11.335 16.2925 10.7345 17.1765 10.7345 18.2312V18.3077C10.7345 19.2407 11.4908 19.9971 12.4238 19.9971H18.3072C19.2402 19.9971 19.9965 19.2407 19.9965 18.3077V18.2312C19.9965 17.1765 19.396 16.2925 18.556 15.7021C17.7154 15.1111 16.5894 14.7722 15.3655 14.7722ZM12.2345 18.2312C12.2345 17.7897 12.4829 17.3192 13.0377 16.9292C13.5918 16.5396 14.4063 16.2722 15.3655 16.2722C16.3247 16.2722 17.1392 16.5396 17.6934 16.9292C18.2481 17.3192 18.4965 17.7897 18.4965 18.2312V18.3077C18.4965 18.4123 18.4118 18.4971 18.3072 18.4971H12.4238C12.3193 18.4971 12.2345 18.4123 12.2345 18.3077V18.2312Z" fill="#161823"/>
</svg>
