<svg width="24" height="24" viewBox="0 0 24 24" fill="none" xmlns="http://www.w3.org/2000/svg">
<path d="M3.32968 5.17281C2.58466 4.32846 3.18417 3 4.31019 3H19.6898C20.8159 3 21.4153 4.32847 20.6703 5.1728L15 11.5992V17.678C15 18.022 14.8232 18.3418 14.5319 18.5248L10.5319 21.0376C9.86599 21.456 9 20.9773 9 20.1908V11.5992L3.32968 5.17281ZM10.1248 10.6067C10.3666 10.8808 10.5 11.2337 10.5 11.5992V19.2863L13.5 17.4017V11.5992C13.5 11.2337 13.6334 10.8808 13.8752 10.6067L19.2636 4.5H4.73646L10.1248 10.6067Z" fill="#161823"/>
<path d="M16.5 13C16.5 12.5858 16.8358 12.25 17.25 12.25H20.25C20.6642 12.25 21 12.5858 21 13C21 13.4142 20.6642 13.75 20.25 13.75H17.25C16.8358 13.75 16.5 13.4142 16.5 13Z" fill="#161823"/>
<path d="M17.25 15.25C16.8358 15.25 16.5 15.5858 16.5 16C16.5 16.4142 16.8358 16.75 17.25 16.75H20.25C20.6642 16.75 21 16.4142 21 16C21 15.5858 20.6642 15.25 20.25 15.25H17.25Z" fill="#161823"/>
</svg>
