<svg width="20" height="20" viewBox="0 0 20 20" fill="none" xmlns="http://www.w3.org/2000/svg">
<path fill-rule="evenodd" clip-rule="evenodd" d="M8.89315 1.76381C9.29975 1.84287 9.56527 2.23657 9.48621 2.64317L8.84971 5.91663H12.7383L13.4305 2.35687C13.5095 1.95027 13.9032 1.68475 14.3098 1.76381C14.7164 1.84287 14.9819 2.23657 14.9029 2.64317L14.2664 5.91663H16.25C16.6642 5.91663 17 6.25241 17 6.66663C17 7.08084 16.6642 7.41663 16.25 7.41663H13.9747L12.9701 12.5834H15C15.4142 12.5834 15.75 12.9192 15.75 13.3334C15.75 13.7476 15.4142 14.0834 15 14.0834H12.6784L11.9862 17.6432C11.9072 18.0498 11.5134 18.3153 11.1068 18.2362C10.7002 18.1572 10.4347 17.7635 10.5138 17.3569L11.1503 14.0834H7.26173L6.56954 17.6432C6.49048 18.0498 6.09678 18.3153 5.69018 18.2362C5.28358 18.1572 5.01806 17.7635 5.09712 17.3569L5.73363 14.0834H3.75C3.33579 14.0834 3 13.7476 3 13.3334C3 12.9192 3.33579 12.5834 3.75 12.5834H6.0253L7.02995 7.41663H5.00326C4.58904 7.41663 4.25326 7.08084 4.25326 6.66663C4.25326 6.25241 4.58904 5.91663 5.00326 5.91663H7.32161L8.01379 2.35687C8.09285 1.95027 8.48655 1.68475 8.89315 1.76381ZM11.442 12.5834L12.4466 7.41663H8.55804L7.55339 12.5834H11.442Z" fill="#161823"/>
</svg>
