<svg width="20" height="20" viewBox="0 0 20 20" fill="none" xmlns="http://www.w3.org/2000/svg">
<path fill-rule="evenodd" clip-rule="evenodd" d="M11.7255 3.54303C10.9557 2.2097 9.03119 2.2097 8.26138 3.54303L1.93304 14.504C1.16324 15.8374 2.12549 17.504 3.66509 17.504H10.0172C10.1517 17.504 10.2478 17.3739 10.2167 17.2431C10.1401 16.9218 10.0995 16.5865 10.0995 16.2418C10.0995 15.897 10.1401 15.5616 10.2167 15.2403C10.2467 15.1147 10.1225 14.9905 9.99348 14.9905C9.47503 14.9905 9.05475 14.5702 9.05475 14.0518C9.05475 13.5333 9.47503 13.113 9.99348 13.113C10.2683 13.113 10.5155 13.2311 10.6871 13.4193C10.7981 13.5409 11.0243 13.5718 11.1313 13.4467C11.8215 12.6401 12.8049 12.0919 13.9164 11.9673C14.0209 11.9556 14.1025 11.8689 14.1025 11.7637V10.3667C14.1025 9.80179 14.3061 9.28448 14.644 8.88413C14.7015 8.81606 14.714 8.71932 14.6695 8.64217L11.7255 3.54303ZM9.99348 7.13936C9.52418 7.13936 9.14566 7.5234 9.15247 7.99265L9.21564 11.493C9.22181 11.9182 9.56824 12.2597 9.99348 12.2597C10.4187 12.2597 10.7651 11.9182 10.7713 11.493L10.8345 7.99265C10.8413 7.5234 10.4628 7.13936 9.99348 7.13936Z" fill="#161823"/>
<path d="M16.9501 17.4055C16.5083 18.3718 15.5331 19.0433 14.401 19.0433C13.3079 19.0433 12.3609 18.4172 11.8993 17.504C11.7075 17.1247 11.5995 16.6959 11.5995 16.2418C11.5995 14.7954 12.6956 13.605 14.1025 13.456C14.2006 13.4456 14.3002 13.4403 14.401 13.4403C14.8428 13.4403 15.201 13.7985 15.201 14.2403C15.201 14.6821 14.8428 15.0403 14.401 15.0403C14.298 15.0403 14.198 15.0533 14.1025 15.0777C13.5833 15.2104 13.1995 15.6813 13.1995 16.2418C13.1995 16.9054 13.7374 17.4433 14.401 17.4433C15.0646 17.4433 15.6025 16.9054 15.6025 16.2418V10.3667C15.6025 10.3334 15.6045 10.3007 15.6085 10.2685C15.6568 9.87301 15.9939 9.56667 16.4025 9.56667C16.7682 9.56667 17.0766 9.81205 17.172 10.1472C17.1922 10.2174 17.203 10.2916 17.203 10.3683C17.203 11.4644 18.0915 12.353 19.1877 12.353C19.6295 12.353 19.9877 12.7111 19.9877 13.153C19.9877 13.5948 19.6295 13.953 19.1877 13.953C18.573 13.953 17.9946 13.7983 17.489 13.5257C17.4029 13.4793 17.319 13.4295 17.2374 13.3765C17.2257 13.3689 17.2141 13.3613 17.2025 13.3536V16.2418C17.2025 16.657 17.1122 17.0511 16.9501 17.4055Z" fill="#161823"/>
</svg>
