<svg width="16" height="16" viewBox="0 0 16 16" fill="none" xmlns="http://www.w3.org/2000/svg">
<path fill-rule="evenodd" clip-rule="evenodd" d="M7.99994 14.9994C11.8659 14.9994 14.9999 11.8654 14.9999 7.99948C14.9999 4.13352 11.8659 0.999542 7.99994 0.999542C4.13398 0.999542 1 4.13352 1 7.99948C1 11.8654 4.13398 14.9994 7.99994 14.9994ZM6.79993 6.33333C6.79993 7.06971 6.35221 7.66667 5.79993 7.66667C5.24764 7.66667 4.79993 7.06971 4.79993 6.33333C4.79993 5.59695 5.24764 5 5.79993 5C6.35221 5 6.79993 5.59695 6.79993 6.33333ZM10.1998 7.66667C10.7521 7.66667 11.1998 7.06971 11.1998 6.33333C11.1998 5.59695 10.7521 5 10.1998 5C9.64754 5 9.19983 5.59695 9.19983 6.33333C9.19983 7.06971 9.64754 7.66667 10.1998 7.66667ZM7.99981 9.06717C8.97395 9.06717 10.0545 9.53974 10.6385 10.359C10.8308 10.6288 10.768 11.0035 10.4982 11.1958C10.2283 11.3882 9.85366 11.3254 9.66132 11.0555C9.33521 10.598 8.6459 10.2672 7.99981 10.2672C7.35396 10.2672 6.66485 10.5978 6.3386 11.0551C6.14616 11.3249 5.77146 11.3875 5.5017 11.1951C5.23194 11.0026 5.16926 10.628 5.36171 10.3582C5.94579 9.53945 7.02596 9.06717 7.99981 9.06717Z" fill="#161823"/>
</svg>
