<svg width="20" height="20" viewBox="0 0 20 20" fill="none" xmlns="http://www.w3.org/2000/svg">
<path d="M10.75 2.41797C10.75 2.00376 10.4142 1.66797 10 1.66797C9.58579 1.66797 9.25 2.00376 9.25 2.41797V9.25H2.42188C2.00766 9.25 1.67188 9.58579 1.67188 10C1.67188 10.4142 2.00766 10.75 2.42188 10.75H9.25V17.4644C9.25 17.8786 9.58579 18.2144 10 18.2144C10.4142 18.2144 10.75 17.8786 10.75 17.4644V10.75H17.5781C17.9923 10.75 18.3281 10.4142 18.3281 10C18.3281 9.58579 17.9923 9.25 17.5781 9.25H10.75V2.41797Z" fill="#161823"/>
</svg>
