<svg width="12" height="12" viewBox="0 0 12 12" fill="none" xmlns="http://www.w3.org/2000/svg">
<path d="M5.56735 2.42642C6.3546 2.33072 7.15142 2.49732 7.83413 2.90027C8.23712 3.13813 8.58702 3.45047 8.86693 3.8176L8.29513 4.02572C8.12031 4.08935 8.1044 4.33524 8.26911 4.42789L9.89693 5.34356C10.0504 5.42988 10.2408 5.36057 10.3029 5.19581L10.9613 3.44802C11.0279 3.27118 10.8577 3.09304 10.6828 3.15667L10.0341 3.39279C9.63197 2.77123 9.08893 2.24746 8.44409 1.86685C7.53395 1.32966 6.47183 1.10764 5.42255 1.23519C4.37326 1.36274 3.39537 1.83273 2.64066 2.57236C2.04736 3.15381 1.61809 3.87634 1.38978 4.66695C1.29785 4.98531 1.48141 5.31792 1.79977 5.40985C2.11813 5.50179 2.45074 5.31823 2.54268 4.99987C2.71383 4.40718 3.03567 3.86543 3.48059 3.42941C4.04658 2.87473 4.7801 2.52212 5.56735 2.42642Z" fill="#161823"/>
<path d="M10.6096 7.33294C10.7014 7.01454 10.5177 6.68199 10.1993 6.59015C9.88095 6.49832 9.5484 6.68198 9.45656 7.00037C9.28717 7.58764 8.97026 8.12431 8.53326 8.55768C8.00061 9.0859 7.3162 9.43422 6.57589 9.55392C5.83557 9.67361 5.07637 9.55869 4.40456 9.22523C3.90539 8.97746 3.47302 8.61824 3.13911 8.1783L3.70188 7.97347C3.87641 7.90995 3.89229 7.66447 3.72785 7.57197L2.10272 6.65781C1.94953 6.57164 1.75942 6.64083 1.69745 6.80532L1.04014 8.55022C0.973636 8.72677 1.14359 8.90462 1.31812 8.84109L1.97254 8.6029C2.43956 9.32734 3.09468 9.91475 3.87104 10.3001C4.76714 10.7449 5.77987 10.8982 6.76742 10.7385C7.75496 10.5789 8.66784 10.1142 9.37824 9.40974C9.96108 8.83174 10.3837 8.11604 10.6096 7.33294Z" fill="#161823"/>
</svg>
