<svg width="24" height="24" viewBox="0 0 24 24" fill="none" xmlns="http://www.w3.org/2000/svg">
<path fill-rule="evenodd" clip-rule="evenodd" d="M5.75 12C5.75 8.54822 8.54822 5.75 12 5.75C15.1576 5.75 17.7683 8.09158 18.1904 11.133L16.2589 9.21146C15.9653 8.91932 15.4904 8.92053 15.1983 9.21418C14.9061 9.50782 14.9073 9.98269 15.201 10.2748L18.4689 13.5261C18.6241 13.6805 18.8391 13.7594 19.0573 13.742C19.2756 13.7247 19.4754 13.6128 19.6042 13.4358L22.3174 9.70906C22.5612 9.37419 22.4874 8.90509 22.1525 8.6613C21.8176 8.41751 21.3485 8.49134 21.1047 8.8262L19.6594 10.8114C19.0875 7.09546 15.876 4.25 12 4.25C7.71979 4.25 4.25 7.71979 4.25 12C4.25 16.2802 7.71979 19.75 12 19.75C13.6456 19.75 15.1735 19.2363 16.4291 18.3604C16.7688 18.1235 16.8521 17.656 16.6151 17.3162C16.3782 16.9765 15.9107 16.8932 15.5709 17.1302C14.5589 17.8361 13.3289 18.25 12 18.25C8.54822 18.25 5.75 15.4518 5.75 12Z" fill="#161823"/>
</svg>
