<svg width="20" height="20" viewBox="0 0 20 20" fill="none" xmlns="http://www.w3.org/2000/svg">
<path d="M12.8525 10.0091C13.5798 10.5054 13.5798 11.578 12.8525 12.0742L9.44529 14.399C8.61556 14.9652 7.49076 14.371 7.49076 13.3665L7.49076 8.71686C7.49076 7.71239 8.61556 7.11818 9.44529 7.68432L12.8525 10.0091ZM8.99076 9.37938V12.704C8.99076 12.7843 9.08075 12.8319 9.14713 12.7866L11.5833 11.1243C11.6415 11.0846 11.6415 10.9988 11.5833 10.9591L9.14713 9.29678C9.08075 9.25149 8.99076 9.29903 8.99076 9.37938Z" fill="#161823"/>
<path d="M7.31817 1.92285C7.11267 1.56322 6.65453 1.43827 6.29489 1.64378C5.93525 1.84928 5.8103 2.30742 6.01581 2.66706L7.04127 4.46162H4.79199C2.99707 4.46162 1.54199 5.9167 1.54199 7.71163V14.3783C1.54199 16.1732 2.99707 17.6283 4.79199 17.6283H15.2087C17.0036 17.6283 18.4587 16.1732 18.4587 14.3783V7.71162C18.4587 5.9167 17.0036 4.46162 15.2087 4.46162H12.9594L13.9848 2.66706C14.1903 2.30742 14.0654 1.84928 13.7058 1.64378C13.3461 1.43827 12.888 1.56322 12.6825 1.92285L11.2318 4.46162H8.7689L7.31817 1.92285ZM11.6802 5.96162H15.2087C16.1752 5.96162 16.9587 6.74513 16.9587 7.71162V14.3783C16.9587 15.3448 16.1752 16.1283 15.2087 16.1283H4.79199C3.82549 16.1283 3.04199 15.3448 3.04199 14.3783V7.71163C3.04199 6.74513 3.82549 5.96162 4.79199 5.96162H8.32041C8.32969 5.9618 8.33899 5.9618 8.34829 5.96162H11.6524C11.6617 5.9618 11.671 5.9618 11.6802 5.96162Z" fill="#161823"/>
</svg>
