<svg width="24" height="24" viewBox="0 0 24 24" fill="none" xmlns="http://www.w3.org/2000/svg">
<path d="M7.60379 3.6568C7.76739 2.8388 8.48561 2.25 9.3198 2.25H14.6802C15.5144 2.25 16.2326 2.8388 16.3962 3.6568L16.6649 5H20.25C20.6642 5 21 5.33579 21 5.75C21 6.16421 20.6642 6.5 20.25 6.5H18.9062L18.1612 18.4215C18.0706 19.8709 16.8687 21 15.4165 21H8.58349C7.13132 21 5.92943 19.8709 5.83885 18.4215L5.09375 6.5H3.75C3.33579 6.5 3 6.16421 3 5.75C3 5.33579 3.33579 5 3.75 5H7.33515L7.60379 3.6568ZM8.86485 5H15.1351L14.9253 3.95097C14.902 3.83412 14.7994 3.75 14.6802 3.75H9.3198C9.20063 3.75 9.09803 3.83412 9.07466 3.95097L8.86485 5ZM10 8.75C9.58579 8.75 9.25 9.08579 9.25 9.5V16.5C9.25 16.9142 9.58579 17.25 10 17.25C10.4142 17.25 10.75 16.9142 10.75 16.5V9.5C10.75 9.08579 10.4142 8.75 10 8.75ZM14.75 9.5C14.75 9.08579 14.4142 8.75 14 8.75C13.5858 8.75 13.25 9.08579 13.25 9.5V16.5C13.25 16.9142 13.5858 17.25 14 17.25C14.4142 17.25 14.75 16.9142 14.75 16.5V9.5Z" fill="#161823"/>
</svg>
