<svg width="12" height="12" viewBox="0 0 12 12" fill="none" xmlns="http://www.w3.org/2000/svg">
<path d="M4.81181 1.2395C2.6173 1.2395 0.736328 2.77533 0.736328 4.78635C0.736328 5.62786 1.07215 6.39407 1.62072 6.99422L1.27689 8.04011C1.23271 8.17452 1.26793 8.32235 1.36797 8.42239C1.46801 8.52243 1.61585 8.55766 1.75025 8.51347L3.1879 8.04085C3.46546 8.14574 3.75873 8.22443 4.06349 8.27359C4.01977 8.05474 3.9967 7.8265 3.9967 7.58975C3.9967 5.37133 6.02206 3.90029 8.0844 3.90029C8.31644 3.90029 8.54802 3.91892 8.77629 3.95513C8.34241 2.36714 6.69222 1.2395 4.81181 1.2395Z" fill="#161823"/>
<path d="M8.94955 10.1723C8.67456 10.242 8.38417 10.2792 8.0844 10.2792C6.42417 10.2792 4.9967 9.11682 4.9967 7.58975C4.9967 6.06269 6.42417 4.9003 8.0844 4.9003C9.74464 4.9003 11.1721 6.06269 11.1721 7.58975C11.1721 8.30867 10.8496 8.95347 10.3387 9.42866L10.6239 10.2426C10.662 10.3514 10.6344 10.4725 10.5529 10.554C10.4714 10.6355 10.3503 10.6631 10.2416 10.625L8.94955 10.1723Z" fill="#161823"/>
</svg>
