<svg width="20" height="20" viewBox="0 0 20 20" fill="none" xmlns="http://www.w3.org/2000/svg">
<path d="M9.34996 2.75107C9.34996 2.33685 9.01417 2.00107 8.59996 2.00107C8.18575 2.00107 7.84996 2.33685 7.84996 2.75107L7.84996 17.2489C7.84996 17.6631 8.18575 17.9989 8.59996 17.9989C9.01417 17.9989 9.34996 17.6631 9.34996 17.2489L9.34996 2.75107Z" fill="#161823"/>
<path d="M6.54997 5.7471C6.54997 5.33289 6.21419 4.9971 5.79997 4.9971C5.38576 4.9971 5.04997 5.33289 5.04997 5.7471L5.04997 14.2529C5.04997 14.6671 5.38576 15.0029 5.79997 15.0029C6.21419 15.0029 6.54997 14.6671 6.54997 14.2529L6.54997 5.7471Z" fill="#161823"/>
<path d="M14.1999 4.01562C14.6141 4.01562 14.9499 4.35141 14.9499 4.76562L14.9499 15.2344C14.9499 15.6486 14.6142 15.9844 14.1999 15.9844C13.7857 15.9844 13.4499 15.6486 13.4499 15.2344L13.4499 4.76562C13.4499 4.35141 13.7857 4.01562 14.1999 4.01562Z" fill="#161823"/>
<path d="M3.75 8.7269C3.75 8.31268 3.41421 7.9769 3 7.9769C2.58579 7.9769 2.25 8.31268 2.25 8.7269V11.2731C2.25 11.6873 2.58579 12.0231 3 12.0231C3.41421 12.0231 3.75 11.6873 3.75 11.2731L3.75 8.7269Z" fill="#161823"/>
<path d="M16.9999 7.375C17.4142 7.375 17.7499 7.71079 17.7499 8.125V11.875C17.7499 12.2892 17.4142 12.625 16.9999 12.625C16.5857 12.625 16.2499 12.2892 16.2499 11.875V8.125C16.2499 7.71079 16.5857 7.375 16.9999 7.375Z" fill="#161823"/>
<path d="M12.15 7.1875C12.15 6.77329 11.8142 6.4375 11.4 6.4375C10.9858 6.4375 10.65 6.77329 10.65 7.1875V12.8125C10.65 13.2267 10.9858 13.5625 11.4 13.5625C11.8142 13.5625 12.15 13.2267 12.15 12.8125V7.1875Z" fill="#161823"/>
</svg>
