<svg width="24" height="24" viewBox="0 0 24 24" fill="none" xmlns="http://www.w3.org/2000/svg">
<path d="M2.19744 10.0128C3.11904 5.44193 7.15756 2 12 2C16.8424 2 20.8809 5.44193 21.8025 10.0128C22.0209 11.0956 21.1046 12 20 12H12.75V19.25C12.75 20.7688 11.5188 22 9.99999 22C8.48121 22 7.24999 20.7688 7.24999 19.25C7.24999 18.8358 7.58578 18.5 7.99999 18.5C8.4142 18.5 8.74999 18.8358 8.74999 19.25C8.74999 19.9404 9.30963 20.5 9.99999 20.5C10.6903 20.5 11.25 19.9404 11.25 19.25V12H3.99999C2.89542 12 1.97913 11.0955 2.19744 10.0128Z" fill="#161823"/>
</svg>
