<svg width="24" height="24" viewBox="0 0 24 24" fill="none" xmlns="http://www.w3.org/2000/svg">
<path d="M21.8964 7.00499L19.0557 11.8925C18.4513 11.8682 17.8416 12.0124 17.2996 12.3253L16.9529 12.5255L20.5995 6.25125C20.7933 5.91783 20.5526 5.49981 20.167 5.5L4.10333 5.50778C3.66533 5.508 3.43928 6.03131 3.73937 6.35035L8.48662 11.3974L16.162 8.18951C16.3765 8.09985 16.5456 8.38667 16.3632 8.53091L9.79739 13.724L11.6286 20.0053C11.7516 20.4273 12.3201 20.4966 12.5409 20.1166L12.8242 19.6292V20.0769C12.8242 20.6016 12.9507 21.1084 13.1822 21.5597C12.1317 22.2275 10.5842 21.7822 10.1886 20.4252L8.07063 13.1604C8.06621 13.1452 8.05828 13.1313 8.04747 13.1198L2.64675 7.37807C1.44639 6.1019 2.35061 4.00863 4.1026 4.00778L20.1662 4C21.7088 3.99925 22.6715 5.67129 21.8964 7.00499Z" fill="#161823"/>
<path d="M20.3646 18.4266C20.3646 19.2219 19.7199 19.8666 18.9246 19.8666C18.1293 19.8666 17.4846 19.2219 17.4846 18.4266C17.4846 17.6313 18.1293 16.9866 18.9246 16.9866C19.7199 16.9866 20.3646 17.6313 20.3646 18.4266Z" fill="#161823"/>
<path d="M18.0496 13.6243C18.5911 13.3117 19.2582 13.3117 19.7996 13.6243L22.65 15.27C23.1915 15.5826 23.525 16.1604 23.525 16.7856V20.0769C23.525 20.7021 23.1915 21.2799 22.65 21.5925L19.7996 23.2381C19.2582 23.5507 18.5911 23.5507 18.0496 23.2381L15.1992 21.5925C14.6578 21.2799 14.3242 20.7021 14.3242 20.0769V16.7856C14.3242 16.1604 14.6578 15.5826 15.1992 15.27L18.0496 13.6243ZM19.0496 14.9234C18.9723 14.8787 18.877 14.8787 18.7996 14.9234L15.9492 16.5691C15.8719 16.6137 15.8242 16.6963 15.8242 16.7856V20.0769C15.8242 20.1662 15.8719 20.2488 15.9492 20.2934L18.7996 21.9391C18.877 21.9838 18.9723 21.9838 19.0496 21.9391L21.9 20.2934C21.9774 20.2488 22.025 20.1662 22.025 20.0769V16.7856C22.025 16.6963 21.9774 16.6137 21.9 16.5691L19.0496 14.9234Z" fill="#161823"/>
</svg>
