<svg width="12" height="12" viewBox="0 0 12 12" fill="none" xmlns="http://www.w3.org/2000/svg">
<path d="M4 4.9001C4.49706 4.9001 4.9 4.49715 4.9 4.0001C4.9 3.50304 4.49706 3.1001 4 3.1001C3.50294 3.1001 3.1 3.50304 3.1 4.0001C3.1 4.49715 3.50294 4.9001 4 4.9001Z" fill="#161823"/>
<path fill-rule="evenodd" clip-rule="evenodd" d="M11 9.125C11 10.1605 10.1605 11 9.125 11H2.875C1.83947 11 1 10.1605 1 9.125V2.875C1 1.83947 1.83947 1 2.875 1H9.125C10.1605 1 11 1.83947 11 2.875V9.125ZM9.125 2.2H2.875C2.50221 2.2 2.2 2.50221 2.2 2.875V7.28272L3.3579 6.12346C3.47044 6.01078 3.62316 5.94747 3.78241 5.94747C3.94166 5.94747 4.09438 6.01078 4.20693 6.12345L5.45164 7.36961L7.80913 5.00925C7.92167 4.89657 8.07439 4.83325 8.23364 4.83325C8.39289 4.83325 8.54561 4.89656 8.65816 5.00923L9.8 6.1524V2.875C9.8 2.50221 9.49779 2.2 9.125 2.2ZM2.2 8.98078V9.125C2.2 9.49779 2.50221 9.8 2.875 9.8H9.125C9.49779 9.8 9.8 9.49779 9.8 9.125V7.85044L8.23366 6.28229L5.87618 8.64265C5.76363 8.75533 5.61092 8.81864 5.45166 8.81864C5.29241 8.81864 5.13969 8.75533 5.02714 8.64266L3.78242 7.39649L2.2 8.98078Z" fill="#161823"/>
</svg>
