<svg width="24" height="24" viewBox="0 0 24 24" fill="none" xmlns="http://www.w3.org/2000/svg">
<path d="M12 22C17.5228 22 22 17.5228 22 12C22 6.47715 17.5228 2 12 2C6.47715 2 2 6.47715 2 12C2 17.5228 6.47715 22 12 22ZM13.1 16.1C13.1 16.7075 12.6075 17.2 12 17.2C11.3925 17.2 10.9 16.7075 10.9 16.1C10.9 15.4925 11.3925 15 12 15C12.6075 15 13.1 15.4925 13.1 16.1ZM10 10.4048C9.44772 10.4048 9 9.95704 9 9.40476C9 7.89344 10.972 6.99981 12.25 6.99981C14.338 6.99981 15.5156 8.32968 15.5156 9.8125C15.5156 10.7994 14.7799 11.3202 14.1018 11.8002C13.5623 12.1821 13.0592 12.5382 12.9921 13.0828C12.902 13.8139 12.5212 14.0049 11.9951 14.0049C11.4428 14.0049 10.9951 13.5572 10.9951 13.0049C10.9951 12.0759 11.7464 11.6053 12.426 11.1795C12.9874 10.8279 13.5 10.5068 13.5 9.98326C13.5 9.30845 12.8429 8.99981 12.25 8.99981C11.8063 8.99981 11.1971 9.08554 11.0039 9.61328C10.77 10.2524 10.4991 10.4048 10 10.4048Z" fill="#161823"/>
</svg>
