<svg width="24" height="24" viewBox="0 0 24 24" fill="none" xmlns="http://www.w3.org/2000/svg">
<path d="M12.5188 10.5654C11.5683 11.2857 11.5683 12.7144 12.5188 13.4347L19.6154 18.8123C20.8009 19.7106 22.5026 18.865 22.5026 17.3776V6.62241C22.5026 5.13502 20.8009 4.28946 19.6154 5.18778L12.5188 10.5654ZM13.4247 12.2391C13.2663 12.1191 13.2663 11.881 13.4247 11.7609L20.5214 6.3833C20.7189 6.23358 21.0026 6.37451 21.0026 6.62241V17.3776C21.0026 17.6255 20.7189 17.7664 20.5214 17.6167L13.4247 12.2391Z" fill="#161823"/>
<path d="M1.8203 10.5654C0.869795 11.2857 0.869795 12.7144 1.8203 13.4347L8.91695 18.8123C10.1024 19.7106 11.8041 18.865 11.8041 17.3776L11.8041 6.62242C11.8041 5.13503 10.1024 4.28947 8.91694 5.18779L1.8203 10.5654ZM2.72623 12.2392C2.56782 12.1191 2.56782 11.881 2.72624 11.7609L9.82288 6.38332C10.0205 6.2336 10.3041 6.37452 10.3041 6.62242L10.3041 17.3776C10.3041 17.6255 10.0205 17.7664 9.82288 17.6167L2.72623 12.2392Z" fill="#161823"/>
</svg>
