<svg width="20" height="20" viewBox="0 0 20 20" fill="none" xmlns="http://www.w3.org/2000/svg">
<path d="M15.5002 11.2501C15.5002 11.9404 14.9406 12.5001 14.2502 12.5001C13.5599 12.5001 13.0002 11.9404 13.0002 11.2501C13.0002 10.5597 13.5599 10.0001 14.2502 10.0001C14.9406 10.0001 15.5002 10.5597 15.5002 11.2501Z" fill="#161823"/>
<path d="M16.3337 5.00009H15.8337V3.85644C15.8337 2.62211 14.7266 1.68243 13.5086 1.88303L4.17944 3.41961C2.73028 3.65829 1.66699 4.91105 1.66699 6.37973V15.5001C1.66699 16.6047 2.56242 17.5001 3.66699 17.5001H16.3337C17.4382 17.5001 18.3337 16.6047 18.3337 15.5001V7.00009C18.3337 5.89552 17.4382 5.00009 16.3337 5.00009ZM4.42322 4.89967L13.7524 3.36309C14.0569 3.31294 14.3337 3.54786 14.3337 3.85644V5.00009H4.07776C4.18647 4.9537 4.30215 4.91961 4.42322 4.89967ZM16.3337 6.50009C16.6098 6.50009 16.8337 6.72395 16.8337 7.00009V15.5001C16.8337 15.7762 16.6098 16.0001 16.3337 16.0001H3.66699C3.39085 16.0001 3.16699 15.7762 3.16699 15.5001V7.00009C3.16699 6.72395 3.39085 6.50009 3.66699 6.50009H16.3337Z" fill="#161823"/>
</svg>
