<svg width="24" height="24" viewBox="0 0 24 24" fill="none" xmlns="http://www.w3.org/2000/svg">
<path d="M3.53033 2.92231L4.58254 3.97451C5.49344 3.34729 6.58359 3 7.74936 3C9.1023 3 10.2077 3.51449 11.0388 4.35291C11.4143 4.7317 11.7338 5.17662 11.9949 5.67008C12.2615 5.17815 12.5832 4.73447 12.9589 4.35644C13.7941 3.51594 14.8958 3 16.2506 3C19.4015 3 22 5.53708 22 9.28133C22 12.0253 20.4774 14.7559 17.9042 17.2961L21.5303 20.9223C21.8232 21.2152 21.8232 21.6901 21.5303 21.983C21.2374 22.2759 20.7626 22.2759 20.4697 21.983L16.8031 18.3164C16.803 18.3164 16.803 18.3165 16.8029 18.3165L15.7397 17.2533C15.7397 17.2532 15.7398 17.2532 15.7398 17.2531L4.53672 6.05002C4.53667 6.05008 4.53662 6.05014 4.53658 6.0502L3.47134 4.98496C3.47139 4.9849 3.47144 4.98484 3.47149 4.98478L2.46967 3.98297C2.17678 3.69007 2.17678 3.2152 2.46967 2.92231C2.76256 2.62941 3.23744 2.62941 3.53033 2.92231ZM5.67001 5.06199L16.8435 16.2355C17.4285 15.6585 17.9499 15.0764 18.4031 14.4923C19.8097 12.6792 20.5 10.9253 20.5 9.28133C20.5 6.28694 18.4967 4.5 16.2506 4.5C14.9405 4.5 13.9642 5.18449 13.3137 6.38478L11.979 8.84765L10.669 6.37152C10.0434 5.18891 9.06463 4.5 7.74936 4.5C7.00883 4.5 6.29468 4.69425 5.67001 5.06199ZM12.3424 19.7856L12.3527 19.7789C13.1421 19.2648 13.8833 18.7399 14.5722 18.2071L15.6411 19.276C14.8724 19.8781 14.0468 20.4656 13.1714 21.0358C12.7621 21.312 12.3018 21.5575 11.9949 21.5575C11.688 21.5575 11.2379 21.312 10.8286 21.0358C5.48849 17.5575 2 13.4348 2 9.28133C2 8.16037 2.2329 7.14761 2.64379 6.27873L3.79203 7.42697C3.60432 7.97762 3.5 8.59804 3.5 9.28133C3.5 10.9253 4.19033 12.6792 5.59694 14.4923C7.00346 16.3054 9.06828 18.0991 11.6473 19.7789L11.6576 19.7856L11.6679 19.7925C11.7933 19.8772 11.905 19.9457 11.9984 19.9966C12.0942 19.9454 12.2079 19.8764 12.3321 19.7925L12.3424 19.7856Z" fill="#161823"/>
</svg>
