<svg width="24" height="24" viewBox="0 0 24 24" fill="none" xmlns="http://www.w3.org/2000/svg">
<path d="M13.0953 5.25402C12.1255 6.22382 12.1255 7.79618 13.0953 8.76598L15.2402 10.9109C16.21 11.8807 17.7824 11.8807 18.7522 10.9109L20.8971 8.76598C21.8669 7.79618 21.8669 6.22382 20.8971 5.25402L18.7522 3.10913C17.7824 2.13932 16.21 2.13932 15.2402 3.10913L13.0953 5.25402ZM14.156 7.70532C13.772 7.32131 13.772 6.69869 14.156 6.31468L16.3009 4.16979C16.6849 3.78577 17.3075 3.78577 17.6915 4.16979L19.8364 6.31468C20.2204 6.69869 20.2204 7.32131 19.8364 7.70532L17.6915 9.85021C17.3075 10.2342 16.6849 10.2342 16.3009 9.85021L14.156 7.70532Z" fill="#161823"/>
<path d="M5.48333 3C4.11183 3 3 4.11182 3 5.48333V8.51666C3 9.88817 4.11183 11 5.48333 11H8.51667C9.88817 11 11 9.88817 11 8.51666V5.48333C11 4.11182 9.88817 3 8.51667 3H5.48333ZM4.5 5.48333C4.5 4.94025 4.94025 4.5 5.48333 4.5H8.51667C9.05975 4.5 9.5 4.94025 9.5 5.48333V8.51666C9.5 9.05974 9.05975 9.5 8.51667 9.5H5.48333C4.94025 9.5 4.5 9.05974 4.5 8.51666V5.48333Z" fill="#161823"/>
<path d="M13 15.4833C13 14.1118 14.1118 13 15.4833 13H18.5167C19.8882 13 21 14.1118 21 15.4833V18.5167C21 19.8882 19.8882 21 18.5167 21H15.4833C14.1118 21 13 19.8882 13 18.5167V15.4833ZM15.4833 14.5C14.9403 14.5 14.5 14.9403 14.5 15.4833V18.5167C14.5 19.0597 14.9403 19.5 15.4833 19.5H18.5167C19.0597 19.5 19.5 19.0597 19.5 18.5167V15.4833C19.5 14.9403 19.0597 14.5 18.5167 14.5H15.4833Z" fill="#161823"/>
<path d="M5.48333 13C4.11183 13 3 14.1118 3 15.4833V18.5167C3 19.8882 4.11183 21 5.48333 21H8.51667C9.88817 21 11 19.8882 11 18.5167V15.4833C11 14.1118 9.88817 13 8.51667 13H5.48333ZM4.5 15.4833C4.5 14.9403 4.94025 14.5 5.48333 14.5H8.51667C9.05975 14.5 9.5 14.9403 9.5 15.4833V18.5167C9.5 19.0597 9.05975 19.5 8.51667 19.5H5.48333C4.94025 19.5 4.5 19.0597 4.5 18.5167V15.4833Z" fill="#161823"/>
</svg>
