<svg width="12" height="12" viewBox="0 0 12 12" fill="none" xmlns="http://www.w3.org/2000/svg">
<g clip-path="url(#clip0_11783_2952)">
<path d="M6.35841 1.21052C7.07814 0.61489 8.32978 0.435072 9.21638 1.32166C9.48181 1.5871 9.66088 1.9057 9.75657 2.24367C10.0946 2.33944 10.4133 2.51862 10.6787 2.78402C11.5653 3.67061 11.3855 4.92225 10.7899 5.64199C10.678 5.77726 10.56 5.89642 10.4354 6.00027C10.56 6.10411 10.6778 6.22308 10.7897 6.35836C11.3854 7.07809 11.5653 8.32992 10.6787 9.21651C10.4133 9.48191 10.0946 9.66109 9.75657 9.75685C9.66088 10.0948 9.48181 10.4134 9.21638 10.6789C8.32978 11.5655 7.07796 11.3855 6.35822 10.7899C6.223 10.678 6.10406 10.5603 6.00025 10.4357C5.89641 10.5603 5.77726 10.6782 5.64199 10.7901C4.92226 11.3857 3.67061 11.5656 2.78402 10.679C2.51863 10.4136 2.33944 10.0949 2.24368 9.75682C1.90571 9.66112 1.5871 9.48205 1.32167 9.21662C0.435076 8.33003 0.615046 7.07821 1.21067 6.35847C1.32257 6.2232 1.44034 6.10424 1.56494 6.0004C1.44034 5.89656 1.32242 5.77741 1.21052 5.64214C0.614889 4.92241 0.435072 3.67077 1.32166 2.78417C1.5871 2.51874 1.9057 2.33967 2.24367 2.24398C2.33944 1.9059 2.51862 1.58721 2.78402 1.32182C3.67061 0.435227 4.92243 0.615198 5.64217 1.21082C5.77739 1.32268 5.89632 1.4404 6.00013 1.56496C6.10397 1.44035 6.22313 1.32242 6.35841 1.21052ZM9.93281 4.78468C10.1549 4.44127 10.1604 3.96246 9.83019 3.63229C9.66347 3.46557 9.44422 3.3736 9.20741 3.36172C8.89967 3.34628 8.65366 3.10027 8.63822 2.79253C8.62634 2.5556 8.53449 2.33659 8.36784 2.16994C8.03767 1.83977 7.55887 1.84521 7.21546 2.06732C7.1836 2.08794 7.15251 2.11071 7.12321 2.13496C6.81768 2.38766 6.66569 2.6681 6.6191 3.16646C6.61145 3.24826 6.60677 3.33481 6.60495 3.42677C7.5816 3.65409 8.35211 4.4199 8.58117 5.39498C8.67023 5.39306 8.7542 5.38844 8.83368 5.38101C9.33204 5.33444 9.61263 5.18226 9.86532 4.87674C9.88958 4.84744 9.9122 4.81654 9.93281 4.78468ZM7.1234 9.86522C7.1527 9.88947 7.18339 9.91195 7.21525 9.93257C7.55866 10.1547 8.03768 10.1603 8.36784 9.83008C8.53449 9.66344 8.62634 9.44443 8.63822 9.20749C8.65366 8.89976 8.89967 8.65374 9.20741 8.63831C9.44422 8.62643 9.66347 8.53446 9.83019 8.36773C10.1604 8.03757 10.1548 7.55855 9.93268 7.21514C9.91206 7.18328 9.88943 7.1524 9.86517 7.1231C9.61248 6.81758 9.33205 6.66558 8.83368 6.61901C8.75422 6.61159 8.67027 6.60696 8.58123 6.60504C8.35224 7.58025 7.58169 8.34617 6.60496 8.5735C6.60678 8.66538 6.61146 8.75184 6.6191 8.83357C6.66569 9.33193 6.81787 9.61252 7.1234 9.86522ZM5.39539 8.57352C4.41866 8.3462 3.6481 7.58031 3.41908 6.60512C3.33007 6.60704 3.24615 6.61167 3.1667 6.6191C2.66835 6.66569 2.38776 6.81787 2.13506 7.1234C2.1108 7.1527 2.08832 7.18339 2.0677 7.21525C1.84559 7.55866 1.84002 8.03768 2.17019 8.36784C2.33684 8.53449 2.55585 8.62634 2.79278 8.63822C3.10051 8.65366 3.34653 8.89968 3.36197 9.20741C3.37385 9.44422 3.46582 9.66347 3.63254 9.8302C3.96271 10.1604 4.44152 10.1549 4.78493 9.93282C4.81679 9.9122 4.84787 9.88943 4.87717 9.86517C5.1827 9.61248 5.33469 9.33205 5.38126 8.83368C5.3889 8.75193 5.39358 8.66543 5.39539 8.57352ZM3.1667 5.38119C3.24614 5.38862 3.33007 5.39325 3.41908 5.39517C3.64809 4.41998 4.41865 3.65408 5.39538 3.42677C5.39357 3.33486 5.3889 3.24836 5.38126 3.16661C5.33469 2.66824 5.18251 2.38766 4.87698 2.13497C4.84768 2.11071 4.81699 2.08823 4.78513 2.06761C4.44172 1.84549 3.96271 1.83993 3.63254 2.1701C3.46581 2.33682 3.37384 2.55607 3.36196 2.79288C3.34653 3.10062 3.10051 3.34663 2.79278 3.36207C2.55584 3.37396 2.33683 3.4658 2.17019 3.63245C1.84002 3.96262 1.84545 4.44142 2.06757 4.78483C2.08818 4.8167 2.11095 4.84778 2.13521 4.87708C2.38791 5.18261 2.66834 5.3346 3.1667 5.38119ZM6.00013 4.55762C5.19657 4.55762 4.54932 5.20574 4.54932 6.00012C4.54932 6.7945 5.19657 7.44263 6.00013 7.44263C6.80368 7.44263 7.45093 6.7945 7.45093 6.00012C7.45093 5.20574 6.80368 4.55762 6.00013 4.55762Z" fill="#161823"/>
</g>
<defs>
<clipPath id="clip0_11783_2952">
<rect width="12" height="12" fill="white"/>
</clipPath>
</defs>
</svg>
