<svg width="24" height="24" viewBox="0 0 24 24" fill="none" xmlns="http://www.w3.org/2000/svg">
<path fill-rule="evenodd" clip-rule="evenodd" d="M12 22C17.5228 22 22 17.5228 22 12C22 6.47715 17.5228 2 12 2C6.47715 2 2 6.47715 2 12C2 17.5228 6.47715 22 12 22ZM10 9.5C10 10.6046 9.32843 11.5 8.5 11.5C7.67157 11.5 7 10.6046 7 9.5C7 8.39543 7.67157 7.5 8.5 7.5C9.32843 7.5 10 8.39543 10 9.5ZM15.5 11.5C16.3284 11.5 17 10.6046 17 9.5C17 8.39543 16.3284 7.5 15.5 7.5C14.6716 7.5 14 8.39543 14 9.5C14 10.6046 14.6716 11.5 15.5 11.5ZM16.2235 15.8123C15.2977 14.5135 13.5662 13.75 12 13.75C10.4342 13.75 8.7034 14.5131 7.77746 15.811C7.5369 16.1482 7.61525 16.6166 7.95245 16.8571C8.28966 17.0977 8.75802 17.0194 8.99858 16.6822C9.60223 15.836 10.8442 15.25 12 15.25C13.1562 15.25 14.3986 15.8364 15.002 16.6829C15.2424 17.0202 15.7108 17.0988 16.0481 16.8583C16.3854 16.6179 16.4639 16.1496 16.2235 15.8123Z" fill="#161823"/>
</svg>
