<svg width="20" height="20" viewBox="0 0 20 20" fill="none" xmlns="http://www.w3.org/2000/svg">
<path d="M0.5 6.125C0.5 4.39911 1.89911 3 3.625 3H16.375C18.1009 3 19.5 4.39911 19.5 6.125V10.1271C19.5 10.3305 19.2076 10.419 19.0751 10.2646C18.7949 9.9381 18.4653 9.65558 18.0985 9.42815C18.038 9.39066 18 9.32517 18 9.254V6.125C18 5.22754 17.2725 4.5 16.375 4.5H3.625C2.72754 4.5 2 5.22754 2 6.125V13.875C2 14.7725 2.72754 15.5 3.625 15.5H10.2187C10.3545 15.5 10.4509 15.6326 10.4181 15.7643C10.341 16.0745 10.3 16.3991 10.3 16.7333V16.8C10.3 16.9105 10.2105 17 10.1 17H3.625C1.89911 17 0.5 15.6009 0.5 13.875V6.125Z" fill="#161823"/>
<path fill-rule="evenodd" clip-rule="evenodd" d="M18.3213 14.3714C18.6935 14.5008 19.0256 14.7156 19.2943 14.9925C19.7311 15.4426 20 16.0566 20 16.7333V17.2667C20 18.2792 19.1792 19.1 18.1667 19.1H13.6333C12.6208 19.1 11.8 18.2792 11.8 17.2667L11.8 16.7294C11.8007 16.2824 11.9187 15.8629 12.1249 15.5C12.419 14.9824 12.8925 14.5801 13.4609 14.3777L13.3101 13.7382C13.2588 13.5642 13.2249 13.3836 13.2099 13.1987C13.2041 13.127 13.2012 13.0546 13.2012 12.9817C13.2012 12.6677 13.2551 12.3669 13.3539 12.0878C13.5856 11.4336 14.0643 10.898 14.6757 10.5888C15.0413 10.404 15.4543 10.3 15.8903 10.3C15.9473 10.3 16.0039 10.3018 16.0601 10.3053C16.843 10.3541 17.539 10.7383 18 11.3183C18.3623 11.7743 18.5795 12.3513 18.5795 12.9817C18.5795 13.2423 18.5418 13.4965 18.4707 13.7378L18.3213 14.3714ZM17.0221 13.3454C17.0593 13.2309 17.0795 13.1086 17.0795 12.9817C17.0795 12.3291 16.5471 11.8 15.8903 11.8C15.5675 11.8 15.2748 11.9278 15.0605 12.1353C15.0494 12.146 15.0386 12.157 15.0279 12.1681C14.8575 12.3465 14.7426 12.5777 14.7104 12.834C14.7043 12.8824 14.7012 12.9317 14.7012 12.9817C14.7012 13.1087 14.7213 13.231 14.7586 13.3457L15.3217 15.7333H14.3C14.1222 15.7333 13.9553 15.7797 13.8107 15.861C13.5059 16.0324 13.3 16.3588 13.3 16.7333V17.2667C13.3 17.4508 13.4492 17.6 13.6333 17.6H18.1667C18.3508 17.6 18.5 17.4508 18.5 17.2667V16.7333C18.5 16.5652 18.4585 16.4068 18.3852 16.2677C18.2922 16.0912 18.1479 15.946 17.9723 15.8517C17.8316 15.7762 17.6708 15.7333 17.5 15.7333H16.459L17.0221 13.3454Z" fill="#161823"/>
<path d="M12.9302 7.60918C13.8118 7.60918 14.3573 7.98616 14.5922 8.77508C14.6259 8.88797 14.7431 8.95752 14.8573 8.92855C15.1883 8.84456 15.5345 8.8 15.8903 8.8C15.9348 8.8 15.9686 8.75913 15.9589 8.71572C15.6399 7.28317 14.6661 6.53496 13.0962 6.53496H11.5435C10.9575 6.53496 10.6646 6.81328 10.6646 7.37969V12.3553C10.6646 12.9217 10.9575 13.2 11.5435 13.2C11.6323 13.2 11.7027 13.1255 11.7015 13.0367C11.7013 13.0184 11.7012 13.0001 11.7012 12.9817C11.7012 12.4469 11.8011 11.9372 11.9829 11.4692V7.60918H12.9302Z" fill="#161823"/>
<path fill-rule="evenodd" clip-rule="evenodd" d="M4.63428 13.2586C4.98584 13.2586 5.18115 13.0779 5.31787 12.6189L5.68896 11.4861H8.02783L8.40381 12.6189C8.53564 13.073 8.74072 13.2586 9.09717 13.2586C9.47314 13.2586 9.72217 13.034 9.72217 12.6824C9.72217 12.5457 9.68799 12.3846 9.61963 12.1746L7.93994 7.36016C7.72998 6.73516 7.43701 6.48125 6.88525 6.48125C6.32861 6.48125 6.03076 6.74004 5.8208 7.36016L4.14111 12.1746C4.05811 12.4236 4.02393 12.575 4.02393 12.7068C4.02393 13.0389 4.27295 13.2586 4.63428 13.2586ZM5.98193 10.5047L6.83154 7.80938H6.89502L7.73975 10.5047H5.98193Z" fill="#161823"/>
</svg>
