<svg width="20" height="20" viewBox="0 0 20 20" fill="none" xmlns="http://www.w3.org/2000/svg">
<path d="M3.49805 5.23242C3.49805 3.4375 4.95312 1.98242 6.74805 1.98242H13.248C15.043 1.98242 16.498 3.4375 16.498 5.23242V8.92167C16.1782 8.84269 15.8438 8.80078 15.4996 8.80078C15.3298 8.80078 15.1625 8.81097 14.998 8.83078V5.23242C14.998 4.26592 14.2145 3.48242 13.248 3.48242H6.74805C5.78155 3.48242 4.99805 4.26592 4.99805 5.23242V14.7658C4.99805 15.7323 5.78155 16.5158 6.74805 16.5158H9.91668C9.90525 16.642 9.89941 16.77 9.89941 16.8992C9.89941 17.2858 9.95165 17.6602 10.0494 18.0158H6.74805C4.95312 18.0158 3.49805 16.5607 3.49805 14.7658V5.23242Z" fill="#161823"/>
<path d="M6.69805 6.04907C6.69805 5.63486 7.03383 5.29907 7.44805 5.29907H12.545C12.9592 5.29907 13.295 5.63486 13.295 6.04907C13.295 6.46329 12.9592 6.79907 12.545 6.79907H7.44805C7.03383 6.79907 6.69805 6.46329 6.69805 6.04907Z" fill="#161823"/>
<path d="M7.44805 7.99908C7.03383 7.99908 6.69805 8.33487 6.69805 8.74908C6.69805 9.1633 7.03383 9.49908 7.44805 9.49908H12.545C12.9592 9.49908 13.295 9.1633 13.295 8.74908C13.295 8.33487 12.9592 7.99908 12.545 7.99908H7.44805Z" fill="#161823"/>
<path d="M7.44805 10.6991C7.03383 10.6991 6.69805 11.0349 6.69805 11.4491C6.69805 11.8633 7.03383 12.1991 7.44805 12.1991H10.7247C11.1389 12.1991 11.4747 11.8633 11.4747 11.4491C11.4747 11.0349 11.1389 10.6991 10.7247 10.6991H7.44805Z" fill="#161823"/>
<path fill-rule="evenodd" clip-rule="evenodd" d="M17.9212 14.3722C18.2934 14.5015 18.6255 14.7164 18.8942 14.9933C19.331 15.4434 19.5999 16.0573 19.5999 16.7341V17.2674C19.5999 18.28 18.7791 19.1008 17.7666 19.1008H13.2332C12.2207 19.1008 11.3999 18.28 11.3999 17.2674L11.3999 16.7302C11.4006 16.2832 11.5186 15.8636 11.7248 15.5008C12.0189 14.9832 12.4924 14.5809 13.0608 14.3784L12.91 13.739C12.8587 13.565 12.8248 13.3843 12.8098 13.1994C12.804 13.1277 12.8011 13.0554 12.8011 12.9825C12.8011 12.6685 12.855 12.3677 12.9538 12.0885C13.1855 11.4344 13.6642 10.8988 14.2756 10.5896C14.6412 10.4047 15.0542 10.3008 15.4902 10.3008C15.5472 10.3008 15.6038 10.3026 15.66 10.3061C16.4429 10.3549 17.1389 10.739 17.5999 11.3191C17.9622 11.7751 18.1794 12.3521 18.1794 12.9825C18.1794 13.2431 18.1417 13.4972 18.0706 13.7386L17.9212 14.3722ZM16.622 13.3462C16.6592 13.2317 16.6794 13.1094 16.6794 12.9825C16.6794 12.3299 16.147 11.8008 15.4902 11.8008C15.1674 11.8008 14.8747 11.9286 14.6604 12.1361C14.6493 12.1468 14.6385 12.1577 14.6278 12.1689C14.4574 12.3473 14.3425 12.5785 14.3103 12.8348C14.3042 12.8832 14.3011 12.9325 14.3011 12.9825C14.3011 13.1095 14.3212 13.2318 14.3585 13.3464L14.9216 15.7341H13.8999C13.7221 15.7341 13.5552 15.7805 13.4106 15.8618C13.1058 16.0331 12.8999 16.3596 12.8999 16.7341V17.2674C12.8999 17.4515 13.0491 17.6008 13.2332 17.6008H17.7666C17.9507 17.6008 18.0999 17.4515 18.0999 17.2674V16.7341C18.0999 16.566 18.0584 16.4076 17.9851 16.2685C17.8921 16.092 17.7479 15.9467 17.5722 15.8524C17.4315 15.7769 17.2707 15.7341 17.0999 15.7341H16.0589L16.622 13.3462Z" fill="#161823"/>
</svg>
