<svg width="20" height="20" viewBox="0 0 20 20" fill="none" xmlns="http://www.w3.org/2000/svg">
<path d="M4.12635 15.6667C2.78456 15.6667 1.96654 14.1907 2.67768 13.0529L3.67587 11.4558C4.10582 10.7679 4.3338 9.973 4.3338 9.16176V7.5C4.3338 5.09178 5.83487 3.03676 7.95185 2.21544C8.3479 1.4912 9.11682 1 10.0005 1C10.8841 1 11.653 1.49119 12.0491 2.21544C14.1661 3.03676 15.6671 5.09178 15.6671 7.5V9.16176C15.6671 9.97299 15.8951 10.7679 16.3251 11.4558L17.3232 13.0529C18.0344 14.1907 17.2164 15.6667 15.8746 15.6667H14.0083V15.6639H6.0083V15.6667H4.12635Z" fill="#161823"/>
<path d="M7.08971 16.8639C7.62206 17.9325 8.72554 18.6667 10.0005 18.6667C11.2754 18.6667 12.3789 17.9325 12.9113 16.8639H7.08971Z" fill="#161823"/>
<path d="M5.08672 1.2344C5.37148 1.53521 5.35846 2.00991 5.05765 2.29467C4.24248 3.06634 3.63261 4.02913 3.28327 5.09588C3.15435 5.48952 2.73074 5.70412 2.3371 5.57521C1.94346 5.4463 1.72885 5.02268 1.85776 4.62904C2.28474 3.32524 3.03013 2.1485 4.02646 1.20534C4.32727 0.920581 4.80196 0.933594 5.08672 1.2344Z" fill="#161823"/>
<path d="M14.9143 1.2344C14.6295 1.53521 14.6425 2.00991 14.9433 2.29467C15.7585 3.06634 16.3684 4.02913 16.7177 5.09588C16.8466 5.48952 17.2702 5.70412 17.6639 5.57521C18.0575 5.4463 18.2721 5.02268 18.1432 4.62904C17.7162 3.32524 16.9708 2.1485 15.9745 1.20534C15.6737 0.920581 15.199 0.933594 14.9143 1.2344Z" fill="#161823"/>
</svg>
