<svg width="24" height="24" viewBox="0 0 24 24" fill="none" xmlns="http://www.w3.org/2000/svg">
<path d="M13.75 12C13.75 12.9665 12.9665 13.75 12 13.75C11.0335 13.75 10.25 12.9665 10.25 12C10.25 11.0335 11.0335 10.25 12 10.25C12.9665 10.25 13.75 11.0335 13.75 12Z" fill="#161823"/>
<path d="M21 12C21 12.9665 20.2165 13.75 19.25 13.75C18.2835 13.75 17.5 12.9665 17.5 12C17.5 11.0335 18.2835 10.25 19.25 10.25C20.2165 10.25 21 11.0335 21 12Z" fill="#161823"/>
<path d="M6.5 12C6.5 12.9665 5.7165 13.75 4.75 13.75C3.7835 13.75 3 12.9665 3 12C3 11.0335 3.7835 10.25 4.75 10.25C5.7165 10.25 6.5 11.0335 6.5 12Z" fill="#161823"/>
</svg>
