<svg width="24" height="24" viewBox="0 0 24 24" fill="none" xmlns="http://www.w3.org/2000/svg">
<path fill-rule="evenodd" clip-rule="evenodd" d="M4.92871 3.60425C3.27186 3.60425 1.92871 4.94739 1.92871 6.60425V16.4614C1.92871 18.1182 3.27186 19.4614 4.92871 19.4614H5.35728V21.5506C5.35728 21.9451 5.79286 22.1842 6.12572 21.9724L10.0716 19.4614H19.0716C20.7284 19.4614 22.0716 18.1182 22.0716 16.4614V6.60425C22.0716 4.94739 20.7284 3.60425 19.0716 3.60425H4.92871ZM10.9861 7.45934C10.9779 6.89376 11.4341 6.43087 11.9997 6.43087C12.5653 6.43087 13.0216 6.89376 13.0134 7.45934L12.9372 12.7069C12.9298 13.2193 12.5122 13.6309 11.9997 13.6309C11.4872 13.6309 11.0696 13.2193 11.0622 12.7069L10.9861 7.45934ZM11.9997 16.9223C12.6246 16.9223 13.1312 16.4157 13.1312 15.7909C13.1312 15.166 12.6246 14.6594 11.9997 14.6594C11.3749 14.6594 10.8683 15.166 10.8683 15.7909C10.8683 16.4157 11.3749 16.9223 11.9997 16.9223Z" fill="#161823"/>
</svg>
