<svg width="20" height="20" viewBox="0 0 20 20" fill="none" xmlns="http://www.w3.org/2000/svg">
<path d="M6.03327 0.966675C4.9287 0.966675 4.03327 1.8621 4.03327 2.96667C4.03327 2.98508 4.04819 3.00001 4.0666 3.00001H15.9666C15.985 3.00001 15.9999 2.98508 15.9999 2.96667C15.9999 1.86211 15.1045 0.966675 13.9999 0.966675H6.03327Z" fill="#161823"/>
<path d="M15.9901 17.1997C16.001 17.0898 15.9104 17 15.7999 17H4.23327C4.12281 17 4.03222 17.0898 4.04312 17.1997C4.14333 18.2105 4.9961 19 6.03327 19H13.9999C15.0371 19 15.8899 18.2105 15.9901 17.1997Z" fill="#161823"/>
<path d="M12.2375 10.55C12.6337 10.29 12.6337 9.70908 12.2375 9.44907L9.25739 7.49356C8.81956 7.20626 8.2378 7.52034 8.2378 8.04402V11.955C8.2378 12.4787 8.81956 12.7928 9.25739 12.5055L12.2375 10.55Z" fill="#161823"/>
<path fill-rule="evenodd" clip-rule="evenodd" d="M3.7666 4.50001C2.66203 4.50001 1.7666 5.39544 1.7666 6.50001V13.5C1.7666 14.6046 2.66203 15.5 3.7666 15.5H15.9999C17.1045 15.5 17.9999 14.6046 17.9999 13.5V6.50001C17.9999 5.39544 17.1045 4.50001 15.9999 4.50001H3.7666ZM15.9999 6.00001H3.7666C3.49046 6.00001 3.2666 6.22387 3.2666 6.50001V13.5C3.2666 13.7761 3.49046 14 3.7666 14H15.9999C16.2761 14 16.4999 13.7761 16.4999 13.5V6.50001C16.4999 6.22387 16.2761 6.00001 15.9999 6.00001Z" fill="#161823"/>
</svg>
