<svg width="20" height="20" viewBox="0 0 20 20" fill="none" xmlns="http://www.w3.org/2000/svg">
<path d="M11.7106 3.46886L11.6742 3.5053C11.3891 3.79039 11.1477 4.03181 10.9631 4.24466C10.7699 4.46743 10.6008 4.70091 10.4899 4.98175C10.257 5.57165 10.257 6.22801 10.4899 6.8179C10.6008 7.09875 10.7699 7.33223 10.9631 7.555C11.1477 7.76784 11.3891 8.00926 11.6742 8.29436L11.7106 8.3308C11.9957 8.61591 12.2372 8.85734 12.45 9.04193C12.6728 9.23512 12.9062 9.40424 13.1871 9.51512C13.777 9.74802 14.4333 9.74802 15.0232 9.51512C15.3041 9.40424 15.5376 9.23512 15.7603 9.04193C15.9732 8.85734 16.2146 8.61591 16.4997 8.33081L16.5361 8.29436C16.8212 8.00927 17.0627 7.76784 17.2473 7.555C17.4405 7.33223 17.6096 7.09875 17.7205 6.8179C17.9534 6.22801 17.9534 5.57165 17.7205 4.98175C17.6096 4.70091 17.4405 4.46743 17.2473 4.24466C17.0627 4.03181 16.8212 3.79039 16.5361 3.5053L16.4997 3.46886C16.2146 3.18376 15.9732 2.94232 15.7603 2.75773C15.5376 2.56453 15.3041 2.39542 15.0232 2.28454C14.4333 2.05164 13.777 2.05164 13.1871 2.28454C12.9062 2.39542 12.6728 2.56453 12.45 2.75773C12.2372 2.94232 11.9957 3.18375 11.7106 3.46886Z" fill="#161823"/>
<path d="M5.94279 2.47948H5.89126C5.48807 2.47947 5.14664 2.47946 4.86561 2.49944C4.57148 2.52036 4.2868 2.56587 4.00981 2.68605C3.42801 2.93848 2.96389 3.4026 2.71145 3.9844C2.59127 4.26139 2.54576 4.54607 2.52485 4.84021C2.50487 5.12123 2.50487 5.46264 2.50488 5.86582V5.91739C2.50487 6.32057 2.50487 6.66202 2.52485 6.94304C2.54576 7.23717 2.59127 7.52185 2.71145 7.79884C2.96389 8.38065 3.42801 8.84476 4.00981 9.0972C4.2868 9.21738 4.57148 9.26289 4.86561 9.2838C5.14664 9.30378 5.48807 9.30378 5.89127 9.30377H5.94279C6.34599 9.30378 6.68742 9.30378 6.96845 9.2838C7.26258 9.26289 7.54726 9.21738 7.82425 9.0972C8.40605 8.84476 8.87017 8.38065 9.1226 7.79884C9.24278 7.52185 9.2883 7.23717 9.30921 6.94304C9.32919 6.66201 9.32918 6.32058 9.32917 5.91739V5.86586C9.32918 5.46267 9.32919 5.12124 9.30921 4.84021C9.2883 4.54607 9.24278 4.26139 9.1226 3.9844C8.87017 3.4026 8.40605 2.93848 7.82425 2.68605C7.54726 2.56587 7.26258 2.52036 6.96845 2.49944C6.68742 2.47946 6.34599 2.47947 5.94279 2.47948Z" fill="#161823"/>
<path d="M14.1341 10.6707H14.0825C13.6794 10.6707 13.3379 10.6707 13.0569 10.6907C12.7628 10.7116 12.4781 10.7571 12.2011 10.8773C11.6193 11.1297 11.1552 11.5938 10.9027 12.1756C10.7826 12.4526 10.737 12.7373 10.7161 13.0314C10.6962 13.3124 10.6962 13.6539 10.6962 14.057V14.1086C10.6962 14.5118 10.6962 14.8533 10.7161 15.1343C10.737 15.4284 10.7826 15.7131 10.9027 15.9901C11.1552 16.5719 11.6193 17.036 12.2011 17.2884C12.4781 17.4086 12.7628 17.4541 13.0569 17.475C13.3379 17.495 13.6793 17.495 14.0825 17.495H14.1341C14.5372 17.495 14.8787 17.495 15.1597 17.475C15.4539 17.4541 15.7385 17.4086 16.0155 17.2884C16.5973 17.036 17.0615 16.5719 17.3139 15.9901C17.4341 15.7131 17.4796 15.4284 17.5005 15.1343C17.5205 14.8532 17.5205 14.5118 17.5205 14.1086V14.0571C17.5205 13.6539 17.5205 13.3125 17.5005 13.0314C17.4796 12.7373 17.4341 12.4526 17.3139 12.1756C17.0615 11.5938 16.5973 11.1297 16.0155 10.8773C15.7385 10.7571 15.4539 10.7116 15.1597 10.6907C14.8787 10.6707 14.5372 10.6707 14.1341 10.6707Z" fill="#161823"/>
<path d="M5.94279 10.6707H5.89126C5.48808 10.6707 5.14663 10.6707 4.86561 10.6907C4.57148 10.7116 4.2868 10.7571 4.00981 10.8773C3.42801 11.1297 2.96389 11.5938 2.71145 12.1756C2.59127 12.4526 2.54576 12.7373 2.52485 13.0314C2.50487 13.3125 2.50487 13.6539 2.50488 14.057V14.1086C2.50487 14.5118 2.50487 14.8532 2.52485 15.1343C2.54576 15.4284 2.59127 15.7131 2.71145 15.9901C2.96389 16.5719 3.42801 17.036 4.00981 17.2884C4.2868 17.4086 4.57148 17.4541 4.86561 17.475C5.14663 17.495 5.48806 17.495 5.89124 17.495H5.94279C6.34598 17.495 6.68742 17.495 6.96845 17.475C7.26258 17.4541 7.54726 17.4086 7.82425 17.2884C8.40605 17.036 8.87017 16.5719 9.1226 15.9901C9.24278 15.7131 9.2883 15.4284 9.30921 15.1343C9.32919 14.8532 9.32918 14.5118 9.32917 14.1086V14.0571C9.32918 13.6539 9.32919 13.3125 9.30921 13.0314C9.2883 12.7373 9.24278 12.4526 9.1226 12.1756C8.87017 11.5938 8.40605 11.1297 7.82425 10.8773C7.54726 10.7571 7.26258 10.7116 6.96845 10.6907C6.68742 10.6707 6.34598 10.6707 5.94279 10.6707Z" fill="#161823"/>
</svg>
