<svg width="12" height="12" viewBox="0 0 12 12" fill="none" xmlns="http://www.w3.org/2000/svg">
<path d="M5.18724 2.25005C3.12959 2.25005 1.60234 3.69361 1.60234 5.31182C1.60234 6.29832 2.15449 7.20345 3.06179 7.77615L3.34152 7.95272V9.1532L4.02898 8.75303C4.20143 9.11843 4.43004 9.45269 4.703 9.74918L3.5376 10.4276C2.9184 10.788 2.14152 10.3413 2.14152 9.62485V8.60012C1.09605 7.83104 0.402344 6.65565 0.402344 5.31182C0.402344 2.88536 2.62238 1.05005 5.18724 1.05005C6.92052 1.05005 8.49633 1.88819 9.33595 3.18052C8.95391 3.08424 8.55543 3.03339 8.15018 3.03339C7.97124 3.03339 7.79362 3.0433 7.61816 3.06266C6.99045 2.56377 6.14648 2.25005 5.18724 2.25005Z" fill="#161823"/>
<path d="M8.21288 4.11408C6.40154 4.11408 4.79235 5.4149 4.79235 7.18203C4.79235 8.92191 6.26906 10.25 8.11077 10.25C8.13349 10.25 8.15617 10.2498 8.1788 10.2494L8.91997 10.7832C9.45546 11.1759 10.2093 10.8028 10.2268 10.1438L10.2581 9.63195C11.0287 9.09499 11.6334 8.24513 11.6334 7.18203C11.6334 5.4149 10.0242 4.11408 8.21288 4.11408ZM5.99235 7.18203C5.99235 6.22314 6.90875 5.31408 8.21288 5.31408C9.51701 5.31408 10.4334 6.22314 10.4334 7.18203C10.4334 7.81929 10.0262 8.39849 9.37949 8.76935L9.09886 8.93027L9.06936 9.41195L8.53276 9.02549L8.31417 9.04224C8.24729 9.04736 8.17945 9.04999 8.11077 9.04999C6.837 9.04999 5.99235 8.16818 5.99235 7.18203Z" fill="#161823"/>
</svg>
