<svg width="20" height="20" viewBox="0 0 20 20" fill="none" xmlns="http://www.w3.org/2000/svg">
<g clip-path="url(#clip0_2_2643)">
<path d="M17.53 5.28139L13.4362 3.33429C11.7474 2.53103 10.9029 2.12939 10.0001 2.12939C9.09735 2.12939 8.25291 2.53102 6.56403 3.33428L2.47018 5.28138C0.824045 6.06431 0.000976562 6.45578 0.000976562 7.08751C0.000976562 7.71923 0.824046 8.1107 2.47018 8.89363L3.68061 9.46933V13.4389C3.68061 14.1013 3.68061 14.4325 3.77414 14.7274C3.87199 15.0361 4.04329 15.3163 4.27333 15.5441C4.49322 15.7619 4.78798 15.9129 5.37751 16.2149C6.99716 17.0448 7.807 17.4597 8.65443 17.639C9.54166 17.8267 10.4584 17.8267 11.3456 17.639C12.193 17.4597 13.0029 17.0448 14.6225 16.2149C15.212 15.9129 15.5068 15.7619 15.7267 15.5441C15.9567 15.3163 16.128 15.0361 16.2259 14.7274C16.3194 14.4325 16.3194 14.1013 16.3194 13.4389V9.46942L17.53 8.89363C17.7482 8.78984 17.9526 8.69266 18.1418 8.60116V11.9745C17.7591 12.1882 17.5002 12.5973 17.5002 13.0668V14.5255C17.5002 15.0241 17.9044 15.4283 18.403 15.4283H19.0974C19.596 15.4283 20.0002 15.0241 20.0002 14.5255V13.0668C20.0002 12.6322 19.7784 12.2494 19.4418 12.0254V7.89298C19.8134 7.63355 19.9992 7.38765 19.9992 7.08751C19.9992 6.45578 19.1762 6.06432 17.53 5.28139ZM16.8858 6.63598C17.2634 6.81558 17.5705 6.96247 17.8216 7.08751C17.5705 7.21255 17.2634 7.35943 16.8858 7.53904L12.792 9.48613C10.9744 10.3506 10.4851 10.5456 10.0001 10.5456C9.51519 10.5456 9.02582 10.3506 7.2083 9.48614L3.11445 7.53904C2.73683 7.35943 2.42971 7.21255 2.17863 7.08751C2.42971 6.96247 2.73683 6.81558 3.11445 6.63598L7.2083 4.68888C9.02582 3.82443 9.51519 3.62939 10.0001 3.62939C10.4851 3.6294 10.9744 3.82443 12.792 4.68888L16.8858 6.63598ZM14.8194 10.1829V13.4389C14.8194 13.7868 14.8188 13.9851 14.8102 14.1345C14.8049 14.2267 14.7979 14.2653 14.7956 14.2753C14.7952 14.2772 14.795 14.2781 14.7949 14.2781L14.7956 14.2753C14.7713 14.3516 14.7289 14.4209 14.6721 14.4774L14.6738 14.4759C14.6739 14.4759 14.6742 14.4756 14.6738 14.4759L14.6721 14.4774C14.6642 14.4839 14.6331 14.5077 14.5534 14.5546C14.4244 14.6303 14.2482 14.7213 13.9385 14.8799C12.2451 15.7476 11.6409 16.0433 11.0351 16.1715C10.3526 16.3159 9.64744 16.3159 8.96495 16.1715C8.35911 16.0433 7.75498 15.7476 6.06148 14.8799C5.75179 14.7213 5.57558 14.6303 5.4466 14.5546C5.3669 14.5077 5.33581 14.4839 5.3279 14.4774C5.27114 14.4209 5.22877 14.3516 5.20438 14.2753C5.20214 14.2653 5.19514 14.2268 5.18981 14.1345C5.18119 13.9851 5.18061 13.7868 5.18061 13.4389V10.1828L6.56403 10.8407C8.25291 11.644 9.09735 12.0456 10.0001 12.0456C10.9029 12.0456 11.7474 11.644 13.4362 10.8407L14.8194 10.1829Z" fill="#161823"/>
</g>
<defs>
<clipPath id="clip0_2_2643">
<rect width="20" height="20" fill="white"/>
</clipPath>
</defs>
</svg>
