<svg width="12" height="12" viewBox="0 0 12 12" fill="none" xmlns="http://www.w3.org/2000/svg">
<path d="M10.9354 3.80482C11.325 3.13811 10.844 2.30016 10.0718 2.30029L2.14338 2.30161C1.28472 2.30175 0.825528 3.31273 1.39038 3.95944L3.1739 6.00143C3.31186 6.15307 3.52855 6.20488 3.72018 6.13205L7.33715 4.75731C7.37924 4.74131 7.39834 4.74793 7.40667 4.75124C7.42125 4.75704 7.44213 4.77208 7.45852 4.79985C7.47492 4.82762 7.478 4.85317 7.47604 4.86874C7.47492 4.87763 7.47148 4.89756 7.43714 4.92668L4.46749 7.44549C4.31445 7.57529 4.25408 7.78416 4.31426 7.97559L5.09985 10.4761C5.25759 10.9782 5.73115 11.2222 6.17719 11.1695C5.79753 10.7378 5.57931 10.1766 5.57931 9.58439V8.02052C5.57931 7.16308 6.03676 6.37077 6.77933 5.94205L8.1337 5.16011C8.77775 4.78828 9.55142 4.73894 10.2299 5.01212L10.9354 3.80482Z" fill="#161823"/>
<path d="M10.0697 8.80252C10.0697 9.2082 9.74085 9.53707 9.33517 9.53707C8.92948 9.53707 8.60061 9.2082 8.60061 8.80252C8.60061 8.39684 8.92948 8.06797 9.33517 8.06797C9.74085 8.06797 10.0697 8.39684 10.0697 8.80252Z" fill="#161823"/>
<path d="M8.7338 6.19958L7.37942 6.98153C7.00814 7.19589 6.77942 7.59204 6.77942 8.02076V9.58463C6.77942 10.0134 7.00814 10.4095 7.37943 10.6239L8.7338 11.4058C9.10508 11.6202 9.56252 11.6202 9.93379 11.4058L11.2882 10.6239C11.6595 10.4095 11.8882 10.0134 11.8882 9.58463V8.02076C11.8882 7.59204 11.6595 7.19589 11.2882 6.98153L9.93379 6.19958C9.56252 5.98523 9.10508 5.98523 8.7338 6.19958ZM9.3338 7.23882L10.6882 8.02076L10.6882 9.58463L9.3338 10.3666L7.97942 9.58463L7.97942 8.02076L9.3338 7.23882Z" fill="#161823"/>
</svg>
