<svg width="16" height="16" viewBox="0 0 16 16" fill="none" xmlns="http://www.w3.org/2000/svg">
<path d="M1.58348 8.78114C2.21544 8.38947 2.9861 8.13188 3.81879 8.02458C3.22272 8.46542 2.64782 9.0534 2.24278 9.78449C1.59533 10.177 1.2 10.7244 1.2 11.33V11.5849C1.2 11.8624 1.40336 12.0925 1.66919 12.1341V12.3333C1.66919 12.6837 1.72118 13.022 1.81786 13.3408H1.75593C0.786155 13.3408 0 12.5547 0 11.5849V11.33C0 10.1713 0.744509 9.30109 1.58348 8.78114Z" fill="#161823"/>
<path d="M4.69008 6.82516C5.02515 6.82516 5.33997 6.72886 5.61336 6.5598C5.39101 6.21894 5.21613 5.84418 5.09547 5.44965C4.96362 5.56822 4.81112 5.62516 4.69008 5.62516C4.41854 5.62516 3.98875 5.33863 3.98875 4.71257C3.98875 4.0865 4.41854 3.79998 4.69008 3.79998C4.75782 3.79998 4.83541 3.81781 4.91373 3.8543C4.943 3.44593 5.02944 3.04571 5.1667 2.6669C5.01438 2.62322 4.85467 2.59998 4.69008 2.59998C3.64 2.59998 2.78875 3.54582 2.78875 4.71257C2.78875 5.87932 3.64 6.82516 4.69008 6.82516Z" fill="#161823"/>
<path d="M8.80269 7.83334C7.35618 7.83334 5.98797 8.18482 4.93178 8.8394C3.89359 9.48282 2.96936 10.5615 2.96936 12V12.3333C2.96936 13.53 3.93941 14.5 5.13603 14.5H9.96558C10.076 14.5 10.1656 14.4105 10.1656 14.3V13H5.13603C4.76784 13 4.46936 12.7015 4.46936 12.3333V12C4.46936 10.5273 6.36519 9.33334 8.80269 9.33334C8.91297 9.33334 9.02213 9.33579 9.13007 9.34059C9.191 9.3433 9.25007 9.31893 9.29119 9.27388C9.60823 8.92651 9.95315 8.60052 10.2913 8.27153C10.405 8.16088 10.3483 7.97069 10.1918 7.94495C9.74265 7.87111 9.27688 7.83334 8.80269 7.83334Z" fill="#161823"/>
<path d="M11.2025 4.16496C11.2025 5.63772 10.1279 6.83162 8.80247 6.83162C7.47698 6.83162 6.40247 5.63772 6.40247 4.16496C6.40247 2.6922 7.47698 1.49829 8.80247 1.49829C10.1279 1.49829 11.2025 2.6922 11.2025 4.16496ZM9.90247 4.16496C9.90247 3.27794 9.28453 2.79829 8.80247 2.79829C8.3204 2.79829 7.70247 3.27794 7.70247 4.16496C7.70247 5.05197 8.3204 5.53162 8.80247 5.53162C9.28453 5.53162 9.90247 5.05197 9.90247 4.16496Z" fill="#161823"/>
<path d="M15.3616 12.2793C15.0687 12.5722 14.5939 12.5722 14.301 12.2793L13.1656 11.144V14.6667C13.1656 15.0809 12.8299 15.4167 12.4156 15.4167C12.0014 15.4167 11.6656 15.0809 11.6656 14.6667V11.1441L10.5304 12.2793C10.2375 12.5722 9.76267 12.5722 9.46977 12.2793C9.17688 11.9864 9.17688 11.5115 9.46977 11.2186L11.8854 8.80304C12.1783 8.51015 12.6531 8.51015 12.946 8.80304L15.3616 11.2186C15.6545 11.5115 15.6545 11.9864 15.3616 12.2793Z" fill="#161823"/>
</svg>
