<svg width="20" height="20" viewBox="0 0 20 20" fill="none" xmlns="http://www.w3.org/2000/svg">
<path d="M1.49902 4.75018C1.49902 2.95526 2.9541 1.50018 4.74902 1.50018H6.66569C7.0799 1.50018 7.41569 1.83597 7.41569 2.25018C7.41569 2.6644 7.0799 3.00018 6.66569 3.00018H4.74902C3.78253 3.00018 2.99902 3.78369 2.99902 4.75018V6.66685C2.99902 7.08106 2.66324 7.41685 2.24902 7.41685C1.83481 7.41685 1.49902 7.08106 1.49902 6.66685V4.75018Z" fill="#161823"/>
<path d="M18.5003 4.75018C18.5003 2.95526 17.0452 1.50018 15.2503 1.50018H13.3337C12.9194 1.50018 12.5837 1.83597 12.5837 2.25018C12.5837 2.6644 12.9194 3.00018 13.3337 3.00018H15.2503C16.2168 3.00018 17.0003 3.78369 17.0003 4.75018V6.66685C17.0003 7.08106 17.3361 7.41685 17.7503 7.41685C18.1645 7.41685 18.5003 7.08106 18.5003 6.66685V4.75018Z" fill="#161823"/>
<path d="M1.49902 15.2498C1.49902 17.0447 2.9541 18.4998 4.74902 18.4998H6.66569C7.0799 18.4998 7.41569 18.164 7.41569 17.7498C7.41569 17.3356 7.0799 16.9998 6.66569 16.9998H4.74902C3.78253 16.9998 2.99902 16.2163 2.99902 15.2498V13.3331C2.99902 12.9189 2.66324 12.5831 2.24902 12.5831C1.83481 12.5831 1.49902 12.9189 1.49902 13.3331V15.2498Z" fill="#161823"/>
<path d="M18.5003 15.2498C18.5003 17.0447 17.0452 18.4998 15.2503 18.4998H13.3337C12.9194 18.4998 12.5837 18.164 12.5837 17.7498C12.5837 17.3356 12.9194 16.9998 13.3337 16.9998H15.2503C16.2168 16.9998 17.0003 16.2163 17.0003 15.2498V13.3331C17.0003 12.9189 17.3361 12.5831 17.7503 12.5831C18.1645 12.5831 18.5003 12.9189 18.5003 13.3331V15.2498Z" fill="#161823"/>
<path d="M2.25 9.25C1.83579 9.25 1.5 9.58579 1.5 10C1.5 10.4142 1.83579 10.75 2.25 10.75L17.75 10.75C18.1642 10.75 18.5 10.4142 18.5 10C18.5 9.58579 18.1642 9.25 17.75 9.25L2.25 9.25Z" fill="#161823"/>
</svg>
