<svg width="20" height="20" viewBox="0 0 20 20" fill="none" xmlns="http://www.w3.org/2000/svg">
<path fill-rule="evenodd" clip-rule="evenodd" d="M7 12.3333C7 12.8744 7.29141 13.3736 7.7626 13.6396C8.2338 13.9056 8.81173 13.8972 9.275 13.6176L10.0676 13.1393C10.1233 13.1057 10.1584 13.0471 10.1666 12.9827C10.2039 12.6873 10.3113 12.3928 10.5065 12.1279C10.746 11.8029 11.0589 11.6015 11.3491 11.4771L11.3622 11.4715L12.5396 10.9975L12.5489 10.9939C12.7724 10.9079 13.0484 10.8333 13.3546 10.8333C13.3981 10.8333 13.4416 10.8345 13.4853 10.837C13.559 10.8411 13.6317 10.8094 13.6684 10.7453C13.7963 10.522 13.8667 10.2659 13.8667 10C13.8667 9.47446 13.5916 8.98725 13.1417 8.71572L9.275 6.38239C8.81173 6.10282 8.2338 6.09444 7.7626 6.36043C7.29141 6.62643 7 7.12558 7 7.66667V12.3333ZM8.5 12.3333V7.66667L12.3667 10L8.5 12.3333Z" fill="#161823"/>
<path fill-rule="evenodd" clip-rule="evenodd" d="M12.9068 18.2817L12.9057 18.2806C12.7615 18.1364 12.6863 17.9657 12.6863 17.7717V13.7967C12.6863 13.7695 12.6836 13.752 12.6805 13.7415C12.6703 13.7441 12.6543 13.7504 12.6316 13.7636L12.3585 13.9154L12.3569 13.9162C12.3119 13.9387 12.2662 13.9559 12.2198 13.9675L12.2099 13.97H12.0796C11.8704 13.97 11.6933 13.9032 11.5557 13.7656L11.5545 13.7644L11.5534 13.7632C11.4181 13.6166 11.3513 13.4359 11.3513 13.2267C11.3513 13.0808 11.3909 12.9505 11.4725 12.8397C11.5536 12.7298 11.6721 12.6443 11.8218 12.5801L12.9791 12.1141C13.1152 12.0618 13.2412 12.0333 13.3546 12.0333C13.6023 12.0333 13.8095 12.1093 13.9675 12.2667C14.1359 12.4244 14.218 12.6322 14.218 12.8817L14.203 17.8017C14.2029 18.0044 14.1286 18.1768 13.9812 18.3129C13.8425 18.44 13.6605 18.5 13.4446 18.5C13.2422 18.5 13.0623 18.4261 12.9079 18.2827L12.9068 18.2817ZM15.6198 17.2643L16.6516 16.2025C16.705 16.1304 16.7219 16.0795 16.7219 16.0467C16.7219 15.9902 16.7017 15.941 16.6563 15.8956L15.6025 14.8418L15.5992 14.8375C15.4909 14.6968 15.4319 14.5494 15.4319 14.3967C15.4319 14.1984 15.5208 14.0309 15.6869 13.8976C15.85 13.7566 16.0336 13.6833 16.2352 13.6833C16.4481 13.6833 16.6227 13.7631 16.7495 13.9237L17.5862 14.8948C17.6362 14.9441 17.6755 14.9583 17.7052 14.9583C17.7609 14.9583 17.7932 14.9394 17.8159 14.9054L17.8185 14.9015L18.6457 13.924C18.7726 13.7632 18.9472 13.6833 19.1602 13.6833C19.3619 13.6833 19.5454 13.7566 19.7086 13.8976C19.876 14.0321 19.9636 14.205 19.9636 14.4117C19.9636 14.5557 19.9034 14.6982 19.7963 14.8375L19.793 14.8418L18.7391 15.8956C18.6937 15.941 18.6736 15.9902 18.6736 16.0467C18.6736 16.0795 18.6905 16.1304 18.7438 16.2025L19.7756 17.2643C19.917 17.4165 19.9936 17.5867 19.9936 17.7717C19.9936 17.9678 19.9116 18.1391 19.7569 18.2827C19.6036 18.4251 19.4289 18.5 19.2352 18.5C19.0284 18.5 18.8554 18.4123 18.7209 18.2446L17.8185 17.1768L17.8159 17.1729C17.7932 17.1389 17.7609 17.12 17.7052 17.12C17.6755 17.12 17.6362 17.1343 17.5863 17.1835L16.6732 18.2463C16.598 18.3322 16.5139 18.396 16.4208 18.4323C16.3399 18.4773 16.2526 18.5 16.1602 18.5C15.9665 18.5 15.7919 18.4251 15.6385 18.2827C15.4839 18.1391 15.4019 17.9678 15.4019 17.7717C15.4019 17.5867 15.4784 17.4165 15.6198 17.2643Z" fill="#161823"/>
<path fill-rule="evenodd" clip-rule="evenodd" d="M10 3.5C6.41015 3.5 3.5 6.41015 3.5 10C3.5 13.5899 6.41015 16.5 10 16.5C10.2186 16.5 10.4344 16.4892 10.647 16.4683L10.6587 16.4671C11.0708 16.4257 11.4385 16.7262 11.48 17.1383C11.5214 17.5505 11.2209 17.9181 10.8087 17.9596L10.7943 17.961C10.5328 17.9868 10.2678 18 10 18C5.58172 18 2 14.4183 2 10C2 5.58172 5.58172 2 10 2C14.4183 2 18 5.58172 18 10C18 10.7072 17.9081 11.394 17.7351 12.0487C17.6293 12.4492 17.2188 12.6881 16.8184 12.5822C16.4179 12.4764 16.179 12.066 16.2848 11.6655C16.4251 11.1348 16.5 10.5767 16.5 10C16.5 6.41015 13.5899 3.5 10 3.5Z" fill="#161823"/>
</svg>
