<svg width="20" height="20" viewBox="0 0 20 20" fill="none" xmlns="http://www.w3.org/2000/svg">
<path d="M9.99979 1.77002C6.69885 1.77002 3.85288 3.7134 2.5416 6.51618C2.34519 6.89528 2.21155 7.38866 2.14954 7.87309C2.08702 8.36153 2.09018 8.89634 2.21138 9.34865C2.72879 11.2797 4.75747 11.8381 6.45073 11.385C7.20174 11.1884 7.97511 11.6348 8.17454 12.3791C8.36998 13.1085 7.90588 13.9071 7.17419 14.1031L7.17197 14.1037C6.1793 14.3744 5.59127 15.3969 5.85783 16.3917C6.00781 16.9514 6.39712 17.3836 6.88419 17.6073L6.89467 17.6121L6.90536 17.6165C7.859 18.0043 8.90093 18.2297 9.99979 18.2297C14.545 18.2297 18.2296 14.5451 18.2296 9.99987C18.2296 5.45465 14.545 1.77002 9.99979 1.77002ZM8.66634 6.19841C8.66634 6.75069 8.21863 7.19841 7.66634 7.19841C7.11406 7.19841 6.66634 6.75069 6.66634 6.19841C6.66634 5.64612 7.11406 5.19841 7.66634 5.19841C8.21863 5.19841 8.66634 5.64612 8.66634 6.19841ZM11.1263 6.68815C10.574 6.68815 10.1263 6.24044 10.1263 5.68815C10.1263 5.13587 10.574 4.68815 11.1263 4.68815C11.6786 4.68815 12.1263 5.13587 12.1263 5.68815C12.1263 6.24044 11.6786 6.68815 11.1263 6.68815ZM14.8924 7.83634C14.8924 8.38863 14.4447 8.83634 13.8924 8.83634C13.3401 8.83634 12.8924 8.38863 12.8924 7.83634C12.8924 7.28406 13.3401 6.83634 13.8924 6.83634C14.4447 6.83634 14.8924 7.28406 14.8924 7.83634ZM14.2625 12.3178C13.7102 12.3178 13.2625 11.8701 13.2625 11.3178C13.2625 10.7655 13.7102 10.3178 14.2625 10.3178C14.8148 10.3178 15.2625 10.7655 15.2625 11.3178C15.2625 11.8701 14.8148 12.3178 14.2625 12.3178Z" fill="#161823"/>
</svg>
