<svg width="20" height="20" viewBox="0 0 20 20" fill="none" xmlns="http://www.w3.org/2000/svg">
<path d="M3.95801 4.69238C2.99151 4.69238 2.20801 5.47588 2.20801 6.44238V13.5257C2.20801 14.4922 2.99151 15.2757 3.95801 15.2757H6.34415L5.67426 15.9254C5.41271 16.1791 5.24063 16.4712 5.14747 16.7757H3.95801C2.16308 16.7757 0.708008 15.3206 0.708008 13.5257V6.44238C0.708008 4.64745 2.16308 3.19238 3.95801 3.19238H16.0413C17.8363 3.19238 19.2913 4.64746 19.2913 6.44238V13.5257C19.2913 15.3206 17.8363 16.7757 16.0413 16.7757H14.8519C14.7587 16.4712 14.5867 16.1791 14.3251 15.9254L13.6552 15.2757H16.0413C17.0078 15.2757 17.7913 14.4922 17.7913 13.5257V6.44238C17.7913 5.47588 17.0078 4.69238 16.0413 4.69238H3.95801Z" fill="#161823"/>
<path d="M10.5798 14.3826C10.2566 14.069 9.74273 14.069 9.41948 14.3826L6.71857 17.0022C6.39616 17.3149 6.61753 17.8611 7.06668 17.8611H12.9326C13.3818 17.8611 13.6032 17.3149 13.2808 17.0022L10.5798 14.3826Z" fill="#161823"/>
<path d="M7.55095 12.9499C7.21966 12.9574 6.94504 12.6949 6.93755 12.3636L6.89992 10.6969C6.89329 10.4035 7.09988 10.1484 7.38824 10.0939C7.6766 10.0393 7.96211 10.2014 8.06311 10.4769C8.3313 11.2086 9.06457 11.7501 9.94483 11.7501C10.8251 11.7501 11.5584 11.2086 11.8266 10.4769C11.9406 10.1658 12.2853 10.006 12.5964 10.12C12.9075 10.2341 13.0673 10.5788 12.9532 10.8899C12.5096 12.1002 11.3222 12.9501 9.94483 12.9501C9.27551 12.9501 8.65106 12.7494 8.13501 12.4042C8.10819 12.7044 7.85938 12.9429 7.55095 12.9499Z" fill="#161823"/>
<path d="M12.9521 6.91985C12.9446 6.58857 12.67 6.32607 12.3387 6.33355C12.0303 6.34052 11.7815 6.57904 11.7546 6.87927C11.2386 6.53407 10.6141 6.3334 9.94482 6.3334C8.56743 6.3334 7.38004 7.18325 6.93641 8.39357C6.82237 8.7047 6.98214 9.04937 7.29327 9.16341C7.60439 9.27745 7.94906 9.11768 8.0631 8.80655C8.33129 8.07489 9.06456 7.5334 9.94482 7.5334C10.8251 7.5334 11.5584 8.07489 11.8265 8.80655C11.9275 9.08211 12.2131 9.24416 12.5014 9.18961C12.7898 9.13506 12.9964 8.87992 12.9897 8.58652L12.9521 6.91985Z" fill="#161823"/>
</svg>
