<svg width="16" height="16" viewBox="0 0 16 16" fill="none" xmlns="http://www.w3.org/2000/svg">
<path d="M8.65 4.74619C8.65 4.38721 8.35898 4.09619 8 4.09619C7.64101 4.09619 7.35 4.38721 7.35 4.74619V8.0001C7.35 8.17249 7.41848 8.33782 7.54038 8.45972L9.79038 10.7097C10.0442 10.9636 10.4558 10.9636 10.7096 10.7097C10.9635 10.4559 10.9635 10.0443 10.7096 9.79048L8.65 7.73086V4.74619Z" fill="#161823"/>
<path d="M15 8C15 11.866 11.866 15 8 15C4.13401 15 1 11.866 1 8C1 4.13401 4.13401 1 8 1C11.866 1 15 4.13401 15 8ZM13.7 8C13.7 4.85198 11.148 2.3 8 2.3C4.85198 2.3 2.3 4.85198 2.3 8C2.3 11.148 4.85198 13.7 8 13.7C11.148 13.7 13.7 11.148 13.7 8Z" fill="#161823"/>
</svg>
