<svg width="20" height="20" viewBox="0 0 20 20" fill="none" xmlns="http://www.w3.org/2000/svg">
<path d="M9.99929 1.66998C8.02325 1.66998 6.59729 3.48013 6.59729 5.47998C6.59729 7.47984 8.02325 9.28998 9.99929 9.28998C11.9753 9.28998 13.4013 7.47984 13.4013 5.47998C13.4013 3.48013 11.9753 1.66998 9.99929 1.66998Z" fill="#161823"/>
<path d="M9.99926 10.2917C7.96841 10.2917 6.12547 10.8607 4.77014 11.8233C3.41499 12.7858 2.50488 14.1815 2.50488 15.798V15.915C2.50488 17.2497 3.58686 18.3317 4.92155 18.3317H15.077C16.4117 18.3317 17.4936 17.2497 17.4936 15.915V15.798C17.4936 14.1815 16.5835 12.7858 15.2284 11.8233C13.873 10.8607 12.0301 10.2917 9.99926 10.2917Z" fill="#161823"/>
</svg>
