<svg width="20" height="20" viewBox="0 0 20 20" fill="none" xmlns="http://www.w3.org/2000/svg">
<path d="M8.43977 2.15373C10.255 1.79265 12.1394 2.07216 13.7717 2.94464C15.404 3.81712 16.6832 5.22859 17.3915 6.93855C18.0998 8.6485 18.1933 10.5511 17.656 12.3223C17.1187 14.0934 15.984 15.6235 14.445 16.6518C12.9061 17.68 11.0583 18.1429 9.21635 17.9615C7.37442 17.7801 5.65238 16.9656 4.34363 15.6569C4.05074 15.364 4.05074 14.8891 4.34363 14.5962C4.63653 14.3033 5.1114 14.3033 5.40429 14.5962C6.46765 15.6596 7.86681 16.3213 9.36338 16.4687C10.8599 16.6161 12.3613 16.24 13.6117 15.4046C14.8621 14.5691 15.7841 13.3259 16.2206 11.8869C16.6571 10.4478 16.5812 8.90191 16.0057 7.51257C15.4302 6.12323 14.3908 4.97642 13.0646 4.26752C11.7383 3.55863 10.2073 3.33153 8.7324 3.62491C7.25749 3.91829 5.92993 4.714 4.97592 5.87646C4.08551 6.96142 3.57193 8.30321 3.50741 9.69995H4.36806C4.69119 9.69995 4.88096 10.0633 4.69636 10.3285L3.09549 12.6283C2.93633 12.857 2.59804 12.857 2.43889 12.6283L0.838022 10.3285C0.653419 10.0633 0.84319 9.69995 1.16632 9.69995H2.00611C2.07154 7.95603 2.70581 6.27813 3.81641 4.92487C4.99057 3.49415 6.62449 2.51481 8.43977 2.15373Z" fill="#161823"/>
<path fill-rule="evenodd" clip-rule="evenodd" d="M13.381 11.0808C14.1423 10.5614 14.1423 9.43873 13.381 8.91932L9.52364 6.28734C8.6552 5.69478 7.47791 6.31672 7.47791 7.36806V12.632C7.47791 13.6834 8.6552 14.3053 9.52364 13.7128L13.381 11.0808ZM12.286 10.1091C12.3598 10.0588 12.3598 9.94998 12.286 9.89966L9.10203 7.72713C9.01788 7.66972 8.90381 7.72998 8.90381 7.83184L8.90381 12.1769C8.90381 12.2788 9.01788 12.339 9.10202 12.2816L12.286 10.1091Z" fill="#161823"/>
</svg>
