<svg width="16" height="16" viewBox="0 0 16 16" fill="none" xmlns="http://www.w3.org/2000/svg">
<path d="M9.43565 12.4408C9.68027 12.3622 9.91613 12.264 10.1414 12.1482L10.9228 12.6952C11.2726 12.9401 11.7478 12.8985 12.0497 12.5965L12.6199 12.0263C12.9219 11.7244 12.9635 11.2492 12.7186 10.8994L12.1715 10.1179C12.2874 9.8927 12.3855 9.65688 12.4641 9.4123L13.4032 9.24656C13.8237 9.17236 14.1303 8.80697 14.1303 8.37995V7.57359C14.1303 7.14657 13.8237 6.78119 13.4032 6.70698L12.464 6.54123C12.4001 6.34227 12.3232 6.14911 12.2344 5.96273L12.8134 5.18408C13.0739 4.83375 13.0382 4.34542 12.7295 4.03672L11.9404 3.24763C11.6317 2.93894 11.1433 2.90322 10.793 3.16372L10.0144 3.74267C9.87017 3.67391 9.72183 3.61231 9.56989 3.55833L9.42876 2.59865C9.36524 2.16673 8.99468 1.84668 8.55812 1.84668H7.44218C7.00562 1.84668 6.63506 2.16673 6.57154 2.59864L6.43042 3.55828C6.2785 3.61225 6.13019 3.67383 5.98594 3.74257L5.20745 3.16369C4.85713 2.9032 4.36879 2.93892 4.0601 3.24761L3.27101 4.0367C2.96231 4.34539 2.9266 4.83373 3.18709 5.18405L3.76591 5.96247C3.69715 6.10675 3.63554 6.2551 3.58155 6.40706L2.62208 6.54816C2.19017 6.61168 1.87012 6.98224 1.87012 7.4188V8.53474C1.87012 8.9713 2.19017 9.34186 2.62208 9.40538L3.58148 9.54647C3.65145 9.74343 3.73422 9.93434 3.82878 10.1182L3.2819 10.8994C3.03703 11.2493 3.07863 11.7244 3.38057 12.0263L3.95076 12.5965C4.2527 12.8985 4.72784 12.9401 5.07766 12.6952L5.85898 12.1483C6.08422 12.2641 6.32006 12.3623 6.56466 12.4408L6.73036 13.3798C6.80456 13.8003 7.16995 14.1069 7.59697 14.1069H8.40333C8.83035 14.1069 9.19573 13.8003 9.26994 13.3798L9.43565 12.4408ZM8.00016 10.4373C6.64122 10.4373 5.53958 9.3357 5.53958 7.97676C5.53958 6.61781 6.64122 5.51617 8.00016 5.51617C9.3591 5.51617 10.4607 6.61781 10.4607 7.97676C10.4607 9.3357 9.3591 10.4373 8.00016 10.4373Z" fill="#161823"/>
</svg>
