<svg width="16" height="16" viewBox="0 0 16 16" fill="none" xmlns="http://www.w3.org/2000/svg">
<path d="M5.66668 6.66602C6.21896 6.66602 6.66668 6.2183 6.66668 5.66602C6.66668 5.11373 6.21896 4.66602 5.66668 4.66602C5.11439 4.66602 4.66667 5.11373 4.66667 5.66602C4.66667 6.2183 5.11439 6.66602 5.66668 6.66602Z" fill="#161823"/>
<path fill-rule="evenodd" clip-rule="evenodd" d="M14 4.5C14 3.11929 12.8807 2 11.5 2H4.5C3.11929 2 2 3.11929 2 4.5V11.5C2 12.8807 3.11929 14 4.5 14H11.5C12.8807 14 14 12.8807 14 11.5V4.5ZM11.5 3.2H4.5C3.78203 3.2 3.2 3.78203 3.2 4.5V9.95219L4.90897 8.24318C5.02149 8.13066 5.1741 8.06744 5.33324 8.06744C5.49237 8.06744 5.64498 8.13065 5.7575 8.24318L7.33323 9.8189L10.2422 6.90973C10.3547 6.79721 10.5074 6.73399 10.6665 6.73398C10.8256 6.73398 10.9782 6.7972 11.0908 6.90972L12.8 8.61896V4.5C12.8 3.78203 12.218 3.2 11.5 3.2Z" fill="#161823"/>
</svg>
