<svg width="20" height="20" viewBox="0 0 20 20" fill="none" xmlns="http://www.w3.org/2000/svg">
<g clip-path="url(#clip0_2_2767)">
<path d="M5.98193 10.638L6.83154 7.94269H6.89502L7.73975 10.638H5.98193Z" fill="#161823"/>
<path d="M3.625 3C1.89911 3 0.5 4.39911 0.5 6.125V13.875C0.5 15.6009 1.89911 17 3.625 17H10.4541C10.1596 16.3085 9.9967 15.5476 9.9967 14.7486C9.9967 13.7758 10.2382 12.8594 10.6646 12.0561V7.513C10.6646 6.94659 10.9575 6.66827 11.5435 6.66827H13.0962C14.721 6.66827 15.7073 7.46976 15.99 9.00194C17.329 9.05729 18.5497 9.57037 19.5 10.3888V6.125C19.5 4.39911 18.1009 3 16.375 3H3.625ZM5.31787 12.7523C5.18115 13.2112 4.98584 13.3919 4.63428 13.3919C4.27295 13.3919 4.02393 13.1722 4.02393 12.8401C4.02393 12.7083 4.05811 12.5569 4.14111 12.3079L5.8208 7.49347C6.03076 6.87335 6.32861 6.61456 6.88525 6.61456C7.43701 6.61456 7.72998 6.86847 7.93994 7.49347L9.61963 12.3079C9.68799 12.5179 9.72217 12.679 9.72217 12.8157C9.72217 13.1673 9.47314 13.3919 9.09717 13.3919C8.74072 13.3919 8.53564 13.2064 8.40381 12.7523L8.02783 11.6194H5.68896L5.31787 12.7523Z" fill="#161823"/>
<path d="M14.6422 9.10322C13.6377 9.29889 12.7268 9.75595 11.9829 10.4007V7.74249H12.9302C13.8815 7.74249 14.4414 8.18143 14.6422 9.10322Z" fill="#161823"/>
<path d="M14.7067 13.9985C14.2925 13.9985 13.9567 14.3343 13.9567 14.7485C13.9567 15.1627 14.2925 15.4985 14.7067 15.4985H16.79C17.2042 15.4985 17.54 15.1627 17.54 14.7485C17.54 14.3343 17.2042 13.9985 16.79 13.9985H14.7067Z" fill="#161823"/>
<path d="M15.7484 19.0002C18.0965 19.0002 20 17.0967 20 14.7485C20 12.4004 18.0965 10.4969 15.7484 10.4969C13.4002 10.4969 11.4967 12.4004 11.4967 14.7485C11.4967 17.0967 13.4002 19.0002 15.7484 19.0002ZM15.7484 17.6002C14.1734 17.6002 12.8967 16.3235 12.8967 14.7485C12.8967 13.1736 14.1734 11.8969 15.7484 11.8969C17.3233 11.8969 18.6 13.1736 18.6 14.7485C18.6 16.3235 17.3233 17.6002 15.7484 17.6002Z" fill="#161823"/>
</g>
<defs>
<clipPath id="clip0_2_2767">
<rect width="20" height="20" fill="white"/>
</clipPath>
</defs>
</svg>
