<svg width="12" height="12" viewBox="0 0 12 12" fill="none" xmlns="http://www.w3.org/2000/svg">
<path d="M8.11899 4.77521C8.61409 4.77521 9.01545 4.37445 9.01545 3.88009C9.01545 3.38573 8.61409 2.98497 8.11899 2.98497C7.62389 2.98497 7.22254 3.38573 7.22254 3.88009C7.22254 4.37445 7.62389 4.77521 8.11899 4.77521Z" fill="#161823"/>
<path fill-rule="evenodd" clip-rule="evenodd" d="M10.5319 5.83013C10.8316 5.53159 11 5.12626 11 4.70356L11 2.59132C11 1.71246 10.2865 1 9.4063 1H7.3479C6.92577 1 6.52087 1.16723 6.22209 1.46499L4.26445 3.41592L2.42426 1.57574C2.18995 1.34142 1.81005 1.34142 1.57574 1.57574C1.34142 1.81005 1.34142 2.18995 1.57574 2.42426L3.41446 4.26299L3.41301 4.26444L4.25757 5.10899L4.25902 5.10755L6.90684 7.75537L6.90539 7.75681L7.74994 8.60137L7.75139 8.59992L9.57574 10.4243C9.81005 10.6586 10.1899 10.6586 10.4243 10.4243C10.6586 10.1899 10.6586 9.81005 10.4243 9.57574L8.60156 7.75303L10.5319 5.83013ZM7.06645 2.30974L5.109 4.26048L7.757 6.90847L9.6877 4.9852C9.76262 4.91057 9.80473 4.80923 9.80473 4.70356L9.80472 2.59132C9.80472 2.37161 9.62634 2.19349 9.4063 2.19349L7.3479 2.19349C7.24237 2.19349 7.14115 2.2353 7.06645 2.30974Z" fill="#161823"/>
<path d="M6.89978 9.44826L5.8086 10.5352C5.18673 11.1547 4.18009 11.1549 3.55794 10.5357L1.46862 8.45629C0.844083 7.83471 0.843752 6.82489 1.46788 6.2029L2.56303 5.11151L3.40758 5.95606L2.31224 7.04765C2.15621 7.20314 2.15629 7.4556 2.31243 7.611L4.40175 9.69044C4.55729 9.84524 4.80895 9.84519 4.96442 9.69032L6.05523 8.6037L6.89978 9.44826Z" fill="#161823"/>
</svg>
