<svg width="16" height="16" viewBox="0 0 16 16" fill="none" xmlns="http://www.w3.org/2000/svg">
<path d="M10.8138 12.8665C8.73685 12.8665 7.18928 11.3933 7.18928 9.57593C7.18928 7.75858 8.873 6.28533 10.95 6.28533C13.027 6.28533 14.7107 7.75858 14.7107 9.57593C14.7107 10.7939 13.9344 11.7952 12.9034 12.3863L12.8356 13.4937C12.8356 13.7366 12.5588 13.8758 12.3638 13.7309L11.1461 12.8539C11.0367 12.8623 10.9258 12.8665 10.8138 12.8665Z" fill="#161823"/>
<path d="M12.0669 5.20223C11.7037 5.12546 11.3291 5.08533 10.95 5.08533C8.36579 5.08533 5.98928 6.95033 5.98928 9.57593C5.98928 10.4668 6.25099 11.2795 6.70308 11.9612C6.62883 11.9588 6.55496 11.9551 6.48148 11.9501L4.31382 13.2119C4.02154 13.3821 3.65484 13.1712 3.65484 12.833V11.0446C2.25021 10.158 1.33594 8.71356 1.33594 7.08232C1.33594 4.38586 3.83413 2.19995 6.9158 2.19995C9.23599 2.19995 11.2254 3.43905 12.0669 5.20223Z" fill="#161823"/>
</svg>
