<svg width="20" height="20" viewBox="0 0 20 20" fill="none" xmlns="http://www.w3.org/2000/svg">
<path d="M6.98629 7.13494C6.98629 7.68814 6.64615 8.13659 6.22657 8.13659C5.80699 8.13659 5.46686 7.68814 5.46686 7.13494C5.46686 6.58175 5.80699 6.1333 6.22657 6.1333C6.64615 6.1333 6.98629 6.58175 6.98629 7.13494Z" fill="#161823"/>
<path d="M9.76271 8.13659C10.1823 8.13659 10.5224 7.68814 10.5224 7.13494C10.5224 6.58175 10.1823 6.1333 9.76271 6.1333C9.34313 6.1333 9.00299 6.58175 9.00299 7.13494C9.00299 7.68814 9.34313 8.13659 9.76271 8.13659Z" fill="#161823"/>
<path d="M7.99462 10.418C7.16309 10.418 6.489 9.93351 6.489 9.33589C6.489 8.73828 9.50024 8.73828 9.50024 9.33589C9.50024 9.93351 8.82616 10.418 7.99462 10.418Z" fill="#161823"/>
<path fill-rule="evenodd" clip-rule="evenodd" d="M5.4502 1.7002C3.93141 1.7002 2.7002 2.93141 2.7002 4.4502V12.2502C2.7002 13.769 3.93141 15.0002 5.45019 15.0002H10.5502C12.069 15.0002 13.3002 13.769 13.3002 12.2502V4.4502C13.3002 2.93141 12.069 1.7002 10.5502 1.7002H5.4502ZM10.5502 3.2002H5.4502C4.75984 3.2002 4.2002 3.75984 4.2002 4.4502V12.2502C4.2002 12.9406 4.75984 13.5002 5.45019 13.5002H10.5502C11.2406 13.5002 11.8002 12.9406 11.8002 12.2502V4.4502C11.8002 3.75984 11.2406 3.2002 10.5502 3.2002Z" fill="#161823"/>
<path d="M5.8888 16.5C5.74967 16.5 5.65358 16.6386 5.71506 16.7634C6.16336 17.6737 7.10031 18.3 8.18355 18.3H14.5502C16.069 18.3 17.3002 17.0688 17.3002 15.55V5.75C17.3002 4.23196 16.0702 3.0012 14.5524 3C14.551 3 14.5497 3.00067 14.5489 3.00181C14.5481 3.00294 14.548 3.00439 14.5484 3.00569C14.7114 3.45664 14.8002 3.94304 14.8002 4.4502C14.8002 4.49372 14.831 4.53088 14.8731 4.54209C15.4069 4.68443 15.8002 5.17129 15.8002 5.75V15.55C15.8002 16.2404 15.2406 16.8 14.5502 16.8H8.18355C7.89993 16.8 7.63838 16.7055 7.42863 16.5464C7.39064 16.5176 7.34489 16.5 7.29719 16.5H5.8888Z" fill="#161823"/>
</svg>
