<svg width="20" height="20" viewBox="0 0 20 20" fill="none" xmlns="http://www.w3.org/2000/svg">
<path d="M5.98193 10.5047L6.83154 7.80938H6.89502L7.73975 10.5047H5.98193Z" fill="#161823"/>
<path fill-rule="evenodd" clip-rule="evenodd" d="M3.625 3C1.89911 3 0.5 4.39911 0.5 6.125V13.875C0.5 15.6009 1.89911 17 3.625 17H10.1C10.2105 17 10.3 16.9105 10.3 16.8V16.7333C10.3 15.6431 10.8126 14.6735 11.6101 14.0515C11.6739 14.0017 11.7051 13.9199 11.6865 13.8411L11.636 13.6268C11.596 13.4869 11.5628 13.3445 11.5367 13.2C10.9553 13.1978 10.6646 12.9195 10.6646 12.3553V7.37969C10.6646 6.81328 10.9575 6.53496 11.5435 6.53496H13.0962C14.3273 6.53496 15.1919 6.9951 15.6615 7.88457C15.699 7.95556 15.7727 8.00082 15.853 8.00015C15.8654 8.00005 15.8779 8 15.8903 8C17.1489 8 18.2931 8.52769 19.1024 9.37903C19.2365 9.52014 19.5 9.43042 19.5 9.23573V6.125C19.5 4.39911 18.1009 3 16.375 3H3.625ZM5.31787 12.6189C5.18115 13.0779 4.98584 13.2586 4.63428 13.2586C4.27295 13.2586 4.02393 13.0389 4.02393 12.7068C4.02393 12.575 4.05811 12.4236 4.14111 12.1746L5.8208 7.36016C6.03076 6.74004 6.32861 6.48125 6.88525 6.48125C7.43701 6.48125 7.72998 6.73516 7.93994 7.36016L9.61963 12.1746C9.68799 12.3846 9.72217 12.5457 9.72217 12.6824C9.72217 13.034 9.47314 13.2586 9.09717 13.2586C8.74072 13.2586 8.53564 13.073 8.40381 12.6189L8.02783 11.4861H5.68896L5.31787 12.6189Z" fill="#161823"/>
<path d="M19.2101 15.1912C19.6886 15.5362 20 16.0984 20 16.7333V17.6C20 18.4284 19.3284 19.1 18.5 19.1H13.3C12.4716 19.1 11.8 18.4284 11.8 17.6V16.7333C11.8 15.9067 12.3278 15.2034 13.0649 14.9421C13.1845 14.8996 13.3097 14.8689 13.4391 14.8511C13.4477 14.8499 13.4564 14.8488 13.465 14.8477L13.087 13.2448C13.0826 13.2299 13.0783 13.215 13.0741 13.2C13.0037 12.9488 12.9664 12.6852 12.9664 12.415C12.9664 12.3155 12.9714 12.2173 12.9811 12.1205C13.0888 11.0471 13.7789 10.1512 14.7257 9.74076C15.0831 9.58578 15.4772 9.5 15.8903 9.5C15.9488 9.5 16.0069 9.50172 16.0646 9.50511C17.5905 9.59485 18.8142 10.8552 18.8142 12.415C18.8142 12.7011 18.7724 12.9798 18.6938 13.2442L18.3162 14.8455C18.4679 14.8627 18.6141 14.8977 18.7528 14.9484C18.917 15.0085 19.0707 15.0906 19.2101 15.1912Z" fill="#161823"/>
<path d="M12.9302 7.60918C13.4891 7.60918 13.9129 7.76068 14.2081 8.0726C14.2967 8.1662 14.2483 8.3128 14.13 8.36406C13.2123 8.7619 12.4529 9.46154 11.9829 10.3415V7.60918H12.9302Z" fill="#161823"/>
</svg>
