<svg width="24" height="24" viewBox="0 0 24 24" fill="none" xmlns="http://www.w3.org/2000/svg">
<path d="M19.0805 22.1287C18.7876 22.4216 18.7876 22.8965 19.0805 23.1893C19.3734 23.4822 19.8483 23.4822 20.1412 23.1893L23.5776 19.7529C23.8705 19.46 23.8705 18.9851 23.5776 18.6923L20.1412 15.2558C19.8483 14.9629 19.3734 14.9629 19.0805 15.2558C18.7876 15.5487 18.7876 16.0236 19.0805 16.3165L21.2051 18.4411H17.4146C15.3436 18.4411 13.6646 20.1201 13.6646 22.1911V23.1C13.6646 23.5142 14.0004 23.85 14.4146 23.85C14.8289 23.85 15.1646 23.5142 15.1646 23.1V22.1911C15.1646 20.9485 16.172 19.9411 17.4146 19.9411H21.2681L19.0805 22.1287Z" fill="#161823"/>
<path d="M14.5001 6.50002C14.5001 8.32784 13.2196 9.50002 12.0001 9.50002C10.7806 9.50002 9.5001 8.32784 9.5001 6.50002C9.5001 4.67219 10.7806 3.50002 12.0001 3.50002C13.2196 3.50002 14.5001 4.67219 14.5001 6.50002ZM16.0001 6.50002C16.0001 4.01473 14.2092 2.00002 12.0001 2.00002C9.79096 2.00002 8.0001 4.01473 8.0001 6.50002C8.0001 8.9853 9.79096 11 12.0001 11C14.2092 11 16.0001 8.9853 16.0001 6.50002ZM12 12.5C9.6563 12.5 7.49136 13.0852 5.86408 14.1182C4.25055 15.1424 3 16.7372 3 18.7273V19.5C3 20.8807 4.11929 22 5.5 22H11.975C12.0827 22 12.1706 21.9147 12.1784 21.8073C12.2042 21.4493 12.266 21.1012 12.3601 20.7667C12.3972 20.6348 12.3006 20.5 12.1636 20.5H5.5C4.94772 20.5 4.5 20.0523 4.5 19.5V18.7273C4.5 16.1165 7.78125 14 12 14C14.0058 14 15.7996 14.4784 17.1297 15.2609C17.2541 15.3341 17.4177 15.2619 17.4604 15.124C17.5551 14.8177 17.7153 14.5334 17.9278 14.2932C18.0159 14.1936 18.0031 14.0344 17.8884 13.967C16.2922 13.0283 14.2268 12.5 12 12.5Z" fill="#161823"/>
</svg>
