<svg width="24" height="24" viewBox="0 0 24 24" fill="none" xmlns="http://www.w3.org/2000/svg">
<path d="M2 15V7C2 5.34315 3.34315 4 5 4H19C20.6569 4 22 5.34315 22 7V15C22 16.6569 20.6569 18 19 18H12.75V19.5H15.2502C15.6645 19.5 16.0002 19.8358 16.0002 20.25C16.0002 20.6642 15.6645 21 15.2502 21H8.74964C8.33543 21 7.99964 20.6642 7.99964 20.25C7.99964 19.8358 8.33543 19.5 8.74964 19.5H11.25V18H5C3.34315 18 2 16.6569 2 15ZM4 7V14.25H20V7C20 6.44772 19.5523 6 19 6H5C4.44772 6 4 6.44772 4 7Z" fill="#161823"/>
</svg>
