<svg width="21" height="20" viewBox="0 0 21 20" fill="none" xmlns="http://www.w3.org/2000/svg">
<path d="M17.9389 8.68217C17.9515 8.58922 17.9585 8.49511 17.9594 8.40033L18.0007 4.27781C18.0133 3.02655 17.0025 2.00546 15.7512 2.00526L11.7013 2.00464C11.1044 2.00455 10.532 2.24161 10.11 2.66365L1.91585 10.8578C1.03717 11.7364 1.03717 13.1611 1.91585 14.0397L5.98171 18.1056C6.86039 18.9843 8.28501 18.9843 9.16369 18.1056L10.4529 16.8164C10.5127 16.7565 10.5281 16.6656 10.4936 16.5883C10.3366 16.2365 10.2139 15.8661 10.1297 15.4812C10.0946 15.3206 9.89309 15.2549 9.77681 15.3712L8.10303 17.0449C7.81014 17.3378 7.33526 17.3378 7.04237 17.0449L2.97651 12.9791C2.68361 12.6862 2.68361 12.2113 2.97651 11.9184L11.1706 3.72431C11.3113 3.58363 11.5021 3.50461 11.7011 3.50464L15.751 3.50526C16.1681 3.50533 16.505 3.84569 16.5008 4.26278L16.4595 8.38529C16.4587 8.46701 16.5127 8.5447 16.5936 8.5566C16.9686 8.61182 17.3319 8.70325 17.6798 8.82722C17.7946 8.86814 17.9224 8.80295 17.9389 8.68217Z" fill="#161823"/>
<path d="M14.9994 6.1661C14.9994 6.81019 14.4773 7.33233 13.8332 7.33233C13.1891 7.33233 12.667 6.81019 12.667 6.1661C12.667 5.52202 13.1891 4.99988 13.8332 4.99988C14.4773 4.99988 14.9994 5.52202 14.9994 6.1661Z" fill="#161823"/>
<path d="M13.9603 14.2517C13.9603 13.8375 14.2961 13.5017 14.7103 13.5017H16.7936C17.2078 13.5017 17.5436 13.8375 17.5436 14.2517C17.5436 14.6659 17.2078 15.0017 16.7936 15.0017H14.7103C14.2961 15.0017 13.9603 14.6659 13.9603 14.2517Z" fill="#161823"/>
<path fill-rule="evenodd" clip-rule="evenodd" d="M20.0036 14.2516C20.0036 16.5998 18.1001 18.5033 15.752 18.5033C13.4038 18.5033 11.5003 16.5998 11.5003 14.2516C11.5003 11.9035 13.4038 10 15.752 10C18.1001 10 20.0036 11.9035 20.0036 14.2516ZM12.9003 14.2516C12.9003 15.8266 14.177 17.1033 15.752 17.1033C17.3269 17.1033 18.6036 15.8266 18.6036 14.2516C18.6036 12.6767 17.3269 11.4 15.752 11.4C14.177 11.4 12.9003 12.6767 12.9003 14.2516Z" fill="#161823"/>
</svg>
