<svg width="24" height="24" viewBox="0 0 24 24" fill="none" xmlns="http://www.w3.org/2000/svg">
<path d="M14.4663 7.57616L9.05166 10.4071C8.92852 10.4712 8.91765 10.6576 9.03355 10.7357L11.4222 12.3565C11.5127 12.4167 11.5308 12.5509 11.4602 12.639L9.02631 15.6924C8.9086 15.8407 9.04623 16.059 9.21283 15.9929L14.4826 13.8973C14.5876 13.8552 14.6293 13.7189 14.5695 13.6168L12.8455 10.7077C12.8057 10.6415 12.8093 10.5554 12.8528 10.4913L14.6764 7.85866C14.7868 7.70038 14.6293 7.49001 14.4663 7.57616Z" fill="#161823"/>
<path fill-rule="evenodd" clip-rule="evenodd" d="M21.0498 10.82C21.1989 6.19795 20.5664 4.32414 20.5664 4.32414C20.5039 3.71294 19.9552 3.27259 19.3465 3.33756C19.3465 3.33756 16.2492 2.12211 11.0646 3.33757C5.87993 4.55302 2.61595 9.47588 2.80783 13.7003C2.9997 17.9248 4.38653 19.7364 4.38653 19.7364C4.4515 20.3452 4.99773 20.788 5.60652 20.723C5.60652 20.723 8.5684 21.5732 12.4088 20.9971C16.2492 20.4211 20.8577 16.7727 21.0498 10.82ZM18.8069 4.7372L19.1404 4.86806L19.1619 4.86577C19.1721 4.9041 19.1854 4.95702 19.201 5.02508C19.2472 5.22582 19.3134 5.55847 19.3772 6.03702C19.5048 6.99421 19.6227 8.5353 19.5505 10.7716C19.3848 15.9063 15.408 19.0305 12.1863 19.5137C10.4258 19.7778 8.86147 19.7152 7.73909 19.586C7.17956 19.5215 6.73486 19.4411 6.43672 19.3787C6.2878 19.3475 6.17592 19.3209 6.10508 19.3032C6.06968 19.2944 6.04458 19.2877 6.03028 19.2839L6.01903 19.2809L6.01659 19.2802L5.84097 19.2298L5.8334 19.1588L5.58856 18.839L5.57693 18.8217C5.55797 18.7931 5.52184 18.7365 5.47338 18.6505C5.37655 18.4788 5.22985 18.1893 5.07229 17.7723C4.75801 16.9407 4.3951 15.5877 4.30628 13.6323C4.14697 10.1247 6.92963 5.8476 11.407 4.79797C13.8232 4.23154 15.7233 4.23794 16.9905 4.37328C17.6252 4.44108 18.1034 4.5415 18.4099 4.61988C18.5632 4.65908 18.6735 4.69275 18.739 4.71405C18.7717 4.7247 18.7932 4.73225 18.8032 4.73585L18.8069 4.7372Z" fill="#161823"/>
</svg>
