<svg width="12" height="12" viewBox="0 0 12 12" fill="none" xmlns="http://www.w3.org/2000/svg">
<path fill-rule="evenodd" clip-rule="evenodd" d="M3.97437 3.29312C3.97437 2.11425 4.81972 1.05 5.9876 1.05C7.15547 1.05 8.00083 2.11425 8.00083 3.29312C8.00083 4.472 7.15547 5.53624 5.9876 5.53624C4.81972 5.53624 3.97437 4.472 3.97437 3.29312ZM2.83816 7.17233C3.66065 6.64284 4.77202 6.35213 5.98769 6.35213C7.20337 6.35213 8.31474 6.64284 9.13723 7.17233C9.96399 7.70456 10.5252 8.50164 10.5252 9.48167C10.5252 10.3214 9.84446 11.0021 9.00474 11.0021H2.97065C2.13092 11.0021 1.4502 10.3214 1.4502 9.48167C1.4502 8.50164 2.0114 7.70456 2.83816 7.17233Z" fill="#161823"/>
</svg>
