<svg width="20" height="20" viewBox="0 0 20 20" fill="none" xmlns="http://www.w3.org/2000/svg">
<path d="M9.99996 9.16669C11.8409 9.16669 13.3333 7.48775 13.3333 5.41669C13.3333 3.34562 11.8409 1.66669 9.99996 1.66669C8.15901 1.66669 6.66663 3.34562 6.66663 5.41669C6.66663 7.48775 8.15901 9.16669 9.99996 9.16669Z" fill="#161823"/>
<path d="M10 10.1667C8.00786 10.1667 6.15542 10.6637 4.75275 11.5541C3.36383 12.4358 2.25 13.8336 2.25 15.6061V16.25C2.25 17.5387 3.29467 18.5834 4.58333 18.5834H10.9194C11.0991 18.5834 11.1876 18.3648 11.0586 18.2397L10.5962 17.7915C9.70393 16.9266 9.68178 15.5021 10.5467 14.6099C11.4116 13.7176 12.8361 13.6955 13.7283 14.5604L14.2383 15.0548L16.0947 12.4257C16.1524 12.3439 16.1411 12.2318 16.0659 12.1658C15.8097 11.9407 15.5344 11.7364 15.2472 11.5541C13.8446 10.6637 11.9921 10.1667 10 10.1667Z" fill="#161823"/>
<path d="M12.6842 15.6374C12.3868 15.3491 11.912 15.3565 11.6237 15.6539C11.3354 15.9513 11.3428 16.4261 11.6402 16.7144L14.0379 19.0387C14.1953 19.1913 14.4115 19.2673 14.6296 19.247C14.8478 19.2266 15.0462 19.1118 15.1726 18.9328L19.3166 13.0637C19.5555 12.7253 19.4749 12.2574 19.1365 12.0185C18.7982 11.7795 18.3302 11.8602 18.0913 12.1985L14.4527 17.3517L12.6842 15.6374Z" fill="#161823"/>
</svg>
