<svg width="20" height="20" viewBox="0 0 20 20" fill="none" xmlns="http://www.w3.org/2000/svg">
<path d="M10.5295 16.4688C9.28218 15.7449 8.03589 14.7388 6.88977 13.5927C5.74361 12.4466 4.74483 11.2075 4.02829 9.96702C3.31645 8.73465 2.85352 7.4493 2.85352 6.22541C2.85352 5.1209 3.22324 4.07929 4.09703 3.24349L4.09837 3.24221C4.62361 2.74228 5.30105 2.3959 6.02584 2.40369L6.02751 2.40371C6.61883 2.41139 7.2273 2.64514 7.64117 3.22788L9.20101 5.42397C9.48968 5.8239 9.69571 6.26395 9.69571 6.74936C9.69571 7.39025 9.31181 7.87453 8.97072 8.22663L8.96754 8.22989L8.63454 8.56949C8.88698 8.95373 9.41955 9.58359 10.1592 10.3233C10.8758 11.0399 11.5271 11.5769 11.9242 11.8536L12.2525 11.5253C12.6027 11.1751 13.0876 10.7872 13.7366 10.7919C14.2234 10.7862 14.6656 10.9979 15.0584 11.2814L17.2923 12.8667C17.8424 13.2669 18.0907 13.8578 18.084 14.4443C18.0823 15.1721 17.7242 15.84 17.2529 16.3603L17.2505 16.3628C16.4452 17.2437 15.4349 17.6598 14.2879 17.6598C13.0617 17.6598 11.7678 17.1875 10.5295 16.4688ZM11.2825 15.1715C12.4007 15.8205 13.4286 16.1598 14.2879 16.1598C15.0306 16.1598 15.6329 15.9085 16.1423 15.352C16.4601 15.0008 16.584 14.6746 16.584 14.439V14.4285C16.5859 14.2883 16.5369 14.1734 16.4128 14.0819L14.1823 12.499C13.9115 12.3032 13.7839 12.2912 13.753 12.2918L13.7399 12.292L13.7267 12.2918C13.719 12.2917 13.6914 12.2913 13.6259 12.3283C13.5523 12.3699 13.4516 12.4475 13.3132 12.5859L12.7944 13.1047C12.5435 13.3556 12.2465 13.4263 12.0124 13.4319C11.6709 13.4509 11.4074 13.3003 11.325 13.2531L11.3103 13.2447L11.2991 13.2378C10.7991 12.9282 9.96695 12.2523 9.09856 11.3839C8.24758 10.5329 7.5378 9.70331 7.23054 9.14522L7.22716 9.13909C7.16088 9.01599 7.06856 8.80133 7.0562 8.54179L7.05442 8.50424L7.05639 8.4667C7.06855 8.2357 7.14038 7.97618 7.35085 7.73765L7.3639 7.72285L7.89335 7.18294L7.89484 7.18141C8.0322 7.03946 8.11153 6.93555 8.15548 6.85785C8.19548 6.78713 8.19571 6.75679 8.19571 6.74936C8.19571 6.70165 8.17666 6.56728 7.98351 6.30016L7.9798 6.29502L6.41825 4.09649C6.32882 3.97056 6.20805 3.90634 6.00876 3.9036C5.77837 3.90145 5.46003 4.0173 5.1333 4.328C4.58976 4.84818 4.35352 5.48096 4.35352 6.22541C4.35351 7.08702 4.68678 8.10807 5.32718 9.21676C5.96288 10.3173 6.87239 11.454 7.95043 12.5321C9.02851 13.6101 10.1734 14.5278 11.2825 15.1715Z" fill="#161823"/>
<path d="M11.6254 3.25494C11.6254 2.84072 11.9612 2.50494 12.3754 2.50494H16.7493C17.1635 2.50494 17.4993 2.84072 17.4993 3.25494V7.62994C17.4993 8.04415 17.1635 8.37994 16.7493 8.37994C16.335 8.37994 15.9993 8.04415 15.9993 7.62994V5.06312L12.3158 8.74658C12.0229 9.03947 11.548 9.03947 11.2551 8.74657C10.9622 8.45368 10.9622 7.97881 11.2551 7.68591L14.9361 4.00494H12.3754C11.9612 4.00494 11.6254 3.66915 11.6254 3.25494Z" fill="#161823"/>
</svg>
