<svg width="24" height="24" viewBox="0 0 24 24" fill="none" xmlns="http://www.w3.org/2000/svg">
<path fill-rule="evenodd" clip-rule="evenodd" d="M16.6 7C16.6 9.20914 14.9882 11 13 11C11.0118 11 9.4 9.20914 9.4 7C9.4 4.79086 11.0118 3 13 3C14.9882 3 16.6 4.79086 16.6 7ZM10.9 7C10.9 8.53328 11.985 9.5 13 9.5C14.015 9.5 15.1 8.53328 15.1 7C15.1 5.46672 14.015 4.5 13 4.5C11.985 4.5 10.9 5.46672 10.9 7Z" fill="#161823"/>
<path d="M7.42031 10.9939C8.01727 10.9939 8.57353 10.8003 9.04102 10.4665C8.73911 10.0624 8.49033 9.61374 8.30297 9.13522C8.03476 9.36977 7.71525 9.49393 7.42031 9.49393C6.73552 9.49393 5.91831 8.82469 5.91831 7.65837C5.91831 6.49205 6.73552 5.82281 7.42031 5.82281C7.60726 5.82281 7.80409 5.8727 7.99147 5.96897C8.0817 5.46446 8.23688 4.97811 8.44918 4.52387C8.12825 4.39379 7.78174 4.32281 7.42031 4.32281C5.76235 4.32281 4.4183 5.81619 4.4183 7.65837C4.4183 9.50055 5.76235 10.9939 7.42031 10.9939Z" fill="#161823"/>
<path d="M2.77661 13.8532C3.96097 13.1192 5.49321 12.698 7.13928 12.6549C7.02379 12.7197 6.91017 12.7868 6.79853 12.856C6.10342 13.2868 5.42114 13.8497 4.85912 14.5383C3.14164 15.0983 2 16.2086 2 17.4868V17.9037C2 18.3643 2.37335 18.7376 2.83389 18.7376H3.5C3.50042 19.2681 3.60412 19.7744 3.79207 20.2376H2.83389C1.54492 20.2376 0.5 19.1927 0.5 17.9037V17.4868C0.5 15.8636 1.54311 14.6177 2.77661 13.8532Z" fill="#161823"/>
<path d="M7.75537 13.8966C9.20088 13.0007 11.1108 12.5 13.1666 12.5C14.2639 12.5 15.3196 12.6426 16.2852 12.9118C16.2857 12.912 16.2863 12.9122 16.2867 12.9124C16.3711 12.9605 16.3691 13.0807 16.3672 13.1917C16.3669 13.2078 16.3667 13.2237 16.3667 13.2391V14.1194C16.3667 14.1204 16.3665 14.1212 16.3661 14.122C16.3158 14.2332 16.203 14.2224 16.1365 14.2087C15.48 14.0733 13.9066 14 13.1666 14C9.5104 14 6.66665 15.7909 6.66665 18V18.5C6.66665 19.0523 7.11436 19.5 7.66665 19.5H16.5401V20.8C16.5401 20.9104 16.4505 21 16.3401 21H7.66665C6.28594 21 5.16665 19.8807 5.16665 18.5V18C5.16665 16.1933 6.32786 14.7813 7.75537 13.8966Z" fill="#161823"/>
<path d="M18.75 12.1667C19.1642 12.1667 19.5 12.5025 19.5 12.9167V16.6667H23.25C23.6642 16.6667 24 17.0025 24 17.4167C24 17.8309 23.6642 18.1667 23.25 18.1667H19.5V21.9167C19.5 22.3309 19.1642 22.6667 18.75 22.6667C18.3358 22.6667 18 22.3309 18 21.9167V18.1667H14.25C13.8358 18.1667 13.5 17.8309 13.5 17.4167C13.5 17.0025 13.8358 16.6667 14.25 16.6667H18V12.9167C18 12.5025 18.3358 12.1667 18.75 12.1667Z" fill="#161823"/>
</svg>
