<svg width="16" height="16" viewBox="0 0 16 16" fill="none" xmlns="http://www.w3.org/2000/svg">
<path d="M4.60982 2H11.3894C12.2995 2 13.0577 2.69766 13.1333 3.60467L13.8416 12.1047C13.9267 13.125 13.1215 14 12.0977 14H3.90149C2.87767 14 2.07251 13.125 2.15753 12.1047L2.86587 3.60467C2.94145 2.69766 3.69967 2 4.60982 2ZM7.99959 8C9.51837 8 10.7496 6.76878 10.7496 5.25C10.7496 4.83579 10.4138 4.5 9.99959 4.5C9.58537 4.5 9.24959 4.83579 9.24959 5.25C9.24959 5.94036 8.68994 6.5 7.99959 6.5C7.30923 6.5 6.74959 5.94036 6.74959 5.25C6.74959 4.83579 6.4138 4.5 5.99959 4.5C5.58537 4.5 5.24959 4.83579 5.24959 5.25C5.24959 6.76878 6.48081 8 7.99959 8Z" fill="#161823"/>
</svg>
