<svg width="20" height="20" viewBox="0 0 20 20" fill="none" xmlns="http://www.w3.org/2000/svg">
<path d="M6.03327 0.966797C4.9287 0.966797 4.03327 1.86223 4.03327 2.9668V3.00013H15.9999V2.9668C15.9999 1.86223 15.1045 0.966797 13.9999 0.966797H6.03327Z" fill="#161823"/>
<path fill-rule="evenodd" clip-rule="evenodd" d="M3.7666 4.50013H15.9999C17.1045 4.50013 17.9999 5.39556 17.9999 6.50013V13.5001C17.9999 14.6047 17.1045 15.5001 15.9999 15.5001H3.7666C2.66203 15.5001 1.7666 14.6047 1.7666 13.5001V6.50013C1.7666 5.39556 2.66203 4.50013 3.7666 4.50013ZM12.2375 10.5501C12.6337 10.2901 12.6337 9.7092 12.2375 9.44919L9.25739 7.49368C8.81956 7.20638 8.2378 7.52046 8.2378 8.04414V11.9552C8.2378 12.4788 8.81956 12.7929 9.25739 12.5056L12.2375 10.5501Z" fill="#161823"/>
<path d="M4.03327 17.0001H15.9999C15.9999 18.1047 15.1045 19.0001 13.9999 19.0001H6.03327C4.9287 19.0001 4.03327 18.1047 4.03327 17.0001Z" fill="#161823"/>
</svg>
