<svg width="20" height="20" viewBox="0 0 20 20" fill="none" xmlns="http://www.w3.org/2000/svg">
<path fill-rule="evenodd" clip-rule="evenodd" d="M7.52332 5.67379C8.36099 5.19017 8.88602 4.37419 9.02982 3.49017C9.35164 3.44168 9.68142 3.4165 10.0175 3.4165C10.3442 3.4165 10.6649 3.4403 10.9781 3.48616C11.121 4.37173 11.6464 5.18943 12.4853 5.67379C13.3283 6.1605 14.3045 6.20471 15.1456 5.88052C15.5498 6.38486 15.8809 6.94975 16.1231 7.55912C15.4185 8.12539 14.9663 8.99493 14.9663 9.97099C14.9663 10.9507 15.4219 11.8231 16.131 12.3892C15.8913 12.9981 15.5629 13.5629 15.1617 14.0677C14.3169 13.7367 13.3337 13.7784 12.4853 14.2682C11.6379 14.7574 11.1104 15.5868 10.9739 16.4828C10.662 16.5282 10.3427 16.5518 10.0175 16.5518C9.68291 16.5518 9.35455 16.5268 9.03408 16.4788C8.89665 15.5843 8.3695 14.7567 7.52332 14.2682C6.68169 13.7823 5.70733 13.7374 4.86712 14.0599C4.46512 13.5526 4.1367 12.985 3.89763 12.3731C4.59528 11.8066 5.04235 10.9414 5.04235 9.97099C5.04235 9.00416 4.59861 8.14182 3.90546 7.57527C4.14705 6.96284 4.47826 6.39508 4.88318 5.88824C5.7197 6.20397 6.68704 6.15662 7.52332 5.67379ZM10.0175 1.9165C9.37298 1.9165 8.74517 1.99223 8.14287 2.13561C7.78999 2.21961 7.54781 2.54411 7.56768 2.9063C7.59963 3.48881 7.31024 4.06477 6.77332 4.37476C6.23733 4.68421 5.59516 4.64753 5.10697 4.33013C4.80328 4.13268 4.40187 4.18051 4.15307 4.44378C3.30133 5.34504 2.65447 6.44351 2.2885 7.66453C2.18425 8.01232 2.3441 8.38483 2.66798 8.54891C3.18833 8.81252 3.54235 9.35107 3.54235 9.97099C3.54235 10.5927 3.18621 11.1327 2.66335 11.3954C2.33894 11.5584 2.17788 11.9304 2.28097 12.2785C2.64317 13.5015 3.28693 14.6025 4.13618 15.5066C4.3863 15.7729 4.79187 15.8202 5.09657 15.6187C5.58594 15.295 6.23351 15.2556 6.77332 15.5672C7.31567 15.8804 7.60547 16.4649 7.56662 17.0533C7.54251 17.4183 7.78528 17.7475 8.14114 17.8323C8.74397 17.9759 9.37236 18.0518 10.0175 18.0518C10.6524 18.0518 11.2711 17.9783 11.8652 17.839C12.2231 17.7551 12.4675 17.4242 12.4423 17.0574C12.4018 16.4677 12.6917 15.8811 13.2353 15.5672C13.7792 15.2532 14.4325 15.2956 14.923 15.626C15.2275 15.8311 15.6357 15.7856 15.8876 15.5185C16.7395 14.6152 17.3858 13.5145 17.7503 12.2911C17.855 11.9397 17.6903 11.5641 17.3609 11.4031C16.8296 11.1434 16.4663 10.5989 16.4663 9.97099C16.4663 9.3449 16.8275 8.80176 17.3562 8.54115C17.6851 8.37905 17.8485 8.00294 17.7427 7.65191C17.3744 6.43063 16.7251 5.33238 15.8708 4.43201C15.6202 4.16794 15.2162 4.12192 14.9127 4.32288C14.4232 4.64693 13.7753 4.68655 13.2353 4.37475C12.6971 4.06402 12.4076 3.48603 12.4412 2.90213C12.4621 2.53821 12.2183 2.21194 11.8634 2.12883C11.2699 1.98984 10.6518 1.9165 10.0175 1.9165ZM12.1001 10.0165C12.1001 11.192 11.1534 12.1332 10.0001 12.1332C8.84683 12.1332 7.9001 11.192 7.9001 10.0165C7.9001 8.84096 8.84683 7.89984 10.0001 7.89984C11.1534 7.89984 12.1001 8.84096 12.1001 10.0165ZM13.6001 10.0165C13.6001 12.0139 11.9883 13.6332 10.0001 13.6332C8.01187 13.6332 6.4001 12.0139 6.4001 10.0165C6.4001 8.01907 8.01187 6.39984 10.0001 6.39984C11.9883 6.39984 13.6001 8.01907 13.6001 10.0165Z" fill="#161823"/>
</svg>
