<svg width="24" height="24" viewBox="0 0 24 24" fill="none" xmlns="http://www.w3.org/2000/svg">
<path d="M8.06991 6.88558C8.40924 6.64804 8.87689 6.73057 9.11443 7.06991L12 11.1922L14.8856 7.06991C15.1231 6.73057 15.5908 6.64804 15.9301 6.88558C16.2694 7.12312 16.352 7.59076 16.1144 7.9301L13.3005 11.95H15C15.4142 11.95 15.75 12.2857 15.75 12.7C15.75 13.1142 15.4142 13.45 15 13.45H12.75V14.45H15C15.4142 14.45 15.75 14.7857 15.75 15.2C15.75 15.6142 15.4142 15.95 15 15.95H12.75V17.5C12.75 17.9142 12.4142 18.25 12 18.25C11.5858 18.25 11.25 17.9142 11.25 17.5V15.95H9C8.58579 15.95 8.25 15.6142 8.25 15.2C8.25 14.7857 8.58579 14.45 9 14.45H11.25V13.45H9C8.58579 13.45 8.25 13.1142 8.25 12.7C8.25 12.2857 8.58579 11.95 9 11.95H10.6995L7.88558 7.9301C7.64804 7.59076 7.73057 7.12312 8.06991 6.88558Z" fill="#161823"/>
<path d="M22 12C22 17.5228 17.5228 22 12 22C6.47715 22 2 17.5228 2 12C2 6.47715 6.47715 2 12 2C17.5228 2 22 6.47715 22 12ZM20.5 12C20.5 7.30558 16.6944 3.5 12 3.5C7.30558 3.5 3.5 7.30558 3.5 12C3.5 16.6944 7.30558 20.5 12 20.5C16.6944 20.5 20.5 16.6944 20.5 12Z" fill="#161823"/>
</svg>
