<svg width="24" height="24" viewBox="0 0 24 24" fill="none" xmlns="http://www.w3.org/2000/svg">
<path d="M3.85599 5.59746C3.93695 4.14019 5.14224 3 6.60176 3H17.3988C18.8583 3 20.0636 4.14019 20.1446 5.59746L20.839 18.0975C20.9266 19.6738 19.672 21 18.0933 21H5.90731C4.32858 21 3.07398 19.6738 3.16155 18.0975L3.85599 5.59746ZM12.0002 10.875C14.0713 10.875 15.7502 9.19607 15.7502 7.125V7C15.7502 6.58579 15.4145 6.25 15.0002 6.25C14.586 6.25 14.2502 6.58579 14.2502 7V7.125C14.2502 8.36764 13.2429 9.375 12.0002 9.375C10.7576 9.375 9.75024 8.36764 9.75024 7.125V7C9.75024 6.58579 9.41446 6.25 9.00024 6.25C8.58603 6.25 8.25024 6.58579 8.25024 7V7.125C8.25024 9.19607 9.92918 10.875 12.0002 10.875Z" fill="#161823"/>
</svg>
