<svg width="16" height="16" viewBox="0 0 16 16" fill="none" xmlns="http://www.w3.org/2000/svg">
<path fill-rule="evenodd" clip-rule="evenodd" d="M7.99967 14.6667C11.6816 14.6667 14.6663 11.6819 14.6663 8.00001C14.6663 4.31811 11.6816 1.33334 7.99967 1.33334C4.31778 1.33334 1.33301 4.31811 1.33301 8.00001C1.33301 11.6819 4.31778 14.6667 7.99967 14.6667ZM7.5754 4.40788C7.80971 4.17357 8.18961 4.17357 8.42392 4.40788L11.178 7.16191C11.4123 7.39623 11.4123 7.77613 11.178 8.01044C10.9436 8.24476 10.5637 8.24476 10.3294 8.01044L8.59966 6.28067V11.3867C8.59966 11.7181 8.33103 11.9867 7.99966 11.9867C7.66829 11.9867 7.39966 11.7181 7.39966 11.3867V6.28068L5.66989 8.01044C5.43558 8.24476 5.05568 8.24476 4.82137 8.01044C4.58705 7.77613 4.58705 7.39623 4.82137 7.16191L7.5754 4.40788Z" fill="#161823"/>
</svg>
