<svg width="20" height="20" viewBox="0 0 20 20" fill="none" xmlns="http://www.w3.org/2000/svg">
<path d="M8.40897 1.08643C8.59404 0.860466 8.91265 0.720576 9.25702 0.811569C9.82823 0.962501 10.395 1.42287 10.8765 1.97398C11.3781 2.54803 11.8631 3.30724 12.2481 4.191C12.7358 5.31054 13.0738 6.65629 13.0661 8.10756C13.1823 7.84961 13.2822 7.58607 13.3575 7.33048C13.4841 6.90027 13.5271 6.53913 13.4962 6.28035C13.4682 6.046 13.5334 5.77026 13.7407 5.56625C13.8491 5.45955 14.0011 5.37075 14.188 5.34443C14.3775 5.31773 14.5528 5.36236 14.6928 5.4404C15.0541 5.64178 15.3882 6.03945 15.6653 6.44377C15.9614 6.87568 16.2598 7.41662 16.5263 8.01182C17.0545 9.19164 17.4933 10.666 17.4972 12.0147L17.4972 12.0168L17.4973 12.0229L17.4973 12.0329L17.4973 12.0347C17.487 15.9936 14.0984 19.1528 9.99961 19.1528C5.90082 19.1528 2.51226 15.9936 2.50198 12.0347L2.50197 12.0329L2.50197 12.0314L2.50196 12.0264L2.50195 12.0168L2.50195 12.0154C2.50877 8.50247 4.57321 6.71148 6.17444 5.32233C6.18532 5.31289 6.19618 5.30347 6.20702 5.29407C6.93631 4.6613 7.51834 4.14976 7.89103 3.59142C8.23482 3.07637 8.38811 2.53738 8.2342 1.81869C8.18013 1.56624 8.2388 1.29419 8.40897 1.08643ZM9.67356 2.73254C9.60687 3.34105 9.38165 3.87999 9.05545 4.36867C8.56735 5.09991 7.84425 5.72717 7.16593 6.31559C7.1521 6.32758 7.1383 6.33956 7.12452 6.35152C5.51561 7.74748 3.9078 9.16667 3.90195 12.0173L3.90196 12.0258L3.90197 12.031C3.91007 15.1487 6.60128 17.7528 9.99961 17.7528C13.3976 17.7528 16.0886 15.1493 16.0973 12.032L16.0973 12.0238L16.0972 12.0188C16.0941 10.9349 15.7309 9.66121 15.2485 8.58392C15.0837 8.21585 14.9093 7.88039 14.7381 7.59266C14.726 7.63735 14.7135 7.68178 14.7005 7.72589C14.5439 8.25768 14.3109 8.79288 14.0505 9.2696C13.7914 9.74402 13.4925 10.1839 13.1928 10.5162C13.0437 10.6814 12.8791 10.8372 12.7041 10.957C12.5429 11.0673 12.2965 11.2001 11.9997 11.2001C11.7775 11.2001 11.5685 11.0946 11.4365 10.9158C11.3045 10.737 11.2653 10.5062 11.3308 10.2939C11.9578 8.2603 11.6306 6.27894 10.9646 4.75012C10.6318 3.98617 10.2211 3.35161 9.82227 2.89515C9.77146 2.837 9.72184 2.78287 9.67356 2.73254Z" fill="#161823"/>
</svg>
