<svg width="16" height="16" viewBox="0 0 16 16" fill="none" xmlns="http://www.w3.org/2000/svg">
<path d="M5.73914 3.15605C6.66471 2.04382 8.05942 1.33582 9.61951 1.33582C12.4062 1.33582 14.6653 3.59491 14.6653 6.38165C14.6653 7.93616 13.9624 9.32648 12.857 10.2521C12.8807 10.0273 12.8929 9.79913 12.8929 9.5681C12.8929 6.00587 10.0051 3.1181 6.44286 3.1181C6.20506 3.1181 5.97026 3.13097 5.73914 3.15605Z" fill="#161823"/>
<path d="M6.44277 4.46814C3.62612 4.46814 1.34277 6.75149 1.34277 9.56814C1.34277 12.3848 3.62612 14.6681 6.44277 14.6681C9.25943 14.6681 11.5428 12.3848 11.5428 9.56814C11.5428 6.75149 9.25943 4.46814 6.44277 4.46814ZM8.8225 8.50053C8.8225 9.02111 8.50599 9.44313 8.11555 9.44313C7.72511 9.44313 7.40859 9.02111 7.40859 8.50053C7.40859 7.97994 7.72511 7.55792 8.11555 7.55792C8.50599 7.55792 8.8225 7.97994 8.8225 8.50053ZM5.5234 8.50053C5.5234 9.02112 5.20689 9.44314 4.81645 9.44314C4.42601 9.44314 4.1095 9.02112 4.1095 8.50053C4.1095 7.97995 4.42601 7.55793 4.81645 7.55793C5.20689 7.55793 5.5234 7.97995 5.5234 8.50053ZM5.05207 10.5684C5.05207 10.0106 7.87988 10.0106 7.87988 10.5684C7.87988 11.1262 7.24686 11.5783 6.46598 11.5783C5.6851 11.5783 5.05207 11.1262 5.05207 10.5684Z" fill="#161823"/>
</svg>
