<svg width="24" height="24" viewBox="0 0 24 24" fill="none" xmlns="http://www.w3.org/2000/svg">
<path d="M8.86829 2.25794C8.59428 1.77842 7.98343 1.61182 7.50391 1.88583C7.02439 2.15984 6.8578 2.7707 7.13181 3.25022L8.56259 5.75409H5.75C3.817 5.75409 2.25 7.32109 2.25 9.25409V17.2541C2.25 19.1871 3.817 20.7541 5.75 20.7541H12.1131C11.721 19.9176 11.502 18.9839 11.502 17.9991C11.502 14.4098 14.4116 11.5001 18.0009 11.5001C19.3972 11.5001 20.6907 11.9405 21.75 12.6899V9.25409C21.75 7.32109 20.183 5.75409 18.25 5.75409H15.4374L16.8682 3.25022C17.1422 2.7707 16.9756 2.15984 16.4961 1.88583C16.0166 1.61182 15.4057 1.77842 15.1317 2.25794L13.1339 5.75409H10.8661L8.86829 2.25794Z" fill="#161823"/>
<path d="M16.751 17.2491C16.3368 17.2491 16.001 17.5849 16.001 17.9991C16.001 18.4133 16.3368 18.7491 16.751 18.7491H19.251C19.6652 18.7491 20.001 18.4133 20.001 17.9991C20.001 17.5849 19.6652 17.2491 19.251 17.2491H16.751Z" fill="#161823"/>
<path d="M18.0009 22.9981C20.7618 22.9981 22.9999 20.7599 22.9999 17.9991C22.9999 15.2382 20.7618 13.0001 18.0009 13.0001C15.2401 13.0001 13.002 15.2382 13.002 17.9991C13.002 20.7599 15.2401 22.9981 18.0009 22.9981ZM18.0009 21.4981C16.0685 21.4981 14.502 19.9315 14.502 17.9991C14.502 16.0667 16.0685 14.5001 18.0009 14.5001C19.9333 14.5001 21.4999 16.0667 21.4999 17.9991C21.4999 19.9315 19.9333 21.4981 18.0009 21.4981Z" fill="#161823"/>
</svg>
