<svg width="24" height="24" viewBox="0 0 24 24" fill="none" xmlns="http://www.w3.org/2000/svg">
<path d="M12.4945 0.910675C13.3491 -0.416583 15.4091 0.384195 15.1428 1.94024L14.1116 7.96696L17.9185 8.3942C19.2356 8.54201 19.9418 10.0192 19.2299 11.1371L11.622 23.0836C10.7719 24.4186 8.70279 23.6202 8.96973 22.0602L9.99286 16.0807L6.08516 15.6489C4.76259 15.5027 4.05519 14.0168 4.77558 12.8981L12.4945 0.910675ZM13.5403 2.41175C13.5587 2.30444 13.4166 2.24921 13.3577 2.34074L6.03674 13.7101C5.91947 13.8923 6.03462 14.1341 6.24992 14.1579L11.7398 14.7647L10.5738 21.5793C10.5554 21.6869 10.6981 21.7419 10.7567 21.6499L17.9647 10.3314C18.0806 10.1494 17.9656 9.9089 17.7512 9.88484L12.3651 9.28036L13.5403 2.41175Z" fill="#161823"/>
</svg>
