<svg width="20" height="20" viewBox="0 0 20 20" fill="none" xmlns="http://www.w3.org/2000/svg">
<path d="M11.7255 3.54303C11.0519 2.37636 9.49427 2.23053 8.59968 3.10553C8.47188 3.23053 8.35761 3.37636 8.26138 3.54303L1.93304 14.504C1.16324 15.8374 2.12549 17.504 3.66509 17.504H16.3218C17.8614 17.504 18.8236 15.8374 18.0538 14.504L11.7255 3.54303ZM9.99341 7.13934C10.4627 7.13934 10.8412 7.52339 10.8344 7.99264L10.7712 11.493C10.7651 11.9182 10.4186 12.2596 9.99341 12.2596C9.56818 12.2596 9.22174 11.9182 9.21558 11.493L9.15241 7.99264C9.1456 7.52339 9.52412 7.13934 9.99341 7.13934ZM10.9321 14.0518C10.9321 14.5702 10.5119 14.9905 9.99341 14.9905C9.47497 14.9905 9.05469 14.5702 9.05469 14.0518C9.05469 13.5333 9.47497 13.113 9.99341 13.113C10.5119 13.113 10.9321 13.5333 10.9321 14.0518Z" fill="#161823"/>
</svg>
