<svg width="16" height="16" viewBox="0 0 16 16" fill="none" xmlns="http://www.w3.org/2000/svg">
<path d="M3.22426 1.97572C2.98995 1.74141 2.61005 1.74141 2.37574 1.97572C2.14142 2.21004 2.14142 2.58994 2.37574 2.82425L14.3757 14.8243C14.6101 15.0586 14.9899 15.0586 15.2243 14.8243C15.4586 14.5899 15.4586 14.21 15.2243 13.9757L13.3499 12.1014L14.7461 8.82037C14.7772 8.74768 14.8006 8.66981 14.8162 8.58674C14.8318 8.50367 14.8395 8.42579 14.8395 8.35311V7.10708C14.8395 6.7748 14.7149 6.48406 14.4657 6.23486C14.2165 5.98565 13.9258 5.86105 13.5935 5.86105H10.1981L10.8834 3.15094V2.93288C10.8834 2.81866 10.86 2.69925 10.8133 2.57465C10.7666 2.45005 10.7069 2.3514 10.6342 2.27872C10.2041 1.84861 9.50677 1.84861 9.07667 2.27872L6.30196 5.05342L3.22426 1.97572Z" fill="#161823"/>
<path d="M11.7245 13.9602H5.49433V7.54281L11.8986 13.9471C11.8412 13.9558 11.7831 13.9602 11.7245 13.9602Z" fill="#161823"/>
<path d="M4.49206 6.54053L3.81256 5.86104H3C2.44772 5.86104 2 6.30875 2 6.86104V12.9602C2 13.5125 2.44771 13.9602 3 13.9602H4.49206V6.54053Z" fill="#161823"/>
</svg>
