<svg width="24" height="24" viewBox="0 0 24 24" fill="none" xmlns="http://www.w3.org/2000/svg">
<path fill-rule="evenodd" clip-rule="evenodd" d="M12.2868 2.98367C12.7036 2.51689 13.2996 2.25 13.9253 2.25C15.3994 2.25 16.455 3.6733 16.0271 5.08391L15.011 8.43395H20.032C20.9985 8.43395 21.782 9.21745 21.782 10.184V11.9204C21.782 12.399 21.6904 12.8731 21.5121 13.3172L18.9493 19.7025C18.607 20.5555 17.7803 21.1145 16.8612 21.1145L4.75 21.1143C3.7835 21.1143 3 20.3308 3 19.3643V10.184C3 9.21746 3.7835 8.43395 4.75 8.43395H7.42113L12.2868 2.98367ZM7.00697 9.93395H4.75C4.61193 9.93395 4.5 10.0459 4.5 10.184V19.3643C4.5 19.5024 4.61193 19.6143 4.75 19.6143H7.00697V9.93395ZM8.50697 19.6144L16.8612 19.6145C17.1676 19.6145 17.4431 19.4281 17.5573 19.1438L20.1201 12.7585C20.227 12.492 20.282 12.2076 20.282 11.9204V10.184C20.282 10.0459 20.17 9.93395 20.032 9.93395H13.9998C13.7623 9.93395 13.5389 9.82148 13.3974 9.63074C13.2559 9.43999 13.2132 9.19352 13.2821 8.96626L14.5917 4.64853C14.7274 4.20128 14.3927 3.75 13.9253 3.75C13.7269 3.75 13.5379 3.83462 13.4058 3.98262L8.50697 9.47003V19.6144Z" fill="#161823"/>
</svg>
