<svg width="20" height="20" viewBox="0 0 20 20" fill="none" xmlns="http://www.w3.org/2000/svg">
<path d="M17.04 4.70477C17.5578 3.56852 16.388 2.39874 15.2518 2.91651L11.2554 4.73757L8.01746 1.77071C7.09682 0.92716 5.62281 1.67821 5.76412 2.91884L5.99356 4.93324L3.02995 1.96963C2.73706 1.67674 2.26218 1.67674 1.96929 1.96963C1.6764 2.26252 1.6764 2.7374 1.96929 3.03029L6.23569 7.29669L6.23479 7.2972L7.31423 8.37663C7.31398 8.37685 7.31448 8.37641 7.31423 8.37663L11.5805 12.6415C11.5803 12.6418 11.5808 12.6413 11.5805 12.6415L12.6593 13.7217L12.6598 13.7208L16.9693 18.0303C17.2622 18.3232 17.7371 18.3232 18.0299 18.0303C18.3228 17.7374 18.3228 17.2625 18.0299 16.9696L15.0233 13.963L17.0377 14.1924C18.2783 14.3337 19.0294 12.8597 18.1858 11.9391L15.219 8.70108L17.04 4.70477ZM7.69732 6.637L7.29988 3.14766L10.3153 5.91058C10.7147 6.27654 11.2942 6.36832 11.7871 6.14369L15.5087 4.44782L13.8128 8.16943C13.5882 8.66236 13.68 9.24183 14.0459 9.64123L16.8089 12.6566L13.3195 12.2592L7.69732 6.637Z" fill="#161823"/>
<path d="M11.8928 15.0765L10.7921 13.9758L9.40357 16.4298L8.58805 12.4222C8.48004 11.8913 8.06518 11.4765 7.53436 11.3685L3.5267 10.553L5.98071 9.16443L4.88003 8.06375L2.43888 9.44499C1.35212 10.0599 1.61092 11.6939 2.8345 11.9428L6.25663 12.6392L1.84955 17.0463C1.55666 17.3392 1.55666 17.814 1.84955 18.1069C2.14245 18.3998 2.61732 18.3998 2.91021 18.1069L7.31731 13.6998L8.01368 17.122C8.26267 18.3456 9.89662 18.6044 10.5115 17.5176L11.8928 15.0765Z" fill="#161823"/>
</svg>
