<svg width="24" height="24" viewBox="0 0 24 24" fill="none" xmlns="http://www.w3.org/2000/svg">
<path d="M12 9.50002C10.7805 9.50002 9.50001 8.32784 9.50001 6.50002C9.50001 4.67219 10.7805 3.50002 12 3.50002C13.2195 3.50002 14.5 4.67219 14.5 6.50002C14.5 8.32784 13.2195 9.50002 12 9.50002ZM12 11C14.2092 11 16 8.9853 16 6.50002C16 4.01473 14.2092 2.00002 12 2.00002C9.79087 2.00002 8.00001 4.01473 8.00001 6.50002C8.00001 8.9853 9.79087 11 12 11Z" fill="#161823"/>
<path d="M13.8707 12.981C14.0083 12.8676 13.9536 12.6384 13.7768 12.6151C13.2006 12.5392 12.6063 12.5 12 12.5C9.6563 12.5 7.49136 13.0852 5.86408 14.1182C4.25055 15.1424 3 16.7372 3 18.7273V19.5C3 20.8807 4.11929 22 5.5 22H12.4688C12.6355 22 12.7309 21.8065 12.6367 21.669C12.4115 21.3406 12.2158 20.9905 12.0532 20.6225C12.0206 20.5486 11.9481 20.5 11.8674 20.5H5.5C4.94772 20.5 4.5 20.0523 4.5 19.5V18.7273C4.5 16.1165 7.78125 14 12 14C12.2529 14 12.5024 14.0076 12.748 14.0225C12.8147 14.0265 12.8791 13.9975 12.9208 13.9453C13.2032 13.5919 13.5217 13.2686 13.8707 12.981Z" fill="#161823"/>
<path d="M18.0008 21.498C16.0684 21.498 14.5019 19.9314 14.5019 17.999C14.5019 16.0666 16.0684 14.5 18.0008 14.5C19.9333 14.5 21.4998 16.0666 21.4998 17.999C21.4998 19.9314 19.9333 21.498 18.0008 21.498ZM18.0008 22.998C20.7617 22.998 22.9998 20.7599 22.9998 17.999C22.9998 15.2381 20.7617 13 18.0008 13C15.24 13 13.0019 15.2381 13.0019 17.999C13.0019 20.7599 15.24 22.998 18.0008 22.998Z" fill="#161823"/>
<path d="M16.0009 17.999C16.0009 17.5848 16.3367 17.249 16.7509 17.249H19.2509C19.6651 17.249 20.0009 17.5848 20.0009 17.999C20.0009 18.4132 19.6651 18.749 19.2509 18.749H16.7509C16.3367 18.749 16.0009 18.4132 16.0009 17.999Z" fill="#161823"/>
</svg>
