<svg width="24" height="24" viewBox="0 0 24 24" fill="none" xmlns="http://www.w3.org/2000/svg">
<path fill-rule="evenodd" clip-rule="evenodd" d="M4.75 4C2.67893 4 1 5.67893 1 7.75V16.25C1 18.3211 2.67893 20 4.75 20H19.25C21.3211 20 23 18.3211 23 16.25V7.75C23 5.67893 21.3211 4 19.25 4H4.75ZM16.1537 7.99261C15.2301 7.99261 14.5518 8.84129 14.5518 9.79483C14.5518 10.7484 15.2301 11.5971 16.1537 11.5971C17.0774 11.5971 17.7557 10.7484 17.7557 9.79483C17.7557 8.84129 17.0774 7.99261 16.1537 7.99261ZM4.5 9C4.5 8.58578 4.83579 8.25 5.25 8.25H10.25C10.6642 8.25 11 8.58578 11 9C11 9.41421 10.6642 9.75 10.25 9.75H5.25C4.83579 9.75 4.5 9.41421 4.5 9ZM5.25 11.25C4.83579 11.25 4.5 11.5858 4.5 12C4.5 12.4142 4.83579 12.75 5.25 12.75H10.25C10.6642 12.75 11 12.4142 11 12C11 11.5858 10.6642 11.25 10.25 11.25H5.25ZM4.5 15C4.5 14.5858 4.83579 14.25 5.25 14.25H10.25C10.6642 14.25 11 14.5858 11 15C11 15.4142 10.6642 15.75 10.25 15.75H5.25C4.83579 15.75 4.5 15.4142 4.5 15ZM13.6308 12.9359C14.282 12.4734 15.1708 12.1979 16.1538 12.1979C17.1367 12.1979 18.0255 12.4734 18.6767 12.9359C19.3278 13.3983 19.7582 14.0636 19.7582 14.8284V14.9013C19.7582 15.5095 19.2651 16.0026 18.6568 16.0026H13.6507C13.0424 16.0026 12.5493 15.5095 12.5493 14.9013V14.8284C12.5493 14.0636 12.9798 13.3983 13.6308 12.9359Z" fill="#161823"/>
</svg>
