<svg width="20" height="20" viewBox="0 0 20 20" fill="none" xmlns="http://www.w3.org/2000/svg">
<path d="M10.2878 3.125C10.2878 2.71079 10.6236 2.375 11.0378 2.375H16.8751C17.2893 2.375 17.6251 2.71079 17.6251 3.125V8.96222C17.6251 9.37643 17.2893 9.71222 16.8751 9.71222C16.4608 9.71222 16.1251 9.37643 16.1251 8.96222V4.93556L12.2405 8.82015C12.9265 9.7277 13.3333 10.858 13.3333 12.0833C13.3333 15.0749 10.9082 17.5 7.91667 17.5C4.92512 17.5 2.5 15.0749 2.5 12.0833C2.5 9.0918 4.92512 6.66667 7.91667 6.66667C9.14197 6.66667 10.2723 7.07352 11.1798 7.7595L15.0643 3.875H11.0378C10.6236 3.875 10.2878 3.53921 10.2878 3.125ZM7.91667 16C10.0798 16 11.8333 14.2465 11.8333 12.0833C11.8333 9.92022 10.0798 8.16667 7.91667 8.16667C5.75355 8.16667 4 9.92022 4 12.0833C4 14.2465 5.75355 16 7.91667 16Z" fill="#161823"/>
</svg>
