<svg width="20" height="20" viewBox="0 0 20 20" fill="none" xmlns="http://www.w3.org/2000/svg">
<path d="M15.0152 2.85596H3.9002C2.40903 2.85596 1.2002 4.06479 1.2002 5.55596V12.5845C1.2002 14.0757 2.40903 15.2845 3.9002 15.2845H10.663V13.7845H3.9002C3.23745 13.7845 2.7002 13.2473 2.7002 12.5845V5.55596C2.7002 4.89322 3.23745 4.35596 3.9002 4.35596H15.0152C15.678 4.35596 16.2152 4.89322 16.2152 5.55596V6H17C17.5 6 17.7152 6.06641 17.7152 6.06641V5.55596C17.7152 4.06479 16.5064 2.85596 15.0152 2.85596Z" fill="#161823"/>
<path d="M5.58911 16.502H10.7378C10.8502 17.0561 11.0847 17.5659 11.4121 18.002H5.58911C5.1749 18.002 4.83911 17.6662 4.83911 17.252C4.83911 16.8377 5.1749 16.502 5.58911 16.502Z" fill="#161823"/>
<path d="M14.413 7.5C13.1703 7.5 12.163 8.50736 12.163 9.75V15.7527C12.163 16.9953 13.1703 18.0027 14.413 18.0027H17.1839C18.4266 18.0027 19.4339 16.9953 19.4339 15.7527V9.75C19.4339 8.50736 18.4266 7.5 17.1839 7.5H14.413ZM13.663 9.75C13.663 9.33579 13.9988 9 14.413 9H14.4796V9.36667C14.4796 9.73486 14.7781 10.0333 15.1463 10.0333H16.4796C16.8478 10.0333 17.1463 9.73487 17.1463 9.36668V9H17.1839C17.5981 9 17.9339 9.33579 17.9339 9.75V15.7527C17.9339 16.1669 17.5981 16.5027 17.1839 16.5027H14.413C13.9988 16.5027 13.663 16.1669 13.663 15.7527V9.75Z" fill="#161823"/>
</svg>
