<svg width="24" height="24" viewBox="0 0 24 24" fill="none" xmlns="http://www.w3.org/2000/svg">
<path d="M1 7.75C1 5.67893 2.67893 4 4.75 4H19.25C21.3211 4 23 5.67893 23 7.75V16.25C23 18.3211 21.3211 20 19.25 20H17.3113C17.2219 19.8578 17.1124 19.7219 16.9817 19.595L13.7406 16.4515C12.7708 15.5109 11.2292 15.5109 10.2595 16.4515L7.01838 19.595C6.88762 19.7219 6.77815 19.8578 6.68879 20H4.75C2.67893 20 1 18.3211 1 16.25V7.75ZM15.5804 14.2542L13.8576 8.83243C13.6963 8.30236 13.4428 8.06036 13.0394 8.06036C12.59 8.06036 12.2616 8.34845 12.2616 8.76329C12.2616 8.92462 12.3077 9.14933 12.3884 9.38556L14.3301 14.9744C14.5836 15.7292 14.9581 16.0576 15.6092 16.0576C16.2487 16.0576 16.6117 15.735 16.8652 14.9744L18.8127 9.38556C18.8818 9.17238 18.9337 8.9131 18.9337 8.75753C18.9337 8.34269 18.611 8.06036 18.1674 8.06036C17.7525 8.06036 17.5163 8.28507 17.355 8.83243L15.6553 14.2542H15.5804ZM8.97766 15.2279V9.44318H10.6486C11.0404 9.44318 11.3169 9.17238 11.3169 8.7921C11.3169 8.40607 11.0404 8.13527 10.6486 8.13527H5.75686C5.37083 8.13527 5.0885 8.41183 5.0885 8.7921C5.0885 9.16661 5.37083 9.44318 5.75686 9.44318H7.422V15.2279C7.422 15.7465 7.71585 16.0576 8.19983 16.0576C8.67805 16.0576 8.97766 15.7407 8.97766 15.2279Z" fill="#161823"/>
<path d="M12.6962 17.5282L15.9373 20.6718C16.3242 21.047 16.0586 21.7025 15.5196 21.7025H8.48042C7.94144 21.7025 7.67579 21.047 8.06269 20.6718L11.3038 17.5282C11.4493 17.3871 11.6269 17.299 11.8126 17.2637C11.9736 17.2331 12.1407 17.2423 12.298 17.2913C12.4431 17.3365 12.58 17.4154 12.6962 17.5282Z" fill="#161823"/>
</svg>
