<svg width="20" height="20" viewBox="0 0 20 20" fill="none" xmlns="http://www.w3.org/2000/svg">
<path d="M7.81208 6.92802C7.81208 4.02405 10.1662 1.66992 13.0702 1.66992C15.9741 1.66992 18.3283 4.02405 18.3283 6.92802C18.3283 9.83198 15.9741 12.1861 13.0702 12.1861C12.503 12.1861 11.9558 12.0961 11.4427 11.9292L10.9214 12.4504L10.9234 14.4411C10.9236 14.6401 10.8446 14.8311 10.704 14.9719C10.5633 15.1127 10.3724 15.1918 10.1734 15.1918H8.62821V16.7418C8.62821 17.1561 8.29243 17.4918 7.87821 17.4918H5.87776L5.23186 18.1184C5.09192 18.2541 4.90463 18.33 4.70967 18.33L2.41732 18.33C2.00339 18.33 1.66772 17.9947 1.66732 17.5808L1.66504 15.2602C1.66484 15.061 1.74388 14.87 1.88471 14.7291L8.06642 8.5475C7.90119 8.03669 7.81208 7.4922 7.81208 6.92802ZM14 7.25C14.6904 7.25 15.25 6.69036 15.25 6C15.25 5.30964 14.6904 4.75 14 4.75C13.3096 4.75 12.75 5.30964 12.75 6C12.75 6.69036 13.3096 7.25 14 7.25Z" fill="#161823"/>
</svg>
