<svg width="16" height="16" viewBox="0 0 16 16" fill="none" xmlns="http://www.w3.org/2000/svg">
<path d="M7.99967 14.6668C11.6816 14.6668 14.6663 11.6821 14.6663 8.00016C14.6663 4.31826 11.6816 1.3335 7.99967 1.3335C4.31778 1.3335 1.33301 4.31826 1.33301 8.00016C1.33301 11.6821 4.31778 14.6668 7.99967 14.6668ZM5.66626 9.00015C5.11398 9.00015 4.66626 8.55244 4.66626 8.00015C4.66626 7.44787 5.11398 7.00015 5.66626 7.00015C6.21854 7.00015 6.66626 7.44787 6.66626 8.00015C6.66626 8.55244 6.21854 9.00015 5.66626 9.00015ZM7.12764 5.69023C7.36195 5.45592 7.74185 5.45592 7.97617 5.69023C8.27951 5.99357 8.52013 6.35368 8.68429 6.75001C8.84846 7.14635 8.93295 7.57113 8.93295 8.00011C8.93295 8.4291 8.84846 8.85388 8.68429 9.25021C8.52013 9.64654 8.27951 10.0067 7.97617 10.31C7.74185 10.5443 7.36195 10.5443 7.12764 10.31C6.89333 10.0757 6.89333 9.69578 7.12764 9.46147C7.31955 9.26956 7.47178 9.04173 7.57564 8.79099C7.6795 8.54025 7.73295 8.27151 7.73295 8.00011C7.73295 7.72872 7.6795 7.45997 7.57564 7.20924C7.47178 6.9585 7.31955 6.73067 7.12764 6.53876C6.89333 6.30445 6.89333 5.92455 7.12764 5.69023ZM9.62607 4.04033C10.1461 4.56034 10.5586 5.17768 10.84 5.8571C11.1214 6.53652 11.2663 7.26473 11.2663 8.00013C11.2663 8.73553 11.1214 9.46373 10.84 10.1432C10.5586 10.8226 10.1461 11.4399 9.62607 11.9599C9.39176 12.1942 9.01186 12.1942 8.77754 11.9599C8.54323 11.7256 8.54323 11.3457 8.77754 11.1114C9.18612 10.7028 9.51022 10.2178 9.73134 9.68394C9.95247 9.1501 10.0663 8.57794 10.0663 8.00013C10.0663 7.42231 9.95247 6.85015 9.73135 6.31632C9.51022 5.78249 9.18612 5.29744 8.77755 4.88886C8.54323 4.65454 8.54323 4.27464 8.77755 4.04033C9.01186 3.80601 9.39176 3.80602 9.62607 4.04033Z" fill="#161823"/>
</svg>
