<svg width="24" height="24" viewBox="0 0 24 24" fill="none" xmlns="http://www.w3.org/2000/svg">
<path d="M5.25 11.25C4.83579 11.25 4.5 11.5858 4.5 12C4.5 12.4142 4.83579 12.75 5.25 12.75H10.25C10.6642 12.75 11 12.4142 11 12C11 11.5858 10.6642 11.25 10.25 11.25H5.25Z" fill="#161823"/>
<path d="M4.5 9C4.5 8.58579 4.83579 8.25 5.25 8.25H10.25C10.6642 8.25 11 8.58579 11 9C11 9.41421 10.6642 9.75 10.25 9.75H5.25C4.83579 9.75 4.5 9.41421 4.5 9Z" fill="#161823"/>
<path d="M5.25 14.25C4.83579 14.25 4.5 14.5858 4.5 15C4.5 15.4142 4.83579 15.75 5.25 15.75H10.25C10.6642 15.75 11 15.4142 11 15C11 14.5858 10.6642 14.25 10.25 14.25H5.25Z" fill="#161823"/>
<path d="M16.1537 7.99261C15.2301 7.99261 14.5518 8.84129 14.5518 9.79484C14.5518 10.7484 15.2301 11.5971 16.1537 11.5971C17.0774 11.5971 17.7557 10.7484 17.7557 9.79484C17.7557 8.84129 17.0774 7.99261 16.1537 7.99261Z" fill="#161823"/>
<path d="M16.1538 12.1979C15.1708 12.1979 14.282 12.4734 13.6308 12.9359C12.9798 13.3983 12.5493 14.0636 12.5493 14.8285V14.9013C12.5493 15.5095 13.0424 16.0026 13.6507 16.0026H18.6568C19.2651 16.0026 19.7582 15.5095 19.7582 14.9013V14.8285C19.7582 14.0636 19.3278 13.3983 18.6767 12.9359C18.0255 12.4734 17.1367 12.1979 16.1538 12.1979Z" fill="#161823"/>
<path d="M1 7.75C1 5.67893 2.67893 4 4.75 4H19.25C21.3211 4 23 5.67893 23 7.75V16.25C23 18.3211 21.3211 20 19.25 20H4.75C2.67893 20 1 18.3211 1 16.25V7.75ZM4.75 5.5C3.50736 5.5 2.5 6.50736 2.5 7.75V16.25C2.5 17.4926 3.50736 18.5 4.75 18.5H19.25C20.4926 18.5 21.5 17.4926 21.5 16.25V7.75C21.5 6.50736 20.4926 5.5 19.25 5.5H4.75Z" fill="#161823"/>
</svg>
