<svg width="24" height="24" viewBox="0 0 24 24" fill="none" xmlns="http://www.w3.org/2000/svg">
<path d="M13.2645 2.80277C12.8271 1.63321 11.1728 1.6332 10.7355 2.80277L8.75577 8.09721L8.70724 8.09933L3.53033 2.92243C3.23744 2.62954 2.76256 2.62954 2.46967 2.92243C2.17678 3.21532 2.17678 3.6902 2.46967 3.98309L20.4697 21.9831C20.7626 22.276 21.2374 22.276 21.5303 21.9831C21.8232 21.6902 21.8232 21.2153 21.5303 20.9224L18.1598 17.5519L17.2492 14.2681L21.6728 10.7492C22.65 9.97183 22.1387 8.39848 20.8913 8.34397L15.2442 8.09721L13.2645 2.80277Z" fill="#161823"/>
<path d="M3.1087 8.34397L4.6422 8.27696L17.5069 21.1416C17.6176 21.2523 17.5612 21.4359 17.4048 21.4297C17.1737 21.4206 16.9368 21.3492 16.7136 21.2015L12 18.0819L7.28636 21.2015C6.2451 21.8907 4.90673 20.9183 5.24037 19.715L6.75074 14.2681L2.3272 10.7492C1.35001 9.97183 1.86123 8.39848 3.1087 8.34397Z" fill="#161823"/>
</svg>
