<svg width="20" height="20" viewBox="0 0 20 20" fill="none" xmlns="http://www.w3.org/2000/svg">
<path d="M3.94824 3.20824C3.74933 3.20824 3.55856 3.28725 3.41791 3.42791C3.27726 3.56856 3.19824 3.75932 3.19824 3.95824V13.5417C3.19824 13.9559 3.53403 14.2917 3.94824 14.2917C4.36246 14.2917 4.69824 13.9559 4.69824 13.5417V5.75871L16.3484 17.4089C16.6413 17.7018 17.1161 17.7018 17.409 17.4089C17.7019 17.116 17.7019 16.6411 17.409 16.3482L5.76909 4.70824H13.5397C13.9539 4.70824 14.2897 4.37245 14.2897 3.95824C14.2897 3.54402 13.9539 3.20824 13.5397 3.20824H3.94824Z" fill="#161823"/>
</svg>
