<svg width="24" height="24" viewBox="0 0 24 24" fill="none" xmlns="http://www.w3.org/2000/svg">
<path d="M6 3C4.34315 3 3 4.34315 3 6V18.5H2C1.30964 18.5 0.75 19.0596 0.75 19.75C0.75 20.4404 1.30964 21 2 21H22C22.6904 21 23.25 20.4404 23.25 19.75C23.25 19.0596 22.6904 18.5 22 18.5H21V10C21 8.34315 19.6569 7 18 7H16.5V18.5H15V6C15 4.34315 13.6569 3 12 3H6ZM12 13C12 13.4142 11.6642 13.75 11.25 13.75H6.75C6.33579 13.75 6 13.4142 6 13C6 12.5858 6.33579 12.25 6.75 12.25H11.25C11.6642 12.25 12 12.5858 12 13ZM6.75 8.25H11.25C11.6642 8.25 12 8.58579 12 9C12 9.41421 11.6642 9.75 11.25 9.75H6.75C6.33579 9.75 6 9.41421 6 9C6 8.58579 6.33579 8.25 6.75 8.25Z" fill="#161823"/>
</svg>
