<svg width="12" height="12" viewBox="0 0 12 12" fill="none" xmlns="http://www.w3.org/2000/svg">
<path d="M8.11889 4.77556C8.61398 4.77556 9.01534 4.3748 9.01534 3.88044C9.01534 3.38608 8.61398 2.98532 8.11889 2.98532C7.62379 2.98532 7.22243 3.38608 7.22243 3.88044C7.22243 4.3748 7.62379 4.77556 8.11889 4.77556Z" fill="#161823"/>
<path fill-rule="evenodd" clip-rule="evenodd" d="M10.5319 5.83037C10.8316 5.53183 11 5.1265 11 4.7038L11 2.09428C11 1.49006 10.5095 1.00024 9.90433 1.00024H7.3479C6.92577 1.00024 6.52087 1.16748 6.22209 1.46524L1.46788 6.20314C0.843752 6.82513 0.844083 7.83496 1.46862 8.45654L3.55794 10.536C4.18009 11.1552 5.18673 11.155 5.8086 10.5355L10.5319 5.83037ZM9.80473 4.7038C9.80473 4.80948 9.76262 4.91081 9.6877 4.98545L4.96442 9.69056C4.80895 9.84543 4.55729 9.84549 4.40175 9.69069L2.31243 7.61124C2.15629 7.45585 2.15621 7.20339 2.31224 7.04789L7.06645 2.30999C7.14115 2.23555 7.24237 2.19374 7.3479 2.19374L9.80472 2.19374L9.80473 4.7038Z" fill="#161823"/>
</svg>
