<svg width="20" height="21" viewBox="0 0 20 21" fill="none" xmlns="http://www.w3.org/2000/svg">
<path d="M12.7493 5.41666C12.7493 7.48772 11.2569 9.16666 9.41597 9.16666C7.57503 9.16666 6.08264 7.48772 6.08264 5.41666C6.08264 3.34559 7.57503 1.66666 9.41597 1.66666C11.2569 1.66666 12.7493 3.34559 12.7493 5.41666ZM11.2493 5.41666C11.2493 4.00304 10.2673 3.16666 9.41597 3.16666C8.56466 3.16666 7.58264 4.00304 7.58264 5.41666C7.58264 6.83027 8.56466 7.66666 9.41597 7.66666C10.2673 7.66666 11.2493 6.83027 11.2493 5.41666Z" fill="#161823"/>
<path d="M16.7501 5.00168C17.1643 5.00168 17.5001 5.33747 17.5001 5.75168V7.25167H19.0001C19.4143 7.25167 19.7501 7.58746 19.7501 8.00167C19.7501 8.41589 19.4143 8.75168 19.0001 8.75168H17.5001V10.2517C17.5001 10.6659 17.1643 11.0017 16.7501 11.0017C16.3359 11.0017 16.0001 10.6659 16.0001 10.2517V8.75168H14.5001C14.0859 8.75168 13.7501 8.41589 13.7501 8.00167C13.7501 7.58746 14.0859 7.25167 14.5001 7.25167H16.0001V5.75168C16.0001 5.33747 16.3359 5.00168 16.7501 5.00168Z" fill="#161823"/>
<path d="M9.41602 10.16C8.65926 10.16 7.92266 10.2317 7.22321 10.3695L3.2409 6.38718C2.94801 6.09429 2.47313 6.09429 2.18024 6.38718C1.88735 6.68007 1.88735 7.15495 2.18024 7.44784L3.22699 8.49459C3.23167 8.49904 3.23631 8.50356 3.2409 8.50815L14.557 19.8243C14.8509 20.1035 15.3155 20.099 15.6038 19.8107C15.8967 19.5178 15.8967 19.043 15.6038 18.7501L15.3686 18.5148C16.3989 18.2727 17.166 17.3476 17.166 16.2433V15.5994C17.166 13.8269 16.0522 12.4291 14.6633 11.5474C13.2606 10.657 11.4082 10.16 9.41602 10.16ZM8.55006 11.6963C8.83247 11.6724 9.1215 11.66 9.41602 11.66C12.9316 11.66 15.666 13.4237 15.666 15.5994V16.2433C15.666 16.7036 15.2929 17.0767 14.8327 17.0767H13.9304L8.55006 11.6963Z" fill="#161823"/>
<path d="M11.1881 18.5767L9.6881 17.0767H3.99935C3.53911 17.0767 3.16602 16.7036 3.16602 16.2433V15.5994C3.16602 14.4228 3.96573 13.3667 5.25625 12.6448L4.16271 11.5513C2.77661 12.4332 1.66602 13.8295 1.66602 15.5994V16.2433C1.66602 17.532 2.71068 18.5767 3.99935 18.5767H11.1881Z" fill="#161823"/>
</svg>
