<svg width="24" height="24" viewBox="0 0 24 24" fill="none" xmlns="http://www.w3.org/2000/svg">
<path d="M7.5 6.5C7.5 4.01472 9.51472 2 12 2C14.4853 2 16.5 4.01472 16.5 6.5V11.5C16.5 13.9853 14.4853 16 12 16C9.51472 16 7.5 13.9853 7.5 11.5V6.5Z" fill="#161823"/>
<path d="M11.2509 18.9631C7.46047 18.5872 4.5 15.3893 4.5 11.5V11C4.5 10.5858 4.83579 10.25 5.25 10.25C5.66421 10.25 6 10.5858 6 11V11.5C6 14.8137 8.68629 17.5 12 17.5C15.3137 17.5 18 14.8137 18 11.5V11C18 10.5858 18.3358 10.25 18.75 10.25C19.1642 10.25 19.5 10.5858 19.5 11V11.5C19.5 15.3893 16.5395 18.5872 12.7491 18.9631C12.7497 18.9753 12.75 18.9876 12.75 19V20.5H15C15.4142 20.5 15.75 20.8358 15.75 21.25C15.75 21.6642 15.4142 22 15 22H9C8.58579 22 8.25 21.6642 8.25 21.25C8.25 20.8358 8.58579 20.5 9 20.5H11.25V19C11.25 18.9876 11.2503 18.9753 11.2509 18.9631Z" fill="#161823"/>
</svg>
