<svg width="24" height="24" viewBox="0 0 24 24" fill="none" xmlns="http://www.w3.org/2000/svg">
<path d="M14.2519 3.64844C14.2519 3.23422 14.5877 2.89844 15.0019 2.89844H20.2505C20.6647 2.89844 21.0005 3.23422 21.0005 3.64844V8.89844C21.0005 9.31265 20.6647 9.64844 20.2505 9.64844C19.8363 9.64844 19.5005 9.31265 19.5005 8.89844V5.4591L14.8173 10.1423C14.5244 10.4352 14.0495 10.4352 13.7566 10.1423C13.4637 9.84942 13.4637 9.37455 13.7566 9.08166L18.4399 4.39844H15.0019C14.5877 4.39844 14.2519 4.06265 14.2519 3.64844Z" fill="#161823"/>
<path d="M15.5777 22.1137C12.892 22.1137 9.5977 20.0233 6.73337 17.159C3.86903 14.2946 1.81835 11.04 1.81835 8.35427C1.81835 6.67887 2.98333 4.37753 4.92744 4.39844C5.43681 4.40505 5.90648 4.59689 6.23062 5.05333L8.24161 7.88459C8.86585 8.74791 8.7718 9.50044 8.03654 10.2594L7.36841 10.9408C7.18488 11.1488 7.21081 11.4173 7.33534 11.6486C8.3706 13.529 10.4232 15.4407 12.2371 16.5636C12.4628 16.6926 12.7712 16.7307 12.9714 16.5305L13.6395 15.8624C14.384 15.118 15.1522 15.0321 16.0077 15.6507L18.8787 17.6882C19.3153 18.0057 19.5071 18.4621 19.5005 18.9318C19.5005 20.8536 17.2684 22.1137 15.5777 22.1137Z" fill="#161823"/>
</svg>
