<svg width="16" height="16" viewBox="0 0 16 16" fill="none" xmlns="http://www.w3.org/2000/svg">
<path fill-rule="evenodd" clip-rule="evenodd" d="M8.00001 0.249907C8.00001 0.0351294 7.74088 -0.0792228 7.57617 0.0628828L5.94842 1.4673C5.79498 1.59969 5.79498 1.83364 5.94842 1.96603L7.57617 3.37045C7.74087 3.51255 8.00001 3.39821 8.00001 3.18343L8.00001 2.49999C9.20582 2.49999 10.3782 2.89625 11.3368 3.6278C12.2953 4.35934 12.9869 5.38562 13.3051 6.54869C13.6233 7.71176 13.5504 8.94717 13.0977 10.0648C12.645 11.1824 11.8376 12.1203 10.7997 12.7341C9.76185 13.3479 8.551 13.6036 7.35355 13.4619C6.1561 13.3201 5.03841 12.7888 4.17249 11.9497C3.30657 11.1105 2.7404 10.0101 2.56113 8.81769C2.38186 7.62528 2.59942 6.407 3.18032 5.35034C3.37987 4.98737 3.24739 4.53135 2.88441 4.3318C2.52143 4.13225 2.06541 4.26474 1.86586 4.62771C1.12653 5.97255 0.849642 7.52309 1.0778 9.0407C1.30597 10.5583 2.02654 11.9589 3.12862 13.0269C4.2307 14.0949 5.65322 14.7711 7.17725 14.9515C8.70128 15.1319 10.2423 14.8064 11.5633 14.0252C12.8842 13.244 13.9119 12.0503 14.488 10.6279C15.0641 9.20549 15.1569 7.63315 14.7519 6.15288C14.347 4.67261 13.4668 3.36643 12.2468 2.43538C11.0268 1.50433 9.53467 0.999991 8.00001 0.999991L8.00001 0.249907Z" fill="#161823"/>
</svg>
