<svg width="24" height="24" viewBox="0 0 24 24" fill="none" xmlns="http://www.w3.org/2000/svg">
<path d="M3.5 12C3.5 7.30558 7.30558 3.5 12 3.5C16.6944 3.5 20.5 7.30558 20.5 12C20.5 12.6724 20.4219 13.3265 20.2744 13.9538C20.259 14.0192 20.3101 14.0816 20.3772 14.0782C20.8003 14.0567 21.2331 14.0288 21.6555 13.9926C21.7437 13.985 21.8163 13.92 21.8324 13.833C21.9425 13.2387 22 12.6261 22 12C22 6.47715 17.5228 2 12 2C6.47715 2 2 6.47715 2 12C2 17.5228 6.47715 22 12 22C13.1078 22 14.1736 21.8199 15.1696 21.4873C15.2502 21.4603 15.3038 21.3844 15.3038 21.2994V19.9848C15.3038 19.9132 15.2308 19.8648 15.1644 19.8914C14.1864 20.284 13.1184 20.5 12 20.5C7.30558 20.5 3.5 16.6944 3.5 12Z" fill="#161823"/>
<path d="M23.9922 15.9137C24.0496 16.296 23.7863 16.6525 23.404 16.71C22.6569 16.8223 21.8126 16.8976 20.9898 16.9481V17.847H23.076C23.4626 17.847 23.776 18.1604 23.776 18.547V21.7776C23.776 22.4403 23.2388 22.9776 22.576 22.9776H22.1706C21.784 22.9776 21.4706 22.6642 21.4706 22.2776C21.4706 21.891 21.784 21.5776 22.1706 21.5776H22.376V19.247H20.9898V23.3C20.9898 23.6866 20.6764 24 20.2898 24C19.9032 24 19.5898 23.6866 19.5898 23.3V19.247H18.2038V22.2776C18.2038 22.6642 17.8904 22.9776 17.5038 22.9776C17.1172 22.9776 16.8038 22.6642 16.8038 22.2776V18.547C16.8038 18.1604 17.1172 17.847 17.5038 17.847H19.5898V17.0136C18.4954 17.0506 17.5907 17.0505 17.2339 17.0505H17.2251C16.8385 17.0505 16.5251 16.7371 16.5251 16.3505C16.5251 15.9639 16.8385 15.6505 17.2251 15.6505C17.9779 15.6505 21.0437 15.6492 23.1959 15.3256C23.5782 15.2681 23.9347 15.5314 23.9922 15.9137Z" fill="#161823"/>
<path d="M13.1953 6.22614C13.6295 6.22614 13.9828 6.57196 13.995 7.00317C13.9953 7.0118 13.9954 7.02046 13.9954 7.02915C13.9954 8.46308 15.1578 9.6255 16.5918 9.6255C17.0336 9.6255 17.3918 9.98367 17.3918 10.4255C17.3918 10.8673 17.0336 11.2255 16.5918 11.2255C15.6114 11.2255 14.5 10.75 13.9953 10V14.1918C13.9953 15.9818 12.5442 17.4329 10.7542 17.4329C8.96416 17.4329 7.51306 15.9818 7.51306 14.1918C7.51306 12.4017 8.96416 10.9506 10.7542 10.9506C11.196 10.9506 11.5542 11.3088 11.5542 11.7506C11.5542 12.1925 11.196 12.5506 10.7542 12.5506C9.84782 12.5506 9.11306 13.2854 9.11306 14.1918C9.11306 15.0981 9.84782 15.8329 10.7542 15.8329C11.6606 15.8329 12.3953 15.0981 12.3953 14.1918V7.02614C12.3953 6.58431 12.7535 6.22614 13.1953 6.22614Z" fill="#161823"/>
</svg>
