<svg width="24" height="24" viewBox="0 0 24 24" fill="none" xmlns="http://www.w3.org/2000/svg">
<path d="M19.2666 0.649902C19.6808 0.649902 20.0166 0.985689 20.0166 1.3999V3.9834L22.5999 3.9834C23.0141 3.9834 23.3499 4.31918 23.3499 4.7334C23.3499 5.14761 23.0141 5.4834 22.5999 5.4834H19.5773L12.5303 12.5304C12.2374 12.8233 11.7626 12.8233 11.4697 12.5304C11.1768 12.2375 11.1768 11.7626 11.4697 11.4697L18.5166 4.4228V1.3999C18.5166 0.985689 18.8524 0.649902 19.2666 0.649902Z" fill="#161823"/>
<path d="M20.5 12C20.5 16.6944 16.6944 20.5 12 20.5C7.30558 20.5 3.5 16.6944 3.5 12C3.5 7.30558 7.30558 3.5 12 3.5C13.5301 3.5 14.9658 3.90431 16.2061 4.61193L17.2997 3.51828C15.7632 2.55618 13.9466 2 12 2C6.47715 2 2 6.47715 2 12C2 17.5228 6.47715 22 12 22C17.5228 22 22 17.5228 22 12C22 10.0534 21.4438 8.23678 20.4817 6.70026L19.3881 7.79391C20.0957 9.03417 20.5 10.4699 20.5 12Z" fill="#161823"/>
<path d="M15.7854 11.3963C15.8165 11.5931 15.8327 11.7948 15.8327 12.0003C15.8327 14.1174 14.1164 15.8337 11.9993 15.8337C9.88226 15.8337 8.16602 14.1174 8.16602 12.0003C8.16602 9.88323 9.88226 8.16699 11.9993 8.16699C12.2049 8.16699 12.4066 8.18317 12.6034 8.21431L13.8287 6.989C13.2581 6.78066 12.642 6.66699 11.9993 6.66699C9.05383 6.66699 6.66602 9.05481 6.66602 12.0003C6.66602 14.9458 9.05383 17.3337 11.9993 17.3337C14.9449 17.3337 17.3327 14.9458 17.3327 12.0003C17.3327 11.3577 17.219 10.7415 17.0107 10.171L15.7854 11.3963Z" fill="#161823"/>
</svg>
