<svg width="24" height="24" viewBox="0 0 24 24" fill="none" xmlns="http://www.w3.org/2000/svg">
<path d="M21.3548 2.29036C20.9642 1.89984 20.3311 1.89984 19.9405 2.29036L10.4653 11.7656C10.1852 12.0457 9.9634 12.3784 9.81259 12.7447L9.16913 14.3074C9.03375 14.6361 9.36252 14.9649 9.6913 14.8295L11.254 14.1861C11.6202 14.0353 11.953 13.8134 12.2331 13.5334L21.7083 4.05813C22.0988 3.6676 22.0988 3.03444 21.7083 2.64391L21.3548 2.29036Z" fill="#161823"/>
<path d="M16.5 3C16.6942 3 16.8856 3.01231 17.0734 3.03619L9.40465 10.7049C8.98454 11.125 8.65179 11.6242 8.42558 12.1735L7.78211 13.7362C7.13906 15.2979 8.70074 16.8596 10.2624 16.2166L11.8251 15.5731C12.3745 15.3469 12.8736 15.0141 13.2937 14.594L20.9635 6.92424C20.9876 7.11276 21 7.30493 21 7.5V16.5C21 18.9853 18.9853 21 16.5 21H7.5C5.01472 21 3 18.9853 3 16.5V7.5C3 5.01472 5.01472 3 7.5 3H16.5Z" fill="#161823"/>
</svg>
