<svg width="12" height="12" viewBox="0 0 12 12" fill="none" xmlns="http://www.w3.org/2000/svg">
<path d="M9.01192 5.81944C9.32641 6.08901 9.79989 6.05259 10.0695 5.73809C10.339 5.4236 10.3026 4.95012 9.98811 4.68056L6.48811 1.68056C6.20724 1.43981 5.79279 1.43981 5.51192 1.68056L2.01192 4.68056C1.69743 4.95012 1.661 5.4236 1.93057 5.73809C2.20014 6.05259 2.67361 6.08901 2.98811 5.81944L6.00001 3.23781L9.01192 5.81944Z" fill="#161823"/>
<path d="M9.01224 9.81975C9.32689 10.0891 9.80034 10.0525 10.0697 9.7378C10.3391 9.42316 10.3024 8.9497 9.98779 8.68031L6.48777 5.6837C6.20701 5.44332 5.79298 5.44332 5.51222 5.6837L2.01224 8.68032C1.69759 8.94971 1.66091 9.42316 1.9303 9.73781C2.19969 10.0525 2.67315 10.0891 2.98779 9.81974L6 7.24075L9.01224 9.81975Z" fill="#161823"/>
</svg>
