<svg width="20" height="20" viewBox="0 0 20 20" fill="none" xmlns="http://www.w3.org/2000/svg">
<path d="M3.75078 3.02979H15.3125C16.8036 3.02979 18.0125 4.23862 18.0125 5.72979V6.08022C17.7623 6.02765 17.503 6 17.2372 6H16.5125V5.72979C16.5125 5.06704 15.9752 4.52979 15.3125 4.52979H3.75078C3.08804 4.52979 2.55078 5.06704 2.55078 5.72979V14.2893C2.55078 14.952 3.08804 15.4893 3.75078 15.4893H10.7163V15.7527C10.7163 16.186 10.7898 16.6021 10.925 16.9893H3.75078C2.25961 16.9893 1.05078 15.7804 1.05078 14.2893V5.72979C1.05078 4.23862 2.25961 3.02979 3.75078 3.02979Z" fill="#161823"/>
<path d="M10.7163 13.0366V14.5366H8.23059C7.81638 14.5366 7.48059 14.2008 7.48059 13.7866C7.48059 13.3724 7.81638 13.0366 8.23059 13.0366H10.7163Z" fill="#161823"/>
<path d="M12.2163 9.75C12.2163 8.50736 13.2236 7.5 14.4663 7.5H17.2372C18.4799 7.5 19.4872 8.50736 19.4872 9.75V15.7527C19.4872 16.9953 18.4799 18.0027 17.2372 18.0027H14.4663C13.2236 18.0027 12.2163 16.9953 12.2163 15.7527V9.75ZM14.4663 9C14.0521 9 13.7163 9.33579 13.7163 9.75V15.7527C13.7163 16.1669 14.0521 16.5027 14.4663 16.5027H17.2372C17.6514 16.5027 17.9872 16.1669 17.9872 15.7527V9.75C17.9872 9.33579 17.6514 9 17.2372 9H17.1996V9.36668C17.1996 9.73487 16.9011 10.0333 16.5329 10.0333H15.1996C14.8314 10.0333 14.5329 9.73486 14.5329 9.36667V9H14.4663Z" fill="#161823"/>
</svg>
