<svg width="24" height="24" viewBox="0 0 24 24" fill="none" xmlns="http://www.w3.org/2000/svg">
<path d="M3.25 6C3.25 5.58579 3.58579 5.25 4 5.25H20C20.4142 5.25 20.75 5.58579 20.75 6C20.75 6.41421 20.4142 6.75 20 6.75H4C3.58579 6.75 3.25 6.41421 3.25 6Z" fill="#161823"/>
<path d="M19.5267 19.6931C19.2462 19.5771 19.0632 19.3035 19.0632 19V10.5C19.0632 10.0858 19.399 9.74998 19.8132 9.74998C20.2274 9.74998 20.5632 10.0858 20.5632 10.5V17.186L21.469 16.2779C21.7615 15.9846 22.2364 15.984 22.5297 16.2765C22.8229 16.569 22.8235 17.0439 22.531 17.3371L20.3443 19.5296C20.1299 19.7445 19.8072 19.809 19.5267 19.6931Z" fill="#161823"/>
<path d="M16.5632 10.4943C16.5632 10.1912 16.3808 9.91788 16.1009 9.80163C15.8209 9.68539 15.4986 9.74906 15.2839 9.963L13.0835 12.1555C12.7901 12.4478 12.7892 12.9227 13.0816 13.2161C13.374 13.5096 13.8488 13.5104 14.1423 13.218L15.0632 12.3004V19C15.0632 19.4142 15.399 19.75 15.8132 19.75C16.2274 19.75 16.5632 19.4142 16.5632 19V10.4943Z" fill="#161823"/>
<path d="M3.25 12C3.25 11.5858 3.58579 11.25 4 11.25H10.7719V12.75H4C3.58579 12.75 3.25 12.4142 3.25 12Z" fill="#161823"/>
<path d="M4 17.25C3.58579 17.25 3.25 17.5858 3.25 18C3.25 18.4142 3.58579 18.75 4 18.75H10.772V17.25H4Z" fill="#161823"/>
</svg>
