<svg width="20" height="20" viewBox="0 0 20 20" fill="none" xmlns="http://www.w3.org/2000/svg">
<path fill-rule="evenodd" clip-rule="evenodd" d="M10.5244 2.96896C10.7568 2.00476 11.9554 1.66729 12.6567 2.36861L17.6355 7.34741C18.3369 8.04873 17.9994 9.24735 17.0352 9.47975L15.4937 9.85131C15.2664 9.9061 15.0587 10.0226 14.8933 10.1879L12.9783 12.103C12.8719 12.2093 12.8071 12.3401 12.8008 12.4904C12.7894 12.7593 12.7765 13.3451 12.7765 14.6184C12.7765 15.7736 12.3733 16.7429 11.9782 17.4156C11.6229 18.0202 10.8239 18.0325 10.328 17.5366L6.93585 14.1445L3.29498 17.7853C3.00209 18.0782 2.52721 18.0782 2.23432 17.7853C1.94143 17.4924 1.94143 17.0176 2.23432 16.7247L5.87519 13.0838L2.49538 9.70398C1.99949 9.20809 2.01177 8.40908 2.61643 8.05384C3.28905 7.65868 4.25835 7.25553 5.41354 7.25553C6.32831 7.25553 6.93253 7.23558 7.29544 7.21716C7.58403 7.20251 7.85174 7.07534 8.05607 6.87101L9.81627 5.1108C9.98159 4.94549 10.0981 4.73774 10.1528 4.51046L10.5244 2.96896ZM11.6111 4.86195L11.8864 3.71961L16.2845 8.11773L15.1422 8.39307C14.6464 8.51257 14.1933 8.76662 13.8327 9.12722L11.9176 11.0423C11.5824 11.3775 11.3263 11.8521 11.3021 12.4272C11.2893 12.7292 11.2765 13.3413 11.2765 14.6184C11.2765 15.1525 11.1522 15.6428 10.9784 16.0657L3.96627 9.05355C4.38924 8.87981 4.87952 8.75553 5.41354 8.75553C6.34972 8.75553 6.97958 8.73512 7.37148 8.71523C8.05912 8.68033 8.67021 8.37818 9.11673 7.93167L10.8769 6.17146C11.2375 5.81087 11.4916 5.35771 11.6111 4.86195Z" fill="#161823"/>
</svg>
