<svg width="20" height="20" viewBox="0 0 20 20" fill="none" xmlns="http://www.w3.org/2000/svg">
<path d="M6.82332 3.27319C7.14848 2.78986 7.69281 2.5 8.27534 2.5H11.7251C12.3077 2.5 12.852 2.78986 13.1772 3.27319L14.0876 4.6266C14.1341 4.69565 14.2118 4.73706 14.2951 4.73706H15.5249C17.0437 4.73706 18.2749 5.96828 18.2749 7.48706V14.7463C18.2749 16.2651 17.0437 17.4963 15.5249 17.4963H4.47558C2.9568 17.4963 1.72559 16.2651 1.72559 14.7463V7.48706C1.72559 5.96827 2.9568 4.73706 4.47559 4.73706H5.70542C5.78863 4.73706 5.8664 4.69565 5.91285 4.6266L6.82332 3.27319ZM6.88354 10.629C6.88354 12.3503 8.27892 13.7457 10.0002 13.7457C11.7215 13.7457 13.1169 12.3503 13.1169 10.629C13.1169 8.90771 11.7215 7.51233 10.0002 7.51233C8.27892 7.51233 6.88354 8.90771 6.88354 10.629Z" fill="#161823"/>
</svg>
