<svg width="12" height="12" viewBox="0 0 12 12" fill="none" xmlns="http://www.w3.org/2000/svg">
<path d="M1 7.19995V2.69995C1 1.87152 1.67157 1.19995 2.5 1.19995H9.5C10.3284 1.19995 11 1.87152 11 2.69995V7.19995C11 8.02838 10.3284 8.69995 9.5 8.69995H6.75V9.99993C6.75 9.99993 6.75 9.99993 6.75 9.99993L8.5 9.99994C8.91421 9.99994 9.25 10.3357 9.25 10.7499C9.25 11.1642 8.91421 11.4999 8.5 11.4999H3.5C3.08579 11.4999 2.75 11.1642 2.75 10.7499C2.75 10.3357 3.08579 9.99994 3.5 9.99994H5.25C5.25 9.99994 5.25 9.99994 5.25 9.99994V8.69995H2.5C1.67157 8.69995 1 8.02838 1 7.19995ZM2.5 2.69995V7.19995H9.5V2.69995L2.5 2.69995Z" fill="#161823"/>
</svg>
