<svg width="20" height="20" viewBox="0 0 20 20" fill="none" xmlns="http://www.w3.org/2000/svg">
<path d="M2.68684 2.67483C3.05295 2.30871 3.64655 2.30871 4.01266 2.67483L7.08156 5.74372L10.0724 3.53176C10.7324 3.04359 11.667 3.5148 11.667 4.33576V10.3292L13.1169 11.7791L13.1577 11.7383C13.386 11.51 13.5671 11.239 13.6906 10.9408C13.8141 10.6425 13.8777 10.3228 13.8777 9.99999C13.8777 9.67716 13.8141 9.35749 13.6906 9.05923C13.5671 8.76097 13.386 8.48997 13.1577 8.26169C12.816 7.91998 12.816 7.36596 13.1577 7.02425C13.4994 6.68254 14.0534 6.68254 14.3951 7.02425C14.7859 7.41503 15.0959 7.87896 15.3074 8.38953C15.5189 8.90011 15.6277 9.44735 15.6277 9.99999C15.6277 10.5526 15.5189 11.0999 15.3074 11.6105C15.0959 12.121 14.7859 12.585 14.3951 12.9757L14.3544 13.0165L15.2518 13.914L15.3651 13.8007C15.8642 13.3016 16.2601 12.7091 16.5302 12.0569C16.8003 11.4048 16.9394 10.7059 16.9394 10C16.9394 9.29416 16.8003 8.59521 16.5302 7.94309C16.2601 7.29096 15.8642 6.69843 15.3651 6.19931C15.0234 5.8576 15.0234 5.30358 15.3651 4.96187C15.7068 4.62017 16.2608 4.62017 16.6025 4.96187C17.2641 5.62349 17.7889 6.40895 18.147 7.27339C18.5051 8.13784 18.6894 9.06434 18.6894 10C18.6894 10.9357 18.5051 11.8622 18.147 12.7266C17.7889 13.5911 17.2641 14.3765 16.6025 15.0381L16.4892 15.1514L17.346 16.0082C17.7121 16.3743 17.7121 16.9679 17.346 17.334C16.9825 17.6975 16.3948 17.7001 16.0281 17.3418L3.07486 4.38858C3.07222 4.38594 3.06956 4.38331 3.0669 4.38071L2.68684 4.00065C2.32072 3.63453 2.32072 3.04094 2.68684 2.67483Z" fill="#161823"/>
<path d="M2.71717 6.68254C2.1218 6.77819 1.66699 7.29431 1.66699 7.91665V12.0833C1.66699 12.7737 2.22664 13.3333 2.91699 13.3333H5.28496C5.64135 13.3333 5.98836 13.4476 6.27505 13.6593L10.0729 16.4639C10.7331 16.9514 11.667 16.4801 11.667 15.6595V15.6324L2.71717 6.68254Z" fill="#161823"/>
</svg>
