<svg width="24" height="24" viewBox="0 0 24 24" fill="none" xmlns="http://www.w3.org/2000/svg">
<path d="M7 3.6665C7 3.11422 7.44772 2.6665 8 2.6665C8.55229 2.6665 9 3.11422 9 3.6665V5.6665C9 6.21879 8.55229 6.6665 8 6.6665C7.44772 6.6665 7 6.21879 7 5.6665V3.6665Z" fill="#161823"/>
<path d="M14.0277 3.99984C14.0095 4.10824 14 4.2196 14 4.33317V5.6665C14 6.77107 14.8954 7.6665 16 7.6665C17.1046 7.6665 18 6.77107 18 5.6665V4.33317C18 4.2245 17.9913 4.11785 17.9747 4.01388C19.6712 4.1693 21 5.59606 21 7.33317V9.11651L3 9.1165V7.33317C3 5.59606 4.32878 4.1693 6.02535 4.01388C6.00867 4.11785 6 4.2245 6 4.33317V5.6665C6 6.77107 6.89543 7.6665 8 7.6665C9.10457 7.6665 10 6.77107 10 5.6665V4.33317C10 4.2196 9.99053 4.10824 9.97235 3.99984H14.0277Z" fill="#161823"/>
<path d="M3 10.6831L21 10.6831V17.6665C21 19.5075 19.5076 20.9998 17.6667 20.9998H6.33333C4.49238 20.9998 3 19.5075 3 17.6665V10.6831Z" fill="#161823"/>
<path d="M16 2.6665C15.4477 2.6665 15 3.11422 15 3.6665V5.6665C15 6.21879 15.4477 6.6665 16 6.6665C16.5523 6.6665 17 6.21879 17 5.6665V3.6665C17 3.11422 16.5523 2.6665 16 2.6665Z" fill="#161823"/>
</svg>
