<svg width="24" height="24" viewBox="0 0 24 24" fill="none" xmlns="http://www.w3.org/2000/svg">
<path d="M3.24978 4.75073C2.55955 4.75073 2 5.31028 2 6.00051C2 6.69075 2.55955 7.25029 3.24978 7.25029C3.94001 7.25029 4.49956 6.69075 4.49956 6.00051C4.49956 5.31028 3.94001 4.75073 3.24978 4.75073Z" fill="#161823"/>
<path d="M3.24978 10.7501C2.55955 10.7501 2 11.3097 2 11.9999C2 12.6901 2.55955 13.2497 3.24978 13.2497C3.94001 13.2497 4.49956 12.6901 4.49956 11.9999C4.49956 11.3097 3.94001 10.7501 3.24978 10.7501Z" fill="#161823"/>
<path d="M2 18.0038C2 17.3135 2.55955 16.754 3.24978 16.754C3.94001 16.754 4.49956 17.3135 4.49956 18.0038C4.49956 18.694 3.94001 19.2536 3.24978 19.2536C2.55955 19.2536 2 18.694 2 18.0038Z" fill="#161823"/>
<path d="M7.49731 10.9999C6.94503 10.9999 6.49731 11.4476 6.49731 11.9999C6.49731 12.5522 6.94503 12.9999 7.49731 12.9999H20.9999C21.5522 12.9999 21.9999 12.5522 21.9999 11.9999C21.9999 11.4476 21.5522 10.9999 20.9999 10.9999H7.49731Z" fill="#161823"/>
<path d="M6.49731 6.00052C6.49731 5.44823 6.94503 5.00052 7.49731 5.00052H20.9999C21.5522 5.00052 21.9999 5.44823 21.9999 6.00052C21.9999 6.5528 21.5522 7.00052 20.9999 7.00052H7.49731C6.94503 7.00052 6.49731 6.5528 6.49731 6.00052Z" fill="#161823"/>
<path d="M7.49731 17.0038C6.94503 17.0038 6.49731 17.4515 6.49731 18.0038C6.49731 18.5561 6.94503 19.0038 7.49731 19.0038H20.9999C21.5522 19.0038 21.9999 18.5561 21.9999 18.0038C21.9999 17.4515 21.5522 17.0038 20.9999 17.0038H7.49731Z" fill="#161823"/>
</svg>
