<svg width="20" height="20" viewBox="0 0 20 20" fill="none" xmlns="http://www.w3.org/2000/svg">
<path d="M15.0689 2.85596H3.95391C2.46274 2.85596 1.25391 4.06479 1.25391 5.55596V12.5845C1.25391 14.0757 2.46274 15.2845 3.95391 15.2845H10.7167V13.7845L10.7915 9.75C10.7915 7.26562 12.5 6 14.5 6C16.5 6 16.2689 6 16.2689 6H17.2376C17.4179 6 17.5953 6.01273 17.7689 6.03735V5.55596C17.7689 4.06479 16.5601 2.85596 15.0689 2.85596Z" fill="#161823"/>
<path d="M5.64282 16.502H10.7915C10.9039 17.0561 11.1384 17.5659 11.4658 18.002H5.64282C5.22861 18.002 4.89282 17.6662 4.89282 17.252C4.89282 16.8377 5.22861 16.502 5.64282 16.502Z" fill="#161823"/>
<path d="M14.4667 7.5C13.224 7.5 12.2167 8.50736 12.2167 9.75V15.7527C12.2167 16.9953 13.224 18.0027 14.4667 18.0027H17.2376C18.4803 18.0027 19.4876 16.9953 19.4876 15.7527V9.75C19.4876 8.50736 18.4803 7.5 17.2376 7.5H14.4667ZM13.7167 9.75C13.7167 9.33579 14.0525 9 14.4667 9H14.5333V9.36667C14.5333 9.73486 14.8318 10.0333 15.2 10.0333H16.5333C16.9015 10.0333 17.2 9.73487 17.2 9.36668V9H17.2376C17.6518 9 17.9876 9.33579 17.9876 9.75V15.7527C17.9876 16.1669 17.6518 16.5027 17.2376 16.5027H14.4667C14.0525 16.5027 13.7167 16.1669 13.7167 15.7527V9.75Z" fill="#161823"/>
</svg>
