<svg width="20" height="20" viewBox="0 0 20 20" fill="none" xmlns="http://www.w3.org/2000/svg">
<path d="M10 7.5C9.14869 7.5 8.16667 6.66361 8.16667 5.25C8.16667 3.83639 9.14869 3 10 3C10.8513 3 11.8333 3.83639 11.8333 5.25C11.8333 6.66361 10.8513 7.5 10 7.5ZM10 9C11.841 9 13.3333 7.32107 13.3333 5.25C13.3333 3.17893 11.841 1.5 10 1.5C8.15906 1.5 6.66667 3.17893 6.66667 5.25C6.66667 7.32107 8.15906 9 10 9ZM10 10C8.00786 10 6.15542 10.497 4.75275 11.3874C3.36383 12.2691 2.25 13.6669 2.25 15.4394V16.0833C2.25 17.372 3.29467 18.4167 4.58333 18.4167H9.4923C9.59691 18.4167 9.68343 18.336 9.69492 18.232C9.73456 17.873 9.80973 17.5247 9.91682 17.1908C9.95962 17.0573 9.8627 16.9167 9.72252 16.9167H4.58333C4.1231 16.9167 3.75 16.5436 3.75 16.0833V15.4394C3.75 13.2637 6.48438 11.5 10 11.5C11.4571 11.5 12.78 11.803 13.8297 12.3127C13.9473 12.3698 14.0897 12.3058 14.1347 12.1831C14.2466 11.8774 14.4223 11.5965 14.6473 11.3614C14.7453 11.259 14.7298 11.086 14.6033 11.022C13.2992 10.3622 11.7005 10 10 10ZM15.8123 19.2462C15.5194 18.9533 15.5194 18.4784 15.8123 18.1855L17.4219 16.5759H15.0123C13.5888 16.5759 12.7623 17.7725 12.7623 19.0833C12.7623 19.4975 12.4265 19.8333 12.0123 19.8333C11.5981 19.8333 11.2623 19.4975 11.2623 19.0833C11.2623 16.9511 12.7688 15.0759 15.0123 15.0759H17.3694L15.8123 13.5188C15.5194 13.2259 15.5194 12.751 15.8123 12.4581C16.1052 12.1652 16.58 12.1652 16.8729 12.4581L19.7366 15.3218C20.0295 15.6147 20.0295 16.0896 19.7366 16.3825L16.8729 19.2462C16.58 19.5391 16.1052 19.5391 15.8123 19.2462Z" fill="#161823"/>
</svg>
