<svg width="24" height="24" viewBox="0 0 24 24" fill="none" xmlns="http://www.w3.org/2000/svg">
<path d="M20.8563 6.00614C22.4056 7.55542 22.1031 9.75287 21.0469 11.029C20.716 11.429 20.3578 11.7498 19.9618 12.0004C20.3578 12.2511 20.7158 12.5717 21.0467 12.9717C22.1029 14.2478 22.4056 16.4455 20.8563 17.9947C20.3302 18.5209 19.684 18.8549 19.0018 19.0025C18.8544 19.6845 18.5206 20.3305 17.9944 20.8566C16.4451 22.406 14.2474 22.1033 12.9714 21.0471C12.5714 20.7162 12.2508 20.3582 12.0002 19.9622C11.7496 20.3581 11.429 20.7161 11.029 21.047C9.75292 22.1031 7.55525 22.4058 6.00597 20.8566C5.47985 20.3304 5.14581 19.6843 4.99824 19.0021C4.31623 18.8546 3.67025 18.5208 3.14407 17.9947C1.5947 16.4453 1.89737 14.2477 2.95367 12.9716C3.28457 12.5716 3.64263 12.2509 4.03867 12.0003C3.64263 11.7497 3.28457 11.4291 2.95366 11.029C1.89737 9.75296 1.5947 7.55534 3.14407 6.00597C3.67025 5.47979 4.31623 5.14602 4.99824 4.99857C5.14581 4.31638 5.47984 3.67019 6.00597 3.14407C7.55525 1.59479 9.75269 1.89733 11.0288 2.95347C11.4288 3.28435 11.7496 3.64257 12.0002 4.03857C12.2509 3.64264 12.5714 3.28467 12.9714 2.95384C14.2474 1.89754 16.4451 1.59487 17.9944 3.14424C18.5206 3.67042 18.8544 4.3164 19.0018 4.99842C19.684 5.14598 20.3302 5.48002 20.8563 6.00614ZM19.8912 10.0727C20.56 9.26487 20.6878 7.95893 19.7957 7.0668C19.3901 6.66126 18.8595 6.44171 18.2981 6.41355C17.9135 6.39426 17.6059 6.08674 17.5866 5.70207C17.5585 5.14054 17.3392 4.61034 16.9338 4.2049C16.0416 3.31278 14.7357 3.4406 13.9278 4.10933C13.2324 4.68454 12.8893 5.34275 12.789 6.41562C12.7634 6.68932 12.754 6.98681 12.7594 7.31294C14.7798 7.6356 16.3783 9.22502 16.7032 11.2414C17.0232 11.2462 17.3156 11.2367 17.5849 11.2115C18.6578 11.1112 19.316 10.7682 19.8912 10.0727ZM16.7031 12.7595C16.378 14.7757 14.7796 16.3649 12.7594 16.6875C12.754 17.0138 12.7634 17.3114 12.789 17.5853C12.8893 18.6581 13.2321 19.3162 13.9276 19.8914C14.7355 20.5601 16.0416 20.6881 16.9338 19.796C17.3392 19.3905 17.5585 18.8603 17.5866 18.2988C17.6059 17.9141 17.9134 17.6066 18.2981 17.5873C18.8595 17.5592 19.3901 17.3396 19.7957 16.9341C20.6878 16.042 20.56 14.736 19.8912 13.9281C19.316 13.2327 18.6578 12.8896 17.5849 12.7894C17.3156 12.7642 17.0232 12.7547 16.7031 12.7595ZM11.2409 16.6875C9.22058 16.3649 7.62213 14.7756 7.29713 12.7594C6.97713 12.7545 6.68477 12.7641 6.41545 12.7892C5.34258 12.8895 4.68456 13.2324 4.10935 13.9278C3.44062 14.7357 3.31261 16.0419 4.20473 16.934C4.61017 17.3394 5.14037 17.5587 5.7019 17.5869C6.08656 17.6062 6.39409 17.9137 6.41338 18.2984C6.44154 18.8597 6.66109 19.3904 7.06663 19.7959C7.95875 20.688 9.2647 20.5602 10.0726 19.8915C10.768 19.3163 11.1111 18.6581 11.2113 17.5852C11.2369 17.3114 11.2464 17.0138 11.2409 16.6875ZM7.2971 11.2413C7.62203 9.22496 9.22052 7.63557 11.2409 7.31293C11.2464 6.98675 11.2369 6.68921 11.2113 6.41546C11.1111 5.34257 10.768 4.68437 10.0726 4.10916C9.2647 3.44043 7.95875 3.31261 7.06663 4.20473C6.66109 4.61027 6.44154 5.14091 6.41338 5.70228C6.39408 6.08695 6.08656 6.39447 5.7019 6.41376C5.14037 6.44193 4.61017 6.66119 4.20473 7.06663C3.31261 7.95875 3.44062 9.26493 4.10935 10.0728C4.68456 10.7683 5.34258 11.1111 6.41545 11.2114C6.68476 11.2366 6.97711 11.2461 7.2971 11.2413ZM12.0001 8.75293C10.1949 8.75293 8.73659 10.2097 8.73659 12.0002C8.73659 13.7908 10.1949 15.2475 12.0001 15.2475C13.8054 15.2475 15.2637 13.7908 15.2637 12.0002C15.2637 10.2097 13.8054 8.75293 12.0001 8.75293Z" fill="#161823"/>
</svg>
