<svg width="20" height="20" viewBox="0 0 20 20" fill="none" xmlns="http://www.w3.org/2000/svg">
<path d="M11.4497 8.3604C11.5686 8.80939 11.65 9.27308 11.4929 10.0759C11.4776 10.1538 11.4626 10.2271 11.4478 10.2963L17.0614 11.8784C17.0968 11.7363 17.1419 11.5915 17.2086 11.4268C17.3094 11.1779 17.478 10.9171 17.6752 10.6121L17.676 10.6109C17.7287 10.5294 17.784 10.4438 17.84 10.3554C18.2355 9.73092 18.6949 8.91865 18.9545 7.70273C19.4684 5.29648 18.2136 1.43447 15.7419 0.996828C13.2702 0.559186 11.4186 3.56395 11.1999 6.32968C11.1303 7.20888 11.2683 7.70504 11.397 8.16793C11.415 8.23239 11.4327 8.29628 11.4497 8.3604Z" fill="#161823"/>
<path d="M10.5963 12.9081C10.7276 12.2627 10.8423 11.9578 10.9542 11.7156L16.7362 13.3452C16.6605 13.609 16.5601 13.9196 16.422 14.2957C15.7794 16.0456 14.2921 16.9414 12.483 16.3747C10.6739 15.8079 10.4156 13.7965 10.5963 12.9081Z" fill="#161823"/>
<path d="M8.68902 12.5126C8.47066 11.6035 8.58241 11.1238 8.70389 10.6023C8.81288 10.1343 8.92971 9.63277 8.82296 8.7573C8.48714 6.00334 6.50984 3.07976 4.05891 3.62179C1.60799 4.16381 0.51809 8.07554 1.13348 10.4578C1.48887 11.8336 2.08249 12.6716 2.53496 13.3104C2.74489 13.6067 2.92444 13.8602 3.03571 14.1046C3.11041 14.2687 3.16198 14.4133 3.20378 14.5558L8.74417 12.7338C8.7262 12.6645 8.70783 12.5909 8.68902 12.5126Z" fill="#161823"/>
<path d="M9.29811 14.1307L3.59111 16.0075C3.6776 16.2665 3.79047 16.5706 3.94316 16.9375C4.65938 18.6586 6.1833 19.4906 7.96677 18.8476C9.75023 18.2047 9.92301 16.1842 9.70481 15.3043C9.54688 14.6674 9.41975 14.3675 9.29811 14.1307Z" fill="#161823"/>
</svg>
