<svg width="20" height="20" viewBox="0 0 20 20" fill="none" xmlns="http://www.w3.org/2000/svg">
<path d="M8.53033 5.96967C8.82322 6.26256 8.82322 6.73744 8.53033 7.03033L7.06066 8.5L8.53033 9.96967C8.82322 10.2626 8.82322 10.7374 8.53033 11.0303C8.23744 11.3232 7.76256 11.3232 7.46967 11.0303L5.46967 9.03033C5.17678 8.73744 5.17678 8.26256 5.46967 7.96967L7.46967 5.96967C7.76256 5.67678 8.23744 5.67678 8.53033 5.96967Z" fill="#161823"/>
<path d="M11.4697 7.03033C11.1768 6.73744 11.1768 6.26256 11.4697 5.96967C11.7626 5.67678 12.2374 5.67678 12.5303 5.96967L14.5303 7.96967C14.8232 8.26256 14.8232 8.73744 14.5303 9.03033L12.5303 11.0303C12.2374 11.3232 11.7626 11.3232 11.4697 11.0303C11.1768 10.7374 11.1768 10.2626 11.4697 9.96967L12.9393 8.5L11.4697 7.03033Z" fill="#161823"/>
<path d="M4.5 2.75C2.98122 2.75 1.75 3.98122 1.75 5.5V11.5C1.75 13.0188 2.98122 14.25 4.5 14.25H15.5C17.0188 14.25 18.25 13.0188 18.25 11.5V5.5C18.25 3.98122 17.0188 2.75 15.5 2.75H4.5ZM3.25 5.5C3.25 4.80964 3.80964 4.25 4.5 4.25H15.5C16.1904 4.25 16.75 4.80964 16.75 5.5V11.5C16.75 12.1904 16.1904 12.75 15.5 12.75H4.5C3.80964 12.75 3.25 12.1904 3.25 11.5V5.5Z" fill="#161823"/>
<path d="M4 16.25C3.58579 16.25 3.25 16.5858 3.25 17C3.25 17.4142 3.58579 17.75 4 17.75H16C16.4142 17.75 16.75 17.4142 16.75 17C16.75 16.5858 16.4142 16.25 16 16.25H4Z" fill="#161823"/>
</svg>
