<svg width="24" height="24" viewBox="0 0 24 24" fill="none" xmlns="http://www.w3.org/2000/svg">
<path d="M12.9001 3.1601C12.3431 2.83856 11.657 2.83856 11.1001 3.1601L4.79453 6.8006C4.23761 7.12214 3.89453 7.71637 3.89453 8.35945V15.6404C3.89453 16.2835 4.23761 16.8778 4.79453 17.1993L11.1001 20.8398C11.657 21.1613 12.3431 21.1613 12.9001 20.8398L19.2056 17.1993C19.7625 16.8778 20.1056 16.2835 20.1056 15.6405V8.35945C20.1056 7.71637 19.7625 7.12214 19.2056 6.8006L12.9001 3.1601ZM10.3501 1.86106C11.3711 1.27157 12.629 1.27157 13.6501 1.86106L19.9556 5.50156C20.9766 6.09105 21.6056 7.18047 21.6056 8.35945V15.6405C21.6056 16.8194 20.9766 17.9088 19.9556 18.4983L13.6501 22.1388C12.629 22.7283 11.3711 22.7283 10.3501 22.1388L4.04453 18.4983C3.02351 17.9088 2.39453 16.8194 2.39453 15.6404V8.35945C2.39453 7.18047 3.02351 6.09105 4.04453 5.50156L10.3501 1.86106ZM11.2462 17.977C11.2462 18.3913 11.582 18.727 11.9962 18.727C12.4104 18.727 12.7462 18.3913 12.7462 17.977V14.5616V12.8538V12.4328L13.1107 12.2223L14.5896 11.3685L17.5475 9.66074C17.9062 9.45363 18.0291 8.99494 17.822 8.63622C17.6149 8.2775 17.1562 8.15459 16.7975 8.3617L13.8396 10.0694L12.3607 10.9233L12.0001 11.1315L11.6396 10.9233L10.1606 10.0694L7.20274 8.3617C6.84402 8.15459 6.38533 8.2775 6.17822 8.63622C5.97111 8.99494 6.09402 9.45363 6.45274 9.66074L9.41061 11.3685L10.8896 12.2223L11.2462 12.4282V12.8538V14.5616V17.977Z" fill="#161823"/>
</svg>
