<svg width="16" height="16" viewBox="0 0 16 16" fill="none" xmlns="http://www.w3.org/2000/svg">
<path d="M14 8.55C14 8.96421 13.6642 9.3 13.25 9.3C12.8358 9.3 12.5 8.96421 12.5 8.55V3.50143L7.44978 3.5C7.03557 3.49988 6.69988 3.164 6.69999 2.74979C6.70011 2.33557 7.03599 1.99988 7.45021 2L13.2502 2.00165C13.6643 2.00177 14 2.33752 14 2.75165V8.55Z" fill="#161823"/>
<path d="M2 7.44999C2 7.03578 2.33579 6.69999 2.75 6.69999C3.16421 6.69999 3.5 7.03578 3.5 7.44999V12.5H8.55C8.96421 12.5 9.3 12.8358 9.3 13.25C9.3 13.6642 8.96421 14 8.55 14H2.75C2.33579 14 2 13.6642 2 13.25V7.44999Z" fill="#161823"/>
</svg>
