<svg width="20" height="20" viewBox="0 0 20 20" fill="none" xmlns="http://www.w3.org/2000/svg">
<path fill-rule="evenodd" clip-rule="evenodd" d="M10.6508 2.1836C6.06653 1.9349 2.72613 4.83439 2.46937 9.56717C2.20758 14.3928 5.33712 17.4385 9.89359 17.6857C11.0536 17.7486 12.0917 17.656 12.791 17.4613C13.3579 17.3059 13.5664 17.0659 13.584 16.7411C13.6016 16.4163 13.3992 16.2006 13.0188 16.1799C12.926 16.1749 12.8048 16.1776 12.6548 16.1974C11.8086 16.3563 11.1612 16.4514 10.2518 16.4021C6.26136 16.1856 3.69603 13.7196 3.91403 9.70139C4.12498 5.81308 6.76679 3.2666 10.5623 3.47251C13.8752 3.65225 16.4469 5.83006 16.244 9.56989C16.1383 11.5187 15.359 12.8446 14.3289 12.7887C13.6608 12.7524 13.3185 12.3709 13.3527 11.7399L13.6024 7.13698C13.6306 6.61731 13.3508 6.28568 12.8497 6.25849C12.3578 6.23181 12.0345 6.53071 12.0063 7.05039L11.9811 7.51439L11.8883 7.50935C11.5526 6.6628 10.7153 6.1427 9.69447 6.08732C7.84776 5.98713 6.4547 7.47518 6.33035 9.76733C6.20398 12.0966 7.42586 13.7637 9.33754 13.8675C10.414 13.9259 11.2784 13.4329 11.7381 12.5085L11.8309 12.5136C11.9471 13.4599 12.7897 14.0547 13.9404 14.1172C16.1026 14.2345 17.5472 12.3118 17.6977 9.53707C17.9273 5.3054 14.966 2.41771 10.6508 2.1836ZM11.787 10.0634C11.7044 11.5853 10.9009 12.5003 9.74087 12.4374C8.59016 12.375 7.96306 11.4102 8.04664 9.86975C8.12971 8.33855 8.86576 7.46637 10.0072 7.5283C11.1765 7.59173 11.8675 8.57857 11.787 10.0634Z" fill="#161823"/>
</svg>
