<svg width="20" height="20" viewBox="0 0 20 20" fill="none" xmlns="http://www.w3.org/2000/svg">
<path fill-rule="evenodd" clip-rule="evenodd" d="M16.3001 3.7666H11.7334C11.4573 3.7666 11.2334 3.99046 11.2334 4.2666V6.6666C11.2334 6.94275 11.4573 7.1666 11.7334 7.1666H16.3001C16.5762 7.1666 16.8001 6.94274 16.8001 6.6666V4.2666C16.8001 3.99046 16.5762 3.7666 16.3001 3.7666ZM11.7334 2.2666C10.6288 2.2666 9.7334 3.16203 9.7334 4.2666V6.6666C9.7334 7.77117 10.6288 8.6666 11.7334 8.6666H16.3001C17.4046 8.6666 18.3001 7.77117 18.3001 6.6666V4.2666C18.3001 3.16203 17.4046 2.2666 16.3001 2.2666H11.7334ZM8.35922 3.33327H4.7334C3.07654 3.33327 1.7334 4.67641 1.7334 6.33327V13.4666C1.7334 15.1235 3.07654 16.4666 4.7334 16.4666H14.9667C16.6236 16.4666 17.9667 15.1235 17.9667 13.4666V9.74506C17.5171 9.98902 17.008 10.1373 16.4667 10.1627V13.4666C16.4667 14.295 15.7952 14.9666 14.9667 14.9666H4.7334C3.90497 14.9666 3.2334 14.295 3.2334 13.4666V6.33327C3.2334 5.50484 3.90497 4.83327 4.7334 4.83327H8.2334V4.2666C8.2334 3.94339 8.27721 3.6304 8.35922 3.33327ZM4.66673 10.2166C4.66673 9.80239 5.00252 9.4666 5.41673 9.4666H9.7834C10.1976 9.4666 10.5334 9.80239 10.5334 10.2166C10.5334 10.6308 10.1976 10.9666 9.7834 10.9666H5.41673C5.00252 10.9666 4.66673 10.6308 4.66673 10.2166ZM4.66673 12.7833C4.66673 12.3691 5.00252 12.0333 5.41673 12.0333H8.05007C8.46428 12.0333 8.80007 12.3691 8.80007 12.7833C8.80007 13.1975 8.46428 13.5333 8.05007 13.5333H5.41673C5.00252 13.5333 4.66673 13.1975 4.66673 12.7833Z" fill="#161823"/>
</svg>
