<svg width="20" height="20" viewBox="0 0 20 20" fill="none" xmlns="http://www.w3.org/2000/svg">
<path d="M0 6.75195C0 5.23317 1.23122 4.00195 2.75 4.00195H12.25C13.7688 4.00195 15 5.23317 15 6.75195V7.37614L18.4863 6.21402C19.231 5.9658 20 6.52007 20 7.30501V12.6951C20 13.48 19.231 14.0343 18.4863 13.7861L15 12.6239V13.2481C15 14.7669 13.7688 15.9981 12.25 15.9981H2.75C1.23122 15.9981 0 14.7669 0 13.2481V6.75195ZM2.75 5.50195C2.05964 5.50195 1.5 6.0616 1.5 6.75195V13.2481C1.5 13.9385 2.05964 14.4981 2.75 14.4981H12.25C12.9404 14.4981 13.5 13.9385 13.5 13.2481V6.75195C13.5 6.0616 12.9404 5.50195 12.25 5.50195H2.75ZM15.125 8.91561V11.0845L18.5 12.2095V7.79061L15.125 8.91561Z" fill="#161823"/>
</svg>
