<svg width="24" height="24" viewBox="0 0 24 24" fill="none" xmlns="http://www.w3.org/2000/svg">
<path d="M16.5393 10.992C18.1973 10.992 19.5413 9.49865 19.5413 7.65648C19.5413 5.8143 18.1973 4.32092 16.5393 4.32092C14.8813 4.32092 13.5373 5.8143 13.5373 7.65648C13.5373 9.49865 14.8813 10.992 16.5393 10.992ZM16.5393 9.49203C15.8545 9.49203 15.0373 8.8228 15.0373 7.65648C15.0373 6.49016 15.8545 5.82092 16.5393 5.82092C17.2241 5.82092 18.0413 6.49016 18.0413 7.65648C18.0413 8.8228 17.2241 9.49203 16.5393 9.49203Z" fill="#161823"/>
<path d="M15.7298 12.6801C15.9961 12.6597 16.2663 12.6493 16.5391 12.6493C18.2913 12.6493 19.9313 13.0757 21.1828 13.8513C22.4163 14.6158 23.4594 15.8617 23.4594 17.4849V17.9018C23.4594 19.1908 22.4145 20.2357 21.1255 20.2357H18.3526C18.5223 19.7684 18.617 19.2632 18.6214 18.7357H21.1255C21.5861 18.7357 21.9594 18.3624 21.9594 17.9018V17.4849C21.9594 15.7866 19.9441 14.3848 17.2406 14.1761C16.7959 13.5977 16.2758 13.0979 15.7298 12.6801Z" fill="#161823"/>
<path d="M8.53916 11C10.5274 11 12.1392 9.20914 12.1392 7C12.1392 4.79086 10.5274 3 8.53916 3C6.55093 3 4.93916 4.79086 4.93916 7C4.93916 7.49838 5.02119 7.97548 5.17107 8.41553L2.68975 5.93421C2.39686 5.64132 1.92199 5.64132 1.62909 5.93421C1.3362 6.2271 1.3362 6.70198 1.62909 6.99487L16.4646 21.8303C16.7575 22.1232 17.2323 22.1232 17.5252 21.8303C17.8181 21.5374 17.8181 21.0626 17.5252 20.7697L16.3076 19.552C16.4561 19.2323 16.5391 18.8758 16.5391 18.5V18C16.5391 16.1933 15.3779 14.7813 13.9503 13.8966C12.6795 13.109 11.0497 12.6268 9.27729 12.5217L7.62563 10.8701C7.91735 10.9549 8.22351 11 8.53916 11ZM11.0605 14.3049C13.4227 14.9068 15.0391 16.3345 15.0391 18V18.2835L11.0605 14.3049ZM8.53916 9.5C7.52411 9.5 6.43916 8.53328 6.43916 7C6.43916 5.46672 7.52411 4.5 8.53916 4.5C9.55421 4.5 10.6392 5.46672 10.6392 7C10.6392 8.53328 9.55421 9.5 8.53916 9.5Z" fill="#161823"/>
<path d="M3.12778 13.8966C3.80395 13.4775 4.58173 13.1449 5.42853 12.9096L6.68049 14.1616C3.96298 14.6489 2.03906 16.1829 2.03906 18V18.5C2.03906 19.0523 2.48678 19.5 3.03906 19.5H12.0189L13.5189 21H3.03906C1.65835 21 0.539062 19.8807 0.539062 18.5V18C0.539062 16.1933 1.70027 14.7813 3.12778 13.8966Z" fill="#161823"/>
</svg>
