<svg width="16" height="16" viewBox="0 0 16 16" fill="none" xmlns="http://www.w3.org/2000/svg">
<path d="M14.8854 4.40579C15.3529 3.60573 14.7758 2.60019 13.8491 2.60035L2.26756 2.60227C1.23717 2.60244 0.686141 3.81561 1.36396 4.59167L4.06688 7.6863C4.25647 7.89468 4.55423 7.96588 4.81756 7.86579L9.78781 5.9767C9.84564 5.95472 9.87189 5.9638 9.88334 5.96836C9.90337 5.97633 9.93206 5.997 9.95459 6.03516C9.97712 6.07332 9.98135 6.10843 9.97866 6.12981C9.97712 6.14204 9.97239 6.16942 9.92521 6.20944L5.84447 9.67065C5.63417 9.84902 5.55121 10.136 5.63391 10.3991L6.83138 14.2106C7.14358 15.2043 8.48675 15.3556 9.01228 14.4563L14.8854 4.40579Z" fill="#161823"/>
</svg>
