<svg width="20" height="20" viewBox="0 0 20 20" fill="none" xmlns="http://www.w3.org/2000/svg">
<path d="M10.3694 5.23842C10.3694 4.79366 10.7291 4.43311 11.1728 4.43311C11.605 4.43311 11.9575 4.77525 11.9755 5.20412C11.976 5.21632 11.9763 5.22868 11.9763 5.24102C11.9763 6.41479 12.9256 7.36631 14.0966 7.36631C14.5403 7.36631 14.9 7.72687 14.9 8.17163C14.9 8.6164 14.5403 8.97695 14.0966 8.97695C13.3125 8.97695 12.5493 8.74268 11.9762 8.05571V11.4214C11.9762 13.0295 10.6757 14.3331 9.07141 14.3331C7.46714 14.3331 6.16663 13.0295 6.16663 11.4214C6.16663 9.81333 7.46714 8.50972 9.07141 8.50972C9.51512 8.50972 9.87482 8.87027 9.87482 9.31504C9.87482 9.7598 9.51512 10.1204 9.07141 10.1204C8.35456 10.1204 7.77344 10.7029 7.77344 11.4214C7.77344 12.14 8.35456 12.7225 9.07141 12.7225C9.78826 12.7225 10.3694 12.14 10.3694 11.4214V5.23842Z" fill="#161823"/>
<path fill-rule="evenodd" clip-rule="evenodd" d="M10.2255 1.21178C10.0913 1.17357 9.94908 1.17355 9.81488 1.21172L2.5614 3.27503C2.23901 3.36674 2.0166 3.66123 2.0166 3.99641V8.22579C2.0166 13.0096 5.15681 17.2398 9.78605 18.7428C9.93661 18.7917 10.0988 18.7917 10.2493 18.7428C14.8774 17.2397 18.0166 13.0105 18.0166 8.22775V3.99641C18.0166 3.6613 17.7943 3.36685 17.472 3.27508L10.2255 1.21178ZM3.5166 8.22579V4.56282L10.02 2.71289L16.5166 4.56267V8.22775C16.5166 12.2606 13.9189 15.8658 10.0176 17.2378C6.11518 15.8658 3.5166 12.2597 3.5166 8.22579Z" fill="#161823"/>
</svg>
