<svg width="24" height="24" viewBox="0 0 24 24" fill="none" xmlns="http://www.w3.org/2000/svg">
<path d="M2 4.75C2 3.23122 3.23122 2 4.75 2H11.75C13.2688 2 14.5 3.23122 14.5 4.75V19.25C14.5 20.7688 13.2688 22 11.75 22H4.75C3.23122 22 2 20.7688 2 19.25V4.75ZM10.3641 11.4218L7.86378 9.71574C7.39913 9.3987 6.76924 9.73146 6.76924 10.294V13.706C6.76924 14.2685 7.39913 14.6013 7.86377 14.2843L10.3641 12.5782C10.7714 12.3003 10.7714 11.6997 10.3641 11.4218Z" fill="#161823"/>
<path d="M15.6194 21.5658C15.4863 21.5411 15.4255 21.3894 15.49 21.2703C15.8153 20.6694 15.9999 19.9813 15.9999 19.25V4.75C15.9999 4.62277 15.9944 4.49685 15.9834 4.37246C15.9707 4.22794 16.1036 4.10825 16.2437 4.1458L19.951 5.13916C21.418 5.53225 22.2886 7.04018 21.8956 8.50721L18.9191 19.6154C18.5132 21.1304 17.1636 21.8524 15.6194 21.5658Z" fill="#161823"/>
</svg>
