<svg width="20" height="20" viewBox="0 0 20 20" fill="none" xmlns="http://www.w3.org/2000/svg">
<path d="M18.0307 16.9697L16.3995 15.3385C17.607 13.8926 18.3337 12.0311 18.3337 9.99999C18.3337 5.39762 14.6028 1.66666 10.0004 1.66666C9.6911 1.66666 9.38575 1.68351 9.08521 1.71634C8.89659 1.73694 8.70987 1.76384 8.52525 1.79681C7.07211 2.05637 5.74946 2.69258 4.66189 3.60086L3.0307 1.96966C2.7378 1.67677 2.26293 1.67677 1.97004 1.96966C1.69503 2.24467 1.67824 2.6801 1.91965 2.9747L15.9537 17.0087C15.9716 17.0266 15.9883 17.0452 16.0041 17.0643L16.97 18.0303C17.2629 18.3232 17.7378 18.3232 18.0307 18.0303C18.3236 17.7374 18.3236 17.2626 18.0307 16.9697ZM7.81015 6.74912C7.96719 5.47863 8.94806 4.49999 10.1346 4.49999C11.4305 4.49999 12.4811 5.66725 12.4811 7.10714C12.4811 8.33072 11.7225 9.35743 10.6993 9.6383L7.81015 6.74912ZM15.7092 13.7568C15.5919 13.9347 15.4665 14.1068 15.3336 14.2725L12.5674 11.5064C14.0256 11.9487 15.1558 12.759 15.7092 13.7568Z" fill="#161823"/>
<path d="M14.0875 17.2639C12.8799 17.9448 11.4855 18.3333 10.0003 18.3333C5.39795 18.3333 1.66699 14.6024 1.66699 10C1.66699 8.51483 2.05551 7.12041 2.73644 5.91282L8.14849 11.3249C6.34677 11.6972 4.93238 12.6012 4.29143 13.7568C5.51359 15.6102 7.61412 16.8333 10.0003 16.8333C11.0671 16.8333 12.0769 16.5889 12.9765 16.1529L14.0875 17.2639Z" fill="#161823"/>
</svg>
