<svg width="24" height="24" viewBox="0 0 24 24" fill="none" xmlns="http://www.w3.org/2000/svg">
<path d="M12 2C9.6937 2 8 4.11907 8 6.5C8 8.88093 9.6937 11 12 11C14.3063 11 16 8.88093 16 6.5C16 4.11907 14.3063 2 12 2Z" fill="#161823"/>
<path d="M12 12.5C9.5457 12.5 7.32635 13.1879 5.70047 14.3426C4.07479 15.4973 3 17.1584 3 19.0682V19.25C3 20.7688 4.23122 22 5.75 22H12.8575C12.7267 21.5926 12.6669 21.1544 12.6921 20.7003L12.9866 15.4003C13.0474 14.3056 13.5929 13.3476 14.4078 12.7299C13.6417 12.5795 12.8344 12.5 12 12.5Z" fill="#161823"/>
<path fill-rule="evenodd" clip-rule="evenodd" d="M14.4843 15.4835C14.5461 14.3707 15.4665 13.5 16.581 13.5H21.0523C22.1669 13.5 23.0873 14.3707 23.1491 15.4835L23.4435 20.7835C23.5104 21.9872 22.5523 23 21.3468 23H16.2866C15.081 23 14.1229 21.9872 14.1898 20.7835L14.4843 15.4835ZM16.8 16.5333C16.8 17.6011 17.6656 18.4667 18.7333 18.4667H18.9C19.9678 18.4667 20.8333 17.6011 20.8333 16.5333C20.8333 16.202 20.5647 15.9333 20.2333 15.9333C19.902 15.9333 19.6333 16.202 19.6333 16.5333C19.6333 16.9383 19.305 17.2667 18.9 17.2667H18.7333C18.3283 17.2667 18 16.9383 18 16.5333C18 16.202 17.7314 15.9333 17.4 15.9333C17.0686 15.9333 16.8 16.202 16.8 16.5333Z" fill="#161823"/>
</svg>
