<svg width="20" height="20" viewBox="0 0 20 20" fill="none" xmlns="http://www.w3.org/2000/svg">
<path d="M4.74978 3C4.33557 3 3.99978 3.33579 3.99978 3.75C3.99978 4.16421 4.33557 4.5 4.74978 4.5H15.2498C15.664 4.5 15.9998 4.16421 15.9998 3.75C15.9998 3.33579 15.664 3 15.2498 3H4.74978Z" fill="#161823"/>
<path d="M2.25308 9.23089C2.11714 7.76528 3.2705 6.5 4.7424 6.5H15.2708C16.7378 6.5 17.8895 7.75717 17.7613 9.21851L17.211 15.4904C17.0864 16.9105 15.8971 18 14.4715 18H5.57318C4.1528 18 2.96612 16.9183 2.83494 15.504L2.25308 9.23089ZM4.7424 8C4.15364 8 3.6923 8.50611 3.74667 9.09235L4.32853 15.3654C4.38815 16.0083 4.92756 16.5 5.57318 16.5H14.4715C15.1195 16.5 15.6601 16.0048 15.7167 15.3593L16.267 9.0874C16.3183 8.50287 15.8576 8 15.2708 8H4.7424Z" fill="#161823"/>
</svg>
