<svg width="12" height="12" viewBox="0 0 12 12" fill="none" xmlns="http://www.w3.org/2000/svg">
<path d="M9.97858 5.12586C9.99038 5.00477 9.99641 4.882 9.99641 4.75781C9.99641 2.68674 8.31748 1.00781 6.24641 1.00781C5.40091 1.00781 4.62076 1.28763 3.99352 1.75971C4.70637 2.60116 5.47761 3.32396 6.56916 3.95417C7.73456 4.62702 8.80864 4.93079 9.97858 5.12586Z" fill="#161823"/>
<path fill-rule="evenodd" clip-rule="evenodd" d="M5.96916 4.9934C7.27402 5.74676 8.47824 6.08765 9.71844 6.29894C9.97966 6.3958 10.146 6.6656 10.1024 6.95183C10.0524 7.27942 9.74638 7.5045 9.41879 7.45456C9.25776 7.43001 9.09695 7.402 8.93646 7.3705C8.35049 7.97372 7.56338 8.38051 6.68337 8.48263L4.76488 11.0814C4.38706 11.5932 3.68514 11.7396 3.13423 11.4215L2.03144 10.7848C1.48052 10.4668 1.25636 9.78567 1.51067 9.20258L2.80174 6.24238C2.60527 5.78711 2.49641 5.28517 2.49641 4.75781C2.49641 4.43464 2.53729 4.12102 2.61416 3.82183C2.43988 3.63167 2.27264 3.43635 2.11254 3.23629C1.9055 2.97756 1.9474 2.59998 2.20613 2.39294C2.4323 2.21195 2.7493 2.22119 2.9638 2.39922C3.76689 3.36759 4.66437 4.24008 5.96916 4.9934ZM3.8336 7.62862L2.97489 9.59748L3.69077 10.0108L4.96591 8.2835C4.54902 8.13206 4.16659 7.90877 3.8336 7.62862Z" fill="#161823"/>
</svg>
