<svg width="20" height="20" viewBox="0 0 20 20" fill="none" xmlns="http://www.w3.org/2000/svg">
<path d="M4.14961 3.2501C4.14961 2.75304 3.74667 2.3501 3.24961 2.3501C2.75255 2.3501 2.34961 2.75304 2.34961 3.2501V15.9168C2.34961 16.8741 3.12565 17.6501 4.08294 17.6501H16.7496C17.2467 17.6501 17.6496 17.2472 17.6496 16.7501C17.6496 16.253 17.2467 15.8501 16.7496 15.8501H4.14961V3.2501Z" fill="#161823"/>
<path d="M14.8708 8.97061L15.7499 9.84978C15.9048 10.0047 16.1378 10.051 16.3402 9.9672C16.5426 9.88336 16.6746 9.68585 16.6746 9.46676V6.36676C16.6746 6.06761 16.4321 5.8251 16.1329 5.8251H13.0329C12.8139 5.8251 12.6163 5.95707 12.5325 6.15948C12.4487 6.36188 12.495 6.59487 12.6499 6.74978L13.5962 7.69603L11.6963 9.80846L9.84818 8.21982C9.4789 7.90239 8.92412 7.93625 8.59619 8.29624L5.50095 11.694C5.16622 12.0615 5.19274 12.6307 5.56019 12.9654C5.92764 13.3002 6.49687 13.2736 6.8316 12.9062L9.33797 10.1548L11.1903 11.7471C11.5613 12.066 12.1191 12.0302 12.4462 11.6665L14.8708 8.97061Z" fill="#161823"/>
</svg>
