<svg width="24" height="24" viewBox="0 0 24 24" fill="none" xmlns="http://www.w3.org/2000/svg">
<path fill-rule="evenodd" clip-rule="evenodd" d="M11.9352 3.67777C11.98 3.66502 12.0274 3.66503 12.0722 3.67779L19.4606 5.78343V10.0138C19.4606 14.6409 16.4757 18.7732 12.001 20.3333C7.52495 18.7732 4.53906 14.6399 4.53906 10.0116V5.78358L11.9352 3.67777ZM12.4833 2.23523C12.1699 2.14592 11.8378 2.14587 11.5244 2.2351L3.58369 4.49598C3.26138 4.58775 3.03906 4.8822 3.03906 5.21732V10.0116C3.03906 15.3891 6.5659 20.1469 11.7692 21.8379C11.9199 21.8868 12.0822 21.8868 12.2329 21.8379C17.4349 20.1469 20.9606 15.3901 20.9606 10.0138V5.21732C20.9606 4.88227 20.7384 4.58786 20.4162 4.49603L12.4833 2.23523ZM9.54601 11.4831C9.2486 11.1948 8.77378 11.2022 8.48548 11.4996C8.19717 11.797 8.20456 12.2718 8.50197 12.5601L11.0143 14.9955C11.1716 15.148 11.3878 15.2241 11.606 15.2037C11.8242 15.1834 12.0226 15.0686 12.149 14.8896L16.491 8.74006C16.7299 8.40169 16.6493 7.93371 16.3109 7.6948C15.9725 7.45588 15.5045 7.53651 15.2656 7.87488L11.4291 13.3085L9.54601 11.4831Z" fill="#161823"/>
</svg>
