<svg width="16" height="16" viewBox="0 0 16 16" fill="none" xmlns="http://www.w3.org/2000/svg">
<path d="M7.99967 14.6667C11.6816 14.6667 14.6663 11.6819 14.6663 8.00001C14.6663 4.31811 11.6816 1.33334 7.99967 1.33334C4.31778 1.33334 1.33301 4.31811 1.33301 8.00001C1.33301 11.6819 4.31778 14.6667 7.99967 14.6667ZM6.0161 8.0464L7.19507 9.18926L9.93114 5.31422C10.2178 4.90818 10.7794 4.81143 11.1855 5.09813C11.5915 5.38482 11.6882 5.9464 11.4015 6.35244L8.05893 11.0865C7.90725 11.3014 7.6692 11.4391 7.40737 11.4635C7.14554 11.488 6.88611 11.3967 6.6973 11.2136L4.76325 9.33883C4.40636 8.99286 4.39749 8.42308 4.74346 8.06619C5.08942 7.70929 5.6592 7.70043 6.0161 8.0464Z" fill="#161823"/>
</svg>
