<svg width="24" height="24" viewBox="0 0 24 24" fill="none" xmlns="http://www.w3.org/2000/svg">
<path d="M3.75 10.9853L2.98531 11.6343C2.6695 11.9023 2.19621 11.8635 1.92819 11.5477C1.66017 11.2319 1.69891 10.7586 2.01472 10.4906L10.8677 2.97726C11.5208 2.42294 12.4792 2.42294 13.1324 2.97726L21.9853 10.4906C22.3011 10.7586 22.3399 11.2319 22.0718 11.5477C21.8038 11.8635 21.3305 11.9023 21.0147 11.6343L20.25 10.9853V19.2336C20.25 20.2001 19.4665 20.9836 18.5 20.9836H14.5C14.0858 20.9836 13.75 20.6478 13.75 20.2336V14C13.75 13.8619 13.6381 13.75 13.5 13.75H10.5C10.3619 13.75 10.25 13.8619 10.25 14V20.2336C10.25 20.6478 9.91421 20.9836 9.5 20.9836H5.5C4.5335 20.9836 3.75 20.2001 3.75 19.2336V10.9853ZM11.8382 4.12091L5.25 9.71226V19.2336C5.25 19.3716 5.36193 19.4836 5.5 19.4836H8.75V14C8.75 13.0335 9.5335 12.25 10.5 12.25H13.5C14.4665 12.25 15.25 13.0335 15.25 14V19.4836H18.5C18.6381 19.4836 18.75 19.3716 18.75 19.2336V9.71223L12.1618 4.12092C12.0685 4.04173 11.9316 4.04173 11.8382 4.12091Z" fill="#161823"/>
</svg>
