<svg width="20" height="20" viewBox="0 0 20 20" fill="none" xmlns="http://www.w3.org/2000/svg">
<path d="M2.933 12.0991C2.80012 12.0991 2.70422 12.2264 2.74518 12.3528C3.73675 15.4125 6.61014 17.625 10.0003 17.625C14.2114 17.625 17.6253 14.2111 17.6253 9.99998C17.6253 5.78881 14.2114 2.37498 10.0003 2.37498C6.72554 2.37498 3.93296 4.43935 2.85293 7.33772C2.80531 7.46551 2.90158 7.59905 3.03795 7.59905H4.23161C4.31174 7.59905 4.3839 7.55102 4.41693 7.47801C5.37816 5.35329 7.51658 3.87498 10.0003 3.87498C13.383 3.87498 16.1253 6.61723 16.1253 9.99998C16.1253 13.3827 13.383 16.125 10.0003 16.125C7.40436 16.125 5.18562 14.5101 4.29392 12.2301C4.26331 12.1518 4.1885 12.0991 4.10448 12.0991H2.933Z" fill="#161823"/>
<path d="M12.3634 9.32203C12.6563 9.61492 12.6563 10.0898 12.3634 10.3827L9.44703 13.2991C9.15413 13.592 8.67926 13.592 8.38637 13.2991C8.09347 13.0062 8.09347 12.5313 8.38637 12.2384L10.0257 10.5991H2.28516C1.87094 10.5991 1.53516 10.2633 1.53516 9.84907C1.53516 9.43485 1.87094 9.09907 2.28516 9.09907H10.0192L8.38637 7.46628C8.09347 7.17339 8.09347 6.69851 8.38637 6.40562C8.67926 6.11273 9.15413 6.11273 9.44703 6.40562L12.3634 9.32203Z" fill="#161823"/>
</svg>
