<svg width="24" height="24" viewBox="0 0 24 24" fill="none" xmlns="http://www.w3.org/2000/svg">
<path d="M5 2C3.89543 2 3 2.89543 3 4V20C3 21.1046 3.89543 22 5 22H17C18.1046 22 19 21.1046 19 20V18.8902C18.1721 19.6751 16.8688 19.7172 15.9914 18.939L15.6596 18.6447L14.6755 19.7594C13.8441 20.7011 12.4044 20.7762 11.4821 19.9129C10.5851 19.0731 10.524 17.6666 11.3331 16.7502L13.7961 13.9604C14.3959 13.281 15.3154 13.0507 16.1291 13.3043C15.9885 12.8378 16.0061 12.3286 16.1934 11.8629C16.5134 11.0675 17.2851 10.5156 18.1767 10.5156H19V4C19 2.89543 18.1046 2 17 2H5ZM6.75781 5.49231H14.2612C14.6754 5.49231 15.0112 5.8281 15.0112 6.24231C15.0112 6.65652 14.6754 6.99231 14.2612 6.99231H6.75781C6.3436 6.99231 6.00781 6.65652 6.00781 6.24231C6.00781 5.8281 6.3436 5.49231 6.75781 5.49231ZM6.75781 8.99231H14.2612C14.6754 8.99231 15.0112 9.3281 15.0112 9.74231C15.0112 10.1565 14.6754 10.4923 14.2612 10.4923H6.75781C6.3436 10.4923 6.00781 10.1565 6.00781 9.74231C6.00781 9.3281 6.3436 8.99231 6.75781 8.99231ZM6.00781 13.2423C6.00781 12.8281 6.3436 12.4923 6.75781 12.4923H11.2578C11.672 12.4923 12.0078 12.8281 12.0078 13.2423C12.0078 13.6565 11.672 13.9923 11.2578 13.9923H6.75781C6.3436 13.9923 6.00781 13.6565 6.00781 13.2423ZM18.1767 12.0156C17.9177 12.0156 17.6842 12.1763 17.5851 12.4227C17.4859 12.6691 17.5407 12.9527 17.7239 13.1413L18.9492 14.4031L17.4028 16.1773L15.9496 14.8884C15.6462 14.6193 15.1899 14.648 14.9206 14.9531L12.4575 17.7429C12.183 18.0539 12.2053 18.5351 12.5073 18.8177C12.8092 19.1004 13.2765 19.0775 13.5511 18.7666L15.5302 16.5248L16.9869 17.8168C17.2916 18.0871 17.7503 18.0568 18.019 17.7485L19.9957 15.4807L21.1722 16.6921C21.3553 16.8807 21.6308 16.9371 21.8701 16.835C22.1094 16.7329 22.2654 16.4925 22.2654 16.2258V12.675C22.2654 12.3109 21.9787 12.0156 21.625 12.0156H18.1767Z" fill="#161823"/>
</svg>
