<svg width="20" height="20" viewBox="0 0 20 20" fill="none" xmlns="http://www.w3.org/2000/svg">
<path d="M4.12598 15.6667C2.7842 15.6667 1.96617 14.1907 2.67732 13.0529L3.6755 11.4558C4.10545 10.7679 4.33343 9.973 4.33343 9.16176V7.5C4.33343 5.09178 5.83451 3.03676 7.95149 2.21544C8.34753 1.4912 9.11645 1 10.0001 1C10.8837 1 11.6527 1.49119 12.0487 2.21544C14.1657 3.03676 15.6668 5.09178 15.6668 7.5V9.16176C15.6668 9.97299 15.8947 10.7679 16.3247 11.4558L17.3229 13.0529C18.034 14.1907 17.216 15.6667 15.8742 15.6667H13.2406C13.113 17.3448 11.7109 18.6667 10.0001 18.6667C8.28932 18.6667 6.88726 17.3448 6.7596 15.6667H4.12598ZM5.83343 9.16176C5.83343 10.2541 5.52645 11.3245 4.9475 12.2508L3.94932 13.8479C3.86259 13.9867 3.96235 14.1667 4.12598 14.1667H15.8742C16.0378 14.1667 16.1376 13.9867 16.0509 13.8479L15.0527 12.2508C14.4737 11.3245 14.1668 10.2541 14.1668 9.16176V7.5C14.1668 5.4842 12.7353 3.80274 10.8334 3.41668V3.33333C10.8334 2.8731 10.4603 2.5 10.0001 2.5C9.53986 2.5 9.16676 2.8731 9.16676 3.33333V3.41668C7.2649 3.80274 5.83343 5.4842 5.83343 7.5V9.16176ZM8.26785 15.6667C8.38916 16.5147 9.11851 17.1667 10.0001 17.1667C10.8817 17.1667 11.6111 16.5147 11.7324 15.6667H8.26785Z" fill="#161823"/>
<path d="M5.18633 1.33441C5.47109 1.63522 5.45807 2.10991 5.15726 2.39467C4.34209 3.16635 3.73222 4.12913 3.38288 5.19588C3.25396 5.58953 2.83035 5.80413 2.43671 5.67522C2.04306 5.5463 1.82846 5.12269 1.95737 4.72905C2.38435 3.42524 3.12974 2.2485 4.12607 1.30534C4.42688 1.02059 4.90157 1.0336 5.18633 1.33441Z" fill="#161823"/>
<path d="M14.843 2.39467C14.5422 2.10991 14.5292 1.63522 14.8139 1.33441C15.0987 1.0336 15.5734 1.02059 15.8742 1.30534C16.8705 2.2485 17.6159 3.42524 18.0429 4.72905C18.1718 5.12269 17.9572 5.5463 17.5635 5.67522C17.1699 5.80413 16.7463 5.58953 16.6174 5.19588C16.268 4.12913 15.6582 3.16635 14.843 2.39467Z" fill="#161823"/>
</svg>
