<svg width="24" height="24" viewBox="0 0 24 24" fill="none" xmlns="http://www.w3.org/2000/svg">
<path d="M11.4818 10.5654L4.38517 5.18778C3.19969 4.28946 1.49805 5.13502 1.49805 6.62241V17.3776C1.49805 18.865 3.19968 19.7106 4.38516 18.8123L11.4818 13.4347C12.4323 12.7144 12.4323 11.2857 11.4818 10.5654ZM10.5759 12.2391L3.47923 17.6167C3.28165 17.7664 2.99805 17.6255 2.99805 17.3776L2.99805 6.62241C2.99805 6.37451 3.28166 6.23358 3.47923 6.3833L10.5759 11.7609C10.7343 11.881 10.7343 12.1191 10.5759 12.2391Z" fill="#161823"/>
<path d="M22.1803 10.5654C23.1308 11.2857 23.1308 12.7144 22.1803 13.4347L15.0836 18.8123C13.8982 19.7106 12.1965 18.865 12.1965 17.3776L12.1965 6.62242C12.1965 5.13503 13.8982 4.28947 15.0837 5.18779L22.1803 10.5654ZM21.2744 12.2392C21.4328 12.1191 21.4328 11.881 21.2744 11.7609L14.1777 6.38332C13.9801 6.2336 13.6965 6.37452 13.6965 6.62242L13.6965 17.3776C13.6965 17.6255 13.9801 17.7664 14.1777 17.6167L21.2744 12.2392Z" fill="#161823"/>
</svg>
