<svg width="24" height="24" viewBox="0 0 24 24" fill="none" xmlns="http://www.w3.org/2000/svg">
<path fill-rule="evenodd" clip-rule="evenodd" d="M12.7417 1.82132C11.9095 1.35202 10.8921 1.35396 10.0617 1.82643L4.12423 5.20474L4.16092 5.26923C3.17926 5.87007 2.48633 6.9454 2.48633 8.25903V14.4334C2.48633 15.517 3.66039 16.1935 4.59788 15.65L8.69989 13.2719C9.13376 13.0204 9.40084 12.5568 9.40084 12.0553V7.87654L13.0424 9.92828C13.4798 10.1747 14.0153 10.1693 14.4476 9.91412L18.5269 7.50617C19.4594 6.95574 19.446 5.60217 18.5028 5.07026L12.7417 1.82132ZM7.71368 5.20427C7.61655 5.14954 7.51845 5.1 7.41965 5.05551L10.8035 3.13017C11.1757 2.91837 11.6318 2.9175 12.0049 3.12788L17.6245 6.29701L13.7316 8.59488L7.71368 5.20427ZM6.97738 6.51112L7.90084 7.03141V12.0013L3.98633 14.2707V8.25903C3.98633 6.72398 5.63999 5.75761 6.97738 6.51112Z" fill="#161823"/>
<path fill-rule="evenodd" clip-rule="evenodd" d="M11.2003 22.1559C12.0305 22.6288 13.0479 22.6312 13.8803 22.1623L19.8322 18.8094L19.7958 18.7447C20.78 18.1481 21.4775 17.0757 21.4831 15.7621L21.5095 9.58779C21.5141 8.50414 20.343 7.82269 19.4032 8.36219L15.291 10.7227C14.8561 10.9724 14.587 11.4348 14.5849 11.9363L14.567 16.115L10.9342 14.0477C10.498 13.7995 9.96244 13.8026 9.52907 14.0559L5.43948 16.4464C4.50464 16.9928 4.51223 18.3464 5.45313 18.8824L11.2003 22.1559ZM16.2427 18.7945C16.3397 18.8496 16.4375 18.8996 16.5361 18.9445L13.1441 20.8554C12.771 21.0656 12.3149 21.0645 11.9427 20.8525L6.3367 17.6594L10.2394 15.3782L16.2427 18.7945ZM16.9846 17.4908L16.0634 16.9666L16.0847 11.9967L20.0088 9.74409L19.9831 15.7557C19.9766 17.2907 18.3188 18.25 16.9846 17.4908Z" fill="#161823"/>
</svg>
