<svg width="24" height="24" viewBox="0 0 24 24" fill="none" xmlns="http://www.w3.org/2000/svg">
<path d="M12.5303 16.7803C12.8232 16.4874 12.8232 16.0126 12.5303 15.7197L9.56066 12.75L16.25 12.75C16.6642 12.75 17 12.4142 17 12C17 11.5858 16.6642 11.25 16.25 11.25H9.56066L12.5303 8.28033C12.8232 7.98744 12.8232 7.51256 12.5303 7.21967C12.2374 6.92678 11.7626 6.92678 11.4697 7.21967L7.21967 11.4697C6.92678 11.7626 6.92678 12.2374 7.21967 12.5303L11.4697 16.7803C11.7626 17.0732 12.2374 17.0732 12.5303 16.7803Z" fill="#161823"/>
<path fill-rule="evenodd" clip-rule="evenodd" d="M22 12C22 17.5228 17.5228 22 12 22C6.47715 22 2 17.5228 2 12C2 6.47715 6.47715 2 12 2C17.5228 2 22 6.47715 22 12ZM20.5 12C20.5 16.6944 16.6944 20.5 12 20.5C7.30558 20.5 3.5 16.6944 3.5 12C3.5 7.30558 7.30558 3.5 12 3.5C16.6944 3.5 20.5 7.30558 20.5 12Z" fill="#161823"/>
</svg>
