<svg width="16" height="16" viewBox="0 0 16 16" fill="none" xmlns="http://www.w3.org/2000/svg">
<path d="M4.14965 0.993189C4.39643 1.25389 4.38516 1.66529 4.12446 1.91208C3.47835 2.52371 2.99498 3.2868 2.71809 4.1323C2.60637 4.47346 2.23923 4.65945 1.89808 4.54773C1.55692 4.436 1.37093 4.06887 1.48265 3.72771C1.82682 2.67677 2.42765 1.72824 3.23075 0.967999C3.49145 0.721209 3.90286 0.732487 4.14965 0.993189Z" fill="#161823"/>
<path d="M8.00041 1.00005C8.65736 1.00005 9.22553 1.38014 9.49702 1.93241C11.1527 2.54188 12.3337 4.13215 12.3337 6.00004V7.32945C12.3337 8.01592 12.5266 8.68858 12.8905 9.2707L13.689 10.5484C14.1747 11.3254 13.616 12.3334 12.6997 12.3334L11.2066 12.3334V12.3303H4.80664V12.3334H3.3011C2.38476 12.3334 1.82611 11.3254 2.31177 10.5484L3.11032 9.2707C3.47415 8.68857 3.66706 8.01592 3.66706 7.32945V6.00004C3.66706 4.13213 4.84812 2.54185 6.50381 1.9324C6.7753 1.38013 7.34346 1.00005 8.00041 1.00005Z" fill="#161823"/>
<path d="M5.59837 13.3303C5.98945 14.2715 6.91763 14.9334 8.00039 14.9334C9.08316 14.9334 10.0113 14.2715 10.4024 13.3303H5.59837Z" fill="#161823"/>
<path d="M11.8763 1.91208C11.6156 1.66529 11.6043 1.25389 11.8511 0.993189C12.0979 0.732487 12.5093 0.721209 12.77 0.967999C13.5731 1.72824 14.1739 2.67677 14.5181 3.72771C14.6298 4.06887 14.4438 4.436 14.1027 4.54773C13.7615 4.65945 13.3944 4.47346 13.2826 4.1323C13.0058 3.2868 12.5224 2.52371 11.8763 1.91208Z" fill="#161823"/>
</svg>
