<svg width="20" height="20" viewBox="0 0 20 20" fill="none" xmlns="http://www.w3.org/2000/svg">
<path d="M10.3379 11.9737C10.2014 12.0657 10.048 12.1476 9.9457 12.1476C9.8434 12.1476 9.69336 12.0657 9.55695 11.9737C7.77692 10.8142 6.6141 9.43998 6.6141 8.0555C6.6141 6.80742 7.48025 5.96172 8.53054 5.96172C9.18526 5.96172 9.66608 6.32319 9.9457 6.85175C10.2321 6.32319 10.7095 5.96172 11.3643 5.96172C12.4146 5.96172 13.2807 6.80742 13.2807 8.0555C13.2807 9.43998 12.1179 10.8142 10.3379 11.9737Z" fill="#161823"/>
<path d="M9.9999 1.66992C14.5123 1.66992 18.3299 4.92729 18.3299 9.13132C18.3299 11.23 17.3101 12.9781 15.7284 14.5625C14.2077 16.0859 11.8273 17.4067 10.8849 17.9013C10.1747 18.2739 9.35978 17.7444 9.35978 16.9754V16.1066C5.2434 15.8181 1.66992 13.1673 1.66992 9.13143C1.66992 4.92729 5.48755 1.66992 9.9999 1.66992ZM16.8299 9.13132C16.8299 5.92207 13.8607 3.16992 9.9999 3.16992C6.13922 3.16992 3.16992 5.92206 3.16992 9.13143C3.16992 12.2657 6.15894 14.6328 10.1098 14.6328C10.524 14.6328 10.8598 14.9686 10.8598 15.3828V16.2081C11.9467 15.5984 13.5838 14.5877 14.6668 13.5028C16.0921 12.0751 16.8299 10.6858 16.8299 9.13132Z" fill="#161823"/>
</svg>
