<svg width="20" height="20" viewBox="0 0 20 20" fill="none" xmlns="http://www.w3.org/2000/svg">
<path d="M4.21118 3.72998C4.21118 2.21119 5.4424 0.97998 6.96118 0.97998H13.0388C14.5575 0.97998 15.7888 2.2112 15.7888 3.72998V16.2572C15.7888 17.776 14.5575 19.0072 13.0388 19.0072H6.96118C5.4424 19.0072 4.21118 17.776 4.21118 16.2572V12.6663C4.21118 12.5559 4.30072 12.4663 4.41118 12.4663H5.51118C5.62164 12.4663 5.71118 12.5559 5.71118 12.6663V16.2572C5.71118 16.9475 6.27083 17.5072 6.96118 17.5072H13.0388C13.7291 17.5072 14.2888 16.9475 14.2888 16.2572V3.72998C14.2888 3.03962 13.7291 2.47998 13.0388 2.47998H12.4187V2.56395C12.4187 3.11623 11.9709 3.56395 11.4187 3.56395H8.58142C8.02914 3.56395 7.58142 3.11623 7.58142 2.56395V2.47998H6.96118C6.27082 2.47998 5.71118 3.03962 5.71118 3.72998V7.76632C5.71118 7.87677 5.62164 7.96632 5.51118 7.96632H4.41118C4.30072 7.96632 4.21118 7.87677 4.21118 7.76632V3.72998Z" fill="#161823"/>
<path d="M12.3163 10.7466L9.49481 13.5681C9.20192 13.861 8.72704 13.861 8.43415 13.5681C8.14126 13.2752 8.14126 12.8004 8.43415 12.5075L9.97529 10.9663H3.07227C2.65805 10.9663 2.32227 10.6305 2.32227 10.2163C2.32227 9.8021 2.65805 9.46632 3.07227 9.46632H9.97529L8.43415 7.92518C8.14126 7.63228 8.14126 7.15741 8.43415 6.86451C8.72704 6.57162 9.20192 6.57162 9.49481 6.86451L12.3163 9.68599C12.6092 9.97888 12.6092 10.4538 12.3163 10.7466Z" fill="#161823"/>
</svg>
