<svg width="24" height="24" viewBox="0 0 24 24" fill="none" xmlns="http://www.w3.org/2000/svg">
<path d="M16.6001 7C16.6001 9.20914 14.9883 11 13.0001 11C11.0118 11 9.40006 9.20914 9.40006 7C9.40006 4.79086 11.0118 3 13.0001 3C14.9883 3 16.6001 4.79086 16.6001 7Z" fill="#161823"/>
<path d="M13 12.5C10.9441 12.5 9.03427 13.0007 7.58876 13.8966C6.16124 14.7813 5.00004 16.1933 5.00004 18V18.5C5.00004 19.8807 6.11932 21 7.50004 21H16.1735C16.284 21 16.3735 20.9105 16.3735 20.8V19.6667H14.25C13.0074 19.6667 12 18.6593 12 17.4167C12 16.174 13.0074 15.1667 14.25 15.1667H16.3667V13.2391C16.3667 13.0833 16.2641 12.9524 16.1195 12.9121C15.1536 12.6427 14.0976 12.5 13 12.5Z" fill="#161823"/>
<path d="M8.54526 4.32804C8.13056 5.1342 7.8999 6.05254 7.8999 7C7.8999 8.20698 8.27422 9.36671 8.9265 10.3075C8.48378 10.5933 7.96925 10.757 7.4203 10.757C5.76235 10.757 4.4183 9.26367 4.4183 7.42149C4.4183 5.57932 5.76235 4.08594 7.4203 4.08594C7.8181 4.08594 8.19783 4.17191 8.54526 4.32804Z" fill="#161823"/>
<path d="M6.79853 12.856C7.05356 12.6979 7.31891 12.5511 7.59336 12.4157C7.53579 12.4148 7.4781 12.4143 7.42028 12.4143C5.66806 12.4143 4.02811 12.8407 2.77661 13.6163C1.54311 14.3808 0.5 15.6267 0.5 17.2499V17.6668C0.5 18.9558 1.54492 20.0007 2.83389 20.0007H3.7046C3.57188 19.6028 3.5 19.177 3.5 18.7344V18.2344C3.5 15.7256 5.11148 13.9015 6.79853 12.856Z" fill="#161823"/>
<path d="M18.75 12.1667C19.1642 12.1667 19.5 12.5025 19.5 12.9167V16.6667H23.25C23.6642 16.6667 24 17.0025 24 17.4167C24 17.8309 23.6642 18.1667 23.25 18.1667H19.5V21.9167C19.5 22.3309 19.1642 22.6667 18.75 22.6667C18.3358 22.6667 18 22.3309 18 21.9167V18.1667H14.25C13.8358 18.1667 13.5 17.8309 13.5 17.4167C13.5 17.0025 13.8358 16.6667 14.25 16.6667H18V12.9167C18 12.5025 18.3358 12.1667 18.75 12.1667Z" fill="#161823"/>
</svg>
