<svg width="16" height="16" viewBox="0 0 16 16" fill="none" xmlns="http://www.w3.org/2000/svg">
<path fill-rule="evenodd" clip-rule="evenodd" d="M7.99994 14.9994C11.8659 14.9994 14.9999 11.8654 14.9999 7.99945C14.9999 4.13349 11.8659 0.999512 7.99994 0.999512C4.13398 0.999512 1 4.13349 1 7.99945C1 11.8654 4.13398 14.9994 7.99994 14.9994ZM6.7999 6.33331C6.7999 7.06969 6.35219 7.66664 5.7999 7.66664C5.24762 7.66664 4.7999 7.06969 4.7999 6.33331C4.7999 5.59693 5.24762 4.99998 5.7999 4.99998C6.35219 4.99998 6.7999 5.59693 6.7999 6.33331ZM10.1999 7.66664C10.7522 7.66664 11.1999 7.06969 11.1999 6.33331C11.1999 5.59693 10.7522 4.99998 10.1999 4.99998C9.64762 4.99998 9.1999 5.59693 9.1999 6.33331C9.1999 7.06969 9.64762 7.66664 10.1999 7.66664ZM7.99981 11.5073C8.97395 11.5073 10.0545 11.0347 10.6385 10.2155C10.8308 9.94562 10.768 9.57095 10.4982 9.37861C10.2283 9.18627 9.85366 9.2491 9.66132 9.51894C9.33521 9.97645 8.6459 10.3073 7.99981 10.3073C7.35396 10.3073 6.66485 9.97667 6.3386 9.51935C6.14616 9.24959 5.77146 9.18691 5.5017 9.37936C5.23194 9.5718 5.16926 9.94649 5.36171 10.2163C5.94579 11.035 7.02596 11.5073 7.99981 11.5073Z" fill="#161823"/>
</svg>
