<svg width="20" height="20" viewBox="0 0 20 20" fill="none" xmlns="http://www.w3.org/2000/svg">
<path d="M18.3327 10C18.3327 14.6024 14.6017 18.3334 9.99935 18.3334C5.39698 18.3334 1.66602 14.6024 1.66602 10C1.66602 5.39765 5.39698 1.66669 9.99935 1.66669C14.6017 1.66669 18.3327 5.39765 18.3327 10ZM10.9161 13.4167C10.9161 12.9104 10.5057 12.5 9.99943 12.5C9.49317 12.5 9.08276 12.9104 9.08276 13.4167C9.08276 13.9229 9.49317 14.3333 9.99943 14.3333C10.5057 14.3333 10.9161 13.9229 10.9161 13.4167ZM8.33272 8.67065C8.74862 8.67065 8.97436 8.54365 9.16931 8.01108C9.3303 7.5713 9.83798 7.49986 10.2077 7.49986C10.7018 7.49986 11.2494 7.75706 11.2494 8.3194C11.2494 8.75568 10.8223 9.02324 10.3544 9.3163C9.78802 9.67109 9.16196 10.0633 9.16196 10.8374C9.16196 11.2977 9.53506 11.6708 9.9953 11.6708C10.4337 11.6708 10.7511 11.5116 10.8261 10.9023C10.882 10.4485 11.3013 10.1518 11.7509 9.83352C12.316 9.4335 12.9291 8.99951 12.9291 8.1771C12.9291 6.94142 11.9478 5.83319 10.2077 5.83319C9.14273 5.83319 7.49939 6.57789 7.49939 7.83731C7.49939 8.29755 7.87249 8.67065 8.33272 8.67065Z" fill="#161823"/>
</svg>
