<svg width="24" height="24" viewBox="0 0 24 24" fill="none" xmlns="http://www.w3.org/2000/svg">
<path fill-rule="evenodd" clip-rule="evenodd" d="M11.7961 2.27935C11.9319 2.2402 12.076 2.24022 12.2118 2.2794L20.2079 4.58673C20.529 4.67936 20.75 4.9732 20.75 5.30733V10.0391C20.75 15.3413 17.3153 20.0405 12.2356 21.7124C12.0834 21.7625 11.919 21.7625 11.7668 21.7124C6.68578 20.0406 3.25 15.3404 3.25 10.0369V5.30733C3.25 4.97313 3.47113 4.67925 3.79225 4.58667L11.7961 2.27935ZM13.2706 5.96921C12.7899 5.96921 12.4002 6.35981 12.4002 6.84164V13.5399C12.4002 14.3183 11.7707 14.9493 10.9941 14.9493C10.2175 14.9493 9.58798 14.3183 9.58798 13.5399C9.58798 12.7614 10.2175 12.1304 10.9941 12.1304C11.4748 12.1304 11.8645 11.7398 11.8645 11.258C11.8645 10.7761 11.4748 10.3855 10.9941 10.3855C9.25616 10.3855 7.84727 11.7978 7.84727 13.5399C7.84727 15.282 9.25616 16.6942 10.9941 16.6942C12.7321 16.6942 14.141 15.282 14.141 13.5399V9.89369C14.7618 10.6379 15.5886 10.8917 16.438 10.8917C16.9187 10.8917 17.3084 10.5011 17.3084 10.0193C17.3084 9.53745 16.9187 9.14684 16.438 9.14684C15.1695 9.14684 14.1411 8.11603 14.1411 6.84445C14.1411 6.83108 14.1408 6.81768 14.1402 6.80447C14.1207 6.33986 13.7389 5.96921 13.2706 5.96921Z" fill="#161823"/>
</svg>
