<svg width="24" height="24" viewBox="0 0 24 24" fill="none" xmlns="http://www.w3.org/2000/svg">
<path d="M10.7355 2.80277C11.1728 1.6332 12.8271 1.63321 13.2645 2.80277L15.2442 8.09721L20.8913 8.34397C22.1387 8.39848 22.65 9.97183 21.6728 10.7492L17.2492 14.2681L18.7596 19.715C19.0932 20.9183 17.7549 21.8907 16.7136 21.2015L12 18.0819L7.28636 21.2015C6.2451 21.8907 4.90673 20.9183 5.24037 19.715L6.75074 14.2681L2.3272 10.7492C1.35001 9.97183 1.86123 8.39848 3.1087 8.34397L8.75577 8.09721L10.7355 2.80277ZM12 3.70388L10.126 8.71556C9.93627 9.22295 9.46162 9.5678 8.92044 9.59145L3.57494 9.82503L7.76224 13.156C8.18618 13.4932 8.36747 14.0512 8.22273 14.5732L6.79302 19.7293L11.2549 16.7762C11.7066 16.4773 12.2933 16.4773 12.7451 16.7762L17.2069 19.7293L15.7772 14.5732C15.6325 14.0512 15.8138 13.4932 16.2377 13.156L20.425 9.82503L15.0795 9.59145C14.5383 9.5678 14.0637 9.22295 13.874 8.71556L12 3.70388Z" fill="#161823"/>
</svg>
