<svg width="16" height="16" viewBox="0 0 16 16" fill="none" xmlns="http://www.w3.org/2000/svg">
<path d="M14.1133 6.95358C13.4411 7.76626 12.6071 8.03856 11.1999 7.98832C11.1936 6.22643 9.76573 4.80622 8.01139 4.80004C7.96119 3.39276 8.23347 2.55872 9.0462 1.88652C9.79836 1.2639 11.0629 1.10852 11.9441 1.98974C12.338 2.38363 12.5467 2.896 12.5733 3.4262C13.1035 3.45279 13.6161 3.66176 14.01 4.05565C14.8912 4.93686 14.7359 6.20141 14.1133 6.95358Z" fill="#161823"/>
<path d="M11.1999 8.01171C11.1936 9.7736 9.76574 11.1938 8.01139 11.2C7.96119 12.6073 8.23348 13.4413 9.0462 14.1135C9.79836 14.7361 11.0629 14.8915 11.9441 14.0103C12.338 13.6164 12.5467 13.104 12.5733 12.5738C13.1035 12.5472 13.6161 12.3383 14.01 11.9444C14.8912 11.0632 14.7359 9.79862 14.1133 9.04645C13.4411 8.23377 12.6071 7.96147 11.1999 8.01171Z" fill="#161823"/>
<path d="M6.95358 1.88677C7.76624 2.55892 8.03855 3.39288 7.98832 4.80004C6.23391 4.80626 4.80604 6.22664 4.79992 7.98864C3.39271 8.03882 2.5587 7.76653 1.88652 6.95383C1.2639 6.20166 1.10852 4.93711 1.98974 4.0559C2.38363 3.66201 2.896 3.45332 3.4262 3.42672C3.45279 2.89653 3.66176 2.38388 4.05565 1.98999C4.93686 1.10878 6.20141 1.26415 6.95358 1.88677Z" fill="#161823"/>
<path d="M1.88652 9.04645C2.5587 8.23374 3.39271 7.96145 4.79992 8.01163C4.80617 9.77353 6.23398 11.1938 7.98831 11.2C8.03858 12.6073 7.76628 13.4413 6.95358 14.1135C6.20141 14.7361 4.93686 14.8915 4.05565 14.0103C3.66176 13.6164 3.45279 13.1037 3.4262 12.5735C2.896 12.547 2.38363 12.3383 1.98974 11.9444C1.10852 11.0632 1.2639 9.79861 1.88652 9.04645Z" fill="#161823"/>
<path d="M5.99988 8C5.99988 9.10457 6.89531 10 7.99988 10C9.10445 10 9.99988 9.10457 9.99988 8C9.99988 6.89543 9.10445 6 7.99988 6C6.89531 6 5.99988 6.89543 5.99988 8Z" fill="#161823"/>
</svg>
