<svg width="24" height="24" viewBox="0 0 24 24" fill="none" xmlns="http://www.w3.org/2000/svg">
<path d="M20.8388 18.0975C20.881 18.8576 20.6112 19.5595 20.1433 20.0827L21.3305 21.2698C21.6234 21.5627 21.6234 22.0376 21.3305 22.3305C21.0393 22.6217 20.5681 22.6234 20.2748 22.3355L3.45904 5.51966C3.45742 5.51803 3.45579 5.51642 3.45415 5.51481L2.46967 4.53033C2.17678 4.23744 2.17678 3.76256 2.46967 3.46967C2.76256 3.17678 3.23744 3.17678 3.53033 3.46967L4.30194 4.24128C4.79479 3.49138 5.64337 3 6.60151 3H17.3986C18.8581 3 20.0634 4.14019 20.1444 5.59746L20.8388 18.0975ZM6.60151 4.5C6.05178 4.5 5.58139 4.85587 5.41538 5.35472L8.479 8.41834C8.33087 8.01519 8.25 7.57954 8.25 7.125V7C8.25 6.58579 8.58579 6.25 9 6.25C9.41421 6.25 9.75 6.58579 9.75 7V7.125C9.75 8.36764 10.7574 9.375 12 9.375C13.2426 9.375 14.25 8.36764 14.25 7.125V7C14.25 6.58579 14.5858 6.25 15 6.25C15.4142 6.25 15.75 6.58579 15.75 7V7.125C15.75 9.19607 14.0711 10.875 12 10.875C11.5455 10.875 11.1098 10.7941 10.7067 10.646L19.079 19.0184C19.2581 18.7889 19.3586 18.4957 19.3411 18.1807L18.6467 5.68066C18.6099 5.01827 18.062 4.5 17.3986 4.5H6.60151Z" fill="#161823"/>
<path d="M3.72732 7.90925L3.1613 18.0975C3.07373 19.6738 4.32834 21 5.90707 21H16.8181L15.3181 19.5H5.90707C5.18946 19.5 4.61919 18.8972 4.65899 18.1807L5.15056 9.3325L3.72732 7.90925Z" fill="#161823"/>
</svg>
