<svg width="24" height="24" viewBox="0 0 24 24" fill="none" xmlns="http://www.w3.org/2000/svg">
<path fill-rule="evenodd" clip-rule="evenodd" d="M10.15 5.94995C9.45964 5.94995 8.9 5.39031 8.9 4.69995V2.69995C8.9 2.0096 9.45964 1.44995 10.15 1.44995L13.8 1.44995C14.4904 1.44995 15.05 2.0096 15.05 2.69995V4.69995C15.05 5.39031 14.4904 5.94995 13.8 5.94995H10.15ZM10.4 4.44995L13.55 4.44995V2.94995L10.4 2.94995V4.44995Z" fill="#161823"/>
<path fill-rule="evenodd" clip-rule="evenodd" d="M10.0916 7.45104C8.57039 7.29656 7.38333 6.01188 7.38333 4.44995V2.94995C7.38333 2.85047 7.30486 2.76662 7.20537 2.76662H6.75C6.45196 2.76662 6.16204 2.80139 5.88408 2.86709C5.79988 2.88699 5.71677 2.90974 5.63487 2.93521C4.10836 3.41 3 4.83388 3 6.51662V18.75C3 20.821 4.67893 22.5 6.75 22.5H17.25C19.3211 22.5 21 20.821 21 18.75V6.51662C21 4.72569 19.7445 3.22798 18.0657 2.85558C18.0458 2.85117 18.0258 2.84691 18.0058 2.8428C17.7616 2.79285 17.5089 2.76662 17.25 2.76662H16.7446C16.6451 2.76662 16.5667 2.85047 16.5667 2.94995V4.44995C16.5667 6.02822 15.3546 7.32341 13.8106 7.45552C13.8075 7.45579 13.8044 7.45605 13.8012 7.4563C13.7184 7.46313 13.6346 7.46662 13.55 7.46662L10.4 7.46662C10.3272 7.46662 10.2551 7.46404 10.1836 7.45898C10.1528 7.45679 10.1221 7.45415 10.0916 7.45104ZM13.1152 13.6347C12.7837 13.8464 12.4038 13.9666 12 13.9666C11.5575 13.9666 11.1438 13.8222 10.7909 13.5714C10.7574 13.5475 10.7244 13.5227 10.6919 13.497C10.0696 13.0028 9.66046 12.1659 9.66046 11.2166C9.66046 10.2865 10.0533 9.4643 10.6545 8.96662C10.6669 8.95636 10.6794 8.94625 10.6919 8.93627C11.0653 8.63976 11.5155 8.46662 12 8.46662C12.5008 8.46662 12.9649 8.6516 13.3455 8.96662C13.3945 9.00716 13.4421 9.04985 13.4882 9.09458C14.0081 9.59897 14.3396 10.3623 14.3396 11.2166C14.3396 12.2153 13.8867 13.0897 13.2091 13.5714C13.1782 13.5933 13.1469 13.6144 13.1152 13.6347ZM10.6067 15.1187C11.05 15.0364 11.5166 14.9927 12 14.9927C12.5233 14.9927 13.0269 15.044 13.5025 15.1398C13.5542 15.1502 13.6055 15.1611 13.6564 15.1726C15.9115 15.679 17.5 17.1978 17.5 18.9927C17.5 19.8211 16.8284 20.4927 16 20.4927H8.00001C7.17159 20.4927 6.50002 19.8211 6.50002 18.9927C6.50002 17.1572 8.16111 15.6105 10.4975 15.1398C10.5337 15.1325 10.5702 15.1254 10.6067 15.1187Z" fill="#161823"/>
</svg>
