<svg width="20" height="20" viewBox="0 0 20 20" fill="none" xmlns="http://www.w3.org/2000/svg">
<path d="M8.26138 3.54303C9.03119 2.20969 10.9557 2.2097 11.7255 3.54303L14.7447 8.77243C14.347 9.18586 14.1025 9.74771 14.1025 10.3667V10.6602L10.4264 4.29303C10.234 3.95969 9.75287 3.9597 9.56042 4.29303L3.23208 15.254C3.03963 15.5874 3.28019 16.004 3.66509 16.004H10.106C10.1017 16.0828 10.0995 16.162 10.0995 16.2418C10.0995 16.681 10.1653 17.1049 10.2877 17.504H3.66509C2.12549 17.504 1.16324 15.8374 1.93304 14.504L8.26138 3.54303Z" fill="#161823"/>
<path d="M15.6025 10.3667C15.6025 10.3335 15.6045 10.3007 15.6085 10.2686C15.6568 9.87301 15.9939 9.56667 16.4025 9.56667C16.7682 9.56667 17.0766 9.81205 17.172 10.1472C17.1922 10.2174 17.203 10.2916 17.203 10.3683C17.203 11.4644 18.0915 12.353 19.1877 12.353C19.6295 12.353 19.9877 12.7111 19.9877 13.153C19.9877 13.5948 19.6295 13.953 19.1877 13.953C18.573 13.953 17.9946 13.7983 17.489 13.5257C17.3907 13.4727 17.2951 13.4152 17.2025 13.3536V16.2418C17.2025 16.657 17.1122 17.0511 16.9502 17.4055C16.5083 18.3719 15.5331 19.0433 14.401 19.0433C13.3079 19.0433 12.3609 18.4172 11.8993 17.504C11.7075 17.1247 11.5995 16.6959 11.5995 16.2418C11.5995 16.1617 11.6029 16.0824 11.6095 16.004C11.7301 14.5681 12.9339 13.4403 14.401 13.4403C14.8428 13.4403 15.201 13.7985 15.201 14.2403C15.201 14.6821 14.8428 15.0403 14.401 15.0403C13.8188 15.0403 13.3334 15.4544 13.223 16.004C13.2076 16.0809 13.1995 16.1604 13.1995 16.2418C13.1995 16.9054 13.7374 17.4433 14.401 17.4433C15.0646 17.4433 15.6025 16.9054 15.6025 16.2418V10.3667Z" fill="#161823"/>
<path d="M9.99347 13.113C10.4105 13.113 10.764 13.385 10.8864 13.7612C10.6343 14.1177 10.4352 14.5141 10.3003 14.9392C10.2041 14.9724 10.1009 14.9905 9.99347 14.9905C9.47503 14.9905 9.05475 14.5702 9.05475 14.0518C9.05475 13.5333 9.47503 13.113 9.99347 13.113Z" fill="#161823"/>
<path d="M9.15247 7.99265C9.14566 7.52341 9.52418 7.13936 9.99347 7.13936C10.4628 7.13936 10.8413 7.52341 10.8345 7.99265L10.7713 11.493C10.7651 11.9182 10.4187 12.2597 9.99347 12.2597C9.56824 12.2597 9.22181 11.9182 9.21564 11.493L9.15247 7.99265Z" fill="#161823"/>
</svg>
