<svg width="16" height="16" viewBox="0 0 16 16" fill="none" xmlns="http://www.w3.org/2000/svg">
<path d="M7.30228 2.24257C8.57586 2.08795 9.8649 2.35712 10.9693 3.00814C11.6811 3.42775 12.2905 3.99084 12.7619 4.65593L11.6964 5.04376C11.4517 5.1328 11.4295 5.4769 11.66 5.60656L13.938 6.88798C14.1527 7.00878 14.4192 6.91178 14.5061 6.68122L15.4275 4.23531C15.5207 3.98782 15.2825 3.73853 15.0378 3.82758L13.9237 4.23307C13.3335 3.31211 12.5321 2.53643 11.5787 1.97438C10.2469 1.18935 8.6929 0.864933 7.15766 1.05131C5.62242 1.2377 4.19155 1.9245 3.0872 3.00541C2.21903 3.85516 1.59083 4.91114 1.25672 6.06668C1.16468 6.38501 1.34812 6.71768 1.66645 6.80972C1.98478 6.90177 2.31746 6.71832 2.4095 6.39999C2.68632 5.44258 3.20689 4.56741 3.92658 3.86299C4.84211 2.96689 6.02871 2.39718 7.30228 2.24257Z" fill="#161823"/>
<path d="M14.7429 9.9333C14.8348 9.61496 14.6513 9.28232 14.333 9.19033C14.0146 9.09834 13.682 9.28185 13.59 9.60019C13.3159 10.5487 12.8031 11.4157 12.0959 12.1159C11.2338 12.9693 10.1259 13.5322 8.92731 13.7256C7.72873 13.9191 6.4996 13.7333 5.41207 13.1945C4.54364 12.7642 3.80027 12.126 3.24544 11.3415L4.30351 10.9564C4.54821 10.8674 4.57048 10.5232 4.33992 10.3935L2.06132 9.11174C1.84652 8.99092 1.57996 9.08793 1.49309 9.31856L0.571465 11.7651C0.478215 12.0126 0.716508 12.262 0.961219 12.1729L2.08389 11.7643C2.76868 12.8347 3.73393 13.7022 4.8793 14.2697C6.19092 14.9196 7.67316 15.1436 9.11851 14.9103C10.5639 14.677 11.9001 13.9982 12.9401 12.9687C13.7933 12.124 14.4121 11.078 14.7429 9.9333Z" fill="#161823"/>
</svg>
