<svg width="16" height="16" viewBox="0 0 16 16" fill="none" xmlns="http://www.w3.org/2000/svg">
<path d="M7.26667 7.1C7.26667 6.76863 6.99804 6.5 6.66667 6.5C6.33529 6.5 6.06667 6.76863 6.06667 7.1V11.4C6.06667 11.7314 6.33529 12 6.66667 12C6.99804 12 7.26667 11.7314 7.26667 11.4V7.1Z" fill="#161823"/>
<path d="M9.33333 6.5C9.6647 6.5 9.93333 6.76863 9.93333 7.1V11.4C9.93333 11.7314 9.6647 12 9.33333 12C9.00196 12 8.73333 11.7314 8.73333 11.4V7.1C8.73333 6.76863 9.00196 6.5 9.33333 6.5Z" fill="#161823"/>
<path d="M4.929 2.38586C5.04086 1.7576 5.58714 1.29999 6.22529 1.29999H9.77504C10.4132 1.29999 10.9595 1.7576 11.0713 2.38586L11.2697 3.5L13.5 3.5C13.9142 3.5 14.25 3.83579 14.25 4.25C14.25 4.66421 13.9142 5 13.5 5H12.7217L12.2461 12.8831C12.1845 13.9038 11.3388 14.7 10.3163 14.7H5.68405C4.66152 14.7 3.8158 13.9038 3.75423 12.8831L3.27865 5H2.5C2.08579 5 1.75 4.66421 1.75 4.25C1.75 3.83579 2.08579 3.5 2.5 3.5L4.73064 3.5L4.929 2.38586ZM9.94925 3.5L9.79145 2.61373C9.79004 2.60578 9.78312 2.59999 9.77504 2.59999H6.22529C6.21721 2.59999 6.21029 2.60578 6.20888 2.61373L6.05108 3.5L9.94925 3.5ZM4.48084 5L4.95205 12.8108C4.9754 13.198 5.29619 13.5 5.68405 13.5H10.3163C10.7041 13.5 11.0249 13.198 11.0483 12.8108L11.5195 5L4.48084 5Z" fill="#161823"/>
</svg>
