<svg width="24" height="24" viewBox="0 0 24 24" fill="none" xmlns="http://www.w3.org/2000/svg">
<path d="M7.25037 6V5.5H3.75037C3.06001 5.5 2.50037 6.05964 2.50037 6.75V7C2.50037 7.41421 2.16458 7.75 1.75037 7.75C1.33615 7.75 1.00037 7.41421 1.00037 7V6.75C1.00037 5.23122 2.23158 4 3.75037 4H7.41656C7.96527 1.98308 9.80962 0.5 12.0004 0.5C14.1911 0.5 16.0355 1.98308 16.5842 4H20.2504C21.7691 4 23.0004 5.23122 23.0004 6.75V7C23.0004 7.41421 22.6646 7.75 22.2504 7.75C21.8362 7.75 21.5004 7.41421 21.5004 7V6.75C21.5004 6.05964 20.9407 5.5 20.2504 5.5H16.7504V6C16.7504 6.41421 16.4146 6.75 16.0004 6.75C15.5862 6.75 15.2504 6.41421 15.2504 6V5.5H8.75037V6C8.75037 6.41421 8.41458 6.75 8.00037 6.75C7.58615 6.75 7.25037 6.41421 7.25037 6ZM12.0004 2C10.6484 2 9.48923 2.82552 8.99945 4H15.0013C14.5115 2.82552 13.3523 2 12.0004 2Z" fill="#161823"/>
<path d="M20.6504 7.98039C20.3634 7.8147 19.9964 7.91303 19.8307 8.2L18.9066 9.80059H17.1726L17.169 9.79548L16.0219 8.15718C15.8318 7.88574 15.4577 7.81977 15.1862 8.00983C14.9148 8.1999 14.8488 8.57403 15.0389 8.84547L15.7077 9.80059H14.4004C13.8481 9.80059 13.4004 10.2483 13.4004 10.8006V14.5006C13.4004 15.0529 13.8481 15.5006 14.4004 15.5006H17.3004L17.3004 16.49H12.7504C12.419 16.49 12.1504 16.7586 12.1504 17.09C12.1504 17.4214 12.419 17.69 12.7504 17.69H17.3004L17.3004 19.5512C17.3004 19.9378 17.6138 20.2512 18.0004 20.2512C18.387 20.2512 18.7004 19.9378 18.7004 19.5512L18.7004 17.69H23.2504C23.5818 17.69 23.8504 17.4214 23.8504 17.09C23.8504 16.7586 23.5818 16.49 23.2504 16.49H18.7004L18.7004 15.5006H21.6004C22.1527 15.5006 22.6004 15.0529 22.6004 14.5006V10.8006C22.6004 10.2483 22.1527 9.80059 21.6004 9.80059H20.2923L20.87 8.8C21.0357 8.51303 20.9373 8.14607 20.6504 7.98039ZM21.4004 14.3006H18.7004L18.7004 13.2506H21.4004V14.3006ZM21.4004 11.0006V12.0506H18.7004L18.7004 11.0006H21.4004ZM14.6004 11.0006H17.3004L17.3004 12.0506H14.6004V11.0006ZM17.3004 13.2506L17.3004 14.3006H14.6004V13.2506H17.3004Z" fill="#161823"/>
<path d="M1.64532 8.53986C1.87963 8.30555 2.25953 8.30555 2.49384 8.53986L3.55534 9.60136C3.78965 9.83567 3.78965 10.2156 3.55534 10.4499C3.32102 10.6842 2.94112 10.6842 2.70681 10.4499L1.64532 9.38839C1.411 9.15408 1.411 8.77418 1.64532 8.53986Z" fill="#161823"/>
<path d="M0.754297 11.6502C0.422926 11.6502 0.154297 11.9189 0.154297 12.2502C0.154297 12.5816 0.422926 12.8502 0.754297 12.8502H1.85071L1.85071 18.5936C1.85071 18.6654 1.86151 18.7347 1.88159 18.7999C1.88269 18.9169 1.91795 19.0348 1.99012 19.1378C2.18019 19.4093 2.55431 19.4752 2.82576 19.2852L4.56344 18.0684C4.83488 17.8784 4.90085 17.5042 4.71079 17.2328C4.52072 16.9614 4.14659 16.8954 3.87515 17.0855L3.25071 17.5227L3.25071 12.3692C3.25071 12.0358 3.01764 11.7569 2.70555 11.6864C2.64136 11.663 2.57207 11.6502 2.49982 11.6502H0.754297Z" fill="#161823"/>
<path d="M4.40039 9.58C4.40039 9.24863 4.66902 8.98 5.00039 8.98H12.0504C12.3818 8.98 12.6504 9.24863 12.6504 9.58C12.6504 9.91137 12.3818 10.18 12.0504 10.18H9.45041L9.45042 18.9802C9.45042 19.1592 9.38327 19.3224 9.2728 19.4462C9.16975 19.6282 8.97439 19.751 8.75034 19.751H6.72577C6.3944 19.751 6.12577 19.4823 6.12577 19.151C6.12577 18.8196 6.3944 18.551 6.72577 18.551H8.05042L8.05042 10.18H5.00039C4.66902 10.18 4.40039 9.91137 4.40039 9.58Z" fill="#161823"/>
<path d="M2.50037 21C2.50037 20.5858 2.16458 20.25 1.75037 20.25C1.33615 20.25 1.00037 20.5858 1.00037 21V21.25C1.00037 22.7688 2.23158 24 3.75037 24H20.2504C21.7691 24 23.0004 22.7688 23.0004 21.25V21C23.0004 20.5858 22.6646 20.25 22.2504 20.25C21.8362 20.25 21.5004 20.5858 21.5004 21V21.25C21.5004 21.9404 20.9407 22.5 20.2504 22.5H3.75037C3.06001 22.5 2.50037 21.9404 2.50037 21.25V21Z" fill="#161823"/>
</svg>
