<svg width="20" height="20" viewBox="0 0 20 20" fill="none" xmlns="http://www.w3.org/2000/svg">
<path d="M9.99996 18.165C14.5094 18.165 18.165 14.5094 18.165 9.99998C18.165 5.49056 14.5094 1.83496 9.99996 1.83496C5.49056 1.83496 1.83496 5.49056 1.83496 9.99998C1.83496 14.5094 5.49056 18.165 9.99996 18.165ZM4.87502 11.5593L7.54836 8.08393C7.78666 7.77413 8.2111 7.67666 8.56069 7.85146L11.6761 9.40915C11.9059 9.52408 12.1765 9.52408 12.4064 9.40915L14.5336 8.34552C14.9213 8.15165 15.3041 8.61598 15.0398 8.95959L12.4701 12.3002C12.2236 12.6206 11.7797 12.7125 11.4264 12.5161L8.72671 11.0163C8.50044 10.8906 8.22796 10.8797 7.99231 10.9868L5.36754 12.1799C4.98034 12.3559 4.61569 11.8964 4.87502 11.5593Z" fill="#161823"/>
</svg>
