<svg width="16" height="16" viewBox="0 0 16 16" fill="none" xmlns="http://www.w3.org/2000/svg">
<path d="M4.83341 5.48045L7.99879 7.30799L11.1642 5.48045C11.4512 5.31477 11.8181 5.41309 11.9838 5.70007C12.1495 5.98704 12.0512 6.354 11.7642 6.51968L8.60007 8.34648V12.0001C8.60007 12.3314 8.33145 12.6001 8.00007 12.6001C7.6687 12.6001 7.40007 12.3314 7.40007 12.0001V8.34796L4.23341 6.51968C3.94643 6.354 3.84811 5.98704 4.01379 5.70007C4.17948 5.41309 4.54643 5.31477 4.83341 5.48045Z" fill="#161823"/>
<path fill-rule="evenodd" clip-rule="evenodd" d="M9.30007 1.05781C8.49563 0.593361 7.50451 0.593361 6.70007 1.05781L2.63789 3.40311C1.83345 3.86755 1.33789 4.72588 1.33789 5.65477V10.3454C1.33789 11.2743 1.83345 12.1326 2.63789 12.597L6.70007 14.9423C7.50451 15.4068 8.49563 15.4068 9.30007 14.9423L13.3622 12.597C14.1667 12.1326 14.6622 11.2743 14.6622 10.3454V5.65477C14.6622 4.72588 14.1667 3.86755 13.3622 3.40311L9.30007 1.05781ZM7.30007 2.09704C7.73323 1.84695 8.26691 1.84695 8.70007 2.09704L12.7622 4.44234C13.1954 4.69242 13.4622 5.1546 13.4622 5.65477V10.3454C13.4622 10.8455 13.1954 11.3077 12.7622 11.5578L8.70007 13.9031C8.26691 14.1532 7.73323 14.1532 7.30007 13.9031L3.23789 11.5578C2.80473 11.3077 2.53789 10.8455 2.53789 10.3454V5.65477C2.53789 5.1546 2.80473 4.69242 3.23789 4.44234L7.30007 2.09704Z" fill="#161823"/>
</svg>
