<svg width="24" height="24" viewBox="0 0 24 24" fill="none" xmlns="http://www.w3.org/2000/svg">
<path fill-rule="evenodd" clip-rule="evenodd" d="M22 10.94C22 5.91936 17.4348 2 12 2C9.46375 2 7.11688 2.85357 5.33497 4.27431L3.53033 2.46967C3.23744 2.17678 2.76256 2.17678 2.46967 2.46967C2.17678 2.76256 2.17678 3.23744 2.46967 3.53033L4.23812 5.29878L4.23805 5.29885L10.8312 11.892C10.831 11.8918 10.8309 11.8916 10.8308 11.8915L11.1746 12.2353C11.1745 12.2352 11.1743 12.2351 11.1742 12.235L17.5519 18.6127L17.5519 18.6126L20.4697 21.5303C20.7626 21.8232 21.2374 21.8232 21.5303 21.5303C21.8232 21.2374 21.8232 20.7626 21.5303 20.4697L18.6908 17.6302C18.7528 17.5707 18.8138 17.511 18.8736 17.4511C20.7866 15.5348 22 13.4411 22 10.94ZM13.0749 12.0142C13.2959 11.7643 13.43 11.4366 13.43 11.0777C13.43 10.2952 12.7904 9.6599 12.0014 9.6599C11.6439 9.6599 11.3171 9.79034 11.0665 10.0058L13.0749 12.0142ZM18.29 11.0778C18.29 11.8618 17.6511 12.4971 16.8618 12.4971C16.0726 12.4971 15.4328 11.8618 15.4329 11.0778C15.4329 10.2952 16.0726 9.65998 16.8618 9.65998C17.651 9.65998 18.29 10.2952 18.29 11.0778Z" fill="#161823"/>
<path d="M2 10.9402C2 9.31126 2.48052 7.79829 3.31535 6.49747L6.58813 9.77025C6.07416 9.98491 5.71285 10.4898 5.71285 11.0778C5.71285 11.8618 6.35275 12.4971 7.14077 12.4971C7.7302 12.4971 8.23629 12.1428 8.45483 11.6369L16.3265 19.5086C15.4509 20.1074 14.5891 20.6203 13.9123 21.0012C12.7407 21.6605 11.3841 21.5753 11.3841 19.499V19.2972C6.3494 19.006 2 15.7965 2 10.9402Z" fill="#161823"/>
</svg>
