<svg width="24" height="24" viewBox="0 0 24 24" fill="none" xmlns="http://www.w3.org/2000/svg">
<path d="M22 12C22 12.5098 21.9619 13.0107 21.8883 13.5H20.3681C20.4548 13.0131 20.5 12.5118 20.5 12C20.5 7.30558 16.6944 3.5 12 3.5C7.30558 3.5 3.5 7.30558 3.5 12C3.5 16.493 6.98603 20.1718 11.4009 20.4792C11.1521 20.7469 11 21.1057 11 21.5C11 21.6595 11.0249 21.8132 11.071 21.9574C5.98371 21.4888 2 17.2096 2 12C2 6.47715 6.47715 2 12 2C17.5228 2 22 6.47715 22 12Z" fill="#161823"/>
<path d="M7.70711 11.2426C7.31658 11.6331 7.31658 12.2663 7.70711 12.6568L11.2426 16.1923C11.6332 16.5829 12.2663 16.5829 12.6569 16.1923L16.1924 12.6568C16.5829 12.2663 16.5829 11.6331 16.1924 11.2426L12.6569 7.70707C12.2663 7.31654 11.6332 7.31654 11.2426 7.70707L7.70711 11.2426ZM9.12132 11.9497L11.9497 9.12128L14.7782 11.9497L11.9497 14.7781L9.12132 11.9497Z" fill="#161823"/>
<path d="M17.3197 15.4071C17.4188 15.1607 17.6523 15 17.9113 15H21.3596C21.7133 15 22 15.2952 22 15.6594V19.2102C22 19.4769 21.844 19.7173 21.6047 19.8194C21.3654 19.9215 21.0899 19.865 20.9068 19.6764L19.7303 18.465L17.7536 20.7329C17.485 21.0411 17.0262 21.0715 16.7215 20.8012L15.2648 19.5092L13.2857 21.7509C13.0112 22.0619 12.5438 22.0848 12.2419 21.8021C11.9399 21.5195 11.9177 21.0382 12.1922 20.7273L14.6552 17.9374C14.9246 17.6324 15.3808 17.6037 15.6842 17.8728L17.1374 19.1616L18.6838 17.3874L17.4585 16.1257C17.2754 15.9371 17.2206 15.6535 17.3197 15.4071Z" fill="#161823"/>
</svg>
