<svg width="20" height="20" viewBox="0 0 20 20" fill="none" xmlns="http://www.w3.org/2000/svg">
<path d="M13.25 4H3.75C3.05964 4 2.5 4.55964 2.5 5.25V12.25C2.5 12.9404 3.05964 13.5 3.75 13.5H6.3C6.41046 13.5 6.5 13.5895 6.5 13.7V14.8C6.5 14.9105 6.41046 15 6.3 15H3.75C2.23122 15 1 13.7688 1 12.25V5.25C1 3.73122 2.23122 2.5 3.75 2.5H13.25C14.7688 2.5 16 3.73122 16 5.25V7.3C16 7.41046 15.9105 7.5 15.8 7.5H14.7C14.5895 7.5 14.5 7.41046 14.5 7.3V5.25C14.5 4.55964 13.9404 4 13.25 4Z" fill="#161823"/>
<path d="M10.5 9C9.11929 9 8 10.1193 8 11.5V15C8 16.3807 9.11929 17.5 10.5 17.5H16.5C17.8807 17.5 19 16.3807 19 15V11.5C19 10.1193 17.8807 9 16.5 9H10.5Z" fill="#161823"/>
<path d="M4.78033 5.21967C4.48744 4.92678 4.01256 4.92678 3.71967 5.21967C3.42678 5.51256 3.42678 5.98744 3.71967 6.28033L5.08241 7.64307L4.39267 8.34866C4.15541 8.59137 4.32737 8.99995 4.66679 8.99995H7.11667C7.32837 8.99995 7.5 8.82832 7.5 8.61662V6.11042C7.5 5.7668 7.08274 5.59674 6.84255 5.84246L6.13101 6.57035L4.78033 5.21967Z" fill="#161823"/>
</svg>
