<svg width="24" height="24" viewBox="0 0 24 24" fill="none" xmlns="http://www.w3.org/2000/svg">
<path d="M2.98328 6.75C2.98328 4.95508 4.43835 3.5 6.23328 3.5H17.7333C19.5282 3.5 20.9833 4.95508 20.9833 6.75V10.0001L21 10C22.3807 10 23.5 11.1193 23.5 12.5V16.95C23.5 18.4688 22.2688 19.7 20.75 19.7H18.9542C19.062 20.0439 18.9797 20.4346 18.7071 20.7071C18.3166 21.0977 17.6834 21.0977 17.2929 20.7071L16.2858 19.7H7.71421L6.70708 20.7071C6.31656 21.0977 5.68339 21.0977 5.29287 20.7071C5.02035 20.4346 4.938 20.0439 5.04583 19.7H3.25C1.73122 19.7 0.5 18.4688 0.5 16.95V12.5C0.5 11.1249 1.61026 10.009 2.98328 10.0001V6.75ZM19.4833 6.75C19.4833 5.7835 18.6998 5 17.7333 5H12.75L12.75 14.5171H18C18.2761 14.5171 18.5 14.2933 18.5 14.0171V12.5C18.5 11.6896 18.8856 10.9693 19.4833 10.5125V6.75ZM11.25 5H6.23328C5.26678 5 4.48328 5.7835 4.48328 6.75V10.4874C5.1 10.9426 5.5 11.6746 5.5 12.5V14.0171C5.5 14.2933 5.72386 14.5171 6 14.5171H11.25V5ZM22 16.95V12.5C22 11.9477 21.5523 11.5 21 11.5C20.4477 11.5 20 11.9477 20 12.5V14.0171C20 15.1217 19.1046 16.0171 18 16.0171H6C4.89543 16.0171 4 15.1217 4 14.0171V12.5C4 11.9477 3.55229 11.5 3 11.5C2.44771 11.5 2 11.9477 2 12.5V16.95C2 17.6404 2.55964 18.2 3.25 18.2H20.75C21.4404 18.2 22 17.6404 22 16.95Z" fill="#161823"/>
</svg>
