<svg width="20" height="20" viewBox="0 0 20 20" fill="none" xmlns="http://www.w3.org/2000/svg">
<path d="M17.3809 2.32259C17.0554 1.99715 16.5278 1.99715 16.2024 2.32259L8.30634 10.2186C8.07295 10.452 7.88809 10.7293 7.76242 11.0345L7.22619 12.3368C7.11338 12.6107 7.38736 12.8847 7.66134 12.7719L8.96359 12.2357C9.2688 12.11 9.54609 11.9251 9.77948 11.6918L17.6755 3.79573C18.0009 3.47029 18.0009 2.94266 17.6755 2.61722L17.3809 2.32259Z" fill="#161823"/>
<path d="M12.9949 2.375C13.3159 2.375 13.6291 2.40862 13.9311 2.47252L12.5286 3.875H7.00488C5.34803 3.875 4.00488 5.21814 4.00488 6.875V13.125C4.00488 14.7819 5.34803 16.125 7.00489 16.125H12.9949C14.6517 16.125 15.9949 14.7819 15.9949 13.125V7.59766L17.4376 6.15496C17.4753 6.38941 17.4949 6.62992 17.4949 6.875V13.125C17.4949 15.6103 15.4802 17.625 12.9949 17.625H7.00489C4.51961 17.625 2.50488 15.6103 2.50488 13.125V6.875C2.50488 4.38972 4.5196 2.375 7.00488 2.375H12.9949Z" fill="#161823"/>
</svg>
