<svg width="20" height="20" viewBox="0 0 20 20" fill="none" xmlns="http://www.w3.org/2000/svg">
<path d="M12.0245 1.6698C9.97836 1.6698 8.15982 2.64408 7.00745 4.15404C7.34975 4.1086 7.69899 4.08514 8.05371 4.08514C12.403 4.08514 15.9287 7.6109 15.9287 11.9601C15.9287 12.3065 15.9063 12.6477 15.863 12.9823C17.3641 11.8293 18.3318 10.0162 18.3318 7.9771C18.3318 4.49367 15.5079 1.6698 12.0245 1.6698Z" fill="#161823"/>
<path d="M1.67871 11.9601C1.67871 8.43933 4.5329 5.58514 8.05371 5.58514C11.5745 5.58514 14.4287 8.43933 14.4287 11.9601C14.4287 15.481 11.5745 18.3351 8.05371 18.3351C4.5329 18.3351 1.67871 15.481 1.67871 11.9601ZM6.90434 10.6256C6.90434 9.97491 6.5087 9.44739 6.02065 9.44739C5.5326 9.44739 5.13696 9.97491 5.13696 10.6256C5.13696 11.2764 5.5326 11.8039 6.02065 11.8039C6.5087 11.8039 6.90434 11.2764 6.90434 10.6256ZM11.0282 10.6256C11.0282 9.97491 10.6326 9.44739 10.1446 9.44739C9.65651 9.44739 9.26086 9.97491 9.26086 10.6256C9.26086 11.2764 9.65651 11.8039 10.1446 11.8039C10.6326 11.8039 11.0282 11.2764 11.0282 10.6256ZM6.31521 13.2105C6.31521 13.9077 7.1065 14.4729 8.08259 14.4729C9.05869 14.4729 9.84998 13.9077 9.84998 13.2105C9.84998 12.5133 6.31521 12.5133 6.31521 13.2105Z" fill="#161823"/>
</svg>
