<svg width="32" height="32" viewBox="0 0 32 32" fill="none" xmlns="http://www.w3.org/2000/svg">
<circle class="cht-card__action-btn-bg" cx="16" cy="16" r="16"/>
<path class="cht-card__action-btn-glyph" d="M13.9348 16.3214C13.9348 15.1811 14.8592 14.2566 15.9995 14.2566C17.1399 14.2566 18.0643 15.1811 18.0643 16.3214C18.0643 17.4618 17.1399 18.3862 15.9995 18.3862C14.8592 18.3862 13.9348 17.4618 13.9348 16.3214Z"/>
<path class="cht-card__action-btn-glyph" d="M18.9786 9.84129C18.6912 9.41026 18.2485 9.1069 17.7428 8.99452C16.5946 8.73937 15.4044 8.73937 14.2563 8.99452C13.7506 9.1069 13.3079 9.41026 13.0205 9.84129L12.6182 10.4447C12.4428 10.7078 12.1663 10.8866 11.8543 10.9386L11.3497 11.0227C9.92754 11.2598 8.81662 12.3802 8.59175 13.8043L8.51157 14.3122C8.25558 15.9335 8.28932 17.5873 8.61121 19.1968C8.91684 20.7249 10.0506 21.9543 11.549 22.3824L11.7985 22.4537C14.5443 23.2382 17.4548 23.2382 20.2006 22.4537L20.45 22.3824C21.9485 21.9543 23.0822 20.7249 23.3879 19.1968C23.7098 17.5873 23.7435 15.9335 23.4875 14.3122L23.4073 13.8043C23.1825 12.3802 22.0715 11.2598 20.6494 11.0227L20.1447 10.9386C19.8328 10.8866 19.5563 10.7078 19.3808 10.4447L18.9786 9.84129ZM15.9995 12.7566C17.9683 12.7566 19.5643 14.3526 19.5643 16.3214C19.5643 18.2902 17.9683 19.8862 15.9995 19.8862C14.0308 19.8862 12.4348 18.2902 12.4348 16.3214C12.4348 14.3526 14.0308 12.7566 15.9995 12.7566Z"/>
</svg>
