<svg width="32" height="32" viewBox="0 0 32 32" fill="none" xmlns="http://www.w3.org/2000/svg">
<circle class="cht-card__action-btn-bg" cx="16" cy="16" r="16"/>
<path class="cht-card__action-btn-glyph" d="M13.75 22.0002C14.3943 22.0002 14.75 21.4778 14.75 20.8335L14.75 11.1667C14.75 10.5223 14.3944 10 13.75 10C13.5556 10 12.6111 10 12.4167 10C11.7724 10 11.25 10.5223 11.25 11.1667L11.25 20.8335C11.25 21.4778 11.7723 22.0002 12.4166 22.0002C12.6111 22.0002 13.5555 22.0002 13.75 22.0002Z"/>
<path class="cht-card__action-btn-glyph" d="M19.75 22.0002C20.3943 22.0002 20.75 21.4778 20.75 20.8335L20.75 11.1667C20.75 10.5223 20.3944 10 19.75 10C19.5556 10 18.6111 10 18.4167 10C17.7724 10 17.25 10.5223 17.25 11.1667L17.25 20.8335C17.25 21.4778 17.7723 22.0002 18.4166 22.0002C18.6111 22.0002 19.5556 22.0002 19.75 22.0002Z"/>
</svg>
