<svg width="20" height="20" viewBox="0 0 20 20" fill="none" xmlns="http://www.w3.org/2000/svg">
<path d="M5.42004 9.84009C6.24847 9.84009 6.92004 9.16852 6.92004 8.34009C6.92004 7.51166 6.24847 6.84009 5.42004 6.84009C4.59162 6.84009 3.92004 7.51166 3.92004 8.34009C3.92004 9.16852 4.59162 9.84009 5.42004 9.84009Z" fill="#161823"/>
<path d="M3.41504 3.33337C1.75818 3.33337 0.415039 4.67652 0.415039 6.33337V13.6667C0.415039 15.3236 1.75818 16.6667 3.41504 16.6667H12.83C14.4869 16.6667 15.83 15.3236 15.83 13.6667V13.3998L17.5942 14.0673C18.5755 14.4386 19.625 13.7136 19.625 12.6644V7.33572C19.625 6.28653 18.5755 5.56149 17.5942 5.93279L15.83 6.60032V6.33337C15.83 4.67652 14.4869 3.33337 12.83 3.33337H3.41504ZM12.83 4.83337C13.6585 4.83337 14.33 5.50495 14.33 6.33337V13.6667C14.33 14.4952 13.6585 15.1667 12.83 15.1667H3.41504C2.58661 15.1667 1.91504 14.4952 1.91504 13.6667V6.33337C1.91504 5.50495 2.58661 4.83337 3.41504 4.83337H12.83ZM18.125 12.6644L15.83 11.796V8.20411L18.125 7.33572V12.6644Z" fill="#161823"/>
</svg>
