<svg width="16" height="16" viewBox="0 0 16 16" fill="none" xmlns="http://www.w3.org/2000/svg">
<path fill-rule="evenodd" clip-rule="evenodd" d="M5.06113 1.22266C3.73565 1.22266 2.66113 2.29717 2.66113 3.62266V12.1449C2.66113 13.4704 3.73565 14.5449 5.06113 14.5449H10.9398C12.2653 14.5449 13.3398 13.4704 13.3398 12.1449V3.62266C13.3398 2.29717 12.2653 1.22266 10.9398 1.22266H5.06113ZM5.06704 4.48315C5.06704 4.15178 5.33567 3.88315 5.66704 3.88315H10.3337C10.6651 3.88315 10.9337 4.15178 10.9337 4.48315C10.9337 4.81453 10.6651 5.08315 10.3337 5.08315H5.66704C5.33567 5.08315 5.06704 4.81453 5.06704 4.48315ZM5.66714 6.68284C5.33577 6.68284 5.06714 6.95147 5.06714 7.28284C5.06714 7.61421 5.33577 7.88284 5.66714 7.88284H8.66714C8.99851 7.88284 9.26714 7.61421 9.26714 7.28284C9.26714 6.95147 8.99851 6.68284 8.66714 6.68284H5.66714Z" fill="#161823"/>
</svg>
