<svg width="20" height="20" viewBox="0 0 20 20" fill="none" xmlns="http://www.w3.org/2000/svg">
<path fill-rule="evenodd" clip-rule="evenodd" d="M4 4.75C4 3.23122 5.23122 2 6.75 2H13.25C14.7688 2 16 3.23122 16 4.75V15.25C16 16.7688 14.7688 18 13.25 18H6.75C5.23122 18 4 16.7688 4 15.25V4.75ZM6.75 3.5H13.25C13.9404 3.5 14.5 4.05964 14.5 4.75V7.14675C13.7747 7.64003 12.9861 8.00146 12.1683 8.23088C11.8518 7.33885 11.0005 6.7 10 6.7C8.99842 6.7 8.14637 7.3402 7.83074 8.23372C7.01288 8.0051 6.22462 7.64402 5.5 7.15031V4.75C5.5 4.05964 6.05964 3.5 6.75 3.5ZM7.74238 9.44175C6.98279 9.31136 6.23227 9.11438 5.5 8.85065V15.25C5.5 15.9404 6.05964 16.5 6.75 16.5H13.25C13.9404 16.5 14.5 15.9404 14.5 15.25V8.84851C13.7677 9.11167 13.0174 9.30875 12.258 9.4396C12.0529 10.4996 11.1199 11.3 10 11.3C8.88084 11.3 7.94838 10.5007 7.74238 9.44175ZM8.9 9C8.9 8.39249 9.39249 7.9 10 7.9C10.6075 7.9 11.1 8.39249 11.1 9C11.1 9.60751 10.6075 10.1 10 10.1C9.39249 10.1 8.9 9.60751 8.9 9Z" fill="#161823"/>
</svg>
