<svg width="24" height="24" viewBox="0 0 24 24" fill="none" xmlns="http://www.w3.org/2000/svg">
<path fill-rule="evenodd" clip-rule="evenodd" d="M5.48558 3.21436C4.70449 3.21436 4.07129 3.84755 4.07129 4.62864V18.5144C4.07129 19.2954 4.70449 19.9286 5.48557 19.9286H10.8378C11.0473 20.4668 11.3258 20.9704 11.6624 21.4286H5.48557C3.87606 21.4286 2.57129 20.1239 2.57129 18.5144V4.62864C2.57129 3.01913 3.87606 1.71436 5.48558 1.71436H15.9427C17.5522 1.71436 18.857 3.01913 18.857 4.62864V11.2751C18.3779 11.1298 17.8756 11.0378 17.357 11.006V4.62864C17.357 3.84755 16.7238 3.21436 15.9427 3.21436H5.48558ZM16.9505 21.7511C14.6309 21.7511 12.7505 19.8707 12.7505 17.5511C12.7505 15.2315 14.6309 13.3511 16.9505 13.3511C19.2701 13.3511 21.1505 15.2315 21.1505 17.5511C21.1505 19.8707 19.2701 21.7511 16.9505 21.7511ZM16.9505 23.2511C13.8024 23.2511 11.2505 20.6991 11.2505 17.5511C11.2505 14.4031 13.8024 11.8511 16.9505 11.8511C20.0985 11.8511 22.6505 14.4031 22.6505 17.5511C22.6505 20.6991 20.0985 23.2511 16.9505 23.2511ZM16.9502 14.7007C17.2816 14.7007 17.5502 14.9693 17.5502 15.3007V16.9507H19.2002C19.5316 16.9507 19.8002 17.2193 19.8002 17.5507C19.8002 17.8821 19.5316 18.1507 19.2002 18.1507L16.9502 18.1507C16.6188 18.1507 16.3502 17.8821 16.3502 17.5507V15.3007C16.3502 14.9693 16.6188 14.7007 16.9502 14.7007ZM10.0304 8.55037L12.9998 10.5133C13.4592 10.8169 13.4592 11.4732 12.9998 11.7768L10.0304 13.7398C9.50634 14.0861 8.79598 13.7226 8.79598 13.108L8.79598 9.18213C8.79598 8.56755 9.50634 8.20398 10.0304 8.55037Z" fill="#161823"/>
</svg>
