<svg width="24" height="24" viewBox="0 0 24 24" fill="none" xmlns="http://www.w3.org/2000/svg">
<path d="M11.9999 13.5001C12.8284 13.5001 13.4999 12.8286 13.4999 12.0001C13.4999 11.1717 12.8284 10.5001 11.9999 10.5001C11.1715 10.5001 10.4999 11.1717 10.4999 12.0001C10.4999 12.8286 11.1715 13.5001 11.9999 13.5001Z" fill="#161823"/>
<path d="M9.67254 2.64796C10.4322 2.87138 11.2138 3.18634 11.9999 3.58633C12.7861 3.18634 13.5677 2.87138 14.3273 2.64796C16.6477 1.9655 18.9549 2.09534 20.4298 3.57025C21.4399 4.58028 21.8194 5.99358 21.7396 7.50923C21.6657 8.91343 21.1985 10.4577 20.4137 12.0001C20.8137 12.7863 21.1287 13.5679 21.3521 14.3275C22.0346 16.6479 21.9047 18.9551 20.4298 20.43C18.9549 21.9049 16.6477 22.0348 14.3273 21.3523C13.5677 21.1289 12.7861 20.8139 11.9999 20.414C11.2138 20.8139 10.4322 21.1289 9.67254 21.3523C7.35217 22.0348 5.04494 21.9049 3.57004 20.43C2.5607 19.4207 2.18101 18.0086 2.26012 16.4942C2.33352 15.0891 2.80079 13.5437 3.58613 12.0002C3.18614 11.214 2.87117 10.4324 2.64775 9.67275C1.96529 7.35238 2.09513 5.04515 3.57004 3.57025C5.04494 2.09534 7.35217 1.9655 9.67254 2.64796ZM4.6307 4.63091C3.72589 5.53572 3.46968 7.15129 4.0868 9.2495C4.69481 11.3167 6.11125 13.6685 8.22141 15.7787C9.43439 16.9916 10.7272 17.9754 11.9999 18.7081C13.2727 17.9754 14.5655 16.9916 15.7785 15.7787C16.0693 15.4878 16.3473 15.192 16.6121 14.8927C16.8865 14.5824 17.3605 14.5533 17.6708 14.8277C17.981 15.1022 18.0101 15.5761 17.7357 15.8864C17.4506 16.2087 17.1516 16.5268 16.8391 16.8393C15.8025 17.876 14.7002 18.7678 13.5831 19.4959C13.9797 19.662 14.37 19.8013 14.7506 19.9133C16.8488 20.5304 18.4644 20.2742 19.3692 19.3694C20.274 18.4646 20.5302 16.849 19.9131 14.7508C19.6928 14.002 19.3665 13.2159 18.9396 12.4175C18.9151 12.3804 18.894 12.3413 18.8766 12.3008C18.1289 10.9318 17.0871 9.53023 15.7785 8.22162C14.5655 7.00864 13.2727 6.02488 11.9999 5.29214C10.7272 6.02488 9.43439 7.00864 8.22141 8.22162C7.91734 8.52569 7.62733 8.83514 7.35182 9.1484C7.07827 9.45943 6.60437 9.48982 6.29333 9.21626C5.9823 8.94271 5.95191 8.46881 6.22547 8.15778C6.52217 7.82042 6.8341 7.48761 7.16075 7.16096C8.19739 6.12431 9.29967 5.2325 10.4168 4.50435C10.0202 4.33831 9.62991 4.19896 9.24929 4.08701C7.15108 3.46989 5.53551 3.7261 4.6307 4.63091ZM16.8391 7.16096C17.8758 8.19761 18.7676 9.2999 19.4957 10.417C19.9452 9.34345 20.1944 8.32731 20.2417 7.43037C20.3065 6.19905 19.9917 5.25347 19.3692 4.63091C18.4644 3.7261 16.8488 3.46989 14.7506 4.08701C14.37 4.19896 13.9797 4.33831 13.5831 4.50435C14.7002 5.2325 15.8025 6.12431 16.8391 7.16096ZM7.16075 16.8393C6.1241 15.8027 5.23227 14.7004 4.50412 13.5833C4.05426 14.6579 3.80497 15.6749 3.75808 16.5725C3.69382 17.8026 4.00856 18.7472 4.6307 19.3694C5.53551 20.2742 7.15108 20.5304 9.24929 19.9133C9.62991 19.8013 10.0202 19.662 10.4168 19.4959C9.29967 18.7678 8.19739 17.876 7.16075 16.8393Z" fill="#161823"/>
</svg>
