<svg width="20" height="20" viewBox="0 0 20 20" fill="none" xmlns="http://www.w3.org/2000/svg">
<path fill-rule="evenodd" clip-rule="evenodd" d="M6.08676 4.66663H6C5.0335 4.66663 4.25 5.45013 4.25 6.41663V14.9166C4.25 15.8831 5.0335 16.6666 6 16.6666H14C14.9665 16.6666 15.75 15.8831 15.75 14.9166V6.41663C15.75 5.45013 14.9665 4.66663 14 4.66663H13.9132C13.6286 5.49152 12.8454 6.08407 11.9239 6.08407H8.07615C7.15455 6.08407 6.37136 5.49152 6.08676 4.66663ZM13.8647 3.16663H14C15.7949 3.16663 17.25 4.62171 17.25 6.41663V14.9166C17.25 16.7116 15.7949 18.1666 14 18.1666H6C4.20508 18.1666 2.75 16.7116 2.75 14.9166V6.41663C2.75 4.6217 4.20507 3.16663 6 3.16663H6.13527C6.45337 2.40861 7.20259 1.87622 8.07615 1.87622H11.9239C12.7974 1.87622 13.5466 2.40861 13.8647 3.16663ZM7.47222 3.98014C7.47222 3.64661 7.74261 3.37622 8.07615 3.37622H11.9239C12.2574 3.37622 12.5278 3.64661 12.5278 3.98014C12.5278 4.31368 12.2574 4.58407 11.9239 4.58407H8.07615C7.74261 4.58407 7.47222 4.31368 7.47222 3.98014ZM6.11112 9.49997C6.11112 9.08576 6.4469 8.74997 6.86112 8.74997H13.1389C13.5531 8.74997 13.8889 9.08576 13.8889 9.49997C13.8889 9.91419 13.5531 10.25 13.1389 10.25H6.86112C6.4469 10.25 6.11112 9.91419 6.11112 9.49997ZM6.86112 11.6944C6.4469 11.6944 6.11112 12.0302 6.11112 12.4444C6.11112 12.8586 6.4469 13.1944 6.86112 13.1944H10.8333C11.2476 13.1944 11.5833 12.8586 11.5833 12.4444C11.5833 12.0302 11.2476 11.6944 10.8333 11.6944H6.86112Z" fill="#161823"/>
</svg>
