<svg width="24" height="24" viewBox="0 0 24 24" fill="none" xmlns="http://www.w3.org/2000/svg">
<path fill-rule="evenodd" clip-rule="evenodd" d="M12 1.625C12.4142 1.625 12.75 1.96078 12.75 2.375L12.75 14.7222L15.5062 12.3106C15.8179 12.0378 16.2917 12.0694 16.5645 12.3811C16.8372 12.6929 16.8056 13.1667 16.4939 13.4394L12.4939 16.9394C12.2112 17.1869 11.7889 17.1869 11.5062 16.9394L7.50613 13.4394C7.19441 13.1667 7.16282 12.6929 7.43558 12.3811C7.70834 12.0694 8.18216 12.0378 8.49389 12.3106L11.25 14.7222L11.25 2.375C11.25 1.96079 11.5858 1.625 12 1.625ZM8.75 6.875C9.16421 6.875 9.5 6.53921 9.5 6.125C9.5 5.71079 9.16421 5.375 8.75 5.375H6.75C4.67893 5.375 3 7.05393 3 9.125V18.625C3 20.6961 4.67893 22.375 6.75 22.375H17.25C19.3211 22.375 21 20.6961 21 18.625V9.125C21 7.05393 19.3211 5.375 17.25 5.375H15.25C14.8358 5.375 14.5 5.71079 14.5 6.125C14.5 6.53921 14.8358 6.875 15.25 6.875H17.25C18.4926 6.875 19.5 7.88236 19.5 9.125V18.625C19.5 19.8676 18.4926 20.875 17.25 20.875H6.75C5.50736 20.875 4.5 19.8676 4.5 18.625V9.125C4.5 7.88236 5.50736 6.875 6.75 6.875H8.75Z" fill="#161823"/>
</svg>
