<svg width="16" height="16" viewBox="0 0 16 16" fill="none" xmlns="http://www.w3.org/2000/svg">
<path d="M8.00033 1.00009C6.34245 1.00009 5.13367 2.51273 5.13367 4.20009C5.13367 4.67613 5.22988 5.13826 5.40524 5.55644L3.02453 3.17574C2.79022 2.94142 2.41032 2.94142 2.176 3.17574C1.94169 3.41005 1.94169 3.78995 2.176 4.02426L7.00059 8.84885L6.99791 8.84912L12.9278 14.779L12.9297 14.778L13.476 15.3243C13.7103 15.5586 14.0902 15.5586 14.3245 15.3243C14.5588 15.09 14.5588 14.7101 14.3245 14.4757L13.7885 13.9397C13.9448 13.6523 14.0336 13.3229 14.0336 12.9727C14.0336 11.666 13.2853 10.6032 12.183 9.89359C11.2438 9.28899 10.0221 8.91788 8.67256 8.82376L7.08561 7.23682C7.36959 7.34234 7.67639 7.40009 8.00033 7.40009C9.65822 7.40009 10.867 5.88745 10.867 4.20009C10.867 2.51273 9.65822 1.00009 8.00033 1.00009Z" fill="#161823"/>
<path d="M11.2103 15C11.2994 15 11.344 14.8923 11.281 14.8293L5.60761 9.15587C5.58212 9.13038 5.54485 9.12053 5.51018 9.13045C4.8698 9.31358 4.28659 9.57018 3.78421 9.89359C2.68187 10.6032 1.93359 11.666 1.93359 12.9727C1.93359 14.0923 2.84124 15 3.96087 15H11.2103Z" fill="#161823"/>
</svg>
