<svg width="16" height="16" viewBox="0 0 16 16" fill="none" xmlns="http://www.w3.org/2000/svg">
<path fill-rule="evenodd" clip-rule="evenodd" d="M8 15C11.866 15 15 11.866 15 8C15 4.13401 11.866 1 8 1C4.13401 1 1 4.13401 1 8C1 11.866 4.13401 15 8 15ZM8.60001 4.33334C8.60001 4.00196 8.33139 3.73333 8.00002 3.73333C7.66864 3.73333 7.40001 4.00196 7.40001 4.33333L7.4 7.99999C7.4 8.15912 7.46321 8.31174 7.57574 8.42426L9.62642 10.4749C9.86073 10.7093 10.2406 10.7093 10.4749 10.4749C10.7093 10.2406 10.7093 9.86073 10.4749 9.62641L8.6 7.75147L8.60001 4.33334Z" fill="#161823"/>
</svg>
