<svg width="20" height="20" viewBox="0 0 20 20" fill="none" xmlns="http://www.w3.org/2000/svg">
<path fill-rule="evenodd" clip-rule="evenodd" d="M13.3334 5.41666C13.3334 7.48773 11.841 9.16666 10.0001 9.16666C8.15915 9.16666 6.66676 7.48773 6.66676 5.41666C6.66676 3.3456 8.15915 1.66666 10.0001 1.66666C11.841 1.66666 13.3334 3.3456 13.3334 5.41666ZM11.8334 5.41666C11.8334 6.83028 10.8514 7.66666 10.0001 7.66666C9.14878 7.66666 8.16676 6.83028 8.16676 5.41666C8.16676 4.00305 9.14878 3.16666 10.0001 3.16666C10.8514 3.16666 11.8334 4.00305 11.8334 5.41666Z" fill="#161823"/>
<path d="M10 10.1667C8.00786 10.1667 6.15542 10.6637 4.75275 11.5541C3.36383 12.4357 2.25 13.8335 2.25 15.6061V16.25C2.25 17.5387 3.29467 18.5833 4.58333 18.5833H12.5923C12.695 18.5833 12.7797 18.5051 12.8013 18.4046C12.8419 18.2153 12.9155 18.0383 13.0158 17.8797C12.709 17.6711 12.4287 17.4264 12.1809 17.1517C12.1421 17.1087 12.0871 17.0833 12.0291 17.0833H4.58333C4.1231 17.0833 3.75 16.7102 3.75 16.25V15.6061C3.75 13.4304 6.48438 11.6667 10 11.6667C10.8415 11.6667 11.6382 11.7677 12.3634 11.9513C12.3885 11.9576 12.4144 11.959 12.4401 11.9562C12.4992 11.9497 12.5592 11.9464 12.62 11.9464C12.6265 11.9464 12.633 11.9464 12.6394 11.9465C12.7621 11.9479 12.8719 11.8549 12.8719 11.7322V11.4828C12.8719 11.2395 12.9037 11.0037 12.9634 10.7792C12.9929 10.6679 12.9325 10.5495 12.8212 10.5203C11.9402 10.2887 10.9873 10.1667 10 10.1667Z" fill="#161823"/>
<path d="M14.1219 11.4828C14.1219 10.6639 14.7858 10 15.6047 10C16.4236 10 17.0875 10.6639 17.0875 11.4828V14.0696C17.0875 14.8885 16.4236 15.5524 15.6047 15.5524C14.7858 15.5524 14.1219 14.8885 14.1219 14.0696V11.4828Z" fill="#161823"/>
<path d="M11.9726 13.5729C11.9726 13.2134 12.2641 12.9219 12.6237 12.9219C12.9833 12.9219 13.2747 13.2134 13.2747 13.5729V14.0673C13.2747 15.3562 14.3196 16.4011 15.6086 16.4011C16.8975 16.4011 17.9424 15.3562 17.9424 14.0673V13.5772C17.9424 13.2153 18.2358 12.9219 18.5978 12.9219C18.9597 12.9219 19.2531 13.2153 19.2531 13.5772V14.0356C19.2531 15.8876 17.8701 17.4166 16.0805 17.646V18.2952C16.0805 18.3241 16.078 18.3524 16.0733 18.38H16.7709C17.0471 18.38 17.2709 18.6039 17.2709 18.88C17.2709 19.1562 17.0471 19.38 16.7709 19.38H14.3901C14.1139 19.38 13.8901 19.1562 13.8901 18.88C13.8901 18.6039 14.1139 18.38 14.3901 18.38H15.0876C15.0829 18.3524 15.0805 18.3241 15.0805 18.2952V17.6371C13.3224 17.3795 11.9726 15.8652 11.9726 14.0356V13.5729Z" fill="#161823"/>
</svg>
