<svg width="17" height="17" viewBox="0 0 17 17" fill="none" xmlns="http://www.w3.org/2000/svg">
<path d="M4.91633 1.17487C5.29835 0.956567 5.785 1.08929 6.0033 1.47131L7.59053 4.24896H9.4061L10.9933 1.47131C11.2116 1.08929 11.6983 0.956567 12.0803 1.17487C12.4623 1.39316 12.595 1.87982 12.3768 2.26184L11.2413 4.24896H13.4587C14.6323 4.24896 15.5837 5.20036 15.5837 6.37396V12.75C15.5837 13.9236 14.6323 14.875 13.4587 14.875H3.54201C2.36841 14.875 1.41701 13.9236 1.41701 12.75V6.37396C1.41701 5.20036 2.36841 4.24896 3.54201 4.24896H5.75538L4.61988 2.26184C4.40158 1.87982 4.5343 1.39316 4.91633 1.17487ZM10.5287 9.0942L7.99624 7.43242C7.62417 7.18828 7.1298 7.45518 7.1298 7.9002V11.2238C7.1298 11.6688 7.62417 11.9357 7.99624 11.6915L10.5287 10.0298C10.8654 9.8088 10.8654 9.31516 10.5287 9.0942Z" fill="#161823"/>
</svg>
