<svg width="24" height="24" viewBox="0 0 24 24" fill="none" xmlns="http://www.w3.org/2000/svg">
<path d="M12 22C17.5228 22 22 17.5228 22 12C22 6.47715 17.5228 2 12 2C6.47715 2 2 6.47715 2 12C2 17.5228 6.47715 22 12 22ZM11.9999 6.49892C12.2089 6.49892 12.396 6.62869 12.4692 6.8245L13.5861 9.81127L16.7718 9.95047C16.9806 9.9596 17.1618 10.0974 17.2264 10.2962C17.291 10.495 17.2254 10.7131 17.0618 10.8432L14.5664 12.8283L15.4184 15.9011C15.4743 16.1026 15.3992 16.3175 15.2301 16.4404C15.061 16.5633 14.8333 16.5683 14.659 16.4529L11.9999 14.693L9.34077 16.4529C9.16645 16.5683 8.93882 16.5633 8.7697 16.4404C8.60058 16.3175 8.52551 16.1026 8.58136 15.9011L9.43341 12.8283L6.93794 10.8432C6.77435 10.7131 6.70873 10.495 6.77333 10.2962C6.83793 10.0974 7.01916 9.9596 7.22801 9.95047L10.4137 9.81127L11.5305 6.8245C11.6038 6.62869 11.7908 6.49892 11.9999 6.49892Z" fill="#161823"/>
</svg>
