<svg width="24" height="24" viewBox="0 0 24 24" fill="none" xmlns="http://www.w3.org/2000/svg">
<path d="M16.0001 6.39765C16.0001 8.82642 14.2092 10.7953 12.0001 10.7953C9.79096 10.7953 8.0001 8.82642 8.0001 6.39765C8.0001 3.96889 9.79096 1.99998 12.0001 1.99998C14.2092 1.99998 16.0001 3.96889 16.0001 6.39765ZM14.5001 6.39765C14.5001 4.66036 13.2502 3.49998 12.0001 3.49998C10.75 3.49998 9.5001 4.66036 9.5001 6.39765C9.5001 8.13494 10.75 9.29532 12.0001 9.29532C13.2502 9.29532 14.5001 8.13494 14.5001 6.39765Z" fill="#161823"/>
<path d="M12 12.9C9.68591 12.9 7.54503 13.4146 5.92908 14.3292C4.3523 15.2217 3 16.6813 3 18.6153V19.196C3 20.5767 4.11929 21.696 5.5 21.696H12.8499C13.033 21.696 13.128 21.4609 13.0134 21.3181C12.7785 21.0256 12.5957 20.6941 12.4736 20.3388C12.4447 20.2548 12.3671 20.196 12.2783 20.196H5.5C4.94772 20.196 4.5 19.7483 4.5 19.196V18.6153C4.5 16.2872 7.78125 14.4 12 14.4C12.1952 14.4 12.3883 14.404 12.5792 14.412C12.6556 14.4151 12.7269 14.375 12.7667 14.3098C13.0001 13.9269 13.3049 13.6227 13.6558 13.3651C13.8088 13.2528 13.7561 13.0002 13.5674 12.9805C13.057 12.9273 12.5331 12.9 12 12.9Z" fill="#161823"/>
<path d="M19.8378 17.6326C19.8378 18.4279 19.1931 19.0726 18.3978 19.0726C17.6025 19.0726 16.9578 18.4279 16.9578 17.6326C16.9578 16.8373 17.6025 16.1926 18.3978 16.1926C19.1931 16.1926 19.8378 16.8373 19.8378 17.6326Z" fill="#161823"/>
<path d="M17.5228 12.8305C18.0642 12.5179 18.7313 12.5179 19.2728 12.8305L22.1231 14.4761C22.6646 14.7887 22.9981 15.3665 22.9981 15.9917V19.283C22.9981 19.9082 22.6646 20.486 22.1231 20.7986L19.2728 22.4443C18.7313 22.7569 18.0642 22.7569 17.5228 22.4443L14.6724 20.7986C14.1309 20.486 13.7974 19.9082 13.7974 19.283V15.9917C13.7974 15.3665 14.1309 14.7887 14.6724 14.4761L17.5228 12.8305ZM18.5228 14.1295C18.4454 14.0848 18.3501 14.0848 18.2728 14.1295L15.4224 15.7752C15.345 15.8198 15.2974 15.9024 15.2974 15.9917V19.283C15.2974 19.3723 15.345 19.4549 15.4224 19.4995L18.2728 21.1452C18.3501 21.1899 18.4454 21.1899 18.5228 21.1452L21.3731 19.4995C21.4505 19.4549 21.4981 19.3723 21.4981 19.283V15.9917C21.4981 15.9024 21.4505 15.8198 21.3731 15.7752L18.5228 14.1295Z" fill="#161823"/>
</svg>
