<svg width="24" height="24" viewBox="0 0 24 24" fill="none" xmlns="http://www.w3.org/2000/svg">
<path d="M16 6.50002C16 8.9853 14.2091 11 12 11C9.79082 11 7.99996 8.9853 7.99996 6.50002C7.99996 4.01473 9.79082 2.00002 12 2.00002C14.2091 2.00002 16 4.01473 16 6.50002Z" fill="#161823"/>
<path d="M13.7768 12.6151C13.9536 12.6384 14.0083 12.8676 13.8707 12.981C12.4242 14.173 11.502 15.9783 11.502 17.999C11.502 19.3608 11.9208 20.6247 12.6367 21.669C12.7309 21.8065 12.6355 22 12.4688 22H5.5C4.11929 22 3 20.8807 3 19.5V18.7273C3 16.7372 4.25055 15.1424 5.86408 14.1182C7.49136 13.0852 9.6563 12.5 12 12.5C12.6063 12.5 13.2006 12.5392 13.7768 12.6151Z" fill="#161823"/>
<path d="M18.0008 21.498C16.0684 21.498 14.5019 19.9314 14.5019 17.999C14.5019 16.0666 16.0684 14.5 18.0008 14.5C19.9333 14.5 21.4998 16.0666 21.4998 17.999C21.4998 19.9314 19.9333 21.498 18.0008 21.498ZM18.0008 22.998C20.7617 22.998 22.9998 20.7599 22.9998 17.999C22.9998 15.2381 20.7617 13 18.0008 13C15.24 13 13.0019 15.2381 13.0019 17.999C13.0019 20.7599 15.24 22.998 18.0008 22.998Z" fill="#161823"/>
<path d="M16.0009 17.999C16.0009 17.5848 16.3367 17.249 16.7509 17.249H19.2509C19.6651 17.249 20.0009 17.5848 20.0009 17.999C20.0009 18.4132 19.6651 18.749 19.2509 18.749H16.7509C16.3367 18.749 16.0009 18.4132 16.0009 17.999Z" fill="#161823"/>
</svg>
