<svg width="20" height="20" viewBox="0 0 20 20" fill="none" xmlns="http://www.w3.org/2000/svg">
<path d="M8.96235 4.13701C9.04146 4.1461 9.12098 4.12454 9.18532 4.07762C9.98185 3.49668 10.9631 3.15387 12.0245 3.15387C14.6883 3.15387 16.8477 5.3133 16.8477 7.9771C16.8477 9.03308 16.5084 10.0098 15.9327 10.8042C15.886 10.8686 15.8647 10.9482 15.874 11.0273C15.9101 11.3332 15.9287 11.6445 15.9287 11.9602C15.9287 12.1426 15.9225 12.3236 15.9103 12.5029C15.8982 12.6805 16.101 12.7934 16.2336 12.6746C17.5215 11.5198 18.3318 9.84307 18.3318 7.9771C18.3318 4.49367 15.5079 1.6698 12.0245 1.6698C10.1515 1.6698 8.46922 2.48618 7.31404 3.78251C7.19559 3.91543 7.30911 4.11789 7.48669 4.10526C7.67397 4.09194 7.86305 4.08516 8.05371 4.08516C8.36102 4.08516 8.66422 4.10276 8.96235 4.13701Z" fill="#161823"/>
<path d="M6.90441 10.6257C6.90441 11.2764 6.50876 11.8039 6.02071 11.8039C5.53267 11.8039 5.13702 11.2764 5.13702 10.6257C5.13702 9.97493 5.53267 9.4474 6.02071 9.4474C6.50876 9.4474 6.90441 9.97493 6.90441 10.6257Z" fill="#161823"/>
<path d="M11.0283 10.6257C11.0283 11.2764 10.6327 11.8039 10.1446 11.8039C9.65657 11.8039 9.26093 11.2764 9.26093 10.6257C9.26093 9.97493 9.65657 9.44741 10.1446 9.44741C10.6327 9.44741 11.0283 9.97493 11.0283 10.6257Z" fill="#161823"/>
<path d="M6.31527 13.2105C6.31527 13.9077 7.10656 14.4729 8.08266 14.4729C9.05875 14.4729 9.85004 13.9077 9.85004 13.2105C9.85004 12.5133 6.31527 12.5133 6.31527 13.2105Z" fill="#161823"/>
<path d="M1.67871 11.9602C1.67871 8.43934 4.5329 5.58516 8.05371 5.58516C11.5745 5.58516 14.4287 8.43934 14.4287 11.9602C14.4287 15.481 11.5745 18.3352 8.05371 18.3352C4.5329 18.3352 1.67871 15.481 1.67871 11.9602ZM8.05371 7.08516C5.36132 7.08516 3.17871 9.26777 3.17871 11.9602C3.17871 14.6525 5.36132 16.8352 8.05371 16.8352C10.7461 16.8352 12.9287 14.6525 12.9287 11.9602C12.9287 9.26777 10.7461 7.08516 8.05371 7.08516Z" fill="#161823"/>
</svg>
