<svg width="16" height="16" viewBox="0 0 16 16" fill="none" xmlns="http://www.w3.org/2000/svg">
<path d="M7.30455 0.990233C7.18054 0.964034 7.07021 1.01598 7.0044 1.0978C6.94191 1.17548 6.91776 1.27966 6.93914 1.3795C7.0851 2.06103 6.93414 2.59034 6.61201 3.07294C6.28162 3.56791 5.77468 4.00962 5.20131 4.50711L5.19128 4.51581C3.90786 5.62935 2.36647 6.9671 2.36133 9.61333L2.36133 9.61955L2.36135 9.62674C2.36902 12.5776 4.90054 14.9622 7.99945 14.9622C11.0984 14.9622 13.6299 12.577 13.6376 9.62622L13.6376 9.61968L13.6376 9.61275C13.6346 8.60186 13.303 7.47399 12.8922 6.5565C12.6862 6.09625 12.4576 5.68306 12.2351 5.3585C12.018 5.04182 11.7901 4.78453 11.5787 4.66671C11.5267 4.63772 11.465 4.62282 11.4002 4.63201C11.3362 4.64109 11.2831 4.67177 11.2443 4.71039C11.1694 4.78503 11.1433 4.89068 11.1569 4.9859C11.2312 5.50813 11.0556 6.17885 10.7371 6.74493C10.5793 7.02536 10.3913 7.27104 10.1924 7.45342C10.0565 7.578 9.92067 7.66842 9.79028 7.7231C10.291 5.85713 10.0063 4.26801 9.44012 3.10193C9.14819 2.5007 8.78103 2.01104 8.40722 1.65361C8.03711 1.2997 7.64668 1.06251 7.30455 0.990233Z" fill="#161823"/>
</svg>
