<svg width="20" height="20" viewBox="0 0 20 20" fill="none" xmlns="http://www.w3.org/2000/svg">
<path d="M14.5 6.66656C15.1441 6.66656 15.6662 6.14443 15.6662 5.50034C15.6662 4.85625 15.1441 4.33411 14.5 4.33411C13.8559 4.33411 13.3338 4.85625 13.3338 5.50034C13.3338 6.14443 13.8559 6.66656 14.5 6.66656Z" fill="#161823"/>
<path d="M17.6367 9.96418C18.0531 9.54783 18.2896 8.98486 18.2956 8.39608L18.3407 3.96845C18.3534 2.71692 17.3424 1.69556 16.0908 1.69556H11.7389C11.1421 1.69556 10.5698 1.93261 10.1479 2.35457L1.47835 11.0241C0.599667 11.9028 0.599665 13.3274 1.47835 14.2061L5.84558 18.5733C6.72426 19.452 8.14888 19.452 9.02756 18.5733L17.6367 9.96418ZM16.7957 8.38082C16.7937 8.57708 16.7148 8.76473 16.576 8.90352L7.9669 17.5127C7.67401 17.8056 7.19914 17.8056 6.90624 17.5127L2.53901 13.1454C2.24611 12.8525 2.24611 12.3777 2.53901 12.0848L11.2085 3.41523C11.3492 3.27457 11.54 3.19556 11.7389 3.19556L16.0908 3.19556C16.508 3.19556 16.845 3.53601 16.8407 3.95319L16.7957 8.38082Z" fill="#161823"/>
</svg>
