<svg width="20" height="20" viewBox="0 0 20 20" fill="none" xmlns="http://www.w3.org/2000/svg">
<path fill-rule="evenodd" clip-rule="evenodd" d="M2.4998 5.53353C2.4998 3.96872 3.76833 2.7002 5.33314 2.7002H14.6665C16.2313 2.7002 17.4998 3.96872 17.4998 5.53353V8.0018C18.723 8.04992 19.6998 9.05671 19.6998 10.2917V14.1083C19.6998 15.374 18.6738 16.4 17.4081 16.4H15.9539C16.0618 16.7439 15.9794 17.1346 15.7069 17.4071C15.3164 17.7977 14.6832 17.7977 14.2927 17.4071L13.2856 16.4H6.71405L5.70691 17.4071C5.31639 17.7977 4.68322 17.7977 4.2927 17.4071C4.02017 17.1346 3.93783 16.7439 4.04566 16.4H2.59147C1.32582 16.4 0.299805 15.374 0.299805 14.1083V10.2917C0.299805 9.05672 1.27665 8.04992 2.4998 8.0018V5.53353ZM3.9998 8.39843C4.60356 8.81114 4.9998 9.50513 4.9998 10.2917V11.2795C4.9998 11.5097 5.18635 11.6962 5.41647 11.6962H9.2498V4.2002H5.33314C4.59675 4.2002 3.9998 4.79715 3.9998 5.53353V8.39843ZM10.7498 11.6962H14.6498C14.8799 11.6962 15.0665 11.5097 15.0665 11.2795V10.2917C15.0665 9.53446 15.4337 8.86303 15.9998 8.44577V5.53353C15.9998 4.79715 15.4028 4.2002 14.6665 4.2002H10.7498V11.6962ZM18.1998 10.2917V14.1083C18.1998 14.5456 17.8454 14.9 17.4081 14.9H2.59147C2.15425 14.9 1.7998 14.5456 1.7998 14.1083V10.2917C1.7998 9.85444 2.15425 9.5 2.59147 9.5H2.70814C3.14536 9.5 3.4998 9.85444 3.4998 10.2917V11.2795C3.4998 12.3381 4.35792 13.1962 5.41647 13.1962H14.6498C15.7084 13.1962 16.5665 12.3381 16.5665 11.2795V10.2917C16.5665 9.85444 16.9209 9.5 17.3581 9.5H17.4081C17.8454 9.5 18.1998 9.85444 18.1998 10.2917Z" fill="#161823"/>
</svg>
