<svg width="24" height="24" viewBox="0 0 24 24" fill="none" xmlns="http://www.w3.org/2000/svg">
<path d="M3.21967 8.34467C2.92678 8.63756 2.92678 9.11244 3.21967 9.40533L8.34467 14.5303C8.63756 14.8232 9.11244 14.8232 9.40533 14.5303C9.69822 14.2374 9.69822 13.7626 9.40533 13.4697L5.56066 9.625H14.0625C16.5133 9.625 18.5 11.6117 18.5 14.0625C18.5 16.5133 16.5133 18.5 14.0625 18.5H11.75C11.3358 18.5 11 18.8358 11 19.25C11 19.6642 11.3358 20 11.75 20H14.0625C17.3417 20 20 17.3417 20 14.0625C20 10.7833 17.3417 8.125 14.0625 8.125H5.56066L9.40533 4.28033C9.69822 3.98744 9.69822 3.51256 9.40533 3.21967C9.11244 2.92678 8.63756 2.92678 8.34467 3.21967L3.21967 8.34467Z" fill="#161823"/>
</svg>
