<svg width="24" height="24" viewBox="0 0 24 24" fill="none" xmlns="http://www.w3.org/2000/svg">
<path d="M15.9998 6.5C15.9998 8.98528 14.2089 11 11.9998 11C9.79062 11 7.99976 8.98528 7.99976 6.5C7.99976 4.01472 9.79062 2 11.9998 2C14.2089 2 15.9998 4.01472 15.9998 6.5ZM14.4998 6.5C14.4998 4.67217 13.2193 3.5 11.9998 3.5C10.7803 3.5 9.49976 4.67217 9.49976 6.5C9.49976 8.32783 10.7803 9.5 11.9998 9.5C13.2193 9.5 14.4998 8.32783 14.4998 6.5Z" fill="#161823"/>
<path d="M12 12.5C9.6563 12.5 7.49136 13.0852 5.86408 14.1182C4.25055 15.1424 3 16.7372 3 18.7273V19.5C3 20.8807 4.11929 22 5.5 22H16.3C16.4105 22 16.5 21.9105 16.5 21.8V20.5017C12.8335 20.5017 9.16676 20.5 5.5 20.5C4.94772 20.5 4.5 20.0523 4.5 19.5V18.7273C4.5 16.1165 7.78125 14 12 14C13.0736 14 14.0865 14.1371 15 14.3845C15.4272 14.5002 15.8327 14.64 16.2125 14.8012C16.3474 14.8584 16.5 14.7613 16.5 14.6147V13.7517C16.5 13.6605 16.5054 13.5706 16.516 13.4823C16.5274 13.3867 16.4769 13.2923 16.3868 13.2583C16.0606 13.1349 15.7278 13.0275 15.3921 12.9366C14.345 12.653 13.1999 12.5 12 12.5Z" fill="#161823"/>
<path d="M18.75 13.0017C19.1642 13.0017 19.5 13.3375 19.5 13.7517V17.5017H23.25C23.6642 17.5017 24 17.8375 24 18.2517C24 18.6659 23.6642 19.0017 23.25 19.0017H19.5V22.7517C19.5 23.1659 19.1642 23.5017 18.75 23.5017C18.3358 23.5017 18 23.1659 18 22.7517V19.0017H14.25C13.8358 19.0017 13.5 18.6659 13.5 18.2517C13.5 17.8375 13.8358 17.5017 14.25 17.5017H18V13.7517C18 13.3375 18.3358 13.0017 18.75 13.0017Z" fill="#161823"/>
</svg>
