<svg width="24" height="24" viewBox="0 0 24 24" fill="none" xmlns="http://www.w3.org/2000/svg">
<path d="M16.6 7C16.6 9.20914 14.9882 11 13 11C11.7324 11 10.6177 10.272 9.97631 9.17173C9.61168 8.5463 9.3999 7.80067 9.3999 7C9.3999 6.39325 9.52149 5.81805 9.73907 5.30284C10.3137 3.94216 11.5578 3 13 3C14.9882 3 16.6 4.79086 16.6 7ZM7.58872 13.8966C9.03423 13.0007 10.9441 12.5 13 12.5C13.3521 12.5 13.7 12.5147 14.0419 12.5435C14.2197 12.5585 14.2845 12.7849 14.1519 12.9042C12.8307 14.0938 12 15.8176 12 17.7354C12 18.8013 12.2566 19.8072 12.7114 20.6948C12.7817 20.8321 12.6847 21 12.5304 21H7.5C6.46447 21 5.57598 20.3704 5.19646 19.4731C5.06996 19.174 5 18.8452 5 18.5V18C5 16.4191 5.88905 15.1405 7.06763 14.2528C7.22548 14.1339 7.38852 14.022 7.55531 13.9174L7.58872 13.8966ZM21.9979 17.7354C21.9979 15.803 20.4313 14.2365 18.4989 14.2365C16.5665 14.2365 14.9999 15.803 14.9999 17.7354C14.9999 19.6678 16.5665 21.2344 18.4989 21.2344C20.4313 21.2344 21.9979 19.6678 21.9979 17.7354ZM23.4979 17.7354C23.4979 20.4963 21.2598 22.7344 18.4989 22.7344C15.7381 22.7344 13.4999 20.4963 13.4999 17.7354C13.4999 14.9746 15.7381 12.7365 18.4989 12.7365C21.2598 12.7365 23.4979 14.9746 23.4979 17.7354ZM18.7502 15.3352C18.6692 15.1186 18.3629 15.1186 18.2819 15.3352L17.7689 16.7071L16.3057 16.771C16.0747 16.7811 15.98 17.0725 16.1609 17.2164L17.3072 18.1282L16.9158 19.5396C16.854 19.7624 17.1019 19.9425 17.2947 19.8149L18.5161 19.0065L19.7374 19.8149C19.9303 19.9425 20.1781 19.7624 20.1163 19.5396L19.725 18.1282L20.8712 17.2164C21.0521 17.0725 20.9575 16.7811 20.7265 16.771L19.2632 16.7071L18.7502 15.3352ZM8.54526 4.32804C8.13056 5.1342 7.8999 6.05254 7.8999 7C7.8999 8.20698 8.27422 9.36671 8.9265 10.3075C8.48377 10.5933 7.96925 10.757 7.4203 10.757C5.76235 10.757 4.4183 9.26367 4.4183 7.42149C4.4183 5.57932 5.76235 4.08594 7.4203 4.08594C7.8181 4.08594 8.19783 4.17191 8.54526 4.32804ZM6.2519 12.4789C6.33322 12.4698 6.36809 12.5785 6.29853 12.6216C4.61148 13.6672 3 15.4912 3 18V18.5C3 18.9261 3.06662 19.3366 3.19002 19.7217C3.23331 19.8568 3.13613 20.0007 2.99427 20.0007H2.83389C1.54492 20.0007 0.5 18.9558 0.5 17.6668V17.2499C0.5 15.6267 1.54311 14.3808 2.77661 13.6163C3.74508 13.0161 4.94617 12.625 6.2519 12.4789Z" fill="#161823"/>
</svg>
