<svg width="20" height="20" viewBox="0 0 20 20" fill="none" xmlns="http://www.w3.org/2000/svg">
<path d="M2.5 5C2.5 4.58579 2.83579 4.25 3.25 4.25H16.5833C16.9975 4.25 17.3333 4.58579 17.3333 5C17.3333 5.41421 16.9975 5.75 16.5833 5.75H3.25C2.83579 5.75 2.5 5.41421 2.5 5Z" fill="#161823"/>
<path d="M2.5 10C2.5 9.58579 2.83579 9.25 3.25 9.25H9V10.75H3.25C2.83579 10.75 2.5 10.4142 2.5 10Z" fill="#161823"/>
<path d="M3.25 14.25C2.83579 14.25 2.5 14.5858 2.5 15C2.5 15.4142 2.83579 15.75 3.25 15.75H9V14.25H3.25Z" fill="#161823"/>
<path d="M10 12.0833C10 11.669 10.3358 11.3333 10.75 11.3333H13.75V8.33325C13.75 7.91904 14.0858 7.58325 14.5 7.58325C14.9142 7.58325 15.25 7.91904 15.25 8.33325V11.3333H18.25C18.6642 11.3333 19 11.669 19 12.0833C19 12.4975 18.6642 12.8333 18.25 12.8333H15.25V15.8333C15.25 16.2475 14.9142 16.5833 14.5 16.5833C14.0858 16.5833 13.75 16.2475 13.75 15.8333V12.8333H10.75C10.3358 12.8333 10 12.4975 10 12.0833Z" fill="#161823"/>
</svg>
