<svg width="20" height="20" viewBox="0 0 20 20" fill="none" xmlns="http://www.w3.org/2000/svg">
<path d="M13.5063 6.49408C13.8317 6.81951 13.8317 7.34715 13.5063 7.67259L11.1789 10L13.5063 12.3274C13.8317 12.6528 13.8317 13.1805 13.5063 13.5059C13.1809 13.8314 12.6532 13.8314 12.3278 13.5059L10.0004 11.1785L7.67296 13.5059C7.34752 13.8314 6.81988 13.8314 6.49444 13.5059C6.16901 13.1805 6.16901 12.6528 6.49444 12.3274L8.82186 10L6.49444 7.67259C6.16901 7.34715 6.16901 6.81951 6.49444 6.49408C6.81988 6.16864 7.34752 6.16864 7.67296 6.49408L10.0004 8.82149L12.3278 6.49408C12.6532 6.16864 13.1809 6.16864 13.5063 6.49408Z" fill="#161823"/>
<path d="M18.3337 10C18.3337 14.6024 14.6027 18.3334 10.0003 18.3334C5.39795 18.3334 1.66699 14.6024 1.66699 10C1.66699 5.39765 5.39795 1.66669 10.0003 1.66669C14.6027 1.66669 18.3337 5.39765 18.3337 10ZM16.8337 10C16.8337 6.22607 13.7743 3.16669 10.0003 3.16669C6.22638 3.16669 3.16699 6.22607 3.16699 10C3.16699 13.774 6.22638 16.8334 10.0003 16.8334C13.7743 16.8334 16.8337 13.774 16.8337 10Z" fill="#161823"/>
</svg>
