<svg width="16" height="16" viewBox="0 0 16 16" fill="none" xmlns="http://www.w3.org/2000/svg">
<path d="M7.16667 1.25C3.89898 1.25 1.25 3.89898 1.25 7.16667C1.25 10.4344 3.89898 13.0833 7.16667 13.0833C8.53017 13.0833 9.78595 12.6221 10.7865 11.8472L13.4697 14.5303C13.7626 14.8232 14.2374 14.8232 14.5303 14.5303C14.8232 14.2374 14.8232 13.7626 14.5303 13.4697L11.8472 10.7865C12.6221 9.78595 13.0833 8.53017 13.0833 7.16667C13.0833 3.89898 10.4344 1.25 7.16667 1.25ZM2.75 7.16667C2.75 4.72741 4.72741 2.75 7.16667 2.75C9.60592 2.75 11.5833 4.72741 11.5833 7.16667C11.5833 9.60592 9.60592 11.5833 7.16667 11.5833C4.72741 11.5833 2.75 9.60592 2.75 7.16667Z" fill="#161823"/>
</svg>
