<svg width="24" height="24" viewBox="0 0 24 24" fill="none" xmlns="http://www.w3.org/2000/svg">
<g clip-path="url(#clip0_21023_3130)">
<g filter="url(#filter0_d_21023_3130)">
<path fill-rule="evenodd" clip-rule="evenodd" d="M4.92009 4.33258C5.23015 4.48313 5.42699 4.79753 5.42699 5.1422V19.0996C5.42699 19.5966 5.02405 19.9996 4.52699 19.9996C4.02993 19.9996 3.62699 19.5966 3.62699 19.0996V6.99579L2.58359 7.81695C2.19299 8.12435 1.62715 8.05691 1.31975 7.66631C1.01234 7.27571 1.07979 6.70987 1.47039 6.40246L3.97039 4.43495C4.24124 4.22179 4.61004 4.18204 4.92009 4.33258ZM9.48275 4.32446C8.98569 4.32446 8.58275 4.72741 8.58275 5.22446V13.0265V13.1702C8.58275 13.6672 8.98569 14.0702 9.48275 14.0702C9.97981 14.0702 10.3828 13.6672 10.3828 13.1702V13.0265C10.3828 12.419 10.8752 11.9265 11.4827 11.9265C12.0903 11.9265 12.5828 12.419 12.5828 13.0265V16.997C12.5828 17.6046 12.0903 18.097 11.4827 18.097C10.8752 18.097 10.3828 17.6046 10.3828 16.997V16.8533C10.3828 16.3563 9.97981 15.9534 9.48275 15.9534C8.98569 15.9534 8.58275 16.3563 8.58275 16.8533V16.997C8.58275 18.5987 9.88112 19.897 11.4827 19.897C13.0844 19.897 14.3827 18.5987 14.3827 16.997V13.0265C14.3827 11.4249 13.0844 10.1265 11.4827 10.1265C11.0934 10.1265 10.722 10.2032 10.3828 10.3424V6.12446H13.4827C13.9798 6.12446 14.3827 5.72152 14.3827 5.22446C14.3827 4.72741 13.9798 4.32446 13.4827 4.32446H9.48275ZM7.15912 19.7995C7.65617 19.7995 8.05912 19.3965 8.05912 18.8995C8.05912 18.4024 7.65617 17.9995 7.15912 17.9995C6.66206 17.9995 6.25912 18.4024 6.25912 18.8995C6.25912 19.3965 6.66206 19.7995 7.15912 19.7995ZM15.4075 11.2449C15.7887 10.9259 16.3564 10.9765 16.6753 11.3577L18.9791 14.1116L21.283 11.3577C21.6019 10.9765 22.1695 10.9259 22.5507 11.2449C22.932 11.5638 22.9825 12.1314 22.6636 12.5127L20.1525 15.5143L22.6636 18.5159C22.9825 18.8971 22.932 19.4647 22.5507 19.7837C22.1695 20.1026 21.6019 20.0521 21.283 19.6709L18.9791 16.9169L16.6753 19.6709C16.3564 20.0521 15.7887 20.1026 15.4075 19.7837C15.0263 19.4647 14.9757 18.8971 15.2947 18.5159L17.8057 15.5143L15.2947 12.5127C14.9757 12.1314 15.0263 11.5638 15.4075 11.2449Z" fill="white"/>
</g>
</g>
<defs>
<filter id="filter0_d_21023_3130" x="-0.873047" y="2.74219" width="25.7461" height="19.7573" filterUnits="userSpaceOnUse" color-interpolation-filters="sRGB">
<feFlood flood-opacity="0" result="BackgroundImageFix"/>
<feColorMatrix in="SourceAlpha" type="matrix" values="0 0 0 0 0 0 0 0 0 0 0 0 0 0 0 0 0 0 127 0" result="hardAlpha"/>
<feOffset dy="0.5"/>
<feGaussianBlur stdDeviation="1"/>
<feComposite in2="hardAlpha" operator="out"/>
<feColorMatrix type="matrix" values="0 0 0 0 0 0 0 0 0 0 0 0 0 0 0 0 0 0 0.2 0"/>
<feBlend mode="normal" in2="BackgroundImageFix" result="effect1_dropShadow_21023_3130"/>
<feBlend mode="normal" in="SourceGraphic" in2="effect1_dropShadow_21023_3130" result="shape"/>
</filter>
<clipPath id="clip0_21023_3130">
<rect width="24" height="24" fill="white"/>
</clipPath>
</defs>
</svg>
