<svg width="24" height="24" viewBox="0 0 24 24" fill="none" xmlns="http://www.w3.org/2000/svg">
<path fill-rule="evenodd" clip-rule="evenodd" d="M9.46803 2.83115C9.9117 4.29472 10.0197 5.5074 9.90256 6.57368C9.77387 7.74554 9.37872 8.68661 8.94801 9.52763C8.79893 9.81876 8.64853 10.0951 8.50213 10.3641C7.79135 11.6703 7.17456 12.8037 7.25709 14.6159C7.34907 16.6359 8.28318 17.9232 9.59691 18.875C10.8131 19.756 12.3246 20.3294 13.8166 20.8746C13.3096 19.5532 13.1917 18.4157 13.3475 17.3833C13.5188 16.2486 14.0112 15.3119 14.5354 14.474C14.719 14.1806 14.9041 13.9001 15.0849 13.6261C15.9688 12.2867 16.7498 11.1032 16.7498 9.32323C16.7498 7.36152 15.658 5.88851 14.1269 4.8005C12.6491 3.75034 10.8343 3.11826 9.46803 2.83115ZM9.57697 1.32288C9.57988 1.32345 9.58228 1.32392 9.58416 1.32428C11.1104 1.62119 13.2337 2.32562 14.9958 3.57779C16.7669 4.83637 18.2498 6.71176 18.2498 9.32323C18.2498 11.5932 17.1817 13.1943 16.2832 14.5411C16.1159 14.7919 15.9545 15.0338 15.807 15.2696C15.3207 16.047 14.9562 16.7756 14.8307 17.6071C14.7071 18.4264 14.8056 19.417 15.3748 20.7216L15.3776 20.7281L15.3803 20.7346C15.3869 20.7505 15.3939 20.7673 15.4015 20.7851L15.4019 20.7858C15.6677 21.4106 15.3895 22.1408 14.7769 22.4308C14.4809 22.571 14.139 22.59 13.8263 22.4749C13.7183 22.4354 13.6085 22.3955 13.4973 22.355C11.9732 21.8005 10.1755 21.1464 8.7169 20.0897C7.10608 18.9228 5.87519 17.2435 5.75864 14.6842C5.6556 12.4213 6.49375 10.8963 7.2214 9.57246C7.35813 9.3237 7.49096 9.08203 7.61291 8.84391C8.00413 8.07996 8.31106 7.32479 8.41153 6.40994C8.51069 5.50694 8.41395 4.39567 7.92283 2.92169C7.61267 2.28583 7.94486 1.5873 8.53966 1.32966L8.53998 1.32952C8.72775 1.24829 8.9168 1.24952 8.98257 1.25012C9.08062 1.251 9.17794 1.26052 9.25536 1.27017C9.40157 1.28838 9.53689 1.31499 9.57697 1.32288Z" fill="#161823"/>
</svg>
