<svg width="20" height="20" viewBox="0 0 20 20" fill="none" xmlns="http://www.w3.org/2000/svg">
<path fill-rule="evenodd" clip-rule="evenodd" d="M5.42383 7.54688C5.42389 6.258 6.8758 5.5959 7.88379 6.25879L11.0059 8.3125C11.9389 8.92647 11.939 10.2738 11.0059 10.8877L7.88379 12.9404C6.87579 13.6034 5.42388 12.9422 5.42383 11.6533V7.54688ZM6.95605 7.50781C6.93881 7.51669 6.92977 7.52668 6.92676 7.53125C6.92552 7.53311 6.92384 7.53633 6.92383 7.54688V11.6533C6.92384 11.6642 6.92553 11.6671 6.92676 11.6689C6.92978 11.6735 6.93873 11.6835 6.95605 11.6924C6.97364 11.7013 6.99317 11.7057 7.00977 11.7051C7.02385 11.7046 7.03992 11.7004 7.05957 11.6875L10.1816 9.63379C10.196 9.62428 10.2006 9.61706 10.2021 9.61426C10.2042 9.6104 10.2061 9.605 10.2061 9.59961C10.206 9.59435 10.2041 9.58972 10.2021 9.58594C10.2008 9.5833 10.1966 9.57532 10.1816 9.56543L7.05957 7.5127C7.03995 7.4998 7.02383 7.49563 7.00977 7.49512C6.99318 7.49453 6.97363 7.49887 6.95605 7.50781Z" fill="#161823"/>
<path d="M10.8867 6.41406C11.1001 6.08963 11.5223 5.98539 11.8594 6.16113L11.9258 6.19922L13.7695 7.41211C15.3608 8.45878 15.3608 10.7414 13.7695 11.7881L11.9258 13.001C11.5798 13.2283 11.1143 13.132 10.8867 12.7861C10.6595 12.4402 10.7559 11.9757 11.1016 11.748L12.9453 10.5352C13.6356 10.0811 13.6355 9.12015 12.9453 8.66602L11.1016 7.45312L11.04 7.40723C10.7452 7.16745 10.6736 6.73851 10.8867 6.41406Z" fill="#161823"/>
<path fill-rule="evenodd" clip-rule="evenodd" d="M9.59961 1C14.349 1.00005 18.2 4.85023 18.2002 9.59961L18.1885 10.043C17.9579 14.5866 14.2006 18.2001 9.59961 18.2002L9.15723 18.1885C4.61344 17.958 1.00005 14.2007 1 9.59961C1.00021 4.85032 4.85032 1.00021 9.59961 1ZM9.59961 2.5C5.67874 2.50021 2.50021 5.67874 2.5 9.59961C2.50005 13.5206 5.67864 16.7 9.59961 16.7002C13.5207 16.7001 16.7001 13.5207 16.7002 9.59961C16.7 5.67864 13.5206 2.50005 9.59961 2.5Z" fill="#161823"/>
</svg>
