<svg width="24" height="24" viewBox="0 0 24 24" fill="none" xmlns="http://www.w3.org/2000/svg">
<path d="M4.76673 10.774C4.76673 6.76953 8.56377 4.23328 12.0001 4.23328C15.4364 4.23328 19.2334 6.76953 19.2334 10.774L19.2333 16.5906C19.2333 16.7853 19.2333 16.8827 19.2501 16.9635C19.3151 17.2749 19.5584 17.5183 19.8699 17.5832C19.9507 17.6001 20.0481 17.6001 20.2428 17.6001C20.7296 17.6001 20.973 17.6001 21.1751 17.558C21.9537 17.3955 22.562 16.7872 22.7244 16.0086C22.7666 15.8065 22.7666 15.5631 22.7666 15.0763V14.5668C22.7666 13.6036 22.7666 13.122 22.6042 12.744C22.402 12.2733 22.0268 11.8981 21.5561 11.6959C21.3464 11.6058 21.1048 11.5656 20.7667 11.5478V10.774C20.7667 5.64844 15.98 2.69995 12.0001 2.69995C8.02009 2.69995 3.2334 5.64844 3.2334 10.774V11.5478C2.8953 11.5656 2.65367 11.6057 2.44391 11.6959C1.9732 11.8981 1.59805 12.2733 1.39582 12.744C1.2334 13.122 1.2334 13.6036 1.2334 14.5668V15.0763C1.2334 15.5631 1.2334 15.8065 1.27556 16.0086C1.43801 16.7872 2.04633 17.3955 2.82489 17.558C3.02697 17.6001 3.27038 17.6001 3.75721 17.6001C3.95194 17.6001 4.0493 17.6001 4.13013 17.5832C4.44156 17.5183 4.68489 17.2749 4.74987 16.9635C4.76673 16.8827 4.76673 16.7853 4.76673 16.5906L4.76673 10.774Z" fill="#161823"/>
<path d="M17.1032 9.80595C17.1032 9.41748 16.7345 9.14316 16.3613 9.21C15.7 9.32843 15.0442 9.35419 14.333 9.35419H12.6147C12.2988 9.35419 12.0518 9.44644 11.8848 9.62984C11.7189 9.81206 11.6424 10.0729 11.6424 10.3891V13.466C11.6424 15.4567 11.5707 16.7583 10.9712 18.209C10.7821 18.6667 11.0976 19.2067 11.605 19.2067C11.9161 19.2067 12.2056 19.0316 12.3339 18.7441C12.983 17.2902 13.1294 16.0219 13.1519 14.0109C13.1536 13.8627 13.2738 13.7429 13.421 13.7429H14.513C14.6433 13.7429 14.749 13.8486 14.749 13.9789V18.462C14.749 18.8733 15.0824 19.2067 15.4937 19.2067C15.905 19.2067 16.2384 18.8733 16.2384 18.462V13.9678C16.2384 13.8436 16.3391 13.7429 16.4633 13.7429H16.7034C17.0688 13.7429 17.365 13.4467 17.365 13.0814C17.365 12.716 17.0688 12.4198 16.7034 12.4198H13.3196C13.2284 12.4198 13.1546 12.3459 13.1546 12.2548V10.785C13.1546 10.7398 13.1659 10.7148 13.178 10.7016C13.1891 10.6894 13.2099 10.6773 13.2519 10.6773H14.333C15.1345 10.6773 15.8638 10.6464 16.5942 10.4736C16.9032 10.4004 17.1032 10.1165 17.1032 9.80595Z" fill="#161823"/>
<path fill-rule="evenodd" clip-rule="evenodd" d="M7.73899 9.46731C7.47006 9.46731 7.24207 9.56504 7.08181 9.73997C6.9221 9.9143 6.83496 10.1594 6.83496 10.4456V17.0972C6.83496 17.3834 6.9221 17.6285 7.08181 17.8028C7.24207 17.9778 7.47006 18.0755 7.73899 18.0755H9.8182C10.0871 18.0755 10.3151 17.9778 10.4754 17.8028C10.6351 17.6285 10.7222 17.3834 10.7222 17.0972V10.4456C10.7222 10.1594 10.6351 9.9143 10.4754 9.73997C10.3151 9.56504 10.0871 9.46731 9.8182 9.46731H7.73899ZM8.30164 10.8415C8.30164 10.8038 8.31213 10.7798 8.32367 10.7664C8.33422 10.7542 8.35027 10.7452 8.37624 10.7452H9.16958C9.19625 10.7452 9.21658 10.7548 9.23042 10.7693C9.24434 10.7838 9.25555 10.8074 9.25555 10.8415V16.7013C9.25555 16.7355 9.24434 16.759 9.23042 16.7736C9.21658 16.788 9.19625 16.7976 9.16958 16.7976H8.37624C8.35027 16.7976 8.33422 16.7886 8.32367 16.7764C8.31213 16.763 8.30164 16.739 8.30164 16.7013V10.8415Z" fill="#161823"/>
</svg>
