<svg width="20" height="20" viewBox="0 0 20 20" fill="none" xmlns="http://www.w3.org/2000/svg">
<path d="M5.94975 10.5457C4.57802 10.5816 3.30114 10.9327 2.31417 11.5443C1.28625 12.1814 0.416992 13.2197 0.416992 14.5723V14.9198C0.416992 15.9939 1.28776 16.8647 2.3619 16.8647H3.16038C3.00375 16.4787 2.91734 16.0568 2.91699 15.6147H2.3619C1.97811 15.6147 1.66699 15.3036 1.66699 14.9198V14.5723C1.66699 13.5072 2.61836 12.5819 4.04961 12.1153C4.51795 11.5415 5.08652 11.0723 5.66577 10.7133C5.75881 10.6557 5.8535 10.5998 5.94975 10.5457Z" fill="#161823"/>
<path d="M7.53454 8.72212C7.14497 9.00028 6.68141 9.16162 6.18394 9.16162C4.80231 9.16162 3.68227 7.91714 3.68227 6.38199C3.68227 4.84684 4.80231 3.60236 6.18394 3.60236C6.48514 3.60236 6.7739 3.6615 7.04134 3.76991C6.86443 4.14845 6.73511 4.55373 6.65992 4.97416C6.50377 4.89393 6.33974 4.85236 6.18394 4.85236C5.61329 4.85236 4.93227 5.41006 4.93227 6.38199C4.93227 7.35392 5.61329 7.91162 6.18394 7.91162C6.42973 7.91162 6.696 7.80815 6.9195 7.61269C7.07564 8.01146 7.28296 8.38537 7.53454 8.72212Z" fill="#161823"/>
<path d="M6.32434 11.5805C7.52893 10.834 9.1205 10.4167 10.8337 10.4167C11.5666 10.4167 12.2772 10.4931 12.9447 10.6389C13.0958 10.6719 13.1468 10.8578 13.0375 10.9672L12.3015 11.7032C12.2561 11.7485 12.1918 11.7692 12.1284 11.7599C11.7151 11.699 11.2817 11.6667 10.8337 11.6667C7.78687 11.6667 5.41708 13.1591 5.41708 15V15.4167C5.41708 15.877 5.79017 16.25 6.25041 16.25H13.27V17.3C13.27 17.4105 13.1805 17.5 13.07 17.5H6.25041C5.09981 17.5 4.16708 16.5673 4.16708 15.4167V15C4.16708 13.4945 5.13475 12.3178 6.32434 11.5805Z" fill="#161823"/>
<path d="M10.8338 9.16671C12.4906 9.16671 13.8338 7.67433 13.8338 5.83338C13.8338 3.99243 12.4906 2.50005 10.8338 2.50005C9.17691 2.50005 7.83376 3.99243 7.83376 5.83338C7.83376 7.67433 9.17691 9.16671 10.8338 9.16671ZM10.8338 7.91671C9.98789 7.91671 9.08376 7.11111 9.08376 5.83338C9.08376 4.55565 9.98789 3.75005 10.8338 3.75005C11.6796 3.75005 12.5838 4.55565 12.5838 5.83338C12.5838 7.11111 11.6796 7.91671 10.8338 7.91671Z" fill="#161823"/>
<path d="M19.0697 15.2165C18.7768 15.5094 18.302 15.5094 18.0091 15.2165L16.2699 13.4773V18.3334C16.2699 18.7476 15.9341 19.0834 15.5199 19.0834C15.1056 19.0834 14.7699 18.7476 14.7699 18.3334V13.4774L13.0307 15.2165C12.7378 15.5094 12.263 15.5094 11.9701 15.2165C11.6772 14.9236 11.6772 14.4487 11.9701 14.1558L14.9896 11.1363C15.2825 10.8434 15.7573 10.8434 16.0502 11.1363L19.0697 14.1558C19.3626 14.4487 19.3626 14.9236 19.0697 15.2165Z" fill="#161823"/>
</svg>
