<svg width="20" height="20" viewBox="0 0 20 20" fill="none" xmlns="http://www.w3.org/2000/svg">
<path d="M17.5 4.37501C17.5 5.87078 16.2868 7.08334 14.7902 7.08334C14.0546 7.08334 13.3875 6.79043 12.8992 6.31495L9.42133 8.30359C9.52789 8.6408 9.58536 8.99982 9.58536 9.37226C9.58536 9.86 9.4868 10.3247 9.3085 10.7476L12.3157 12.8519C12.8655 12.371 13.5853 12.0796 14.3732 12.0796C16.1001 12.0796 17.5001 13.4796 17.5001 15.2065C17.5001 16.9334 16.1001 18.3333 14.3732 18.3333C12.6463 18.3333 11.2463 16.9334 11.2463 15.2065C11.2463 14.8096 11.3203 14.4299 11.4552 14.0805L8.44617 11.9749C8.48067 11.9431 8.51453 11.9105 8.54774 11.8773C7.90664 12.5184 7.02097 12.9149 6.04268 12.9149C4.08611 12.9149 2.5 11.3288 2.5 9.37226C2.5 7.41569 4.08611 5.82957 6.04268 5.82957C7.08783 5.82957 8.02727 6.28216 8.67571 7.00203L12.1557 5.01218C12.1064 4.80784 12.0803 4.59447 12.0803 4.37501C12.0803 2.87923 13.2935 1.66667 14.7902 1.66667C16.2868 1.66667 17.5 2.87923 17.5 4.37501ZM16 4.37501C16 3.70847 15.4592 3.16667 14.7902 3.16667C14.1212 3.16667 13.5803 3.70847 13.5803 4.37501C13.5803 5.04154 14.1212 5.58334 14.7902 5.58334C15.4592 5.58334 16 5.04154 16 4.37501ZM8.08536 9.37226C8.08536 8.24411 7.17082 7.32957 6.04268 7.32957C4.91454 7.32957 4 8.24411 4 9.37226C4 10.5004 4.91454 11.4149 6.04268 11.4149C7.17082 11.4149 8.08536 10.5004 8.08536 9.37226ZM16.0001 15.2065C16.0001 14.308 15.2717 13.5796 14.3732 13.5796C13.4747 13.5796 12.7463 14.308 12.7463 15.2065C12.7463 16.105 13.4747 16.8333 14.3732 16.8333C15.2717 16.8333 16.0001 16.105 16.0001 15.2065Z" fill="#161823"/>
</svg>
