<svg width="12" height="12" viewBox="0 0 12 12" fill="none" xmlns="http://www.w3.org/2000/svg">
<path d="M6 11C8.76142 11 11 8.76142 11 6C11 3.23858 8.76142 1 6 1C3.23858 1 1 3.23858 1 6C1 8.76142 3.23858 11 6 11ZM4.40138 5.05402L6 6.49278L7.59862 5.05402C7.84493 4.83235 8.2243 4.85231 8.44598 5.09862C8.66765 5.34493 8.64768 5.7243 8.40138 5.94598L6.40138 7.74598C6.17319 7.95134 5.8268 7.95134 5.59862 7.74598L3.59862 5.94598C3.35231 5.7243 3.33235 5.34493 3.55402 5.09862C3.7757 4.85231 4.15507 4.83235 4.40138 5.05402Z" fill="#161823"/>
</svg>
