<svg width="24" height="24" viewBox="0 0 24 24" fill="none" xmlns="http://www.w3.org/2000/svg">
<path d="M3.53619 2.47504C3.2433 2.18215 2.76842 2.18215 2.47553 2.47504C2.18264 2.76793 2.18264 3.24281 2.47553 3.5357L20.4755 21.5357C20.7684 21.8286 21.2433 21.8286 21.5362 21.5357C21.8291 21.2428 21.8291 20.7679 21.5362 20.475L19.2984 18.2373C20.7336 16.5595 21.6004 14.381 21.6004 12.0001C21.6004 6.69813 17.3023 2.40006 12.0004 2.40006C9.61944 2.40006 7.44093 3.26684 5.7632 4.70205L3.53619 2.47504ZM6.8277 5.76655C8.23079 4.60094 10.0337 3.90006 12.0004 3.90006C16.4739 3.90006 20.1004 7.52655 20.1004 12.0001C20.1004 13.9667 19.3995 15.7697 18.2339 17.1728L6.8277 5.76655Z" fill="#161823"/>
<path d="M12.0004 20.1001C13.4196 20.1001 14.7535 19.7351 15.9135 19.0938L17.0104 20.1907C15.5519 21.0847 13.8363 21.6001 12.0004 21.6001C6.69846 21.6001 2.40039 17.302 2.40039 12.0001C2.40039 10.1641 2.91577 8.44852 3.80975 6.9901L4.9066 8.08695C4.26538 9.24691 3.90039 10.5809 3.90039 12.0001C3.90039 16.4736 7.52688 20.1001 12.0004 20.1001Z" fill="#161823"/>
</svg>
