<svg width="12" height="12" viewBox="0 0 12 12" fill="none" xmlns="http://www.w3.org/2000/svg">
<path d="M6.60653 0.982187C6.60653 0.782638 6.37111 0.676395 6.22148 0.808424L4.74267 2.11325C4.60327 2.23626 4.60327 2.45362 4.74267 2.57662L6.22148 3.88146C6.37111 4.01348 6.60653 3.90724 6.60653 3.70769V2.7916C7.23676 2.89194 7.83556 3.14779 8.34688 3.54012C9.02002 4.05661 9.50393 4.78077 9.72357 5.60031C9.94321 6.41984 9.8863 7.28895 9.56167 8.07285C9.23705 8.85674 8.66284 9.51163 7.9281 9.93593C7.19336 10.3602 6.33914 10.5303 5.49793 10.4196C4.65672 10.309 3.87551 9.92387 3.27547 9.32402C2.67543 8.72416 2.29007 7.94308 2.17917 7.1019C2.06827 6.26073 2.23802 5.40646 2.6621 4.67159C2.77217 4.48085 2.70677 4.237 2.51604 4.12694C2.3253 4.01687 2.08146 4.08226 1.97139 4.273C1.45957 5.15991 1.2547 6.19092 1.38855 7.20614C1.52239 8.22135 1.98747 9.16404 2.71166 9.888C3.43585 10.612 4.37869 11.0767 5.39394 11.2103C6.4092 11.3438 7.44015 11.1386 8.3269 10.6265C9.21366 10.1144 9.90667 9.32405 10.2985 8.37797C10.6903 7.43188 10.7589 6.38296 10.4939 5.39387C10.2288 4.40477 9.64474 3.53078 8.83233 2.90743C8.1814 2.40798 7.413 2.0918 6.60653 1.98584V0.982187Z" fill="#161823"/>
<path d="M4.74881 7.89927C4.74881 8.29644 5.24723 8.69362 5.95072 8.69362C6.75546 8.69362 7.29801 8.18741 7.29801 7.432C7.29801 6.74668 6.83334 6.27941 6.1584 6.27941C5.85467 6.27941 5.56653 6.39363 5.44452 6.55977H5.40817L5.48086 5.64341H6.82295C7.03322 5.64341 7.15263 5.54217 7.15263 5.36045C7.15263 5.17874 7.03063 5.07231 6.82295 5.07231H5.35366C5.06811 5.07231 4.92014 5.19172 4.90197 5.43833L4.80592 6.77264C4.79034 7.01146 4.93572 7.16462 5.14858 7.16462C5.24463 7.16462 5.31991 7.13347 5.47307 7.00367C5.62623 6.88426 5.80275 6.81936 5.97668 6.81936C6.35049 6.81936 6.61787 7.07895 6.61787 7.45796C6.61787 7.84994 6.34011 8.12251 5.94813 8.12251C5.68334 8.12251 5.47567 8.00051 5.31213 7.75649C5.22646 7.63448 5.14339 7.58776 5.03436 7.58776C4.86044 7.58776 4.74881 7.72534 4.74881 7.89927Z" fill="#161823"/>
</svg>
