<svg width="21" height="20" viewBox="0 0 21 20" fill="none" xmlns="http://www.w3.org/2000/svg">
<path d="M5.65222 10.3385C5.74383 10.3289 5.78181 10.4516 5.70351 10.5002C4.25571 11.3974 2.83643 12.9858 2.83643 15.1947V15.6113C2.83643 16.0914 2.93082 16.5494 3.10206 16.9678C3.1297 17.0353 3.08111 17.1111 3.00813 17.1111H2.77792C1.5657 17.1111 0.583008 16.1284 0.583008 14.9161V14.5687C0.583008 13.099 1.52732 11.9921 2.59849 11.3282C3.45463 10.7976 4.51154 10.4591 5.65222 10.3385Z" fill="#161823"/>
<path d="M7.48595 8.8474C7.52386 8.89889 7.50631 8.9728 7.44712 8.997C7.18376 9.10469 6.89913 9.16349 6.60214 9.16349C5.25091 9.16349 4.15552 7.94639 4.15552 6.44503C4.15552 4.94366 5.25091 3.72656 6.60214 3.72656C6.67384 3.72656 6.74482 3.72999 6.81496 3.7367C6.88048 3.74298 6.91819 3.81214 6.89302 3.87296C6.64033 4.4836 6.50293 5.15111 6.50293 5.83333C6.50293 6.93573 6.86169 7.99969 7.48595 8.8474Z" fill="#161823"/>
<path d="M14.0032 5.83333C14.0032 7.67428 12.6601 9.16667 11.0032 9.16667C9.34636 9.16667 8.00321 7.67428 8.00321 5.83333C8.00321 3.99238 9.34636 2.5 11.0032 2.5C12.6601 2.5 14.0032 3.99238 14.0032 5.83333Z" fill="#161823"/>
<path d="M6.24984 17.4993H6.36715C6.38463 17.4998 6.40217 17.5 6.41976 17.5H10.9093C10.9854 17.5 11.0341 17.4181 11.0012 17.3495C10.8135 16.9572 10.7114 16.5222 10.7114 16.0725V13.3297C10.7114 12.2728 11.2753 11.2962 12.1906 10.7677L12.3416 10.6806C12.4232 10.6335 12.4001 10.5113 12.3066 10.4993C11.8834 10.4447 11.4473 10.4167 11.0031 10.4167C9.3776 10.4201 7.72446 10.7117 6.32377 11.5798C5.13418 12.3171 4.1665 13.4938 4.1665 14.9993V15.416C4.1665 16.5666 5.09924 17.4993 6.24984 17.4993Z" fill="#161823"/>
<path d="M17.2452 14.698C17.2452 15.3608 16.708 15.898 16.0452 15.898C15.3825 15.898 14.8452 15.3608 14.8452 14.698C14.8452 14.0353 15.3825 13.498 16.0452 13.498C16.708 13.498 17.2452 14.0353 17.2452 14.698Z" fill="#161823"/>
<path d="M15.2534 10.5875C15.7433 10.3046 16.3469 10.3046 16.8368 10.5875L19.2121 11.9589C19.702 12.2417 20.0037 12.7644 20.0037 13.3301V16.0729C20.0037 16.6385 19.702 17.1612 19.2121 17.4441L16.8368 18.8155C16.3469 19.0983 15.7433 19.0983 15.2534 18.8155L12.8781 17.4441C12.3882 17.1612 12.0864 16.6385 12.0864 16.0729V13.3301C12.0864 12.7644 12.3882 12.2417 12.8781 11.9589L15.2534 10.5875ZM16.0868 11.8865C16.061 11.8716 16.0292 11.8716 16.0034 11.8865L13.6281 13.2579C13.6023 13.2728 13.5864 13.3003 13.5864 13.3301V16.0729C13.5864 16.1026 13.6023 16.1301 13.6281 16.145L16.0034 17.5164C16.0292 17.5313 16.061 17.5313 16.0868 17.5164L18.4621 16.145C18.4879 16.1301 18.5037 16.1026 18.5037 16.0729V13.3301C18.5037 13.3003 18.4879 13.2728 18.4621 13.2579L16.0868 11.8865Z" fill="#161823"/>
</svg>
