<svg width="24" height="24" viewBox="0 0 24 24" fill="none" xmlns="http://www.w3.org/2000/svg">
<path d="M11.9998 9.50001C10.7803 9.50001 9.4998 8.32783 9.4998 6.50001C9.4998 4.67218 10.7803 3.50001 11.9998 3.50001C13.2193 3.50001 14.4998 4.67218 14.4998 6.50001C14.4998 8.32783 13.2193 9.50001 11.9998 9.50001ZM11.9998 11C14.2089 11 15.9998 8.98529 15.9998 6.50001C15.9998 4.01473 14.2089 2.00001 11.9998 2.00001C9.79067 2.00001 7.9998 4.01473 7.9998 6.50001C7.9998 8.98529 9.79067 11 11.9998 11Z" fill="#161823"/>
<path d="M12 12.5C9.6563 12.5 7.49136 13.0852 5.86408 14.1182C4.25055 15.1424 3 16.7372 3 18.7273V19.5C3 20.8807 4.11929 22 5.5 22H13.5388C13.7185 22 13.807 21.7815 13.678 21.6564L13.0284 21.0266C12.894 20.8964 12.7794 20.7535 12.6846 20.6016C12.646 20.5399 12.5796 20.5 12.5069 20.5H5.5C4.94772 20.5 4.5 20.0523 4.5 19.5V18.7273C4.5 16.1165 7.78125 14 12 14C14.8318 14 17.2412 14.9536 18.5193 16.3702C18.6084 16.469 18.7677 16.4638 18.8444 16.3552L19.4883 15.4433C19.5427 15.3662 19.5361 15.2613 19.4703 15.1936C19.0745 14.7866 18.6217 14.4265 18.1359 14.1182C16.5086 13.0852 14.3437 12.5 12 12.5Z" fill="#161823"/>
<path d="M14.056 18.8891C14.3443 18.5917 14.8192 18.5843 15.1166 18.8726L17.3646 21.0518L21.832 14.7248C22.0709 14.3864 22.5389 14.3058 22.8772 14.5447C23.2156 14.7836 23.2962 15.2516 23.0573 15.59L18.0845 22.6329C17.9581 22.8119 17.7597 22.9267 17.5415 22.947C17.3233 22.9674 17.1072 22.8913 16.9498 22.7388L14.0725 19.9496C13.7751 19.6613 13.7677 19.1865 14.056 18.8891Z" fill="#161823"/>
</svg>
