<svg width="24" height="24" viewBox="0 0 24 24" fill="none" xmlns="http://www.w3.org/2000/svg">
<path d="M10.3737 4.05005C6.0682 4.05005 2.75391 7.08407 2.75391 10.6236C2.75391 12.7743 3.95837 14.7182 5.88259 15.9328L6.23226 16.1535V19.089L9.25012 17.3323C9.49163 17.8209 9.79123 18.2768 10.1394 18.6945C10.061 18.6928 9.98292 18.6902 9.90506 18.6867L6.84804 20.4662C5.90963 21.0124 4.73226 20.3355 4.73226 19.2497V16.9691C2.63701 15.5075 1.25391 13.2245 1.25391 10.6236C1.25391 6.07376 5.43418 2.55005 10.3737 2.55005C14.1344 2.55005 17.4549 4.59254 18.8257 7.57532C18.2089 7.39528 17.5647 7.28312 16.9069 7.24655C15.5904 5.35265 13.1948 4.05005 10.3737 4.05005Z" fill="#161823"/>
<path d="M16.425 8.67811C12.9925 8.67811 10.0339 11.1328 10.0339 14.364C10.0339 17.5611 12.7503 20.0499 16.2207 20.0499C16.3131 20.0499 16.405 20.0482 16.4964 20.0447L18.1037 21.2023C18.8832 21.7754 19.9822 21.23 20.0031 20.2686L20.0799 19.015C21.619 18.0111 22.816 16.3848 22.816 14.364C22.816 11.1328 19.8574 8.67811 16.425 8.67811ZM11.5339 14.364C11.5339 12.1431 13.6265 10.1781 16.425 10.1781C19.2234 10.1781 21.316 12.1431 21.316 14.364C21.316 15.8457 20.3704 17.1329 18.982 17.929L18.6313 18.1302L18.5372 19.666L16.9352 18.5122L16.6619 18.5331C16.5167 18.5442 16.3696 18.5499 16.2207 18.5499C13.4602 18.5499 11.5339 16.619 11.5339 14.364Z" fill="#161823"/>
</svg>
