<svg width="20" height="20" viewBox="0 0 20 20" fill="none" xmlns="http://www.w3.org/2000/svg">
<path fill-rule="evenodd" clip-rule="evenodd" d="M2.7002 3.99186C2.7002 2.72621 3.72621 1.7002 4.99186 1.7002H11.0085C11.919 1.7002 12.7054 2.23109 13.0751 3.0002H13.1598C13.2506 3.24693 13.3002 3.5136 13.3002 3.79186V12.7085C13.3002 13.9742 12.2742 15.0002 11.0085 15.0002H4.99186C3.72621 15.0002 2.7002 13.9742 2.7002 12.7085V3.99186ZM6.98629 7.13517C6.98629 7.68837 6.64616 8.13682 6.22658 8.13682C5.807 8.13682 5.46686 7.68837 5.46686 7.13517C5.46686 6.58198 5.807 6.13353 6.22658 6.13353C6.64616 6.13353 6.98629 6.58198 6.98629 7.13517ZM9.76272 8.13682C10.1823 8.13682 10.5224 7.68837 10.5224 7.13517C10.5224 6.58198 10.1823 6.13353 9.76272 6.13353C9.34314 6.13353 9.003 6.58198 9.003 7.13517C9.003 7.68837 9.34314 8.13682 9.76272 8.13682ZM7.99464 10.4184C7.16311 10.4184 6.48902 9.9339 6.48902 9.33628C6.48902 8.73867 9.50026 8.73867 9.50026 9.33628C9.50026 9.9339 8.82617 10.4184 7.99464 10.4184Z" fill="#161823"/>
<path d="M5.4864 16.5002C5.71142 17.5296 6.62831 18.3002 7.7252 18.3002H15.0085C16.2742 18.3002 17.3002 17.2742 17.3002 16.0085V5.29186C17.3002 4.02621 16.2742 3.0002 15.0085 3.0002H14.7174C14.7717 3.25553 14.8002 3.52036 14.8002 3.79186V12.7085C14.8002 14.8026 13.1026 16.5002 11.0085 16.5002H5.4864Z" fill="#161823"/>
</svg>
