<svg width="16" height="16" viewBox="0 0 16 16" fill="none" xmlns="http://www.w3.org/2000/svg">
<path d="M8.0003 1.1665C5.79116 1.1665 4.0003 2.95737 4.0003 5.1665C4.0003 5.29652 4.00651 5.42518 4.01868 5.55219L4.05032 5.88262L4.38088 5.85235C6.20136 5.68569 8.03734 6.56395 9.01069 8.24984C9.08569 8.37973 9.15393 8.51159 9.21556 8.64501L9.35459 8.94598L9.65631 8.80859C11.0384 8.17925 12.0003 6.78556 12.0003 5.1665C12.0003 2.95737 10.2094 1.1665 8.0003 1.1665Z" fill="#161823"/>
<path d="M7.1512 7.41147C5.91512 6.52911 4.2271 6.39287 2.82489 7.20243C0.911716 8.307 0.256216 10.7534 1.36079 12.6665C2.46535 14.5797 4.91172 15.2352 6.82489 14.1306C6.93748 14.0656 7.04578 13.9959 7.14968 13.9219L7.42001 13.7293L7.22854 13.4581C6.17407 11.9649 6.01673 9.93587 6.99004 8.25005C7.06505 8.12012 7.14514 7.99506 7.22989 7.87496L7.42102 7.60409L7.1512 7.41147Z" fill="#161823"/>
<path d="M12.8325 7.02559L12.5305 6.8878L12.3914 7.18919C11.6255 8.84904 9.94695 9.99986 8.0003 9.99986C7.85032 9.99986 7.70202 9.99304 7.55568 9.97971L7.22554 9.94963L7.19365 10.2796C7.04756 11.7912 7.77358 13.3212 9.17578 14.1308C11.0889 15.2353 13.5353 14.5798 14.6399 12.6667C15.7444 10.7535 15.0889 8.30713 13.1758 7.20256C13.0631 7.13754 12.9486 7.07857 12.8325 7.02559Z" fill="#161823"/>
</svg>
