<svg width="20" height="20" viewBox="0 0 20 20" fill="none" xmlns="http://www.w3.org/2000/svg">
<path d="M2.38666 2.38636C2.67956 2.09346 3.15443 2.09346 3.44732 2.38636L4.40552 3.34455C4.49168 3.33711 4.57889 3.33331 4.66699 3.33331H15.3337C16.9905 3.33331 18.3337 4.67646 18.3337 6.33331V13.6666C18.3337 14.6496 17.8609 15.5222 17.1303 16.0694L17.614 16.553C17.9069 16.8459 17.9069 17.3208 17.614 17.6137C17.3211 17.9066 16.8462 17.9066 16.5533 17.6137L16.4237 17.4841C16.4098 17.4676 16.3951 17.4515 16.3796 17.436L2.34255 3.39895C2.09459 3.10428 2.1093 2.66372 2.38666 2.38636ZM5.64428 4.58331L7.87971 6.81875C8.27665 6.40002 8.9505 6.27005 9.49655 6.64263L12.9037 8.96744C13.631 9.46369 13.631 10.5363 12.9037 11.0325L12.4221 11.3612L16.2306 15.1696C16.7415 14.864 17.0837 14.3053 17.0837 13.6666V6.33331C17.0837 5.36681 16.3002 4.58331 15.3337 4.58331H5.64428ZM8.79202 7.73105L11.5226 10.4616L12.1992 9.99998L8.79202 7.67517V7.73105Z" fill="#161823"/>
<path d="M1.92858 5.1063C1.76049 5.48086 1.66699 5.89617 1.66699 6.33331V13.6666C1.66699 15.3235 3.01014 16.6666 4.66699 16.6666H13.4889L12.2389 15.4166H4.66699C3.70049 15.4166 2.91699 14.6331 2.91699 13.6666V6.33331C2.91699 6.2573 2.92184 6.18242 2.93124 6.10896L1.92858 5.1063Z" fill="#161823"/>
<path d="M7.54202 10.7197V12.3248C7.54202 13.3293 8.66682 13.9235 9.49655 13.3573L9.90257 13.0803L9.00307 12.1808L8.79202 12.3248V11.9697L7.54202 10.7197Z" fill="#161823"/>
</svg>
