<svg width="24" height="24" viewBox="0 0 24 24" fill="none" xmlns="http://www.w3.org/2000/svg">
<path d="M3.51437 20.1314C2.0499 18.6669 2.0499 16.2925 3.51437 14.8281L9.17122 9.17122C10.6357 7.70676 13.0101 7.70676 14.4745 9.17122L14.8271 9.52384C15.12 9.81674 15.12 10.2916 14.8271 10.5845C14.5342 10.8774 14.0594 10.8774 13.7665 10.5845L13.4139 10.2319C12.5352 9.3532 11.1106 9.3532 10.2319 10.2319L4.57503 15.8887C3.69635 16.7674 3.69635 18.192 4.57503 19.0707L4.92858 19.4243C5.80726 20.303 7.23188 20.303 8.11056 19.4243L10.0917 17.4431C10.3846 17.1502 10.8595 17.1502 11.1524 17.4431C11.4453 17.736 11.4453 18.2109 11.1524 18.5038L9.17122 20.4849C7.70675 21.9494 5.33238 21.9494 3.86792 20.4849L3.51437 20.1314Z" fill="#161823"/>
<path d="M9.16834 14.4718C8.87545 14.1789 8.87545 13.704 9.16834 13.4111C9.46123 13.1182 9.93611 13.1182 10.229 13.4111L10.5853 13.7674C11.464 14.6461 12.8886 14.6461 13.7673 13.7674L19.4241 8.11056C20.3028 7.23188 20.3028 5.80726 19.4241 4.92858L19.0706 4.57503C18.1919 3.69635 16.7673 3.69635 15.8886 4.57503L13.9093 6.55436C13.6164 6.84725 13.1415 6.84725 12.8486 6.55436C12.5557 6.26146 12.5557 5.78659 12.8486 5.4937L14.828 3.51437C16.2924 2.0499 18.6668 2.0499 20.1313 3.51437L20.4848 3.86792C21.9493 5.33238 21.9493 7.70675 20.4848 9.17122L14.828 14.8281C13.3635 16.2925 10.9891 16.2925 9.52466 14.8281L9.16834 14.4718Z" fill="#161823"/>
</svg>
