<svg width="20" height="20" viewBox="0 0 20 20" fill="none" xmlns="http://www.w3.org/2000/svg">
<path d="M3.21316 4.66455C3.28063 3.45016 4.28504 2.5 5.5013 2.5H14.4989C15.7151 2.5 16.7195 3.45016 16.787 4.66455L17.3657 15.0812C17.4387 16.3948 16.3932 17.5 15.0776 17.5H4.9226C3.60699 17.5 2.56148 16.3948 2.63446 15.0812L3.21316 4.66455ZM10.0001 9.84998C11.795 9.84998 13.2501 8.3949 13.2501 6.59998V6.49581C13.2501 6.0816 12.9143 5.74581 12.5001 5.74581C12.0859 5.74581 11.7501 6.0816 11.7501 6.49581V6.59998C11.7501 7.56647 10.9666 8.34998 10.0001 8.34998C9.03362 8.34998 8.25012 7.56647 8.25012 6.59998V6.49581C8.25012 6.0816 7.91434 5.74581 7.50012 5.74581C7.08591 5.74581 6.75012 6.0816 6.75012 6.49581V6.59998C6.75012 8.3949 8.2052 9.84998 10.0001 9.84998Z" fill="#161823"/>
</svg>
