<svg width="20" height="20" viewBox="0 0 20 20" fill="none" xmlns="http://www.w3.org/2000/svg">
<path fill-rule="evenodd" clip-rule="evenodd" d="M4.08244 10.2142C4.15728 8.90847 4.45562 7.62318 5.04412 6.5621C5.90546 5.00905 7.41561 3.875 9.99223 3.875C12.5702 3.875 14.0827 5.00596 14.9467 6.55489C15.5391 7.6169 15.8397 8.90465 15.9156 10.2135C15.8387 10.175 15.7587 10.1406 15.6757 10.1109L15.3555 9.99634C14.2505 9.60093 13.0342 10.1762 12.6388 11.2812L11.2483 15.1669C10.8529 16.2719 11.4281 17.4882 12.5331 17.8836L12.8534 17.9982C13.9637 18.3955 15.0312 17.862 15.6781 16.946L15.6985 16.917C15.711 16.9016 15.7229 16.8856 15.7343 16.869C15.7503 16.8458 15.7661 16.8224 15.7818 16.799L15.821 16.7435L15.8195 16.7425C16.6586 15.4727 17.1869 13.9574 17.3566 12.3647C17.5817 10.2519 17.3533 7.79022 16.2567 5.8242C15.1295 3.8034 13.1175 2.375 9.99223 2.375C6.86561 2.375 4.85574 3.80907 3.73236 5.83457C2.63952 7.80501 2.41556 10.2709 2.64452 12.3837C2.8164 13.9697 3.34393 15.478 4.17965 16.7426L4.17835 16.7435L4.21179 16.7909C4.23269 16.8221 4.25378 16.8531 4.27506 16.8839C4.2874 16.9019 4.30039 16.9191 4.31397 16.9356L4.32132 16.946C4.96817 17.862 6.03569 18.3955 7.14599 17.9982L7.46626 17.8836C8.57125 17.4882 9.14648 16.2719 8.75107 15.1669L7.36062 11.2812C6.96522 10.1762 5.7489 9.60093 4.64391 9.99634L4.32365 10.1109C4.24016 10.1408 4.15969 10.1754 4.08244 10.2142ZM5.51012 16.0327C4.78107 14.9749 4.30307 13.6761 4.14257 12.2827C4.18108 11.9763 4.53507 11.6284 4.829 11.5232L5.14926 11.4086C5.47426 11.2923 5.832 11.4615 5.9483 11.7865L7.33875 15.6723C7.45505 15.9973 7.28586 16.355 6.96086 16.4713L6.6406 16.5859C6.32423 16.6991 5.7654 16.3893 5.55134 16.0997C5.53891 16.0769 5.52517 16.0545 5.51012 16.0327ZM14.4975 16.0203C14.4819 16.0431 14.4676 16.0665 14.4549 16.0903C14.2461 16.3825 13.6785 16.7003 13.3588 16.5859L13.0385 16.4713C12.7135 16.355 12.5443 15.9973 12.6606 15.6723L14.0511 11.7865C14.1673 11.4615 14.5251 11.2923 14.8501 11.4086L15.1704 11.5232C15.4639 11.6283 15.8175 11.9755 15.8567 12.2816C15.6969 13.6697 15.2221 14.9643 14.4975 16.0203Z" fill="#161823"/>
</svg>
