<svg width="24" height="24" viewBox="0 0 24 24" fill="none" xmlns="http://www.w3.org/2000/svg">
<path fill-rule="evenodd" clip-rule="evenodd" d="M11.8739 1.98433C16.4439 1.91583 20.3355 5.63803 20.4529 10.2006C20.5048 12.2189 19.8294 14.1887 18.5497 15.7522L18.5496 15.7521L18.5489 15.7531C18.4222 15.9074 18.2903 16.0535 18.1601 16.1916L18.1524 16.1999L12.8959 21.452C12.8941 21.4538 12.8924 21.4555 12.8907 21.4573L12.8884 21.4595L12.5913 21.7564C12.5139 21.8337 12.4221 21.8949 12.3212 21.9367C12.2203 21.9785 12.1121 22 12.003 22C11.8938 22.0001 11.7857 21.9787 11.6847 21.937C11.5838 21.8953 11.4919 21.8341 11.4145 21.7569L7.98638 18.3374L7.98651 18.3372L6.02526 16.3809C4.44039 14.799 3.54977 12.6537 3.5498 10.4165C3.54983 8.22387 4.40535 6.11957 5.93145 4.54744L5.93286 4.54445L6.02564 4.45192C7.57971 2.90211 9.67737 2.01725 11.8739 1.98433ZM18.2586 11.6492C18.1389 10.5174 17.5917 9.47307 16.7275 8.72867C16.0099 8.11055 15.1185 7.73782 14.1831 7.65596C14.3257 7.76815 14.4597 7.89144 14.5839 8.02489C15.8978 9.43548 15.7768 11.6219 14.4454 12.9498L13.06 14.3318C13.4608 14.7718 13.7829 15.2781 14.0115 15.8287C14.2718 16.4555 14.4058 17.1274 14.4058 17.8059C14.4058 17.8098 14.4058 17.8136 14.4058 17.8175L14.4058 17.8229L17.076 15.155C17.1855 15.0385 17.2871 14.9253 17.3804 14.8123C18.0639 13.9067 18.3778 12.7764 18.2586 11.6492ZM18.7573 8.77245C18.4632 8.33778 18.1108 7.94021 17.7065 7.59196C16.5535 6.59883 15.065 6.08115 13.5436 6.14368C11.9596 6.20879 10.356 6.92459 9.31942 8.14028C9.47059 6.96972 10.0962 5.88388 11.033 5.16401C11.7286 4.62952 12.5661 4.30997 13.4419 4.24491C13.4471 4.24453 13.4522 4.24415 13.4574 4.24378L13.4583 4.24373C16.1396 4.05057 18.1564 6.31745 18.7573 8.77245ZM10.4127 11.6833L10.4128 11.6832C10.1065 11.2955 9.95245 10.81 9.97928 10.3176C10.0061 9.82513 10.212 9.35902 10.5588 9.00658L10.5604 9.00492L10.5621 9.00325C10.5648 9.00041 10.5674 8.99774 10.5697 8.99534C10.5714 8.99359 10.5729 8.99199 10.5742 8.99057L10.5771 8.98752L10.5818 8.98259L10.584 8.98022C10.7749 8.793 11.0013 8.64534 11.2502 8.54594C11.5023 8.44525 11.7722 8.39618 12.0437 8.4017C12.3153 8.40722 12.583 8.46722 12.8307 8.57806C13.0785 8.6889 13.3012 8.84829 13.4857 9.04663L13.4859 9.04687L13.4861 9.04712C14.2171 9.83166 14.1791 11.0969 13.3861 11.8878L12.0022 13.2683L10.7992 12.0684L10.7833 12.0542C10.6522 11.9375 10.5285 11.8136 10.4127 11.6833ZM10.6283 3.61981C10.2479 3.85384 9.89214 4.13132 9.56888 4.44897C8.48094 5.51799 7.84281 6.96133 7.78539 8.48436C7.75184 9.37413 7.91796 10.2516 8.26219 11.0564C8.60356 11.8558 9.11688 12.5747 9.76953 13.16L11.8297 15.215L11.8358 15.221C12.1742 15.5602 12.4427 15.9621 12.6262 16.404C12.8108 16.8485 12.9058 17.3249 12.9058 17.8059C12.9058 18.287 12.8108 18.7633 12.6262 19.2079C12.4729 19.5772 12.2601 19.9186 11.9968 20.2188L7.08475 15.3191C5.78151 14.0182 5.04978 12.2548 5.0498 10.4165C5.04983 8.57817 5.78167 6.81469 7.08505 5.51384L7.08956 5.50934C8.06359 4.53984 9.29699 3.88718 10.6283 3.61981Z" fill="#161823"/>
</svg>
