<svg width="20" height="20" viewBox="0 0 20 20" fill="none" xmlns="http://www.w3.org/2000/svg">
<path d="M15.0003 11.5C15.4352 11.5 15.8587 11.451 16.2656 11.3582C16.2849 11.391 16.3046 11.4235 16.3248 11.4558L17.323 13.0529C18.0341 14.1907 17.2161 15.6667 15.8743 15.6667H13.2408C13.1131 17.3448 11.711 18.6667 10.0002 18.6667C8.28944 18.6667 6.88738 17.3448 6.75972 15.6667H4.1261C2.78432 15.6667 1.96629 14.1907 2.67744 13.0529L3.67562 11.4558C4.10558 10.7679 4.33355 9.973 4.33355 9.16176V7.5C4.33355 5.09178 5.83463 3.03676 7.95161 2.21544C8.34766 1.4912 9.11658 1 10.0002 1C10.5228 1 11.0052 1.17179 11.3942 1.46197C11.0012 1.78654 10.6527 2.16308 10.3592 2.58108C10.2505 2.5291 10.1288 2.5 10.0002 2.5C9.53998 2.5 9.16689 2.8731 9.16689 3.33333V3.41668C7.26502 3.80274 5.83355 5.4842 5.83355 7.5V9.16176C5.83355 10.2541 5.52657 11.3245 4.94762 12.2508L3.94944 13.8479C3.86271 13.9867 3.96247 14.1667 4.1261 14.1667H15.8743C16.038 14.1667 16.1377 13.9867 16.051 13.8479L15.0528 12.2508C14.9 12.0063 14.7661 11.7518 14.6519 11.4895C14.7671 11.4964 14.8833 11.5 15.0003 11.5ZM8.26797 15.6667C8.38928 16.5147 9.11863 17.1667 10.0002 17.1667C10.8819 17.1667 11.6112 16.5147 11.7325 15.6667H8.26797Z" fill="#161823"/>
<path d="M19.167 5.83332C19.167 8.13451 17.3015 9.99999 15.0003 9.99999C12.6991 9.99999 10.8336 8.13451 10.8336 5.83332C10.8336 3.53214 12.6991 1.66666 15.0003 1.66666C17.3015 1.66666 19.167 3.53214 19.167 5.83332ZM14.9992 7.94947C15.08 7.94947 15.1591 7.89832 15.2443 7.84078C16.3568 7.11614 17.0836 6.25723 17.0836 5.39193C17.0836 4.61188 16.5423 4.08332 15.8858 4.08332C15.5051 4.08332 15.2203 4.27893 15.0383 4.57227C15.0207 4.60054 14.9781 4.60033 14.9608 4.57193C14.7819 4.27878 14.4954 4.08332 14.1147 4.08332C13.4583 4.08332 12.917 4.61188 12.917 5.39193C12.917 6.25723 13.6437 7.11614 14.7563 7.84078C14.8415 7.89832 14.9184 7.94947 14.9992 7.94947Z" fill="#161823"/>
</svg>
