<svg width="24" height="24" viewBox="0 0 24 24" fill="none" xmlns="http://www.w3.org/2000/svg">
<path d="M10.2963 2.654C12.349 2.27984 14.4679 2.5919 16.3256 3.542C18.0935 4.44618 19.5313 5.88035 20.4403 7.64015L21.7868 7.15007C22.0895 7.03989 22.3843 7.34836 22.269 7.6546L21.1288 10.6812C21.0213 10.9665 20.6916 11.0866 20.4259 10.9371L17.607 9.35142C17.3218 9.19098 17.3493 8.76518 17.652 8.655L19.017 8.1582C18.2483 6.75405 17.0739 5.60951 15.6426 4.87748C14.0782 4.07739 12.2939 3.8146 10.5653 4.12968C8.83665 4.44477 7.25984 5.3202 6.07836 6.62078C5.10581 7.69136 4.44566 9.00101 4.15997 10.4073C4.07751 10.8132 3.68159 11.0754 3.27567 10.993C2.86975 10.9105 2.60753 10.5146 2.69 10.1087C3.02925 8.43871 3.81317 6.88351 4.96808 5.61218C6.37109 4.06773 8.24356 3.02816 10.2963 2.654Z" fill="#161823"/>
<path d="M20.7226 13.0181C21.1285 13.1011 21.3902 13.4974 21.3072 13.9032C20.9892 15.4582 20.2843 16.9193 19.2444 18.1451C17.7884 19.8617 15.7701 21.0054 13.5493 21.3726C11.3285 21.7397 9.04944 21.3064 7.11838 20.1498C5.59482 19.2372 4.36596 17.9213 3.55937 16.3598L2.21283 16.8499C1.9101 16.9601 1.61531 16.6516 1.73067 16.3454L2.87081 13.3188C2.97828 13.0335 3.30804 12.9134 3.57376 13.0629L6.39264 14.6486C6.67786 14.809 6.65031 15.2348 6.34758 15.345L4.9827 15.8418C5.66178 17.082 6.66193 18.1279 7.88912 18.8629C9.51528 19.8369 11.4345 20.2018 13.3046 19.8927C15.1748 19.5835 16.8744 18.6203 18.1005 17.1748C18.9762 16.1425 19.5698 14.9121 19.8376 13.6027C19.9206 13.1968 20.3168 12.9351 20.7226 13.0181Z" fill="#161823"/>
<path fill-rule="evenodd" clip-rule="evenodd" d="M14.605 15.6C15.0961 15.6 15.4441 15.1205 15.2919 14.6536L13.1194 7.98867C12.9661 7.51831 12.5206 7.2 12.0259 7.2C11.5337 7.2 11.0899 7.51509 10.9346 7.98211L8.7147 14.6552C8.56003 15.1201 8.90613 15.6 9.39612 15.6C9.71437 15.6 9.99466 15.3905 10.0848 15.0853L10.5187 13.6167H13.4708L13.9132 15.0858C14.0051 15.3911 14.2862 15.6 14.605 15.6ZM12.006 8.62333L13.1102 12.3217H10.8905L12.006 8.62333Z" fill="#161823"/>
</svg>
