<svg width="12" height="12" viewBox="0 0 12 12" fill="none" xmlns="http://www.w3.org/2000/svg">
<g clip-path="url(#clip0_7_1527)">
<path d="M0.998047 5.99989C0.998047 4.61951 2.11707 3.50049 3.49744 3.50049C3.75977 3.50049 4.01175 3.54073 4.24806 3.61502C4.5115 3.69784 4.79219 3.55142 4.875 3.28799C4.95782 3.02456 4.8114 2.74387 4.54797 2.66105C4.21573 2.55661 3.86267 2.50049 3.49744 2.50049C1.56478 2.50049 -0.00195312 4.06722 -0.00195312 5.99989C-0.00195312 7.93255 1.56478 9.49928 3.49744 9.49928C3.86267 9.49928 4.21573 9.44316 4.54797 9.33872C4.8114 9.2559 4.95782 8.97522 4.875 8.71178C4.79219 8.44835 4.5115 8.30193 4.24806 8.38475C4.01175 8.45904 3.75977 8.49928 3.49744 8.49928C2.11707 8.49928 0.998047 7.38027 0.998047 5.99989Z" fill="#161823"/>
<path d="M8.50086 2.50049C6.5682 2.50049 5.00146 4.06722 5.00146 5.99989C5.00146 7.93255 6.5682 9.49928 8.50086 9.49928C10.4335 9.49928 12.0003 7.93255 12.0003 5.99989C12.0003 4.06722 10.4335 2.50049 8.50086 2.50049ZM6.00146 5.99989C6.00146 4.61951 7.12048 3.50049 8.50086 3.50049C9.88124 3.50049 11.0003 4.61951 11.0003 5.99989C11.0003 7.38027 9.88124 8.49928 8.50086 8.49928C7.12048 8.49928 6.00146 7.38027 6.00146 5.99989Z" fill="#161823"/>
</g>
<defs>
<clipPath id="clip0_7_1527">
<rect width="12" height="12" fill="white"/>
</clipPath>
</defs>
</svg>
