<svg width="20" height="20" viewBox="0 0 20 20" fill="none" xmlns="http://www.w3.org/2000/svg">
<path d="M4.03033 2.46967C3.73744 2.17678 3.26256 2.17678 2.96967 2.46967C2.67678 2.76256 2.67678 3.23744 2.96967 3.53033L17.9697 18.5303C18.2626 18.8232 18.7374 18.8232 19.0303 18.5303C19.3232 18.2374 19.3232 17.7626 19.0303 17.4697L16.6874 15.1267L18.4326 11.0255C18.4715 10.9346 18.5008 10.8373 18.5202 10.7335C18.5397 10.6296 18.5494 10.5323 18.5494 10.4414V8.88389C18.5494 8.46855 18.3937 8.10512 18.0822 7.79362C17.7707 7.48211 17.4072 7.32636 16.9919 7.32636H12.7476L13.6043 3.93872V3.66615C13.6043 3.52337 13.5751 3.37411 13.5166 3.21836C13.4582 3.0626 13.3836 2.9393 13.2928 2.84844C12.7551 2.31081 11.8835 2.31081 11.3458 2.84844L7.87747 6.31681L4.03033 2.46967Z" fill="#161823"/>
<path d="M14.6556 17.4503H6.86792V9.42853L14.8733 17.4339C14.8015 17.4449 14.7289 17.4503 14.6556 17.4503Z" fill="#161823"/>
<path d="M5.61507 8.17568L4.76573 7.32634H3.75C3.05964 7.32634 2.5 7.88599 2.5 8.57634V16.2003C2.5 16.8907 3.05964 17.4503 3.75 17.4503H5.61507V8.17568Z" fill="#161823"/>
</svg>
