<svg width="24" height="24" viewBox="0 0 24 24" fill="none" xmlns="http://www.w3.org/2000/svg">
<path d="M21.304 10.4074C20.2214 11.7164 18.863 12.1042 16.4866 11.9639C16.4672 9.50684 14.4814 7.52613 12.035 7.50038C11.897 5.13196 12.2858 3.77644 13.5924 2.69576C14.7371 1.74818 16.6616 1.51171 18.0028 2.85285C18.6022 3.45232 18.9199 4.23211 18.9603 5.03903C19.7673 5.0795 20.5475 5.39754 21.1469 5.997C22.4881 7.33815 22.2516 9.26269 21.304 10.4074Z" fill="#161823"/>
<path d="M10.4077 2.69551C11.7143 3.77618 12.1031 5.13168 11.9649 7.50018C9.50584 7.51186 7.50549 9.49875 7.48685 11.9654C5.12695 12.1011 3.77458 11.7113 2.696 10.4072C1.74842 9.26244 1.51195 7.3379 2.85309 5.99676C3.45256 5.39729 4.23235 5.07968 5.03927 5.0392C5.07974 4.23228 5.39778 3.45207 5.99724 2.8526C7.33839 1.51146 9.26293 1.74793 10.4077 2.69551Z" fill="#161823"/>
<path d="M2.696 13.5926C3.77458 12.2885 5.12694 11.8987 7.48684 12.0344C7.50523 14.5013 9.5057 16.4884 11.9649 16.5001C12.103 18.8683 11.7142 20.2237 10.4077 21.3043C9.26293 22.2518 7.33839 22.4883 5.99724 21.1472C5.39778 20.5477 5.07974 19.7675 5.03927 18.9606C4.23235 18.9201 3.45255 18.6025 2.85309 18.003C1.51195 16.6619 1.74842 14.7373 2.696 13.5926Z" fill="#161823"/>
<path d="M13.5924 21.3043C12.2858 20.2236 11.897 18.8681 12.035 16.4999C14.4815 16.4741 16.4673 14.4933 16.4866 12.0361C18.863 11.8958 20.2214 12.2836 21.304 13.5926C22.2516 14.7373 22.4881 16.6619 21.1469 18.003C20.5475 18.6025 19.7673 18.9205 18.9603 18.961C18.9199 19.7679 18.6022 20.5477 18.0028 21.1472C16.6616 22.4883 14.7371 22.2518 13.5924 21.3043Z" fill="#161823"/>
<path d="M8.98999 12C8.98999 13.6569 10.3331 15 11.99 15C13.6468 15 14.99 13.6569 14.99 12C14.99 10.3431 13.6468 9 11.99 9C10.3331 9 8.98999 10.3431 8.98999 12Z" fill="#161823"/>
</svg>
