<svg width="20" height="20" viewBox="0 0 20 20" fill="none" xmlns="http://www.w3.org/2000/svg">
<path d="M14 5.25C14.4142 5.25 14.75 5.58579 14.75 6V13.5C14.75 13.9142 14.4142 14.25 14 14.25C13.5858 14.25 13.25 13.9142 13.25 13.5V6C13.25 5.58579 13.5858 5.25 14 5.25Z" fill="#161823"/>
<path fill-rule="evenodd" clip-rule="evenodd" d="M9.17141 5.91923C8.8196 5.03864 7.5731 5.03864 7.22129 5.91923L4.30373 13.2219C4.15005 13.6066 4.33729 14.043 4.72195 14.1966C5.1066 14.3503 5.543 14.1631 5.69667 13.7784L6.30724 12.2502H10.0855L10.696 13.7784C10.8497 14.1631 11.2861 14.3503 11.6708 14.1966C12.0554 14.043 12.2427 13.6066 12.089 13.2219L9.17141 5.91923ZM9.48619 10.7502L8.19635 7.52171L6.90652 10.7502H9.48619Z" fill="#161823"/>
<path fill-rule="evenodd" clip-rule="evenodd" d="M5.75 2.00049C3.67893 2.00049 2 3.67942 2 5.75049V14.2505C2 16.3216 3.67893 18.0005 5.75 18.0005H14.25C16.3211 18.0005 18 16.3216 18 14.2505V5.75049C18 3.67942 16.3211 2.00049 14.25 2.00049H5.75ZM3.5 5.75049C3.5 4.50785 4.50736 3.50049 5.75 3.50049H14.25C15.4926 3.50049 16.5 4.50785 16.5 5.75049V14.2505C16.5 15.4931 15.4926 16.5005 14.25 16.5005H5.75C4.50736 16.5005 3.5 15.4931 3.5 14.2505V5.75049Z" fill="#161823"/>
</svg>
