<svg width="24" height="24" viewBox="0 0 24 24" fill="none" xmlns="http://www.w3.org/2000/svg">
<path d="M12.52 10.5654C11.5695 11.2857 11.5695 12.7144 12.52 13.4347L19.6167 18.8123C20.8021 19.7106 22.5038 18.865 22.5038 17.3776V6.62241C22.5038 5.13502 20.8021 4.28946 19.6166 5.18778L12.52 10.5654Z" fill="#161823"/>
<path d="M1.50842 13.1341C0.884647 12.3683 0.988607 11.1956 1.8203 10.5654L8.91694 5.18778C9.06513 5.07549 9.22137 4.99045 9.38136 4.9305C10.5012 4.51088 11.8041 5.32094 11.8041 6.62241V17.3776C11.8041 18.865 10.1024 19.7106 8.91695 18.8122L1.82031 13.4347C1.70149 13.3446 1.59753 13.2435 1.50842 13.1341Z" fill="#161823"/>
</svg>
