<svg width="24" height="24" viewBox="0 0 24 24" fill="none" xmlns="http://www.w3.org/2000/svg">
<path d="M22.0499 8.24995C22.0499 11.3749 20.3594 13.9843 18.1249 14.4694V21.3077C18.1249 21.7219 17.7891 22.0577 17.3749 22.0577C16.9607 22.0577 16.6249 21.7219 16.6249 21.3077V14.4694C14.3903 13.9843 12.6999 11.3749 12.6999 8.24995C12.6999 6.51444 13.2204 4.94127 14.0643 3.80079C14.9083 2.66033 16.0782 1.94995 17.3749 1.94995C18.6716 1.94995 19.8415 2.66033 20.6854 3.80079C21.5294 4.94127 22.0499 6.51444 22.0499 8.24995ZM20.5499 8.24995C20.5499 6.80296 20.1139 5.55016 19.4797 4.69306C18.8453 3.83581 18.085 3.44995 17.3749 3.44995C16.6648 3.44995 15.9045 3.83581 15.2701 4.69306C14.6358 5.55016 14.1999 6.80296 14.1999 8.24995C14.1999 9.69694 14.6358 10.9497 15.2701 11.8068C15.9045 12.6641 16.6648 13.05 17.3749 13.05C18.085 13.05 18.8453 12.6641 19.4797 11.8068C20.1139 10.9497 20.5499 9.69694 20.5499 8.24995ZM18.0749 21.3077V14.4289C18.0749 14.4289 18.0749 14.4289 18.0749 14.4289V21.3077Z" fill="#161823"/>
<path d="M3.49902 3.00122C3.49902 2.58701 3.16324 2.25122 2.74902 2.25122C2.33481 2.25122 1.99902 2.58701 1.99902 3.00122V10.75C1.99902 12.683 3.56603 14.25 5.49902 14.25H5.74902L5.74902 21.3081C5.74902 21.7223 6.08481 22.0581 6.49902 22.0581C6.91324 22.0581 7.24902 21.7223 7.24902 21.3081L7.24902 14.25H7.49902C9.43202 14.25 10.999 12.6829 10.999 10.75V3.00122C10.999 2.58701 10.6632 2.25122 10.249 2.25122C9.83481 2.25122 9.49902 2.58701 9.49902 3.00122V10.75C9.49902 11.8545 8.60359 12.75 7.49902 12.75H5.49902C4.39445 12.75 3.49902 11.8545 3.49902 10.75V3.00122Z" fill="#161823"/>
<path d="M7.24902 3.00122C7.24902 2.58701 6.91324 2.25122 6.49902 2.25122C6.08481 2.25122 5.74902 2.58701 5.74902 3.00122V11.0012C5.74902 11.4154 6.08481 11.7512 6.49902 11.7512C6.91324 11.7512 7.24902 11.4154 7.24902 11.0012V3.00122Z" fill="#161823"/>
</svg>
