<svg width="24" height="24" viewBox="0 0 24 24" fill="none" xmlns="http://www.w3.org/2000/svg">
<path d="M16.9995 8.5C17.8279 8.5 18.4995 7.82843 18.4995 7C18.4995 6.17157 17.8279 5.5 16.9995 5.5C16.1711 5.5 15.4995 6.17157 15.4995 7C15.4995 7.82843 16.1711 8.5 16.9995 8.5Z" fill="#161823"/>
<path d="M15.7497 2.00439C12.2979 2.00439 9.49968 4.80261 9.49968 8.25439C9.49968 8.96042 9.61703 9.64027 9.83365 10.2747L2.21967 17.8886C2.07884 18.0294 1.99981 18.2205 2 18.4197L2.00278 21.2508C2.00318 21.6648 2.33885 22.0001 2.75278 22.0001L5.54952 22.0001C5.74518 22.0001 5.9331 21.9236 6.07317 21.787L7.13632 20.7501H9.24951C9.66373 20.7501 9.99951 20.4143 9.99951 20.0001V18.2501H11.7495C12.1637 18.2501 12.4995 17.9143 12.4995 17.5001V15.3181L13.6976 14.1595C14.3411 14.3831 15.0319 14.5044 15.7497 14.5044C19.2015 14.5044 21.9997 11.7062 21.9997 8.25439C21.9997 4.80261 19.2015 2.00439 15.7497 2.00439ZM10.9997 8.25439C10.9997 5.63104 13.1263 3.50439 15.7497 3.50439C18.373 3.50439 20.4997 5.63104 20.4997 8.25439C20.4997 10.8777 18.373 13.0044 15.7497 13.0044C15.0638 13.0044 14.4138 12.8595 13.827 12.5994C13.5477 12.4756 13.2212 12.5335 13.0016 12.7459L11.2281 14.461C11.082 14.6023 10.9995 14.7968 10.9995 15.0001V16.7501H9.24951C8.8353 16.7501 8.49951 17.0859 8.49951 17.5001V19.2501H6.83114C6.63547 19.2501 6.44755 19.3266 6.30747 19.4632L5.24433 20.5001L3.50204 20.5001L3.50031 18.7293L11.2399 10.9898C11.4583 10.7714 11.5205 10.4414 11.3965 10.1585C11.1415 9.57655 10.9997 8.93303 10.9997 8.25439Z" fill="#161823"/>
</svg>
