<svg width="16" height="16" viewBox="0 0 16 16" fill="none" xmlns="http://www.w3.org/2000/svg">
<path d="M3.66687 10.6C3.66687 10.2686 3.9355 10 4.26687 10H6.56687C6.89824 10 7.16687 10.2686 7.16687 10.6C7.16687 10.9314 6.89824 11.2 6.56687 11.2H4.26687C3.9355 11.2 3.66687 10.9314 3.66687 10.6Z" fill="#161823"/>
<path fill-rule="evenodd" clip-rule="evenodd" d="M12.5384 3.20828C12.1057 2.57729 11.39 2.2002 10.6253 2.2002H5.37511C4.61035 2.2002 3.89471 2.57729 3.46198 3.20828L1.60738 5.71257C1.34215 6.09931 1.2002 6.55737 1.2002 7.02642V11.4783C1.2002 11.5083 1.20077 11.5382 1.2019 11.568C1.20393 11.6216 1.20778 11.6747 1.21338 11.7273C1.32091 12.7366 2.07482 13.5527 3.05288 13.753C3.20393 13.784 3.36032 13.8002 3.52051 13.8002H12.4799C13.7614 13.8002 14.8002 12.7606 14.8002 11.4783V7.02642C14.8002 6.55737 14.6582 6.09931 14.393 5.71257L12.5384 3.20828ZM2.46582 11.4783V7.2773C2.46582 7.16072 2.56026 7.06621 2.67676 7.06621H5.38847C5.67047 8.18228 6.81395 9.00819 8.01686 9.00819C9.21978 9.00819 10.2299 8.18228 10.5119 7.06621H13.3236C13.4399 7.06621 13.5343 7.16099 13.5346 7.2773L13.5346 11.4783C13.5346 12.0612 13.0624 12.5337 12.4799 12.5337H3.52051C3.4477 12.5337 3.37661 12.5263 3.30795 12.5122C2.82735 12.4138 2.46582 11.9883 2.46582 11.4783ZM9.95749 5.79971H12.9178L11.4949 3.92492C11.2982 3.63811 10.9729 3.4667 10.6253 3.4667H5.37511C5.02749 3.4667 4.7022 3.63811 4.50551 3.92492L3.08262 5.79971H6.07624C6.42573 5.79971 6.70905 6.08323 6.70905 6.43296C6.70905 7.15575 7.29458 7.74168 8.01686 7.74168C8.73915 7.74168 9.32467 7.15575 9.32467 6.43296C9.32467 6.08323 9.60799 5.79971 9.95749 5.79971Z" fill="#161823"/>
</svg>
