<svg width="12" height="12" viewBox="0 0 12 12" fill="none" xmlns="http://www.w3.org/2000/svg">
<path fill-rule="evenodd" clip-rule="evenodd" d="M5.84713 1.87219C5.91036 1.54691 5.69792 1.23196 5.37264 1.16873C5.04736 1.1055 4.73241 1.31794 4.66918 1.64322L4.32122 3.43332H3.13424C2.80287 3.43332 2.53424 3.70195 2.53424 4.03332C2.53424 4.36469 2.80287 4.63332 3.13425 4.63332H4.08796L3.5437 7.43332H2.36758C2.03621 7.43332 1.76758 7.70195 1.76758 8.03332C1.76758 8.36469 2.03621 8.63332 2.36758 8.63332H3.31044L3.0155 10.1507C2.95227 10.4759 3.16471 10.7909 3.48999 10.8541C3.81527 10.9173 4.13023 10.7049 4.19345 10.3796L4.5329 8.63332H6.54367L6.24873 10.1507C6.1855 10.4759 6.39794 10.7909 6.72322 10.8541C7.0485 10.9173 7.36345 10.7049 7.42668 10.3796L7.76613 8.63332H8.83425C9.16562 8.63332 9.43425 8.36469 9.43425 8.03332C9.43425 7.70195 9.16562 7.43332 8.83425 7.43332H7.99939L8.54365 4.63332H9.60091C9.93228 4.63332 10.2009 4.36469 10.2009 4.03332C10.2009 3.70195 9.93228 3.43332 9.60091 3.43332H8.77691L9.08036 1.87219C9.14359 1.54691 8.93115 1.23196 8.60587 1.16873C8.28059 1.1055 7.96564 1.31794 7.90241 1.64322L7.55445 3.43332H5.54368L5.84713 1.87219ZM6.77693 7.43332L7.32119 4.63332H5.31042L4.76616 7.43332H6.77693Z" fill="#161823"/>
</svg>
