<svg width="24" height="24" viewBox="0 0 24 24" fill="none" xmlns="http://www.w3.org/2000/svg">
<path d="M4 5.75C4 3.67893 5.67893 2 7.75 2H16.25C18.3211 2 20 3.67893 20 5.75V18.25C20 20.3211 18.3211 22 16.25 22H7.75C5.67893 22 4 20.3211 4 18.25V5.75ZM15.5303 12.4697L13.0607 10L15.5303 7.53033C15.8232 7.23744 15.8232 6.76256 15.5303 6.46967C15.2374 6.17678 14.7626 6.17678 14.4697 6.46967L12 8.93934L9.53033 6.46967C9.23744 6.17678 8.76256 6.17678 8.46967 6.46967C8.17678 6.76256 8.17678 7.23744 8.46967 7.53033L10.9393 10L8.46967 12.4697C8.17678 12.7626 8.17678 13.2374 8.46967 13.5303C8.76256 13.8232 9.23744 13.8232 9.53033 13.5303L12 11.0607L14.4697 13.5303C14.7626 13.8232 15.2374 13.8232 15.5303 13.5303C15.8232 13.2374 15.8232 12.7626 15.5303 12.4697ZM7.75 17.25C7.75 17.6642 8.08579 18 8.5 18H15.5C15.9142 18 16.25 17.6642 16.25 17.25C16.25 16.8358 15.9142 16.5 15.5 16.5H8.5C8.08579 16.5 7.75 16.8358 7.75 17.25Z" fill="#161823"/>
</svg>
