<svg width="20" height="20" viewBox="0 0 20 20" fill="none" xmlns="http://www.w3.org/2000/svg">
<path d="M3.44719 3.42591C3.33301 3.70157 3.33301 4.05103 3.33301 4.74994V15.2499C3.33301 15.9489 3.33301 16.2983 3.44719 16.574C3.59943 16.9415 3.89144 17.2335 4.25898 17.3858C4.53464 17.4999 4.8841 17.4999 5.58301 17.4999C6.28192 17.4999 6.63138 17.4999 6.90703 17.3858C7.27457 17.2335 7.56659 16.9415 7.71883 16.574C7.83301 16.2983 7.83301 15.9489 7.83301 15.2499V4.74994C7.83301 4.05103 7.83301 3.70157 7.71883 3.42591C7.56659 3.05837 7.27457 2.76636 6.90703 2.61412C6.63138 2.49994 6.28192 2.49994 5.58301 2.49994C4.8841 2.49994 4.53464 2.49994 4.25898 2.61412C3.89144 2.76636 3.59943 3.05837 3.44719 3.42591Z" fill="#161823"/>
<path d="M12.2839 3.42591C12.1697 3.70157 12.1697 4.05103 12.1697 4.74994V15.2499C12.1697 15.9489 12.1697 16.2983 12.2839 16.574C12.4361 16.9415 12.7281 17.2335 13.0957 17.3858C13.3713 17.4999 13.7208 17.4999 14.4197 17.4999C15.1186 17.4999 15.468 17.4999 15.7437 17.3858C16.1112 17.2335 16.4033 16.9415 16.5555 16.574C16.6697 16.2983 16.6697 15.9489 16.6697 15.2499V4.74994C16.6697 4.05103 16.6697 3.70157 16.5555 3.42591C16.4033 3.05837 16.1112 2.76636 15.7437 2.61412C15.468 2.49994 15.1186 2.49994 14.4197 2.49994C13.7208 2.49994 13.3713 2.49994 13.0957 2.61412C12.7281 2.76636 12.4361 3.05837 12.2839 3.42591Z" fill="#161823"/>
</svg>
