<svg width="12" height="12" viewBox="0 0 12 12" fill="none" xmlns="http://www.w3.org/2000/svg">
<path d="M6.26192 10.0694C5.94743 9.79987 5.911 9.3264 6.18057 9.0119L8.76221 6L6.18057 2.98809C5.911 2.6736 5.94743 2.20012 6.26192 1.93056C6.57642 1.66099 7.04989 1.69741 7.31946 2.01191L10.3195 5.5119C10.5602 5.79277 10.5602 6.20722 10.3195 6.48809L7.31946 9.98809C7.04989 10.3026 6.57642 10.339 6.26192 10.0694Z" fill="#161823"/>
<path d="M2.26224 10.0697C1.94759 9.80032 1.91091 9.32687 2.1803 9.01222L4.75929 5.99998L2.1803 2.98778C1.91091 2.67313 1.94759 2.19968 2.26224 1.93029C2.57688 1.66089 3.05034 1.69758 3.31973 2.01222L6.31634 5.5122C6.55672 5.79296 6.55672 6.20699 6.31634 6.48775L3.31973 9.98777C3.05034 10.3024 2.57689 10.3391 2.26224 10.0697Z" fill="#161823"/>
</svg>
