<svg width="20" height="20" viewBox="0 0 20 20" fill="none" xmlns="http://www.w3.org/2000/svg">
<path fill-rule="evenodd" clip-rule="evenodd" d="M9.60635 2.13572C9.8543 2.01205 10.1457 2.01205 10.3936 2.13572L17.5057 5.68293C18.1596 6.00908 18.1596 6.94473 17.5057 7.27087L10.3936 10.8181C10.1457 10.9417 9.8543 10.9417 9.60635 10.8181L2.49434 7.27087C1.84043 6.94473 1.84043 6.00907 2.49434 5.68293L9.60635 2.13572ZM3.70309 6.4769L10 3.33624L16.2969 6.4769L10 9.61757L3.70309 6.4769Z" fill="#161823"/>
<path d="M10.2568 16.2474C10.3654 16.1931 10.4967 16.2474 10.5402 16.3608C10.666 16.6891 10.8215 17.0028 11.0034 17.2984C11.0666 17.4011 11.0309 17.5374 10.923 17.5913L10.3353 17.885C10.124 17.9906 9.87533 17.9905 9.66414 17.8847L2.46765 14.2803C2.09729 14.0948 1.94743 13.6442 2.13293 13.2738C2.31843 12.9034 2.76903 12.7536 3.13939 12.9391L10.0004 16.3755L10.2568 16.2474Z" fill="#161823"/>
<path d="M10.3888 12.6386C10.4046 12.6307 10.4222 12.6457 10.417 12.6626C10.2543 13.1907 10.1667 13.7518 10.1667 14.3333C10.1667 14.3736 10.1391 14.4094 10.0991 14.4147C9.95189 14.4343 9.80023 14.41 9.66414 14.3419L2.46765 10.7374C2.09729 10.5519 1.94743 10.1013 2.13293 9.73094C2.31843 9.36059 2.76903 9.21073 3.13939 9.39622L10.0004 12.8326L10.3888 12.6386Z" fill="#161823"/>
<path d="M13.6833 14.3169C13.6833 13.9947 13.9445 13.7335 14.2666 13.7335H15.2666V12.7335C15.2666 12.4113 15.5278 12.1501 15.85 12.1501C16.1721 12.1501 16.4333 12.4113 16.4333 12.7335V13.7335H17.4333C17.7555 13.7335 18.0166 13.9947 18.0166 14.3169C18.0166 14.639 17.7555 14.9002 17.4333 14.9002H16.4333V15.9001C16.4333 16.2223 16.1721 16.4835 15.85 16.4835C15.5278 16.4835 15.2666 16.2223 15.2666 15.9001V14.9002H14.2666C13.9445 14.9002 13.6833 14.639 13.6833 14.3169Z" fill="#161823"/>
<path fill-rule="evenodd" clip-rule="evenodd" d="M15.8333 18.5001C18.1345 18.5001 20 16.6346 20 14.3334C20 12.0322 18.1345 10.1667 15.8333 10.1667C13.5321 10.1667 11.6667 12.0322 11.6667 14.3334C11.6667 16.6346 13.5321 18.5001 15.8333 18.5001ZM15.8333 17.3001C17.4718 17.3001 18.8 15.9719 18.8 14.3334C18.8 12.695 17.4718 11.3667 15.8333 11.3667C14.1949 11.3667 12.8667 12.695 12.8667 14.3334C12.8667 15.9719 14.1949 17.3001 15.8333 17.3001Z" fill="#161823"/>
</svg>
