<svg width="12" height="12" viewBox="0 0 12 12" fill="none" xmlns="http://www.w3.org/2000/svg">
<g clip-path="url(#clip0_7_1534)">
<path d="M6 12C9.31371 12 12 9.31371 12 6C12 2.68629 9.31371 0 6 0C2.68629 0 0 2.68629 0 6C0 9.31371 2.68629 12 6 12ZM4.20782 6.04894L5.27729 7.08565L7.74649 3.58857C8.00133 3.22764 8.5005 3.14164 8.86143 3.39649C9.22236 3.65133 9.30836 4.1505 9.05352 4.51143L6.04516 8.77211C5.91033 8.96307 5.69874 9.0855 5.466 9.10722C5.23326 9.12895 5.00266 9.04779 4.83482 8.8851L3.09418 7.19776C2.77694 6.89024 2.76906 6.38377 3.07658 6.06653C3.38411 5.74929 3.89058 5.74141 4.20782 6.04894Z" fill="#161823"/>
</g>
<defs>
<clipPath id="clip0_7_1534">
<rect width="12" height="12" fill="white"/>
</clipPath>
</defs>
</svg>
