<svg width="16" height="16" viewBox="0 0 16 16" fill="none" xmlns="http://www.w3.org/2000/svg">
<path d="M13.8491 2.60034C14.7758 2.60019 15.3529 3.60572 14.8854 4.40578L13.4283 6.89934C12.6053 6.51579 11.6409 6.55354 10.8458 7.01258L8.85264 8.16336C7.98631 8.66353 7.45264 9.58788 7.45264 10.5882V12.8898C7.45264 13.6971 7.80022 14.4549 8.38973 14.9802C7.79101 15.1957 7.05253 14.9145 6.83138 14.2106L5.63391 10.3991C5.55121 10.136 5.63417 9.84902 5.84447 9.67065L9.92521 6.20943C9.97239 6.16942 9.97712 6.14204 9.97866 6.12981C9.98135 6.10842 9.97712 6.07332 9.95459 6.03515C9.93206 5.99699 9.90336 5.97632 9.88334 5.96836C9.87189 5.9638 9.84564 5.95471 9.78781 5.97669L4.81756 7.86578C4.55423 7.96587 4.25647 7.89468 4.06688 7.6863L1.36396 4.59166C0.686141 3.81561 1.23717 2.60244 2.26756 2.60227L13.8491 2.60034Z" fill="#161823"/>
<path d="M13.3731 11.739C13.3731 12.3603 12.8694 12.864 12.2481 12.864C11.6268 12.864 11.1231 12.3603 11.1231 11.739C11.1231 11.1177 11.6268 10.614 12.2481 10.614C12.8694 10.614 13.3731 11.1177 13.3731 11.739Z" fill="#161823"/>
<path d="M11.4459 8.05176C11.941 7.76595 12.5509 7.76595 13.0459 8.05176L15.0391 9.20254C15.5342 9.48835 15.8391 10.0166 15.8391 10.5882V12.8897C15.8391 13.4614 15.5342 13.9896 15.0391 14.2754L13.0459 15.4261C12.5509 15.712 11.941 15.712 11.4459 15.4261L9.45271 14.2754C8.95767 13.9896 8.65271 13.4614 8.65271 12.8897V10.5882C8.65271 10.0166 8.95767 9.48835 9.45271 9.20254L11.4459 8.05176ZM12.4459 9.09099C12.3222 9.01954 12.1697 9.01954 12.0459 9.09099L10.0527 10.2418C9.92895 10.3132 9.85271 10.4453 9.85271 10.5882V12.8897C9.85271 13.0326 9.92895 13.1647 10.0527 13.2361L12.0459 14.3869C12.1697 14.4584 12.3222 14.4584 12.4459 14.3869L14.4391 13.2361C14.5629 13.1647 14.6391 13.0326 14.6391 12.8897V10.5882C14.6391 10.4453 14.5629 10.3132 14.4391 10.2418L12.4459 9.09099Z" fill="#161823"/>
</svg>
