<svg width="20" height="20" viewBox="0 0 20 20" fill="none" xmlns="http://www.w3.org/2000/svg">
<path d="M14.78 13.7188V6.16634C14.78 5.6403 14.3536 5.21387 13.8275 5.21387H9.57135C9.15714 5.21387 8.82135 4.87808 8.82135 4.46387C8.82135 4.04965 9.15714 3.71387 9.57135 3.71387H13.8275C15.182 3.71387 16.28 4.81188 16.28 6.16634V13.7189L17.5534 12.4454C17.8463 12.1525 18.3212 12.1525 18.6141 12.4454C18.907 12.7383 18.907 13.2132 18.6141 13.5061L16.1808 15.9394C15.8214 16.2988 15.2387 16.2988 14.8793 15.9394L12.446 13.5061C12.1531 13.2132 12.1531 12.7383 12.446 12.4454C12.7389 12.1525 13.2138 12.1525 13.5067 12.4454L14.78 13.7188Z" fill="#161823"/>
<path d="M6.48724 7.54693L5.21387 6.27355V13.8264C5.21387 14.3524 5.64031 14.7789 6.16634 14.7789H10.4225C10.8367 14.7789 11.1725 15.1147 11.1725 15.5289C11.1725 15.9431 10.8367 16.2789 10.4225 16.2789H6.16634C4.81188 16.2789 3.71387 15.1809 3.71387 13.8264V6.27355L2.44049 7.54693C2.14759 7.83982 1.67272 7.83982 1.37983 7.54693C1.08693 7.25404 1.08693 6.77916 1.37983 6.48627L3.81315 4.05294C4.17253 3.69357 4.7552 3.69356 5.11458 4.05294L7.5479 6.48627C7.8408 6.77916 7.8408 7.25404 7.5479 7.54693C7.25501 7.83982 6.78014 7.83982 6.48724 7.54693Z" fill="#161823"/>
</svg>
