<svg width="20" height="20" viewBox="0 0 20 20" fill="none" xmlns="http://www.w3.org/2000/svg">
<path d="M4.62841 5.69041L4.62875 5.68941L1.96967 3.03033C1.67678 2.73744 1.67678 2.26256 1.96967 1.96967C2.26256 1.67678 2.73744 1.67678 3.03033 1.96967L5.33822 4.27756C5.97869 3.35298 6.88726 2.62832 7.95149 2.21544C8.34753 1.4912 9.11645 1 10.0001 1C10.8837 1 11.6527 1.49119 12.0487 2.21544C14.1657 3.03676 15.6668 5.09179 15.6668 7.5V9.16176C15.6668 9.97299 15.8947 10.7679 16.3247 11.4558L17.3229 13.0529C17.8982 13.9735 17.4726 15.1154 16.5785 15.5179L18.0303 16.9697C18.3232 17.2626 18.3232 17.7374 18.0303 18.0303C17.7374 18.3232 17.2626 18.3232 16.9697 18.0303L14.606 15.6667H14.6047L13.1047 14.1667H13.106L5.87176 6.93243L5.87161 6.9336L4.62841 5.69041ZM15.2273 14.1667H15.8742C16.0378 14.1667 16.1376 13.9867 16.0509 13.8479L15.0527 12.2508C14.4737 11.3245 14.1668 10.2541 14.1668 9.16176V7.5C14.1668 5.4842 12.7353 3.80274 10.8334 3.41668V3.33333C10.8334 2.8731 10.4603 2.5 10.0001 2.5C9.53986 2.5 9.16676 2.8731 9.16676 3.33333V3.41668C8.00224 3.65307 7.01407 4.37513 6.4229 5.36224L15.2273 14.1667Z" fill="#161823"/>
<path d="M4.33343 7.51674V9.16176C4.33343 9.973 4.10546 10.7679 3.6755 11.4558L2.67732 13.0529C1.96617 14.1908 2.78421 15.6667 4.12598 15.6667H6.75947C6.88712 17.3448 8.28919 18.6667 10 18.6667C11.4854 18.6667 12.7381 17.6702 13.1259 16.3092L10.9834 14.1667H4.12598C3.96235 14.1667 3.86259 13.9867 3.94932 13.8479L4.9475 12.2508C5.52645 11.3245 5.83343 10.2541 5.83343 9.16176V9.01674L4.33343 7.51674ZM10 17.1667C9.11837 17.1667 8.38902 16.5148 8.26772 15.6667H11.7323C11.611 16.5148 10.8816 17.1667 10 17.1667Z" fill="#161823"/>
</svg>
