<svg width="24" height="24" viewBox="0 0 24 24" fill="none" xmlns="http://www.w3.org/2000/svg">
<path d="M13.2974 18.4145C12.8761 18.4707 12.4431 18.5 12 18.5C7.15301 18.5 3.5 14.9974 3.5 11C3.5 7.00261 7.15301 3.5 12 3.5C16.847 3.5 20.5 7.00261 20.5 11C20.5 11.3233 20.4761 11.6434 20.4296 11.9587C20.6336 12.027 20.8323 12.1161 21.0227 12.226L21.8242 12.6888C21.9396 12.1418 22 11.5772 22 11C22 6.02944 17.5228 2 12 2C6.47715 2 2 6.02944 2 11C2 15.9706 6.47715 20 12 20C12.4397 20 12.8727 19.9745 13.2974 19.925V18.4145Z" fill="#161823"/>
<path d="M7.14231 12.4185C7.93166 12.4185 8.57153 11.7833 8.57153 10.9992C8.57153 10.2167 7.93166 9.58142 7.14231 9.58142C6.35429 9.58142 5.71439 10.2167 5.71439 10.9992C5.71439 11.7833 6.35429 12.4185 7.14231 12.4185Z" fill="#161823"/>
<path d="M12.0001 12.4185C12.7891 12.4185 13.4287 11.7833 13.4287 10.9992C13.4287 10.2167 12.7891 9.58142 12.0001 9.58142C11.2112 9.58142 10.5716 10.2167 10.5716 10.9992C10.5716 11.7833 11.2113 12.4185 12.0001 12.4185Z" fill="#161823"/>
<path d="M16.8575 12.4185C17.6467 12.4185 18.2856 11.7833 18.2856 10.9992C18.2856 10.2167 17.6467 9.58142 16.8575 9.58142C16.0683 9.58142 15.4285 10.2167 15.4285 10.9992C15.4284 11.7833 16.0682 12.4185 16.8575 12.4185Z" fill="#161823"/>
<path d="M20.8378 18.3272C20.8378 19.1225 20.1931 19.7672 19.3978 19.7672C18.6025 19.7672 17.9578 19.1225 17.9578 18.3272C17.9578 17.5319 18.6025 16.8872 19.3978 16.8872C20.1931 16.8872 20.8378 17.5319 20.8378 18.3272Z" fill="#161823"/>
<path fill-rule="evenodd" clip-rule="evenodd" d="M18.5228 13.525C19.0642 13.2124 19.7313 13.2124 20.2728 13.525L23.1231 15.1707C23.6646 15.4833 23.9981 16.061 23.9981 16.6862V19.9776C23.9981 20.6028 23.6646 21.1805 23.1231 21.4931L20.2728 23.1388C19.7313 23.4514 19.0642 23.4514 18.5228 23.1388L15.6724 21.4931C15.1309 21.1805 14.7974 20.6028 14.7974 19.9776V16.6862C14.7974 16.061 15.1309 15.4833 15.6724 15.1707L18.5228 13.525ZM19.5228 14.824C19.4454 14.7794 19.3501 14.7794 19.2728 14.824L16.4224 16.4697C16.345 16.5144 16.2974 16.5969 16.2974 16.6862V19.9776C16.2974 20.0669 16.345 20.1494 16.4224 20.1941L19.2728 21.8397C19.3501 21.8844 19.4454 21.8844 19.5228 21.8397L22.3731 20.1941C22.4505 20.1494 22.4981 20.0669 22.4981 19.9776V16.6862C22.4981 16.5969 22.4505 16.5144 22.3731 16.4697L19.5228 14.824Z" fill="#161823"/>
</svg>
