<svg width="20" height="20" viewBox="0 0 20 20" fill="none" xmlns="http://www.w3.org/2000/svg">
<path d="M10.0741 1.34737C9.82467 1.12732 9.4323 1.3044 9.4323 1.63698V3.26441C7.92757 3.37471 6.48312 3.92226 5.2796 4.8457C3.92558 5.88462 2.95219 7.34127 2.51038 8.98976C2.06858 10.6383 2.18305 12.3865 2.83604 13.9633C3.48903 15.5401 4.64405 16.8574 6.12198 17.7109C7.59991 18.5643 9.31815 18.9063 11.0103 18.6838C12.7023 18.4612 14.2737 17.6866 15.4807 16.48C16.6877 15.2734 17.4628 13.7022 17.6859 12.0102C17.909 10.3182 17.5675 8.59984 16.7145 7.12164C16.5311 6.80375 16.1247 6.69476 15.8068 6.87821C15.4889 7.06166 15.3799 7.46807 15.5633 7.78596C16.2701 9.01075 16.553 10.4345 16.3682 11.8365C16.1834 13.2385 15.5411 14.5403 14.541 15.54C13.541 16.5398 12.239 17.1816 10.8369 17.366C9.43492 17.5504 8.01122 17.2671 6.78665 16.5599C5.56209 15.8527 4.60507 14.7612 4.06402 13.4547C3.52297 12.1482 3.42813 10.6997 3.79419 9.33383C4.16026 7.96794 4.96678 6.76099 6.08868 5.90018C7.05994 5.15494 8.22059 4.70518 9.4323 4.59783V6.17949C9.4323 6.51208 9.82467 6.68914 10.0741 6.4691L12.5387 4.29438C12.7711 4.08937 12.7711 3.7271 12.5387 3.52209L10.0741 1.34737Z" fill="#161823"/>
<path d="M9.83786 14.4894C8.66536 14.4894 7.83467 13.8274 7.83467 13.1655C7.83467 12.8756 8.02071 12.6463 8.31059 12.6463C8.4923 12.6463 8.63075 12.7242 8.77353 12.9275C9.0461 13.3342 9.39222 13.5376 9.83353 13.5376C10.4868 13.5376 10.9498 13.0833 10.9498 12.43C10.9498 11.7983 10.5041 11.3656 9.88112 11.3656C9.59124 11.3656 9.29704 11.4738 9.04177 11.6728C8.78651 11.8891 8.66104 11.9411 8.50096 11.9411C8.14618 11.9411 7.90389 11.6858 7.92985 11.2878L8.08993 9.06391C8.12022 8.65289 8.36683 8.45387 8.84275 8.45387H11.2916C11.6377 8.45387 11.841 8.63126 11.841 8.93412C11.841 9.23697 11.642 9.40571 11.2916 9.40571H9.05475L8.93361 10.933H8.99418C9.19753 10.6561 9.67777 10.4657 10.184 10.4657C11.3089 10.4657 12.0833 11.2445 12.0833 12.3867C12.0833 13.6457 11.1791 14.4894 9.83786 14.4894Z" fill="#161823"/>
</svg>
