<svg width="20" height="20" viewBox="0 0 20 20" fill="none" xmlns="http://www.w3.org/2000/svg">
<path fill-rule="evenodd" clip-rule="evenodd" d="M15.2518 2.91651C16.388 2.39874 17.5578 3.56852 17.04 4.70477L15.219 8.70108L18.1858 11.9391C19.0294 12.8597 18.2783 14.3337 17.0377 14.1924L12.6742 13.6954L10.5115 17.5176C9.89664 18.6044 8.26269 18.3456 8.0137 17.122L7.31732 13.6998L2.91021 18.1069C2.61732 18.3998 2.14245 18.3998 1.84955 18.1069C1.55666 17.814 1.55666 17.3392 1.84955 17.0463L6.25663 12.6392L2.83452 11.9428C1.61094 11.6939 1.35214 10.0599 2.4389 9.44499L6.26114 7.2823L5.76414 2.91884C5.62283 1.67821 7.09684 0.92716 8.01748 1.77071L11.2555 4.73757L15.2518 2.91651Z" fill="#161823"/>
</svg>
