<svg width="24" height="24" viewBox="0 0 24 24" fill="none" xmlns="http://www.w3.org/2000/svg">
<path d="M16.2997 4C16.8695 4.14756 17.2561 4.34233 17.4597 4.58413C17.6632 4.82628 17.8215 5.35998 17.9348 6.18524L21.4998 4.2036V7.23498L13.1502 11.9999L21.5 16.6076V19.5661L18.0561 17.9204C17.9247 18.5906 17.7621 19.0506 17.5678 19.3004C17.3737 19.5504 16.998 19.7835 16.4405 20H4.22655C3.76447 19.8852 3.42495 19.7407 3.20814 19.5661C2.99132 19.3916 2.75528 19.0729 2.5 18.61V14.8391L7.52324 11.9999L2.5 9.25109V5.42943C2.82268 4.88843 3.09448 4.53336 3.31479 4.3644C3.5351 4.19545 3.88512 4.07404 4.36484 4H16.2997ZM10.3173 13.5715L4.42635 17.0325H16.4178L10.3172 13.5715H10.3173ZM16.4176 7.00201H4.4262L10.3706 10.4345L16.4176 7.00201Z" fill="#161823"/>
</svg>
