<svg width="24" height="24" viewBox="0 0 24 24" fill="none" xmlns="http://www.w3.org/2000/svg">
<path d="M14.0716 3.3847C13.459 2.84012 12.4905 3.27503 12.4905 4.09474V8.37601C9.92724 8.37591 8.45584 8.38062 7.2319 8.7509C4.43032 9.59846 2.23808 11.7907 1.39052 14.5923C1.01538 15.8323 1.01547 17.3415 1.01563 19.996L1.01564 20.1712C1.01563 20.1987 1.01562 20.2346 1.01658 20.2654L1.01662 20.2671C1.01692 20.2834 1.01889 20.391 1.05504 20.5056C1.23865 21.0874 1.95727 21.292 2.41986 20.8942C2.51033 20.8164 2.56818 20.7272 2.57756 20.7127L2.57862 20.7111C2.59561 20.6855 2.61443 20.6551 2.6286 20.6323L2.63183 20.627C3.18027 19.7422 3.4226 19.3537 3.68819 19.0218C4.87461 17.5394 6.59523 16.5816 8.4803 16.3541C8.9023 16.3032 9.36018 16.302 10.4012 16.302H12.4905V19.8947C12.4905 20.7144 13.459 21.1494 14.0716 20.6048L22.4546 13.1532C23.1483 12.5367 23.1483 11.4528 22.4546 10.8363L14.0716 3.3847Z" fill="#161823"/>
</svg>
