<svg width="24" height="24" viewBox="0 0 24 24" fill="none" xmlns="http://www.w3.org/2000/svg">
<path d="M8.55271 15.903C11.417 18.7673 14.7114 20.8577 17.3971 20.8577C18.6143 20.8577 19.6528 20.4277 20.4996 19.5016C21.0089 18.9393 21.3198 18.2976 21.3198 17.6758C21.3265 17.2061 21.1346 16.7497 20.698 16.4322L17.8271 14.3947C17.3971 14.0838 17.0267 13.9383 16.6893 13.9449C16.2593 13.9383 15.8756 14.1897 15.4589 14.6064L14.7907 15.2745C14.6849 15.3804 14.5592 15.4134 14.4269 15.4134C14.2814 15.4267 14.1491 15.3605 14.0565 15.3076C13.5008 14.9636 12.4887 14.15 11.3972 13.0585C10.3057 11.967 9.47883 10.9813 9.15469 10.3926C9.10838 10.3066 9.05546 10.1743 9.04884 10.0354C9.05546 9.90969 9.08854 9.79723 9.18776 9.68477L9.85589 9.00342C10.266 8.58005 10.5174 8.19638 10.5174 7.77301C10.5174 7.42902 10.3719 7.05858 10.061 6.6286L8.04996 3.79734C7.72582 3.34089 7.25615 3.14906 6.74679 3.14244C6.13159 3.13583 5.48992 3.43351 4.94087 3.9561C4.02799 4.82929 3.6377 5.90755 3.6377 7.09827C3.6377 9.784 5.68838 13.0386 8.55271 15.903Z" fill="#161823"/>
</svg>
