<svg width="20" height="20" viewBox="0 0 20 20" fill="none" xmlns="http://www.w3.org/2000/svg">
<path d="M7.10038 5.61562C7.45079 5.39473 7.91391 5.49973 8.13479 5.85014L10.0005 8.80982L11.8672 5.85C12.0881 5.49964 12.5513 5.39474 12.9016 5.61571C13.252 5.83667 13.3569 6.29981 13.1359 6.65017L11.36 9.46602H12.5003C12.9145 9.46602 13.2503 9.80181 13.2503 10.216C13.2503 10.6302 12.9145 10.966 12.5003 10.966H10.7503V11.821H12.5003C12.9145 11.821 13.2503 12.1567 13.2503 12.571C13.2503 12.9852 12.9145 13.321 12.5003 13.321H10.7503V14.3827C10.7503 14.7969 10.4145 15.1327 10.0003 15.1327C9.58611 15.1327 9.25032 14.7969 9.25032 14.3827V13.321H7.50032C7.08611 13.321 6.75032 12.9852 6.75032 12.571C6.75032 12.1567 7.08611 11.821 7.50032 11.821H9.25032V10.966H7.50032C7.08611 10.966 6.75032 10.6302 6.75032 10.216C6.75032 9.80181 7.08611 9.46602 7.50032 9.46602H8.64097L6.86586 6.65002C6.64498 6.29962 6.74998 5.8365 7.10038 5.61562Z" fill="#161823"/>
<path d="M10.0003 18.3334C14.6027 18.3334 18.3337 14.6025 18.3337 10.0001C18.3337 5.39771 14.6027 1.66675 10.0003 1.66675C5.39795 1.66675 1.66699 5.39771 1.66699 10.0001C1.66699 14.6025 5.39795 18.3334 10.0003 18.3334ZM10.0003 16.8334C6.22638 16.8334 3.16699 13.774 3.16699 10.0001C3.16699 6.22614 6.22638 3.16675 10.0003 3.16675C13.7743 3.16675 16.8337 6.22614 16.8337 10.0001C16.8337 13.774 13.7743 16.8334 10.0003 16.8334Z" fill="#161823"/>
</svg>
