<svg width="20" height="20" viewBox="0 0 20 20" fill="none" xmlns="http://www.w3.org/2000/svg">
<path d="M14.291 8.75195L12.4302 6.27255C11.6783 5.27072 10.224 5.14149 9.30722 5.99507L7.89398 7.31094L6.96895 8.23598C6.53646 8.66848 5.83525 8.66848 5.40275 8.23598C5.18651 8.01974 5.07838 7.73631 5.07838 7.45288C5.07838 7.16946 5.1865 6.88603 5.40275 6.66978L7.77219 4.30034C7.80649 4.26603 7.84306 4.23505 7.88146 4.20744C8.51623 3.58376 9.36351 3.23319 10.2474 3.23319H11.0221C11.9849 3.23319 12.9054 3.6386 13.5676 4.35433L15.0766 5.98532C15.3292 6.25826 15.6802 6.41287 16.0474 6.41287H18.6327V12.8027H17.9832C17.979 12.8027 17.9759 12.8065 17.9766 12.8106C18.0635 13.2607 18.0704 13.719 18.0016 14.1648C18.001 14.1688 18.0041 14.1725 18.0082 14.1725H19.1666C19.6269 14.1725 20 13.7994 20 13.3391V5.83522C20 5.37499 19.6269 5.00189 19.1666 5.00189H15.9894L14.7186 3.69568C13.6079 2.55413 12.0829 1.91016 10.4903 1.91016C9.4449 1.91016 8.42903 2.18758 7.54043 2.70061C7.23647 2.81751 6.95316 2.99806 6.71153 3.23969L4.34209 5.60912C3.32381 6.62741 3.32381 8.27836 4.34209 9.29664C5.30013 10.2547 6.81821 10.3114 7.84251 9.46667L10.2903 7.00826C10.6295 6.66765 11.1959 6.72446 11.4606 7.12563L13.3437 9.97903C13.372 10.0143 13.399 10.0515 13.4244 10.0906L13.8635 10.7667L14.7021 12.0375C14.7253 12.0727 14.7445 12.1093 14.7598 12.1469L15.2075 12.8364C15.6086 13.454 15.4331 14.2797 14.8155 14.6808L14.7373 14.7316C14.353 14.9811 13.8882 15.0082 13.4927 14.842L12.7719 14.5391L12.4992 15.2718C12.4029 15.5306 12.2265 15.7609 11.9763 15.9234L11.8976 15.9745C11.5187 16.2206 11.0614 16.2503 10.6695 16.0917L10.0903 15.8573L9.75516 16.3845C9.6669 16.5234 9.54796 16.6465 9.39882 16.7433C8.84692 17.1017 8.10898 16.9449 7.75057 16.393L6.47748 14.4326C6.47571 14.4299 6.47395 14.4271 6.47221 14.4244C6.46974 14.4205 6.4673 14.4167 6.4649 14.4128L6.45942 14.404L5.8567 13.4931C5.5635 13.0499 5.06758 12.7834 4.53624 12.7834H1.58333C1.53731 12.7834 1.5 12.7461 1.5 12.7001V6.46169C1.5 6.41567 1.53731 6.37836 1.58333 6.37836H2.35416C2.35715 6.37836 2.35977 6.37637 2.36058 6.37349C2.51042 5.841 2.77337 5.33365 3.14943 4.88938C3.1531 4.88504 3.15003 4.87836 3.14434 4.87836H1.58333C0.708883 4.87836 0 5.58724 0 6.46169V12.7001C0 13.5745 0.708883 14.2834 1.58333 14.2834H4.53624C4.5642 14.2834 4.5903 14.2975 4.60574 14.3208L5.19749 15.2151C5.20473 15.2267 5.21206 15.2381 5.21946 15.2495L6.49257 17.2099C7.30217 18.4566 8.9691 18.8109 10.2158 18.0013C10.3784 17.8957 10.5261 17.7752 10.6582 17.6426C11.3452 17.7692 12.0814 17.6437 12.7146 17.2325L12.7932 17.1814C13.1136 16.9734 13.3784 16.7109 13.5829 16.4141C14.2453 16.5155 14.9471 16.3839 15.5543 15.9896L15.6325 15.9388C16.8426 15.1529 17.254 13.5997 16.6425 12.3335L15.3419 10.3157C15.3322 10.2886 15.3207 10.2621 15.3076 10.2363L15.1364 9.97265L14.5287 9.06871L14.4503 8.96421C14.427 8.93718 14.4032 8.91067 14.379 8.88468L14.291 8.75195Z" fill="#161823"/>
</svg>
