<svg width="24" height="24" viewBox="0 0 24 24" fill="none" xmlns="http://www.w3.org/2000/svg">
<path fill-rule="evenodd" clip-rule="evenodd" d="M12.5969 1.98458C12.6753 1.57786 13.0686 1.31174 13.4754 1.39017C13.726 1.43851 13.9724 1.49893 14.2139 1.57081C16.7145 2.31501 18.6848 4.2853 19.429 6.78583C19.5008 7.02735 19.5613 7.27376 19.6096 7.52442C19.688 7.93114 19.4219 8.32444 19.0152 8.40287C18.6085 8.48131 18.2152 8.21518 18.1367 7.80846C18.0978 7.60654 18.0491 7.40812 17.9913 7.21371C17.3916 5.19869 15.8011 3.60819 13.7861 3.00849C13.5916 2.95063 13.3932 2.90197 13.1913 2.86303C12.7846 2.7846 12.5185 2.3913 12.5969 1.98458ZM10.7188 2.07571C10.837 2.47272 10.6109 2.89034 10.2139 3.00849C7.63172 3.777 5.75 6.16961 5.75 8.99977C5.75 12.4516 8.54822 15.2498 12 15.2498C14.8302 15.2498 17.2228 13.3681 17.9913 10.7858C18.1094 10.3888 18.5271 10.1628 18.9241 10.2809C19.3211 10.3991 19.5471 10.8167 19.429 11.2137C18.4764 14.4145 15.5119 16.7498 12 16.7498C7.71979 16.7498 4.25 13.28 4.25 8.99977C4.25 5.48789 6.5853 2.5234 9.78606 1.57081C10.1831 1.45266 10.6007 1.67871 10.7188 2.07571ZM7.99996 19.25C7.99996 18.8358 8.33575 18.5 8.74996 18.5H15.25C15.6642 18.5 16 18.8358 16 19.25C16 19.6642 15.6642 20 15.25 20H8.74996C8.33575 20 7.99996 19.6642 7.99996 19.25ZM10.75 21.5C10.3358 21.5 10 21.8358 10 22.25C10 22.6642 10.3358 23 10.75 23H13.25C13.6643 23 14 22.6642 14 22.25C14 21.8358 13.6643 21.5 13.25 21.5H10.75Z" fill="#161823"/>
</svg>
