<svg width="20" height="20" viewBox="0 0 20 20" fill="none" xmlns="http://www.w3.org/2000/svg">
<path d="M10.0503 0.727083C10.9049 -0.600195 12.9649 0.200632 12.6986 1.75665L11.9361 6.21284C11.9167 6.32618 11.9967 6.4325 12.111 6.44532L14.8714 6.75512C16.1885 6.90293 16.8947 8.38008 16.1828 9.49801L9.96067 19.2685C9.11051 20.6034 7.04146 19.805 7.30839 18.245L8.06278 13.8362C8.08219 13.7227 8.00204 13.6163 7.88761 13.6037L5.04219 13.2892C3.71962 13.143 3.01223 11.6571 3.73261 10.5384L10.0503 0.727083ZM11.0961 2.22816C11.1145 2.12085 10.9724 2.06562 10.9135 2.15715L4.99377 11.3505C4.8765 11.5326 4.99165 11.7745 5.20695 11.7983L9.6346 12.2876C9.74903 12.3002 9.82918 12.4066 9.80976 12.5201L8.91248 17.7641C8.89407 17.8717 9.03676 17.9268 9.09539 17.8347L14.9176 8.69228C15.0334 8.51029 14.9185 8.26982 14.7041 8.24576L10.3644 7.75873C10.2502 7.74591 10.1702 7.63959 10.1896 7.52625L11.0961 2.22816Z" fill="#161823"/>
</svg>
