<svg width="20" height="20" viewBox="0 0 20 20" fill="none" xmlns="http://www.w3.org/2000/svg">
<path d="M4.1524 7.62549C4.21408 7.60443 4.27524 7.58414 4.33557 7.56464C5.00716 7.34759 5.6661 7.8435 5.72499 8.54683C5.80001 9.44298 5.90721 10.5808 6.01609 11.2544C6.1073 11.8187 6.25811 12.6402 6.39513 13.3666C6.54724 14.173 5.89939 14.9089 5.08219 14.8339C4.73935 14.8025 4.3859 14.7666 4.07004 14.728C3.50493 14.6589 3.01036 14.4454 2.66476 14.2556C2.31739 14.0647 2.11022 13.7089 2.04191 13.3185C1.94639 12.7727 1.81525 11.9876 1.76811 11.5362C1.73827 11.2505 1.69472 10.8423 1.65243 10.4483C1.56809 9.66247 1.79871 8.88733 2.45411 8.44833C2.90635 4.7093 6.09354 1.75 10.0244 1.75C14.0219 1.75 17.2539 4.81159 17.6159 8.6462C18.0834 9.09928 18.2454 9.7698 18.1725 10.4483C18.1303 10.8423 18.0867 11.2505 18.0569 11.5362C18.0097 11.9876 17.8786 12.7727 17.7831 13.3185C17.7199 13.6794 17.5381 14.0108 17.2366 14.2095C16.9782 15.4967 16.2895 16.5145 15.1185 17.201C14.2439 17.7137 13.1326 18.0224 11.7951 18.1617C11.5292 18.5187 11.1039 18.7499 10.6246 18.7499C9.81922 18.7499 9.1663 18.097 9.1663 17.2916C9.1663 16.4862 9.81922 15.8332 10.6246 15.8332C11.1944 15.8332 11.6878 16.1599 11.9278 16.6362C12.9768 16.5014 13.7732 16.2509 14.3599 15.9069C14.864 15.6115 15.2327 15.236 15.478 14.7602C15.2393 14.7866 14.9883 14.8114 14.7428 14.8339C13.9256 14.9089 13.2777 14.173 13.4298 13.3666C13.5669 12.6402 13.7177 11.8187 13.8089 11.2544C13.9178 10.5808 14.025 9.44298 14.1 8.54683C14.1589 7.8435 14.8178 7.34759 15.4894 7.56464C15.6304 7.61021 15.7759 7.66007 15.9221 7.7141C15.2018 5.15619 12.8514 3.25 10.0244 3.25C7.22865 3.25 4.9012 5.1136 4.1524 7.62549Z" fill="#161823"/>
</svg>
