<svg width="16" height="16" viewBox="0 0 16 16" fill="none" xmlns="http://www.w3.org/2000/svg">
<path d="M0.414062 2.08325C0.414062 1.53097 0.861778 1.08325 1.41406 1.08325H2.2635C2.77801 1.08325 3.21141 1.46762 3.27289 1.97843L3.44397 3.39993H13.5443C14.1709 3.39993 14.6483 3.96129 14.5478 4.57979L14.0078 7.90007L13.8416 8.7542C13.8118 8.90756 13.684 9.02259 13.5283 9.03611L4.21966 9.84486L4.22585 9.8963C4.26112 10.1894 4.5098 10.4099 4.805 10.4099H12.9233C13.3375 10.4099 13.6733 10.7457 13.6733 11.1599C13.6733 11.5741 13.3375 11.9099 12.9233 11.9099H4.805C3.7507 11.9099 2.86258 11.1223 2.7366 10.0755L1.89503 3.08325H1.41406C0.861778 3.08325 0.414062 2.63554 0.414062 2.08325Z" fill="#161823"/>
<path d="M4.66667 12.6666C4.11439 12.6666 3.66667 13.1143 3.66667 13.6666C3.66667 14.2189 4.11439 14.6666 4.66667 14.6666C5.21896 14.6666 5.66667 14.2189 5.66667 13.6666C5.66667 13.1143 5.21896 12.6666 4.66667 12.6666Z" fill="#161823"/>
<path d="M12 12.6666C11.4477 12.6666 11 13.1143 11 13.6666C11 14.2189 11.4477 14.6666 12 14.6666C12.5523 14.6666 13 14.2189 13 13.6666C13 13.1143 12.5523 12.6666 12 12.6666Z" fill="#161823"/>
</svg>
