<svg width="24" height="24" viewBox="0 0 24 24" fill="none" xmlns="http://www.w3.org/2000/svg">
<path d="M4.30219 10.9855C2.44771 9.13101 1.80557 6.48104 2.32502 3.89829C2.45229 3.26553 2.94619 2.77162 3.57895 2.64436C6.1617 2.12491 8.81167 2.76705 10.6661 4.62153C11.7753 5.73068 12.4508 7.12439 12.7034 8.61809C12.9112 8.3381 13.1413 8.0707 13.394 7.81806C15.2485 5.96358 17.8984 5.32144 20.4812 5.8409C21.1139 5.96816 21.6078 6.46207 21.7351 7.09482C22.2546 9.67758 21.6124 12.3275 19.7579 14.182C17.9225 16.0175 15.3078 16.6653 12.7502 16.1748V20.5041H15.2505C15.6647 20.5041 16.0005 20.8399 16.0005 21.2541C16.0005 21.6683 15.6647 22.0041 15.2505 22.0041H8.74987C8.33566 22.0041 7.99987 21.6683 7.99987 21.2541C7.99987 20.8399 8.33566 20.5041 8.74987 20.5041H11.2502V13.5269C11.2429 13.3476 11.2413 13.1686 11.2453 12.9904C8.70841 13.4578 6.1222 12.8055 4.30219 10.9855Z" fill="#161823"/>
</svg>
