<svg width="16" height="16" viewBox="0 0 16 16" fill="none" xmlns="http://www.w3.org/2000/svg">
<path fill-rule="evenodd" clip-rule="evenodd" d="M8.91559 12.62C7.90271 12.7723 6.86785 12.5875 5.97028 12.0941C5.48631 11.828 4.87828 12.0046 4.61222 12.4886C4.34615 12.9726 4.5228 13.5806 5.00677 13.8467C6.28858 14.5513 7.76645 14.8153 9.21294 14.5978C10.6594 14.3803 11.9944 13.6935 13.0123 12.6431C14.0302 11.5927 14.6748 10.2368 14.8467 8.7842C15.0186 7.3316 14.7084 5.86275 13.9638 4.6037C13.2192 3.34466 12.0815 2.3652 10.7258 1.81606C9.37 1.26692 7.87136 1.17854 6.46046 1.56452C5.04956 1.9505 3.8046 2.78945 2.91718 3.95225C2.18202 4.91553 1.72599 6.05685 1.59114 7.25176H0.611354C0.165901 7.25176 -0.0571818 7.79033 0.257801 8.10531L2.04066 9.88817C2.33356 10.1811 2.80843 10.1811 3.10132 9.88817L4.88419 8.10531C5.19917 7.79033 4.97609 7.25176 4.53064 7.25176H3.60936C3.73184 6.4969 4.03848 5.77961 4.50707 5.16561C5.12847 4.35137 6.00024 3.76391 6.9882 3.49364C7.97617 3.22336 9.02558 3.28525 9.97493 3.66977C10.9243 4.0543 11.721 4.74015 12.2423 5.62178C12.7637 6.50341 12.981 7.53196 12.8606 8.54913C12.7402 9.56629 12.2889 10.5157 11.5761 11.2513C10.8633 11.9868 9.92848 12.4677 8.91559 12.62Z" fill="#161823"/>
</svg>
