<svg width="20" height="20" viewBox="0 0 20 20" fill="none" xmlns="http://www.w3.org/2000/svg">
<path d="M2.5 5C2.5 4.58579 2.83579 4.25 3.25 4.25H16.75C17.1642 4.25 17.5 4.58579 17.5 5C17.5 5.41421 17.1642 5.75 16.75 5.75H3.25C2.83579 5.75 2.5 5.41421 2.5 5Z" fill="#161823"/>
<path d="M2.5 10C2.5 9.58579 2.83579 9.25 3.25 9.25H15.2298C14.9837 9.31613 14.7441 9.41461 14.5174 9.54544L12.4311 10.75H3.25C2.83579 10.75 2.5 10.4142 2.5 10Z" fill="#161823"/>
<path d="M3.25 15.75H10.8015V14.25H3.25C2.83579 14.25 2.5 14.5858 2.5 15C2.5 15.4142 2.83579 15.75 3.25 15.75Z" fill="#161823"/>
<path d="M17.2484 14.6913C17.2484 15.3816 16.6887 15.9413 15.9984 15.9413C15.308 15.9413 14.7484 15.3816 14.7484 14.6913C14.7484 14.0009 15.308 13.4413 15.9984 13.4413C16.6887 13.4413 17.2484 14.0009 17.2484 14.6913Z" fill="#161823"/>
<path fill-rule="evenodd" clip-rule="evenodd" d="M15.1174 10.5847C15.6626 10.2699 16.3342 10.2699 16.8793 10.5847L19.1143 11.875C19.6595 12.1898 19.9953 12.7714 19.9953 13.4009V15.9816C19.9953 16.6111 19.6595 17.1928 19.1143 17.5075L16.8793 18.7979C16.3342 19.1126 15.6626 19.1126 15.1174 18.7979L12.8824 17.5075C12.3373 17.1928 12.0015 16.6111 12.0015 15.9816V13.4009C12.0015 12.7714 12.3373 12.1898 12.8824 11.875L15.1174 10.5847ZM16.1293 11.8837C16.0483 11.8369 15.9485 11.8369 15.8674 11.8837L13.6324 13.1741C13.5514 13.2208 13.5015 13.3073 13.5015 13.4009V15.9816C13.5015 16.0752 13.5514 16.1617 13.6324 16.2085L15.8674 17.4988C15.9485 17.5456 16.0483 17.5456 16.1293 17.4988L18.3643 16.2085C18.4454 16.1617 18.4953 16.0752 18.4953 15.9816V13.4009C18.4953 13.3073 18.4454 13.2208 18.3643 13.1741L16.1293 11.8837Z" fill="#161823"/>
</svg>
