<svg width="20" height="20" viewBox="0 0 20 20" fill="none" xmlns="http://www.w3.org/2000/svg">
<path d="M11.8333 5.25C11.8333 3.83639 10.8513 3 10 3C9.14869 3 8.16666 3.83639 8.16666 5.25C8.16666 6.66361 9.14869 7.5 10 7.5C10.8513 7.5 11.8333 6.66361 11.8333 5.25ZM13.3333 5.25C13.3333 7.32107 11.8409 9 10 9C8.15905 9 6.66666 7.32107 6.66666 5.25C6.66666 3.17893 8.15905 1.5 10 1.5C11.8409 1.5 13.3333 3.17893 13.3333 5.25ZM10 10C10.9308 10 11.831 10.1085 12.6692 10.3149C12.8445 10.3581 12.8692 10.5965 12.7159 10.6918C12.3413 10.9246 11.9955 11.1994 11.6849 11.5094C11.6149 11.5793 11.5162 11.613 11.4182 11.599C10.9641 11.5342 10.4896 11.5 10 11.5C6.48438 11.5 3.75 13.2637 3.75 15.4394V16.0833C3.75 16.5436 4.1231 16.9167 4.58333 16.9167H9.91582C10.0548 16.9167 10.1747 17.0123 10.2124 17.146C10.3072 17.4818 10.4318 17.8051 10.583 18.113C10.6506 18.2506 10.5534 18.4167 10.4001 18.4167H4.58333C3.29467 18.4167 2.25 17.372 2.25 16.0833V15.4394C2.25 13.6669 3.36383 12.2691 4.75275 11.3874C6.15542 10.497 8.00786 10 10 10ZM15.7483 18.4316C14.1734 18.4316 12.8967 17.1549 12.8967 15.58C12.8967 14.0051 14.1734 12.7283 15.7483 12.7283C17.3233 12.7283 18.6 14.0051 18.6 15.58C18.6 17.1549 17.3233 18.4316 15.7483 18.4316ZM15.7483 19.8316C18.0965 19.8316 20 17.9281 20 15.58C20 13.2319 18.0965 11.3283 15.7483 11.3283C13.4002 11.3283 11.4967 13.2319 11.4967 15.58C11.4967 17.9281 13.4002 19.8316 15.7483 19.8316ZM14.7067 14.83C14.2925 14.83 13.9567 15.1658 13.9567 15.58C13.9567 15.9942 14.2925 16.33 14.7067 16.33H16.79C17.2042 16.33 17.54 15.9942 17.54 15.58C17.54 15.1658 17.2042 14.83 16.79 14.83H14.7067Z" fill="#161823"/>
</svg>
