<svg width="24" height="24" viewBox="0 0 24 24" fill="none" xmlns="http://www.w3.org/2000/svg">
<path d="M12.0004 8.25001C9.6926 8.25001 7.82179 10.1208 7.82179 12.4286C7.82179 14.7363 9.6926 16.6072 12.0004 16.6072C14.3081 16.6072 16.1789 14.7363 16.1789 12.4286C16.1789 10.1208 14.3081 8.25001 12.0004 8.25001ZM9.32179 12.4286C9.32179 10.9492 10.521 9.75001 12.0004 9.75001C13.4797 9.75001 14.6789 10.9492 14.6789 12.4286C14.6789 13.9079 13.4797 15.1072 12.0004 15.1072C10.521 15.1072 9.32179 13.9079 9.32179 12.4286Z" fill="#161823"/>
<path d="M15.9724 3.7884C15.5893 3.21371 14.9989 2.80922 14.3247 2.65938C12.7938 2.31919 11.2069 2.31919 9.67603 2.65938C9.00178 2.80922 8.41146 3.21371 8.02833 3.7884L7.49197 4.59295C7.25807 4.9438 6.88937 5.1822 6.47343 5.25152L5.80055 5.36367C3.90436 5.6797 2.42313 7.17364 2.12332 9.07246L2.0164 9.7496C1.67508 11.9113 1.72006 14.1164 2.14926 16.2624C2.55677 18.2999 4.06842 19.9391 6.06637 20.5099L6.399 20.605C10.06 21.651 13.9407 21.651 17.6017 20.605L17.9343 20.5099C19.9323 19.9391 21.4439 18.2999 21.8515 16.2624C22.2807 14.1164 22.3256 11.9113 21.9843 9.7496L21.8774 9.07247C21.5776 7.17364 20.0964 5.6797 18.2002 5.36367L17.5273 5.25152C17.1113 5.1822 16.7427 4.9438 16.5087 4.59295L15.9724 3.7884ZM8.74004 5.425L9.27641 4.62045C9.44499 4.36758 9.70474 4.18959 10.0014 4.12366C11.318 3.83109 12.6827 3.83109 13.9993 4.12366C14.296 4.18959 14.5557 4.36758 14.7243 4.62045L15.2607 5.425C15.7246 6.12083 16.4558 6.59363 17.2807 6.73111L17.9536 6.84326C19.2129 7.05315 20.1966 8.04533 20.3958 9.30641L20.5027 9.98354C20.8163 11.9699 20.775 13.9962 20.3806 15.9682C20.0832 17.455 18.9802 18.6511 17.5223 19.0677L17.1896 19.1627C13.798 20.1317 10.2027 20.1317 6.81108 19.1627L6.47845 19.0677C5.02054 18.6511 3.91749 17.455 3.62013 15.9682C3.22574 13.9962 3.1844 11.9699 3.49805 9.98354L3.60496 9.30641C3.80408 8.04533 4.78782 7.05315 6.04715 6.84326L6.72003 6.73111C7.54494 6.59363 8.27615 6.12083 8.74004 5.425Z" fill="#161823"/>
</svg>
