<svg width="20" height="20" viewBox="0 0 20 20" fill="none" xmlns="http://www.w3.org/2000/svg">
<path d="M3.02441 7.74081C3.02441 4.03705 6.18614 1.10242 10.0003 1.10242C13.8144 1.10242 16.9761 4.03705 16.9761 7.74081C16.9761 10.0342 15.8297 12.4002 14.57 14.3276C13.2964 16.2764 11.8339 17.8855 11.0603 18.6864C10.477 19.2904 9.52356 19.2904 8.94018 18.6864C8.16666 17.8855 6.70416 16.2764 5.43051 14.3276C4.17078 12.4002 3.02441 10.0342 3.02441 7.74081ZM7.0061 8.08005C7.0061 9.7369 8.34925 11.08 10.0061 11.08C11.663 11.08 13.0061 9.7369 13.0061 8.08005C13.0061 6.42319 11.663 5.08005 10.0061 5.08005C8.34925 5.08005 7.0061 6.42319 7.0061 8.08005Z" fill="#161823"/>
</svg>
