<svg width="24" height="24" viewBox="0 0 24 24" fill="none" xmlns="http://www.w3.org/2000/svg">
<path d="M6.59672 6.35713C6.26535 6.35713 5.99672 6.62576 5.99672 6.95713C5.99672 7.2885 6.26535 7.55713 6.59672 7.55713H8.39842C8.61934 7.55713 8.79842 7.73622 8.79842 7.95713V9.31914C8.79842 9.54006 8.61934 9.71914 8.39842 9.71914H7.59672C6.71306 9.71914 5.99672 10.4355 5.99672 11.3191V12.1208C5.99672 13.0045 6.71306 13.7208 7.59672 13.7208H8.39842C8.61934 13.7208 8.79842 13.8999 8.79842 14.1208V15.0432C8.79842 15.8164 8.17162 16.4432 7.39842 16.4432H6.59672C6.26535 16.4432 5.99672 16.7118 5.99672 17.0432C5.99672 17.3745 6.26535 17.6432 6.59672 17.6432H7.39842C8.83436 17.6432 9.99842 16.4791 9.99842 15.0432V14.1208C9.99842 13.2372 9.28208 12.5208 8.39842 12.5208H7.59672C7.3758 12.5208 7.19672 12.3417 7.19672 12.1208V11.3191C7.19672 11.0982 7.3758 10.9191 7.59672 10.9191H8.39842C9.28208 10.9191 9.99842 10.2028 9.99842 9.31914V7.95713C9.99842 7.07347 9.28208 6.35713 8.39842 6.35713H6.59672Z" fill="#161823"/>
<path fill-rule="evenodd" clip-rule="evenodd" d="M11.039 9.07773C11.039 8.19408 11.7554 7.47773 12.639 7.47773H12.7591L12.2606 6.72989C12.0767 6.45418 12.1512 6.08165 12.427 5.89784C12.7027 5.71403 13.0752 5.78853 13.259 6.06425L14.2013 7.47773H14.6805L15.6228 6.06425C15.8066 5.78853 16.1792 5.71403 16.4549 5.89784C16.7306 6.08165 16.8051 6.45418 16.6213 6.72989L16.1227 7.47773H16.2424C17.1261 7.47773 17.8424 8.19408 17.8424 9.07773V11.5604C17.8424 12.4441 17.1261 13.1604 16.2424 13.1604H15.0415V14.2019H17.8033C18.1347 14.2019 18.4033 14.4705 18.4033 14.8019C18.4033 15.1332 18.1347 15.4019 17.8033 15.4019H15.0415V17.6034C15.0415 17.9348 14.7728 18.2034 14.4415 18.2034C14.1101 18.2034 13.8415 17.9348 13.8415 17.6034V15.4019H11.0792C10.7478 15.4019 10.4792 15.1332 10.4792 14.8019C10.4792 14.4705 10.7478 14.2019 11.0792 14.2019H13.8415V13.1604H12.639C11.7554 13.1604 11.039 12.4441 11.039 11.5604V9.07773ZM12.639 8.67773C12.4181 8.67773 12.239 8.85682 12.239 9.07773V9.71895H13.8415V8.67773H12.639ZM13.8415 10.9189H12.239V11.5604C12.239 11.7813 12.4181 11.9604 12.639 11.9604H13.8415V10.9189ZM16.6424 10.9189V11.5604C16.6424 11.7813 16.4634 11.9604 16.2424 11.9604H15.0415V10.9189H16.6424ZM16.6424 9.71895H15.0415V8.67773H16.2424C16.4634 8.67773 16.6424 8.85682 16.6424 9.07773V9.71895Z" fill="#161823"/>
<path fill-rule="evenodd" clip-rule="evenodd" d="M6.5 2C4.01472 2 2 4.01472 2 6.5V17.5C2 19.9853 4.01472 22 6.5 22H17.5C19.9853 22 22 19.9853 22 17.5V6.5C22 4.01472 19.9853 2 17.5 2H6.5ZM3.8 6.5C3.8 5.00883 5.00883 3.8 6.5 3.8H17.5C18.9912 3.8 20.2 5.00883 20.2 6.5V17.5C20.2 18.9912 18.9912 20.2 17.5 20.2H6.5C5.00883 20.2 3.8 18.9912 3.8 17.5V6.5Z" fill="#161823"/>
</svg>
