<svg width="20" height="20" viewBox="0 0 20 20" fill="none" xmlns="http://www.w3.org/2000/svg">
<path d="M2.38666 2.38636C2.67956 2.09346 3.15443 2.09346 3.44732 2.38636L4.40552 3.34455C4.49168 3.33711 4.57889 3.33331 4.66699 3.33331H15.3337C16.9905 3.33331 18.3337 4.67646 18.3337 6.33331V13.6666C18.3337 14.6496 17.8609 15.5222 17.1303 16.0694L17.614 16.553C17.9069 16.8459 17.9069 17.3208 17.614 17.6137C17.3211 17.9066 16.8462 17.9066 16.5533 17.6137L16.4237 17.4841C16.4098 17.4676 16.3951 17.4515 16.3796 17.436L2.34255 3.39895C2.09459 3.10428 2.1093 2.66372 2.38666 2.38636ZM8.23386 7.1729L12.0623 11.0013L12.6219 10.6195C13.0583 10.3218 13.0583 9.67821 12.6219 9.38046L9.21471 7.05565C8.8821 6.8287 8.47046 6.91252 8.23386 7.1729Z" fill="#161823"/>
<path d="M1.92858 5.1063C1.76049 5.48086 1.66699 5.89617 1.66699 6.33331V13.6666C1.66699 15.3235 3.01014 16.6666 4.66699 16.6666H13.4889L9.54276 12.7205L9.21471 12.9443C8.71687 13.284 8.04199 12.9275 8.04199 12.3248V11.2197L1.92858 5.1063Z" fill="#161823"/>
</svg>
