<svg width="24" height="24" viewBox="0 0 24 24" fill="none" xmlns="http://www.w3.org/2000/svg">
<path d="M2.46967 1.86152C2.76256 1.56862 3.23744 1.56862 3.53033 1.86152L7.14398 5.47516C7.87726 4.46686 8.91704 3.69587 10.1264 3.2986C10.4105 2.54 11.1422 2 12 2C12.8578 2 13.5894 2.54 13.8735 3.2986C16.2696 4.0857 18 6.33984 18 9V10.9941C18 12.1175 18.3157 13.2183 18.9111 14.171L20.1089 16.0875C20.5305 16.7621 20.2175 17.5992 19.5613 17.8925L21.5303 19.8615C21.8232 20.1544 21.8232 20.6293 21.5303 20.9222C21.2567 21.1958 20.8242 21.2138 20.5297 20.9762L3.53033 3.97678C3.51107 3.95752 3.49103 3.93953 3.4703 3.9228L2.46967 2.92218C2.17678 2.62928 2.17678 2.15441 2.46967 1.86152Z" fill="#161823"/>
<path d="M6.16969 8.73746C6.10901 8.67678 6.00598 8.71576 6.00319 8.80154C6.00105 8.86743 5.99997 8.93359 5.99997 9V10.9941C5.99997 12.1175 5.68427 13.2183 5.08886 14.171L3.89104 16.0875C3.37068 16.9201 3.96925 18 4.95104 18H15.1908C15.2799 18 15.3245 17.8923 15.2615 17.8293L6.16969 8.73746Z" fill="#161823"/>
<path d="M8.71483 19.5C8.64273 19.5 8.59451 19.5739 8.62605 19.6388C9.23426 20.8886 10.5165 21.75 12 21.75C13.4834 21.75 14.7657 20.8886 15.3739 19.6388C15.4054 19.5739 15.3572 19.5 15.2851 19.5H8.71483Z" fill="#161823"/>
</svg>
