<svg width="20" height="20" viewBox="0 0 20 20" fill="none" xmlns="http://www.w3.org/2000/svg">
<path fill-rule="evenodd" clip-rule="evenodd" d="M6.86942 4.99153C6.97093 3.2744 8.43274 1.92075 10.1579 2.00361L10.2437 2.00903C11.1267 2.07504 11.9003 2.50073 12.427 3.13328C12.9005 3.70097 13.1729 4.43437 13.1458 5.22329L13.1422 5.29992C13.1309 5.49897 13.0992 5.69382 13.051 5.88121L12.9705 6.1954L14.3366 5.84196L14.4155 5.82271C16.0704 5.43811 17.7702 6.39714 18.2164 8.02374L18.2519 8.15308C18.4369 8.96302 18.2834 9.77644 17.88 10.4431L17.8379 10.5106C17.439 11.1333 16.8205 11.6187 16.0558 11.8359L15.9812 11.8561C15.7854 11.9075 15.5899 11.9379 15.3945 11.9505L15.0696 11.9714L15.8319 13.1551L15.8747 13.2235C16.7399 14.6434 16.3736 16.5053 15.0078 17.4458L14.9409 17.4906C14.1962 17.9754 13.3194 18.1041 12.5137 17.9194L12.4359 17.9005C11.7147 17.7163 11.059 17.282 10.6149 16.6279L10.5726 16.5639L10.5326 16.5002C10.4417 16.3515 10.365 16.1972 10.3018 16.0399L10.1818 15.741L9.28577 16.8245C8.2017 18.1354 6.26265 18.3892 4.9181 17.3733L4.85455 17.3239C4.16022 16.7697 3.76669 15.9823 3.69441 15.1655L3.68843 15.0864C3.64161 14.3268 3.86959 13.5493 4.39345 12.9161C4.52249 12.7616 4.66319 12.6231 4.81325 12.4981L5.06277 12.2903L3.74693 11.7789C2.13056 11.1506 1.28876 9.35237 1.89972 7.75179C2.22626 6.89875 2.88929 6.27121 3.68301 5.95896C4.39709 5.67941 5.21402 5.65466 5.98273 5.95392C6.16978 6.0267 6.34717 6.11725 6.51224 6.22063L6.78569 6.39184L6.86942 4.99153ZM10.1084 3.41869C9.1879 3.36471 8.39151 4.04753 8.30357 4.95377L8.30319 4.95713L8.30301 4.9605L7.97498 10.307C7.9738 10.3248 7.95708 10.339 7.93798 10.3364L7.92975 10.3343L7.81406 10.2889L6.3186 9.70666C6.43582 9.50755 6.51681 9.27741 6.5386 9.0136L6.54271 8.94912C6.57206 8.30337 6.23767 7.6803 5.66461 7.36638L5.60667 7.3361L5.53303 7.30152C5.18864 7.14989 4.82396 7.12199 4.48485 7.19312L4.41251 7.20975C3.89796 7.34015 3.4508 7.70506 3.24153 8.23494C2.90324 9.09055 3.3135 10.0525 4.15252 10.4158L4.15888 10.4184L9.17961 12.3811C9.20168 12.3901 9.20562 12.4152 9.19381 12.4297L9.11456 12.5245L9.11382 12.5252L8.0933 13.7585C7.94831 13.5967 7.76757 13.457 7.54397 13.3559L7.49669 13.3353L7.43594 13.3114C6.82909 13.0855 6.13037 13.2073 5.6519 13.6515L5.6048 13.6971C5.29949 14.0048 5.1383 14.3934 5.11398 14.7874C5.08072 15.3145 5.29255 15.8504 5.73489 16.2114C6.44883 16.7926 7.49512 16.7042 8.10189 16.0238L8.10432 16.0212L8.10638 16.0185L11.5369 11.8836C11.5436 11.8755 11.5535 11.8713 11.5653 11.872C11.574 11.8725 11.5813 11.8756 11.5868 11.881L11.5917 11.8871L11.6569 11.9903L11.6578 11.9916L12.5223 13.3334C12.3235 13.4199 12.1349 13.5476 11.9694 13.7269L11.935 13.7652C11.482 14.2897 11.3729 15.0467 11.696 15.667C11.8958 16.0531 12.2186 16.324 12.5869 16.4681C13.0803 16.6628 13.6583 16.6286 14.14 16.3219C14.918 15.8274 15.1578 14.8095 14.6925 14.0254L14.6908 14.0224L14.6891 14.0196L11.789 9.50162L11.7857 9.4947C11.7806 9.47941 11.7888 9.46047 11.8079 9.45564L11.9281 9.4248L13.4843 9.02127C13.5075 9.25166 13.5789 9.48503 13.7168 9.71133C14.0783 10.3021 14.7694 10.6369 15.462 10.5238L15.5418 10.5087C15.9369 10.4252 16.2672 10.2132 16.504 9.92889L16.71 9.61507C16.8863 9.2722 16.9478 8.8691 16.8557 8.46615L16.8432 8.41438C16.6111 7.52442 15.71 6.98656 14.8173 7.18302L14.811 7.18452L9.58725 8.52689L9.58613 8.52727C9.57656 8.52979 9.56693 8.52782 9.55828 8.52073C9.54959 8.51358 9.54592 8.50451 9.54651 8.49475L9.55585 8.34971L9.64931 6.78024C9.87697 6.82999 10.1241 6.83503 10.3827 6.77444C11.0589 6.61478 11.5934 6.06747 11.7001 5.37637C11.7611 4.9749 11.6771 4.59031 11.4904 4.27006L11.4517 4.20688C11.1763 3.7753 10.7091 3.47127 10.1616 3.42262L10.1084 3.41869Z" fill="#161823"/>
</svg>
