<svg width="24" height="24" viewBox="0 0 24 24" fill="none" xmlns="http://www.w3.org/2000/svg">
<path d="M2.19744 10.0128C3.11904 5.44193 7.15756 2 12 2C16.8424 2 20.8809 5.44193 21.8025 10.0128C22.0209 11.0956 21.1046 12 20 12H12.75V19.25C12.75 20.7688 11.5188 22 10 22C8.48122 22 7.25 20.7688 7.25 19.25C7.25 18.8358 7.58579 18.5 8 18.5C8.41421 18.5 8.75 18.8358 8.75 19.25C8.75 19.9404 9.30964 20.5 10 20.5C10.6904 20.5 11.25 19.9404 11.25 19.25V12H3.99999C2.89542 12 1.97913 11.0955 2.19744 10.0128ZM3.75728 9.91622C3.68123 10.218 3.9176 10.5 4.22881 10.5H19.7712C20.0824 10.5 20.3188 10.218 20.2427 9.91622C19.3135 6.22922 15.9755 3.5 12 3.5C8.0245 3.5 4.68645 6.22922 3.75728 9.91622Z" fill="#161823"/>
</svg>
