<svg width="20" height="20" viewBox="0 0 20 20" fill="none" xmlns="http://www.w3.org/2000/svg">
<path fill-rule="evenodd" clip-rule="evenodd" d="M9.99929 1.66992C8.02325 1.66992 6.59729 3.48007 6.59729 5.47992C6.59729 7.47977 8.02325 9.28992 9.99929 9.28992C11.9753 9.28992 13.4013 7.47977 13.4013 5.47992C13.4013 3.48007 11.9753 1.66992 9.99929 1.66992ZM8.09729 5.47992C8.09729 4.09979 9.04601 3.16992 9.99929 3.16992C10.9526 3.16992 11.9013 4.09979 11.9013 5.47992C11.9013 6.86005 10.9526 7.78992 9.99929 7.78992C9.04601 7.78992 8.09729 6.86005 8.09729 5.47992Z" fill="#161823"/>
<path d="M4.00488 15.798C4.00488 14.7877 4.5701 13.8052 5.63872 13.0462C6.70715 12.2873 8.23639 11.7916 9.99926 11.7916C10.4043 11.7916 10.797 11.8178 11.1747 11.8673C11.3249 11.887 11.4679 11.7962 11.5194 11.6537C11.6124 11.3965 11.7314 11.1458 11.8767 10.9055C11.9908 10.7167 11.8953 10.4608 11.6775 10.4253C11.1378 10.3375 10.5761 10.2916 9.99926 10.2916C7.96841 10.2916 6.12547 10.8606 4.77014 11.8232C3.41499 12.7857 2.50488 14.1814 2.50488 15.798V15.9149C2.50488 17.2496 3.58686 18.3316 4.92155 18.3316H8.65518C8.88453 18.3316 9.03173 18.0827 8.94446 17.8706C8.84027 17.6174 8.76125 17.3557 8.70775 17.0894C8.67823 16.9425 8.55251 16.8316 8.40266 16.8316H4.92155C4.41529 16.8316 4.00488 16.4212 4.00488 15.9149V15.798Z" fill="#161823"/>
<path d="M14.439 10.1064C15.4152 8.94296 17.1498 8.79121 18.3132 9.76747C19.4767 10.7437 19.6284 12.4783 18.6522 13.6418L18.138 14.2546C17.8717 14.5719 17.3986 14.6133 17.0813 14.347C16.764 14.0808 16.7226 13.6077 16.9889 13.2904L17.5031 12.6776C17.9469 12.1487 17.8779 11.3603 17.3491 10.9165C16.8202 10.4728 16.0318 10.5418 15.588 11.0706L14.5596 12.2963C14.2497 12.6656 14.1898 13.1615 14.362 13.5782C14.4886 13.8844 14.541 14.2631 14.328 14.5169L14.1673 14.7085C13.9365 14.9835 13.5183 15.0227 13.3047 14.7342C12.5657 13.7356 12.5768 12.3256 13.4105 11.3321L14.439 10.1064Z" fill="#161823"/>
<path d="M15.2524 13.4152C15.4832 13.1402 15.9014 13.101 16.1149 13.3895C16.8539 14.3881 16.8428 15.7981 16.0092 16.7916L14.9807 18.0173C14.0045 19.1807 12.2699 19.3325 11.1064 18.3562C9.94297 17.38 9.79121 15.6454 10.7675 14.4819L11.2817 13.8691C11.5479 13.5518 12.021 13.5104 12.3383 13.7766C12.6556 14.0429 12.697 14.516 12.4308 14.8333L11.9165 15.4461C11.4728 15.975 11.5418 16.7634 12.0706 17.2071C12.5994 17.6509 13.3879 17.5819 13.8316 17.0531L14.8601 15.8274C15.17 15.4581 15.2298 14.9622 15.0576 14.5455C14.9311 14.2392 14.8787 13.8606 15.0917 13.6067L15.2524 13.4152Z" fill="#161823"/>
</svg>
