<svg width="24" height="24" viewBox="0 0 24 24" fill="none" xmlns="http://www.w3.org/2000/svg">
<path d="M10.3333 8.5C10.7475 8.5 11.0833 8.83579 11.0833 9.25V13.75C11.0833 14.1642 10.7475 14.5 10.3333 14.5C9.9191 14.5 9.58331 14.1642 9.58331 13.75V9.25C9.58331 8.83579 9.9191 8.5 10.3333 8.5Z" fill="#161823"/>
<path d="M7.75 12.25C7.75 11.8358 7.41421 11.5 7 11.5C6.58579 11.5 6.25 11.8358 6.25 12.25V13.75C6.25 14.1642 6.58579 14.5 7 14.5C7.41421 14.5 7.75 14.1642 7.75 13.75V12.25Z" fill="#161823"/>
<path d="M13.66 9.5C14.0742 9.5 14.41 9.83579 14.41 10.25V13.75C14.41 14.1642 14.0742 14.5 13.66 14.5C13.2458 14.5 12.91 14.1642 12.91 13.75V10.25C12.91 9.83579 13.2458 9.5 13.66 9.5Z" fill="#161823"/>
<path d="M17.75 7.25C17.75 6.83579 17.4142 6.5 17 6.5C16.5858 6.5 16.25 6.83579 16.25 7.25V13.75C16.25 14.1642 16.5858 14.5 17 14.5C17.4142 14.5 17.75 14.1642 17.75 13.75V7.25Z" fill="#161823"/>
<path d="M18.061 3H5.93904C5.3959 2.99999 4.94255 2.99998 4.57239 3.03072C4.18625 3.06279 3.82396 3.13215 3.48232 3.30961C2.98005 3.57052 2.57052 3.98005 2.30961 4.48232C2.13215 4.82396 2.06279 5.18625 2.03072 5.57239C1.99998 5.94255 1.99999 6.39589 2 6.93903V14.061C1.99999 14.6041 1.99998 15.0575 2.03072 15.4276C2.06279 15.8138 2.13215 16.176 2.30961 16.5177C2.57052 17.0199 2.98005 17.4295 3.48232 17.6904C3.82396 17.8679 4.18625 17.9372 4.57239 17.9693C4.94255 18 5.3959 18 5.93904 18H18.061C18.6041 18 19.0575 18 19.4276 17.9693C19.8138 17.9372 20.176 17.8679 20.5177 17.6904C21.0199 17.4295 21.4295 17.0199 21.6904 16.5177C21.8679 16.176 21.9372 15.8138 21.9693 15.4276C22 15.0575 22 14.6041 22 14.061V6.93904C22 6.3959 22 5.94255 21.9693 5.57239C21.9372 5.18625 21.8679 4.82396 21.6904 4.48232C21.4295 3.98005 21.0199 3.57052 20.5177 3.30961C20.176 3.13215 19.8138 3.06279 19.4276 3.03072C19.0575 2.99998 18.6041 2.99999 18.061 3ZM4.17378 4.64073C4.26563 4.59303 4.40482 4.5498 4.69653 4.52557C4.99722 4.5006 5.38792 4.5 5.97 4.5H18.03C18.6121 4.5 19.0028 4.5006 19.3035 4.52557C19.5952 4.5498 19.7344 4.59303 19.8262 4.64073C20.0545 4.75933 20.2407 4.94548 20.3593 5.17378C20.407 5.26563 20.4502 5.40482 20.4744 5.69653C20.4994 5.99722 20.5 6.38792 20.5 6.97V14.03C20.5 14.6121 20.4994 15.0028 20.4744 15.3035C20.4502 15.5952 20.407 15.7344 20.3593 15.8262C20.2407 16.0545 20.0545 16.2407 19.8262 16.3593C19.7344 16.407 19.5952 16.4502 19.3035 16.4744C19.0028 16.4994 18.6121 16.5 18.03 16.5H5.97C5.38792 16.5 4.99722 16.4994 4.69653 16.4744C4.40482 16.4502 4.26563 16.407 4.17378 16.3593C3.94548 16.2407 3.75933 16.0545 3.64073 15.8262C3.59303 15.7344 3.5498 15.5952 3.52557 15.3035C3.5006 15.0028 3.5 14.6121 3.5 14.03V6.97C3.5 6.38792 3.5006 5.99722 3.52557 5.69653C3.5498 5.40482 3.59303 5.26563 3.64073 5.17378C3.75933 4.94548 3.94548 4.75933 4.17378 4.64073Z" fill="#161823"/>
<path d="M5.75 19.5C5.33579 19.5 5 19.8358 5 20.25C5 20.6642 5.33579 21 5.75 21H18.25C18.6642 21 19 20.6642 19 20.25C19 19.8358 18.6642 19.5 18.25 19.5H5.75Z" fill="#161823"/>
</svg>
