<svg width="12" height="12" viewBox="0 0 12 12" fill="none" xmlns="http://www.w3.org/2000/svg">
<path d="M3.85687 4.22559C4.53629 3.94416 5.26449 3.79932 5.9999 3.79932C6.7353 3.79932 7.4635 3.94416 8.14292 4.22559C8.82234 4.50702 9.43968 4.91951 9.95969 5.43952C10.2526 5.73241 10.7275 5.73241 11.0204 5.43952C11.3132 5.14663 11.3132 4.67175 11.0204 4.37886C10.3611 3.71956 9.57836 3.19658 8.71695 2.83977C7.85554 2.48296 6.93228 2.29932 5.9999 2.29932C5.06751 2.29932 4.14425 2.48296 3.28284 2.83977C2.42143 3.19658 1.63873 3.71956 0.979436 4.37886C0.686542 4.67175 0.686542 5.14663 0.979436 5.43952C1.27233 5.73241 1.7472 5.73241 2.0401 5.43952C2.5601 4.91951 3.17744 4.50702 3.85687 4.22559Z" fill="#161823"/>
<path d="M5.99991 6.79932C5.65847 6.79932 5.32038 6.86657 5.00493 6.99723C4.68949 7.12789 4.40287 7.31941 4.16143 7.56084C3.86854 7.85373 3.39367 7.85373 3.10077 7.56084C2.80788 7.26795 2.80788 6.79307 3.10077 6.50018C3.48149 6.11946 3.93347 5.81745 4.43091 5.61141C4.92834 5.40537 5.46149 5.29932 5.99991 5.29932C6.53833 5.29932 7.07148 5.40537 7.56891 5.61141C8.06635 5.81746 8.51833 6.11946 8.89905 6.50018C9.19194 6.79307 9.19194 7.26795 8.89905 7.56084C8.60616 7.85373 8.13128 7.85373 7.83839 7.56084C7.59696 7.31941 7.31034 7.12789 6.99489 6.99723C6.67944 6.86657 6.34135 6.79932 5.99991 6.79932Z" fill="#161823"/>
<path d="M7.10048 9.39933C7.10048 10.0072 6.6077 10.5 5.99983 10.5C5.39195 10.5 4.89917 10.0072 4.89917 9.39933C4.89917 8.79146 5.39195 8.29868 5.99983 8.29868C6.6077 8.29868 7.10048 8.79146 7.10048 9.39933Z" fill="#161823"/>
</svg>
