<svg width="12" height="12" viewBox="0 0 12 12" fill="none" xmlns="http://www.w3.org/2000/svg">
<path d="M3.81489 2.86847C3.81489 1.65896 4.79539 0.678467 6.00489 0.678467C7.21439 0.678467 8.19489 1.65896 8.19489 2.86847V5.43158C8.19489 6.64108 7.21439 7.62158 6.00489 7.62158C4.79539 7.62158 3.81489 6.64108 3.81489 5.43158V2.86847ZM6.99489 2.86847C6.99489 2.32171 6.55165 1.87847 6.00489 1.87847C5.45813 1.87847 5.01489 2.3217 5.01489 2.86847V5.43158C5.01489 5.97834 5.45813 6.42158 6.00489 6.42158C6.55165 6.42158 6.99489 5.97834 6.99489 5.43158V2.86847Z" fill="#161823"/>
<path d="M2.35488 4.55894C2.68625 4.55894 2.95488 4.82756 2.95488 5.15894V5.42931C2.95488 7.11377 4.32041 8.47931 6.00488 8.47931C7.68935 8.47931 9.05488 7.11378 9.05488 5.42931V5.15894C9.05488 4.82756 9.32351 4.55894 9.65488 4.55894C9.98625 4.55894 10.2549 4.82756 10.2549 5.15894V5.42931C10.2549 7.57286 8.66797 9.34576 6.60488 9.63728V10.1014H7.62711C7.95848 10.1014 8.22711 10.37 8.22711 10.7014C8.22711 11.0328 7.95848 11.3014 7.62711 11.3014H4.38266C4.05129 11.3014 3.78266 11.0328 3.78266 10.7014C3.78266 10.37 4.05129 10.1014 4.38266 10.1014H5.40488L5.40488 9.63728C3.34179 9.34575 1.75488 7.57285 1.75488 5.42931V5.15894C1.75488 4.82756 2.02351 4.55894 2.35488 4.55894Z" fill="#161823"/>
</svg>
