<svg width="20" height="20" viewBox="0 0 20 20" fill="none" xmlns="http://www.w3.org/2000/svg">
<path d="M14 7.25C14.6904 7.25 15.25 6.69036 15.25 6C15.25 5.30964 14.6904 4.75 14 4.75C13.3096 4.75 12.75 5.30964 12.75 6C12.75 6.69036 13.3096 7.25 14 7.25Z" fill="#161823"/>
<path d="M13.0702 1.66992C10.1662 1.66992 7.81208 4.02405 7.81208 6.92802C7.81208 7.4922 7.90119 8.03669 8.06642 8.5475L1.88471 14.7291C1.74388 14.87 1.66484 15.061 1.66504 15.2602L1.66732 17.5808C1.66772 17.9947 2.00339 18.33 2.41732 18.33L4.70967 18.33C4.90463 18.33 5.09192 18.2541 5.23186 18.1184L5.87776 17.4918H7.87821C8.29243 17.4918 8.62821 17.1561 8.62821 16.7418V15.1918H10.1734C10.3724 15.1918 10.5633 15.1127 10.704 14.9719C10.8446 14.8311 10.9236 14.6401 10.9234 14.4411L10.9214 12.4504L11.4427 11.9292C11.9558 12.0961 12.503 12.1861 13.0702 12.1861C15.9741 12.1861 18.3283 9.83198 18.3283 6.92802C18.3283 4.02405 15.9741 1.66992 13.0702 1.66992ZM9.31208 6.92802C9.31208 4.85248 10.9946 3.16992 13.0702 3.16992C15.1457 3.16992 16.8283 4.85248 16.8283 6.92802C16.8283 9.00356 15.1457 10.6861 13.0702 10.6861C12.5306 10.6861 12.0194 10.5728 11.5575 10.3695C11.2744 10.2448 10.9437 10.3068 10.725 10.5256L9.64078 11.6098C9.49995 11.7506 9.42091 11.9417 9.42111 12.1408L9.42263 13.6918H7.87821C7.464 13.6918 7.12821 14.0276 7.12821 14.4418V15.9918H5.57378C5.37882 15.9918 5.19152 16.0678 5.05158 16.2035L4.40568 16.83L3.16658 16.83L3.16534 15.5698L9.46939 9.26585C9.68781 9.04744 9.74998 8.71745 9.62601 8.43453C9.42436 7.97429 9.31208 7.46526 9.31208 6.92802Z" fill="#161823"/>
</svg>
