<svg width="20" height="20" viewBox="0 0 20 20" fill="none" xmlns="http://www.w3.org/2000/svg">
<path fill-rule="evenodd" clip-rule="evenodd" d="M10.0004 1.91675C5.349 1.91675 1.50781 5.49792 1.50781 10.0001C1.50781 11.655 2.0308 13.1922 2.9233 14.4702L2.0649 15.8055C1.43519 16.785 2.13852 18.0733 3.30301 18.0733H9.57189C9.71391 18.08 9.85679 18.0834 10.0004 18.0834C14.6519 18.0834 18.4931 14.5022 18.4931 10.0001C18.4931 5.49792 14.6519 1.91675 10.0004 1.91675ZM10.1301 6.6515C10.3841 6.32432 10.8553 6.26501 11.1824 6.51903L11.1837 6.52003L11.1851 6.52112L11.1883 6.52358C11.1905 6.52533 11.193 6.52733 11.1958 6.52957C11.2013 6.53404 11.208 6.53948 11.2157 6.5459C11.2311 6.55872 11.2506 6.57547 11.2737 6.59618C11.3198 6.63758 11.3801 6.69505 11.4499 6.76905C11.5892 6.91687 11.7671 7.13215 11.9428 7.41858C12.2967 7.99577 12.6343 8.85175 12.6343 9.99894C12.6343 11.1461 12.2967 12.0021 11.9428 12.5793C11.7671 12.8657 11.5892 13.081 11.4499 13.2288C11.3801 13.3028 11.3198 13.3603 11.2737 13.4017C11.2506 13.4224 11.2311 13.4392 11.2157 13.452C11.208 13.4584 11.2013 13.4638 11.1958 13.4683C11.1941 13.4697 11.1924 13.471 11.191 13.4722C11.19 13.4729 11.1891 13.4736 11.1883 13.4743L11.1851 13.4768L11.1837 13.4779L11.1824 13.4789C10.8553 13.7329 10.3841 13.6736 10.1301 13.3464C9.87784 13.0215 9.93457 12.5546 10.2558 12.2994C10.2577 12.2977 10.263 12.2932 10.2712 12.2859C10.2886 12.2702 10.319 12.2417 10.3582 12.2001C10.4367 12.1168 10.5492 11.9825 10.664 11.7952C10.891 11.425 11.1343 10.8373 11.1343 9.99894C11.1343 9.16061 10.891 8.57285 10.664 8.20266C10.5492 8.01541 10.4367 7.8811 10.3582 7.79775C10.319 7.75617 10.2886 7.72766 10.2712 7.71198C10.263 7.70465 10.2577 7.70017 10.2558 7.69851C9.93457 7.44328 9.87784 6.97641 10.1301 6.6515ZM8.63303 8.0043C8.32901 7.72297 7.85449 7.74136 7.57316 8.04537C7.29565 8.34526 7.30977 8.81106 7.60201 9.09368C7.60496 9.09686 7.61209 9.10474 7.62226 9.11727C7.64554 9.146 7.68363 9.19782 7.72389 9.27231C7.80294 9.41859 7.89379 9.658 7.89379 9.99855C7.89379 10.3391 7.80294 10.5785 7.7239 10.7247C7.68365 10.7992 7.64557 10.851 7.62229 10.8797C7.61214 10.8922 7.60502 10.9001 7.60207 10.9033C7.3098 11.1858 7.29562 11.6516 7.5731 11.9516C7.8544 12.2556 8.32892 12.274 8.63296 11.9927L8.63406 11.9917L8.63521 11.9907L8.63765 11.9884C8.63934 11.9868 8.64117 11.9851 8.64311 11.9832C8.64701 11.9795 8.65141 11.9752 8.65628 11.9704C8.66602 11.9608 8.67765 11.949 8.69088 11.935C8.71732 11.907 8.75032 11.8702 8.78751 11.8243C8.86176 11.7327 8.95372 11.604 9.04351 11.4379C9.22456 11.1029 9.39379 10.6204 9.39379 9.99855C9.39379 9.37667 9.22456 8.89419 9.04353 8.55919C8.95375 8.39304 8.8618 8.26437 8.78755 8.17277C8.75036 8.12689 8.71737 8.09 8.69093 8.06204C8.6777 8.04805 8.66607 8.03625 8.65634 8.02664C8.65147 8.02184 8.64707 8.01757 8.64317 8.01385C8.64202 8.01275 8.64091 8.0117 8.63985 8.01069C8.63911 8.01 8.6384 8.00932 8.63771 8.00867L8.63527 8.00639L8.63412 8.00532L8.63357 8.00481L8.63303 8.0043Z" fill="#161823"/>
</svg>
