<svg width="24" height="24" viewBox="0 0 24 24" fill="none" xmlns="http://www.w3.org/2000/svg">
<path d="M9.5 2C8.80964 2 8.25 2.55964 8.25 3.25C8.25 3.94036 8.80964 4.5 9.5 4.5H14.5C15.1904 4.5 15.75 3.94036 15.75 3.25C15.75 2.55964 15.1904 2 14.5 2H9.5Z" fill="#161823"/>
<path fill-rule="evenodd" clip-rule="evenodd" d="M7.01235 3C7.00418 3.08225 7 3.16568 7 3.25008C7 4.6308 8.11929 5.75008 9.5 5.75008H14.5C15.8807 5.75008 17 4.6308 17 3.25008C17 3.16568 16.9958 3.08225 16.9876 3H17.0333C18.6902 3 20.0333 4.34315 20.0333 6V19C20.0333 20.6569 18.6902 22 17.0333 22H7C5.34315 22 4 20.6569 4 19V6C4 4.34315 5.34315 3 7 3H7.01235ZM11.25 16.6332C11.25 17.0474 11.5858 17.3832 12 17.3832C12.4142 17.3832 12.75 17.0474 12.75 16.6332V13.8333H15.5664C15.9806 13.8333 16.3164 13.4975 16.3164 13.0833C16.3164 12.6691 15.9806 12.3333 15.5664 12.3333H12.75V9.53349C12.75 9.11928 12.4142 8.78349 12 8.78349C11.5858 8.78349 11.25 9.11928 11.25 9.53349V12.3333H8.46667C8.05246 12.3333 7.71667 12.6691 7.71667 13.0833C7.71667 13.4975 8.05246 13.8333 8.46667 13.8333H11.25V16.6332Z" fill="#161823"/>
</svg>
