<svg width="24" height="24" viewBox="0 0 24 24" fill="none" xmlns="http://www.w3.org/2000/svg">
<path d="M3.99512 3.76172C2.89055 3.76172 1.99512 4.65715 1.99512 5.76172V17.0815C1.99512 18.1861 2.89055 19.0815 3.99512 19.0815H13.3291C13.0819 18.5812 12.9429 18.0179 12.9429 17.4221V16.4609H10.215C9.80075 16.4609 9.46497 16.1252 9.46497 15.7109C9.46497 15.2967 9.80075 14.9609 10.215 14.9609H12.9429V11.4194C12.9429 9.34839 14.6218 7.66943 16.6929 7.66943H19.4638C20.8645 7.66943 22.0857 8.43726 22.7296 9.57493V5.76172C22.7296 4.65715 21.8342 3.76172 20.7296 3.76172H3.99512Z" fill="#161823"/>
<path d="M16.6929 9.16943C15.4502 9.16943 14.4429 10.1768 14.4429 11.4194V17.4221C14.4429 18.6647 15.4502 19.6721 16.6929 19.6721H19.4638C20.7065 19.6721 21.7138 18.6647 21.7138 17.4221V11.4194C21.7138 10.1768 20.7065 9.16943 19.4638 9.16943H16.6929ZM15.9429 11.4194C15.9429 11.0052 16.2787 10.6694 16.6929 10.6694H16.7595V11.0361C16.7595 11.4043 17.058 11.7027 17.4262 11.7027H18.7595C19.1277 11.7027 19.4262 11.4043 19.4262 11.0361V10.6694H19.4638C19.878 10.6694 20.2138 11.0052 20.2138 11.4194V17.4221C20.2138 17.8363 19.878 18.1721 19.4638 18.1721H16.6929C16.2787 18.1721 15.9429 17.8363 15.9429 17.4221V11.4194Z" fill="#161823"/>
</svg>
