<svg width="20" height="20" viewBox="0 0 20 20" fill="none" xmlns="http://www.w3.org/2000/svg">
<path d="M5 7.25C5 6.83579 5.33579 6.5 5.75 6.5H11.75C12.1642 6.5 12.5 6.83579 12.5 7.25C12.5 7.66421 12.1642 8 11.75 8H5.75C5.33579 8 5 7.66421 5 7.25Z" fill="#161823"/>
<path d="M5.75 9.5C5.33579 9.5 5 9.83579 5 10.25C5 10.6642 5.33579 11 5.75 11H9.25C9.66421 11 10 10.6642 10 10.25C10 9.83579 9.66421 9.5 9.25 9.5H5.75Z" fill="#161823"/>
<path fill-rule="evenodd" clip-rule="evenodd" d="M1.5 5.25C1.5 3.73122 2.73122 2.5 4.25 2.5H15.75C17.2688 2.5 18.5 3.73122 18.5 5.25V13.25C18.5 14.7688 17.2688 16 15.75 16H10.6434L8.23004 18.1443C7.35936 18.9179 5.98337 18.2998 5.98337 17.1351V16H4.25C2.73122 16 1.5 14.7688 1.5 13.25V5.25ZM4.25 4C3.55964 4 3 4.55964 3 5.25V13.25C3 13.9404 3.55964 14.5 4.25 14.5H6.73337C7.14758 14.5 7.48337 14.8358 7.48337 15.25V16.8012L9.64712 14.8787C9.92167 14.6348 10.2762 14.5 10.6434 14.5H15.75C16.4404 14.5 17 13.9404 17 13.25V5.25C17 4.55964 16.4404 4 15.75 4H4.25Z" fill="#161823"/>
</svg>
