<svg width="24" height="24" viewBox="0 0 24 24" fill="none" xmlns="http://www.w3.org/2000/svg">
<path d="M12 9.50002C10.7805 9.50002 9.5 8.32784 9.5 6.50002C9.5 4.67219 10.7805 3.50002 12 3.50002C13.2195 3.50002 14.5 4.67219 14.5 6.50002C14.5 8.32784 13.2195 9.50002 12 9.50002ZM12 11C14.2091 11 16 8.9853 16 6.50002C16 4.01473 14.2091 2.00002 12 2.00002C9.79086 2.00002 8 4.01473 8 6.50002C8 8.9853 9.79086 11 12 11Z" fill="#161823"/>
<path d="M14.8281 13.0681C14.8901 12.9477 14.8259 12.7975 14.6932 12.77C13.839 12.5929 12.9337 12.5 12 12.5C9.6563 12.5 7.49136 13.0852 5.86408 14.1182C4.25055 15.1424 3 16.7372 3 18.7273V19.5C3 20.8807 4.11929 22 5.5 22H12.9988C13.1278 22 13.2229 21.8795 13.2031 21.752C13.1777 21.5884 13.1646 21.4207 13.1646 21.25V20.7C13.1646 20.5896 13.075 20.5 12.9646 20.5H5.5C4.94772 20.5 4.5 20.0523 4.5 19.5V18.7273C4.5 16.1165 7.78125 14 12 14C12.7764 14 13.521 14.0717 14.2193 14.2049C14.3287 14.2258 14.4349 14.1554 14.4614 14.0472C14.5459 13.7037 14.6698 13.3756 14.8281 13.0681Z" fill="#161823"/>
<path d="M18.8315 12.125C17.1747 12.125 15.8315 13.4681 15.8315 15.125V16.0995C15.1517 16.3396 14.6646 16.9879 14.6646 17.75V21.25C14.6646 22.2165 15.4481 23 16.4146 23H21.2487C22.2152 23 22.9987 22.2165 22.9987 21.25V17.75C22.9987 16.9878 22.5115 16.3395 21.8315 16.0994V15.125C21.8315 13.4681 20.4884 12.125 18.8315 12.125ZM20.3315 16H17.3315V15.125C17.3315 14.2966 18.0031 13.625 18.8315 13.625C19.66 13.625 20.3315 14.2966 20.3315 15.125V16ZM16.4146 17.5H21.2487C21.3868 17.5 21.4987 17.6119 21.4987 17.75V21.25C21.4987 21.3881 21.3868 21.5 21.2487 21.5H16.4146C16.2765 21.5 16.1646 21.3881 16.1646 21.25V17.75C16.1646 17.6119 16.2765 17.5 16.4146 17.5Z" fill="#161823"/>
</svg>
