<svg width="20" height="20" viewBox="0 0 20 20" fill="none" xmlns="http://www.w3.org/2000/svg">
<path d="M8.32334 12.6297C8.17295 13.1346 7.95811 13.3333 7.57139 13.3333C7.17393 13.3333 6.9 13.0916 6.9 12.7264C6.9 12.5814 6.9376 12.4149 7.02891 12.1409L8.87656 6.84505C9.10752 6.16292 9.43516 5.87825 10.0475 5.87825C10.6544 5.87825 10.9767 6.15755 11.2076 6.84505L13.0553 12.1409C13.1305 12.3719 13.1681 12.5491 13.1681 12.6995C13.1681 13.0863 12.8941 13.3333 12.4806 13.3333C12.0885 13.3333 11.8629 13.1292 11.7179 12.6297L11.3043 11.3836H8.73154L8.32334 12.6297ZM9.98838 7.33919L9.05381 10.304H10.9874L10.0582 7.33919H9.98838Z" fill="#161823"/>
<path d="M1.75 9.89583C1.75 5.39701 5.39701 1.75 9.89583 1.75C14.3947 1.75 18.0417 5.39701 18.0417 9.89583C18.0417 11.8751 17.3357 13.6895 16.1619 15.101L18.2389 17.178C18.5318 17.4709 18.5318 17.9457 18.2389 18.2386C17.946 18.5315 17.4711 18.5315 17.1782 18.2386L15.1013 16.1617C13.6898 17.3357 11.8752 18.0417 9.89583 18.0417C5.39701 18.0417 1.75 14.3947 1.75 9.89583ZM9.89583 3.25C6.22544 3.25 3.25 6.22544 3.25 9.89583C3.25 13.5662 6.22544 16.5417 9.89583 16.5417C13.5662 16.5417 16.5417 13.5662 16.5417 9.89583C16.5417 6.22544 13.5662 3.25 9.89583 3.25Z" fill="#161823"/>
</svg>
