<svg width="24" height="24" viewBox="0 0 24 24" fill="none" xmlns="http://www.w3.org/2000/svg">
<path fill-rule="evenodd" clip-rule="evenodd" d="M7 20.2C3.68629 20.2 1 17.5137 1 14.2C1 11.4074 2.90773 9.06049 5.491 8.3913C6.41823 5.69083 8.97996 3.75 11.995 3.75C15.3538 3.75 18.15 6.15858 18.7506 9.34277C21.1857 9.90898 23 12.0926 23 14.7C23 17.7375 20.5376 20.2 17.5 20.2H7ZM9.098 12.8763L11.0001 10.7765V17.2C11.0001 17.6419 11.3582 18.0001 11.8001 18.0001C12.242 18.0001 12.6002 17.6419 12.6002 17.2V10.7765L14.6976 12.8757C14.9942 13.2032 15.5001 13.2281 15.8275 12.9314C16.1551 12.6348 16.18 12.129 15.8834 11.8014L12.5033 8.07012C12.2066 7.74261 11.7008 7.71758 11.3734 8.01421C11.3558 8.03008 11.3392 8.04656 11.3233 8.06365C11.2777 8.09637 11.2347 8.13445 11.1954 8.17779L7.9122 11.8022C7.61557 12.1296 7.64048 12.6356 7.96811 12.9322C8.29551 13.2288 8.80136 13.2038 9.098 12.8763Z" fill="#161823"/>
</svg>
