<svg width="24" height="24" viewBox="0 0 24 24" fill="none" xmlns="http://www.w3.org/2000/svg">
<path d="M17.844 2.65133L9.18797 4.01853C8.21591 4.17206 7.5 5.00993 7.5 5.99404L7.5 16.327C7.5 16.8079 7.1577 17.2207 6.68511 17.3097L5.0007 17.627C3.84041 17.8456 3 18.8591 3 20.0398C3 21.5777 4.39777 22.737 5.90916 22.4526L6.55472 22.3312C7.97277 22.0644 9 20.8258 9 19.3829L9 9.05467L17.5 7.71483L17.5 14.4552C17.5 14.9364 17.1573 15.3494 16.6843 15.4381L15.002 15.7535C13.8412 15.9712 13 16.9847 13 18.1658C13 19.7032 14.3973 20.8621 15.9081 20.5778L16.5547 20.4562C17.9728 20.1894 19 18.9508 19 17.5079L19 3.63908C19 3.02458 18.451 2.55545 17.844 2.65133Z" fill="#161823"/>
</svg>
