<svg width="24" height="24" viewBox="0 0 24 24" fill="none" xmlns="http://www.w3.org/2000/svg">
<path d="M12.0002 10.875C9.92918 10.875 8.25024 9.19607 8.25024 7.125V7C8.25024 6.58579 8.58603 6.25 9.00024 6.25C9.41446 6.25 9.75024 6.58579 9.75024 7V7.125C9.75024 8.36764 10.7576 9.375 12.0002 9.375C13.2429 9.375 14.2502 8.36764 14.2502 7.125V7C14.2502 6.58579 14.586 6.25 15.0002 6.25C15.4145 6.25 15.7502 6.58579 15.7502 7V7.125C15.7502 9.19607 14.0713 10.875 12.0002 10.875Z" fill="#161823"/>
<path d="M3.85599 5.59746L3.16155 18.0975C3.07398 19.6738 4.32858 21 5.90731 21H18.0933C19.672 21 20.9266 19.6738 20.839 18.0975L20.1446 5.59746C20.0636 4.14019 18.8583 3 17.3988 3H6.60176C5.14224 3 3.93695 4.14019 3.85599 5.59746ZM6.60176 4.5H17.3988C18.0623 4.5 18.6101 5.01827 18.6469 5.68066L19.3414 18.1807C19.3812 18.8972 18.8109 19.5 18.0933 19.5H5.90731C5.18971 19.5 4.61943 18.8972 4.65924 18.1807L5.35368 5.68066C5.39048 5.01827 5.93834 4.5 6.60176 4.5Z" fill="#161823"/>
</svg>
