<svg width="16" height="16" viewBox="0 0 16 16" fill="none" xmlns="http://www.w3.org/2000/svg">
<path d="M8.05925 1.0779C7.85974 0.90186 7.54584 1.04352 7.54584 1.30958V2.61152C6.34206 2.69977 5.18649 3.1378 4.22368 3.87656C3.14046 4.70769 2.36175 5.87302 2.00831 7.19181C1.65486 8.5106 1.74644 9.90917 2.26883 11.1706C2.79122 12.4321 3.71524 13.4859 4.89758 14.1687C6.07993 14.8515 7.45452 15.1251 8.8082 14.947C10.1619 14.769 11.419 14.1493 12.3846 13.184C13.3502 12.2187 13.9703 10.9618 14.1487 9.60818C14.3272 8.25456 14.054 6.87987 13.3716 5.69732C13.2249 5.443 12.8997 5.35581 12.6454 5.50257C12.3911 5.64932 12.3039 5.97446 12.4507 6.22877C13.0161 7.2086 13.2424 8.34763 13.0946 9.4692C12.9467 10.5908 12.4329 11.6322 11.6328 12.432C10.8328 13.2318 9.79117 13.7453 8.66955 13.8928C7.54793 14.0403 6.40898 13.8136 5.42932 13.2479C4.44967 12.6822 3.68406 11.809 3.25122 10.7638C2.81838 9.71859 2.7425 8.55978 3.03535 7.46706C3.32821 6.37435 3.97343 5.4088 4.87095 4.72014C5.64795 4.12395 6.57647 3.76414 7.54584 3.67826V4.94359C7.54584 5.20966 7.85974 5.35131 8.05925 5.17528L10.031 3.4355C10.2169 3.2715 10.2169 2.98168 10.031 2.81768L8.05925 1.0779Z" fill="#161823"/>
<path d="M7.87029 11.5915C6.93229 11.5915 6.26773 11.0619 6.26773 10.5324C6.26773 10.3005 6.41657 10.117 6.64847 10.117C6.79384 10.117 6.9046 10.1793 7.01882 10.342C7.23688 10.6674 7.51378 10.83 7.86682 10.83C8.38947 10.83 8.75982 10.4666 8.75982 9.94397C8.75982 9.43863 8.40332 9.09251 7.9049 9.09251C7.673 9.09251 7.43763 9.17904 7.23342 9.33825C7.02921 9.51132 6.92883 9.55285 6.80077 9.55285C6.51694 9.55285 6.32311 9.34864 6.34388 9.0302L6.47195 7.25113C6.49618 6.92231 6.69347 6.7631 7.0742 6.7631H9.03326C9.31016 6.7631 9.47284 6.90501 9.47284 7.14729C9.47284 7.38958 9.31362 7.52457 9.03326 7.52457H7.2438L7.14689 8.74638H7.19535C7.35802 8.52487 7.74222 8.37257 8.14718 8.37257C9.04711 8.37257 9.66667 8.99559 9.66667 9.90936C9.66667 10.9166 8.94327 11.5915 7.87029 11.5915Z" fill="#161823"/>
</svg>
