<svg width="24" height="24" viewBox="0 0 24 24" fill="none" xmlns="http://www.w3.org/2000/svg">
<path d="M12.3079 7.95627C12.5621 7.62924 13.0333 7.5702 13.3603 7.8244C13.3603 7.8244 13.3601 7.82421 13.361 7.82489L13.3616 7.82542L13.3631 7.82654C13.3641 7.82732 13.3652 7.82818 13.3663 7.82911C13.3677 7.83019 13.3692 7.83136 13.3708 7.83263C13.3719 7.83356 13.3732 7.83454 13.3744 7.83557C13.3805 7.84046 13.3879 7.84653 13.3966 7.85378C13.414 7.86828 13.4365 7.88753 13.4632 7.91161C13.5167 7.95974 13.5877 8.02732 13.6702 8.11493C13.8349 8.28995 14.0468 8.54635 14.2563 8.88848C14.678 9.57706 15.0834 10.6027 15.0834 11.9832C15.0834 13.3637 14.678 14.3894 14.2563 15.078C14.0468 15.4201 13.8349 15.6765 13.6702 15.8515C13.5877 15.9391 13.5167 16.0067 13.4632 16.0548C13.4365 16.0789 13.414 16.0982 13.3966 16.1127C13.3879 16.1199 13.3805 16.126 13.3744 16.1309C13.3714 16.1333 13.3687 16.1355 13.3663 16.1373C13.3652 16.1383 13.3641 16.1391 13.3631 16.1399L13.3616 16.141L13.361 16.1415C13.3601 16.1422 13.3603 16.142 13.3603 16.142C13.0333 16.3962 12.5621 16.3372 12.3079 16.0102C12.0551 15.685 12.1121 15.2172 12.4343 14.962L12.4351 14.9614L12.4357 14.9609C12.4371 14.9597 12.4394 14.9578 12.4424 14.9552C12.4467 14.9515 12.4527 14.9463 12.4601 14.9396C12.485 14.9172 12.526 14.8786 12.5779 14.8235C12.6819 14.7129 12.8283 14.5375 12.9771 14.2946C13.2721 13.8129 13.5834 13.0553 13.5834 11.9832C13.5834 10.9112 13.2721 10.1535 12.9771 9.67189C12.8283 9.42892 12.6819 9.2535 12.5779 9.14299C12.526 9.08782 12.485 9.0492 12.4601 9.02682C12.4476 9.01564 12.4393 9.00856 12.4357 9.00555C12.4351 9.00508 12.4347 9.00471 12.4343 9.00444C12.1121 8.74926 12.0551 8.28149 12.3079 7.95627Z" fill="#161823"/>
<path d="M10.1685 9.62581C9.86067 9.34868 9.38645 9.37358 9.10932 9.68143C8.83505 9.9861 8.85661 10.4537 9.15549 10.732C9.15602 10.7325 9.15672 10.7332 9.15758 10.7341C9.1634 10.7401 9.17653 10.754 9.19469 10.7758C9.23118 10.8196 9.28676 10.8937 9.34443 10.9975C9.45824 11.2024 9.5834 11.5282 9.5834 11.9833C9.5834 12.4384 9.45824 12.7642 9.34445 12.969C9.28678 13.0728 9.23121 13.1468 9.19473 13.1906C9.17657 13.2124 9.16345 13.2263 9.15763 13.2323C9.15677 13.2332 9.15608 13.2339 9.15555 13.2344C8.85664 13.5126 8.83503 13.9802 9.10926 14.2849C9.38636 14.5928 9.86057 14.6178 10.1685 14.3407C10.1685 14.3407 10.1678 14.3413 10.169 14.3402L10.1696 14.3397L10.1707 14.3386C10.1716 14.3379 10.1724 14.3371 10.1733 14.3363C10.1751 14.3347 10.177 14.3329 10.1791 14.3309C10.1833 14.327 10.1882 14.3225 10.1936 14.3172C10.2045 14.3068 10.2178 14.2937 10.2331 14.2779C10.2638 14.2464 10.3027 14.2041 10.3471 14.1509C10.4356 14.0446 10.5467 13.8937 10.6557 13.6975C10.8752 13.3023 11.0834 12.7281 11.0834 11.9833C11.0834 11.2385 10.8752 10.6643 10.6557 10.2691C10.5467 10.0729 10.4356 9.92188 10.3471 9.81565C10.3028 9.76244 10.2638 9.72011 10.2332 9.68859C10.2178 9.67282 10.2046 9.65972 10.1937 9.64927C10.1882 9.64404 10.1834 9.63947 10.1792 9.63556C10.1771 9.63361 10.1751 9.63182 10.1734 9.63019C10.1725 9.62938 10.1716 9.62861 10.1708 9.62788L10.1696 9.62681L10.1691 9.6263C10.1685 9.62576 10.1685 9.62581 10.1685 9.62581Z" fill="#161823"/>
<path fill-rule="evenodd" clip-rule="evenodd" d="M1.9834 11.9832C1.9834 6.68866 6.50775 2.46655 12.0001 2.46655C17.4924 2.46655 22.0167 6.68866 22.0167 11.9832C22.0167 17.2778 17.4924 21.4999 12.0001 21.4999C11.8942 21.4999 11.7888 21.4983 11.6837 21.4952C11.6561 21.4983 11.6282 21.4999 11.6001 21.4999H4.12234C2.84275 21.4999 2.07059 20.0835 2.76383 19.008L3.78282 17.4271C2.65089 15.8873 1.9834 14.0102 1.9834 11.9832ZM11.4838 19.9999C11.5301 19.993 11.5774 19.9903 11.6253 19.9923C11.7495 19.9973 11.8744 19.9999 12.0001 19.9999C16.7434 19.9999 20.5167 16.372 20.5167 11.9832C20.5167 7.59439 16.7434 3.96655 12.0001 3.96655C7.2567 3.96655 3.4834 7.59439 3.4834 11.9832C3.4834 13.8364 4.15087 15.545 5.27931 16.9074C5.48791 17.1593 5.50928 17.5173 5.3321 17.7921L4.02463 19.8207C3.97477 19.898 4.0303 19.9999 4.12234 19.9999H11.4838Z" fill="#161823"/>
</svg>
