<svg width="20" height="20" viewBox="0 0 20 20" fill="none" xmlns="http://www.w3.org/2000/svg">
<path fill-rule="evenodd" clip-rule="evenodd" d="M15.6837 9.26956L15.6837 2.50023C15.6837 1.88572 15.1347 1.4166 14.5277 1.51247L7.32783 2.65518C6.35577 2.80871 5.63986 3.64658 5.63986 4.63069L5.63975 13.4753C5.63975 13.8968 5.33976 14.2585 4.92558 14.3366L4.92803 14.3388L3.43037 14.616C2.41301 14.8067 1.67578 15.695 1.67578 16.7301C1.67578 18.0775 2.90037 19.0932 4.2245 18.844L4.81135 18.7374C6.05414 18.5036 6.9544 17.4181 6.9544 16.1535L6.95435 7.1018L14.369 5.92755V9.04931C14.8239 9.06932 15.2643 9.14495 15.6837 9.26956ZM7.13986 4.63069C7.13986 4.38466 7.31884 4.17519 7.56185 4.13681L14.1837 3.0854V4.4298L7.13986 5.54546V4.63069ZM4.53399 17.2633L3.94714 17.3699C3.5464 17.4453 3.17578 17.1379 3.17578 16.7301C3.17578 16.4169 3.3989 16.148 3.7068 16.0903L5.28917 15.7974C5.37503 15.7813 5.4544 15.8472 5.4544 15.9345C5.4544 16.547 5.20766 17.1365 4.53399 17.2633Z" fill="#161823"/>
<path d="M14.625 12.6333C14.625 12.3572 14.4011 12.1333 14.125 12.1333C13.8489 12.1333 13.625 12.3572 13.625 12.6333V14.5083C13.625 14.7844 13.8489 15.0083 14.125 15.0083H16C16.2761 15.0083 16.5 14.7844 16.5 14.5083C16.5 14.2322 16.2761 14.0083 16 14.0083H14.625V12.6333Z" fill="#161823"/>
<path fill-rule="evenodd" clip-rule="evenodd" d="M9.375 14.5088C9.375 17.1321 11.5016 19.2588 14.125 19.2588C16.7484 19.2588 18.875 17.1321 18.875 14.5088C18.875 11.8854 16.7484 9.75879 14.125 9.75879C11.5016 9.75879 9.375 11.8854 9.375 14.5088ZM10.675 14.5088C10.675 16.4142 12.2196 17.9588 14.125 17.9588C16.0304 17.9588 17.575 16.4142 17.575 14.5088C17.575 12.6034 16.0304 11.0588 14.125 11.0588C12.2196 11.0588 10.675 12.6034 10.675 14.5088Z" fill="#161823"/>
</svg>
