<svg width="16" height="16" viewBox="0 0 16 16" fill="none" xmlns="http://www.w3.org/2000/svg">
<path d="M14.6673 8.00004C14.6673 11.6819 11.6825 14.6667 8.00065 14.6667C4.31875 14.6667 1.33398 11.6819 1.33398 8.00004C1.33398 4.31814 4.31875 1.33337 8.00065 1.33337C11.6825 1.33337 14.6673 4.31814 14.6673 8.00004ZM8.734 10.7333C8.734 10.3283 8.40568 10 8.00067 10C7.59566 10 7.26733 10.3283 7.26733 10.7333C7.26733 11.1383 7.59566 11.4667 8.00067 11.4667C8.40568 11.4667 8.734 11.1383 8.734 10.7333ZM6.66728 6.93653C7 6.93653 7.18058 6.83493 7.33655 6.40888C7.46534 6.05705 7.87148 5.9999 8.16728 5.9999C8.56252 5.9999 9.00061 6.20566 9.00061 6.65553C9.00061 7.00456 8.6589 7.2186 8.28464 7.45305C7.83152 7.73689 7.33067 8.05062 7.33067 8.66997C7.33067 9.03816 7.62915 9.33663 7.99734 9.33663C8.34806 9.33663 8.60197 9.2093 8.66201 8.72187C8.70673 8.35885 9.04211 8.12144 9.4018 7.86683C9.85388 7.54681 10.3444 7.19962 10.3444 6.54169C10.3444 5.55315 9.5593 4.66656 8.16728 4.66656C7.31528 4.66656 6.00061 5.26232 6.00061 6.26986C6.00061 6.63805 6.29909 6.93653 6.66728 6.93653Z" fill="#161823"/>
</svg>
