<svg width="24" height="24" viewBox="0 0 24 24" fill="none" xmlns="http://www.w3.org/2000/svg">
<path d="M14.2849 1.99854H20.4998C21.3283 1.99854 21.9998 2.67011 21.9998 3.49854V9.71336C21.9998 10.2436 21.7892 10.7522 21.4144 11.1273L10.3789 22.1676C9.59788 22.9489 8.33131 22.949 7.55014 22.1679L1.83286 16.4506C1.05181 15.6695 1.05181 14.4032 1.83286 13.6222L12.8707 2.58432C13.2458 2.20925 13.7545 1.99854 14.2849 1.99854ZM17.3993 7.99996C18.1723 7.99996 18.7988 7.3734 18.7988 6.60049C18.7988 5.82758 18.1723 5.20102 17.3993 5.20102C16.6264 5.20102 15.9999 5.82758 15.9999 6.60049C15.9999 7.3734 16.6264 7.99996 17.3993 7.99996Z" fill="#161823"/>
</svg>
