<svg width="24" height="24" viewBox="0 0 24 24" fill="none" xmlns="http://www.w3.org/2000/svg">
<path d="M16.5534 3.35758C16.5534 2.9068 17.0852 2.6668 17.4232 2.96505L20.7638 5.91266C20.9491 6.07616 21.0254 6.31346 20.9926 6.53771C20.9923 6.53974 20.992 6.54177 20.9917 6.5438C20.9677 6.69846 20.8918 6.84652 20.7638 6.95941L17.4232 9.90702C17.0852 10.2053 16.5534 9.96527 16.5534 9.51449V7.36106C15.9579 7.533 15.4703 7.82415 15.0504 8.20056C14.9104 8.32603 14.7779 8.46098 14.6514 8.60414C14.5519 8.71685 14.4561 8.83459 14.3634 8.95702C13.7146 9.81402 13.2204 10.9004 12.6839 12.0927L12.6588 12.1484C12.5859 12.3105 12.512 12.4746 12.4368 12.6399C11.91 13.7963 11.3141 15.0062 10.4727 15.9587C10.3457 16.1024 10.2133 16.2403 10.0748 16.3716C9.10526 17.2903 7.84143 17.8836 6.11634 17.8836C5.69516 17.8836 5.28398 17.8411 4.88688 17.76C2.10721 17.1925 0.0175781 14.7379 0.0175781 11.7849C0.0175781 8.40972 2.75032 5.68613 6.11634 5.68613C8.08787 5.68613 9.45694 6.46115 10.4727 7.61109C10.7064 7.87564 10.9212 8.16005 11.1208 8.45767C10.8186 8.99119 10.5569 9.52862 10.3236 10.0332C10.0299 9.50065 9.7144 9.01835 9.34851 8.60414C8.59251 7.7483 7.6215 7.18613 6.11634 7.18613C3.57733 7.18613 1.51758 9.23956 1.51758 11.7849C1.51758 14.3305 3.57448 16.3836 6.11634 16.3836C7.6215 16.3836 8.59252 15.8215 9.34851 14.9656C10.145 14.064 10.7029 12.8397 11.316 11.4771L11.3411 11.4214C11.4141 11.2593 11.4879 11.0951 11.5632 10.9299C12.0899 9.77344 12.6859 8.56354 13.5272 7.61109C13.964 7.11662 14.4661 6.69146 15.0534 6.36745C15.501 6.12047 15.998 5.93225 16.5534 5.81688V3.35758Z" fill="#161823"/>
<path d="M12.8792 15.1121C13.0788 15.4097 13.2935 15.6941 13.5272 15.9587C14.543 17.1086 15.9121 17.8836 17.8836 17.8836C21.2503 17.8836 23.9824 15.1517 23.9824 11.7849C23.9824 10.1165 23.3115 8.60402 22.225 7.5026C22.1068 7.71549 21.9506 7.91271 21.7563 8.08416L21.1869 8.58652C21.9887 9.41439 22.4824 10.5424 22.4824 11.7849C22.4824 14.3233 20.4219 16.3836 17.8836 16.3836C16.3784 16.3836 15.4074 15.8215 14.6514 14.9656C14.2856 14.5514 13.97 14.0691 13.6763 13.5366C13.443 14.0411 13.1813 14.5786 12.8792 15.1121Z" fill="#161823"/>
</svg>
