<svg width="20" height="20" viewBox="0 0 20 20" fill="none" xmlns="http://www.w3.org/2000/svg">
<path d="M18.0959 8.0185C17.2067 4.37276 13.9192 1.66675 9.99963 1.66675C6.08008 1.66675 2.79255 4.37276 1.90333 8.0185C1.64159 9.09161 2.56173 10.0001 3.6663 10.0001H9.24959V15.9084C9.24959 16.4147 8.83919 16.8251 8.33293 16.8251C7.82667 16.8251 7.41626 16.4147 7.41626 15.9084C7.41626 15.4942 7.08047 15.1584 6.66626 15.1584C6.25205 15.1584 5.91626 15.4942 5.91626 15.9084C5.91626 17.2431 6.99824 18.3251 8.33293 18.3251C9.66761 18.3251 10.7496 17.2431 10.7496 15.9084V10.0001H16.333C17.4375 10.0001 18.3577 9.09161 18.0959 8.0185ZM3.36061 8.37394C4.08979 5.38436 6.78759 3.16675 9.99963 3.16675C13.2117 3.16675 15.9095 5.38436 16.6387 8.37394L16.6393 8.37683C16.6368 8.38046 16.633 8.38527 16.6275 8.39114C16.5846 8.43741 16.4809 8.50008 16.333 8.50008H3.6663C3.51835 8.50008 3.4147 8.43741 3.37174 8.39114C3.36629 8.38527 3.3625 8.38046 3.35993 8.37683L3.36061 8.37394Z" fill="#161823"/>
</svg>
