<svg width="24" height="24" viewBox="0 0 24 24" fill="none" xmlns="http://www.w3.org/2000/svg">
<path d="M12 22C17.5228 22 22 17.5228 22 12C22 6.47715 17.5228 2 12 2C6.47715 2 2 6.47715 2 12C2 17.5228 6.47715 22 12 22ZM12.5857 16.8179C12.3811 16.956 12.1914 17.0788 11.9974 17.0788C11.8035 17.0788 11.6189 16.956 11.4143 16.8179C8.74425 15.0788 7 13.0174 7 10.9407C7 9.06855 8.29923 7.8 9.87468 7.8C10.7885 7.8 11.4765 8.33517 11.9056 9.04832C11.9468 9.11674 12.049 9.11723 12.0907 9.04913C12.5274 8.33558 13.2111 7.8 14.1253 7.8C15.7008 7.8 17 9.06855 17 10.9407C17 13.0174 15.2558 15.0788 12.5857 16.8179Z" fill="#161823"/>
</svg>
