<svg width="20" height="20" viewBox="0 0 20 20" fill="none" xmlns="http://www.w3.org/2000/svg">
<path fill-rule="evenodd" clip-rule="evenodd" d="M4.54004 10C4.54004 6.98261 6.98615 4.5365 10.0036 4.5365C12.7832 4.5365 15.078 6.61227 15.4225 9.29824L14.029 8.06618C13.7187 7.79181 13.2447 7.82095 12.9704 8.13126C12.696 8.44157 12.7251 8.91555 13.0354 9.18992L15.86 11.6874C16.024 11.8324 16.2432 11.8985 16.4601 11.8684C16.677 11.8382 16.8698 11.7148 16.988 11.5305L19.0241 8.35721C19.2478 8.00859 19.1465 7.54464 18.7979 7.32095C18.4493 7.09727 17.9853 7.19855 17.7616 7.54717L16.8833 8.91617C16.3627 5.58508 13.4808 3.0365 10.0036 3.0365C6.15772 3.0365 3.04004 6.15418 3.04004 10C3.04004 13.8459 6.15772 16.9636 10.0036 16.9636C11.4821 16.9636 12.855 16.502 13.9832 15.715C14.323 15.478 14.4063 15.0105 14.1693 14.6708C13.9323 14.331 13.4648 14.2477 13.1251 14.4847C12.2404 15.1018 11.1654 15.4636 10.0036 15.4636C6.98615 15.4636 4.54004 13.0175 4.54004 10Z" fill="#161823"/>
</svg>
