<svg width="20" height="20" viewBox="0 0 20 20" fill="none" xmlns="http://www.w3.org/2000/svg">
<path d="M10.6875 18.25C10.6875 17.8703 10.3797 17.5625 10 17.5625C9.6203 17.5625 9.3125 17.8703 9.3125 18.25C9.3125 18.6297 9.6203 18.9375 10 18.9375C10.3797 18.9375 10.6875 18.6297 10.6875 18.25Z" fill="#161823"/>
<path d="M13.7946 17.3645C13.6523 17.0124 13.2516 16.8423 12.8996 16.9846C12.5475 17.1268 12.3775 17.5275 12.5197 17.8795C12.6619 18.2316 13.0626 18.4017 13.4147 18.2594C13.7667 18.1172 13.9368 17.7165 13.7946 17.3645Z" fill="#161823"/>
<path d="M7.11149 16.9892C6.76198 16.8408 6.35837 17.0039 6.21001 17.3534C6.06166 17.7029 6.22472 18.1065 6.57423 18.2549C6.92375 18.4032 7.32735 18.2401 7.47571 17.8906C7.62407 17.5411 7.461 17.1375 7.11149 16.9892Z" fill="#161823"/>
<path d="M16.3198 15.3475C16.0513 15.079 15.616 15.079 15.3475 15.3475C15.079 15.616 15.079 16.0513 15.3475 16.3198C15.616 16.5883 16.0513 16.5883 16.3198 16.3198C16.5883 16.0513 16.5883 15.616 16.3198 15.3475Z" fill="#161823"/>
<path d="M4.65251 15.3475C4.38402 15.079 3.94872 15.079 3.68023 15.3475C3.41175 15.616 3.41175 16.0513 3.68023 16.3198C3.94872 16.5883 4.38402 16.5883 4.65251 16.3198C4.92099 16.0513 4.92099 15.616 4.65251 15.3475Z" fill="#161823"/>
<path d="M18.2549 13.4258C18.4032 13.0763 18.2401 12.6727 17.8906 12.5243C17.5411 12.3759 17.1375 12.539 16.9892 12.8885C16.8408 13.238 17.0039 13.6416 17.3534 13.79C17.7029 13.9383 18.1065 13.7753 18.2549 13.4258Z" fill="#161823"/>
<path d="M3.01084 12.8885C2.86248 12.539 2.45888 12.3759 2.10937 12.5243C1.75985 12.6727 1.59679 13.0763 1.74515 13.4258C1.89351 13.7753 2.29711 13.9383 2.64662 13.79C2.99613 13.6416 3.1592 13.238 3.01084 12.8885Z" fill="#161823"/>
<path d="M18.9375 10C18.9375 9.6203 18.6297 9.3125 18.25 9.3125C17.8703 9.3125 17.5625 9.6203 17.5625 10C17.5625 10.3797 17.8703 10.6875 18.25 10.6875C18.6297 10.6875 18.9375 10.3797 18.9375 10Z" fill="#161823"/>
<path d="M2.4375 10C2.4375 9.6203 2.1297 9.3125 1.75 9.3125C1.3703 9.3125 1.0625 9.6203 1.0625 10C1.0625 10.3797 1.3703 10.6875 1.75 10.6875C2.1297 10.6875 2.4375 10.3797 2.4375 10Z" fill="#161823"/>
<path d="M18.2594 6.58532C18.1172 6.23327 17.7165 6.06319 17.3645 6.20542C17.0124 6.34766 16.8423 6.74836 16.9846 7.1004C17.1268 7.45245 17.5275 7.62254 17.8795 7.4803C18.2316 7.33806 18.4017 6.93737 18.2594 6.58532Z" fill="#161823"/>
<path d="M2.64662 6.21001C2.29711 6.06166 1.89351 6.22472 1.74515 6.57423C1.59679 6.92375 1.75985 7.32735 2.10937 7.47571C2.45888 7.62407 2.86248 7.461 3.01084 7.11149C3.1592 6.76198 2.99613 6.35837 2.64662 6.21001Z" fill="#161823"/>
<path d="M16.3198 3.68023C16.0513 3.41175 15.616 3.41175 15.3475 3.68023C15.079 3.94872 15.079 4.38402 15.3475 4.65251C15.616 4.92099 16.0513 4.92099 16.3198 4.65251C16.5883 4.38402 16.5883 3.94872 16.3198 3.68023Z" fill="#161823"/>
<path d="M4.65251 3.68023C4.38402 3.41175 3.94872 3.41175 3.68023 3.68023C3.41175 3.94872 3.41175 4.38402 3.68023 4.65251C3.94872 4.92099 4.38402 4.92099 4.65251 4.65251C4.92099 4.38402 4.92099 3.94872 4.65251 3.68023Z" fill="#161823"/>
<path d="M13.4258 1.74515C13.0763 1.59679 12.6727 1.75985 12.5243 2.10937C12.3759 2.45888 12.539 2.86248 12.8885 3.01084C13.238 3.1592 13.6416 2.99613 13.79 2.64662C13.9383 2.29711 13.7753 1.89351 13.4258 1.74515Z" fill="#161823"/>
<path d="M7.4803 2.12045C7.33806 1.7684 6.93737 1.59832 6.58532 1.74056C6.23327 1.88279 6.06319 2.28349 6.20542 2.63554C6.34766 2.98758 6.74836 3.15767 7.1004 3.01543C7.45245 2.8732 7.62254 2.4725 7.4803 2.12045Z" fill="#161823"/>
<path d="M10.6875 1.75C10.6875 1.3703 10.3797 1.0625 10 1.0625C9.6203 1.0625 9.3125 1.3703 9.3125 1.75C9.3125 2.1297 9.6203 2.4375 10 2.4375C10.3797 2.4375 10.6875 2.1297 10.6875 1.75Z" fill="#161823"/>
<path fill-rule="evenodd" clip-rule="evenodd" d="M7.07812 10C7.07812 8.38629 8.38629 7.07812 10 7.07812C11.6137 7.07812 12.9219 8.38629 12.9219 10C12.9219 11.6137 11.6137 12.9219 10 12.9219C8.38629 12.9219 7.07812 11.6137 7.07812 10ZM10 8.79688C9.33553 8.79688 8.79688 9.33553 8.79688 10C8.79688 10.6645 9.33553 11.2031 10 11.2031C10.6645 11.2031 11.2031 10.6645 11.2031 10C11.2031 9.33553 10.6645 8.79688 10 8.79688Z" fill="#161823"/>
<path fill-rule="evenodd" clip-rule="evenodd" d="M3.8125 10C3.8125 6.58274 6.58274 3.8125 10 3.8125C13.4173 3.8125 16.1875 6.58274 16.1875 10C16.1875 13.4173 13.4173 16.1875 10 16.1875C6.58274 16.1875 3.8125 13.4173 3.8125 10ZM10 5.1875C7.34213 5.1875 5.1875 7.34213 5.1875 10C5.1875 12.6579 7.34213 14.8125 10 14.8125C12.6579 14.8125 14.8125 12.6579 14.8125 10C14.8125 7.34213 12.6579 5.1875 10 5.1875Z" fill="#161823"/>
</svg>
