<svg width="24" height="24" viewBox="0 0 24 24" fill="none" xmlns="http://www.w3.org/2000/svg">
<path d="M20.8571 2.78711C20.4666 2.39659 19.8334 2.39659 19.4429 2.78711L9.96769 12.2623C9.68762 12.5424 9.46578 12.8752 9.31497 13.2414L8.67151 14.8041C8.53613 15.1329 8.8649 15.4617 9.19368 15.3263L10.7564 14.6828C11.1226 14.532 11.4554 14.3102 11.7355 14.0301L21.2107 4.55488C21.6012 4.16435 21.6012 3.53119 21.2107 3.14066L20.8571 2.78711Z" fill="#161823"/>
<path d="M16.5 3C16.694 3 16.8851 3.01228 17.0726 3.03609L15.6087 4.5H7.5C5.84315 4.5 4.5 5.84315 4.5 7.5V16.5C4.5 18.1569 5.84315 19.5 7.5 19.5H16.5C18.1569 19.5 19.5 18.1569 19.5 16.5V8.38688L20.9634 6.92347C20.9876 7.11224 21 7.30467 21 7.5V16.5C21 18.9853 18.9853 21 16.5 21H7.5C5.01472 21 3 18.9853 3 16.5V7.5C3 5.01472 5.01472 3 7.5 3H16.5Z" fill="#161823"/>
</svg>
