<svg width="16" height="16" viewBox="0 0 16 16" fill="none" xmlns="http://www.w3.org/2000/svg">
<path d="M9.21211 3.49506C8.21954 3.2291 7.16695 3.29809 6.21758 3.69133C5.26821 4.08457 4.47513 4.78009 3.96134 5.67C3.44755 6.55992 3.24176 7.5945 3.37588 8.6133C3.51001 9.63209 3.97656 10.5782 4.70317 11.3048C5.42979 12.0314 6.37586 12.4979 7.39465 12.6321C8.41345 12.7662 9.44803 12.5604 10.3379 12.0466C10.8162 11.7705 11.4278 11.9343 11.704 12.4126C11.9801 12.8909 11.8162 13.5025 11.3379 13.7787C10.0667 14.5126 8.5889 14.8065 7.1336 14.615C5.6783 14.4234 4.32689 13.7569 3.28896 12.719C2.25103 11.6811 1.58459 10.3296 1.39299 8.87435C1.2014 7.41905 1.49536 5.9412 2.22929 4.67C2.96322 3.3988 4.09609 2.4053 5.45221 1.84357C6.80833 1.28185 8.31191 1.1833 9.72975 1.56321C11.1476 1.94312 12.4005 2.78025 13.294 3.94478C14.1876 5.10931 14.6719 6.53614 14.6719 8.004C14.6719 8.55628 14.2242 9.004 13.6719 9.004C13.1197 9.004 12.6719 8.55628 12.6719 8.004C12.6719 6.97641 12.3329 5.97754 11.7073 5.1623C11.0818 4.34706 10.2047 3.76102 9.21211 3.49506Z" fill="#161823"/>
</svg>
