<svg width="24" height="24" viewBox="0 0 24 24" fill="none" xmlns="http://www.w3.org/2000/svg">
<path d="M12.0001 11C14.2092 11 16.0001 8.98528 16.0001 6.5C16.0001 4.01472 14.2092 2 12.0001 2C9.79096 2 8.0001 4.01472 8.0001 6.5C8.0001 8.98528 9.79096 11 12.0001 11ZM12.0001 9.5C10.7806 9.5 9.5001 8.32783 9.5001 6.5C9.5001 4.67217 10.7806 3.5 12.0001 3.5C13.2196 3.5 14.5001 4.67217 14.5001 6.5C14.5001 8.32783 13.2196 9.5 12.0001 9.5Z" fill="#161823"/>
<path d="M5.86408 14.1182C7.49136 13.0852 9.6563 12.5 12 12.5C13.1799 12.5 14.3146 12.6483 15.3581 12.9275C15.4624 12.9554 15.5232 13.0621 15.5032 13.1681C15.4659 13.3662 15.4464 13.5705 15.4464 13.7793V14.1256C15.4464 14.242 15.3472 14.3329 15.2309 14.3369C15.1476 14.3397 15.0649 14.3477 14.9843 14.3607C14.9551 14.3654 14.9252 14.3645 14.8966 14.357C14.0103 14.127 13.0332 14 12 14C7.78125 14 4.5 16.1165 4.5 18.7273V19.5C4.5 20.0523 4.94772 20.5 5.5 20.5H14.6508C14.7071 20.5 14.7607 20.5239 14.7993 20.5649C15.0229 20.8027 15.268 21.0202 15.5315 21.2143C15.6231 21.2818 15.6443 21.4106 15.5866 21.5087C15.5228 21.617 15.4692 21.7321 15.427 21.8525C15.397 21.9383 15.3186 22 15.2277 22H5.5C4.11929 22 3 20.8807 3 19.5V18.7273C3 16.7372 4.25055 15.1424 5.86408 14.1182Z" fill="#161823"/>
<path d="M16.9463 13.7793C16.9463 12.7966 17.7429 12 18.7256 12C19.7083 12 20.5049 12.7966 20.5049 13.7793V16.8836C20.5049 17.8662 19.7083 18.6629 18.7256 18.6629C17.7429 18.6629 16.9463 17.8662 16.9463 16.8836V13.7793Z" fill="#161823"/>
<path d="M15.9481 16.2856C15.9481 15.9266 15.6571 15.6356 15.2981 15.6356C14.9391 15.6356 14.6481 15.9336 14.6481 16.2856V16.8814C14.6481 18.902 16.1178 20.5793 18.0466 20.9026V21.8467H17.268C16.9091 21.8467 16.618 22.1378 16.618 22.4967C16.618 22.8557 16.9091 23.1467 17.268 23.1467H20.1251C20.4841 23.1467 20.7751 22.8557 20.7751 22.4967C20.7751 22.1378 20.4841 21.8467 20.1251 21.8467H19.3466V20.9119C21.3039 20.6128 22.8032 18.9222 22.8032 16.8814V16.2856C22.8032 15.9266 22.5121 15.6356 22.1532 15.6356C21.7942 15.6356 21.5032 15.9266 21.5032 16.2856L21.5032 16.8814C21.5032 18.4154 20.2596 19.6589 18.7256 19.6589C17.1916 19.6589 15.9481 18.4154 15.9481 16.8814V16.2856Z" fill="#161823"/>
</svg>
