<svg width="24" height="24" viewBox="0 0 24 24" fill="none" xmlns="http://www.w3.org/2000/svg">
<path fill-rule="evenodd" clip-rule="evenodd" d="M10.0534 7.4402C8.15806 7.4402 6.67053 8.97712 6.67053 11.0667C6.67053 12.2341 7.16081 13.3392 7.9324 14.3338C8.70303 15.3272 9.78314 16.2496 11.0493 17.0748C11.1586 17.1484 11.2894 17.229 11.4266 17.2941C11.5473 17.3514 11.757 17.4386 11.9977 17.4386C12.2366 17.4386 12.4466 17.3525 12.5678 17.2956C12.7063 17.2307 12.8389 17.1501 12.9507 17.0749C14.2169 16.2496 15.297 15.3272 16.0676 14.3338C16.8392 13.3392 17.3295 12.2341 17.3295 11.0667C17.3295 8.97712 15.842 7.4402 13.9466 7.4402C13.149 7.4402 12.4963 7.73475 12.0004 8.19344C11.5043 7.73346 10.8489 7.4402 10.0534 7.4402ZM8.17053 11.0667C8.17053 9.72698 9.06293 8.9402 10.0534 8.9402C10.6285 8.9402 11.0572 9.23905 11.3347 9.76367L11.6404 10.3414C11.7897 10.6238 12.1934 10.6258 12.3456 10.345L12.6571 9.7703C12.9462 9.23684 13.3741 8.9402 13.9466 8.9402C14.9371 8.9402 15.8295 9.72698 15.8295 11.0667C15.8295 11.8014 15.521 12.5913 14.8824 13.4144C14.2439 14.2375 13.3043 15.0544 12.1271 15.8212L12.1168 15.828C12.0739 15.857 12.0343 15.8816 11.9995 15.9015C11.9655 15.8817 11.9264 15.8572 11.8832 15.828L11.8729 15.8212C10.6957 15.0544 9.7561 14.2375 9.11758 13.4144C8.47902 12.5913 8.17053 11.8014 8.17053 11.0667Z" fill="#161823"/>
<path fill-rule="evenodd" clip-rule="evenodd" d="M22 12C22 17.5228 17.5228 22 12 22C6.47715 22 2 17.5228 2 12C2 6.47715 6.47715 2 12 2C17.5228 2 22 6.47715 22 12ZM20.5 12C20.5 16.6944 16.6944 20.5 12 20.5C7.30558 20.5 3.5 16.6944 3.5 12C3.5 7.30558 7.30558 3.5 12 3.5C16.6944 3.5 20.5 7.30558 20.5 12Z" fill="#161823"/>
</svg>
