<svg width="12" height="12" viewBox="0 0 12 12" fill="none" xmlns="http://www.w3.org/2000/svg">
<g clip-path="url(#clip0_3826_3011)">
<path d="M4.3334 1.01699C4.3334 0.685621 4.06477 0.416992 3.7334 0.416992H2.3334C1.44974 0.416992 0.733398 1.13334 0.733398 2.01699V3.41699C0.733398 3.74836 1.00203 4.01699 1.3334 4.01699C1.66477 4.01699 1.9334 3.74836 1.9334 3.41699V2.01699C1.9334 1.79608 2.11248 1.61699 2.3334 1.61699H3.7334C4.06477 1.61699 4.3334 1.34836 4.3334 1.01699Z" fill="#161823"/>
<path d="M8.23339 0.416992C7.90202 0.416992 7.63339 0.685621 7.63339 1.01699C7.63339 1.34836 7.90202 1.61699 8.23339 1.61699H9.66672C9.88763 1.61699 10.0667 1.79608 10.0667 2.01699V3.41699C10.0667 3.74836 10.3353 4.01699 10.6667 4.01699C10.9981 4.01699 11.2667 3.74836 11.2667 3.41699V2.01699C11.2667 1.13334 10.5504 0.416992 9.66672 0.416992H8.23339Z" fill="#161823"/>
<path d="M8.23339 10.9502C7.90202 10.9502 7.63339 10.6816 7.63339 10.3502C7.63339 10.0188 7.90202 9.7502 8.23339 9.7502H9.66672C9.88763 9.7502 10.0667 9.57111 10.0667 9.35019V7.91686C10.0667 7.58549 10.3353 7.31686 10.6667 7.31686C10.9981 7.31686 11.2667 7.58549 11.2667 7.91686V9.35019C11.2667 10.2339 10.5504 10.9502 9.66672 10.9502H8.23339Z" fill="#161823"/>
<path d="M3.7334 10.9502C4.06477 10.9502 4.3334 10.6816 4.3334 10.3502C4.3334 10.0188 4.06477 9.7502 3.7334 9.7502H2.3334C2.11248 9.7502 1.9334 9.57111 1.9334 9.35019V7.91686C1.9334 7.58549 1.66477 7.31686 1.3334 7.31686C1.00203 7.31686 0.733398 7.58549 0.733398 7.91686V9.35019C0.733398 10.2339 1.44974 10.9502 2.3334 10.9502H3.7334Z" fill="#161823"/>
<path fill-rule="evenodd" clip-rule="evenodd" d="M2.83511 5.33106C2.83511 3.71835 4.1503 2.41797 5.76404 2.41797C7.37778 2.41797 8.69297 3.71835 8.69297 5.33106C8.69297 5.93103 8.51095 6.48777 8.19924 6.95041L9.04326 7.7462C9.28436 7.97353 9.29553 8.35326 9.0682 8.59436C8.84088 8.83546 8.46114 8.84663 8.22004 8.61931L7.33826 7.78791C6.88319 8.07687 6.34282 8.24415 5.76404 8.24415C4.1503 8.24415 2.83511 6.94377 2.83511 5.33106ZM5.76404 3.61797C4.80531 3.61797 4.03511 4.3888 4.03511 5.33106C4.03511 6.27332 4.80531 7.04415 5.76404 7.04415C6.72277 7.04415 7.49297 6.27332 7.49297 5.33106C7.49297 4.3888 6.72277 3.61797 5.76404 3.61797Z" fill="#161823"/>
</g>
<defs>
<clipPath id="clip0_3826_3011">
<rect width="12" height="12" fill="white"/>
</clipPath>
</defs>
</svg>
