<svg width="24" height="24" viewBox="0 0 24 24" fill="none" xmlns="http://www.w3.org/2000/svg">
<path d="M2 7.62218C2 6.9212 2.35034 6.26659 2.93359 5.87775C5.10823 4.42799 7.92685 4.37308 10.1563 5.73705L11.1429 6.34067C11.232 6.39518 11.2864 6.49212 11.2864 6.59657V20.1489C11.2864 20.3989 10.9946 20.5434 10.7839 20.4088C8.78628 19.1337 6.21624 19.0555 4.12493 20.2681L3.19158 20.8092C2.66255 21.116 2 20.7343 2 20.1228V7.62218Z" fill="#161823"/>
<path d="M12.7864 20.1252C12.7864 20.3727 13.0725 20.5175 13.2831 20.3874C15.3068 19.138 17.8847 19.0848 19.9788 20.3138L20.8147 20.8044C21.3393 21.1123 22 20.734 22 20.1257V7.61516C22 6.91851 21.6518 6.26795 21.0722 5.88152C18.8967 4.43121 16.0743 4.38627 13.8538 5.76658L12.928 6.34208C12.8399 6.39682 12.7864 6.49317 12.7864 6.59686V20.1252Z" fill="#161823"/>
</svg>
