<svg width="16" height="16" viewBox="0 0 16 16" fill="none" xmlns="http://www.w3.org/2000/svg">
<path d="M8.80839 1.30958C8.80839 1.04352 8.49449 0.90186 8.29498 1.0779L6.32324 2.81767C6.13737 2.98168 6.13737 3.27149 6.32324 3.4355L8.29498 5.17527C8.49449 5.35131 8.80839 5.20966 8.80839 4.94359V3.72214C9.64868 3.85592 10.4471 4.19705 11.1288 4.72016C12.0264 5.40881 12.6716 6.37436 12.9644 7.46708C13.2573 8.55979 13.1814 9.7186 12.7486 10.7638C12.3157 11.809 11.5501 12.6822 10.5705 13.2479C9.59082 13.8136 8.45186 14.0403 7.33025 13.8928C6.20863 13.7453 5.16703 13.2318 4.36697 12.432C3.56691 11.6322 3.05311 10.5908 2.90524 9.46921C2.75737 8.34763 2.98371 7.20861 3.54914 6.22878C3.6959 5.97447 3.6087 5.64934 3.35439 5.50258C3.10008 5.35583 2.77495 5.44302 2.62819 5.69733C1.94577 6.87989 1.67261 8.25457 1.85107 9.60819C2.02953 10.9618 2.64964 12.2187 3.61523 13.184C4.58081 14.1493 5.83792 14.769 7.1916 14.947C8.54527 15.1251 9.91987 14.8515 11.1022 14.1687C12.2846 13.4859 13.2086 12.4321 13.731 11.1706C14.2533 9.90918 14.3449 8.51061 13.9915 7.19182C13.638 5.87303 12.8593 4.70771 11.7761 3.87657C10.9082 3.21064 9.88367 2.78907 8.80839 2.64779V1.30958Z" fill="#161823"/>
<path d="M6.33142 10.5324C6.33142 11.0619 6.99598 11.5915 7.93397 11.5915C9.00695 11.5915 9.73035 10.9166 9.73035 9.90933C9.73035 8.99557 9.11079 8.37255 8.21087 8.37255C7.80591 8.37255 7.42171 8.52484 7.25903 8.74636H7.21057L7.30749 7.52455H9.09694C9.3773 7.52455 9.53652 7.38956 9.53652 7.14727C9.53652 6.90499 9.37384 6.76308 9.09694 6.76308H7.13789C6.75715 6.76308 6.55986 6.92229 6.53563 7.25111L6.40757 9.03018C6.3868 9.34861 6.58063 9.55283 6.86445 9.55283C6.99252 9.55283 7.09289 9.51129 7.2971 9.33823C7.50132 9.17901 7.73668 9.09248 7.96858 9.09248C8.467 9.09248 8.82351 9.43861 8.82351 9.94395C8.82351 10.4666 8.45315 10.83 7.93051 10.83C7.57746 10.83 7.30057 10.6673 7.08251 10.342C6.96829 10.1793 6.85753 10.117 6.71216 10.117C6.48025 10.117 6.33142 10.3005 6.33142 10.5324Z" fill="#161823"/>
</svg>
