<svg width="20" height="20" viewBox="0 0 20 20" fill="none" xmlns="http://www.w3.org/2000/svg">
<path fill-rule="evenodd" clip-rule="evenodd" d="M5.29956 2.23272C4.63952 2.89276 4.41131 3.82111 4.61493 4.66668H3.7002C2.59563 4.66668 1.7002 5.56211 1.7002 6.66668V7.00002C1.7002 7.5523 2.14791 8.00002 2.7002 8.00002H17.3002C17.8525 8.00002 18.3002 7.5523 18.3002 7.00002V6.66668C18.3002 5.56211 17.4048 4.66668 16.3002 4.66668H15.3855C15.5891 3.82111 15.3609 2.89276 14.7008 2.23272C13.692 1.22386 12.0563 1.22386 11.0474 2.23272L10.1046 3.17552C10.0685 3.21163 10.0337 3.24854 10.0002 3.28619C9.96667 3.24854 9.93186 3.21163 9.89575 3.17552L8.95295 2.23272C7.94409 1.22386 6.30841 1.22386 5.29956 2.23272ZM6.22889 4.66668H9.09937C9.04824 4.50927 8.96015 4.36124 8.83509 4.23618L7.89229 3.29338C7.46922 2.87031 6.78329 2.87031 6.36022 3.29338C5.98674 3.66685 5.94297 4.24518 6.22889 4.66668ZM10.901 4.66668H13.7715C14.0574 4.24518 14.0136 3.66685 13.6402 3.29338C13.2171 2.87031 12.5312 2.87031 12.1081 3.29338L11.1653 4.23618C11.0402 4.36124 10.9521 4.50927 10.901 4.66668Z" fill="#161823"/>
<path d="M3.0002 9.5H9.2502V18H5.0002C3.89563 18 3.0002 17.1046 3.0002 16V9.5Z" fill="#161823"/>
<path d="M15.0002 18H10.7502V9.5H17.0002V16C17.0002 17.1046 16.1048 18 15.0002 18Z" fill="#161823"/>
</svg>
