<svg width="20" height="20" viewBox="0 0 20 20" fill="none" xmlns="http://www.w3.org/2000/svg">
<path fill-rule="evenodd" clip-rule="evenodd" d="M10.5938 2.06543C11.8647 2.06544 12.8953 3.13272 12.8955 4.4502V4.79004H13.0771C14.4288 4.79004 15.5252 5.92606 15.5254 7.32715V7.86035H14.1367V7.32715C14.1365 6.72149 13.6619 6.23047 13.0771 6.23047H3.87305C3.65659 6.23047 3.44739 6.19459 3.25195 6.12891V15.6475C3.25195 16.2533 3.72669 16.7451 4.31152 16.7451H11.9062V18.1846H4.31152C2.95972 18.1846 1.86328 17.0487 1.86328 15.6475L1.88574 3.83691C2.03068 2.83412 2.86531 2.06543 3.87305 2.06543H10.5938ZM3.87305 3.50488C3.53037 3.50488 3.25207 3.79261 3.25195 4.14746C3.25195 4.50242 3.53029 4.79102 3.87305 4.79102L11.5068 4.79004V4.4502C11.5067 3.92814 11.0978 3.50489 10.5938 3.50488H3.87305Z" fill="#161823"/>
<path d="M14.4668 10.0996C14.6212 10.0996 14.7438 10.2204 14.7695 10.3877C15.1233 12.7832 15.4127 13.0779 17.6445 13.3857C17.8115 13.4127 17.9268 13.5397 17.9268 13.7002C17.9267 13.8673 17.8115 13.9946 17.6445 14.0215C15.3871 14.3293 15.149 14.6503 14.7695 17.0254C14.7438 17.186 14.6212 17.2998 14.4668 17.2998C14.306 17.2998 14.1898 17.1858 14.1641 17.0186C13.8168 14.6235 13.5147 14.3159 11.2832 14.0215C11.116 13.9947 11.0001 13.8674 11 13.7002C11 13.5396 11.116 13.4125 11.2832 13.3857C13.5406 13.0779 13.791 12.763 14.1641 10.3809C14.1898 10.2137 14.3125 10.0996 14.4668 10.0996Z" fill="#161823"/>
<path d="M8.4248 12.2402C8.80823 12.2403 9.11914 12.5633 9.11914 12.9609C9.11895 13.3584 8.80811 13.6806 8.4248 13.6807H5.79492C5.41156 13.6807 5.10078 13.3585 5.10059 12.9609C5.10059 12.5632 5.41144 12.2402 5.79492 12.2402H8.4248Z" fill="#161823"/>
<path d="M17.5479 8.5C17.6506 8.50015 17.7194 8.5804 17.7451 8.6875C17.9081 9.65286 17.882 9.68894 18.9111 9.89453C19.0139 9.92132 19.0828 10.0015 19.083 10.0996C19.083 10.2069 19.014 10.2878 18.9111 10.3057C17.882 10.5202 17.9166 10.5382 17.7451 11.5215C17.7194 11.6285 17.642 11.7 17.5479 11.7002C17.4365 11.7002 17.3676 11.6287 17.3418 11.5127C17.1617 10.5384 17.2129 10.5023 16.1924 10.3057C16.0724 10.2877 16.0039 10.2158 16.0039 10.0996C16.0041 10.0015 16.073 9.92131 16.1758 9.89453C17.2131 9.689 17.1617 9.65261 17.3418 8.69629C17.3676 8.58028 17.4365 8.5 17.5479 8.5Z" fill="#161823"/>
<path d="M10.1777 9.06055C10.5611 9.06055 10.8719 9.38274 10.8721 9.78027C10.8721 10.178 10.5612 10.501 10.1777 10.501H5.79492C5.41144 10.501 5.10059 10.178 5.10059 9.78027C5.10078 9.38274 5.41156 9.06055 5.79492 9.06055H10.1777Z" fill="#161823"/>
</svg>
