<svg width="20" height="20" viewBox="0 0 20 20" fill="none" xmlns="http://www.w3.org/2000/svg">
<path d="M1 2.06641C1 1.65219 1.33579 1.31641 1.75 1.31641L2.3041 1.31641C3.55497 1.31641 4.61331 2.2409 4.78142 3.48042L4.85079 3.99192H16.413C17.968 3.99192 19.1458 5.39649 18.8747 6.92773L17.9727 12.0227C17.719 13.4555 16.4737 14.4997 15.0186 14.4997H7.38277C5.88172 14.4997 4.61171 13.3903 4.40998 11.9029L3.29503 3.68201C3.22778 3.1862 2.80445 2.81641 2.3041 2.81641L1.75 2.81641C1.33579 2.81641 1 2.48062 1 2.06641ZM5.05423 5.49192L5.89637 11.7013C5.99724 12.445 6.63225 12.9997 7.38277 12.9997H15.0186C15.7462 12.9997 16.3688 12.4776 16.4956 11.7612L17.3976 6.66624C17.5061 6.05375 17.035 5.49192 16.413 5.49192H5.05423Z" fill="#161823"/>
<path d="M7.80005 16.7498C7.80005 17.4401 7.2404 17.9998 6.55005 17.9998C5.85969 17.9998 5.30005 17.4401 5.30005 16.7498C5.30005 16.0594 5.85969 15.4998 6.55005 15.4998C7.2404 15.4998 7.80005 16.0594 7.80005 16.7498Z" fill="#161823"/>
<path d="M15.45 17.9998C16.1403 17.9998 16.7 17.4401 16.7 16.7498C16.7 16.0594 16.1403 15.4998 15.45 15.4998C14.7596 15.4998 14.2 16.0594 14.2 16.7498C14.2 17.4401 14.7596 17.9998 15.45 17.9998Z" fill="#161823"/>
</svg>
