<svg width="20" height="20" viewBox="0 0 20 20" fill="none" xmlns="http://www.w3.org/2000/svg">
<path d="M7.26904 10C7.26904 10.6904 6.7094 11.25 6.01904 11.25C5.32869 11.25 4.76904 10.6904 4.76904 10C4.76904 9.30964 5.32869 8.75 6.01904 8.75C6.7094 8.75 7.26904 9.30964 7.26904 10Z" fill="#161823"/>
<path d="M10.0002 11.25C10.6906 11.25 11.2502 10.6904 11.2502 10C11.2502 9.30964 10.6906 8.75 10.0002 8.75C9.30989 8.75 8.75024 9.30964 8.75024 10C8.75024 10.6904 9.30989 11.25 10.0002 11.25Z" fill="#161823"/>
<path d="M13.9812 11.25C14.6716 11.25 15.2312 10.6904 15.2312 10C15.2312 9.30964 14.6716 8.75 13.9812 8.75C13.2908 8.75 12.7312 9.30964 12.7312 10C12.7312 10.6904 13.2908 11.25 13.9812 11.25Z" fill="#161823"/>
<path d="M18.3337 10C18.3337 14.6024 14.6027 18.3334 10.0003 18.3334C5.39795 18.3334 1.66699 14.6024 1.66699 10C1.66699 5.39765 5.39795 1.66669 10.0003 1.66669C14.6027 1.66669 18.3337 5.39765 18.3337 10ZM16.8337 10C16.8337 6.22607 13.7743 3.16669 10.0003 3.16669C6.22638 3.16669 3.16699 6.22607 3.16699 10C3.16699 13.774 6.22638 16.8334 10.0003 16.8334C13.7743 16.8334 16.8337 13.774 16.8337 10Z" fill="#161823"/>
</svg>
