<svg width="24" height="24" viewBox="0 0 24 24" fill="none" xmlns="http://www.w3.org/2000/svg">
<path d="M16.3255 3.542C14.4678 2.5919 12.349 2.27984 10.2962 2.654C8.24349 3.02816 6.37103 4.06773 4.96802 5.61218C3.81311 6.88351 3.02919 8.43871 2.68994 10.1087C2.60747 10.5146 2.86969 10.9105 3.27561 10.993C3.68153 11.0754 4.07745 10.8132 4.15991 10.4073C4.4456 9.00101 5.10575 7.69136 6.0783 6.62078C7.25978 5.3202 8.83659 4.44477 10.5652 4.12968C12.2938 3.8146 14.0781 4.07739 15.6425 4.87748C17.0739 5.60953 18.2483 6.75414 19.017 8.15835L17.6522 8.65512C17.3494 8.7653 17.3219 9.1911 17.6071 9.35154L20.426 10.9372C20.6917 11.0867 21.0215 10.9667 21.1289 10.6813L22.2691 7.65472C22.3844 7.34848 22.0896 7.04001 21.7869 7.15019L20.4403 7.64031C19.5314 5.88044 18.0935 4.44621 16.3255 3.542Z" fill="#161823"/>
<path d="M21.3073 13.9034C21.3903 13.4976 21.1286 13.1014 20.7228 13.0184C20.3169 12.9354 19.9207 13.1971 19.8377 13.6029C19.5699 14.9124 18.9763 16.1428 18.1007 17.175C16.8745 18.6206 15.1749 19.5837 13.3047 19.8929C11.4346 20.2021 9.51541 19.8371 7.88925 18.8632C6.66194 18.1281 5.66172 17.0821 4.98264 15.8417L6.34758 15.3449C6.65031 15.2347 6.67786 14.8089 6.39264 14.6485L3.57376 13.0628C3.30804 12.9133 2.97828 13.0333 2.87081 13.3187L1.73067 16.3453C1.61531 16.6515 1.9101 16.96 2.21283 16.8498L3.55932 16.3597C4.3659 17.9213 5.59483 19.2374 7.1185 20.15C9.04956 21.3066 11.3286 21.74 13.5494 21.3728C15.7702 21.0057 17.7885 19.8619 19.2446 18.1454C20.2844 16.9195 20.9893 15.4584 21.3073 13.9034Z" fill="#161823"/>
</svg>
