<svg width="24" height="24" viewBox="0 0 24 24" fill="none" xmlns="http://www.w3.org/2000/svg">
<path d="M12.7497 1.89551C12.7497 1.48129 12.4139 1.14551 11.9997 1.14551C11.5855 1.14551 11.2497 1.48129 11.2497 1.89551V3.39551C11.2497 3.80972 11.5855 4.14551 11.9997 4.14551C12.4139 4.14551 12.7497 3.80972 12.7497 3.39551V1.89551Z" fill="#161823"/>
<path d="M11.3289 9.16457C11.5141 8.79409 11.9646 8.64392 12.3351 8.82916C12.7056 9.0144 12.8557 9.46491 12.6705 9.83539L11.7132 11.75H13.4997C13.7596 11.75 14.001 11.8846 14.1377 12.1057C14.2743 12.3268 14.2867 12.6029 14.1705 12.8354L12.6705 15.8354C12.4853 16.2059 12.0347 16.356 11.6643 16.1708C11.2938 15.9856 11.1436 15.5351 11.3289 15.1646L12.2862 13.25H10.4997C10.2397 13.25 9.99834 13.1154 9.86169 12.8943C9.72503 12.6732 9.71261 12.3971 9.82886 12.1646L11.3289 9.16457Z" fill="#161823"/>
<path d="M4.8043 12.8326C4.8043 8.85868 8.02578 5.63721 11.9997 5.63721C15.9736 5.63721 19.195 8.85868 19.195 12.8326V17C19.195 18.1046 18.2996 19 17.195 19H6.80431C5.69974 19 4.8043 18.1046 4.8043 17V12.8326ZM17.695 12.8326C17.695 9.68711 15.1451 7.13721 11.9997 7.13721C8.8542 7.13721 6.3043 9.68711 6.3043 12.8326V17C6.3043 17.2762 6.52816 17.5 6.80431 17.5H17.195C17.4712 17.5 17.695 17.2762 17.695 17V12.8326Z" fill="#161823"/>
<path d="M3.24968 21.25C3.24968 20.8358 3.58546 20.5 3.99968 20.5H19.9997C20.4139 20.5 20.7497 20.8358 20.7497 21.25C20.7497 21.6642 20.4139 22 19.9997 22H3.99968C3.58546 22 3.24968 21.6642 3.24968 21.25Z" fill="#161823"/>
<path d="M21.2657 5.73365C20.9728 5.44075 20.498 5.44075 20.2051 5.73365L19.1444 6.79431C18.8515 7.0872 18.8515 7.56207 19.1444 7.85497C19.4373 8.14786 19.9122 8.14786 20.2051 7.85497L21.2657 6.79431C21.5586 6.50141 21.5586 6.02654 21.2657 5.73365Z" fill="#161823"/>
<path d="M3.794 7.85498C4.0869 8.14787 4.56177 8.14787 4.85466 7.85498C5.14756 7.56208 5.14756 7.08721 4.85466 6.79432L3.794 5.73366C3.50111 5.44076 3.02623 5.44076 2.73334 5.73366C2.44045 6.02655 2.44045 6.50142 2.73334 6.79432L3.794 7.85498Z" fill="#161823"/>
</svg>
