<svg width="24" height="24" viewBox="0 0 24 24" fill="none" xmlns="http://www.w3.org/2000/svg">
<path fill-rule="evenodd" clip-rule="evenodd" d="M3.70696 1.20717C4.09748 0.816645 4.73065 0.816645 5.12117 1.20717L7.16083 3.24683C8.59478 2.45238 10.2446 2.00006 12 2.00006C17.5228 2.00006 22 6.47721 22 12.0001C22 13.7555 21.5477 15.4053 20.7532 16.8392L22.6752 18.7612C23.0657 19.1517 23.0657 19.7849 22.6752 20.1754C22.2847 20.566 21.6515 20.566 21.261 20.1754L20.936 19.8504C20.8994 19.7951 20.8568 19.7425 20.808 19.6938L4.12117 3.00696C4.07244 2.95824 4.01993 2.91559 3.96459 2.87902L3.70696 2.62138C3.31643 2.23086 3.31643 1.59769 3.70696 1.20717ZM4.12368 5.8379C2.79319 7.53611 2 9.67546 2 12.0001C2 17.5229 6.47715 22.0001 12 22.0001C14.3246 22.0001 16.464 21.2069 18.1622 19.8764L14.0447 15.759C13.5982 16.1228 13.1098 16.4766 12.5857 16.818C12.3811 16.9561 12.1914 17.0788 11.9974 17.0788C11.8035 17.0788 11.6189 16.9561 11.4143 16.818C8.74425 15.0788 7 13.0175 7 10.9407C7 10.263 7.17025 9.66442 7.46223 9.17645L4.12368 5.8379ZM12.4656 8.55158L16.6019 12.6879C16.8612 12.1113 17 11.5266 17 10.9407C17 9.06861 15.7008 7.80007 14.1253 7.80007C13.4404 7.80007 12.8848 8.1007 12.4656 8.55158Z" fill="#161823"/>
</svg>
