<svg width="24" height="24" viewBox="0 0 24 24" fill="none" xmlns="http://www.w3.org/2000/svg">
<path d="M13 3C13 2.44772 12.5523 2 12 2C11.4477 2 11 2.44772 11 3V11C11 11.5523 11.4477 12 12 12C12.5523 12 13 11.5523 13 11V3Z" fill="#161823"/>
<path d="M4.39155 10.5279C4.91361 8.92111 5.93094 7.52088 7.29772 6.52786C7.74453 6.20323 7.84358 5.57786 7.51895 5.13105C7.19433 4.68425 6.56896 4.5852 6.12215 4.90982C4.41367 6.1511 3.14202 7.90139 2.48944 9.90982C1.83686 11.9183 1.83685 14.0817 2.48943 16.0902C3.14201 18.0986 4.41367 19.8489 6.12215 21.0902C7.83062 22.3314 9.88821 23 12 23C14.1118 23 16.1694 22.3314 17.8779 21.0902C19.5863 19.8489 20.858 18.0986 21.5106 16.0902C22.1631 14.0817 22.1631 11.9183 21.5106 9.90982C20.858 7.90139 19.5863 6.1511 17.8779 4.90982C17.431 4.5852 16.8057 4.68425 16.4811 5.13105C16.1564 5.57786 16.2555 6.20323 16.7023 6.52786C18.0691 7.52088 19.0864 8.92111 19.6085 10.5279C20.1305 12.1346 20.1305 13.8654 19.6085 15.4721C19.0864 17.0789 18.0691 18.4791 16.7023 19.4721C15.3355 20.4652 13.6894 21 12 21C10.3106 21 8.6645 20.4652 7.29772 19.4721C5.93094 18.4791 4.91361 17.0789 4.39155 15.4721C3.86948 13.8654 3.86948 12.1346 4.39155 10.5279Z" fill="#161823"/>
</svg>
