<svg width="24" height="24" viewBox="0 0 24 24" fill="none" xmlns="http://www.w3.org/2000/svg">
<path fill-rule="evenodd" clip-rule="evenodd" d="M7.30859 9.85645C7.30859 8.30968 9.05112 7.51591 10.2607 8.31152L14.0068 10.7754C15.1267 11.5121 15.1268 13.1286 14.0068 13.8652L10.2607 16.3291C9.0512 17.1245 7.30881 16.3307 7.30859 14.7842V9.85645ZM9.21191 9.79492C9.19206 9.79422 9.16948 9.79889 9.14844 9.80957C9.12748 9.82027 9.11693 9.83235 9.11328 9.83789C9.11179 9.84014 9.10938 9.84358 9.10938 9.85645V14.7842C9.10941 14.7972 9.11181 14.8005 9.11328 14.8027C9.1171 14.8084 9.12775 14.8205 9.14844 14.8311C9.16943 14.8417 9.19211 14.8464 9.21191 14.8457C9.2288 14.8451 9.24794 14.8406 9.27148 14.8252L13.0176 12.3613C13.0354 12.3496 13.0412 12.3402 13.043 12.3369C13.0454 12.3324 13.0468 12.3266 13.0469 12.3203C13.0469 12.314 13.0453 12.3083 13.043 12.3037C13.0413 12.3006 13.0358 12.2913 13.0176 12.2793L9.27148 9.81543C9.24786 9.79989 9.22883 9.79553 9.21191 9.79492Z" fill="#161823"/>
<path d="M13.8652 8.49707C14.1213 8.10784 14.6278 7.98163 15.0322 8.19238L15.1113 8.23926L17.3242 9.69434C19.2334 10.9504 19.2335 13.6893 17.3242 14.9453L15.1113 16.4004C14.6962 16.6734 14.1384 16.5585 13.8652 16.1436C13.5921 15.7283 13.7078 15.1706 14.123 14.8975L16.335 13.4414C17.1631 12.8965 17.163 11.7432 16.335 11.1982L14.123 9.74316L14.0479 9.68848C13.6944 9.4006 13.6095 8.88622 13.8652 8.49707Z" fill="#161823"/>
<path fill-rule="evenodd" clip-rule="evenodd" d="M12.8506 2.01367C18.3036 2.28984 22.6396 6.79869 22.6396 12.3203L22.627 12.8506C22.3508 18.3035 17.8418 22.6395 12.3203 22.6396L11.7891 22.627C6.51196 22.3595 2.28093 18.1277 2.01367 12.8506L2 12.3203C2 6.62073 6.62073 2 12.3203 2L12.8506 2.01367ZM12.3203 3.7998C7.61485 3.7998 3.7998 7.61485 3.7998 12.3203C3.79997 17.0256 7.61495 20.8398 12.3203 20.8398C17.0255 20.8397 20.8397 17.0255 20.8398 12.3203C20.8398 7.61495 17.0256 3.79997 12.3203 3.7998Z" fill="#161823"/>
</svg>
