<svg width="20" height="20" viewBox="0 0 20 20" fill="none" xmlns="http://www.w3.org/2000/svg">
<path d="M4.93864 15.7454L4.2259 15.0327C3.84848 14.6553 3.79648 14.0613 4.10257 13.6241L4.78631 12.6473C4.66823 12.4176 4.56482 12.1791 4.47735 11.9329L3.27785 11.7565C2.73795 11.6771 2.33789 11.2139 2.33789 10.6682V9.27328C2.33789 8.72759 2.73796 8.26438 3.27785 8.18499L4.4774 8.00858C4.54488 7.81866 4.62185 7.63329 4.70773 7.45303L3.98407 6.47984C3.65846 6.04194 3.7031 5.43151 4.08897 5.04565L5.07533 4.05928C5.4612 3.67341 6.07162 3.62877 6.50952 3.95439L7.48281 4.67811C7.66303 4.59226 7.84837 4.51532 8.03825 4.44786L8.21469 3.24806C8.29408 2.70818 8.75728 2.30811 9.30298 2.30811H10.6979C11.2436 2.30811 11.7068 2.70817 11.7862 3.24807L11.9627 4.44797C12.1525 4.51544 12.3378 4.59239 12.518 4.67824L13.4915 3.95441C13.9294 3.62879 14.5398 3.67344 14.9257 4.0593L15.912 5.04567C16.2979 5.43153 16.3425 6.04196 16.0169 6.47987L15.293 7.45338C15.4039 7.68623 15.5 7.92761 15.5799 8.17626L16.7543 8.38351C17.2799 8.47627 17.6631 8.933 17.6631 9.46677V10.4747C17.6631 11.0085 17.2799 11.4652 16.7543 11.558L15.58 11.7652C15.4817 12.0709 15.3591 12.3656 15.2145 12.6469L15.8984 13.624C16.2045 14.0613 16.1525 14.6552 15.7751 15.0327L15.0624 15.7454C14.6849 16.1228 14.091 16.1748 13.6537 15.8687L12.6767 15.1848C12.3953 15.3295 12.1006 15.4521 11.7949 15.5504L11.5877 16.7245C11.4949 17.2501 11.0382 17.6333 10.5044 17.6333H9.49647C8.96271 17.6333 8.50597 17.2501 8.41321 16.7245L8.20604 15.5505C7.90028 15.4523 7.60554 15.3296 7.32414 15.185L6.34726 15.8688C5.90999 16.1749 5.31607 16.1229 4.93864 15.7454ZM10.0005 13.0464C11.6992 13.0464 13.0763 11.6694 13.0763 9.97068C13.0763 8.27201 11.6992 6.89496 10.0005 6.89496C8.30185 6.89496 6.9248 8.27201 6.9248 9.97068C6.9248 11.6694 8.30185 13.0464 10.0005 13.0464Z" fill="#161823"/>
</svg>
