<svg width="20" height="20" viewBox="0 0 20 20" fill="none" xmlns="http://www.w3.org/2000/svg">
<path d="M14.5835 1C12.0982 1 10.0835 3.01472 10.0835 5.5V7.5H3.58008C2.0613 7.5 0.830078 8.73121 0.830078 10.25V15.5833C0.830078 17.1021 2.06129 18.3333 3.58008 18.3333H11.4134C12.9322 18.3333 14.1634 17.1021 14.1634 15.5833V10.25C14.1634 8.78833 13.0231 7.59301 11.5835 7.50517V5.5C11.5835 3.84315 12.9266 2.5 14.5835 2.5C16.2404 2.5 17.5835 3.84315 17.5835 5.5V7.58333C17.5835 7.99755 17.9193 8.33333 18.3335 8.33333C18.7477 8.33333 19.0835 7.99755 19.0835 7.58333V5.5C19.0835 3.01472 17.0688 1 14.5835 1Z" fill="#161823"/>
</svg>
