<svg width="20" height="20" viewBox="0 0 20 20" fill="none" xmlns="http://www.w3.org/2000/svg">
<path d="M18.75 10C18.75 5.16751 14.8325 1.25 10 1.25C5.16751 1.25 1.25 5.16751 1.25 10C1.25 14.8325 5.16751 18.75 10 18.75C14.8325 18.75 18.75 14.8325 18.75 10ZM5.5031 10.5267C5.21021 10.2338 5.21021 9.75891 5.5031 9.46602L8.92569 6.04343C9.21858 5.75054 9.69345 5.75054 9.98635 6.04343C10.2792 6.33632 10.2792 6.8112 9.98635 7.10409L7.84047 9.24997H14.2428C14.657 9.24997 14.9928 9.58576 14.9928 9.99997C14.9928 10.4142 14.657 10.75 14.2428 10.75H7.84772L9.98635 12.8886C10.2792 13.1815 10.2792 13.6564 9.98635 13.9493C9.69345 14.2422 9.21858 14.2422 8.92569 13.9493L5.5031 10.5267Z" fill="#161823"/>
</svg>
