<svg width="16" height="16" viewBox="0 0 16 16" fill="none" xmlns="http://www.w3.org/2000/svg">
<path fill-rule="evenodd" clip-rule="evenodd" d="M4.03529 5.2497C3.54689 6.13031 3.30829 7.20397 3.25999 8.28868C3.30701 8.26649 3.35554 8.24637 3.40551 8.22849L3.66173 8.13681C4.49372 7.83909 5.40953 8.27221 5.70725 9.1042L6.81961 12.2128C7.11733 13.0448 6.68421 13.9606 5.85222 14.2583L5.596 14.35C4.77188 14.6449 3.9707 14.2616 3.46974 13.57C3.45204 13.5504 3.43542 13.5295 3.42005 13.5072C2.70722 12.473 2.25828 11.2234 2.11562 9.90697C1.93245 8.21671 2.11162 6.24403 2.98589 4.66768C3.88459 3.04728 5.49249 1.90002 7.99379 1.90002C10.494 1.90003 12.1036 3.04275 13.0054 4.65939C13.8827 6.2322 14.0654 8.20151 13.8853 9.89176C13.745 11.2086 13.2983 12.4592 12.5875 13.4952C12.5735 13.5155 12.5586 13.5347 12.5427 13.5527C12.0426 14.2552 11.235 14.6473 10.404 14.35L10.1478 14.2583C9.31584 13.9606 8.88272 13.0448 9.18044 12.2128L10.2928 9.1042C10.5905 8.27221 11.5063 7.83909 12.3383 8.13681L12.5945 8.22849C12.644 8.24617 12.692 8.26604 12.7385 8.28793C12.6894 7.20075 12.4489 6.1252 11.9574 5.24394C11.2662 4.00479 10.0561 3.10003 7.99379 3.10002C5.93249 3.10002 4.72437 4.00727 4.03529 5.2497ZM12.6756 9.9056C12.6722 9.82081 12.6219 9.7142 12.5313 9.60841C12.4314 9.49185 12.3005 9.3978 12.1902 9.35834L11.934 9.26665C11.726 9.19222 11.4971 9.3005 11.4226 9.5085L10.3103 12.6171C10.2359 12.8251 10.3441 13.054 10.5521 13.1285L10.8083 13.2202C10.851 13.2354 10.9095 13.2383 10.9818 13.2248C11.0532 13.2115 11.1318 13.1835 11.2099 13.1445C11.3664 13.0666 11.5053 12.9534 11.5739 12.8544C11.5814 12.8415 11.5894 12.8288 11.598 12.8163C12.1637 11.9919 12.5391 10.9857 12.6756 9.9056ZM4.4081 12.8262C3.83959 12.0014 3.46191 10.9933 3.32427 9.91053C3.32594 9.82496 3.37639 9.71626 3.46877 9.60841C3.56862 9.49185 3.69952 9.3978 3.80981 9.35834L4.06602 9.26665C4.27402 9.19222 4.50298 9.3005 4.5774 9.5085L5.68977 12.6171C5.7642 12.8251 5.65592 13.054 5.44792 13.1285L5.19171 13.2202C5.15077 13.2348 5.09238 13.2367 5.01796 13.2209C4.94472 13.2054 4.86392 13.1745 4.78394 13.1334C4.62477 13.0516 4.48727 12.9394 4.42738 12.856C4.42129 12.8459 4.41486 12.836 4.4081 12.8262Z" fill="#161823"/>
</svg>
