<svg width="12" height="12" viewBox="0 0 12 12" fill="none" xmlns="http://www.w3.org/2000/svg">
<path d="M6.49988 8.1C6.49988 8.37614 6.27602 8.6 5.99988 8.6C5.72374 8.6 5.49988 8.37614 5.49988 8.1V5.6C5.49988 5.32386 5.72374 5.1 5.99988 5.1C6.27602 5.1 6.49988 5.32386 6.49988 5.6V8.1Z" fill="#161823"/>
<path d="M5.99997 3.5C5.69622 3.5 5.44997 3.74624 5.44997 4.05C5.44997 4.35375 5.69622 4.6 5.99997 4.6C6.30373 4.6 6.54997 4.35375 6.54997 4.05C6.54997 3.74624 6.30373 3.5 5.99997 3.5Z" fill="#161823"/>
<path d="M6 11C8.76142 11 11 8.76142 11 6C11 3.23858 8.76142 1 6 1C3.23858 1 1 3.23858 1 6C1 8.76142 3.23858 11 6 11ZM6 10C3.79086 10 2 8.20914 2 6C2 3.79086 3.79086 2 6 2C8.20914 2 10 3.79086 10 6C10 8.20914 8.20914 10 6 10Z" fill="#161823"/>
</svg>
