<svg width="20" height="20" viewBox="0 0 20 20" fill="none" xmlns="http://www.w3.org/2000/svg">
<path fill-rule="evenodd" clip-rule="evenodd" d="M10.2493 2.40314C10.6203 1.98759 11.1509 1.75 11.7079 1.75C13.0202 1.75 13.96 3.01709 13.5791 4.27288L12.7812 6.9033H16.7968C17.6713 6.9033 18.3802 7.61218 18.3802 8.48663V9.93369C18.3802 10.3484 18.3008 10.7593 18.1463 11.1442L16.5878 15.0274L19.0301 17.4697C19.323 17.7626 19.323 18.2374 19.0301 18.5303C18.7372 18.8232 18.2623 18.8232 17.9694 18.5303L2.96943 3.53033C2.67653 3.23744 2.67653 2.76256 2.96943 2.46967C3.26232 2.17678 3.73719 2.17678 4.03009 2.46967L7.28453 5.72411L10.2493 2.40314ZM8.34689 6.78648L15.4344 13.874L16.7542 10.5855C16.8374 10.3783 16.8802 10.157 16.8802 9.93369V8.48663C16.8802 8.4406 16.8429 8.4033 16.7968 8.4033H11.77C11.5325 8.4033 11.3091 8.29082 11.1676 8.10008C11.0262 7.90933 10.9834 7.66286 11.0523 7.4356L12.1437 3.83749C12.2324 3.54506 12.0135 3.25 11.7079 3.25C11.5782 3.25 11.4547 3.30533 11.3683 3.4021L8.34689 6.78648Z" fill="#161823"/>
<path fill-rule="evenodd" clip-rule="evenodd" d="M13.6595 16.2204L14.9809 17.5418C14.7263 17.6573 14.4456 17.7204 14.1545 17.7204L4.06185 17.7203C3.1874 17.7203 2.47852 17.0114 2.47852 16.137V8.48663C2.47852 7.61218 3.1874 6.9033 4.06185 6.9033H4.34239L7.31765 9.87856V16.2203L13.6595 16.2204ZM5.81765 8.4033H4.06185C4.01583 8.4033 3.97852 8.4406 3.97852 8.48663V16.137C3.97852 16.183 4.01583 16.2203 4.06185 16.2203H5.81765V8.4033Z" fill="#161823"/>
</svg>
