<svg width="24" height="24" viewBox="0 0 24 24" fill="none" xmlns="http://www.w3.org/2000/svg">
<path fill-rule="evenodd" clip-rule="evenodd" d="M6.75 4.5H17.25C18.4926 4.5 19.5 5.50736 19.5 6.75V17.25C19.5 17.6618 19.3894 18.0478 19.1962 18.3798C18.7816 17.6912 18.196 17.085 17.4964 16.5881C16.0735 15.5775 14.1366 14.9789 12 14.9789C9.86346 14.9789 7.92655 15.5775 6.50367 16.5881C5.80402 17.0851 5.21839 17.6912 4.80384 18.3799C4.61065 18.0478 4.5 17.6618 4.5 17.25V6.75C4.5 5.50736 5.50736 4.5 6.75 4.5ZM5.63257 20.8307C5.98551 20.9407 6.36083 21 6.75 21H17.25C19.3211 21 21 19.3211 21 17.25V6.75C21 4.67893 19.3211 3 17.25 3H6.75C4.67893 3 3 4.67893 3 6.75V17.25C3 18.3335 3.45954 19.3097 4.19435 19.9943C4.19435 19.9944 4.19434 19.9944 4.19434 19.9944C4.60014 20.3725 5.0899 20.6616 5.63257 20.8307C5.63257 20.8307 5.63257 20.8307 5.63257 20.8307ZM5.97316 19.3623C6.26348 18.7934 6.73436 18.2641 7.37225 17.8111C8.50822 17.0043 10.1314 16.4789 12 16.4789C13.8686 16.4789 15.4918 17.0043 16.6278 17.8111C17.2657 18.2641 17.7366 18.7934 18.0269 19.3623C17.7847 19.4514 17.5231 19.5 17.25 19.5H6.75C6.47696 19.5 6.21528 19.4514 5.97316 19.3623ZM10.0165 9.85C10.0165 8.44743 10.9939 7.48334 11.9998 7.48334C13.0057 7.48334 13.9831 8.44743 13.9831 9.85C13.9831 11.2526 13.0057 12.2167 11.9998 12.2167C10.9939 12.2167 10.0165 11.2526 10.0165 9.85ZM11.9998 5.98334C9.98657 5.98334 8.51647 7.81 8.51647 9.85C8.51647 11.89 9.98657 13.7167 11.9998 13.7167C14.013 13.7167 15.4831 11.89 15.4831 9.85C15.4831 7.81 14.013 5.98334 11.9998 5.98334Z" fill="#161823"/>
</svg>
