<svg width="20" height="20" viewBox="0 0 20 20" fill="none" xmlns="http://www.w3.org/2000/svg">
<path d="M9.99941 1.66998C8.02337 1.66998 6.59741 3.48013 6.59741 5.47998C6.59741 5.79471 6.63273 6.10474 6.69995 6.40375L3.34088 3.04468C3.04798 2.75179 2.57311 2.75179 2.28022 3.04468C2.02611 3.29878 1.99246 3.68986 2.17926 3.98024L16.8704 18.6714C17.1608 18.8582 17.5519 18.8246 17.806 18.5705C18.0989 18.2776 18.0989 17.8027 17.806 17.5098L17.2565 16.9603C17.4085 16.644 17.4936 16.2894 17.4936 15.915V15.7981C17.4936 14.1815 16.5835 12.7858 15.2284 11.8233C14.0091 10.9573 12.3952 10.4099 10.6049 10.3087L9.55498 9.25879C9.69963 9.27934 9.8479 9.28998 9.99941 9.28998C11.9754 9.28998 13.4014 7.47984 13.4014 5.47998C13.4014 3.48013 11.9754 1.66998 9.99941 1.66998Z" fill="#161823"/>
<path d="M14.7473 18.3317L7.11655 10.7009C6.23843 10.9634 5.44401 11.3447 4.77014 11.8233C3.41499 12.7858 2.50488 14.1815 2.50488 15.7981V15.915C2.50488 17.2497 3.58686 18.3317 4.92155 18.3317H14.7473Z" fill="#161823"/>
</svg>
