<svg width="16" height="16" viewBox="0 0 16 16" fill="none" xmlns="http://www.w3.org/2000/svg">
<path d="M4.67591 2.4959H10.9061V10.5951L7.32373 14.1774C6.89362 14.6075 6.19629 14.6075 5.76619 14.1774C5.6935 14.1047 5.6338 14.0061 5.58707 13.8815C5.54035 13.7569 5.51698 13.6375 5.51698 13.5233V13.3052L6.2023 10.5951H2.80688C2.4746 10.5951 2.18386 10.4705 1.93466 10.2213C1.68545 9.97208 1.56085 9.68134 1.56085 9.34906C1.56085 9.09285 1.56746 8.69036 1.57365 8.3698C1.58004 8.03906 1.64882 7.71419 1.77611 7.40886C2.1657 6.47439 3.05225 4.3506 3.52334 3.24352C3.6168 3.03585 3.77254 2.85933 3.9906 2.71396C4.20865 2.56859 4.43709 2.4959 4.67591 2.4959ZM11.9083 10.5951V2.49592H13.4004C13.9527 2.49592 14.4004 2.94363 14.4004 3.49592V9.5951C14.4004 10.1474 13.9527 10.5951 13.4004 10.5951H11.9083Z" fill="#161823"/>
</svg>
