<svg width="24" height="24" viewBox="0 0 24 24" fill="none" xmlns="http://www.w3.org/2000/svg">
<g filter="url(#filter0_d_21023_3148)">
<path fill-rule="evenodd" clip-rule="evenodd" d="M7.12227 7.286C7.12227 6.50629 7.75434 5.87422 8.53405 5.87422H8.83529C9.58156 5.87422 10.1865 6.47919 10.1865 7.22545C10.1865 8.11211 9.98932 8.98767 9.60918 9.78871L5.40918 18.6391C5.27686 18.918 5.29664 19.2452 5.46159 19.506C5.62653 19.7669 5.91364 19.925 6.22227 19.925H11.0865C11.5836 19.925 11.9865 19.5221 11.9865 19.025C11.9865 18.5279 11.5836 18.125 11.0865 18.125H7.64556L11.2354 10.5604C11.7299 9.51822 11.9865 8.37905 11.9865 7.22545C11.9865 5.48507 10.5757 4.07422 8.83529 4.07422H8.53405C6.76023 4.07422 5.32227 5.51218 5.32227 7.286C5.32227 7.78306 5.72521 8.186 6.22227 8.186C6.71932 8.186 7.12227 7.78306 7.12227 7.286ZM13.3675 11.1707C13.7487 10.8517 14.3163 10.9022 14.6352 11.2835L16.9391 14.0374L19.2429 11.2835C19.5619 10.9022 20.1295 10.8517 20.5107 11.1707C20.8919 11.4896 20.9425 12.0572 20.6235 12.4384L18.1125 15.4401L20.6235 18.4417C20.9425 18.8229 20.8919 19.3905 20.5107 19.7095C20.1295 20.0284 19.5619 19.9779 19.2429 19.5966L16.9391 16.8427L14.6352 19.5966C14.3163 19.9779 13.7487 20.0284 13.3675 19.7095C12.9862 19.3905 12.9357 18.8229 13.2546 18.4417L15.7657 15.4401L13.2546 12.4384C12.9357 12.0572 12.9862 11.4896 13.3675 11.1707Z" fill="white"/>
</g>
<defs>
<filter id="filter0_d_21023_3148" x="3.32227" y="2.57422" width="19.5107" height="19.8508" filterUnits="userSpaceOnUse" color-interpolation-filters="sRGB">
<feFlood flood-opacity="0" result="BackgroundImageFix"/>
<feColorMatrix in="SourceAlpha" type="matrix" values="0 0 0 0 0 0 0 0 0 0 0 0 0 0 0 0 0 0 127 0" result="hardAlpha"/>
<feOffset dy="0.5"/>
<feGaussianBlur stdDeviation="1"/>
<feComposite in2="hardAlpha" operator="out"/>
<feColorMatrix type="matrix" values="0 0 0 0 0 0 0 0 0 0 0 0 0 0 0 0 0 0 0.2 0"/>
<feBlend mode="normal" in2="BackgroundImageFix" result="effect1_dropShadow_21023_3148"/>
<feBlend mode="normal" in="SourceGraphic" in2="effect1_dropShadow_21023_3148" result="shape"/>
</filter>
</defs>
</svg>
