<svg width="20" height="20" viewBox="0 0 20 20" fill="none" xmlns="http://www.w3.org/2000/svg">
<path d="M9.99935 18.3333C14.6017 18.3333 18.3327 14.6024 18.3327 9.99999C18.3327 5.39762 14.6017 1.66666 9.99935 1.66666C5.39698 1.66666 1.66602 5.39762 1.66602 9.99999C1.66602 14.6024 5.39698 18.3333 9.99935 18.3333ZM10.0517 5.39999C10.6012 5.39999 11.0441 5.8504 11.0348 6.39985L10.9654 10.5017C10.9569 11.0002 10.5504 11.4 10.0517 11.4C9.55309 11.4 9.14652 11.0002 9.13808 10.5017L9.06865 6.39985C9.05935 5.8504 9.5022 5.39999 10.0517 5.39999ZM10.0827 14.4C9.53044 14.4 9.08273 13.9523 9.08273 13.4C9.08273 12.8477 9.53044 12.4 10.0827 12.4C10.635 12.4 11.0827 12.8477 11.0827 13.4C11.0827 13.9523 10.635 14.4 10.0827 14.4Z" fill="#161823"/>
</svg>
