<svg width="20" height="20" viewBox="0 0 20 20" fill="none" xmlns="http://www.w3.org/2000/svg">
<path d="M7.31818 1.92295C7.11267 1.56331 6.65453 1.43836 6.29489 1.64387C5.93526 1.84938 5.81031 2.30752 6.01582 2.66715L7.04129 4.46173H4.79199C2.99707 4.46173 1.54199 5.91681 1.54199 7.71173V14.3784C1.54199 16.1733 2.99707 17.6284 4.79199 17.6284H15.2087C17.0036 17.6284 18.4587 16.1733 18.4587 14.3784V7.71173C18.4587 5.91681 17.0036 4.46173 15.2087 4.46173H12.9593L13.9848 2.66715C14.1903 2.30752 14.0654 1.84938 13.7057 1.64387C13.3461 1.43836 12.8879 1.56331 12.6824 1.92295L11.2317 4.46173H8.76891L7.31818 1.92295ZM12.8241 13.1873H12.8876L14.328 8.59256C14.4647 8.12869 14.6649 7.93826 15.0165 7.93826C15.3924 7.93826 15.6659 8.17752 15.6659 8.52908C15.6659 8.66092 15.6219 8.88065 15.5633 9.06131L13.913 13.7976C13.6981 14.4422 13.3905 14.7156 12.8485 14.7156C12.2967 14.7156 11.9794 14.4373 11.7645 13.7976L10.119 9.06131C10.0506 8.86111 10.0116 8.67068 10.0116 8.53397C10.0116 8.1824 10.2899 7.93826 10.6708 7.93826C11.0126 7.93826 11.2274 8.14334 11.3641 8.59256L12.8241 13.1873ZM7.72858 14.0125C7.72858 14.4471 7.47467 14.7156 7.0694 14.7156C6.65924 14.7156 6.41022 14.4519 6.41022 14.0125V9.11014H4.99908C4.67194 9.11014 4.43268 8.87576 4.43268 8.55838C4.43268 8.23611 4.67194 8.00174 4.99908 8.00174H9.14459C9.47662 8.00174 9.711 8.23123 9.711 8.55838C9.711 8.88065 9.47662 9.11014 9.14459 9.11014H7.72858V14.0125Z" fill="#161823"/>
</svg>
