<svg width="20" height="20" viewBox="0 0 20 20" fill="none" xmlns="http://www.w3.org/2000/svg">
<path d="M1.69933 9.25003C2.07858 4.99946 5.64932 1.66737 9.99842 1.6669L9.9996 1.66602L10.0008 1.6669C14.6025 1.66767 18.3327 5.39834 18.3327 10.0002C18.3327 14.6022 14.6023 18.333 10.0005 18.3336L9.9996 18.3342L9.99875 18.3336C5.64936 18.3333 2.07836 15.0009 1.69929 10.75H1.66643V10.084C1.66615 10.0561 1.66602 10.0282 1.66602 10.0002C1.66602 9.97229 1.66615 9.94438 1.66643 9.9165V9.25003H1.69933ZM12.6352 10.75H7.36399C7.54617 12.9398 8.51912 14.905 9.9996 16.3598C11.4801 14.905 12.453 12.9398 12.6352 10.75ZM7.364 9.25003H12.6352C12.453 7.0603 11.48 5.09523 9.9996 3.6404C8.51916 5.09523 7.54622 7.0603 7.364 9.25003ZM5.85952 9.25003C6.01658 7.0427 6.8614 5.0255 8.1809 3.41151C5.5228 4.14349 3.51348 6.44093 3.20673 9.25003H5.85952ZM3.20668 10.75C3.51329 13.5594 5.5228 15.8571 8.18116 16.589C6.86148 14.9749 6.01655 12.9576 5.85951 10.75H3.20668ZM14.1397 10.75C13.9827 12.9575 13.1378 14.9748 11.8182 16.5888C14.4762 15.8567 16.4854 13.5592 16.792 10.75H14.1397ZM16.792 9.25003C16.4852 6.44116 14.4762 4.14387 11.8184 3.41169C13.1379 5.02565 13.9826 7.04278 14.1397 9.25003H16.792Z" fill="#161823"/>
</svg>
