<svg width="20" height="20" viewBox="0 0 20 20" fill="none" xmlns="http://www.w3.org/2000/svg">
<path d="M6.8705 9.02471C6.45657 9.02471 6.12082 9.35933 6.12082 9.77234C6.12082 10.1854 6.45657 10.52 6.8705 10.52H11.6017C12.0156 10.52 12.3514 10.1854 12.3514 9.77234C12.3514 9.35933 12.0156 9.02471 11.6017 9.02471H6.8705Z" fill="#161823"/>
<path d="M6.8705 12.327H9.70921C10.1231 12.327 10.4589 12.6616 10.4589 13.0746C10.4589 13.4876 10.1231 13.8222 9.70921 13.8222H6.8705C6.45657 13.8222 6.12082 13.4876 6.12082 13.0746C6.12082 12.6616 6.45657 12.327 6.8705 12.327Z" fill="#161823"/>
<path d="M14.5349 4.23715V4.59021H14.7315C16.1906 4.59021 17.3736 5.76967 17.3736 7.22485V15.8651C17.3736 17.3203 16.1906 18.4998 14.7315 18.4998H5.2691C3.80999 18.4998 2.62695 17.3203 2.62695 15.8651L2.651 3.59956C2.80744 2.55818 3.70825 1.75977 4.79599 1.75977H12.0505C13.4225 1.75977 14.5349 2.86882 14.5349 4.23715ZM4.12631 15.8651C4.12631 16.4943 4.63785 17.0045 5.2691 17.0045H14.7315C15.3627 17.0045 15.8743 16.4943 15.8743 15.8651V7.22485C15.8743 6.5957 15.3627 6.08547 14.7315 6.08547L4.79599 6.08554C4.56235 6.08554 4.33726 6.04869 4.12631 5.98047V15.8651ZM13.0356 4.59021V4.23715C13.0356 3.69485 12.5946 3.25502 12.0505 3.25502H4.79599C4.42602 3.25502 4.12631 3.55404 4.12631 3.92265C4.12631 4.29127 4.42602 4.59028 4.79599 4.59028L13.0356 4.59021Z" fill="#161823"/>
</svg>
