<svg width="24" height="24" viewBox="0 0 24 24" fill="none" xmlns="http://www.w3.org/2000/svg">
<path fill-rule="evenodd" clip-rule="evenodd" d="M7.0754 4.125C7.48939 1.78197 9.53662 0.00268555 11.999 0.00268555C14.4614 0.00268555 16.5087 1.78197 16.9226 4.125H21.0875C22.1283 4.125 22.972 4.96873 22.972 6.00952C22.972 6.49277 22.5803 6.88452 22.097 6.88452C21.6138 6.88452 21.222 6.49277 21.222 6.00952C21.222 5.93523 21.1618 5.875 21.0875 5.875H2.87546C2.80116 5.875 2.74094 5.93523 2.74094 6.00952C2.74094 6.49277 2.34919 6.88452 1.86594 6.88452C1.38269 6.88452 0.990936 6.49277 0.990936 6.00952C0.990936 4.96873 1.83467 4.125 2.87546 4.125H7.0754ZM8.60947 4.125C8.99821 2.61717 10.3681 1.50269 11.999 1.50269C13.63 1.50269 14.9998 2.61717 15.3886 4.125H8.60947Z" fill="#161823"/>
<path d="M2.72656 22.0059C2.72656 21.5226 2.33481 21.1309 1.85156 21.1309C1.36831 21.1309 0.976562 21.5226 0.976562 22.0059C0.976562 23.0414 1.81631 23.8809 2.85185 23.8809L20.9788 23.875C22.011 23.8748 22.8477 23.0381 22.8477 22.0059C22.8477 21.5226 22.4559 21.1309 21.9727 21.1309C21.4894 21.1309 21.0977 21.5226 21.0977 22.0059C21.0977 22.0717 21.044 22.125 20.9783 22.125L2.85144 22.1309C2.78246 22.1308 2.72656 22.0749 2.72656 22.0059Z" fill="#161823"/>
<path d="M14.9692 8.25055C15.244 8.43577 15.3166 8.80867 15.1313 9.08344L13.5035 11.4983C13.3183 11.773 12.9454 11.8456 12.6706 11.6604C12.3959 11.4752 12.3233 11.1023 12.5085 10.8275L14.1363 8.4127C14.3215 8.13793 14.6944 8.06533 14.9692 8.25055Z" fill="#161823"/>
<path d="M14.9692 11.756C15.244 11.9412 15.3166 12.3141 15.1314 12.5889L14.4748 13.5629C14.49 13.6157 14.4981 13.6714 14.4981 13.7291V19.4596C14.4981 19.791 14.2295 20.0596 13.8981 20.0596C13.5667 20.0596 13.2981 19.791 13.2981 19.4596V15.3085L13.142 15.5401C12.9568 15.8148 12.5839 15.8874 12.3091 15.7022C12.0343 15.517 11.9618 15.1441 12.147 14.8693L14.1363 11.9182C14.3215 11.6434 14.6944 11.5708 14.9692 11.756Z" fill="#161823"/>
<path d="M17.4573 7.82021C17.7887 7.82021 18.0573 8.08883 18.0573 8.42021V9.31918H18.6201C18.9514 9.31918 19.2201 9.58781 19.2201 9.91918C19.2201 10.2505 18.9514 10.5192 18.6201 10.5192H18.0573V12.0986H18.9016C19.233 12.0986 19.5016 12.3672 19.5016 12.6986C19.5016 13.0299 19.233 13.2986 18.9016 13.2986H18.0573V14.9248H18.7981C19.1294 14.9248 19.3981 15.1934 19.3981 15.5248C19.3981 15.8562 19.1294 16.1248 18.7981 16.1248H18.0573V17.8771L18.9153 17.7683C19.2443 17.7267 19.5339 17.9603 19.562 18.2902C19.5901 18.6201 19.3462 18.9213 19.0172 18.963L15.7538 19.3765C15.4248 19.4182 15.1353 19.1845 15.1072 18.8546C15.0791 18.5247 15.323 18.2235 15.652 18.1818L16.8573 18.0291V16.1248H16.1164C15.785 16.1248 15.5164 15.8562 15.5164 15.5248C15.5164 15.1934 15.785 14.9248 16.1164 14.9248H16.8573V13.2986H16.013C15.6817 13.2986 15.413 13.0299 15.413 12.6986C15.413 12.3672 15.6817 12.0986 16.013 12.0986H16.8573V10.5192H16.2944C15.9631 10.5192 15.6944 10.2505 15.6944 9.91918C15.6944 9.58781 15.9631 9.31918 16.2944 9.31918H16.8573V8.42021C16.8573 8.08883 17.1259 7.82021 17.4573 7.82021Z" fill="#161823"/>
<path d="M19.7402 9.32585C19.7402 8.99447 20.0089 8.72585 20.3402 8.72585H22.1592C22.4906 8.72585 22.7592 8.99447 22.7592 9.32585C22.7592 9.65722 22.4906 9.92585 22.1592 9.92585L20.3402 9.92585C20.0089 9.92585 19.7402 9.65722 19.7402 9.32585Z" fill="#161823"/>
<path d="M22.0119 12.8573H22.3989C22.7303 12.8573 22.9989 12.5886 22.9989 12.2573C22.9989 11.9259 22.7303 11.6573 22.3989 11.6573H20.2555C19.9241 11.6573 19.6555 11.9259 19.6555 12.2573C19.6555 12.5886 19.9241 12.8573 20.2555 12.8573H20.8119V18.6888C20.8119 18.9097 20.6329 19.0888 20.4119 19.0888H19.8185C19.4871 19.0888 19.2185 19.3575 19.2185 19.6888C19.2185 20.0202 19.4871 20.2888 19.8185 20.2888H20.4119C21.2956 20.2888 22.0119 19.5725 22.0119 18.6888V12.8573Z" fill="#161823"/>
<path d="M2.49288 8.79333C2.29299 8.52904 1.9167 8.47684 1.65241 8.67673C1.38811 8.87662 1.33591 9.25291 1.5358 9.51721L2.25259 10.4649C2.45248 10.7292 2.82878 10.7814 3.09307 10.5815C3.35736 10.3817 3.40957 10.0054 3.20968 9.74107L2.49288 8.79333Z" fill="#161823"/>
<path d="M1.00445 12.5209C1.00445 12.1895 1.27308 11.9209 1.60445 11.9209H2.63839C2.96976 11.9209 3.23839 12.1895 3.23839 12.5209V16.3741C3.23839 16.7269 3.18742 17.0764 3.10836 17.4069C3.21069 17.6433 3.40128 17.9536 3.6721 18.2158C3.98893 18.5224 4.37719 18.7288 4.83187 18.7288H10.8209C11.1523 18.7288 11.4209 18.9974 11.4209 19.3288C11.4209 19.6601 11.1523 19.9288 10.8209 19.9288H4.83187C3.98275 19.9288 3.31047 19.5358 2.83748 19.078C2.74983 18.9931 2.6677 18.9049 2.59118 18.8147C2.47797 19.0471 2.36903 19.2432 2.28315 19.3892C2.23063 19.4785 2.18638 19.5496 2.15455 19.5994C2.13862 19.6243 2.12578 19.644 2.11653 19.658L2.1054 19.6747L2.10197 19.6798L2.10081 19.6815L2.10019 19.6824L1.60445 19.3444C2.10003 19.6826 2.10011 19.6825 2.10019 19.6824C1.91339 19.9561 1.53992 20.0268 1.26622 19.84C0.99272 19.6533 0.922176 19.2804 1.10846 19.0068L1.10944 19.0053L1.1156 18.9961C1.1215 18.9871 1.13087 18.9728 1.14321 18.9535C1.16792 18.9148 1.20445 18.8562 1.24886 18.7807C1.33795 18.6293 1.45735 18.4123 1.57654 18.1538C1.82063 17.6244 2.03839 16.9747 2.03839 16.3741V13.1209H1.60445C1.27308 13.1209 1.00445 12.8522 1.00445 12.5209Z" fill="#161823"/>
<path d="M4.23161 8.35009C4.47403 8.12416 4.85369 8.13752 5.07962 8.37994L5.08091 8.38132L5.08273 8.38329L5.08794 8.38897L5.10437 8.40718C5.11792 8.42233 5.13654 8.44349 5.1595 8.47038C5.2054 8.52413 5.26883 8.60098 5.3439 8.69872C5.41833 8.79561 5.50467 8.91365 5.59702 9.05065L5.60835 9.03148C5.64295 8.97267 5.6682 8.92748 5.68418 8.8982C5.69217 8.88356 5.69784 8.87291 5.7012 8.86653L5.70434 8.86054L5.70485 8.85953C5.85517 8.56446 6.21588 8.44753 6.51112 8.59766C6.8065 8.74786 6.92419 9.10906 6.774 9.40444L6.77341 9.40559L6.7726 9.40717L6.77031 9.41162L6.76301 9.4256C6.75693 9.43714 6.74844 9.45306 6.73752 9.47308C6.71567 9.51311 6.68406 9.56956 6.64258 9.64006C6.55965 9.78099 6.43697 9.97852 6.27352 10.2136L6.24855 10.2493C6.49934 10.8452 6.69596 11.5622 6.69596 12.3491V16.0179C6.69596 16.9017 5.97955 17.6179 5.09596 17.6179H4.50335C4.17198 17.6179 3.90335 17.3492 3.90335 17.0179C3.90335 16.6865 4.17198 16.4179 4.50335 16.4179H5.09596C5.31694 16.4179 5.49596 16.2388 5.49596 16.0179V14.4543C5.26588 14.6994 5.02469 14.9403 4.78784 15.1613C4.54553 15.3873 4.16586 15.3741 3.93982 15.1318C3.71379 14.8895 3.72698 14.5098 3.96929 14.2838C4.56338 13.7296 5.1611 13.0628 5.49596 12.584V12.3491C5.49596 12.002 5.44449 11.6667 5.361 11.3513C5.18676 11.5409 4.9958 11.735 4.78784 11.929C4.54553 12.1551 4.16586 12.1419 3.93982 11.8996C3.71379 11.6572 3.72698 11.2776 3.96929 11.0515C4.31296 10.731 4.60481 10.4093 4.84578 10.1144C4.68039 9.82361 4.51508 9.58962 4.39225 9.42972C4.3309 9.34984 4.28063 9.28909 4.24694 9.24964C4.23011 9.22993 4.21747 9.21559 4.2097 9.2069L4.2018 9.19814L4.20101 9.19727C3.97605 8.95482 3.98954 8.5757 4.23161 8.35009Z" fill="#161823"/>
<path d="M7.73159 8.64186C7.40022 8.64186 7.13159 8.91049 7.13159 9.24186C7.13159 9.57323 7.40022 9.84186 7.73159 9.84186H8.58166V12.3034H7.87307C7.5417 12.3034 7.27307 12.5721 7.27307 12.9034C7.27307 13.2348 7.5417 13.5034 7.87307 13.5034H8.58166V16.4179H7.49734C7.16597 16.4179 6.89734 16.6865 6.89734 17.0179C6.89734 17.3492 7.16597 17.6179 7.49734 17.6179H10.8012C11.1326 17.6179 11.4012 17.3492 11.4012 17.0179C11.4012 16.6865 11.1326 16.4179 10.8012 16.4179H9.78166V13.5034H10.4255C10.7569 13.5034 11.0255 13.2348 11.0255 12.9034C11.0255 12.5721 10.7569 12.3034 10.4255 12.3034H9.78166V9.84186H10.567C10.8983 9.84186 11.167 9.57323 11.167 9.24186C11.167 8.91049 10.8983 8.64186 10.567 8.64186H7.73159Z" fill="#161823"/>
</svg>
