<svg width="20" height="20" viewBox="0 0 20 20" fill="none" xmlns="http://www.w3.org/2000/svg">
<path d="M12.9037 8.96744C13.631 9.46369 13.631 10.5363 12.9037 11.0325L9.49655 13.3573C8.66682 13.9235 7.54202 13.3293 7.54202 12.3248L7.54202 7.67517C7.54202 6.6707 8.66682 6.07649 9.49655 6.64263L12.9037 8.96744ZM8.84202 7.76982L8.84202 12.2301L12.1105 9.99998L8.84202 7.76982Z" fill="#161823"/>
<path d="M1.66699 6.08331C1.66699 4.56453 2.89821 3.33331 4.41699 3.33331H15.5837C17.1024 3.33331 18.3337 4.56453 18.3337 6.08331V13.9166C18.3337 15.4354 17.1024 16.6666 15.5837 16.6666H4.41699C2.89821 16.6666 1.66699 15.4354 1.66699 13.9166V6.08331ZM4.41699 4.83331C3.72663 4.83331 3.16699 5.39296 3.16699 6.08331V13.9166C3.16699 14.607 3.72664 15.1666 4.41699 15.1666H15.5837C16.274 15.1666 16.8337 14.607 16.8337 13.9166V6.08331C16.8337 5.39296 16.274 4.83331 15.5837 4.83331H4.41699Z" fill="#161823"/>
</svg>
