<svg width="20" height="20" viewBox="0 0 20 20" fill="none" xmlns="http://www.w3.org/2000/svg">
<path d="M4 3.25C4 2.83579 3.66421 2.5 3.25 2.5C2.83579 2.5 2.5 2.83579 2.5 3.25V15.9167C2.5 16.7911 3.20888 17.5 4.08333 17.5H16.75C17.1642 17.5 17.5 17.1642 17.5 16.75C17.5 16.3358 17.1642 16 16.75 16H4.08333C4.03731 16 4 15.9627 4 15.9167V3.25Z" fill="#161823"/>
<path d="M14.7649 8.8643L15.7503 9.84968C15.9052 10.0046 16.1382 10.0509 16.3406 9.9671C16.543 9.88326 16.675 9.68575 16.675 9.46667V6.36667C16.675 6.06751 16.4325 5.825 16.1333 5.825H13.0333C12.8143 5.825 12.6167 5.95697 12.5329 6.15938C12.4491 6.36179 12.4954 6.59477 12.6503 6.74968L13.7028 7.80215L11.7102 10.0177L9.7508 8.33347C9.44306 8.06895 8.98075 8.09717 8.70747 8.39716L5.61223 11.7949C5.33329 12.1011 5.35539 12.5755 5.6616 12.8544C5.9678 13.1334 6.44216 13.1113 6.72111 12.8051L9.32562 9.94599L11.2885 11.6333C11.5977 11.899 12.0625 11.8692 12.3351 11.566L14.7649 8.8643Z" fill="#161823"/>
</svg>
