<svg width="24" height="24" viewBox="0 0 24 24" fill="none" xmlns="http://www.w3.org/2000/svg">
<path fill-rule="evenodd" clip-rule="evenodd" d="M3 6.75C3 4.67893 4.67893 3 6.75 3H14.25C16.3211 3 18 4.67893 18 6.75V14.25C18 16.3211 16.3211 18 14.25 18H6.75C4.67893 18 3 16.3211 3 14.25V6.75ZM6.75 4.5H14.25C15.4926 4.5 16.5 5.50736 16.5 6.75V14.25C16.5 15.4926 15.4926 16.5 14.25 16.5H6.75C5.50736 16.5 4.5 15.4926 4.5 14.25V6.75C4.5 5.50736 5.50736 4.5 6.75 4.5Z" fill="#161823"/>
<path d="M9.75003 21C8.66705 21 7.6913 20.541 7.00675 19.8068C6.89431 19.6862 6.98524 19.5 7.15012 19.5H17.25C18.4927 19.5 19.5 18.4927 19.5 17.25V7.15012C19.5 6.98524 19.6862 6.89431 19.8068 7.00675C20.541 7.6913 21 8.66705 21 9.75003V17.25C21 19.3211 19.3211 21 17.25 21H9.75003Z" fill="#161823"/>
</svg>
