<svg width="24" height="24" viewBox="0 0 24 24" fill="none" xmlns="http://www.w3.org/2000/svg">
<path d="M5.49983 14.6922V17.2498C5.49983 17.9402 6.05947 18.4998 6.74983 18.4998H9.30743L11.1159 20.3083C11.6041 20.7965 12.3955 20.7965 12.8837 20.3083L14.6922 18.4998H17.2498C17.9402 18.4998 18.4998 17.9402 18.4998 17.2498V14.6922L20.3083 12.8837C20.7965 12.3955 20.7965 11.6041 20.3083 11.1159L18.4998 9.30744V6.74982C18.4998 6.05946 17.9402 5.49982 17.2498 5.49982H14.6922L12.8837 3.69131C12.3955 3.20316 11.6041 3.20316 11.1159 3.69131L9.30743 5.49982H6.74983C6.05947 5.49982 5.49983 6.05946 5.49983 6.74982V9.30742L3.69131 11.1159C3.20316 11.6041 3.20316 12.3955 3.69131 12.8837L5.49983 14.6922ZM2.63065 13.9444C1.55671 12.8704 1.55671 11.1292 2.63065 10.0553L3.99983 8.6861V6.74982C3.99983 5.23103 5.23105 3.99982 6.74983 3.99982H8.68611L10.0553 2.63065C11.1292 1.55671 12.8704 1.55671 13.9444 2.63065L15.3135 3.99982H17.2498C18.7686 3.99982 19.9998 5.23103 19.9998 6.74982V8.68612L21.369 10.0553C22.4429 11.1292 22.4429 12.8704 21.369 13.9444L19.9998 15.3135V17.2498C19.9998 18.7686 18.7686 19.9998 17.2498 19.9998H15.3135L13.9444 21.369C12.8704 22.4429 11.1292 22.4429 10.0553 21.369L8.68611 19.9998H6.74983C5.23105 19.9998 3.99983 18.7686 3.99983 17.2498V15.3135L2.63065 13.9444Z" fill="#161823"/>
</svg>
