<svg width="16" height="16" viewBox="0 0 16 16" fill="none" xmlns="http://www.w3.org/2000/svg">
<path d="M14.6746 4.70359L13.4049 6.88825C13.0109 6.70912 12.5853 6.62595 12.162 6.63873L13.6371 4.1006C13.7147 3.96723 13.6184 3.80002 13.4641 3.8001L2.80111 3.80527C2.74152 3.8053 2.70957 3.82077 2.68888 3.8351C2.66308 3.85297 2.63599 3.88341 2.61761 3.92596C2.59923 3.9685 2.59563 4.00909 2.60031 4.04013C2.60407 4.06501 2.6147 4.09889 2.65553 4.14229L5.79751 7.4827L10.4015 5.53976C10.6165 5.44905 10.7863 5.73721 10.6028 5.88132L6.67266 8.96789L7.45337 11.6458V12.8898C7.45337 13.519 7.66454 14.1182 8.03685 14.6007C7.4852 14.5685 6.9538 14.2197 6.77156 13.5946L5.37357 8.79935C5.36915 8.7842 5.36121 8.77031 5.3504 8.75882L1.78144 4.96446C0.941185 4.07115 1.57414 2.60586 2.80053 2.60527L13.4635 2.6001C14.5434 2.59957 15.2172 3.77 14.6746 4.70359Z" fill="#161823"/>
<path d="M13.3738 11.739C13.3738 12.3603 12.8701 12.864 12.2488 12.864C11.6275 12.864 11.1238 12.3603 11.1238 11.739C11.1238 11.1177 11.6275 10.614 12.2488 10.614C12.8701 10.614 13.3738 11.1177 13.3738 11.739Z" fill="#161823"/>
<path d="M11.4466 8.05176C11.9417 7.76595 12.5516 7.76595 13.0466 8.05176L15.0398 9.20254C15.5349 9.48835 15.8398 10.0166 15.8398 10.5882V12.8897C15.8398 13.4614 15.5349 13.9896 15.0398 14.2754L13.0466 15.4261C12.5516 15.712 11.9417 15.712 11.4466 15.4261L9.45344 14.2754C8.9584 13.9896 8.65344 13.4614 8.65344 12.8897V10.5882C8.65344 10.0166 8.9584 9.48835 9.45344 9.20254L11.4466 8.05176ZM12.4466 9.09099C12.3229 9.01954 12.1704 9.01954 12.0466 9.09099L10.0534 10.2418C9.92968 10.3132 9.85344 10.4453 9.85344 10.5882V12.8897C9.85344 13.0326 9.92968 13.1647 10.0534 13.2361L12.0466 14.3869C12.1704 14.4584 12.3229 14.4584 12.4466 14.3869L14.4398 13.2361C14.5636 13.1647 14.6398 13.0326 14.6398 12.8897V10.5882C14.6398 10.4453 14.5636 10.3132 14.4398 10.2418L12.4466 9.09099Z" fill="#161823"/>
</svg>
