<svg width="16" height="16" viewBox="0 0 16 16" fill="none" xmlns="http://www.w3.org/2000/svg">
<path d="M5.25001 2.92783C5.6402 2.34783 6.2934 2 6.99243 2H9.00678C9.70581 2 10.359 2.34783 10.7492 2.92783L11.2695 3.70128C11.3067 3.75652 11.3689 3.78965 11.4355 3.78965H12.0193C13.4553 3.78965 14.6193 4.95371 14.6193 6.38965V11.397C14.6193 12.833 13.4553 13.997 12.0193 13.997H3.97989C2.54395 13.997 1.37988 12.833 1.37988 11.397V6.38965C1.37988 4.95371 2.54394 3.78965 3.97988 3.78965H4.56375C4.63032 3.78965 4.69253 3.75652 4.72969 3.70128L5.25001 2.92783ZM5.50629 8.50322C5.50629 9.88025 6.62259 10.9966 7.99962 10.9966C9.37665 10.9966 10.493 9.88025 10.493 8.50322C10.493 7.12619 9.37665 6.00989 7.99962 6.00989C6.62259 6.00989 5.50629 7.12619 5.50629 8.50322Z" fill="#161823"/>
</svg>
