<svg width="20" height="20" viewBox="0 0 20 20" fill="none" xmlns="http://www.w3.org/2000/svg">
<path fill-rule="evenodd" clip-rule="evenodd" d="M7.17793 11.377C7.6207 12.0693 8.533 12.0096 9.03783 11.5048C9.57275 10.9699 9.49951 10.1631 9.26138 9.60087C8.91245 8.77706 9.0743 7.78937 9.74494 7.11874L12.12 4.74372C13.0031 3.86058 14.4349 3.86058 15.3181 4.74372C16.2012 5.62686 16.2012 7.05871 15.3181 7.94184L14.6464 8.6135C14.1231 9.1368 14.1231 9.98524 14.6464 10.5085C15.1697 11.0318 16.0182 11.0318 16.5415 10.5085L17.2131 9.83689C19.1429 7.90715 19.1429 4.77842 17.2131 2.84867C15.2834 0.918932 12.1546 0.918931 10.2249 2.84867L7.84989 5.22369C6.17861 6.89497 5.95504 9.46482 7.17793 11.377Z" fill="#161823"/>
<path fill-rule="evenodd" clip-rule="evenodd" d="M4.68237 15.2567C3.799 14.3734 3.799 12.9411 4.68237 12.0578L5.33816 11.402C5.86147 10.8787 5.86147 10.0302 5.33816 9.50693C4.81486 8.98363 3.96642 8.98363 3.44312 9.50693L2.78733 10.1627C0.85735 12.0927 0.85735 15.2218 2.78733 17.1518C4.7173 19.0818 7.84642 19.0818 9.77639 17.1518L12.1501 14.7781C13.8216 13.1066 14.0452 10.5363 12.8221 8.62394C12.3793 7.93164 11.467 7.99129 10.9622 8.49612C10.4272 9.03104 10.5005 9.83784 10.7387 10.4001C11.0878 11.2241 10.9259 12.2122 10.2551 12.883L7.88135 15.2567C6.99797 16.1401 5.56574 16.1401 4.68237 15.2567Z" fill="#161823"/>
</svg>
