<svg width="12" height="12" viewBox="0 0 12 12" fill="none" xmlns="http://www.w3.org/2000/svg">
<path d="M0.650391 4.75166C0.650391 2.6732 2.12271 1.16803 3.98134 1.16803C4.82197 1.16803 5.50266 1.50257 6.00064 2.0203C6.49928 1.50392 7.17678 1.16803 8.01944 1.16803C9.87807 1.16803 11.3504 2.6732 11.3504 4.75166C11.3504 5.9112 10.8634 7.02009 10.0789 8.03139C9.29509 9.04171 8.19121 9.98606 6.88825 10.8352C6.77661 10.9103 6.6469 10.989 6.51381 11.0514C6.3946 11.1073 6.20579 11.1829 5.99796 11.1829C5.78879 11.1829 5.6004 11.1064 5.48191 11.0502C5.35012 10.9876 5.22209 10.9089 5.1125 10.8352C3.80955 9.98604 2.70568 9.0417 1.92191 8.03139C1.13737 7.02009 0.650391 5.9112 0.650391 4.75166ZM3.98134 2.36803C2.84661 2.36803 1.85039 3.27309 1.85039 4.75166C1.85039 5.56501 2.19193 6.42173 2.87005 7.29585C3.54813 8.16991 4.53959 9.02991 5.77146 9.83228L5.77973 9.83766C5.86359 9.89427 5.93802 9.93836 5.99649 9.96612L5.99913 9.96736C5.99913 9.96736 6.00266 9.96573 6.00449 9.96487C6.06409 9.93694 6.13931 9.89293 6.2211 9.83773L6.22927 9.83221C7.46114 9.02984 8.45265 8.16991 9.13073 7.29585C9.80885 6.42173 10.1504 5.56501 10.1504 4.75166C10.1504 3.27309 9.15417 2.36803 8.01944 2.36803C7.34805 2.36803 6.85012 2.72316 6.52548 3.3222L6.43649 3.48639C6.24627 3.8374 5.74163 3.83487 5.55493 3.48197L5.4676 3.31689C5.15444 2.72493 4.65476 2.36803 3.98134 2.36803Z" fill="#161823"/>
</svg>
