<svg width="20" height="20" viewBox="0 0 20 20" fill="none" xmlns="http://www.w3.org/2000/svg">
<path d="M7.31818 1.92295C7.11267 1.56331 6.65453 1.43836 6.29489 1.64387C5.93526 1.84938 5.81031 2.30752 6.01582 2.66715L7.18411 4.71167H4.79199C3.13514 4.71167 1.79199 6.05482 1.79199 7.71167V14.3783C1.79199 16.0352 3.13514 17.3783 4.79199 17.3783H10.6321C10.2262 16.5902 9.99707 15.6962 9.99707 14.7486C9.99707 11.5721 12.5722 8.99701 15.7487 8.99701C16.6289 8.99701 17.4628 9.19471 18.2087 9.54812V7.71167C18.2087 6.05482 16.8655 4.71167 15.2087 4.71167H12.8166L13.9849 2.66715C14.1904 2.30752 14.0655 1.84938 13.7058 1.64387C13.3462 1.43836 12.8881 1.56331 12.6826 1.92295L11.089 4.71167H8.91174L7.31818 1.92295Z" fill="#161823"/>
<path d="M14.707 13.9987C14.2928 13.9987 13.957 14.3344 13.957 14.7487C13.957 15.1629 14.2928 15.4987 14.707 15.4987H16.7904C17.2046 15.4987 17.5404 15.1629 17.5404 14.7487C17.5404 14.3344 17.2046 13.9987 16.7904 13.9987H14.707Z" fill="#161823"/>
<path d="M15.7487 19.0002C18.0968 19.0002 20.0004 17.0967 20.0004 14.7486C20.0004 12.4005 18.0968 10.4969 15.7487 10.4969C13.4006 10.4969 11.4971 12.4005 11.4971 14.7486C11.4971 17.0967 13.4006 19.0002 15.7487 19.0002ZM15.7487 17.6002C14.1738 17.6002 12.8971 16.3235 12.8971 14.7486C12.8971 13.1737 14.1738 11.8969 15.7487 11.8969C17.3236 11.8969 18.6004 13.1737 18.6004 14.7486C18.6004 16.3235 17.3236 17.6002 15.7487 17.6002Z" fill="#161823"/>
</svg>
