<svg width="20" height="20" viewBox="0 0 20 20" fill="none" xmlns="http://www.w3.org/2000/svg">
<path d="M6.29489 1.64387C6.65453 1.43836 7.11267 1.56331 7.31818 1.92295L8.76888 4.46167H11.2319L12.6826 1.92295C12.8881 1.56331 13.3462 1.43836 13.7058 1.64387C14.0655 1.84938 14.1904 2.30752 13.9849 2.66715L12.9595 4.46167H15.2087C17.0036 4.46167 18.4587 5.91674 18.4587 7.71167V9.67227C17.9932 9.42319 17.4895 9.23627 16.9587 9.12261V7.71167C16.9587 6.74517 16.1752 5.96167 15.2087 5.96167H11.6826C11.6718 5.9619 11.661 5.9619 11.6502 5.96167H8.35056C8.33975 5.9619 8.32894 5.9619 8.31815 5.96167H4.79199C3.82549 5.96167 3.04199 6.74517 3.04199 7.71167V14.3783C3.04199 15.3448 3.82549 16.1283 4.79199 16.1283H10.1641C10.2955 16.6615 10.5013 17.1654 10.7699 17.6283H4.79199C2.99707 17.6283 1.54199 16.1733 1.54199 14.3783V7.71167C1.54199 5.91675 2.99707 4.46167 4.79199 4.46167H7.04125L6.01582 2.66715C5.81031 2.30752 5.93526 1.84938 6.29489 1.64387Z" fill="#161823"/>
<path d="M14.707 13.9968C14.2928 13.9968 13.957 14.3326 13.957 14.7468C13.957 15.161 14.2928 15.4968 14.707 15.4968H16.7904C17.2046 15.4968 17.5404 15.161 17.5404 14.7468C17.5404 14.3326 17.2046 13.9968 16.7904 13.9968H14.707Z" fill="#161823"/>
<path d="M15.7487 18.9984C18.0968 18.9984 20.0004 17.0948 20.0004 14.7467C20.0004 12.3986 18.0968 10.4951 15.7487 10.4951C13.4006 10.4951 11.4971 12.3986 11.4971 14.7467C11.4971 17.0948 13.4006 18.9984 15.7487 18.9984ZM15.7487 17.5984C14.1738 17.5984 12.8971 16.3216 12.8971 14.7467C12.8971 13.1718 14.1738 11.8951 15.7487 11.8951C17.3236 11.8951 18.6004 13.1718 18.6004 14.7467C18.6004 16.3216 17.3236 17.5984 15.7487 17.5984Z" fill="#161823"/>
</svg>
