<svg width="24" height="24" viewBox="0 0 24 24" fill="none" xmlns="http://www.w3.org/2000/svg">
<path fill-rule="evenodd" clip-rule="evenodd" d="M8.78803 8.56666C8.28341 6.6834 9.40102 4.74765 11.2843 4.24303C13.1675 3.73842 15.1033 4.85602 15.6079 6.73928L15.6595 6.932C15.7897 7.41784 16.2891 7.70615 16.7749 7.57598C17.2608 7.4458 17.5491 6.94642 17.4189 6.46058L17.3673 6.26786C16.6023 3.41293 13.6678 1.71869 10.8129 2.48367C7.95793 3.24864 6.26369 6.18315 7.02866 9.03808L7.47771 10.7139H5.5C4.39543 10.7139 3.5 11.6094 3.5 12.7139V19.6425C3.5 20.7471 4.39543 21.6425 5.5 21.6425H18.5C19.6046 21.6425 20.5 20.7471 20.5 19.6425V12.7139C20.5 11.6094 19.6046 10.7139 18.5 10.7139H9.36339L8.78803 8.56666ZM7.87964 12.2139L7.89072 12.2553L8.04503 12.2139H18.5C18.7761 12.2139 19 12.4378 19 12.7139V19.6425C19 19.9187 18.7761 20.1425 18.5 20.1425H5.5C5.22386 20.1425 5 19.9187 5 19.6425V12.7139C5 12.4378 5.22386 12.2139 5.5 12.2139H7.87964Z" fill="#161823"/>
</svg>
