<svg width="20" height="20" viewBox="0 0 20 20" fill="none" xmlns="http://www.w3.org/2000/svg">
<path d="M7.06655 13.4159C8.20133 14.5507 9.43071 15.542 10.655 16.2526C11.8733 16.9597 13.1229 17.4098 14.2879 17.4098C15.3677 17.4098 16.31 17.0211 17.066 16.1941L17.0676 16.1925C17.5136 15.7001 17.8328 15.0888 17.834 14.4425C17.8402 13.93 17.625 13.4179 17.1452 13.0689L14.9129 11.4847C14.5401 11.2155 14.1493 11.0364 13.7372 11.0419C13.193 11.037 12.7703 11.361 12.4293 11.702L11.957 12.1744L11.9491 12.17C11.5609 11.9279 10.8104 11.328 9.98245 10.5C9.139 9.6566 8.54279 8.93537 8.32695 8.54489C8.32498 8.54115 8.32289 8.53692 8.32081 8.53235L8.78904 8.05486L8.79116 8.05268C9.12471 7.70837 9.44571 7.2862 9.44571 6.74936C9.44571 6.33662 9.2706 5.94733 8.99772 5.56948L7.43737 3.37269C7.07757 2.86602 6.55033 2.66052 6.02427 2.65369L6.02315 2.65368C5.38072 2.64677 4.76301 2.95474 4.27073 3.42329L4.26984 3.42415C3.45102 4.20736 3.10352 5.18086 3.10352 6.22541C3.10352 7.38892 3.54484 8.63022 4.24477 9.84198C4.94784 11.0592 5.93174 12.2811 7.06655 13.4159Z" fill="#161823"/>
</svg>
