<svg width="20" height="20" viewBox="0 0 20 20" fill="none" xmlns="http://www.w3.org/2000/svg">
<path d="M7.68955 6.70475C7.52638 6.32403 7.08547 6.14767 6.70475 6.31083C6.32403 6.474 6.14767 6.91491 6.31083 7.29563L9.03509 13.6522C9.39874 14.5007 10.6016 14.5007 10.9653 13.6522L13.6896 7.29563C13.8527 6.91491 13.6764 6.474 13.2956 6.31083C12.9149 6.14767 12.474 6.32403 12.3108 6.70475L10.0002 12.0962L7.68955 6.70475Z" fill="#161823"/>
<path fill-rule="evenodd" clip-rule="evenodd" d="M11.5597 1.38857C10.5692 0.935581 9.43073 0.93558 8.44027 1.38857L6.7527 2.16038L5.01366 2.80792C3.99299 3.18797 3.18797 3.99298 2.80792 5.01366L2.16038 6.7527L1.38857 8.44026C0.935581 9.43072 0.93558 10.5692 1.38857 11.5596L2.16038 13.2472L2.80792 14.9863C3.18797 16.0069 3.99298 16.8119 5.01366 17.192L6.75272 17.8395L8.44026 18.6113C9.43072 19.0643 10.5692 19.0643 11.5597 18.6113L13.2472 17.8395L14.9863 17.192C16.0069 16.8119 16.8119 16.0069 17.192 14.9863L17.8395 13.2472L18.6113 11.5597C19.0643 10.5692 19.0643 9.43073 18.6113 8.44027L17.8395 6.75272L17.192 5.01366C16.8119 3.99299 16.0069 3.18797 14.9863 2.80792L13.2472 2.16038L11.5597 1.38857ZM9.06414 2.75267C9.65842 2.48088 10.3415 2.48088 10.9358 2.75267L12.6728 3.54711L14.4628 4.21363C15.0752 4.44166 15.5583 4.92467 15.7863 5.53708L16.4528 7.3271L17.2472 9.06414C17.519 9.65842 17.519 10.3415 17.2472 10.9358L16.4528 12.6728L15.7863 14.4628C15.5583 15.0752 15.0752 15.5583 14.4628 15.7863L12.6728 16.4528L10.9358 17.2472C10.3415 17.519 9.65842 17.519 9.06414 17.2472L7.3271 16.4528L5.53707 15.7863C4.92467 15.5583 4.44166 15.0752 4.21363 14.4628L3.54711 12.6728L2.75267 10.9358C2.48088 10.3415 2.48088 9.65842 2.75267 9.06414L3.54711 7.3271L4.21363 5.53707C4.44166 4.92467 4.92467 4.44166 5.53708 4.21363L7.3271 3.54711L9.06414 2.75267Z" fill="#161823"/>
</svg>
