<svg width="24" height="24" viewBox="0 0 24 24" fill="none" xmlns="http://www.w3.org/2000/svg">
<path d="M13.7529 11.0014C13.3387 11.0014 13.0029 10.6656 13.0029 10.2514V2.75148C13.0029 2.33727 13.3387 2.00148 13.7529 2.00148C14.1671 2.00148 14.5029 2.33727 14.5029 2.75148V9.4014C14.5029 9.45663 14.5477 9.5014 14.6029 9.5014H21.2507C21.6649 9.5014 22.0007 9.83719 22.0007 10.2514C22.0007 10.6656 21.6649 11.0014 21.2507 11.0014H13.7529Z" fill="#161823"/>
<path d="M10.2507 13.0015C10.6649 13.0015 11.0007 13.3373 11.0007 13.7515V21.2514C11.0007 21.6656 10.6649 22.0014 10.2507 22.0014C9.83651 22.0014 9.50072 21.6656 9.50072 21.2514V14.6015C9.50072 14.5462 9.45595 14.5015 9.40072 14.5015H2.75293C2.33872 14.5015 2.00293 14.1657 2.00293 13.7515C2.00293 13.3373 2.33872 13.0015 2.75293 13.0015H10.2507Z" fill="#161823"/>
</svg>
