<svg width="24" height="24" viewBox="0 0 24 24" fill="none" xmlns="http://www.w3.org/2000/svg">
<path fill-rule="evenodd" clip-rule="evenodd" d="M19.3351 13.906C19.2616 13.7884 19.1928 13.6684 19.1287 13.5462C19.0877 13.4681 19.002 13.4239 18.9147 13.4361C18.6158 13.4782 18.3105 13.5 18 13.5C17.9238 13.5 17.8479 13.4987 17.7724 13.4961C17.6253 13.491 17.5166 13.6364 17.575 13.7714C17.7137 14.0918 17.8766 14.4026 18.0631 14.701L19.2609 16.6175C19.365 16.784 19.2453 17 19.0489 17H4.95104C4.75468 17 4.63497 16.784 4.73904 16.6175L5.93686 14.701C6.6316 13.5894 6.99998 12.3049 6.99998 10.9941V9C6.99998 6.58104 8.71774 4.56329 11 4.10002V4C11 3.44772 11.4477 3 12 3C12.18 3 12.349 3.04759 12.4949 3.13088C12.6001 3.19088 12.7407 3.17762 12.8138 3.08108C13.0257 2.80111 13.2597 2.53883 13.5133 2.29685C13.5993 2.21475 13.6004 2.07565 13.5055 2.00396C13.0867 1.68761 12.5653 1.5 12 1.5C11.0146 1.5 10.1623 2.07014 9.75507 2.89855C7.27155 3.81274 5.49998 6.19815 5.49998 9V10.9941C5.49998 12.0238 5.21061 13.0328 4.66486 13.906L3.46704 15.8225C2.73855 16.9881 3.57654 18.5 4.95104 18.5H8.24998C8.24998 20.5711 9.92891 22.25 12 22.25C14.071 22.25 15.75 20.5711 15.75 18.5H19.0489C20.4234 18.5 21.2614 16.9881 20.5329 15.8225L19.3351 13.906ZM9.74998 18.5C9.74998 19.7426 10.7573 20.75 12 20.75C13.2426 20.75 14.25 19.7426 14.25 18.5H9.74998Z" fill="#161823"/>
<path fill-rule="evenodd" clip-rule="evenodd" d="M23 7C23 9.76142 20.7614 12 18 12C15.2386 12 13 9.76142 13 7C13 4.23858 15.2386 2 18 2C20.7614 2 23 4.23858 23 7ZM15.504 6.99744C15.7923 6.70003 16.2671 6.69264 16.5645 6.98095L17.3858 7.7771L19.3873 4.94241C19.6262 4.60404 20.0942 4.52342 20.4326 4.76233C20.771 5.00124 20.8516 5.46922 20.6127 5.80759L18.1057 9.35816C17.9793 9.53718 17.7809 9.65196 17.5627 9.67232C17.3445 9.69269 17.1284 9.61661 16.971 9.46408L15.5205 8.05797C15.2231 7.76967 15.2157 7.29485 15.504 6.99744Z" fill="#161823"/>
</svg>
