<svg width="16" height="16" viewBox="0 0 16 16" fill="none" xmlns="http://www.w3.org/2000/svg">
<path d="M7.33105 2.25671C7.71136 1.91443 8.28868 1.91443 8.66898 2.25671L13.669 6.75671C14.0795 7.12617 14.1128 7.75846 13.7433 8.16897C13.3738 8.57947 12.7416 8.61275 12.331 8.24329L8.00002 4.34536L3.66897 8.24329C3.25846 8.61275 2.62617 8.57947 2.25671 8.16896C1.88726 7.75845 1.92053 7.12616 2.33104 6.75671L7.33105 2.25671ZM7.33105 7.7567C7.71136 7.41443 8.28868 7.41443 8.66898 7.75671L13.669 12.2567C14.0795 12.6262 14.1128 13.2585 13.7433 13.669C13.3738 14.0795 12.7416 14.1128 12.331 13.7433L8.00002 9.84536L3.66897 13.7433C3.25846 14.1128 2.62617 14.0795 2.25671 13.669C1.88726 13.2585 1.92053 12.6262 2.33104 12.2567L7.33105 7.7567Z" fill="#161823"/>
</svg>
