<svg width="20" height="20" viewBox="0 0 20 20" fill="none" xmlns="http://www.w3.org/2000/svg">
<path d="M13.4887 16.6667L12.2412 15.4192L10.5304 17.13C10.2375 17.4229 9.76262 17.4229 9.46972 17.13L7.7564 15.4167H5.3334C4.91918 15.4167 4.5834 15.0809 4.5834 14.6667V12.2437L2.87006 10.5304C2.57717 10.2375 2.57717 9.76262 2.87006 9.46972L4.58088 7.75891L3.3334 6.51143V7.23862L1.98618 8.58584C1.20513 9.36689 1.20513 10.6332 1.98618 11.4143L3.3334 12.7615V14.6667C3.3334 15.7713 4.22883 16.6667 5.3334 16.6667H7.23863L8.58584 18.0139C9.36689 18.795 10.6332 18.795 11.4143 18.0139L12.7615 16.6667H13.4887Z" fill="#161823"/>
<path d="M2.3423 3.39902C2.09435 3.10435 2.10905 2.66378 2.38642 2.38642C2.67931 2.09352 3.15418 2.09352 3.44708 2.38642L4.55232 3.49166C4.79228 3.38976 5.05626 3.33339 5.3334 3.33339H7.23863L8.58584 1.98618C9.36689 1.20513 10.6332 1.20513 11.4143 1.98618L12.7615 3.33339H14.6667C15.7713 3.33339 16.6667 4.22882 16.6667 5.33339V7.23864L18.0139 8.58584C18.795 9.36689 18.795 10.6332 18.0139 11.4143L16.6667 12.7615V14.6667C16.6667 14.9439 16.6104 15.2078 16.5085 15.4478L17.6137 16.5531C17.9066 16.846 17.9066 17.3209 17.6137 17.6137C17.3209 17.9066 16.846 17.9066 16.5531 17.6137L16.4235 17.4841C16.4096 17.4676 16.3949 17.4516 16.3794 17.4361L2.3423 3.39902ZM7.7564 4.58339H5.64405L15.4167 14.3561V12.2437L17.13 10.5304C17.4229 10.2375 17.4229 9.76262 17.13 9.46973L15.4167 7.75641V5.33339C15.4167 4.91917 15.0809 4.58339 14.6667 4.58339H12.2437L10.5304 2.87006C10.2375 2.57717 9.76262 2.57717 9.46973 2.87006L7.7564 4.58339Z" fill="#161823"/>
</svg>
