<svg width="20" height="20" viewBox="0 0 20 20" fill="none" xmlns="http://www.w3.org/2000/svg">
<path d="M14.6254 9.99994C14.6254 9.58573 14.2896 9.24994 13.8754 9.24994C13.4612 9.24994 13.1254 9.58573 13.1254 9.99994C13.1254 10.4103 13.0446 10.8167 12.8876 11.1958C12.7305 11.575 12.5003 11.9195 12.2101 12.2096C11.92 12.4998 11.5755 12.73 11.1963 12.8871C10.8172 13.0441 10.4108 13.1249 10.0004 13.1249C9.58621 13.1249 9.25043 13.4607 9.25043 13.8749C9.25043 14.2892 9.58621 14.6249 10.0004 14.6249C10.6078 14.6249 11.2092 14.5053 11.7703 14.2729C12.3315 14.0405 12.8413 13.6998 13.2708 13.2703C13.7003 12.8408 14.0409 12.331 14.2734 11.7698C14.5058 11.2087 14.6254 10.6073 14.6254 9.99994Z" fill="#161823"/>
<path d="M18.3337 9.99988C18.3337 14.6023 14.6028 18.3333 10.0004 18.3333C5.39797 18.3333 1.66699 14.6023 1.66699 9.99988C1.66699 5.39748 5.39797 1.6665 10.0004 1.6665C14.6028 1.6665 18.3337 5.39748 18.3337 9.99988ZM16.8337 9.99988C16.8337 6.22591 13.7743 3.1665 10.0004 3.1665C6.2264 3.1665 3.16699 6.22591 3.16699 9.99988C3.16699 13.7738 6.2264 16.8333 10.0004 16.8333C13.7743 16.8333 16.8337 13.7738 16.8337 9.99988Z" fill="#161823"/>
</svg>
