<svg width="12" height="12" viewBox="0 0 12 12" fill="none" xmlns="http://www.w3.org/2000/svg">
<path d="M6.26788 0.859975C6.09896 0.775516 5.90014 0.775516 5.73122 0.859975L1.532 2.95958C1.32873 3.06122 1.20033 3.26897 1.20033 3.49624C1.20033 3.7235 1.32873 3.93126 1.532 4.03289L5.73121 6.13254C5.90013 6.217 6.09896 6.217 6.26788 6.13254L10.4671 4.03289C10.6704 3.93126 10.7988 3.7235 10.7988 3.49624C10.7988 3.26897 10.6704 3.06122 10.4671 2.95958L6.26788 0.859975Z" fill="#161823"/>
<path d="M1.26355 5.73347C1.41161 5.43702 1.77196 5.31672 2.06842 5.46478L5.9772 7.417C5.99127 7.42402 6.00782 7.42402 6.02188 7.417L9.93067 5.46478C10.2271 5.31672 10.5875 5.43702 10.7355 5.73347C10.8836 6.02992 10.7633 6.39027 10.4668 6.53834L6.26763 8.6356C6.09884 8.7199 5.90024 8.7199 5.73145 8.6356L1.53224 6.53834C1.23578 6.39027 1.11549 6.02992 1.26355 5.73347Z" fill="#161823"/>
<path d="M2.06842 7.96948C1.77196 7.82142 1.41161 7.94172 1.26355 8.23817C1.11549 8.53462 1.23578 8.89497 1.53224 9.04304L5.73145 11.1403C5.90024 11.2246 6.09884 11.2246 6.26763 11.1403L10.4668 9.04304C10.7633 8.89497 10.8836 8.53462 10.7355 8.23817C10.5875 7.94172 10.2271 7.82142 9.93067 7.96948L6.02188 9.9217C6.00782 9.92872 5.99127 9.92872 5.9772 9.9217L2.06842 7.96948Z" fill="#161823"/>
</svg>
