<svg width="20" height="20" viewBox="0 0 20 20" fill="none" xmlns="http://www.w3.org/2000/svg">
<path fill-rule="evenodd" clip-rule="evenodd" d="M7.51798 1.2998H12.4822C13.295 1.2998 13.9506 1.29979 14.4816 1.34317C15.0282 1.38783 15.5083 1.48219 15.9525 1.70853C16.6582 2.06805 17.2318 2.64173 17.5914 3.34734C17.8177 3.79156 17.9121 4.2717 17.9567 4.81834C18.0001 5.34925 18.0001 6.00487 18.0001 6.81772L18.0001 11.7078C18.0006 13.101 18.001 14.0239 17.6699 14.8141C17.3785 15.5095 16.9074 16.1148 16.3049 16.568C15.6202 17.0831 14.7255 17.3094 13.3748 17.651L10.0001 18.506L6.62534 17.651C5.27463 17.3094 4.37994 17.0831 3.69524 16.568C3.09275 16.1148 2.62166 15.5095 2.3303 14.8141C1.99917 14.0239 1.99952 13.101 2.00004 11.7078L2.00008 6.8177C2.00008 6.00486 2.00007 5.34924 2.04345 4.81834C2.08811 4.2717 2.18247 3.79156 2.40881 3.34734C2.76833 2.64173 3.34201 2.06805 4.04762 1.70853C4.49184 1.48219 4.97198 1.38783 5.51862 1.34317C6.04952 1.29979 6.70514 1.2998 7.51798 1.2998ZM10.2084 7.30765C9.83867 7.30765 9.331 7.37909 9.17 7.81887C8.97505 8.35144 8.74932 8.47844 8.33342 8.47844C7.87318 8.47844 7.50008 8.10534 7.50008 7.6451C7.50008 6.38568 9.14342 5.64098 10.2084 5.64098C11.9484 5.64098 12.9298 6.74921 12.9298 7.98489C12.9298 8.80729 12.3167 9.24129 11.7516 9.64131C11.302 9.95958 10.8827 10.2563 10.8268 10.7101C10.7518 11.3194 10.4344 11.4786 9.99599 11.4786C9.53575 11.4786 9.16266 11.1055 9.16266 10.6452C9.16266 9.87105 9.78872 9.47888 10.3551 9.12409C10.823 8.83103 11.2501 8.56347 11.2501 8.12719C11.2501 7.56485 10.7025 7.30765 10.2084 7.30765ZM10.9168 13.2244C10.9168 13.7307 10.5064 14.1411 10.0001 14.1411C9.49388 14.1411 9.08348 13.7307 9.08348 13.2244C9.08348 12.7182 9.49388 12.3078 10.0001 12.3078C10.5064 12.3078 10.9168 12.7182 10.9168 13.2244Z" fill="#161823"/>
</svg>
