<svg width="12" height="12" viewBox="0 0 12 12" fill="none" xmlns="http://www.w3.org/2000/svg">
<path d="M5.99848 3.48853C5.04935 3.48853 4.11644 3.58799 3.29967 3.80486C2.489 4.02011 1.75611 4.36076 1.24686 4.87002C0.770146 5.34673 0.523035 5.9399 0.554419 6.64081L0.554521 6.64288C0.574865 7.05485 0.703613 7.48235 1.00662 7.7868C1.24881 8.03458 1.59954 8.1778 1.99655 8.11511L3.57683 7.84677C3.85771 7.80137 4.13095 7.70538 4.33234 7.4993C4.60614 7.22939 4.64621 6.86427 4.64621 6.57393V6.3116C4.92558 6.26253 5.41225 6.2163 5.99848 6.2163C6.6039 6.2163 7.08002 6.25572 7.34389 6.30905L7.34652 6.57834L7.34656 6.58107C7.35112 6.86836 7.39263 7.23152 7.66108 7.49996C7.86421 7.70309 8.1341 7.80055 8.42021 7.84678L9.97415 8.11001C10.3906 8.1806 10.7426 8.02388 10.9925 7.78036L10.9932 7.77966C11.2989 7.48043 11.4366 7.05373 11.4471 6.62754L11.4471 6.62643C11.4629 5.91569 11.1835 5.3289 10.7246 4.87002C10.2163 4.36173 9.49088 4.02074 8.68544 3.8051C7.87455 3.588 6.94765 3.48853 5.99848 3.48853Z" fill="#161823"/>
</svg>
