<svg width="24" height="24" viewBox="0 0 24 24" fill="none" xmlns="http://www.w3.org/2000/svg">
<path d="M12.0004 1.75C8.68673 1.75 6.00044 4.43629 6.00044 7.75C6.00044 7.94501 6.00976 8.13799 6.02801 8.32849L6.07547 8.82414L6.57131 8.77875C9.30201 8.52877 12.056 9.84616 13.516 12.375C13.6285 12.5698 13.7309 12.7676 13.8233 12.9678L14.0318 13.4192L14.4844 13.2132C16.5576 12.2691 18.0004 10.1786 18.0004 7.75C18.0004 4.43629 15.3142 1.75 12.0004 1.75Z" fill="#161823"/>
<path d="M4.23733 10.8041C6.34063 9.58973 8.87263 9.79408 10.7268 11.1176L11.1315 11.4065L10.8448 11.8128C10.7177 11.993 10.5976 12.1805 10.485 12.3754C9.02507 14.9042 9.2611 17.9478 10.8428 20.1876L11.13 20.5943L10.7245 20.8833C10.5687 20.9943 10.4062 21.0989 10.2373 21.1964C7.36757 22.8532 3.69803 21.87 2.04118 19.0002C0.384323 16.1305 1.36757 12.4609 4.23733 10.8041Z" fill="#161823"/>
<path d="M18.7957 10.3318L19.2487 10.5385C19.4229 10.618 19.5947 10.7064 19.7637 10.8039C22.6334 12.4608 23.6167 16.1303 21.9598 19.0001C20.303 21.8698 16.6334 22.8531 13.7637 21.1962C11.6604 19.9819 10.5713 17.687 10.7905 15.4195L10.8383 14.9245L11.3335 14.9697C11.553 14.9897 11.7755 14.9999 12.0004 14.9999C14.9204 14.9999 17.4383 13.2737 18.5871 10.7839L18.7957 10.3318Z" fill="#161823"/>
</svg>
