<svg width="20" height="20" viewBox="0 0 20 20" fill="none" xmlns="http://www.w3.org/2000/svg">
<path d="M7.29999 11.5C7.29999 11.0858 7.63577 10.75 8.04999 10.75H11.95C12.3642 10.75 12.7 11.0858 12.7 11.5C12.7 11.9142 12.3642 12.25 11.95 12.25H8.04999C7.63577 12.25 7.29999 11.9142 7.29999 11.5Z" fill="#161823"/>
<path d="M8.04999 7.75C7.63577 7.75 7.29999 8.08579 7.29999 8.5C7.29999 8.91421 7.63577 9.25 8.04999 9.25H11.95C12.3642 9.25 12.7 8.91421 12.7 8.5C12.7 8.08579 12.3642 7.75 11.95 7.75H8.04999Z" fill="#161823"/>
<path d="M4.75 3.5C3.23122 3.5 2 4.73438 2 6.25707V7.47815C2 7.75429 2.22735 7.97173 2.49492 8.04002C3.36011 8.26083 4 9.04714 4 9.98329C4 10.9194 3.36011 11.7058 2.49492 11.9266C2.22735 11.9949 2 12.2123 2 12.4884V13.7429C2 15.2656 3.23122 16.5 4.75 16.5H15.25C16.7688 16.5 18 15.2656 18 13.7429V12.4884C18 12.2123 17.7727 11.9949 17.5051 11.9266C16.6399 11.7058 16 10.9194 16 9.98329C16 9.04714 16.6399 8.26083 17.5051 8.04002C17.7727 7.97173 18 7.75429 18 7.47815V6.25707C18 4.73438 16.7688 3.5 15.25 3.5H4.75ZM4.75 5H15.25C15.9367 5 16.5 5.55918 16.5 6.25707V6.81592C15.3167 7.37883 14.5 8.5855 14.5 9.98329C14.5 11.3811 15.3167 12.5878 16.5 13.1507V13.7429C16.5 14.4408 15.9367 15 15.25 15H4.75C4.06327 15 3.5 14.4408 3.5 13.7429V13.1507C4.68335 12.5878 5.5 11.3811 5.5 9.98329C5.5 8.5855 4.68335 7.37883 3.5 6.81592V6.25707C3.5 5.55918 4.06327 5 4.75 5Z" fill="#161823"/>
</svg>
