<svg width="16" height="16" viewBox="0 0 16 16" fill="none" xmlns="http://www.w3.org/2000/svg">
<path d="M1.59678 2.62547C1.39238 2.75583 1.29607 3.00365 1.35882 3.23782L4.22895 14.0828C4.33298 14.4837 4.74233 14.7244 5.14327 14.6204C5.54421 14.5164 5.78491 14.107 5.68088 13.7061L4.6314 9.66095C5.77449 9.12961 7.05727 8.95038 8.31371 9.15736L10.1598 9.46147C11.4241 9.66976 12.722 9.47024 13.8654 8.89181C14.4266 8.60791 14.7119 7.9695 14.5492 7.36201L13.134 2.08062C12.9638 1.44544 12.2258 1.15835 11.6711 1.51158C10.6956 2.13282 9.5155 2.34701 8.38391 2.10823L6.5591 1.72316C4.85066 1.36265 3.06896 1.68662 1.59678 2.62547Z" fill="#161823"/>
</svg>
