<svg width="20" height="20" viewBox="0 0 20 20" fill="none" xmlns="http://www.w3.org/2000/svg">
<path d="M9.99997 1.9999C8.16772 1.9999 6.85012 3.66597 6.85012 5.49973C6.85012 7.33349 8.16772 8.99956 9.99997 8.99956C11.8322 8.99956 13.1498 7.33349 13.1498 5.49973C13.1498 3.66597 11.8322 1.9999 9.99997 1.9999Z" fill="#161823"/>
<path d="M9.99997 10.2495C8.06977 10.2495 6.31964 10.8092 5.03332 11.7429C3.74872 12.6755 2.88365 14.0215 2.88365 15.5629V15.5826C2.88365 16.9172 3.96557 17.9991 5.3002 17.9991H9.98655C9.91633 17.7022 9.88706 17.3899 9.9049 17.0689L10.1993 11.7691C10.2297 11.2217 10.3944 10.7121 10.6604 10.2716C10.4429 10.2569 10.2226 10.2495 9.99997 10.2495Z" fill="#161823"/>
<path fill-rule="evenodd" clip-rule="evenodd" d="M11.6969 11.8523C11.7485 10.925 12.5154 10.1995 13.4442 10.1995H17.9552C18.884 10.1995 19.6509 10.925 19.7024 11.8523L19.9969 17.1521C20.0526 18.1551 19.2542 18.9991 18.2496 18.9991H13.1497C12.1451 18.9991 11.3468 18.1551 11.4025 17.1521L11.6969 11.8523ZM13.7664 12.9994C13.7664 14.0671 14.632 14.9326 15.6997 14.9326C16.7674 14.9326 17.6329 14.0671 17.6329 12.9994C17.6329 12.668 17.3643 12.3994 17.033 12.3994C16.7016 12.3994 16.433 12.668 16.433 12.9994C16.433 13.4044 16.1047 13.7327 15.6997 13.7327C15.2947 13.7327 14.9664 13.4044 14.9664 12.9994C14.9664 12.668 14.6978 12.3994 14.3664 12.3994C14.0351 12.3994 13.7664 12.668 13.7664 12.9994Z" fill="#161823"/>
</svg>
