<svg width="16" height="16" viewBox="0 0 16 16" fill="none" xmlns="http://www.w3.org/2000/svg">
<path d="M11.599 10.4318V4.93307C11.599 4.63651 11.3586 4.39609 11.062 4.39609H7.65709C7.20145 4.39609 6.83209 4.02673 6.83209 3.57109C6.83209 3.11546 7.20145 2.74609 7.65709 2.74609H11.062C12.2699 2.74609 13.249 3.72524 13.249 4.93307V10.4319L13.8836 9.79726C14.2058 9.47508 14.7282 9.47508 15.0504 9.79726C15.3725 10.1194 15.3725 10.6418 15.0504 10.964L13.1037 12.9107C12.7283 13.286 12.1197 13.286 11.7444 12.9107L9.7977 10.964C9.47552 10.6418 9.47552 10.1194 9.7977 9.79726C10.1199 9.47508 10.6422 9.47508 10.9644 9.79726L11.599 10.4318Z" fill="#161823"/>
<path d="M5.0307 6.19665L4.39609 5.56205V11.0611C4.39609 11.3577 4.63651 11.5981 4.93307 11.5981H8.33802C8.79365 11.5981 9.16302 11.9675 9.16302 12.4231C9.16302 12.8787 8.79365 13.2481 8.33802 13.2481H4.93307C3.72524 13.2481 2.74609 12.269 2.74609 11.0611V5.56205L2.11149 6.19665C1.78931 6.51883 1.26694 6.51883 0.944762 6.19665C0.622579 5.87447 0.622579 5.35211 0.944762 5.02993L2.89142 3.08327C3.26679 2.70789 3.87539 2.70789 4.25076 3.08327L6.19742 5.02993C6.5196 5.35211 6.5196 5.87447 6.19742 6.19665C5.87524 6.51883 5.35288 6.51883 5.0307 6.19665Z" fill="#161823"/>
</svg>
