<svg width="24" height="24" viewBox="0 0 24 24" fill="none" xmlns="http://www.w3.org/2000/svg">
<path d="M18.0001 13.5C18.134 13.5 18.2669 13.496 18.3988 13.488C18.483 13.4829 18.562 13.5293 18.5988 13.6052C18.6924 13.7987 18.7967 13.9876 18.9113 14.171L20.1091 16.0875C20.6294 16.9201 20.0309 18 19.0491 18H4.95122C3.96943 18 3.37087 16.9201 3.89122 16.0875L5.08904 14.171C5.68445 13.2183 6.00016 12.1175 6.00016 10.9941V9C6.00016 6.33984 7.73048 4.0857 10.1266 3.2986C10.4107 2.54 11.1424 2 12.0002 2C12.4286 2 12.8255 2.1347 13.1509 2.36404C13.2443 2.42984 13.2493 2.56232 13.1728 2.64712C12.1331 3.7994 11.5001 5.32578 11.5001 7C11.5001 10.5899 14.4103 13.5 18.0001 13.5Z" fill="#161823"/>
<path d="M12.0002 21.75C10.4624 21.75 9.14086 20.8244 8.56219 19.5H15.4381C14.8595 20.8244 13.5379 21.75 12.0002 21.75Z" fill="#161823"/>
<path fill-rule="evenodd" clip-rule="evenodd" d="M23.0001 7C23.0001 9.76142 20.7615 12 18.0001 12C15.2387 12 13.0001 9.76142 13.0001 7C13.0001 4.23858 15.2387 2 18.0001 2C20.7615 2 23.0001 4.23858 23.0001 7ZM15.5041 6.99744C15.7924 6.70003 16.2672 6.69264 16.5646 6.98095L17.3859 7.7771L19.3875 4.94241C19.6264 4.60404 20.0943 4.52342 20.4327 4.76233C20.7711 5.00124 20.8517 5.46922 20.6128 5.80759L18.1058 9.35816C17.9794 9.53718 17.7811 9.65196 17.5629 9.67232C17.3447 9.69269 17.1285 9.61661 16.9711 9.46408L15.5206 8.05797C15.2232 7.76967 15.2158 7.29485 15.5041 6.99744Z" fill="#161823"/>
</svg>
