<svg width="24" height="24" viewBox="0 0 24 24" fill="none" xmlns="http://www.w3.org/2000/svg">
<path d="M6.67053 11.0667C6.67053 8.97712 8.15806 7.4402 10.0534 7.4402C10.8489 7.4402 11.5043 7.73346 12.0004 8.19344C12.4963 7.73475 13.149 7.4402 13.9466 7.4402C15.842 7.4402 17.3295 8.97712 17.3295 11.0667C17.3295 12.2341 16.8392 13.3392 16.0676 14.3338C15.297 15.3272 14.2169 16.2496 12.9507 17.0749C12.8389 17.1501 12.7063 17.2307 12.5678 17.2956C12.4466 17.3525 12.2366 17.4386 11.9977 17.4386C11.757 17.4386 11.5473 17.3514 11.4266 17.2941C11.2894 17.229 11.1586 17.1484 11.0493 17.0748C9.78314 16.2496 8.70303 15.3272 7.9324 14.3338C7.16081 13.3392 6.67053 12.2341 6.67053 11.0667Z" fill="#161823"/>
<path fill-rule="evenodd" clip-rule="evenodd" d="M12 22C17.5228 22 22 17.5228 22 12C22 6.47715 17.5228 2 12 2C6.47715 2 2 6.47715 2 12C2 17.5228 6.47715 22 12 22ZM12 20.5C16.6944 20.5 20.5 16.6944 20.5 12C20.5 7.30558 16.6944 3.5 12 3.5C7.30558 3.5 3.5 7.30558 3.5 12C3.5 16.6944 7.30558 20.5 12 20.5Z" fill="#161823"/>
</svg>
