<svg width="24" height="24" viewBox="0 0 24 24" fill="none" xmlns="http://www.w3.org/2000/svg">
<path d="M11.06 2C10.3868 2 9.81544 2.49347 9.71752 3.15944L9.47716 4.79373C9.20698 4.88831 8.94379 4.99761 8.68855 5.12066L7.36275 4.13481C6.82258 3.73313 6.06962 3.78823 5.59365 4.26418L4.26418 5.59365C3.78822 6.06962 3.73314 6.82258 4.13479 7.36274L5.12064 8.68852C4.99758 8.94377 4.88826 9.20697 4.79367 9.47717L3.15947 9.7175C2.49347 9.81541 2 10.3868 2 11.0599V12.94C2 13.6132 2.49348 14.1846 3.15947 14.2825L4.79364 14.5228C4.91394 14.8665 5.05805 15.1988 5.22394 15.5178L4.29214 16.849C3.91454 17.3884 3.97879 18.121 4.44429 18.5866L5.41353 19.5557C5.87909 20.0214 6.61171 20.0855 7.15112 19.7079L8.48229 18.7761C8.86858 18.977 9.27437 19.1459 9.6961 19.2793L9.97837 20.879C10.0928 21.5274 10.6562 22 11.3146 22H12.6854C13.3438 22 13.9072 21.5273 14.0216 20.8789L14.3039 19.2793C14.7257 19.1459 15.1314 18.9769 15.5178 18.776L16.8488 19.7078C17.3882 20.0854 18.1209 20.0212 18.5864 19.5556L19.5557 18.5864C20.0212 18.1209 20.0854 17.3883 19.7078 16.8489L18.7761 15.5178C18.9769 15.1315 19.1459 14.7257 19.2792 14.3039L20.879 14.0216C21.5274 13.9072 22 13.3438 22 12.6854V11.3146C22 10.6562 21.5273 10.0928 20.879 9.97835L19.2792 9.69609C19.1694 9.34878 19.0354 9.01228 18.8794 8.68858L19.8651 7.36283C20.2669 6.82265 20.2118 6.06969 19.7358 5.59375L18.4063 4.26426C17.9303 3.78833 17.1774 3.73323 16.6372 4.1349L15.3115 5.1207C15.0563 4.99764 14.7931 4.88832 14.5228 4.79373L14.2825 3.15948C14.1846 2.49349 13.6132 2 12.9401 2H11.06ZM12 15.8C9.90133 15.8 8.20001 14.0986 8.20001 12C8.20001 9.90127 9.90133 8.19995 12 8.19995C14.0987 8.19995 15.8 9.90127 15.8 12C15.8 14.0986 14.0987 15.8 12 15.8Z" fill="#161823"/>
</svg>
