<svg width="24" height="24" viewBox="0 0 24 24" fill="none" xmlns="http://www.w3.org/2000/svg">
<path d="M3 4.75C3 3.23122 4.23122 2 5.75 2H16.25C17.7688 2 19 3.23122 19 4.75V4.9366C19 4.99799 18.9715 5.05557 18.9248 5.0955C18.7321 5.26056 18.5637 5.46056 18.4296 5.69279L17.8732 6.65647C17.7709 6.83368 17.5 6.76109 17.5 6.55647V4.75C17.5 4.05964 16.9404 3.5 16.25 3.5H5.75C5.05964 3.5 4.5 4.05964 4.5 4.75V19.25C4.5 19.9404 5.05964 20.5 5.75 20.5H16.25C16.9404 20.5 17.5 19.9404 17.5 19.25V18.1632C17.5 18.1116 17.5201 18.0622 17.555 18.0242C17.7436 17.819 17.9099 17.5929 18.0503 17.3497L18.6268 16.3512C18.7291 16.174 19 16.2466 19 16.4512V19.25C19 20.7688 17.7688 22 16.25 22H5.75C4.23122 22 3 20.7688 3 19.25V4.75Z" fill="#161823"/>
<path d="M19.7287 6.44282C19.9496 6.06019 20.4388 5.92909 20.8215 6.15L21.6009 6.6C21.9835 6.82091 22.1146 7.31019 21.8937 7.69282L16.7513 16.5997C16.5603 16.9305 16.2906 17.209 15.966 17.4104L14.687 18.2041C14.4835 18.3304 14.2214 18.179 14.229 17.9396L14.2768 16.4352C14.289 16.0534 14.3953 15.6805 14.5863 15.3497L19.7287 6.44282Z" fill="#161823"/>
<path d="M14.257 10.3009C14.764 10.5937 15.0139 11.109 15.0068 11.6212L14.2753 12.8883L14.257 12.899L9.74654 15.5031C8.74654 16.0805 7.49654 15.3588 7.49654 14.2041V8.99589C7.49654 7.84119 8.74654 7.1195 9.74654 7.69685L14.257 10.3009ZM13.507 11.6L8.99654 8.99589V14.2041L13.507 11.6Z" fill="#161823"/>
</svg>
