<svg width="24" height="24" viewBox="0 0 24 24" fill="none" xmlns="http://www.w3.org/2000/svg">
<path fill-rule="evenodd" clip-rule="evenodd" d="M7.30029 4.4C7.30029 5.44934 8.15095 6.3 9.20029 6.3L14.8003 6.3C15.8496 6.3 16.7003 5.44934 16.7003 4.4C16.7003 3.35066 15.8496 2.5 14.8003 2.5H9.20029C8.15095 2.5 7.30029 3.35066 7.30029 4.4ZM9.20029 5.1C8.81369 5.1 8.50029 4.7866 8.50029 4.4C8.50029 4.0134 8.81369 3.7 9.20029 3.7L14.8003 3.7C15.1869 3.7 15.5003 4.0134 15.5003 4.4C15.5003 4.7866 15.1869 5.1 14.8003 5.1L9.20029 5.1Z" fill="#161823"/>
<path d="M5.82984 3.94969C5.8491 3.8041 5.72055 3.67621 5.58038 3.72001C4.05629 4.19625 2.9502 5.61893 2.9502 7.29996V17.8333C2.9502 19.9044 4.62913 21.5833 6.70019 21.5833H17.2669C19.3379 21.5833 21.0169 19.9044 21.0169 17.8333V7.29996C21.0169 5.63256 19.9286 4.21933 18.4237 3.73177C18.2833 3.68632 18.1533 3.8141 18.1721 3.96038C18.1907 4.10426 18.2003 4.25097 18.2003 4.39991C18.2003 4.61902 18.1796 4.83329 18.14 5.04086C18.1213 5.13869 18.1723 5.23713 18.2616 5.28122C19.0053 5.64838 19.5169 6.41442 19.5169 7.29996V17.8333C19.5169 19.0759 18.5095 20.0833 17.2669 20.0833H6.70019C5.45755 20.0833 4.4502 19.0759 4.4502 17.8333V7.29996C4.4502 6.40342 4.97455 5.62936 5.73332 5.26771C5.82398 5.2245 5.87637 5.12554 5.85797 5.02681C5.8201 4.82362 5.80029 4.61408 5.80029 4.39991C5.80029 4.24728 5.81035 4.09699 5.82984 3.94969Z" fill="#161823"/>
<path d="M8.00024 9.99995C7.58603 9.99995 7.25024 10.3357 7.25024 10.75C7.25024 11.1642 7.58603 11.5 8.00024 11.5H16.0002C16.4145 11.5 16.7502 11.1642 16.7502 10.75C16.7502 10.3357 16.4145 9.99995 16.0002 9.99995H8.00024Z" fill="#161823"/>
<path d="M8.00024 13.4666C7.58603 13.4666 7.25024 13.8024 7.25024 14.2166C7.25024 14.6308 7.58603 14.9666 8.00024 14.9666H13.1336C13.5478 14.9666 13.8836 14.6308 13.8836 14.2166C13.8836 13.8024 13.5478 13.4666 13.1336 13.4666H8.00024Z" fill="#161823"/>
</svg>
