<svg width="20" height="20" viewBox="0 0 20 20" fill="none" xmlns="http://www.w3.org/2000/svg">
<path d="M14.53 13.1152V6.16634C14.53 5.77838 14.2155 5.46387 13.8275 5.46387H9.57135C9.01907 5.46387 8.57135 5.01615 8.57135 4.46387C8.57135 3.91158 9.01907 3.46387 9.57135 3.46387H13.8275C15.3201 3.46387 16.53 4.67381 16.53 6.16634V13.1153L17.3766 12.2687C17.7672 11.8781 18.4003 11.8781 18.7909 12.2687C19.1814 12.6592 19.1814 13.2923 18.7909 13.6829L16.3575 16.1162C15.9005 16.5732 15.1596 16.5732 14.7026 16.1162L12.2692 13.6829C11.8787 13.2923 11.8787 12.6592 12.2692 12.2687C12.6598 11.8781 13.2929 11.8781 13.6834 12.2687L14.53 13.1152Z" fill="#161823"/>
<path d="M6.31047 7.72371L5.46387 6.87711V13.8264C5.46387 14.2144 5.77838 14.5289 6.16634 14.5289H10.4225C10.9748 14.5289 11.4225 14.9766 11.4225 15.5289C11.4225 16.0812 10.9748 16.5289 10.4225 16.5289H6.16634C4.6738 16.5289 3.46387 15.3189 3.46387 13.8264V6.8771L2.61726 7.72371C2.22674 8.11423 1.59357 8.11423 1.20305 7.72371C0.812525 7.33318 0.812525 6.70002 1.20305 6.30949L3.63638 3.87617C4.09338 3.41916 4.83434 3.41916 5.29136 3.87617L7.72468 6.30949C8.1152 6.70002 8.1152 7.33318 7.72468 7.72371C7.33416 8.11423 6.70099 8.11423 6.31047 7.72371Z" fill="#161823"/>
</svg>
