<svg width="20" height="20" viewBox="0 0 20 20" fill="none" xmlns="http://www.w3.org/2000/svg">
<path d="M1.96947 1.96967C2.26236 1.67678 2.73724 1.67678 3.03013 1.96967L5.77437 4.71391C5.80415 4.74369 5.8493 4.75161 5.88756 4.734C7.06111 4.19373 8.43254 3.83333 10.0033 3.83333C15.2968 3.83333 18.3339 7.93914 19.1527 9.21157C19.4635 9.69458 19.4635 10.3054 19.1527 10.7884C18.6903 11.507 17.5204 13.1293 15.6361 14.4054C15.5837 14.4408 15.5759 14.5155 15.6207 14.5602L18.0301 16.9697C18.323 17.2626 18.323 17.7374 18.0301 18.0303C17.7644 18.296 17.3489 18.3207 17.0554 18.1043L3.44676 4.49564C3.41958 4.46846 3.39083 4.44381 3.36081 4.42167L1.96947 3.03033C1.67658 2.73744 1.67658 2.26256 1.96947 1.96967ZM3.3993 6.5695C3.32519 6.49539 3.20619 6.49104 3.12792 6.56074C2.00317 7.56217 1.26009 8.58717 0.89483 9.14719C0.537452 9.69512 0.588639 10.3885 0.990281 10.8822C1.52429 11.5386 2.67228 12.8427 4.219 13.9885C5.75712 15.1279 7.76502 16.1667 10.0033 16.1667C10.8258 16.1667 11.5939 16.0675 12.3077 15.8953C12.4565 15.8594 12.5051 15.6753 12.3969 15.5671L11.4553 14.6256C11.4096 14.5798 11.3446 14.5592 11.2807 14.5691C10.8729 14.6323 10.4471 14.6667 10.0033 14.6667C8.22262 14.6667 6.52806 13.8323 5.11187 12.7832C3.79548 11.808 2.7847 10.6955 2.25661 10.0605C2.20085 9.99346 2.19585 9.89814 2.24474 9.82592C2.61214 9.2831 3.25336 8.44762 4.16659 7.64374C4.25445 7.5664 4.26037 7.43057 4.1776 7.3478L3.3993 6.5695ZM6.50681 9.67701C6.44804 9.61824 6.34842 9.65281 6.34252 9.73572C6.3363 9.823 6.33314 9.91113 6.33314 10C6.33314 12.025 7.97476 13.6667 9.9998 13.6667C10.0887 13.6667 10.1768 13.6635 10.2641 13.6573C10.347 13.6514 10.3816 13.5518 10.3228 13.493L6.50681 9.67701ZM7.10948 5.85186C7.04191 5.87698 7.02386 5.9634 7.07483 6.01437L7.9344 6.87394C7.96791 6.90744 8.02024 6.91271 8.06043 6.88762C8.623 6.53633 9.2877 6.33333 9.9998 6.33333C12.0248 6.33333 13.6665 7.97495 13.6665 10C13.6665 10.7121 13.4635 11.3768 13.1122 11.9394C13.0871 11.9796 13.0924 12.0319 13.1259 12.0654L14.3914 13.331C14.4242 13.3637 14.4753 13.3696 14.5145 13.345C16.1995 12.2897 17.2995 10.8663 17.8055 10.1076C17.8492 10.0421 17.8492 9.95794 17.8055 9.89236C16.9375 8.59097 14.3216 5.33333 10.0033 5.33333C8.9337 5.33333 7.96896 5.53242 7.10948 5.85186ZM9.22445 7.97618C9.1595 8.00109 9.14458 8.08412 9.19377 8.13331L11.8665 10.806C11.9157 10.8552 11.9987 10.8403 12.0236 10.7753C12.1159 10.5346 12.1665 10.2732 12.1665 10C12.1665 8.80338 11.1964 7.83333 9.9998 7.83333C9.72659 7.83333 9.46519 7.8839 9.22445 7.97618Z" fill="#161823"/>
</svg>
