<svg width="20" height="20" viewBox="0 0 20 20" fill="none" xmlns="http://www.w3.org/2000/svg">
<g opacity="0.9">
<path d="M10.0003 16.6665C10.0517 16.6665 10.1029 16.6661 10.154 16.6653C10.1221 16.4913 10.1056 16.3131 10.1056 16.1326V15.1658C10.0706 15.1663 10.0355 15.1665 10.0003 15.1665C6.07381 15.1665 3.16699 12.3355 3.16699 9.1665C3.16699 5.99754 6.07381 3.1665 10.0003 3.1665C13.9196 3.1665 16.8229 5.98707 16.8336 9.1489C16.8998 9.18075 16.965 9.2152 17.0292 9.25226L18.2855 9.97759C18.3173 9.71116 18.3337 9.44055 18.3337 9.1665C18.3337 5.02437 14.6027 1.6665 10.0003 1.6665C5.39795 1.6665 1.66699 5.02437 1.66699 9.1665C1.66699 13.3086 5.39795 16.6665 10.0003 16.6665Z" fill="#161823"/>
<path d="M15.5496 15.8873C16.2124 15.8873 16.7496 15.35 16.7496 14.6873C16.7496 14.0246 16.2124 13.4873 15.5496 13.4873C14.8869 13.4873 14.3496 14.0246 14.3496 14.6873C14.3496 15.35 14.8869 15.8873 15.5496 15.8873Z" fill="#161823"/>
<path d="M14.6786 10.6254C15.22 10.3128 15.8871 10.3128 16.4286 10.6254L18.6373 11.9005C19.1787 12.2131 19.5123 12.7909 19.5123 13.4161V15.9664C19.5123 16.5916 19.1787 17.1694 18.6373 17.482L16.4286 18.7571C15.8871 19.0697 15.22 19.0697 14.6786 18.7571L12.4699 17.482C11.9285 17.1694 11.5949 16.5916 11.5949 15.9664V13.4161C11.5949 12.7909 11.9285 12.2131 12.4699 11.9005L14.6786 10.6254ZM15.6786 11.9244C15.6012 11.8797 15.5059 11.8797 15.4286 11.9244L13.2199 13.1996C13.1426 13.2442 13.0949 13.3268 13.0949 13.4161V15.9664C13.0949 16.0557 13.1426 16.1383 13.2199 16.1829L15.4286 17.4581C15.5059 17.5028 15.6012 17.5028 15.6786 17.4581L17.8873 16.1829C17.9646 16.1383 18.0123 16.0557 18.0123 15.9664V13.4161C18.0123 13.3268 17.9646 13.2442 17.8873 13.1996L15.6786 11.9244Z" fill="#161823"/>
<path d="M7.14205 8.98141C7.14205 9.6348 6.60882 10.1642 5.95103 10.1642C5.29435 10.1642 4.7611 9.6348 4.7611 8.98141C4.7611 8.32931 5.29435 7.79993 5.95103 7.79993C6.60882 7.79993 7.14205 8.32931 7.14205 8.98141Z" fill="#161823"/>
<path d="M10.0015 10.1642C10.659 10.1642 11.192 9.6348 11.192 8.98141C11.192 8.32931 10.659 7.79993 10.0015 7.79993C9.34407 7.79993 8.81103 8.32931 8.81103 8.98141C8.81105 9.6348 9.3441 10.1642 10.0015 10.1642Z" fill="#161823"/>
<path d="M15.242 8.98141C15.242 9.6348 14.7096 10.1642 14.0519 10.1642C13.3942 10.1642 12.861 9.6348 12.8611 8.98141C12.8611 8.32931 13.3942 7.79993 14.0519 7.79993C14.7096 7.79993 15.242 8.32931 15.242 8.98141Z" fill="#161823"/>
</g>
</svg>
