<svg width="24" height="24" viewBox="0 0 24 24" fill="none" xmlns="http://www.w3.org/2000/svg">
<path d="M12 3.5C16.5847 3.5 20.3217 7.12984 20.4938 11.6725C21.0229 11.7969 21.527 11.986 21.9974 12.2309C21.9991 12.1541 22 12.0772 22 12C22 6.47715 17.5228 2 12 2C6.47715 2 2 6.47715 2 12C2 17.5228 6.47715 22 12 22C12.6002 22 13.1881 21.9471 13.7592 21.8458C13.4433 21.416 13.179 20.9459 12.9754 20.4446C12.6553 20.4812 12.3299 20.5 12 20.5C7.30558 20.5 3.5 16.6944 3.5 12C3.5 7.30558 7.30558 3.5 12 3.5ZM9 13.8877C9 12.9238 12.9802 12.7449 14.4571 13.3512C13.725 14.0667 13.1612 14.9537 12.8308 15.9473C12.567 16.0015 12.2882 16.0305 12 16.0305C10.3431 16.0305 9 15.0711 9 13.8877ZM10 9.5C10 10.6046 9.32843 11.5 8.5 11.5C7.67157 11.5 7 10.6046 7 9.5C7 8.39543 7.67157 7.5 8.5 7.5C9.32843 7.5 10 8.39543 10 9.5ZM15.5 11.5C16.3284 11.5 17 10.6046 17 9.5C17 8.39543 16.3284 7.5 15.5 7.5C14.6716 7.5 14 8.39543 14 9.5C14 10.6046 14.6716 11.5 15.5 11.5ZM24 18C24 20.7614 21.7614 23 19 23C16.2386 23 14 20.7614 14 18C14 15.2386 16.2386 13 19 13C21.7614 13 24 15.2386 24 18ZM19.5 15.75C19.5 15.4739 19.2761 15.25 19 15.25C18.7239 15.25 18.5 15.4739 18.5 15.75V17.5H16.75C16.4739 17.5 16.25 17.7239 16.25 18C16.25 18.2761 16.4739 18.5 16.75 18.5H18.5V20.25C18.5 20.5261 18.7239 20.75 19 20.75C19.2761 20.75 19.5 20.5261 19.5 20.25V18.5H21.25C21.5261 18.5 21.75 18.2761 21.75 18C21.75 17.7239 21.5261 17.5 21.25 17.5H19.5V15.75Z" fill="#161823"/>
</svg>
