<svg width="20" height="20" viewBox="0 0 20 20" fill="none" xmlns="http://www.w3.org/2000/svg">
<path d="M10.0002 1C10.8839 1 11.6528 1.49119 12.0488 2.21544C14.1658 3.03676 15.6669 5.09179 15.6669 7.5V9.16176C15.6669 9.973 15.8949 10.7679 16.3248 11.4558L17.323 13.0529C17.8984 13.9735 17.4727 15.1154 16.5786 15.5179L18.0303 16.9697C18.3232 17.2626 18.3232 17.7374 18.0303 18.0303C17.7374 18.3232 17.2626 18.3232 16.9697 18.0303L14.606 15.6667H14.6047L4.62851 5.6905L4.62884 5.6895L1.96967 3.03033C1.67678 2.73744 1.67678 2.26256 1.96967 1.96967C2.26256 1.67678 2.73744 1.67678 3.03033 1.96967L5.33829 4.27763C5.97876 3.35302 6.88736 2.62833 7.95161 2.21544C8.34766 1.49119 9.11658 1 10.0002 1Z" fill="#161823"/>
<path d="M4.33355 7.51686V9.16176C4.33355 9.973 4.10558 10.7679 3.67563 11.4558L2.67744 13.0529C1.96629 14.1908 2.78433 15.6667 4.12611 15.6667H12.4834L4.33355 7.51686Z" fill="#161823"/>
<path d="M10 18.6667C8.72613 18.6667 7.62344 17.9338 7.09058 16.8667H12.9094C12.3766 17.9338 11.2739 18.6667 10 18.6667Z" fill="#161823"/>
</svg>
