<svg width="20" height="20" viewBox="0 0 20 20" fill="none" xmlns="http://www.w3.org/2000/svg">
<path d="M6.32812 10.3464C6.09942 10.4593 5.87829 10.5816 5.66577 10.7133C4.25989 11.5846 2.91699 13.1046 2.91699 15.1953V15.612C2.91699 15.9808 2.97689 16.3356 3.08749 16.6673H2.3619C1.28776 16.6673 0.416992 15.7965 0.416992 14.7224V14.3749C0.416992 13.0222 1.28625 11.984 2.31417 11.3469C3.35708 10.7006 4.72371 10.3453 6.18389 10.3453C6.23207 10.3453 6.28015 10.3457 6.32812 10.3464Z" fill="#161823"/>
<path d="M7.12137 3.60669C6.77578 4.27849 6.58357 5.04378 6.58357 5.83333C6.58357 6.83915 6.89551 7.8056 7.43908 8.58956C7.07015 8.82779 6.64138 8.96421 6.18394 8.96421C4.80231 8.96421 3.68227 7.71973 3.68227 6.18458C3.68227 4.64943 4.80231 3.40495 6.18394 3.40495C6.51543 3.40495 6.83185 3.47659 7.12137 3.60669Z" fill="#161823"/>
<path d="M10.8337 9.16667C12.4906 9.16667 13.8337 7.67428 13.8337 5.83333C13.8337 3.99238 12.4906 2.5 10.8337 2.5C9.17687 2.5 7.83372 3.99238 7.83372 5.83333C7.83372 7.67428 9.17687 9.16667 10.8337 9.16667Z" fill="#161823"/>
<path d="M6.32426 11.5805C7.52885 10.8339 9.12041 10.4167 10.8337 10.4167C11.7666 10.4167 12.6635 10.5404 13.4815 10.7737C13.6054 10.809 13.6594 10.9523 13.6047 11.0689C13.5878 11.1048 13.5717 11.1413 13.5564 11.1783C13.4404 11.4583 13.3768 11.7507 13.3631 12.0427C13.3583 12.1451 13.2834 12.232 13.183 12.2529C12.7342 12.3464 12.3101 12.5775 11.9788 12.9418L9.89551 15.2335C9.38628 15.7937 9.21243 16.5407 9.36221 17.228C9.39161 17.3629 9.29474 17.5 9.15667 17.5H6.25032C5.09973 17.5 4.16699 16.5673 4.16699 15.4167V15C4.16699 13.4944 5.13466 12.3177 6.32426 11.5805Z" fill="#161823"/>
<path d="M15.9354 11.5137C15.6725 11.5137 15.4355 11.6721 15.3349 11.9149C15.2342 12.1578 15.2899 12.4374 15.4758 12.6233L16.4278 13.5754L15.2695 14.8659L14.1332 13.8871C13.8253 13.6219 13.3621 13.6501 13.0888 13.9508L11.0054 16.2425C10.7268 16.549 10.7494 17.0233 11.0559 17.302C11.3624 17.5806 11.8367 17.558 12.1153 17.2515L13.7075 15.5001L14.8474 16.482C15.1567 16.7484 15.6223 16.7185 15.895 16.4147L17.49 14.6376L18.3924 15.54C18.5783 15.7259 18.8579 15.7815 19.1008 15.6809C19.3437 15.5803 19.502 15.3433 19.502 15.0804V12.1637C19.502 11.8047 19.211 11.5137 18.852 11.5137H15.9354Z" fill="#161823"/>
</svg>
