<svg width="16" height="16" viewBox="0 0 16 16" fill="none" xmlns="http://www.w3.org/2000/svg">
<path fill-rule="evenodd" clip-rule="evenodd" d="M5.82716 4.24211C6.55748 3.82046 7.01526 3.1089 7.14062 2.33832C7.42119 2.29604 7.70872 2.27409 8.00173 2.27409C8.28653 2.27409 8.56615 2.29483 8.83924 2.33482C8.96378 3.10675 9.42184 3.81982 10.1533 4.24211C10.8883 4.66646 11.7395 4.70495 12.4727 4.42236C12.8251 4.86207 13.1137 5.35456 13.3249 5.88582C12.7108 6.37944 12.3164 7.13765 12.3164 7.98864C12.3164 8.84281 12.7137 9.6035 13.3318 10.097C13.1228 10.6279 12.8366 11.1203 12.4867 11.5604C11.7503 11.2719 10.8929 11.3081 10.1533 11.7352C9.41443 12.1617 8.95453 12.885 8.83556 13.666C8.56364 13.7056 8.28525 13.7261 8.00173 13.7261C7.71006 13.7261 7.42383 13.7044 7.14448 13.6625C7.02465 12.8829 6.56503 12.1612 5.82731 11.7353C5.0935 11.3116 4.24384 11.2725 3.51142 11.5536C3.1609 11.1114 2.87455 10.6165 2.66611 10.0829C3.27423 9.58916 3.66413 8.83475 3.66413 7.98865C3.66413 7.14572 3.27714 6.39378 2.67293 5.89991C2.88356 5.36598 3.17232 4.87099 3.52535 4.42909C4.25453 4.7043 5.09806 4.66306 5.82716 4.24211ZM8.00173 0.966309C7.47177 0.966309 6.95475 1.02503 6.4571 1.13659C6.08721 1.21951 5.86315 1.55004 5.86778 1.88597C5.87451 2.3745 5.62392 2.84936 5.17327 3.10954C4.72341 3.36927 4.18797 3.34939 3.76857 3.10052C3.47997 2.92928 3.08244 2.95854 2.82613 3.23691C2.13476 3.98779 1.60422 4.89024 1.29025 5.88953C1.17654 6.25144 1.35061 6.61132 1.64416 6.77551C2.0705 7.01397 2.35635 7.46837 2.35635 7.98865C2.35635 8.51053 2.06871 8.96614 1.64021 9.20399C1.34613 9.36721 1.17089 9.72651 1.28341 10.0888C1.59421 11.0895 2.122 11.9938 2.81103 12.7469C3.0687 13.0285 3.47029 13.0569 3.75991 12.8821C4.18055 12.6283 4.7204 12.6063 5.17342 12.8678C5.6286 13.1306 5.8797 13.6125 5.86764 14.1061C5.85937 14.4447 6.08362 14.7799 6.45676 14.8636C6.95451 14.9752 7.47165 15.0339 8.00173 15.0339C8.52275 15.0339 9.03128 14.9772 9.5212 14.8692C9.89652 14.7865 10.1221 14.4494 10.113 14.1094C10.0997 13.6146 10.351 13.1311 10.8072 12.8677C11.2636 12.6042 11.8083 12.6286 12.2302 12.8878C12.5197 13.0657 12.9238 13.0394 13.1833 12.7568C13.874 12.0048 14.4036 11.1012 14.7163 10.1008C14.8306 9.73506 14.6514 9.37255 14.3529 9.21092C13.9175 8.97514 13.6241 8.51566 13.6241 7.98864C13.6241 7.46323 13.9157 7.00497 14.349 6.76853C14.6469 6.60592 14.8249 6.24281 14.7094 5.87743C14.3935 4.87853 13.8612 3.97678 13.1681 3.22695C12.91 2.94766 12.51 2.92041 12.2214 3.09478C11.8007 3.34905 11.2605 3.37125 10.8072 3.10954C10.3555 2.84877 10.1048 2.37235 10.1127 1.88268C10.1182 1.5452 9.8927 1.21281 9.52063 1.13088C9.03089 1.02303 8.52255 0.966309 8.00173 0.966309ZM9.81736 8.02829C9.81736 9.05319 8.99195 9.87371 7.98646 9.87371C6.98098 9.87371 6.15557 9.05319 6.15557 8.02829C6.15557 7.00339 6.98098 6.18286 7.98646 6.18286C8.99195 6.18286 9.81736 7.00339 9.81736 8.02829ZM11.1251 8.02829C11.1251 9.76975 9.7199 11.1815 7.98646 11.1815C6.25302 11.1815 4.84779 9.76975 4.84779 8.02829C4.84779 6.28682 6.25302 4.87508 7.98646 4.87508C9.7199 4.87508 11.1251 6.28682 11.1251 8.02829Z" fill="#161823"/>
</svg>
