<svg width="20" height="20" viewBox="0 0 20 20" fill="none" xmlns="http://www.w3.org/2000/svg">
<path d="M9.83692 17.7486C10.2504 18.1148 10.8824 18.0765 11.2485 17.6631L17.4486 10.6631C17.7838 10.2846 17.7838 9.71548 17.4486 9.33701L11.2485 2.33701C10.8824 1.92357 10.2504 1.88527 9.83692 2.25145C9.42349 2.61764 9.38519 3.24964 9.75137 3.66308L15.3641 10L9.75137 16.337C9.38519 16.7504 9.42349 17.3824 9.83692 17.7486Z" fill="#161823"/>
<path d="M2.30854 17.7225C1.90956 17.3406 1.8957 16.7076 2.27758 16.3086L8.31576 10L2.27758 3.6915C1.8957 3.29252 1.90956 2.65951 2.30854 2.27762C2.70752 1.89574 3.34054 1.9096 3.72242 2.30858L10.4224 9.30859C10.7925 9.69527 10.7925 10.3048 10.4224 10.6915L3.72242 17.6915C3.34054 18.0905 2.70752 18.1043 2.30854 17.7225Z" fill="#161823"/>
</svg>
