<svg width="12" height="12" viewBox="0 0 12 12" fill="none" xmlns="http://www.w3.org/2000/svg">
<path d="M4.29115 5.03168C4.04093 5.03168 3.9077 5.32689 4.07326 5.51452L5.70947 7.3689C5.86371 7.5437 6.13628 7.5437 6.29052 7.3689L7.92673 5.51452C8.09229 5.32689 7.95907 5.03168 7.70884 5.03168H4.29115Z" fill="#161823"/>
<path d="M11 6C11 8.76142 8.76142 11 6 11C3.23858 11 1 8.76142 1 6C1 3.23858 3.23858 1 6 1C8.76142 1 11 3.23858 11 6ZM10 6C10 3.79086 8.20914 2 6 2C3.79086 2 2 3.79086 2 6C2 8.20914 3.79086 10 6 10C8.20914 10 10 8.20914 10 6Z" fill="#161823"/>
</svg>
