<svg width="20" height="20" viewBox="0 0 20 20" fill="none" xmlns="http://www.w3.org/2000/svg">
<path d="M6.74805 1.9834C4.95312 1.9834 3.49805 3.43848 3.49805 5.2334V14.7667C3.49805 16.5617 4.95312 18.0167 6.74805 18.0167H10.6339L9.70833 17.0911C9.53526 16.9181 9.39628 16.7238 9.29138 16.5167H6.74805C5.78155 16.5167 4.99805 15.7332 4.99805 14.7667V5.2334C4.99805 4.2669 5.78155 3.4834 6.74805 3.4834H13.248C14.2145 3.4834 14.998 4.2669 14.998 5.2334V11.8732L15.8879 10.6655C16.0595 10.4326 16.2674 10.2425 16.498 10.0969V5.2334C16.498 3.43847 15.043 1.9834 13.248 1.9834H6.74805Z" fill="#161823"/>
<path d="M6.69805 6.05005C6.69805 5.63584 7.03383 5.30005 7.44805 5.30005H12.545C12.9592 5.30005 13.295 5.63584 13.295 6.05005C13.295 6.46426 12.9592 6.80005 12.545 6.80005H7.44805C7.03383 6.80005 6.69805 6.46426 6.69805 6.05005Z" fill="#161823"/>
<path d="M6.69805 8.75006C6.69805 8.33585 7.03383 8.00006 7.44805 8.00006H12.545C12.9592 8.00006 13.295 8.33585 13.295 8.75006C13.295 9.16427 12.9592 9.50006 12.545 9.50006H7.44805C7.03383 9.50006 6.69805 9.16427 6.69805 8.75006Z" fill="#161823"/>
<path d="M7.44805 10.7001C7.03383 10.7001 6.69805 11.0359 6.69805 11.4501C6.69805 11.8643 7.03383 12.2001 7.44805 12.2001H10.7247C11.1389 12.2001 11.4747 11.8643 11.4747 11.4501C11.4747 11.0359 11.1389 10.7001 10.7247 10.7001H7.44805Z" fill="#161823"/>
<path d="M18.3031 12.4449C18.5488 12.1114 18.4777 11.6419 18.1442 11.3962C17.8108 11.1505 17.3412 11.2216 17.0955 11.5551L13.4129 16.5529L11.8296 14.9697C11.5368 14.6768 11.0619 14.6768 10.769 14.9697C10.4761 15.2626 10.4761 15.7374 10.769 16.0303L12.8868 18.1481C13.2546 18.5159 13.8635 18.47 14.1721 18.0513L18.3031 12.4449Z" fill="#161823"/>
</svg>
