<svg width="20" height="20" viewBox="0 0 20 20" fill="none" xmlns="http://www.w3.org/2000/svg">
<path d="M10.0001 9.16669C11.841 9.16669 13.3334 7.48775 13.3334 5.41669C13.3334 3.34562 11.841 1.66669 10.0001 1.66669C8.15913 1.66669 6.66675 3.34562 6.66675 5.41669C6.66675 7.48775 8.15913 9.16669 10.0001 9.16669Z" fill="#161823"/>
<path d="M10 10.4167C8.04692 10.4167 6.2428 10.9044 4.88673 11.7652C3.54213 12.6187 2.5 13.9477 2.5 15.6061V16.25C2.5 17.4006 3.43274 18.3334 4.58333 18.3334H12.664C12.7549 18.3334 12.8331 18.2716 12.8645 18.1863C12.8941 18.1057 12.93 18.0281 12.9714 17.9541C13.0271 17.8548 13.006 17.726 12.9149 17.6578C11.8062 16.8278 11.0954 15.4966 11.1169 14.0035L11.1235 13.5479C11.1358 12.6963 11.8283 11.9999 12.6564 11.9495C12.7725 11.9424 12.8719 11.8518 12.8719 11.7354V11.4828C12.8719 11.3199 12.8862 11.1603 12.9135 11.0052C12.9323 10.8989 12.8716 10.7922 12.7672 10.7646C11.9062 10.5374 10.9715 10.4167 10 10.4167Z" fill="#161823"/>
<path d="M15.6047 10C14.7858 10 14.1219 10.6639 14.1219 11.4828V14.0696C14.1219 14.8885 14.7858 15.5524 15.6047 15.5524C16.4236 15.5524 17.0875 14.8885 17.0875 14.0696V11.4828C17.0875 10.6639 16.4236 10 15.6047 10Z" fill="#161823"/>
<path d="M11.9727 14.0765C11.9727 15.9044 13.3229 17.417 15.0804 17.6711V18.2952C15.0804 18.3241 15.0829 18.3524 15.0876 18.38H14.39C14.1139 18.38 13.89 18.6039 13.89 18.88C13.89 19.1561 14.1139 19.38 14.39 19.38H16.7709C17.047 19.38 17.2709 19.1561 17.2709 18.88C17.2709 18.6039 17.047 18.38 16.7709 18.38H16.0733C16.078 18.3524 16.0804 18.3241 16.0804 18.2952V17.6779C17.8618 17.4449 19.2371 15.9213 19.2371 14.0765V13.5631C19.2371 13.2038 18.9459 12.9125 18.5866 12.9125C18.2272 12.9125 17.936 13.2038 17.936 13.5631V14.0838C17.936 15.3746 16.8895 16.4211 15.5987 16.4211C14.3078 16.4211 13.2614 15.3746 13.2614 14.0838V13.5737C13.2614 13.2179 12.9729 12.9294 12.617 12.9294C12.2611 12.9294 11.9727 13.2179 11.9727 13.5737L11.9727 14.0765Z" fill="#161823"/>
</svg>
