<svg width="20" height="20" viewBox="0 0 20 20" fill="none" xmlns="http://www.w3.org/2000/svg">
<path d="M8.80783 4C8.39174 4 8.00293 4.20704 7.77068 4.55228L7.15743 5.46387C6.83228 5.9472 6.28794 6.23706 5.70542 6.23706H5.47559C4.23294 6.23706 3.22559 7.24442 3.22559 8.48706L3.22559 13.7463C3.22559 14.9889 4.23294 15.9963 5.47558 15.9963H14.5249C15.7675 15.9963 16.7749 14.9889 16.7749 13.7463V8.48706C16.7749 7.24442 15.7675 6.23706 14.5249 6.23706H14.2951C13.7125 6.23706 13.1682 5.9472 12.843 5.46387L12.2298 4.55228C11.9975 4.20704 11.6087 4 11.1926 4H8.80783ZM6.5261 3.71502C7.03705 2.95549 7.89244 2.5 8.80783 2.5H11.1926C12.108 2.5 12.9634 2.95549 13.4744 3.71501L14.0876 4.6266C14.1341 4.69565 14.2118 4.73706 14.2951 4.73706H14.5249C16.596 4.73706 18.2749 6.41599 18.2749 8.48706V13.7463C18.2749 15.8174 16.596 17.4963 14.5249 17.4963H5.47558C3.40451 17.4963 1.72559 15.8174 1.72559 13.7463L1.72559 8.48706C1.72559 6.41599 3.40452 4.73706 5.47559 4.73706H5.70542C5.78863 4.73706 5.8664 4.69565 5.91285 4.6266L6.5261 3.71502Z" fill="#161823"/>
<path d="M10.0002 8.46235C8.80363 8.46235 7.83358 9.4324 7.83358 10.629C7.83358 11.8256 8.80363 12.7957 10.0002 12.7957C11.1969 12.7957 12.1669 11.8256 12.1669 10.629C12.1669 9.4324 11.1969 8.46235 10.0002 8.46235ZM6.33358 10.629C6.33358 8.60397 7.9752 6.96235 10.0002 6.96235C12.0253 6.96235 13.6669 8.60397 13.6669 10.629C13.6669 12.6541 12.0253 14.2957 10.0002 14.2957C7.9752 14.2957 6.33358 12.6541 6.33358 10.629Z" fill="#161823"/>
</svg>
