<svg width="20" height="20" viewBox="0 0 20 20" fill="none" xmlns="http://www.w3.org/2000/svg">
<path d="M2.25142 10.1631C2.61761 10.5765 3.24961 10.6148 3.66305 10.2486L10 4.63585L16.337 10.2486C16.7504 10.6148 17.3824 10.5765 17.7486 10.1631C18.1148 9.74962 18.0765 9.11761 17.663 8.75143L10.663 2.55142C10.2846 2.2162 9.71545 2.2162 9.33698 2.55142L2.33698 8.75143C1.92354 9.11761 1.88524 9.74962 2.25142 10.1631Z" fill="#161823"/>
<path d="M2.27759 17.6914C2.65947 18.0904 3.29249 18.1043 3.69147 17.7224L10 11.6842L16.3086 17.7224C16.7075 18.1043 17.3405 18.0904 17.7224 17.6914C18.1043 17.2925 18.0904 16.6594 17.6915 16.2776L10.6915 9.57756C10.3048 9.20745 9.69524 9.20745 9.30855 9.57756L2.30855 16.2776C1.90957 16.6594 1.89571 17.2925 2.27759 17.6914Z" fill="#161823"/>
</svg>
