<svg width="24" height="24" viewBox="0 0 24 24" fill="none" xmlns="http://www.w3.org/2000/svg">
<path fill-rule="evenodd" clip-rule="evenodd" d="M12 22C17.5228 22 22 17.5228 22 12C22 6.47715 17.5228 2 12 2C6.47715 2 2 6.47715 2 12C2 17.5228 6.47715 22 12 22ZM12.2829 8.98426C12.3835 8.74138 12.6205 8.58301 12.8834 8.58301H16.3834C16.7424 8.58301 17.0334 8.87402 17.0334 9.23301V12.733C17.0334 12.9959 16.875 13.2329 16.6322 13.3335C16.3893 13.4341 16.1097 13.3785 15.9238 13.1926L14.7297 11.9985L12.7233 14.2339C12.4507 14.5378 11.985 14.5677 11.6757 14.3012L10.1972 13.0277L8.18838 15.2374C7.90975 15.5439 7.43542 15.5665 7.12892 15.2879C6.82243 15.0092 6.79984 14.5349 7.07847 14.2284L9.57847 11.4784C9.85184 11.1777 10.315 11.1494 10.6229 11.4147L12.0979 12.6851L13.6675 10.9363L12.4238 9.69263C12.2379 9.50673 12.1823 9.22715 12.2829 8.98426Z" fill="#161823"/>
</svg>
