<svg width="24" height="24" viewBox="0 0 24 24" fill="none" xmlns="http://www.w3.org/2000/svg">
<path d="M16.899 15.5822C16.8134 15.5627 16.7287 15.5433 16.6452 15.5241C16.4912 15.4888 16.341 15.4543 16.1956 15.4217L16.1672 15.4153L16.139 15.4078C14.1111 14.8697 12.122 14.0582 10.2225 12.9615C8.50092 11.9675 6.94523 10.7926 5.56692 9.47387L5.54587 9.45373L5.52562 9.43279C5.45744 9.36229 5.3884 9.29109 5.31867 9.21918L5.31811 9.21859C5.221 9.11845 5.12255 9.01692 5.02321 8.91396C5.0079 9.10966 5.0001 9.30746 5.0001 9.50708C5.0001 10.9542 5.40995 12.3056 6.1199 13.4515L4.15322 17.9106C3.58671 19.1951 4.07861 20.7 5.29436 21.4019L5.80093 21.6944C7.01668 22.3963 8.56595 22.0698 9.39506 20.937L12.2738 17.0037C12.349 17.006 12.4244 17.0071 12.5001 17.0071C14.1434 17.0071 15.6633 16.4786 16.899 15.5822Z" fill="#161823"/>
<path d="M4.7006 5.12852C5.02401 4.86972 5.49599 4.92209 5.75479 5.2455C5.85985 5.37679 5.9666 5.50697 6.07503 5.63601C7.38816 3.46119 9.77432 2.00708 12.5001 2.00708C16.6422 2.00708 20.0001 5.36494 20.0001 9.50708C20.0001 10.7582 19.6938 11.9377 19.152 12.9748C19.5542 13.0435 19.8288 13.4221 19.767 13.8271C19.7592 13.8783 19.7464 13.9275 19.7292 13.9743C19.6786 14.1116 19.5897 14.2281 19.4772 14.3129C19.3215 14.4303 19.1205 14.4872 18.9126 14.4555C18.9047 14.4543 18.8968 14.4531 18.8889 14.4519C18.7309 14.4275 18.5735 14.4003 18.4164 14.371L18.4159 14.3709C17.9434 14.2826 17.4746 14.1752 17.0059 14.0677C16.8452 14.0309 16.6846 13.9941 16.5238 13.958C14.6226 13.4535 12.7564 12.6924 10.9725 11.6625C9.35565 10.729 7.89619 9.62647 6.6039 8.39004C6.53515 8.31895 6.46636 8.24798 6.39761 8.17705C5.88774 7.65102 5.37965 7.12681 4.90437 6.57027L4.90412 6.56998C4.80012 6.44819 4.6977 6.32486 4.59716 6.19962C4.59265 6.19398 4.58813 6.18835 4.58362 6.18271C4.48657 6.06143 4.43328 5.91926 4.42163 5.77527C4.41497 5.69291 4.42193 5.60996 4.44212 5.52999C4.48075 5.37693 4.56784 5.23476 4.7006 5.12852Z" fill="#161823"/>
</svg>
