<svg width="24" height="24" viewBox="0 0 24 24" fill="none" xmlns="http://www.w3.org/2000/svg">
<path d="M10.0534 7C8.15806 7 6.67053 8.53692 6.67053 10.6265C6.67053 11.7939 7.16081 12.899 7.9324 13.8937C8.70303 14.887 9.78314 15.8094 11.0493 16.6346C11.1586 16.7082 11.2894 16.7888 11.4266 16.8539C11.5473 16.9112 11.757 16.9984 11.9977 16.9984C12.2366 16.9984 12.4466 16.9123 12.5678 16.8554C12.7063 16.7905 12.8389 16.7099 12.9507 16.6347C14.2169 15.8094 15.297 14.887 16.0676 13.8937C16.8392 12.899 17.3295 11.7939 17.3295 10.6265C17.3295 8.53692 15.842 7 13.9466 7C13.149 7 12.4963 7.29455 12.0004 7.75324C11.5043 7.29326 10.8489 7 10.0534 7ZM8.17053 10.6265C8.17053 9.28678 9.06293 8.5 10.0534 8.5C10.6285 8.5 11.0572 8.79885 11.3347 9.32347L11.9897 10.5615L12.6571 9.3301C12.9462 8.79664 13.3741 8.5 13.9466 8.5C14.9371 8.5 15.8295 9.28678 15.8295 10.6265C15.8295 11.3612 15.521 12.1511 14.8824 12.9742C14.2439 13.7973 13.3043 14.6142 12.1271 15.381L12.1168 15.3878C12.0739 15.4168 12.0343 15.4414 11.9995 15.4613C11.9655 15.4415 11.9264 15.417 11.8832 15.3878L11.8729 15.381C10.6957 14.6142 9.7561 13.7973 9.11758 12.9742C8.47902 12.1511 8.17053 11.3612 8.17053 10.6265Z" fill="#161823"/>
<path d="M13.8536 1.74725C12.6448 1.40277 11.364 1.40261 10.1551 1.74678L4.24695 3.42895C3.06516 3.76543 2.25 4.84508 2.25 6.07384V9.81887C2.25 15.1126 5.38593 19.8578 10.1733 22.0856C11.3315 22.6245 12.6712 22.6245 13.8294 22.0854C18.6152 19.8577 21.75 15.1137 21.75 9.8213V6.07344C21.75 4.84493 20.9352 3.76545 19.7537 3.42874L13.8536 1.74725ZM10.5659 3.18944C11.5061 2.92175 12.5023 2.92188 13.4424 3.18981L19.3426 4.8713C19.8796 5.02435 20.25 5.51503 20.25 6.07344V9.8213C20.25 14.5098 17.4723 18.7351 13.1964 20.7255C12.4395 21.0778 11.5631 21.0778 10.8061 20.7256C6.52877 18.7351 3.75 14.5087 3.75 9.81887V6.07384C3.75 5.51531 4.12053 5.02456 4.65771 4.87161L10.5659 3.18944Z" fill="#161823"/>
</svg>
