<svg width="16" height="16" viewBox="0 0 16 16" fill="none" xmlns="http://www.w3.org/2000/svg">
<path fill-rule="evenodd" clip-rule="evenodd" d="M7.55305 4.83604C6.82281 4.33885 5.83398 4.86186 5.83398 5.7453V10.2547C5.83398 11.1381 6.82281 11.6611 7.55305 11.1639L10.8646 8.90924C11.5059 8.47265 11.5059 7.52731 10.8646 7.09072L7.55305 4.83604ZM7.03398 10.0656V5.93436L10.0679 7.99998L7.03398 10.0656Z" fill="#161823"/>
<path fill-rule="evenodd" clip-rule="evenodd" d="M15 8C15 11.866 11.866 15 8 15C4.13401 15 1 11.866 1 8C1 4.13401 4.13401 1 8 1C11.866 1 15 4.13401 15 8ZM13.8 8C13.8 11.2033 11.2033 13.8 8 13.8C4.79675 13.8 2.2 11.2033 2.2 8C2.2 4.79675 4.79675 2.2 8 2.2C11.2033 2.2 13.8 4.79675 13.8 8Z" fill="#161823"/>
</svg>
