<svg width="24" height="24" viewBox="0 0 24 24" fill="none" xmlns="http://www.w3.org/2000/svg">
<path d="M19 4.25977C19 2.93479 17.5847 2.09042 16.4187 2.71981L12.4352 4.87014C11.669 5.28371 10.812 5.50025 9.94134 5.50025H4.75C3.23122 5.50025 2 6.73147 2 8.25025V12.7564C2 14.1302 3.00747 15.2688 4.32392 15.4736L7.56538 21.0879C8.32235 22.399 9.99886 22.8483 11.31 22.0913C12.6211 21.3343 13.0703 19.6578 12.3133 18.3467L10.7057 15.5623C11.3093 15.6511 11.8948 15.8448 12.4352 16.1365L16.4187 18.2868C17.5847 18.9162 19 18.0718 19 16.7468V14.4331C20.8506 14.0821 22.25 12.4561 22.25 10.5033C22.25 8.55052 20.8506 6.92456 19 6.57351V4.25977ZM19 8.11776C20.0143 8.43633 20.75 9.3839 20.75 10.5033C20.75 11.6227 20.0143 12.5703 19 12.8889V8.11776ZM8.94139 15.5064L11.0143 19.0967C11.357 19.6904 11.1536 20.4495 10.56 20.7923C9.9663 21.135 9.20718 20.9316 8.86442 20.3379L6.07491 15.5064H8.94139ZM17.1312 4.03978C17.2978 3.94986 17.5 4.07049 17.5 4.25977V16.7468C17.5 16.9361 17.2978 17.0568 17.1312 16.9668L13.1477 14.8165C12.1626 14.2848 11.0608 14.0064 9.94134 14.0064H4.75C4.05964 14.0064 3.5 13.4467 3.5 12.7564V8.25025C3.5 7.55989 4.05964 7.00025 4.75 7.00025H9.94134C11.0608 7.00025 12.1626 6.72185 13.1477 6.19011L17.1312 4.03978Z" fill="#161823"/>
</svg>
