<svg width="20" height="20" viewBox="0 0 20 20" fill="none" xmlns="http://www.w3.org/2000/svg">
<path fill-rule="evenodd" clip-rule="evenodd" d="M4.30318 2.33624C3.94098 2.11546 3.48989 2.10968 3.12233 2.32111C2.75477 2.53253 2.52756 2.92847 2.52756 3.35759V5.37542C2.52756 5.80454 2.75477 6.20048 3.12233 6.4119C3.48989 6.62333 3.94098 6.61754 4.30318 6.39677L5.95835 5.38785C6.31149 5.17259 6.52756 4.78489 6.52756 4.3665C6.52756 3.94812 6.31149 3.56042 5.95835 3.34516L4.30318 2.33624ZM8.12478 3.76373C7.7796 3.76373 7.49978 4.04355 7.49978 4.38873C7.49978 4.7339 7.7796 5.01373 8.12478 5.01373H16.847C17.1922 5.01373 17.472 4.7339 17.472 4.38873C17.472 4.04355 17.1922 3.76373 16.847 3.76373H8.12478ZM2.51367 10.0137C2.51367 9.66855 2.79349 9.38872 3.13867 9.38872H16.8331C17.1783 9.38872 17.4581 9.66855 17.4581 10.0137C17.4581 10.3589 17.1783 10.6387 16.8331 10.6387H3.13867C2.79349 10.6387 2.51367 10.3589 2.51367 10.0137ZM9.20812 16.2637L3.13867 16.2637C2.79349 16.2637 2.51367 15.9839 2.51367 15.6387C2.51367 15.2935 2.79349 15.0137 3.13867 15.0137L9.20812 15.0137C9.55329 15.0137 9.83312 15.2935 9.83312 15.6387C9.83312 15.9839 9.55329 16.2637 9.20812 16.2637ZM15.1058 17.4102C16.3324 17.4102 17.3268 16.4158 17.3268 15.1892C17.3268 13.9625 16.3324 12.9681 15.1058 12.9681C13.8791 12.9681 12.8848 13.9625 12.8848 15.1892C12.8848 16.4158 13.8791 17.4102 15.1058 17.4102ZM15.1058 18.3229C16.8365 18.3229 18.2395 16.9199 18.2395 15.1892C18.2395 13.4584 16.8365 12.0554 15.1058 12.0554C13.375 12.0554 11.972 13.4584 11.972 15.1892C11.972 16.9199 13.375 18.3229 15.1058 18.3229ZM14.915 13.4889C15.167 13.4889 15.3714 13.6933 15.3714 13.9453V14.9788H16.4048C16.6569 14.9788 16.8612 15.1831 16.8612 15.4352C16.8612 15.6872 16.6569 15.8915 16.4048 15.8915H14.915C14.6629 15.8915 14.4586 15.6872 14.4586 15.4352V13.9453C14.4586 13.6933 14.6629 13.4889 14.915 13.4889Z" fill="#161823"/>
</svg>
