<svg width="20" height="20" viewBox="0 0 20 20" fill="none" xmlns="http://www.w3.org/2000/svg">
<path d="M1.66699 7.21215C1.66699 6.6182 1.94374 6.05817 2.41554 5.69737C4.46512 4.12996 7.27901 4.02104 9.44362 5.42531L9.64442 5.55558C9.77874 5.64272 9.90264 5.742 10.0151 5.85147C10.1084 5.76578 10.2092 5.68698 10.3168 5.61615L10.4728 5.51354C12.6756 4.06447 15.5609 4.19856 17.6198 5.84568C18.071 6.20662 18.3336 6.75308 18.3336 7.33086V16.8041C18.3336 17.6728 17.3406 18.1675 16.6472 17.6442L16.3802 17.4427C14.6724 16.1541 12.3304 16.1459 10.6181 17.3968C10.4895 17.5795 10.2789 17.6924 10.0577 17.7018C9.78091 17.7347 9.50213 17.6014 9.354 17.3651C7.67777 16.1431 5.38671 16.1437 3.70614 17.3966L3.36275 17.6526C2.66266 18.1745 1.66699 17.6748 1.66699 16.8016V7.21215ZM9.24537 7.58213C9.24537 7.27192 9.0883 6.9828 8.82806 6.81397L8.62725 6.6837C6.99472 5.62461 4.87251 5.70676 3.32674 6.88888C3.22605 6.96588 3.16699 7.0854 3.16699 7.21215V15.9462C5.00843 14.7617 7.31363 14.6402 9.24537 15.5614V7.58213ZM16.8336 7.33086C16.8336 7.20875 16.7781 7.09326 16.6828 7.01698C15.1313 5.7758 12.9571 5.67476 11.2972 6.7667L11.1412 6.8693C10.8942 7.03183 10.7454 7.30771 10.7454 7.60343V15.5817C12.6805 14.6601 14.9831 14.7733 16.8336 15.9351V7.33086Z" fill="#161823"/>
</svg>
