<svg width="16" height="16" viewBox="0 0 16 16" fill="none" xmlns="http://www.w3.org/2000/svg">
<path fill-rule="evenodd" clip-rule="evenodd" d="M3.01387 3.08641C3.01387 2.73137 3.30168 2.44355 3.65672 2.44355H10.6282C10.9832 2.44355 11.271 2.73137 11.271 3.08641V7.32968L11.2998 7.32959C11.742 7.32959 12.1688 7.39523 12.571 7.51729V3.08641C12.571 2.0134 11.7012 1.14355 10.6282 1.14355H3.65672C2.58371 1.14355 1.71387 2.0134 1.71387 3.08641V12.3436C1.71387 13.4166 2.58371 14.2864 3.65672 14.2864H7.77454C7.4886 13.8972 7.26557 13.4588 7.12044 12.9864H3.65672C3.30168 12.9864 3.01387 12.6986 3.01387 12.3436V3.08641ZM8.77954 7.00931L6.79988 5.70068C6.45054 5.46976 5.97696 5.71213 5.97696 6.12185L5.97696 8.7391C5.97696 9.14882 6.45054 9.3912 6.79988 9.16027L8.77954 7.85165C9.08576 7.64923 9.08576 7.21173 8.77954 7.00931ZM8.50006 11.7009C8.50006 13.2473 9.75366 14.5009 11.3001 14.5009C12.8465 14.5009 14.1001 13.2473 14.1001 11.7009C14.1001 10.1545 12.8465 8.90088 11.3001 8.90088C9.75366 8.90088 8.50006 10.1545 8.50006 11.7009ZM7.50006 11.7009C7.50006 13.7996 9.20138 15.5009 11.3001 15.5009C13.3987 15.5009 15.1001 13.7996 15.1001 11.7009C15.1001 9.6022 13.3987 7.90088 11.3001 7.90088C9.20138 7.90088 7.50006 9.6022 7.50006 11.7009ZM11.2998 9.80127C11.5207 9.80127 11.6998 9.98036 11.6998 10.2013V11.3013H12.7998C13.0207 11.3013 13.1998 11.4804 13.1998 11.7013C13.1998 11.9222 13.0207 12.1013 12.7998 12.1013H11.2998C11.0789 12.1013 10.8998 11.9222 10.8998 11.7013V10.2013C10.8998 9.98036 11.0789 9.80127 11.2998 9.80127Z" fill="#161823"/>
</svg>
