<svg width="20" height="20" viewBox="0 0 20 20" fill="none" xmlns="http://www.w3.org/2000/svg">
<path d="M3.32617 4.42358C3.32617 2.9048 4.55739 1.67358 6.07617 1.67358H13.9245C15.4433 1.67358 16.6745 2.9048 16.6745 4.42358V8.67258C16.6745 8.79971 16.5574 8.89427 16.4314 8.87743C15.7285 8.78345 15.0019 8.91952 14.3677 9.28565L12.1328 10.576C11.1235 11.1587 10.5018 12.2356 10.5018 13.4009V15.9817C10.5018 16.707 10.7427 17.3981 11.1679 17.957C11.2768 18.1001 11.1813 18.3264 11.0015 18.3264H6.07617C4.55739 18.3264 3.32617 17.0952 3.32617 15.5764V4.42358ZM7.08363 4.875C6.66942 4.875 6.33363 5.21079 6.33363 5.625C6.33363 6.03921 6.66942 6.375 7.08363 6.375H12.917C13.3312 6.375 13.667 6.03921 13.667 5.625C13.667 5.21079 13.3312 4.875 12.917 4.875H7.08363ZM6.33367 8.125C6.33367 8.53921 6.66946 8.875 7.08367 8.875H10.8337C11.2479 8.875 11.5837 8.53921 11.5837 8.125C11.5837 7.71079 11.2479 7.375 10.8337 7.375H7.08367C6.66946 7.375 6.33367 7.71079 6.33367 8.125Z" fill="#161823"/>
<path d="M15.9987 15.9413C16.689 15.9413 17.2487 15.3816 17.2487 14.6913C17.2487 14.0009 16.689 13.4413 15.9987 13.4413C15.3083 13.4413 14.7487 14.0009 14.7487 14.6913C14.7487 15.3816 15.3083 15.9413 15.9987 15.9413Z" fill="#161823"/>
<path d="M16.8796 10.5847C16.3345 10.2699 15.6628 10.2699 15.1177 10.5847L12.8827 11.875C12.3376 12.1898 12.0018 12.7714 12.0018 13.4009V15.9816C12.0018 16.6111 12.3376 17.1928 12.8827 17.5075L15.1177 18.7979C15.6628 19.1126 16.3345 19.1126 16.8796 18.7979L19.1146 17.5075C19.6598 17.1928 19.9956 16.6111 19.9956 15.9816V13.4009C19.9956 12.7714 19.6598 12.1898 19.1146 11.875L16.8796 10.5847ZM15.8677 11.8837C15.9487 11.8369 16.0486 11.8369 16.1296 11.8837L18.3646 13.1741C18.4457 13.2209 18.4956 13.3073 18.4956 13.4009V15.9816C18.4956 16.0752 18.4457 16.1617 18.3646 16.2085L16.1296 17.4988C16.0486 17.5456 15.9487 17.5456 15.8677 17.4988L13.6327 16.2085C13.5517 16.1617 13.5018 16.0752 13.5018 15.9816V13.4009C13.5018 13.3073 13.5517 13.2209 13.6327 13.1741L15.8677 11.8837Z" fill="#161823"/>
</svg>
