<svg width="24" height="24" viewBox="0 0 24 24" fill="none" xmlns="http://www.w3.org/2000/svg">
<path d="M13.1714 21.0358C12.7621 21.312 12.3018 21.5575 11.9949 21.5575C11.688 21.5575 11.2379 21.312 10.8286 21.0358C5.48849 17.5575 2 13.4348 2 9.28133C2 5.53708 4.59847 3 7.74936 3C8.60704 3 9.36524 3.20676 10.0171 3.57174L9.08537 6.71226C9.03283 6.88936 9.08221 7.081 9.2138 7.21065L11.3579 9.32314C11.4821 9.44557 11.5336 9.6239 11.4937 9.79371L10.8222 12.6506C10.7753 12.8501 11.023 12.9826 11.1629 12.833L14.0407 9.75707C14.1754 9.61303 14.2129 9.40322 14.1363 9.22143L13.1453 6.86796C13.0989 6.7578 13.0935 6.63466 13.1301 6.52086L14.098 3.51074C14.7234 3.18381 15.442 3 16.2506 3C19.4015 3 22 5.53708 22 9.28133C22 13.4348 18.5115 17.5575 13.1714 21.0358Z" fill="#161823"/>
</svg>
