<svg width="16" height="16" viewBox="0 0 16 16" fill="none" xmlns="http://www.w3.org/2000/svg">
<path d="M2.0629 9.60886L4.24241 7.42441L5.51521 8.69721L3.33713 10.8802C2.90838 11.3099 2.90877 12.0057 3.338 12.435L3.5737 12.6707C4.00362 13.1006 4.70078 13.1002 5.13021 12.6698L7.30654 10.4885L8.57934 11.7613L6.40444 13.9411C5.2723 15.0758 3.43434 15.0769 2.30091 13.9435L2.06521 13.7078C0.933592 12.5761 0.932561 10.7417 2.0629 9.60886Z" fill="#161823"/>
<path d="M12.6657 5.11723L10.4849 7.30297L11.7577 8.57576L13.94 6.38859C15.0703 5.25569 15.0693 3.4213 13.9377 2.28968L13.702 2.05398C12.5685 0.920555 10.7306 0.921593 9.59842 2.0563L7.4208 4.23884L8.69359 5.51163L10.8727 3.32765C11.3021 2.89725 11.9992 2.89685 12.4292 3.32677L12.6649 3.56247C13.0941 3.99171 13.0945 4.68751 12.6657 5.11723Z" fill="#161823"/>
<path d="M3.86348 2.80285C3.57059 2.50995 3.09571 2.50995 2.80282 2.80285C2.50993 3.09574 2.50993 3.57061 2.80282 3.86351L12.1362 13.1968C12.429 13.4897 12.9039 13.4897 13.1968 13.1968C13.4897 12.9039 13.4897 12.4291 13.1968 12.1362L3.86348 2.80285Z" fill="#161823"/>
</svg>
