<svg width="16" height="16" viewBox="0 0 16 16" fill="none" xmlns="http://www.w3.org/2000/svg">
<path d="M2.75 1.99725C2.33579 1.99725 2 2.33304 2 2.74725V5.74722C2 6.16143 2.33579 6.49722 2.75 6.49722C3.16421 6.49722 3.5 6.16143 3.5 5.74722V3.49725H5.74996C6.16418 3.49725 6.49996 3.16147 6.49996 2.74725C6.49996 2.33304 6.16418 1.99725 5.74996 1.99725H2.75Z" fill="#161823"/>
<path d="M2.75 14.0044C2.33579 14.0044 2 13.6686 2 13.2544V10.2565C2 9.84233 2.33579 9.50655 2.75 9.50655C3.16421 9.50655 3.5 9.84233 3.5 10.2565V12.5044H5.74786C6.16208 12.5044 6.49786 12.8402 6.49786 13.2544C6.49786 13.6686 6.16208 14.0044 5.74786 14.0044H2.75Z" fill="#161823"/>
<path d="M14 2.74725C14 2.33304 13.6642 1.99725 13.25 1.99725H10.2484C9.83417 1.99725 9.49838 2.33304 9.49838 2.74725C9.49838 3.16147 9.83417 3.49725 10.2484 3.49725H12.5V5.74887C12.5 6.16308 12.8358 6.49887 13.25 6.49887C13.6642 6.49887 14 6.16308 14 5.74887V2.74725Z" fill="#161823"/>
<path d="M13.25 14.0044C13.6642 14.0044 14 13.6686 14 13.2544V10.2542C14 9.83996 13.6642 9.50418 13.25 9.50418C12.8358 9.50418 12.5 9.83996 12.5 10.2542V12.5044H10.2498C9.83555 12.5044 9.49977 12.8402 9.49977 13.2544C9.49977 13.6686 9.83555 14.0044 10.2498 14.0044H13.25Z" fill="#161823"/>
</svg>
