<svg width="20" height="20" viewBox="0 0 20 20" fill="none" xmlns="http://www.w3.org/2000/svg">
<path d="M7.11688 9.16667C8.77374 9.16667 10.1169 7.67428 10.1169 5.83333C10.1169 3.99238 8.77374 2.5 7.11688 2.5C5.46003 2.5 4.11688 3.99238 4.11688 5.83333C4.11688 7.67428 5.46003 9.16667 7.11688 9.16667Z" fill="#161823"/>
<path d="M7.11686 10.1667C5.36566 10.1667 3.72661 10.5928 2.47576 11.368C1.24292 12.1321 0.200195 13.3774 0.200195 15V15.4167C0.200195 16.7053 1.24486 17.75 2.53353 17.75H11.7002C12.9889 17.75 14.0335 16.7053 14.0335 15.4167V15C14.0335 13.3774 12.9908 12.1321 11.758 11.368C10.5071 10.5928 8.86807 10.1667 7.11686 10.1667Z" fill="#161823"/>
<path d="M16.2853 6.3804C16.2853 7.91555 15.1653 9.16003 13.7836 9.16003C12.402 9.16003 11.282 7.91555 11.282 6.3804C11.282 4.84525 12.402 3.60077 13.7836 3.60077C15.1653 3.60077 16.2853 4.84525 16.2853 6.3804Z" fill="#161823"/>
<path d="M13.7836 10.2911C13.4514 10.2911 13.1234 10.309 12.8021 10.3442C14.2188 11.3172 15.5188 12.9352 15.5188 15.1238V15.5805C15.5188 16.1278 15.4022 16.647 15.1934 17.1131H17.6056C18.8178 17.1131 19.8005 16.1304 19.8005 14.9182V14.5707C19.8005 13.101 18.8562 11.9941 17.785 11.3302C16.6958 10.6552 15.2817 10.2911 13.7836 10.2911Z" fill="#161823"/>
</svg>
