<svg width="24" height="24" viewBox="0 0 24 24" fill="none" xmlns="http://www.w3.org/2000/svg">
<path d="M2.46967 2.46967C2.76256 2.17678 3.23744 2.17678 3.53033 2.46967L7.5 6.43934V5.99404C7.5 5.00993 8.21591 4.17206 9.18797 4.01853L17.844 2.65132C18.451 2.55545 19 3.02458 19 3.63908L18.9999 17.0461L19 17.0601V17.5079C19 17.6447 18.9908 17.7797 18.9728 17.9122L21.5303 20.4697C21.8232 20.7626 21.8232 21.2374 21.5303 21.5303C21.2391 21.8216 20.7679 21.8232 20.4747 21.5353L3.45904 4.51966C3.45742 4.51803 3.45579 4.51642 3.45415 4.51481L2.46967 3.53033C2.17678 3.23744 2.17678 2.76256 2.46967 2.46967ZM16.5339 15.4732L16.6909 15.4441L16.6842 15.4381C17.1572 15.3494 17.4999 14.9364 17.4999 14.4552V7.71485L9.96347 8.90281L16.5339 15.4732ZM9.42199 5.50016C9.17898 5.53854 9 5.74801 9 5.99404V7.52631L17.5 6.18663V4.22425L9.42199 5.50016Z" fill="#161823"/>
<path d="M7.49995 10.6819L7.49995 16.327C7.49995 16.8079 7.15765 17.2207 6.68506 17.3097L6.68803 17.3124L5.00203 17.6285C3.84119 17.8462 3 18.8598 3 20.0408C3 21.5782 4.39728 22.7371 5.90815 22.4528L6.55472 22.3312C7.97277 22.0644 9 20.8258 9 19.3829L9 18.9273L8.99994 18.9133L8.99995 12.1819L7.49995 10.6819ZM6.27736 20.857L5.63079 20.9787C5.04331 21.0892 4.5 20.6386 4.5 20.0408C4.5 19.5816 4.82709 19.1875 5.27846 19.1028L7.26314 18.7307C7.38623 18.7076 7.5 18.802 7.5 18.9273L7.5 19.3829C7.5 20.1044 6.98639 20.7236 6.27736 20.857Z" fill="#161823"/>
<path d="M13.5009 16.6829C13.1849 17.0979 13 17.6146 13 18.1681C13 19.7043 14.3962 20.8623 15.9059 20.5783L16.5547 20.4562C16.7485 20.4197 16.9349 20.3651 17.1124 20.2944L15.8757 19.0576L15.6285 19.1041C15.0422 19.2144 14.5 18.7647 14.5 18.1681C14.5 18.0266 14.5311 17.8913 14.5874 17.7693L13.5009 16.6829Z" fill="#161823"/>
</svg>
