<svg width="24" height="24" viewBox="0 0 24 24" fill="none" xmlns="http://www.w3.org/2000/svg">
<path d="M19.5605 11.9531C20.6908 11.7807 21.5995 12.6555 21.5996 13.7988V19.7236C21.5996 19.7643 21.5967 19.8047 21.5908 19.8438C21.5087 20.7017 20.9786 21.4149 20.1172 21.5781L19.708 21.6553C18.7157 21.8433 17.7969 21.0823 17.7969 20.0723C17.797 19.2979 18.3484 18.6329 19.1094 18.4893L20.2178 18.3008V13.5439C20.2178 13.3806 20.0726 13.2556 19.9111 13.2803L16.5439 13.9004C16.4137 13.9203 16.3175 14.0324 16.3174 14.1641V20.7588C16.3173 21.6986 15.7769 22.5057 14.8535 22.6807L14.4443 22.7578C13.452 22.9458 12.5332 22.1848 12.5332 21.1748C12.5334 20.4004 13.0847 19.7355 13.8457 19.5918L14.9355 19.4004V14.2734C14.9357 13.3511 15.5365 12.6763 16.4482 12.5371L19.5605 11.9531Z" fill="#161823"/>
<path d="M14.8457 1.72461C16.9587 1.83215 18.6395 3.58002 18.6396 5.71973V10.6582C18.6394 10.737 18.5819 10.8045 18.5039 10.8164L17.0244 11.042C16.9275 11.0568 16.8398 10.9818 16.8398 10.8838V5.71973C16.8397 4.50503 15.8543 3.51987 14.6396 3.51953H6.39941C5.18447 3.51953 4.19936 4.50482 4.19922 5.71973V17.5996C4.19922 18.8146 5.18439 19.7998 6.39941 19.7998H11.21C11.3271 19.8001 11.4044 19.9225 11.3633 20.0322C11.2397 20.3619 11.172 20.7172 11.1719 21.0859C11.1719 21.1962 11.1781 21.3052 11.1895 21.4121C11.1999 21.5106 11.1244 21.5996 11.0254 21.5996H6.39941C4.19028 21.5996 2.39941 19.8087 2.39941 17.5996V5.71973C2.39955 3.57981 4.08006 1.83184 6.19336 1.72461L6.39941 1.71973H14.6396L14.8457 1.72461Z" fill="#161823"/>
<path d="M7.75 8.08301C8.10146 7.73173 8.67202 7.73167 9.02344 8.08301L11.7266 10.7861V8.71973L11.7314 8.62793C11.7775 8.17411 12.161 7.82031 12.627 7.82031C13.0928 7.82043 13.4764 8.17416 13.5225 8.62793L13.5264 8.71973V12.96C13.5264 13.4569 13.1239 13.8602 12.627 13.8604H8.38672C7.88966 13.8604 7.48633 13.457 7.48633 12.96C7.48633 12.4629 7.88966 12.0596 8.38672 12.0596H10.4531L7.75 9.35645C7.3986 9.00497 7.39855 8.43445 7.75 8.08301Z" fill="#161823"/>
</svg>
