<svg width="20" height="20" viewBox="0 0 20 20" fill="none" xmlns="http://www.w3.org/2000/svg">
<path d="M4.24988 1.75066C4.24988 1.33644 4.58566 1.00066 4.99988 1.00066H14.9999C15.4141 1.00066 15.7499 1.33644 15.7499 1.75066C15.7499 2.16487 15.4141 2.50066 14.9999 2.50066H4.99988C4.58566 2.50066 4.24988 2.16487 4.24988 1.75066Z" fill="#161823"/>
<path d="M10.5314 3.72089C10.3907 3.57949 10.1994 3.5 9.99987 3.5C9.80035 3.5 9.60906 3.57949 9.46831 3.72089L3.10093 10.1178C2.36859 10.8535 2.8897 12.1075 3.92779 12.1075H6.98596V18.25C6.98596 18.6642 7.32174 19 7.73596 19H12.2638C12.678 19 13.0138 18.6642 13.0138 18.25V12.1075H16.0719C17.11 12.1075 17.6311 10.8535 16.8988 10.1178L10.5314 3.72089Z" fill="#161823"/>
</svg>
