<svg width="20" height="20" viewBox="0 0 20 20" fill="none" xmlns="http://www.w3.org/2000/svg">
<path d="M18.3337 10.0001C18.3337 14.6025 14.6027 18.3334 10.0003 18.3334C5.39795 18.3334 1.66699 14.6025 1.66699 10.0001C1.66699 5.39771 5.39795 1.66675 10.0003 1.66675C14.6027 1.66675 18.3337 5.39771 18.3337 10.0001ZM7.10044 5.6156C6.75003 5.83648 6.64503 6.2996 6.86592 6.65L8.74607 9.63265H7.5004C7.08619 9.63265 6.7504 9.96844 6.7504 10.3827C6.7504 10.7969 7.08619 11.1327 7.5004 11.1327H9.2504V11.9301H7.5004C7.08619 11.9301 6.7504 12.2659 6.7504 12.6801C6.7504 13.0943 7.08619 13.4301 7.5004 13.4301H9.2504V14.4827C9.2504 14.8969 9.58619 15.2327 10.0004 15.2327C10.4146 15.2327 10.7504 14.8969 10.7504 14.4827V13.4301H12.5004C12.9146 13.4301 13.2504 13.0943 13.2504 12.6801C13.2504 12.2659 12.9146 11.9301 12.5004 11.9301H10.7504V11.1327H12.5004C12.9146 11.1327 13.2504 10.7969 13.2504 10.3827C13.2504 9.96844 12.9146 9.63265 12.5004 9.63265H11.255L13.136 6.65015C13.3569 6.29979 13.252 5.83665 12.9017 5.61569C12.5513 5.39472 12.0882 5.49962 11.8672 5.84998L10.0005 8.8098L8.13484 5.85012C7.91396 5.49971 7.45084 5.39471 7.10044 5.6156Z" fill="#161823"/>
</svg>
