<svg width="24" height="24" viewBox="0 0 24 24" fill="none" xmlns="http://www.w3.org/2000/svg">
<path d="M17.5 1C14.6005 1 12.25 3.3505 12.25 6.25V9H3.75C2.23122 9 1 10.2312 1 11.75V19.25C1 20.7688 2.23122 22 3.75 22H14.25C15.7688 22 17 20.7688 17 19.25V11.75C17 10.2312 15.7688 9 14.25 9H13.75V6.25C13.75 4.17893 15.4289 2.5 17.5 2.5C19.5711 2.5 21.25 4.17893 21.25 6.25V8.75C21.25 9.16421 21.5858 9.5 22 9.5C22.4142 9.5 22.75 9.16421 22.75 8.75V6.25C22.75 3.3505 20.3995 1 17.5 1Z" fill="#161823"/>
</svg>
