<svg width="24" height="24" viewBox="0 0 24 24" fill="none" xmlns="http://www.w3.org/2000/svg">
<path d="M16.5224 12.1512C16.7134 12.1512 16.8651 12.2885 16.8969 12.4786C17.3346 15.2008 17.6926 15.5357 20.4538 15.8855C20.6604 15.9161 20.8029 16.0605 20.8029 16.2429C20.8028 16.4327 20.6604 16.5774 20.4538 16.608C17.6609 16.9577 17.3664 17.3225 16.8969 20.0216C16.8651 20.2041 16.7134 20.3334 16.5224 20.3334C16.3235 20.3334 16.1797 20.2039 16.1479 20.0138C15.7182 17.2921 15.3445 16.9425 12.5838 16.608C12.3769 16.5776 12.2335 16.4329 12.2334 16.2429C12.2334 16.0604 12.3769 15.9159 12.5838 15.8855C15.3766 15.5357 15.6864 15.1778 16.1479 12.4708C16.1798 12.2808 16.3315 12.1512 16.5224 12.1512Z" fill="#161823"/>
<path d="M20.3342 10.3334C20.4612 10.3336 20.5464 10.4248 20.5782 10.5465C20.7798 11.6435 20.7476 11.6845 22.0208 11.9181C22.1479 11.9486 22.2332 12.0397 22.2334 12.1512C22.2334 12.2731 22.1481 12.365 22.0208 12.3854C20.7476 12.6291 20.7904 12.6497 20.5782 13.767C20.5464 13.8887 20.4506 13.9699 20.3342 13.9701C20.1964 13.9701 20.1112 13.8888 20.0792 13.757C19.8564 12.6498 19.9198 12.6088 18.6572 12.3854C18.5088 12.365 18.424 12.2832 18.424 12.1512C18.4243 12.0397 18.5095 11.9486 18.6367 11.9181C19.92 11.6846 19.8565 11.6432 20.0792 10.5565C20.1111 10.4246 20.1964 10.3334 20.3342 10.3334Z" fill="#161823"/>
<path d="M15.7751 3.66675C17.501 3.66675 18.9001 5.06586 18.9001 6.79175V9.50008C18.3248 10.0754 17.7495 10.2535 16.9001 10.5829V6.79175C16.9001 6.17043 16.3964 5.66675 15.7751 5.66675H5.3584C4.73708 5.66675 4.2334 6.17043 4.2334 6.79175V14.138L6.16325 12.2058C6.35082 12.0181 6.60535 11.9125 6.87077 11.9125C7.13618 11.9125 7.39072 12.0181 7.57829 12.2058L9.6528 14.2828L13.5819 10.3488C13.7695 10.161 14.024 10.0555 14.2895 10.0555C14.5549 10.0555 14.8094 10.161 14.997 10.3488L15.7326 11.0852C15.6782 11.1115 15.6229 11.1386 15.5667 11.1667C13.9001 12.0001 14.7334 12.0001 13.0667 13.6667C11.4001 15.3334 10.5667 14.5001 10.5667 16.1667C10.5667 17.8334 12.2334 17.8334 13.9001 18.6667C14.7462 19.0898 14.9657 19.7589 14.9424 20.3334H5.3584C3.63251 20.3334 2.2334 18.9342 2.2334 17.2083V6.79175C2.2334 5.06586 3.63251 3.66675 5.3584 3.66675H15.7751Z" fill="#161823"/>
<path d="M7.2334 7.16691C8.06182 7.16691 8.7334 7.83848 8.7334 8.66691C8.7334 9.49534 8.06182 10.1669 7.2334 10.1669C6.40497 10.1669 5.7334 9.49534 5.7334 8.66691C5.7334 7.83848 6.40497 7.16691 7.2334 7.16691Z" fill="#161823"/>
</svg>
