<svg width="20" height="20" viewBox="0 0 20 20" fill="none" xmlns="http://www.w3.org/2000/svg">
<path d="M10.7495 9.5671L10.7495 2.6001C10.7495 2.18588 10.4137 1.8501 9.99953 1.8501C9.58532 1.8501 9.24953 2.18588 9.24953 2.6001L9.24953 9.5671L3.21595 13.0506C2.85723 13.2577 2.73432 13.7164 2.94143 14.0751C3.14853 14.4338 3.60723 14.5567 3.96595 14.3496L9.99953 10.8661L16.0331 14.3496C16.3918 14.5567 16.8505 14.4338 17.0576 14.0751C17.2647 13.7164 17.1418 13.2577 16.7831 13.0506L10.7495 9.5671Z" fill="#161823"/>
<path d="M13.1605 8.17513C13.3676 8.53385 13.8263 8.65676 14.185 8.44965L16.6532 7.02465C17.0119 6.81754 17.1348 6.35885 16.9277 6.00013C16.7206 5.64141 16.2619 5.5185 15.9032 5.72561L13.435 7.15061C13.0763 7.35772 12.9534 7.81641 13.1605 8.17513Z" fill="#161823"/>
<path d="M6.83854 8.17513C6.63143 8.53385 6.17274 8.65676 5.81402 8.44965L3.34585 7.02465C2.98713 6.81754 2.86422 6.35885 3.07133 6.00013C3.27843 5.64141 3.73713 5.5185 4.09585 5.72561L6.56402 7.15061C6.92274 7.35772 7.04564 7.81641 6.83854 8.17513Z" fill="#161823"/>
<path d="M10.7495 14.4001C10.7495 13.9859 10.4137 13.6501 9.99953 13.6501C9.58532 13.6501 9.24953 13.9859 9.24953 14.4001V17.2501C9.24953 17.6643 9.58532 18.0001 9.99953 18.0001C10.4137 18.0001 10.7495 17.6643 10.7495 17.2501V14.4001Z" fill="#161823"/>
</svg>
