<svg width="21" height="21" viewBox="0 0 21 21" fill="none" xmlns="http://www.w3.org/2000/svg">
<path d="M18.8623 12.1873C18.9547 12.1794 19.0308 12.1111 19.0472 12.0198C19.138 11.5153 19.1854 10.9958 19.1854 10.4651C19.1854 5.64867 15.2809 1.74418 10.4644 1.74418C5.648 1.74418 1.74351 5.64867 1.74351 10.4651C1.74351 15.2816 5.648 19.1861 10.4644 19.1861C11.4153 19.1861 12.3305 19.0339 13.1872 18.7526C13.2719 18.7248 13.3282 18.6452 13.3282 18.5561V16.3792C13.3282 16.1619 13.3641 15.9529 13.4301 15.7578C13.484 15.5988 13.4637 15.4215 13.3752 15.2789C13.1914 14.9828 13.0852 14.6334 13.0852 14.2592C13.0852 13.19 13.952 12.3232 15.0213 12.3232C15.5582 12.3232 17.2899 12.3208 18.8623 12.1873ZM11.5069 5.34255C11.9292 5.34255 12.2736 5.67606 12.2911 6.09407C12.2916 6.106 12.2919 6.118 12.2919 6.13006C12.2919 7.33241 13.2666 8.30711 14.469 8.30711C14.9024 8.30711 15.2538 8.65852 15.2538 9.092C15.2538 9.52548 14.9024 9.87688 14.469 9.87688C13.657 9.87688 12.8708 9.62791 12.2918 8.89297V12.3765C12.2918 13.9858 10.9872 15.2903 9.37801 15.2903C7.76878 15.2903 6.46424 13.9858 6.46424 12.3765C6.46424 10.7673 7.76878 9.46275 9.37801 9.46275C9.81149 9.46275 10.1629 9.81415 10.1629 10.2476C10.1629 10.6811 9.81149 11.0325 9.37801 11.0325C8.63574 11.0325 8.03401 11.6342 8.03401 12.3765C8.03401 13.1188 8.63574 13.7205 9.37801 13.7205C10.1203 13.7205 10.722 13.1188 10.722 12.3765V6.12743C10.722 5.69395 11.0734 5.34255 11.5069 5.34255Z" fill="#161823"/>
<path d="M20.4202 14.6417C20.7917 14.5858 21.0476 14.2394 20.9917 13.8679C20.9359 13.4964 20.5894 13.2405 20.2179 13.2963C18.3471 13.5776 15.6788 13.579 15.0213 13.579C14.6456 13.579 14.341 13.8835 14.341 14.2592C14.341 14.6349 14.6456 14.9394 15.0213 14.9394H15.0297C15.3331 14.9394 16.0908 14.9395 17.0137 14.9096V15.6954H15.2643C14.8886 15.6954 14.5841 16 14.5841 16.3756V19.4282C14.5841 19.8038 14.8886 20.1084 15.2643 20.1084C15.64 20.1084 15.9446 19.8038 15.9446 19.4282V17.0559H17.0137V20.3198C17.0137 20.6955 17.3183 21 17.694 21C18.0696 21 18.3742 20.6955 18.3742 20.3198V17.0559H19.4436V18.7479H19.3341C18.9585 18.7479 18.6539 19.0525 18.6539 19.4282C18.6539 19.8038 18.9585 20.1084 19.3341 20.1084H19.6877C20.3043 20.1084 20.804 19.6086 20.804 18.9921V16.3756C20.804 16 20.4995 15.6954 20.1238 15.6954H18.3742V14.8459C19.0728 14.8018 19.7863 14.737 20.4202 14.6417Z" fill="#161823"/>
</svg>
