<svg width="24" height="24" viewBox="0 0 24 24" fill="none" xmlns="http://www.w3.org/2000/svg">
<path d="M12.75 6.75C12.75 6.33579 12.4142 6 12 6C11.5858 6 11.25 6.33579 11.25 6.75V10.25C11.25 10.6642 11.5858 11 12 11C12.4142 11 12.75 10.6642 12.75 10.25V6.75Z" fill="#161823"/>
<path d="M15 6C15.4142 6 15.75 6.33579 15.75 6.75V10.25C15.75 10.6642 15.4142 11 15 11C14.5858 11 14.25 10.6642 14.25 10.25V6.75C14.25 6.33579 14.5858 6 15 6Z" fill="#161823"/>
<path d="M9.75 6.75C9.75 6.33579 9.41421 6 9 6C8.58579 6 8.25 6.33579 8.25 6.75V10.25C8.25 10.6642 8.58579 11 9 11C9.41421 11 9.75 10.6642 9.75 10.25V6.75Z" fill="#161823"/>
<path fill-rule="evenodd" clip-rule="evenodd" d="M4 6.86C4 5.1232 4 4.2548 4.3487 3.59621C4.6301 3.06474 5.06474 2.6301 5.59621 2.3487C6.2548 2 7.1232 2 8.86 2H15.0316C15.5377 2 15.7907 2 16.0283 2.05909C16.2219 2.10723 16.4073 2.18407 16.5782 2.28706C16.7879 2.41347 16.9667 2.5925 17.3242 2.95055L19.0526 4.6813C19.4095 5.03868 19.5879 5.21737 19.7139 5.42686C19.8166 5.59754 19.8931 5.78259 19.9411 5.97588C20 6.21315 20 6.46568 20 6.97074V17.14C20 18.8768 20 19.7452 19.6513 20.4038C19.3699 20.9353 18.9353 21.3699 18.4038 21.6513C17.7452 22 16.8768 22 15.14 22H8.86C7.1232 22 6.2548 22 5.59621 21.6513C5.06474 21.3699 4.6301 20.9353 4.3487 20.4038C4 19.7452 4 18.8768 4 17.14V6.86ZM17.0501 20.4617C16.6113 20.4988 16.034 20.5 15.14 20.5H8.86C7.96599 20.5 7.38872 20.4988 6.94991 20.4617C6.5295 20.4262 6.37456 20.3661 6.29811 20.3256C6.03237 20.1849 5.81505 19.9676 5.67435 19.7019C5.63387 19.6254 5.57375 19.4705 5.53828 19.0501C5.50125 18.6113 5.5 18.034 5.5 17.14V6.86C5.5 5.96599 5.50125 5.38872 5.53828 4.94991C5.57375 4.52949 5.63387 4.37456 5.67435 4.29811C5.81505 4.03237 6.03237 3.81505 6.29811 3.67435C6.37456 3.63387 6.52949 3.57375 6.94991 3.53828C7.38872 3.50125 7.96599 3.5 8.86 3.5H15.0316C15.2982 3.5 15.4471 3.50038 15.5598 3.50571C15.6582 3.51037 15.6755 3.51704 15.6664 3.51477C15.7148 3.52681 15.7611 3.54602 15.8039 3.57176L15.802 3.57058C15.802 3.57058 15.8232 3.58394 15.8856 3.64082C15.969 3.71681 16.0745 3.8219 16.2629 4.01048L17.9912 5.74123C18.1792 5.92946 18.2839 6.03488 18.3597 6.11824C18.4258 6.19103 18.4333 6.20795 18.4285 6.19993C18.4541 6.2426 18.4733 6.28886 18.4853 6.33719C18.483 6.3281 18.4897 6.34539 18.4943 6.44362C18.4996 6.55612 18.5 6.70473 18.5 6.97074V17.14C18.5 18.034 18.4988 18.6113 18.4617 19.0501C18.4262 19.4705 18.3661 19.6254 18.3256 19.7019C18.1849 19.9676 17.9676 20.1849 17.7019 20.3256C17.6254 20.3661 17.4705 20.4262 17.0501 20.4617Z" fill="#161823"/>
</svg>
