<svg width="24" height="24" viewBox="0 0 24 24" fill="none" xmlns="http://www.w3.org/2000/svg">
<path d="M18.0374 2.86307C17.7559 2.61473 17.3131 2.81457 17.3131 3.18991V5.00317H6.76465C4.69358 5.00317 3.01465 6.68211 3.01465 8.75317V9.87817C3.01465 10.2924 3.35043 10.6282 3.76465 10.6282C4.17886 10.6282 4.51465 10.2924 4.51465 9.87817V8.75317C4.51465 7.51053 5.52201 6.50317 6.76465 6.50317H17.3131V8.31646C17.3131 8.69181 17.7559 8.89163 18.0374 8.6433L20.819 6.18897C21.0812 5.95761 21.0812 5.54876 20.819 5.3174L18.0374 2.86307Z" fill="#161823"/>
<path d="M17.2466 18.996C19.3176 18.996 20.9966 17.3171 20.9966 15.246V14.121C20.9966 13.7068 20.6608 13.371 20.2466 13.371C19.8324 13.371 19.4966 13.7068 19.4966 14.121V15.246C19.4966 16.4886 18.4892 17.496 17.2466 17.496H6.7025V15.6827C6.7025 15.3074 6.25968 15.1075 5.97823 15.3559L3.19666 17.8102C2.93445 18.0416 2.93445 18.4504 3.19666 18.6818L5.97823 21.1361C6.25968 21.3845 6.7025 21.1846 6.7025 20.8093V18.996H17.2466Z" fill="#161823"/>
</svg>
