<svg width="20" height="20" viewBox="0 0 20 20" fill="none" xmlns="http://www.w3.org/2000/svg">
<path d="M9.16634 11.4167H15.4997V5C15.4997 3.75736 14.4923 2.75 13.2497 2.75H4.59634V15.2983C4.59634 15.916 5.09703 16.4167 5.71467 16.4167C6.33231 16.4167 6.83301 15.916 6.83301 15.2983V13.75C6.83301 12.4613 7.87768 11.4167 9.16634 11.4167ZM6.95801 6.25C6.95801 5.83579 7.29379 5.5 7.70801 5.5H12.5022C12.9164 5.5 13.2522 5.83579 13.2522 6.25C13.2522 6.66421 12.9164 7 12.5022 7H7.70801C7.29379 7 6.95801 6.66421 6.95801 6.25ZM7.70801 8H11.0413C11.4556 8 11.7913 8.33579 11.7913 8.75C11.7913 9.16421 11.4556 9.5 11.0413 9.5H7.70801C7.29379 9.5 6.95801 9.16421 6.95801 8.75C6.95801 8.33579 7.29379 8 7.70801 8Z" fill="#161823"/>
<path d="M3.09634 6.0848V3.5793C3.09338 3.12159 2.72142 2.75146 2.26302 2.75146C1.80278 2.75146 1.42969 3.12456 1.42969 3.5848V5.5848C1.42969 5.86094 1.65354 6.0848 1.92969 6.0848H3.09634Z" fill="#161823"/>
<path d="M7.13241 17.5L16.2497 17.5C16.94 17.5 17.4997 16.9404 17.4997 16.25V13.9167C17.4997 13.3644 17.052 12.9167 16.4997 12.9167H9.33301C8.78105 12.9167 8.33354 13.3639 8.33301 13.9157V15.2983C8.33301 16.222 7.85477 17.0339 7.13241 17.5Z" fill="#161823"/>
</svg>
