<svg width="24" height="24" viewBox="0 0 24 24" fill="none" xmlns="http://www.w3.org/2000/svg">
<path d="M11.9998 11C14.2089 11 15.9998 8.98529 15.9998 6.5C15.9998 4.01472 14.2089 2 11.9998 2C9.79067 2 7.9998 4.01472 7.9998 6.5C7.9998 8.98529 9.79067 11 11.9998 11Z" fill="#161823"/>
<path d="M22.8038 19.0019C22.8038 20.6598 21.4598 22.0038 19.8019 22.0038C18.144 22.0038 16.8 20.6598 16.8 19.0019C16.8 17.344 18.144 16 19.8019 16C21.4598 16 22.8038 17.344 22.8038 19.0019Z" fill="#161823"/>
<path d="M5.86408 14.1182C7.49136 13.0852 9.6563 12.5 12 12.5C14.3437 12.5 16.5086 13.0852 18.1359 14.1182C18.2555 14.1941 18.3731 14.2731 18.4883 14.3552C18.6252 14.4527 18.5785 14.6649 18.4186 14.7165C16.6091 15.3002 15.3 16.9982 15.3 19.0019C15.3 19.9929 15.6202 20.909 16.1628 21.6526C16.2646 21.7922 16.1695 22 15.9967 22H5.5C4.11929 22 3 20.8807 3 19.5V18.7273C3 16.7372 4.25055 15.1424 5.86408 14.1182Z" fill="#161823"/>
</svg>
