<svg width="20" height="20" viewBox="0 0 20 20" fill="none" xmlns="http://www.w3.org/2000/svg">
<path d="M3.35142 2.5915C2.71543 2.70151 2.21787 3.19907 2.10786 3.83506C1.75768 5.85938 2.28976 7.91439 3.7414 9.36602C5.18764 10.8123 7.23278 11.3458 9.2498 11.0034V16.4833H7.4498C7.03559 16.4833 6.6998 16.8191 6.6998 17.2333C6.6998 17.6475 7.03559 17.9833 7.4498 17.9833H12.5498C12.964 17.9833 13.2998 17.6475 13.2998 17.2333C13.2998 16.8191 12.964 16.4833 12.5498 16.4833H10.7498V13.5837C12.7698 13.9293 14.819 13.3963 16.2675 11.9479C17.7191 10.4962 18.2512 8.44123 17.901 6.41692C17.791 5.78093 17.2934 5.28337 16.6575 5.17335C14.6331 4.82318 12.5781 5.35527 11.1265 6.8069C10.9089 7.0245 10.712 7.25567 10.5356 7.49826C10.3375 6.27473 9.78943 5.1321 8.88238 4.22504C7.43074 2.77341 5.37574 2.24133 3.35142 2.5915Z" fill="#161823"/>
</svg>
