<svg width="20" height="20" viewBox="0 0 20 20" fill="none" xmlns="http://www.w3.org/2000/svg">
<path d="M2.5 5C2.5 4.58579 2.83579 4.25 3.25 4.25H16.75C17.1642 4.25 17.5 4.58579 17.5 5C17.5 5.41421 17.1642 5.75 16.75 5.75H3.25C2.83579 5.75 2.5 5.41421 2.5 5Z" fill="#161823"/>
<path d="M2.5 10C2.5 9.58579 2.83579 9.25 3.25 9.25H16.75C17.1642 9.25 17.5 9.58579 17.5 10C17.5 10.4142 17.1642 10.75 16.75 10.75H3.25C2.83579 10.75 2.5 10.4142 2.5 10Z" fill="#161823"/>
<path d="M3.25 14.25C2.83579 14.25 2.5 14.5858 2.5 15C2.5 15.4142 2.83579 15.75 3.25 15.75H16.75C17.1642 15.75 17.5 15.4142 17.5 15C17.5 14.5858 17.1642 14.25 16.75 14.25H3.25Z" fill="#161823"/>
</svg>
