<svg width="24" height="24" viewBox="0 0 24 24" fill="none" xmlns="http://www.w3.org/2000/svg">
<path d="M4 5.75C4 3.67893 5.67893 2 7.75 2H16.25C18.3211 2 20 3.67893 20 5.75V10.5175C20 10.649 19.8752 10.7447 19.7464 10.7181C19.451 10.6571 19.145 10.625 18.8315 10.625C18.7925 10.625 18.7536 10.6255 18.7148 10.6265C18.5987 10.6294 18.5 10.5381 18.5 10.4219V5.75C18.5 4.50736 17.4926 3.5 16.25 3.5H7.75C6.50736 3.5 5.5 4.50736 5.5 5.75V18.25C5.5 19.4926 6.50736 20.5 7.75 20.5H12.9646C13.075 20.5 13.1646 20.5895 13.1646 20.7V21.25C13.1646 21.4207 13.1777 21.5884 13.2031 21.752C13.2229 21.8795 13.1278 22 12.9988 22H7.75C5.67893 22 4 20.3211 4 18.25V5.75Z" fill="#161823"/>
<path d="M8.5 6C8.08579 6 7.75 6.33579 7.75 6.75C7.75 7.16421 8.08579 7.5 8.5 7.5H15.5C15.9142 7.5 16.25 7.16421 16.25 6.75C16.25 6.33579 15.9142 6 15.5 6H8.5Z" fill="#161823"/>
<path d="M7.75 10C7.75 9.58579 8.08579 9.25 8.5 9.25H13C13.4142 9.25 13.75 9.58579 13.75 10C13.75 10.4142 13.4142 10.75 13 10.75H8.5C8.08579 10.75 7.75 10.4142 7.75 10Z" fill="#161823"/>
<path d="M15.8315 15.125C15.8315 13.4681 17.1747 12.125 18.8315 12.125C20.4884 12.125 21.8315 13.4681 21.8315 15.125V16.0994C22.5115 16.3395 22.9987 16.9878 22.9987 17.75V21.25C22.9987 22.2165 22.2152 23 21.2487 23H16.4146C15.4481 23 14.6646 22.2165 14.6646 21.25V17.75C14.6646 16.9879 15.1517 16.3396 15.8315 16.0995V15.125ZM20.3315 15.125C20.3315 14.2966 19.66 13.625 18.8315 13.625C18.0031 13.625 17.3315 14.2966 17.3315 15.125V16H20.3315V15.125ZM16.4146 17.5C16.2765 17.5 16.1646 17.6119 16.1646 17.75V21.25C16.1646 21.3881 16.2765 21.5 16.4146 21.5H21.2487C21.3868 21.5 21.4987 21.3881 21.4987 21.25V17.75C21.4987 17.6119 21.3868 17.5 21.2487 17.5H16.4146Z" fill="#161823"/>
</svg>
