<svg width="20" height="20" viewBox="0 0 20 20" fill="none" xmlns="http://www.w3.org/2000/svg">
<path d="M1.99994 1.99994C2.29284 1.70705 2.76771 1.70705 3.0606 1.99994L5.18233 4.12166C6.49361 3.04573 8.17137 2.39995 9.99994 2.39995C14.1973 2.39995 17.5999 5.8026 17.5999 9.99996C17.5999 11.8285 16.9542 13.5063 15.8782 14.8176L18.0019 16.9413C18.2948 17.2342 18.2948 17.709 18.0019 18.0019C17.709 18.2948 17.2342 18.2948 16.9413 18.0019L16.3243 17.385C16.3177 17.3777 16.3108 17.3705 16.3038 17.3635L3.80388 4.86361C3.79683 4.85657 3.78967 4.84971 3.7824 4.84305L1.99994 3.0606C1.70705 2.76771 1.70705 2.29284 1.99994 1.99994ZM6.24945 5.18878L14.8111 13.7504C15.6187 12.7159 16.0999 11.4141 16.0999 9.99996C16.0999 6.63103 13.3689 3.89994 9.99994 3.89994C8.58578 3.89994 7.284 4.38116 6.24945 5.18878Z" fill="#161823"/>
<path d="M3.54512 6.49046C3.45126 6.3966 3.29366 6.41855 3.23309 6.53666C2.70047 7.57525 2.39993 8.75252 2.39993 9.99996C2.39993 14.1973 5.80258 17.6 9.99994 17.6C11.2474 17.6 12.4246 17.2994 13.4632 16.7668C13.5813 16.7062 13.6033 16.5486 13.5094 16.4548L12.6817 15.6271C12.6222 15.5675 12.5319 15.5519 12.4548 15.5859C11.7037 15.9164 10.8733 16.1 9.99994 16.1C6.631 16.1 3.89992 13.3689 3.89992 9.99996C3.89992 9.12665 4.08345 8.29617 4.41403 7.54504C4.44794 7.468 4.43236 7.37771 4.37283 7.31818L3.54512 6.49046Z" fill="#161823"/>
</svg>
