<svg width="24" height="24" viewBox="0 0 24 24" fill="none" xmlns="http://www.w3.org/2000/svg">
<path d="M11.9998 11C14.2089 11 15.9998 8.98528 15.9998 6.5C15.9998 4.01472 14.2089 2 11.9998 2C9.79062 2 7.99976 4.01472 7.99976 6.5C7.99976 8.98528 9.79062 11 11.9998 11Z" fill="#161823"/>
<path d="M12 12.5C9.6563 12.5 7.49136 13.0852 5.86408 14.1182C4.25055 15.1424 3 16.7372 3 18.7273V19.5C3 20.8807 4.11929 22 5.5 22H16.3C16.4105 22 16.5 21.9105 16.5 21.8V20.5017H14.25C13.0074 20.5017 12 19.4943 12 18.2517C12 17.0091 13.0074 16.0017 14.25 16.0017H16.5V13.7517C16.5 13.6605 16.5054 13.5706 16.516 13.4823C16.5274 13.3867 16.4769 13.2923 16.3868 13.2583C16.0606 13.1349 15.7278 13.0275 15.3921 12.9366C14.345 12.653 13.1999 12.5 12 12.5Z" fill="#161823"/>
<path d="M19.5 13.7517C19.5 13.3375 19.1642 13.0017 18.75 13.0017C18.3358 13.0017 18 13.3375 18 13.7517V17.5017H14.25C13.8358 17.5017 13.5 17.8375 13.5 18.2517C13.5 18.6659 13.8358 19.0017 14.25 19.0017H18V22.7517C18 23.1659 18.3358 23.5017 18.75 23.5017C19.1642 23.5017 19.5 23.1659 19.5 22.7517V19.0017H23.25C23.6642 19.0017 24 18.6659 24 18.2517C24 17.8375 23.6642 17.5017 23.25 17.5017H19.5V13.7517Z" fill="#161823"/>
</svg>
