<svg width="20" height="20" viewBox="0 0 20 20" fill="none" xmlns="http://www.w3.org/2000/svg">
<path d="M9.99977 0.766602C10.4968 0.766602 10.8998 1.16955 10.8998 1.6666V3.33327C10.8998 3.83032 10.4968 4.23327 9.99977 4.23327C9.50271 4.23327 9.09977 3.83032 9.09977 3.33327V1.6666C9.09977 1.16955 9.50271 0.766602 9.99977 0.766602Z" fill="#161823"/>
<path d="M3.47398 3.46511C3.82561 3.1138 4.39546 3.11405 4.74677 3.46568L5.92528 4.64524C6.2766 4.99686 6.27635 5.56671 5.92472 5.91803C5.57309 6.26934 5.00324 6.26909 4.65193 5.91746L3.47342 4.73791C3.1221 4.38628 3.12235 3.81643 3.47398 3.46511Z" fill="#161823"/>
<path d="M1.66798 9.10038C1.17092 9.10016 0.767799 9.50292 0.767578 9.99998C0.767358 10.497 1.17012 10.9002 1.66718 10.9004L3.33459 10.9011C3.83164 10.9013 4.23476 10.4986 4.23498 10.0015C4.2352 9.50446 3.83244 9.10134 3.33538 9.10112L1.66798 9.10038Z" fill="#161823"/>
<path d="M3.47451 16.5346C3.1232 16.183 3.12345 15.6131 3.47508 15.2618L4.65464 14.0833C5.00626 13.732 5.57611 13.7322 5.92743 14.0838C6.27874 14.4355 6.27849 15.0053 5.92686 15.3566L4.74731 16.5352C4.39568 16.8865 3.82583 16.8862 3.47451 16.5346Z" fill="#161823"/>
<path d="M14.2498 9.99989C14.2498 12.3471 12.347 14.2499 9.99977 14.2499C7.65256 14.2499 5.74977 12.3471 5.74977 9.99989C5.74977 7.65268 7.65256 5.74989 9.99977 5.74989C12.347 5.74989 14.2498 7.65268 14.2498 9.99989ZM12.7498 9.99989C12.7498 8.48111 11.5185 7.24989 9.99977 7.24989C8.48098 7.24989 7.24977 8.48111 7.24977 9.99989C7.24977 11.5187 8.48098 12.7499 9.99977 12.7499C11.5185 12.7499 12.7498 11.5187 12.7498 9.99989Z" fill="#161823"/>
<path d="M16.5439 3.46511C16.1922 3.1138 15.6224 3.11405 15.2711 3.46568L14.0926 4.64524C13.7412 4.99686 13.7415 5.56671 14.0931 5.91803C14.4448 6.26934 15.0146 6.26909 15.3659 5.91746L16.5444 4.73791C16.8957 4.38628 16.8955 3.81643 16.5439 3.46511Z" fill="#161823"/>
<path d="M18.35 9.10038C18.847 9.10016 19.2502 9.50292 19.2504 9.99998C19.2506 10.497 18.8478 10.9002 18.3508 10.9004L16.6834 10.9011C16.1863 10.9013 15.7832 10.4986 15.783 10.0015C15.7828 9.50446 16.1855 9.10134 16.6826 9.10112L18.35 9.10038Z" fill="#161823"/>
<path d="M16.5435 16.5346C16.8948 16.183 16.8945 15.6131 16.5429 15.2618L15.3633 14.0833C15.0117 13.732 14.4419 13.7322 14.0905 14.0838C13.7392 14.4355 13.7395 15.0053 14.0911 15.3566L15.2707 16.5352C15.6223 16.8865 16.1921 16.8862 16.5435 16.5346Z" fill="#161823"/>
<path d="M9.10978 18.3407C9.10956 18.8378 9.51232 19.2409 10.0094 19.2411C10.5064 19.2413 10.9096 18.8386 10.9098 18.3415L10.9105 16.6741C10.9107 16.177 10.508 15.7739 10.0109 15.7737C9.51386 15.7735 9.11074 16.1762 9.11052 16.6733L9.10978 18.3407Z" fill="#161823"/>
</svg>
