<svg width="16" height="16" viewBox="0 0 16 16" fill="none" xmlns="http://www.w3.org/2000/svg">
<path d="M14.6663 7.99992C14.6663 11.6818 11.6816 14.6666 7.99967 14.6666C4.31778 14.6666 1.33301 11.6818 1.33301 7.99992C1.33301 4.31802 4.31778 1.33325 7.99967 1.33325C11.6816 1.33325 14.6663 4.31802 14.6663 7.99992ZM5.33298 5.01663C4.974 5.01663 4.68298 5.30765 4.68298 5.66663C4.68298 6.02562 4.974 6.31663 5.33298 6.31663H10.6663C11.0253 6.31663 11.3163 6.02562 11.3163 5.66663C11.3163 5.30765 11.0253 5.01663 10.6663 5.01663H5.33298ZM5.33298 7.34993C4.974 7.34993 4.68298 7.64095 4.68298 7.99993C4.68298 8.35892 4.974 8.64993 5.33298 8.64993H10.6663C11.0253 8.64993 11.3163 8.35892 11.3163 7.99993C11.3163 7.64095 11.0253 7.34993 10.6663 7.34993H5.33298ZM4.68298 10.3333C4.68298 10.6923 4.974 10.9833 5.33298 10.9833H10.6663C11.0253 10.9833 11.3163 10.6923 11.3163 10.3333C11.3163 9.9743 11.0253 9.68328 10.6663 9.68328H5.33298C4.974 9.68328 4.68298 9.9743 4.68298 10.3333Z" fill="#161823"/>
</svg>
