<svg width="20" height="20" viewBox="0 0 20 20" fill="none" xmlns="http://www.w3.org/2000/svg">
<path d="M2.82617 4.42358C2.82617 2.9048 4.05739 1.67358 5.57617 1.67358H13.4245C14.9433 1.67358 16.1745 2.9048 16.1745 4.42358V9.30817C16.1745 9.41222 16.0946 9.49832 15.9914 9.51168C15.6653 9.55392 15.3609 9.63472 15.0787 9.74654C15.0285 9.76645 14.9725 9.76645 14.9223 9.74657C14.8863 9.73232 14.8499 9.71857 14.8132 9.70535C14.7312 9.6758 14.6745 9.59917 14.6745 9.51197V4.42358C14.6745 3.73323 14.1149 3.17358 13.4245 3.17358H5.57617C4.88582 3.17358 4.32617 3.73323 4.32617 4.42358V15.5764C4.32617 16.2667 4.88582 16.8264 5.57617 16.8264H9.87026C9.94117 16.8264 10.0066 16.8641 10.0435 16.9246C10.2702 17.2963 10.5326 17.6485 10.8197 17.9807C10.9347 18.1138 10.8425 18.3264 10.6666 18.3264H5.57617C4.05739 18.3264 2.82617 17.0952 2.82617 15.5764V4.42358Z" fill="#161823"/>
<path d="M6.58362 4.87329C6.1694 4.87329 5.83362 5.20908 5.83362 5.62329C5.83362 6.0375 6.1694 6.37329 6.58362 6.37329H12.417C12.8312 6.37329 13.167 6.0375 13.167 5.62329C13.167 5.20908 12.8312 4.87329 12.417 4.87329H6.58362Z" fill="#161823"/>
<path d="M5.83362 8.33167C5.83362 7.91745 6.1694 7.58167 6.58362 7.58167H10.3336C10.7478 7.58167 11.0836 7.91745 11.0836 8.33167C11.0836 8.74588 10.7478 9.08167 10.3336 9.08167H6.58362C6.1694 9.08167 5.83362 8.74588 5.83362 8.33167Z" fill="#161823"/>
<path d="M13.482 10.9781C11.8944 10.9781 10.6784 12.2828 10.6784 14.004C10.6784 15.9126 12.221 17.6007 14.1636 18.8853C14.2523 18.9458 14.3616 19.0143 14.4785 19.0706C14.5787 19.1188 14.7709 19.2018 14.9985 19.2018C15.2243 19.2018 15.4164 19.1199 15.5169 19.0721C15.6349 19.016 15.7457 18.9475 15.837 18.8853C17.7796 17.6008 19.3222 15.9126 19.3222 14.004C19.3222 12.2828 18.1063 10.9781 16.5186 10.9781C15.9069 10.9781 15.3986 11.1877 15.0007 11.5172C14.6022 11.1867 14.092 10.9781 13.482 10.9781ZM12.1784 14.004C12.1784 13.0119 12.8187 12.4781 13.482 12.4781C13.8535 12.4781 14.1379 12.6673 14.3335 13.0424L14.9905 14.3021L15.66 13.049C15.8651 12.6651 16.1496 12.4781 16.5186 12.4781C17.1819 12.4781 17.8222 13.0119 17.8222 14.004C17.8222 15.1034 16.8754 16.4015 15.0053 17.637L15.0003 17.6403L14.9953 17.637C13.1253 16.4015 12.1784 15.1034 12.1784 14.004Z" fill="#161823"/>
</svg>
