<svg width="16" height="16" viewBox="0 0 16 16" fill="none" xmlns="http://www.w3.org/2000/svg">
<path d="M1.46973 1.46967C1.76262 1.17678 2.2375 1.17678 2.53039 1.46967L4.80501 3.74429C5.72268 3.336 6.78827 3.06665 8.0028 3.06665C12.2377 3.06665 14.6673 6.3513 15.3224 7.36925C15.571 7.75566 15.571 8.24431 15.3224 8.63072C14.9561 9.19984 14.0352 10.4775 12.5542 11.4935L14.5304 13.4697C14.8233 13.7626 14.8233 14.2374 14.5304 14.5303C14.2696 14.7911 13.8646 14.8197 13.5722 14.6161L2.8637 3.90766C2.83159 3.87555 2.79729 3.84695 2.76128 3.82188L1.46973 2.53033C1.17684 2.23744 1.17684 1.76256 1.46973 1.46967ZM6.52479 5.46407L7.42503 6.36431C7.60496 6.30105 7.79849 6.26665 8.00004 6.26665C8.95734 6.26665 9.73338 7.04269 9.73338 7.99998C9.73338 8.20154 9.69898 8.39506 9.63572 8.575L10.536 9.47524C10.7886 9.04185 10.9334 8.53782 10.9334 7.99998C10.9334 6.37995 9.62008 5.06665 8.00004 5.06665C7.46221 5.06665 6.95818 5.2114 6.52479 5.46407Z" fill="#161823"/>
<path d="M2.28384 5.44912C1.50571 6.18387 0.983903 6.90707 0.716059 7.31774C0.430156 7.75609 0.471107 8.31082 0.79242 8.70577C1.21963 9.2309 2.13802 10.2742 3.37539 11.1908C4.60589 12.1023 6.21221 12.9333 8.0028 12.9333C8.56916 12.9333 9.10322 12.8746 9.60508 12.7704L7.75822 10.9235C6.33106 10.807 5.193 9.66897 5.07654 8.24181L2.28384 5.44912Z" fill="#161823"/>
</svg>
