<svg width="24" height="24" viewBox="0 0 24 24" fill="none" xmlns="http://www.w3.org/2000/svg">
<path d="M12 7.71631C12.4142 7.71631 12.75 8.05209 12.75 8.46631V11.2495H15.55C15.9642 11.2495 16.3 11.5853 16.3 11.9995C16.3 12.4137 15.9642 12.7495 15.55 12.7495H12.75V15.533C12.75 15.9472 12.4142 16.283 12 16.283C11.5858 16.283 11.25 15.9472 11.25 15.533V12.7495H8.45001C8.0358 12.7495 7.70001 12.4137 7.70001 11.9995C7.70001 11.5853 8.0358 11.2495 8.45001 11.2495H11.25V8.46631C11.25 8.05209 11.5858 7.71631 12 7.71631Z" fill="#161823"/>
<path fill-rule="evenodd" clip-rule="evenodd" d="M6.75 2.99951C4.67893 2.99951 3 4.67844 3 6.74951V17.2495C3 19.3206 4.67893 20.9995 6.75 20.9995H17.25C19.3211 20.9995 21 19.3206 21 17.2495V6.74951C21 4.67844 19.3211 2.99951 17.25 2.99951H6.75ZM17.25 4.49951H6.75C5.50736 4.49951 4.5 5.50687 4.5 6.74951V17.2495C4.5 18.4922 5.50736 19.4995 6.75 19.4995H17.25C18.4926 19.4995 19.5 18.4922 19.5 17.2495V6.74951C19.5 5.50687 18.4926 4.49951 17.25 4.49951Z" fill="#161823"/>
</svg>
