<svg width="16" height="16" viewBox="0 0 16 16" fill="none" xmlns="http://www.w3.org/2000/svg">
<path d="M11.6844 13.9603H5.45429V5.86115L9.03663 2.27881C9.46673 1.84871 10.1641 1.84871 10.5942 2.27881C10.6668 2.3515 10.7266 2.45014 10.7733 2.57475C10.82 2.69935 10.8434 2.81876 10.8434 2.93298V3.15103L10.1581 5.86115H13.5535C13.8857 5.86115 14.1765 5.98575 14.4257 6.23495C14.6749 6.48416 14.7995 6.7749 14.7995 7.10717C14.7995 7.36339 14.7929 7.76588 14.7867 8.08643C14.7803 8.41717 14.7115 8.74205 14.5842 9.04738C14.1947 9.98185 13.3081 12.1056 12.837 13.2127C12.7436 13.4204 12.5878 13.5969 12.3698 13.7423C12.1517 13.8876 11.9233 13.9603 11.6844 13.9603ZM4.45202 5.86114V13.9603H2.95996C2.40768 13.9603 1.95996 13.5126 1.95996 12.9603V6.86114C1.95996 6.30885 2.40768 5.86114 2.95996 5.86114H4.45202Z" fill="#161823"/>
</svg>
