<svg width="20" height="20" viewBox="0 0 20 20" fill="none" xmlns="http://www.w3.org/2000/svg">
<path d="M7.67139 6.66676C7.67139 6.25255 8.00717 5.91676 8.42139 5.91676H13.2156C13.6298 5.91676 13.9656 6.25255 13.9656 6.66676C13.9656 7.08098 13.6298 7.41676 13.2156 7.41676H8.42139C8.00717 7.41676 7.67139 7.08098 7.67139 6.66676Z" fill="#161823"/>
<path d="M7.67139 9.16676C7.67139 8.75255 8.00717 8.41676 8.42139 8.41676H11.7547C12.1689 8.41676 12.5047 8.75255 12.5047 9.16676C12.5047 9.58098 12.1689 9.91676 11.7547 9.91676H8.42139C8.00717 9.91676 7.67139 9.58098 7.67139 9.16676Z" fill="#161823"/>
<path d="M13.9162 2.50002C15.435 2.50002 16.6662 3.73123 16.6662 5.25002V11.4168H17.0829C17.9114 11.4168 18.5829 12.0883 18.5829 12.9168V15.4957C18.5829 16.6002 17.6875 17.4957 16.5829 17.4957H10.4162V17.5H7.08285C5.70266 17.4994 4.58285 16.3803 4.58285 15V8.41471H2.91602C2.08759 8.41471 1.41602 7.74314 1.41602 6.91471V4.83138C1.41602 3.54272 2.46068 2.49805 3.74935 2.49805C3.78175 2.49805 3.81399 2.49871 3.84607 2.50002H13.9162ZM3.74935 3.99805C3.28911 3.99805 2.91602 4.37114 2.91602 4.83138V6.91471H4.58268V4.83138C4.58268 4.37114 4.20959 3.99805 3.74935 3.99805ZM15.1662 11.4167V5.25002C15.1662 4.55966 14.6065 4.00002 13.9162 4.00002H6.08285V15C6.08285 15.5514 6.53081 16 7.08399 16C7.59543 16 8.01694 15.6165 8.07764 15.1229V13.4168C8.07764 12.3184 8.96306 11.4268 10.0591 11.4168L10.0851 11.4167H15.1662ZM9.37885 15.9956L16.5829 15.9957C16.8591 15.9957 17.0829 15.7718 17.0829 15.4957V12.9168H10.0776L10.0758 12.9168C9.80397 12.9217 9.58514 13.1437 9.58514 13.4167V15C9.58514 15.3539 9.51155 15.6905 9.37885 15.9956Z" fill="#161823"/>
</svg>
