<svg width="16" height="16" viewBox="0 0 16 16" fill="none" xmlns="http://www.w3.org/2000/svg">
<path d="M11.3333 2.5335H7.33331C7.07945 2.5335 6.8532 2.65174 6.70665 2.83617H5.39564C5.61673 1.9722 6.40043 1.3335 7.33331 1.3335H11.3333C12.4379 1.3335 13.3333 2.22893 13.3333 3.3335V10.0002C13.3333 10.944 12.6795 11.7352 11.8 11.9454V10.65C12.0019 10.5048 12.1333 10.2678 12.1333 10.0002V3.3335C12.1333 2.89167 11.7751 2.5335 11.3333 2.5335Z" fill="#161823"/>
<path d="M8.5 4.13617C9.60457 4.13617 10.5 5.0316 10.5 6.13617V12.8028C10.5 13.9074 9.60457 14.8028 8.5 14.8028H4.5C3.39543 14.8028 2.5 13.9074 2.5 12.8028V6.13617C2.5 5.0316 3.39543 4.13617 4.5 4.13617H8.5Z" fill="#161823"/>
</svg>
