<svg width="24" height="24" viewBox="0 0 24 24" fill="none" xmlns="http://www.w3.org/2000/svg">
<path fill-rule="evenodd" clip-rule="evenodd" d="M16.9983 12.1563H12.7502V15.5004C12.7502 16.743 11.7429 17.7504 10.5002 17.7504C9.25758 17.7504 8.25022 16.743 8.25022 15.5004C8.25022 15.0862 8.58601 14.7504 9.00022 14.7504C9.41444 14.7504 9.75022 15.0862 9.75022 15.5004C9.75022 15.9146 10.086 16.2504 10.5002 16.2504C10.9144 16.2504 11.2502 15.9146 11.2502 15.5004V12.1563H6.99827C6.58406 12.1563 6.24827 11.8206 6.24827 11.4063C6.24827 8.2307 8.82263 5.65634 11.9983 5.65634C15.1739 5.65634 17.7483 8.2307 17.7483 11.4063C17.7483 11.8206 17.4125 12.1563 16.9983 12.1563ZM11.9983 7.15634C9.90697 7.15634 8.16847 8.66683 7.81424 10.6563H16.1823C15.8281 8.66683 14.0896 7.15634 11.9983 7.15634Z" fill="#161823"/>
<path fill-rule="evenodd" clip-rule="evenodd" d="M21.4995 4.59538L21.4902 13.6466C21.4987 18.85 14.6636 21.7835 12.5897 22.5538C12.2069 22.696 11.7936 22.696 11.4107 22.5538C9.33683 21.7835 2.50174 18.8501 2.51022 13.6471L2.50098 4.59538C2.50053 4.15687 2.78582 3.76923 3.20462 3.63928L11.4075 1.09399C11.7936 0.974203 12.2069 0.974203 12.5929 1.09399L20.7958 3.63928C21.2146 3.76923 21.4999 4.15687 21.4995 4.59538ZM12.1484 2.52661L19.9991 4.96261L19.9902 13.6471L19.9902 13.6491C19.9933 15.5413 18.7506 17.1858 16.919 18.5641C15.1212 19.9168 13.0499 20.7828 12.0675 21.1476C12.0216 21.1647 11.9789 21.1647 11.933 21.1476C10.9506 20.7828 8.8792 19.9168 7.08145 18.5641C5.24982 17.1859 4.00714 15.5416 4.01022 13.6496L4.01022 13.6476L4.00135 4.96261L11.852 2.52661C11.9486 2.49666 12.0519 2.49666 12.1484 2.52661Z" fill="#161823"/>
</svg>
