<svg width="24" height="24" viewBox="0 0 24 24" fill="none" xmlns="http://www.w3.org/2000/svg">
<path fill-rule="evenodd" clip-rule="evenodd" d="M9.36171 4.2134L8.78064 5.085C8.2206 5.92506 7.33782 6.49585 6.34193 6.66184L5.61297 6.78333C4.40791 6.98417 3.46657 7.9336 3.27603 9.14033L3.1602 9.87389C2.82734 11.982 2.87121 14.1325 3.28977 16.2252C3.58437 17.6983 4.6772 18.8833 6.12159 19.296L6.48194 19.3989C10.0889 20.4295 13.9124 20.4295 17.5193 19.3989L17.8797 19.296C19.3241 18.8833 20.4169 17.6983 20.7115 16.2252C21.1301 14.1325 21.1739 11.982 20.8411 9.87389L20.7252 9.14033C20.5347 7.9336 19.5934 6.98417 18.3883 6.78333L17.6593 6.66184C16.6634 6.49585 15.7807 5.92506 15.2206 5.085L14.6396 4.2134C14.5106 4.01991 14.3118 3.88372 14.0848 3.83328C12.7121 3.52823 11.2892 3.52823 9.91647 3.83328C9.68946 3.88372 9.4907 4.01991 9.36171 4.2134ZM14.5187 1.8809C15.2491 2.04322 15.8886 2.48142 16.3037 3.104L16.8847 3.9756C17.1381 4.35569 17.5375 4.61395 17.9881 4.68905L18.7171 4.81054C20.7713 5.15291 22.376 6.77135 22.7008 8.82841L22.8166 9.56197C23.1863 11.9038 23.1376 14.2927 22.6727 16.6175C22.2312 18.8248 20.5936 20.6006 18.4291 21.219L18.0688 21.322C14.1027 22.4551 9.89857 22.4551 5.93249 21.322L5.57214 21.219C3.4077 20.6006 1.77008 18.8248 1.32861 16.6175C0.863647 14.2927 0.814915 11.9038 1.18468 9.56196L1.3005 8.82841C1.6253 6.77134 3.22996 5.15291 5.28417 4.81054L6.01313 4.68905C6.46373 4.61395 6.86315 4.35569 7.11654 3.9756L7.69761 3.104C8.11266 2.48142 8.75217 2.04322 9.48261 1.8809C11.1411 1.51236 12.8602 1.51236 14.5187 1.8809Z" fill="#161823"/>
<path fill-rule="evenodd" clip-rule="evenodd" d="M14.0243 7.9252C14.2397 7.29073 13.4367 6.85039 13.0046 7.32407L8.29096 12.4157L8.2872 12.4199C7.95903 12.7833 8.17449 13.3744 8.67159 13.4268L10.9769 13.6695L9.89816 16.8198C9.67445 17.4587 10.4907 17.9053 10.922 17.4195L15.3503 12.3036C15.6704 11.9389 15.4535 11.3552 14.9601 11.3033L14.0334 11.2057L12.9197 11.07L14.0227 7.92974L14.0243 7.9252Z" fill="#161823"/>
</svg>
