<svg width="16" height="16" viewBox="0 0 16 16" fill="none" xmlns="http://www.w3.org/2000/svg">
<g clip-path="url(#clip0_7_1370)">
<path d="M10.6665 4.26509C10.6665 5.88427 9.47258 7.19687 7.99982 7.19687C6.52706 7.19687 5.33315 5.88427 5.33315 4.26509C5.33315 2.64591 6.52706 1.33331 7.99982 1.33331C9.47258 1.33331 10.6665 2.64591 10.6665 4.26509Z" fill="#161823"/>
<path d="M3.85401 9.37876C4.96708 8.74873 6.42978 8.39999 7.9998 8.39999C8.55731 8.39999 9.10128 8.44396 9.62088 8.52889C8.88374 8.95608 8.42981 9.74362 8.42981 10.5958V12.9295C8.42981 13.5936 8.70544 14.2184 9.17591 14.664H3.66647C2.63554 14.664 1.7998 13.8283 1.7998 12.7973V12.4102C1.7998 11.0182 2.77227 9.99105 3.85401 9.37876Z" fill="#161823"/>
<path d="M13.7983 11.7499C13.7983 12.2801 13.3685 12.7099 12.8383 12.7099C12.3081 12.7099 11.8783 12.2801 11.8783 11.7499C11.8783 11.2197 12.3081 10.7899 12.8383 10.7899C13.3685 10.7899 13.7983 11.2197 13.7983 11.7499Z" fill="#161823"/>
<path d="M12.5165 8.22607C12.7176 8.10996 12.9654 8.10996 13.1665 8.22607L15.7334 9.70809C15.9345 9.8242 16.0584 10.0388 16.0584 10.271V13.235C16.0584 13.4673 15.9345 13.6818 15.7334 13.798L13.1665 15.28C12.9654 15.3961 12.7176 15.3961 12.5165 15.28L9.94953 13.798C9.74842 13.6818 9.62453 13.4673 9.62453 13.235V10.271C9.62453 10.0388 9.74842 9.8242 9.94953 9.70809L12.5165 8.22607ZM10.9245 10.6463V12.8598L12.8415 13.9665L14.7584 12.8598V10.6463L12.8415 9.53955L10.9245 10.6463Z" fill="#161823"/>
</g>
<defs>
<clipPath id="clip0_7_1370">
<rect width="16" height="16" fill="white"/>
</clipPath>
</defs>
</svg>
