<svg width="24" height="24" viewBox="0 0 24 24" fill="none" xmlns="http://www.w3.org/2000/svg">
<path d="M17.6436 16.2211V7.39959C17.6436 6.82358 17.1767 6.35663 16.6006 6.35663H11.4932C10.9409 6.35663 10.4932 5.90891 10.4932 5.35663C10.4932 4.80434 10.9409 4.35663 11.4932 4.35663H16.6006C18.2812 4.35663 19.6436 5.71901 19.6436 7.39959V16.2212L21.001 14.8638C21.3916 14.4733 22.0247 14.4733 22.4152 14.8638C22.8058 15.2543 22.8058 15.8875 22.4152 16.278L19.4953 19.198C19.0249 19.6683 18.2624 19.6683 17.7921 19.198L14.8721 16.278C14.4816 15.8875 14.4816 15.2543 14.8721 14.8638C15.2627 14.4733 15.8958 14.4733 16.2863 14.8638L17.6436 16.2211Z" fill="#161823"/>
<path d="M7.7216 9.12703L6.36426 7.76969V16.5917C6.36426 17.1677 6.83121 17.6347 7.40723 17.6347H12.5146C13.0669 17.6347 13.5146 18.0824 13.5146 18.6347C13.5146 19.1869 13.0669 19.6347 12.5146 19.6347H7.40723C5.72664 19.6347 4.36426 18.2723 4.36426 16.5917V7.76968L3.00691 9.12703C2.61639 9.51755 1.98322 9.51755 1.5927 9.12703C1.20217 8.7365 1.20217 8.10334 1.5927 7.71281L4.51269 4.79282C4.983 4.32251 5.74552 4.32252 6.21582 4.79282L9.13581 7.71281C9.52634 8.10334 9.52634 8.7365 9.13581 9.12703C8.74529 9.51755 8.11212 9.51755 7.7216 9.12703Z" fill="#161823"/>
</svg>
