<svg width="16" height="16" viewBox="0 0 16 16" fill="none" xmlns="http://www.w3.org/2000/svg">
<path d="M3.5 1.5C2.39543 1.5 1.5 2.39543 1.5 3.5V12.5C1.5 13.6046 2.39543 14.5 3.5 14.5H12.4999C13.6045 14.5 14.4999 13.6046 14.4999 12.5V3.5C14.4999 2.39543 13.6045 1.5 12.4999 1.5H3.5ZM4.00342 5.2395C4.00342 4.82529 4.3392 4.4895 4.75342 4.4895H11.2466C11.6608 4.4895 11.9966 4.82529 11.9966 5.2395C11.9966 5.65372 11.6608 5.9895 11.2466 5.9895H8.75L8.75 11.2081C8.75 11.6223 8.41421 11.9581 8 11.9581C7.58579 11.9581 7.25 11.6223 7.25 11.2081V5.9895L4.75342 5.9895C4.3392 5.9895 4.00342 5.65372 4.00342 5.2395Z" fill="#161823"/>
</svg>
