<svg width="20" height="20" viewBox="0 0 20 20" fill="none" xmlns="http://www.w3.org/2000/svg">
<path d="M3.5112 3.95023C3.97637 3.08398 4.89069 2.5 5.93521 2.5H14.0656C15.5251 2.5 16.7304 3.64019 16.8114 5.09746L17.3392 14.5975C17.3885 15.4853 17.012 16.2938 16.3917 16.8307L17.114 17.553C17.4069 17.8459 17.4069 18.3208 17.114 18.6137C16.8211 18.9066 16.3462 18.9066 16.0533 18.6137L15.9237 18.4841C15.9098 18.4676 15.8951 18.4515 15.8796 18.436L1.84255 4.39895C1.59459 4.10429 1.6093 3.66372 1.88666 3.38636C2.17956 3.09346 2.65443 3.09346 2.94732 3.38636L3.5112 3.95023ZM10.0004 9.84998C11.7953 9.84998 13.2504 8.3949 13.2504 6.59998V6.49581C13.2504 6.0816 12.9146 5.74581 12.5004 5.74581C12.0862 5.74581 11.7504 6.0816 11.7504 6.49581V6.59998C11.7504 7.56647 10.9669 8.34998 10.0004 8.34998C9.03387 8.34998 8.25037 7.56647 8.25037 6.59998V6.49581C8.25037 6.0816 7.91458 5.74581 7.50037 5.74581C7.08615 5.74581 6.75037 6.0816 6.75037 6.49581V6.59998C6.75037 8.3949 8.20544 9.84998 10.0004 9.84998Z" fill="#161823"/>
<path d="M3.04367 7.7214L12.8223 17.5H5.40744C3.8287 17.5 2.5741 16.1738 2.66167 14.5975L3.04367 7.7214Z" fill="#161823"/>
</svg>
