<svg width="24" height="24" viewBox="0 0 24 24" fill="none" xmlns="http://www.w3.org/2000/svg">
<path d="M7.97668 7.3999C7.70054 7.3999 7.47668 7.62376 7.47668 7.8999V8.8999C7.47668 9.17604 7.70054 9.3999 7.97668 9.3999H8.97668C9.25283 9.3999 9.47668 9.17604 9.47668 8.8999V7.8999C9.47668 7.62376 9.25283 7.3999 8.97668 7.3999H7.97668Z" fill="#161823"/>
<path d="M11.0767 7.8999C11.0767 7.62376 11.3005 7.3999 11.5767 7.3999H12.5767C12.8528 7.3999 13.0767 7.62376 13.0767 7.8999V8.8999C13.0767 9.17604 12.8528 9.3999 12.5767 9.3999H11.5767C11.3005 9.3999 11.0767 9.17604 11.0767 8.8999V7.8999Z" fill="#161823"/>
<path d="M15.1768 7.3999C14.9006 7.3999 14.6768 7.62376 14.6768 7.8999V8.8999C14.6768 9.17604 14.9006 9.3999 15.1768 9.3999H16.1768C16.4529 9.3999 16.6768 9.17604 16.6768 8.8999V7.8999C16.6768 7.62376 16.4529 7.3999 16.1768 7.3999H15.1768Z" fill="#161823"/>
<path d="M7.47668 11.5C7.47668 11.2239 7.70054 11 7.97668 11H8.97668C9.25283 11 9.47668 11.2239 9.47668 11.5V12.5C9.47668 12.7761 9.25283 13 8.97668 13H7.97668C7.70054 13 7.47668 12.7761 7.47668 12.5V11.5Z" fill="#161823"/>
<path d="M7.97668 14.6001C7.70054 14.6001 7.47668 14.824 7.47668 15.1001V16.1001C7.47668 16.3762 7.70054 16.6001 7.97669 16.6001H16.1C16.3762 16.6001 16.6 16.3762 16.6 16.1001V15.1001C16.6 14.824 16.3762 14.6001 16.1 14.6001H7.97668Z" fill="#161823"/>
<path d="M11.0767 11.5C11.0767 11.2239 11.3005 11 11.5767 11H12.5767C12.8528 11 13.0767 11.2239 13.0767 11.5V12.5C13.0767 12.7761 12.8528 13 12.5767 13H11.5767C11.3005 13 11.0767 12.7761 11.0767 12.5V11.5Z" fill="#161823"/>
<path d="M15.1768 11C14.9006 11 14.6768 11.2239 14.6768 11.5V12.5C14.6768 12.7761 14.9006 13 15.1768 13H16.1768C16.4529 13 16.6768 12.7761 16.6768 12.5V11.5C16.6768 11.2239 16.4529 11 16.1768 11H15.1768Z" fill="#161823"/>
<path d="M22 12C22 6.47715 17.5228 2 12 2C6.47715 2 2 6.47715 2 12C2 17.5228 6.47715 22 12 22C17.5228 22 22 17.5228 22 12ZM20.5 12C20.5 16.6944 16.6944 20.5 12 20.5C7.30558 20.5 3.5 16.6944 3.5 12C3.5 7.30558 7.30558 3.5 12 3.5C16.6944 3.5 20.5 7.30558 20.5 12Z" fill="#161823"/>
</svg>
