<svg width="20" height="20" viewBox="0 0 20 20" fill="none" xmlns="http://www.w3.org/2000/svg">
<path d="M18.3337 9.99984C18.3337 14.6022 14.6027 18.3332 10.0003 18.3332C5.39795 18.3332 1.66699 14.6022 1.66699 9.99984C1.66699 5.39746 5.39795 1.6665 10.0003 1.6665C14.6027 1.6665 18.3337 5.39746 18.3337 9.99984ZM10.3131 4.95097L6.60844 10.7043C6.37724 11.0633 6.60427 11.5402 7.02872 11.5871L9.07196 11.8129L8.59315 14.6112C8.4781 15.2836 9.36993 15.6278 9.73638 15.0523L13.3903 9.31462C13.6188 8.95584 13.3921 8.48178 12.9695 8.43434L10.9729 8.21027L11.4546 5.39475C11.5694 4.72405 10.6815 4.37887 10.3131 4.95097Z" fill="#161823"/>
</svg>
