<svg width="24" height="24" viewBox="0 0 24 24" fill="none" xmlns="http://www.w3.org/2000/svg">
<path fill-rule="evenodd" clip-rule="evenodd" d="M16.2861 3.85721H7.7147C7.00462 3.85721 6.42899 4.43285 6.42899 5.14293V18.8572C6.42899 19.5673 7.00462 20.1429 7.7147 20.1429H16.2861C16.9962 20.1429 17.5718 19.5673 17.5718 18.8572V5.14293C17.5718 4.43285 16.9962 3.85721 16.2861 3.85721ZM7.7147 1.71436C5.82116 1.71436 4.28613 3.24938 4.28613 5.14293V18.8572C4.28613 20.7508 5.82116 22.2858 7.7147 22.2858H16.2861C18.1797 22.2858 19.7147 20.7508 19.7147 18.8572V5.14293C19.7147 3.24938 18.1797 1.71436 16.2861 1.71436H7.7147Z" fill="#161823"/>
<path d="M11.5718 6.85721C11.5718 6.14713 12.1475 5.5715 12.8576 5.5715H14.5718C15.2819 5.5715 15.8576 6.14713 15.8576 6.85721V10.2858C15.8576 10.9959 15.2819 11.5715 14.5718 11.5715H12.8576C12.1475 11.5715 11.5718 10.9959 11.5718 10.2858V6.85721Z" fill="#161823"/>
</svg>
