<svg width="16" height="16" viewBox="0 0 16 16" fill="none" xmlns="http://www.w3.org/2000/svg">
<path d="M14.6663 8.00016C14.6663 11.6821 11.6816 14.6668 7.99967 14.6668C4.31778 14.6668 1.33301 11.6821 1.33301 8.00016C1.33301 4.31826 4.31778 1.3335 7.99967 1.3335C11.6816 1.3335 14.6663 4.31826 14.6663 8.00016ZM8.11737 4.16706L5.32126 8.50939C5.12023 8.8216 5.31764 9.23627 5.68673 9.27706L7.25709 9.45061L6.9159 11.4446C6.81465 12.0363 7.59947 12.3392 7.92194 11.8328L10.6773 7.50606C10.876 7.19408 10.6789 6.78185 10.3114 6.7406L8.77783 6.5685L9.12192 4.55758C9.22291 3.96736 8.44155 3.66361 8.11737 4.16706Z" fill="#161823"/>
</svg>
