<svg width="24" height="24" viewBox="0 0 24 24" fill="none" xmlns="http://www.w3.org/2000/svg">
<path d="M13.9905 5.31951V9.87602H12.758C9.91959 9.87602 8.6662 9.88412 7.66625 10.1866C5.34495 10.8889 3.52852 12.7053 2.82625 15.0266C2.60973 15.7423 2.54403 16.5956 2.52418 18.0757C3.95582 16.2916 6.02933 15.1389 8.30065 14.8649C8.82307 14.8019 9.37595 14.8019 10.3436 14.802L13.9905 14.802V18.67L21.4581 12.0321C21.4805 12.0122 21.4805 11.9773 21.4581 11.9574L13.9905 5.31951ZM12.4905 4.09474C12.4905 3.27503 13.459 2.84012 14.0716 3.3847L22.4546 10.8363C23.1483 11.4528 23.1483 12.5367 22.4546 13.1532L14.0716 20.6048C13.459 21.1494 12.4905 20.7144 12.4905 19.8947V16.302H10.4012C9.36018 16.302 8.9023 16.3032 8.4803 16.3541C6.59523 16.5816 4.87461 17.5394 3.68819 19.0218C3.4226 19.3537 3.18027 19.7422 2.63183 20.627L2.6286 20.6323C2.61443 20.6551 2.59561 20.6855 2.57862 20.7111L2.57756 20.7127C2.56818 20.7272 2.51033 20.8164 2.41986 20.8942C1.95727 21.292 1.23865 21.0874 1.05504 20.5056C1.01889 20.391 1.01692 20.2834 1.01662 20.2671L1.01658 20.2654C1.01562 20.2346 1.01563 20.1987 1.01564 20.1712L1.01564 20.1649C1.01564 20.1081 1.01564 20.0518 1.01563 19.996C1.01547 17.3415 1.01538 15.8323 1.39052 14.5923C2.23808 11.7907 4.43032 9.59846 7.2319 8.7509C8.45584 8.38062 9.92724 8.37591 12.4905 8.37601V4.09474Z" fill="#161823"/>
</svg>
