<svg width="20" height="20" viewBox="0 0 20 20" fill="none" xmlns="http://www.w3.org/2000/svg">
<path d="M1.00391 2.725C1.00391 2.14297 1.47573 1.67114 2.05776 1.67114H3.08212C3.63023 1.67114 4.09198 2.08052 4.15765 2.62467L4.3604 4.30457H16.5781C16.7129 4.30457 16.8438 4.31966 16.9691 4.34816C17.4247 4.45174 17.8082 4.73232 18.0506 5.10856C18.1908 5.32635 18.2838 5.5762 18.316 5.84231C18.3353 6.00198 18.3328 6.16751 18.3054 6.33548L17.6871 10.138C17.6858 10.1456 17.6845 10.1531 17.683 10.1607L17.4812 11.1989C17.4158 11.5353 17.1307 11.7846 16.7885 11.8045L5.35485 12.4688C5.49014 13.0211 5.98736 13.4203 6.56878 13.4203H15.9332C16.3474 13.4203 16.6832 13.7561 16.6832 14.1703C16.6832 14.5845 16.3474 14.9203 15.9332 14.9203H6.56878C5.17744 14.9203 4.0053 13.8811 3.83859 12.4998L2.78606 3.77886H2.05776C1.47573 3.77886 1.00391 3.30703 1.00391 2.725Z" fill="#161823"/>
<path d="M4.58325 17.0833C4.58325 16.393 5.1429 15.8333 5.83325 15.8333C6.52361 15.8333 7.08325 16.393 7.08325 17.0833C7.08325 17.7737 6.52361 18.3333 5.83325 18.3333C5.1429 18.3333 4.58325 17.7737 4.58325 17.0833Z" fill="#161823"/>
<path d="M13.7499 17.0833C13.7499 16.393 14.3095 15.8333 14.9999 15.8333C15.6902 15.8333 16.2499 16.393 16.2499 17.0833C16.2499 17.7737 15.6902 18.3333 14.9999 18.3333C14.3095 18.3333 13.7499 17.7737 13.7499 17.0833Z" fill="#161823"/>
</svg>
