<svg width="24" height="24" viewBox="0 0 24 24" fill="none" xmlns="http://www.w3.org/2000/svg">
<path fill-rule="evenodd" clip-rule="evenodd" d="M3 12.0038C3 11.5896 3.33579 11.2538 3.75 11.2538L20.25 11.2539C20.6642 11.2539 21 11.5896 21 12.0039C21 12.4181 20.6642 12.7539 20.25 12.7539L3.75 12.7538C3.33579 12.7538 3 12.4181 3 12.0038Z" fill="#161823"/>
<path fill-rule="evenodd" clip-rule="evenodd" d="M3.00006 4.75C3.00006 3.7835 3.78356 3 4.75006 3H8.25C8.66421 3 9 3.33579 9 3.75C9 4.16421 8.66421 4.5 8.25 4.5H4.75006C4.61199 4.5 4.50006 4.61193 4.50006 4.75V8.24994C4.50006 8.66416 4.16427 8.99994 3.75006 8.99994C3.33584 8.99994 3.00006 8.66416 3.00006 8.24994V4.75Z" fill="#161823"/>
<path fill-rule="evenodd" clip-rule="evenodd" d="M3.00561 19.2521C3.00561 20.2186 3.78911 21.0021 4.75561 21.0021H8.25241C8.66662 21.0021 9.00241 20.6664 9.00241 20.2521C9.00241 19.8379 8.66662 19.5021 8.25241 19.5021H4.75561C4.61754 19.5021 4.50561 19.3902 4.50561 19.2521V15.7554C4.50561 15.3411 4.16982 15.0054 3.75561 15.0054C3.3414 15.0054 3.00561 15.3411 3.00561 15.7554V19.2521Z" fill="#161823"/>
<path fill-rule="evenodd" clip-rule="evenodd" d="M21.0063 4.75143C21.0063 3.78493 20.2228 3.00143 19.2563 3.00143H15.7539C15.3397 3.00143 15.0039 3.33721 15.0039 3.75143C15.0039 4.16564 15.3397 4.50143 15.7539 4.50143H19.2563C19.3944 4.50143 19.5063 4.61336 19.5063 4.75143V8.25385C19.5063 8.66806 19.8421 9.00385 20.2563 9.00385C20.6705 9.00385 21.0063 8.66806 21.0063 8.25385V4.75143Z" fill="#161823"/>
<path fill-rule="evenodd" clip-rule="evenodd" d="M21.0022 19.2521C21.0022 20.2186 20.2187 21.0021 19.2522 21.0021H15.7519C15.3376 21.0021 15.0019 20.6664 15.0019 20.2521C15.0019 19.8379 15.3376 19.5021 15.7519 19.5021H19.2522C19.3903 19.5021 19.5022 19.3902 19.5022 19.2521V15.7518C19.5022 15.3376 19.838 15.0018 20.2522 15.0018C20.6664 15.0018 21.0022 15.3376 21.0022 15.7518V19.2521Z" fill="#161823"/>
</svg>
