<svg width="24" height="24" viewBox="0 0 24 24" fill="none" xmlns="http://www.w3.org/2000/svg">
<path fill-rule="evenodd" clip-rule="evenodd" d="M2.9516 12.1033C3.00686 12.1466 3.06284 12.1897 3.11953 12.2325C3.17624 12.2754 3.23366 12.3181 3.29175 12.3606C3.67876 12.6436 4.1016 12.9213 4.55631 13.1911C6.29082 14.2201 8.489 15.1338 10.9309 15.7881C13.5261 16.4835 16.0295 16.7875 18.1257 16.7179C18.519 16.7048 18.8979 16.6786 19.2604 16.6394C19.5392 16.6092 19.8106 16.5711 20.0734 16.5247C20.8897 16.3804 21.6219 16.1561 22.2268 15.8414C23.027 15.425 23.6751 14.8097 23.9046 13.9532C24.1341 13.0967 23.8805 12.2398 23.3956 11.4791C22.9112 10.719 22.1553 9.98456 21.2257 9.30481C21.1083 9.21895 20.9876 9.13357 20.8636 9.04876C19.663 5.37282 16.2082 2.7168 12.1329 2.7168C9.83394 2.7168 7.73247 3.56199 6.12172 4.95868C5.82442 4.97339 5.53588 4.99585 5.25704 5.02603C4.11215 5.14993 3.09026 5.40804 2.29066 5.82406C1.49046 6.24039 0.842326 6.85573 0.612836 7.7122C0.383347 8.56867 0.636977 9.42564 1.1218 10.1863C1.54573 10.8514 2.17751 11.4969 2.9516 12.1033ZM4.60926 6.63531C3.94649 6.75955 3.4006 6.93745 2.98299 7.15473C2.40661 7.45461 2.1453 7.78854 2.06172 8.10043C1.97815 8.41232 2.03749 8.83217 2.38671 9.38006C2.56194 9.65498 2.79989 9.94431 3.09966 10.242C3.34145 8.91914 3.86636 7.69516 4.60926 6.63531ZM4.4688 11.3567C6.14085 12.5084 8.53563 13.5934 11.3191 14.3392C14.2688 15.1296 17.0309 15.3719 19.099 15.1481L19.1018 15.1478C19.5602 14.1627 19.8162 13.0641 19.8162 11.9057C19.8162 7.65877 16.3758 4.2168 12.1329 4.2168C8.07435 4.2168 4.75012 7.36606 4.4688 11.3567ZM20.854 14.792C21.1089 14.7082 21.3362 14.6139 21.5345 14.5107C22.1108 14.2108 22.3722 13.8769 22.4557 13.565C22.5393 13.2531 22.4799 12.8332 22.1307 12.2854C21.9326 11.9745 21.6542 11.6451 21.2969 11.3061C21.3097 11.5043 21.3162 11.7043 21.3162 11.9057C21.3162 12.914 21.1539 13.8843 20.854 14.792Z" fill="#161823"/>
<path d="M3.35507 14.614C3.30181 14.4409 3.49268 14.3015 3.64756 14.3952C4.1387 14.6923 4.66218 14.979 5.21352 15.2527C5.51355 15.8727 5.89441 16.4462 6.3425 16.9599C6.50375 17.1447 6.56442 17.3967 6.50497 17.6347L5.99384 19.6805L8.12772 18.7908C8.32741 18.7076 8.55334 18.7146 8.74747 18.8101C9.76795 19.3123 10.9164 19.5946 12.1329 19.5946C13.7727 19.5946 15.2927 19.0805 16.5405 18.2044C17.1586 18.2328 17.7572 18.2352 18.3309 18.2112C18.5126 18.2037 18.6129 18.4194 18.4815 18.5451C16.8324 20.1244 14.596 21.0946 12.1329 21.0946C10.8045 21.0946 9.54041 20.812 8.39875 20.303L6.29983 21.1781C5.27223 21.6066 4.19813 20.6796 4.46749 19.6015L4.95734 17.6408C4.24707 16.7521 3.69808 15.7281 3.35507 14.614Z" fill="#161823"/>
</svg>
