<svg width="20" height="20" viewBox="0 0 20 20" fill="none" xmlns="http://www.w3.org/2000/svg">
<path d="M10.13 6.65147C10.384 6.32429 10.8551 6.26498 11.1823 6.519C11.1823 6.519 11.1823 6.51897 11.1829 6.51949L11.1836 6.52L11.185 6.52109L11.1881 6.52355L11.1914 6.52616C11.1927 6.52722 11.1941 6.52834 11.1956 6.52954C11.1989 6.53216 11.2026 6.53512 11.2066 6.53842C11.2094 6.54074 11.2124 6.54322 11.2156 6.54587C11.231 6.55869 11.2505 6.57543 11.2735 6.59615C11.3196 6.63755 11.38 6.69501 11.4497 6.76902C11.589 6.91684 11.767 7.13212 11.9426 7.41855C12.2965 7.99573 12.6341 8.85172 12.6341 9.99891C12.6341 11.1461 12.2965 12.0021 11.9426 12.5793C11.767 12.8657 11.589 13.081 11.4497 13.2288C11.38 13.3028 11.3196 13.3603 11.2735 13.4017C11.2505 13.4224 11.231 13.4391 11.2156 13.452C11.2128 13.4543 11.2101 13.4565 11.2076 13.4586C11.2031 13.4622 11.1992 13.4654 11.1956 13.4683C11.1929 13.4705 11.1903 13.4725 11.1881 13.4743L11.185 13.4767L11.1836 13.4778L11.1829 13.4783C11.1817 13.4793 11.1823 13.4788 11.1823 13.4788C10.8551 13.7328 10.384 13.6735 10.13 13.3464C9.87771 13.0215 9.93444 12.5546 10.2556 12.2993C10.2564 12.2987 10.2577 12.2976 10.2595 12.2961C10.2622 12.2937 10.2661 12.2903 10.271 12.2859C10.2885 12.2702 10.3189 12.2417 10.3581 12.2001C10.4366 12.1168 10.5491 11.9824 10.6639 11.7952C10.8909 11.425 11.1341 10.8372 11.1341 9.99891C11.1341 9.16058 10.8909 8.57281 10.6639 8.20263C10.5491 8.01537 10.4366 7.88107 10.3581 7.79772C10.3189 7.75614 10.2885 7.72763 10.271 7.71194C10.2629 7.70461 10.2576 7.70013 10.2556 7.69848C9.93444 7.44325 9.87771 6.97637 10.13 6.65147Z" fill="#161823"/>
<path d="M8.6329 8.0043C8.32888 7.72297 7.85436 7.74136 7.57303 8.04537C7.29552 8.34526 7.30964 8.81106 7.60188 9.09368C7.60483 9.09686 7.61196 9.10473 7.62213 9.11727C7.64541 9.146 7.6835 9.19782 7.72376 9.27231C7.80281 9.41859 7.89366 9.658 7.89366 9.99855C7.89366 10.3391 7.80281 10.5785 7.72377 10.7247C7.68352 10.7992 7.64544 10.851 7.62216 10.8797C7.61201 10.8922 7.60488 10.9001 7.60194 10.9033C7.30967 11.1858 7.2955 11.6516 7.57297 11.9515C7.85427 12.2556 8.32879 12.274 8.63283 11.9927C8.63283 11.9927 8.6327 11.9929 8.63338 11.9922L8.63393 11.9917L8.63508 11.9907L8.63752 11.9884C8.63921 11.9868 8.64104 11.9851 8.64298 11.9832C8.64406 11.9822 8.64517 11.9811 8.64632 11.98C8.64935 11.9771 8.65263 11.9739 8.65615 11.9704C8.66589 11.9608 8.67752 11.949 8.69075 11.935C8.71719 11.907 8.75019 11.8702 8.78738 11.8243C8.86163 11.7327 8.95359 11.604 9.04338 11.4379C9.22443 11.1029 9.39366 10.6204 9.39366 9.99855C9.39366 9.37667 9.22443 8.89419 9.0434 8.55919C8.95362 8.39304 8.86167 8.26437 8.78742 8.17277C8.75023 8.12689 8.71724 8.09 8.6908 8.06204C8.67757 8.04805 8.66594 8.03625 8.65621 8.02664C8.65134 8.02184 8.64694 8.01757 8.64304 8.01385C8.64109 8.01199 8.63927 8.01027 8.63758 8.00867L8.63514 8.00639L8.63399 8.00532L8.63344 8.00481C8.63271 8.00414 8.6329 8.0043 8.6329 8.0043Z" fill="#161823"/>
<path fill-rule="evenodd" clip-rule="evenodd" d="M1.50781 10.0001C1.50781 5.49792 5.349 1.91675 10.0004 1.91675C14.6519 1.91675 18.4931 5.49792 18.4931 10.0001C18.4931 14.5022 14.6519 18.0834 10.0004 18.0834C9.85679 18.0834 9.71391 18.08 9.57189 18.0733H3.30301C2.13852 18.0733 1.43519 16.785 2.0649 15.8055L2.9233 14.4702C2.0308 13.1922 1.50781 11.655 1.50781 10.0001ZM9.54782 16.5733C9.57047 16.5724 9.59329 16.5725 9.61621 16.5737C9.74335 16.5801 9.87146 16.5834 10.0004 16.5834C13.9013 16.5834 16.9931 13.5981 16.9931 10.0001C16.9931 6.40207 13.9013 3.41675 10.0004 3.41675C6.09962 3.41675 3.00781 6.40207 3.00781 10.0001C3.00781 11.4874 3.53108 12.8613 4.4204 13.9679C4.62251 14.2193 4.64115 14.5719 4.46669 14.8433L3.35453 16.5733H9.54782Z" fill="#161823"/>
</svg>
