<svg width="16" height="16" viewBox="0 0 16 16" fill="none" xmlns="http://www.w3.org/2000/svg">
<path d="M5.69351 7.33333C7.01899 7.33333 8.09351 6.13943 8.09351 4.66667C8.09351 3.19391 7.01899 2 5.69351 2C4.36802 2 3.29351 3.19391 3.29351 4.66667C3.29351 6.13943 4.36802 7.33333 5.69351 7.33333Z" fill="#161823"/>
<path d="M5.69349 8.13333C4.29253 8.13333 2.98129 8.4742 1.98061 9.09438C1.58878 9.33722 1.22096 9.64082 0.919917 9.99998C0.557912 10.4319 0.292461 10.9441 0.197926 11.5275C0.17319 11.6802 0.160156 11.8377 0.160156 12V12.3333C0.160156 12.4996 0.181886 12.6607 0.22266 12.8141C0.434752 13.612 1.16213 14.2 2.02682 14.2H9.36016C10.3267 14.2 11.1216 13.4655 11.2172 12.5242C11.2236 12.4614 11.2268 12.3978 11.2268 12.3333V12C11.2268 10.8642 10.5882 9.95942 9.76776 9.34149C9.65056 9.25321 9.52965 9.17079 9.40637 9.09438C9.03111 8.86181 8.61219 8.66852 8.16123 8.51776C7.40964 8.26648 6.56909 8.13333 5.69349 8.13333Z" fill="#161823"/>
<path d="M13.0282 5.10432C13.0282 6.33244 12.1322 7.32802 11.0268 7.32802C9.92154 7.32802 9.02551 6.33244 9.02551 5.10432C9.02551 3.8762 9.92154 2.88062 11.0268 2.88062C12.1322 2.88062 13.0282 3.8762 13.0282 5.10432Z" fill="#161823"/>
<path d="M12.4602 12.4499V12.0819C12.4602 10.3453 11.4444 9.05453 10.3234 8.2669C10.5542 8.24434 10.7892 8.23289 11.0268 8.23289C12.2253 8.23289 13.3566 8.52418 14.228 9.0642C15.0849 9.59529 15.8403 10.4808 15.8403 11.6566V11.9346C15.8403 12.9043 15.0542 13.6905 14.0844 13.6905H12.1955C12.3654 13.3135 12.4602 12.8931 12.4602 12.4499Z" fill="#161823"/>
</svg>
