<svg width="24" height="24" viewBox="0 0 24 24" fill="none" xmlns="http://www.w3.org/2000/svg">
<path fill-rule="evenodd" clip-rule="evenodd" d="M5.92217 7.80176C5.13613 9.21903 4.77622 10.9564 4.73127 12.6899C4.86375 12.6079 5.0068 12.5385 5.1594 12.4839L5.54372 12.3464C6.71371 11.9277 8.00157 12.5368 8.42023 13.7068L10.0888 18.3697C10.5074 19.5397 9.89837 20.8275 8.72838 21.2462L8.34406 21.3837C7.18571 21.7982 6.04614 21.2646 5.32228 20.2609C5.29783 20.2345 5.27498 20.2061 5.25398 20.1756C4.19989 18.6462 3.53447 16.796 3.32296 14.8443C3.0502 12.3273 3.3191 9.40253 4.61041 7.07424C5.93226 4.69089 8.29414 3 11.9911 3C15.6867 3 18.0512 4.68434 19.3775 7.06211C20.6732 9.38511 20.9473 12.3048 20.6792 14.8217C20.4712 16.774 19.8091 18.6259 18.7579 20.1579C18.7395 20.1847 18.7198 20.2099 18.6987 20.2335C17.9759 21.2549 16.8262 21.802 15.6574 21.3837L15.2731 21.2462C14.1031 20.8275 13.494 19.5397 13.9127 18.3697L15.5812 13.7068C15.9999 12.5368 17.2877 11.9277 18.4577 12.3464L18.842 12.4839C18.9936 12.5382 19.1357 12.607 19.2674 12.6882C19.2212 10.9511 18.8584 9.21087 18.0675 7.7928C17.0044 5.8869 15.1393 4.5 11.9911 4.5C8.84414 4.5 6.98199 5.89087 5.92217 7.80176ZM19.1644 14.8631C19.1574 14.483 18.7073 14.0288 18.3367 13.8962L17.9523 13.7587C17.5624 13.6192 17.1331 13.8222 16.9935 14.2122L15.325 18.8751C15.1854 19.2651 15.3884 19.6943 15.7784 19.8339L16.1628 19.9714C16.5509 20.1103 17.2431 19.7187 17.4864 19.3647C17.4971 19.3459 17.5086 19.3274 17.5211 19.3093C18.3865 18.048 18.9583 16.5105 19.1644 14.8631ZM6.48904 19.3244C5.62026 18.0639 5.0453 16.5256 4.83694 14.8762C4.83359 14.4935 5.28989 14.0304 5.66477 13.8962L6.04909 13.7587C6.43909 13.6192 6.86837 13.8222 7.00793 14.2122L8.67648 18.8751C8.81603 19.2651 8.61301 19.6943 8.22301 19.8339L7.83869 19.9714C7.45067 20.1103 6.72982 19.6724 6.51474 19.3643C6.50665 19.3508 6.49808 19.3375 6.48904 19.3244Z" fill="#161823"/>
</svg>
