<svg width="24" height="24" viewBox="0 0 24 24" fill="none" xmlns="http://www.w3.org/2000/svg">
<path d="M3.75 4.5H17.25C17.9404 4.5 18.5 5.05964 18.5 5.75V8.3C18.5 8.41046 18.5895 8.5 18.7 8.5H19.8C19.9105 8.5 20 8.41046 20 8.3V5.75C20 4.23122 18.7688 3 17.25 3H3.75C2.23122 3 1 4.23122 1 5.75V15.25C1 16.7688 2.23122 18 3.75 18H6.3C6.41046 18 6.5 17.9105 6.5 17.8V16.7C6.5 16.5895 6.41046 16.5 6.3 16.5H3.75C3.05964 16.5 2.5 15.9404 2.5 15.25V5.75C2.5 5.05964 3.05964 4.5 3.75 4.5Z" fill="#161823"/>
<path fill-rule="evenodd" clip-rule="evenodd" d="M10.75 10C9.23122 10 8 11.2312 8 12.75V18.25C8 19.7688 9.23122 21 10.75 21H20.25C21.7688 21 23 19.7688 23 18.25V12.75C23 11.2312 21.7688 10 20.25 10H10.75ZM20.25 11.5H10.75C10.0596 11.5 9.5 12.0596 9.5 12.75V18.25C9.5 18.9404 10.0596 19.5 10.75 19.5H20.25C20.9404 19.5 21.5 18.9404 21.5 18.25V12.75C21.5 12.0596 20.9404 11.5 20.25 11.5Z" fill="#161823"/>
<path d="M5.03033 5.96967C4.73744 5.67678 4.26256 5.67678 3.96967 5.96967C3.67678 6.26256 3.67678 6.73744 3.96967 7.03033L5.14944 8.2101L4.49762 8.86192C4.07765 9.2819 4.37509 9.99999 4.96903 9.99999H7.33333C7.70152 9.99999 7.99999 9.70152 7.99999 9.33333V6.96903C7.99999 6.37509 7.2819 6.07765 6.86192 6.49762L6.2101 7.14944L5.03033 5.96967Z" fill="#161823"/>
</svg>
