<svg width="16" height="16" viewBox="0 0 16 16" fill="none" xmlns="http://www.w3.org/2000/svg">
<path d="M8.00001 11.9C8.49706 11.9 8.90001 11.4971 8.90001 11C8.90001 10.503 8.49706 10.1 8.00001 10.1C7.50295 10.1 7.10001 10.503 7.10001 11C7.10001 11.4971 7.50295 11.9 8.00001 11.9Z" fill="#161823"/>
<path d="M8 4.10004C7.55181 4.10004 7.19106 4.55097 7.20017 5.09983L7.25161 8.20178C7.25988 8.7008 7.59251 9.10004 8 9.10004C8.40748 9.10004 8.74011 8.7008 8.74839 8.20179L8.79983 5.09983C8.80893 4.55097 8.44818 4.10004 8 4.10004Z" fill="#161823"/>
<path fill-rule="evenodd" clip-rule="evenodd" d="M15 8C15 11.866 11.866 15 8 15C4.13401 15 1 11.866 1 8C1 4.13401 4.13401 1 8 1C11.866 1 15 4.13401 15 8ZM8 13.8C11.2033 13.8 13.8 11.2033 13.8 8C13.8 4.79675 11.2033 2.2 8 2.2C4.79675 2.2 2.2 4.79675 2.2 8C2.2 11.2033 4.79675 13.8 8 13.8Z" fill="#161823"/>
</svg>
