<svg width="16" height="16" viewBox="0 0 16 16" fill="none" xmlns="http://www.w3.org/2000/svg">
<path d="M7.59026 3.16071C7.61129 3.18675 7.61732 3.22177 7.60681 3.25354L6.5163 6.55076C6.3981 6.90813 6.47085 7.30114 6.70914 7.59252L8.3797 9.6353L7.15688 13.8286C7.13805 13.8932 7.06167 13.9208 7.00567 13.8836C3.56615 11.5946 1.33301 8.90088 1.33301 6.18755C1.33301 3.69139 3.06532 2 5.16592 2C6.19982 2 7.01689 2.45069 7.59026 3.16071Z" fill="#161823"/>
<path d="M9.1459 2.48882C9.12735 2.50099 9.11362 2.51919 9.10665 2.54025L7.67286 6.8754L9.34196 8.91639C9.57145 9.19702 9.64794 9.57269 9.54646 9.9207L8.32413 14.1123C8.30084 14.1922 8.37845 14.2611 8.45212 14.2224C8.56137 14.1652 8.67359 14.0961 8.78058 14.0239C12.3407 11.705 14.6663 8.95652 14.6663 6.18755C14.6663 3.69139 12.934 2 10.8334 2C10.182 2 9.61842 2.17889 9.1459 2.48882Z" fill="#161823"/>
</svg>
