<svg width="20" height="20" viewBox="0 0 20 20" fill="none" xmlns="http://www.w3.org/2000/svg">
<g clip-path="url(#clip0_2_2564)">
<path d="M1.49609 10C1.49609 7.58268 3.45573 5.62305 5.87306 5.62305C6.38801 5.62305 6.88064 5.71166 7.33755 5.87384C7.7279 6.01239 8.15667 5.80827 8.29522 5.41792C8.43378 5.02756 8.22965 4.5988 7.8393 4.46024C7.22354 4.24168 6.56134 4.12305 5.87306 4.12305C2.6273 4.12305 -0.00390625 6.75425 -0.00390625 10C-0.00390625 13.2458 2.6273 15.877 5.87306 15.877C6.56134 15.877 7.22354 15.7583 7.8393 15.5398C8.22965 15.4012 8.43378 14.9725 8.29522 14.5821C8.15667 14.1918 7.7279 13.9876 7.33755 14.1262C6.88064 14.2884 6.38801 14.377 5.87306 14.377C3.45573 14.377 1.49609 12.4173 1.49609 10Z" fill="#161823"/>
<path d="M14.1244 4.12524C10.8799 4.12524 8.24966 6.75547 8.24966 10C8.24966 13.2446 10.8799 15.8748 14.1244 15.8748C17.369 15.8748 19.9992 13.2446 19.9992 10C19.9992 6.75547 17.369 4.12524 14.1244 4.12524ZM9.74966 10C9.74966 7.5839 11.7083 5.62524 14.1244 5.62524C16.5406 5.62524 18.4992 7.5839 18.4992 10C18.4992 12.4161 16.5406 14.3748 14.1244 14.3748C11.7083 14.3748 9.74966 12.4161 9.74966 10Z" fill="#161823"/>
</g>
<defs>
<clipPath id="clip0_2_2564">
<rect width="20" height="20" fill="white"/>
</clipPath>
</defs>
</svg>
