<svg width="12" height="12" viewBox="0 0 12 12" fill="none" xmlns="http://www.w3.org/2000/svg">
<path d="M8.35744 1.59037C7.33725 1.04507 6.15955 0.870375 5.025 1.09605C3.89045 1.32173 2.86925 1.93381 2.1354 2.82801C1.46519 3.64466 1.07252 4.65047 1.00946 5.69995H0.535462C0.211852 5.69995 0.0221911 6.06422 0.207769 6.32933L1.30617 7.89848C1.46541 8.12597 1.80232 8.12597 1.96156 7.89848L3.05996 6.32933C3.24554 6.06422 3.05588 5.69995 2.73227 5.69995H2.21231C2.2734 4.92842 2.569 4.19124 3.06301 3.58928C3.62074 2.90969 4.39685 2.44451 5.25911 2.27299C6.12137 2.10148 7.01642 2.23425 7.79176 2.64868C8.5671 3.06311 9.17476 3.73355 9.51119 4.54578C9.84763 5.35801 9.89203 6.26177 9.63683 7.10306C9.38162 7.94435 8.8426 8.67113 8.11162 9.15956C7.38063 9.64799 6.5029 9.86785 5.62799 9.78168C4.75307 9.69551 3.9351 9.30864 3.31345 8.68698C3.07913 8.45267 2.69923 8.45267 2.46492 8.68698C2.2306 8.9213 2.2306 9.3012 2.46492 9.53551C3.28288 10.3535 4.35916 10.8625 5.51037 10.9759C6.66157 11.0893 7.81648 10.8 8.7783 10.1573C9.74013 9.51466 10.4494 8.55837 10.7852 7.4514C11.1209 6.34444 11.0625 5.15528 10.6199 4.08656C10.1772 3.01784 9.37762 2.13567 8.35744 1.59037Z" fill="#161823"/>
<path d="M7.51623 5.66964C7.74896 5.82844 7.74896 6.17167 7.51623 6.33047L5.59234 7.64318C5.32683 7.82435 4.96689 7.6342 4.96689 7.31277L4.96689 4.68734C4.96689 4.36591 5.32683 4.17576 5.59234 4.35693L7.51623 5.66964Z" fill="#161823"/>
</svg>
