<svg width="16" height="16" viewBox="0 0 16 16" fill="none" xmlns="http://www.w3.org/2000/svg">
<path d="M9.38078 2.83442C8.76494 1.76776 7.22534 1.76776 6.6095 2.83442L1.54682 11.6032C0.969474 12.6032 1.60997 13.8376 2.70716 13.988C2.78031 13.998 2.85549 14.0032 2.93247 14.0032H13.0578C14.2895 14.0032 15.0593 12.6699 14.4434 11.6032L9.38078 2.83442ZM7.99512 5.71149C8.37055 5.71149 8.67337 6.01873 8.66792 6.39412L8.61739 9.19442C8.61245 9.53457 8.3353 9.80773 7.99512 9.80773C7.65493 9.80773 7.37779 9.53457 7.37285 9.19442L7.32232 6.39412C7.31687 6.01873 7.61968 5.71149 7.99512 5.71149ZM8.7461 11.2414C8.7461 11.6562 8.40987 11.9924 7.99512 11.9924C7.58037 11.9924 7.24414 11.6562 7.24414 11.2414C7.24414 10.8267 7.58037 10.4904 7.99512 10.4904C8.40987 10.4904 8.7461 10.8267 8.7461 11.2414Z" fill="#161823"/>
</svg>
