<svg width="20" height="20" viewBox="0 0 20 20" fill="none" xmlns="http://www.w3.org/2000/svg">
<path d="M9.17912 13.3335C9.17247 13.7917 9.5421 14.1667 10.0004 14.1667C10.4586 14.1667 10.8283 13.7917 10.8216 13.3335L10.7599 9.08198C10.7539 8.66679 10.4156 8.33336 10.0004 8.33336C9.58513 8.33336 9.24683 8.66679 9.24081 9.08198L9.17912 13.3335Z" fill="#161823"/>
<path d="M10.0004 5.6667C10.5066 5.6667 10.9171 6.0771 10.9171 6.58336C10.9171 7.08962 10.5066 7.50003 10.0004 7.50003C9.49413 7.50003 9.08372 7.08962 9.08372 6.58336C9.08372 6.0771 9.49413 5.6667 10.0004 5.6667Z" fill="#161823"/>
<path d="M10.0003 1.66668C14.6027 1.66668 18.3337 5.39764 18.3337 10C18.3337 14.6024 14.6027 18.3333 10.0003 18.3333C5.39795 18.3333 1.66699 14.6024 1.66699 10C1.66699 5.39764 5.39795 1.66668 10.0003 1.66668ZM10.0003 3.16668C6.22638 3.16668 3.16699 6.22606 3.16699 10C3.16699 13.774 6.22638 16.8333 10.0003 16.8333C13.7743 16.8333 16.8337 13.774 16.8337 10C16.8337 6.22606 13.7743 3.16668 10.0003 3.16668Z" fill="#161823"/>
</svg>
