<svg width="24" height="24" viewBox="0 0 24 24" fill="none" xmlns="http://www.w3.org/2000/svg">
<path d="M6.74609 2.99609C4.67503 2.99609 2.99609 4.67503 2.99609 6.74609V8.24604C2.99609 8.66025 3.33188 8.99604 3.74609 8.99604C4.16031 8.99604 4.49609 8.66025 4.49609 8.24604V6.74609C4.49609 5.50345 5.50345 4.49609 6.74609 4.49609H8.24604C8.66025 4.49609 8.99604 4.16031 8.99604 3.74609C8.99604 3.33188 8.66025 2.99609 8.24604 2.99609H6.74609Z" fill="#161823"/>
<path d="M6.75171 20.998C4.68064 20.998 3.00171 19.3191 3.00171 17.248V15.7513C3.00171 15.337 3.3375 15.0013 3.75171 15.0013C4.16592 15.0013 4.50171 15.337 4.50171 15.7513V17.248C4.50171 18.4907 5.50907 19.498 6.75171 19.498H8.2485C8.66272 19.498 8.9985 19.8338 8.9985 20.248C8.9985 20.6623 8.66272 20.998 8.2485 20.998H6.75171Z" fill="#161823"/>
<path d="M21.0024 6.74756C21.0024 4.67649 19.3235 2.99756 17.2524 2.99756H15.75C15.3358 2.99756 15 3.33334 15 3.74756C15 4.16177 15.3358 4.49756 15.75 4.49756H17.2524C18.4951 4.49756 19.5024 5.50492 19.5024 6.74756V8.24998C19.5024 8.6642 19.8382 8.99998 20.2524 8.99998C20.6667 8.99998 21.0024 8.6642 21.0024 8.24998V6.74756Z" fill="#161823"/>
<path d="M17.2483 20.998C19.3194 20.998 20.9983 19.3191 20.9983 17.248V15.7477C20.9983 15.3335 20.6625 14.9977 20.2483 14.9977C19.8341 14.9977 19.4983 15.3335 19.4983 15.7477V17.248C19.4983 18.4907 18.4909 19.498 17.2483 19.498H15.7479C15.3337 19.498 14.9979 19.8338 14.9979 20.248C14.9979 20.6623 15.3337 20.998 15.7479 20.998H17.2483Z" fill="#161823"/>
<path fill-rule="evenodd" clip-rule="evenodd" d="M6.99167 11.3169C6.99167 8.76258 9.06235 6.69189 11.6167 6.69189C14.171 6.69189 16.2417 8.76258 16.2417 11.3169C16.2417 12.3309 15.9154 13.2686 15.362 14.0309L17.0755 15.7153C17.3709 16.0057 17.3749 16.4806 17.0846 16.7759C16.7942 17.0713 16.3193 17.0754 16.0239 16.785L14.2965 15.0868C13.5404 15.6252 12.6155 15.9419 11.6167 15.9419C9.06235 15.9419 6.99167 13.8712 6.99167 11.3169ZM11.6167 8.19189C9.89078 8.19189 8.49167 9.591 8.49167 11.3169C8.49167 13.0428 9.89078 14.4419 11.6167 14.4419C13.3426 14.4419 14.7417 13.0428 14.7417 11.3169C14.7417 9.591 13.3426 8.19189 11.6167 8.19189Z" fill="#161823"/>
</svg>
