<svg width="20" height="20" viewBox="0 0 20 20" fill="none" xmlns="http://www.w3.org/2000/svg">
<path fill-rule="evenodd" clip-rule="evenodd" d="M0.75 6C0.75 4.48122 1.98122 3.25 3.5 3.25H16.5C18.0188 3.25 19.25 4.48122 19.25 6V14C19.25 15.5188 18.0188 16.75 16.5 16.75H3.5C1.98122 16.75 0.75 15.5188 0.75 14V6ZM3.5 4.75C2.80964 4.75 2.25 5.30964 2.25 6V14C2.25 14.6904 2.80964 15.25 3.5 15.25H16.5C17.1904 15.25 17.75 14.6904 17.75 14V6C17.75 5.30964 17.1904 4.75 16.5 4.75H3.5ZM3.75 7.5C3.75 7.08579 4.08579 6.75 4.5 6.75H8.5C8.91421 6.75 9.25 7.08579 9.25 7.5C9.25 7.91421 8.91421 8.25 8.5 8.25H4.5C4.08579 8.25 3.75 7.91421 3.75 7.5ZM4.5 11.75C4.08579 11.75 3.75 12.0858 3.75 12.5C3.75 12.9142 4.08579 13.25 4.5 13.25H8.5C8.91421 13.25 9.25 12.9142 9.25 12.5C9.25 12.0858 8.91421 11.75 8.5 11.75H4.5ZM3.75 10C3.75 9.58579 4.08579 9.25 4.5 9.25H8.5C8.91421 9.25 9.25 9.58579 9.25 10C9.25 10.4142 8.91421 10.75 8.5 10.75H4.5C4.08579 10.75 3.75 10.4142 3.75 10ZM13.4617 6.66016C12.692 6.66016 12.1267 7.36738 12.1267 8.16201C12.1267 8.95663 12.692 9.66386 13.4617 9.66386C14.2314 9.66386 14.7967 8.95663 14.7967 8.16201C14.7967 7.36738 14.2314 6.66016 13.4617 6.66016ZM11.3593 10.7796C11.9019 10.3942 12.6426 10.1646 13.4617 10.1646C14.2808 10.1646 15.0215 10.3942 15.5641 10.7796C16.1067 11.1649 16.4654 11.7193 16.4654 12.3567V12.4174C16.4654 12.9243 16.0545 13.3352 15.5476 13.3352H11.3758C10.8689 13.3352 10.458 12.9243 10.458 12.4174V12.3567C10.458 11.7193 10.8167 11.1649 11.3593 10.7796Z" fill="#161823"/>
</svg>
