<svg width="16" height="16" viewBox="0 0 16 16" fill="none" xmlns="http://www.w3.org/2000/svg">
<path d="M3.83754 8.01077C2.99768 8.1166 2.22018 8.37511 1.58348 8.76971C0.744509 9.28967 0 10.1598 0 11.3186V11.5735C0 12.5432 0.786155 13.3294 1.75593 13.3294H1.81442C1.71994 13.0139 1.66919 12.6795 1.66919 12.3333V12C1.66919 10.1703 2.71888 8.83172 3.83754 8.01077Z" fill="#161823"/>
<path d="M5.18382 2.62045C5.10615 2.60972 5.02703 2.60419 4.94674 2.60419C3.89667 2.60419 3.04541 3.55003 3.04541 4.71678C3.04541 5.88353 3.89667 6.82937 4.94674 6.82937C5.20818 6.82937 5.45729 6.77074 5.68401 6.66467C5.18543 5.9479 4.90259 5.06796 4.90259 4.16496C4.90259 3.63253 5.00092 3.10812 5.18382 2.62045Z" fill="#161823"/>
<path d="M8.80282 7.83331C7.3563 7.83331 5.98809 8.18479 4.9319 8.83937C3.89371 9.48279 2.96948 10.5615 2.96948 12V12.3333C2.96948 13.5299 3.93954 14.5 5.13615 14.5H9.96554C10.076 14.5 10.1655 14.4104 10.1655 14.3V13.9929C9.53587 14.0391 8.89048 13.8214 8.40901 13.34C7.53033 12.4613 7.53033 11.0367 8.40901 10.158L10.2934 8.27356C10.4056 8.16137 10.3485 7.97066 10.1919 7.94492C9.74277 7.87108 9.277 7.83331 8.80282 7.83331Z" fill="#161823"/>
<path d="M11.2025 4.16496C11.2025 5.63772 10.1279 6.83162 8.80247 6.83162C7.47698 6.83162 6.40247 5.63772 6.40247 4.16496C6.40247 2.6922 7.47698 1.49829 8.80247 1.49829C10.1279 1.49829 11.2025 2.6922 11.2025 4.16496Z" fill="#161823"/>
<path d="M15.3615 12.2793C15.0686 12.5722 14.5937 12.5722 14.3008 12.2793L13.1655 11.144V14.6667C13.1655 15.0809 12.8297 15.4167 12.4155 15.4167C12.0013 15.4167 11.6655 15.0809 11.6655 14.6667V11.1441L10.5303 12.2793C10.2374 12.5722 9.76255 12.5722 9.46965 12.2793C9.17676 11.9864 9.17676 11.5115 9.46965 11.2186L11.8852 8.80304C12.1781 8.51015 12.653 8.51015 12.9459 8.80304L15.3615 11.2186C15.6544 11.5115 15.6544 11.9864 15.3615 12.2793Z" fill="#161823"/>
</svg>
