<svg width="24" height="24" viewBox="0 0 24 24" fill="none" xmlns="http://www.w3.org/2000/svg">
<g filter="url(#filter0_d_21023_3049)">
<path d="M6.53189 3.0083C5.42751 3.0083 4.53223 3.90373 4.53223 5.0083V19.0083C4.53223 20.1129 5.42751 21.0083 6.53189 21.0083H7.99831C9.10269 21.0083 9.99797 20.1129 9.99797 19.0083V5.0083C9.99797 3.90373 9.10269 3.0083 7.99831 3.0083H6.53189Z" fill="white"/>
<path d="M15.997 3.0083C14.8926 3.0083 13.9973 3.90373 13.9973 5.0083V19.0083C13.9973 20.1129 14.8926 21.0083 15.997 21.0083H17.4634C18.5678 21.0083 19.463 20.1129 19.463 19.0083V5.0083C19.463 3.90373 18.5678 3.0083 17.4634 3.0083H15.997Z" fill="white"/>
</g>
<defs>
<filter id="filter0_d_21023_3049" x="2.53223" y="1.5083" width="18.9307" height="22" filterUnits="userSpaceOnUse" color-interpolation-filters="sRGB">
<feFlood flood-opacity="0" result="BackgroundImageFix"/>
<feColorMatrix in="SourceAlpha" type="matrix" values="0 0 0 0 0 0 0 0 0 0 0 0 0 0 0 0 0 0 127 0" result="hardAlpha"/>
<feOffset dy="0.5"/>
<feGaussianBlur stdDeviation="1"/>
<feComposite in2="hardAlpha" operator="out"/>
<feColorMatrix type="matrix" values="0 0 0 0 0 0 0 0 0 0 0 0 0 0 0 0 0 0 0.2 0"/>
<feBlend mode="normal" in2="BackgroundImageFix" result="effect1_dropShadow_21023_3049"/>
<feBlend mode="normal" in="SourceGraphic" in2="effect1_dropShadow_21023_3049" result="shape"/>
</filter>
</defs>
</svg>
