<svg width="20" height="20" viewBox="0 0 20 20" fill="none" xmlns="http://www.w3.org/2000/svg">
<path d="M3.35142 2.5915C2.71543 2.70151 2.21787 3.19907 2.10786 3.83506C1.75768 5.85938 2.28977 7.91439 3.7414 9.36602C5.18764 10.8123 7.23279 11.3458 9.24981 11.0034V16.4833H7.44981C7.0356 16.4833 6.69981 16.8191 6.69981 17.2333C6.69981 17.6475 7.0356 17.9833 7.44981 17.9833H12.5498C12.964 17.9833 13.2998 17.6475 13.2998 17.2333C13.2998 16.8191 12.964 16.4833 12.5498 16.4833H10.7498V13.5837C12.7698 13.9293 14.819 13.3963 16.2675 11.9479C17.7191 10.4962 18.2512 8.44124 17.901 6.41692C17.791 5.78093 17.2934 5.28337 16.6575 5.17335C14.6331 4.82318 12.5781 5.35526 11.1265 6.8069C10.9089 7.0245 10.712 7.25567 10.5356 7.49826C10.3375 6.27473 9.78943 5.1321 8.88238 4.22504C7.43074 2.77341 5.37574 2.24133 3.35142 2.5915ZM3.5859 4.09074C3.58782 4.07964 3.596 4.07147 3.60709 4.06955C5.21698 3.79107 6.75978 4.22377 7.82172 5.2857C8.88365 6.34763 9.31635 7.89044 9.03787 9.50033C9.03595 9.51142 9.02778 9.51959 9.01668 9.52151C7.40679 9.8 5.86399 9.36729 4.80206 8.30536C3.74013 7.24343 3.30742 5.70062 3.5859 4.09074ZM12.1872 7.86756C13.2491 6.80563 14.7919 6.37292 16.4018 6.6514C16.4129 6.65332 16.4211 6.6615 16.423 6.67259C16.7015 8.28248 16.2687 9.82528 15.2068 10.8872C14.1449 11.9491 12.6021 12.3819 10.9922 12.1034C10.9811 12.1015 10.9729 12.0933 10.971 12.0822C10.6925 10.4723 11.1252 8.92949 12.1872 7.86756Z" fill="#161823"/>
</svg>
