<svg width="24" height="24" viewBox="0 0 24 24" fill="none" xmlns="http://www.w3.org/2000/svg">
<path d="M16.0342 3.03535C16.6395 2.43004 17.6209 2.43004 18.2262 3.03535L20.0647 4.87383C20.67 5.47914 20.67 6.46055 20.0647 7.06586L9.5951 17.5354C9.35672 17.7738 9.05456 17.9383 8.72495 18.009L5.48006 18.7055C4.80033 18.8514 4.19924 18.2418 4.35475 17.5642L5.09095 14.3563C5.16447 14.036 5.32674 13.7428 5.55917 13.5103L16.0342 3.03535ZM17.1655 4.09601C17.146 4.07649 17.1143 4.07649 17.0948 4.09601L6.61983 14.571C6.58663 14.6042 6.56344 14.6461 6.55294 14.6919L6.01 17.0576L8.41014 16.5424C8.45722 16.5323 8.50039 16.5088 8.53444 16.4748L19.004 6.0052C19.0235 5.98567 19.0235 5.95402 19.004 5.93449L17.1655 4.09601Z" fill="#161823"/>
<path d="M3 21.2749C3 20.8607 3.33579 20.5249 3.75 20.5249H20.25C20.6642 20.5249 21 20.8607 21 21.2749C21 21.6891 20.6642 22.0249 20.25 22.0249H3.75C3.33579 22.0249 3 21.6891 3 21.2749Z" fill="#161823"/>
</svg>
