<svg width="20" height="20" viewBox="0 0 20 20" fill="none" xmlns="http://www.w3.org/2000/svg">
<g clip-path="url(#clip0_2_2705)">
<path d="M13.3334 5.33138C13.3334 7.35535 11.841 8.9961 10 8.9961C8.15907 8.9961 6.66669 7.35535 6.66669 5.33138C6.66669 3.30741 8.15907 1.66666 10 1.66666C11.841 1.66666 13.3334 3.30741 13.3334 5.33138Z" fill="#161823"/>
<path d="M4.81775 11.7235C6.20909 10.9359 8.03747 10.5 10 10.5C10.5332 10.5 11.0565 10.5322 11.5638 10.5948C11.7496 10.6178 11.8022 10.8729 11.6596 10.9942C11.0043 11.5516 10.604 12.3699 10.604 13.2498V16.1328C10.604 16.8014 10.8302 17.4379 11.2286 17.9485C11.3415 18.0932 11.2457 18.33 11.0622 18.33H4.58333C3.29467 18.33 2.25 17.2853 2.25 15.9967V15.5127C2.25 13.7727 3.46558 12.4888 4.81775 11.7235Z" fill="#161823"/>
<path d="M17.2481 14.6874C17.2481 15.3501 16.7108 15.8874 16.0481 15.8874C15.3854 15.8874 14.8481 15.3501 14.8481 14.6874C14.8481 14.0246 15.3854 13.4874 16.0481 13.4874C16.7108 13.4874 17.2481 14.0246 17.2481 14.6874Z" fill="#161823"/>
<path d="M15.177 10.6254C15.7185 10.3128 16.3856 10.3128 16.927 10.6254L19.1357 11.9006C19.6772 12.2132 20.0107 12.7909 20.0107 13.4161V15.9664C20.0107 16.5917 19.6772 17.1694 19.1357 17.482L16.927 18.7572C16.3856 19.0698 15.7185 19.0698 15.177 18.7572L12.9684 17.482C12.4269 17.1694 12.0934 16.5917 12.0934 15.9664V13.4161C12.0934 12.7909 12.4269 12.2132 12.9684 11.9006L15.177 10.6254ZM16.177 11.9244C16.0997 11.8798 16.0044 11.8798 15.927 11.9244L13.7184 13.1996C13.641 13.2443 13.5934 13.3268 13.5934 13.4161V15.9664C13.5934 16.0558 13.641 16.1383 13.7184 16.1829L15.927 17.4581C16.0044 17.5028 16.0997 17.5028 16.177 17.4581L18.3857 16.1829C18.4631 16.1383 18.5107 16.0558 18.5107 15.9664V13.4161C18.5107 13.3268 18.4631 13.2443 18.3857 13.1996L16.177 11.9244Z" fill="#161823"/>
</g>
<defs>
<clipPath id="clip0_2_2705">
<rect width="20" height="20" fill="white"/>
</clipPath>
</defs>
</svg>
