<svg width="24" height="24" viewBox="0 0 24 24" fill="none" xmlns="http://www.w3.org/2000/svg">
<path d="M21.9015 4.06576C21.9734 3.65785 21.7011 3.26882 21.2932 3.19684C20.8853 3.12486 20.4962 3.39719 20.4243 3.8051L17.9899 17.6004C17.7987 18.6846 16.715 19.5946 15.6385 19.5946H5.34851C4.37773 19.5946 3.74531 18.8483 3.9192 17.8615L5.57079 8.52792C5.76228 7.44329 6.84589 6.53314 7.92256 6.53314H10.7343C11.1485 6.53314 11.4843 6.19735 11.4843 5.78314C11.4843 5.36892 11.1485 5.03313 10.7343 5.03313H7.92256C6.10748 5.03313 4.41002 6.47589 4.09373 8.26655L2.44214 17.6001C2.10909 19.488 3.42711 21.0946 5.34851 21.0946H15.6385C17.4533 21.0946 19.1512 19.6518 19.4671 17.8611L21.9015 4.06576Z" fill="#161823"/>
<path d="M15.4171 7.12226C15.8248 7.19541 16.096 7.58522 16.0228 7.99292L14.6214 15.804C14.5483 16.2117 14.1585 16.4829 13.7508 16.4098C13.3431 16.3366 13.0719 15.9468 13.145 15.5391L14.5464 7.72804C14.6195 7.32033 15.0094 7.04912 15.4171 7.12226Z" fill="#161823"/>
<path d="M10.1025 9.49893C10.5101 9.57268 10.7807 9.96289 10.707 10.3705L9.71377 15.8594C9.64002 16.267 9.24981 16.5376 8.84221 16.4638C8.43462 16.3901 8.16398 15.9999 8.23773 15.5923L9.23092 10.1034C9.30467 9.69581 9.69488 9.42517 10.1025 9.49893Z" fill="#161823"/>
</svg>
