<svg width="24" height="24" viewBox="0 0 24 24" fill="none" xmlns="http://www.w3.org/2000/svg">
<path d="M19.186 7.50244C18.7809 7.50244 18.393 7.33869 18.1105 7.04843L16.5851 5.48098C16.4117 5.30273 16.2275 5.1373 16.0341 4.98532C15.2309 4.18709 14.1484 3.73755 13.0184 3.73755C11.5783 3.73755 10.1974 3.86174 9.11041 4.94845L6.26629 7.79178C5.62996 8.42793 5.62996 9.45933 6.26629 10.0955C6.90261 10.7316 7.93431 10.7316 8.57063 10.0955L9.62779 9.03861L11.4923 7.1982C12.4677 6.22308 14.0875 6.36553 14.8776 7.49592C16.4953 9.81023 18.093 12.1371 19.6313 14.5053C20.6092 16.0107 20.1812 18.0235 18.6755 19.0011C17.9433 19.4764 17.0946 19.6921 16.2262 19.5332C15.9541 19.9538 15.5905 20.2824 15.173 20.5535C14.4225 21.0407 13.5458 21.1783 12.7355 21.0086C12.5706 21.1828 12.3829 21.3402 12.1736 21.4761C10.7467 22.4025 8.83873 21.997 7.91207 20.5705C7.15989 19.4126 6.40897 18.2538 5.64692 17.1024C5.60061 17.0324 5.52228 16.9903 5.43836 16.9903H1.75049C0.783718 16.9903 0 16.2068 0 15.2403V7.75424C0 6.78774 0.783721 6.00424 1.75049 6.00424H3.25079C3.41768 6.00424 3.51376 6.19866 3.42242 6.3383C3.20995 6.66315 3.04121 7.00822 2.9162 7.36518C2.88736 7.44753 2.81056 7.50424 2.72328 7.50424H1.75049C1.61238 7.50424 1.50042 7.61616 1.50042 7.75424V15.2403C1.50042 15.3784 1.61238 15.4903 1.75049 15.4903H5.43836C6.0258 15.4903 6.57408 15.7849 6.89823 16.2747C7.66273 17.4298 8.41585 18.5919 9.17043 19.7536C9.64576 20.4853 10.6245 20.6933 11.3564 20.2181C11.5539 20.0899 11.7118 19.9266 11.8291 19.7422L12.1643 19.2149L12.7436 19.4493C13.2576 19.6573 13.8581 19.6186 14.3559 19.2955C14.7063 19.068 14.9885 18.7774 15.1369 18.3788L15.4096 17.6461L16.1306 17.949C16.7208 18.197 17.3355 18.0824 17.8583 17.7431C18.6691 17.2167 18.8995 16.1328 18.373 15.3223C16.8979 13.0514 15.4017 10.8148 13.9082 8.5523C13.5962 8.07959 12.9664 7.96946 12.5167 8.27182L9.63159 11.1561C8.40931 12.3781 6.42761 12.3781 5.20533 11.1561C3.98305 9.9342 3.98305 7.95305 5.20533 6.73112L8.04945 3.88779C9.15224 2.78531 11.0905 2.29236 12.5852 2.29236C14.4969 2.29236 16.3274 3.06513 17.6606 4.43499L19.186 6.00244H22.9998C23.5522 6.00244 24 6.45015 24 7.00244V16.0071C24 16.5594 23.5522 17.0071 22.9998 17.0071H21.8337C21.7109 17.0071 21.6174 16.8975 21.6304 16.7755C21.6669 16.4329 21.6664 16.0857 21.6275 15.7402C21.6137 15.6177 21.7073 15.5071 21.8307 15.5071H22.4996V7.50244H19.186Z" fill="#161823"/>
</svg>
