<svg width="20" height="20" viewBox="0 0 20 20" fill="none" xmlns="http://www.w3.org/2000/svg">
<path d="M8.15949 5.35088C7.1425 6.36787 7.1425 8.01673 8.15949 9.03372C8.3675 9.24174 8.60238 9.40746 8.85313 9.53057L8.8531 14.017C8.8531 14.1 8.8861 14.1796 8.94484 14.2382L9.7798 15.0715C9.90188 15.1934 10.0996 15.1933 10.2215 15.0713L11.0455 14.2473C11.1028 14.19 11.1356 14.1127 11.137 14.0317L11.1441 13.6168L11.9173 12.8436C12.0394 12.7216 12.0394 12.5237 11.9173 12.4017L11.2544 11.7387L11.8581 11.135C11.9802 11.013 11.9802 10.8151 11.8581 10.6931L11.125 9.95995L11.1339 9.53778C11.3902 9.41396 11.6302 9.24583 11.8423 9.03372C12.8593 8.01674 12.8593 6.36787 11.8423 5.35088C10.8254 4.33389 9.17648 4.33389 8.15949 5.35088ZM10.7068 6.48555C11.0973 6.87605 11.0974 7.50916 10.7069 7.89963C10.3164 8.2901 9.68333 8.29006 9.29282 7.89955C8.90231 7.50904 8.90228 6.87594 9.29274 6.48547C9.68321 6.095 10.3163 6.09504 10.7068 6.48555Z" fill="#161823"/>
<path d="M10.2092 0.945468C10.0749 0.907193 9.93254 0.907175 9.79822 0.945416L2.29462 3.08183C1.97232 3.1736 1.75 3.46805 1.75 3.80316V8.1824C1.75 13.1234 4.99047 17.4937 9.7693 19.0467C9.91997 19.0957 10.0823 19.0957 10.233 19.0467C15.0105 17.4936 18.25 13.1243 18.25 8.18442V3.80316C18.25 3.46812 18.0278 3.17371 17.7056 3.08188L10.2092 0.945468ZM3.25 8.1824V4.36943L10.0035 2.44658L16.75 4.36928V8.18442C16.75 12.3752 14.0513 16.1199 10.0011 17.5418C5.94961 16.1199 3.25 12.3742 3.25 8.1824Z" fill="#161823"/>
</svg>
