<svg width="24" height="24" viewBox="0 0 24 24" fill="none" xmlns="http://www.w3.org/2000/svg">
<path d="M13.6767 9.80144C13.8489 10.4205 14.0073 10.99 13.7917 12.091C13.7628 12.2389 13.7345 12.3732 13.7068 12.4956L20.4363 14.4166C20.4847 14.1916 20.5451 13.9726 20.6506 13.7121C20.7716 13.4135 20.9739 13.1004 21.2106 12.7345C21.2743 12.6359 21.3405 12.5334 21.4083 12.4264C21.8829 11.677 22.4341 10.7023 22.7457 9.2432C23.3623 6.3557 21.8566 1.57295 18.8906 1.04778C15.9246 0.522608 13.7026 4.27667 13.4401 7.59554C13.3567 8.65059 13.5223 9.24598 13.6767 9.80144Z" fill="#161823"/>
<path d="M13.1137 14.1286C13.1473 14.0527 13.1806 13.9832 13.2139 13.9148L20.1197 15.8862C20.0253 16.2292 19.8954 16.6412 19.7067 17.1548C18.9356 19.2547 17.1509 20.3296 14.9799 19.6495C12.809 18.9694 12.499 16.5558 12.7159 15.4897C12.8611 14.7759 12.9894 14.4091 13.1137 14.1286Z" fill="#161823"/>
<path d="M10.3917 12.9561C10.4088 12.8783 10.4268 12.8009 10.4451 12.7226C10.5758 12.1611 10.716 11.5592 10.5879 10.5087C10.185 7.20393 7.81219 3.69564 4.87109 4.34607C1.92998 4.99651 0.622099 9.69057 1.36057 12.5493C1.78704 14.2003 2.49938 15.2059 3.04234 15.9724L3.08914 16.0385C3.32088 16.366 3.51807 16.6505 3.64324 16.9254C3.7596 17.181 3.82918 17.3972 3.88707 17.6198L10.5294 15.4164C10.4965 15.2951 10.4625 15.1619 10.4272 15.015C10.1979 14.0605 10.2719 13.5004 10.3917 12.9561Z" fill="#161823"/>
<path d="M11.0823 16.8134L4.2657 19.0745C4.37451 19.4134 4.52187 19.8196 4.73218 20.325C5.59165 22.3903 7.42035 23.3886 9.56051 22.6171C11.7007 21.8456 11.908 19.421 11.6462 18.365C11.4236 17.4676 11.2521 17.1278 11.0823 16.8134Z" fill="#161823"/>
</svg>
