<svg width="24" height="24" viewBox="0 0 24 24" fill="none" xmlns="http://www.w3.org/2000/svg">
<path d="M5.17077 8.68839C5.2727 8.61559 5.28647 8.46841 5.1979 8.37984L4.05371 7.23564C3.98422 7.16615 3.87444 7.15732 3.79557 7.21596C3.25942 7.61462 2.75184 8.05271 2.27727 8.52728C1.88674 8.91781 1.88674 9.55097 2.27727 9.9415C2.66779 10.332 3.30096 10.332 3.69148 9.9415C4.1503 9.48268 4.64523 9.06375 5.17077 8.68839Z" fill="#161823"/>
<path d="M6.92535 10.1073C6.85937 10.0413 6.75641 10.0295 6.67822 10.0805C6.11257 10.4489 5.58535 10.8761 5.1057 11.3557C4.71517 11.7462 4.71517 12.3794 5.1057 12.7699C5.49622 13.1604 6.12939 13.1604 6.51991 12.7699C6.97695 12.3129 7.48831 11.9159 8.0415 11.5872C8.15612 11.5191 8.17877 11.3607 8.08449 11.2664L6.92535 10.1073Z" fill="#161823"/>
<path d="M9.86375 13.0457C9.80625 12.9882 9.71953 12.9709 9.64534 13.0042C9.00842 13.2901 8.42845 13.6898 7.93413 14.1841C7.5436 14.5747 7.5436 15.2078 7.93413 15.5983C8.32465 15.9889 8.95782 15.9889 9.34834 15.5983C9.69656 15.2501 10.11 14.9739 10.5649 14.7855C10.705 14.7274 10.8482 14.6781 10.9936 14.6376C11.15 14.594 11.2123 14.3942 11.0975 14.2794L9.86375 13.0457Z" fill="#161823"/>
<path d="M18.4747 19.5353C18.7679 19.8232 19.2391 19.8216 19.5303 19.5303C19.8232 19.2374 19.8232 18.7626 19.5303 18.4697L16.2974 15.2368C16.4277 14.8822 16.3505 14.4688 16.0659 14.1841C15.5319 13.6502 14.898 13.2267 14.2004 12.9377C14.0931 12.8932 13.9845 12.8521 13.8749 12.8143L11.5725 10.5118C11.7147 10.5039 11.8572 10.5 12 10.5C13.0177 10.5 14.0255 10.7005 14.9658 11.0899C15.9061 11.4794 16.7604 12.0503 17.4801 12.7699C17.8706 13.1604 18.5038 13.1604 18.8943 12.7699C19.2848 12.3794 19.2848 11.7462 18.8943 11.3557C17.9889 10.4503 16.9141 9.73216 15.7312 9.24218C14.5482 8.75219 13.2804 8.5 12 8.5C11.2611 8.5 10.5264 8.58398 9.80983 8.74917L8.19411 7.13344C9.41756 6.71458 10.7034 6.5 12 6.5C13.543 6.5 15.0709 6.80392 16.4965 7.39442C17.9221 7.98491 19.2174 8.85041 20.3085 9.9415C20.699 10.332 21.3322 10.332 21.7227 9.9415C22.1132 9.55097 22.1132 8.91781 21.7227 8.52728C20.4459 7.25048 18.9301 6.23766 17.2619 5.54666C15.5937 4.85565 13.8057 4.5 12 4.5C10.1943 4.5 8.40632 4.85565 6.73809 5.54666C6.70731 5.55941 6.67658 5.57227 6.6459 5.58524L4.53033 3.46967C4.23744 3.17678 3.76256 3.17678 3.46967 3.46967C3.17838 3.76096 3.17679 4.23224 3.46488 4.5255L18.4747 19.5353Z" fill="#161823"/>
<path d="M12 20C12.9665 20 13.75 19.2165 13.75 18.25C13.75 17.2835 12.9665 16.5 12 16.5C11.0335 16.5 10.25 17.2835 10.25 18.25C10.25 19.2165 11.0335 20 12 20Z" fill="#161823"/>
</svg>
