<svg width="16" height="16" viewBox="0 0 16 16" fill="none" xmlns="http://www.w3.org/2000/svg">
<path d="M1.56744 3.40334C1.20756 3.68325 0.99707 4.11362 0.99707 4.56953V13.0362C0.99707 13.4644 1.46103 13.7317 1.83148 13.5169C3.45183 12.5774 5.25116 12.2058 6.98523 13.1651C7.16344 13.2636 7.39491 13.141 7.39491 12.9374V3.52364C7.39491 3.43587 7.34926 3.35441 7.27438 3.3086C5.47943 2.21046 3.30489 2.05199 1.56744 3.40334Z" fill="#161823"/>
<path d="M8.77439 3.30856C8.70038 3.35456 8.65538 3.43552 8.65538 3.52266V12.9251C8.65538 13.1268 8.88272 13.2495 9.06055 13.1543C10.7762 12.2352 12.5736 12.5754 14.1723 13.5136C14.5396 13.7292 15.0023 13.4643 15.0023 13.0383V4.56505C15.0023 4.11196 14.7931 3.68425 14.4354 3.40609C12.7204 2.07214 10.5466 2.20696 8.77439 3.30856Z" fill="#161823"/>
</svg>
