<svg width="20" height="20" viewBox="0 0 20 20" fill="none" xmlns="http://www.w3.org/2000/svg">
<path d="M17.3392 14.5975C17.3885 15.4853 17.012 16.2938 16.3917 16.8307L17.114 17.553C17.4069 17.8459 17.4069 18.3208 17.114 18.6137C16.8211 18.9066 16.3462 18.9066 16.0533 18.6137L15.9237 18.4841C15.9098 18.4676 15.8951 18.4515 15.8796 18.436L1.84255 4.39895C1.59459 4.10429 1.6093 3.66372 1.88666 3.38636C2.17956 3.09346 2.65443 3.09346 2.94732 3.38636L3.5112 3.95023C3.97637 3.08398 4.89069 2.5 5.93521 2.5H14.0656C15.5251 2.5 16.7304 3.64019 16.8114 5.09746L17.3392 14.5975ZM5.93521 4C5.2888 4 4.75211 4.49203 4.69097 5.13L6.81651 7.25555C6.77314 7.0438 6.75037 6.82455 6.75037 6.59998V6.49581C6.75037 6.0816 7.08615 5.74581 7.50037 5.74581C7.91458 5.74581 8.25037 6.0816 8.25037 6.49581V6.59998C8.25037 7.56647 9.03387 8.34998 10.0004 8.34998C10.9669 8.34998 11.7504 7.56647 11.7504 6.59998V6.49581C11.7504 6.0816 12.0862 5.74581 12.5004 5.74581C12.9146 5.74581 13.2504 6.0816 13.2504 6.49581V6.59998C13.2504 8.3949 11.7953 9.84998 10.0004 9.84998C9.77579 9.84998 9.55654 9.8272 9.34479 9.78383L15.3248 15.7638C15.6574 15.5234 15.8661 15.1238 15.8415 14.6807L15.3137 5.18066C15.2769 4.51827 14.729 4 14.0656 4H5.93521Z" fill="#161823"/>
<path d="M3.04367 7.7214L2.66167 14.5975C2.5741 16.1738 3.8287 17.5 5.40744 17.5H12.8223L11.3223 16H5.40744C4.68983 16 4.11955 15.3972 4.15936 14.6807L4.46692 9.14464L3.04367 7.7214Z" fill="#161823"/>
</svg>
