<svg width="12" height="12" viewBox="0 0 12 12" fill="none" xmlns="http://www.w3.org/2000/svg">
<path d="M10.0659 3.06568C10.3783 2.75326 10.3783 2.24673 10.0659 1.93431C9.75346 1.62189 9.24693 1.62189 8.93451 1.93431L6.0002 4.86863L3.06588 1.93431C2.75346 1.62189 2.24693 1.62189 1.93451 1.93431C1.62209 2.24673 1.62209 2.75326 1.93451 3.06568L4.86882 6L1.93451 8.93431C1.62209 9.24673 1.62209 9.75326 1.93451 10.0657C2.24693 10.3781 2.75346 10.3781 3.06588 10.0657L6.0002 7.13137L8.93451 10.0657C9.24693 10.3781 9.75346 10.3781 10.0659 10.0657C10.3783 9.75326 10.3783 9.24673 10.0659 8.93431L7.13157 6L10.0659 3.06568Z" fill="#161823"/>
</svg>
