<svg width="24" height="24" viewBox="0 0 24 24" fill="none" xmlns="http://www.w3.org/2000/svg">
<path d="M13.2131 1.96431C13.2131 1.56522 12.7422 1.35273 12.443 1.61679L9.48534 4.22645C9.20654 4.47245 9.20654 4.90718 9.48534 5.15319L12.443 7.76285C12.7422 8.0269 13.2131 7.81443 13.2131 7.41532V5.58315C14.4735 5.78382 15.6711 6.29551 16.6938 7.08017C18.04 8.11315 19.0079 9.56148 19.4471 11.2006C19.8864 12.8396 19.7726 14.5778 19.1233 16.1456C18.4741 17.7134 17.3257 19.0232 15.8562 19.8718C14.3867 20.7204 12.6783 21.0604 10.9959 20.8392C9.31343 20.6179 7.75103 19.8477 6.55094 18.648C5.35085 17.4483 4.58015 15.8861 4.35835 14.2037C4.13655 12.5214 4.47605 10.8129 5.3242 9.34311C5.54433 8.96164 5.41354 8.47395 5.03208 8.25381C4.65061 8.03368 4.16291 8.16446 3.94278 8.54593C2.91915 10.3198 2.50941 12.3818 2.7771 14.4122C3.04479 16.4426 3.97495 18.328 5.42333 19.7759C6.87171 21.2239 8.75737 22.1534 10.7879 22.4205C12.8184 22.6875 14.8803 22.2772 16.6538 21.253C18.4273 20.2288 19.8133 18.648 20.5969 16.7559C21.3805 14.8637 21.5179 12.7659 20.9877 10.7877C20.4575 8.80949 19.2895 7.0615 17.6647 5.8148C16.3628 4.8159 14.826 4.18354 13.2131 3.97162V1.96431Z" fill="#161823"/>
<path d="M8.92994 16.5461C8.92994 17.0186 9.18434 17.2989 9.62046 17.2989C10.0618 17.2989 10.3162 17.0237 10.3162 16.5461V10.9752C10.3162 10.4509 9.97869 10.103 9.47509 10.103C9.18434 10.103 8.88841 10.2069 8.5146 10.4613L7.58526 11.1102C7.32047 11.2868 7.18548 11.4789 7.18548 11.6969C7.18548 11.9825 7.39835 12.1953 7.6839 12.1953C7.83446 12.1953 7.96426 12.1486 8.18751 12.0032L8.89879 11.4996H8.92994V16.5461Z" fill="#161823"/>
<path d="M11.4976 15.7985C11.4976 16.5928 12.4945 17.3872 13.9014 17.3872C15.5109 17.3872 16.596 16.3748 16.596 14.8639C16.596 13.4933 15.6667 12.5588 14.3168 12.5588C13.7093 12.5588 13.133 12.7872 12.889 13.1195H12.8163L12.9617 11.2868H15.6459C16.0664 11.2868 16.3053 11.0843 16.3053 10.7208C16.3053 10.3574 16.0612 10.1446 15.6459 10.1446H12.7073C12.1362 10.1446 11.8403 10.3834 11.8039 10.8766L11.6118 13.5452C11.5807 14.0229 11.8714 14.3292 12.2972 14.3292C12.4893 14.3292 12.6398 14.2669 12.9461 14.0073C13.2525 13.7685 13.6055 13.6387 13.9534 13.6387C14.701 13.6387 15.2357 14.1578 15.2357 14.9159C15.2357 15.6998 14.6802 16.245 13.8963 16.245C13.3667 16.245 12.9513 16.001 12.6242 15.5129C12.4529 15.2689 12.2868 15.1754 12.0687 15.1754C11.7209 15.1754 11.4976 15.4506 11.4976 15.7985Z" fill="#161823"/>
</svg>
