<svg width="24" height="24" viewBox="0 0 24 24" fill="none" xmlns="http://www.w3.org/2000/svg">
<path d="M13.2131 1.96437C13.2131 1.56528 12.7422 1.35279 12.443 1.61685L9.48534 4.22651C9.20654 4.47251 9.20654 4.90724 9.48534 5.15325L12.443 7.76291C12.7422 8.02696 13.2131 7.81449 13.2131 7.41538V5.58321C14.4735 5.78388 15.6711 6.29557 16.6938 7.08023C18.04 8.11321 19.0079 9.56154 19.4471 11.2006C19.8864 12.8397 19.7726 14.5779 19.1233 16.1457C18.4741 17.7135 17.3257 19.0233 15.8562 19.8719C14.3867 20.7205 12.6783 21.0605 10.9959 20.8392C9.31343 20.618 7.75103 19.8477 6.55094 18.648C5.35085 17.4483 4.58015 15.8862 4.35835 14.2038C4.13655 12.5215 4.47605 10.8129 5.3242 9.34317C5.54433 8.9617 5.41354 8.47401 5.03208 8.25387C4.65061 8.03374 4.16291 8.16453 3.94278 8.54599C2.91915 10.3198 2.50941 12.3818 2.7771 14.4123C3.04479 16.4427 3.97495 18.3281 5.42333 19.776C6.87171 21.2239 8.75737 22.1535 10.7879 22.4206C12.8184 22.6876 14.8803 22.2772 16.6538 21.253C18.4273 20.2288 19.8133 18.6481 20.5969 16.7559C21.3805 14.8638 21.5179 12.7659 20.9877 10.7877C20.4575 8.80955 19.2895 7.06156 17.6647 5.81486C16.3628 4.81596 14.826 4.1836 13.2131 3.97168V1.96437Z" fill="#161823"/>
<path d="M9.49762 15.7985C9.49762 16.5929 10.4945 17.3872 11.9014 17.3872C13.5109 17.3872 14.596 16.3748 14.596 14.864C14.596 13.4934 13.6667 12.5588 12.3168 12.5588C11.7093 12.5588 11.1331 12.7873 10.889 13.1195H10.8163L10.9617 11.2868H13.6459C14.0664 11.2868 14.3053 11.0843 14.3053 10.7209C14.3053 10.3575 14.0613 10.1446 13.6459 10.1446H10.7073C10.1362 10.1446 9.84028 10.3834 9.80394 10.8767L9.61184 13.5453C9.58069 14.0229 9.87143 14.3292 10.2972 14.3292C10.4893 14.3292 10.6398 14.2669 10.9461 14.0073C11.2525 13.7685 11.6055 13.6387 11.9534 13.6387C12.701 13.6387 13.2357 14.1579 13.2357 14.9159C13.2357 15.6999 12.6802 16.245 11.8963 16.245C11.3667 16.245 10.9513 16.001 10.6243 15.513C10.4529 15.269 10.2868 15.1755 10.0687 15.1755C9.72087 15.1755 9.49762 15.4507 9.49762 15.7985Z" fill="#161823"/>
</svg>
