<svg width="20" height="20" viewBox="0 0 20 20" fill="none" xmlns="http://www.w3.org/2000/svg">
<path d="M7.06655 13.4159C8.20133 14.5507 9.43071 15.542 10.655 16.2526C11.8733 16.9596 13.1229 17.4098 14.2879 17.4098C15.3677 17.4098 16.31 17.0211 17.066 16.1941L17.0676 16.1924C17.5136 15.7001 17.8328 15.0887 17.834 14.4425C17.8402 13.93 17.625 13.4178 17.1452 13.0689L14.9129 11.4847C14.5401 11.2155 14.1493 11.0364 13.7372 11.0419C13.193 11.037 12.7703 11.361 12.4293 11.702L11.957 12.1743L11.9491 12.17C11.5609 11.9279 10.8104 11.328 9.98245 10.5C9.139 9.65658 8.54279 8.93535 8.32695 8.54487C8.32498 8.54113 8.32289 8.5369 8.32081 8.53234L8.78904 8.05484L8.79116 8.05267C9.12471 7.70835 9.44571 7.28618 9.44571 6.74934C9.44571 6.3366 9.2706 5.94732 8.99772 5.56947L7.43737 3.37267C7.07757 2.866 6.55033 2.66051 6.02427 2.65368L6.02315 2.65366C5.38072 2.64675 4.76301 2.95473 4.27073 3.42328L4.26984 3.42413C3.45102 4.20735 3.10352 5.18085 3.10352 6.22539C3.10352 7.38891 3.54484 8.6302 4.24477 9.84196C4.94784 11.0591 5.93174 12.2811 7.06655 13.4159Z" fill="#161823"/>
<path d="M12.3754 2.50488C11.9612 2.50488 11.6254 2.84067 11.6254 3.25488C11.6254 3.6691 11.9612 4.00488 12.3754 4.00488H14.9361L11.2551 7.68586C10.9622 7.97875 10.9622 8.45362 11.2551 8.74652C11.548 9.03941 12.0229 9.03941 12.3158 8.74652L15.9993 5.06306V7.62988C15.9993 8.0441 16.335 8.37988 16.7493 8.37988C17.1635 8.37988 17.4993 8.0441 17.4993 7.62988V3.25488C17.4993 2.84067 17.1635 2.50488 16.7493 2.50488H12.3754Z" fill="#161823"/>
</svg>
