<svg width="20" height="20" viewBox="0 0 20 20" fill="none" xmlns="http://www.w3.org/2000/svg">
<path d="M8.22246 6.97566C8.22246 6.42002 8.39882 5.98229 8.69637 5.68487C8.99173 5.38964 9.47191 5.16743 10.2063 5.16743C10.9475 5.16743 11.4658 5.38618 11.792 5.68684C12.1149 5.98446 12.3038 6.41112 12.3038 6.94317C12.3038 7.30215 12.5948 7.59317 12.9538 7.59317C13.3127 7.59317 13.6038 7.30215 13.6038 6.94317C13.6038 6.08482 13.2889 5.29862 12.6731 4.73096C12.0605 4.16636 11.2051 3.86743 10.2063 3.86743C9.20059 3.86743 8.36386 4.17915 7.77733 4.76543C7.19298 5.34953 6.92246 6.14091 6.92246 6.97566L6.92244 8.17346C6.92243 8.98172 7.57766 9.63686 8.38585 9.63686H10.3567C10.8667 9.63686 11.1201 10.2552 10.7568 10.6131L9.7501 11.6049C9.49437 11.8568 9.49129 12.2684 9.74322 12.5241C9.99516 12.7798 10.4067 12.7829 10.6624 12.531L11.6692 11.5392C12.8609 10.3652 12.0296 8.33686 10.3567 8.33686H8.38585C8.29557 8.33686 8.22244 8.2637 8.22244 8.17349L8.22246 6.97566Z" fill="#161823"/>
<path d="M10.0821 1.33325C6.90702 1.33325 4.25195 3.6811 4.25195 6.94338V15.1003C4.25195 16.7845 5.56837 18.6397 7.60262 18.6397C8.49674 18.6397 9.19723 18.4848 9.76474 18.1597C10.3358 17.8326 10.695 17.3767 10.9756 16.9253C11.129 16.6785 11.2597 16.4396 11.3875 16.206C11.7438 15.5547 12.0773 14.945 12.8162 14.3241C13.9931 13.3352 14.866 12.3312 15.4363 11.1467C16.0078 9.95985 16.2488 8.64775 16.2488 7.08325C16.2488 3.92531 13.746 1.33325 10.0821 1.33325ZM5.75195 6.94338C5.75195 4.59537 7.64692 2.83325 10.0821 2.83325C12.9705 2.83325 14.7488 4.80565 14.7488 7.08325C14.7488 8.48996 14.533 9.56525 14.0848 10.4959C13.6356 11.429 12.9258 12.2728 11.8512 13.1757C10.8738 13.997 10.3612 14.9402 9.98716 15.6287C9.88373 15.819 9.79089 15.9899 9.70173 16.1333C9.48601 16.4803 9.28709 16.7047 9.01915 16.8581C8.74768 17.0137 8.32831 17.1397 7.60262 17.1397C6.58207 17.1397 5.75195 16.1544 5.75195 15.1003V6.94338Z" fill="#161823"/>
</svg>
