<svg width="16" height="16" viewBox="0 0 16 16" fill="none" xmlns="http://www.w3.org/2000/svg">
<path d="M4.61908 1.11797C4.4534 0.830996 4.08644 0.732671 3.79947 0.898356C2.8824 1.42782 2.0737 2.12588 1.41594 2.95576C1.21011 3.21546 1.25377 3.59284 1.51347 3.79867C1.77316 4.0045 2.15054 3.96083 2.35637 3.70114C2.92018 2.98979 3.61339 2.39143 4.39947 1.93759C4.68644 1.7719 4.78477 1.40495 4.61908 1.11797Z" fill="#161823"/>
<path d="M12.2012 0.898356C11.9143 0.732671 11.5473 0.830996 11.3816 1.11797C11.2159 1.40495 11.3143 1.7719 11.6012 1.93759C12.3873 2.39143 13.0805 2.98979 13.6443 3.70114C13.8502 3.96083 14.2275 4.0045 14.4872 3.79867C14.7469 3.59284 14.7906 3.21546 14.5848 2.95576C13.927 2.12588 13.1183 1.42782 12.2012 0.898356Z" fill="#161823"/>
<path d="M8.60034 5.17972C8.60034 4.84835 8.33171 4.57972 8.00034 4.57972C7.66897 4.57972 7.40034 4.84835 7.40034 5.17972V8.17452C7.40034 8.33365 7.46356 8.48626 7.57608 8.59878L8.90941 9.93211C9.14372 10.1664 9.52362 10.1664 9.75794 9.93211C9.99225 9.6978 9.99225 9.3179 9.75794 9.08358L8.60034 7.92599V5.17972Z" fill="#161823"/>
<path fill-rule="evenodd" clip-rule="evenodd" d="M14.0003 8.17518C14.0003 11.4889 11.3141 14.1752 8.00035 14.1752C4.68664 14.1752 2.00035 11.4889 2.00035 8.17518C2.00035 4.86147 4.68664 2.17518 8.00035 2.17518C11.3141 2.17518 14.0003 4.86147 14.0003 8.17518ZM12.8003 8.17518C12.8003 10.8261 10.6513 12.9752 8.00035 12.9752C5.34938 12.9752 3.20035 10.8261 3.20035 8.17518C3.20035 5.52421 5.34938 3.37518 8.00035 3.37518C10.6513 3.37518 12.8003 5.52421 12.8003 8.17518Z" fill="#161823"/>
</svg>
