<svg width="16" height="16" viewBox="0 0 16 16" fill="none" xmlns="http://www.w3.org/2000/svg">
<path d="M8.15617 3.31748C8.10218 3.17309 7.89795 3.17309 7.84395 3.31749L7.2158 4.99738C7.19238 5.06003 7.13378 5.1026 7.06696 5.10552L5.27517 5.18381C5.12117 5.19054 5.05805 5.38478 5.17869 5.48075L6.58226 6.59728C6.6346 6.63891 6.65698 6.7078 6.63911 6.77225L6.15988 8.50053C6.11869 8.64908 6.28392 8.76913 6.41247 8.68405L7.90808 7.69421C7.96385 7.6573 8.03628 7.6573 8.09205 7.69421L9.58766 8.68405C9.71621 8.76913 9.88144 8.64908 9.84025 8.50053L9.36102 6.77225C9.34315 6.7078 9.36553 6.63892 9.41787 6.59728L10.8214 5.48075C10.9421 5.38478 10.879 5.19054 10.725 5.18381L8.93316 5.10552C8.86635 5.1026 8.80775 5.06003 8.78433 4.99738L8.15617 3.31748Z" fill="#161823"/>
<path d="M13.7667 6.25C13.7667 7.87684 13.0892 9.34587 12.0001 10.3918V15.1C12.0001 15.3032 11.8972 15.4926 11.7268 15.6033C11.5563 15.7139 11.3414 15.7308 11.1558 15.648L8.00006 14.2416L4.84431 15.648C4.6587 15.7308 4.44382 15.7139 4.27337 15.6033C4.10293 15.4926 4.00007 15.3032 4.00007 15.1V10.3918C2.91096 9.34587 2.2334 7.87684 2.2334 6.25C2.2334 3.07436 4.81522 0.5 8.00007 0.5C11.1849 0.5 13.7667 3.07436 13.7667 6.25ZM8.00007 10.8C10.5254 10.8 12.5667 8.75962 12.5667 6.25C12.5667 3.74038 10.5254 1.7 8.00007 1.7C5.47469 1.7 3.4334 3.74038 3.4334 6.25C3.4334 8.75962 5.47469 10.8 8.00007 10.8ZM8.00007 12C6.98392 12 6.02917 11.7379 5.20007 11.2779V14.1757L7.75582 13.0367C7.91128 12.9674 8.08885 12.9674 8.24431 13.0367L10.8001 14.1757V11.2779C9.97096 11.7379 9.01621 12 8.00007 12Z" fill="#161823"/>
</svg>
