<svg width="16" height="16" viewBox="0 0 16 16" fill="none" xmlns="http://www.w3.org/2000/svg">
<path d="M5.83333 3.1C5.83333 3.70751 6.32582 4.2 6.93333 4.2L9.03333 4.2C9.64085 4.2 10.1333 3.70751 10.1333 3.1V2.1C10.1333 1.49249 9.64084 1 9.03333 1H6.93333C6.32582 1 5.83333 1.49249 5.83333 2.1V3.1ZM8.93333 3L7.03333 3V2.2L8.93333 2.2V3Z" fill="#161823"/>
<path d="M4.83333 3.1L4.83333 2.1C4.83333 2.06647 4.83412 2.03313 4.83567 1.99999H3.75C2.7835 1.99999 2 2.78349 2 3.74999V13.25C2 14.2165 2.7835 15 3.75 15H12.25C13.2165 15 14 14.2165 14 13.25V3.74999C14 2.78349 13.2165 1.99999 12.25 1.99999H11.131C11.1325 2.03313 11.1333 2.06647 11.1333 2.1V3.1C11.1333 3.13352 11.1325 3.16685 11.131 3.19999H12.25C12.5538 3.19999 12.8 3.44623 12.8 3.74999V13.25C12.8 13.5537 12.5538 13.8 12.25 13.8H3.75C3.44624 13.8 3.2 13.5537 3.2 13.25V3.74999C3.2 3.44623 3.44624 3.19999 3.75 3.19999H4.83567C4.83412 3.16685 4.83333 3.13352 4.83333 3.1Z" fill="#161823"/>
<path d="M9.5 6.98326C9.5 7.94976 8.82843 8.73326 8 8.73326C7.17157 8.73326 6.5 7.94976 6.5 6.98326C6.5 6.01677 7.17157 5.23326 8 5.23326C8.82843 5.23326 9.5 6.01677 9.5 6.98326Z" fill="#161823"/>
<path d="M4.5 12.0454C4.5 10.6396 6.03125 9.49993 8 9.49993C9.96875 9.49993 11.5 10.6396 11.5 12.0454C11.5 12.5726 11.0726 12.9999 10.5455 12.9999H5.45455C4.92736 12.9999 4.5 12.5726 4.5 12.0454Z" fill="#161823"/>
</svg>
