<svg width="20" height="20" viewBox="0 0 20 20" fill="none" xmlns="http://www.w3.org/2000/svg">
<path d="M10.0004 1.4585C7.23894 1.4585 5.00037 3.69707 5.00037 6.4585C5.00037 6.62101 5.00813 6.78182 5.02334 6.94058L5.06289 7.35362L5.47609 7.31579C7.75169 7.10745 10.0467 8.20528 11.2633 10.3126C11.3571 10.475 11.4424 10.6399 11.5194 10.8066L11.6932 11.1828L12.0704 11.0111C13.798 10.2244 15.0004 8.48232 15.0004 6.4585C15.0004 3.69707 12.7618 1.4585 10.0004 1.4585Z" fill="#161823"/>
<path d="M8.93896 9.26471C7.39386 8.16177 5.28386 7.99148 3.53111 9.00343C1.13965 10.3841 0.320269 13.4421 1.70098 15.8336C3.08169 18.225 6.13965 19.0444 8.53111 17.6637C8.67184 17.5824 8.80722 17.4953 8.9371 17.4028L9.27501 17.162L9.03567 16.8231C7.71757 14.9565 7.52088 12.4202 8.73752 10.3129C8.83129 10.1505 8.9314 9.99419 9.03733 9.84406L9.27625 9.50547L8.93896 9.26471Z" fill="#161823"/>
<path d="M16.0406 8.78235L15.6631 8.61011L15.4893 8.98684C14.5319 11.0617 12.4337 12.5002 10.0004 12.5002C9.81291 12.5002 9.62754 12.4917 9.44463 12.475L9.03194 12.4374L8.99208 12.8499C8.80947 14.7394 9.717 16.6519 11.4697 17.6638C13.8612 19.0445 16.9192 18.2252 18.2999 15.8337C19.6806 13.4422 18.8612 10.3843 16.4697 9.00357C16.329 8.92228 16.1858 8.84858 16.0406 8.78235Z" fill="#161823"/>
</svg>
