<svg width="20" height="20" viewBox="0 0 20 20" fill="none" xmlns="http://www.w3.org/2000/svg">
<path d="M8.16881 2.26803L15.4035 1.12532C15.5552 1.10136 15.7033 1.1127 15.8402 1.1528C16.2507 1.2731 16.5595 1.6522 16.5595 2.11308L16.5593 13.8964L16.5593 13.9077V14.1231C16.5593 14.5225 16.4695 14.9041 16.3075 15.2465L17.614 16.553C17.9069 16.8459 17.9069 17.3208 17.614 17.6137C17.3211 17.9066 16.8462 17.9066 16.5533 17.6137L16.4237 17.4841C16.4098 17.4676 16.3951 17.4515 16.3796 17.436L2.34255 3.39895C2.09459 3.10428 2.1093 2.66372 2.38666 2.38636C2.67956 2.09346 3.15443 2.09346 3.44732 2.38636L6.48081 5.41985L6.48084 4.24354C6.48084 3.25943 7.19675 2.42156 8.16881 2.26803ZM14.5357 12.3144L14.5298 12.3091C14.9443 12.2314 15.2447 11.8695 15.2447 11.4477V5.54042L7.79526 6.71467V6.73429L13.5569 12.496L14.5357 12.3144Z" fill="#161823"/>
<path d="M6.48072 9.65845L6.48065 13.0882C6.48065 13.5096 6.18066 13.8714 5.76648 13.9494L5.7691 13.9518L4.29145 14.2288C3.27409 14.4196 2.53687 15.3079 2.53687 16.343C2.53687 17.6903 3.76145 18.706 5.08559 18.4569L5.65224 18.3503C6.89503 18.1164 7.79529 17.031 7.79529 15.7664V15.5474L7.79526 15.5361L7.79526 10.973L6.48072 9.65845Z" fill="#161823"/>
<path d="M11.3114 14.4891C11.3045 14.5592 11.3009 14.6301 11.3009 14.7017C11.3009 15.9852 12.4129 16.9674 13.663 16.8407L11.3114 14.4891Z" fill="#161823"/>
</svg>
