<svg width="20" height="20" viewBox="0 0 20 20" fill="none" xmlns="http://www.w3.org/2000/svg">
<path d="M5.7666 1C4.24782 1 3.0166 2.23122 3.0166 3.75V16.25C3.0166 17.7688 4.24782 19 5.7666 19H10.0025C10.1868 19 10.2777 18.7667 10.1507 18.6331C9.85201 18.3189 9.58701 17.9724 9.36149 17.5993C9.32456 17.5382 9.2588 17.5 9.18741 17.5H5.7666C5.07624 17.5 4.5166 16.9404 4.5166 16.25V3.75C4.5166 3.05964 5.07625 2.5 5.7666 2.5H6.5V2.70003C6.5 3.25232 6.94772 3.70003 7.5 3.70003H10.5C11.0523 3.70003 11.5 3.25232 11.5 2.70003V2.5H12.2333C12.9236 2.5 13.4833 3.05964 13.4833 3.75V8.34864C13.4833 8.47254 13.5948 8.56642 13.7176 8.55042C13.9737 8.51708 14.2348 8.49988 14.5 8.49988C14.5895 8.49988 14.6786 8.50184 14.7671 8.50572C14.8837 8.51083 14.9833 8.4192 14.9833 8.30248V3.75C14.9833 2.23122 13.7521 1 12.2333 1H5.7666Z" fill="#161823"/>
<path d="M11.5 14.4999C11.5 12.843 12.8432 11.4999 14.5 11.4999C14.9142 11.4999 15.25 11.1641 15.25 10.7499C15.25 10.3357 14.9142 9.99988 14.5 9.99988C12.0147 9.99988 10 12.0146 10 14.4999C10 16.9851 12.0147 18.9998 14.5 18.9998C16.9853 18.9998 19 16.9851 19 14.4999C19 13.3444 18.5635 12.2891 17.8477 11.4927C17.7101 11.3396 17.5156 11.2498 17.3099 11.2443C17.1041 11.2388 16.9051 11.3181 16.7596 11.4637L14.4299 13.7933L14.0487 13.4121C13.7558 13.1192 13.2809 13.1192 12.988 13.4121C12.6951 13.705 12.6951 14.1799 12.988 14.4728L13.8996 15.3843C14.0402 15.525 14.231 15.604 14.4299 15.604C14.6288 15.604 14.8196 15.525 14.9603 15.3843L17.1849 13.1597C17.3867 13.5629 17.5 14.0178 17.5 14.4999C17.5 16.1567 16.1569 17.4998 14.5 17.4998C12.8432 17.4998 11.5 16.1567 11.5 14.4999Z" fill="#161823"/>
</svg>
