<svg width="16" height="16" viewBox="0 0 16 16" fill="none" xmlns="http://www.w3.org/2000/svg">
<path fill-rule="evenodd" clip-rule="evenodd" d="M15 8C15 11.866 11.866 15 8 15C4.13401 15 1 11.866 1 8C1 4.13401 4.13401 1 8 1C11.866 1 15 4.13401 15 8ZM11.147 4.83634C11.4399 5.12923 11.4399 5.6041 11.147 5.897L9.05232 7.99167L11.147 10.0863C11.4399 10.3792 11.4399 10.8541 11.147 11.147C10.8541 11.4399 10.3792 11.4399 10.0863 11.147L7.99166 9.05233L5.897 11.147C5.6041 11.4399 5.12923 11.4399 4.83634 11.147C4.54344 10.8541 4.54344 10.3792 4.83634 10.0863L6.931 7.99167L4.83634 5.897C4.54344 5.60411 4.54344 5.12923 4.83634 4.83634C5.12923 4.54345 5.6041 4.54345 5.897 4.83634L7.99166 6.93101L10.0863 4.83634C10.3792 4.54344 10.8541 4.54344 11.147 4.83634Z" fill="#161823"/>
</svg>
