<svg width="24" height="24" viewBox="0 0 24 24" fill="none" xmlns="http://www.w3.org/2000/svg">
<path fill-rule="evenodd" clip-rule="evenodd" d="M12.7619 3.17572C13.0407 2.01868 14.4791 1.61372 15.3207 2.45531L21.5276 8.66226C22.3692 9.50384 21.9643 10.9422 20.8072 11.2211L18.8412 11.695C18.5685 11.7607 18.3192 11.9005 18.1208 12.0988L15.7566 14.4631C15.6289 14.5907 15.5511 14.7473 15.5434 14.9277C15.5293 15.2549 15.5132 15.9736 15.5132 17.5485C15.5132 18.9855 15.0054 20.1883 14.5142 21.0157C14.0846 21.7393 13.1261 21.7538 12.5311 21.1587L8.21893 16.8466L3.53521 21.5303C3.24232 21.8232 2.76745 21.8232 2.47455 21.5303C2.18166 21.2374 2.18166 20.7626 2.47455 20.4697L7.15827 15.786L2.8584 11.4861C2.26333 10.891 2.27782 9.9326 3.00144 9.50296C3.82879 9.01173 5.0316 8.5039 6.46859 8.5039C7.60316 8.5039 8.34883 8.47892 8.79317 8.45611C9.13947 8.43834 9.46051 8.28572 9.70571 8.04052L11.8841 5.86213C12.0825 5.66375 12.2222 5.41446 12.288 5.14172L12.7619 3.17572ZM14.26 3.51597L20.467 9.72292C20.4713 9.72722 20.4737 9.73027 20.475 9.73198C20.4751 9.7343 20.475 9.73922 20.473 9.74617C20.4711 9.75312 20.4686 9.75736 20.4673 9.75928C20.4653 9.76009 20.4616 9.76141 20.4557 9.76284L18.4897 10.2367C17.9485 10.3672 17.4538 10.6445 17.0601 11.0382L14.6959 13.4024C14.3403 13.758 14.0706 14.2579 14.0447 14.8635C14.0293 15.2245 14.0132 15.9699 14.0132 17.5485C14.0132 18.464 13.7385 19.2754 13.4093 19.9157L4.10143 10.6078C4.74175 10.2787 5.5531 10.0039 6.46859 10.0039C7.62477 10.0039 8.39638 9.97845 8.87006 9.95414C9.61508 9.9159 10.2792 9.58837 10.7664 9.10118L12.9448 6.92279C13.3384 6.52913 13.6158 6.03443 13.7462 5.49321L14.2201 3.52721C14.2215 3.5213 14.2228 3.51761 14.2236 3.51566C14.2256 3.51435 14.2298 3.51185 14.2368 3.5099C14.2437 3.50794 14.2486 3.50786 14.251 3.50797C14.2527 3.50922 14.2557 3.51167 14.26 3.51597Z" fill="#161823"/>
</svg>
