<svg width="24" height="24" viewBox="0 0 24 24" fill="none" xmlns="http://www.w3.org/2000/svg">
<path d="M12.0889 1.61685C11.7896 1.35279 11.3188 1.56528 11.3188 1.96437V3.91729C9.51309 4.04966 7.77974 4.70671 6.33552 5.81484C4.71069 7.06154 3.54263 8.80953 3.01246 10.7877C2.4823 12.7659 2.61966 14.8638 3.40325 16.7559C4.18683 18.6481 5.57286 20.2288 7.34637 21.253C9.11989 22.2772 11.1818 22.6876 13.2123 22.4206C15.2428 22.1535 17.1285 21.2239 18.5769 19.776C20.0252 18.3281 20.9554 16.4427 21.2231 14.4123C21.4908 12.3818 21.0811 10.3198 20.0574 8.54597C19.8373 8.16451 19.3496 8.03372 18.9681 8.25385C18.5866 8.47399 18.4559 8.96168 18.676 9.34315C19.5241 10.8129 19.8636 12.5214 19.6418 14.2038C19.42 15.8862 18.6493 17.4483 17.4493 18.648C16.2492 19.8477 14.6868 20.618 13.0043 20.8392C11.3219 21.0605 9.61347 20.7205 8.14399 19.8719C6.6745 19.0232 5.52608 17.7135 4.87683 16.1457C4.22757 14.5779 4.11375 12.8397 4.55303 11.2006C4.99231 9.56153 5.96014 8.11319 7.30642 7.08021C8.47193 6.18593 9.86471 5.64621 11.3188 5.5174V7.41539C11.3188 7.8145 11.7896 8.02697 12.0889 7.76292L15.0465 5.15325C15.3253 4.90725 15.3253 4.47252 15.0465 4.22651L12.0889 1.61685Z" fill="#161823"/>
<path d="M9.61854 17.299C9.18243 17.299 8.92803 17.0187 8.92803 16.5462V11.4997H8.89687L8.18559 12.0033C7.96234 12.1487 7.83254 12.1954 7.68198 12.1954C7.39643 12.1954 7.18356 11.9826 7.18356 11.697C7.18356 11.479 7.31855 11.2869 7.58334 11.1103L8.51268 10.4613C8.88649 10.2069 9.18243 10.1031 9.47317 10.1031C9.97678 10.1031 10.3142 10.451 10.3142 10.9753V16.5462C10.3142 17.0238 10.0598 17.299 9.61854 17.299Z" fill="#161823"/>
<path d="M13.8995 17.3873C12.4925 17.3873 11.4957 16.5929 11.4957 15.7986C11.4957 15.4507 11.719 15.1755 12.0668 15.1755C12.2849 15.1755 12.451 15.269 12.6223 15.513C12.9494 16.0011 13.3648 16.2451 13.8943 16.2451C14.6783 16.2451 15.2338 15.6999 15.2338 14.916C15.2338 14.1579 14.6991 13.6388 13.9515 13.6388C13.6036 13.6388 13.2506 13.7686 12.9442 14.0074C12.6379 14.267 12.4874 14.3293 12.2953 14.3293C11.8695 14.3293 11.5788 14.023 11.6099 13.5453L11.802 10.8767C11.8384 10.3835 12.1343 10.1446 12.7054 10.1446H15.644C16.0593 10.1446 16.3034 10.3575 16.3034 10.7209C16.3034 11.0844 16.0645 11.2869 15.644 11.2869H12.9598L12.8144 13.1196H12.8871C13.1311 12.7873 13.7074 12.5589 14.3149 12.5589C15.6648 12.5589 16.5941 13.4934 16.5941 14.864C16.5941 16.3749 15.509 17.3873 13.8995 17.3873Z" fill="#161823"/>
</svg>
