<svg width="25" height="24" viewBox="0 0 25 24" fill="none" xmlns="http://www.w3.org/2000/svg">
<path d="M1 7.75C1 5.67893 2.67893 4 4.75 4H19.25C21.3211 4 23 5.67893 23 7.75V11.5928C23 11.7906 22.728 11.879 22.596 11.7317C22.3049 11.4069 21.9686 11.1234 21.5973 10.8909C21.5374 10.8534 21.5 10.7883 21.5 10.7177V7.75C21.5 6.50736 20.4926 5.5 19.25 5.5H4.75C3.50736 5.5 2.5 6.50736 2.5 7.75V16.25C2.5 17.4926 3.50736 18.5 4.75 18.5H12.7771C12.9273 18.5 13.025 18.6602 12.9675 18.7989C12.8356 19.1171 12.7464 19.4574 12.7067 19.8126C12.695 19.9177 12.6081 20 12.5024 20H4.75C2.67893 20 1 18.3211 1 16.25V7.75Z" fill="#161823"/>
<path d="M15.5521 8.00195C17.1722 8.00195 18.2633 8.66596 18.7806 9.94524C18.8299 10.0672 18.741 10.1975 18.6102 10.212C18.2247 10.2548 17.853 10.3448 17.5012 10.476C17.3931 10.5164 17.2717 10.4624 17.2238 10.3574C16.8951 9.63713 16.2783 9.29102 15.3529 9.29102H14.2162V14.7051H14.3757C14.4354 14.7051 14.4833 14.7542 14.4833 14.814C14.4833 15.132 14.5158 15.4442 14.5781 15.7469C14.6046 15.8756 14.509 16 14.3777 16H13.6888C12.9857 16 12.6341 15.666 12.6341 14.9863V9.01562C12.6341 8.33594 12.9857 8.00195 13.6888 8.00195H15.5521Z" fill="#161823"/>
<path d="M5.75781 16.0703C6.17969 16.0703 6.41406 15.8535 6.57812 15.3027L7.02344 13.9434H9.83008L10.2812 15.3027C10.4395 15.8477 10.6855 16.0703 11.1133 16.0703C11.5645 16.0703 11.8633 15.8008 11.8633 15.3789C11.8633 15.2148 11.8223 15.0215 11.7402 14.7695L9.72461 8.99219C9.47266 8.24219 9.12109 7.9375 8.45898 7.9375C7.79102 7.9375 7.43359 8.24805 7.18164 8.99219L5.16602 14.7695C5.06641 15.0684 5.02539 15.25 5.02539 15.4082C5.02539 15.8066 5.32422 16.0703 5.75781 16.0703ZM7.375 12.7656L8.39453 9.53125H8.4707L9.48438 12.7656H7.375Z" fill="#161823"/>
<path d="M19.1289 11.6833C17.3961 11.6833 15.9833 13.0806 15.9833 14.814C15.9833 15.138 16.0331 15.4518 16.1258 15.7475L16.653 17.9833H16.4333C15.1907 17.9833 14.1833 18.9907 14.1833 20.2333V21.4556C14.1833 22.2073 14.7927 22.8167 15.5445 22.8167H22.7222C23.474 22.8167 24.0833 22.2073 24.0833 21.4556V20.2333C24.0833 18.9907 23.076 17.9833 21.8333 17.9833H21.6048L22.132 15.7472C22.2247 15.4516 22.2744 15.1379 22.2744 14.814C22.2744 13.0806 20.8617 11.6833 19.1289 11.6833ZM17.4833 14.814C17.4833 13.9178 18.2157 13.1833 19.1289 13.1833C20.0421 13.1833 20.7744 13.9178 20.7744 14.814C20.7744 14.9899 20.7465 15.158 20.6955 15.3149C20.6891 15.3346 20.6835 15.3546 20.6787 15.3748L19.9274 18.5612C19.8748 18.7843 19.927 19.0192 20.0693 19.1989C20.2116 19.3786 20.4282 19.4833 20.6573 19.4833H21.8333C22.2476 19.4833 22.5833 19.8191 22.5833 20.2333V21.3167H15.6833V20.2333C15.6833 19.8191 16.0191 19.4833 16.4333 19.4833H17.6005C17.8297 19.4833 18.0463 19.3786 18.1885 19.1989C18.3308 19.0192 18.3831 18.7843 18.3305 18.5612L17.5791 15.375C17.5743 15.3548 17.5687 15.3348 17.5623 15.315C17.5112 15.1581 17.4833 14.99 17.4833 14.814Z" fill="#161823"/>
</svg>
