<svg width="20" height="20" viewBox="0 0 20 20" fill="none" xmlns="http://www.w3.org/2000/svg">
<path d="M13.0342 1.25C15.2891 1.25021 17.117 3.07812 17.1172 5.33301V5.49805L17.1982 5.41699C17.491 5.12421 17.9659 5.12443 18.2588 5.41699C18.5517 5.70989 18.5517 6.18465 18.2588 6.47754L16.9336 7.80176C16.9085 7.83096 16.8817 7.85777 16.8525 7.88281L16.8447 7.8916C16.5518 8.18449 16.0771 8.18449 15.7842 7.8916L14.3701 6.47754C14.0774 6.18463 14.0773 5.70983 14.3701 5.41699C14.663 5.12422 15.1378 5.1243 15.4307 5.41699L15.6172 5.60352V5.33301C15.617 3.90655 14.4606 2.75021 13.0342 2.75H6.9668C5.54032 2.75018 4.38397 3.90653 4.38379 5.33301V14.667C4.38396 16.0935 5.54032 17.2498 6.9668 17.25H13.0342C14.4606 17.2498 15.617 16.0934 15.6172 14.667V11.6338C15.6172 11.2196 15.953 10.8838 16.3672 10.8838C16.7814 10.8838 17.1172 11.2196 17.1172 11.6338V14.667C17.117 16.9219 15.2891 18.7498 13.0342 18.75H6.9668C4.71189 18.7498 2.88396 16.9219 2.88379 14.667V5.33301C2.88397 3.0781 4.71189 1.25018 6.9668 1.25H13.0342Z" fill="#161823"/>
<path d="M11.4922 6.18359C12.353 6.05229 13.1289 6.71811 13.1289 7.58887V12.1006C13.1289 12.1314 13.1265 12.1618 13.1221 12.1914C13.0596 12.8449 12.5721 13.3884 11.916 13.5127L11.6045 13.5723C10.8488 13.7154 10.1494 13.1353 10.1494 12.3662C10.1495 11.7765 10.569 11.2706 11.1484 11.1611L11.9102 11.0166V7.58887C11.9101 7.46448 11.7987 7.36894 11.6758 7.3877L9.30566 7.75C9.20672 7.76529 9.13389 7.85005 9.13379 7.9502V12.8887C9.13379 13.6045 8.6105 14.2193 7.90723 14.3525L7.5957 14.4111C6.84006 14.5542 6.14064 13.9751 6.14062 13.2061C6.14062 12.6163 6.56015 12.1095 7.13965 12L7.91504 11.8545V7.9502C7.91514 7.24782 8.42773 6.65092 9.12207 6.54492L11.4922 6.18359Z" fill="#161823"/>
</svg>
