<svg width="12" height="12" viewBox="0 0 12 12" fill="none" xmlns="http://www.w3.org/2000/svg">
<path d="M2.1682 1.48178C1.99246 1.30604 1.70754 1.30604 1.5318 1.48178C1.35607 1.65751 1.35607 1.94244 1.5318 2.11817L10.5318 11.1182C10.7075 11.2939 10.9925 11.2939 11.1682 11.1182C11.3439 10.9424 11.3439 10.6575 11.1682 10.4818L9.76244 9.07602L10.8096 6.61526C10.8329 6.56075 10.8505 6.50234 10.8621 6.44004C10.8738 6.37774 10.8797 6.31933 10.8797 6.26481V5.33029C10.8797 5.08109 10.7862 4.86303 10.5993 4.67613C10.4124 4.48922 10.1943 4.39577 9.94514 4.39577H7.39857L7.91256 2.36319V2.19965C7.91256 2.11398 7.89503 2.02442 7.85999 1.93097C7.82494 1.83752 7.78016 1.76354 7.72565 1.70902C7.40307 1.38645 6.88007 1.38645 6.5575 1.70902L4.47647 3.79005L2.1682 1.48178Z" fill="#161823"/>
<path d="M8.54336 10.4702H3.87075V5.65709L8.67395 10.4603C8.63089 10.4669 8.58736 10.4702 8.54336 10.4702Z" fill="#161823"/>
<path d="M3.11904 4.90538L2.60942 4.39576H2C1.58579 4.39576 1.25 4.73155 1.25 5.14576V9.72015C1.25 10.1344 1.58579 10.4702 2 10.4702H3.11904V4.90538Z" fill="#161823"/>
</svg>
