<svg width="20" height="20" viewBox="0 0 20 20" fill="none" xmlns="http://www.w3.org/2000/svg">
<path d="M10.1629 2.25138C10.5763 2.61756 10.6146 3.24957 10.2484 3.663L4.63565 9.99997L10.2484 16.3369C10.6146 16.7504 10.5763 17.3824 10.1629 17.7486C9.74942 18.1147 9.11741 18.0764 8.75123 17.663L2.55122 10.663C2.216 10.2845 2.216 9.7154 2.55122 9.33693L8.75123 2.33693C9.11741 1.9235 9.74942 1.88519 10.1629 2.25138Z" fill="#161823"/>
<path d="M17.6912 2.27755C18.0902 2.65943 18.1041 3.29244 17.7222 3.69142L11.684 9.99997L17.7222 16.3085C18.1041 16.7075 18.0902 17.3405 17.6912 17.7224C17.2923 18.1043 16.6592 18.0904 16.2774 17.6914L9.57736 10.6914C9.20725 10.3047 9.20725 9.69519 9.57736 9.30851L16.2774 2.30851C16.6592 1.90953 17.2923 1.89567 17.6912 2.27755Z" fill="#161823"/>
</svg>
