<svg width="25" height="24" viewBox="0 0 25 24" fill="none" xmlns="http://www.w3.org/2000/svg">
<path d="M5.66667 3.2H18.3333C19.6956 3.2 20.8 4.30436 20.8 5.66667V12.6019C20.8 12.691 20.8591 12.7691 20.9442 12.7958C21.3799 12.9322 21.7959 13.1132 22.1868 13.3335C22.3245 13.4111 22.5 13.3144 22.5 13.1563V5.66667C22.5 3.36548 20.6345 1.5 18.3333 1.5H5.66667C3.36548 1.5 1.5 3.36548 1.5 5.66667V18.3333C1.5 20.6345 3.36548 22.5 5.66667 22.5H13.1563C13.3144 22.5 13.4111 22.3245 13.3335 22.1868C13.1132 21.7959 12.9322 21.3799 12.7958 20.9442C12.7691 20.8591 12.691 20.8 12.6019 20.8H5.66667C4.30436 20.8 3.2 19.6956 3.2 18.3333V5.66667C3.2 4.30436 4.30436 3.2 5.66667 3.2ZM13.2758 15.2955C13.4373 15.2955 13.5336 15.478 13.4494 15.6158C13.1596 16.09 12.929 16.6043 12.7676 17.1483C12.7419 17.2348 12.6631 17.2955 12.5728 17.2955H6.27271C5.72042 17.2955 5.27271 16.8478 5.27271 16.2955C5.27271 15.7432 5.72042 15.2955 6.27271 15.2955H13.2758ZM6.27271 6.70453C5.72042 6.70453 5.27271 7.15224 5.27271 7.70453C5.27271 8.25681 5.72042 8.70453 6.27271 8.70453H11.4272C11.9795 8.70453 12.4272 8.25681 12.4272 7.70453C12.4272 7.15224 11.9795 6.70453 11.4272 6.70453H6.27271ZM14.5773 6.70453C14.025 6.70453 13.5772 7.15224 13.5772 7.70453C13.5772 8.25681 14.025 8.70453 14.5773 8.70453H17.7272C18.2795 8.70453 18.7272 8.25681 18.7272 7.70453C18.7272 7.15224 18.2795 6.70453 17.7272 6.70453H14.5773ZM6.27271 11C5.72042 11 5.27271 11.4477 5.27271 12C5.27271 12.5523 5.72042 13 6.27271 13H8.56361C9.1159 13 9.56361 12.5523 9.56361 12C9.56361 11.4477 9.1159 11 8.56361 11H6.27271ZM12 11C11.4477 11 11 11.4477 11 12C11 12.5523 11.4477 13 12 13H17.7272C18.2795 13 18.7272 12.5523 18.7272 12C18.7272 11.4477 18.2795 11 17.7272 11H12ZM19.0876 24C21.8491 24 24.0876 21.7614 24.0876 19C24.0876 16.2386 21.8491 14 19.0876 14C16.3262 14 14.0876 16.2386 14.0876 19C14.0876 21.7614 16.3262 24 19.0876 24ZM17.5478 19.0886L18.4949 20.0068L20.5975 17.0289C20.7886 16.7582 21.163 16.6937 21.4337 16.8849C21.7044 17.076 21.7689 17.4504 21.5778 17.7211L19.0708 21.2716C18.9697 21.4149 18.811 21.5067 18.6364 21.523C18.4619 21.5393 18.2889 21.4784 18.1631 21.3564L16.7125 19.9503C16.4746 19.7196 16.4687 19.3398 16.6993 19.1018C16.93 18.8639 17.3098 18.858 17.5478 19.0886Z" fill="#161823"/>
</svg>
