<svg width="24" height="24" viewBox="0 0 24 24" fill="none" xmlns="http://www.w3.org/2000/svg">
<path d="M13.0953 5.25402C12.1255 6.22382 12.1255 7.79618 13.0953 8.76598L15.2402 10.9109C16.21 11.8807 17.7824 11.8807 18.7522 10.9109L20.8971 8.76598C21.8669 7.79618 21.8669 6.22382 20.8971 5.25402L18.7522 3.10913C17.7824 2.13932 16.21 2.13932 15.2402 3.10913L13.0953 5.25402Z" fill="#161823"/>
<path d="M5.48333 3C4.11183 3 3 4.11182 3 5.48333V8.51666C3 9.88817 4.11183 11 5.48333 11H8.51667C9.88817 11 11 9.88817 11 8.51666V5.48333C11 4.11182 9.88817 3 8.51667 3H5.48333Z" fill="#161823"/>
<path d="M13 15.4833C13 14.1118 14.1118 13 15.4833 13H18.5167C19.8882 13 21 14.1118 21 15.4833V18.5167C21 19.8882 19.8882 21 18.5167 21H15.4833C14.1118 21 13 19.8882 13 18.5167V15.4833Z" fill="#161823"/>
<path d="M5.48333 13C4.11183 13 3 14.1118 3 15.4833V18.5167C3 19.8882 4.11183 21 5.48333 21H8.51667C9.88817 21 11 19.8882 11 18.5167V15.4833C11 14.1118 9.88817 13 8.51667 13H5.48333Z" fill="#161823"/>
</svg>
