<svg width="20" height="20" viewBox="0 0 20 20" fill="none" xmlns="http://www.w3.org/2000/svg">
<path d="M15.3712 2.53535C14.7658 1.93004 13.7844 1.93004 13.1791 2.53535L4.57813 11.1363C4.3457 11.3688 4.18343 11.662 4.10991 11.9823L3.51884 14.5578C3.36333 15.2354 3.96442 15.8451 4.64415 15.6992L7.24893 15.14C7.57855 15.0693 7.88071 14.9048 8.11909 14.6665L16.7147 6.07088C17.32 5.46557 17.32 4.48416 16.7147 3.87885L15.3712 2.53535Z" fill="#161823"/>
<path d="M2.5 17.5752C2.5 17.161 2.83579 16.8252 3.25 16.8252H16.75C17.1642 16.8252 17.5 17.161 17.5 17.5752C17.5 17.9894 17.1642 18.3252 16.75 18.3252H3.25C2.83579 18.3252 2.5 17.9894 2.5 17.5752Z" fill="#161823"/>
</svg>
