<svg width="20" height="20" viewBox="0 0 20 20" fill="none" xmlns="http://www.w3.org/2000/svg">
<path d="M9.08331 8.41667C9.08331 8.00246 8.74753 7.66667 8.33331 7.66667C7.9191 7.66667 7.58331 8.00246 7.58331 8.41667V14.25C7.58331 14.6642 7.9191 15 8.33331 15C8.74753 15 9.08331 14.6642 9.08331 14.25V8.41667Z" fill="#161823"/>
<path d="M11.6667 7.66667C12.0809 7.66667 12.4167 8.00246 12.4167 8.41667V14.25C12.4167 14.6642 12.0809 15 11.6667 15C11.2525 15 10.9167 14.6642 10.9167 14.25V8.41667C10.9167 8.00246 11.2525 7.66667 11.6667 7.66667Z" fill="#161823"/>
<path d="M6.22261 3.2989C6.35712 2.54339 7.01404 1.9931 7.78143 1.9931H12.2186C12.986 1.9931 13.6429 2.54339 13.7774 3.2989L13.9975 4.53471L16.875 4.53471C17.2892 4.53471 17.625 4.8705 17.625 5.28472C17.625 5.69893 17.2892 6.03472 16.875 6.03472H15.9146L15.308 16.0306C15.2305 17.3061 14.1736 18.3009 12.8957 18.3009H7.10431C5.82648 18.3009 4.76949 17.3061 4.69208 16.0306L4.0854 6.03471H3.125C2.71079 6.03471 2.375 5.69893 2.375 5.28471C2.375 4.8705 2.71079 4.53471 3.125 4.53471L6.00258 4.53471L6.22261 3.2989ZM12.4739 4.53471L12.3007 3.56183C12.2936 3.52207 12.259 3.4931 12.2186 3.4931H7.78143C7.74104 3.4931 7.70646 3.52207 7.69938 3.56183L7.52617 4.53471L12.4739 4.53471ZM5.58858 6.04167L6.18932 15.9397C6.21869 16.4235 6.61961 16.8009 7.10431 16.8009H12.8957C13.3804 16.8009 13.7813 16.4235 13.8107 15.9397L14.4114 6.04167H5.58858Z" fill="#161823"/>
</svg>
