<svg width="20" height="20" viewBox="0 0 20 20" fill="none" xmlns="http://www.w3.org/2000/svg">
<path d="M12.2966 10.1744L13.1987 11.0766C13.3846 11.2625 13.6642 11.3181 13.9071 11.2175C14.15 11.1169 14.3084 10.8799 14.3084 10.617V7.70029C14.3084 7.34131 14.0173 7.05029 13.6584 7.05029H10.7417C10.4788 7.05029 10.2418 7.20866 10.1412 7.45155C10.0406 7.69444 10.0962 7.97401 10.2821 8.15991L11.2344 9.11224L10.0759 10.4031L8.93951 9.42426C8.63159 9.15904 8.16845 9.18731 7.89508 9.48802L5.81175 11.7797C5.53312 12.0862 5.55571 12.5605 5.8622 12.8391C6.16869 13.1178 6.64303 13.0952 6.92166 12.7887L8.51381 11.0373L9.6537 12.0192C9.96302 12.2856 10.4286 12.2557 10.7013 11.9519L12.2966 10.1744Z" fill="#161823"/>
<path fill-rule="evenodd" clip-rule="evenodd" d="M18 10.0005C18 14.4188 14.4183 18.0005 10 18.0005C5.58172 18.0005 2 14.4188 2 10.0005C2 5.58221 5.58172 2.00049 10 2.00049C14.4183 2.00049 18 5.58221 18 10.0005ZM16.5 10.0005C16.5 13.5903 13.5899 16.5005 10 16.5005C6.41015 16.5005 3.5 13.5903 3.5 10.0005C3.5 6.41064 6.41015 3.50049 10 3.50049C13.5899 3.50049 16.5 6.41064 16.5 10.0005Z" fill="#161823"/>
</svg>
