<svg width="20" height="20" viewBox="0 0 20 20" fill="none" xmlns="http://www.w3.org/2000/svg">
<path d="M7.25 8.5C7.94036 8.5 8.5 7.94036 8.5 7.25C8.5 6.55964 7.94036 6 7.25 6C6.55964 6 6 6.55964 6 7.25C6 7.94036 6.55964 8.5 7.25 8.5Z" fill="#161823"/>
<path d="M5.5 2.5C3.84315 2.5 2.5 3.84315 2.5 5.5V14.5C2.5 16.1569 3.84315 17.5 5.5 17.5H14.5C16.1569 17.5 17.5 16.1569 17.5 14.5V5.5C17.5 3.84315 16.1569 2.5 14.5 2.5H5.5ZM14.5 4C15.3284 4 16 4.67157 16 5.5V10.7725L13.8637 8.63618C13.7231 8.49552 13.5323 8.4165 13.3334 8.4165C13.1345 8.41651 12.9437 8.49553 12.803 8.63619L9.16681 12.2726L7.19716 10.303C6.90427 10.0101 6.42939 10.0101 6.1365 10.303L4 12.4395V5.5C4 4.67157 4.67157 4 5.5 4H14.5ZM16 12.8938V14.5C16 15.3284 15.3284 16 14.5 16H5.5C4.69155 16 4.03248 15.3604 4.00116 14.5596L6.66683 11.894L8.6365 13.8637C8.77715 14.0043 8.96792 14.0833 9.16684 14.0833C9.36576 14.0833 9.55652 14.0043 9.69718 13.8636L13.3334 10.2272L16 12.8938Z" fill="#161823"/>
</svg>
