<svg width="24" height="24" viewBox="0 0 24 24" fill="none" xmlns="http://www.w3.org/2000/svg">
<path d="M11.9998 2.5C9.37685 2.5 7.00341 3.56198 5.28353 5.28121C4.99058 5.57405 4.5157 5.57396 4.22287 5.28101C3.93003 4.98806 3.93012 4.51319 4.22307 4.22035C6.21274 2.23143 8.96316 1 11.9998 1C15.0364 1 17.7868 2.23144 19.7765 4.22039C20.0695 4.51323 20.0695 4.9881 19.7767 5.28105C19.4839 5.574 19.009 5.57408 18.716 5.28125C16.9961 3.56199 14.6227 2.5 11.9998 2.5Z" fill="#161823"/>
<path d="M16.8785 6.06882C17.2375 6.06882 17.5285 6.35983 17.5285 6.71882L17.5285 10.9752C17.5285 11.3342 17.2375 11.6252 16.8785 11.6252C16.5195 11.6252 16.2285 11.3342 16.2285 10.9752V10.8H12.6332C12.357 10.8 12.1332 10.5761 12.1332 10.3C12.1332 10.0238 12.357 9.79999 12.6332 9.79999H16.2285V9.23334H13.4774C13.2013 9.23334 12.9774 9.00948 12.9774 8.73334C12.9774 8.45719 13.2013 8.23334 13.4774 8.23334L16.2285 8.23334V7.64093L13.1609 7.64093C12.8847 7.64093 12.6609 7.41707 12.6609 7.14093C12.6609 6.86479 12.8847 6.64093 13.1609 6.64093L16.2331 6.64093C16.2716 6.31867 16.5459 6.06882 16.8785 6.06882Z" fill="#161823"/>
<path d="M3.62871 6.71887C3.62871 6.3875 3.36008 6.11887 3.02871 6.11887C2.69734 6.11887 2.42871 6.3875 2.42871 6.71887V11.3H0.666406C0.335035 11.3 0.0664062 11.5686 0.0664062 11.9C0.0664062 12.2314 0.335035 12.5 0.666406 12.5H2.42871V17.6758C2.42871 17.8603 2.51358 18.0346 2.65885 18.1483C2.80412 18.262 2.99363 18.3026 3.17273 18.2583L6.31036 17.4825C6.63204 17.403 6.82834 17.0777 6.7488 16.756C6.66926 16.4344 6.34401 16.2381 6.02233 16.3176L3.62871 16.9094V12.5H6.18458C6.19279 12.5234 6.20229 12.55 6.21307 12.5797C6.25696 12.7002 6.32238 12.8712 6.41056 13.0793C6.58658 13.4945 6.85512 14.0618 7.22675 14.6724C7.96198 15.8804 9.14214 17.3262 10.8713 18.0382C11.1777 18.1644 11.5283 18.0182 11.6545 17.7118C11.7807 17.4054 11.6346 17.0547 11.3282 16.9286C9.9406 16.3572 8.92909 15.1613 8.25183 14.0485C7.91721 13.4987 7.67429 12.9858 7.51541 12.611C7.49908 12.5724 7.48366 12.5354 7.46914 12.5L11.4331 12.5C11.7644 12.5 12.0331 12.2314 12.0331 11.9C12.0331 11.5686 11.7644 11.3 11.4331 11.3L3.62871 11.3V6.71887Z" fill="#161823"/>
<path d="M5.57427 8.96773C5.27115 9.10144 5.13376 9.45553 5.26739 9.7587C5.40105 10.0619 5.7552 10.1994 6.05842 10.0657L6.06167 10.0643L6.06856 10.0612L6.09298 10.0502C6.11386 10.0408 6.14382 10.027 6.18193 10.0092C6.25813 9.9736 6.36708 9.92156 6.50141 9.8544C6.76972 9.72025 7.14113 9.52482 7.55607 9.27845C8.37473 8.79237 9.40893 8.08125 10.14 7.22223C10.3548 6.96988 10.3243 6.59121 10.0719 6.37644C9.81959 6.16167 9.44092 6.19214 9.22615 6.4445C8.62389 7.15216 7.72476 7.7827 6.94343 8.24662C6.55837 8.47525 6.21312 8.6569 5.96476 8.78108C5.84075 8.84309 5.74137 8.89053 5.67382 8.9221C5.64006 8.93788 5.61429 8.94968 5.59741 8.95733L5.57889 8.96567L5.57427 8.96773Z" fill="#161823"/>
<path d="M12.4998 12.8396C12.4998 12.5082 12.7684 12.2396 13.0998 12.2396H14.5815L14.8017 11.8635C14.9691 11.5775 15.3367 11.4814 15.6226 11.6489C15.8356 11.7736 15.9433 12.0092 15.9152 12.2396H22.9844C23.3158 12.2396 23.5844 12.5082 23.5844 12.8396C23.5844 13.1709 23.3158 13.4396 22.9844 13.4396H15.2695L14.7463 14.3333H17.3603C17.4189 14.0061 17.7051 13.7577 18.0492 13.7577C18.3934 13.7577 18.6795 14.0061 18.7382 14.3333H22.4331C22.7644 14.3333 23.0331 14.602 23.0331 14.9333C23.0331 15.2647 22.7644 15.5333 22.4331 15.5333H18.7492L18.7492 16.2H23.3564C23.6878 16.2 23.9564 16.4686 23.9564 16.8C23.9564 17.1314 23.6878 17.4 23.3564 17.4H18.7492V17.85C18.7492 18.2366 18.4358 18.55 18.0492 18.55C17.6626 18.55 17.3492 18.2366 17.3492 17.85V17.4H12.7331C12.4017 17.4 12.1331 17.1314 12.1331 16.8C12.1331 16.4686 12.4017 16.2 12.7331 16.2H17.3492V15.5333H13.6997C13.4847 15.5333 13.2861 15.4183 13.1792 15.2317C13.0723 15.0452 13.0733 14.8157 13.1819 14.6302L13.879 13.4396H13.0998C12.7684 13.4396 12.4998 13.1709 12.4998 12.8396Z" fill="#161823"/>
<path d="M22.9399 6.64093C23.2161 6.64093 23.4399 6.86479 23.4399 7.14093C23.4399 7.41707 23.2161 7.64093 22.9399 7.64093L19.8723 7.64093V8.23334L22.6233 8.23334C22.8994 8.23334 23.1233 8.45719 23.1233 8.73334C23.1233 9.00948 22.8994 9.23334 22.6233 9.23334H19.8723V9.79999H23.4675C23.7437 9.79999 23.9675 10.0238 23.9675 10.3C23.9675 10.5761 23.7437 10.8 23.4675 10.8H19.8723V10.9752C19.8723 11.3342 19.5813 11.6252 19.2223 11.6252C18.8633 11.6252 18.5723 11.3342 18.5723 10.9752L18.5723 6.71882C18.5723 6.35983 18.8633 6.06882 19.2223 6.06882C19.5549 6.06882 19.8292 6.31867 19.8677 6.64093L22.9399 6.64093Z" fill="#161823"/>
<path d="M6.3611 19.6464C6.02794 19.4003 5.55833 19.4709 5.31221 19.804C5.06609 20.1372 5.13665 20.6068 5.46981 20.8529C7.29616 22.2021 9.55587 23 11.9998 23C14.4434 23 16.703 22.2023 18.5293 20.8533C18.8624 20.6072 18.933 20.1376 18.6869 19.8044C18.4408 19.4712 17.9712 19.4006 17.638 19.6467C16.061 20.8116 14.1119 21.5 11.9998 21.5C9.88746 21.5 7.93817 20.8115 6.3611 19.6464Z" fill="#161823"/>
</svg>
