<svg width="24" height="24" viewBox="0 0 24 24" fill="none" xmlns="http://www.w3.org/2000/svg">
<path d="M16.6123 20.7041C17.0661 20.7501 17.4207 21.1337 17.4209 21.5996C17.4209 22.0656 17.0662 22.4491 16.6123 22.4951L16.5205 22.5H7.44043C6.94337 22.5 6.54004 22.0967 6.54004 21.5996C6.54024 21.1027 6.9435 20.6992 7.44043 20.6992H16.5205L16.6123 20.7041Z" fill="#161823"/>
<path d="M16.9834 7.49219C17.1496 7.02427 17.6636 6.77871 18.1318 6.94434C18.6002 7.11018 18.8453 7.6253 18.6797 8.09375L16.5537 14.0986C16.1537 15.2276 14.5572 15.2276 14.1572 14.0986L12.0312 8.09375L12.0049 8.00488C11.8973 7.56198 12.1402 7.09988 12.5791 6.94434C13.0182 6.78895 13.4983 6.99514 13.6934 7.40723L13.7285 7.49219L15.3555 12.0898L16.9834 7.49219Z" fill="#161823"/>
<path d="M10.7021 6.89746C11.1558 6.94363 11.5096 7.32721 11.5098 7.79297C11.5098 8.25888 11.1559 8.64228 10.7021 8.68848L10.6104 8.69336H9.2002V14.0234L9.19531 14.1152C9.1494 14.5692 8.76592 14.9238 8.2998 14.9238C7.83369 14.9238 7.45021 14.5692 7.4043 14.1152L7.39941 14.0234V8.69336H5.94727C5.45021 8.69336 5.04688 8.29003 5.04688 7.79297C5.04707 7.29608 5.45033 6.89258 5.94727 6.89258H10.6104L10.7021 6.89746Z" fill="#161823"/>
<path fill-rule="evenodd" clip-rule="evenodd" d="M18.7998 2.40039C21.0089 2.40039 22.7998 4.19125 22.7998 6.40039V15.2002C22.7996 17.4092 21.0088 19.2002 18.7998 19.2002H5.24023C3.03122 19.2002 1.24043 17.4092 1.24023 15.2002V6.40039C1.24024 4.19125 3.0311 2.40039 5.24023 2.40039H18.7998ZM5.24023 4.2002C4.02521 4.2002 3.04004 5.18536 3.04004 6.40039V15.2002C3.04024 16.4151 4.02533 17.4004 5.24023 17.4004H18.7998C20.0147 17.4004 20.9998 16.4151 21 15.2002V6.40039C21 5.18537 20.0148 4.2002 18.7998 4.2002H5.24023Z" fill="#161823"/>
</svg>
