<svg width="20" height="20" viewBox="0 0 20 20" fill="none" xmlns="http://www.w3.org/2000/svg">
<path d="M10.2084 7.30778C9.83867 7.30778 9.331 7.37923 9.17 7.81901C8.97505 8.35157 8.74932 8.47857 8.33342 8.47857C7.87318 8.47857 7.50008 8.10547 7.50008 7.64524C7.50008 6.38581 9.14342 5.64111 10.2084 5.64111C11.9484 5.64111 12.9298 6.74934 12.9298 7.98502C12.9298 8.80743 12.3167 9.24142 11.7516 9.64144C11.302 9.95971 10.8827 10.2565 10.8268 10.7102C10.7518 11.3195 10.4344 11.4787 9.99599 11.4787C9.53575 11.4787 9.16266 11.1056 9.16266 10.6454C9.16266 9.87119 9.78872 9.47902 10.3551 9.12422C10.8229 8.83116 11.2501 8.5636 11.2501 8.12732C11.2501 7.56498 10.7025 7.30778 10.2084 7.30778Z" fill="#161823"/>
<path d="M10.9168 13.2246C10.9168 13.7308 10.5064 14.1412 10.0001 14.1412C9.49388 14.1412 9.08348 13.7308 9.08348 13.2246C9.08348 12.7183 9.49388 12.3079 10.0001 12.3079C10.5064 12.3079 10.9168 12.7183 10.9168 13.2246Z" fill="#161823"/>
<path fill-rule="evenodd" clip-rule="evenodd" d="M7.51798 1.2998C6.70514 1.2998 6.04952 1.29979 5.51862 1.34317C4.97198 1.38783 4.49184 1.48219 4.04762 1.70853C3.34201 2.06806 2.76833 2.64173 2.40881 3.34734C2.18247 3.79156 2.08811 4.2717 2.04345 4.81834C2.00007 5.34925 2.00008 6.00486 2.00008 6.8177L2.00004 11.7078C1.99952 13.101 1.99917 14.0239 2.3303 14.8141C2.62166 15.5095 3.09275 16.1148 3.69524 16.568C4.37994 17.0831 5.27463 17.3094 6.62535 17.651L10.0001 18.506L13.3748 17.651C14.7255 17.3094 15.6202 17.0831 16.3049 16.568C16.9074 16.1148 17.3785 15.5095 17.6699 14.8141C18.001 14.0239 18.0006 13.101 18.0001 11.7078L18.0001 6.81773C18.0001 6.00488 18.0001 5.34925 17.9567 4.81834C17.9121 4.2717 17.8177 3.79156 17.5914 3.34734C17.2318 2.64173 16.6582 2.06806 15.9525 1.70853C15.5083 1.48219 15.0282 1.38783 14.4816 1.34317C13.9506 1.29979 13.295 1.2998 12.4822 1.2998H7.51798ZM4.7286 3.04504C4.92612 2.9444 5.18689 2.87527 5.64076 2.83819C6.10339 2.80039 6.69763 2.79981 7.55008 2.79981H12.4501C13.3025 2.79981 13.8968 2.80039 14.3594 2.83819C14.8133 2.87527 15.074 2.9444 15.2716 3.04504C15.6949 3.26076 16.0391 3.60496 16.2548 4.02833C16.3555 4.22584 16.4246 4.48661 16.4617 4.94049C16.4995 5.40312 16.5001 5.99735 16.5001 6.84981V11.5373C16.5001 13.1654 16.4859 13.7585 16.2864 14.2344C16.0979 14.6844 15.7931 15.076 15.4032 15.3693C14.9908 15.6795 14.4194 15.839 12.8412 16.2388L10.0001 16.9586L7.15898 16.2388C5.58079 15.839 5.00935 15.6795 4.59695 15.3693C4.2071 15.076 3.90228 14.6844 3.71375 14.2344C3.51431 13.7585 3.50008 13.1654 3.50008 11.5373V6.84981C3.50008 5.99735 3.50067 5.40312 3.53846 4.94049C3.57555 4.48661 3.64468 4.22584 3.74532 4.02833C3.96103 3.60496 4.30524 3.26076 4.7286 3.04504Z" fill="#161823"/>
</svg>
