<svg width="24" height="24" viewBox="0 0 24 24" fill="none" xmlns="http://www.w3.org/2000/svg">
<path d="M11.0197 19.4356C12.6565 19.6514 14.3187 19.3211 15.7486 18.496C16.1074 18.2889 16.5661 18.4119 16.7731 18.7707C16.9801 19.1295 16.8571 19.5881 16.4984 19.7952C14.7825 20.7854 12.7878 21.1817 10.8236 20.9228C8.85951 20.6638 7.0357 19.764 5.63505 18.363C4.2344 16.9619 3.33519 15.1378 3.07686 13.1736C2.81852 11.2094 3.21551 9.21479 4.20625 7.49918C5.197 5.78358 6.72613 4.44282 8.55651 3.68482C10.3869 2.92682 12.4162 2.79394 14.3298 3.30679C16.2434 3.81965 17.9343 4.94957 19.1403 6.52134C20.2013 7.9041 20.8348 9.56085 20.9718 11.2882L22.4632 9.12743C22.6985 8.78654 23.1656 8.70093 23.5065 8.93622C23.8474 9.17151 23.933 9.6386 23.6977 9.9795L20.8688 14.0782C20.7382 14.2674 20.528 14.3862 20.2985 14.4006C20.0691 14.415 19.8457 14.3234 19.6924 14.152L16.3947 10.4634C16.1186 10.1546 16.1451 9.68048 16.4539 9.4044C16.7627 9.12832 17.2368 9.15485 17.5129 9.46364L19.4931 11.6785C19.4272 10.1416 18.8899 8.65907 17.9503 7.43445C16.9453 6.12464 15.5362 5.18304 13.9415 4.75566C12.3469 4.32828 10.6557 4.43902 9.13043 5.07068C7.60511 5.70235 6.33083 6.81965 5.50521 8.24932C4.6796 9.67899 4.34877 11.3411 4.56405 12.978C4.77932 14.6148 5.52867 16.1349 6.69588 17.3025C7.86308 18.47 9.38292 19.2199 11.0197 19.4356Z" fill="#161823"/>
</svg>
