<svg width="24" height="24" viewBox="0 0 24 24" fill="none" xmlns="http://www.w3.org/2000/svg">
<path d="M4.75 3C3.23122 3 2 4.23122 2 5.75V9H22V8.25C22 6.73122 20.7688 5.5 19.25 5.5H13.1391C12.4097 5.5 11.7103 5.21027 11.1945 4.69454L10.3055 3.80546C9.78973 3.28973 9.09026 3 8.36091 3H4.75Z" fill="#161823"/>
<path d="M22 10.5H2V18.25C2 19.7688 3.23122 21 4.75 21H13.2322C12.7644 20.1025 12.5 19.0821 12.5 18C12.5 14.4101 15.4101 11.5 19 11.5C20.0821 11.5 21.1025 11.7644 22 12.2322V10.5Z" fill="#161823"/>
<path d="M24 18C24 20.7614 21.7614 23 19 23C16.2386 23 14 20.7614 14 18C14 15.2386 16.2386 13 19 13C21.7614 13 24 15.2386 24 18ZM19.5 15.75C19.5 15.4739 19.2761 15.25 19 15.25C18.7239 15.25 18.5 15.4739 18.5 15.75V17.5H16.75C16.4739 17.5 16.25 17.7239 16.25 18C16.25 18.2761 16.4739 18.5 16.75 18.5H18.5V20.25C18.5 20.5261 18.7239 20.75 19 20.75C19.2761 20.75 19.5 20.5261 19.5 20.25V18.5H21.25C21.5261 18.5 21.75 18.2761 21.75 18C21.75 17.7239 21.5261 17.5 21.25 17.5H19.5V15.75Z" fill="#161823"/>
</svg>
