<svg width="12" height="12" viewBox="0 0 12 12" fill="none" xmlns="http://www.w3.org/2000/svg">
<path d="M6.55001 8.05C6.55001 8.35376 6.30377 8.6 6.00001 8.6C5.69626 8.6 5.45001 8.35376 5.45001 8.05C5.45001 7.74624 5.69626 7.5 6.00001 7.5C6.30377 7.5 6.55001 7.74624 6.55001 8.05Z" fill="#161823"/>
<path d="M5 5.20238C5.24954 5.20238 5.38498 5.12618 5.50195 4.80664C5.59855 4.54278 5.90315 4.49991 6.125 4.49991C6.42143 4.49991 6.75 4.65423 6.75 4.99163C6.75 5.2534 6.49372 5.41394 6.21302 5.58977C5.87318 5.80265 5.49755 6.03795 5.49755 6.50246C5.49755 6.7786 5.7214 7.00246 5.99755 7.00246C6.26059 7.00246 6.45102 6.90696 6.49605 6.54138C6.52959 6.26912 6.78113 6.09106 7.05089 5.9001C7.38996 5.66009 7.75781 5.3997 7.75781 4.90625C7.75781 4.16485 7.16902 3.49991 6.125 3.49991C5.486 3.49991 4.5 3.94673 4.5 4.70238C4.5 4.97852 4.72386 5.20238 5 5.20238Z" fill="#161823"/>
<path fill-rule="evenodd" clip-rule="evenodd" d="M6 11C8.76142 11 11 8.76142 11 6C11 3.23858 8.76142 1 6 1C3.23858 1 1 3.23858 1 6C1 8.76142 3.23858 11 6 11ZM6 10C8.20914 10 10 8.20914 10 6C10 3.79086 8.20914 2 6 2C3.79086 2 2 3.79086 2 6C2 8.20914 3.79086 10 6 10Z" fill="#161823"/>
</svg>
