<svg width="24" height="24" viewBox="0 0 24 24" fill="none" xmlns="http://www.w3.org/2000/svg">
<path d="M8.78102 12.3209C8.38447 11.9365 7.75138 11.9463 7.36698 12.3429C6.98257 12.7394 6.99242 13.3725 7.38897 13.7569L10.29 16.5692C10.4998 16.7725 10.7881 16.874 11.079 16.8468C11.3699 16.8197 11.6344 16.6666 11.803 16.4279L16.8169 9.32679C17.1354 8.87563 17.0279 8.25166 16.5768 7.9331C16.1256 7.61455 15.5017 7.72205 15.1831 8.17321L10.8431 14.3198L8.78102 12.3209Z" fill="#161823"/>
<path d="M22 12C22 6.47715 17.5228 2 12 2C6.47715 2 2 6.47715 2 12C2 17.5228 6.47715 22 12 22C17.5228 22 22 17.5228 22 12ZM20.5 12C20.5 16.6944 16.6944 20.5 12 20.5C7.30558 20.5 3.5 16.6944 3.5 12C3.5 7.30558 7.30558 3.5 12 3.5C16.6944 3.5 20.5 7.30558 20.5 12Z" fill="#161823"/>
</svg>
