<svg width="16" height="16" viewBox="0 0 16 16" fill="none" xmlns="http://www.w3.org/2000/svg">
<path d="M11.3802 5.76323C12.0166 5.76323 12.5326 5.24816 12.5326 4.61279C12.5326 3.97743 12.0166 3.46236 11.3802 3.46236C10.7437 3.46236 10.2277 3.97743 10.2277 4.61279C10.2277 5.24816 10.7437 5.76323 11.3802 5.76323Z" fill="#161823"/>
<path fill-rule="evenodd" clip-rule="evenodd" d="M14.4726 7.59943C14.8111 7.26233 15.0014 6.80463 15.0014 6.32732L15.0014 2.78731C15.0014 1.79495 14.1955 0.990479 13.2014 0.990479H9.74021C9.26345 0.990479 8.80617 1.17929 8.46871 1.51548L5.41069 4.56198L2.42445 1.57574C2.19013 1.34142 1.81023 1.34142 1.57592 1.57574C1.3416 1.81005 1.3416 2.18995 1.57592 2.42426L4.56056 5.4089L4.55911 5.41035L5.40689 6.25813L5.40834 6.25668L9.75594 10.6043L9.75449 10.6057L10.6023 11.4535L10.6037 11.4521L13.5759 14.4243C13.8102 14.6586 14.1901 14.6586 14.4244 14.4243C14.6588 14.1899 14.6588 13.8101 14.4244 13.5757L11.454 10.6053L14.4726 7.59943ZM9.31638 2.36337L6.25847 5.40975L10.6063 9.75755L13.6251 6.75136C13.738 6.63899 13.8014 6.48643 13.8014 6.32732L13.8014 2.78731C13.8014 2.45652 13.5328 2.18837 13.2014 2.18837L9.74022 2.18837C9.58129 2.18837 9.42887 2.2513 9.31638 2.36337Z" fill="#161823"/>
<path d="M9.75196 12.3003L7.66515 14.3783C6.8457 15.1943 5.51932 15.1946 4.69954 14.3789L1.61651 11.3113C0.793552 10.4924 0.793141 9.16212 1.6156 8.34277L3.70898 6.25727L4.55676 7.10505L2.46327 9.19065C2.11079 9.54181 2.11096 10.1119 2.46366 10.4629L5.54668 13.5305C5.89802 13.8801 6.46647 13.8799 6.81766 13.5302L8.90418 11.4525L9.75196 12.3003Z" fill="#161823"/>
</svg>
