<svg width="24" height="24" viewBox="0 0 24 24" fill="none" xmlns="http://www.w3.org/2000/svg">
<path d="M10 9.5C10 10.6046 9.32843 11.5 8.5 11.5C7.67157 11.5 7 10.6046 7 9.5C7 8.39543 7.67157 7.5 8.5 7.5C9.32843 7.5 10 8.39543 10 9.5Z" fill="#161823"/>
<path d="M15.5 11.5C16.3284 11.5 17 10.6046 17 9.5C17 8.39543 16.3284 7.5 15.5 7.5C14.6716 7.5 14 8.39543 14 9.5C14 10.6046 14.6716 11.5 15.5 11.5Z" fill="#161823"/>
<path d="M12 16.0305C10.3431 16.0305 9 15.0711 9 13.8876C9 12.7041 15 12.7041 15 13.8876C15 15.0711 13.6569 16.0305 12 16.0305Z" fill="#161823"/>
<path d="M22 12C22 17.5228 17.5228 22 12 22C6.47715 22 2 17.5228 2 12C2 6.47715 6.47715 2 12 2C17.5228 2 22 6.47715 22 12ZM20.5 12C20.5 7.30558 16.6944 3.5 12 3.5C7.30558 3.5 3.5 7.30558 3.5 12C3.5 16.6944 7.30558 20.5 12 20.5C16.6944 20.5 20.5 16.6944 20.5 12Z" fill="#161823"/>
</svg>
