<svg width="24" height="24" viewBox="0 0 24 24" fill="none" xmlns="http://www.w3.org/2000/svg">
<path d="M15.4226 12.0109C16.2953 12.6064 16.2953 13.8935 15.4226 14.489L11.3339 17.2788C10.3383 17.9582 8.98851 17.2451 8.98851 16.0398L8.98851 10.4602C8.98851 9.25486 10.3383 8.5418 11.3339 9.22117L15.4226 12.0109ZM14.5771 13.25L10.4885 10.4602V16.0398L14.5771 13.25Z" fill="#161823"/>
<path d="M8.65119 2.38185L10.4352 5.50395H13.5648L15.3488 2.38185C15.5543 2.02222 16.0125 1.89727 16.3721 2.10278C16.7317 2.30828 16.8567 2.76642 16.6512 3.12606L15.2924 5.50395H18.25C20.3211 5.50395 22 7.18288 22 9.25395V17.254C22 19.325 20.3211 21.004 18.25 21.004H5.75C3.67893 21.004 2 19.325 2 17.254V9.25395C2 7.18288 3.67893 5.50395 5.75 5.50395H8.70762L7.34882 3.12606C7.14332 2.76642 7.26826 2.30828 7.6279 2.10278C7.98754 1.89727 8.44568 2.02222 8.65119 2.38185ZM14.0135 7.00395C14.004 7.00413 13.9946 7.00413 13.9851 7.00395H10.0149C10.0054 7.00413 9.99596 7.00413 9.9865 7.00395H5.75C4.50736 7.00395 3.5 8.01131 3.5 9.25395V17.254C3.5 18.4966 4.50736 19.504 5.75 19.504H18.25C19.4926 19.504 20.5 18.4966 20.5 17.254V9.25395C20.5 8.01131 19.4926 7.00395 18.25 7.00395H14.0135Z" fill="#161823"/>
</svg>
