<svg width="24" height="24" viewBox="0 0 24 24" fill="none" xmlns="http://www.w3.org/2000/svg">
<path d="M12.4954 3.75C12.4954 3.33579 12.8311 3 13.2454 3H20.25C20.6642 3 21 3.33579 21 3.75V10.7547C21 11.1689 20.6642 11.5047 20.25 11.5047C19.8358 11.5047 19.5 11.1689 19.5 10.7547V5.56064L14.596 10.4647C15.475 11.5732 16 12.9753 16 14.5C16 18.0899 13.0899 21 9.5 21C5.91015 21 3 18.0899 3 14.5C3 10.9101 5.91015 8 9.5 8C11.0247 8 12.4268 8.52496 13.5353 9.40399L18.4393 4.5H13.2454C12.8311 4.5 12.4954 4.16421 12.4954 3.75ZM9.5 19.5C12.2614 19.5 14.5 17.2614 14.5 14.5C14.5 11.7386 12.2614 9.5 9.5 9.5C6.73858 9.5 4.5 11.7386 4.5 14.5C4.5 17.2614 6.73858 19.5 9.5 19.5Z" fill="#161823"/>
</svg>
