<svg width="24" height="24" viewBox="0 0 24 24" fill="none" xmlns="http://www.w3.org/2000/svg">
<path d="M8.83006 12.303C8.53716 12.0102 8.06229 12.0102 7.7694 12.303C7.4765 12.5959 7.4765 13.0708 7.7694 13.3637L11.3751 16.9694C11.7201 17.3144 12.2794 17.3144 12.6243 16.9694L16.2301 13.3637C16.523 13.0708 16.523 12.5959 16.2301 12.303C15.9372 12.0102 15.4623 12.0102 15.1694 12.303L11.9997 15.4727L8.83006 12.303Z" fill="#161823"/>
<path fill-rule="evenodd" clip-rule="evenodd" d="M5.02059 3.93349C5.52973 3.16327 6.39139 2.69995 7.31468 2.69995H16.6846C17.6079 2.69995 18.4695 3.16327 18.9787 3.93349L22.0667 8.60512C22.785 9.69163 22.6425 11.133 21.7254 12.0578L12.7097 21.1505C12.3185 21.545 11.6807 21.545 11.2895 21.1505L2.27382 12.0578C1.35678 11.133 1.2143 9.69163 1.93252 8.60512L5.02059 3.93349ZM7.31468 4.19995H16.6846C17.1043 4.19995 17.4959 4.41055 17.7274 4.76065L20.8154 9.43228C21.1419 9.92615 21.0771 10.5813 20.6603 11.0017L11.9996 19.7362L3.33898 11.0017C2.92214 10.5813 2.85738 9.92615 3.18384 9.43228L6.27191 4.76065C6.50334 4.41055 6.895 4.19995 7.31468 4.19995Z" fill="#161823"/>
</svg>
