<svg width="24" height="24" viewBox="0 0 24 24" fill="none" xmlns="http://www.w3.org/2000/svg">
<path opacity="0.9" fill-rule="evenodd" clip-rule="evenodd" d="M21.8002 11.0349C21.8002 6.07253 17.3251 2.19995 12.0002 2.19995C6.67525 2.19995 2.2002 6.07254 2.2002 11.035C2.2002 15.8195 6.43154 18.9819 11.3306 19.2938V20.8395C11.3306 21.4699 12.0004 21.9647 12.6345 21.6421C13.3412 21.2826 16.703 19.5232 18.7401 17.4656C20.6087 15.5782 21.8002 13.5095 21.8002 11.0349ZM12.0002 3.79995C16.6169 3.79995 20.2002 7.12199 20.2002 11.0349C20.2002 12.9339 19.3047 14.6212 17.6031 16.3399C16.2588 17.6977 14.2111 18.9517 12.9306 19.6683V17.7192H12.1306C7.41795 17.7192 3.8002 14.8674 3.8002 11.035C3.8002 7.12198 7.38348 3.79995 12.0002 3.79995Z" fill="#161823"/>
</svg>
