<svg width="20" height="20" viewBox="0 0 20 20" fill="none" xmlns="http://www.w3.org/2000/svg">
<path fill-rule="evenodd" clip-rule="evenodd" d="M2.59498 14.2678L6.5 13.4826L8 13.1635L12.1436 12.207C12.9376 12.0238 13.5 11.3167 13.5 10.5019V8.0151L17.701 7.17526C17.8557 7.14433 18 7.26266 18 7.42041V14.5055C18 14.6234 17.9177 14.7252 17.8025 14.75L8.3025 16.7904C8.14684 16.8238 8 16.7052 8 16.546V14.9229C8 14.7957 7.8828 14.7008 7.75837 14.7273L6.65837 14.9614C6.56603 14.981 6.5 15.0626 6.5 15.157V16.546C6.5 17.6604 7.52787 18.491 8.61749 18.257L18.1175 16.2165C18.924 16.0433 19.5 15.3304 19.5 14.5055V7.42041C19.5 6.31614 18.4898 5.48789 17.4069 5.70436L13.5 6.48542L12 6.78864L7.89749 7.63232C7.08389 7.79963 6.5 8.51582 6.5 9.34645V11.9526L2.29928 12.7972C2.14451 12.8284 2 12.71 2 12.5521V5.5072C2 5.38947 2.08215 5.28769 2.19723 5.26284L11.6972 3.21139C11.853 3.17776 12 3.29643 12 3.45576V5.01796C12 5.14434 12.1158 5.23904 12.2396 5.21399L13.3396 4.99158C13.4329 4.97272 13.5 4.89072 13.5 4.79555V3.45576C13.5 2.3405 12.4708 1.50978 11.3806 1.74518L1.88062 3.79663C1.07503 3.97059 0.5 4.68305 0.5 5.5072V12.5521C0.5 13.6572 1.5116 14.4857 2.59498 14.2678ZM8.19964 9.10157L12 8.32003V10.5019C12 10.6183 11.9197 10.7193 11.8062 10.7455L8 11.624V9.34645C8 9.22779 8.08341 9.12547 8.19964 9.10157Z" fill="#161823"/>
</svg>
