<svg width="24" height="24" viewBox="0 0 24 24" fill="none" xmlns="http://www.w3.org/2000/svg">
<path fill-rule="evenodd" clip-rule="evenodd" d="M8 6.5C8 4.11907 9.6937 2 12 2C14.3063 2 16 4.11907 16 6.5C16 8.88093 14.3063 11 12 11C9.6937 11 8 8.88093 8 6.5ZM12 3.5C10.7165 3.5 9.5 4.73879 9.5 6.5C9.5 8.26121 10.7165 9.5 12 9.5C13.2835 9.5 14.5 8.26121 14.5 6.5C14.5 4.73879 13.2835 3.5 12 3.5Z" fill="#161823"/>
<path d="M5.70047 14.3426C7.32635 13.1879 9.5457 12.5 12 12.5C12.8344 12.5 13.6417 12.5795 14.4078 12.7299C13.9443 13.0812 13.568 13.5425 13.3185 14.0765C12.8927 14.0263 12.4523 14 12 14C9.81368 14 7.90802 14.6146 6.56906 15.5656C5.2299 16.5167 4.5 17.7647 4.5 19.0682V19.25C4.5 19.9404 5.05964 20.5 5.75 20.5H12.7032L12.6921 20.7003C12.6669 21.1544 12.7267 21.5926 12.8575 22H5.75C4.23122 22 3 20.7688 3 19.25V19.0682C3 17.1584 4.07479 15.4973 5.70047 14.3426Z" fill="#161823"/>
<path d="M18.7333 18.4C17.7392 18.4 16.9333 17.5941 16.9333 16.6C16.9333 16.2686 17.202 16 17.5333 16C17.8647 16 18.1333 16.2686 18.1333 16.6C18.1333 16.9314 18.402 17.2 18.7333 17.2H18.9C19.2314 17.2 19.5 16.9314 19.5 16.6C19.5 16.2686 19.7686 16 20.1 16C20.4314 16 20.7 16.2686 20.7 16.6C20.7 17.5941 19.8941 18.4 18.9 18.4H18.7333Z" fill="#161823"/>
<path fill-rule="evenodd" clip-rule="evenodd" d="M16.581 13.5C15.4665 13.5 14.5461 14.3707 14.4843 15.4835L14.1898 20.7835C14.1229 21.9872 15.081 23 16.2866 23H21.3468C22.5523 23 23.5104 21.9872 23.4435 20.7835L23.1491 15.4835C23.0873 14.3707 22.1669 13.5 21.0523 13.5H16.581ZM21.0523 15H16.581C16.2626 15 15.9996 15.2488 15.9819 15.5667L15.6875 20.8667C15.6684 21.2106 15.9421 21.5 16.2866 21.5H21.3468C21.6912 21.5 21.9649 21.2106 21.9458 20.8667L21.6514 15.5667C21.6337 15.2488 21.3708 15 21.0523 15Z" fill="#161823"/>
</svg>
