<svg width="20" height="20" viewBox="0 0 20 20" fill="none" xmlns="http://www.w3.org/2000/svg">
<path fill-rule="evenodd" clip-rule="evenodd" d="M9.77079 2.40314C10.1418 1.98759 10.6724 1.75 11.2294 1.75C12.5417 1.75 13.4815 3.01709 13.1006 4.27288L12.3027 6.9033H16.3183C17.1928 6.9033 17.9016 7.61218 17.9016 8.48663V9.93369C17.9016 10.3484 17.8223 10.7593 17.6678 11.1442L15.5321 16.4653C15.2278 17.2235 14.493 17.7204 13.676 17.7204L3.58333 17.7203C2.70888 17.7203 2 17.0114 2 16.137V8.48663C2 7.61218 2.70888 6.9033 3.58333 6.9033H5.75331L9.77079 2.40314ZM5.33914 8.4033H3.58333C3.53731 8.4033 3.5 8.4406 3.5 8.48663V16.137C3.5 16.183 3.53731 16.2203 3.58333 16.2203H5.33914V8.4033ZM6.83914 16.2203L13.676 16.2204C13.8803 16.2204 14.064 16.0962 14.14 15.9066L16.2757 10.5855C16.3589 10.3783 16.4016 10.157 16.4016 9.93369V8.48663C16.4016 8.4406 16.3643 8.4033 16.3183 8.4033H11.2915C11.054 8.4033 10.8306 8.29082 10.6891 8.10008C10.5476 7.90933 10.5049 7.66286 10.5738 7.4356L11.6652 3.83749C11.7539 3.54506 11.535 3.25 11.2294 3.25C11.0997 3.25 10.9761 3.30533 10.8898 3.4021L6.83914 7.93937V16.2203Z" fill="#161823"/>
</svg>
