<svg width="20" height="20" viewBox="0 0 20 20" fill="none" xmlns="http://www.w3.org/2000/svg">
<path d="M1.66699 12.9999V5.33325C1.66699 4.22868 2.56242 3.33325 3.66699 3.33325H16.3337C17.4382 3.33325 18.3337 4.22868 18.3337 5.33325V12.9999C18.3337 14.1045 17.4382 14.9999 16.3337 14.9999H10.7503V16.6666C10.7503 16.6947 10.7488 16.7225 10.7457 16.7499H12.7089C13.1231 16.7499 13.4589 17.0857 13.4589 17.4999C13.4589 17.9141 13.1231 18.2499 12.7089 18.2499H7.2917C6.87748 18.2499 6.5417 17.9141 6.5417 17.4999C6.5417 17.0857 6.87748 16.7499 7.2917 16.7499H9.25488C9.25186 16.7225 9.25031 16.6947 9.25031 16.6666V14.9999H3.66699C2.56242 14.9999 1.66699 14.1045 1.66699 12.9999ZM3.26699 5.33325V11.7499H16.7337V5.33325C16.7337 5.11234 16.5546 4.93325 16.3337 4.93325H3.66699C3.44608 4.93325 3.26699 5.11234 3.26699 5.33325Z" fill="#161823"/>
</svg>
