<svg width="16" height="16" viewBox="0 0 16 16" fill="none" xmlns="http://www.w3.org/2000/svg">
<path d="M2.72413 1.70505C2.08511 1.79579 1.58314 2.29775 1.4924 2.93677C1.26342 4.54931 1.71289 6.16818 2.86845 7.32374C4.02401 8.4793 5.64288 8.92878 7.25542 8.69979C7.26277 8.69875 7.27011 8.69765 7.27742 8.6965C7.30198 8.69263 7.32633 8.68815 7.35046 8.68308V13.3601H5.83353C5.47454 13.3601 5.18353 13.6511 5.18353 14.0101C5.18353 14.3691 5.47454 14.6601 5.83353 14.6601H10.1673C10.5262 14.6601 10.8173 14.3691 10.8173 14.0101C10.8173 13.6511 10.5262 13.3601 10.1673 13.3601H8.65046V10.8051C8.69467 10.8157 8.73969 10.8243 8.78541 10.8308C10.3979 11.0598 12.0168 10.6103 13.1724 9.45478C14.3279 8.29922 14.7774 6.68035 14.5484 5.06781C14.4577 4.42879 13.9557 3.92683 13.3167 3.83609C11.7042 3.6071 10.0853 4.05658 8.92973 5.21214C8.76128 5.38059 8.60783 5.55889 8.4693 5.74557C8.30088 4.74974 7.85055 3.82056 7.11109 3.0811C5.95553 1.92554 4.33667 1.47606 2.72413 1.70505Z" fill="#161823"/>
</svg>
