<svg width="20" height="20" viewBox="0 0 20 20" fill="none" xmlns="http://www.w3.org/2000/svg">
<path d="M13.1496 15.4586C11.948 16.152 10.5512 16.4296 9.17581 16.2482C7.80042 16.0669 6.52329 15.4368 5.54248 14.4557C4.56167 13.4746 3.93198 12.1973 3.75109 10.8218C3.57019 9.44635 3.84818 8.04965 4.54195 6.84829C5.23573 5.64693 6.30651 4.70806 7.58824 4.17726C8.86998 3.64647 10.291 3.55342 11.631 3.91255C12.971 4.27168 14.1551 5.06291 14.9996 6.16355C15.8441 7.26418 16.3019 8.61271 16.3019 10C16.3019 10.5523 16.7496 11 17.3019 11C17.8541 11 18.3019 10.5523 18.3019 10C18.3019 8.17246 17.6988 6.39598 16.5863 4.94607C15.4738 3.49615 13.914 2.45382 12.1488 1.98072C10.3835 1.50763 8.51151 1.63021 6.82302 2.32944C5.13454 3.02868 3.72395 4.26551 2.81001 5.84811C1.89607 7.43071 1.52986 9.27065 1.76816 11.0826C2.00647 12.8945 2.83597 14.5772 4.12804 15.8697C5.4201 17.1622 7.10253 17.9922 8.91439 18.2311C10.7263 18.4699 12.5663 18.1043 14.1492 17.1909C14.6276 16.9148 14.7916 16.3033 14.5155 15.8249C14.2395 15.3466 13.6279 15.1826 13.1496 15.4586Z" fill="#161823"/>
</svg>
