<svg width="20" height="20" viewBox="0 0 20 20" fill="none" xmlns="http://www.w3.org/2000/svg">
<g clip-path="url(#clip0_2_2635)">
<path d="M6.8834 5.51672C6.8834 3.69333 8.17707 2.01672 10.0001 2.01672C11.8231 2.01672 13.1167 3.69333 13.1167 5.51672C13.1167 7.34011 11.8231 9.01672 10.0001 9.01672C8.17707 9.01672 6.8834 7.34011 6.8834 5.51672ZM10.0001 3.51672C9.20891 3.51672 8.3834 4.30255 8.3834 5.51672C8.3834 6.7309 9.20891 7.51672 10.0001 7.51672C10.7912 7.51672 11.6167 6.7309 11.6167 5.51672C11.6167 4.30255 10.7912 3.51672 10.0001 3.51672Z" fill="#161823"/>
<path d="M5.12311 11.8517C6.39575 10.9862 8.11646 10.5 10.0001 10.5C10.075 10.5 10.1497 10.5008 10.2242 10.5023C10.3681 10.5053 10.4582 10.6576 10.407 10.7922C10.2904 11.098 10.2186 11.4264 10.1995 11.7697L10.1969 11.8156C10.1912 11.9195 10.1042 12 10.0001 12C8.35868 12 6.94605 12.426 5.9666 13.092C4.99251 13.7545 4.4834 14.6196 4.4834 15.5515C4.4834 16.0666 4.90263 16.4833 5.40007 16.4833H9.72621C9.84103 16.4833 9.93227 16.5798 9.9259 16.6944L9.90506 17.0697C9.89242 17.2971 9.90343 17.5201 9.93588 17.7364C9.95497 17.8636 9.86002 17.9833 9.7314 17.9833H5.40007C4.05655 17.9833 2.9834 16.8773 2.9834 15.5515C2.9834 14.0064 3.84512 12.7208 5.12311 11.8517Z" fill="#161823"/>
<path d="M15.6668 14.8667C14.6911 14.8667 13.9001 14.0757 13.9001 13.1C13.9001 12.7687 14.1688 12.5 14.5001 12.5C14.8315 12.5 15.1001 12.7687 15.1001 13.1C15.1001 13.413 15.3538 13.6667 15.6668 13.6667H15.7335C16.0464 13.6667 16.3001 13.413 16.3001 13.1C16.3001 12.7687 16.5688 12.5 16.9001 12.5C17.2315 12.5 17.5001 12.7687 17.5001 13.1C17.5001 14.0757 16.7092 14.8667 15.7335 14.8667H15.6668Z" fill="#161823"/>
<path d="M13.4445 10.2C12.5157 10.2 11.7487 10.9255 11.6972 11.8529L11.4027 17.1529C11.347 18.156 12.1454 19 13.1501 19H18.2502C19.2549 19 20.0532 18.156 19.9975 17.1529L19.7031 11.8529C19.6516 10.9255 18.8845 10.2 17.9558 10.2H13.4445ZM17.9558 11.7C18.0884 11.7 18.198 11.8036 18.2054 11.9361L18.4998 17.2361C18.5078 17.3794 18.3937 17.5 18.2502 17.5H13.1501C13.0065 17.5 12.8925 17.3794 12.9004 17.2361L13.1949 11.9361C13.2022 11.8036 13.3118 11.7 13.4445 11.7H17.9558Z" fill="#161823"/>
</g>
<defs>
<clipPath id="clip0_2_2635">
<rect width="20" height="20" fill="white"/>
</clipPath>
</defs>
</svg>
