<svg width="20" height="20" viewBox="0 0 20 20" fill="none" xmlns="http://www.w3.org/2000/svg">
<path d="M9.46991 6.86956C9.76281 6.57667 10.2377 6.57667 10.5306 6.86956L12.7953 9.13425C13.0882 9.42715 13.0882 9.90202 12.7953 10.1949C12.5024 10.4878 12.0275 10.4878 11.7346 10.1949L10.7502 9.21055V12.25C10.7502 12.6642 10.4145 13 10.0002 13C9.58603 13 9.25024 12.6642 9.25024 12.25L9.25024 9.21055L8.26588 10.1949C7.97299 10.4878 7.49812 10.4878 7.20522 10.1949C6.91233 9.90202 6.91233 9.42715 7.20522 9.13425L9.46991 6.86956Z" fill="#161823"/>
<path fill-rule="evenodd" clip-rule="evenodd" d="M6.96094 0.97998C5.44216 0.97998 4.21094 2.21119 4.21094 3.72998V16.2572C4.21094 17.776 5.44215 19.0072 6.96094 19.0072H13.0385C14.5573 19.0072 15.7885 17.776 15.7885 16.2572V3.72998C15.7885 2.2112 14.5573 0.97998 13.0385 0.979981L6.96094 0.97998ZM5.71094 3.72998C5.71094 3.03962 6.27058 2.47998 6.96094 2.47998H7.58106L7.58106 2.56383C7.58106 3.11611 8.02877 3.56383 8.58106 3.56383L11.4183 3.56383C11.9706 3.56383 12.4183 3.11611 12.4183 2.56383L12.4183 2.47998L13.0385 2.47998C13.7289 2.47998 14.2885 3.03962 14.2885 3.72998V16.2572C14.2885 16.9475 13.7289 17.5072 13.0385 17.5072H6.96094C6.27058 17.5072 5.71094 16.9475 5.71094 16.2572V3.72998Z" fill="#161823"/>
</svg>
