<svg width="24" height="24" viewBox="0 0 24 24" fill="none" xmlns="http://www.w3.org/2000/svg">
<path d="M16.2168 18.9999C13.1014 18.9999 10.78 16.79 10.78 14.064C10.78 11.3379 13.3056 9.12806 16.4211 9.12806C19.5365 9.12806 22.0621 11.3379 22.0621 14.064C22.0621 15.891 20.8977 17.3928 19.3512 18.2796L19.2495 19.9407C19.2495 20.305 18.8343 20.5138 18.5418 20.2964L16.7153 18.9809C16.5511 18.9935 16.3848 18.9999 16.2168 18.9999Z" fill="#161823"/>
<path d="M18.1998 7.73058C17.6241 7.59783 17.027 7.52806 16.4211 7.52806C12.6293 7.52806 9.18002 10.2603 9.18002 14.064C9.18002 15.4076 9.59038 16.6311 10.2964 17.6468C10.1021 17.6454 9.90929 17.6381 9.71831 17.6252L6.46682 19.518C6.02841 19.7732 5.47836 19.4569 5.47836 18.9496V16.2669C3.37141 14.937 2 12.7704 2 10.3235C2 6.27886 5.74728 3 10.3698 3C13.9489 3 17.0033 4.9657 18.1998 7.73058Z" fill="#161823"/>
</svg>
