<svg width="24" height="24" viewBox="0 0 24 24" fill="none" xmlns="http://www.w3.org/2000/svg">
<path d="M6.74379 12.6721C6.84613 12.6656 6.8857 12.8019 6.79853 12.856C5.11148 13.9015 3.5 15.7256 3.5 18.2344V18.7344C3.5 19.2134 3.5842 19.6728 3.73862 20.0985C3.76281 20.1652 3.71432 20.2371 3.64337 20.2371H2.83389C1.54492 20.2371 0.5 19.1921 0.5 17.9032V17.4862C0.5 15.863 1.54311 14.6171 2.77661 13.8526C3.86556 13.1778 5.24859 12.7673 6.74379 12.6721Z" fill="#161823"/>
<path d="M8.35103 4.48568C8.40489 4.50517 8.42896 4.56692 8.40565 4.61924C8.07913 5.35227 7.8999 6.16482 7.8999 7C7.8999 8.23982 8.29486 9.42978 8.98036 10.3838C9.01308 10.4293 9.00331 10.4931 8.95657 10.5241C8.50714 10.8221 7.98172 10.9934 7.4203 10.9934C5.76235 10.9934 4.4183 9.5 4.4183 7.65782C4.4183 5.81564 5.76235 4.32227 7.4203 4.32227C7.74518 4.32227 8.05801 4.37961 8.35103 4.48568Z" fill="#161823"/>
<path d="M16.6 7C16.6 9.20914 14.9882 11 13 11C11.0118 11 9.40002 9.20914 9.40002 7C9.40002 4.79086 11.0118 3 13 3C14.9882 3 16.6 4.79086 16.6 7Z" fill="#161823"/>
<path d="M7.58872 13.8966C9.03423 13.0007 10.9441 12.5 13 12.5C13.5381 12.5 14.0663 12.5343 14.5787 12.601C14.6723 12.6132 14.6956 12.7358 14.6139 12.783L13.925 13.1807C12.9195 13.7613 12.3 14.8342 12.3 15.9953V19.2866C12.3 19.8407 12.4411 20.3747 12.6979 20.8447C12.7355 20.9135 12.687 21 12.6086 21H7.5C6.46447 21 5.57598 20.3704 5.19646 19.4731C5.06996 19.174 5 18.8452 5 18.5V18C5 16.4191 5.88905 15.1405 7.06763 14.2528C7.22548 14.1339 7.38852 14.022 7.55531 13.9174L7.58872 13.8966Z" fill="#161823"/>
<path d="M19.8405 17.6377C19.8405 18.4329 19.1957 19.0777 18.4004 19.0777C17.6052 19.0777 16.9604 18.4329 16.9604 17.6377C16.9604 16.8424 17.6052 16.1977 18.4004 16.1977C19.1957 16.1977 19.8405 16.8424 19.8405 17.6377Z" fill="#161823"/>
<path d="M17.5254 12.8349C18.0669 12.5223 18.734 12.5223 19.2754 12.8349L22.1258 14.4805C22.6673 14.7931 23.0008 15.3709 23.0008 15.9961V19.2874C23.0008 19.9126 22.6673 20.4904 22.1258 20.803L19.2754 22.4486C18.734 22.7613 18.0669 22.7613 17.5254 22.4486L14.675 20.803C14.1336 20.4904 13.8 19.9126 13.8 19.2874V15.9961C13.8 15.3709 14.1336 14.7931 14.675 14.4805L17.5254 12.8349ZM18.5254 14.1339C18.4481 14.0892 18.3528 14.0892 18.2754 14.1339L15.425 15.7796C15.3477 15.8242 15.3 15.9068 15.3 15.9961V19.2874C15.3 19.3767 15.3477 19.4593 15.425 19.5039L18.2754 21.1496C18.3528 21.1943 18.4481 21.1943 18.5254 21.1496L21.3758 19.5039C21.4532 19.4593 21.5008 19.3767 21.5008 19.2874V15.9961C21.5008 15.9068 21.4532 15.8242 21.3758 15.7796L18.5254 14.1339Z" fill="#161823"/>
</svg>
