<svg width="20" height="20" viewBox="0 0 20 20" fill="none" xmlns="http://www.w3.org/2000/svg">
<path fill-rule="evenodd" clip-rule="evenodd" d="M10 3.33624L3.70309 6.4769L10 9.61757L16.2969 6.4769L10 3.33624ZM10.3936 2.13572C10.1457 2.01205 9.8543 2.01205 9.60635 2.13572L2.49434 5.68293C1.84043 6.00907 1.84043 6.94473 2.49434 7.27087L9.60635 10.8181C9.8543 10.9417 10.1457 10.9417 10.3936 10.8181L17.5057 7.27087C18.1596 6.94473 18.1596 6.00908 17.5057 5.68293L10.3936 2.13572Z" fill="#161823"/>
<path fill-rule="evenodd" clip-rule="evenodd" d="M2.13293 9.73097C2.31843 9.36061 2.76903 9.21076 3.13939 9.39625L10.0004 12.8327L16.8529 9.40841C17.2234 9.22326 17.6739 9.37353 17.859 9.74406C18.0442 10.1146 17.8939 10.5651 17.5234 10.7502L10.3353 14.3422C10.124 14.4478 9.87533 14.4476 9.66414 14.3419L2.46765 10.7374C2.09729 10.5519 1.94743 10.1013 2.13293 9.73097Z" fill="#161823"/>
<path fill-rule="evenodd" clip-rule="evenodd" d="M2.13293 13.2738C2.31843 12.9035 2.76903 12.7536 3.13939 12.9391L10.0004 16.3755L16.8529 12.9513C17.2234 12.7661 17.6739 12.9164 17.859 13.2869C18.0442 13.6574 17.8939 14.1079 17.5234 14.2931L10.3353 17.885C10.124 17.9906 9.87533 17.9905 9.66414 17.8847L2.46765 14.2803C2.09729 14.0948 1.94743 13.6442 2.13293 13.2738Z" fill="#161823"/>
</svg>
