<svg width="24" height="24" viewBox="0 0 24 24" fill="none" xmlns="http://www.w3.org/2000/svg">
<path d="M6.45005 11.3C7.36132 11.3 8.10005 10.5613 8.10005 9.65C8.10005 8.73873 7.36132 8 6.45005 8C5.53878 8 4.80005 8.73873 4.80005 9.65C4.80005 10.5613 5.53878 11.3 6.45005 11.3Z" fill="#161823"/>
<path d="M19 16.8002V15.9538L21.1187 16.7733C22.2654 17.2168 23.5 16.3706 23.5 15.1411V8.85907C23.5 7.62955 22.2654 6.78337 21.1187 7.22691L19 8.04638V7.2002C19 5.2672 17.433 3.7002 15.5 3.7002H4C2.067 3.7002 0.5 5.2672 0.5 7.2002V16.8002C0.5 18.7332 2.067 20.3002 4 20.3002H15.5C17.433 20.3002 19 18.7332 19 16.8002ZM15.5 5.2002C16.6046 5.2002 17.5 6.09563 17.5 7.2002V9.12173C17.4997 9.13441 17.4997 9.14713 17.5 9.15987V14.8403C17.4997 14.8531 17.4997 14.8658 17.5 14.8785V16.8002C17.5 17.9048 16.6046 18.8002 15.5 18.8002H4C2.89543 18.8002 2 17.9048 2 16.8002V7.2002C2 6.09563 2.89543 5.2002 4 5.2002H15.5ZM21.6598 15.3743L19 14.3455V9.65467L21.6598 8.62591C21.8236 8.56254 22 8.68343 22 8.85907V15.1411C22 15.3168 21.8236 15.4376 21.6598 15.3743Z" fill="#161823"/>
</svg>
