<svg width="20" height="20" viewBox="0 0 20 20" fill="none" xmlns="http://www.w3.org/2000/svg">
<path fill-rule="evenodd" clip-rule="evenodd" d="M10.2118 1.7794C10.076 1.74022 9.9319 1.7402 9.7961 1.77935L3.12624 3.70212C2.80511 3.79469 2.58398 4.08857 2.58398 4.42277V8.36409C2.58398 12.8384 5.48257 16.8026 9.76721 18.2124C9.91949 18.2625 10.0838 18.2625 10.2361 18.2124C14.5196 16.8026 17.4173 12.8392 17.4173 8.36591V4.42277C17.4173 4.08864 17.1963 3.79481 16.8752 3.70217L10.2118 1.7794ZM4.08398 8.36409V4.98711L10.0038 3.28057L15.9173 4.98696V8.36591C15.9173 12.1 13.5495 15.4316 10.0016 16.7069C6.45261 15.4316 4.08398 12.0991 4.08398 8.36409ZM8.27843 5.98972C8.07458 5.66634 7.64718 5.56944 7.3238 5.77328C7.00042 5.97713 6.90352 6.40454 7.10737 6.72792L8.74557 9.32674H7.69289C7.31062 9.32674 7.00074 9.63663 7.00074 10.0189C7.00074 10.4012 7.31062 10.7111 7.69289 10.7111H9.30793V11.5H7.69289C7.31062 11.5 7.00074 11.8099 7.00074 12.1922C7.00074 12.5745 7.31062 12.8844 7.69289 12.8844H9.30793V13.8642C9.30793 14.2465 9.61782 14.5564 10.0001 14.5564C10.3824 14.5564 10.6922 14.2465 10.6922 13.8642V12.8844H12.3073C12.6895 12.8844 12.9994 12.5745 12.9994 12.1922C12.9994 11.8099 12.6895 11.5 12.3073 11.5H10.6922V10.7111H12.3073C12.6895 10.7111 12.9994 10.4012 12.9994 10.0189C12.9994 9.63663 12.6895 9.32674 12.3073 9.32674H11.2549L12.8939 6.72805C13.0978 6.40471 13.001 5.97729 12.6776 5.77337C12.3543 5.56945 11.9269 5.66625 11.723 5.98959L10.0002 8.72114L8.27843 5.98972Z" fill="#161823"/>
</svg>
