<svg width="24" height="24" viewBox="0 0 24 24" fill="none" xmlns="http://www.w3.org/2000/svg">
<path d="M3.22381 3.20981C3.66315 2.77048 4.37547 2.77048 4.81481 3.20981L8.49748 6.89249L12.0864 4.23814C12.8785 3.65234 14 4.21778 14 5.20294V12.395L15.7399 14.1349L15.7889 14.086C16.0628 13.812 16.2801 13.4868 16.4283 13.1289C16.5766 12.771 16.6529 12.3874 16.6529 12C16.6529 11.6126 16.5766 11.229 16.4283 10.8711C16.2801 10.5132 16.0628 10.188 15.7889 9.91405C15.3788 9.504 15.3788 8.83918 15.7889 8.42913C16.1989 8.01908 16.8637 8.01908 17.2738 8.42913C17.7427 8.89806 18.1147 9.45477 18.3685 10.0675C18.6223 10.6802 18.7529 11.3368 18.7529 12C18.7529 12.6632 18.6223 13.3199 18.3685 13.9326C18.1147 14.5453 17.7427 15.102 17.2738 15.5709L17.2248 15.6198L18.3018 16.6968L18.4377 16.5609C19.0366 15.9619 19.5117 15.2509 19.8359 14.4683C20.16 13.6858 20.3269 12.8471 20.3269 12C20.3269 11.153 20.16 10.3143 19.8359 9.53173C19.5117 8.74918 19.0366 8.03814 18.4377 7.4392C18.0276 7.02915 18.0276 6.36432 18.4377 5.95427C18.8477 5.54422 19.5126 5.54422 19.9226 5.95427C20.7166 6.74822 21.3463 7.69076 21.776 8.72809C22.2057 9.76543 22.4269 10.8772 22.4269 12C22.4269 13.1228 22.2057 14.2346 21.776 15.272C21.3463 16.3093 20.7166 17.2519 19.9226 18.0458L19.7867 18.1817L20.8148 19.2098C21.2541 19.6492 21.2541 20.3615 20.8148 20.8008C20.3786 21.237 19.6733 21.2401 19.2333 20.8102L3.68944 5.26632C3.68627 5.26315 3.68308 5.26 3.67989 5.25688L3.22381 4.80081C2.78448 4.36147 2.78448 3.64915 3.22381 3.20981Z" fill="#161823"/>
<path d="M3.26021 8.01907C2.54577 8.13386 2 8.7532 2 9.50001V14.5C2 15.3284 2.67157 16 3.5 16H6.34157C6.76923 16 7.18564 16.1371 7.52966 16.3911L12.0871 19.7567C12.8793 20.3417 14 19.7762 14 18.7914V18.7589L3.26021 8.01907Z" fill="#161823"/>
</svg>
