<svg width="20" height="20" viewBox="0 0 20 20" fill="none" xmlns="http://www.w3.org/2000/svg">
<path d="M13.2895 4.39914C12.0634 3.67477 10.6326 3.37535 9.21896 3.54736C7.80535 3.71936 6.48805 4.35317 5.47149 5.35041C4.67237 6.13435 4.09421 7.10845 3.78674 8.17427C3.67193 8.57226 3.25622 8.80181 2.85824 8.687C2.46026 8.57219 2.2307 8.15648 2.34551 7.7585C2.7243 6.44548 3.43654 5.24543 4.42105 4.27962C5.67341 3.05106 7.29627 2.27024 9.03778 2.05834C10.7793 1.84644 12.542 2.21531 14.0525 3.1077C15.1643 3.76459 16.0936 4.6781 16.7678 5.76368L17.8585 5.36671C18.1211 5.27114 18.3767 5.5387 18.2767 5.80431L17.2878 8.42945C17.1946 8.67691 16.9086 8.78101 16.6781 8.65136L14.2331 7.27605C13.9857 7.13689 14.0096 6.76757 14.2722 6.67201L15.3202 6.29057C14.7913 5.52517 14.1002 4.87811 13.2895 4.39914Z" fill="#161823"/>
<path d="M17.1417 11.3136C17.5397 11.4284 17.7692 11.8441 17.6544 12.2421C17.2791 13.5427 16.5769 14.7314 15.6086 15.6913C14.4283 16.8613 12.9116 17.6328 11.271 17.898C9.63042 18.1631 7.94796 17.9085 6.45922 17.1699C5.12857 16.5097 4.01224 15.4923 3.23224 14.2363L2.14157 14.6333C1.879 14.7289 1.62331 14.4613 1.72337 14.1957L2.71226 11.5706C2.80548 11.3231 3.09149 11.219 3.32197 11.3486L5.76691 12.724C6.0143 12.8631 5.9904 13.2324 5.72783 13.328L4.67985 13.7094C5.3004 14.6075 6.1408 15.3374 7.1259 15.8262C8.33433 16.4258 9.70001 16.6324 11.0317 16.4172C12.3634 16.202 13.5945 15.5757 14.5526 14.626C15.3386 13.8468 15.9085 12.882 16.2132 11.8262C16.328 11.4283 16.7437 11.1987 17.1417 11.3136Z" fill="#161823"/>
<path d="M12.9535 9.21416C13.5044 9.59177 13.5044 10.4079 12.9535 10.7855L9.48048 13.1661C8.85201 13.5969 8.00002 13.1447 8.00002 12.3804V7.61927C8.00002 6.85496 8.85201 6.40281 9.48048 6.8336L12.9535 9.21416Z" fill="#161823"/>
</svg>
