<svg width="20" height="20" viewBox="0 0 20 20" fill="none" xmlns="http://www.w3.org/2000/svg">
<path d="M9.99963 1C7.51435 1 5.49963 3.01472 5.49963 5.5V7.562C4.26107 7.82954 3.33301 8.93139 3.33301 10.25V15.5833C3.33301 17.1021 4.56422 18.3333 6.08301 18.3333H13.9163C15.4351 18.3333 16.6663 17.1021 16.6663 15.5833V10.25C16.6663 8.93136 15.7382 7.82949 14.4996 7.56198V5.5C14.4996 3.01472 12.4849 1 9.99963 1ZM12.9996 7.5H6.99963V5.5C6.99963 3.84315 8.34278 2.5 9.99963 2.5C11.6565 2.5 12.9996 3.84315 12.9996 5.5V7.5ZM6.08301 9H13.9163C14.6067 9 15.1663 9.55964 15.1663 10.25V15.5833C15.1663 16.2737 14.6067 16.8333 13.9163 16.8333H6.08301C5.39265 16.8333 4.83301 16.2737 4.83301 15.5833V10.25C4.83301 9.55964 5.39265 9 6.08301 9Z" fill="#161823"/>
</svg>
