<svg width="12" height="12" viewBox="0 0 12 12" fill="none" xmlns="http://www.w3.org/2000/svg">
<path d="M5.99606 0.661438C3.70758 0.661438 1.81055 2.42222 1.81055 4.64447C1.81055 6.02053 2.49837 7.44011 3.2542 8.59658C4.01839 9.76583 4.8959 10.7313 5.36001 11.2118C5.71004 11.5742 6.28207 11.5742 6.6321 11.2118C7.09621 10.7313 7.97372 9.76583 8.73791 8.59658C9.49375 7.44011 10.1816 6.02053 10.1816 4.64447C10.1816 2.42222 8.28453 0.661438 5.99606 0.661438ZM4.19957 4.84801C4.19957 3.8539 5.00546 3.04801 5.99957 3.04801C6.99368 3.04801 7.79957 3.8539 7.79957 4.84801C7.79957 5.84212 6.99368 6.64801 5.99957 6.64801C5.00546 6.64801 4.19957 5.84212 4.19957 4.84801Z" fill="#161823"/>
</svg>
