<svg width="24" height="24" viewBox="0 0 24 24" fill="none" xmlns="http://www.w3.org/2000/svg">
<path d="M5 2C3.89543 2 3 2.89543 3 4V20C3 21.1046 3.89543 22 5 22H17C18.1046 22 19 21.1046 19 20V16.4512C19 16.2466 18.7294 16.1742 18.6271 16.3514C18.2656 16.9783 17.9028 17.6043 17.5289 18.2239C17.51 18.2551 17.5 18.2909 17.5 18.3274V20C17.5 20.2761 17.2761 20.5 17 20.5H5C4.72386 20.5 4.5 20.2761 4.5 20V4C4.5 3.72386 4.72386 3.5 5 3.5H17C17.2761 3.5 17.5 3.72386 17.5 4V6.5565C17.5 6.76112 17.7707 6.83361 17.873 6.65639C18.2351 6.02911 18.5985 5.40266 18.9714 4.78167C18.9901 4.75052 19 4.71488 19 4.67856V4C19 2.89543 18.1046 2 17 2H5Z" fill="#161823"/>
<path d="M16.7512 16.5997C16.5602 16.9305 16.2904 17.209 15.9659 17.4104L14.6869 18.2041C14.4834 18.3304 14.2213 18.179 14.2289 17.9396L14.2767 16.4352C14.2889 16.0534 14.3951 15.6805 14.5861 15.3497L19.7285 6.44282C19.9495 6.06019 20.4387 5.92909 20.8214 6.15L21.6008 6.6C21.9834 6.82091 22.1145 7.31019 21.8936 7.69282L16.7512 16.5997Z" fill="#161823"/>
<path d="M7.26172 5.5C6.84751 5.5 6.51172 5.83579 6.51172 6.25C6.51172 6.66421 6.84751 7 7.26172 7L14.2612 7C14.6754 7 15.0112 6.66421 15.0112 6.25C15.0112 5.83579 14.6754 5.5 14.2612 5.5L7.26172 5.5Z" fill="#161823"/>
<path d="M7.26172 9C6.84751 9 6.51172 9.33579 6.51172 9.75C6.51172 10.1642 6.84751 10.5 7.26172 10.5L14.2612 10.5C14.6754 10.5 15.0112 10.1642 15.0112 9.75C15.0112 9.33579 14.6754 9 14.2612 9L7.26172 9Z" fill="#161823"/>
<path d="M6.51172 13.25C6.51172 12.8358 6.84751 12.5 7.26172 12.5H11.2578C11.6721 12.5 12.0078 12.8358 12.0078 13.25C12.0078 13.6642 11.6721 14 11.2578 14H7.26172C6.84751 14 6.51172 13.6642 6.51172 13.25Z" fill="#161823"/>
</svg>
