<svg width="24" height="24" viewBox="0 0 24 24" fill="none" xmlns="http://www.w3.org/2000/svg">
<path d="M8.5 6C8.08579 6 7.75 6.33579 7.75 6.75C7.75 7.16421 8.08579 7.5 8.5 7.5H15.5C15.9142 7.5 16.25 7.16421 16.25 6.75C16.25 6.33579 15.9142 6 15.5 6H8.5Z" fill="#161823"/>
<path d="M7.75 10C7.75 9.58579 8.08579 9.25 8.5 9.25H15.5C15.9142 9.25 16.25 9.58579 16.25 10C16.25 10.4142 15.9142 10.75 15.5 10.75H8.5C8.08579 10.75 7.75 10.4142 7.75 10Z" fill="#161823"/>
<path d="M8.5 12.5C8.08579 12.5 7.75 12.8358 7.75 13.25C7.75 13.6642 8.08579 14 8.5 14H13C13.4142 14 13.75 13.6642 13.75 13.25C13.75 12.8358 13.4142 12.5 13 12.5H8.5Z" fill="#161823"/>
<path d="M4 5.75C4 3.67893 5.67893 2 7.75 2H16.25C18.3211 2 20 3.67893 20 5.75V18.25C20 20.3211 18.3211 22 16.25 22H7.75C5.67893 22 4 20.3211 4 18.25V5.75ZM7.75 3.5C6.50736 3.5 5.5 4.50736 5.5 5.75V18.25C5.5 19.4926 6.50736 20.5 7.75 20.5H16.25C17.4926 20.5 18.5 19.4926 18.5 18.25V5.75C18.5 4.50736 17.4926 3.5 16.25 3.5H7.75Z" fill="#161823"/>
</svg>
