<svg width="24" height="24" viewBox="0 0 24 24" fill="none" xmlns="http://www.w3.org/2000/svg">
<path d="M16 6.5C16 8.98528 14.2091 11 12 11C9.79086 11 8 8.98528 8 6.5C8 4.01472 9.79086 2 12 2C14.2091 2 16 4.01472 16 6.5ZM14.5 6.5C14.5 4.67217 13.2195 3.5 12 3.5C10.7805 3.5 9.5 4.67217 9.5 6.5C9.5 8.32783 10.7805 9.5 12 9.5C13.2195 9.5 14.5 8.32783 14.5 6.5Z" fill="#161823"/>
<path d="M12 12.5C9.6563 12.5 7.49136 13.0852 5.86408 14.1182C4.25055 15.1424 3 16.7372 3 18.7273V19.5C3 20.8807 4.11929 22 5.5 22H18.5C19.8807 22 21 20.8807 21 19.5V18.7273C21 16.7372 19.7494 15.1424 18.1359 14.1182C16.5086 13.0852 14.3437 12.5 12 12.5ZM12 14C16.2188 14 19.5 16.1165 19.5 18.7273V19.5C19.5 20.0523 19.0523 20.5 18.5 20.5H5.5C4.94772 20.5 4.5 20.0523 4.5 19.5V18.7273C4.5 16.1165 7.78125 14 12 14Z" fill="#161823"/>
</svg>
