<svg width="20" height="20" viewBox="0 0 20 20" fill="none" xmlns="http://www.w3.org/2000/svg">
<path d="M9.99996 9.16666C11.8409 9.16666 13.3333 7.48772 13.3333 5.41666C13.3333 3.34559 11.8409 1.66666 9.99996 1.66666C8.15901 1.66666 6.66663 3.34559 6.66663 5.41666C6.66663 7.48772 8.15901 9.16666 9.99996 9.16666Z" fill="#161823"/>
<path d="M10 10.1667C8.00786 10.1667 6.15542 10.6637 4.75275 11.5541C3.36383 12.4357 2.25 13.8335 2.25 15.6061V16.25C2.25 17.5387 3.29467 18.5833 4.58333 18.5833H10.2955C10.4139 18.5833 10.5059 18.4809 10.5019 18.3625C10.5006 18.3251 10.5 18.2876 10.5 18.25V15.25C10.5 14.2082 10.9896 13.2828 11.75 12.6885V12.3656C11.75 11.7456 11.8827 11.1567 12.1214 10.6256C12.1761 10.5038 12.1074 10.3588 11.9758 10.3357C11.3416 10.2244 10.6789 10.1667 10 10.1667Z" fill="#161823"/>
<path d="M13.25 12.3597C13.25 10.8409 14.4812 9.60968 16 9.60968C17.5188 9.60968 18.75 10.8409 18.75 12.3597V13.5725C19.4729 13.7876 20 14.4572 20 15.25V18.25C20 19.2165 19.2165 20 18.25 20H13.75C12.7835 20 12 19.2165 12 18.25V15.25C12 14.4572 12.5271 13.7876 13.25 13.5725V12.3597ZM17.25 12.3597C17.25 11.6693 16.6904 11.1097 16 11.1097C15.3096 11.1097 14.75 11.6693 14.75 12.3597V13.5H17.25V12.3597ZM13.75 15C13.6119 15 13.5 15.1119 13.5 15.25V18.25C13.5 18.3881 13.6119 18.5 13.75 18.5H18.25C18.3881 18.5 18.5 18.3881 18.5 18.25V15.25C18.5 15.1119 18.3881 15 18.25 15H13.75Z" fill="#161823"/>
</svg>
