<svg width="24" height="24" viewBox="0 0 24 24" fill="none" xmlns="http://www.w3.org/2000/svg">
<path d="M13.1 16.1C13.1 16.7075 12.6075 17.2 12 17.2C11.3925 17.2 10.9 16.7075 10.9 16.1C10.9 15.4925 11.3925 15 12 15C12.6075 15 13.1 15.4925 13.1 16.1Z" fill="#161823"/>
<path d="M10 10.4048C10.4991 10.4048 10.77 10.2524 11.0039 9.61328C11.1971 9.08554 11.8063 8.99981 12.25 8.99981C12.8429 8.99981 13.5 9.30845 13.5 9.98326C13.5 10.5068 12.9874 10.8279 12.426 11.1795C11.7464 11.6053 10.9951 12.0759 10.9951 13.0049C10.9951 13.5572 11.4428 14.0049 11.9951 14.0049C12.5212 14.0049 12.902 13.8139 12.9921 13.0828C13.0592 12.5382 13.5623 12.1821 14.1018 11.8002C14.7799 11.3202 15.5156 10.7994 15.5156 9.8125C15.5156 8.32968 14.338 6.99981 12.25 6.99981C10.972 6.99981 9 7.89344 9 9.40476C9 9.95704 9.44772 10.4048 10 10.4048Z" fill="#161823"/>
<path d="M12 22C17.5228 22 22 17.5228 22 12C22 6.47715 17.5228 2 12 2C6.47715 2 2 6.47715 2 12C2 17.5228 6.47715 22 12 22ZM12 20.5C7.30558 20.5 3.5 16.6944 3.5 12C3.5 7.30558 7.30558 3.5 12 3.5C16.6944 3.5 20.5 7.30558 20.5 12C20.5 16.6944 16.6944 20.5 12 20.5Z" fill="#161823"/>
</svg>
