<svg width="20" height="20" viewBox="0 0 20 20" fill="none" xmlns="http://www.w3.org/2000/svg">
<path d="M8.43754 2.60617C8.3812 1.70477 9.09708 0.942749 10.0002 0.942749C10.9034 0.942749 11.6193 1.70477 11.5629 2.60617L11.3619 5.82295C11.3559 5.9189 11.4321 6.00001 11.5282 6.00001H16.2005C17.0337 6.00001 17.7091 6.67547 17.7091 7.50869C17.7091 8.33963 17.0374 9.01367 16.2073 9.01736H16.2751L16.2752 9.01965H3.72491L3.72506 9.01736H3.78991C2.95984 9.01367 2.28809 8.33963 2.28809 7.50869C2.28809 6.67547 2.96355 6.00001 3.79677 6.00001H8.47225C8.56838 6.00001 8.64459 5.9189 8.63859 5.82295L8.43754 2.60617Z" fill="#161823"/>
<path d="M3.62846 10.5197H16.3717L16.7858 16.9607C16.8229 17.5371 16.3654 18.0249 15.7879 18.0249H14.0539V13.3468C14.0539 12.9325 13.7181 12.5968 13.3039 12.5968C12.8897 12.5968 12.5539 12.9325 12.5539 13.3468V18.0249H10.7503V13.3468C10.7503 12.9325 10.4146 12.5968 10.0003 12.5968C9.58613 12.5968 9.25034 12.9325 9.25034 13.3468V18.0249H7.44688V13.3333C7.44688 12.9191 7.11109 12.5833 6.69688 12.5833C6.28266 12.5833 5.94688 12.9191 5.94688 13.3333L5.94688 18.0249H4.2122C3.63467 18.0249 3.1772 17.537 3.21426 16.9607L3.62846 10.5197Z" fill="#161823"/>
</svg>
