<svg width="24" height="24" viewBox="0 0 24 24" fill="none" xmlns="http://www.w3.org/2000/svg">
<path d="M16.8618 12.4971C17.6511 12.4971 18.29 11.8618 18.29 11.0778C18.29 10.2953 17.651 9.66 16.8618 9.66C16.0726 9.66 15.4328 10.2953 15.4328 11.0778C15.4328 11.8618 16.0726 12.4971 16.8618 12.4971Z" fill="#161823"/>
<path d="M12 2C17.4348 2 22 5.91936 22 10.94C22 13.4411 20.7866 15.5348 18.8736 17.4511C18.8138 17.511 18.7528 17.5707 18.6908 17.6302L21.5303 20.4697C21.8232 20.7626 21.8232 21.2374 21.5303 21.5303C21.2374 21.8232 20.7626 21.8232 20.4697 21.5303L2.46967 3.53033C2.17678 3.23744 2.17678 2.76256 2.46967 2.46967C2.76256 2.17678 3.23744 2.17678 3.53033 2.46967L5.33497 4.27431C7.11688 2.85357 9.46375 2 12 2ZM17.8121 16.3913C19.5685 14.6318 20.5 12.897 20.5 10.94C20.5 6.91415 16.7831 3.5 12 3.5C9.8331 3.5 7.88503 4.20071 6.40225 5.34158L11.0665 10.0058C11.3171 9.79036 11.6439 9.65991 12.0014 9.65991C12.7904 9.65991 13.43 10.2952 13.43 11.0777C13.43 11.4366 13.2959 11.7643 13.0749 12.0142L17.6299 16.5693C17.6919 16.5102 17.7527 16.4508 17.8121 16.3913Z" fill="#161823"/>
<path d="M3.49096 6.67308C3.40071 6.58283 3.25005 6.59903 3.18423 6.70838C2.43041 7.96075 2 9.39854 2 10.9402C2 15.7965 6.3494 19.006 11.3841 19.2972V19.499C11.3841 21.5753 12.7407 21.6605 13.9123 21.0012C14.5376 20.6493 15.3207 20.1847 16.1269 19.6438C16.2309 19.574 16.2446 19.4267 16.156 19.3381L15.3622 18.5443C15.2947 18.4768 15.189 18.4665 15.1094 18.519C14.4186 18.9743 13.7427 19.3754 13.1766 19.694C13.1044 19.7347 13.0411 19.7278 12.9869 19.6949C12.9298 19.6603 12.8841 19.5958 12.8841 19.499V18.5688C12.8841 18.1546 12.5483 17.8188 12.1341 17.8188C7.26084 17.8188 3.5 14.8911 3.5 10.9402C3.5 9.79865 3.79881 8.70633 4.336 7.72707C4.37953 7.64773 4.36675 7.54887 4.30276 7.48488L3.49096 6.67308Z" fill="#161823"/>
<path d="M6.58814 9.77026C6.07417 9.98492 5.71285 10.4898 5.71285 11.0778C5.71285 11.8618 6.35275 12.4971 7.14077 12.4971C7.73021 12.4971 8.2363 12.1429 8.45483 11.637L6.58814 9.77026Z" fill="#161823"/>
</svg>
