<svg width="24" height="24" viewBox="0 0 24 24" fill="none" xmlns="http://www.w3.org/2000/svg">
<path fill-rule="evenodd" clip-rule="evenodd" d="M12.2118 2.2794C12.076 2.24022 11.9319 2.2402 11.7961 2.27935L3.79225 4.58667C3.47113 4.67925 3.25 4.97313 3.25 5.30733V10.0369C3.25 15.3404 6.68578 20.0406 11.7668 21.7124C11.919 21.7625 12.0834 21.7625 12.2356 21.7124C17.3153 20.0405 20.75 15.3413 20.75 10.0391V5.30733C20.75 4.9732 20.529 4.67936 20.2079 4.58673L12.2118 2.2794ZM4.75 10.0369V5.87166L12.0037 3.78057L19.25 5.87151V10.0391C19.25 14.6021 16.3453 18.6698 12.0011 20.2075C7.65568 18.6698 4.75 14.6011 4.75 10.0369ZM9.28109 7.0699C9.04355 6.73057 8.57591 6.64804 8.23657 6.88558C7.89723 7.12311 7.81471 7.59076 8.05224 7.9301L10.6995 11.65H9C8.58579 11.65 8.25 11.9857 8.25 12.4C8.25 12.8142 8.58579 13.15 9 13.15H11.25V13.9833H9C8.58579 13.9833 8.25 14.3191 8.25 14.7333C8.25 15.1475 8.58579 15.4833 9 15.4833H11.25V17C11.25 17.4142 11.5858 17.75 12 17.75C12.4142 17.75 12.75 17.4142 12.75 17V15.4833H15C15.4142 15.4833 15.75 15.1475 15.75 14.7333C15.75 14.3191 15.4142 13.9833 15 13.9833H12.75V13.15H15C15.4142 13.15 15.75 12.8142 15.75 12.4C15.75 11.9857 15.4142 11.65 15 11.65H13.3005L15.9478 7.9301C16.1853 7.59076 16.1028 7.12311 15.7634 6.88558C15.4241 6.64804 14.9564 6.73057 14.7189 7.0699L12 10.8922L9.28109 7.0699Z" fill="#161823"/>
</svg>
