<svg width="20" height="20" viewBox="0 0 20 20" fill="none" xmlns="http://www.w3.org/2000/svg">
<path d="M11.8594 3.11278C11.3489 2.65896 10.5418 3.02138 10.5418 3.70448V7.08333C8.76255 7.08334 7.73481 7.08817 6.86905 7.30842C4.28025 7.96702 2.2588 9.98846 1.60021 12.5773C1.37497 13.4627 1.37502 14.5297 1.37512 16.4072C1.37512 16.4693 1.37463 16.5315 1.37563 16.5936C1.38516 17.2761 2.31924 17.5256 2.67872 16.9656L2.67942 16.9645C2.92079 16.5959 3.13089 16.209 3.39781 15.8571C4.41993 14.5096 5.96006 13.6522 7.64387 13.4934C8.59969 13.4032 9.5827 13.4667 10.5418 13.4667V16.2955C10.5418 16.9786 11.3489 17.341 11.8594 16.8872L18.5215 10.9654C19.0995 10.4516 19.0995 9.54841 18.5215 9.0346L11.8594 3.11278Z" fill="#161823"/>
</svg>
