<svg width="24" height="24" viewBox="0 0 24 24" fill="none" xmlns="http://www.w3.org/2000/svg">
<path fill-rule="evenodd" clip-rule="evenodd" d="M9.92057 6.52069C7.90431 8.53694 7.67823 11.6646 9.24136 13.9307C9.70001 14.5955 10.5999 14.5468 11.1085 14.0382C11.6429 13.5038 11.5837 12.6947 11.2767 12.1302C10.6298 10.9407 10.81 9.4213 11.8156 8.41573L14.8989 5.33241C15.9394 4.29196 17.6263 4.29196 18.6668 5.33241C19.7072 6.37287 19.7072 8.05979 18.6668 9.10024L16.9996 10.7674C16.4763 11.2907 16.4763 12.1392 16.9996 12.6625C17.5229 13.1858 18.3713 13.1858 18.8947 12.6625L20.5618 10.9953C22.6489 8.90823 22.6489 5.52443 20.5618 3.43737C18.4747 1.35031 15.091 1.3503 13.0039 3.43737L9.92057 6.52069Z" fill="#161823"/>
<path fill-rule="evenodd" clip-rule="evenodd" d="M5.33287 18.6664C4.2918 17.6254 4.2918 15.9375 5.33287 14.8964L6.9694 13.2599C7.4927 12.7366 7.4927 11.8881 6.9694 11.3648C6.4461 10.8415 5.59765 10.8415 5.07435 11.3648L3.43782 13.0014C1.35015 15.089 1.35015 18.4738 3.43782 20.5615C5.52549 22.6491 8.91027 22.6491 10.9979 20.5615L14.0812 17.4782C16.098 15.4614 16.3241 12.3327 14.7604 10.066C14.3017 9.4012 13.4018 9.44997 12.8932 9.95856C12.3589 10.4929 12.418 11.302 12.7251 11.8666C13.3725 13.0567 13.1923 14.577 12.1861 15.5832L9.1029 18.6664C8.06183 19.7075 6.37393 19.7075 5.33287 18.6664Z" fill="#161823"/>
</svg>
