<svg width="20" height="20" viewBox="0 0 20 20" fill="none" xmlns="http://www.w3.org/2000/svg">
<path fill-rule="evenodd" clip-rule="evenodd" d="M16.6663 7.90104C16.6663 10.3695 15.325 12.5246 13.3314 13.6773V14.2214C13.3314 14.6695 13.3314 14.8935 13.2442 15.0647C13.1675 15.2152 13.0451 15.3376 12.8945 15.4143C12.7234 15.5015 12.4993 15.5015 12.0512 15.5015H7.94488C7.49678 15.5015 7.27273 15.5015 7.10158 15.4143C6.95103 15.3376 6.82863 15.2152 6.75192 15.0647C6.66471 14.8935 6.66471 14.6695 6.66471 14.2214V13.6766C4.67184 12.5237 3.33105 10.3689 3.33105 7.90104C3.33105 4.2186 6.31626 1.2334 9.9987 1.2334C13.6811 1.2334 16.6663 4.2186 16.6663 7.90104ZM8.45828 9.40144L9.29744 9.5494L9.16667 10.0963C8.92832 11.0932 8.80915 11.5916 8.92535 11.7713C9.02538 11.926 9.20236 12.0131 9.38597 11.9981C9.59926 11.9807 9.92173 11.5824 10.5667 10.7859L12.1833 8.78921C12.5583 8.32611 12.7458 8.09455 12.7581 7.8802C12.7689 7.69318 12.7005 7.51024 12.5696 7.37617C12.4197 7.22251 12.1263 7.17078 11.5395 7.0673L10.7003 6.91934L10.8311 6.3724C11.0694 5.37558 11.1886 4.87717 11.0724 4.69747C10.9724 4.54278 10.7954 4.45561 10.6118 4.4706C10.3985 4.48802 10.076 4.8863 9.43106 5.68285L7.81442 7.67953C7.43946 8.14263 7.25198 8.37419 7.23963 8.58854C7.22885 8.77556 7.29726 8.9585 7.4281 9.09257C7.57805 9.24623 7.87146 9.29797 8.45828 9.40144Z" fill="#161823"/>
<path d="M7.49902 17.341C7.49817 17.355 7.49817 17.3716 7.49817 17.4049C7.49817 17.4952 7.49817 17.5404 7.50047 17.5785C7.53908 18.2181 8.04912 18.7281 8.68866 18.7667C8.7268 18.769 8.77196 18.769 8.86227 18.769H11.1341C11.2244 18.769 11.2695 18.769 11.3077 18.7667C11.9472 18.7281 12.4573 18.2181 12.4959 17.5785C12.4982 17.5404 12.4982 17.4952 12.4982 17.4049C12.4982 17.3716 12.4982 17.355 12.4973 17.341C12.4831 17.1053 12.2952 16.9174 12.0596 16.9032C12.0455 16.9024 12.0289 16.9024 11.9956 16.9024H8.00073C7.96746 16.9024 7.95082 16.9024 7.93677 16.9032C7.70115 16.9174 7.51324 17.1053 7.49902 17.341Z" fill="#161823"/>
</svg>
