<svg width="20" height="20" viewBox="0 0 20 20" fill="none" xmlns="http://www.w3.org/2000/svg">
<path d="M13.3333 5.25C13.3333 7.32107 11.8409 9 9.99996 9C8.15901 9 6.66663 7.32107 6.66663 5.25C6.66663 3.17893 8.15901 1.5 9.99996 1.5C11.8409 1.5 13.3333 3.17893 13.3333 5.25ZM11.8333 5.25C11.8333 3.83639 10.8513 3 9.99996 3C9.14865 3 8.16663 3.83639 8.16663 5.25C8.16663 6.66361 9.14865 7.5 9.99996 7.5C10.8513 7.5 11.8333 6.66361 11.8333 5.25Z" fill="#161823"/>
<path d="M10 10C8.00786 10 6.15542 10.497 4.75275 11.3874C3.36383 12.2691 2.25 13.6669 2.25 15.4394V16.0833C2.25 17.372 3.29467 18.4167 4.58333 18.4167H10.7908C10.9071 18.4167 10.9981 18.3176 11.0005 18.2014C11.0073 17.8763 11.0841 17.5524 11.2309 17.2543C11.3033 17.1071 11.2045 16.9167 11.0405 16.9167H4.58333C4.1231 16.9167 3.75 16.5436 3.75 16.0833V15.4394C3.75 13.2637 6.48438 11.5 10 11.5C10.4093 11.5 10.8081 11.5239 11.1932 11.5696C11.2721 11.579 11.3489 11.5414 11.394 11.476C11.729 10.99 12.2506 10.6534 12.8256 10.5403C12.9052 10.5246 12.9215 10.3802 12.843 10.3594C11.956 10.1241 10.9955 10 10 10Z" fill="#161823"/>
<path d="M19.2803 12.2181C19.5732 12.511 19.5732 12.9859 19.2803 13.2788L17.0607 15.4985L19.2803 17.7181C19.5732 18.011 19.5732 18.4859 19.2803 18.7788C18.9874 19.0717 18.5126 19.0717 18.2197 18.7788L16 16.5591L13.7803 18.7788C13.4874 19.0717 13.0126 19.0717 12.7197 18.7788C12.4268 18.4859 12.4268 18.011 12.7197 17.7181L14.9393 15.4985L12.7197 13.2788C12.4268 12.9859 12.4268 12.511 12.7197 12.2181C13.0126 11.9252 13.4874 11.9252 13.7803 12.2181L16 14.4378L18.2197 12.2181C18.5126 11.9252 18.9874 11.9252 19.2803 12.2181Z" fill="#161823"/>
</svg>
