<svg width="24" height="24" viewBox="0 0 24 24" fill="none" xmlns="http://www.w3.org/2000/svg">
<path d="M14 7.5C14 8.32843 13.3284 9 12.5 9C11.6716 9 11 8.32843 11 7.5C11 6.67157 11.6716 6 12.5 6C13.3284 6 14 6.67157 14 7.5Z" fill="#161823"/>
<path d="M18.0046 4.00345C16.2064 2.65318 14.0056 1.94841 11.7575 2.00294C9.50941 2.05748 7.34534 2.86814 5.61472 4.30403C3.8841 5.73991 2.68796 7.71719 2.21945 9.91658C1.75095 12.116 2.03742 14.4091 3.03262 16.4256C4.02782 18.4421 5.67365 20.0644 7.70433 21.0303C9.73502 21.9963 12.032 22.2497 14.2244 21.7495C16.2241 21.2932 18.0303 20.2344 19.4028 18.723C19.9293 18.1432 19.7643 17.2756 19.1641 16.8754L13.6327 13.1872L20.7842 10.4974C21.3756 10.275 21.737 9.62271 21.5318 8.97583C20.9035 6.99555 19.6724 5.25578 18.0046 4.00345ZM11.7939 3.5025C13.7047 3.45615 15.5754 4.0552 17.1039 5.20294C18.4518 6.21503 19.4641 7.60168 20.0195 9.18245L12.6484 11.9548C11.6953 12.3133 11.5478 13.5999 12.395 14.1648L18.0709 17.9494C16.9345 19.109 15.4849 19.9233 13.8908 20.287C12.0272 20.7122 10.0748 20.4969 8.34868 19.6758C6.6226 18.8547 5.22365 17.4758 4.37773 15.7618C3.53181 14.0477 3.2883 12.0986 3.68654 10.2291C4.08477 8.35961 5.10149 6.67892 6.57251 5.45842C8.04354 4.23792 9.883 3.54886 11.7939 3.5025Z" fill="#161823"/>
</svg>
