<svg width="24" height="24" viewBox="0 0 24 24" fill="none" xmlns="http://www.w3.org/2000/svg">
<path fill-rule="evenodd" clip-rule="evenodd" d="M12.0001 2.46631C6.50775 2.46631 1.9834 6.68841 1.9834 11.983C1.9834 14.01 2.65089 15.887 3.78281 17.4268L2.76383 19.0078C2.07059 20.0833 2.84275 21.4996 4.12234 21.4996H11.6001C11.6282 21.4996 11.6561 21.4981 11.6837 21.495C11.7888 21.4981 11.8942 21.4996 12.0001 21.4996C17.4924 21.4996 22.0167 17.2775 22.0167 11.983C22.0167 6.68841 17.4924 2.46631 12.0001 2.46631ZM12.3079 7.956C12.5621 7.62896 13.0333 7.56992 13.3603 7.82413C13.3603 7.82413 13.3601 7.82394 13.361 7.82462L13.3616 7.82514L13.3631 7.82626L13.3663 7.82883C13.3676 7.82983 13.369 7.83091 13.3704 7.83207L13.3744 7.8353C13.3805 7.84019 13.388 7.84626 13.3966 7.85351C13.414 7.86801 13.4365 7.88726 13.4632 7.91134C13.5167 7.95946 13.5877 8.02705 13.6702 8.11465C13.8349 8.28968 14.0468 8.54608 14.2563 8.88821C14.678 9.57678 15.0834 10.6024 15.0834 11.9829C15.0834 13.3634 14.678 14.3891 14.2563 15.0777C14.0468 15.4198 13.8349 15.6762 13.6702 15.8512C13.5877 15.9388 13.5167 16.0064 13.4632 16.0546C13.4365 16.0786 13.414 16.0979 13.3966 16.1124L13.3941 16.1145C13.3865 16.1208 13.3799 16.1262 13.3744 16.1306C13.3714 16.133 13.3687 16.1352 13.3663 16.1371L13.3631 16.1396L13.361 16.1413C13.3598 16.1422 13.3603 16.1418 13.3603 16.1418C13.0333 16.396 12.5621 16.3369 12.3079 16.0099C12.0551 15.6847 12.1121 15.2169 12.4343 14.9617L12.4357 14.9606C12.4393 14.9576 12.4477 14.9505 12.4601 14.9393C12.485 14.917 12.526 14.8783 12.5779 14.8232C12.6819 14.7127 12.8283 14.5372 12.9771 14.2943C13.2721 13.8127 13.5834 13.055 13.5834 11.9829C13.5834 10.9109 13.2721 10.1532 12.9771 9.67161C12.8283 9.42864 12.6819 9.25323 12.5779 9.14271C12.526 9.08754 12.485 9.04893 12.4601 9.02654C12.4477 9.01537 12.4393 9.00829 12.4357 9.00527L12.4344 9.00417C12.1121 8.74899 12.0551 8.28122 12.3079 7.956ZM10.1685 9.62557C9.86066 9.34844 9.38644 9.37334 9.10931 9.68119C8.83504 9.98587 8.8566 10.4535 9.15549 10.7317C9.15601 10.7323 9.15671 10.733 9.15757 10.7339C9.1634 10.7399 9.17652 10.7538 9.19469 10.7756C9.23117 10.8194 9.28675 10.8934 9.34442 10.9973C9.45823 11.2021 9.58339 11.5279 9.58339 11.9831C9.58339 12.4382 9.45823 12.7639 9.34444 12.9688C9.28677 13.0726 9.2312 13.1466 9.19472 13.1903C9.17656 13.2121 9.16344 13.2261 9.15762 13.232C9.15676 13.2329 9.15606 13.2336 9.15554 13.2342C8.85663 13.5124 8.83502 13.98 9.10925 14.2847C9.38635 14.5926 9.86056 14.6175 10.1684 14.3405C10.1684 14.3405 10.1686 14.3403 10.169 14.34L10.1696 14.3394L10.1707 14.3384L10.1733 14.3361C10.1751 14.3344 10.177 14.3326 10.1791 14.3307C10.1833 14.3268 10.1882 14.3222 10.1936 14.317C10.2045 14.3065 10.2178 14.2934 10.2331 14.2777C10.2638 14.2462 10.3027 14.2038 10.3471 14.1506C10.4356 14.0444 10.5467 13.8934 10.6557 13.6972C10.8752 13.3021 11.0834 12.7279 11.0834 11.9831C11.0834 11.2383 10.8752 10.664 10.6557 10.2688C10.5467 10.0726 10.4356 9.92164 10.3471 9.81541C10.3028 9.7622 10.2638 9.71987 10.2332 9.68836C10.2178 9.67258 10.2045 9.65948 10.1937 9.64903C10.1882 9.6438 10.1834 9.63924 10.1792 9.63533C10.1779 9.63414 10.1767 9.63301 10.1755 9.63195C10.1748 9.63126 10.174 9.63059 10.1733 9.62996L10.1708 9.62764L10.1696 9.62657L10.1691 9.62606C10.1684 9.62547 10.1685 9.62557 10.1685 9.62557Z" fill="#161823"/>
</svg>
