<svg width="20" height="20" viewBox="0 0 20 20" fill="none" xmlns="http://www.w3.org/2000/svg">
<path d="M10.0003 3.04167C6.15734 3.04167 3.04199 6.15702 3.04199 10C3.04199 13.843 6.15734 16.9583 10.0003 16.9583C10.4145 16.9583 10.7503 17.2941 10.7503 17.7083C10.7503 18.1226 10.4145 18.4583 10.0003 18.4583C5.32892 18.4583 1.54199 14.6714 1.54199 10C1.54199 5.3286 5.32892 1.54167 10.0003 1.54167C14.6717 1.54167 18.4587 5.3286 18.4587 10C18.4587 10.4142 18.1229 10.75 17.7087 10.75C17.2944 10.75 16.9587 10.4142 16.9587 10C16.9587 6.15702 13.8433 3.04167 10.0003 3.04167ZM13.6015 11.1151L9.40879 13.9759C8.51268 14.5874 7.2979 13.9456 7.2979 12.8608L7.2979 7.13922C7.2979 6.05439 8.51268 5.41264 9.40879 6.02407L13.6015 8.88485C14.387 9.42081 14.387 10.5792 13.6015 11.1151ZM12.3323 10.1652C12.4487 10.0858 12.4487 9.91419 12.3323 9.83479L9.11062 7.63653C8.97787 7.54595 8.7979 7.64103 8.7979 7.80174L8.7979 12.1983C8.7979 12.359 8.97787 12.454 9.11062 12.3635L12.3323 10.1652ZM12.917 18.46L19.1702 18.46C19.5845 18.46 19.9202 18.1242 19.9202 17.71C19.9202 17.2957 19.5845 16.96 19.1702 16.96L12.917 16.96C12.5028 16.96 12.167 17.2958 12.167 17.71C12.167 18.1242 12.5028 18.46 12.917 18.46ZM14.9372 15.2075C14.9372 14.7933 15.273 14.4575 15.6872 14.4575H19.1637C19.578 14.4575 19.9137 14.7933 19.9137 15.2075C19.9137 15.6217 19.578 15.9575 19.1637 15.9575H15.6872C15.273 15.9575 14.9372 15.6217 14.9372 15.2075ZM17.2236 11.9551C16.8094 11.9551 16.4736 12.2908 16.4736 12.7051C16.4736 13.1193 16.8094 13.4551 17.2236 13.4551H19.1637C19.5779 13.4551 19.9137 13.1193 19.9137 12.7051C19.9137 12.2908 19.578 11.9551 19.1637 11.9551H17.2236Z" fill="#161823"/>
</svg>
