<svg width="20" height="20" viewBox="0 0 20 20" fill="none" xmlns="http://www.w3.org/2000/svg">
<path d="M7.05776 7.77205C6.36014 7.77205 5.52717 7.09018 5.52717 5.90132C5.52717 4.71247 6.36014 4.03059 7.05776 4.03059C7.75539 4.03059 8.58836 4.71247 8.58836 5.90132C8.58836 7.09018 7.75539 7.77205 7.05776 7.77205ZM7.05776 9.30264C8.74841 9.30264 10.119 7.77982 10.119 5.90132C10.119 4.02282 8.74841 2.5 7.05776 2.5C5.36712 2.5 3.99657 4.02282 3.99657 5.90132C3.99657 7.77982 5.36712 9.30264 7.05776 9.30264ZM2.32198 11.5489C3.59834 10.7578 5.27082 10.323 7.05774 10.323C8.84467 10.323 10.5171 10.7578 11.7935 11.5489C13.0515 12.3285 14.1155 13.5993 14.1155 15.255V15.6801C14.1155 16.9951 13.0495 18.061 11.7346 18.061H2.38092C1.06597 18.061 0 16.9951 0 15.6801V15.255C0 13.5993 1.06399 12.3285 2.32198 11.5489ZM1.53059 15.255V15.6801C1.53059 16.1497 1.9113 16.5305 2.38092 16.5305H11.7346C12.2042 16.5305 12.5849 16.1497 12.5849 15.6801V15.255C12.5849 13.3765 10.1668 11.8536 7.05774 11.8536C3.94872 11.8536 1.53059 13.3765 1.53059 15.255ZM14.8825 6.45955C14.8825 5.58273 14.2772 5.15382 13.8604 5.15382C13.4436 5.15382 12.8383 5.58273 12.8383 6.45955C12.8383 7.33636 13.4436 7.76528 13.8604 7.76528C14.2772 7.76528 14.8825 7.33636 14.8825 6.45955ZM16.4131 6.45955C16.4131 8.026 15.2702 9.29587 13.8604 9.29587C12.4506 9.29587 11.3077 8.026 11.3077 6.45955C11.3077 4.89309 12.4506 3.62322 13.8604 3.62322C15.2702 3.62322 16.4131 4.89309 16.4131 6.45955ZM13.8604 10.45C13.7046 10.45 13.5497 10.4539 13.3959 10.4615C13.2107 10.4708 13.1468 10.7091 13.2917 10.8248C13.6901 11.1428 14.0693 11.5128 14.4019 11.9331C14.4371 11.9776 14.4894 12.0058 14.5459 12.0108C16.7999 12.2118 18.4694 13.3916 18.4694 14.8169V15.1715C18.4694 15.5631 18.1519 15.8806 17.7603 15.8806H15.8292C15.7194 15.8806 15.6307 15.9691 15.6242 16.0787C15.6025 16.444 15.5299 16.7951 15.4136 17.1245C15.3653 17.2612 15.4628 17.4111 15.6078 17.4111H17.7603C18.9973 17.4111 20 16.4084 20 15.1715V14.8169C20 13.3173 19.0364 12.1878 17.9434 11.5104C16.832 10.8216 15.3891 10.45 13.8604 10.45Z" fill="#161823"/>
</svg>
