<svg width="20" height="20" viewBox="0 0 20 20" fill="none" xmlns="http://www.w3.org/2000/svg">
<path d="M14.1137 8.85336L13.9461 7.84026C13.6325 5.94531 11.9836 4.5 10 4.5C8.26814 4.5 6.7897 5.60142 6.23427 7.14676L5.96073 7.9078L5.17461 8.09753C3.63926 8.46809 2.5 9.85285 2.5 11.5C2.5 13.433 4.067 15 6 15C6.41421 15 6.75 15.3358 6.75 15.75C6.75 16.1642 6.41421 16.5 6 16.5C3.23858 16.5 1 14.2614 1 11.5C1 9.1441 2.62936 7.16877 4.82268 6.6394C5.58536 4.51747 7.61547 3 10 3C12.7294 3 14.9945 4.98821 15.426 7.59537C17.467 8.02229 19 9.83212 19 12C19 14.4853 16.9853 16.5 14.5 16.5C14.0858 16.5 13.75 16.1642 13.75 15.75C13.75 15.3358 14.0858 15 14.5 15C16.1569 15 17.5 13.6569 17.5 12C17.5 10.5565 16.479 9.3481 15.1189 9.0636L14.1137 8.85336Z" fill="#161823"/>
<path d="M9.25012 8.5C9.25012 8.08579 9.58591 7.75 10.0001 7.75C10.4143 7.75 10.7501 8.08579 10.7501 8.5V13.8205L12.4749 12.0957C12.7678 11.8028 13.2427 11.8028 13.5356 12.0957C13.8285 12.3886 13.8285 12.8635 13.5356 13.1564L10.5304 16.1616C10.2375 16.4545 9.76264 16.4545 9.46975 16.1616L6.46454 13.1564C6.17165 12.8635 6.17165 12.3886 6.46454 12.0957C6.75744 11.8028 7.23231 11.8028 7.5252 12.0957L9.25012 13.8206V8.5Z" fill="#161823"/>
</svg>
