<svg width="24" height="24" viewBox="0 0 24 24" fill="none" xmlns="http://www.w3.org/2000/svg">
<path d="M15.9986 18.929C14.4733 19.8092 12.7002 20.1615 10.9544 19.9314C9.20846 19.7012 7.58729 18.9014 6.34227 17.656C5.09725 16.4106 4.29795 14.7891 4.06832 13.0432C3.83869 11.2972 4.19157 9.52426 5.07223 7.99928C5.95289 6.4743 7.31212 5.28251 8.93913 4.60873C10.5661 3.93495 12.37 3.81683 14.071 4.2727C15.7719 4.72857 17.275 5.73295 18.347 7.13008C19.419 8.5272 20 10.239 20 12C20 12.5523 20.4477 13 21 13C21.5523 13 22 12.5523 22 12C22 9.79875 21.2737 7.659 19.9337 5.9126C18.5937 4.16619 16.7149 2.91072 14.5887 2.34088C12.4625 1.77104 10.2077 1.91869 8.17391 2.76091C6.14015 3.60313 4.44111 5.09287 3.34028 6.9991C2.23946 8.90532 1.79836 11.1215 2.08539 13.304C2.37243 15.4864 3.37156 17.5132 4.92784 19.07C6.48411 20.6267 8.51057 21.6265 10.6929 21.9142C12.8753 22.2019 15.0916 21.7615 16.9982 20.6613C17.4766 20.3853 17.6406 19.7737 17.3645 19.2954C17.0885 18.817 16.4769 18.653 15.9986 18.929Z" fill="#161823"/>
</svg>
