<svg width="20" height="20" viewBox="0 0 20 20" fill="none" xmlns="http://www.w3.org/2000/svg">
<path d="M13.917 3.1665H9.41699C9.00653 3.1665 8.64228 3.36434 8.41439 3.66986H6.76956C7.09491 2.51389 8.15699 1.6665 9.41699 1.6665H13.917C15.4358 1.6665 16.667 2.89772 16.667 4.4165V12.2498C16.667 13.5679 15.7397 14.6694 14.502 14.9375V13.3548C14.8975 13.1449 15.167 12.7289 15.167 12.2498V4.4165C15.167 3.72615 14.6073 3.1665 13.917 3.1665Z" fill="#161823"/>
<path d="M5.75195 5.16986C4.23317 5.16986 3.00195 6.40108 3.00195 7.91986V15.7532C3.00195 17.272 4.23317 18.5032 5.75195 18.5032H10.252C11.7707 18.5032 13.002 17.272 13.002 15.7532V7.91986C13.002 6.40108 11.7707 5.16986 10.252 5.16986H5.75195Z" fill="#161823"/>
</svg>
