<svg width="20" height="20" viewBox="0 0 20 20" fill="none" xmlns="http://www.w3.org/2000/svg">
<path d="M9.99929 3.16998C9.04601 3.16998 8.09729 4.09985 8.09729 5.47998C8.09729 6.86011 9.04601 7.78998 9.99929 7.78998C10.9526 7.78998 11.9013 6.86011 11.9013 5.47998C11.9013 4.09985 10.9526 3.16998 9.99929 3.16998ZM6.59729 5.47998C6.59729 3.48013 8.02325 1.66998 9.99929 1.66998C11.9753 1.66998 13.4013 3.48013 13.4013 5.47998C13.4013 7.47984 11.9753 9.28998 9.99929 9.28998C8.02325 9.28998 6.59729 7.47984 6.59729 5.47998Z" fill="#161823"/>
<path d="M5.63872 13.0462C4.5701 13.8052 4.00488 14.7877 4.00488 15.798V15.915C4.00488 16.4213 4.41529 16.8317 4.92155 16.8317H15.077C15.5832 16.8317 15.9936 16.4213 15.9936 15.915V15.798C15.9936 14.7877 15.4284 13.8052 14.3598 13.0462C13.2914 12.2874 11.7621 11.7917 9.99926 11.7917C8.23639 11.7917 6.70715 12.2874 5.63872 13.0462ZM4.77014 11.8233C6.12547 10.8607 7.96841 10.2917 9.99926 10.2917C12.0301 10.2917 13.873 10.8607 15.2284 11.8233C16.5835 12.7858 17.4936 14.1815 17.4936 15.798V15.915C17.4936 17.2497 16.4117 18.3317 15.077 18.3317H4.92155C3.58686 18.3317 2.50488 17.2497 2.50488 15.915V15.798C2.50488 14.1815 3.41499 12.7858 4.77014 11.8233Z" fill="#161823"/>
</svg>
