<svg width="24" height="24" viewBox="0 0 24 24" fill="none" xmlns="http://www.w3.org/2000/svg">
<path d="M19.0805 22.1287C18.7876 22.4216 18.7876 22.8965 19.0805 23.1893C19.3734 23.4822 19.8483 23.4822 20.1412 23.1893L23.5776 19.7529C23.8705 19.46 23.8705 18.9851 23.5776 18.6923L20.1412 15.2558C19.8483 14.9629 19.3734 14.9629 19.0805 15.2558C18.7876 15.5487 18.7876 16.0236 19.0805 16.3165L21.2051 18.4411H17.4146C15.3436 18.4411 13.6646 20.1201 13.6646 22.1911V23.1C13.6646 23.5142 14.0004 23.85 14.4146 23.85C14.8289 23.85 15.1646 23.5142 15.1646 23.1V22.1911C15.1646 20.9485 16.172 19.9411 17.4146 19.9411H21.2681L19.0805 22.1287Z" fill="#161823"/>
<path d="M16.0001 6.50001C16.0001 8.9853 14.2092 11 12.0001 11C9.79096 11 8.0001 8.9853 8.0001 6.50001C8.0001 4.01473 9.79096 2.00002 12.0001 2.00002C14.2092 2.00002 16.0001 4.01473 16.0001 6.50001Z" fill="#161823"/>
<path d="M12 12.5C9.65629 12.5 7.49135 13.0852 5.86408 14.1182C4.25055 15.1424 3 16.7372 3 18.7273V19.5C3 20.8807 4.11929 22 5.5 22H11.975C12.0827 22 12.1706 21.9142 12.1783 21.8068C12.3758 19.0428 14.6555 17.1089 17.3262 16.9515C17.4813 16.9424 17.5804 16.7694 17.523 16.625C17.2125 15.8428 17.3705 14.9272 17.928 14.2935C18.0159 14.1936 18.0031 14.0344 17.8884 13.967C16.2922 13.0283 14.2268 12.5 12 12.5Z" fill="#161823"/>
</svg>
