<svg width="24" height="24" viewBox="0 0 24 24" fill="none" xmlns="http://www.w3.org/2000/svg">
<path fill-rule="evenodd" clip-rule="evenodd" d="M3 5C3 3.89543 3.89543 3 5 3H9.25C10.3546 3 11.25 3.89543 11.25 5V19C11.25 20.1046 10.3546 21 9.25 21H5C3.89543 21 3 20.1046 3 19V5ZM5 4.5C4.72386 4.5 4.5 4.72386 4.5 5V19C4.5 19.2761 4.72386 19.5 5 19.5H9.25C9.52614 19.5 9.75 19.2761 9.75 19V5C9.75 4.72386 9.52614 4.5 9.25 4.5H5Z" fill="#161823"/>
<path fill-rule="evenodd" clip-rule="evenodd" d="M21 19C21 20.1046 20.1046 21 19 21H14.75C13.6454 21 12.75 20.1046 12.75 19V15.5C12.75 14.3954 13.6454 13.5 14.75 13.5H19C20.1046 13.5 21 14.3954 21 15.5V19ZM19 19.5C19.2761 19.5 19.5 19.2761 19.5 19V15.5C19.5 15.2239 19.2761 15 19 15H14.75C14.4739 15 14.25 15.2239 14.25 15.5V19C14.25 19.2761 14.4739 19.5 14.75 19.5H19Z" fill="#161823"/>
<path fill-rule="evenodd" clip-rule="evenodd" d="M19 3C20.1046 3 21 3.89543 21 5V10C21 11.1046 20.1046 12 19 12H14.75C13.6454 12 12.75 11.1046 12.75 10V5C12.75 3.89543 13.6454 3 14.75 3H19ZM19.5 5C19.5 4.72386 19.2761 4.5 19 4.5H14.75C14.4739 4.5 14.25 4.72386 14.25 5V10C14.25 10.2761 14.4739 10.5 14.75 10.5H19C19.2761 10.5 19.5 10.2761 19.5 10V5Z" fill="#161823"/>
</svg>
