<svg width="20" height="20" viewBox="0 0 20 20" fill="none" xmlns="http://www.w3.org/2000/svg">
<path fill-rule="evenodd" clip-rule="evenodd" d="M5.41162 2C4.43622 2 3.55126 2.56869 3.12197 3.47925C2.89404 3.96271 2.61996 4.57279 2.36073 5.2242C2.30048 5.37561 2.24563 5.51848 2.1957 5.65311C2.1778 5.70138 2.15178 5.75677 2.11311 5.82921C1.83848 6.34363 1.68359 6.93726 1.68359 7.56515C1.68359 9.43622 3.08852 11.0667 4.95582 11.0667C5.97772 11.0667 6.86983 10.5696 7.46073 9.81856C8.06184 10.5899 8.97862 11.0667 10.0003 11.0667C11.0221 11.0667 11.9142 10.5696 12.5051 9.81863C13.1063 10.59 14.0231 11.0667 15.0447 11.0667C16.912 11.0667 18.3169 9.43622 18.3169 7.56515C18.3169 6.95417 18.1703 6.3756 17.9093 5.8709C17.8809 5.81587 17.8601 5.77177 17.8446 5.73275C17.7771 5.56309 17.6999 5.38184 17.6115 5.18902L16.8732 3.57805C16.4419 2.63709 15.5357 2 14.4995 2H5.41162ZM4.47874 4.11891C4.66804 3.7174 5.03453 3.5 5.41162 3.5H14.4995C14.8964 3.5 15.3 3.74562 15.5096 4.203L16.2479 5.81401C16.3259 5.98409 16.393 6.14183 16.4509 6.28721C16.4914 6.38908 16.5362 6.48107 16.5769 6.55981C16.7283 6.85269 16.8169 7.19515 16.8169 7.56515C16.8169 8.73332 15.9634 9.56667 15.0447 9.56667C14.397 9.56667 13.8161 9.20688 13.5053 8.61188L13.4057 8.39447C13.056 7.63152 11.9999 7.624 11.6363 8.37191L11.5307 8.57374L11.5303 8.57454C11.2093 9.19208 10.6273 9.56667 10.0003 9.56667C9.35264 9.56667 8.77176 9.20687 8.46099 8.61187L8.36135 8.39447C8.01169 7.63157 6.95568 7.624 6.592 8.37176L6.48642 8.57352L6.48593 8.57444C6.16493 9.19204 5.58284 9.56667 4.95582 9.56667C4.03714 9.56667 3.18359 8.73332 3.18359 7.56515C3.18359 7.18493 3.27719 6.83378 3.43635 6.53563C3.4903 6.43459 3.55099 6.31251 3.60211 6.17467C3.64781 6.05144 3.69841 5.91959 3.75443 5.77883C3.99911 5.16395 4.25983 4.58324 4.47874 4.11891Z" fill="#161823"/>
<path d="M16.937 12.8354C16.9934 12.4251 16.7065 12.0467 16.2961 11.9903C15.8858 11.9339 15.5074 12.2209 15.451 12.6313L15.0121 15.8261C14.9892 15.9286 14.8979 16.0869 14.65 16.2378C14.398 16.3912 14.0355 16.5 13.6156 16.5H6.3369C5.9124 16.5 5.54715 16.3889 5.29521 16.2334C5.04649 16.0799 4.95908 15.9204 4.93893 15.819L4.55083 12.6424C4.5006 12.2312 4.12657 11.9386 3.71541 11.9889C3.30426 12.0391 3.01167 12.4131 3.0619 12.8243L3.45234 16.02C3.45352 16.0297 3.45489 16.0394 3.45646 16.049C3.562 16.7004 3.9989 17.196 4.50736 17.5098C5.02082 17.8267 5.66469 18 6.3369 18H13.6156C14.2809 18 14.9188 17.8302 15.4299 17.5192C15.9358 17.2112 16.3729 16.7255 16.4899 16.0844C16.4919 16.0735 16.4937 16.0627 16.4951 16.0518L16.937 12.8354Z" fill="#161823"/>
<path d="M8.56464 12.4412C8.34997 12.1001 7.89936 11.9975 7.55817 12.2122C7.21699 12.4268 7.11443 12.8775 7.3291 13.2186C7.88859 14.1079 8.87951 14.7024 10.0105 14.7024C11.1415 14.7024 12.1324 14.1079 12.6919 13.2186C12.9066 12.8775 12.8041 12.4268 12.4629 12.2122C12.1217 11.9975 11.6711 12.1001 11.4564 12.4412C11.152 12.925 10.6175 13.2426 10.0105 13.2426C9.40357 13.2426 8.86903 12.925 8.56464 12.4412Z" fill="#161823"/>
</svg>
