<svg width="20" height="20" viewBox="0 0 20 20" fill="none" xmlns="http://www.w3.org/2000/svg">
<g clip-path="url(#clip0_2_2653)">
<path d="M10.5291 16.4688C9.28177 15.7449 8.03548 14.7388 6.88936 13.5927C5.74319 12.4466 4.74441 11.2075 4.02787 9.96703C3.31603 8.73466 2.8531 7.44931 2.8531 6.22542C2.8531 5.1209 3.22282 4.0793 4.09662 3.24349L4.09796 3.24221C4.6232 2.74229 5.30064 2.39591 6.02542 2.4037L6.0271 2.40372C6.61842 2.4114 7.22689 2.64514 7.64075 3.22789C7.64076 3.2279 7.64074 3.22787 7.64075 3.22789L9.20059 5.42398C9.48926 5.8239 9.69529 6.26395 9.69529 6.74936C9.69529 7.39025 9.3114 7.87454 8.9703 8.22664L8.96712 8.2299L8.63412 8.5695C8.88656 8.95374 9.41913 9.5836 10.1588 10.3233C10.8754 11.0399 11.5266 11.5769 11.9238 11.8536L12.2521 11.5253C12.6023 11.1751 13.0872 10.7872 13.7362 10.7919C14.2229 10.7862 14.6652 10.9979 15.058 11.2814L17.2919 12.8667C17.842 13.2669 18.0903 13.8578 18.0836 14.4443C18.0818 15.1721 17.7238 15.84 17.2524 16.3603L17.2501 16.3628C16.4448 17.2437 15.4345 17.6598 14.2875 17.6598C13.0613 17.6598 11.7674 17.1875 10.5291 16.4688ZM11.2821 15.1715C12.4003 15.8205 13.4281 16.1598 14.2875 16.1598C15.0302 16.1598 15.6325 15.9085 16.1419 15.352C16.4597 15.0008 16.5836 14.6746 16.5836 14.439L16.5836 14.4285C16.5855 14.2883 16.5365 14.1734 16.4123 14.0819L14.1819 12.499C13.9111 12.3032 13.7834 12.2912 13.7526 12.2918L13.7394 12.292L13.7263 12.2918C13.7185 12.2917 13.691 12.2913 13.6255 12.3283C13.5519 12.3699 13.4512 12.4475 13.3128 12.5859L12.7939 13.1047C12.5431 13.3556 12.2461 13.4263 12.012 13.4319C11.6704 13.4509 11.407 13.3003 11.3246 13.2531L11.3099 13.2447L11.2987 13.2378C10.7986 12.9282 9.96653 12.2523 9.09815 11.3839C8.24717 10.533 7.53739 9.70332 7.23012 9.14523L7.22675 9.1391C7.16046 9.016 7.06815 8.80134 7.05579 8.5418L7.054 8.50424L7.05598 8.4667C7.06813 8.23571 7.13997 7.97619 7.35043 7.73766L7.36349 7.72286L7.89294 7.18295C7.89344 7.18243 7.89393 7.18192 7.89443 7.18141C8.03178 7.03947 8.11112 6.93556 8.15506 6.85786C8.19506 6.78714 8.19529 6.7568 8.19529 6.74936C8.19529 6.70166 8.17624 6.56729 7.9831 6.30017L7.97938 6.29503L6.41784 4.0965C6.32841 3.97057 6.20763 3.90634 6.00834 3.9036C5.77796 3.90145 5.45962 4.0173 5.13288 4.328C4.58934 4.84819 4.3531 5.48097 4.3531 6.22542C4.3531 7.08703 4.68636 8.10807 5.32676 9.21676C5.96247 10.3173 6.87198 11.454 7.95002 12.5321C9.0281 13.6101 10.173 14.5278 11.2821 15.1715Z" fill="#161823"/>
</g>
<defs>
<clipPath id="clip0_2_2653">
<rect width="20" height="20" fill="white"/>
</clipPath>
</defs>
</svg>
