<svg width="24" height="24" viewBox="0 0 24 24" fill="none" xmlns="http://www.w3.org/2000/svg">
<path d="M4.75 5.5C3.50736 5.5 2.5 6.50736 2.5 7.75V16.25C2.5 17.4926 3.50736 18.5 4.75 18.5H7.88963L7.01838 19.345C6.81267 19.5445 6.65967 19.7667 6.55472 20H4.75C2.67893 20 1 18.3211 1 16.25V7.75C1 5.67893 2.67893 4 4.75 4H19.25C21.3211 4 23 5.67893 23 7.75V16.25C23 18.3211 21.3211 20 19.25 20H17.4453C17.3404 19.7667 17.1874 19.5445 16.9817 19.345L16.1104 18.5H19.25C20.4926 18.5 21.5 17.4926 21.5 16.25V7.75C21.5 6.50736 20.4926 5.5 19.25 5.5H4.75Z" fill="#161823"/>
<path d="M11.3038 17.2782C11.6917 16.902 12.3083 16.902 12.6962 17.2782L15.9373 20.4218C16.3242 20.797 16.0586 21.4525 15.5196 21.4525H8.48042C7.94144 21.4525 7.67579 20.797 8.06269 20.4218L11.3038 17.2782Z" fill="#161823"/>
</svg>
