<svg width="20" height="20" viewBox="0 0 20 20" fill="none" xmlns="http://www.w3.org/2000/svg">
<path fill-rule="evenodd" clip-rule="evenodd" d="M4.38075 7.97958C5.03564 5.45174 7.33252 3.55066 10.1072 3.55066C12.8904 3.55066 15.1953 5.46439 15.8407 8.00759C14.7501 7.79932 13.813 8.66262 13.7241 9.69302C13.6621 10.412 13.5817 11.2262 13.5033 11.7115C13.4383 12.1134 13.3356 12.6798 13.234 13.2231C13.0385 14.2688 13.6934 15.2672 14.6731 15.5198C14.5579 15.6113 14.4329 15.6965 14.2978 15.7757C13.7309 16.108 12.9595 16.3506 11.9408 16.4807C11.7042 16.0309 11.2324 15.7242 10.6889 15.7242C9.90823 15.7242 9.27537 16.357 9.27537 17.1377C9.27537 17.9184 9.90823 18.5512 10.6889 18.5512C11.1421 18.5512 11.5455 18.3379 11.8042 18.0062C13.1125 17.8721 14.2003 17.5716 15.0564 17.0698C15.8125 16.6265 16.3623 16.0412 16.7204 15.332C16.9527 15.2535 17.1577 15.161 17.3281 15.0729C17.9428 14.755 18.2535 14.1582 18.3495 13.6042C18.4273 13.1557 18.5306 12.531 18.5708 12.1466C18.591 11.9531 18.6187 11.6919 18.6475 11.4234C18.7508 10.4584 18.4714 9.3524 17.4856 8.72723C17.1203 5.01223 13.9839 2.05066 10.1072 2.05066C6.2768 2.05066 3.17271 4.94059 2.74373 8.58731C2.72575 8.59775 2.7079 8.60829 2.69019 8.61894C2.63249 8.65361 2.57717 8.68761 2.52412 8.72092C1.53023 9.34494 1.24856 10.4552 1.35221 11.4234C1.38095 11.6919 1.40873 11.9531 1.42895 12.1466C1.46909 12.531 1.57239 13.1557 1.65015 13.6042C1.74621 14.1582 2.05688 14.755 2.67164 15.0729C3.0071 15.2464 3.47722 15.437 4.02444 15.5039C4.22068 15.5279 4.43143 15.5505 4.64137 15.5711C5.97844 15.7024 7.00401 14.4979 6.76567 13.2231C6.6641 12.6798 6.56138 12.1134 6.49641 11.7115C6.41797 11.2262 6.33762 10.412 6.27559 9.69302C6.19278 8.7332 5.37398 7.91837 4.38075 7.97958ZM4.38663 9.49566C4.47368 9.46546 4.55252 9.47947 4.6247 9.53125C4.70288 9.58734 4.76965 9.68879 4.78114 9.82196C4.84272 10.5357 4.92705 11.4028 5.01563 11.9508C5.08375 12.3723 5.18939 12.9541 5.29122 13.4988C5.35451 13.8373 5.08437 14.1074 4.78803 14.0783C4.58593 14.0584 4.38755 14.0371 4.20648 14.015C3.89036 13.9764 3.59478 13.8616 3.36058 13.7405C3.27123 13.6943 3.16746 13.5749 3.1281 13.3479C3.04894 12.8914 2.95484 12.3165 2.92083 11.9909C2.90041 11.7953 2.87246 11.5325 2.84369 11.2638C2.77836 10.6535 2.97112 10.2114 3.32173 9.99128C3.36637 9.96325 3.4134 9.93435 3.4629 9.90459C3.71288 9.75435 4.04252 9.61506 4.38663 9.49566ZM15.375 9.53125C15.4472 9.47947 15.526 9.46546 15.6131 9.49566C15.9572 9.61506 16.2868 9.75435 16.5368 9.90459C16.5863 9.93435 16.6333 9.96325 16.678 9.99128C17.0286 10.2114 17.2213 10.6535 17.156 11.2638C17.1272 11.5325 17.0993 11.7953 17.0789 11.9909C17.0449 12.3165 16.9508 12.8914 16.8716 13.3479C16.8322 13.5749 16.7285 13.6943 16.6391 13.7405C16.4049 13.8616 16.1093 13.9764 15.7932 14.015C15.6121 14.0371 15.4138 14.0584 15.2117 14.0783C14.9153 14.1074 14.6452 13.8373 14.7085 13.4988C14.8103 12.9541 14.916 12.3723 14.9841 11.9508C15.0726 11.4028 15.157 10.5357 15.2186 9.82196C15.2301 9.68879 15.2968 9.58734 15.375 9.53125Z" fill="#161823"/>
</svg>
