<svg width="20" height="20" viewBox="0 0 20 20" fill="none" xmlns="http://www.w3.org/2000/svg">
<path d="M2.34575 4.52963C1.91748 4.86272 1.66699 5.37489 1.66699 5.91744V15.9931C1.66699 16.5027 2.21912 16.8208 2.65997 16.5651L3.28499 16.2027C5.00599 15.2049 7.0986 15.209 8.7931 16.1464C9.00518 16.2637 9.28064 16.1178 9.28064 15.8754V4.67279C9.28064 4.56833 9.22631 4.4714 9.1372 4.41689L8.73597 4.17141C6.73885 2.94959 4.1938 3.09225 2.34575 4.52963Z" fill="#161823"/>
<path d="M10.9223 4.41683C10.8342 4.47158 10.7806 4.56792 10.7806 4.67162V15.8608C10.7806 16.1009 11.0512 16.2469 11.2628 16.1336C12.9775 15.215 15.078 15.2302 16.8024 16.2422L17.3459 16.5612C17.7831 16.8178 18.3336 16.5025 18.3336 15.9956V5.9121C18.3336 5.37291 18.0847 4.86392 17.6591 4.5329C15.811 3.0955 13.2631 2.96176 11.2747 4.19778L10.9223 4.41683Z" fill="#161823"/>
</svg>
