<svg width="24" height="24" viewBox="0 0 24 24" fill="none" xmlns="http://www.w3.org/2000/svg">
<path d="M10.1248 3.74611C10.0572 2.66442 10.9162 1.75 12 1.75C13.0838 1.75 13.9429 2.66442 13.8753 3.74611L13.6383 7.53752C13.6311 7.65266 13.7225 7.75 13.8379 7.75H19.25C20.3546 7.75 21.25 8.64543 21.25 9.75C21.25 10.8546 20.3546 11.75 19.25 11.75H4.75C3.64543 11.75 2.75 10.8546 2.75 9.75C2.75 8.64543 3.64543 7.75 4.75 7.75H10.1621C10.2775 7.75 10.3689 7.65266 10.3617 7.53752L10.1248 3.74611Z" fill="#161823"/>
<path d="M3.42139 21.5624L3.94204 13.2479L20.0979 13.2465L20.6186 21.5624C20.6673 22.3397 20.05 22.9968 19.2713 22.9968H17V17.7607C17 17.3465 16.6642 17.0107 16.25 17.0107C15.8358 17.0107 15.5 17.3465 15.5 17.7607V22.9968H12.7499V17.7607C12.7499 17.3465 12.4142 17.0107 11.9999 17.0107C11.5857 17.0107 11.2499 17.3465 11.2499 17.7607V22.9968H8.5V17.7496C8.5 17.3354 8.16421 16.9996 7.75 16.9996C7.33579 16.9996 7 17.3354 7 17.7496V22.9968H4.76875C3.98998 22.9968 3.37272 22.3397 3.42139 21.5624Z" fill="#161823"/>
</svg>
