<svg width="24" height="24" viewBox="0 0 24 24" fill="none" xmlns="http://www.w3.org/2000/svg">
<path d="M10.3041 8.9826C8.59452 8.9826 7.26027 10.3699 7.26027 12.2386C7.26027 13.2835 7.69911 14.2666 8.37988 15.1441C9.05969 16.0204 10.0096 16.8308 11.1183 17.5534C11.2156 17.6189 11.3337 17.6917 11.4589 17.7512C11.5677 17.8028 11.7663 17.8864 11.9979 17.8864C12.2278 17.8864 12.4264 17.8039 12.5356 17.7527C12.6619 17.6935 12.7817 17.6206 12.8815 17.5535C13.9901 16.8308 14.9401 16.0205 15.6199 15.1441C16.3007 14.2666 16.7395 13.2835 16.7395 12.2386C16.7395 10.3699 15.4053 8.9826 13.6957 8.9826C13.008 8.9826 12.4397 9.22514 12.0003 9.6058C11.5604 9.22404 10.9898 8.9826 10.3041 8.9826ZM8.76027 12.2386C8.76027 11.1197 9.4994 10.4826 10.3041 10.4826C10.7632 10.4826 11.1069 10.7175 11.3349 11.1486L11.9899 12.3867L12.6573 11.1552C12.8957 10.7153 13.2391 10.4826 13.6957 10.4826C14.5004 10.4826 15.2395 11.1197 15.2395 12.2386C15.2395 12.8508 14.9825 13.5187 14.4347 14.2247C13.887 14.9307 13.0776 15.6356 12.0579 16.2998L12.0476 16.3066C12.0313 16.3176 12.0153 16.3281 11.9998 16.3378C11.9845 16.3281 11.9686 16.3177 11.9522 16.3066L11.9419 16.2998C10.9222 15.6356 10.1128 14.9307 9.56506 14.2247C9.01732 13.5187 8.76027 12.8508 8.76027 12.2386Z" fill="#161823"/>
<path d="M2.39547 11.6343L3.23488 10.9219V19.8801C3.23488 20.8466 4.01838 21.6301 4.98488 21.6301H19.0151C19.9816 21.6301 20.7651 20.8466 20.7651 19.8801V10.922L21.6043 11.6343C21.9201 11.9023 22.3934 11.8635 22.6614 11.5477C22.9295 11.2319 22.8907 10.7586 22.5749 10.4906L13.1323 2.47678C12.4791 1.92245 11.5207 1.92246 10.8675 2.47678L1.42487 10.4906C1.10906 10.7586 1.07032 11.2319 1.33835 11.5477C1.60637 11.8635 2.07966 11.9023 2.39547 11.6343ZM12.1617 3.62043L19.2651 9.64896V19.8801C19.2651 20.0182 19.1531 20.1301 19.0151 20.1301H4.98488C4.84681 20.1301 4.73488 20.0182 4.73488 19.8801V9.64884L11.8381 3.62043C11.9314 3.54124 12.0684 3.54124 12.1617 3.62043Z" fill="#161823"/>
</svg>
