<svg width="20" height="20" viewBox="0 0 20 20" fill="none" xmlns="http://www.w3.org/2000/svg">
<path d="M4.99987 1.00066C4.58565 1.00066 4.24987 1.33644 4.24987 1.75066C4.24987 2.16487 4.58565 2.50066 4.99987 2.50066H14.9999C15.4141 2.50066 15.7499 2.16487 15.7499 1.75066C15.7499 1.33644 15.4141 1.00066 14.9999 1.00066H4.99987Z" fill="#161823"/>
<path d="M10.5314 3.7209C10.3907 3.57949 10.1994 3.5 9.99987 3.5C9.80035 3.5 9.60906 3.57949 9.46831 3.7209L3.10093 10.1178C2.36859 10.8535 2.8897 12.1075 3.92779 12.1075H6.98596V18.25C6.98596 18.6642 7.32174 19 7.73596 19H12.2638C12.678 19 13.0138 18.6642 13.0138 18.25V12.1075H16.0719C17.11 12.1075 17.6311 10.8535 16.8988 10.1178L10.5314 3.7209ZM4.97054 10.6075C4.88156 10.6075 4.8369 10.5 4.89967 10.4369L9.92899 5.38432C9.96808 5.34505 10.0317 5.34505 10.0707 5.38432L15.1001 10.4369C15.1628 10.5 15.1182 10.6075 15.0292 10.6075H12.2638C11.8496 10.6075 11.5138 10.9433 11.5138 11.3575V17.4C11.5138 17.4552 11.469 17.5 11.4138 17.5H8.58596C8.53073 17.5 8.48596 17.4552 8.48596 17.4V11.3575C8.48596 10.9433 8.15017 10.6075 7.73596 10.6075H4.97054Z" fill="#161823"/>
</svg>
