<svg width="16" height="16" viewBox="0 0 16 16" fill="none" xmlns="http://www.w3.org/2000/svg">
<path d="M12.0008 1.66675H3.99922C3.4512 1.66675 2.9306 1.94765 2.63791 2.43201C2.42067 2.79153 2.03417 3.44585 1.69913 4.0924C1.53229 4.41438 1.36954 4.75097 1.24603 5.05725C1.14088 5.31797 1 5.70509 1 6.06675C1 7.33391 2.05624 8.46675 3.4 8.46675C3.9832 8.46675 4.5176 8.2589 4.93334 7.91316C5.34907 8.2589 5.88347 8.46675 6.46667 8.46675C7.04987 8.46675 7.58426 8.2589 8 7.91317C8.41574 8.2589 8.95013 8.46675 9.53333 8.46675C10.1165 8.46675 10.6509 8.2589 11.0667 7.91316C11.4824 8.2589 12.0168 8.46675 12.6 8.46675C13.9438 8.46675 15 7.33392 15 6.06675C15 5.70509 14.8591 5.31797 14.754 5.05724C14.6305 4.75097 14.4677 4.41438 14.3009 4.0924C13.9658 3.44585 13.5793 2.79153 13.3621 2.43201C13.0694 1.94765 12.5488 1.66675 12.0008 1.66675Z" fill="#161823"/>
<path d="M2.66663 12.5668V9.80025C2.81512 9.81914 2.96672 9.82891 3.12094 9.82891C3.70708 9.82891 4.26041 9.68943 4.74965 9.4418C5.23889 9.68943 5.79222 9.82891 6.37837 9.82891C6.96451 9.82891 7.51784 9.68943 8.00708 9.44181C8.49632 9.68943 9.04964 9.82891 9.63579 9.82891C10.2219 9.82891 10.7753 9.68943 11.2645 9.4418C11.7537 9.68943 12.3071 9.82891 12.8932 9.82891C13.0425 9.82891 13.1894 9.81975 13.3333 9.80202V12.5668C13.3333 13.4504 12.617 14.1668 11.7333 14.1668H4.26662C3.38297 14.1668 2.66663 13.4504 2.66663 12.5668Z" fill="#161823"/>
</svg>
