<svg width="20" height="20" viewBox="0 0 20 20" fill="none" xmlns="http://www.w3.org/2000/svg">
<path d="M11.4679 10.0663C11.6465 9.15435 11.5153 8.68267 11.3726 8.16991C11.2446 7.70984 11.1074 7.2167 11.1766 6.34285C11.3941 3.59397 13.2351 0.607488 15.6927 1.04247C18.1503 1.47744 19.3978 5.31594 18.8869 7.70754C18.5919 9.08871 18.0375 9.94587 17.6149 10.5992C17.4189 10.9023 17.2512 11.1616 17.151 11.409C17.0169 11.7398 16.9708 11.99 16.9135 12.301C16.8356 12.7236 16.737 13.2584 16.3689 14.2604C15.73 15.9997 14.2512 16.89 12.4524 16.3267C10.6536 15.7634 10.3968 13.7643 10.5765 12.8813C10.7369 12.093 10.8724 11.8157 11.0084 11.5373C11.1511 11.2453 11.2944 10.9519 11.4679 10.0663ZM12.6732 6.41021C12.6244 7.02722 12.7071 7.32448 12.8214 7.7356L12.8439 7.81667C13.012 8.42582 13.1699 9.13573 12.9416 10.3013C12.9149 10.4374 12.8885 10.5628 12.8622 10.6789L15.5672 11.4735C15.6145 11.2967 15.6758 11.1045 15.7594 10.8983C15.8957 10.5618 16.0854 10.2559 16.2314 10.0269C16.2803 9.95008 16.3265 9.87874 16.3711 9.80976C16.4785 9.64375 16.5773 9.49094 16.6854 9.30832C16.9648 8.83655 17.2447 8.26055 17.4183 7.44761C17.6005 6.59503 17.4761 5.3402 17.0146 4.24898C16.5358 3.11678 15.8941 2.59124 15.3812 2.50046C14.9153 2.418 14.3681 2.60232 13.7809 3.36769C13.1889 4.1394 12.7623 5.28519 12.6732 6.41021ZM15.2443 12.9326L12.3825 12.0919L12.367 12.1238L12.3453 12.1678C12.2579 12.3445 12.1719 12.5183 12.048 13.127C12.0143 13.2926 12.0099 13.7293 12.1752 14.1513C12.3235 14.5297 12.5603 14.7921 12.9486 14.9137C13.5105 15.0897 13.8919 15.0091 14.1496 14.8678C14.4261 14.7163 14.7396 14.3945 14.9594 13.7962C15.0879 13.4464 15.1781 13.1655 15.2443 12.9326Z" fill="#161823"/>
<path d="M8.69484 10.5894C8.57406 11.1078 8.46295 11.5846 8.68006 12.4881C8.89092 13.3656 9.04657 13.6526 9.20152 13.9383C9.34925 14.2108 9.49635 14.482 9.69005 15.2628C9.90701 16.1374 9.73521 18.1456 7.96193 18.7846C6.18865 19.4236 4.67344 18.5968 3.9613 16.8861C3.55104 15.9006 3.42988 15.3705 3.33413 14.9516C3.26368 14.6433 3.207 14.3953 3.05904 14.0704C2.94841 13.8275 2.76989 13.5756 2.56115 13.281C2.11127 12.6462 1.52104 11.8133 1.16767 10.4459C0.555798 8.07808 1.63948 4.19017 4.0764 3.65144C6.51332 3.11272 8.47934 6.0185 8.81323 8.75569C8.91938 9.62583 8.80322 10.1243 8.69484 10.5894ZM7.2289 10.2169C7.3257 9.8013 7.3957 9.5008 7.32075 8.88641C7.1841 7.76618 6.70923 6.63949 6.08503 5.89356C5.46596 5.15377 4.91142 4.9928 4.44942 5.09493C3.94086 5.20736 3.32198 5.75962 2.89163 6.9111C2.47686 8.02089 2.40579 9.27986 2.62392 10.124C2.83191 10.9288 3.13599 11.4924 3.43506 11.9519C3.55083 12.1298 3.65576 12.2779 3.77008 12.4392C3.81765 12.5063 3.86694 12.5758 3.91921 12.6507C4.07473 12.8732 4.27721 13.1708 4.42771 13.5012C4.51994 13.7037 4.58938 13.8931 4.64413 14.0678L7.31297 13.1593C7.28179 13.0444 7.25007 12.9202 7.21767 12.7854C6.94016 11.6305 7.06774 10.9146 7.20987 10.2988L7.2289 10.2169ZM7.85216 14.5507L5.02864 15.5119C5.10458 15.7418 5.20668 16.0186 5.34991 16.3627C5.59484 16.951 5.92172 17.2593 6.20438 17.399C6.46784 17.5292 6.85233 17.5936 7.40628 17.394C7.7891 17.256 8.01456 16.9838 8.14663 16.5994C8.29387 16.1708 8.27092 15.7347 8.23024 15.5707C8.08068 14.9678 7.98739 14.7978 7.89252 14.6249L7.86899 14.5819C7.86337 14.5715 7.85776 14.5611 7.85216 14.5507Z" fill="#161823"/>
</svg>
