<svg width="24" height="24" viewBox="0 0 24 24" fill="none" xmlns="http://www.w3.org/2000/svg">
<path d="M7.99998 7.60001C7.50292 7.60001 7.09998 8.00295 7.09998 8.50001C7.09998 8.99706 7.50292 9.40001 7.99998 9.40001H16C16.497 9.40001 16.9 8.99706 16.9 8.50001C16.9 8.00295 16.497 7.60001 16 7.60001H7.99998Z" fill="#161823"/>
<path d="M7.99998 11.1C7.50292 11.1 7.09998 11.5029 7.09998 12C7.09998 12.4971 7.50292 12.9 7.99998 12.9H16C16.497 12.9 16.9 12.4971 16.9 12C16.9 11.5029 16.497 11.1 16 11.1H7.99998Z" fill="#161823"/>
<path d="M7.09998 15.5C7.09998 15.0029 7.50292 14.6 7.99998 14.6H16C16.497 14.6 16.9 15.0029 16.9 15.5C16.9 15.9971 16.497 16.4 16 16.4H7.99998C7.50292 16.4 7.09998 15.9971 7.09998 15.5Z" fill="#161823"/>
<path d="M22 12C22 17.5228 17.5228 22 12 22C6.47715 22 2 17.5228 2 12C2 6.47715 6.47715 2 12 2C17.5228 2 22 6.47715 22 12ZM20.5 12C20.5 7.30558 16.6944 3.5 12 3.5C7.30558 3.5 3.5 7.30558 3.5 12C3.5 16.6944 7.30558 20.5 12 20.5C16.6944 20.5 20.5 16.6944 20.5 12Z" fill="#161823"/>
</svg>
