<svg width="20" height="20" viewBox="0 0 20 20" fill="none" xmlns="http://www.w3.org/2000/svg">
<path d="M10.7189 1.05448C10.808 0.646985 11.2111 0.388454 11.6195 0.477519C14.318 1.06593 16.4469 3.1687 17.0704 5.85031C17.1648 6.25653 16.9117 6.66258 16.5045 6.75701C16.0973 6.85145 15.6908 6.59825 15.5963 6.19196C15.1048 4.07784 13.4233 2.41737 11.2967 1.95365C10.8883 1.8646 10.6298 1.46191 10.7189 1.05448Z" fill="#161823"/>
<path d="M8.64934 1.18286C8.78902 1.57588 8.58332 2.00779 8.18944 2.14743C5.99391 2.92577 4.4234 5.01876 4.4234 7.47624C4.4234 10.5984 6.95754 13.129 10.0831 13.129C12.5727 13.129 14.6889 11.523 15.4457 9.28924C15.5796 8.8941 16.009 8.6819 16.405 8.81572C16.8009 8.94951 17.013 9.37834 16.8792 9.77338C15.9209 12.602 13.2413 14.6399 10.0831 14.6399C6.12141 14.6399 2.91016 11.4324 2.91016 7.47624C2.91016 4.35948 4.90279 1.70925 7.68312 0.723591C8.0771 0.583923 8.50962 0.789746 8.64934 1.18286Z" fill="#161823"/>
<path d="M6.2002 16.3999C6.2002 15.9912 6.5315 15.6599 6.9402 15.6599H13.0602C13.4689 15.6599 13.8002 15.9912 13.8002 16.3999C13.8002 16.8086 13.4689 17.1399 13.0602 17.1399H6.9402C6.5315 17.1399 6.2002 16.8086 6.2002 16.3999Z" fill="#161823"/>
<path d="M7.76025 18.8999C7.76025 18.4912 8.09156 18.1599 8.50025 18.1599H11.5003C11.9089 18.1599 12.2403 18.4912 12.2403 18.8999C12.2403 19.3086 11.9089 19.6399 11.5003 19.6399H8.50025C8.09156 19.6399 7.76025 19.3086 7.76025 18.8999Z" fill="#161823"/>
</svg>
