<svg width="16" height="16" viewBox="0 0 16 16" fill="none" xmlns="http://www.w3.org/2000/svg">
<path d="M7.99971 3.78101C6.55262 3.78101 5.37952 4.9541 5.37952 6.4012C5.37952 7.84829 6.55262 9.02139 7.99971 9.02139C9.4468 9.02139 10.6199 7.84829 10.6199 6.4012C10.6199 4.9541 9.4468 3.78101 7.99971 3.78101ZM6.77952 6.4012C6.77952 5.7273 7.32581 5.18101 7.99971 5.18101C8.6736 5.18101 9.2199 5.7273 9.2199 6.4012C9.2199 7.07509 8.6736 7.62139 7.99971 7.62139C7.32581 7.62139 6.77952 7.07509 6.77952 6.4012Z" fill="#161823"/>
<path d="M7.99485 0.604004C4.82603 0.604004 2.19922 3.04214 2.19922 6.11927C2.19922 8.02468 3.15163 9.99036 4.19823 11.5917C5.2564 13.2108 6.47147 14.5477 7.11412 15.213C7.5988 15.7148 8.3909 15.7148 8.87558 15.213C9.51823 14.5477 10.7333 13.2108 11.7915 11.5917C12.8381 9.99036 13.7905 8.02468 13.7905 6.11927C13.7905 3.04214 11.1637 0.604004 7.99485 0.604004ZM3.69922 6.11927C3.69922 3.95038 5.57231 2.104 7.99485 2.104C10.4174 2.104 12.2905 3.95038 12.2905 6.11927C12.2905 7.57647 11.5386 9.23681 10.5359 10.7711C9.64868 12.1285 8.63349 13.2852 7.99485 13.9631C7.3562 13.2852 6.34102 12.1285 5.45384 10.7711C4.45109 9.23681 3.69922 7.57647 3.69922 6.11927Z" fill="#161823"/>
</svg>
