<svg width="20" height="20" viewBox="0 0 20 20" fill="none" xmlns="http://www.w3.org/2000/svg">
<path fill-rule="evenodd" clip-rule="evenodd" d="M2 4C2 2.89543 2.89543 2 4 2H7C8.10457 2 9 2.89543 9 4V7.25C9 8.35457 8.10457 9.25 7 9.25H4C2.89543 9.25 2 8.35457 2 7.25V4ZM4 3.5H7C7.27614 3.5 7.5 3.72386 7.5 4V7.25C7.5 7.52614 7.27614 7.75 7 7.75H4C3.72386 7.75 3.5 7.52614 3.5 7.25V4C3.5 3.72386 3.72386 3.5 4 3.5Z" fill="#161823"/>
<path d="M11.5 2.75C11.0858 2.75 10.75 3.08579 10.75 3.5C10.75 3.91421 11.0858 4.25 11.5 4.25H17.5C17.9142 4.25 18.25 3.91421 18.25 3.5C18.25 3.08579 17.9142 2.75 17.5 2.75H11.5Z" fill="#161823"/>
<path d="M11.5 6.75C11.0858 6.75 10.75 7.08579 10.75 7.5C10.75 7.91421 11.0858 8.25 11.5 8.25H15.5C15.9142 8.25 16.25 7.91421 16.25 7.5C16.25 7.08579 15.9142 6.75 15.5 6.75H11.5Z" fill="#161823"/>
<path d="M10.75 12.5C10.75 12.0858 11.0858 11.75 11.5 11.75H17.5C17.9142 11.75 18.25 12.0858 18.25 12.5C18.25 12.9142 17.9142 13.25 17.5 13.25H11.5C11.0858 13.25 10.75 12.9142 10.75 12.5Z" fill="#161823"/>
<path d="M10.75 16.5C10.75 16.0858 11.0858 15.75 11.5 15.75H17.5C17.9142 15.75 18.25 16.0858 18.25 16.5C18.25 16.9142 17.9142 17.25 17.5 17.25H11.5C11.0858 17.25 10.75 16.9142 10.75 16.5Z" fill="#161823"/>
<path fill-rule="evenodd" clip-rule="evenodd" d="M2 12.75C2 11.6454 2.89543 10.75 4 10.75H7C8.10457 10.75 9 11.6454 9 12.75V16C9 17.1046 8.10457 18 7 18H4C2.89543 18 2 17.1046 2 16V12.75ZM4 12.25H7C7.27614 12.25 7.5 12.4739 7.5 12.75V16C7.5 16.2761 7.27614 16.5 7 16.5H4C3.72386 16.5 3.5 16.2761 3.5 16V12.75C3.5 12.4739 3.72386 12.25 4 12.25Z" fill="#161823"/>
</svg>
