<svg width="24" height="24" viewBox="0 0 24 24" fill="none" xmlns="http://www.w3.org/2000/svg">
<path d="M12.0002 2C12.5039 2 12.9642 2.18626 13.3158 2.49366C12.1915 3.66215 11.5002 5.25035 11.5002 7C11.5002 10.5898 14.4103 13.5 18.0002 13.5C18.1816 13.5 18.3613 13.4926 18.539 13.478C18.6474 13.7161 18.7717 13.9476 18.9113 14.171L20.1091 16.0875C20.6294 16.9201 20.0309 18 19.0491 18H4.95122C3.96943 18 3.37087 16.9201 3.89122 16.0875L5.08904 14.171C5.68445 13.2183 6.00016 12.1175 6.00016 10.9941V9C6.00016 6.33984 7.73048 4.0857 10.1266 3.2986C10.4107 2.54 11.1424 2 12.0002 2Z" fill="#161823"/>
<path d="M12.0002 21.75C10.4624 21.75 9.14086 20.8244 8.56219 19.5H15.4381C14.8595 20.8244 13.5379 21.75 12.0002 21.75Z" fill="#161823"/>
<path d="M23.0002 7C23.0002 9.76142 20.7616 12 18.0002 12C15.2388 12 13.0002 9.76142 13.0002 7C13.0002 4.23858 15.2388 2 18.0002 2C20.7616 2 23.0002 4.23858 23.0002 7ZM17.9989 9.53939C18.0959 9.53939 18.1907 9.47801 18.293 9.40895C19.6281 8.53939 20.5002 7.5087 20.5002 6.47033C20.5002 5.53427 19.8506 4.9 19.0628 4.9C18.6057 4.9 18.2639 5.16779 18.0455 5.52456C18.0247 5.55861 17.9736 5.55837 17.953 5.52416C17.7384 5.16759 17.3944 4.9 16.9375 4.9C16.1498 4.9 15.5002 5.53427 15.5002 6.47033C15.5002 7.5087 16.3723 8.53939 17.7073 9.40895C17.8096 9.47801 17.9019 9.53939 17.9989 9.53939Z" fill="#161823"/>
</svg>
