<svg width="21" height="21" viewBox="0 0 21 21" fill="none" xmlns="http://www.w3.org/2000/svg">
<path d="M5.24923 2.62513C3.7997 2.62513 2.62462 3.80021 2.62462 5.24974V12.5987C2.62462 14.0482 3.7997 15.2233 5.24923 15.2233H12.5982C14.0477 15.2233 15.2228 14.0482 15.2228 12.5987V5.24974C15.2228 3.80021 14.0477 2.62513 12.5982 2.62513H5.24923Z" fill="#161823"/>
<path d="M7.87634 18.3752C6.89696 18.3752 6.07419 17.7047 5.84208 16.7976H13.6477C15.3871 16.7976 16.7972 15.3876 16.7972 13.6481V5.84249C17.7043 6.0746 18.3748 6.89737 18.3748 7.87676V14.5958C18.3748 16.6831 16.6827 18.3752 14.5954 18.3752H7.87634Z" fill="#161823"/>
</svg>
