<svg width="20" height="20" viewBox="0 0 20 20" fill="none" xmlns="http://www.w3.org/2000/svg">
<path d="M6.25256 6.16201C7.44054 5.66994 8.7138 5.41667 9.99966 5.41667C11.2855 5.41667 12.5588 5.66994 13.7468 6.16201C14.9348 6.65409 16.0142 7.37534 16.9234 8.28458C17.2489 8.61002 17.7765 8.61002 18.1019 8.28458C18.4274 7.95915 18.4274 7.43151 18.1019 7.10607C17.0379 6.04207 15.7748 5.19805 14.3846 4.62221C12.9944 4.04638 11.5044 3.75 9.99967 3.75C8.49494 3.75 7.00494 4.04638 5.61475 4.62221C4.22456 5.19805 2.9614 6.04206 1.8974 7.10607C1.57196 7.43151 1.57196 7.95914 1.8974 8.28458C2.22283 8.61002 2.75047 8.61002 3.07591 8.28458C3.98515 7.37534 5.06458 6.65409 6.25256 6.16201Z" fill="#161823"/>
<path d="M9.9997 8.75001C9.15158 8.75001 8.31176 8.91706 7.5282 9.24162C6.74464 9.56618 6.03268 10.0419 5.43297 10.6416C5.10753 10.967 4.57989 10.967 4.25445 10.6416C3.92902 10.3162 3.92902 9.78854 4.25445 9.4631C5.00893 8.70863 5.90462 8.11014 6.89039 7.70182C7.87616 7.2935 8.93271 7.08334 9.9997 7.08334C11.0667 7.08334 12.1232 7.2935 13.109 7.70182C14.0948 8.11014 14.9905 8.70863 15.7449 9.4631C16.0704 9.78854 16.0704 10.3162 15.7449 10.6416C15.4195 10.9671 14.8919 10.9671 14.5664 10.6416C13.9667 10.0419 13.2548 9.56618 12.4712 9.24162C11.6876 8.91706 10.8478 8.75001 9.9997 8.75001Z" fill="#161823"/>
<path d="M8.80378 12.3212C9.18293 12.1642 9.58929 12.0833 9.99967 12.0833C10.41 12.0833 10.8164 12.1642 11.1956 12.3212C11.5747 12.4782 11.9192 12.7084 12.2094 12.9986C12.5348 13.3241 13.0625 13.3241 13.3879 12.9986C13.7133 12.6732 13.7133 12.1455 13.3879 11.8201C12.9429 11.3752 12.4147 11.0222 11.8334 10.7814C11.252 10.5406 10.6289 10.4167 9.99967 10.4167C9.37042 10.4167 8.74733 10.5406 8.16598 10.7814C7.58463 11.0222 7.0564 11.3752 6.61145 11.8201C6.28601 12.1455 6.28601 12.6732 6.61145 12.9986C6.93689 13.3241 7.46452 13.3241 7.78996 12.9986C8.08014 12.7084 8.42464 12.4782 8.80378 12.3212Z" fill="#161823"/>
<path d="M9.99971 16.6667C10.8051 16.6667 11.458 16.0137 11.458 15.2083C11.458 14.4029 10.8051 13.75 9.99971 13.75C9.1943 13.75 8.54138 14.4029 8.54138 15.2083C8.54138 16.0137 9.1943 16.6667 9.99971 16.6667Z" fill="#161823"/>
</svg>
