<svg width="20" height="20" viewBox="0 0 20 20" fill="none" xmlns="http://www.w3.org/2000/svg">
<path d="M1.98618 11.4143C1.20513 10.6332 1.20513 9.36689 1.98618 8.58584L3.3334 7.23862V6.51155L13.4886 16.6667H12.7615L11.4143 18.0139C10.6332 18.795 9.36689 18.795 8.58584 18.0139L7.23863 16.6667H5.3334C4.22883 16.6667 3.3334 15.7713 3.3334 14.6667V12.7615L1.98618 11.4143Z" fill="#161823"/>
<path d="M16.4234 17.4841L16.553 17.6137C16.8459 17.9066 17.3207 17.9066 17.6136 17.6137C17.9065 17.3209 17.9065 16.846 17.6136 16.5531L16.5084 15.4479C16.6103 15.2079 16.6667 14.9439 16.6667 14.6667V12.7615L18.0139 11.4143C18.795 10.6332 18.795 9.36689 18.0139 8.58584L16.6667 7.23864V5.33339C16.6667 4.22882 15.7713 3.33339 14.6667 3.33339H12.7615L11.4143 1.98618C10.6332 1.20513 9.36689 1.20513 8.58584 1.98618L7.23863 3.33339H5.3334C5.05623 3.33339 4.79222 3.38977 4.55223 3.49169L3.44696 2.38642C3.15406 2.09352 2.67919 2.09352 2.3863 2.38642C2.10893 2.66378 2.09423 3.10435 2.34218 3.39902L16.3792 17.4361C16.3948 17.4516 16.4095 17.4676 16.4234 17.4841Z" fill="#161823"/>
</svg>
