<svg width="24" height="24" viewBox="0 0 24 24" fill="none" xmlns="http://www.w3.org/2000/svg">
<path d="M12 11C14.2091 11 16 8.98528 16 6.5C16 4.01472 14.2091 2 12 2C9.79086 2 8 4.01472 8 6.5C8 6.91986 8.05111 7.32629 8.14672 7.71184L4.28292 3.84805C3.99003 3.55516 3.51515 3.55516 3.22226 3.84805C2.92937 4.14095 2.92937 4.61582 3.22226 4.90871L10.8604 12.5468L10.8577 12.547L19.8894 21.5787L19.8911 21.5775L20.467 22.1534C20.7599 22.4463 21.2348 22.4463 21.5277 22.1534C21.8206 21.8605 21.8206 21.3857 21.5277 21.0928L20.8336 20.3987C20.9411 20.1198 21 19.8168 21 19.5V18.7273C21 16.7372 19.7494 15.1424 18.1359 14.1182C16.7355 13.2292 14.9368 12.6718 12.9686 12.5337L11.3814 10.9465C11.583 10.9817 11.7896 11 12 11Z" fill="#161823"/>
<path d="M5.86408 14.1182C6.77053 13.5428 7.84381 13.1063 9.02188 12.8325L18.1893 22H5.5C4.11929 22 3 20.8807 3 19.5V18.7273C3 16.7372 4.25055 15.1424 5.86408 14.1182Z" fill="#161823"/>
</svg>
