<svg width="20" height="20" viewBox="0 0 20 20" fill="none" xmlns="http://www.w3.org/2000/svg">
<path d="M9.478 3.51808C9.50481 3.55213 9.51249 3.59793 9.4991 3.63949L8.1087 7.95187C7.95799 8.41928 8.05075 8.93328 8.35457 9.31438L10.4845 11.9861L8.92544 17.4705C8.90142 17.5549 8.80404 17.5911 8.73264 17.5424C4.34725 14.5486 1.5 11.0256 1.5 7.47684C1.5 4.21214 3.7087 2 6.38696 2C7.70519 2 8.74695 2.58945 9.478 3.51808Z" fill="#161823"/>
<path d="M11.4614 2.63933C11.4378 2.65524 11.4203 2.67904 11.4114 2.70658L9.58331 8.37646L11.7114 11.0459C12.004 11.4129 12.1015 11.9042 11.9721 12.3594L10.4137 17.8415C10.384 17.946 10.4829 18.0361 10.5769 17.9855C10.7162 17.9106 10.8592 17.8203 10.9957 17.7259C15.5348 14.6931 18.5 11.0983 18.5 7.47684C18.5 4.21214 16.2913 2 13.613 2C12.7825 2 12.0639 2.23397 11.4614 2.63933Z" fill="#161823"/>
</svg>
