<svg width="20" height="20" viewBox="0 0 20 20" fill="none" xmlns="http://www.w3.org/2000/svg">
<path d="M10.75 2.37109V4.99738H13.507C14.1917 4.99737 14.7517 4.99736 15.2065 5.03513C15.6774 5.07424 16.1023 5.15767 16.4982 5.36328C17.0918 5.67163 17.5757 6.15562 17.8841 6.74921C18.0897 7.14503 18.1731 7.57 18.2122 8.04088C18.25 8.49573 18.25 9.0557 18.25 9.74042V12.7507C18.25 13.4354 18.25 13.9954 18.2122 14.4502C18.1731 14.9211 18.0897 15.3461 17.8841 15.7419C17.5757 16.3355 17.0918 16.8195 16.4982 17.1278C16.1023 17.3334 15.6774 17.4169 15.2065 17.456C14.7516 17.4937 14.1917 17.4937 13.507 17.4937H6.49304C5.80833 17.4937 5.24835 17.4937 4.79351 17.456C4.32263 17.4169 3.89765 17.3334 3.50183 17.1278C2.90824 16.8195 2.42425 16.3355 2.11591 15.7419C1.9103 15.3461 1.82686 14.9211 1.78776 14.4502C1.74999 13.9954 1.74999 13.4354 1.75 12.7507V9.74039C1.74999 9.05569 1.74999 8.49572 1.78776 8.04088C1.82686 7.57 1.9103 7.14503 2.11591 6.74921C2.42425 6.15562 2.90824 5.67163 3.50183 5.36328C3.89765 5.15767 4.32263 5.07424 4.79351 5.03513C5.24835 4.99736 5.80834 4.99737 6.49304 4.99738H9.25V2.37109C9.25 1.95688 9.58579 1.62109 10 1.62109C10.4142 1.62109 10.75 1.95688 10.75 2.37109ZM13.0118 9.26083L10.75 11.5226V5H9.25V11.5227L6.98809 9.26083C6.6952 8.96794 6.22033 8.96794 5.92743 9.26083C5.63454 9.55372 5.63454 10.0286 5.92743 10.3215L9.46962 13.8637C9.76251 14.1566 10.2374 14.1566 10.5303 13.8637L14.0725 10.3215C14.3654 10.0286 14.3654 9.55372 14.0725 9.26083C13.7796 8.96794 13.3047 8.96794 13.0118 9.26083Z" fill="#161823"/>
</svg>
