<svg width="20" height="20" viewBox="0 0 20 20" fill="none" xmlns="http://www.w3.org/2000/svg">
<path d="M10.0001 2.01666C8.17708 2.01666 6.8834 3.69327 6.8834 5.51666C6.8834 7.34005 8.17708 9.01666 10.0001 9.01666C11.8231 9.01666 13.1167 7.34005 13.1167 5.51666C13.1167 3.69327 11.8231 2.01666 10.0001 2.01666Z" fill="#161823"/>
<path d="M10.0001 10.5C8.11646 10.5 6.39575 10.9862 5.12311 11.8517C3.84512 12.7207 2.9834 14.0064 2.9834 15.5515C2.9834 16.8773 4.05655 17.9833 5.40007 17.9833H9.74521C9.8745 17.9833 9.96966 17.8625 9.94723 17.7351C9.90528 17.4969 9.8834 17.2517 9.8834 17.0014C9.8834 14.8427 11.5114 13.0641 13.6066 12.8265C13.711 12.8147 13.7926 12.728 13.7926 12.6229V11.264C13.7926 11.2572 13.7887 11.251 13.7825 11.2483C12.6859 10.7637 11.3872 10.5 10.0001 10.5Z" fill="#161823"/>
<path d="M15.2926 11.264C15.2926 10.8512 15.6272 10.5167 16.0399 10.5167C16.442 10.5167 16.7699 10.8342 16.7865 11.2322C16.787 11.2435 16.7873 11.2549 16.7873 11.2664C16.7873 12.3556 17.6703 13.2385 18.7594 13.2385C19.1722 13.2385 19.5067 13.5731 19.5067 13.9858C19.5067 14.3985 19.1722 14.7331 18.7594 14.7331C18.0302 14.7331 17.3202 14.5157 16.7872 13.8782V17.0014C16.7872 18.4937 15.5775 19.7033 14.0853 19.7033C12.5931 19.7033 11.3834 18.4937 11.3834 17.0014C11.3834 15.5092 12.5931 14.2995 14.0853 14.2995C14.498 14.2995 14.8326 14.6341 14.8326 15.0468C14.8326 15.4596 14.498 15.7941 14.0853 15.7941C13.4185 15.7941 12.878 16.3347 12.878 17.0014C12.878 17.6682 13.4185 18.2087 14.0853 18.2087C14.7521 18.2087 15.2926 17.6682 15.2926 17.0014V11.264Z" fill="#161823"/>
</svg>
