<svg width="24" height="24" viewBox="0 0 24 24" fill="none" xmlns="http://www.w3.org/2000/svg">
<path d="M7.04317 3.49386H16.3884V15.6426L11.0149 21.0161C10.3697 21.6613 9.32373 21.6613 8.67858 21.0161C8.56955 20.9071 8.48 20.7591 8.40991 20.5722C8.33982 20.3853 8.30477 20.2062 8.30477 20.0349V19.7078L9.33275 15.6426H4.23961C3.7412 15.6426 3.30509 15.4557 2.93128 15.0819C2.55748 14.7081 2.37057 14.272 2.37057 13.7736C2.37057 13.3893 2.38049 12.7855 2.38978 12.3047C2.39936 11.8086 2.50252 11.3213 2.69347 10.8633C3.27785 9.46158 4.60767 6.2759 5.31431 4.61528C5.45449 4.30378 5.68811 4.039 6.01519 3.82094C6.34228 3.60289 6.68494 3.49386 7.04317 3.49386ZM17.8918 15.6427V3.49387H20.1299C20.9583 3.49387 21.6299 4.16545 21.6299 4.99387V14.1427C21.6299 14.9711 20.9583 15.6427 20.1299 15.6427H17.8918Z" fill="#161823"/>
</svg>
