<svg width="20" height="20" viewBox="0 0 20 20" fill="none" xmlns="http://www.w3.org/2000/svg">
<path d="M3 4.25C3 2.73122 4.23122 1.5 5.75 1.5H12.25C13.7688 1.5 15 2.73122 15 4.25V7.39417L13.5 7.62298V4.25C13.5 3.55964 12.9404 3 12.25 3H11.4481L11.269 3.6451C11.1888 3.93364 10.9261 4.13333 10.6266 4.13333H7.27339C6.97392 4.13333 6.7112 3.93364 6.63105 3.6451L6.45185 3H5.75C5.05964 3 4.5 3.55964 4.5 4.25V15.75C4.5 16.4404 5.05964 17 5.75 17H7.35707C7.33046 17.1608 7.31667 17.3256 7.31667 17.4931C7.31667 17.8481 7.37742 18.1866 7.4884 18.5H5.75C4.23122 18.5 3 17.2688 3 15.75V4.25Z" fill="#161823"/>
<path d="M15.629 10.333C15.7803 10.3099 15.9167 10.427 15.9167 10.5801V14.7992L14.9798 14.9761C14.2665 15.1108 13.75 15.7339 13.75 16.4598C13.75 17.4064 14.611 18.1196 15.541 17.9434L15.9246 17.8707C16.732 17.7177 17.3314 17.0492 17.4083 16.245C17.4138 16.2084 17.4167 16.1709 17.4167 16.1327V10.5801C17.4167 9.50849 16.4622 8.68855 15.4028 8.85015L12.4861 9.29507C11.6314 9.42545 11 10.1605 11 11.0251V15.8294L10.0465 16.0094C9.33318 16.1441 8.81667 16.7673 8.81667 17.4932C8.81667 18.4398 9.67762 19.1529 10.6077 18.9767L10.9913 18.904C11.8568 18.74 12.5 17.9837 12.5 17.1027V11.0251C12.5 10.9015 12.5902 10.7965 12.7123 10.7779L15.629 10.333Z" fill="#161823"/>
</svg>
