<svg width="20" height="20" viewBox="0 0 20 20" fill="none" xmlns="http://www.w3.org/2000/svg">
<path fill-rule="evenodd" clip-rule="evenodd" d="M4.59803 7.71057C4.78687 5.13733 7.16555 3.00281 10.1778 3.00281C13.1861 3.00281 15.5434 5.13418 15.7299 7.71118H14.9597C13.6864 7.71118 12.6541 8.74341 12.6541 10.0167V11.5204C12.6541 12.7938 13.6864 13.826 14.9597 13.826H15.589C15.1806 15.1255 13.9977 16.0819 12.5814 16.1543C12.3343 15.8367 11.9484 15.6323 11.5148 15.6323H10.0282C9.28236 15.6323 8.67773 16.237 8.67773 16.9828C8.67773 17.7287 9.28236 18.3333 10.0282 18.3333H11.5148C12.0177 18.3333 12.4564 18.0584 12.6888 17.6507C15.2277 17.5055 17.2418 15.4007 17.2418 12.8254L17.2418 8.04072C17.2418 4.36984 14.0164 1.50281 10.1778 1.50281C6.3436 1.50281 3.08594 4.36577 3.08594 8.04072V9.54519C3.08594 9.56768 3.08693 9.58995 3.08887 9.61194V12.3254C3.08887 13.1538 3.76044 13.8254 4.58887 13.8254H5.36941C6.64273 13.8254 7.67497 12.7931 7.67497 11.5198V10.0161C7.67497 8.7428 6.64273 7.71057 5.36941 7.71057H4.59803ZM4.58887 9.21057H5.36941C5.81431 9.21057 6.17497 9.57123 6.17497 10.0161V11.5198C6.17497 11.9647 5.81431 12.3254 5.36941 12.3254H4.58887L4.58887 9.21057ZM14.9597 9.21118H15.7402V12.326H14.9597C14.5148 12.326 14.1541 11.9653 14.1541 11.5204V10.0167C14.1541 9.57184 14.5148 9.21118 14.9597 9.21118Z" fill="#161823"/>
</svg>
