<svg width="20" height="20" viewBox="0 0 20 20" fill="none" xmlns="http://www.w3.org/2000/svg">
<path fill-rule="evenodd" clip-rule="evenodd" d="M7.29167 3.83325C7.29167 4.52361 7.85131 5.08325 8.54167 5.08325L11.4167 5.08325C12.107 5.08325 12.6667 4.52361 12.6667 3.83325V2.33325C12.6667 1.6429 12.107 1.08325 11.4167 1.08325L8.54167 1.08325C7.85131 1.08325 7.29167 1.6429 7.29167 2.33325V3.83325ZM11.1667 3.58325L8.79167 3.58325V2.58325L11.1667 2.58325V3.58325Z" fill="#161823"/>
<path d="M6.04167 2.45825V3.70825C6.04167 3.75837 6.00167 3.79992 5.95155 3.79992H5.25C4.55964 3.79992 4 4.35956 4 5.04992V16.0166C4 16.7069 4.55964 17.2666 5.25 17.2666H14.75C15.4404 17.2666 16 16.7069 16 16.0166V5.04992C16 4.35956 15.4404 3.79992 14.75 3.79992H14.0068C13.9567 3.79992 13.9167 3.75837 13.9167 3.70825V2.45825C13.9167 2.37232 13.9845 2.29992 14.0704 2.29992H14.75C16.2688 2.29992 17.5 3.53114 17.5 5.04992V16.0166C17.5 17.5354 16.2688 18.7666 14.75 18.7666H5.25C3.73122 18.7666 2.5 17.5354 2.5 16.0166V5.04992C2.5 3.53114 3.73122 2.29992 5.25 2.29992H5.88794C5.97387 2.29992 6.04167 2.37232 6.04167 2.45825Z" fill="#161823"/>
<path d="M11.9 8.76658C11.9 10 11.0493 10.9999 10 10.9999C8.95066 10.9999 8.1 10 8.1 8.76658C8.1 7.53315 8.95066 6.53325 10 6.53325C11.0493 6.53325 11.9 7.53315 11.9 8.76658Z" fill="#161823"/>
<path d="M5.53333 15.0817C5.53333 13.2876 7.4875 11.8333 10 11.8333C12.5125 11.8333 14.4667 13.2876 14.4667 15.0817C14.4667 15.7545 13.9213 16.2999 13.2485 16.2999H6.75151C6.07873 16.2999 5.53333 15.7545 5.53333 15.0817Z" fill="#161823"/>
</svg>
