<svg width="24" height="24" viewBox="0 0 24 24" fill="none" xmlns="http://www.w3.org/2000/svg">
<path d="M3 3C2.44772 3 2 3.44772 2 4V6C2 6.55228 2.44772 7 3 7H4V4C4 3.44772 3.55228 3 3 3Z" fill="#161823"/>
<path d="M11 14H18.5V5.25C18.5 4.00736 17.4927 3 16.25 3H5.5V18.5C5.5 19.3284 6.17157 20 7 20C7.82843 20 8.5 19.3284 8.5 18.5V16.5C8.5 15.1193 9.61928 14 11 14ZM9.25 6.75H15.003C15.4173 6.75 15.753 7.08579 15.753 7.5C15.753 7.91421 15.4173 8.25 15.003 8.25H9.25C8.83579 8.25 8.5 7.91421 8.5 7.5C8.5 7.08579 8.83579 6.75 9.25 6.75ZM8.5 10.5C8.5 10.0858 8.83579 9.75 9.25 9.75H13.25C13.6642 9.75 14 10.0858 14 10.5C14 10.9142 13.6642 11.25 13.25 11.25H9.25C8.83579 11.25 8.5 10.9142 8.5 10.5Z" fill="#161823"/>
<path d="M11.5 15.5H20C20.5523 15.5 21 15.9477 21 16.5V19.5C21 20.3284 20.3284 21 19.5 21H8.6589C9.46725 20.4625 10 19.5435 10 18.5V17C10 16.1716 10.6716 15.5 11.5 15.5Z" fill="#161823"/>
</svg>
