<svg width="24" height="24" viewBox="0 0 24 24" fill="none" xmlns="http://www.w3.org/2000/svg">
<path d="M4.75 5.5C3.50736 5.5 2.5 6.50736 2.5 7.75V16.25C2.5 17.4926 3.50736 18.5 4.75 18.5H7.88963L7.01838 19.345C6.81267 19.5445 6.65967 19.7667 6.55472 20H4.75C2.67893 20 1 18.3211 1 16.25V7.75C1 5.67893 2.67893 4 4.75 4H19.25C21.3211 4 23 5.67893 23 7.75V16.25C23 18.3211 21.3211 20 19.25 20H17.4453C17.3404 19.7667 17.1874 19.5445 16.9817 19.345L16.1104 18.5H19.25C20.4926 18.5 21.5 17.4926 21.5 16.25V7.75C21.5 6.50736 20.4926 5.5 19.25 5.5H4.75Z" fill="#161823"/>
<path d="M11.3038 17.2782C11.6917 16.902 12.3083 16.902 12.6962 17.2782L15.9373 20.4218C16.3242 20.797 16.0586 21.4525 15.5196 21.4525H8.48042C7.94144 21.4525 7.67579 20.797 8.06269 20.4218L11.3038 17.2782Z" fill="#161823"/>
<path d="M9.05871 15.4832C8.72743 15.4907 8.4528 15.2282 8.44532 14.8969L8.40015 12.8969C8.39352 12.6035 8.60011 12.3483 8.88848 12.2938C9.17684 12.2392 9.46235 12.4013 9.56335 12.6768C9.90271 13.6027 10.8281 14.2833 11.9341 14.2833C13.0401 14.2833 13.9654 13.6027 14.3048 12.6768C14.4189 12.3657 14.7635 12.2059 15.0747 12.32C15.3858 12.434 15.5456 12.7787 15.4315 13.0898C14.9167 14.4943 13.5372 15.4833 11.9341 15.4833C11.072 15.4833 10.2746 15.1973 9.64151 14.7145L9.64501 14.8698C9.65249 15.2011 9.39 15.4757 9.05871 15.4832Z" fill="#161823"/>
<path d="M15.4228 8.36979C15.4154 8.0385 15.1407 7.776 14.8095 7.78349C14.4782 7.79097 14.2157 8.06559 14.2232 8.39688L14.2267 8.55214C13.5936 8.06933 12.7962 7.78333 11.9341 7.78333C10.3309 7.78333 8.95146 8.77232 8.43665 10.1768C8.32261 10.488 8.48238 10.8326 8.79351 10.9467C9.10464 11.0607 9.44931 10.901 9.56335 10.5898C9.90271 9.66396 10.8281 8.98333 11.9341 8.98333C13.0401 8.98333 13.9655 9.66396 14.3048 10.5898C14.4058 10.8654 14.6913 11.0274 14.9797 10.9729C15.2681 10.9183 15.4746 10.6632 15.468 10.3698L15.4228 8.36979Z" fill="#161823"/>
</svg>
