<svg width="20" height="20" viewBox="0 0 20 20" fill="none" xmlns="http://www.w3.org/2000/svg">
<path d="M10.0029 10.8333C11.5148 10.8333 12.7404 9.47153 12.7404 7.79167C12.7404 6.1118 11.5148 4.75 10.0029 4.75C8.491 4.75 7.26538 6.1118 7.26538 7.79167C7.26538 9.47153 8.491 10.8333 10.0029 10.8333ZM10.0029 9.43333C9.3993 9.43333 8.66538 8.84073 8.66538 7.79167C8.66538 6.7426 9.3993 6.15 10.0029 6.15C10.6065 6.15 11.3404 6.7426 11.3404 7.79167C11.3404 8.84073 10.6065 9.43333 10.0029 9.43333Z" fill="#161823"/>
<path d="M12.7085 17.8834C15.9815 16.7592 18.3337 13.6543 18.3337 9.99996C18.3337 5.39759 14.6027 1.66663 10.0003 1.66663C5.39795 1.66663 1.66699 5.39759 1.66699 9.99996C1.66699 12.1294 2.46568 14.0722 3.77982 15.5453C3.77981 15.5454 3.77984 15.5453 3.77982 15.5453C5.30599 17.256 7.52727 18.3333 10.0002 18.3333C10.5755 18.3333 11.1373 18.275 11.6798 18.164C12.0313 18.0921 12.3747 17.998 12.7085 17.8834ZM15.5114 14.0409C14.4684 12.751 12.4192 11.875 10.0001 11.875C7.58121 11.875 5.53214 12.7508 4.48911 14.0407C3.65795 12.9089 3.16699 11.5118 3.16699 9.99996C3.16699 6.22601 6.22638 3.16663 10.0003 3.16663C13.7743 3.16663 16.8337 6.22601 16.8337 9.99996C16.8337 11.5119 16.3426 12.9091 15.5114 14.0409ZM14.476 15.1637C13.277 16.2038 11.7122 16.8333 10.0003 16.8333C8.28834 16.8333 6.72339 16.2037 5.52438 15.1635C5.75927 14.8064 6.16081 14.4308 6.77097 14.1059C7.5957 13.6668 8.71145 13.375 10.0001 13.375C11.2888 13.375 12.4046 13.6668 13.2293 14.1059C13.8396 14.4309 14.2412 14.8066 14.476 15.1637Z" fill="#161823"/>
</svg>
