<svg width="24" height="24" viewBox="0 0 24 24" fill="none" xmlns="http://www.w3.org/2000/svg">
<path d="M0 8.01115C0 7.38566 0.803398 6.99372 2.4102 6.2118L8.49928 3.24866C10.2186 2.41199 11.0783 1.99365 11.9999 1.99365C12.9215 1.99365 13.7811 2.412 15.5004 3.24867L21.5895 6.2118C23.1945 6.99285 23.9979 7.38381 23.9996 8.00809C23.9996 8.35698 23.7497 8.6329 23.2498 8.9444L23.2498 14.3807C23.6981 14.6401 23.9998 15.1248 23.9998 15.6801V17.4306C23.9998 18.0289 23.5147 18.5139 22.9164 18.5139H22.0831C21.4848 18.5139 20.9998 18.0289 20.9998 17.4306V15.6801C20.9998 15.1248 21.3014 14.6401 21.7498 14.3807L21.7498 9.72842L15.5004 12.7696C13.7811 13.6063 12.9215 14.0246 11.9999 14.0246C11.0783 14.0246 10.2186 13.6063 8.49929 12.7696L2.41019 9.80646C0.806016 9.02581 0.00261696 8.63485 0 8.01115Z" fill="#161823"/>
<path d="M4.41639 12.4509L8.09843 14.2429C9.56381 14.958 10.7248 15.5246 11.9999 15.5246C13.2749 15.5246 14.4359 14.958 15.9013 14.2429L19.5829 12.4511V16.6302C19.5829 17.6655 19.5829 18.1831 19.3586 18.6159C19.3154 18.6994 19.2663 18.7798 19.2117 18.8563C18.9288 19.2533 18.4681 19.4894 17.5467 19.9615C15.0174 21.2573 13.7528 21.9053 12.3948 21.988C12.1316 22.004 11.8677 22.004 11.6045 21.988C10.2465 21.9053 8.98191 21.2573 6.45265 19.9615C5.53125 19.4894 5.07055 19.2533 4.78764 18.8563C4.73307 18.7798 4.68397 18.6994 4.64071 18.6159C4.41639 18.1831 4.41639 17.6655 4.41639 16.6302V12.4509Z" fill="#161823"/>
</svg>
