<svg width="24" height="24" viewBox="0 0 24 24" fill="none" xmlns="http://www.w3.org/2000/svg">
<path d="M17.5867 20.9404H8.2415V8.79166L13.615 3.41816C14.2601 2.77301 15.3061 2.77301 15.9513 3.41816C16.0603 3.52719 16.1499 3.67515 16.22 3.86206C16.2901 4.04896 16.3251 4.22808 16.3251 4.39941V4.72649L15.2971 8.79166H20.3903C20.8887 8.79166 21.3248 8.97856 21.6986 9.35237C22.0724 9.72618 22.2593 10.1623 22.2593 10.6607C22.2593 11.045 22.2494 11.6488 22.2401 12.1296C22.2305 12.6257 22.1274 13.113 21.9364 13.571C21.352 14.9727 20.0222 18.1584 19.3156 19.819C19.1754 20.1305 18.9418 20.3953 18.6147 20.6134C18.2876 20.8314 17.9449 20.9404 17.5867 20.9404ZM6.73809 8.79164V20.9404H4.5C3.67157 20.9404 3 20.2688 3 19.4404V10.2916C3 9.46322 3.67157 8.79164 4.5 8.79164H6.73809Z" fill="#161823"/>
</svg>
