<svg width="16" height="16" viewBox="0 0 16 16" fill="none" xmlns="http://www.w3.org/2000/svg">
<path d="M13.0141 11.5997C13.4046 11.9902 13.4046 12.6234 13.0141 13.0139C12.6235 13.4044 11.9904 13.4044 11.5998 13.0139L8.00015 9.41421L4.40047 13.0139C4.00994 13.4044 3.37678 13.4044 2.98625 13.0139C2.59573 12.6234 2.59573 11.9902 2.98625 11.5997L6.58594 8L2.98625 4.40031C2.59573 4.00979 2.59573 3.37662 2.98625 2.9861C3.37678 2.59558 4.00994 2.59558 4.40047 2.9861L8.00015 6.58579L11.5998 2.9861C11.9904 2.59558 12.6235 2.59558 13.0141 2.9861C13.4046 3.37662 13.4046 4.00979 13.0141 4.40031L9.41437 8L13.0141 11.5997Z" fill="#161823"/>
</svg>
