<svg width="20" height="20" viewBox="0 0 20 20" fill="none" xmlns="http://www.w3.org/2000/svg">
<path d="M18.3299 9.13132C18.3299 4.92729 14.5123 1.66992 9.9999 1.66992C5.48755 1.66992 1.66992 4.92729 1.66992 9.13143C1.66992 13.1673 5.2434 15.8181 9.35978 16.1066V16.9754C9.35978 17.7444 10.1747 18.2739 10.8849 17.9013C11.8273 17.4067 14.2077 16.0859 15.7284 14.5625C17.3101 12.9781 18.3299 11.23 18.3299 9.13132ZM7.76072 10.4197C7.30038 10.4197 6.97315 9.96909 7.09266 9.51492L8.21214 5.43347C8.29357 5.12396 8.56635 4.90616 8.88114 4.90616H11.3647C11.8686 4.90616 12.1984 5.43824 11.9999 5.90637L11.3035 7.5494H12.205C12.7728 7.5494 13.0938 8.20865 12.7754 8.66954L10.0061 12.9364C9.58873 13.5407 8.67535 13.1707 8.75202 12.4473L8.95141 10.4197H7.76072Z" fill="#161823"/>
</svg>
