<svg width="24" height="24" viewBox="0 0 24 24" fill="none" xmlns="http://www.w3.org/2000/svg">
<path d="M12 11C14.2091 11 16 8.98528 16 6.5C16 4.01472 14.2091 2 12 2C9.79086 2 8 4.01472 8 6.5C8 8.98528 9.79086 11 12 11Z" fill="#161823"/>
<path d="M12 12.5C9.6563 12.5 7.49136 13.0852 5.86408 14.1182C4.25055 15.1424 3 16.7372 3 18.7273V19.5C3 20.8807 4.11929 22 5.5 22H18.5C19.8807 22 21 20.8807 21 19.5V18.7273C21 16.7372 19.7494 15.1424 18.1359 14.1182C16.5086 13.0852 14.3437 12.5 12 12.5Z" fill="#161823"/>
</svg>
