<svg width="20" height="20" viewBox="0 0 20 20" fill="none" xmlns="http://www.w3.org/2000/svg">
<path fill-rule="evenodd" clip-rule="evenodd" d="M9.99996 9C11.8409 9 13.3333 7.32107 13.3333 5.25C13.3333 3.17893 11.8409 1.5 9.99996 1.5C8.15901 1.5 6.66663 3.17893 6.66663 5.25C6.66663 7.32107 8.15901 9 9.99996 9ZM9.99996 3C10.8513 3 11.8333 3.83639 11.8333 5.25C11.8333 6.66361 10.8513 7.5 9.99996 7.5C9.14865 7.5 8.16663 6.66361 8.16663 5.25C8.16663 3.83639 9.14865 3 9.99996 3Z" fill="#161823"/>
<path d="M4.75275 11.3874C6.15542 10.497 8.00786 10 10 10C10.5481 10 11.0856 10.0376 11.6061 10.1107C11.7005 10.124 11.7228 10.2507 11.6414 10.3003C11.1422 10.6046 10.6952 10.9862 10.3172 11.4286C10.2773 11.4753 10.2187 11.5021 10.1573 11.5012C10.1051 11.5004 10.0526 11.5 10 11.5C6.48438 11.5 3.75 13.2637 3.75 15.4394V16.0833C3.75 16.5436 4.1231 16.9167 4.58333 16.9167H9.20416C9.28774 16.9167 9.36217 16.9688 9.39328 17.0463C9.56642 17.478 9.7927 17.8826 10.064 18.2521C10.1136 18.3196 10.0663 18.4167 9.98264 18.4167H4.58333C3.29467 18.4167 2.25 17.372 2.25 16.0833V15.4394C2.25 13.6669 3.36383 12.2691 4.75275 11.3874Z" fill="#161823"/>
<path d="M19.0375 14.9001H18.5691C18.5188 12.6934 16.7141 10.9199 14.4952 10.9199C13.613 10.9199 12.7954 11.2009 12.1283 11.6775C11.8005 11.9117 11.8066 12.3692 12.0725 12.6431C12.3446 12.9233 12.7767 12.9126 13.0869 12.7201C13.4958 12.4662 13.978 12.3199 14.4952 12.3199C15.9408 12.3199 17.1186 13.4667 17.1686 14.9001H16.7622C16.5395 14.9001 16.428 15.1694 16.5854 15.3269L17.6877 16.4292C17.8049 16.5463 17.9948 16.5463 18.112 16.4292L19.2143 15.3269C19.3717 15.1694 19.2602 14.9001 19.0375 14.9001Z" fill="#161823"/>
<path d="M11.4118 13.5706C11.2946 13.4535 11.1047 13.4535 10.9875 13.5706L9.88525 14.6729C9.72776 14.8304 9.8393 15.0997 10.062 15.0997H10.4215C10.4771 17.3018 12.2797 19.0699 14.4952 19.0699C15.4193 19.0699 16.2724 18.7617 16.9559 18.2433C17.277 17.9998 17.2579 17.5426 16.9842 17.2765C16.7043 17.0041 16.2726 17.027 15.9681 17.2284C15.5457 17.5077 15.0398 17.6699 14.4952 17.6699C13.0529 17.6699 11.8772 16.5285 11.8222 15.0997H12.3373C12.56 15.0997 12.6715 14.8304 12.5141 14.6729L11.4118 13.5706Z" fill="#161823"/>
</svg>
