<svg width="20" height="20" viewBox="0 0 20 20" fill="none" xmlns="http://www.w3.org/2000/svg">
<path d="M10.2529 3.99302C10.1374 3.79302 9.84872 3.79302 9.73325 3.99302L3.0585 15.554C2.94303 15.754 3.08737 16.004 3.31831 16.004H16.6678C16.8988 16.004 17.0431 15.754 16.9276 15.554L10.2529 3.99302ZM8.43422 3.24302C9.12704 2.04302 10.8591 2.04302 11.5519 3.24302L18.2267 14.804C18.9195 16.004 18.0535 17.504 16.6678 17.504H3.31831C1.93267 17.504 1.06664 16.004 1.75947 14.804L8.43422 3.24302ZM9.9931 7.13934C9.5238 7.13934 9.14529 7.52339 9.1521 7.99264L9.21526 11.493C9.22143 11.9182 9.56787 12.2596 9.9931 12.2596C10.4183 12.2596 10.7648 11.9182 10.7709 11.493L10.8341 7.99264C10.8409 7.52339 10.4624 7.13934 9.9931 7.13934ZM10.9318 14.0518C10.9318 14.5702 10.5115 14.9905 9.9931 14.9905C9.47466 14.9905 9.05438 14.5702 9.05438 14.0518C9.05438 13.5333 9.47466 13.113 9.9931 13.113C10.5115 13.113 10.9318 13.5333 10.9318 14.0518Z" fill="#161823"/>
</svg>
