<svg width="20" height="20" viewBox="0 0 20 20" fill="none" xmlns="http://www.w3.org/2000/svg">
<path d="M6.3737 2.99488H14.1614V13.1189L9.68347 17.5968C9.14584 18.1344 8.27417 18.1344 7.73655 17.5968C7.64569 17.5059 7.57106 17.3826 7.51265 17.2269C7.45424 17.0711 7.42504 16.9218 7.42504 16.7791V16.5065L8.28168 13.1189H4.03741C3.62206 13.1189 3.25864 12.9631 2.94713 12.6516C2.63563 12.3401 2.47987 11.9767 2.47987 11.5613C2.47987 11.2411 2.48814 10.738 2.49588 10.3373C2.50386 9.92383 2.58983 9.51774 2.74895 9.13607C3.23594 7.96799 4.34412 5.31325 4.93299 3.9294C5.0498 3.66981 5.24449 3.44916 5.51706 3.26745C5.78963 3.08574 6.07518 2.99488 6.3737 2.99488ZM15.4142 13.1189V2.99489H17.2793C17.9697 2.99489 18.5293 3.55454 18.5293 4.24489V11.8689C18.5293 12.5592 17.9697 13.1189 17.2793 13.1189H15.4142Z" fill="#161823"/>
</svg>
