<svg width="24" height="24" viewBox="0 0 24 24" fill="none" xmlns="http://www.w3.org/2000/svg">
<path d="M19 3.63914C19 3.02464 18.451 2.55551 17.844 2.65139L9.18797 4.01859C8.21591 4.17212 7.5 5.00999 7.5 5.9941L7.50001 16.3269C7.50001 16.8078 7.15771 17.2206 6.68512 17.3097L6.6882 17.3124L5.00203 17.6286C3.84119 17.8462 3 18.8598 3 20.0409C3 21.5783 4.39728 22.7372 5.90815 22.4529L6.55472 22.3312C7.97277 22.0644 9 20.8259 9 19.383L9.00001 9.05463L17.5 7.71479V14.4552C17.5 14.9364 17.1573 15.3493 16.6843 15.438L16.6911 15.4441L15.005 15.7569C13.843 15.9726 13 16.9863 13 18.1682C13 19.7044 14.3962 20.8624 15.9059 20.5783L16.5547 20.4562C17.9728 20.1894 19 18.9509 19 17.508L19 3.63914ZM9.42199 5.50022L17.5 4.22431V6.18669L9 7.52637V5.9941C9 5.74807 9.17898 5.53861 9.42199 5.50022ZM5.63079 20.9787C5.04331 21.0893 4.5 20.6387 4.5 20.0409C4.5 19.5816 4.82709 19.1875 5.27846 19.1029L7.26314 18.7308C7.38623 18.7077 7.5 18.8021 7.5 18.9273L7.5 19.383C7.5 20.1044 6.98639 20.7237 6.27736 20.8571L5.63079 20.9787ZM15.6285 19.1042C15.0422 19.2145 14.5 18.7648 14.5 18.1682C14.5 17.7092 14.8274 17.3155 15.2787 17.2318L17.2635 16.8635C17.3865 16.8407 17.5 16.9351 17.5 17.0601V17.508C17.5 18.2294 16.9864 18.8487 16.2774 18.9821L15.6285 19.1042Z" fill="#161823"/>
</svg>
