<svg width="20" height="20" viewBox="0 0 20 20" fill="none" xmlns="http://www.w3.org/2000/svg">
<path d="M16.004 17.0643L16.97 18.0303C17.2629 18.3232 17.7377 18.3232 18.0306 18.0303C18.3235 17.7374 18.3235 17.2626 18.0306 16.9697L16.3994 15.3385C17.607 13.8926 18.3337 12.0311 18.3337 9.99999C18.3337 5.39762 14.6027 1.66666 10.0003 1.66666C7.96918 1.66666 6.10776 2.39333 4.66185 3.60088L3.03064 1.96966C2.73774 1.67677 2.26287 1.67677 1.96998 1.96966C1.69497 2.24467 1.67817 2.6801 1.91959 2.9747L15.9536 17.0087C15.9715 17.0266 15.9883 17.0452 16.004 17.0643ZM11.0632 10.0022C11.8972 9.60243 12.481 8.68054 12.481 7.60715C12.481 6.16726 11.4305 5 10.1346 5C9.08145 5 8.19037 5.77088 7.89346 6.83249L5.72776 4.66679C6.89789 3.72816 8.38354 3.16666 10.0003 3.16666C13.7743 3.16666 16.8337 6.22604 16.8337 9.99999C16.8337 11.3878 16.42 12.6789 15.7092 13.7568C15.1557 12.759 14.0256 11.9487 12.5673 11.5064L11.0632 10.0022Z" fill="#161823"/>
<path d="M14.0875 17.2639L8.14844 11.3249C6.34675 11.6972 4.93237 12.6012 4.2914 13.7567C3.58066 12.6788 3.16699 11.3877 3.16699 9.99999C3.16699 8.93319 3.41145 7.92349 3.84741 7.02385L2.73642 5.91286C2.0555 7.12044 1.66699 8.51484 1.66699 9.99999C1.66699 14.6024 5.39795 18.3333 10.0003 18.3333C11.4855 18.3333 12.8799 17.9448 14.0875 17.2639Z" fill="#161823"/>
</svg>
