<svg width="24" height="24" viewBox="0 0 24 24" fill="none" xmlns="http://www.w3.org/2000/svg">
<path d="M13.8737 3.2986C13.5896 2.54 12.8579 2 12.0002 2C11.1424 2 10.4107 2.54 10.1266 3.2986C7.73048 4.0857 6.00016 6.33984 6.00016 9V10.9941C6.00016 12.1175 5.68445 13.2183 5.08904 14.171L3.89122 16.0875C3.37087 16.9201 3.96943 18 4.95122 18H19.0491C20.0309 18 20.6294 16.9201 20.1091 16.0875L18.9113 14.171C18.3159 13.2183 18.0002 12.1175 18.0002 10.9941V9C18.0002 6.33984 16.2698 4.0857 13.8737 3.2986Z" fill="#161823"/>
<path d="M12.0002 21.75C10.4624 21.75 9.14086 20.8244 8.56219 19.5H15.4381C14.8595 20.8244 13.5379 21.75 12.0002 21.75Z" fill="#161823"/>
</svg>
