<svg width="20" height="20" viewBox="0 0 20 20" fill="none" xmlns="http://www.w3.org/2000/svg">
<path d="M12.3377 17.6903C12.438 17.8029 12.3946 17.9857 12.2494 18.0263C12.0621 18.0787 11.8721 18.1247 11.6798 18.164C11.239 18.2542 10.7855 18.3096 10.3224 18.3272C10.2155 18.3313 10.1081 18.3333 10.0002 18.3333C7.52727 18.3333 5.30598 17.2561 3.77982 15.5454C2.46568 14.0723 1.66699 12.1294 1.66699 9.99999C1.66699 5.39762 5.39795 1.66666 10.0003 1.66666C14.6027 1.66666 18.3337 5.39762 18.3337 9.99999C18.3337 10.2276 18.3245 10.4531 18.3066 10.6761C18.2946 10.8265 18.1232 10.9041 17.9934 10.8271C17.679 10.6406 17.34 10.4913 16.9824 10.3852C16.8914 10.3582 16.8289 10.2736 16.8314 10.1787C16.8329 10.1193 16.8337 10.0597 16.8337 9.99999C16.8337 6.22604 13.7743 3.16666 10.0003 3.16666C6.22638 3.16666 3.16699 6.22604 3.16699 9.99999C3.16699 11.5118 3.65794 12.9089 4.48911 14.0407C5.53213 12.7509 7.5812 11.875 10.0001 11.875C10.6055 11.875 11.1878 11.9299 11.7369 12.0324C11.8776 12.0586 11.9408 12.2222 11.8657 12.3441C11.6797 12.6464 11.5283 12.9723 11.4173 13.3163C11.3857 13.4141 11.2882 13.4759 11.1866 13.4609C10.8117 13.4052 10.4149 13.375 10.0001 13.375C8.71145 13.375 7.5957 13.6668 6.77097 14.1059C6.1608 14.4308 5.75926 14.8065 5.52437 15.1635C6.72338 16.2037 8.28833 16.8333 10.0003 16.8333C10.5079 16.8333 11.0026 16.778 11.4786 16.673C11.5712 16.6526 11.666 16.6976 11.7099 16.7817C11.8819 17.1105 12.0932 17.4155 12.3377 17.6903Z" fill="#161823"/>
<path d="M14.1159 17.2478C13.6704 16.9701 13.3031 16.5789 13.0543 16.1146C12.8286 15.6931 12.7005 15.2115 12.7005 14.7C12.7005 14.4248 12.7376 14.1582 12.807 13.9051C12.944 13.405 13.2072 12.9571 13.5603 12.5977C14.1046 12.0436 14.8624 11.7 15.7005 11.7C16.0084 11.7 16.3055 11.7463 16.5852 11.8325C17.0947 11.9895 17.5464 12.2787 17.9001 12.6599C18.3968 13.1952 18.7005 13.9121 18.7005 14.7C18.7005 16.3568 17.3574 17.7 15.7005 17.7C15.1188 17.7 14.5757 17.5344 14.1159 17.2478Z" fill="#161823"/>
<path fill-rule="evenodd" clip-rule="evenodd" d="M10.0029 10.8333C11.5147 10.8333 12.7404 9.47153 12.7404 7.79167C12.7404 6.1118 11.5147 4.75 10.0029 4.75C8.49099 4.75 7.26537 6.1118 7.26537 7.79167C7.26537 9.47153 8.49099 10.8333 10.0029 10.8333ZM10.0029 9.43333C10.6064 9.43333 11.3404 8.84073 11.3404 7.79167C11.3404 6.7426 10.6064 6.15 10.0029 6.15C9.39929 6.15 8.66537 6.7426 8.66537 7.79167C8.66537 8.84073 9.39929 9.43333 10.0029 9.43333Z" fill="#161823"/>
</svg>
