<svg width="16" height="16" viewBox="0 0 16 16" fill="none" xmlns="http://www.w3.org/2000/svg">
<path d="M4.21367 2.01367C2.99865 2.01367 2.01367 2.99865 2.01367 4.21367V11.787C2.01367 13.002 2.99864 13.987 4.21367 13.987H11.8137C13.0287 13.987 14.0137 13.002 14.0137 11.787V4.21367C14.0137 2.99865 13.0287 2.01367 11.8137 2.01367H4.21367ZM3.21367 4.21367C3.21367 3.66139 3.66139 3.21367 4.21367 3.21367H7.40034V7.40034H3.21367V4.21367ZM3.21367 8.60034H7.40034V12.787H4.21367C3.66139 12.787 3.21367 12.3393 3.21367 11.787V8.60034ZM8.60034 12.787V8.60034H12.8003C12.8048 8.60034 12.8092 8.60029 12.8137 8.60019V11.787C12.8137 12.3393 12.366 12.787 11.8137 12.787H8.60034ZM12.8137 7.40048C12.8092 7.40039 12.8048 7.40034 12.8003 7.40034H8.60034V3.21367H11.8137C12.366 3.21367 12.8137 3.66139 12.8137 4.21367V7.40048Z" fill="#161823"/>
</svg>
