<svg width="20" height="20" viewBox="0 0 20 20" fill="none" xmlns="http://www.w3.org/2000/svg">
<path d="M1.25 10C1.25 14.8325 5.16751 18.75 10 18.75C14.8325 18.75 18.75 14.8325 18.75 10C18.75 5.16751 14.8325 1.25 10 1.25C5.16751 1.25 1.25 5.16751 1.25 10ZM14.4969 9.47332C14.7898 9.76622 14.7898 10.2411 14.4969 10.534L11.0743 13.9566C10.7814 14.2495 10.3065 14.2495 10.0137 13.9566C9.72076 13.6637 9.72076 13.1888 10.0137 12.8959L12.1595 10.75H5.75719C5.34297 10.75 5.00719 10.4142 5.00719 10C5.00719 9.58582 5.34297 9.25003 5.75719 9.25003H12.1523L10.0137 7.1114C9.72076 6.81851 9.72076 6.34363 10.0137 6.05074C10.3065 5.75785 10.7814 5.75785 11.0743 6.05074L14.4969 9.47332Z" fill="#161823"/>
</svg>
