<svg width="20" height="20" viewBox="0 0 20 20" fill="none" xmlns="http://www.w3.org/2000/svg">
<path fill-rule="evenodd" clip-rule="evenodd" d="M9.99441 1.66699C8.01837 1.66699 6.59241 3.47714 6.59241 5.47699C6.59241 7.47684 8.01837 9.28699 9.99441 9.28699C11.9704 9.28699 13.3964 7.47684 13.3964 5.47699C13.3964 3.47714 11.9704 1.66699 9.99441 1.66699ZM8.09241 5.47699C8.09241 4.09686 9.04113 3.16699 9.99441 3.16699C10.9477 3.16699 11.8964 4.09686 11.8964 5.47699C11.8964 6.85712 10.9477 7.78699 9.99441 7.78699C9.04112 7.78699 8.09241 6.85712 8.09241 5.47699Z" fill="#161823"/>
<path d="M4 15.795C4 14.7847 4.56522 13.8022 5.63384 13.0433C6.70226 12.2844 8.23151 11.7887 9.99437 11.7887C10.1712 11.7887 10.3456 11.7937 10.5175 11.8034C10.675 11.8123 10.824 11.732 10.9084 11.5986C11.0813 11.3254 11.2869 11.067 11.5251 10.8288C11.6751 10.6787 11.6053 10.4094 11.395 10.3812C10.9412 10.3203 10.473 10.2887 9.99437 10.2887C7.96353 10.2887 6.12059 10.8577 4.76525 11.8203C3.41011 12.7828 2.5 14.1785 2.5 15.795L2.5 15.912C2.5 17.2467 3.58198 18.3287 4.91667 18.3287L12.7901 18.3287C12.9102 18.3287 12.9487 18.0814 12.8393 18.032C12.3629 17.8169 11.9167 17.5136 11.5251 17.122C11.475 17.072 11.4265 17.0211 11.3793 16.9693C11.2996 16.8818 11.1881 16.8287 11.0697 16.8287L4.91667 16.8287C4.41041 16.8287 4 16.4183 4 15.912L4 15.795Z" fill="#161823"/>
<path fill-rule="evenodd" clip-rule="evenodd" d="M12.3728 16.2756C11.1036 15.0064 11.1036 12.9486 12.3728 11.6794C13.642 10.4102 15.6998 10.4102 16.969 11.6794C18.0807 12.7912 18.2187 14.508 17.3828 15.7699L19.1752 17.5623C19.4291 17.8162 19.4291 18.2277 19.1752 18.4816C18.9214 18.7354 18.5098 18.7354 18.256 18.4816L16.4636 16.6892C15.2017 17.5253 13.4847 17.3875 12.3728 16.2756ZM13.292 12.5987C12.5305 13.3602 12.5305 14.5949 13.292 15.3564C14.0536 16.1179 15.2882 16.1179 16.0498 15.3564C16.8113 14.5949 16.8113 13.3602 16.0498 12.5987C15.2882 11.8372 14.0536 11.8372 13.292 12.5987Z" fill="#161823"/>
</svg>
