<svg width="24" height="24" viewBox="0 0 24 24" fill="none" xmlns="http://www.w3.org/2000/svg">
<path d="M16.8179 19.9998L15.3179 18.4998H14.6922L12.8837 20.3083C12.3955 20.7965 11.6041 20.7965 11.1159 20.3083L9.30743 18.4998H6.74983C6.05947 18.4998 5.49983 17.9402 5.49983 17.2498V14.6922L3.69131 12.8837C3.20316 12.3955 3.20316 11.6041 3.69131 11.1159L5.49983 9.30742V8.6817L3.99983 7.1817V8.6861L2.63065 10.0553C1.55671 11.1292 1.55671 12.8704 2.63065 13.9444L3.99983 15.3135V17.2498C3.99983 18.7686 5.23105 19.9998 6.74983 19.9998H8.68611L10.0553 21.369C11.1292 22.4429 12.8704 22.4429 13.9444 21.369L15.3135 19.9998H16.8179Z" fill="#161823"/>
<path d="M3.45404 4.51464L2.46955 3.53015C2.17665 3.23725 2.17665 2.76238 2.46955 2.46949C2.76244 2.17659 3.23731 2.17659 3.53021 2.46949L5.409 4.34828C5.80567 4.12633 6.26298 3.99982 6.74983 3.99982H8.68611L10.0553 2.63065C11.1292 1.55671 12.8704 1.55671 13.9444 2.63065L15.3135 3.99982H17.2498C18.7686 3.99982 19.9998 5.23103 19.9998 6.74982V8.68612L21.369 10.0553C22.4429 11.1292 22.4429 12.8704 21.369 13.9444L19.9998 15.3135V17.2498C19.9998 17.7367 19.8733 18.194 19.6514 18.5906L21.5302 20.4695C21.8231 20.7624 21.8231 21.2373 21.5302 21.5301C21.239 21.8214 20.7678 21.823 20.4745 21.5351L3.45892 4.51947C3.4573 4.51785 3.45567 4.51624 3.45404 4.51464ZM6.74983 5.49982C6.68979 5.49982 6.63074 5.50405 6.57296 5.51223L18.4874 17.4267C18.4956 17.3689 18.4998 17.3099 18.4998 17.2498V14.6922L20.3083 12.8837C20.7965 12.3955 20.7965 11.6041 20.3083 11.1159L18.4998 9.30744V6.74982C18.4998 6.05946 17.9402 5.49982 17.2498 5.49982H14.6922L12.8837 3.69131C12.3955 3.20316 11.6041 3.20316 11.1159 3.69131L9.30743 5.49982H6.74983Z" fill="#161823"/>
</svg>
