<svg width="20" height="20" viewBox="0 0 20 20" fill="none" xmlns="http://www.w3.org/2000/svg">
<path d="M10.0001 9.16669C11.841 9.16669 13.3334 7.48775 13.3334 5.41669C13.3334 3.34562 11.841 1.66669 10.0001 1.66669C8.15913 1.66669 6.66675 3.34562 6.66675 5.41669C6.66675 7.48775 8.15913 9.16669 10.0001 9.16669Z" fill="#161823"/>
<path d="M10 10.1667C8.00786 10.1667 6.15542 10.6637 4.75275 11.5541C3.36383 12.4358 2.25 13.8336 2.25 15.6061V16.25C2.25 17.5387 3.29467 18.5834 4.58333 18.5834H11.0142C11.1871 18.5834 11.2814 18.3761 11.1764 18.2388C10.4364 17.2708 9.99683 16.0611 9.99683 14.7486C9.99683 13.1356 10.6608 11.6777 11.7303 10.6333C11.8513 10.5151 11.7931 10.304 11.6256 10.2802C11.099 10.2053 10.5549 10.1667 10 10.1667Z" fill="#161823"/>
<path d="M13.9568 14.7486C13.9568 14.3344 14.2926 13.9986 14.7068 13.9986H16.7901C17.2043 13.9986 17.5401 14.3344 17.5401 14.7486C17.5401 15.1628 17.2043 15.4986 16.7901 15.4986H14.7068C14.2926 15.4986 13.9568 15.1628 13.9568 14.7486Z" fill="#161823"/>
<path d="M15.7485 19.0002C18.0966 19.0002 20.0001 17.0967 20.0001 14.7486C20.0001 12.4004 18.0966 10.4969 15.7485 10.4969C13.4004 10.4969 11.4968 12.4004 11.4968 14.7486C11.4968 17.0967 13.4004 19.0002 15.7485 19.0002ZM15.7485 17.6002C14.1736 17.6002 12.8968 16.3235 12.8968 14.7486C12.8968 13.1736 14.1736 11.8969 15.7485 11.8969C17.3234 11.8969 18.6001 13.1736 18.6001 14.7486C18.6001 16.3235 17.3234 17.6002 15.7485 17.6002Z" fill="#161823"/>
</svg>
