<svg width="24" height="24" viewBox="0 0 24 24" fill="none" xmlns="http://www.w3.org/2000/svg">
<path d="M5.24962 2C5.24962 1.58579 5.58541 1.25 5.99962 1.25H17.9996C18.4138 1.25 18.7496 1.58579 18.7496 2C18.7496 2.41421 18.4138 2.75 17.9996 2.75H5.99962C5.58541 2.75 5.24962 2.41421 5.24962 2Z" fill="#161823"/>
<path d="M11.9996 4.00524C11.8073 4.00524 11.6233 4.08326 11.4896 4.22144L4.36337 11.5873C3.63728 12.3378 4.1691 13.5923 5.21336 13.5923H8.76131L8.76138 22.2927C8.76139 22.6846 9.07909 23.0023 9.47099 23.0023H14.5284C14.7166 23.0023 14.8971 22.9275 15.0301 22.7945C15.1632 22.6614 15.238 22.4809 15.238 22.2927L15.2379 13.5923H18.7858C19.8301 13.5923 20.3619 12.3378 19.6358 11.5873L12.5096 4.22144C12.3759 4.08326 12.1919 4.00524 11.9996 4.00524ZM5.77132 12.1731L11.9996 5.7354L18.2279 12.1731H14.5283C14.3401 12.1731 14.1596 12.2478 14.0265 12.3809C13.8934 12.514 13.8187 12.6945 13.8187 12.8827L13.8188 21.5831H10.1806L10.1805 12.8827C10.1805 12.4908 9.86281 12.1731 9.47091 12.1731H5.77132Z" fill="#161823"/>
</svg>
