<svg width="16" height="16" viewBox="0 0 16 16" fill="none" xmlns="http://www.w3.org/2000/svg">
<path fill-rule="evenodd" clip-rule="evenodd" d="M14.6663 8.00004C14.6663 11.6819 11.6816 14.6667 7.99967 14.6667C4.31778 14.6667 1.33301 11.6819 1.33301 8.00004C1.33301 4.31814 4.31778 1.33337 7.99967 1.33337C11.6816 1.33337 14.6663 4.31814 14.6663 8.00004ZM4.40755 7.57576C4.17323 7.81008 4.17323 8.18998 4.40755 8.42429L7.16158 11.1783C7.39589 11.4126 7.77579 11.4126 8.01011 11.1783C8.24442 10.944 8.24442 10.5641 8.01011 10.3298L6.28034 8.60002H11.3864C11.7177 8.60002 11.9864 8.3314 11.9864 8.00002C11.9864 7.66865 11.7177 7.40002 11.3864 7.40002H6.28034L8.01011 5.67026C8.24442 5.43595 8.24442 5.05605 8.01011 4.82173C7.77579 4.58742 7.39589 4.58742 7.16158 4.82173L4.40755 7.57576Z" fill="#161823"/>
</svg>
