<svg width="20" height="20" viewBox="0 0 20 20" fill="none" xmlns="http://www.w3.org/2000/svg">
<path d="M10.0003 18.3334C14.6027 18.3334 18.3337 14.6024 18.3337 10C18.3337 5.39765 14.6027 1.66669 10.0003 1.66669C5.39795 1.66669 1.66699 5.39765 1.66699 10C1.66699 14.6024 5.39795 18.3334 10.0003 18.3334ZM10.4885 14.0149C10.318 14.13 10.1262 14.2323 9.99828 14.2323C9.8704 14.2323 9.68285 14.13 9.51234 14.0149C7.28728 12.5656 5.83374 10.8478 5.83374 9.11722C5.83374 7.55712 6.91643 6.5 8.22931 6.5C9.04772 6.5 9.64874 6.95183 9.99828 7.61253C10.3563 6.95183 10.9531 6.5 11.7715 6.5C13.0844 6.5 14.1671 7.55712 14.1671 9.11722C14.1671 10.8478 12.7135 12.5656 10.4885 14.0149Z" fill="#161823"/>
</svg>
