<svg width="20" height="20" viewBox="0 0 20 20" fill="none" xmlns="http://www.w3.org/2000/svg">
<path fill-rule="evenodd" clip-rule="evenodd" d="M12.75 7.40039C12.75 8.65917 11.9043 9.72041 10.75 10.0469V10.8496H11.5C11.9142 10.8496 12.25 11.1854 12.25 11.5996C12.25 12.0138 11.9142 12.3496 11.5 12.3496H10.75V13.0508H12C12.4142 13.0508 12.75 13.3866 12.75 13.8008C12.75 14.215 12.4142 14.5508 12 14.5508H10.75V14.9004C10.75 15.3146 10.4142 15.6504 10 15.6504C9.58579 15.6504 9.25 15.3146 9.25 14.9004V10.0469C8.09575 9.72041 7.25 8.65917 7.25 7.40039C7.25 5.88161 8.48122 4.65039 10 4.65039C11.5188 4.65039 12.75 5.88161 12.75 7.40039ZM10 6.15039C9.30964 6.15039 8.75 6.71003 8.75 7.40039C8.75 8.09075 9.30964 8.65039 10 8.65039C10.6904 8.65039 11.25 8.09075 11.25 7.40039C11.25 6.71003 10.6904 6.15039 10 6.15039Z" fill="#161823"/>
<path fill-rule="evenodd" clip-rule="evenodd" d="M7 1.25C4.92893 1.25 3.25 2.92893 3.25 5V15C3.25 17.0711 4.92893 18.75 7 18.75H13C15.0711 18.75 16.75 17.0711 16.75 15V5C16.75 2.92893 15.0711 1.25 13 1.25H7ZM4.75 5C4.75 3.75736 5.75736 2.75 7 2.75H13C14.2426 2.75 15.25 3.75736 15.25 5V15C15.25 16.2426 14.2426 17.25 13 17.25H7C5.75736 17.25 4.75 16.2426 4.75 15V5Z" fill="#161823"/>
</svg>
