<svg width="24" height="24" viewBox="0 0 24 24" fill="none" xmlns="http://www.w3.org/2000/svg">
<path d="M11.9998 11C14.2089 11 15.9998 8.98529 15.9998 6.50001C15.9998 4.01473 14.2089 2.00001 11.9998 2.00001C9.79062 2.00001 7.99976 4.01473 7.99976 6.50001C7.99976 8.98529 9.79062 11 11.9998 11Z" fill="#161823"/>
<path d="M5.86408 14.1182C7.49136 13.0852 9.6563 12.5 12 12.5C13.1173 12.5 14.1799 12.6295 15.1724 12.879C15.2406 12.8961 15.2272 13.0213 15.1578 13.033C14.6938 13.1115 14.2489 13.3298 13.8908 13.6879C12.9736 14.6051 12.9736 16.0921 13.8908 17.0093L15.5301 18.6486L13.8908 20.2879C13.4711 20.7076 13.2434 21.2466 13.2078 21.7957C13.2006 21.9076 13.1112 22 12.999 22H5.5C4.11929 22 3 20.8807 3 19.5V18.7273C3 16.7372 4.25055 15.1424 5.86408 14.1182Z" fill="#161823"/>
<path d="M22.7515 15.9486C23.0829 15.6172 23.0829 15.0799 22.7515 14.7485C22.4201 14.4172 21.8828 14.4172 21.5514 14.7485L18.8514 17.4485L16.1515 14.7485C15.8201 14.4172 15.2828 14.4172 14.9514 14.7485C14.62 15.0799 14.62 15.6172 14.9514 15.9486L17.6514 18.6486L14.9514 21.3485C14.62 21.6799 14.62 22.2172 14.9514 22.5486C15.2828 22.88 15.8201 22.88 16.1515 22.5486L18.8514 19.8486L21.5514 22.5486C21.8828 22.88 22.4201 22.88 22.7515 22.5486C23.0829 22.2172 23.0829 21.6799 22.7515 21.3485L20.0515 18.6486L22.7515 15.9486Z" fill="#161823"/>
</svg>
