<svg width="20" height="20" viewBox="0 0 20 20" fill="none" xmlns="http://www.w3.org/2000/svg">
<path d="M18.2321 6.10684C18.7775 5.17343 18.1042 4.00031 17.0231 4.00049L3.06558 4.00281C1.86346 4.00301 1.22058 5.41837 2.01137 6.32377L5.28608 10.0731C5.51244 10.3219 5.86797 10.4069 6.18239 10.2874L12.1168 8.03182C12.1858 8.00557 12.2172 8.01642 12.2309 8.02186C12.2548 8.03138 12.289 8.05605 12.3159 8.10162C12.3428 8.14718 12.3479 8.1891 12.3447 8.21464C12.3428 8.22924 12.3372 8.26193 12.2808 8.30971L7.4085 12.4423C7.15741 12.6553 7.05835 12.998 7.1571 13.3121L8.60906 17.9336C8.92808 18.949 10.1698 19.2106 10.8851 18.5549C10.3908 17.9754 10.1075 17.2306 10.1075 16.4455V13.851C10.1075 12.6899 10.727 11.6169 11.7325 11.0364L13.9795 9.73913C14.6966 9.32508 15.5325 9.20633 16.3177 9.38288L18.2321 6.10684Z" fill="#161823"/>
<path d="M16.8545 15.1482C16.8545 15.8386 16.2948 16.3982 15.6045 16.3982C14.9141 16.3982 14.3545 15.8386 14.3545 15.1482C14.3545 14.4579 14.9141 13.8982 15.6045 13.8982C16.2948 13.8982 16.8545 14.4579 16.8545 15.1482Z" fill="#161823"/>
<path d="M14.7295 11.0382C15.2709 10.7256 15.938 10.7256 16.4795 11.0382L18.7264 12.3354C19.2678 12.648 19.6014 13.2257 19.6014 13.851V16.4455C19.6014 17.0707 19.2678 17.6484 18.7264 17.961L16.4795 19.2583C15.938 19.5709 15.2709 19.5709 14.7295 19.2583L12.4825 17.961C11.9411 17.6484 11.6075 17.0707 11.6075 16.4455V13.851C11.6075 13.2257 11.9411 12.648 12.4825 12.3354L14.7295 11.0382ZM15.7295 12.3372C15.6521 12.2925 15.5568 12.2925 15.4795 12.3372L13.2325 13.6345C13.1552 13.6791 13.1075 13.7616 13.1075 13.851V16.4455C13.1075 16.5348 13.1552 16.6173 13.2325 16.662L15.4795 17.9592C15.5568 18.0039 15.6521 18.0039 15.7295 17.9592L17.9764 16.662C18.0537 16.6173 18.1014 16.5348 18.1014 16.4455V13.851C18.1014 13.7616 18.0537 13.6791 17.9764 13.6345L15.7295 12.3372Z" fill="#161823"/>
</svg>
