<svg width="24" height="24" viewBox="0 0 24 24" fill="none" xmlns="http://www.w3.org/2000/svg">
<path fill-rule="evenodd" clip-rule="evenodd" d="M2.9516 12.1029C2.17751 11.4966 1.54573 10.8511 1.1218 10.186C0.636977 9.42532 0.383347 8.56834 0.612836 7.71188C0.842326 6.85541 1.49046 6.24006 2.29066 5.82373C3.09026 5.40771 4.11215 5.1496 5.25704 5.0257C5.536 4.99551 5.82468 4.97304 6.12212 4.95834C7.73282 3.56185 9.83413 2.7168 12.1329 2.7168C16.208 2.7168 19.6627 5.37262 20.8635 9.04835C20.9875 9.13319 21.1082 9.21859 21.2257 9.30449C22.1553 9.98424 22.9112 10.7187 23.3956 11.4788C23.8805 12.2394 24.1341 13.0964 23.9046 13.9529C23.6751 14.8094 23.027 15.4247 22.2268 15.841C21.6219 16.1557 20.8899 16.3801 20.0736 16.5243C19.8109 16.5707 19.5392 16.6092 19.2604 16.6394C16.9655 16.8878 14.013 16.614 10.9309 15.7882C7.84885 14.9623 5.15507 13.7232 3.29176 12.3606C3.23366 12.3181 3.17625 12.2754 3.11953 12.2325C3.06285 12.1897 3.00686 12.1462 2.9516 12.1029ZM20.8541 14.7917C21.109 14.7078 21.3362 14.6135 21.5345 14.5104C22.1108 14.2105 22.3721 13.8765 22.4557 13.5647C22.5393 13.2528 22.4799 12.8329 22.1307 12.285C21.9326 11.9741 21.6542 11.6448 21.2969 11.3058C21.3097 11.5041 21.3162 11.7041 21.3162 11.9057C21.3162 12.9138 21.1539 13.8841 20.8541 14.7917ZM4.60953 6.63493C3.94663 6.75917 3.40066 6.9371 2.98299 7.1544C2.40661 7.45428 2.1453 7.78821 2.06173 8.1001C1.97815 8.41199 2.0375 8.83184 2.38671 9.37974C2.56195 9.65467 2.79992 9.94401 3.09971 10.2418C3.34155 8.91882 3.86654 7.6948 4.60953 6.63493Z" fill="#161823"/>
<path d="M4.95734 17.6408C4.24707 16.7521 3.69808 15.7281 3.35508 14.614C3.30182 14.4409 3.49252 14.3014 3.6474 14.3951C5.54816 15.545 7.9334 16.5379 10.5427 17.237C13.3085 17.9781 16.0213 18.3076 18.3311 18.2112C18.5128 18.2037 18.6129 18.4194 18.4815 18.5451C16.8324 20.1244 14.596 21.0946 12.1329 21.0946C10.8045 21.0946 9.54041 20.812 8.39876 20.303L6.29983 21.1781C5.27223 21.6066 4.19813 20.6796 4.46749 19.6015L4.95734 17.6408Z" fill="#161823"/>
</svg>
