<svg width="20" height="20" viewBox="0 0 20 20" fill="none" xmlns="http://www.w3.org/2000/svg">
<path d="M10.8337 9.16668C12.4906 9.16668 13.8337 7.6743 13.8337 5.83335C13.8337 3.9924 12.4906 2.50002 10.8337 2.50002C9.17689 2.50002 7.83374 3.9924 7.83374 5.83335C7.83374 7.6743 9.17689 9.16668 10.8337 9.16668Z" fill="#161823"/>
<path d="M6.32426 11.5805C7.52885 10.834 9.12041 10.4167 10.8337 10.4167C11.5665 10.4167 12.2771 10.493 12.9446 10.6389C13.0957 10.6719 13.1467 10.8578 13.0374 10.9672L10.9094 13.0951C10.0307 13.9738 10.0307 15.3984 10.9094 16.2771C11.5477 16.9154 12.474 17.09 13.2699 16.801V17.3C13.2699 17.4105 13.1804 17.5 13.0699 17.5H6.25032C5.09973 17.5 4.16699 16.5673 4.16699 15.4167V15C4.16699 13.4945 5.13467 12.3178 6.32426 11.5805Z" fill="#161823"/>
<path d="M7.1214 3.60672C6.77583 4.27851 6.58362 5.04379 6.58362 5.83333C6.58362 6.83915 6.89555 7.80559 7.43912 8.58955C7.07018 8.82779 6.6414 8.96422 6.18394 8.96422C4.80231 8.96422 3.68227 7.71974 3.68227 6.18459C3.68227 4.64945 4.80231 3.40496 6.18394 3.40496C6.51544 3.40496 6.83188 3.47661 7.1214 3.60672Z" fill="#161823"/>
<path d="M6.32812 10.3465C6.09942 10.4593 5.87829 10.5816 5.66577 10.7133C4.25989 11.5846 2.91699 13.1047 2.91699 15.1953V15.612C2.91699 15.9808 2.97689 16.3356 3.08749 16.6673H2.3619C1.28776 16.6673 0.416992 15.7965 0.416992 14.7224V14.3749C0.416992 13.0223 1.28625 11.984 2.31417 11.3469C3.35708 10.7006 4.72371 10.3453 6.18389 10.3453C6.23207 10.3453 6.28015 10.3457 6.32812 10.3465Z" fill="#161823"/>
<path d="M19.0697 15.2165C18.7768 15.5094 18.3019 15.5094 18.009 15.2165L16.2698 13.4773V18.3333C16.2698 18.7475 15.934 19.0833 15.5198 19.0833C15.1056 19.0833 14.7698 18.7475 14.7698 18.3333V13.4773L13.0307 15.2165C12.7378 15.5094 12.2629 15.5094 11.97 15.2165C11.6771 14.9236 11.6771 14.4487 11.97 14.1558L14.9895 11.1363C15.2824 10.8434 15.7573 10.8434 16.0502 11.1363L19.0697 14.1558C19.3626 14.4487 19.3626 14.9236 19.0697 15.2165Z" fill="#161823"/>
</svg>
