<svg width="16" height="16" viewBox="0 0 16 16" fill="none" xmlns="http://www.w3.org/2000/svg">
<path d="M10.6665 4.33333C10.6665 5.99018 9.4726 7.33333 7.99984 7.33333C6.52708 7.33333 5.33317 5.99018 5.33317 4.33333C5.33317 2.67647 6.52708 1.33333 7.99984 1.33333C9.4726 1.33333 10.6665 2.67647 10.6665 4.33333Z" fill="#161823"/>
<path d="M3.90939 9.41212C4.99424 8.72348 6.43753 8.33333 8 8.33333C8.15225 8.33333 8.30317 8.33702 8.45257 8.34431C8.57506 8.35029 8.62341 8.50979 8.53499 8.59476C7.91884 9.18691 7.56795 10.0642 7.56795 11.0195C7.56795 12.0287 7.99182 12.9493 8.60247 13.7364C8.78753 13.975 8.99364 14.2066 9.21768 14.4309C9.30336 14.5166 9.24385 14.6667 9.12261 14.6667H3.66667C2.74619 14.6667 2 13.9205 2 13V12.4848C2 11.1581 2.8337 10.0949 3.90939 9.41212Z" fill="#161823"/>
<path d="M12.3319 9.57794C12.6388 9.16433 12.9773 8.92574 13.5109 8.92574C14.5612 8.92574 15.3333 9.77143 15.3333 11.0195C15.3333 12.404 14.1705 13.7783 12.3905 14.9377C12.254 15.0297 12.1006 15.1116 11.9983 15.1116C11.896 15.1116 11.7459 15.0297 11.6095 14.9377C11.4728 14.8486 11.3396 14.7582 11.2104 14.6667C10.2399 13.9794 9.48888 13.2258 9.06209 12.4452C8.80601 11.9768 8.66665 11.4988 8.66665 11.0195C8.66665 9.77141 9.44022 8.92572 10.4905 8.92572C10.8285 8.92572 11.0893 8.99936 11.3008 9.13575C11.4553 9.23538 11.5835 9.36849 11.6961 9.53083C11.8088 9.69317 11.9059 9.88474 11.9983 10.1013C12.1106 9.90534 12.2191 9.72984 12.3319 9.57794Z" fill="#161823"/>
</svg>
