<svg width="24" height="24" viewBox="0 0 24 24" fill="none" xmlns="http://www.w3.org/2000/svg">
<path d="M2.46967 2.46967C2.76256 2.17678 3.23744 2.17678 3.53033 2.46967L5.06066 4H19C20.6569 4 22 5.34315 22 7V17C22 18.0689 21.441 19.0073 20.5993 19.5386L21.5303 20.4697C21.8232 20.7626 21.8232 21.2374 21.5303 21.5303C21.2391 21.8216 20.7679 21.8232 20.4747 21.5353L3.45904 4.51966C3.43909 4.4997 3.41829 4.48111 3.39676 4.46387L3.40071 4.46137L2.46967 3.53033C2.17678 3.23744 2.17678 2.76256 2.46967 2.46967ZM9.93456 8.87389L14.2044 13.1437L15.0331 12.5782C15.4404 12.3003 15.4404 11.6997 15.0331 11.4218L10.9445 8.63201C10.5831 8.38542 10.1217 8.53193 9.93456 8.87389Z" fill="#161823"/>
<path d="M2.37177 5.55233C2.13484 5.98156 2 6.47503 2 7V17C2 18.6569 3.34315 20 5 20H16.8181L11.6825 14.8644L10.9445 15.368C10.4799 15.685 9.84998 15.3523 9.84998 14.7898V13.0319L2.39838 5.58032C2.38923 5.57116 2.38036 5.56183 2.37177 5.55233Z" fill="#161823"/>
</svg>
