<svg width="16" height="16" viewBox="0 0 16 16" fill="none" xmlns="http://www.w3.org/2000/svg">
<path d="M5.6 0.999611H9.79361C9.87751 0.999611 9.92512 1.09755 9.87699 1.16628C9.51331 1.68555 9.2999 2.31779 9.2999 2.99987C9.2999 4.76718 10.7326 6.19987 12.4999 6.19987C12.63 6.19987 12.7582 6.19211 12.8842 6.17704C12.9452 6.16974 13 6.21653 13 6.27794V12.3996C13 13.8355 11.8359 14.9996 10.4 14.9996H5.6C4.16406 14.9996 3 13.8356 3 12.3996V3.59961C3 2.16367 4.16406 0.999611 5.6 0.999611ZM6.77093 6.07789C6.58283 6.18439 6.46655 6.38384 6.46655 6.60001V10C6.46655 10.2162 6.58283 10.4156 6.77093 10.5221C6.95904 10.6286 7.18989 10.6257 7.37525 10.5145L10.2086 8.8145C10.3893 8.70607 10.4999 8.51077 10.4999 8.30001C10.4999 8.08925 10.3893 7.89395 10.2086 7.78551L7.37525 6.08551C7.18989 5.9743 6.95904 5.97138 6.77093 6.07789Z" fill="#161823"/>
<path d="M10.5739 2.45888C10.7186 1.94267 11.0653 1.51089 11.5233 1.25412C11.8121 1.0922 12.1452 0.999886 12.4999 0.999886C13.6045 0.999886 14.4999 1.89532 14.4999 2.99989C14.4999 4.10445 13.6045 4.99989 12.4999 4.99989C11.3953 4.99989 10.4999 4.10445 10.4999 2.99989C10.4999 2.90614 10.5064 2.81391 10.5188 2.7236C10.5313 2.6333 10.5498 2.54492 10.5739 2.45888Z" fill="#161823"/>
</svg>
