<svg width="16" height="16" viewBox="0 0 16 16" fill="none" xmlns="http://www.w3.org/2000/svg">
<path d="M8 6.71661C8.69036 6.71661 9.25 7.27625 9.25 7.96661C9.25 8.65697 8.69036 9.21661 8 9.21661C7.30964 9.21661 6.75 8.65697 6.75 7.96661C6.75 7.27625 7.30964 6.71661 8 6.71661Z" fill="#161823"/>
<path d="M8 0.983276C8.69036 0.983276 9.25 1.54292 9.25 2.23328C9.25 2.92363 8.69036 3.48328 8 3.48328C7.30964 3.48328 6.75 2.92363 6.75 2.23328C6.75 1.54292 7.30964 0.983276 8 0.983276Z" fill="#161823"/>
<path d="M8 12.4833C8.69036 12.4833 9.25 13.0429 9.25 13.7333C9.25 14.4236 8.69036 14.9833 8 14.9833C7.30964 14.9833 6.75 14.4236 6.75 13.7333C6.75 13.0429 7.30964 12.4833 8 12.4833Z" fill="#161823"/>
</svg>
