<svg width="20" height="20" viewBox="0 0 20 20" fill="none" xmlns="http://www.w3.org/2000/svg">
<path d="M13.4366 10.4257C11.7473 11.2293 10.9027 11.6312 9.99976 11.6312C9.09678 11.6312 8.25218 11.2294 6.56299 10.4257L2.47149 8.47928C0.825797 7.69637 0.00292969 7.3049 0.00292969 6.67324C0.00292969 6.04158 0.825785 5.65012 2.47149 4.8672L6.56297 2.92075C8.25218 2.11714 9.09678 1.71533 9.99976 1.71533C10.9027 1.71535 11.7473 2.11716 13.4365 2.92076L17.5279 4.8672C19.1736 5.65012 19.9965 6.04159 19.9965 6.67324C19.9965 6.98378 19.7976 7.23626 19.3999 7.50573L19.3999 11.9987C19.7597 12.2181 19.9999 12.6143 19.9999 13.0666V14.5253C19.9999 15.0239 19.5957 15.4281 19.0971 15.4281H18.4027C17.9041 15.4281 17.4999 15.0239 17.4999 14.5253V13.0666C17.4999 12.6143 17.7401 12.2182 18.0999 11.9987L18.0999 8.206C17.9219 8.29185 17.7314 8.38246 17.5285 8.47903L13.4366 10.4257Z" fill="#161823"/>
<path d="M6.16941 11.8998C7.60962 12.5869 8.7505 13.1312 9.99977 13.1312C11.249 13.1312 12.3899 12.5869 13.8301 11.8998L16.3191 10.7155V13.8567C16.3191 14.5191 16.3191 14.8503 16.2256 15.1452C16.1277 15.4539 15.9564 15.7341 15.7264 15.9619C15.5202 16.166 15.2483 16.3115 14.7294 16.5778L14.6222 16.6327C13.0026 17.4626 12.1927 17.8775 11.3453 18.0568C10.4581 18.2445 9.54136 18.2445 8.65412 18.0568C7.8067 17.8775 6.99685 17.4625 5.37721 16.6327C4.7877 16.3307 4.49292 16.1796 4.27303 15.9619C4.04299 15.7341 3.87168 15.4539 3.77384 15.1452C3.68031 14.8503 3.68031 14.5191 3.68031 13.8567V10.7155L6.16941 11.8998Z" fill="#161823"/>
</svg>
