<svg width="12" height="12" viewBox="0 0 12 12" fill="none" xmlns="http://www.w3.org/2000/svg">
<path fill-rule="evenodd" clip-rule="evenodd" d="M10 2H2C1.44772 2 1 2.44772 1 3V9C1 9.55228 1.44772 10 2 10H10C10.5523 10 11 9.55229 11 9V3C11 2.44772 10.5523 2 10 2ZM2 1C0.895431 1 0 1.89543 0 3V9C0 10.1046 0.895431 11 2 11H10C11.1046 11 12 10.1046 12 9V3C12 1.89543 11.1046 1 10 1H2ZM1.98877 4.20001C1.98877 3.92387 2.21263 3.70001 2.48877 3.70001H4.50244C4.77858 3.70001 5.00244 3.92387 5.00244 4.20001C5.00244 4.47615 4.77858 4.70001 4.50244 4.70001H2.48877C2.21263 4.70001 1.98877 4.47615 1.98877 4.20001ZM2.48877 5.5C2.21263 5.5 1.98877 5.72386 1.98877 6C1.98877 6.27614 2.21263 6.5 2.48877 6.5H4.50244C4.77858 6.5 5.00244 6.27614 5.00244 6C5.00244 5.72386 4.77858 5.5 4.50244 5.5H2.48877ZM1.98877 7.79999C1.98877 7.52385 2.21263 7.29999 2.48877 7.29999H4.50244C4.77858 7.29999 5.00244 7.52385 5.00244 7.79999C5.00244 8.07613 4.77858 8.29999 4.50244 8.29999H2.48877C2.21263 8.29999 1.98877 8.07613 1.98877 7.79999ZM7.00666 4.72882C7.00666 4.17854 7.3981 3.68878 7.93114 3.68878C8.46417 3.68878 8.85562 4.17854 8.85562 4.72882C8.85562 5.2791 8.46417 5.76886 7.93114 5.76886C7.3981 5.76886 7.00666 5.2791 7.00666 4.72882ZM6.47521 6.54149C6.85098 6.2746 7.36391 6.11562 7.93115 6.11562C8.49839 6.11562 9.01133 6.2746 9.3871 6.54149C9.76283 6.80835 10.0112 7.19227 10.0112 7.63366V7.67568C10.0112 8.0267 9.72667 8.31126 9.37565 8.31126H6.48665C6.13563 8.31126 5.85107 8.0267 5.85107 7.67568V7.63366C5.85107 7.19227 6.09948 6.80835 6.47521 6.54149Z" fill="#161823"/>
</svg>
