<svg width="12" height="12" viewBox="0 0 12 12" fill="none" xmlns="http://www.w3.org/2000/svg">
<path d="M6 11C8.76142 11 11 8.76142 11 6C11 3.23858 8.76142 1 6 1C3.23858 1 1 3.23858 1 6C1 8.76142 3.23858 11 6 11ZM6.19017 3.12462C6.3891 2.81569 6.86857 3.00208 6.8066 3.36426L6.52813 4.99168L7.57609 5.10929C7.86095 5.14126 8.0137 5.46074 7.85973 5.70252L5.83907 8.87552C5.64119 9.18624 5.1596 9.00042 5.22173 8.63731L5.49844 7.02013L4.42453 6.90145C4.13849 6.86983 3.98549 6.54846 4.1413 6.3065L6.19017 3.12462Z" fill="#161823"/>
</svg>
