<svg width="12" height="12" viewBox="0 0 12 12" fill="none" xmlns="http://www.w3.org/2000/svg">
<path d="M1.16888 1.80854C1 2.13365 1 2.56076 1 3.415V6.585C1 7.43924 1 7.86635 1.16888 8.19146C1.31119 8.46543 1.53457 8.68881 1.80854 8.83112C2.13365 9 2.56076 9 3.415 9H6.585C7.43924 9 7.86635 9 8.19146 8.83112C8.46543 8.68881 8.68881 8.46543 8.83112 8.19146C9 7.86635 9 7.43924 9 6.585V3.415C9 2.56076 9 2.13365 8.83112 1.80854C8.68881 1.53457 8.46543 1.31119 8.19146 1.16888C7.86635 1 7.43924 1 6.585 1H3.415C2.56076 1 2.13365 1 1.80854 1.16888C1.53457 1.31119 1.31119 1.53457 1.16888 1.80854Z" fill="#161823"/>
<path d="M3.16892 10.1915C3.12147 10.1001 3.19564 10 3.29859 10H6.37754C7.6589 10 8.29958 10 8.78724 9.74669C9.19818 9.53322 9.53325 9.19815 9.74673 8.78721C10 8.29954 10 7.65887 10 6.37751V3.29856C10 3.19561 10.1001 3.12143 10.1915 3.16889C10.4655 3.31121 10.6889 3.53459 10.8312 3.80855C11 4.13366 11 4.56078 11 5.41501V8.10201C11 9.1271 11 9.63964 10.7974 10.0298C10.6266 10.3585 10.3586 10.6266 10.0298 10.7974C9.63967 11 9.12713 11 8.10204 11H5.41504C4.56081 11 4.13369 11 3.80858 10.8311C3.53462 10.6888 3.31124 10.4654 3.16892 10.1915Z" fill="#161823"/>
</svg>
