<svg width="16" height="16" viewBox="0 0 16 16" fill="none" xmlns="http://www.w3.org/2000/svg">
<path opacity="0.9" d="M14.6146 7.23598C14.6146 8.84248 13.8719 10.1918 12.5496 11.5164C11.3643 12.7038 9.5373 13.7872 8.61662 14.2961C8.35594 14.4402 8.04454 14.2501 8.04454 13.9522V12.7342C4.36239 12.7342 1.28125 10.4962 1.28125 7.23607C1.28125 3.97596 4.26582 1.33325 7.9479 1.33325C11.63 1.33325 14.6146 3.97596 14.6146 7.23598ZM6.20876 8.33571H7.16131L7.0018 9.95781C6.94046 10.5366 7.67116 10.8326 8.00507 10.3491L10.2205 6.93561C10.4753 6.56691 10.2185 6.0395 9.76422 6.0395H9.04297L9.60013 4.72508C9.75887 4.35058 9.49504 3.92491 9.09197 3.92491H7.1051C6.85327 3.92491 6.63504 4.09915 6.56989 4.34676L5.67431 7.61192C5.5787 7.97525 5.84049 8.33571 6.20876 8.33571Z" fill="#161823"/>
</svg>
