<svg width="20" height="20" viewBox="0 0 20 20" fill="none" xmlns="http://www.w3.org/2000/svg">
<path d="M13.8303 3.16987C13.5374 2.87698 13.0626 2.87697 12.7697 3.16986C12.4768 3.46275 12.4768 3.93762 12.7697 4.23052L14.8894 6.35029H3.2998C2.88559 6.35029 2.5498 6.68608 2.5498 7.10029C2.5498 7.51451 2.88559 7.85029 3.2998 7.85029H16.7C17.0033 7.85029 17.2768 7.66756 17.3929 7.38731C17.509 7.10706 17.4448 6.78447 17.2303 6.56997L13.8303 3.16987Z" fill="#161823"/>
<path d="M6.16966 16.8301C6.46255 17.123 6.93742 17.123 7.23032 16.8301C7.52322 16.5373 7.52323 16.0624 7.23034 15.7695L5.11062 13.6497H16.7002C17.1144 13.6497 17.4502 13.3139 17.4502 12.8997C17.4502 12.4855 17.1144 12.1497 16.7002 12.1497H3.3C2.99666 12.1497 2.72318 12.3324 2.60709 12.6127C2.49101 12.8929 2.55517 13.2155 2.76966 13.43L6.16966 16.8301Z" fill="#161823"/>
</svg>
