<svg width="16" height="16" viewBox="0 0 16 16" fill="none" xmlns="http://www.w3.org/2000/svg">
<path d="M8.00046 1.00009C6.34257 1.00009 5.13379 2.51273 5.13379 4.20009C5.13379 5.88745 6.34257 7.40009 8.00046 7.40009C9.65834 7.40009 10.8671 5.88745 10.8671 4.20009C10.8671 2.51273 9.65834 1.00009 8.00046 1.00009ZM6.33379 4.20009C6.33379 3.01557 7.15465 2.20009 8.00046 2.20009C8.84626 2.20009 9.66712 3.01557 9.66712 4.20009C9.66712 5.38462 8.84626 6.20009 8.00046 6.20009C7.15465 6.20009 6.33379 5.38462 6.33379 4.20009Z" fill="#161823"/>
<path d="M7.98366 8.2999C6.26966 8.2999 4.71568 8.77638 3.57385 9.58101C2.43242 10.3854 1.66699 11.5507 1.66699 12.8999C1.66699 14.0597 2.6072 14.9999 3.76699 14.9999H8.91961C9.00351 14.9999 9.05083 14.9022 9.0014 14.8344C8.78406 14.5363 8.6022 14.2106 8.46204 13.8637C8.44656 13.8254 8.40959 13.7999 8.36827 13.7999H3.76699C3.26994 13.7999 2.86699 13.397 2.86699 12.8999C2.86699 12.04 3.35209 11.2053 4.26508 10.5619C5.17768 9.91884 6.48203 9.4999 7.98366 9.4999C8.29755 9.4999 8.60282 9.5182 8.89769 9.55303C8.93445 9.55738 8.97065 9.54135 8.99235 9.51137C9.223 9.19272 9.49408 8.90526 9.79807 8.6565C9.86396 8.60258 9.84093 8.49477 9.75754 8.47756C9.1947 8.36141 8.59951 8.2999 7.98366 8.2999Z" fill="#161823"/>
<path d="M11.4821 9.0501C11.0822 9.20222 10.7192 9.42907 10.4101 9.71359C10.3611 9.75874 10.3134 9.80535 10.2671 9.85334C9.68918 10.4528 9.33372 11.2682 9.33372 12.1667C9.33372 14.0076 10.8261 15.5 12.6671 15.5C14.508 15.5 16.0004 14.0076 16.0004 12.1667C16.0004 10.3257 14.508 8.83334 12.6671 8.83334C12.2497 8.83334 11.8503 8.91003 11.4821 9.0501ZM14.5392 13.1903L11.6434 10.2945C11.9473 10.128 12.2961 10.0333 12.6671 10.0333C13.8453 10.0333 14.8004 10.9885 14.8004 12.1667C14.8004 12.5376 14.7057 12.8864 14.5392 13.1903ZM13.6907 14.0388C13.3868 14.2053 13.038 14.3 12.6671 14.3C11.4888 14.3 10.5337 13.3449 10.5337 12.1667C10.5337 11.7957 10.6284 11.4469 10.7949 11.143L13.6907 14.0388Z" fill="#161823"/>
</svg>
