<svg width="24" height="24" viewBox="0 0 24 24" fill="none" xmlns="http://www.w3.org/2000/svg">
<path d="M10.3789 22.1676C9.59788 22.9489 8.33131 22.949 7.55014 22.1679L1.83286 16.4506C1.05181 15.6695 1.05181 14.4032 1.83286 13.6222L6.13503 9.31999L14.6798 17.8648L10.3789 22.1676Z" fill="#161823"/>
<path d="M15.7402 16.8039L7.19569 8.25933L7.19714 8.25789L2.96955 4.0303C2.67665 3.73741 2.67665 3.26253 2.96955 2.96964C3.26244 2.67675 3.73731 2.67675 4.03021 2.96964L8.2578 7.19723L12.8707 2.58432C13.2458 2.20925 13.7545 1.99854 14.2849 1.99854L20.4998 1.99854C21.3283 1.99854 21.9998 2.67011 21.9998 3.49854V9.71336C21.9998 10.2436 21.7892 10.7522 21.4144 11.1273L16.8021 15.7415L21.0302 19.9696C21.3231 20.2625 21.3231 20.7374 21.0302 21.0303C20.7373 21.3232 20.2624 21.3232 19.9695 21.0303L15.7417 16.8024L15.7402 16.8039ZM17.3993 7.99996C18.1723 7.99996 18.7988 7.3734 18.7988 6.60049C18.7988 5.82758 18.1723 5.20102 17.3993 5.20102C16.6264 5.20102 15.9999 5.82758 15.9999 6.60049C15.9999 7.3734 16.6264 7.99996 17.3993 7.99996Z" fill="#161823"/>
</svg>
