<svg width="24" height="24" viewBox="0 0 24 24" fill="none" xmlns="http://www.w3.org/2000/svg">
<g clip-path="url(#clip0_1_2843)">
<path d="M2.41082 6.99609C2.5776 6.99609 2.73346 6.91225 2.82759 6.77457C4.64399 4.11764 6.57802 2.29791 9.67103 1.70751C9.58083 1.85567 9.4939 2.01083 9.4101 2.17189C8.82497 3.29654 8.32995 4.83104 7.94286 6.63694C7.90312 6.82234 8.04525 6.99609 8.23487 6.99609H9.1571C9.29873 6.99609 9.42094 6.89678 9.45155 6.75851C9.81558 5.11418 10.2591 3.78997 10.7408 2.86422C11.0122 2.34248 11.2776 1.98295 11.5177 1.76256C11.754 1.54575 11.923 1.50391 12.0308 1.50391C12.1378 1.50391 12.3049 1.54514 12.5383 1.76087C12.7761 1.98058 13.0388 2.33955 13.3077 2.86151C13.7848 3.78774 14.2236 5.11262 14.5869 6.75838C14.6174 6.89672 14.7396 6.99609 14.8813 6.99609H15.8034C15.993 6.99609 16.1351 6.82236 16.0955 6.63695C15.7095 4.83257 15.2203 3.29875 14.6412 2.17459C14.5583 2.01368 14.4723 1.85861 14.3829 1.7105C17.4669 2.30401 19.3975 4.1221 21.2108 6.77457C21.305 6.91225 21.4608 6.99609 21.6276 6.99609H22.602C22.8354 6.99609 22.9789 6.74114 22.8556 6.54295C20.5392 2.82048 17.4879 0 12.0192 0C6.55048 0 3.49921 2.82048 1.1828 6.54295C1.05947 6.74114 1.20302 6.99609 1.43644 6.99609H2.41082Z" fill="#161823"/>
<path d="M18.7289 7.61055C19.0478 7.70044 19.2335 8.03186 19.1436 8.35081C19.0967 8.51724 19.0243 8.73741 18.9265 8.99211H23.119C23.4504 8.99211 23.719 9.26074 23.719 9.59211C23.719 9.92348 23.4504 10.1921 23.119 10.1921H21.1743V11.4122H23.1191C23.4505 11.4122 23.7191 11.6808 23.7191 12.0122C23.7191 12.3435 23.4505 12.6122 23.1191 12.6122H21.1743V13.9427H23.3995C23.7309 13.9427 23.9995 14.2114 23.9995 14.5427C23.9995 14.8741 23.7309 15.1427 23.3995 15.1427H21.1743V16.7417C21.1743 17.0731 20.9056 17.3417 20.5743 17.3417C20.2429 17.3417 19.9743 17.0731 19.9743 16.7417V15.1427H16.7418C16.4104 15.1427 16.1418 14.8741 16.1418 14.5427C16.1418 14.2114 16.4104 13.9427 16.7418 13.9427H17.2116V12.0122C17.2116 11.9513 17.2206 11.8926 17.2375 11.8373C17.2018 11.8761 17.1658 11.9143 17.1292 11.9521C16.8985 12.19 16.5186 12.1958 16.2807 11.9651C16.0428 11.7344 16.037 11.3546 16.2677 11.1167C17.2134 10.1414 17.8142 8.64423 17.9886 8.02529C18.0785 7.70634 18.4099 7.52066 18.7289 7.61055ZM18.4116 13.9427H19.9743V12.6122H18.4116V13.9427ZM18.3772 10.1921C18.1479 10.6205 17.8712 11.064 17.5472 11.4734C17.627 11.4342 17.7167 11.4122 17.8116 11.4122H19.9743V10.1921H18.3772Z" fill="#161823"/>
<path d="M12.1495 18.1593C12.4324 18.1593 12.5738 18.1593 12.6616 18.2471C12.7495 18.335 12.7495 18.4764 12.7495 18.7593V21.2455C12.7495 22.7642 11.5183 23.9955 9.99951 23.9955C8.48073 23.9955 7.24951 22.7642 7.24951 21.2455V21.1746C7.24951 20.7604 7.5853 20.4246 7.99951 20.4246C8.41372 20.4246 8.74951 20.7604 8.74951 21.1746V21.2455C8.74951 21.9358 9.30916 22.4955 9.99951 22.4955C10.6899 22.4955 11.2495 21.9358 11.2495 21.2455V18.7593C11.2495 18.4764 11.2495 18.335 11.3374 18.2471C11.4252 18.1593 11.5667 18.1593 11.8495 18.1593H12.1495Z" fill="#161823"/>
<path d="M11.8472 7.77033C12.1786 7.77033 12.4472 8.03896 12.4472 8.37033V13.2628C12.4472 13.5941 12.1786 13.8628 11.8472 13.8628C11.5158 13.8628 11.2472 13.5941 11.2472 13.2628V8.37033C11.2472 8.03896 11.5158 7.77033 11.8472 7.77033Z" fill="#161823"/>
<path d="M10.1155 9.38002C10.4253 9.49765 10.5811 9.84414 10.4634 10.1539L9.401 12.952C9.28337 13.2618 8.93688 13.4176 8.62709 13.3C8.3173 13.1823 8.16152 12.8358 8.27915 12.526L9.34158 9.72796C9.45921 9.41817 9.8057 9.26239 10.1155 9.38002Z" fill="#161823"/>
<path d="M14.0756 9.16843C13.8823 8.89935 13.5073 8.83799 13.2383 9.03138C12.9692 9.22478 12.9078 9.59969 13.1012 9.86877L14.7707 12.1917C14.9641 12.4608 15.339 12.5222 15.6081 12.3288C15.8772 12.1354 15.9386 11.7605 15.7452 11.4914L14.0756 9.16843Z" fill="#161823"/>
<path d="M14.4765 12.5713C14.7514 12.7564 14.8242 13.1292 14.6391 13.4041C13.9278 14.4607 11.822 16.7112 8.97197 17.2979C8.6474 17.3647 8.33013 17.1558 8.26332 16.8312C8.19651 16.5066 8.40546 16.1893 8.73003 16.1225C11.1531 15.6238 13.0252 13.6526 13.6437 12.7339C13.8288 12.459 14.2016 12.3862 14.4765 12.5713Z" fill="#161823"/>
<path d="M4.19135 7.59974C4.52272 7.59974 4.79135 7.86837 4.79135 8.19974V8.47576L7.17175 8.47576C7.44789 8.47576 7.67175 8.69961 7.67175 8.97576C7.67175 9.2519 7.44789 9.47576 7.17175 9.47576L4.79135 9.47576V9.75778L6.96923 9.75778C7.24537 9.75778 7.46923 9.98164 7.46923 10.2578C7.46923 10.5339 7.24537 10.7578 6.96923 10.7578L4.79135 10.7578V11.0398H7.49956C7.7757 11.0398 7.99956 11.2637 7.99956 11.5398C7.99956 11.8159 7.7757 12.0398 7.49956 12.0398L0.882812 12.0398C0.60667 12.0398 0.382812 11.8159 0.382812 11.5398C0.382812 11.2637 0.60667 11.0398 0.882813 11.0398L3.59135 11.0398V10.7578H1.41315C1.137 10.7578 0.913147 10.5339 0.913147 10.2578C0.913147 9.98164 1.137 9.75778 1.41315 9.75778H3.59135V9.47576H1.21075C0.934612 9.47576 0.710754 9.2519 0.710754 8.97576C0.710754 8.69962 0.934612 8.47576 1.21075 8.47576H3.59135V8.19974C3.59135 7.86837 3.85997 7.59974 4.19135 7.59974Z" fill="#161823"/>
<path d="M1.68866 12.3397C1.41252 12.3397 1.18866 12.5635 1.18866 12.8397V16.9254C1.18866 17.2015 1.41252 17.4254 1.68866 17.4254C1.9648 17.4254 2.18866 17.2015 2.18866 16.9254V15.9168H6.13516C6.09371 16.1512 5.88905 16.3291 5.64282 16.3291H4.86476C4.58862 16.3291 4.36476 16.553 4.36476 16.8291C4.36476 17.1053 4.58862 17.3291 4.86476 17.3291H5.64282C6.47124 17.3291 7.14282 16.6576 7.14282 15.8291V12.8397C7.14282 12.5635 6.91896 12.3397 6.64282 12.3397H1.68866ZM6.14282 15.0168H2.18866V14.5938H6.14282V15.0168ZM6.14282 13.6938H2.18866V13.3397H6.14282V13.6938Z" fill="#161823"/>
</g>
<defs>
<clipPath id="clip0_1_2843">
<rect width="24" height="24" fill="white"/>
</clipPath>
</defs>
</svg>
