<svg width="20" height="20" viewBox="0 0 20 20" fill="none" xmlns="http://www.w3.org/2000/svg">
<path d="M7.5 1.41528C7.08579 1.41528 6.75 1.75107 6.75 2.16528C6.75 2.5795 7.08579 2.91528 7.5 2.91528H8.4165V4.45422C4.6727 4.83026 1.75 7.99052 1.75 11.8334C1.75 15.9295 5.07055 19.2501 9.16667 19.2501C9.7585 19.2501 10.3341 19.1808 10.8859 19.0498C10.6525 18.6159 10.5148 18.1229 10.5011 17.599C10.0723 17.6978 9.62557 17.7501 9.16667 17.7501C5.89898 17.7501 3.25 15.1011 3.25 11.8334C3.25 8.56573 5.89898 5.91675 9.16667 5.91675C10.9917 5.91675 12.6237 6.74301 13.709 8.04185C14.1432 7.76339 14.6315 7.56178 15.1545 7.4562C13.944 5.80311 12.0655 4.66995 9.9165 4.45418V2.91528H10.8333C11.2475 2.91528 11.5833 2.5795 11.5833 2.16528C11.5833 1.75107 11.2475 1.41528 10.8333 1.41528H7.5Z" fill="#161823"/>
<path d="M13.25 11.6221C13.25 10.1033 14.4812 8.8721 16 8.8721C17.5188 8.8721 18.75 10.1033 18.75 11.6221V12.8349C19.4729 13.05 20 13.7197 20 14.5124V17.5124C20 18.4789 19.2165 19.2624 18.25 19.2624H13.75C12.7835 19.2624 12 18.4789 12 17.5124V14.5124C12 13.7197 12.5271 13.05 13.25 12.8349V11.6221ZM17.25 11.6221C17.25 10.9317 16.6904 10.3721 16 10.3721C15.3096 10.3721 14.75 10.9317 14.75 11.6221V12.7624H17.25V11.6221ZM13.75 14.2624C13.6119 14.2624 13.5 14.3743 13.5 14.5124V17.5124C13.5 17.6505 13.6119 17.7624 13.75 17.7624H18.25C18.3881 17.7624 18.5 17.6505 18.5 17.5124V14.5124C18.5 14.3743 18.3881 14.2624 18.25 14.2624H13.75Z" fill="#161823"/>
</svg>
