<svg width="20" height="20" viewBox="0 0 20 20" fill="none" xmlns="http://www.w3.org/2000/svg">
<path d="M9.99826 1C12.6518 1 16.0816 5.57963 16.0816 8.75C16.0816 9.79206 16.0335 10.8657 15.8544 11.894C16.6493 12.6259 17.2378 13.5107 17.5343 14.5585C17.8087 15.5289 17.7479 16.5685 17.7474 17.5681C17.7193 18.0713 17.6571 18.5227 17.292 18.9094C16.9234 19.2988 16.4001 19.4854 15.8658 19.4163C15.534 19.3729 15.2931 19.249 15.0778 19.0806C14.5322 18.654 14.1716 18.0405 13.6364 17.601C13.2818 18.0786 12.4223 18.7791 12.1993 18.9575C12.1643 18.9854 12.1214 19 12.0766 19H7.91988C7.87514 19 7.83219 18.9855 7.79726 18.9575C7.57579 18.7803 6.72607 18.0873 6.35937 17.601C5.82575 18.0416 5.4585 18.6586 4.91891 19.0806C4.70358 19.249 4.46271 19.3729 4.12881 19.4166C3.59643 19.4854 3.07324 19.2987 2.70384 18.9085C2.32955 18.5126 2.28823 18.0641 2.24908 17.5517C2.25036 16.5582 2.18948 15.523 2.46239 14.5584C2.76005 13.5064 3.3488 12.6326 4.14037 11.894C3.99808 10.8493 3.93913 9.80414 3.91493 8.75C3.91493 5.57963 7.34476 1 9.99826 1ZM9.99826 2.5C8.3316 2.5 5.41493 6.26425 5.41493 8.75C5.41493 10.2028 5.55345 11.4378 5.77011 12.4812C4.92908 13.1852 4.21308 13.8805 3.90572 14.9668C3.67273 15.7903 3.75069 16.7027 3.74908 17.5512C3.75234 17.6393 3.7279 17.8083 3.79393 17.8782C3.83303 17.9195 3.87998 17.9362 3.93643 17.9289C3.96932 17.9247 4.01297 17.8892 4.0756 17.8214L4.4587 17.3652C5.01537 16.8101 5.78965 16.0908 6.71326 15.695C6.80543 15.6555 6.9108 15.6952 6.96313 15.7808C7.3582 16.4267 8.14172 17.293 8.3024 17.4683C8.32118 17.4888 8.34739 17.5 8.37518 17.5H11.6209C11.649 17.5 11.6754 17.4886 11.6942 17.4678C11.8557 17.2895 12.6432 16.4093 13.0289 15.7872C13.0835 15.6991 13.1941 15.6603 13.2874 15.7052C14.2899 16.1877 15.0835 17.0348 15.921 17.8214C15.9837 17.8892 16.0273 17.9247 16.0602 17.9289C16.1166 17.9362 16.1636 17.9195 16.2027 17.8782C16.2687 17.8083 16.2424 17.638 16.2475 17.5512C16.2465 16.7009 16.3243 15.7919 16.0909 14.9668C15.7835 13.8805 15.0675 13.1852 14.2264 12.4811C14.4431 11.4378 14.5816 10.2028 14.5816 8.75C14.5816 6.26425 11.6649 2.5 9.99826 2.5ZM9.99832 5.74786C11.5183 5.74786 12.7505 6.98006 12.7505 8.50005C12.7505 10.02 11.5183 11.2522 9.99832 11.2522C8.47833 11.2522 7.24613 10.02 7.24613 8.50005C7.24613 6.98006 8.47833 5.74786 9.99832 5.74786ZM9.99832 7.04786C9.1963 7.04786 8.54613 7.69803 8.54613 8.50005C8.54613 9.30207 9.1963 9.95224 9.99832 9.95224C10.8003 9.95224 11.4505 9.30207 11.4505 8.50005C11.4505 7.69803 10.8003 7.04786 9.99832 7.04786Z" fill="#161823"/>
</svg>
