<svg width="16" height="16" viewBox="0 0 16 16" fill="none" xmlns="http://www.w3.org/2000/svg">
<path d="M6.55354 9.57607C6.55354 7.3546 8.58366 5.68547 10.9142 5.68547C13.2448 5.68547 15.2749 7.3546 15.2749 9.57607C15.2749 10.9472 14.4739 12.0478 13.4476 12.7327L13.3996 13.5166C13.3826 14.2368 12.5591 14.6451 11.9746 14.2158L10.9312 13.4643C10.8803 13.4659 10.8293 13.4667 10.7781 13.4667C8.41714 13.4667 6.55354 11.7703 6.55354 9.57607ZM10.9142 6.88547C9.09087 6.88547 7.75354 8.16284 7.75354 9.57607C7.75354 11.0166 8.98508 12.2667 10.7781 12.2667C10.8748 12.2667 10.9703 12.263 11.0646 12.2558L11.2832 12.239L12.2337 12.9236L12.2886 12.0269L12.5692 11.866C13.4737 11.3473 14.0749 10.5178 14.0749 9.57607C14.0749 8.16284 12.7376 6.88547 10.9142 6.88547Z" fill="#161823"/>
<path d="M1.9002 7.08246C1.9002 4.79013 4.05199 2.8001 6.88006 2.8001C8.52404 2.8001 9.93949 3.47257 10.8366 4.48598C10.8625 4.48564 10.8883 4.48547 10.9142 4.48547C11.4329 4.48547 11.9481 4.55443 12.4438 4.68576C11.4302 2.8358 9.28242 1.6001 6.88006 1.6001C3.54478 1.6001 0.700195 3.98188 0.700195 7.08246C0.700195 8.83599 1.62335 10.3731 3.0191 11.3647V12.8332C3.0191 13.6342 3.88765 14.1336 4.57993 13.7306L6.42938 12.654C6.17919 12.3424 5.96623 12.0007 5.79743 11.6334L4.2191 12.5521V10.7139L3.93937 10.5374C2.68091 9.743 1.9002 8.47677 1.9002 7.08246Z" fill="#161823"/>
<path d="M7.9406 12.4836C7.89481 12.4458 7.84995 12.4071 7.80606 12.3675C7.84997 12.4071 7.89485 12.4458 7.94065 12.4836L7.9406 12.4836Z" fill="#161823"/>
<path d="M12.9715 6.14663L12.9714 6.14628C12.5495 5.94494 12.0884 5.80399 11.605 5.73464L11.605 5.73476C12.088 5.80416 12.5491 5.94512 12.9715 6.14663Z" fill="#161823"/>
<path d="M8.33082 11.1818C8.40213 11.2695 8.47947 11.3532 8.56248 11.4325C8.47948 11.3532 8.40218 11.2694 8.3309 11.1818L8.33082 11.1818Z" fill="#161823"/>
</svg>
