<svg width="20" height="20" viewBox="0 0 20 20" fill="none" xmlns="http://www.w3.org/2000/svg">
<path fill-rule="evenodd" clip-rule="evenodd" d="M12.1218 6.66449C12.8793 6.31931 13.6591 7.09916 13.314 7.85666L12.6163 9.38764L13.7529 10.6281C14.3153 11.2419 13.8146 12.2245 12.9875 12.1303L11.3159 11.9399L10.4873 13.4042C10.0774 14.1287 8.98809 13.9562 8.8221 13.1405L8.63008 12.1969L7.02539 13.8016C6.79107 14.0359 6.41117 14.0359 6.17686 13.8016C5.94254 13.5672 5.94254 13.1873 6.17686 12.953L7.78153 11.3484L6.83796 11.1563C6.02224 10.9904 5.84971 9.90105 6.57422 9.49111L8.03851 8.66259L7.84811 6.99096C7.7539 6.16387 8.73658 5.66317 9.35034 6.22553L10.5908 7.36213L12.1218 6.66449ZM11.8893 8.08914L10.9077 8.53643C10.5791 8.68618 10.1928 8.625 9.92651 8.38103L9.1312 7.6523L9.25327 8.72406C9.29414 9.08288 9.11657 9.43138 8.80226 9.60922L7.86343 10.1404L8.92046 10.3555C9.27434 10.4275 9.55091 10.7041 9.62293 11.058L9.83802 12.115L10.3692 11.1762C10.5471 10.8619 10.8956 10.6843 11.2544 10.7252L12.3261 10.8472L11.5974 10.0519C11.3534 9.78566 11.2923 9.39935 11.442 9.07072L11.8893 8.08914Z" fill="#161823"/>
<path fill-rule="evenodd" clip-rule="evenodd" d="M3.5 4.25C3.5 2.73122 4.73122 1.5 6.25 1.5H13.75C15.2688 1.5 16.5 2.73122 16.5 4.25V15.75C16.5 17.2688 15.2688 18.5 13.75 18.5H6.25C4.73122 18.5 3.5 17.2688 3.5 15.75V4.25ZM6.25 3H13.75C14.4404 3 15 3.55964 15 4.25V15.75C15 16.4404 14.4404 17 13.75 17H6.25C5.55964 17 5 16.4404 5 15.75V4.25C5 3.55964 5.55964 3 6.25 3Z" fill="#161823"/>
</svg>
