<svg width="20" height="20" viewBox="0 0 20 20" fill="none" xmlns="http://www.w3.org/2000/svg">
<path d="M16.8787 3.20824C17.0776 3.20824 17.2684 3.28725 17.409 3.42791C17.5497 3.56856 17.6287 3.75932 17.6287 3.95824V13.5417C17.6287 13.9559 17.2929 14.2917 16.8787 14.2917C16.4645 14.2917 16.1287 13.9559 16.1287 13.5417V5.75871L4.47857 17.4089C4.18568 17.7018 3.71081 17.7018 3.41791 17.4089C3.12502 17.116 3.12502 16.6411 3.41791 16.3482L15.0578 4.70824H7.28726C6.87304 4.70824 6.53726 4.37245 6.53726 3.95824C6.53726 3.54402 6.87304 3.20824 7.28726 3.20824H16.8787Z" fill="#161823"/>
</svg>
