<svg width="20" height="20" viewBox="0 0 20 20" fill="none" xmlns="http://www.w3.org/2000/svg">
<path d="M8.86725 0.858643C8.68025 0.858643 8.50394 0.945834 8.39043 1.09445C8.27692 1.24306 8.23919 1.4361 8.28839 1.61651C8.51177 2.43557 8.36491 3.03403 8.01568 3.58406C7.63834 4.17837 7.0282 4.71439 6.27314 5.36951L6.24477 5.39413C4.64311 6.78369 2.60927 8.54819 2.60254 12.0155L2.60255 12.0262L2.60256 12.0343C2.61269 15.9332 5.95144 19.0527 10.0002 19.0527C14.0489 19.0527 17.3877 15.9332 17.3978 12.0343L17.3978 12.0328L17.3978 12.0229L17.3978 12.0149C17.3937 10.5732 16.8845 8.97556 16.2966 7.75304C16.0008 7.13799 15.6728 6.59185 15.3556 6.18924C15.198 5.98925 15.0298 5.80765 14.8561 5.67032C14.7002 5.5471 14.4544 5.39041 14.1543 5.39041C13.9782 5.39041 13.8109 5.46782 13.6969 5.60212C13.5829 5.73642 13.5337 5.91402 13.5623 6.08784C13.6039 6.34089 13.5538 6.70921 13.3912 7.16465C13.2328 7.6086 12.9871 8.08075 12.7052 8.51559C12.6351 8.62376 12.5636 8.72838 12.4915 8.82857C12.763 6.85709 12.4408 5.12808 11.8703 3.7944C11.5003 2.92915 11.0212 2.2198 10.5205 1.71707C10.0449 1.23962 9.45764 0.858643 8.86725 0.858643Z" fill="#161823"/>
</svg>
