<svg width="16" height="16" viewBox="0 0 16 16" fill="none" xmlns="http://www.w3.org/2000/svg">
<path d="M2.25671 7.83103C2.62617 7.42052 3.25846 7.38724 3.66897 7.7567L8 11.6546L12.331 7.7567C12.7416 7.38724 13.3738 7.42052 13.7433 7.83103C14.1128 8.24154 14.0795 8.87383 13.669 9.24329L8.66896 13.7433C8.28866 14.0856 7.71134 14.0856 7.33104 13.7433L2.33104 9.24329C1.92053 8.87383 1.88726 8.24154 2.25671 7.83103Z" fill="#161823"/>
<path d="M2.25672 2.33103C2.62618 1.92052 3.25847 1.88724 3.66898 2.2567L8 6.15463L12.331 2.2567C12.7416 1.88724 13.3738 1.92052 13.7433 2.33103C14.1128 2.74154 14.0795 3.37383 13.669 3.74329L8.66896 8.24329C8.28866 8.58556 7.71134 8.58556 7.33104 8.24329L2.33105 3.74329C1.92054 3.37383 1.88726 2.74154 2.25672 2.33103Z" fill="#161823"/>
</svg>
