<svg width="16" height="16" viewBox="0 0 16 16" fill="none" xmlns="http://www.w3.org/2000/svg">
<g clip-path="url(#clip0_6724_2899)">
<path d="M5.57333 6.54172C5.57333 6.14407 5.89569 5.82172 6.29333 5.82172H9.70667C10.1043 5.82172 10.4267 6.14407 10.4267 6.54172V7.15505C10.4267 7.55269 10.1043 7.87505 9.70667 7.87505H6.29333C5.89569 7.87505 5.57333 7.55269 5.57333 7.15505V6.54172ZM6.37333 6.62172V7.07505H9.62667V6.62172H6.37333Z" fill="#161823"/>
<path d="M6.80397 4.43603C6.81308 4.45181 6.82119 4.46789 6.82832 4.48419H7.51999V3.84421C7.51999 3.57912 7.73489 3.36421 7.99999 3.36421C8.26509 3.36421 8.47999 3.57912 8.47999 3.84421V4.48419H9.16011C9.16725 4.46789 9.17536 4.45181 9.18446 4.43603L9.53232 3.83353C9.66487 3.60395 9.95843 3.52529 10.188 3.65784C10.4176 3.79039 10.4963 4.08395 10.3637 4.31353L10.2652 4.48419H10.9695C11.4114 4.48419 11.7695 4.84236 11.7695 5.28419V5.92419C11.7695 6.18929 11.5546 6.40419 11.2895 6.40419C11.0244 6.40419 10.8095 6.18929 10.8095 5.92419V5.44419H5.19044V5.92419C5.19044 6.18929 4.97553 6.40419 4.71044 6.40419C4.44534 6.40419 4.23044 6.18929 4.23044 5.92419V5.28419C4.23044 4.84236 4.58861 4.48419 5.03044 4.48419H5.72326L5.62473 4.31353C5.49218 4.08395 5.57084 3.79039 5.80042 3.65784C6.03 3.52529 6.32357 3.60395 6.45612 3.83353L6.80397 4.43603Z" fill="#161823"/>
<path d="M5.94954 8.32001C5.50771 8.32001 5.14954 8.67818 5.14954 9.12001V10.2607C5.14954 10.5258 5.36444 10.7407 5.62954 10.7407C5.89463 10.7407 6.10954 10.5258 6.10954 10.2607V9.28001H9.89042V10.2607C9.89042 10.5258 10.1053 10.7407 10.3704 10.7407C10.6355 10.7407 10.8504 10.5258 10.8504 10.2607V9.12001C10.8504 8.67818 10.4922 8.32001 10.0504 8.32001H5.94954Z" fill="#161823"/>
<path d="M8.13314 9.59778C8.38782 9.67137 8.53462 9.93748 8.46104 10.1922C8.24113 10.9533 7.67066 11.4691 6.98869 11.7777C6.31104 12.0843 5.49292 12.2035 4.68107 12.1707C4.41619 12.16 4.21011 11.9367 4.2208 11.6718C4.23148 11.4069 4.45486 11.2008 4.71974 11.2115C5.42389 11.2399 6.08506 11.1329 6.59294 10.9031C7.0965 10.6752 7.41778 10.3444 7.53876 9.92568C7.61235 9.67101 7.87846 9.5242 8.13314 9.59778Z" fill="#161823"/>
<path d="M9.07683 10.6488C8.81516 10.6064 8.56862 10.7841 8.52619 11.0458C8.48376 11.3075 8.66149 11.554 8.92317 11.5965C9.38589 11.6715 10.2798 11.8909 11.0459 12.1506C11.297 12.2357 11.5695 12.1011 11.6546 11.8501C11.7397 11.599 11.6052 11.3265 11.3541 11.2414C10.5468 10.9677 9.60078 10.7338 9.07683 10.6488Z" fill="#161823"/>
<path d="M8 15.1025C11.9226 15.1025 15.1025 11.9226 15.1025 8C15.1025 4.07738 11.9226 0.897461 8 0.897461C4.07738 0.897461 0.897461 4.07738 0.897461 8C0.897461 11.9226 4.07738 15.1025 8 15.1025ZM8 13.9025C4.74012 13.9025 2.09746 11.2599 2.09746 8C2.09746 4.74012 4.74012 2.09746 8 2.09746C11.2599 2.09746 13.9025 4.74012 13.9025 8C13.9025 11.2599 11.2599 13.9025 8 13.9025Z" fill="#161823"/>
</g>
<defs>
<clipPath id="clip0_6724_2899">
<rect width="16" height="16" fill="white"/>
</clipPath>
</defs>
</svg>
