<svg width="24" height="24" viewBox="0 0 24 24" fill="none" xmlns="http://www.w3.org/2000/svg">
<path d="M13.6605 13.3265C14.5372 12.7703 14.9338 11.8612 15.0006 10.9813V10.9771C14.0655 11.0269 13.1762 11.5001 12.7838 12.1684C12.3997 12.8242 12.3913 13.3472 12.5834 13.5299C12.7337 13.6751 13.1261 13.6669 13.6605 13.3265Z" fill="#161823"/>
<path d="M14.2324 16.2984C15.5976 16.0618 16.7123 15.3023 17.2216 14.2646L17.2133 14.2687C17.564 13.5465 17.5765 12.7744 17.2383 12.1435C16.9544 11.608 16.5369 11.3133 16.132 11.1556C16.0151 12.4382 15.3471 13.6046 14.2742 14.2895C13.1428 15.0117 12.2452 14.8 11.7818 14.36C11.2808 13.8827 11.0178 12.9072 11.7818 11.5997C12.3621 10.6077 13.5812 9.93114 14.8879 9.84812C14.604 8.78137 13.8525 8.07157 12.8548 7.9429C11.5564 7.76856 10.7799 8.33308 10.354 8.83533C9.76957 9.52436 9.52325 10.5122 9.74869 11.2428L8.65071 11.579C8.41692 10.8194 8.50042 9.91454 8.85528 9.10098C8.11634 9.05117 7.46089 9.29605 7.03506 9.8066C6.27107 10.7239 6.51738 11.6247 6.73448 12.0812L6.09573 12.3801C7.46089 15.3853 10.6546 16.9211 14.2324 16.2984Z" fill="#161823"/>
<path fill-rule="evenodd" clip-rule="evenodd" d="M2 11.9425C2 6.44888 6.47907 2 12 2C17.5254 2 22 6.45331 22 11.9425V12.0575C22 17.5511 17.5209 22 12 22C6.47462 22 2 17.5467 2 12.0575V11.9425ZM16.0944 9.94358C17.0379 10.1719 17.8019 10.7488 18.2611 11.6039L18.2653 11.5997C18.7788 12.5544 18.7747 13.7083 18.257 14.7626C17.5848 16.1283 16.157 17.1245 14.4328 17.4233C13.8567 17.5229 13.2848 17.5727 12.7253 17.5727C9.34791 17.5727 6.38379 15.7962 5.04785 12.8367L5.69494 12.5503C5.42358 11.9733 4.956 10.5164 6.15835 9.07608C6.94739 8.1297 8.19148 7.75196 9.5316 8.04251C10.3916 7.06292 11.6274 6.62295 13.0134 6.80558C14.5247 7.00482 15.6895 8.1214 16.0485 9.7236C16.0511 9.7352 16.0537 9.74669 16.0563 9.75812C16.0703 9.82031 16.0838 9.88046 16.0944 9.94358Z" fill="#161823"/>
</svg>
