<svg width="12" height="12" viewBox="0 0 12 12" fill="none" xmlns="http://www.w3.org/2000/svg">
<path d="M6.04444 0.808424C5.8948 0.676395 5.65938 0.782638 5.65938 0.982187V1.95864C4.75654 2.02483 3.88987 2.35335 3.16776 2.90742C2.35535 3.53077 1.77131 4.40476 1.50623 5.39386C1.24115 6.38295 1.30983 7.43188 1.70162 8.37796C2.09342 9.32405 2.78643 10.1144 3.67319 10.6265C4.55994 11.1386 5.59089 11.3438 6.60615 11.2103C7.62141 11.0767 8.56424 10.612 9.28843 9.888C10.0126 9.16404 10.4777 8.22135 10.6116 7.20613C10.7454 6.19092 10.5405 5.1599 10.0287 4.27299C9.91864 4.08225 9.67479 4.01686 9.48406 4.12693C9.29332 4.23699 9.22793 4.48084 9.338 4.67158C9.76207 5.40645 9.93182 6.26072 9.82092 7.1019C9.71002 7.94308 9.32467 8.72416 8.72463 9.32402C8.12458 9.92387 7.34338 10.309 6.50216 10.4196C5.66095 10.5303 4.80673 10.3602 4.07199 9.93593C3.33725 9.51162 2.76304 8.85674 2.43841 8.07284C2.11378 7.28894 2.05688 6.41983 2.27652 5.6003C2.49616 4.78076 2.98007 4.0566 3.65321 3.54011C4.23597 3.09296 4.93235 2.82311 5.65938 2.7587V3.7077C5.65938 3.90725 5.8948 4.01348 6.04443 3.88146L7.52325 2.57663C7.66265 2.45362 7.66265 2.23626 7.52325 2.11326L6.04444 0.808424Z" fill="#161823"/>
<path d="M5.90271 8.69364C5.19922 8.69364 4.7008 8.29646 4.7008 7.89929C4.7008 7.72536 4.81243 7.58777 4.98635 7.58777C5.09538 7.58777 5.17845 7.6345 5.26412 7.75651C5.42766 8.00053 5.63533 8.12253 5.90012 8.12253C6.2921 8.12253 6.56987 7.84996 6.56987 7.45798C6.56987 7.07897 6.30249 6.81938 5.92867 6.81938C5.75475 6.81938 5.57822 6.88428 5.42506 7.00369C5.2719 7.13349 5.19662 7.16464 5.10057 7.16464C4.88771 7.16464 4.74234 7.01148 4.75791 6.77265L4.85396 5.43835C4.87213 5.19173 5.0201 5.07232 5.30565 5.07232H6.77495C6.98262 5.07232 7.10463 5.17876 7.10463 5.36047C7.10463 5.54219 6.98522 5.64343 6.77495 5.64343H5.43285L5.36017 6.55979H5.39651C5.51852 6.39365 5.80666 6.27943 6.11039 6.27943C6.78533 6.27943 7.25 6.74669 7.25 7.43202C7.25 8.18743 6.70745 8.69364 5.90271 8.69364Z" fill="#161823"/>
</svg>
