<svg width="24" height="24" viewBox="0 0 24 24" fill="none" xmlns="http://www.w3.org/2000/svg">
<path d="M4 9C4 8.44772 4.44772 8.00001 5 8.00001H8.36769C8.77919 8.00001 9.18068 7.87307 9.51739 7.63652L14.4251 4.18867C15.0878 3.72316 16 4.19714 16 5.00693V19.0005C16 19.8107 15.0869 20.2846 14.4244 19.8182L9.51789 16.3645C9.18088 16.1273 8.77881 16 8.36668 16H5C4.44772 16 4 15.5523 4 15V9Z" fill="#161823"/>
<path d="M17.9655 8.6059C18.2779 8.29348 18.7845 8.29348 19.0969 8.6059C19.5426 9.05162 19.8962 9.58077 20.1374 10.1631C20.3786 10.7455 20.5028 11.3697 20.5028 12C20.5028 12.6304 20.3786 13.2545 20.1374 13.8369C19.8962 14.4193 19.5426 14.9484 19.0969 15.3941C18.7845 15.7065 18.2779 15.7065 17.9655 15.3941C17.6531 15.0817 17.6531 14.5752 17.9655 14.2628C18.2627 13.9656 18.4984 13.6128 18.6592 13.2246C18.82 12.8364 18.9028 12.4202 18.9028 12C18.9028 11.5798 18.82 11.1637 18.6592 10.7754C18.4984 10.3872 18.2627 10.0344 17.9655 9.73727C17.6531 9.42485 17.6531 8.91832 17.9655 8.6059Z" fill="#161823"/>
</svg>
