<svg width="20" height="20" viewBox="0 0 20 20" fill="none" xmlns="http://www.w3.org/2000/svg">
<path d="M18.2321 6.10675C18.7775 5.17335 18.1042 4.00022 17.0231 4.0004L3.06558 4.00272C1.86346 4.00292 1.22058 5.41829 2.01137 6.32368L5.28608 10.073C5.51245 10.3218 5.86797 10.4068 6.18239 10.2873L12.1168 8.03173C12.1858 8.00549 12.2172 8.01634 12.2309 8.02178C12.2548 8.03129 12.289 8.05597 12.3159 8.10153C12.3428 8.1471 12.3479 8.18902 12.3447 8.21455C12.3428 8.22915 12.3372 8.26184 12.2808 8.30962L7.4085 12.4423C7.15741 12.6552 7.05835 12.9979 7.1571 13.312L8.60906 17.9335C8.9733 19.0929 10.5403 19.2695 11.1534 18.2203L18.2321 6.10675Z" fill="#161823"/>
</svg>
