<svg width="24" height="24" viewBox="0 0 24 24" fill="none" xmlns="http://www.w3.org/2000/svg">
<path d="M8.5 12.7998C8.99706 12.7998 9.40039 13.2031 9.40039 13.7002V16.4502H12.1162C12.6133 16.4502 13.0166 16.8535 13.0166 17.3506C13.0163 17.8474 12.6131 18.25 12.1162 18.25H8.63379C8.06317 18.25 7.59974 17.7874 7.59961 17.2168V13.7002C7.59961 13.2031 8.00294 12.7998 8.5 12.7998Z" fill="#161823"/>
<path d="M15.3828 5.7334C15.9535 5.7334 16.4169 6.19596 16.417 6.7666V10.2832C16.417 10.7803 16.0137 11.1836 15.5166 11.1836C15.0195 11.1836 14.6162 10.7803 14.6162 10.2832V7.5332H11.9004C11.4033 7.5332 11 7.12987 11 6.63281C11.0003 6.13599 11.4035 5.7334 11.9004 5.7334H15.3828Z" fill="#161823"/>
<path fill-rule="evenodd" clip-rule="evenodd" d="M16.3994 1.71973C18.6085 1.71973 20.3993 3.5107 20.3994 5.71973V18.2393C20.3994 20.4484 18.6086 22.2393 16.3994 22.2393H7.59961C5.39047 22.2393 3.59961 20.4484 3.59961 18.2393V5.71973C3.59974 3.5107 5.39055 1.71973 7.59961 1.71973H16.3994ZM7.59961 3.51953C6.38466 3.51953 5.39955 4.50482 5.39941 5.71973V18.2393C5.39941 19.4543 6.38458 20.4395 7.59961 20.4395H16.3994C17.6144 20.4395 18.5996 19.4543 18.5996 18.2393V5.71973C18.5995 4.50481 17.6144 3.51953 16.3994 3.51953H7.59961Z" fill="#161823"/>
</svg>
