<svg width="24" height="24" viewBox="0 0 24 24" fill="none" xmlns="http://www.w3.org/2000/svg">
<path d="M15.9998 6.49998C15.9998 8.98526 14.2089 11 11.9998 11C9.79062 11 7.99976 8.98526 7.99976 6.49998C7.99976 4.0147 9.79062 1.99998 11.9998 1.99998C14.2089 1.99998 15.9998 4.0147 15.9998 6.49998ZM14.4998 6.49998C14.4998 4.67215 13.2193 3.49998 11.9998 3.49998C10.7803 3.49998 9.49976 4.67215 9.49976 6.49998C9.49976 8.3278 10.7803 9.49998 11.9998 9.49998C13.2193 9.49998 14.4998 8.3278 14.4998 6.49998Z" fill="#161823"/>
<path d="M12 12.5C9.6563 12.5 7.49136 13.0852 5.86408 14.1182C4.25055 15.1424 3 16.7372 3 18.7272V19.5C3 20.8807 4.11929 22 5.5 22H12.4689C12.6356 22 12.731 21.8065 12.6367 21.669C12.4116 21.3406 12.2159 20.9905 12.0534 20.6224C12.0208 20.5486 11.9482 20.5 11.8675 20.5H5.5C4.94772 20.5 4.5 20.0523 4.5 19.5V18.7272C4.5 16.1164 7.78125 14 12 14C12.2534 14 12.5035 14.0076 12.7496 14.0225C12.8163 14.0266 12.8807 13.9976 12.9224 13.9454C13.205 13.592 13.5236 13.2688 13.8728 12.9813C14.0105 12.8679 13.9558 12.6387 13.779 12.6154C13.2021 12.5392 12.6071 12.5 12 12.5Z" fill="#161823"/>
<path d="M18 23C20.7614 23 23 20.7614 23 18C23 15.2386 20.7614 13 18 13C15.2386 13 13 15.2386 13 18C13 20.7614 15.2386 23 18 23ZM18 21.5C16.067 21.5 14.5 19.933 14.5 18C14.5 17.3047 14.7027 16.6568 15.0522 16.1122C15.0557 16.1159 15.0592 16.1195 15.0627 16.1231C15.065 16.1255 15.0674 16.1279 15.0698 16.1303L19.8698 20.9303C19.8757 20.9362 19.8817 20.942 19.8878 20.9477C19.3431 21.2973 18.6952 21.5 18 21.5ZM20.9304 19.8696L16.1304 15.0696C16.1245 15.0637 16.1185 15.0578 16.1124 15.0521C16.657 14.7027 17.3048 14.5 18 14.5C19.933 14.5 21.5 16.067 21.5 18C21.5 18.6952 21.2973 19.343 20.9478 19.8876C20.9422 19.8816 20.9364 19.8755 20.9304 19.8696Z" fill="#161823"/>
</svg>
