<svg width="24" height="24" viewBox="0 0 24 24" fill="none" xmlns="http://www.w3.org/2000/svg">
<path fill-rule="evenodd" clip-rule="evenodd" d="M16 4.45173V6.36736C16 6.46224 15.9333 6.54406 15.8404 6.56323L14.7404 6.79029C14.6163 6.8159 14.5 6.72113 14.5 6.59442V4.45173C14.5 4.16513 14.2357 3.95156 13.9555 4.01177L2.85546 6.39701C2.6481 6.44157 2.5 6.62487 2.5 6.83697V15.0341C2.5 15.3183 2.7602 15.5314 3.03882 15.4753L8 14.4764V11.2901C8 11.2321 8.00255 11.1747 8.00756 11.1179C8.08261 10.2654 8.70971 9.55232 9.56156 9.37916L14.5 8.3753L16 8.04988L20.6681 7.11757C21.8746 6.87662 23 7.79948 23 9.02981V17.1832C23 18.1034 22.3567 18.8984 21.4567 19.0903L10.3567 21.4574C9.14331 21.7161 8 20.7909 8 19.5502V17.6816C8 17.5872 8.06604 17.5056 8.1584 17.486L9.2584 17.252C9.38282 17.2256 9.5 17.3205 9.5 17.4477V19.5502C9.5 19.8365 9.76384 20.0501 10.0439 19.9903L21.1439 17.6233C21.3515 17.579 21.5 17.3956 21.5 17.1832V9.02981C21.5 8.74589 21.2403 8.53292 20.9619 8.58853L16 9.5795V12.6491C16 13.5593 15.3703 14.3485 14.4828 14.5505L9.5 15.6848L8 16.0065L3.33488 16.9458C2.12754 17.1888 1 16.2657 1 15.0341V6.83697C1 5.91789 1.64176 5.12358 2.54032 4.93049L13.6403 2.54525C14.8545 2.28433 16 3.20981 16 4.45173ZM9.86036 10.8491L14.5 9.90598V12.6491C14.5 12.8592 14.3547 13.0413 14.1499 13.0879L9.5 14.1464V11.2901C9.5 11.0761 9.65067 10.8917 9.86036 10.8491Z" fill="#161823"/>
</svg>
