<svg width="20" height="20" viewBox="0 0 20 20" fill="none" xmlns="http://www.w3.org/2000/svg">
<path d="M4.74967 10.5C4.33546 10.5 3.99967 10.8358 3.99967 11.25C3.99967 11.6642 4.33546 12 4.74967 12H6.25303V13.5C6.25303 13.9142 6.58882 14.25 7.00303 14.25C7.41724 14.25 7.75303 13.9142 7.75303 13.5V12H9.24967C9.66389 12 9.99967 11.6642 9.99967 11.25C9.99967 10.8358 9.66389 10.5 9.24967 10.5H7.75303V9C7.75303 8.58579 7.41724 8.25 7.00303 8.25C6.58882 8.25 6.25303 8.58579 6.25303 9V10.5H4.74967Z" fill="#161823"/>
<path d="M12.7497 13.75C13.302 13.75 13.7497 13.3023 13.7497 12.75C13.7497 12.1977 13.302 11.75 12.7497 11.75C12.1974 11.75 11.7497 12.1977 11.7497 12.75C11.7497 13.3023 12.1974 13.75 12.7497 13.75Z" fill="#161823"/>
<path d="M15.7497 9.75C15.7497 10.3023 15.302 10.75 14.7497 10.75C14.1974 10.75 13.7497 10.3023 13.7497 9.75C13.7497 9.19772 14.1974 8.75 14.7497 8.75C15.302 8.75 15.7497 9.19772 15.7497 9.75Z" fill="#161823"/>
<path d="M12.9163 1.66504C13.3306 1.66504 13.6663 2.00083 13.6663 2.41504C13.6663 2.82925 13.3306 3.16504 12.9163 3.16504C12.6318 3.16504 12.3501 3.22108 12.0872 3.32997C11.8243 3.43885 11.5855 3.59845 11.3843 3.79964C11.1831 4.00083 11.0235 4.23969 10.9146 4.50256C10.8483 4.66259 10.8016 4.82961 10.7752 5H12.9163C16.3681 5 19.1663 7.79822 19.1663 11.25C19.1663 14.7018 16.3681 17.5 12.9163 17.5H7.08301C3.63123 17.5 0.833008 14.7018 0.833008 11.25C0.833008 7.79822 3.63123 5 7.08301 5H9.26471C9.29812 4.6322 9.38696 4.27091 9.52878 3.92853C9.71305 3.48367 9.98313 3.07946 10.3236 2.73898C10.6641 2.3985 11.0683 2.12841 11.5132 1.94415C11.958 1.75988 12.4348 1.66504 12.9163 1.66504ZM7.08301 6.5C4.45966 6.5 2.33301 8.62665 2.33301 11.25C2.33301 13.8734 4.45966 16 7.08301 16H12.9163C15.5397 16 17.6663 13.8734 17.6663 11.25C17.6663 8.62665 15.5397 6.5 12.9163 6.5H7.08301Z" fill="#161823"/>
</svg>
