<svg width="24" height="24" viewBox="0 0 24 24" fill="none" xmlns="http://www.w3.org/2000/svg">
<path d="M12 2C6.47715 2 2 6.47715 2 12C2 17.5228 6.47715 22 12 22C17.5228 22 22 17.5228 22 12C22 6.47715 17.5228 2 12 2ZM11.7426 7.75736L15.2782 11.2929C15.6687 11.6834 15.6687 12.3166 15.2782 12.7071L11.7426 16.2426C11.3521 16.6332 10.719 16.6332 10.3284 16.2426C9.9379 15.8521 9.9379 15.219 10.3284 14.8284L13.1569 12L10.3284 9.17157C9.9379 8.78105 9.9379 8.14788 10.3284 7.75736C10.719 7.36684 11.3521 7.36684 11.7426 7.75736Z" fill="#161823"/>
</svg>
