<svg width="12" height="12" viewBox="0 0 12 12" fill="none" xmlns="http://www.w3.org/2000/svg">
<path d="M4.17562 8.12641C4.90913 8.85991 5.7024 9.49924 6.49055 9.95667C7.27567 10.4123 8.07387 10.698 8.81214 10.698C9.4932 10.698 10.0848 10.4538 10.5611 9.93291L10.5618 9.93206C10.8439 9.62068 11.0396 9.2406 11.0402 8.84534C11.044 8.53459 10.9142 8.22558 10.6237 8.01428L9.17453 6.98585C8.93838 6.81527 8.69999 6.70875 8.4547 6.71226C8.13268 6.70906 7.87682 6.90028 7.65803 7.11907L7.32475 7.45234C7.32242 7.45258 7.31905 7.45279 7.31444 7.45279H7.3031L7.29632 7.45341L7.29196 7.45208C7.28324 7.44909 7.27198 7.4438 7.25532 7.43443C6.9969 7.27355 6.50419 6.87923 5.9635 6.33853C5.41508 5.79011 5.02105 5.31512 4.87559 5.05165C4.87022 5.04155 4.86421 5.02822 4.85956 5.01386C4.85665 5.00491 4.8548 4.99686 4.85366 4.9903L4.85422 4.98779L4.85486 4.98631C4.85486 4.98631 4.85588 4.98467 4.85728 4.98288L5.18802 4.6456L5.18908 4.64451C5.40343 4.42325 5.59308 4.16766 5.59308 3.85014C5.59308 3.60384 5.48863 3.36623 5.31613 3.12745L5.31551 3.12658L4.30271 1.70065C4.08521 1.39439 3.76657 1.26939 3.44446 1.26521C3.05189 1.26098 2.66816 1.44992 2.35834 1.74481C1.84305 2.2377 1.62402 2.84952 1.62402 3.5099C1.62402 4.24741 1.90415 5.04031 2.35511 5.82104C2.80763 6.60447 3.4421 7.39289 4.17562 8.12641Z" fill="#161823"/>
</svg>
