<svg width="16" height="16" viewBox="0 0 16 16" fill="none" xmlns="http://www.w3.org/2000/svg">
<path d="M1.51991 2.58057C1.52975 2.58943 1.53941 2.59859 1.54888 2.60807L13.4987 14.5578C13.7931 14.8229 14.2469 14.8138 14.5303 14.5303C14.8232 14.2374 14.8232 13.7626 14.5303 13.4697L13.2553 12.1946C13.8141 11.8918 14.0651 11.1507 13.6887 10.5483L12.8901 9.27066C12.5263 8.68854 12.3334 8.01588 12.3334 7.32941V6C12.3334 4.1321 11.1523 2.54183 9.49663 1.93237C9.22515 1.38009 8.65698 1 8.00003 1C7.34308 1 6.7749 1.38009 6.50342 1.93237C5.69627 2.22948 5.00191 2.7597 4.50221 3.44155L2.53033 1.46967C2.23744 1.17678 1.76256 1.17678 1.46967 1.46967C1.17678 1.76256 1.17678 2.23744 1.46967 2.53033L1.51991 2.58057Z" fill="#161823"/>
<path d="M10.1497 13.3302L10.3226 13.5031C9.8945 14.3515 9.01521 14.9334 8.00002 14.9334C6.91726 14.9334 5.98908 14.2715 5.598 13.3302H10.1497Z" fill="#161823"/>
<path d="M9.14974 12.3302L3.66669 6.8472V7.32941C3.66669 8.01588 3.47378 8.68853 3.10995 9.27066L2.3114 10.5483C1.82574 11.3254 2.3844 12.3333 3.30074 12.3333H4.79993V12.3302H9.14974Z" fill="#161823"/>
</svg>
