<svg width="24" height="24" viewBox="0 0 24 24" fill="none" xmlns="http://www.w3.org/2000/svg">
<path d="M6.19281 2H17.8072C18.7506 2 19.6462 2.48467 20.1462 3.31916C20.4984 3.90707 21.0536 4.85873 21.525 5.78174C21.7598 6.24141 21.9866 6.71874 22.1583 7.15417C22.3052 7.52681 22.5 8.07779 22.5 8.6C22.5 10.5008 20.9156 12.2 18.9 12.2C18.0252 12.2 17.2236 11.8882 16.6 11.3696C15.9764 11.8882 15.1748 12.2 14.3 12.2C13.4252 12.2 12.6236 11.8882 12 11.3696C11.3764 11.8882 10.5748 12.2 9.70001 12.2C8.82521 12.2 8.02361 11.8882 7.4 11.3696C6.77639 11.8882 5.9748 12.2 5.1 12.2C3.08437 12.2 1.5 10.5008 1.5 8.6C1.5 8.07779 1.69481 7.52681 1.84175 7.15417C2.01345 6.71874 2.24023 6.24141 2.47499 5.78174C2.9464 4.85873 3.50157 3.90707 3.85382 3.31916C4.35382 2.48467 5.24937 2 6.19281 2ZM3 8.6C3 9.7 3.9402 10.7 5.1 10.7C5.62362 10.7 6.10247 10.5084 6.47026 10.1914C6.56607 10.1088 6.65435 10.0177 6.73392 9.91932C7.09051 9.47825 7.7095 9.47825 8.06609 9.91932C8.14566 10.0177 8.23393 10.1088 8.32975 10.1914C8.69753 10.5084 9.17639 10.7 9.70001 10.7C10.2236 10.7 10.7025 10.5084 11.0703 10.1914C11.1661 10.1088 11.2543 10.0177 11.3339 9.91933C11.689 9.48006 12.311 9.48006 12.6661 9.91933C12.7457 10.0177 12.8339 10.1088 12.9297 10.1914C13.2975 10.5084 13.7764 10.7 14.3 10.7C14.8236 10.7 15.3025 10.5084 15.6703 10.1914C15.7661 10.1088 15.8543 10.0177 15.9339 9.91932C16.289 9.48006 16.911 9.48006 17.2661 9.91932C17.3457 10.0177 17.4339 10.1088 17.5297 10.1914C17.8975 10.5084 18.3764 10.7 18.9 10.7C20.0598 10.7 21 9.7 21 8.6C21 7.76262 19.5512 5.24468 18.8595 4.09011C18.6379 3.7204 18.2382 3.5 17.8072 3.5H6.19281C5.76182 3.5 5.36205 3.7204 5.14054 4.09011C4.44876 5.24468 3 7.76262 3 8.6Z" fill="#161823"/>
<path d="M3.75 13.5168V18.75C3.75 20.2688 4.98122 21.5 6.5 21.5H17.5C19.0188 21.5 20.25 20.2688 20.25 18.75V13.5168C19.8218 13.6359 19.3695 13.7 18.9 13.7C18.8498 13.7 18.7998 13.6993 18.75 13.6979V18.75C18.75 19.4404 18.1904 20 17.5 20H6.5C5.80964 20 5.25 19.4404 5.25 18.75V13.6979C5.20018 13.6993 5.15017 13.7 5.1 13.7C4.6305 13.7 4.17819 13.6359 3.75 13.5168Z" fill="#161823"/>
<path d="M10.5119 15.7695C10.2145 15.4812 9.73971 15.4886 9.45141 15.786C9.1631 16.0834 9.17049 16.5583 9.4679 16.8466L10.9874 18.3196C11.1448 18.4721 11.361 18.5482 11.5792 18.5278C11.7974 18.5074 11.9957 18.3927 12.1221 18.2136L14.7484 14.4942C14.9873 14.1558 14.9066 13.6878 14.5683 13.4489C14.2299 13.21 13.7619 13.2906 13.523 13.629L11.4023 16.6326L10.5119 15.7695Z" fill="#161823"/>
</svg>
