<svg width="20" height="20" viewBox="0 0 20 20" fill="none" xmlns="http://www.w3.org/2000/svg">
<path opacity="0.9" fill-rule="evenodd" clip-rule="evenodd" d="M18.2295 9.19579C18.2295 5.01896 14.465 1.77002 9.99951 1.77002C5.53405 1.77002 1.76953 5.01897 1.76953 9.1959C1.76953 13.2087 5.29956 15.8541 9.37823 16.1374V17.3396C9.37823 17.9499 10.0237 18.3639 10.5834 18.078C11.2208 17.7525 13.9782 16.2991 15.6612 14.5993C17.2249 13.0198 18.2295 11.2807 18.2295 9.19579ZM9.99951 3.23002C13.8188 3.23002 16.7695 5.97659 16.7695 9.19579C16.7695 10.7555 16.035 12.1465 14.6236 13.5721C13.5418 14.6648 11.9072 15.6785 10.8382 16.2821V14.7027H10.1082C6.20144 14.7027 3.22953 12.3416 3.22953 9.1959C3.22953 5.97658 6.1803 3.23002 9.99951 3.23002Z" fill="#161823"/>
</svg>
