<svg width="24" height="24" viewBox="0 0 24 24" fill="none" xmlns="http://www.w3.org/2000/svg">
<path d="M2.12109 2C1.49977 2 0.996094 2.50368 0.996094 3.125C0.996094 3.74632 1.49977 4.25 2.12109 4.25H3.17559L4.54295 15.5795C4.70966 16.9608 5.88179 18 7.27313 18H18.178C18.5923 18 18.928 17.6642 18.928 17.25C18.928 16.8358 18.5923 16.5 18.178 16.5H7.27313C6.64071 16.5 6.10792 16.0276 6.03214 15.3998L6.03146 15.3942L19.2448 14.1534C19.5783 14.1245 19.8523 13.878 19.9161 13.5493L20.1651 12.2681C20.1666 12.2605 20.168 12.253 20.1692 12.2454L20.9766 7.28091C21.1497 6.21628 20.3279 5.25 19.2493 5.25H4.80717L4.53709 3.01221C4.46737 2.43457 3.97721 2 3.39537 2H2.12109ZM18.5516 12.708L5.85163 13.9041L4.9882 6.75H19.2493C19.4033 6.75 19.5207 6.88804 19.496 7.04013L18.6905 11.9932L18.5516 12.708Z" fill="#161823"/>
<path d="M5.5 20.5C5.5 19.6716 6.17157 19 7 19C7.82843 19 8.5 19.6716 8.5 20.5C8.5 21.3284 7.82843 22 7 22C6.17157 22 5.5 21.3284 5.5 20.5Z" fill="#161823"/>
<path d="M15.5 20.5C15.5 19.6716 16.1716 19 17 19C17.8284 19 18.5 19.6716 18.5 20.5C18.5 21.3284 17.8284 22 17 22C16.1716 22 15.5 21.3284 15.5 20.5Z" fill="#161823"/>
</svg>
