<svg width="20" height="20" viewBox="0 0 20 20" fill="none" xmlns="http://www.w3.org/2000/svg">
<path fill-rule="evenodd" clip-rule="evenodd" d="M11.9262 2.32826C12.4847 2.45245 12.9736 2.78761 13.2909 3.26376L13.7356 3.93127C13.9294 4.22216 14.235 4.41983 14.5798 4.47732L15.1347 4.56986C16.7072 4.83212 17.9356 6.07122 18.1841 7.64602L18.2726 8.20732C18.5554 9.99902 18.5181 11.8267 18.1626 13.6054C17.8248 15.2951 16.5714 16.6546 14.9146 17.1283L14.6424 17.2061C11.6083 18.0735 8.39187 18.0735 5.35777 17.2061L5.08556 17.1283C3.42875 16.6546 2.17534 15.2951 1.8376 13.6054C1.48208 11.8267 1.44481 9.99902 1.72754 8.20732L1.81611 7.64602C2.06462 6.07122 3.29294 4.83212 4.8655 4.56986L5.42041 4.47732C5.76518 4.41983 6.07077 4.22216 6.26457 3.93127L6.70931 3.26376C7.02655 2.78761 7.51548 2.45245 8.07398 2.32826C9.34256 2.04618 10.6576 2.04618 11.9262 2.32826ZM8.42847 11.5185C8.24874 11.4069 8.01859 11.3445 7.24804 11.1648L6.94894 11.095C6.64781 11.0248 6.43477 10.7563 6.43477 10.4471C6.43477 10.1379 6.64781 9.86946 6.94894 9.79923L7.24804 9.72947C8.01859 9.54976 8.24874 9.48738 8.42847 9.37572C8.60728 9.26463 8.75964 9.11579 8.87487 8.93961C8.99069 8.76253 9.05842 8.5339 9.25604 7.76776L9.35581 7.381C9.43159 7.08719 9.69658 6.88189 10 6.88189C10.3034 6.88189 10.5684 7.08719 10.6442 7.381L10.744 7.76776C10.9416 8.5339 11.0093 8.76253 11.1251 8.93961C11.2404 9.11579 11.3927 9.26463 11.5715 9.37572C11.7513 9.48738 11.9814 9.54976 12.752 9.72947L13.0511 9.79923C13.3522 9.86946 13.5652 10.1379 13.5652 10.4471C13.5652 10.7563 13.3522 11.0248 13.0511 11.095L12.752 11.1648C11.9814 11.3445 11.7513 11.4069 11.5715 11.5185C11.3927 11.6296 11.2404 11.7785 11.1251 11.9546C11.0093 12.1317 10.9416 12.3604 10.744 13.1265L10.6442 13.5132C10.5684 13.8071 10.3034 14.0124 10 14.0124C9.69658 14.0124 9.43159 13.8071 9.35581 13.5132L9.25604 13.1265C9.05842 12.3603 8.99069 12.1317 8.87487 11.9546C8.75964 11.7785 8.60728 11.6296 8.42847 11.5185Z" fill="#161823"/>
</svg>
