<svg width="20" height="20" viewBox="0 0 20 20" fill="none" xmlns="http://www.w3.org/2000/svg">
<path d="M16.5593 13.9077L16.5593 13.8964L16.5595 2.11308C16.5595 1.49858 16.0105 1.02945 15.4035 1.12532L8.16881 2.26803C7.19675 2.42156 6.48084 3.25943 6.48084 4.24354L6.48084 5.16157L3.44732 2.12806C3.15443 1.83516 2.67956 1.83516 2.38666 2.12806C2.1093 2.40542 2.09459 2.84598 2.34255 3.14065L16.3796 17.1777C16.3951 17.1932 16.4098 17.2093 16.4237 17.2258L16.5533 17.3554C16.8462 17.6483 17.3211 17.6483 17.614 17.3554C17.9069 17.0625 17.9069 16.5876 17.614 16.2947L16.3849 15.0657C16.4979 14.7717 16.5593 14.4535 16.5593 14.1231V13.9077ZM8.40283 3.74966L15.0595 2.69825V4.04265L7.98084 5.15831V4.24354C7.98084 3.99751 8.15981 3.78804 8.40283 3.74966ZM13.7748 12.4555L8.00143 6.68217L15.2447 5.54042V11.4477C15.2447 11.8695 14.9443 12.2314 14.5298 12.3091L14.5357 12.3144L13.7748 12.4555Z" fill="#161823"/>
<path d="M13.8871 16.8066L11.3455 14.265C11.3162 14.4064 11.3009 14.5525 11.3009 14.7017C11.3009 16.0481 12.5245 17.0629 13.8476 16.814L13.8871 16.8066Z" fill="#161823"/>
<path d="M6.48065 9.40008L6.48065 13.0882C6.48065 13.5096 6.18066 13.8714 5.76648 13.9494L5.7691 13.9518L4.29145 14.2288C3.27409 14.4196 2.53687 15.3079 2.53687 16.343C2.53687 17.6903 3.76145 18.706 5.08559 18.4569L5.65224 18.3503C6.89503 18.1164 7.7953 17.031 7.79529 15.7664V15.5474L7.79526 15.5361L7.79526 10.7147L6.48065 9.40008ZM4.80823 16.9827C4.40748 17.0581 4.03687 16.7507 4.03687 16.343C4.03687 16.0297 4.25998 15.7609 4.56788 15.7031L6.13006 15.4102C6.21592 15.3941 6.29529 15.46 6.29529 15.5474V15.7664C6.29529 16.3095 5.90864 16.7757 5.37488 16.8761L4.80823 16.9827Z" fill="#161823"/>
</svg>
