<svg width="16" height="16" viewBox="0 0 16 16" fill="none" xmlns="http://www.w3.org/2000/svg">
<path d="M7.99967 14.6666C11.6816 14.6666 14.6663 11.6819 14.6663 7.99998C14.6663 4.31808 11.6816 1.33331 7.99967 1.33331C4.31778 1.33331 1.33301 4.31808 1.33301 7.99998C1.33301 11.6819 4.31778 14.6666 7.99967 14.6666ZM7.99967 4.34997C8.49673 4.34997 8.89967 4.75292 8.89967 5.24997C8.89967 5.74703 8.49673 6.14997 7.99967 6.14997C7.50261 6.14997 7.09967 5.74703 7.09967 5.24997C7.09967 4.75292 7.50261 4.34997 7.99967 4.34997ZM7.99966 11.65C7.58545 11.65 7.24966 11.3142 7.24966 10.9V7.89997C7.24966 7.48576 7.58545 7.14997 7.99966 7.14997C8.41388 7.14997 8.74966 7.48576 8.74966 7.89997V10.9C8.74966 11.3142 8.41388 11.65 7.99966 11.65Z" fill="#161823"/>
</svg>
