<svg width="20" height="20" viewBox="0 0 20 20" fill="none" xmlns="http://www.w3.org/2000/svg">
<path d="M10.7207 7.62143C10.4714 6.95489 9.52865 6.95489 9.27942 7.62142L8.65012 9.30438L6.85507 9.38282C6.14414 9.41388 5.8528 10.3105 6.40969 10.7535L7.81582 11.8721L7.33571 13.6035C7.14557 14.2893 7.9083 14.8434 8.50172 14.4507L10.0001 13.459L11.4984 14.4507C12.0918 14.8434 12.8545 14.2893 12.6644 13.6035L12.1843 11.8721L13.5904 10.7535C14.1473 10.3105 13.856 9.41388 13.145 9.38282L11.35 9.30438L10.7207 7.62143ZM9.61508 9.91014L10.0001 8.8806L10.385 9.91014C10.4931 10.1993 10.7636 10.3958 11.0721 10.4093L12.1702 10.4573L11.31 11.1416C11.0684 11.3337 10.9651 11.6517 11.0476 11.9492L11.3413 13.0084L10.4247 12.4018C10.1672 12.2314 9.83287 12.2314 9.57543 12.4018L8.65884 13.0084L8.95254 11.9492C9.03503 11.6517 8.93171 11.3337 8.69011 11.1416L7.82992 10.4573L8.92804 10.4093C9.23646 10.3958 9.50696 10.1993 9.61508 9.91014Z" fill="#161823"/>
<path d="M2.25 4.8849C2.25 3.85765 3.08275 3.0249 4.11 3.0249H8.0672C8.56051 3.0249 9.03361 3.22087 9.38242 3.56968L10.2304 4.41762C10.5792 4.76644 11.0523 4.9624 11.5456 4.9624H15.89C16.9172 4.9624 17.75 5.79515 17.75 6.8224V15.1149C17.75 16.1422 16.9172 16.9749 15.89 16.9749H4.11C3.08275 16.9749 2.25 16.1422 2.25 15.1149V4.8849ZM16.355 6.8224C16.355 6.56559 16.1468 6.3574 15.89 6.3574H11.5456C10.6823 6.3574 9.85438 6.01447 9.24395 5.40404L8.39601 4.5561C8.30881 4.46889 8.19053 4.4199 8.0672 4.4199H4.11C3.85319 4.4199 3.645 4.62809 3.645 4.8849V15.1149C3.645 15.3717 3.85319 15.5799 4.11 15.5799H15.89C16.1468 15.5799 16.355 15.3717 16.355 15.1149V6.8224Z" fill="#161823"/>
</svg>
