<svg width="24" height="24" viewBox="0 0 24 24" fill="none" xmlns="http://www.w3.org/2000/svg">
<path d="M4.31019 3C3.18417 3 2.58466 4.32846 3.32968 5.17281L9 11.5992V20.1908C9 20.9773 9.86599 21.456 10.5319 21.0376L14.5319 18.5248C14.8232 18.3418 15 18.022 15 17.678V11.5992L20.6703 5.1728C21.4153 4.32847 20.8159 3 19.6898 3H4.31019Z" fill="#161823"/>
<path d="M16.5 13C16.5 12.5858 16.8358 12.25 17.25 12.25H20.25C20.6642 12.25 21 12.5858 21 13C21 13.4142 20.6642 13.75 20.25 13.75H17.25C16.8358 13.75 16.5 13.4142 16.5 13Z" fill="#161823"/>
<path d="M17.25 15.25C16.8358 15.25 16.5 15.5858 16.5 16C16.5 16.4142 16.8358 16.75 17.25 16.75H20.25C20.6642 16.75 21 16.4142 21 16C21 15.5858 20.6642 15.25 20.25 15.25H17.25Z" fill="#161823"/>
</svg>
