<svg width="20" height="20" viewBox="0 0 20 20" fill="none" xmlns="http://www.w3.org/2000/svg">
<path d="M7.44805 5.30005C7.03383 5.30005 6.69805 5.63584 6.69805 6.05005C6.69805 6.46426 7.03383 6.80005 7.44805 6.80005H12.545C12.9592 6.80005 13.295 6.46426 13.295 6.05005C13.295 5.63584 12.9592 5.30005 12.545 5.30005H7.44805Z" fill="#161823"/>
<path d="M6.69805 8.75006C6.69805 8.33585 7.03383 8.00006 7.44805 8.00006H12.545C12.9592 8.00006 13.295 8.33585 13.295 8.75006C13.295 9.16427 12.9592 9.50006 12.545 9.50006H7.44805C7.03383 9.50006 6.69805 9.16427 6.69805 8.75006Z" fill="#161823"/>
<path d="M7.44805 10.7001C7.03383 10.7001 6.69805 11.0359 6.69805 11.4501C6.69805 11.8643 7.03383 12.2001 7.44805 12.2001H10.7247C11.1389 12.2001 11.4747 11.8643 11.4747 11.4501C11.4747 11.0359 11.1389 10.7001 10.7247 10.7001H7.44805Z" fill="#161823"/>
<path d="M6.74805 1.9834C4.95312 1.9834 3.49805 3.43848 3.49805 5.2334V14.7667C3.49805 16.5617 4.95312 18.0167 6.74805 18.0167H13.248C15.043 18.0167 16.498 16.5617 16.498 14.7667V5.2334C16.498 3.43847 15.043 1.9834 13.248 1.9834H6.74805ZM4.99805 5.2334C4.99805 4.2669 5.78155 3.4834 6.74805 3.4834H13.248C14.2145 3.4834 14.998 4.2669 14.998 5.2334V14.7667C14.998 15.7332 14.2145 16.5167 13.248 16.5167H6.74805C5.78155 16.5167 4.99805 15.7332 4.99805 14.7667V5.2334Z" fill="#161823"/>
</svg>
