<svg width="20" height="20" viewBox="0 0 20 20" fill="none" xmlns="http://www.w3.org/2000/svg">
<path d="M12.8584 9.17397L9.0969 6.60739C8.43312 6.15448 7.53328 6.62985 7.53328 7.43343L7.53327 12.5666C7.53327 13.3702 8.43311 13.8455 9.0969 13.3926L12.8584 10.826C13.4403 10.429 13.4403 9.57097 12.8584 9.17397ZM9.03328 8.37989L11.4077 10L9.03328 11.6201V8.37989Z" fill="#161823"/>
<path d="M3.5 4V16C3.5 17.3807 4.61929 18.5 6 18.5H14C15.3807 18.5 16.5 17.3807 16.5 16V4C16.5 2.61929 15.3807 1.5 14 1.5H6C4.61929 1.5 3.5 2.61929 3.5 4ZM6 3H14C14.5523 3 15 3.44772 15 4V16C15 16.5523 14.5523 17 14 17H6C5.44772 17 5 16.5523 5 16V4C5 3.44772 5.44772 3 6 3Z" fill="#161823"/>
</svg>
