<svg width="12" height="12" viewBox="0 0 12 12" fill="none" xmlns="http://www.w3.org/2000/svg">
<g clip-path="url(#clip0_3435_3219)">
<path d="M5.09995 4.75C5.09995 5.30228 4.76416 5.75 4.34995 5.75C3.93573 5.75 3.59995 5.30228 3.59995 4.75C3.59995 4.19772 3.93573 3.75 4.34995 3.75C4.76416 3.75 5.09995 4.19772 5.09995 4.75Z" fill="#161823"/>
<path d="M7.64987 5.75C8.06409 5.75 8.39987 5.30228 8.39987 4.75C8.39987 4.19772 8.06409 3.75 7.64987 3.75C7.23566 3.75 6.89987 4.19772 6.89987 4.75C6.89987 5.30228 7.23566 5.75 7.64987 5.75Z" fill="#161823"/>
<path d="M5.99986 8.63048C6.74413 8.63048 7.57087 8.27015 8.01958 7.64063C8.17986 7.41577 8.12751 7.10355 7.90264 6.94326C7.67778 6.78298 7.36555 6.83534 7.20527 7.0602C6.97143 7.38826 6.47076 7.63048 5.99986 7.63048C5.52913 7.63048 5.0286 7.38843 4.79466 7.0605C4.63428 6.83569 4.32204 6.78346 4.09724 6.94383C3.87244 7.10421 3.82021 7.41645 3.98058 7.64125C4.42938 8.27037 5.2558 8.63048 5.99986 8.63048Z" fill="#161823"/>
<path fill-rule="evenodd" clip-rule="evenodd" d="M11.2499 5.99959C11.2499 8.89905 8.89942 11.2495 5.99995 11.2495C3.10048 11.2495 0.75 8.89905 0.75 5.99959C0.75 3.10012 3.10048 0.749634 5.99995 0.749634C8.89942 0.749634 11.2499 3.10012 11.2499 5.99959ZM10.0499 5.99959C10.0499 8.23631 8.23668 10.0495 5.99995 10.0495C3.76323 10.0495 1.95 8.23631 1.95 5.99959C1.95 3.76286 3.76323 1.94963 5.99995 1.94963C8.23668 1.94963 10.0499 3.76286 10.0499 5.99959Z" fill="#161823"/>
</g>
<defs>
<clipPath id="clip0_3435_3219">
<rect width="12" height="12" fill="white"/>
</clipPath>
</defs>
</svg>
