<svg width="24" height="24" viewBox="0 0 24 24" fill="none" xmlns="http://www.w3.org/2000/svg">
<path d="M6.91957 3H17.0804C17.6146 2.99999 18.0604 2.99998 18.4247 3.02974C18.8046 3.06078 19.1612 3.12789 19.4985 3.29973C20.0159 3.56338 20.4366 3.98408 20.7003 4.50153C20.8721 4.83879 20.9392 5.19545 20.9703 5.57533C21 5.93956 21 6.3854 21 6.91955V17.0805C21 17.6146 21 18.0605 20.9703 18.4247C20.9392 18.8046 20.8721 19.1612 20.7003 19.4985C20.4366 20.0159 20.0159 20.4366 19.4985 20.7003C19.1612 20.8721 18.8046 20.9392 18.4247 20.9703C18.0604 21 17.6146 21 17.0805 21H6.91955C6.3854 21 5.93956 21 5.57533 20.9703C5.19545 20.9392 4.83879 20.8721 4.50153 20.7003C3.98408 20.4366 3.56338 20.0159 3.29973 19.4985C3.12789 19.1612 3.06078 18.8046 3.02974 18.4247C2.99998 18.0605 2.99999 17.6146 3 17.0805V6.91957C2.99999 6.38542 2.99998 5.93956 3.02974 5.57533C3.06078 5.19545 3.12789 4.83879 3.29973 4.50153C3.56338 3.98408 3.98408 3.56338 4.50153 3.29973C4.83879 3.12789 5.19545 3.06078 5.57533 3.02974C5.93956 2.99998 6.38542 2.99999 6.91957 3ZM5.69748 4.52476C5.41036 4.54822 5.27307 4.5901 5.18251 4.63624C4.94731 4.75608 4.75608 4.94731 4.63624 5.18251C4.5901 5.27307 4.54822 5.41036 4.52476 5.69748C4.50058 5.99336 4.5 6.37757 4.5 6.95V8.51508H8.50867L8.50867 4.5H6.95C6.37757 4.5 5.99336 4.50058 5.69748 4.52476ZM4.5 14.0016H8.50867V10.0151H4.5V14.0016ZM4.5 15.5016V17.05C4.5 17.6225 4.50058 18.0067 4.52476 18.3026C4.54822 18.5897 4.5901 18.727 4.63624 18.8175C4.75608 19.0527 4.94731 19.2439 5.18251 19.3638C5.27307 19.4099 5.41036 19.4518 5.69748 19.4753C5.99336 19.4994 6.37757 19.5 6.95 19.5H8.50867V15.5016H4.5ZM10.0087 15.5016V19.5H14.0005V15.5016H10.0087ZM15.5005 15.5016V19.5H17.05C17.6224 19.5 18.0066 19.4994 18.3025 19.4753C18.5896 19.4518 18.7269 19.4099 18.8175 19.3638C19.0527 19.2439 19.2439 19.0527 19.3638 18.8175C19.4099 18.727 19.4518 18.5897 19.4752 18.3025C19.4994 18.0067 19.5 17.6225 19.5 17.05V15.5016H15.5005ZM19.5 14.0016V10.0151H15.5005V14.0016H19.5ZM14.0005 14.0016V10.0151H10.0087V14.0016H14.0005ZM15.5005 8.51508H19.5V6.95C19.5 6.37757 19.4994 5.99336 19.4752 5.69748C19.4518 5.41036 19.4099 5.27307 19.3638 5.18251C19.2439 4.94731 19.0527 4.75608 18.8175 4.63624C18.7269 4.5901 18.5896 4.54822 18.3025 4.52476C18.0066 4.50058 17.6224 4.5 17.05 4.5H15.5005V8.51508ZM10.0087 8.51508H14.0005V4.5H10.0087L10.0087 8.51508Z" fill="#161823"/>
</svg>
