<svg width="16" height="16" viewBox="0 0 16 16" fill="none" xmlns="http://www.w3.org/2000/svg">
<path fill-rule="evenodd" clip-rule="evenodd" d="M4.66699 13.4666C2.45785 13.4666 0.666992 11.6758 0.666992 9.46663C0.666992 7.60496 1.93881 6.04033 3.66099 5.5942C4.27915 3.79389 5.98697 2.5 7.99699 2.5C10.2362 2.5 12.1003 4.10572 12.5007 6.22851C14.1241 6.60599 15.3337 8.06172 15.3337 9.79997C15.3337 11.825 13.692 13.4666 11.667 13.4666H4.66699ZM6.06566 8.58418L7.33372 7.18436V11.4667C7.33372 11.7613 7.57249 12 7.86709 12C8.16168 12 8.40045 11.7613 8.40045 11.4667V7.18436L9.79873 8.58378C9.99648 8.80212 10.3337 8.81872 10.552 8.62097C10.7704 8.42321 10.787 8.08597 10.5893 7.86763L8.33584 5.38008C8.13808 5.16174 7.80085 5.14505 7.58258 5.34281C7.57086 5.35339 7.5598 5.36437 7.54922 5.37577C7.51878 5.39758 7.49014 5.42297 7.46393 5.45186L5.27513 7.86812C5.07737 8.08638 5.09398 8.4237 5.3124 8.62145C5.53066 8.81921 5.8679 8.80253 6.06566 8.58418Z" fill="#161823"/>
</svg>
