<svg width="24" height="24" viewBox="0 0 24 24" fill="none" xmlns="http://www.w3.org/2000/svg">
<path d="M7.13928 12.6549C5.49321 12.698 3.96097 13.1192 2.77661 13.8532C1.54311 14.6177 0.5 15.8636 0.5 17.4868V17.9037C0.5 19.1927 1.54492 20.2376 2.83389 20.2376H3.79207C3.60412 19.7745 3.50042 19.2681 3.5 18.7376H2.83389C2.37335 18.7376 2 18.3643 2 17.9037V17.4868C2 16.2086 3.14164 15.0983 4.85912 14.5383C5.42114 13.8497 6.10342 13.2868 6.79853 12.856C6.91017 12.7868 7.02379 12.7197 7.13928 12.6549Z" fill="#161823"/>
<path d="M9.04101 10.4665C8.57353 10.8003 8.01727 10.9939 7.4203 10.9939C5.76235 10.9939 4.4183 9.50055 4.4183 7.65837C4.4183 5.81619 5.76235 4.32281 7.4203 4.32281C7.78174 4.32281 8.12825 4.39379 8.44917 4.52387C8.23688 4.97811 8.0817 5.46446 7.99147 5.96897C7.80409 5.8727 7.60726 5.82281 7.4203 5.82281C6.73552 5.82281 5.9183 6.49205 5.9183 7.65837C5.9183 8.82469 6.73552 9.49393 7.4203 9.49393C7.71525 9.49393 8.03476 9.36977 8.30296 9.13522C8.49033 9.61374 8.73911 10.0624 9.04101 10.4665Z" fill="#161823"/>
<path d="M7.5887 13.8966C9.03421 13.0007 10.9441 12.5 13 12.5C14.0975 12.5 15.1535 12.6427 16.1193 12.912C16.264 12.9524 16.3085 13.1329 16.2023 13.2391L15.2874 14.1541C15.2392 14.2022 15.1699 14.2224 15.1032 14.2087C14.4466 14.0733 13.7399 14 13 14C9.34373 14 6.49998 15.7909 6.49998 18V18.5C6.49998 19.0523 6.9477 19.5 7.49998 19.5H16.3734V20.8C16.3734 20.9104 16.2839 21 16.1734 21H7.49998C6.11927 21 4.99998 19.8807 4.99998 18.5V18C4.99998 16.1933 6.16119 14.7813 7.5887 13.8966Z" fill="#161823"/>
<path d="M13 11C14.9882 11 16.6 9.20914 16.6 7C16.6 4.79086 14.9882 3 13 3C11.0118 3 9.4 4.79086 9.4 7C9.4 9.20914 11.0118 11 13 11ZM13 9.5C11.9849 9.5 10.9 8.53328 10.9 7C10.9 5.46672 11.9849 4.5 13 4.5C14.015 4.5 15.1 5.46672 15.1 7C15.1 8.53328 14.015 9.5 13 9.5Z" fill="#161823"/>
<path d="M22.7773 18.1537C22.4844 18.4466 22.0095 18.4466 21.7166 18.1537L19.3735 15.8106V22C19.3735 22.4142 19.0377 22.75 18.6235 22.75C18.2093 22.75 17.8735 22.4142 17.8735 22V15.8107L15.5305 18.1537C15.2376 18.4466 14.7627 18.4466 14.4698 18.1537C14.1769 17.8608 14.1769 17.386 14.4698 17.0931L18.0932 13.4697C18.3861 13.1768 18.861 13.1768 19.1539 13.4697L22.7773 17.0931C23.0702 17.386 23.0702 17.8608 22.7773 18.1537Z" fill="#161823"/>
</svg>
