<svg width="24" height="24" viewBox="0 0 24 24" fill="none" xmlns="http://www.w3.org/2000/svg">
<path d="M2.63065 13.9444C1.55671 12.8704 1.55671 11.1292 2.63065 10.0553L3.99983 8.6861V7.18183L16.8178 19.9998H15.3135L13.9444 21.369C12.8704 22.4429 11.1292 22.4429 10.0553 21.369L8.68611 19.9998H6.74983C5.23105 19.9998 3.99983 18.7686 3.99983 17.2498V15.3135L2.63065 13.9444Z" fill="#161823"/>
<path d="M20.4744 21.5351C20.7677 21.823 21.2389 21.8214 21.5301 21.5301C21.823 21.2373 21.823 20.7624 21.5301 20.4695L19.6513 18.5907C19.8733 18.194 19.9998 17.7367 19.9998 17.2498V15.3135L21.369 13.9444C22.4429 12.8704 22.4429 11.1292 21.369 10.0553L19.9998 8.68612V6.74982C19.9998 5.23103 18.7686 3.99982 17.2498 3.99982H15.3135L13.9444 2.63065C12.8704 1.55671 11.1292 1.55671 10.0553 2.63065L8.68611 3.99982H6.74983C6.26294 3.99982 5.80561 4.12635 5.40892 4.34832L3.53009 2.46949C3.23719 2.17659 2.76232 2.17659 2.46943 2.46949C2.17653 2.76238 2.17653 3.23725 2.46943 3.53015L3.45392 4.51464C3.45555 4.51624 3.45718 4.51785 3.4588 4.51947L20.4744 21.5351Z" fill="#161823"/>
</svg>
