<svg width="24" height="24" viewBox="0 0 24 24" fill="none" xmlns="http://www.w3.org/2000/svg">
<path fill-rule="evenodd" clip-rule="evenodd" d="M11.2724 4.57759C11.3837 4.25087 11.7389 4.07628 12.0656 4.18764L12.9018 4.47266C14.2761 4.94107 15.3598 6.00561 15.8558 7.36164L16.797 6.42048C17.0411 6.1764 17.4368 6.1764 17.6809 6.42048C17.925 6.66455 17.925 7.06028 17.6809 7.30436L16.0223 8.96299C15.9876 8.99895 15.9485 9.031 15.9053 9.05816C15.8352 9.10232 15.7583 9.13124 15.6793 9.14491C15.5956 9.15957 15.5118 9.15662 15.4325 9.13833C15.3422 9.11771 15.2556 9.07683 15.18 9.0157C15.1256 8.97198 15.0783 8.9189 15.0406 8.8579C15.0105 8.80938 14.9877 8.75763 14.9722 8.70422L14.7355 7.94898C14.3979 6.87177 13.567 6.02001 12.4985 5.65582L11.6623 5.3708C11.3356 5.25944 11.161 4.90431 11.2724 4.57759ZM6.75 6.84595C5.23122 6.84595 4 8.07716 4 9.59595V17.0959C4 18.6147 5.23122 19.8459 6.75 19.8459H10.75C12.2688 19.8459 13.5 18.6147 13.5 17.0959V9.59595C13.5 8.07716 12.2688 6.84595 10.75 6.84595H6.75ZM5.5 9.59595C5.5 8.90559 6.05964 8.34595 6.75 8.34595H6.8V8.71261C6.8 9.17285 7.1731 9.54595 7.63333 9.54595H9.66667C10.1269 9.54595 10.5 9.17285 10.5 8.71261V8.34595H10.75C11.4404 8.34595 12 8.90559 12 9.59595V17.0959C12 17.7863 11.4404 18.3459 10.75 18.3459H6.75C6.05964 18.3459 5.5 17.7863 5.5 17.0959V9.59595ZM15.2 12.8459H17.58C18.0863 12.8459 18.5 13.2564 18.5 13.7626V17.4293C18.5 17.9355 18.0863 18.3459 17.58 18.3459H15.2C15.0895 18.3459 15 18.4355 15 18.5459V19.6459C15 19.7564 15.0895 19.8459 15.2 19.8459H17.58C18.9147 19.8459 20 18.764 20 17.4293V13.7626C20 12.4279 18.9147 11.3459 17.58 11.3459H15.2C15.0895 11.3459 15 11.4355 15 11.5459V12.6459C15 12.7564 15.0895 12.8459 15.2 12.8459Z" fill="#161823"/>
</svg>
