<svg width="16" height="16" viewBox="0 0 16 16" fill="none" xmlns="http://www.w3.org/2000/svg">
<path d="M9.26667 7.98334C9.26667 8.67369 8.70702 9.23334 8.01667 9.23334C7.32631 9.23334 6.76667 8.67369 6.76667 7.98334C6.76667 7.29298 7.32631 6.73334 8.01667 6.73334C8.70702 6.73334 9.26667 7.29298 9.26667 7.98334Z" fill="#161823"/>
<path d="M15 7.98334C15 8.67369 14.4404 9.23334 13.75 9.23334C13.0596 9.23334 12.5 8.67369 12.5 7.98334C12.5 7.29298 13.0596 6.73334 13.75 6.73334C14.4404 6.73334 15 7.29298 15 7.98334Z" fill="#161823"/>
<path d="M3.5 7.98334C3.5 8.67369 2.94036 9.23334 2.25 9.23334C1.55964 9.23334 1 8.67369 1 7.98334C1 7.29298 1.55964 6.73334 2.25 6.73334C2.94036 6.73334 3.5 7.29298 3.5 7.98334Z" fill="#161823"/>
</svg>
