<svg width="24" height="24" viewBox="0 0 24 24" fill="none" xmlns="http://www.w3.org/2000/svg">
<path d="M10.8233 10.9213C13.0549 10.9213 14.864 8.91125 14.864 6.43172C14.864 3.95219 13.0549 1.94214 10.8233 1.94214C8.59176 1.94214 6.78271 3.95219 6.78271 6.43172C6.78271 8.91125 8.59176 10.9213 10.8233 10.9213ZM10.8233 9.42131C9.56494 9.42131 8.28271 8.23539 8.28271 6.43172C8.28271 4.62805 9.56494 3.44214 10.8233 3.44214C12.0817 3.44214 13.364 4.62805 13.364 6.43172C13.364 8.23539 12.0817 9.42131 10.8233 9.42131Z" fill="#161823"/>
<path d="M9.12268 12.8942C9.67462 12.8244 10.2434 12.7885 10.8232 12.7885C13.1028 12.7885 15.2116 13.344 16.8 14.3285C18.3705 15.3018 19.6187 16.8362 19.6187 18.7781V19.3393C19.6187 20.4344 18.9474 21.3728 17.9938 21.7653L18.1158 21.8873C18.4087 22.1802 18.4087 22.6551 18.1158 22.948C17.8417 23.2221 17.4083 23.2397 17.1137 23.0008L3.20025 9.08732C3.18144 9.0685 3.16188 9.0509 3.14166 9.0345L2.21967 8.11251C1.92678 7.81962 1.92678 7.34475 2.21967 7.05185C2.51256 6.75896 2.98744 6.75896 3.28033 7.05185L9.12268 12.8942ZM16.6901 20.4617H16.9963C17.6162 20.4617 18.1187 19.9591 18.1187 19.3393V18.7781C18.1187 16.2985 14.9269 14.2885 10.8232 14.2885C10.7217 14.2885 10.6209 14.2897 10.5206 14.2921L16.6901 20.4617Z" fill="#161823"/>
<path d="M13.9533 21.9617L12.4533 20.4617H4.64998C4.0301 20.4617 3.52759 19.9591 3.52759 19.3393V18.7781C3.52759 17.1653 4.8779 15.7512 6.95118 14.9596L5.80607 13.8144C5.46894 13.9697 5.14821 14.1413 4.84628 14.3285C3.27581 15.3018 2.02759 16.8362 2.02759 18.7781V19.3393C2.02759 20.7876 3.20167 21.9617 4.64998 21.9617H13.9533Z" fill="#161823"/>
<path d="M19.0024 6.50037C19.4167 6.50037 19.7524 6.83615 19.7524 7.25037V9.50037H22.0024C22.4167 9.50037 22.7524 9.83615 22.7524 10.2504C22.7524 10.6646 22.4167 11.0004 22.0024 11.0004H19.7524V13.2504C19.7524 13.6646 19.4167 14.0004 19.0024 14.0004C18.5882 14.0004 18.2524 13.6646 18.2524 13.2504V11.0004H16.0024C15.5882 11.0004 15.2524 10.6646 15.2524 10.2504C15.2524 9.83615 15.5882 9.50037 16.0024 9.50037H18.2524V7.25037C18.2524 6.83615 18.5882 6.50037 19.0024 6.50037Z" fill="#161823"/>
</svg>
