<svg width="12" height="12" viewBox="0 0 12 12" fill="none" xmlns="http://www.w3.org/2000/svg">
<path d="M5.73121 0.859975C5.90013 0.775516 6.09895 0.775516 6.26787 0.859975L10.4671 2.95958C10.6704 3.06122 10.7988 3.26897 10.7988 3.49624C10.7988 3.7235 10.6704 3.93126 10.4671 4.03289L6.26787 6.13254C6.09896 6.217 5.90013 6.217 5.73121 6.13254L1.53199 4.03289C1.32873 3.93126 1.20033 3.7235 1.20033 3.49624C1.20033 3.26897 1.32873 3.06122 1.532 2.95958L5.73121 0.859975ZM3.2314 3.45152C3.19455 3.46995 3.19455 3.52254 3.2314 3.54097L5.97718 4.91388C5.99126 4.92092 6.00783 4.92092 6.0219 4.91388L8.76768 3.54097C8.80454 3.52254 8.80454 3.46995 8.76768 3.45152L6.0219 2.07863C6.00783 2.07159 5.99126 2.07159 5.97718 2.07863L3.2314 3.45152Z" fill="#161823"/>
<path d="M1.26355 5.73348C1.41161 5.43703 1.77196 5.31674 2.06842 5.4648L5.9772 7.41701C5.99127 7.42404 6.00782 7.42404 6.02188 7.41701L9.93067 5.4648C10.2271 5.31674 10.5875 5.43703 10.7355 5.73348C10.8836 6.02994 10.7633 6.39029 10.4668 6.53835L6.26763 8.63562C6.09884 8.71991 5.90024 8.71991 5.73145 8.63562L1.53224 6.53835C1.23578 6.39029 1.11549 6.02994 1.26355 5.73348Z" fill="#161823"/>
<path d="M1.26355 8.23818C1.11549 8.53463 1.23578 8.89498 1.53224 9.04304L5.73145 11.1403C5.90024 11.2246 6.09884 11.2246 6.26763 11.1403L10.4668 9.04304C10.7633 8.89498 10.8836 8.53463 10.7355 8.23818C10.5875 7.94172 10.2271 7.82143 9.93067 7.96949L6.02188 9.9217C6.00782 9.92873 5.99127 9.92873 5.9772 9.9217L2.06842 7.96949C1.77196 7.82143 1.41161 7.94172 1.26355 8.23818Z" fill="#161823"/>
</svg>
