<svg width="25" height="24" viewBox="0 0 25 24" fill="none" xmlns="http://www.w3.org/2000/svg">
<path d="M20.1742 14.046L20.2617 13.2304H21.0623C21.2849 13.2304 21.4671 13.0454 21.4671 12.8234C21.4671 12.7035 21.4079 12.601 21.3302 12.5314C21.2527 12.4621 21.1477 12.4165 21.0374 12.4165H20.341L20.4229 11.7155C20.4609 11.4726 20.2602 11.2999 20.0659 11.2673C19.8204 11.2261 19.6481 11.4313 19.6159 11.6259L19.5284 12.4415H18.7279C18.5052 12.4415 18.323 12.6266 18.323 12.8485C18.323 13.0704 18.5052 13.2554 18.7279 13.2554H19.4491L19.3673 13.9564C19.331 14.1875 19.5197 14.3702 19.7351 14.4064C19.9522 14.4064 20.1376 14.2675 20.1742 14.046Z" fill="#161823"/>
<path d="M23.9429 12.8211C24.057 11.8656 24.0443 10.7965 23.7556 9.86781C23.6945 9.69503 23.549 9.5781 23.3734 9.56862C23.3256 9.5621 23.2788 9.57889 23.2321 9.58598L22.6448 9.77657C22.4287 8.40365 21.8468 7.65267 21.1103 7.23017C21.0331 7.18586 20.9495 7.16283 20.8799 7.16283C20.7992 7.16283 20.7218 7.19544 20.6603 7.24001C20.5977 7.2854 20.5419 7.34991 20.5077 7.42795L20.504 7.43652L20.5015 7.44554C20.3766 7.89469 20.0358 8.55058 19.0549 9.08787C18.4192 9.44006 17.8687 9.77352 17.4188 10.142L17.5964 8.44981C17.6339 8.09278 17.3748 7.77299 17.0178 7.73552C16.6608 7.69805 16.341 7.95711 16.3035 8.31413L15.7322 13.7585C15.6519 14.4577 14.9678 15.079 14.1927 15.079C13.4552 15.079 12.9859 14.5274 13.0565 13.9021L13.0571 13.897L13.6287 8.44981C13.6661 8.09278 13.4071 7.77299 13.0501 7.73552C12.693 7.69805 12.3732 7.95711 12.3358 8.31413L11.7644 13.759C11.6014 15.2172 12.7455 16.379 14.1927 16.379C15.2266 16.379 16.1829 15.7915 16.681 14.932C17.3611 15.8721 18.5293 16.4648 19.8609 16.4648C21.809 16.4648 23.6641 14.9597 23.9428 12.8225L23.9429 12.8211ZM21.722 11.1411L22.7893 10.8145C22.8507 11.2946 22.9112 11.9533 22.8192 12.6704C22.6341 14.2006 21.3398 15.3705 19.8301 15.3705C19.0287 15.3705 18.2885 15.0696 17.7957 14.5598C17.4878 14.2298 17.0887 13.6609 17.1496 12.823L17.1497 12.8197C17.1808 12.1603 17.3733 11.6811 17.7657 11.2504C18.1586 10.819 18.7523 10.4361 19.586 9.9701L19.588 9.96898C20.2328 9.63974 20.756 9.22113 21.0962 8.68322C21.3085 9.0113 21.4306 9.3991 21.5225 9.90579L21.5228 9.90755L21.7067 11.1314C21.7078 11.1386 21.715 11.1432 21.722 11.1411Z" fill="#161823"/>
<path d="M0.980119 8.26299C1.01516 7.93238 1.29403 7.6815 1.6265 7.6815H2.75293C4.62287 7.6815 5.99327 9.21329 5.8038 11.0869L5.80353 11.0895L5.60122 13.0115C5.39675 14.8108 3.79824 16.2781 1.97956 16.2781H0.853128C0.668813 16.2781 0.493164 16.1998 0.369893 16.0628C0.246622 15.9258 0.187322 15.7429 0.206749 15.5596L0.980119 8.26299ZM2.21124 8.9815L1.57566 14.9781H1.97956C3.11904 14.9781 4.17622 14.0257 4.30922 12.8672L4.5104 10.9561L4.51052 10.9548C4.62297 9.83643 3.84156 8.9815 2.75293 8.9815H2.21124Z" fill="#161823"/>
<path d="M9.19119 7.34999C7.759 7.34999 6.51177 8.49866 6.35932 9.91426L5.9892 13.4467L5.98846 13.4547C5.85354 14.9163 6.9303 16.1483 8.41782 16.1483C9.85001 16.1483 11.0972 14.9996 11.2497 13.5841L11.2499 13.5822L11.6198 10.0516L11.6206 10.0436C11.7555 8.58202 10.6787 7.34999 9.19119 7.34999ZM7.28263 13.5778L7.65184 10.0535C7.7352 9.28382 8.43805 8.64999 9.19119 8.64999C9.88812 8.64999 10.3912 9.19824 10.3264 9.92048L9.95708 13.4457C9.87375 14.2153 9.17098 14.8483 8.41782 14.8483C7.72089 14.8483 7.2178 14.3001 7.28263 13.5778Z" fill="#161823"/>
</svg>
