<svg width="24" height="24" viewBox="0 0 24 24" fill="none" xmlns="http://www.w3.org/2000/svg">
<path d="M1.47363 9.57269C1.47363 5.55066 5.23558 2.479 9.6246 2.479C13.3993 2.479 16.7102 4.75099 17.5631 7.94554C17.5997 8.08264 17.4801 8.20793 17.3395 8.18849C16.9532 8.13507 16.5621 8.10767 16.17 8.10767C12.1779 8.10767 8.30164 10.9472 8.30164 15.1795C8.30164 15.5707 8.33475 15.95 8.398 16.3162C8.42148 16.4522 8.30858 16.5755 8.17224 16.5542C7.54685 16.4564 6.94534 16.2966 6.37677 16.0817L3.50148 17.0269C3.23267 17.1153 2.93701 17.0449 2.73692 16.8448C2.53684 16.6447 2.46639 16.349 2.55476 16.0802L3.24242 13.9884C2.14527 12.7881 1.47363 11.2557 1.47363 9.57269Z" fill="#161823"/>
<path d="M22.4953 15.1795C22.4953 12.0217 19.5507 9.65063 16.1699 9.65063C12.7891 9.65063 9.84448 12.0217 9.84448 15.1795C9.84448 18.3374 12.7891 20.7085 16.1699 20.7085C16.7659 20.7085 17.344 20.6364 17.8929 20.5011L20.4346 21.3915C20.7066 21.4868 21.0091 21.4178 21.2129 21.2141C21.4167 21.0103 21.4857 20.7077 21.3904 20.4358L20.8522 18.8995C21.8592 17.9311 22.4953 16.6304 22.4953 15.1795Z" fill="#161823"/>
</svg>
