<svg width="16" height="16" viewBox="0 0 16 16" fill="none" xmlns="http://www.w3.org/2000/svg">
<path d="M8.78058 14.0239C8.50777 14.208 8.20087 14.3717 7.99626 14.3717C7.79166 14.3717 7.49158 14.208 7.21877 14.0239C3.65867 11.705 1.33301 8.95652 1.33301 6.18755C1.33301 3.69139 3.06532 2 5.16592 2C5.87453 2 6.48128 2.21171 6.97753 2.57351C6.99712 2.58778 7.01652 2.60229 7.03576 2.61703C7.4299 2.91904 7.75159 3.31756 7.99626 3.78005C8.25852 3.29612 8.60082 2.88223 9.02054 2.57566C9.05925 2.54739 9.09861 2.52002 9.13863 2.49361C9.61263 2.18073 10.1787 2 10.8334 2C12.934 2 14.6663 3.69139 14.6663 6.18755C14.6663 8.95652 12.3407 11.705 8.78058 14.0239Z" fill="#161823"/>
</svg>
