<svg width="24" height="24" viewBox="0 0 24 24" fill="none" xmlns="http://www.w3.org/2000/svg">
<path d="M5.21835 9.45202C5.31505 9.41779 5.41105 9.38517 5.5055 9.35419C6.31026 9.09019 7.10146 9.68619 7.17257 10.5302C7.25888 11.5546 7.38021 12.8316 7.5034 13.5937C7.6056 14.2261 7.77267 15.1383 7.92704 15.9582C8.10925 16.926 7.33185 17.8094 6.35132 17.7182C5.9791 17.6836 5.59915 17.6446 5.25735 17.6028C4.61854 17.5247 4.05783 17.2867 3.66027 17.0711C3.2422 16.8444 2.99352 16.4166 2.91169 15.9481C2.80191 15.3195 2.65418 14.4323 2.60058 13.919C2.56755 13.6028 2.51997 13.1566 2.47308 12.7195C2.37148 11.7724 2.65207 10.8389 3.44928 10.3176C3.47223 10.3026 3.49561 10.2874 3.51943 10.2721C4.07754 6.05936 7.68648 2.73987 12.1296 2.73987C16.6415 2.73987 20.2974 6.16427 20.7643 10.4764C21.3985 11.0158 21.6198 11.8621 21.5278 12.7195C21.4809 13.1566 21.4333 13.6028 21.4003 13.919C21.3467 14.4323 21.199 15.3195 21.0892 15.9481C21.0074 16.4166 20.7587 16.8444 20.3406 17.0711L20.3191 17.0827C20.0116 18.4906 19.2405 19.6011 17.9505 20.3573C16.9804 20.926 15.7477 21.2761 14.259 21.4404C13.9631 21.9232 13.4305 22.2454 12.8227 22.2454C11.8929 22.2454 11.1392 21.4917 11.1392 20.5619C11.1392 19.6322 11.8929 18.8785 12.8227 18.8785C13.5233 18.8785 14.1239 19.3064 14.3774 19.9152C15.5815 19.757 16.505 19.466 17.1919 19.0633C17.8178 18.6964 18.269 18.2246 18.561 17.6244C18.2691 17.6581 17.9567 17.6896 17.6496 17.7182C16.669 17.8094 15.8916 16.926 16.0738 15.9582C16.2282 15.1383 16.3953 14.2261 16.4975 13.5937C16.6207 12.8316 16.742 11.5546 16.8283 10.5302C16.8994 9.68619 17.6906 9.09019 18.4954 9.35419C18.6831 9.41577 18.877 9.48383 19.0702 9.55814C18.2528 6.51659 15.4758 4.23987 12.1296 4.23987C8.82065 4.23987 6.07094 6.46537 5.21835 9.45202Z" fill="#161823"/>
</svg>
