<svg width="20" height="20" viewBox="0 0 20 20" fill="none" xmlns="http://www.w3.org/2000/svg">
<path d="M3.5 4.75C3.5 4.05964 4.05964 3.5 4.75 3.5H6.5C6.91421 3.5 7.25 3.16421 7.25 2.75C7.25 2.33579 6.91421 2 6.5 2H4.75C3.23122 2 2 3.23122 2 4.75V6.5C2 6.91421 2.33579 7.25 2.75 7.25C3.16421 7.25 3.5 6.91421 3.5 6.5V4.75Z" fill="#161823"/>
<path d="M14 2C13.5858 2 13.25 2.33579 13.25 2.75C13.25 3.16421 13.5858 3.5 14 3.5H15.75C16.4404 3.5 17 4.05964 17 4.75V6.5C17 6.91421 17.3358 7.25 17.75 7.25C18.1642 7.25 18.5 6.91421 18.5 6.5V4.75C18.5 3.23122 17.2688 2 15.75 2H14Z" fill="#161823"/>
<path d="M3.5 14C3.5 13.5858 3.16421 13.25 2.75 13.25C2.33579 13.25 2 13.5858 2 14V15.75C2 17.2688 3.23122 18.5 4.75 18.5H6.5C6.91421 18.5 7.25 18.1642 7.25 17.75C7.25 17.3358 6.91421 17 6.5 17H4.75C4.05964 17 3.5 16.4404 3.5 15.75V14Z" fill="#161823"/>
<path d="M18.5 14C18.5 13.5858 18.1642 13.25 17.75 13.25C17.3358 13.25 17 13.5858 17 14V15.75C17 16.4404 16.4404 17 15.75 17H14C13.5858 17 13.25 17.3358 13.25 17.75C13.25 18.1642 13.5858 18.5 14 18.5H15.75C17.2688 18.5 18.5 17.2688 18.5 15.75V14Z" fill="#161823"/>
<path d="M7.65869 13.7843C7.49463 14.2891 7.26221 14.4833 6.84521 14.4833C6.41455 14.4833 6.12061 14.2438 6.12061 13.8685C6.12061 13.7131 6.16162 13.5448 6.25049 13.2989L8.81396 6.43199C9.05322 5.78477 9.38818 5.5 10.0103 5.5C10.6323 5.5 10.9673 5.7783 11.1997 6.43199L13.7632 13.2989C13.8384 13.5125 13.8794 13.6872 13.8794 13.849C13.8794 14.2374 13.5854 14.4833 13.1411 14.4833C12.7241 14.4833 12.478 14.2827 12.3208 13.7843L11.6782 11.9592H8.30127L7.65869 13.7843ZM9.95557 7.09861L8.67041 10.833H11.3091L10.0308 7.09861H9.95557Z" fill="#161823"/>
</svg>
