<svg width="20" height="20" viewBox="0 0 20 20" fill="none" xmlns="http://www.w3.org/2000/svg">
<path d="M15.2413 9.23148C15.2413 9.88487 14.7089 10.4142 14.0512 10.4142C13.3935 10.4142 12.8603 9.88487 12.8604 9.23148C12.8604 8.57939 13.3935 8.05 14.0512 8.05C14.7089 8.05 15.2413 8.57939 15.2413 9.23148Z" fill="#161823"/>
<path fill-rule="evenodd" clip-rule="evenodd" d="M1.55268 1.55292C1.84557 1.26003 2.32044 1.26003 2.61334 1.55292L4.54892 3.48851C6.02251 2.34951 7.93864 1.66992 9.99972 1.66992C14.5121 1.66992 18.3297 4.92729 18.3297 9.13132C18.3297 11.23 17.3099 12.9781 15.7282 14.5625L15.6754 14.615L18.4467 17.3863C18.7396 17.6791 18.7396 18.154 18.4467 18.4469C18.1538 18.7398 17.6789 18.7398 17.386 18.4469L14.5381 15.599L14.5373 15.5996L13.4676 14.5299L13.4684 14.5293L4.51834 5.57924L4.51769 5.58001L3.45183 4.51415L3.4525 4.5134L1.55268 2.61358C1.25978 2.32069 1.25978 1.84582 1.55268 1.55292ZM14.6667 13.5028C14.6495 13.52 14.6322 13.5372 14.6147 13.5543L10.9737 9.91331C11.1108 9.72062 11.1913 9.48539 11.1913 9.23141C11.1913 8.57931 10.6583 8.04993 10.0008 8.04993C9.74835 8.04993 9.51421 8.12801 9.32157 8.26115L5.61846 4.55805C6.79227 3.69669 8.31068 3.16992 9.99972 3.16992C13.8605 3.16992 16.8297 5.92207 16.8297 9.13132C16.8297 10.6858 16.0919 12.0751 14.6667 13.5028Z" fill="#161823"/>
<path d="M2.56711 5.75076C1.99472 6.75879 1.66974 7.90482 1.66974 9.13143C1.66974 13.1673 5.24321 15.8181 9.35959 16.1066V16.9754C9.35959 17.7444 10.1746 18.2739 10.8847 17.9013C11.392 17.6351 12.3159 17.1295 13.2981 16.4817L12.2138 15.3975C11.725 15.7104 11.2557 15.9859 10.8596 16.2081V15.3828C10.8596 14.9686 10.5238 14.6328 10.1096 14.6328C6.15876 14.6328 3.16974 12.2657 3.16974 9.13143C3.16974 8.33718 3.3516 7.57092 3.68382 6.86746L2.56711 5.75076Z" fill="#161823"/>
<path d="M5.16261 8.34625C4.916 8.56279 4.7604 8.87923 4.7604 9.23148C4.7604 9.88487 5.29366 10.4142 5.95034 10.4142C6.30265 10.4142 6.61924 10.2624 6.83729 10.0209L5.16261 8.34625Z" fill="#161823"/>
</svg>
