<svg width="16" height="16" viewBox="0 0 16 16" fill="none" xmlns="http://www.w3.org/2000/svg">
<path d="M12.6663 2.61386V4.00005H13.0663C13.95 4.00005 14.6663 4.7164 14.6663 5.60005V12.4001C14.6663 13.2837 13.95 14.0001 13.0663 14.0001H10.6716L10.6663 14.0001H3.33301L3.32778 14.0001H2.93301C2.04935 14.0001 1.33301 13.2837 1.33301 12.4001V4.76426C1.33301 3.78513 2.04187 2.94997 3.00797 2.79085L11.2713 1.42982C12.0021 1.30946 12.6663 1.87326 12.6663 2.61386ZM4.28087 4.00005H11.2663V2.8495L4.28087 4.00005ZM12.8197 9.00006C12.8197 8.36493 12.3048 7.85006 11.6697 7.85006C11.0345 7.85006 10.5197 8.36493 10.5197 9.00006C10.5197 9.63519 11.0345 10.1501 11.6697 10.1501C12.3048 10.1501 12.8197 9.63519 12.8197 9.00006Z" fill="#161823"/>
</svg>
