<svg width="24" height="24" viewBox="0 0 24 24" fill="none" xmlns="http://www.w3.org/2000/svg">
<path fill-rule="evenodd" clip-rule="evenodd" d="M20.5664 4.32414C20.5664 4.32414 21.1989 6.19795 21.0498 10.82C20.8577 16.7727 16.2492 20.4211 12.4088 20.9971C8.5684 21.5732 5.60652 20.723 5.60652 20.723C4.99773 20.788 4.4515 20.3452 4.38653 19.7364C4.38653 19.7364 3.16764 18.1442 2.85718 14.4643C2.83648 14.219 2.81982 13.9644 2.80783 13.7003C2.61595 9.47588 5.87993 4.55302 11.0646 3.33757C16.2492 2.12211 19.3465 3.33756 19.3465 3.33756C19.9552 3.27259 20.5039 3.71294 20.5664 4.32414ZM14.4663 7.57609L9.0516 10.4071C8.92845 10.4712 8.91759 10.6575 9.03349 10.7356L11.4221 12.3565C11.5126 12.4166 11.5307 12.5508 11.4601 12.639L9.02624 15.6923C8.90853 15.8406 9.04616 16.059 9.21277 15.9929L14.4826 13.8972C14.5876 13.8551 14.6292 13.7189 14.5695 13.6167L12.8455 10.7076C12.8056 10.6415 12.8093 10.5553 12.8527 10.4912L14.6763 7.85859C14.7868 7.70031 14.6292 7.48994 14.4663 7.57609Z" fill="#161823"/>
</svg>
