<svg width="20" height="20" viewBox="0 0 20 20" fill="none" xmlns="http://www.w3.org/2000/svg">
<path d="M2.58301 5C2.58301 4.58579 2.91879 4.25 3.33301 4.25H16.6663C17.0806 4.25 17.4163 4.58579 17.4163 5C17.4163 5.41421 17.0806 5.75 16.6663 5.75H3.33301C2.91879 5.75 2.58301 5.41421 2.58301 5Z" fill="#161823"/>
<path d="M2.58301 10C2.58301 9.58579 2.91879 9.25 3.33301 9.25H13.9998V10.75H3.33301C2.91879 10.75 2.58301 10.4142 2.58301 10Z" fill="#161823"/>
<path d="M2.58301 15C2.58301 14.5858 2.91879 14.25 3.33301 14.25H13.9998V15.75H3.33301C2.91879 15.75 2.58301 15.4142 2.58301 15Z" fill="#161823"/>
<path d="M15.7607 8.75004C15.7607 8.44652 15.9437 8.17292 16.2242 8.05694C16.5047 7.94097 16.8274 8.0055 17.0418 8.2204L18.8641 10.0475C19.1566 10.3407 19.156 10.8156 18.8627 11.1081C18.5694 11.4006 18.0946 11.4 17.802 11.1067L17.2607 10.564V15.8334C17.2607 16.2476 16.925 16.5834 16.5107 16.5834C16.0965 16.5834 15.7607 16.2476 15.7607 15.8334V8.75004Z" fill="#161823"/>
</svg>
