<svg width="24" height="24" viewBox="0 0 24 24" fill="none" xmlns="http://www.w3.org/2000/svg">
<path d="M3.53057 2.46967C3.23768 2.17678 2.76281 2.17678 2.46991 2.46967C2.17702 2.76256 2.17702 3.23744 2.46991 3.53033L20.4699 21.5303C20.7628 21.8232 21.2377 21.8232 21.5306 21.5303C21.8235 21.2374 21.8235 20.7626 21.5306 20.4697L18.4028 17.3419C20.798 15.8046 22.279 13.7574 22.8534 12.8649C23.1946 12.3348 23.1946 11.6652 22.8534 11.1351C21.8756 9.61569 18.2703 4.75 12.0002 4.75C10.065 4.75 8.38437 5.21209 6.95676 5.89586L3.53057 2.46967ZM8.09311 7.03221C9.2331 6.55619 10.5356 6.25 12.0002 6.25C17.4482 6.25 20.6628 10.5028 21.592 11.9468C21.6056 11.9679 21.6093 11.9859 21.6093 12C21.6093 12.0141 21.6056 12.0321 21.592 12.0532C21.0219 12.9391 19.5916 14.8823 17.3129 16.252L15.4888 14.4279C15.9687 13.7396 16.2501 12.9027 16.2501 12C16.2501 9.65278 14.3473 7.74999 12.0001 7.74999C11.0974 7.74999 10.2605 8.03141 9.5722 8.5113L8.09311 7.03221ZM14.4017 13.3408L10.6593 9.59842C11.056 9.3765 11.5133 9.24999 12.0001 9.24999C13.5189 9.24999 14.7501 10.4812 14.7501 12C14.7501 12.4868 14.6236 12.9441 14.4017 13.3408Z" fill="#161823"/>
<path d="M1.19571 11.0586C1.68554 10.3076 2.74009 8.86376 4.36504 7.54673L5.43207 8.61376C3.9235 9.80417 2.92909 11.1467 2.4521 11.878C2.43565 11.9032 2.43174 11.9251 2.43285 11.9437C2.434 11.9629 2.44132 11.9888 2.46455 12.0174C3.05942 12.7486 4.33821 14.1988 6.04123 15.4604C7.75285 16.7283 9.81766 17.75 12.0002 17.75C12.8187 17.75 13.5868 17.654 14.3043 17.486L15.5244 18.7061C14.4617 19.045 13.2871 19.25 12.0002 19.25C9.36006 19.25 6.98191 18.0239 5.14836 16.6657C3.30621 15.301 1.93761 13.7466 1.30097 12.964C0.859035 12.4208 0.803451 11.66 1.19571 11.0586Z" fill="#161823"/>
<path d="M7.75009 12C7.75009 11.67 7.78769 11.3489 7.85884 11.0405L9.29047 12.4722C9.4878 13.6126 10.3875 14.5123 11.5279 14.7096L12.9596 16.1412C12.6512 16.2124 12.33 16.25 12.0001 16.25C9.65288 16.25 7.75009 14.3472 7.75009 12Z" fill="#161823"/>
</svg>
