<svg width="20" height="20" viewBox="0 0 20 20" fill="none" xmlns="http://www.w3.org/2000/svg">
<path fill-rule="evenodd" clip-rule="evenodd" d="M2.14258 3.85728C2.14258 2.51602 3.22989 1.42871 4.57115 1.42871H13.2854C14.6267 1.42871 15.714 2.51602 15.714 3.85728V10.0156C15.216 9.84402 14.6815 9.75084 14.1252 9.75084C11.433 9.75084 9.25059 11.9333 9.25059 14.6254C9.25059 15.8653 9.7135 16.997 10.4759 17.8573H4.57115C3.22989 17.8573 2.14258 16.77 2.14258 15.4287V3.85728ZM10.9747 8.76114L8.50009 7.12537C8.06341 6.83671 7.47144 7.13968 7.47144 7.65183L7.47144 10.9234C7.47144 11.4355 8.06341 11.7385 8.50009 11.4498L10.9747 9.81407C11.3574 9.56105 11.3574 9.01417 10.9747 8.76114ZM14.1252 10.876C12.0542 10.876 10.3752 12.5549 10.3752 14.626C10.3752 16.697 12.0542 18.376 14.1252 18.376C16.1963 18.376 17.8752 16.697 17.8752 14.626C17.8752 12.5549 16.1963 10.876 14.1252 10.876ZM14.125 12.2505C14.4011 12.2505 14.625 12.4743 14.625 12.7505V14.1255H16C16.2761 14.1255 16.5 14.3493 16.5 14.6255C16.5 14.9016 16.2761 15.1255 16 15.1255H14.125C13.8489 15.1255 13.625 14.9016 13.625 14.6255V12.7505C13.625 12.4743 13.8489 12.2505 14.125 12.2505Z" fill="#161823"/>
</svg>
