<svg width="20" height="20" viewBox="0 0 20 20" fill="none" xmlns="http://www.w3.org/2000/svg">
<path d="M7.36419 10.2196C7.0073 9.87359 6.43752 9.88245 6.09155 10.2393C5.74559 10.5962 5.75445 11.166 6.11135 11.512L8.5289 13.8555C8.71772 14.0385 8.97715 14.1298 9.23898 14.1054C9.50081 14.081 9.73886 13.9432 9.89053 13.7284L14.0688 7.81078C14.3555 7.40474 14.2588 6.84317 13.8527 6.55647C13.4467 6.26978 12.8851 6.36652 12.5984 6.77257L9.02668 11.8311L7.36419 10.2196Z" fill="#161823"/>
<path d="M18.3337 10C18.3337 14.6024 14.6027 18.3334 10.0003 18.3334C5.39795 18.3334 1.66699 14.6024 1.66699 10C1.66699 5.39765 5.39795 1.66669 10.0003 1.66669C14.6027 1.66669 18.3337 5.39765 18.3337 10ZM16.8337 10C16.8337 6.22607 13.7743 3.16669 10.0003 3.16669C6.22638 3.16669 3.16699 6.22607 3.16699 10C3.16699 13.774 6.22638 16.8334 10.0003 16.8334C13.7743 16.8334 16.8337 13.774 16.8337 10Z" fill="#161823"/>
</svg>
