<svg width="24" height="24" viewBox="0 0 24 24" fill="none" xmlns="http://www.w3.org/2000/svg">
<path d="M6.23333 3.5H11.05C11.1605 3.5 11.25 3.58954 11.25 3.7L11.25 12.8171C11.25 12.9276 11.1605 13.0171 11.05 13.0171H7.2C7.08954 13.0171 7 12.9276 7 12.8171V12.5C7 10.2909 5.20914 8.5 3 8.5C2.99081 8.5 2.98333 8.49256 2.98333 8.48337V6.75C2.98333 4.95507 4.43841 3.5 6.23333 3.5Z" fill="#161823"/>
<path d="M17 12.8171C17 12.9276 16.9105 13.0171 16.8 13.0171H12.95C12.8395 13.0171 12.75 12.9276 12.75 12.8171V3.7C12.75 3.58954 12.8395 3.5 12.95 3.5H17.7333C19.5283 3.5 20.9833 4.95507 20.9833 6.75V8.30085C20.9833 8.41099 20.8942 8.49988 20.7842 8.50572C18.6754 8.61783 17 10.3633 17 12.5V12.8171Z" fill="#161823"/>
<path d="M3 10C1.61929 10 0.5 11.1193 0.5 12.5V16.95C0.5 18.4688 1.73122 19.7 3.25 19.7H5.04585C4.93803 20.0439 5.02038 20.4346 5.29289 20.7071C5.68342 21.0976 6.31658 21.0976 6.70711 20.7071L7.71421 19.7H16.2858L17.2929 20.7071C17.6834 21.0976 18.3166 21.0976 18.7071 20.7071C18.9796 20.4346 19.062 20.0439 18.9542 19.7H20.75C22.2688 19.7 23.5 18.4688 23.5 16.95V12.5C23.5 11.1193 22.3807 10 21 10C19.6193 10 18.5 11.1193 18.5 12.5V14.0171C18.5 14.2933 18.2761 14.5171 18 14.5171H6C5.72386 14.5171 5.5 14.2933 5.5 14.0171V12.5C5.5 11.1193 4.38071 10 3 10Z" fill="#161823"/>
</svg>
