<svg width="20" height="20" viewBox="0 0 20 20" fill="none" xmlns="http://www.w3.org/2000/svg">
<path fill-rule="evenodd" clip-rule="evenodd" d="M10.4171 14.2263C12.3453 14.2263 14.0733 13.3689 15.2407 12.0151C15.408 12.0452 15.5756 12.0731 15.7432 12.0986C16.1481 12.1604 16.5265 11.8821 16.5882 11.4772C16.6413 11.1289 16.4428 10.8002 16.1285 10.6759C16.548 9.82668 16.7837 8.87051 16.7837 7.85959C16.7837 4.34337 13.9333 1.49292 10.4171 1.49292C8.16144 1.49292 6.17991 2.66598 5.04908 4.43481C4.99455 4.36868 4.94054 4.3022 4.88706 4.23538C4.63113 3.91556 4.1644 3.86377 3.84459 4.11969C3.52477 4.37562 3.47298 4.84235 3.7289 5.16217C3.93098 5.4147 4.14 5.66263 4.35586 5.90568C4.1575 6.52149 4.0504 7.17814 4.0504 7.85959C4.0504 9.06578 4.38593 10.1939 4.96881 11.1555L3.35458 14.8155C2.85846 15.9403 3.28924 17.2583 4.35394 17.873L4.77608 18.1167C5.84079 18.7314 7.19757 18.4455 7.92367 17.4534L10.2866 14.2249C10.33 14.2258 10.3735 14.2263 10.4171 14.2263ZM9.08575 9.75677C10.5149 10.5819 12.0072 11.2013 13.5281 11.6239C12.6832 12.3229 11.5993 12.7429 10.4171 12.7429C7.72007 12.7429 5.53373 10.5566 5.53373 7.85959C5.53373 7.62347 5.55048 7.39132 5.58284 7.16426C6.62647 8.13982 7.79648 9.01241 9.08575 9.75677ZM9.82742 8.47216C11.3603 9.35717 12.9699 9.98492 14.607 10.3694C15.0472 9.63599 15.3004 8.77752 15.3004 7.85959C15.3004 5.1626 13.1141 2.97625 10.4171 2.97625C8.53947 2.97625 6.90917 4.03588 6.0919 5.59026C7.17618 6.68888 8.42458 7.66223 9.82742 8.47216ZM4.71177 15.414L6.015 12.4592C6.74363 13.1567 7.63785 13.6829 8.63292 13.9729L6.72669 16.5774C6.4478 16.9584 5.92668 17.0682 5.51775 16.8321L5.09561 16.5884C4.68668 16.3523 4.52122 15.8461 4.71177 15.414Z" fill="#161823"/>
</svg>
