<svg width="24" height="24" viewBox="0 0 24 24" fill="none" xmlns="http://www.w3.org/2000/svg">
<path d="M20.0915 17.8772C21.2919 16.2274 22 14.1964 22 12C22 6.47715 17.5228 2 12 2C6.47715 2 2 6.47715 2 12C2 14.1964 2.70812 16.2274 3.90851 17.8772C5.28817 19.7734 7.31812 21.166 9.67065 21.7273C10.418 21.9056 11.198 22 12 22C12.802 22 13.582 21.9056 14.3293 21.7273C16.6819 21.166 18.7118 19.7734 20.0915 17.8772ZM12 14C15.0517 14 17.6706 15.025 19.1659 16.5736C17.6558 18.9347 15.0107 20.5 12 20.5C8.98932 20.5 6.34422 18.9347 4.8341 16.5736C6.32944 15.025 8.9483 14 12 14ZM12.0698 11.9999C10.5097 11.9999 9.245 10.5947 9.245 8.8613C9.245 7.12787 10.5097 5.72266 12.0698 5.72266C13.6299 5.72266 14.8946 7.12787 14.8946 8.8613C14.8946 10.5947 13.6299 11.9999 12.0698 11.9999Z" fill="#161823"/>
</svg>
