<svg width="20" height="20" viewBox="0 0 20 20" fill="none" xmlns="http://www.w3.org/2000/svg">
<path d="M3.75 4H13.25C13.9404 4 14.5 4.55964 14.5 5.25V7.3C14.5 7.41046 14.5895 7.5 14.7 7.5H15.8C15.9105 7.5 16 7.41046 16 7.3V5.25C16 3.73122 14.7688 2.5 13.25 2.5H3.75C2.23122 2.5 1 3.73122 1 5.25V12.25C1 13.7688 2.23122 15 3.75 15H5.8C5.91046 15 6 14.9105 6 14.8V13.7C6 13.5895 5.91046 13.5 5.8 13.5H3.75C3.05964 13.5 2.5 12.9404 2.5 12.25V5.25C2.5 4.55964 3.05964 4 3.75 4Z" fill="#161823"/>
<path fill-rule="evenodd" clip-rule="evenodd" d="M10 9C8.61929 9 7.5 10.1193 7.5 11.5V15C7.5 16.3807 8.61929 17.5 10 17.5H16.5C17.8807 17.5 19 16.3807 19 15V11.5C19 10.1193 17.8807 9 16.5 9H10ZM10 10.5C9.44771 10.5 9 10.9477 9 11.5V15C9 15.5523 9.44772 16 10 16H16.5C17.0523 16 17.5 15.5523 17.5 15V11.5C17.5 10.9477 17.0523 10.5 16.5 10.5H10Z" fill="#161823"/>
<path d="M4.78033 5.21967C4.48744 4.92678 4.01256 4.92678 3.71967 5.21967C3.42678 5.51256 3.42678 5.98744 3.71967 6.28033L5.08241 7.64307L4.39267 8.34866C4.15541 8.59137 4.32738 8.99995 4.66679 8.99995H7.11667C7.32838 8.99995 7.5 8.82832 7.5 8.61662V6.11042C7.5 5.7668 7.08275 5.59674 6.84255 5.84246L6.13101 6.57035L4.78033 5.21967Z" fill="#161823"/>
</svg>
