<svg width="16" height="16" viewBox="0 0 16 16" fill="none" xmlns="http://www.w3.org/2000/svg">
<path fill-rule="evenodd" clip-rule="evenodd" d="M1 8.00011C1 8.14929 1 8.28492 1.01356 8.43411V8.36628C1.05426 9.1938 1.65116 9.85853 2.42442 10.0213C4.25581 10.3062 5.70736 11.7442 6.01938 13.5756C6.1686 14.376 6.87403 14.9729 7.71512 15H8C11.8663 15 15 11.8663 15 8C15 4.13372 11.8663 1 8 1C4.13372 1 1 4.13383 1 8.00011ZM10.7133 8.81391C9.85866 9.70926 8.74625 10.3604 7.49819 10.6589C6.91486 10.8081 6.27727 10.4418 6.08735 9.85848C5.92455 9.26158 5.82959 8.63755 5.82959 7.99996C5.82959 7.36236 5.92455 6.73833 6.08735 6.15499C6.2637 5.5581 6.87417 5.20538 7.48463 5.35461C8.73269 5.65306 9.84509 6.30422 10.7133 7.19957C11.1339 7.64724 11.1339 8.3798 10.7133 8.81391Z" fill="#161823"/>
</svg>
