<svg width="20" height="20" viewBox="0 0 20 20" fill="none" xmlns="http://www.w3.org/2000/svg">
<path d="M10.8485 8.0201C11.3172 7.55147 11.3172 6.79167 10.8485 6.32304C10.3799 5.85441 9.6201 5.85441 9.15147 6.32304C8.68284 6.79167 8.68284 7.55147 9.15147 8.0201C9.6201 8.48873 10.3799 8.48873 10.8485 8.0201Z" fill="#161823"/>
<path d="M11.9799 10.8485C12.4485 11.3172 13.2083 11.3172 13.677 10.8485C14.1456 10.3799 14.1456 9.6201 13.677 9.15147C13.2083 8.68284 12.4485 8.68284 11.9799 9.15147C11.5113 9.6201 11.5113 10.3799 11.9799 10.8485Z" fill="#161823"/>
<path d="M8.0201 10.8485C7.55147 11.3172 6.79168 11.3172 6.32305 10.8485C5.85442 10.3799 5.85442 9.6201 6.32305 9.15147C6.79168 8.68284 7.55147 8.68284 8.0201 9.15147C8.48873 9.6201 8.48873 10.3799 8.0201 10.8485Z" fill="#161823"/>
<path d="M10.8485 13.677C11.3172 13.2083 11.3172 12.4485 10.8485 11.9799C10.3799 11.5113 9.6201 11.5113 9.15147 11.9799C8.68284 12.4485 8.68284 13.2083 9.15147 13.677C9.6201 14.1456 10.3799 14.1456 10.8485 13.677Z" fill="#161823"/>
<path fill-rule="evenodd" clip-rule="evenodd" d="M15.2313 16.7C17.221 15.1443 18.5 12.7215 18.5 10C18.5 5.30558 14.6944 1.5 10 1.5C5.30558 1.5 1.5 5.30558 1.5 10C1.5 14.6508 5.23514 18.4292 9.86929 18.499L9.86667 18.5H17.6C18.0971 18.5 18.5 18.0971 18.5 17.6C18.5 17.1029 18.0971 16.7 17.6 16.7H15.2313ZM10 17C13.866 17 17 13.866 17 10C17 6.13401 13.866 3 10 3C6.13401 3 3 6.13401 3 10C3 13.866 6.13401 17 10 17Z" fill="#161823"/>
</svg>
