<svg width="24" height="24" viewBox="0 0 24 24" fill="none" xmlns="http://www.w3.org/2000/svg">
<path fill-rule="evenodd" clip-rule="evenodd" d="M10.5 2C5.80558 2 2 5.80558 2 10.5C2 15.1944 5.80558 19 10.5 19C12.5773 19 14.4805 18.2549 15.9569 17.0173C15.9611 17.0217 15.9654 17.026 15.9697 17.0303L20.7197 21.7803C21.0126 22.0732 21.4874 22.0732 21.7803 21.7803C22.0732 21.4874 22.0732 21.0126 21.7803 20.7197L17.0303 15.9697C17.026 15.9654 17.0217 15.9611 17.0173 15.9569C18.2549 14.4805 19 12.5773 19 10.5C19 5.80558 15.1944 2 10.5 2ZM3.5 10.5C3.5 6.63401 6.63401 3.5 10.5 3.5C14.366 3.5 17.5 6.63401 17.5 10.5C17.5 14.366 14.366 17.5 10.5 17.5C6.63401 17.5 3.5 14.366 3.5 10.5Z" fill="#161823"/>
</svg>
