<svg width="16" height="16" viewBox="0 0 16 16" fill="none" xmlns="http://www.w3.org/2000/svg">
<path d="M1.62179 3.53806C1.22974 3.83966 1 4.30624 1 4.80087V12.8948C1 13.6248 1.83337 14.0415 2.41739 13.6035L2.92444 13.2233C4.26559 12.2176 6.12134 12.2624 7.41233 13.3318C7.49467 13.4 7.58437 13.4461 7.67635 13.4725C7.74976 13.4936 7.80179 13.4153 7.76972 13.346C7.5664 12.9067 7.43342 12.4282 7.38521 11.925C7.38198 11.8913 7.36232 11.8611 7.3323 11.8454C5.7122 10.9993 3.71359 11.1316 2.20451 12.2632L2.2 12.2666V4.80087C2.2 4.67879 2.2567 4.56363 2.35347 4.4892C3.66624 3.47933 5.47381 3.40922 6.86086 4.31437L7.02902 4.42411C7.26046 4.57515 7.4 4.83282 7.4 5.10919V10.9421C7.52221 9.97651 7.95738 9.10844 8.60067 8.44279V5.12518C8.60067 4.86214 8.73253 4.61663 8.95181 4.47137L9.08191 4.38519C10.4904 3.45215 12.3408 3.53833 13.6565 4.59823C13.7477 4.67167 13.8007 4.78244 13.8007 4.89951V7.5378C13.8007 7.57503 13.8214 7.60909 13.8541 7.62679C14.2088 7.81851 14.5342 8.05752 14.8218 8.33537C14.8873 8.39864 15.0007 8.35353 15.0007 8.26247V4.89951C15.0007 4.41934 14.7832 3.96499 14.4093 3.66375C12.6865 2.27587 10.2635 2.16303 8.4192 3.38478L8.2891 3.47096C8.19082 3.53606 8.09949 3.60913 8.01572 3.68899C7.91632 3.58864 7.80565 3.49801 7.68483 3.41917L7.51667 3.30943C5.70265 2.12564 3.33867 2.21733 1.62179 3.53806Z" fill="#161823"/>
<path fill-rule="evenodd" clip-rule="evenodd" d="M8.56473 11.5002C8.56473 9.73291 9.99742 8.30022 11.7647 8.30022C13.532 8.30022 14.9647 9.73291 14.9647 11.5002C14.9647 12.1731 14.7571 12.7975 14.4023 13.3127L15.6655 14.5759C15.8998 14.8102 15.8998 15.1901 15.6655 15.4244C15.4311 15.6587 15.0512 15.6587 14.8169 15.4244L13.5493 14.1568C13.0395 14.4999 12.4255 14.7002 11.7647 14.7002C9.99742 14.7002 8.56473 13.2675 8.56473 11.5002ZM11.7647 9.50022C10.6602 9.50022 9.76473 10.3957 9.76473 11.5002C9.76473 12.6048 10.6602 13.5002 11.7647 13.5002C12.8693 13.5002 13.7647 12.6048 13.7647 11.5002C13.7647 10.3957 12.8693 9.50022 11.7647 9.50022Z" fill="#161823"/>
</svg>
