<svg width="24" height="24" viewBox="0 0 24 24" fill="none" xmlns="http://www.w3.org/2000/svg">
<path d="M4.30411 4.2189C2.97525 4.43725 2 5.58582 2 6.93251V18.2499C2 19.7687 3.23122 20.9999 4.75 20.9999H19.25C20.7688 20.9999 22 19.7687 22 18.2499V8.74994C22 7.23116 20.7688 5.99994 19.25 5.99994H19V3.86517C19 2.7854 18.0317 1.96325 16.9663 2.13832L4.30411 4.2189ZM17.5 14.9999C16.6716 14.9999 16 14.3284 16 13.4999C16 12.6715 16.6716 11.9999 17.5 11.9999C18.3284 11.9999 19 12.6715 19 13.4999C19 14.3284 18.3284 14.9999 17.5 14.9999ZM17.5001 3.80193L17.5 5.99994H4.53946C4.35513 5.99994 4.33323 5.73184 4.51512 5.70193L17.2676 3.60458C17.3894 3.58455 17.5001 3.67851 17.5001 3.80193Z" fill="#161823"/>
</svg>
