<svg width="20" height="20" viewBox="0 0 20 20" fill="none" xmlns="http://www.w3.org/2000/svg">
<path d="M13.3333 5.41667C13.3333 7.48774 11.8409 9.16667 9.99996 9.16667C8.15901 9.16667 6.66663 7.48774 6.66663 5.41667C6.66663 3.3456 8.15901 1.66667 9.99996 1.66667C11.8409 1.66667 13.3333 3.3456 13.3333 5.41667Z" fill="#161823"/>
<path d="M4.75275 11.5541C6.15542 10.6637 8.00786 10.1667 10 10.1667C11.3844 10.1667 12.7014 10.4067 13.8468 10.852C13.9593 10.8957 14.0035 11.0297 13.9539 11.1398C13.7444 11.6057 13.7041 12.1293 13.8331 12.6174H12.3957C11.1719 12.6174 10.1798 13.6095 10.1798 14.8333C10.1798 16.0572 11.1719 17.0493 12.3957 17.0493H13.8331C13.7258 17.4552 13.7356 17.8856 13.8625 18.2871C13.907 18.4278 13.8088 18.5833 13.6612 18.5833H4.58333C3.29467 18.5833 2.25 17.5387 2.25 16.25V15.6061C2.25 13.8335 3.36383 12.4358 4.75275 11.5541Z" fill="#161823"/>
<path d="M15.469 17.1112C15.1895 17.3908 15.1895 17.8441 15.469 18.1237C15.7486 18.4032 16.2019 18.4032 16.4815 18.1237L19.2656 15.3396C19.5452 15.06 19.5452 14.6067 19.2656 14.3271L16.4815 11.543C16.2019 11.2634 15.7486 11.2634 15.469 11.543C15.1895 11.8226 15.1895 12.2759 15.469 12.5555L17.031 14.1174H12.3957C12.0003 14.1174 11.6798 14.438 11.6798 14.8333C11.6798 15.2287 12.0003 15.5493 12.3957 15.5493H17.031L15.469 17.1112Z" fill="#161823"/>
</svg>
