<svg width="24" height="24" viewBox="0 0 24 24" fill="none" xmlns="http://www.w3.org/2000/svg">
<path d="M9.24731 12.4286C9.24731 10.9081 10.4799 9.67554 12.0004 9.67554C13.5208 9.67554 14.7534 10.9081 14.7534 12.4286C14.7534 13.949 13.5208 15.1816 12.0004 15.1816C10.4799 15.1816 9.24731 13.949 9.24731 12.4286Z" fill="#161823"/>
<path d="M15.9724 3.7884C15.5893 3.21371 14.9989 2.80922 14.3247 2.65938C12.7938 2.31919 11.2069 2.31919 9.67603 2.65938C9.00178 2.80922 8.41146 3.21371 8.02833 3.7884L7.49197 4.59295C7.25807 4.9438 6.88937 5.1822 6.47343 5.25152L5.80055 5.36367C3.90436 5.6797 2.42313 7.17364 2.12332 9.07246L2.0164 9.7496C1.67508 11.9113 1.72006 14.1164 2.14926 16.2624C2.55677 18.2999 4.06842 19.9391 6.06637 20.5099L6.399 20.605C10.06 21.651 13.9407 21.651 17.6017 20.605L17.9343 20.5099C19.9323 19.9391 21.4439 18.2999 21.8515 16.2624C22.2807 14.1164 22.3256 11.9113 21.9843 9.7496L21.8774 9.07246C21.5776 7.17364 20.0964 5.6797 18.2002 5.36367L17.5273 5.25152C17.1113 5.1822 16.7427 4.9438 16.5087 4.59295L15.9724 3.7884ZM12.0004 7.67554C14.6254 7.67554 16.7534 9.80355 16.7534 12.4286C16.7534 15.0536 14.6254 17.1816 12.0004 17.1816C9.37533 17.1816 7.24731 15.0536 7.24731 12.4286C7.24731 9.80355 9.37533 7.67554 12.0004 7.67554Z" fill="#161823"/>
</svg>
