<svg width="24" height="24" viewBox="0 0 24 24" fill="none" xmlns="http://www.w3.org/2000/svg">
<path d="M4 5.75C4 3.67893 5.67893 2 7.75 2H16.25C18.3211 2 20 3.67893 20 5.75V9.66385C20 9.79918 19.8683 9.89554 19.7366 9.86426C19.4537 9.79708 19.1535 9.76097 18.8369 9.76097C18.7967 9.76097 18.7567 9.76155 18.717 9.76271C18.6001 9.76611 18.5 9.67451 18.5 9.55749V5.75C18.5 4.50736 17.4926 3.5 16.25 3.5H7.75C6.50736 3.5 5.5 4.50736 5.5 5.75V18.25C5.5 19.4926 6.50736 20.5 7.75 20.5H12.2181C12.3401 20.5 12.4334 20.6084 12.4221 20.7299C12.4094 20.8653 12.4029 21.0033 12.4029 21.1438V21.2263C12.4029 21.4048 12.4172 21.5799 12.4448 21.7506C12.4655 21.8786 12.3703 22 12.2407 22H7.75C5.67893 22 4 20.3211 4 18.25V5.75Z" fill="#161823"/>
<path d="M8.5 6C8.08579 6 7.75 6.33579 7.75 6.75C7.75 7.16421 8.08579 7.5 8.5 7.5H15.5C15.9142 7.5 16.25 7.16421 16.25 6.75C16.25 6.33579 15.9142 6 15.5 6H8.5Z" fill="#161823"/>
<path d="M8.5 9.25C8.08579 9.25 7.75 9.58579 7.75 10C7.75 10.4142 8.08579 10.75 8.5 10.75H13C13.4142 10.75 13.75 10.4142 13.75 10C13.75 9.58579 13.4142 9.25 13 9.25H8.5Z" fill="#161823"/>
<path d="M16.396 13.9619C16.396 12.5746 17.3916 11.2609 18.8369 11.2609C20.2821 11.2609 21.2777 12.5746 21.2777 13.9619C21.2777 15.3493 20.2821 16.6629 18.8369 16.6629C17.3916 16.6629 16.396 15.3493 16.396 13.9619ZM18.8369 12.7609C18.4144 12.7609 17.896 13.1943 17.896 13.9619C17.896 14.7295 18.4144 15.1629 18.8369 15.1629C19.2593 15.1629 19.7777 14.7295 19.7777 13.9619C19.7777 13.1943 19.2593 12.7609 18.8369 12.7609Z" fill="#161823"/>
<path d="M18.8367 17.4842C17.5276 17.4842 16.3259 17.8468 15.4309 18.476C14.5365 19.1047 13.9028 20.0416 13.9028 21.1546V21.2371C13.9028 22.2106 14.692 22.9998 15.6655 22.9998H22.0079C22.9813 22.9998 23.7705 22.2106 23.7705 21.2371V21.1546C23.7705 20.0416 23.1368 19.1047 22.2424 18.476C21.3474 17.8468 20.1457 17.4842 18.8367 17.4842ZM15.4028 21.1546C15.4028 20.6548 15.6844 20.1314 16.2935 19.7031C16.9021 19.2753 17.7923 18.9842 18.8367 18.9842C19.881 18.9842 20.7712 19.2753 21.3798 19.7031C21.989 20.1314 22.2705 20.6548 22.2705 21.1546V21.2371C22.2705 21.3822 22.1529 21.4998 22.0079 21.4998H15.6655C15.5204 21.4998 15.4028 21.3822 15.4028 21.2371V21.1546Z" fill="#161823"/>
</svg>
