<svg width="20" height="20" viewBox="0 0 20 20" fill="none" xmlns="http://www.w3.org/2000/svg">
<path d="M4.1261 15.6667C2.78432 15.6667 1.96629 14.1907 2.67744 13.0529L3.67562 11.4558C4.10558 10.7679 4.33355 9.973 4.33355 9.16176V7.5C4.33355 5.09178 5.83463 3.03676 7.95161 2.21544C8.34766 1.4912 9.11658 1 10.0002 1C10.8839 1 11.6528 1.49119 12.0488 2.21544C14.1658 3.03676 15.6669 5.09178 15.6669 7.5V9.16176C15.6669 9.97299 15.8949 10.7679 16.3248 11.4558L17.323 13.0529C18.0341 14.1907 17.2161 15.6667 15.8743 15.6667H13.2408C13.1131 17.3448 11.711 18.6667 10.0002 18.6667C8.28944 18.6667 6.88738 17.3448 6.75972 15.6667H4.1261ZM5.83355 9.16176C5.83355 10.2541 5.52657 11.3245 4.94762 12.2508L3.94944 13.8479C3.86271 13.9867 3.96247 14.1667 4.1261 14.1667H15.8743C16.038 14.1667 16.1377 13.9867 16.051 13.8479L15.0528 12.2508C14.4739 11.3245 14.1669 10.2541 14.1669 9.16176V7.5C14.1669 5.4842 12.7354 3.80274 10.8336 3.41668V3.33333C10.8336 2.8731 10.4605 2.5 10.0002 2.5C9.53998 2.5 9.16689 2.8731 9.16689 3.33333V3.41668C7.26502 3.80274 5.83355 5.4842 5.83355 7.5V9.16176ZM8.26797 15.6667C8.38928 16.5147 9.11863 17.1667 10.0002 17.1667C10.8819 17.1667 11.6112 16.5147 11.7325 15.6667H8.26797Z" fill="#161823"/>
</svg>
