<svg width="20" height="20" viewBox="0 0 20 20" fill="none" xmlns="http://www.w3.org/2000/svg">
<path d="M15.1166 2.25C15.1166 2.66421 14.7809 3 14.3666 3H5.59997C5.18576 3 4.84997 2.66421 4.84997 2.25C4.84997 1.83579 5.18576 1.5 5.59997 1.5H14.3666C14.7809 1.5 15.1166 1.83579 15.1166 2.25Z" fill="#161823"/>
<path d="M15.1166 17.75C15.1166 18.1642 14.7809 18.5 14.3666 18.5H5.59997C5.18576 18.5 4.84997 18.1642 4.84997 17.75C4.84997 17.3358 5.18576 17 5.59997 17H14.3666C14.7809 17 15.1166 17.3358 15.1166 17.75Z" fill="#161823"/>
<path fill-rule="evenodd" clip-rule="evenodd" d="M3.5 6.75C3.5 5.23122 4.73122 4 6.25 4H13.75C15.2688 4 16.5 5.23122 16.5 6.75V13.25C16.5 14.7688 15.2688 16 13.75 16H6.25C4.73122 16 3.5 14.7688 3.5 13.25V6.75ZM6.25 5.5H13.75C14.4404 5.5 15 6.05964 15 6.75V13.25C15 13.9404 14.4404 14.5 13.75 14.5H6.25C5.55964 14.5 5 13.9404 5 13.25V6.75C5 6.05964 5.55964 5.5 6.25 5.5Z" fill="#161823"/>
</svg>
