<svg width="20" height="20" viewBox="0 0 20 20" fill="none" xmlns="http://www.w3.org/2000/svg">
<path d="M13.917 3.1665H9.41696C9.0065 3.1665 8.64225 3.36434 8.41436 3.66986H6.76953C7.09489 2.51389 8.15697 1.6665 9.41696 1.6665H13.917C15.4357 1.6665 16.667 2.89772 16.667 4.4165V12.2498C16.667 13.5679 15.7397 14.6694 14.5019 14.9375V13.3548C14.8975 13.1449 15.167 12.7289 15.167 12.2498V4.4165C15.167 3.72615 14.6073 3.1665 13.917 3.1665Z" fill="#161823"/>
<path d="M3.00195 7.91986C3.00195 6.40108 4.23317 5.16986 5.75195 5.16986H10.252C11.7707 5.16986 13.002 6.40108 13.002 7.91986V15.7532C13.002 17.272 11.7707 18.5032 10.252 18.5032H5.75195C4.23317 18.5032 3.00195 17.272 3.00195 15.7532V7.91986ZM5.75195 6.66986C5.0616 6.66986 4.50195 7.2295 4.50195 7.91986V15.7532C4.50195 16.4436 5.0616 17.0032 5.75195 17.0032H10.252C10.9423 17.0032 11.502 16.4436 11.502 15.7532V7.91986C11.502 7.2295 10.9423 6.66986 10.252 6.66986H5.75195Z" fill="#161823"/>
</svg>
