<svg width="24" height="24" viewBox="0 0 24 24" fill="none" xmlns="http://www.w3.org/2000/svg">
<path d="M6.14422 3.54286C6.34211 3.51461 6.54439 3.5 6.75008 3.5H17.2501C17.4558 3.5 17.6581 3.51461 17.8559 3.54286C18.0208 3.56639 18.1527 3.40072 18.0623 3.26077C17.5728 2.5022 16.7201 2 15.7501 2H8.25008C7.2801 2 6.4274 2.5022 5.93783 3.26077C5.84751 3.40072 5.97934 3.56639 6.14422 3.54286Z" fill="#161823"/>
<path fill-rule="evenodd" clip-rule="evenodd" d="M15.3481 12.2528C16.2204 12.8484 16.2204 14.1349 15.3481 14.7305L11.3584 17.4544C10.3628 18.1341 9.01263 17.4211 9.01263 16.2155L9.01263 10.7678C9.01263 9.56224 10.3628 8.84922 11.3584 9.52897L15.3481 12.2528ZM14.5023 13.4917L10.5126 16.2155L10.5126 10.7678L14.5023 13.4917Z" fill="#161823"/>
<path fill-rule="evenodd" clip-rule="evenodd" d="M4 7.75C4 6.23122 5.23122 5 6.75 5H17.25C18.7688 5 20 6.23122 20 7.75V19.25C20 20.7688 18.7688 22 17.25 22H6.75C5.23122 22 4 20.7688 4 19.25V7.75ZM6.75 6.5H17.25C17.9404 6.5 18.5 7.05964 18.5 7.75V19.25C18.5 19.9404 17.9404 20.5 17.25 20.5H6.75C6.05964 20.5 5.5 19.9404 5.5 19.25V7.75C5.5 7.05964 6.05964 6.5 6.75 6.5Z" fill="#161823"/>
</svg>
