<svg width="20" height="20" viewBox="0 0 20 20" fill="none" xmlns="http://www.w3.org/2000/svg">
<path d="M8.73575 2.30808C9.17308 1.13852 10.8274 1.13851 11.2647 2.30808L12.8359 6.5099L17.3176 6.70573C18.565 6.76024 19.0763 8.33359 18.0991 9.11093L14.5884 11.9036L15.3562 14.6726L18.0306 17.347C18.3235 17.6399 18.3235 18.1147 18.0306 18.4076C17.7377 18.7005 17.2628 18.7005 16.9699 18.4076L1.96991 3.40762C1.67702 3.11473 1.67702 2.63985 1.96991 2.34696C2.26281 2.05407 2.73768 2.05407 3.03057 2.34696L7.17246 6.48885L8.73575 2.30808ZM8.25868 7.57506L13.2024 12.5188L13.1164 12.2088C12.9717 11.6868 13.153 11.1288 13.5769 10.7915L16.8513 8.18679L12.6712 8.00413C12.13 7.98048 11.6554 7.63564 11.4657 7.12824L10.0002 3.20919L8.53481 7.12824C8.47165 7.29715 8.37692 7.44804 8.25868 7.57506Z" fill="#161823"/>
<path d="M10.1658 13.7174L14.0059 17.5576C14.1371 17.6887 14.0372 17.8762 13.8727 17.7906C13.8284 17.7675 13.7845 17.7417 13.7411 17.713L10.0002 15.2371L6.25938 17.713C5.21812 18.4021 3.87975 17.4297 4.21339 16.2265L5.41206 11.9036L1.90141 9.11093C0.924233 8.33359 1.43544 6.76024 2.68291 6.70573L3.13433 6.686L4.5729 8.12457L3.14916 8.18679L6.42356 10.7915C6.8475 11.1288 7.02879 11.6868 6.88405 12.2088L5.76604 16.2407L9.25517 13.9315C9.52913 13.7502 9.85272 13.6788 10.1658 13.7174Z" fill="#161823"/>
</svg>
