<svg width="20" height="20" viewBox="0 0 20 20" fill="none" xmlns="http://www.w3.org/2000/svg">
<path d="M10.416 2.62412C10.7607 2.39435 10.8538 1.9287 10.624 1.58405C10.3943 1.23941 9.92862 1.14628 9.58397 1.37604L9.5182 1.41985C7.96758 2.45217 2.75 5.92575 2.75 12.1053C2.75 14.7017 3.94573 16.401 5.47609 17.4209C6.96745 18.4147 8.74744 18.7501 10 18.7501C11.2526 18.7501 13.0326 18.4147 14.5239 17.4209C16.0543 16.401 17.25 14.7017 17.25 12.1053C17.25 7.98283 15.028 4.89234 12.8863 3.10806C12.568 2.84293 12.0951 2.88598 11.83 3.20423C11.5648 3.52247 11.6079 3.99538 11.9261 4.26052C13.835 5.85083 15.75 8.55301 15.75 12.1053C15.75 14.1598 14.8397 15.4079 13.6921 16.1727C12.5054 16.9635 11.0354 17.2501 10 17.2501C8.96457 17.2501 7.49456 16.9635 6.30792 16.1727C5.16027 15.4079 4.25 14.1598 4.25 12.1053C4.25 6.73476 8.86583 3.65757 10.4097 2.6283L10.416 2.62412Z" fill="#161823"/>
<path d="M13.5083 11.5515C13.8129 11.2708 13.8323 10.7963 13.5516 10.4917C13.2709 10.1871 12.7964 10.1678 12.4918 10.4485L10.8496 11.9618L9.69413 10.8125C9.35971 10.4798 8.83186 10.4429 8.45441 10.7258L6.55024 12.1529C6.21879 12.4014 6.15148 12.8714 6.3999 13.2029C6.64832 13.5343 7.11839 13.6017 7.44985 13.3532L8.97346 12.2113L10.1651 13.3967C10.5257 13.7554 11.1049 13.7664 11.4789 13.4217L13.5083 11.5515Z" fill="#161823"/>
</svg>
