<svg width="24" height="24" viewBox="0 0 24 24" fill="none" xmlns="http://www.w3.org/2000/svg">
<path d="M2.97363 9.57269C2.97363 6.58768 5.83874 3.979 9.6246 3.979C12.7184 3.979 15.1973 5.7211 16.0002 7.98704C16.0257 8.05903 16.0936 8.10767 16.17 8.10767C16.5621 8.10767 16.9532 8.13507 17.3395 8.18849C17.4801 8.20793 17.5997 8.08264 17.5631 7.94554C16.7102 4.75099 13.3993 2.479 9.6246 2.479C5.23558 2.479 1.47363 5.55066 1.47363 9.57269C1.47363 11.2557 2.14527 12.7881 3.24242 13.9884L2.55476 16.0802C2.46639 16.349 2.53684 16.6447 2.73692 16.8448C2.93701 17.0449 3.23267 17.1153 3.50148 17.0269L6.37677 16.0817C6.94534 16.2966 7.54685 16.4564 8.17224 16.5542C8.30858 16.5755 8.42148 16.4522 8.398 16.3162C8.33475 15.95 8.30164 15.5707 8.30164 15.1795C8.30164 15.1083 8.25082 15.047 8.18082 15.034C7.65662 14.9362 7.15653 14.7864 6.68827 14.5918C6.52228 14.5229 6.33705 14.5158 6.16629 14.5719L4.44338 15.1383L4.80932 14.0252C4.89932 13.7514 4.8245 13.4503 4.61682 13.2505C3.58 12.253 2.97363 10.9638 2.97363 9.57269Z" fill="#161823"/>
<path fill-rule="evenodd" clip-rule="evenodd" d="M16.1698 9.65063C19.5506 9.65063 22.4952 12.0217 22.4952 15.1795C22.4952 16.6016 21.884 17.8799 20.9112 18.842L21.5124 20.5581C21.6077 20.8301 21.5387 21.1326 21.3349 21.3364C21.1311 21.5402 20.8286 21.6092 20.5566 21.5139L17.7571 20.5332C17.2489 20.6478 16.7169 20.7085 16.1698 20.7085C12.7891 20.7085 9.84445 18.3374 9.84445 15.1795C9.84445 12.0217 12.7891 9.65063 16.1698 9.65063ZM20.9952 15.1795C20.9952 13.0587 18.9475 11.1506 16.1698 11.1506C13.3922 11.1506 11.3444 13.0587 11.3444 15.1795C11.3444 17.3004 13.3922 19.2085 16.1698 19.2085C16.6716 19.2085 17.1539 19.1444 17.6064 19.0263C17.7508 18.9887 17.903 18.9949 18.0438 19.0442L19.5814 19.5829L19.3311 18.8684C19.2272 18.5721 19.3191 18.2424 19.5612 18.0423C20.4659 17.2947 20.9952 16.2765 20.9952 15.1795Z" fill="#161823"/>
</svg>
