<svg width="24" height="24" viewBox="0 0 24 24" fill="none" xmlns="http://www.w3.org/2000/svg">
<path d="M11.8171 20.7296C11.4142 20.3519 11.3937 19.719 11.7714 19.3161L18.6293 12L11.7714 4.68389C11.3937 4.28095 11.4142 3.64812 11.8171 3.27042C12.22 2.89271 12.8529 2.91317 13.2306 3.31611L20.7295 11.3161C21.0901 11.7008 21.0901 12.2992 20.7295 12.6839L13.2306 20.6839C12.8529 21.0868 12.22 21.1073 11.8171 20.7296Z" fill="#161823"/>
<path d="M3.31606 20.7295C2.91315 20.3518 2.89273 19.719 3.27046 19.3161L10.1293 12L3.27046 4.68386C2.89273 4.28095 2.91315 3.64811 3.31606 3.27038C3.71898 2.89265 4.35181 2.91307 4.72954 3.31598L12.2295 11.316C12.5902 11.7007 12.5902 12.2992 12.2295 12.6839L4.72954 20.6839C4.35181 21.0869 3.71898 21.1073 3.31606 20.7295Z" fill="#161823"/>
</svg>
