<svg width="20" height="20" viewBox="0 0 20 20" fill="none" xmlns="http://www.w3.org/2000/svg">
<path d="M3.45801 3.20825C1.93923 3.20825 0.708008 4.43947 0.708008 5.95825V14.0416C0.708008 15.5604 1.93923 16.7916 3.45801 16.7916H5.14747C5.24063 16.4871 5.41271 16.195 5.67426 15.9413L6.34416 15.2916H3.45801C2.76765 15.2916 2.20801 14.7319 2.20801 14.0416V5.95825C2.20801 5.2679 2.76765 4.70825 3.45801 4.70825H16.5413C17.2317 4.70825 17.7913 5.2679 17.7913 5.95825V14.0416C17.7913 14.7319 17.2317 15.2916 16.5413 15.2916H13.6552L14.3251 15.9413C14.5867 16.195 14.7588 16.4871 14.8519 16.7916H16.5413C18.0601 16.7916 19.2913 15.5604 19.2913 14.0416V5.95825C19.2913 4.43947 18.0601 3.20825 16.5413 3.20825H3.45801Z" fill="#161823"/>
<path d="M10.5798 14.3984C10.2566 14.0849 9.74274 14.0849 9.41948 14.3984L6.71857 17.0181C6.39616 17.3308 6.61753 17.877 7.06668 17.877H12.9327C13.3818 17.877 13.6032 17.3308 13.2808 17.0181L10.5798 14.3984Z" fill="#161823"/>
<path d="M13.2087 11.6335H13.2807L14.5051 7.50431C14.6587 6.94735 14.894 6.72168 15.3165 6.72168C15.7727 6.72168 16.0944 7.00496 16.0944 7.42269C16.0944 7.58114 16.0416 7.82601 15.9695 8.05168L14.5531 12.2625C14.2986 13.05 13.9145 13.3813 13.2279 13.3813C12.5317 13.3813 12.1332 13.0452 11.8835 12.2625L10.4671 8.05168C10.3855 7.8116 10.3423 7.59074 10.3423 7.43709C10.3423 7.01457 10.6688 6.72168 11.1249 6.72168C11.533 6.72168 11.7971 6.97616 11.9555 7.50431L13.2087 11.6335Z" fill="#161823"/>
<path d="M6.93343 13.3813C7.42798 13.3813 7.73047 13.0644 7.73047 12.5458V8.08048H8.98364C9.34855 8.08048 9.61743 7.802 9.61743 7.43229C9.61743 7.05778 9.34855 6.7793 8.98364 6.7793H4.89762C4.53271 6.7793 4.25903 7.05778 4.25903 7.43229C4.25903 7.802 4.53271 8.08048 4.89762 8.08048H6.14119V12.5458C6.14119 13.0644 6.43888 13.3813 6.93343 13.3813Z" fill="#161823"/>
</svg>
