<svg width="20" height="20" viewBox="0 0 20 20" fill="none" xmlns="http://www.w3.org/2000/svg">
<path d="M18.3337 10.0001C18.3337 14.6025 14.6027 18.3334 10.0003 18.3334C5.39795 18.3334 1.66699 14.6025 1.66699 10.0001C1.66699 5.39771 5.39795 1.66675 10.0003 1.66675C14.6027 1.66675 18.3337 5.39771 18.3337 10.0001ZM5.91699 7.00006C5.91699 7.41427 6.25278 7.75006 6.66699 7.75006H13.3337C13.7479 7.75006 14.0837 7.41427 14.0837 7.00006C14.0837 6.58585 13.7479 6.25006 13.3337 6.25006H6.66699C6.25278 6.25006 5.91699 6.58585 5.91699 7.00006ZM5.91699 10.0001C5.91699 10.4143 6.25278 10.7501 6.66699 10.7501H13.3337C13.7479 10.7501 14.0837 10.4143 14.0837 10.0001C14.0837 9.58585 13.7479 9.25006 13.3337 9.25006H6.66699C6.25278 9.25006 5.91699 9.58585 5.91699 10.0001ZM5.91699 13.0001C5.91699 13.4143 6.25278 13.7501 6.66699 13.7501H13.3337C13.7479 13.7501 14.0837 13.4143 14.0837 13.0001C14.0837 12.5858 13.7479 12.2501 13.3337 12.2501H6.66699C6.25278 12.2501 5.91699 12.5858 5.91699 13.0001Z" fill="#161823"/>
</svg>
