<svg width="20" height="20" viewBox="0 0 20 20" fill="none" xmlns="http://www.w3.org/2000/svg">
<path d="M12 15.8223C11.6969 15.8223 11.4236 16.0048 11.3074 16.2847C11.1911 16.5646 11.2548 16.887 11.4687 17.1017L13.2958 18.9353C13.5882 19.2287 14.063 19.2296 14.3565 18.9372C14.6499 18.6448 14.6507 18.17 14.3584 17.8766L13.8061 17.3223H18.2548C18.669 17.3223 19.0048 16.9865 19.0048 16.5723C19.0048 16.1581 18.669 15.8223 18.2548 15.8223H12Z" fill="#161823"/>
<path d="M9.92134 15.7178C9.97903 15.5785 10.0497 15.4473 10.1316 15.3252C10.1823 15.2496 10.1825 15.15 10.1319 15.0742C9.89376 14.7172 9.75494 14.2884 9.75494 13.8271C9.75494 12.5844 10.7623 11.5771 12.0049 11.5771H14.0523C14.1483 11.5771 14.2298 11.5085 14.2547 11.4158C14.2686 11.3636 14.2845 11.3118 14.3023 11.2606C14.3381 11.1574 14.2957 11.0402 14.1957 10.9963C12.9724 10.4588 11.5272 10.1667 10 10.1667C8.00786 10.1667 6.15542 10.6637 4.75275 11.5541C3.36383 12.4357 2.25 13.8335 2.25 15.6061V16.25C2.25 17.5387 3.29467 18.5833 4.58333 18.5833H10.3397C10.5179 18.5833 10.6071 18.3679 10.4811 18.2419L10.4091 18.1699C9.76558 17.5264 9.57308 16.5586 9.92134 15.7178Z" fill="#161823"/>
<path d="M13.3332 5.41666C13.3332 7.48772 11.8408 9.16666 9.99984 9.16666C8.15889 9.16666 6.6665 7.48772 6.6665 5.41666C6.6665 3.34559 8.15889 1.66666 9.99984 1.66666C11.8408 1.66666 13.3332 3.34559 13.3332 5.41666Z" fill="#161823"/>
<path d="M18.948 14.1089C18.832 14.3894 18.5584 14.5723 18.2549 14.5723H12.0049C11.5906 14.5723 11.2549 14.2365 11.2549 13.8223C11.2549 13.4081 11.5906 13.0723 12.0049 13.0723H16.4409L15.8982 12.531C15.6049 12.2385 15.6043 11.7636 15.8968 11.4704C16.1893 11.1771 16.6642 11.1765 16.9574 11.469L18.7845 13.2913C18.9994 13.5057 19.0639 13.8284 18.948 14.1089Z" fill="#161823"/>
</svg>
