<svg width="24" height="24" viewBox="0 0 24 24" fill="none" xmlns="http://www.w3.org/2000/svg">
<path d="M10.7355 2.80277C11.1728 1.6332 12.8271 1.63321 13.2645 2.80277L15.2442 8.09721L20.8913 8.34397C22.1387 8.39848 22.65 9.97183 21.6728 10.7492L17.2492 14.2681L18.1598 17.5519L21.5303 20.9224C21.8232 21.2153 21.8232 21.6902 21.5303 21.9831C21.2374 22.276 20.7626 22.276 20.4697 21.9831L2.46967 3.98309C2.17678 3.6902 2.17678 3.21532 2.46967 2.92243C2.76256 2.62954 3.23744 2.62954 3.53033 2.92243L8.70724 8.09933L8.75577 8.09721L10.7355 2.80277ZM9.81067 9.20276L16.006 15.3981L15.7772 14.5732C15.6325 14.0512 15.8138 13.4932 16.2377 13.156L20.425 9.82503L15.0795 9.59145C14.5383 9.5678 14.0637 9.22295 13.874 8.71556L12 3.70388L10.126 8.71556C10.056 8.90274 9.94724 9.06779 9.81067 9.20276Z" fill="#161823"/>
<path d="M13.9173 17.552L17.5069 21.1416C17.6176 21.2523 17.5612 21.4359 17.4048 21.4297C17.1737 21.4206 16.9368 21.3492 16.7136 21.2015L12 18.0819L7.28636 21.2015C6.2451 21.8907 4.90673 20.9183 5.24037 19.715L6.75074 14.2681L2.3272 10.7492C1.35001 9.97183 1.86123 8.39848 3.1087 8.34397L4.6422 8.27696L6.08077 9.71553L3.57494 9.82503L7.76224 13.156C8.18618 13.4932 8.36747 14.0512 8.22273 14.5732L6.79302 19.7293L11.2549 16.7762C11.7066 16.4773 12.2933 16.4773 12.7451 16.7762L13.9173 17.552Z" fill="#161823"/>
</svg>
