<svg width="24" height="24" viewBox="0 0 24 24" fill="none" xmlns="http://www.w3.org/2000/svg">
<path d="M11.9 4C13.0045 4 13.9 3.32843 13.9 2.5C13.9 1.67157 13.0045 1 11.9 1C10.7954 1 9.89996 1.67157 9.89996 2.5C9.89996 3.32843 10.7954 4 11.9 4Z" fill="#161823"/>
<path d="M12 10.25C12.5523 10.25 13 10.6977 13 11.25V16.25C13 16.8023 12.5523 17.25 12 17.25C11.4477 17.25 11 16.8023 11 16.25V11.25C11 10.6977 11.4477 10.25 12 10.25Z" fill="#161823"/>
<path d="M16.25 11.75C16.9404 11.75 17.5 12.3096 17.5 13V15C17.5 15.6904 16.9404 16.25 16.25 16.25C15.5596 16.25 15 15.6904 15 15V13C15 12.3096 15.5596 11.75 16.25 11.75Z" fill="#161823"/>
<path d="M9.25 13C9.25 12.3096 8.69036 11.75 8 11.75C7.30964 11.75 6.75 12.3096 6.75 13V15C6.75 15.6904 7.30964 16.25 8 16.25C8.69036 16.25 9.25 15.6904 9.25 15V13Z" fill="#161823"/>
<path fill-rule="evenodd" clip-rule="evenodd" d="M3 13.5C3 8.52944 7.02944 4.5 12 4.5C16.9706 4.5 21 8.52944 21 13.5C21 18.4706 16.9706 22.5 12 22.5C7.02944 22.5 3 18.4706 3 13.5ZM12 6C7.85786 6 4.5 9.35786 4.5 13.5C4.5 17.6421 7.85786 21 12 21C16.1421 21 19.5 17.6421 19.5 13.5C19.5 9.35786 16.1421 6 12 6Z" fill="#161823"/>
</svg>
