<svg width="20" height="20" viewBox="0 0 20 20" fill="none" xmlns="http://www.w3.org/2000/svg">
<path d="M16.3411 5.63876L12.5678 8.65251C12.2442 8.91101 11.7722 8.8582 11.5137 8.53455C11.2552 8.21089 11.3081 7.73897 11.6317 7.48047L16.3419 3.71841C17.016 3.18002 18.0072 3.70869 17.9355 4.56841L17.3472 11.6288C17.3128 12.0416 16.9503 12.3483 16.5375 12.3139C16.1247 12.2795 15.818 11.917 15.8524 11.5042L16.3411 5.63876ZM6.65904 7.81943L9.49563 14.4832H14.9662L6.65904 7.81943ZM4.47343 6.51477C4.07297 5.574 5.19594 4.72281 5.9935 5.36258L17.0513 14.2328C17.7758 14.814 17.3649 15.9832 16.436 15.9832H9.15403C8.75979 15.9832 8.40367 15.7477 8.24926 15.385L4.47343 6.51477ZM4.81379 12.3085C5.1369 12.0493 5.60894 12.1011 5.86812 12.4242C6.1273 12.7473 6.07549 13.2193 5.75238 13.4785L4.5 14.4832H6.19975C6.61397 14.4832 6.94975 14.8189 6.94975 15.2332C6.94975 15.6474 6.61397 15.9832 6.19975 15.9832H3.0302C2.10133 15.9832 1.69034 14.814 2.4149 14.2328L4.81379 12.3085Z" fill="#161823"/>
</svg>
