<svg width="20" height="20" viewBox="0 0 20 20" fill="none" xmlns="http://www.w3.org/2000/svg">
<path fill-rule="evenodd" clip-rule="evenodd" d="M7.64286 8.55024C7.64286 7.6942 8.33682 7.00024 9.19286 7.00024H10.8071C11.6632 7.00024 12.3571 7.6942 12.3571 8.55024V9.1431H12.95C13.806 9.1431 14.5 9.83706 14.5 10.6931V12.3074C14.5 13.1634 13.806 13.8574 12.95 13.8574H12.3571V14.4502C12.3571 15.3063 11.6632 16.0002 10.8071 16.0002H9.19286C8.33681 16.0002 7.64286 15.3063 7.64286 14.4502V13.8574H7.05C6.19396 13.8574 5.5 13.1634 5.5 12.3074V10.6931C5.5 9.83706 6.19396 9.1431 7.05 9.1431H7.64286V8.55024ZM9.19286 8.50024C9.16524 8.50024 9.14286 8.52263 9.14286 8.55024V9.8931C9.14286 10.3073 8.80707 10.6431 8.39286 10.6431H7.05C7.02239 10.6431 7 10.6655 7 10.6931V12.3074C7 12.335 7.02239 12.3574 7.05 12.3574H8.39286C8.80707 12.3574 9.14286 12.6932 9.14286 13.1074V14.4502C9.14286 14.4779 9.16524 14.5002 9.19286 14.5002H10.8071C10.8348 14.5002 10.8571 14.4779 10.8571 14.4502V13.1074C10.8571 12.6932 11.1929 12.3574 11.6071 12.3574H12.95C12.9776 12.3574 13 12.335 13 12.3074V10.6931C13 10.6655 12.9776 10.6431 12.95 10.6431H11.6071C11.1929 10.6431 10.8571 10.3073 10.8571 9.8931V8.55024C10.8571 8.52263 10.8348 8.50024 10.8071 8.50024H9.19286Z" fill="#161823"/>
<path fill-rule="evenodd" clip-rule="evenodd" d="M5.30005 3.92242C5.30005 2.69512 6.29497 1.7002 7.52227 1.7002H12.4778C13.7051 1.7002 14.7 2.69512 14.7 3.92242V4.54269C16.2875 4.79798 17.5 6.17418 17.5 7.83358V15.1669C17.5 17.0079 16.0076 18.5002 14.1667 18.5002H5.83333C3.99238 18.5002 2.5 17.0079 2.5 15.1669V7.83358C2.5 6.17414 3.7126 4.79793 5.30005 4.54267V3.92242ZM7.52227 3.2002H12.4778C12.8767 3.2002 13.2 3.52355 13.2 3.92242V4.5002H6.80005V3.92242C6.80005 3.52355 7.1234 3.2002 7.52227 3.2002ZM14.1667 6.00024H5.83333C4.82081 6.00024 4 6.82106 4 7.83358V15.1669C4 16.1794 4.82081 17.0002 5.83333 17.0002H14.1667C15.1792 17.0002 16 16.1794 16 15.1669V7.83358C16 6.82106 15.1792 6.00024 14.1667 6.00024Z" fill="#161823"/>
</svg>
