<svg width="20" height="20" viewBox="0 0 20 20" fill="none" xmlns="http://www.w3.org/2000/svg">
<path d="M7.2998 10.583C7.7139 10.583 8.04961 10.919 8.0498 11.333V13.4492H10.166C10.58 13.4492 10.9156 13.7854 10.916 14.1992C10.916 14.6134 10.5802 14.9492 10.166 14.9492H7.43359C6.94576 14.9492 6.54984 14.5542 6.5498 14.0664V11.333C6.55 10.919 6.88571 10.583 7.2998 10.583Z" fill="#161823"/>
<path d="M12.583 4.9502C13.0708 4.9502 13.4666 5.3453 13.4668 5.83301V8.56641C13.4668 8.98062 13.131 9.31641 12.7168 9.31641C12.3026 9.31641 11.9668 8.98062 11.9668 8.56641V6.4502H9.85059C9.43652 6.4502 9.10083 6.1142 9.10059 5.7002C9.10072 5.28609 9.43645 4.9502 9.85059 4.9502H12.583Z" fill="#161823"/>
<path fill-rule="evenodd" clip-rule="evenodd" d="M13.8379 1.4375C15.5992 1.52661 16.9998 2.98322 17 4.7666V15.2002C16.9999 16.9836 15.5992 18.4402 13.8379 18.5293L13.667 18.5332H6.33301C4.49229 18.533 3.00013 17.0409 3 15.2002V4.7666C3.00018 2.92591 4.49232 1.43377 6.33301 1.43359H13.667L13.8379 1.4375ZM6.33301 2.93359C5.32075 2.93377 4.50018 3.75434 4.5 4.7666V15.2002C4.50013 16.2125 5.32072 17.033 6.33301 17.0332H13.667C14.6793 17.033 15.4999 16.2125 15.5 15.2002V4.7666C15.4998 3.75434 14.6793 2.93377 13.667 2.93359H6.33301Z" fill="#161823"/>
</svg>
