<svg width="24" height="24" viewBox="0 0 24 24" fill="none" xmlns="http://www.w3.org/2000/svg">
<path d="M13.5 8.49976C13.5 9.32819 12.8284 9.99976 12 9.99976C11.1716 9.99976 10.5 9.32819 10.5 8.49976C10.5 7.67133 11.1716 6.99976 12 6.99976C12.8284 6.99976 13.5 7.67133 13.5 8.49976Z" fill="#161823"/>
<path d="M15.5 13.4998C16.3284 13.4998 17 12.8282 17 11.9998C17 11.1713 16.3284 10.4998 15.5 10.4998C14.6716 10.4998 14 11.1713 14 11.9998C14 12.8282 14.6716 13.4998 15.5 13.4998Z" fill="#161823"/>
<path d="M10 11.9998C10 12.8282 9.32843 13.4998 8.5 13.4998C7.67158 13.4998 7 12.8282 7 11.9998C7 11.1713 7.67158 10.4998 8.5 10.4998C9.32843 10.4998 10 11.1713 10 11.9998Z" fill="#161823"/>
<path d="M12 16.9998C12.8284 16.9998 13.5 16.3282 13.5 15.4998C13.5 14.6713 12.8284 13.9998 12 13.9998C11.1716 13.9998 10.5 14.6713 10.5 15.4998C10.5 16.3282 11.1716 16.9998 12 16.9998Z" fill="#161823"/>
<path fill-rule="evenodd" clip-rule="evenodd" d="M12.5888 21.9827C12.394 21.994 12.1977 21.9998 12 21.9998C6.47715 21.9998 2 17.5226 2 11.9998C2 6.47691 6.47715 1.99976 12 1.99976C17.5228 1.99976 22 6.47691 22 11.9998C22 15.271 20.4293 18.1753 18.001 19.9998H20.9933C21.5456 19.9998 21.9933 20.4475 21.9933 20.9998C21.9933 21.552 21.5456 21.9998 20.9933 21.9998H12.5475L12.5888 21.9827ZM20.5 11.9998C20.5 16.6942 16.6944 20.4998 12 20.4998C7.30558 20.4998 3.5 16.6942 3.5 11.9998C3.5 7.30534 7.30558 3.49976 12 3.49976C16.6944 3.49976 20.5 7.30534 20.5 11.9998Z" fill="#161823"/>
</svg>
