<svg width="24" height="24" viewBox="0 0 24 24" fill="none" xmlns="http://www.w3.org/2000/svg">
<path d="M6.50697 8.64296C8.16422 8.20293 10.062 8 11.9974 8C13.9328 8 15.8181 8.20294 17.4631 8.64336C19.0991 9.08135 20.5547 9.76967 21.5676 10.7826C22.4793 11.6943 23.03 12.8536 22.9987 14.2586L22.9987 14.2604C22.9779 15.103 22.706 15.9301 22.1197 16.5039L22.1185 16.5051C21.6383 16.973 20.9701 17.2685 20.1797 17.1345L16.9954 16.5951L16.9922 16.5946C16.424 16.5029 15.9104 16.3127 15.5293 15.9316C15.0296 15.432 14.9441 14.7483 14.9349 14.1666L14.9348 14.1621L14.9281 13.4726C14.3989 13.343 13.3451 13.2484 11.9974 13.2484C10.6864 13.2484 9.60903 13.3604 9.05124 13.4734V14.1547C9.05124 14.7412 8.96823 15.4283 8.45792 15.9305C8.08127 16.3166 7.56197 16.5043 7.00275 16.5946L3.76318 17.1447C3.00842 17.2638 2.34385 16.9925 1.88306 16.5207C1.30126 15.9365 1.04589 15.1064 1.00546 14.2876L1.00528 14.2842C0.943181 12.8972 1.43015 11.7273 2.3749 10.7826C3.38939 9.76806 4.85989 9.08028 6.50697 8.64296ZM6.8919 10.0927C5.37895 10.4944 4.19068 11.0881 3.43556 11.8432C2.77672 12.5021 2.46167 13.2669 2.50371 14.2153C2.53319 14.8061 2.71258 15.2289 2.94739 15.4638L2.95486 15.4712C3.10338 15.624 3.29035 15.6996 3.52563 15.6635L6.76131 15.1141C7.1726 15.048 7.32804 14.9415 7.38577 14.8815L7.39487 14.872L7.40429 14.8629C7.46092 14.808 7.55124 14.663 7.55124 14.1547V13.2743C7.55124 12.8961 7.72167 12.6185 7.89739 12.4349C8.14148 12.1608 8.45839 12.0744 8.56365 12.0457L8.57864 12.0416L8.59148 12.0386C9.26273 11.8807 10.5296 11.7484 11.9974 11.7484C13.4406 11.7484 14.7281 11.8506 15.4403 12.057L15.447 12.059C15.5955 12.1035 15.8329 12.1988 16.0411 12.3881L16.0689 12.4134L16.0941 12.4413C16.2619 12.6278 16.4033 12.878 16.4246 13.2188L16.4259 13.2385L16.4347 14.1428L16.4347 14.145C16.4432 14.6599 16.5318 14.8128 16.59 14.871C16.6615 14.9425 16.8266 15.0487 17.2334 15.1141L17.2397 15.1151L20.4302 15.6556C20.6682 15.696 20.8717 15.6255 21.0712 15.4312C21.3039 15.2031 21.4849 14.793 21.4991 14.2245C21.52 13.2761 21.1641 12.5004 20.5069 11.8432C19.7502 11.0865 18.5732 10.4934 17.0752 10.0923C15.5863 9.6937 13.8365 9.5 11.9974 9.5C10.1582 9.5 8.39468 9.69371 6.8919 10.0927Z" fill="#161823"/>
</svg>
