<svg width="12" height="12" viewBox="0 0 12 12" fill="none" xmlns="http://www.w3.org/2000/svg">
<path fill-rule="evenodd" clip-rule="evenodd" d="M2 3.2H7C7.44183 3.2 7.8 3.55817 7.8 4V8C7.8 8.44183 7.44183 8.8 7 8.8H2C1.55817 8.8 1.2 8.44183 1.2 8V4C1.2 3.55817 1.55817 3.2 2 3.2ZM0 4C0 2.89543 0.895431 2 2 2H7C8.10457 2 9 2.89543 9 4V4.02938L10.4085 3.32515C11.1398 2.95945 12.0004 3.4913 12.0004 4.30902V7.69098C12.0004 8.5087 11.1398 9.04055 10.4085 8.67485L9 7.97062V8C9 9.10457 8.10457 10 7 10H2C0.89543 10 0 9.10457 0 8V4ZM9.00039 5.37082L10.8004 4.47082V7.52918L9.00039 6.62918V5.37082Z" fill="#161823"/>
</svg>
