<svg width="20" height="20" viewBox="0 0 20 20" fill="none" xmlns="http://www.w3.org/2000/svg">
<path d="M4.17944 3.41961C2.73028 3.65829 1.66699 4.91105 1.66699 6.37973V15.5001C1.66699 16.6047 2.56242 17.5001 3.66699 17.5001H16.3337C17.4382 17.5001 18.3337 16.6047 18.3337 15.5001V7.00009C18.3337 5.89552 17.4382 5.00009 16.3337 5.00009H15.8337V3.85644C15.8337 2.62211 14.7266 1.68243 13.5086 1.88303L4.17944 3.41961ZM13.7524 3.36309C14.0569 3.31294 14.3337 3.54786 14.3337 3.85644V5.00009H4.07776C4.18647 4.9537 4.30215 4.91961 4.42322 4.89967L13.7524 3.36309ZM15.8335 11.2501C15.8335 11.9404 15.2739 12.5001 14.5835 12.5001C13.8931 12.5001 13.3335 11.9404 13.3335 11.2501C13.3335 10.5597 13.8931 10.0001 14.5835 10.0001C15.2739 10.0001 15.8335 10.5597 15.8335 11.2501Z" fill="#161823"/>
</svg>
