<svg width="20" height="20" viewBox="0 0 20 20" fill="none" xmlns="http://www.w3.org/2000/svg">
<path d="M2.25 4.8849C2.25 3.85765 3.08275 3.0249 4.11 3.0249H8.0672C8.56051 3.0249 9.03361 3.22087 9.38242 3.56968L10.2304 4.41762C10.5792 4.76644 11.0523 4.9624 11.5456 4.9624H15.89C16.9172 4.9624 17.75 5.79515 17.75 6.8224V15.1149C17.75 16.1422 16.9172 16.9749 15.89 16.9749H4.11C3.08275 16.9749 2.25 16.1422 2.25 15.1149V4.8849ZM9.58432 7.7354L8.87957 9.62015L6.86929 9.70799C6.45914 9.72591 6.29106 10.2432 6.61234 10.4988L8.18706 11.7515L7.64939 13.6905C7.53969 14.0861 7.97973 14.4058 8.32209 14.1792L10.0001 13.0687L11.678 14.1792C12.0204 14.4058 12.4604 14.0861 12.3507 13.6905L11.8131 11.7515L13.3878 10.4988C13.7091 10.2432 13.541 9.72591 13.1308 9.70799L11.1206 9.62015L10.4158 7.73541C10.272 7.35087 9.72811 7.35086 9.58432 7.7354Z" fill="#161823"/>
</svg>
