<svg width="16" height="16" viewBox="0 0 16 16" fill="none" xmlns="http://www.w3.org/2000/svg">
<path d="M7.99984 1.16667C7.27731 1.16667 6.70461 1.77629 6.74967 2.49741L6.90765 5.02502C6.91245 5.10178 6.85149 5.16667 6.77458 5.16667H3.16341C2.42703 5.16667 1.83008 5.76363 1.83008 6.50001C1.83008 7.19637 2.36392 7.76806 3.04468 7.82812H12.9523C13.6331 7.76806 14.1669 7.19637 14.1669 6.50001C14.1669 5.76363 13.57 5.16667 12.8336 5.16667H9.2251C9.14819 5.16667 9.08723 5.10178 9.09202 5.02502L9.25 2.49741C9.29507 1.77629 8.72236 1.16667 7.99984 1.16667Z" fill="#161823"/>
<path d="M2.56434 13.766L2.87933 9.02812H13.1202L13.4352 13.766C13.4736 14.3432 13.0158 14.8324 12.4374 14.8324H11.4363V11.8404C11.4363 11.509 11.1676 11.2404 10.8363 11.2404C10.5049 11.2404 10.2363 11.509 10.2363 11.8404V14.8324H8.59992V11.8404C8.59992 11.509 8.33129 11.2404 7.99992 11.2404C7.66855 11.2404 7.39992 11.509 7.39992 11.8404V14.8324H5.73817V11.8309C5.73817 11.4995 5.46954 11.2309 5.13817 11.2309C4.8068 11.2309 4.53817 11.4995 4.53817 11.8309V14.8324H3.56213C2.98374 14.8324 2.52597 14.3431 2.56434 13.766Z" fill="#161823"/>
</svg>
