<svg width="16" height="16" viewBox="0 0 16 16" fill="none" xmlns="http://www.w3.org/2000/svg">
<path d="M4.03529 5.2497C3.54689 6.13031 3.30829 7.20397 3.25999 8.28868C3.30701 8.26649 3.35554 8.24637 3.40551 8.22849L3.66173 8.13681C4.49372 7.83909 5.40953 8.27221 5.70725 9.1042L6.81961 12.2128C7.11733 13.0448 6.68421 13.9606 5.85222 14.2583L5.596 14.35C4.77188 14.6449 3.9707 14.2616 3.46974 13.57C3.45204 13.5504 3.43542 13.5295 3.42005 13.5072C2.70722 12.473 2.25828 11.2234 2.11562 9.90697C1.93245 8.21671 2.11162 6.24403 2.98589 4.66768C3.88459 3.04728 5.49249 1.90002 7.99379 1.90002C10.494 1.90003 12.1036 3.04275 13.0054 4.65939C13.8827 6.2322 14.0654 8.20151 13.8853 9.89176C13.745 11.2086 13.2983 12.4592 12.5875 13.4952C12.5735 13.5155 12.5586 13.5347 12.5427 13.5527C12.0426 14.2552 11.235 14.6473 10.404 14.35L10.1478 14.2583C9.31584 13.9606 8.88272 13.0448 9.18044 12.2128L10.2928 9.1042C10.5905 8.27221 11.5063 7.83909 12.3383 8.13681L12.5945 8.22849C12.644 8.24618 12.692 8.26604 12.7385 8.28793C12.6894 7.20075 12.4489 6.1252 11.9574 5.24394C11.2662 4.00479 10.0561 3.10003 7.99379 3.10002C5.93249 3.10002 4.72437 4.00727 4.03529 5.2497Z" fill="#161823"/>
</svg>
