<svg width="24" height="24" viewBox="0 0 24 24" fill="none" xmlns="http://www.w3.org/2000/svg">
<path d="M3.75977 9.07029C3.75977 4.72453 7.47544 1.24829 11.9997 1.24829C16.524 1.24829 20.2397 4.72453 20.2397 9.07029C20.2397 11.7913 18.8734 14.6402 17.3248 17.0096C15.7666 19.3937 13.9743 21.3663 13.025 22.3491C12.4597 22.9343 11.5398 22.9343 10.9745 22.3491C10.0252 21.3663 8.23283 19.3937 6.67467 17.0096C5.12609 14.6402 3.75977 11.7913 3.75977 9.07029ZM11.9998 12.49C13.6566 12.49 14.9998 11.1469 14.9998 9.49001C14.9998 7.83315 13.6566 6.49001 11.9998 6.49001C10.3429 6.49001 8.99976 7.83315 8.99976 9.49001C8.99976 11.1469 10.3429 12.49 11.9998 12.49Z" fill="#161823"/>
</svg>
