<svg width="24" height="24" viewBox="0 0 24 24" fill="none" xmlns="http://www.w3.org/2000/svg">
<path d="M12.1401 7C12.1401 9.20914 10.5283 11 8.54006 11C6.55184 11 4.94006 9.20914 4.94006 7C4.94006 4.79086 6.55184 3 8.54006 3C10.5283 3 12.1401 4.79086 12.1401 7Z" fill="#161823"/>
<path d="M16.54 10.992C18.1979 10.992 19.542 9.49865 19.542 7.65648C19.542 5.8143 18.1979 4.32092 16.54 4.32092C14.882 4.32092 13.538 5.8143 13.538 7.65648C13.538 9.49865 14.882 10.992 16.54 10.992Z" fill="#161823"/>
<path d="M21.1264 20.2357H17.7492C17.9367 19.7725 18.04 19.2661 18.04 18.7357V18.2357C18.04 15.9296 16.587 13.979 14.6754 12.8167C15.2729 12.7064 15.8989 12.6493 16.54 12.6493C18.2922 12.6493 19.9321 13.0757 21.1836 13.8513C22.4171 14.6158 23.4602 15.8617 23.4602 17.4849V17.9018C23.4602 19.1908 22.4153 20.2357 21.1264 20.2357Z" fill="#161823"/>
<path d="M8.54004 12.5C6.48415 12.5 4.57427 13.0007 3.12876 13.8966C1.70125 14.7813 0.540039 16.1933 0.540039 18V18.7C0.540039 19.9703 1.56978 21 2.84004 21H14.24C15.5103 21 16.54 19.9703 16.54 18.7V18C16.54 16.1933 15.3788 14.7813 13.9513 13.8966C12.5058 13.0007 10.5959 12.5 8.54004 12.5Z" fill="#161823"/>
</svg>
