<svg width="20" height="20" viewBox="0 0 20 20" fill="none" xmlns="http://www.w3.org/2000/svg">
<path d="M19.1972 13.2032L16.9472 15.4532L19.1972 17.7032C19.4733 17.9794 19.4733 18.4271 19.1972 18.7033C18.921 18.9794 18.4733 18.9794 18.1971 18.7033L15.9471 16.4533L13.6972 18.7032C13.421 18.9794 12.9733 18.9794 12.6971 18.7032C12.421 18.4271 12.421 17.9794 12.6971 17.7032L14.9471 15.4532L12.6971 13.2032C12.421 12.9271 12.421 12.4794 12.6971 12.2032C12.9733 11.927 13.421 11.927 13.6972 12.2032L15.9471 14.4532L18.1971 12.2032C18.4733 11.927 18.921 11.927 19.1972 12.2032C19.4733 12.4794 19.4733 12.9271 19.1972 13.2032Z" fill="#161823"/>
<path d="M13.3333 5.41666C13.3333 7.48772 11.8409 9.16666 9.99996 9.16666C8.15901 9.16666 6.66663 7.48772 6.66663 5.41666C6.66663 3.34559 8.15901 1.66666 9.99996 1.66666C11.8409 1.66666 13.3333 3.34559 13.3333 5.41666Z" fill="#161823"/>
<path d="M4.75275 11.5541C6.15542 10.6637 8.00786 10.1667 10 10.1667C10.8262 10.1667 11.6283 10.2521 12.3843 10.4157C12.4897 10.4385 12.4892 10.6094 12.3888 10.6488C12.1148 10.7565 11.8579 10.9211 11.6364 11.1425C10.7745 12.0045 10.7745 13.402 11.6364 14.2639L12.8258 15.4532L11.6364 16.6425C11.1688 17.1102 10.9549 17.7354 10.9947 18.3473C11.0027 18.4712 10.9092 18.5833 10.785 18.5833H4.58333C3.29467 18.5833 2.25 17.5387 2.25 16.25V15.6061C2.25 13.8335 3.36383 12.4357 4.75275 11.5541Z" fill="#161823"/>
</svg>
