<svg width="20" height="20" viewBox="0 0 20 20" fill="none" xmlns="http://www.w3.org/2000/svg">
<path d="M7.76056 10.4197H8.95126L8.75187 12.4473C8.67519 13.1707 9.58857 13.5407 10.0059 12.9364L12.7752 8.66955C13.0937 8.20867 12.7727 7.54941 12.2049 7.54941H11.3033L11.9998 5.90639C12.1982 5.43825 11.8684 4.90617 11.3646 4.90617H8.88099C8.5662 4.90617 8.29342 5.12397 8.21198 5.43349L7.0925 9.51494C6.97299 9.9691 7.30022 10.4197 7.76056 10.4197Z" fill="#161823"/>
<path d="M9.9999 1.66992C14.5123 1.66992 18.3299 4.92729 18.3299 9.13132C18.3299 11.23 17.3101 12.9781 15.7284 14.5625C14.2077 16.0859 11.8273 17.4067 10.8849 17.9013C10.1747 18.2739 9.35978 17.7444 9.35978 16.9754V16.1066C5.2434 15.8181 1.66992 13.1673 1.66992 9.13143C1.66992 4.92729 5.48755 1.66992 9.9999 1.66992ZM16.8299 9.13132C16.8299 5.92207 13.8607 3.16992 9.9999 3.16992C6.13922 3.16992 3.16992 5.92206 3.16992 9.13143C3.16992 12.2657 6.15894 14.6328 10.1098 14.6328C10.524 14.6328 10.8598 14.9686 10.8598 15.3828V16.2081C11.9467 15.5984 13.5838 14.5877 14.6668 13.5028C16.0921 12.0751 16.8299 10.6858 16.8299 9.13132Z" fill="#161823"/>
</svg>
