<svg width="20" height="20" viewBox="0 0 20 20" fill="none" xmlns="http://www.w3.org/2000/svg">
<path d="M10.1665 18C14.6767 18 18.333 14.3437 18.333 9.8335C18.333 5.32326 14.6767 1.66699 10.1665 1.66699C5.65627 1.66699 2 5.32326 2 9.8335C2 14.3437 5.65627 18 10.1665 18ZM14.625 10C14.625 10.6074 14.5054 11.2088 14.2729 11.7699C14.0405 12.331 13.6998 12.8409 13.2704 13.2704C12.8409 13.6998 12.331 14.0405 11.7699 14.2729C11.2088 14.5054 10.6074 14.625 10 14.625C9.58579 14.625 9.25 14.2892 9.25 13.875C9.25 13.4608 9.58579 13.125 10 13.125C10.4104 13.125 10.8167 13.0442 11.1959 12.8871C11.575 12.7301 11.9195 12.4999 12.2097 12.2097C12.4999 11.9195 12.7301 11.575 12.8871 11.1959C13.0442 10.8167 13.125 10.4104 13.125 10C13.125 9.58579 13.4608 9.25 13.875 9.25C14.2892 9.25 14.625 9.58579 14.625 10Z" fill="#161823"/>
</svg>
