<svg width="20" height="20" viewBox="0 0 20 20" fill="none" xmlns="http://www.w3.org/2000/svg">
<path d="M8.193 16.8334C7.299 16.8334 6.72173 16.8322 6.28291 16.7951C5.8625 16.7597 5.70757 16.6995 5.63111 16.6591C5.36538 16.5184 5.14806 16.301 5.00736 16.0353C4.96688 15.9588 4.90676 15.8039 4.87128 15.3835C4.83425 14.9447 4.83301 14.3674 4.83301 13.4734V6.52675C4.83301 5.63274 4.83425 5.05547 4.87128 4.61665C4.90676 4.19624 4.96688 4.04131 5.00736 3.96485C5.14806 3.69912 5.36538 3.4818 5.63111 3.3411C5.70757 3.30062 5.8625 3.2405 6.28291 3.20502C6.72173 3.16799 7.299 3.16675 8.19301 3.16675H12.3021C12.5687 3.16675 12.7176 3.16713 12.8303 3.17246C12.9287 3.17711 12.946 3.18379 12.9369 3.18152C12.9853 3.19356 13.0317 3.21277 13.0744 3.23851C13.0807 3.24287 13.1042 3.26029 13.1561 3.30756C13.2396 3.38356 13.345 3.48864 13.5334 3.67723L14.6576 4.80297C14.8455 4.99121 14.9503 5.09663 15.026 5.17998C15.0731 5.23185 15.0905 5.25535 15.0948 5.26168C15.1205 5.30435 15.1396 5.35061 15.1516 5.39893C15.1494 5.38985 15.156 5.40713 15.1606 5.50537C15.166 5.61787 15.1663 5.76648 15.1663 6.03249V13.4734C15.1663 14.3674 15.1651 14.9447 15.1281 15.3835C15.0926 15.8039 15.0325 15.9588 14.992 16.0353C14.8513 16.301 14.634 16.5184 14.3682 16.6591C14.2918 16.6995 14.1368 16.7597 13.7164 16.7951C13.2776 16.8322 12.7003 16.8334 11.8063 16.8334H8.193ZM3.68171 3.26296C3.33301 3.92154 3.33301 4.78995 3.33301 6.52675V13.4734C3.33301 15.2102 3.33301 16.0786 3.68171 16.7372C3.96311 17.2687 4.39775 17.7033 4.92922 17.9847C5.5878 18.3334 6.4562 18.3334 8.193 18.3334H11.8063C13.5431 18.3334 14.4115 18.3334 15.0701 17.9847C15.6016 17.7033 16.0362 17.2687 16.3176 16.7372C16.6663 16.0786 16.6663 15.2102 16.6663 13.4734V6.03249C16.6663 5.52743 16.6663 5.2749 16.6075 5.03763C16.5595 4.84433 16.4829 4.65929 16.3803 4.48861C16.2543 4.27911 16.0758 4.10042 15.7189 3.74305L14.5948 2.6173C14.2372 2.25925 14.0584 2.08022 13.8487 1.9538C13.6778 1.85082 13.4925 1.77398 13.2988 1.72584C13.0612 1.66675 12.8082 1.66675 12.3021 1.66675H8.19301C6.45621 1.66675 5.5878 1.66675 4.92922 2.01545C4.39775 2.29685 3.96311 2.73149 3.68171 3.26296Z" fill="#161823"/>
<path d="M12.7494 5.00047C13.1636 5.00047 13.4994 5.33626 13.4994 5.75047V8.25047C13.4994 8.66469 13.1636 9.00047 12.7494 9.00047C12.3352 9.00047 11.9994 8.66469 11.9994 8.25047V5.75047C11.9994 5.33626 12.3352 5.00047 12.7494 5.00047Z" fill="#161823"/>
<path d="M9.99968 5.00046C10.4139 5.00046 10.7497 5.33624 10.7497 5.75046V8.25046C10.7497 8.66467 10.4139 9.00046 9.99968 9.00046C9.58547 9.00046 9.24968 8.66467 9.24968 8.25046V5.75046C9.24968 5.33624 9.58547 5.00046 9.99968 5.00046Z" fill="#161823"/>
<path d="M7.24998 5.00047C7.6642 5.00047 7.99998 5.33626 7.99998 5.75047V8.25047C7.99998 8.66469 7.6642 9.00047 7.24998 9.00047C6.83577 9.00047 6.49998 8.66469 6.49998 8.25047V5.75047C6.49998 5.33626 6.83577 5.00047 7.24998 5.00047Z" fill="#161823"/>
</svg>
