<svg width="20" height="20" viewBox="0 0 20 20" fill="none" xmlns="http://www.w3.org/2000/svg">
<path d="M8.4424 5.74994C6.83517 5.74994 5.58528 7.05485 5.58528 8.80203C5.58528 9.77951 5.9958 10.6954 6.62659 11.5085C7.25642 12.3204 8.13471 13.069 9.15671 13.7353C9.24739 13.7962 9.35854 13.8648 9.47711 13.9211C9.57931 13.9696 9.77179 14.0512 9.99838 14.0512C10.2233 14.0512 10.4157 13.9707 10.5182 13.9227C10.6379 13.8666 10.7506 13.7979 10.8438 13.7353C11.8658 13.0691 12.7441 12.3204 13.3739 11.5085C14.0047 10.6954 14.4152 9.77951 14.4152 8.80203C14.4152 7.05485 13.1653 5.74994 11.5581 5.74994C10.9304 5.74994 10.4085 5.96468 10.0007 6.30344C9.59217 5.96369 9.06825 5.74994 8.4424 5.74994ZM7.08528 8.80203C7.08528 7.8047 7.74005 7.24994 8.4424 7.24994C8.83782 7.24994 9.13461 7.44963 9.33543 7.82924L9.64109 8.407C9.79045 8.68933 10.1942 8.69135 10.3463 8.41054L10.6578 7.83587C10.8683 7.44742 11.1652 7.24994 11.5581 7.24994C12.2605 7.24994 12.9152 7.8047 12.9152 8.80203C12.9152 9.34678 12.6865 9.94748 12.1887 10.5891C11.691 11.2307 10.9533 11.8738 10.0202 12.4816L10.0099 12.4884L10.0002 12.4949L9.99056 12.4884L9.98029 12.4816C9.04723 11.8738 8.30949 11.2307 7.81177 10.5891C7.31401 9.94748 7.08528 9.34678 7.08528 8.80203Z" fill="#161823"/>
<path d="M11.579 1.66745C10.5494 1.37401 9.45823 1.37387 8.4285 1.66705L4.04578 2.91489C2.86399 3.25137 2.04883 4.33102 2.04883 5.55978V8.25463C2.04883 12.5509 4.59387 16.3997 8.47558 18.2059C9.4423 18.6558 10.5604 18.6557 11.5271 18.2058C15.4076 16.3996 17.9517 12.5517 17.9517 8.25657V5.55938C17.9517 4.33088 17.1369 3.25139 15.9554 2.91469L11.579 1.66745ZM8.83925 3.10972C9.60036 2.89302 10.4068 2.89312 11.1679 3.11001L15.5443 4.35725C16.0813 4.51029 16.4517 5.00097 16.4517 5.55938V8.25657C16.4517 11.9478 14.2647 15.277 10.8941 16.8459C10.3287 17.109 9.67386 17.1091 9.1084 16.8459C5.73669 15.277 3.54883 11.9469 3.54883 8.25463V5.55978C3.54883 5.00125 3.91935 4.5105 4.45653 4.35756L8.83925 3.10972Z" fill="#161823"/>
</svg>
