<svg width="24" height="24" viewBox="0 0 24 24" fill="none" xmlns="http://www.w3.org/2000/svg">
<path d="M2.7998 6.0001C2.7998 5.50304 3.20275 5.1001 3.6998 5.1001H20.2331C20.7302 5.1001 21.1331 5.50304 21.1331 6.0001C21.1331 6.49715 20.7302 6.9001 20.2331 6.9001H3.6998C3.20275 6.9001 2.7998 6.49715 2.7998 6.0001Z" fill="#161823"/>
<path d="M2.7998 12.0001C2.7998 11.503 3.20275 11.1001 3.6998 11.1001H17.7991C18.0021 11.1001 18.072 11.3599 17.8958 11.4607C17.8601 11.4811 17.8194 11.5045 17.7726 11.5315L15.4486 12.8733C15.4182 12.8909 15.3837 12.9001 15.3486 12.9001H3.6998C3.20275 12.9001 2.7998 12.4972 2.7998 12.0001Z" fill="#161823"/>
<path d="M3.6998 18.9001H13.0972C13.2077 18.9001 13.2972 18.8106 13.2972 18.7001V17.3001C13.2972 17.1896 13.2077 17.1001 13.0972 17.1001H3.6998C3.20275 17.1001 2.7998 17.503 2.7998 18.0001C2.7998 18.4972 3.20275 18.9001 3.6998 18.9001Z" fill="#161823"/>
<path d="M20.8376 17.6328C20.8376 18.4281 20.1929 19.0728 19.3976 19.0728C18.6023 19.0728 17.9576 18.4281 17.9576 17.6328C17.9576 16.8375 18.6023 16.1928 19.3976 16.1928C20.1929 16.1928 20.8376 16.8375 20.8376 17.6328Z" fill="#161823"/>
<path fill-rule="evenodd" clip-rule="evenodd" d="M18.5226 12.8306C19.064 12.518 19.7311 12.518 20.2726 12.8306L23.123 14.4762C23.6644 14.7888 23.998 15.3666 23.998 15.9918V19.2831C23.998 19.9083 23.6644 20.4861 23.123 20.7987L20.2726 22.4443C19.7311 22.757 19.064 22.757 18.5226 22.4443L15.6722 20.7987C15.1307 20.4861 14.7972 19.9083 14.7972 19.2831V15.9918C14.7972 15.3666 15.1307 14.7888 15.6722 14.4762L18.5226 12.8306ZM19.5226 14.1296C19.4452 14.0849 19.3499 14.0849 19.2726 14.1296L16.4222 15.7753C16.3448 15.8199 16.2972 15.9025 16.2972 15.9918V19.2831C16.2972 19.3724 16.3448 19.455 16.4222 19.4996L19.2726 21.1453C19.3499 21.19 19.4452 21.19 19.5226 21.1453L22.373 19.4996C22.4503 19.455 22.498 19.3724 22.498 19.2831V15.9918C22.498 15.9025 22.4503 15.8199 22.373 15.7753L19.5226 14.1296Z" fill="#161823"/>
</svg>
