<svg width="24" height="24" viewBox="0 0 24 24" fill="none" xmlns="http://www.w3.org/2000/svg">
<path d="M11.9998 5.74001C9.92869 5.74001 8.24976 7.41894 8.24976 9.49001C8.24976 11.5611 9.92869 13.24 11.9998 13.24C14.0708 13.24 15.7498 11.5611 15.7498 9.49001C15.7498 7.41894 14.0708 5.74001 11.9998 5.74001ZM9.74976 9.49001C9.74976 8.24736 10.7571 7.24001 11.9998 7.24001C13.2424 7.24001 14.2498 8.24736 14.2498 9.49001C14.2498 10.7326 13.2424 11.74 11.9998 11.74C10.7571 11.74 9.74976 10.7326 9.74976 9.49001Z" fill="#161823"/>
<path d="M11.9997 0.998291C7.35062 0.998291 3.50977 4.57356 3.50977 9.07029C3.50977 11.866 4.90953 14.7658 6.4654 17.1464C8.03564 19.5489 9.8399 21.5343 10.7946 22.5227C11.4582 23.2097 12.5412 23.2097 13.2048 22.5227C14.1596 21.5343 15.9638 19.5489 17.534 17.1464C19.0899 14.7658 20.4897 11.866 20.4897 9.07029C20.4897 4.57356 16.6488 0.998291 11.9997 0.998291ZM5.00977 9.07029C5.00977 5.47936 8.0995 2.49829 11.9997 2.49829C15.8999 2.49829 18.9897 5.47936 18.9897 9.07029C18.9897 11.4176 17.7906 14.0121 16.2784 16.3257C14.7807 18.6174 13.0478 20.5262 12.1259 21.4806C12.0849 21.5231 12.0399 21.538 11.9997 21.538C11.9596 21.538 11.9146 21.5231 11.8735 21.4806C10.9517 20.5262 9.21879 18.6174 7.72101 16.3257C6.20886 14.0121 5.00977 11.4176 5.00977 9.07029Z" fill="#161823"/>
</svg>
