<svg width="20" height="20" viewBox="0 0 20 20" fill="none" xmlns="http://www.w3.org/2000/svg">
<path d="M1.66699 5.25C1.66699 3.73122 2.89821 2.5 4.41699 2.5H6.7779C7.50725 2.5 8.20672 2.78973 8.72245 3.30546L9.19487 3.77788C9.71059 4.2936 10.4101 4.58333 11.1394 4.58333H15.5837C17.1024 4.58333 18.3337 5.81455 18.3337 7.33333V7.5H1.66699V5.25Z" fill="#161823"/>
<path d="M1.66699 9V14.75C1.66699 16.2688 2.89821 17.5 4.41699 17.5H10.4158C10.2539 16.973 10.1667 16.4134 10.1667 15.8333C10.1667 12.7037 12.7038 10.1667 15.8334 10.1667C16.7308 10.1667 17.5795 10.3753 18.3337 10.7466V9H1.66699Z" fill="#161823"/>
<path d="M20.0001 15.8333C20.0001 18.1345 18.1346 20 15.8334 20C13.5322 20 11.6667 18.1345 11.6667 15.8333C11.6667 13.5321 13.5322 11.6667 15.8334 11.6667C18.1346 11.6667 20.0001 13.5321 20.0001 15.8333ZM16.3337 13.9583C16.3337 13.6822 16.1099 13.4583 15.8337 13.4583C15.5576 13.4583 15.3337 13.6822 15.3337 13.9583V15.3333H13.9587C13.6826 15.3333 13.4587 15.5572 13.4587 15.8333C13.4587 16.1095 13.6826 16.3333 13.9587 16.3333H15.3337V17.7083C15.3337 17.9845 15.5576 18.2083 15.8337 18.2083C16.1099 18.2083 16.3337 17.9845 16.3337 17.7083V16.3333H17.7087C17.9849 16.3333 18.2087 16.1095 18.2087 15.8333C18.2087 15.5572 17.9849 15.3333 17.7087 15.3333H16.3337V13.9583Z" fill="#161823"/>
</svg>
