<svg width="20" height="20" viewBox="0 0 20 20" fill="none" xmlns="http://www.w3.org/2000/svg">
<path d="M10.017 11.0167C8.35293 11.0167 7.01697 9.64969 7.01697 8.00006C7.01697 7.58584 7.35275 7.25006 7.76697 7.25006C8.18118 7.25006 8.51697 7.58584 8.51697 8.00006C8.51697 8.8357 9.19572 9.51672 10.017 9.51672C10.8382 9.51672 11.517 8.8357 11.517 8.00006C11.517 7.58584 11.8528 7.25006 12.267 7.25006C12.6812 7.25006 13.017 7.58584 13.017 8.00006C13.017 9.64969 11.681 11.0167 10.017 11.0167Z" fill="#161823"/>
<path d="M16.3668 6.59746C16.2907 5.22642 15.2193 4.13605 13.8773 4.01181C13.4374 2.28059 11.8684 1 10.0003 1C8.13221 1 6.56322 2.28059 6.1233 4.01181C4.78132 4.13605 3.70994 5.22642 3.63377 6.59746L3.16155 15.0975C3.07398 16.6738 4.32858 18 5.90731 18H14.0933C15.672 18 16.9266 16.6738 16.839 15.0975L16.3668 6.59746ZM12.2923 4H7.70832C8.0941 3.11705 8.97514 2.5 10.0003 2.5C11.0255 2.5 11.9065 3.11705 12.2923 4ZM13.6211 5.5C14.2845 5.5 14.8323 6.01827 14.8691 6.68066L15.3414 15.1807C15.3812 15.8972 14.8109 16.5 14.0933 16.5H5.90731C5.18971 16.5 4.61943 15.8972 4.65924 15.1807L5.13146 6.68067C5.16826 6.01827 5.71612 5.5 6.37954 5.5H13.6211Z" fill="#161823"/>
</svg>
