<svg width="20" height="20" viewBox="0 0 20 20" fill="none" xmlns="http://www.w3.org/2000/svg">
<path fill-rule="evenodd" clip-rule="evenodd" d="M2.52108 10.2991C2.52165 10.3108 2.52224 10.3225 2.52287 10.3342L2.58177 10.3776C3.05681 10.7255 3.59548 11.0634 4.18741 11.3846C4.18578 11.3779 4.18416 11.3712 4.18255 11.3646C5.54717 12.1148 7.20228 12.7752 9.01669 13.2614C11.5799 13.9482 14.0416 14.1749 15.9627 13.9627C16.9207 13.8568 17.7847 13.6374 18.4665 13.2798C19.1492 12.9217 19.7179 12.3849 19.9208 11.6277C20.1237 10.8705 19.8996 10.1213 19.4874 9.4698C19.0757 8.81919 18.4372 8.19721 17.6604 7.62653C17.5373 7.53607 17.4099 7.4463 17.2783 7.35732C16.2263 4.41651 13.4174 2.31201 10.1167 2.31201C8.31308 2.31201 6.65635 2.94034 5.35286 3.99011C5.00436 4.00099 4.66887 4.02418 4.34842 4.05959C3.39042 4.16545 2.52643 4.38482 1.84462 4.74244C1.16191 5.10053 0.593238 5.63732 0.390339 6.39455C0.187439 7.15178 0.411525 7.90099 0.823727 8.55246C1.21226 9.16652 1.8029 9.75508 2.52108 10.2991ZM3.81949 5.65485C3.29522 5.75705 2.86693 5.90004 2.54136 6.07081C2.08304 6.3112 1.89721 6.56638 1.83923 6.78278C1.78124 6.99918 1.81458 7.31309 2.0913 7.75043C2.22909 7.9682 2.41742 8.1994 2.65651 8.43896C2.85701 7.4239 3.25916 6.48133 3.81949 5.65485ZM4.02483 9.52332C5.37763 10.4076 7.24682 11.2342 9.40492 11.8125C11.7696 12.4461 13.9829 12.648 15.6604 12.486C16.0204 11.7067 16.2214 10.8385 16.2214 9.92333C16.2214 6.54746 13.4875 3.81201 10.1167 3.81201C6.88001 3.81201 4.23065 6.33399 4.02483 9.52332ZM17.401 12.116C17.5357 12.0647 17.6587 12.0097 17.7697 11.9515C18.2281 11.7111 18.4139 11.4559 18.4719 11.2395C18.5299 11.0231 18.4965 10.7092 18.2198 10.2718C18.0941 10.0732 17.9264 9.86338 17.7164 9.64623C17.7197 9.73819 17.7214 9.83057 17.7214 9.92333C17.7214 10.6855 17.6094 11.4216 17.401 12.116Z" fill="#161823"/>
<path d="M2.94023 12.4472C2.87996 12.2755 3.06817 12.1309 3.22581 12.2217C3.7412 12.5185 4.29495 12.8014 4.8803 13.0669C5.06653 13.377 5.2795 13.6693 5.51607 13.9405C5.67725 14.1254 5.7379 14.3773 5.67848 14.6152L5.33069 16.0077L6.80714 15.392C7.00689 15.3087 7.23288 15.3157 7.42705 15.4113C8.23763 15.8102 9.14991 16.0347 10.1167 16.0347C11.2479 16.0347 12.3075 15.7266 13.216 15.1895C13.8631 15.2341 14.4878 15.2456 15.0817 15.2238C15.2648 15.2171 15.364 15.4354 15.2285 15.5587C13.8782 16.7864 12.0849 17.5347 10.1167 17.5347C9.03838 17.5347 8.01092 17.3096 7.07999 16.9034L5.42962 17.5917C4.48714 17.9848 3.50326 17.1342 3.74995 16.1465L4.13142 14.6192C3.62364 13.9716 3.21835 13.2393 2.94023 12.4472Z" fill="#161823"/>
</svg>
