<svg width="16" height="16" viewBox="0 0 16 16" fill="none" xmlns="http://www.w3.org/2000/svg">
<path fill-rule="evenodd" clip-rule="evenodd" d="M3.15918 2.41658C2.96027 2.41658 2.7695 2.4956 2.62885 2.63625C2.4882 2.7769 2.40918 2.96767 2.40918 3.16658V10.8333C2.40918 11.2476 2.74497 11.5833 3.15918 11.5833C3.57339 11.5833 3.90918 11.2476 3.90918 10.8333V4.96908L12.9732 14.0331C13.2661 14.326 13.741 14.326 14.0339 14.0331C14.3268 13.7403 14.3268 13.2654 14.0339 12.9725L4.978 3.91658H10.8323C11.2465 3.91658 11.5823 3.58079 11.5823 3.16658C11.5823 2.75237 11.2465 2.41658 10.8323 2.41658H3.15918Z" fill="#161823"/>
</svg>
