<svg width="20" height="20" viewBox="0 0 20 20" fill="none" xmlns="http://www.w3.org/2000/svg">
<path d="M7.47461 2.41504C7.47461 2.00083 7.13882 1.66504 6.72461 1.66504H4.38867C2.86989 1.66504 1.63867 2.89626 1.63867 4.41504V6.75098C1.63867 7.16519 1.97446 7.50098 2.38867 7.50098C2.80289 7.50098 3.13867 7.16519 3.13867 6.75098V4.41504C3.13867 3.72468 3.69832 3.16504 4.38867 3.16504H6.72461C7.13882 3.16504 7.47461 2.82925 7.47461 2.41504Z" fill="#161823"/>
<path d="M12.4946 2.41504C12.4946 2.00083 12.8304 1.66504 13.2446 1.66504H15.5806C17.0993 1.66504 18.3306 2.89626 18.3306 4.41504V6.75098C18.3306 7.16519 17.9948 7.50098 17.5806 7.50098C17.1664 7.50098 16.8306 7.16519 16.8306 6.75098V4.41504C16.8306 3.72468 16.2709 3.16504 15.5806 3.16504H13.2446C12.8304 3.16504 12.4946 2.82925 12.4946 2.41504Z" fill="#161823"/>
<path d="M7.08301 9.99996C7.77336 9.99996 8.33301 9.25377 8.33301 8.33329C8.33301 7.41282 7.77336 6.66663 7.08301 6.66663C6.39265 6.66663 5.83301 7.41282 5.83301 8.33329C5.83301 9.25377 6.39265 9.99996 7.08301 9.99996Z" fill="#161823"/>
<path d="M12.9163 9.99996C13.6066 9.99996 14.1663 9.25377 14.1663 8.33329C14.1663 7.41282 13.6066 6.66663 12.9163 6.66663C12.2259 6.66663 11.6663 7.41282 11.6663 8.33329C11.6663 9.25377 12.2259 9.99996 12.9163 9.99996Z" fill="#161823"/>
<path d="M9.99963 13.7754C8.61892 13.7754 7.49963 12.9759 7.49963 11.9897C7.49963 11.0035 12.4996 11.0035 12.4996 11.9897C12.4996 12.9759 11.3803 13.7754 9.99963 13.7754Z" fill="#161823"/>
<path d="M13.2446 18.335C12.8304 18.335 12.4946 17.9992 12.4946 17.585C12.4946 17.1707 12.8304 16.835 13.2446 16.835H15.5806C16.2709 16.835 16.8306 16.2753 16.8306 15.585V13.249C16.8306 12.8348 17.1664 12.499 17.5806 12.499C17.9948 12.499 18.3306 12.8348 18.3306 13.249V15.585C18.3306 17.1037 17.0993 18.335 15.5806 18.335H13.2446Z" fill="#161823"/>
<path d="M6.72461 18.335C7.13882 18.335 7.47461 17.9992 7.47461 17.585C7.47461 17.1707 7.13882 16.835 6.72461 16.835H4.38867C3.69832 16.835 3.13867 16.2753 3.13867 15.585V13.249C3.13867 12.8348 2.80289 12.499 2.38867 12.499C1.97446 12.499 1.63867 12.8348 1.63867 13.249V15.585C1.63867 17.1037 2.86989 18.335 4.38867 18.335H6.72461Z" fill="#161823"/>
</svg>
