<svg width="24" height="24" viewBox="0 0 24 24" fill="none" xmlns="http://www.w3.org/2000/svg">
<path d="M10.1998 9.5C10.1998 10.6046 9.52826 11.5 8.69983 11.5C7.8714 11.5 7.19983 10.6046 7.19983 9.5C7.19983 8.39543 7.8714 7.5 8.69983 7.5C9.52826 7.5 10.1998 8.39543 10.1998 9.5Z" fill="#161823"/>
<path d="M15.2999 11.5C16.1284 11.5 16.7999 10.6046 16.7999 9.5C16.7999 8.39543 16.1284 7.5 15.2999 7.5C14.4715 7.5 13.7999 8.39543 13.7999 9.5C13.7999 10.6046 14.4715 11.5 15.2999 11.5Z" fill="#161823"/>
<path d="M11.9997 17.03C13.4199 17.03 14.9919 16.3389 15.8356 15.1552C16.076 14.8179 15.9975 14.3496 15.6602 14.1091C15.3229 13.8687 14.8545 13.9473 14.6141 14.2846C14.0927 15.016 13.0099 15.53 11.9997 15.53C10.9899 15.53 9.90739 15.0164 9.38579 14.2852C9.14524 13.948 8.67687 13.8697 8.33967 14.1102C8.00246 14.3508 7.92412 14.8192 8.16467 15.1564C9.00857 16.3393 10.5799 17.03 11.9997 17.03Z" fill="#161823"/>
<path fill-rule="evenodd" clip-rule="evenodd" d="M22 11.9992C22 17.5221 17.5228 21.9992 12 21.9992C6.47715 21.9992 2 17.5221 2 11.9992C2 6.47636 6.47715 1.99921 12 1.99921C17.5228 1.99921 22 6.47636 22 11.9992ZM20.5 11.9992C20.5 16.6936 16.6944 20.4992 12 20.4992C7.30558 20.4992 3.5 16.6936 3.5 11.9992C3.5 7.30479 7.30558 3.49921 12 3.49921C16.6944 3.49921 20.5 7.30479 20.5 11.9992Z" fill="#161823"/>
</svg>
