<svg width="16" height="16" viewBox="0 0 16 16" fill="none" xmlns="http://www.w3.org/2000/svg">
<path d="M1.57612 1.57564C1.81043 1.34132 2.19033 1.34132 2.42465 1.57564L4.62088 3.77187C5.5787 3.31072 6.70475 2.99991 8.00038 2.99991C12.2503 2.99991 14.6813 6.35421 15.3274 7.37615C15.5694 7.75906 15.5694 8.24076 15.3274 8.62366C14.9574 9.20889 14.0021 10.559 12.455 11.606L14.4246 13.5756C14.659 13.81 14.659 14.1899 14.4246 14.4242C14.1903 14.6585 13.8104 14.6585 13.5761 14.4242L11.3788 12.2269L11.3768 12.2278L10.4666 11.3176L10.4687 11.3167L9.65482 10.5029L9.65304 10.504L8.77444 9.62544L8.77644 9.62448L6.37581 7.22385L6.37485 7.22585L5.49624 6.34725L5.49742 6.34547L4.41171 5.25976L4.4099 5.2609L3.54261 4.39362L3.54438 4.39242L1.57612 2.42417C1.3418 2.18985 1.3418 1.80995 1.57612 1.57564ZM5.53119 4.68218L6.34595 5.49694C6.82021 5.18283 7.38893 4.99991 8.00038 4.99991C9.65724 4.99991 11.0004 6.34305 11.0004 7.99991C11.0004 8.61136 10.8175 9.18008 10.5033 9.65434L11.5877 10.7387C13.0195 9.8338 13.9274 8.58884 14.302 7.99991C13.676 7.0158 11.5611 4.19991 8.00038 4.19991C7.08025 4.19991 6.25702 4.38723 5.53119 4.68218ZM7.22434 6.37533L9.62496 8.77595C9.73741 8.54097 9.80038 8.27779 9.80038 7.99991C9.80038 7.0058 8.99449 6.19991 8.00038 6.19991C7.7225 6.19991 7.45932 6.26288 7.22434 6.37533Z" fill="#161823"/>
<path d="M2.58722 5.13528C1.62994 5.97989 1.00374 6.85917 0.704929 7.32575C0.426335 7.76076 0.467 8.30695 0.780598 8.69902C1.20367 9.22795 2.12125 10.289 3.3599 11.2226C4.59124 12.1506 6.20244 12.9999 8.00038 12.9999C8.7777 12.9999 9.49417 12.8877 10.15 12.6981L9.15089 11.6989C8.78585 11.764 8.40233 11.7999 8.00038 11.7999C6.57498 11.7999 5.21726 11.1198 4.08217 10.2643C2.9612 9.41938 2.11825 8.44923 1.72482 7.95834C2.01554 7.50664 2.58717 6.7216 3.43736 5.98542L2.58722 5.13528Z" fill="#161823"/>
<path d="M5.02983 7.57789C5.01042 7.71578 5.00038 7.85667 5.00038 7.99991C5.00038 9.65676 6.34353 10.9999 8.00038 10.9999C8.14362 10.9999 8.28451 10.9899 8.4224 10.9705L5.02983 7.57789Z" fill="#161823"/>
</svg>
