<svg width="24" height="24" viewBox="0 0 24 24" fill="none" xmlns="http://www.w3.org/2000/svg">
<path d="M11.9995 4.9998C13.2697 4.9998 14.2995 4.17153 14.2995 3.1498C14.2995 2.12808 13.2697 1.2998 11.9995 1.2998C10.7292 1.2998 9.69948 2.12808 9.69948 3.1498C9.69948 4.17153 10.7292 4.9998 11.9995 4.9998Z" fill="#161823"/>
<path fill-rule="evenodd" clip-rule="evenodd" d="M11.9828 22.6998C16.5944 22.6998 20.3328 18.9614 20.3328 14.3498C20.3328 9.73823 16.5944 5.9998 11.9828 5.9998C7.37123 5.9998 3.63281 9.73823 3.63281 14.3498C3.63281 18.9614 7.37123 22.6998 11.9828 22.6998ZM11.9995 11.2998C11.5024 11.2998 11.0995 11.7027 11.0995 12.1998V16.5331C11.0995 17.0302 11.5024 17.4331 11.9995 17.4331C12.4965 17.4331 12.8995 17.0302 12.8995 16.5331V12.1998C12.8995 11.7027 12.4965 11.2998 11.9995 11.2998ZM8.24948 12.4998C7.55912 12.4998 6.99948 13.0594 6.99948 13.7498V14.9831C6.99948 15.6735 7.55912 16.2331 8.24948 16.2331C8.93984 16.2331 9.49948 15.6735 9.49948 14.9831V13.7498C9.49948 13.0594 8.93984 12.4998 8.24948 12.4998ZM14.4995 13.7498C14.4995 13.0594 15.0591 12.4998 15.7495 12.4998C16.4398 12.4998 16.9995 13.0594 16.9995 13.7498V14.9831C16.9995 15.6735 16.4398 16.2331 15.7495 16.2331C15.0591 16.2331 14.4995 15.6735 14.4995 14.9831V13.7498Z" fill="#161823"/>
</svg>
