<svg width="24" height="24" viewBox="0 0 24 24" fill="none" xmlns="http://www.w3.org/2000/svg">
<path d="M7.58604 6.278C9.26472 4.82149 10.7433 3.53859 10.6657 1.53388C10.6453 1.00678 11.0248 0.569722 11.4738 0.846448C13.5031 2.09688 16.4872 6.56362 15.1604 11.4684C15.0891 11.7319 15.2835 11.95 15.5007 11.7845C16.3954 11.1024 17.5483 8.93733 17.5783 7.26196C17.5853 6.87168 17.868 6.60932 18.1434 6.88598C19.3004 8.04846 21 11.6141 21 14.5C21 19.1945 16.9706 23 12 23C7.02944 23 3 19.1945 3 14.5C3 10.2571 5.45434 8.12757 7.58604 6.278Z" fill="#161823"/>
</svg>
