<svg width="16" height="16" viewBox="0 0 16 16" fill="none" xmlns="http://www.w3.org/2000/svg">
<path d="M7.94026 12.4742C7.92516 12.4742 7.90869 12.4742 7.8936 12.4729C7.59167 12.4493 7.36661 12.2088 7.39268 11.9348L7.55023 10.2318H5.9524C5.67709 10.2318 5.4541 9.98571 5.4541 9.68184C5.4541 9.37796 5.67709 9.13184 5.9524 9.13184H7.65199L7.79479 7.5884C7.82086 7.31433 8.08573 7.11003 8.38765 7.1337C8.68958 7.15737 8.91464 7.3978 8.88857 7.67186L8.7535 9.13184H10.1941C10.4694 9.13184 10.6924 9.37796 10.6924 9.68184C10.6924 9.98571 10.4694 10.2318 10.1941 10.2318H8.65173L8.48646 12.0182C8.46176 12.2786 8.22297 12.4754 7.94026 12.4754V12.4742Z" fill="#161823"/>
<path fill-rule="evenodd" clip-rule="evenodd" d="M7.90739 1.04705C7.72201 0.967602 7.50911 0.986606 7.34074 1.09763C7.17236 1.20866 7.07103 1.39685 7.07103 1.59854C7.07103 1.68125 7.07158 1.75685 7.07208 1.82665C7.0752 2.26115 7.0767 2.47082 6.93574 2.76865C6.75854 3.14303 6.33214 3.6751 5.22995 4.62836C4.68008 5.10391 3.79225 5.88447 3.14805 6.92855C2.49512 7.98679 2.07638 9.34319 2.50835 10.9345C2.75383 11.9094 3.46516 13.1323 4.65627 13.9927C5.8722 14.871 7.56569 15.3546 9.70865 14.8504C11.0106 14.544 12.4742 13.4569 13.2 11.6411C13.9334 9.80672 13.8901 7.30091 12.3244 4.17975C12.2095 3.95077 11.962 3.81998 11.7081 3.85414C11.4542 3.88831 11.25 4.0799 11.1997 4.3311C11.1563 4.54825 11.0454 4.92602 10.8615 5.30082L10.8422 5.33944C10.6927 4.80373 10.4894 4.21641 10.2262 3.64978C9.74432 2.61204 9.00353 1.51683 7.90739 1.04705ZM8.02038 3.28202C8.11335 3.0856 8.17297 2.89757 8.21094 2.71752C8.56158 3.08787 8.87286 3.58454 9.13786 4.1552C9.57442 5.09529 9.82966 6.11599 9.92826 6.75688C9.95942 6.95942 10.0918 7.13206 10.2793 7.2147C10.4669 7.29734 10.6836 7.27855 10.8541 7.16487C11.2883 6.87539 11.6062 6.44472 11.8322 6.03439C12.6776 8.27329 12.5704 9.98348 12.0858 11.1957C11.5028 12.654 10.3487 13.467 9.4338 13.6823C7.62795 14.1072 6.2914 13.6935 5.35892 13.0199C4.40417 12.3303 3.84921 11.3502 3.67095 10.6371L3.66772 10.6248C3.34236 9.43178 3.6409 8.41508 4.1693 7.55867C4.70728 6.68675 5.46626 6.01052 6.01493 5.53599C7.12959 4.57196 7.72749 3.90083 8.02038 3.28202Z" fill="#161823"/>
</svg>
