<svg width="12" height="12" viewBox="0 0 12 12" fill="none" xmlns="http://www.w3.org/2000/svg">
<g clip-path="url(#clip0_69674_211)">
<path fill-rule="evenodd" clip-rule="evenodd" d="M11.2499 5.99946C11.2499 8.89893 8.89942 11.2494 5.99995 11.2494C3.10048 11.2494 0.75 8.89893 0.75 5.99946C0.75 3.1 3.10048 0.749512 5.99995 0.749512C8.89942 0.749512 11.2499 3.1 11.2499 5.99946ZM10.0499 5.99946C10.0499 8.23619 8.23668 10.0494 5.99995 10.0494C3.76323 10.0494 1.95 8.23619 1.95 5.99946C1.95 3.76274 3.76323 1.94951 5.99995 1.94951C8.23668 1.94951 10.0499 3.76274 10.0499 5.99946Z" fill="#161823"/>
<path fill-rule="evenodd" clip-rule="evenodd" d="M5.99988 3.09987C6.33125 3.09987 6.59988 3.36849 6.59988 3.69987V5.76133L8.13609 7.38791C8.36361 7.62882 8.35276 8.00857 8.11185 8.23609C7.87094 8.46362 7.4912 8.45277 7.26367 8.21186L5.70016 6.55637C5.50731 6.35218 5.39988 6.08195 5.39988 5.80109V3.69987C5.39988 3.36849 5.66851 3.09987 5.99988 3.09987Z" fill="#161823"/>
</g>
<defs>
<clipPath id="clip0_69674_211">
<rect width="12" height="12" fill="white"/>
</clipPath>
</defs>
</svg>
