<svg width="16" height="16" viewBox="0 0 16 16" fill="none" xmlns="http://www.w3.org/2000/svg">
<path fill-rule="evenodd" clip-rule="evenodd" d="M4.40021 6.23965C5.48924 5.95049 6.73312 5.81787 7.99863 5.81787C9.26418 5.81787 10.5001 5.9505 11.5812 6.23997C12.6552 6.5275 13.6224 6.98214 14.3001 7.65986C14.912 8.2717 15.2845 9.05409 15.2635 10.0017L15.2635 10.0032C15.2494 10.5715 15.0659 11.1404 14.6582 11.5394L14.6573 11.5403C14.3241 11.865 13.8548 12.074 13.2996 11.9799C13.2995 11.9799 13.2996 11.9799 13.2996 11.9799L11.2277 11.6289C10.8462 11.5672 10.4863 11.4373 10.2154 11.1665C9.8575 10.8085 9.80214 10.3243 9.79606 9.94126L9.79601 9.93762L9.7925 9.57857C9.44067 9.50746 8.80585 9.45491 7.99863 9.45491C7.21699 9.45491 6.56809 9.51654 6.19559 9.58197V9.93174C6.19559 10.3189 6.14217 10.8057 5.77711 11.1656C5.50859 11.4403 5.14426 11.5683 4.76974 11.6289L2.66272 11.9867C2.13336 12.0702 1.66572 11.8793 1.34279 11.5489C0.938797 11.143 0.767138 10.573 0.740013 10.0237L0.739877 10.0209C0.698031 9.08637 1.02751 8.29548 1.66313 7.65986C2.34214 6.98086 3.31932 6.52664 4.40021 6.23965ZM4.70816 7.39946C3.73457 7.65797 2.98316 8.03688 2.51166 8.50839C2.10445 8.91559 1.91252 9.38289 1.93868 9.96724L1.33931 9.99408L1.93855 9.96449C1.9567 10.332 2.06765 10.5767 2.19428 10.7033L2.20025 10.7093C2.27338 10.7845 2.35909 10.8189 2.47286 10.8017L4.57658 10.4445C4.83246 10.4034 4.90586 10.3404 4.91939 10.3263L4.92667 10.3188L4.9342 10.3115C4.93413 10.3115 4.93426 10.3114 4.9342 10.3115C4.93689 10.3089 4.95102 10.2954 4.96572 10.2424C4.98287 10.1806 4.99559 10.0838 4.99559 9.93174V9.35932C4.99559 9.07786 5.12257 8.87153 5.25043 8.73736C5.43128 8.53528 5.66316 8.47215 5.73509 8.45256L5.74828 8.44897L5.75855 8.44655C6.20672 8.3411 7.03992 8.25491 7.99863 8.25491C8.93764 8.25491 9.78873 8.32098 10.2683 8.45999L10.2737 8.46155C10.3794 8.49325 10.551 8.5616 10.7032 8.69999L10.7255 8.72022L10.7456 8.74257C10.8681 8.87868 10.9734 9.06454 10.9892 9.31622L10.9901 9.33198L10.9959 9.92221C10.9959 9.92279 10.9959 9.92337 10.9959 9.92395C10.9985 10.0774 11.012 10.177 11.0301 10.2424C11.0462 10.3003 11.0614 10.3154 11.0638 10.3178C11.0871 10.341 11.1684 10.404 11.4207 10.4445L11.4257 10.4453L13.5 10.7967C13.6133 10.8159 13.7107 10.787 13.8193 10.6814C13.9442 10.5589 14.0551 10.3234 14.0638 9.97421C14.0765 9.39203 13.8597 8.91649 13.4516 8.50839C12.9788 8.0356 12.2344 7.65712 11.2709 7.39914C10.3146 7.14311 9.18711 7.01787 7.99863 7.01787C6.81009 7.01787 5.67361 7.14312 4.70816 7.39946Z" fill="#161823"/>
</svg>
