<svg width="20" height="20" viewBox="0 0 20 20" fill="none" xmlns="http://www.w3.org/2000/svg">
<path d="M13.3167 2.34033C13.7309 2.34034 14.0667 2.67612 14.0667 3.09033V3.3501H14.4834C15.7336 3.3501 16.8051 4.11482 17.2558 5.20199C17.0742 5.30458 16.9048 5.43603 16.7545 5.59616L15.9834 6.41764V6.3501C15.9834 5.52167 15.3118 4.8501 14.4834 4.8501H14.0667V5.09033C14.0667 5.50454 13.7309 5.84033 13.3167 5.84033C12.9025 5.84033 12.5667 5.50455 12.5667 5.09033V4.8501H7.40016V5.09033C7.40016 5.50454 7.06437 5.84033 6.65016 5.84033C6.23595 5.84033 5.90016 5.50455 5.90016 5.09033V4.8501H5.4834C4.65498 4.8501 3.9834 5.52167 3.9834 6.3501V7.26611H15.187L13.7791 8.76611H3.9834V14.5168C3.9834 15.3452 4.65498 16.0168 5.4834 16.0168H14.4834C15.3118 16.0168 15.9834 15.3452 15.9834 14.5168V13.5919L17.4834 11.9938V14.5168C17.4834 16.1736 16.1403 17.5168 14.4834 17.5168H5.4834C3.82655 17.5168 2.4834 16.1736 2.4834 14.5168V6.3501C2.4834 4.69325 3.82655 3.3501 5.4834 3.3501H5.90016V3.09033C5.90016 2.67612 6.23595 2.34033 6.65016 2.34033C7.06437 2.34034 7.40016 2.67612 7.40016 3.09033V3.3501H12.5667V3.09033C12.5667 2.67612 12.9025 2.34033 13.3167 2.34033Z" fill="#161823"/>
<path d="M17.8481 6.62272C18.0791 6.37662 18.4659 6.36438 18.712 6.59538L19.2133 7.06592C19.4594 7.29692 19.4717 7.68368 19.2407 7.92979L13.8636 13.6586C13.6639 13.8714 13.4147 14.0315 13.1382 14.1247L12.0486 14.4922C11.8752 14.5507 11.7066 14.3924 11.754 14.2157L12.0517 13.105C12.1273 12.8231 12.2713 12.5643 12.471 12.3516L17.8481 6.62272Z" fill="#161823"/>
</svg>
