<svg width="20" height="20" viewBox="0 0 20 20" fill="none" xmlns="http://www.w3.org/2000/svg">
<path d="M6.3 3.73333C6.3 4.69063 7.07604 5.46667 8.03334 5.46667L11.9667 5.46667C12.924 5.46667 13.7 4.69063 13.7 3.73333C13.7 2.77604 12.924 2 11.9667 2H8.03334C7.07604 2 6.3 2.77604 6.3 3.73333ZM8.03334 4.26667C7.73878 4.26667 7.5 4.02788 7.5 3.73333C7.5 3.43878 7.73878 3.2 8.03334 3.2L11.9667 3.2C12.2612 3.2 12.5 3.43878 12.5 3.73333C12.5 4.02788 12.2612 4.26667 11.9667 4.26667L8.03334 4.26667Z" fill="#161823"/>
<path d="M5.35991 3.16149C5.37456 3.09264 5.31864 3.02757 5.24908 3.03833C3.69198 3.27923 2.5 4.6254 2.5 6.24997V14.75C2.5 16.5449 3.95507 18 5.75 18H14.25C16.0449 18 17.5 16.5449 17.5 14.75V6.24997C17.5 4.6254 16.308 3.27923 14.7509 3.03834C14.6814 3.02758 14.6254 3.09265 14.6401 3.16149C14.6794 3.3459 14.7 3.53719 14.7 3.7333C14.7 3.97202 14.6694 4.2036 14.6119 4.42431C14.5969 4.48182 14.6327 4.5409 14.6902 4.5558C15.4436 4.75102 16 5.43552 16 6.24997V14.75C16 15.7165 15.2165 16.5 14.25 16.5H5.75C4.7835 16.5 4 15.7165 4 14.75V6.24997C4 5.43552 4.55637 4.75102 5.30978 4.5558C5.36731 4.5409 5.40308 4.48182 5.3881 4.42431C5.33061 4.2036 5.3 3.97202 5.3 3.7333C5.3 3.53719 5.32066 3.3459 5.35991 3.16149Z" fill="#161823"/>
<path d="M6.75 8.99999C6.33579 8.99999 6 9.33578 6 9.74999C6 10.1642 6.33579 10.5 6.75 10.5L13.25 10.5C13.6642 10.5 14 10.1642 14 9.74999C14 9.33578 13.6642 8.99999 13.25 8.99999L6.75 8.99999Z" fill="#161823"/>
<path d="M6.75 12.25C6.33579 12.25 6 12.5858 6 13C6 13.4142 6.33579 13.75 6.75 13.75L10.75 13.75C11.1642 13.75 11.5 13.4142 11.5 13C11.5 12.5858 11.1642 12.25 10.75 12.25H6.75Z" fill="#161823"/>
</svg>
