<svg width="24" height="24" viewBox="0 0 24 24" fill="none" xmlns="http://www.w3.org/2000/svg">
<path d="M10.6432 2.26378C11.0498 2.34284 11.3153 2.73654 11.2362 3.14314L10.4377 7.24999H15.4096L16.2638 2.85684C16.3428 2.45024 16.7366 2.18472 17.1432 2.26378C17.5498 2.34284 17.8153 2.73654 17.7362 3.14314L16.9377 7.24999H19.5C19.9142 7.24999 20.25 7.58577 20.25 7.99999C20.25 8.4142 19.9142 8.74999 19.5 8.74999H16.646L15.3821 15.25H18C18.4142 15.25 18.75 15.5858 18.75 16C18.75 16.4142 18.4142 16.75 18 16.75H15.0904L14.2362 21.1431C14.1572 21.5497 13.7634 21.8153 13.3568 21.7362C12.9502 21.6571 12.6847 21.2634 12.7638 20.8568L13.5623 16.75H8.59044L7.73621 21.1431C7.65715 21.5497 7.26345 21.8153 6.85685 21.7362C6.45025 21.6571 6.18473 21.2634 6.26379 20.8568L7.06234 16.75H4.5C4.08579 16.75 3.75 16.4142 3.75 16C3.75 15.5858 4.08579 15.25 4.5 15.25H7.35401L8.6179 8.74999H6.00391C5.58969 8.74999 5.25391 8.4142 5.25391 7.99999C5.25391 7.58577 5.58969 7.24999 6.00391 7.24999H8.90956L9.76379 2.85684C9.84285 2.45024 10.2366 2.18472 10.6432 2.26378ZM13.854 15.25L15.1179 8.74999H10.146L8.8821 15.25H13.854Z" fill="#161823"/>
</svg>
