<svg width="20" height="20" viewBox="0 0 20 20" fill="none" xmlns="http://www.w3.org/2000/svg">
<path d="M16.364 4.69699C16.6569 4.4041 16.6569 3.92923 16.364 3.63633C16.0711 3.34344 15.5963 3.34344 15.3034 3.63633L10.0003 8.93935L4.69732 3.63634C4.40443 3.34345 3.92956 3.34345 3.63666 3.63634C3.34377 3.92923 3.34377 4.40411 3.63666 4.697L8.93968 10L3.63669 15.303C3.3438 15.5959 3.3438 16.0708 3.63669 16.3637C3.92959 16.6566 4.40446 16.6566 4.69735 16.3637L10.0003 11.0607L15.3033 16.3637C15.5962 16.6566 16.0711 16.6566 16.364 16.3637C16.6569 16.0708 16.6569 15.5959 16.364 15.303L11.061 10L16.364 4.69699Z" fill="#161823"/>
</svg>
