<svg width="20" height="20" viewBox="0 0 20 20" fill="none" xmlns="http://www.w3.org/2000/svg">
<g clip-path="url(#clip0_1075_260)">
<path fill-rule="evenodd" clip-rule="evenodd" d="M14.1224 10.1847H10.7423V12.8192C10.7423 13.9124 9.85606 14.7987 8.76279 14.7987C7.66952 14.7987 6.78325 13.9124 6.78325 12.8192C6.78325 12.4092 7.11561 12.0768 7.52558 12.0768C7.93556 12.0768 8.26791 12.4092 8.26791 12.8192C8.26791 13.0925 8.48947 13.3141 8.76279 13.3141C9.03611 13.3141 9.25767 13.0925 9.25767 12.8192V10.1847H5.87436C5.46438 10.1847 5.13203 9.85234 5.13203 9.44236C5.13203 6.75475 7.31077 4.57601 9.99839 4.57601C12.686 4.57601 14.8647 6.75475 14.8647 9.44236C14.8647 9.85234 14.5324 10.1847 14.1224 10.1847ZM6.69841 8.70004H13.2984C12.96 7.18946 11.611 6.06066 9.99839 6.06066C8.38574 6.06066 7.03674 7.18946 6.69841 8.70004Z" fill="#161823"/>
<path fill-rule="evenodd" clip-rule="evenodd" d="M18 3.93615L17.9923 11.4365C17.9994 15.7433 12.4215 18.2007 10.5812 18.8942C10.2036 19.0365 9.79643 19.0365 9.41878 18.8942C7.57846 18.2007 2.00064 15.7434 2.00768 11.4369L2 3.93615C1.99956 3.50196 2.28214 3.11818 2.69688 2.9897L9.41422 0.908724C9.79579 0.790516 10.2042 0.790516 10.5858 0.908724L17.3031 2.9897C17.7179 3.11818 18.0004 3.50197 18 3.93615ZM10.1464 2.32688L16.515 4.2998L16.5077 11.437L16.5077 11.4389C16.5101 12.8995 15.565 14.2056 14.0787 15.3402C12.6226 16.4517 10.923 17.1788 10.0577 17.5049C10.0175 17.5201 9.98253 17.5201 9.94231 17.5049C9.07697 17.1788 7.37733 16.4517 5.92128 15.3403C4.43491 14.2057 3.48994 12.8997 3.49232 11.4394L3.49233 11.4374L3.48502 4.2998L9.85355 2.32688C9.94895 2.29733 10.051 2.29733 10.1464 2.32688Z" fill="#161823"/>
</g>
<defs>
<clipPath id="clip0_1075_260">
<rect width="20" height="20" fill="white"/>
</clipPath>
</defs>
</svg>
