<svg width="24" height="24" viewBox="0 0 24 24" fill="none" xmlns="http://www.w3.org/2000/svg">
<path d="M8.05402 3.8879L5.93762 6.0043H5.91902L5.17618 6.74714C3.93324 7.99008 3.93325 9.9488 5.17618 11.1917C6.3813 12.3969 8.3124 12.4335 9.5617 11.3017C9.57297 11.2875 9.58484 11.2736 9.5973 11.26L12.4452 8.15322C13.5618 6.93513 15.5293 7.10539 16.4201 8.49717C17.7236 10.534 19.1136 12.5136 20.4317 14.543C20.6224 14.8368 20.7638 15.1484 20.8579 15.4681C20.869 15.4996 20.8779 15.5316 20.8846 15.5638C20.8871 15.5735 20.8897 15.5831 20.8921 15.5928C21.0109 16.0599 21.0305 16.5414 20.9571 17.0073H23.0002C23.5524 17.0073 24.0002 16.5595 24.0002 16.0073V7.00256C24.0002 6.45028 23.5524 6.00256 23.0002 6.00256H19.1874L17.6625 4.43511C16.3297 3.06526 14.4997 2.29248 12.5885 2.29248C11.3341 2.29248 10.1151 2.62536 9.04882 3.24097C8.68402 3.38124 8.344 3.59791 8.05402 3.8879Z" fill="#161823"/>
<path d="M1.27322 16.8454H5.67426C6.26846 16.8454 6.82312 17.1434 7.15108 17.639L7.93137 18.8182L7.93982 18.8316L8.97529 20.2656L8.99546 20.2967C9.54797 21.1474 10.6857 21.3893 11.5367 20.8367C11.6629 20.7548 11.7748 20.6607 11.8725 20.5574L12.4489 19.9482L13.2697 20.1202C13.7761 20.2263 14.3189 20.1403 14.7856 19.8372L14.8879 19.7708C15.1357 19.6099 15.3348 19.4056 15.4838 19.1753L16.0279 18.3343L17.0132 18.5145C17.5047 18.6044 18.0265 18.5145 18.4777 18.2215L18.5794 18.1554C19.3092 17.6816 19.6317 16.8167 19.4506 16.015L15.1567 9.30575C14.7968 8.74351 14.002 8.67473 13.5509 9.16681L10.703 12.2736C10.6599 12.3207 10.612 12.361 10.561 12.3945C8.66653 14.2657 5.88316 14.1041 3.99583 12.2168C2.24177 10.4627 2.11146 7.88129 3.60489 6.0043H1.23404C0.267544 6.0043 0.00683594 6.39511 0.00683594 7.36161V15.6C0.00683594 16.3182 0.399875 16.8454 1.27322 16.8454Z" fill="#161823"/>
</svg>
