<svg width="24" height="24" viewBox="0 0 24 24" fill="none" xmlns="http://www.w3.org/2000/svg">
<path d="M9 1.25C8.58579 1.25 8.25 1.58579 8.25 2C8.25 2.41421 8.58579 2.75 9 2.75H10.25V4.28169C5.7686 4.66212 2.25 8.42015 2.25 13C2.25 17.8325 6.16751 21.75 11 21.75C11.2883 21.75 11.5733 21.7361 11.8544 21.7088C11.6282 21.283 11.5 20.7971 11.5 20.2812V20.233C11.3348 20.2443 11.1681 20.25 11 20.25C6.99594 20.25 3.75 17.0041 3.75 13C3.75 8.99594 6.99594 5.75 11 5.75C13.433 5.75 15.586 6.94842 16.9011 8.78715C17.0973 8.76263 17.2972 8.75 17.5 8.75C17.9282 8.75 18.3433 8.8063 18.7383 8.9119C17.3809 6.34787 14.7864 4.53946 11.75 4.28169V2.75H13C13.4142 2.75 13.75 2.41421 13.75 2C13.75 1.58579 13.4142 1.25 13 1.25H9Z" fill="#161823"/>
<path d="M14.2188 13.5312C14.2188 11.7191 15.6878 10.25 17.5 10.25C19.3122 10.25 20.7812 11.7191 20.7812 13.5312V15.113C21.478 15.2635 22 15.8833 22 16.625V20.2812C22 21.1356 21.3074 21.8281 20.4531 21.8281H14.5469C13.6926 21.8281 13 21.1356 13 20.2812V16.625C13 15.8833 13.522 15.2635 14.2188 15.113V13.5312ZM19.2812 13.5312C19.2812 12.5475 18.4838 11.75 17.5 11.75C16.5162 11.75 15.7188 12.5475 15.7188 13.5312V15.0781H19.2812V13.5312ZM14.5469 16.5781C14.5376 16.5781 14.5326 16.5797 14.5291 16.5812C14.5246 16.5831 14.5191 16.5865 14.5137 16.5919C14.5084 16.5972 14.505 16.6027 14.5031 16.6072C14.5016 16.6107 14.5 16.6158 14.5 16.625V20.2812C14.5 20.2905 14.5016 20.2955 14.5031 20.299C14.505 20.3036 14.5084 20.3091 14.5137 20.3144C14.5191 20.3197 14.5246 20.3231 14.5291 20.3251C14.5326 20.3265 14.5376 20.3281 14.5469 20.3281H20.4531C20.4624 20.3281 20.4674 20.3265 20.4709 20.3251C20.4754 20.3231 20.4809 20.3197 20.4863 20.3144C20.4916 20.3091 20.495 20.3036 20.4969 20.299C20.4984 20.2955 20.5 20.2905 20.5 20.2812V16.625C20.5 16.6158 20.4984 16.6107 20.4969 16.6072C20.495 16.6027 20.4916 16.5972 20.4863 16.5919C20.4809 16.5865 20.4754 16.5831 20.4709 16.5812C20.4674 16.5797 20.4624 16.5781 20.4531 16.5781H14.5469Z" fill="#161823"/>
</svg>
