<svg width="16" height="16" viewBox="0 0 16 16" fill="none" xmlns="http://www.w3.org/2000/svg">
<path d="M8.89999 5.00083C8.89999 5.49789 8.49705 5.90083 7.99999 5.90083C7.50293 5.90083 7.09999 5.49789 7.09999 5.00083C7.09999 4.50377 7.50293 4.10083 7.99999 4.10083C8.49705 4.10083 8.89999 4.50377 8.89999 5.00083Z" fill="#161823"/>
<path d="M8 7C7.58579 7 7.25 7.33579 7.25 7.75V11.25C7.25 11.6642 7.58579 12 8 12C8.41421 12 8.75 11.6642 8.75 11.25V7.75C8.75 7.33579 8.41421 7 8 7Z" fill="#161823"/>
<path d="M8 15C11.866 15 15 11.866 15 8C15 4.13401 11.866 1 8 1C4.13401 1 1 4.13401 1 8C1 11.866 4.13401 15 8 15ZM8 13.8C4.79675 13.8 2.2 11.2033 2.2 8C2.2 4.79675 4.79675 2.2 8 2.2C11.2033 2.2 13.8 4.79675 13.8 8C13.8 11.2033 11.2033 13.8 8 13.8Z" fill="#161823"/>
</svg>
