<svg width="20" height="20" viewBox="0 0 20 20" fill="none" xmlns="http://www.w3.org/2000/svg">
<path d="M1.55304 1.553C1.84594 1.2601 2.32081 1.2601 2.6137 1.553L4.15099 3.09028C4.42462 3.03114 4.70867 3 5 3H15C17.2091 3 19 4.79086 19 7V13C19 14.3443 18.3368 15.5338 17.3197 16.259L18.447 17.3863C18.7399 17.6792 18.7399 18.1541 18.447 18.447C18.1541 18.7399 17.6793 18.7399 17.3864 18.447L15.8491 16.9097L15.8479 16.91L14.4379 15.5H14.4394L12.2394 13.3H12.2379L10.3201 11.3822V11.3807L8.69708 9.7577L8.69788 9.75997L6.85209 7.91419L6.85142 7.91203L6.84876 7.90938H6.84728L5.97046 7.03256L5.97104 7.03165L3.76515 4.82576L3.7642 4.8263L2.67945 3.74154L2.68031 3.74093L1.55304 2.61366C1.26015 2.32077 1.26015 1.84589 1.55304 1.553ZM5.56071 4.5L10.3201 9.25941V7.47969C10.3201 6.91328 10.6131 6.63496 11.199 6.63496H12.7518C14.7 6.63496 15.7303 7.78731 15.7303 9.96992C15.7303 11.5652 15.1774 12.6102 14.1158 13.0551L16.2349 15.1742C16.9905 14.7441 17.5 13.9316 17.5 13V7C17.5 5.61929 16.3807 4.5 15 4.5H5.56071ZM11.6385 10.5778L13.2052 12.1445C14.005 11.9224 14.3826 11.2124 14.3826 9.96992C14.3826 8.43184 13.8064 7.70918 12.5857 7.70918H11.6385V10.5778Z" fill="#161823"/>
<path d="M1.64211 4.82552C1.23591 5.4515 1 6.1982 1 7V13C1 15.2091 2.79086 17 5 17H13.8166L12.3166 15.5H5C3.61929 15.5 2.5 14.3807 2.5 13V7C2.5 6.61535 2.58687 6.25099 2.74206 5.92547L1.64211 4.82552Z" fill="#161823"/>
<path d="M5.38849 8.57191L4.09668 12.2746C4.01367 12.5236 3.97949 12.675 3.97949 12.8068C3.97949 13.1389 4.22852 13.3586 4.58984 13.3586C4.94141 13.3586 5.13672 13.1779 5.27344 12.7189L5.64453 11.5861H7.9834L8.35938 12.7189C8.49121 13.173 8.69629 13.3586 9.05273 13.3586C9.40131 13.3586 9.64076 13.1655 9.67381 12.8572L7.42127 10.6047H5.9375L6.29312 9.47653L5.38849 8.57191Z" fill="#161823"/>
</svg>
