<svg width="16" height="16" viewBox="0 0 16 16" fill="none" xmlns="http://www.w3.org/2000/svg">
<path d="M6.63388 1.13451C8.22225 0.818568 9.87103 1.06314 11.2993 1.82656C12.7275 2.58998 13.8469 3.82502 14.4667 5.32123C15.0864 6.81744 15.1682 8.48225 14.6981 10.032C14.228 11.5818 13.2351 12.9206 11.8885 13.8203C10.5419 14.72 8.92508 15.125 7.31339 14.9663C5.7017 14.8076 4.19491 14.0949 3.04976 12.9498C2.81545 12.7154 2.81545 12.3355 3.04976 12.1012C3.28408 11.8669 3.66398 11.8669 3.89829 12.1012C4.84713 13.0501 6.09561 13.6406 7.43101 13.7721C8.76641 13.9036 10.1061 13.568 11.2218 12.8225C12.3375 12.077 13.1602 10.9677 13.5498 9.68366C13.9393 8.39958 13.8715 7.02016 13.358 5.78045C12.8445 4.54073 11.917 3.51742 10.7336 2.88487C9.5502 2.25232 8.18407 2.04967 6.86799 2.31146C5.55191 2.57324 4.36732 3.28326 3.51605 4.32053C2.7284 5.28028 2.27121 6.46526 2.20727 7.69995H2.79646C3.12036 7.69995 3.30996 8.06481 3.12379 8.32986L1.92688 10.0339C1.76759 10.2607 1.43152 10.2607 1.27223 10.0339L0.0753245 8.32986C-0.110844 8.06481 0.07875 7.69995 0.402651 7.69995H1.00594C1.07081 6.18748 1.62463 4.73366 2.58844 3.55926C3.61583 2.30738 5.04551 1.45046 6.63388 1.13451Z" fill="#161823"/>
<path fill-rule="evenodd" clip-rule="evenodd" d="M10.8791 8.86456C11.4881 8.44904 11.4881 7.55093 10.8791 7.1354L7.48278 4.81803C6.78802 4.34398 5.84619 4.84153 5.84619 5.68261L5.84619 10.3174C5.84619 11.1584 6.78802 11.656 7.48278 11.1819L10.8791 8.86456ZM10.0171 7.99998L7.04619 5.97286V10.0271L10.0171 7.99998Z" fill="#161823"/>
</svg>
