<svg width="20" height="20" viewBox="0 0 20 20" fill="none" xmlns="http://www.w3.org/2000/svg">
<path d="M11.6535 0.321067C11.1589 0.213219 10.6704 0.526224 10.5624 1.02018C10.4544 1.51414 10.7678 2.002 11.2624 2.10985C13.3287 2.56041 14.9628 4.17415 15.4403 6.22807C15.5548 6.72056 16.0474 7.0271 16.5405 6.91275C17.0336 6.79839 17.3405 6.30644 17.226 5.81395C16.5886 3.07215 14.4123 0.922643 11.6535 0.321067Z" fill="#161823"/>
<path d="M8.79994 1.12915C8.96928 1.60562 8.71982 2.12898 8.24275 2.29811C6.10903 3.05454 4.58324 5.08854 4.58324 7.47612C4.58324 10.5097 7.04556 12.9689 10.083 12.9689C12.5021 12.9689 14.5586 11.4084 15.294 9.23777C15.4563 8.75885 15.9765 8.50197 16.4561 8.66402C16.9356 8.82606 17.1928 9.34567 17.0305 9.8246C16.0509 12.7163 13.3117 14.7998 10.083 14.7998C6.03308 14.7998 2.75 11.5209 2.75 7.47612C2.75 4.28935 4.78746 1.5802 7.6295 0.572661C8.10658 0.403533 8.6306 0.652682 8.79994 1.12915Z" fill="#161823"/>
<path d="M6.04004 16.3998C6.04004 15.9027 6.44298 15.4998 6.94004 15.4998H13.06C13.5571 15.4998 13.96 15.9027 13.96 16.3998C13.96 16.8968 13.5571 17.2998 13.06 17.2998H6.94004C6.44298 17.2998 6.04004 16.8968 6.04004 16.3998Z" fill="#161823"/>
<path d="M7.6001 18.8998C7.6001 18.4027 8.00304 17.9998 8.5001 17.9998H11.5001C11.9972 17.9998 12.4001 18.4027 12.4001 18.8998C12.4001 19.3968 11.9972 19.7998 11.5001 19.7998H8.5001C8.00304 19.7998 7.6001 19.3968 7.6001 18.8998Z" fill="#161823"/>
</svg>
