<svg width="20" height="20" viewBox="0 0 20 20" fill="none" xmlns="http://www.w3.org/2000/svg">
<path d="M7.97768 9.76689C7.58113 9.38249 6.94804 9.39233 6.56364 9.78888C6.17923 10.1854 6.18908 10.8185 6.58563 11.2029L8.88044 13.4275C9.09024 13.6308 9.37849 13.7323 9.66941 13.7051C9.96034 13.678 10.2248 13.5249 10.3934 13.2862L14.3595 7.66907C14.6781 7.21791 14.5706 6.59393 14.1194 6.27538C13.6682 5.95683 13.0443 6.06433 12.7257 6.51549L9.43353 11.1782L7.97768 9.76689Z" fill="#161823"/>
<path d="M10.2092 0.945224C10.0749 0.906948 9.93254 0.90693 9.79822 0.945172L2.29462 3.08159C1.97232 3.17335 1.75 3.4678 1.75 3.80292V8.18216C1.75 13.1232 4.99047 17.4935 9.7693 19.0465C9.91997 19.0954 10.0823 19.0954 10.233 19.0464C15.0105 17.4934 18.25 13.124 18.25 8.18418V3.80292C18.25 3.46787 18.0278 3.17347 17.7056 3.08164L10.2092 0.945224ZM3.25 8.18216V4.36919L10.0035 2.44634L16.75 4.36904V8.18418C16.75 12.3749 14.0513 16.1197 10.0011 17.5416C5.94961 16.1197 3.25 12.374 3.25 8.18216Z" fill="#161823"/>
</svg>
