<svg width="20" height="20" viewBox="0 0 20 20" fill="none" xmlns="http://www.w3.org/2000/svg">
<path d="M7.0835 11.2498C7.77385 11.2498 8.3335 10.6902 8.3335 9.99982C8.3335 9.30946 7.77385 8.74982 7.0835 8.74982C6.39314 8.74982 5.8335 9.30946 5.8335 9.99982C5.8335 10.6902 6.39314 11.2498 7.0835 11.2498Z" fill="#161823"/>
<path d="M8.91034 7.11243C9.20324 6.81954 9.67811 6.81954 9.971 7.11243C10.3502 7.4916 10.651 7.94175 10.8562 8.43716C11.0614 8.93257 11.167 9.46355 11.167 9.99978C11.167 10.536 11.0614 11.067 10.8562 11.5624C10.651 12.0578 10.3502 12.508 9.971 12.8871C9.67811 13.18 9.20324 13.18 8.91034 12.8871C8.61745 12.5942 8.61745 12.1194 8.91034 11.8265C9.15023 11.5866 9.34052 11.3018 9.47034 10.9884C9.60016 10.675 9.66699 10.339 9.66698 9.99978C9.66698 9.66054 9.60016 9.32461 9.47034 9.01119C9.34052 8.69776 9.15023 8.41298 8.91034 8.17309C8.61745 7.8802 8.61745 7.40532 8.91034 7.11243Z" fill="#161823"/>
<path d="M12.0333 5.05005C11.7404 4.75716 11.2655 4.75716 10.9726 5.05005C10.6797 5.34295 10.6797 5.81782 10.9726 6.11071C11.4833 6.62144 11.8885 7.22775 12.1649 7.89504C12.4413 8.56233 12.5835 9.27753 12.5835 9.9998C12.5835 10.7221 12.4413 11.4373 12.1649 12.1046C11.8884 12.7719 11.4833 13.3782 10.9726 13.8889C10.6797 14.1818 10.6797 14.6567 10.9726 14.9495C11.2655 15.2424 11.7404 15.2424 12.0333 14.9495C12.6833 14.2995 13.1989 13.5279 13.5507 12.6786C13.9025 11.8293 14.0835 10.9191 14.0835 9.9998C14.0835 9.08055 13.9025 8.1703 13.5507 7.32102C13.1989 6.47174 12.6833 5.70006 12.0333 5.05005Z" fill="#161823"/>
<path d="M18.3337 9.99984C18.3337 14.6022 14.6027 18.3332 10.0003 18.3332C5.39795 18.3332 1.66699 14.6022 1.66699 9.99984C1.66699 5.39746 5.39795 1.6665 10.0003 1.6665C14.6027 1.6665 18.3337 5.39746 18.3337 9.99984ZM16.8337 9.99984C16.8337 6.22589 13.7743 3.1665 10.0003 3.1665C6.22638 3.1665 3.16699 6.22589 3.16699 9.99984C3.16699 13.7738 6.22638 16.8332 10.0003 16.8332C13.7743 16.8332 16.8337 13.7738 16.8337 9.99984Z" fill="#161823"/>
</svg>
