<svg width="16" height="16" viewBox="0 0 16 16" fill="none" xmlns="http://www.w3.org/2000/svg">
<path d="M12.6662 9.50001C12.7869 9.50001 12.9065 9.49559 13.0249 9.4869L13.6883 10.5483C14.1739 11.3254 13.6153 12.3333 12.699 12.3333L11.1997 12.3333V12.3302H4.79968V12.3333H3.30037C2.38403 12.3333 1.82538 11.3254 2.31104 10.5483L3.10958 9.27065C3.47341 8.68853 3.66633 8.01588 3.66633 7.32941V6C3.66633 4.13209 4.84739 2.54181 6.50308 1.93235C6.77456 1.38009 7.34273 1 7.99968 1C8.41879 1 8.80177 1.1547 9.09463 1.41011C8.31086 2.26922 7.83289 3.41213 7.83289 4.66668C7.83289 7.33605 9.99684 9.50001 12.6662 9.50001Z" fill="#161823"/>
<path d="M5.59764 13.3302C5.98872 14.2715 6.9169 14.9333 7.99966 14.9333C9.08242 14.9333 10.0106 14.2715 10.4017 13.3302H5.59764Z" fill="#161823"/>
<path d="M12.6662 8.00001C14.5072 8.00001 15.9996 6.50763 15.9996 4.66668C15.9996 2.82573 14.5072 1.33334 12.6662 1.33334C10.8253 1.33334 9.33289 2.82573 9.33289 4.66668C9.33289 6.50763 10.8253 8.00001 12.6662 8.00001ZM12.8614 6.27264C12.7932 6.31868 12.73 6.3596 12.6654 6.3596C12.6007 6.3596 12.5392 6.31868 12.471 6.27264C11.581 5.69293 10.9996 5.0058 10.9996 4.31356C10.9996 3.68952 11.4326 3.26667 11.9578 3.26667C12.2623 3.26667 12.4915 3.42304 12.6346 3.65756C12.6485 3.68028 12.6826 3.68045 12.6966 3.65783C12.8422 3.42316 13.07 3.26667 13.3747 3.26667C13.8998 3.26667 14.3329 3.68952 14.3329 4.31356C14.3329 5.0058 13.7515 5.69293 12.8614 6.27264Z" fill="#161823"/>
</svg>
