<svg width="20" height="20" viewBox="0 0 20 20" fill="none" xmlns="http://www.w3.org/2000/svg">
<path d="M3.33301 4.25C2.91879 4.25 2.58301 4.58579 2.58301 5C2.58301 5.41421 2.91879 5.75 3.33301 5.75H16.6663C17.0806 5.75 17.4163 5.41421 17.4163 5C17.4163 4.58579 17.0806 4.25 16.6663 4.25H3.33301ZM3.33301 9.25H16.1801C16.0741 9.35056 15.9763 9.46298 15.8888 9.58693L15.0676 10.75H3.33301C2.91879 10.75 2.58301 10.4142 2.58301 10C2.58301 9.58579 2.91879 9.25 3.33301 9.25ZM13.4756 15.6053L12.0774 14.25H12.0773L11.7071 13.8911C11.4097 13.6028 10.9349 13.6102 10.6465 13.9076C10.5506 14.0066 10.4874 14.1252 10.4568 14.25H10.4567C10.4452 14.2969 10.4383 14.3447 10.436 14.3927C10.4346 14.4197 10.4348 14.4468 10.4364 14.4737C10.447 14.6546 10.5227 14.8321 10.663 14.9681L13.0608 17.2924C13.2181 17.445 13.4343 17.521 13.6525 17.5007C13.8707 17.4803 14.0691 17.3655 14.1955 17.1865L18.3395 11.3174C18.5554 11.0115 18.5103 10.5998 18.2497 10.347V10.3469C18.222 10.32 18.1919 10.295 18.1594 10.272C17.821 10.0331 17.353 10.1137 17.1141 10.4521L16.9038 10.75H16.9039L14.083 14.7452V14.745L13.4756 15.6053ZM3.33301 14.25H8.94217C8.9006 14.7731 9.04136 15.3075 9.36285 15.75H3.33301C2.91879 15.75 2.58301 15.4142 2.58301 15C2.58301 14.5858 2.91879 14.25 3.33301 14.25Z" fill="#161823"/>
</svg>
