<svg width="24" height="24" viewBox="0 0 24 24" fill="none" xmlns="http://www.w3.org/2000/svg">
<path d="M16.4668 7.4666C16.4668 6.64211 16.2434 5.86979 15.8539 5.20687L16.7826 4.27813C17.0755 3.98524 17.0755 3.51037 16.7826 3.21747C16.4897 2.92458 16.0148 2.92458 15.722 3.21747L14.8839 4.05548C14.1058 3.39698 13.0994 2.99993 12.0002 2.99993C10.901 2.99993 9.8945 3.39698 9.11637 4.05548L8.27837 3.21747C7.98548 2.92458 7.5106 2.92458 7.21771 3.21747C6.92482 3.51037 6.92482 3.98524 7.21771 4.27813L8.14644 5.20686C7.75688 5.86978 7.53349 6.6421 7.53349 7.4666L7.53376 7.51644C6.92537 7.66492 6.44163 8.13144 6.2687 8.72986L4.4502 7.91588V6.36661C4.4502 5.9524 4.11441 5.61661 3.7002 5.61661C3.28598 5.61661 2.9502 5.9524 2.9502 6.36661V8.40188C2.9502 8.69755 3.12391 8.96563 3.39378 9.08643L6.20011 10.3426V11.4999H3.73355C3.31934 11.4999 2.98355 11.8357 2.98355 12.2499C2.98355 12.6641 3.31934 12.9999 3.73355 12.9999H6.20011V14.2317L3.35482 15.8959C3.12483 16.0304 2.98347 16.2769 2.98347 16.5433V19.25C2.98347 19.6642 3.31926 20 3.73347 20C4.14769 20 4.48347 19.6642 4.48347 19.25V16.9735L6.20011 15.9695V15.9999C6.20011 18.2091 7.99097 19.9999 10.2001 19.9999H13.8001C16.0093 19.9999 17.8001 18.2091 17.8001 15.9999V15.9889L19.4835 16.9735V19.25C19.4835 19.6642 19.8193 20 20.2335 20C20.6477 20 20.9835 19.6642 20.9835 19.25V16.5433C20.9835 16.2769 20.8422 16.0304 20.6122 15.8959L17.8001 14.2512V12.9166H20.2668C20.681 12.9166 21.0168 12.5808 21.0168 12.1666C21.0168 11.7523 20.681 11.4166 20.2668 11.4166H17.8001V10.3277L20.5732 9.08643C20.8431 8.96563 21.0168 8.69755 21.0168 8.40188V6.36661C21.0168 5.9524 20.681 5.61661 20.2668 5.61661C19.8526 5.61661 19.5168 5.9524 19.5168 6.36661V7.91588L17.7277 8.71671C17.5515 8.12464 17.0704 7.66387 16.4665 7.51646L16.4668 7.4666ZM14.9668 7.4666H9.03349C9.03349 5.82816 10.3617 4.49993 12.0002 4.49993C13.6386 4.49993 14.9668 5.82816 14.9668 7.4666ZM11.2502 8.96661V18.4999H10.2001C8.8194 18.4999 7.70011 17.3807 7.70011 15.9999V9.21661C7.70011 9.07854 7.81204 8.96661 7.95011 8.96661H11.2502ZM12.7502 8.96661H16.0501C16.1882 8.96661 16.3001 9.07854 16.3001 9.21661V15.9999C16.3001 17.3807 15.1808 18.4999 13.8001 18.4999H12.7502V8.96661Z" fill="#161823"/>
</svg>
