<svg width="24" height="24" viewBox="0 0 24 24" fill="none" xmlns="http://www.w3.org/2000/svg">
<path d="M12.75 6.5C12.75 6.08579 12.4142 5.75 12 5.75C11.5858 5.75 11.25 6.08579 11.25 6.5V12.0714C11.25 12.2735 11.3315 12.467 11.4761 12.6081L14.4761 15.5367C14.7725 15.826 15.2473 15.8203 15.5367 15.5239C15.826 15.2275 15.8203 14.7527 15.5239 14.4633L12.75 11.7555V6.5Z" fill="#161823"/>
<path d="M22 12C22 17.5228 17.5228 22 12 22C6.47715 22 2 17.5228 2 12C2 6.47715 6.47715 2 12 2C17.5228 2 22 6.47715 22 12ZM20.5 12C20.5 7.30558 16.6944 3.5 12 3.5C7.30558 3.5 3.5 7.30558 3.5 12C3.5 16.6944 7.30558 20.5 12 20.5C16.6944 20.5 20.5 16.6944 20.5 12Z" fill="#161823"/>
</svg>
