<svg width="20" height="20" viewBox="0 0 20 20" fill="none" xmlns="http://www.w3.org/2000/svg">
<path d="M8.86525 11.3288C8.60973 11.6679 8.14799 11.7143 7.89484 11.4292C6.54761 9.91196 6.40918 7.60692 7.67724 5.92415L9.6986 3.24171C11.1449 1.32241 13.8732 0.938964 15.7925 2.38526C17.7118 3.83155 18.0953 6.5599 16.649 8.4792L16.0773 9.23779C15.8281 9.5686 15.3578 9.63469 15.027 9.38541C14.6962 9.13613 14.6301 8.66587 14.8794 8.33507L15.451 7.57648C16.3988 6.31879 16.1475 4.53095 14.8898 3.58321C13.6321 2.63548 11.8443 2.88674 10.8966 4.14443L8.87519 6.82687C8.12391 7.82385 8.12622 9.15363 8.78541 10.1341C9.0442 10.519 9.1102 11.0038 8.86525 11.3288Z" fill="#161823"/>
<path d="M4.54915 12.4224C3.60122 13.6804 3.85254 15.4686 5.11049 16.4165C6.36844 17.3645 8.15666 17.1131 9.1046 15.8552L11.1248 13.1742C11.8763 12.177 11.874 10.8468 11.2145 9.86612C10.9557 9.48121 10.8897 8.99649 11.1347 8.67142C11.3902 8.33234 11.8519 8.28601 12.1051 8.57109C13.4526 10.0885 13.5911 12.3939 12.3228 14.077L10.3025 16.7579C8.85606 18.6775 6.12733 19.061 4.20776 17.6145C2.2882 16.168 1.90471 13.4393 3.3512 11.5197L3.90934 10.779C4.15862 10.4482 4.62887 10.3821 4.95968 10.6314C5.29048 10.8807 5.35657 11.3509 5.10729 11.6817L4.54915 12.4224Z" fill="#161823"/>
</svg>
