<svg width="24" height="24" viewBox="0 0 24 24" fill="none" xmlns="http://www.w3.org/2000/svg">
<path d="M12 2C9.6937 2 8 4.11907 8 6.5C8 8.88093 9.6937 11 12 11C14.3063 11 16 8.88093 16 6.5C16 4.11907 14.3063 2 12 2Z" fill="#161823"/>
<path d="M12 12.5C9.5457 12.5 7.32635 13.1879 5.70047 14.3426C4.07479 15.4973 3 17.1584 3 19.0682V19.25C3 20.7688 4.23122 22 5.75 22H12.4889C12.6318 22 12.729 21.8542 12.6827 21.719C12.5265 21.262 12.4417 20.7718 12.4417 20.2616C12.4417 17.7675 14.4682 15.7524 16.9599 15.7524C16.9628 15.7524 16.9652 15.75 16.9652 15.747V13.6414C16.9652 13.5943 16.9391 13.5507 16.8964 13.5307C15.4871 12.873 13.8072 12.5 12 12.5Z" fill="#161823"/>
<path d="M19.978 16.3601L20.1694 16.5883C20.7601 17.2928 21.5471 17.536 22.3686 17.536C22.7866 17.536 23.125 17.1981 23.125 16.782C23.125 16.3659 22.7866 16.0281 22.3686 16.0281C21.0487 16.0281 19.9782 14.9611 19.9782 13.6442C19.9782 13.6327 19.9779 13.6212 19.9774 13.6098C19.9606 13.2086 19.6289 12.8875 19.2216 12.8875C18.8036 12.8875 18.4652 13.2253 18.4652 13.6414V20.2616C18.4652 21.0911 17.791 21.763 16.9599 21.763C16.1287 21.763 15.4545 21.0911 15.4545 20.2616C15.4545 19.4321 16.1288 18.7602 16.9599 18.7602C17.3779 18.7602 17.7163 18.4224 17.7163 18.0063C17.7163 17.5902 17.3779 17.2524 16.9599 17.2524C15.2927 17.2524 13.9417 18.5999 13.9417 20.2616C13.9417 21.9233 15.2927 23.2708 16.9599 23.2708C18.627 23.2708 19.978 21.9233 19.978 20.2616V16.3601Z" fill="#161823"/>
</svg>
