<svg width="16" height="16" viewBox="0 0 16 16" fill="none" xmlns="http://www.w3.org/2000/svg">
<path fill-rule="evenodd" clip-rule="evenodd" d="M7.99967 1.33335C11.6816 1.33335 14.6663 4.31812 14.6663 8.00002C14.6663 11.6819 11.6816 14.6667 7.99967 14.6667C4.31778 14.6667 1.33301 11.6819 1.33301 8.00002C1.33301 4.31812 4.31778 1.33335 7.99967 1.33335ZM7.5754 11.5921C7.80971 11.8265 8.18961 11.8265 8.42392 11.5921L11.178 8.83812C11.4123 8.6038 11.4123 8.2239 11.178 7.98959C10.9436 7.75527 10.5637 7.75527 10.3294 7.98959L8.59966 9.71936V4.61332C8.59966 4.28195 8.33103 4.01332 7.99966 4.01332C7.66829 4.01332 7.39966 4.28195 7.39966 4.61332V9.71935L5.66989 7.98959C5.43558 7.75527 5.05568 7.75527 4.82137 7.98959C4.58705 8.2239 4.58705 8.6038 4.82137 8.83812L7.5754 11.5921Z" fill="#161823"/>
</svg>
