<svg width="16" height="16" viewBox="0 0 16 16" fill="none" xmlns="http://www.w3.org/2000/svg">
<path d="M3.33301 2C2.22844 2 1.33301 2.89543 1.33301 4V5.85001H14.6663V5.66667C14.6663 4.5621 13.7709 3.66667 12.6663 3.66667H8.8281C8.29767 3.66667 7.78896 3.45595 7.41389 3.08088L6.91879 2.58579C6.54372 2.21071 6.03501 2 5.50458 2H3.33301Z" fill="#161823"/>
<path d="M1.33301 12V7.35001H14.6663V8.59726C14.0631 8.3002 13.3842 8.13333 12.6663 8.13333C10.1626 8.13333 8.13293 10.163 8.13293 12.6667C8.13293 13.1307 8.20265 13.5784 8.33219 14H3.33301C2.22844 14 1.33301 13.1046 1.33301 12Z" fill="#161823"/>
<path d="M13.217 9.37862C13.7545 9.46798 14.2485 9.68594 14.6663 9.99981C15.4759 10.608 15.9996 11.5762 15.9996 12.6667C15.9996 14.5076 14.5072 16 12.6662 16C10.8253 16 9.33289 14.5076 9.33289 12.6667C9.33289 10.8257 10.8253 9.33333 12.6663 9.33333C12.8539 9.33333 13.0379 9.34883 13.217 9.37862ZM12.6664 10.7667C12.4454 10.7667 12.2664 10.9457 12.2664 11.1667V12.2667H11.1664C10.9454 12.2667 10.7664 12.4457 10.7664 12.6667C10.7664 12.8876 10.9454 13.0667 11.1664 13.0667H12.2664V14.1667C12.2664 14.3876 12.4454 14.5667 12.6664 14.5667C12.8873 14.5667 13.0664 14.3876 13.0664 14.1667V13.0667H14.1664C14.3873 13.0667 14.5664 12.8876 14.5664 12.6667C14.5664 12.4457 14.3873 12.2667 14.1664 12.2667H13.0664V11.1667C13.0664 10.9457 12.8873 10.7667 12.6664 10.7667Z" fill="#161823"/>
</svg>
