<svg width="20" height="20" viewBox="0 0 20 20" fill="none" xmlns="http://www.w3.org/2000/svg">
<path d="M16.6455 9.3105C16.5161 9.28876 16.405 9.33284 16.3244 9.40583C16.2455 9.47738 16.1946 9.57732 16.1784 9.67514C16.1782 9.67664 16.178 9.67815 16.1778 9.67966L16.1125 10.2879H15.5173C15.2869 10.2879 15.0999 10.4785 15.0999 10.707C15.0999 10.9355 15.2869 11.1261 15.5173 11.1261H16.0284L15.9708 11.6195C15.9329 11.8683 16.1361 12.0494 16.3434 12.0842C16.3478 12.085 16.3522 12.0853 16.3566 12.0853C16.5726 12.0853 16.7639 11.9452 16.8015 11.7181C16.8017 11.7166 16.8019 11.7151 16.8021 11.7135L16.8674 11.1053H17.4626C17.693 11.1053 17.88 10.9147 17.88 10.6862C17.88 10.5589 17.8172 10.4531 17.7393 10.3832C17.6616 10.3137 17.5555 10.2671 17.4419 10.2671H16.9515L17.0091 9.77367C17.0488 9.51378 16.8336 9.34208 16.6455 9.3105Z" fill="#161823"/>
<path fill-rule="evenodd" clip-rule="evenodd" d="M17.3107 5.88899C17.2223 5.88899 17.1417 5.92433 17.0807 5.96853C17.0181 6.01394 16.9619 6.0786 16.9272 6.15782L16.9241 6.16496C16.9226 6.16843 16.9213 6.172 16.9203 6.17564L16.9182 6.18317C16.8197 6.53772 16.5489 7.06618 15.7514 7.50303L15.7511 7.50322C15.2883 7.7596 14.8761 8.00592 14.5258 8.27162L14.654 7.04983C14.6898 6.70836 14.442 6.40251 14.1006 6.36667C13.7591 6.33084 13.4533 6.5786 13.4174 6.92007L12.9414 11.4563L12.9414 11.4567C12.879 11.9973 12.3446 12.4858 11.738 12.4858C11.168 12.4858 10.8175 12.0646 10.8706 11.594L10.8707 11.5937L10.8711 11.5895L10.8712 11.5892L11.3475 7.04983C11.3834 6.70836 11.1356 6.40251 10.7941 6.36667C10.4527 6.33084 10.1468 6.5786 10.111 6.92007L9.6349 11.4569L9.63486 11.4572C9.49343 12.7239 10.4888 13.7291 11.738 13.7291C12.5879 13.7291 13.3754 13.2692 13.8184 12.5851C14.4096 13.3355 15.3734 13.8007 16.4615 13.8007C18.1242 13.8007 19.7049 12.5175 19.9424 10.6957L19.9425 10.6949L19.9426 10.6937C20.0384 9.8912 20.0286 8.98799 19.7835 8.19939C19.7832 8.19841 19.7828 8.19744 19.7825 8.19648C19.7222 8.02607 19.5763 7.9051 19.3959 7.89411C19.365 7.89043 19.3369 7.89411 19.315 7.89809C19.3056 7.8998 19.2961 7.90182 19.288 7.90355L19.2835 7.90449C19.2739 7.90652 19.2661 7.90809 19.2588 7.90919C19.2545 7.90985 19.2502 7.91085 19.2461 7.9122L18.8451 8.04234C18.6505 6.93603 18.1634 6.31192 17.5425 5.95572C17.468 5.91297 17.3847 5.88899 17.3107 5.88899ZM16.2718 8.37802C16.7744 8.12122 17.1947 7.79763 17.487 7.38543C17.6182 7.62411 17.7017 7.90651 17.7674 8.26906L17.7675 8.26938L17.9205 9.28802C17.9287 9.34239 17.9833 9.3768 18.0358 9.36071L18.8341 9.11643C18.8802 9.50342 18.917 10.0061 18.8474 10.5484L18.8473 10.549C18.6978 11.7853 17.6521 12.7287 16.4358 12.7287C15.7875 12.7287 15.1925 12.4853 14.7985 12.0781C14.5496 11.8112 14.2334 11.3582 14.2818 10.6916C14.2819 10.6909 14.2819 10.6903 14.282 10.6896L14.2821 10.6868C14.3072 10.154 14.4615 9.77292 14.7746 9.42918C15.0924 9.08033 15.5765 8.76664 16.2714 8.37821L16.2718 8.37802Z" fill="#161823"/>
<path fill-rule="evenodd" clip-rule="evenodd" d="M1.26614 6.32122C0.948172 6.32122 0.681455 6.56116 0.647941 6.87737L0.00346558 12.9578C-0.0151144 13.1331 0.0416015 13.3081 0.159499 13.4391C0.277396 13.5702 0.445389 13.645 0.621669 13.645H1.56036C3.11772 13.645 4.48304 12.3907 4.6579 10.8519L4.65797 10.8513L4.82657 9.24962L4.8266 9.2493L4.82683 9.24709C4.9894 7.63938 3.81123 6.32122 2.20484 6.32122H1.26614ZM2.20484 7.56456H1.8254L1.31271 12.4017H1.56036C2.46816 12.4017 3.31573 11.6397 3.42223 10.7139L3.42227 10.7135L3.5898 9.12201L3.58983 9.12167L3.5899 9.12097C3.67892 8.2355 3.06408 7.56456 2.20484 7.56456Z" fill="#161823"/>
<path fill-rule="evenodd" clip-rule="evenodd" d="M5.21016 8.26185C5.3372 7.08219 6.37656 6.12496 7.57006 6.12496C8.80966 6.12496 9.70695 7.15166 9.59452 8.36964L9.59391 8.37629L9.28548 11.32C9.15844 12.4997 8.11907 13.4569 6.92558 13.4569C5.68598 13.4569 4.78868 12.4302 4.90111 11.2122L4.90173 11.2056L5.21016 8.26185ZM6.3668 8.38646L6.36683 8.38623C6.4321 7.78472 6.98423 7.2883 7.57006 7.2883C8.10248 7.2883 8.48603 7.70339 8.43642 8.25933L8.12876 11.1961L8.12874 11.1962C8.06353 11.7977 7.51149 12.2936 6.92558 12.2936C6.39317 12.2936 6.00961 11.8785 6.05921 11.3226L6.3668 8.38646Z" fill="#161823"/>
</svg>
