<svg width="20" height="20" viewBox="0 0 20 20" fill="none" xmlns="http://www.w3.org/2000/svg">
<path d="M14.1556 17.4504H6.36792V7.32639L10.8458 2.84847C11.3835 2.31084 12.2551 2.31084 12.7928 2.84847C12.8836 2.93933 12.9582 3.06263 13.0166 3.21839C13.0751 3.37414 13.1043 3.5234 13.1043 3.66618V3.93875L12.2476 7.32639H16.4919C16.9072 7.32639 17.2707 7.48214 17.5822 7.79365C17.8937 8.10515 18.0494 8.46858 18.0494 8.88392C18.0494 9.20419 18.0412 9.7073 18.0334 10.108C18.0254 10.5214 17.9395 10.9275 17.7803 11.3092C17.2934 12.4773 16.1852 15.132 15.5963 16.5158C15.4795 16.7754 15.2848 16.9961 15.0122 17.1778C14.7397 17.3595 14.4541 17.4504 14.1556 17.4504ZM5.11507 7.32637V17.4504H3.25C2.55964 17.4504 2 16.8907 2 16.2004V8.57637C2 7.88602 2.55964 7.32637 3.25 7.32637H5.11507Z" fill="#161823"/>
</svg>
