<svg width="16" height="16" viewBox="0 0 16 16" fill="none" xmlns="http://www.w3.org/2000/svg">
<path d="M5.46497 6.35417L4.78528 8.51042H6.19153L5.51575 6.35417H5.46497Z" fill="#161823"/>
<path d="M9.58606 6.19402V9.80339H10.3439C11.3243 9.80339 11.7814 9.22527 11.7814 8.00261C11.7814 6.77214 11.3204 6.19402 10.3439 6.19402H9.58606Z" fill="#161823"/>
<path d="M3.67969 2.66667C2.02283 2.66667 0.679688 4.00982 0.679688 5.66667V10.3333C0.679688 11.9902 2.02283 13.3333 3.67969 13.3333H12.2147C13.8715 13.3333 15.2147 11.9902 15.2147 10.3333V5.66667C15.2147 4.00982 13.8715 2.66667 12.2147 2.66667H3.67969ZM4.25403 10.2018C4.14465 10.569 3.9884 10.7135 3.70715 10.7135C3.41809 10.7135 3.21887 10.5378 3.21887 10.2721C3.21887 10.1667 3.24622 10.0456 3.31262 9.84636L4.65637 5.9948C4.82434 5.4987 5.06262 5.29167 5.50793 5.29167C5.94934 5.29167 6.18372 5.4948 6.35168 5.9948L7.69543 9.84636C7.75012 10.0143 7.77747 10.1432 7.77747 10.2526C7.77747 10.5339 7.57825 10.7135 7.27747 10.7135C6.99231 10.7135 6.82825 10.5651 6.72278 10.2018L6.422 9.29558H4.5509L4.25403 10.2018ZM9.2345 10.6667C8.76575 10.6667 8.53137 10.444 8.53137 9.99089V6.01042C8.53137 5.5573 8.76575 5.33464 9.2345 5.33464H10.4767C12.0353 5.33464 12.8595 6.25652 12.8595 8.00261C12.8595 9.7448 12.0353 10.6667 10.4767 10.6667H9.2345Z" fill="#161823"/>
</svg>
