<svg width="20" height="20" viewBox="0 0 20 20" fill="none" xmlns="http://www.w3.org/2000/svg">
<path fill-rule="evenodd" clip-rule="evenodd" d="M5.83301 16.8333C3.07158 16.8333 0.833008 14.5947 0.833008 11.8333C0.833008 9.5062 2.42278 7.55041 4.57551 6.99275C5.3482 4.74236 7.48297 3.125 9.9955 3.125C12.7945 3.125 15.1246 5.13215 15.6252 7.78564C17.6544 8.25748 19.1663 10.0772 19.1663 12.25C19.1663 14.7813 17.1143 16.8333 14.583 16.8333H5.83301ZM7.58134 10.7302L9.16642 8.98045V14.3333C9.16642 14.7016 9.46488 15 9.83313 15C10.2014 15 10.4998 14.7016 10.4998 14.3333V8.98045L12.2477 10.7297C12.4949 11.0026 12.9164 11.0234 13.1892 10.7762C13.4623 10.529 13.483 10.1075 13.2358 9.83454L10.4191 6.7251C10.1719 6.45217 9.75032 6.43132 9.4775 6.67851C9.46285 6.69174 9.44901 6.70547 9.43579 6.71971C9.39774 6.74697 9.36194 6.77871 9.32918 6.81482L6.59318 9.83515C6.34599 10.108 6.36674 10.5296 6.63977 10.7768C6.9126 11.024 7.33415 11.0032 7.58134 10.7302Z" fill="#161823"/>
</svg>
