<svg width="16" height="16" viewBox="0 0 16 16" fill="none" xmlns="http://www.w3.org/2000/svg">
<path d="M14.6663 7.23598C14.6663 3.97596 11.6818 1.33325 7.99966 1.33325C4.31758 1.33325 1.33301 3.97596 1.33301 7.23607C1.33301 10.4962 4.41414 12.7342 8.09629 12.7342V13.9522C8.09629 14.2501 8.4077 14.4402 8.66838 14.2961C9.58906 13.7872 11.416 12.7038 12.6013 11.5164C13.9236 10.1918 14.6663 8.84248 14.6663 7.23598ZM5.70969 7.39325C5.70969 7.91792 5.28436 8.34325 4.75969 8.34325C4.23502 8.34325 3.80969 7.91792 3.80969 7.39325C3.80969 6.86858 4.23502 6.44325 4.75969 6.44325C5.28436 6.44325 5.70969 6.86858 5.70969 7.39325ZM7.99971 8.34325C7.47504 8.34325 7.04971 7.91792 7.04971 7.39325C7.04971 6.86858 7.47504 6.44325 7.99971 6.44325C8.52438 6.44325 8.94971 6.86858 8.94971 7.39325C8.94971 7.91792 8.52438 8.34325 7.99971 8.34325ZM11.2397 8.34325C10.715 8.34325 10.2897 7.91792 10.2897 7.39325C10.2897 6.86858 10.715 6.44325 11.2397 6.44325C11.7644 6.44325 12.1897 6.86858 12.1897 7.39325C12.1897 7.91792 11.7644 8.34325 11.2397 8.34325Z" fill="#161823"/>
</svg>
