<svg width="20" height="20" viewBox="0 0 20 20" fill="none" xmlns="http://www.w3.org/2000/svg">
<path fill-rule="evenodd" clip-rule="evenodd" d="M13.0996 2.79981L4.69959 2.79993C4.09209 2.79994 3.59961 3.29242 3.59961 3.89993V15.3C3.59961 15.9075 4.0921 16.4 4.69961 16.4H8.95544C9.14208 16.9438 9.41212 17.4489 9.75029 17.9H4.69961C3.26367 17.9 2.09961 16.7359 2.09961 15.3V3.89993C2.09961 2.464 3.26365 1.29995 4.69957 1.29993L13.0996 1.2998C14.5355 1.29978 15.6996 2.46385 15.6996 3.89981V9.39138C15.2237 9.24842 14.7204 9.16859 14.1996 9.16163V3.89981C14.1996 3.29229 13.7071 2.7998 13.0996 2.79981ZM8.52502 7.12496L10.9996 8.76074C11.3824 9.01377 11.3824 9.56064 10.9996 9.81367L8.52502 11.4494C8.08834 11.7381 7.49636 11.4351 7.49636 10.923L7.49637 7.65143C7.49637 7.13928 8.08834 6.8363 8.52502 7.12496ZM10.6751 14.626C10.6751 16.5314 12.2197 18.076 14.1251 18.076C16.0305 18.076 17.5751 16.5314 17.5751 14.626C17.5751 12.7206 16.0305 11.176 14.1251 11.176C12.2197 11.176 10.6751 12.7206 10.6751 14.626ZM9.37509 14.626C9.37509 17.2493 11.5017 19.376 14.1251 19.376C16.7484 19.376 18.8751 17.2493 18.8751 14.626C18.8751 12.0026 16.7484 9.87598 14.1251 9.87598C11.5017 9.87598 9.37509 12.0026 9.37509 14.626ZM14.6248 12.7505C14.6248 12.4743 14.401 12.2505 14.1248 12.2505C13.8487 12.2505 13.6248 12.4743 13.6248 12.7505V14.6255C13.6248 14.9016 13.8487 15.1255 14.1248 15.1255H15.9998C16.276 15.1255 16.4998 14.9016 16.4998 14.6255C16.4998 14.3493 16.276 14.1255 15.9998 14.1255H14.6248V12.7505Z" fill="#161823"/>
</svg>
