<svg width="20" height="20" viewBox="0 0 20 20" fill="none" xmlns="http://www.w3.org/2000/svg">
<path d="M9.99941 14.3333C10.5057 14.3333 10.9161 13.9229 10.9161 13.4166C10.9161 12.9104 10.5057 12.5 9.99941 12.5C9.49315 12.5 9.08274 12.9104 9.08274 13.4166C9.08274 13.9229 9.49315 14.3333 9.99941 14.3333Z" fill="#161823"/>
<path d="M18.3327 9.99999C18.3327 14.6024 14.6017 18.3333 9.99935 18.3333C5.39698 18.3333 1.66602 14.6024 1.66602 9.99999C1.66602 5.39762 5.39698 1.66666 9.99935 1.66666C14.6017 1.66666 18.3327 5.39762 18.3327 9.99999ZM16.8327 9.99999C16.8327 6.22604 13.7733 3.16666 9.99935 3.16666C6.2254 3.16666 3.16602 6.22604 3.16602 9.99999C3.16602 13.7739 6.2254 16.8333 9.99935 16.8333C13.7733 16.8333 16.8327 13.7739 16.8327 9.99999Z" fill="#161823"/>
<path d="M9.16927 8.01106C9.33026 7.57128 9.83794 7.49984 10.2077 7.49984C10.7017 7.49984 11.2493 7.75704 11.2493 8.31938C11.2493 9.28385 9.16192 9.42378 9.16192 10.8374C9.16192 11.2977 9.53502 11.6708 9.99526 11.6708C10.4337 11.6708 10.751 11.5116 10.8261 10.9023C10.9523 9.8782 12.929 9.65381 12.929 8.17708C12.929 6.9414 11.9477 5.83317 10.2077 5.83317C9.14269 5.83317 7.49935 6.57787 7.49935 7.83729C7.49935 8.29753 7.87244 8.67063 8.33268 8.67063C8.74858 8.67063 8.97432 8.54362 9.16927 8.01106Z" fill="#161823"/>
</svg>
