<svg width="24" height="24" viewBox="0 0 24 24" fill="none" xmlns="http://www.w3.org/2000/svg">
<path d="M9.66643 10.7333H14.3331V10.0666H9.66643V10.7333Z" fill="#161823"/>
<path d="M12 22.0001C17.5228 22.0001 22 17.5229 22 12.0001C22 6.47721 17.5228 2.00006 12 2.00006C6.47715 2.00006 2 6.47721 2 12.0001C2 17.5229 6.47715 22.0001 12 22.0001ZM12.5998 6.08935V7.13337H13.7567C13.7699 7.08773 13.7888 7.04295 13.8136 6.99996L14.3136 6.13393C14.4793 5.84695 14.8463 5.74863 15.1332 5.91431C15.4202 6.08 15.5185 6.44695 15.3529 6.73393L15.1222 7.13337H16.2998C16.8521 7.13337 17.2998 7.58108 17.2998 8.13337V9.10003C17.2998 9.4314 17.0312 9.70003 16.6998 9.70003C16.3685 9.70003 16.0998 9.4314 16.0998 9.10003V8.33337H7.89983V9.10003C7.89983 9.4314 7.6312 9.70003 7.29983 9.70003C6.96846 9.70003 6.69983 9.4314 6.69983 9.10003V8.13337C6.69983 7.58108 7.14754 7.13337 7.69983 7.13337H8.87727L8.64666 6.73393C8.48097 6.44695 8.5793 6.08 8.86627 5.91431C9.15325 5.74863 9.5202 5.84695 9.68589 6.13393L10.1859 6.99996C10.2107 7.04295 10.2296 7.08773 10.2428 7.13337H11.3998V6.08935C11.3998 5.75798 11.6684 5.48935 11.9998 5.48935C12.3312 5.48935 12.5998 5.75798 12.5998 6.08935ZM9.46643 8.86664H14.5331C15.0854 8.86664 15.5331 9.31436 15.5331 9.86664V10.9333C15.5331 11.4856 15.0854 11.9333 14.5331 11.9333H9.46643C8.91415 11.9333 8.46643 11.4856 8.46643 10.9333V9.86664C8.46643 9.31436 8.91415 8.86664 9.46643 8.86664ZM8.01379 13.4666C8.01379 12.9143 8.46151 12.4666 9.01379 12.4666H14.9854C15.5377 12.4666 15.9854 12.9143 15.9854 13.4666V15.2666C15.9854 15.598 15.7168 15.8666 15.3854 15.8666C15.0541 15.8666 14.7854 15.598 14.7854 15.2666V13.6666H9.21379V15.2666C9.21379 15.598 8.94516 15.8666 8.61379 15.8666C8.28242 15.8666 8.01379 15.598 8.01379 15.2666V13.4666ZM12.2105 14.2322C12.524 14.3393 12.6914 14.6803 12.5843 14.9939C12.2139 16.0783 11.4943 16.7989 10.5465 17.233C9.62349 17.6557 8.5015 17.8 7.29983 17.8C6.96846 17.8 6.69983 17.5313 6.69983 17.2C6.69983 16.8686 6.96846 16.6 7.29983 16.6C8.42714 16.6 9.35035 16.4609 10.0469 16.1419C10.7186 15.8343 11.1929 15.355 11.4487 14.606C11.5558 14.2924 11.8969 14.1251 12.2105 14.2322ZM12.7068 16.3088C12.7572 15.9812 13.0635 15.7566 13.3911 15.807C14.1981 15.9312 15.6153 16.3291 16.8213 16.7171C17.1367 16.8186 17.3102 17.1566 17.2087 17.472C17.1072 17.7875 16.7692 17.9609 16.4538 17.8594C15.2502 17.4722 13.9126 17.1014 13.2085 16.993C12.881 16.9426 12.6564 16.6363 12.7068 16.3088Z" fill="#161823"/>
</svg>
