<svg width="20" height="20" viewBox="0 0 20 20" fill="none" xmlns="http://www.w3.org/2000/svg">
<g clip-path="url(#clip0_2_2771)">
<path d="M3.625 3C1.89911 3 0.5 4.39911 0.5 6.125V13.875C0.5 15.6009 1.89911 17 3.625 17H10.4549C10.2541 16.5289 10.1144 16.0256 10.0456 15.5H3.625C2.72754 15.5 2 14.7725 2 13.875V6.125C2 5.22754 2.72754 4.5 3.625 4.5H16.375C17.2725 4.5 18 5.22754 18 6.125V9.45251C18.549 9.68632 19.0543 10.003 19.5 10.3869V6.125C19.5 4.39911 18.1009 3 16.375 3H3.625Z" fill="#161823"/>
<path d="M15.9897 9.00003C15.7065 7.4691 14.7203 6.66827 13.0962 6.66827H11.5435C10.9575 6.66827 10.6646 6.94659 10.6646 7.513V12.0542C10.9992 11.4236 11.4478 10.8626 11.9829 10.3988V7.74249H12.9302C13.8809 7.74249 14.4407 8.18085 14.6418 9.1014C14.9999 9.03162 15.3698 8.99506 15.7483 8.99506C15.8292 8.99506 15.9096 8.99672 15.9897 9.00003Z" fill="#161823"/>
<path d="M5.31787 12.7523C5.18115 13.2112 4.98584 13.3919 4.63428 13.3919C4.27295 13.3919 4.02393 13.1722 4.02393 12.8401C4.02393 12.7083 4.05811 12.5569 4.14111 12.3079L5.8208 7.49347C6.03076 6.87335 6.32861 6.61456 6.88525 6.61456C7.43701 6.61456 7.72998 6.86847 7.93994 7.49347L9.61963 12.3079C9.68799 12.5179 9.72217 12.679 9.72217 12.8157C9.72217 13.1673 9.47314 13.3919 9.09717 13.3919C8.74072 13.3919 8.53564 13.2064 8.40381 12.7523L8.02783 11.6194H5.68896L5.31787 12.7523ZM6.83154 7.94269L5.98193 10.638H7.73975L6.89502 7.94269H6.83154Z" fill="#161823"/>
<path d="M15.7484 17.5983C14.1734 17.5983 12.8967 16.3216 12.8967 14.7466C12.8967 13.1717 14.1734 11.895 15.7484 11.895C17.3233 11.895 18.6 13.1717 18.6 14.7466C18.6 16.3216 17.3233 17.5983 15.7484 17.5983ZM15.7484 18.9983C18.0965 18.9983 20 17.0948 20 14.7466C20 12.3985 18.0965 10.495 15.7484 10.495C13.4002 10.495 11.4967 12.3985 11.4967 14.7466C11.4967 17.0948 13.4002 18.9983 15.7484 18.9983Z" fill="#161823"/>
<path d="M13.9567 14.7467C13.9567 14.3325 14.2925 13.9967 14.7067 13.9967H16.79C17.2042 13.9967 17.54 14.3325 17.54 14.7467C17.54 15.1609 17.2042 15.4967 16.79 15.4967H14.7067C14.2925 15.4967 13.9567 15.1609 13.9567 14.7467Z" fill="#161823"/>
</g>
<defs>
<clipPath id="clip0_2_2771">
<rect width="20" height="20" fill="white"/>
</clipPath>
</defs>
</svg>
