<svg width="12" height="12" viewBox="0 0 12 12" fill="none" xmlns="http://www.w3.org/2000/svg">
<path d="M3.58653 1.99693H8.25913V8.07132L5.57238 10.7581C5.24981 11.0806 4.72681 11.0806 4.40423 10.7581C4.34972 10.7036 4.30494 10.6296 4.26989 10.5361C4.23485 10.4427 4.21733 10.3531 4.21733 10.2674V10.1039L4.73131 8.07132H2.18475C1.93554 8.07132 1.71749 7.97787 1.53058 7.79096C1.34368 7.60406 1.25023 7.386 1.25023 7.1368C1.25023 6.94464 1.25519 6.64277 1.25983 6.40235C1.26462 6.1543 1.3162 5.91064 1.41167 5.68164C1.70387 4.98079 2.36877 3.38795 2.7221 2.55764C2.79219 2.40189 2.909 2.2695 3.07254 2.16047C3.23608 2.05144 3.40741 1.99693 3.58653 1.99693ZM9.01084 8.07133V1.99694H10.1299C10.5441 1.99694 10.8799 2.33272 10.8799 2.74694V7.32133C10.8799 7.73554 10.5441 8.07133 10.1299 8.07133H9.01084Z" fill="#161823"/>
</svg>
