<svg width="20" height="20" viewBox="0 0 20 20" fill="none" xmlns="http://www.w3.org/2000/svg">
<path d="M6.49907 9.10001C6.00202 9.10001 5.59908 9.50295 5.59908 10C5.59908 10.4971 6.00202 10.9 6.49907 10.9H13.4991C13.9961 10.9 14.3991 10.4971 14.3991 10C14.3991 9.50295 13.9961 9.10001 13.4991 9.10001H6.49907Z" fill="#161823"/>
<path d="M18.3336 9.99999C18.3336 14.6024 14.6027 18.3333 10.0003 18.3333C5.39795 18.3333 1.66699 14.6024 1.66699 9.99999C1.66699 5.39763 5.39795 1.66667 10.0003 1.66667C14.6027 1.66667 18.3336 5.39763 18.3336 9.99999ZM16.8336 9.99999C16.8336 6.22605 13.7743 3.16667 10.0003 3.16667C6.22638 3.16667 3.16699 6.22605 3.16699 9.99999C3.16699 13.7739 6.22638 16.8333 10.0003 16.8333C13.7743 16.8333 16.8336 13.7739 16.8336 9.99999Z" fill="#161823"/>
</svg>
