<svg width="16" height="16" viewBox="0 0 16 16" fill="none" xmlns="http://www.w3.org/2000/svg">
<path fill-rule="evenodd" clip-rule="evenodd" d="M2.80021 9.78742C2.55754 9.78742 2.33875 9.9336 2.24588 10.1578C2.15302 10.382 2.20435 10.6401 2.37595 10.8117L5.04262 13.4783C5.27693 13.7127 5.65683 13.7127 5.89114 13.4783C6.12546 13.244 6.12546 12.8641 5.89114 12.6298L4.24874 10.9874L13.2002 10.9874C13.5316 10.9874 13.8002 10.7188 13.8002 10.3874C13.8002 10.056 13.5316 9.78742 13.2002 9.78742L2.80021 9.78742ZM13.2006 6.20266C13.4433 6.20266 13.6621 6.05647 13.7549 5.83227C13.8478 5.60806 13.7965 5.34999 13.6249 5.17839L10.9582 2.51173C10.7239 2.27741 10.344 2.27741 10.1097 2.51173C9.87536 2.74604 9.87536 3.12594 10.1097 3.36026L11.7521 5.00265L2.80063 5.00259C2.46926 5.00259 2.20063 5.27122 2.20063 5.60259C2.20063 5.93396 2.46925 6.20259 2.80062 6.20259L13.2006 6.20266Z" fill="#161823"/>
</svg>
