<svg width="24" height="24" viewBox="0 0 24 24" fill="none" xmlns="http://www.w3.org/2000/svg">
<path d="M12.0001 10.7953C14.2092 10.7953 16.0001 8.82642 16.0001 6.39765C16.0001 3.96889 14.2092 1.99998 12.0001 1.99998C9.79096 1.99998 8.0001 3.96889 8.0001 6.39765C8.0001 8.82642 9.79096 10.7953 12.0001 10.7953Z" fill="#161823"/>
<path d="M12 12.9C9.68591 12.9 7.54503 13.4146 5.92908 14.3292C4.3523 15.2217 3 16.6813 3 18.6153V19.196C3 20.5767 4.11929 21.696 5.5 21.696H12.8499C13.033 21.696 13.128 21.4609 13.0133 21.3181C12.5571 20.7499 12.2974 20.035 12.2974 19.283V15.9917C12.2974 14.8306 12.9168 13.7577 13.9224 13.1771C13.9938 13.1359 13.9729 13.0284 13.8911 13.018C13.2794 12.9402 12.6464 12.9 12 12.9Z" fill="#161823"/>
<path d="M18.3978 19.0727C19.1931 19.0727 19.8378 18.428 19.8378 17.6327C19.8378 16.8374 19.1931 16.1927 18.3978 16.1927C17.6025 16.1927 16.9578 16.8374 16.9578 17.6327C16.9578 18.428 17.6025 19.0727 18.3978 19.0727Z" fill="#161823"/>
<path d="M19.2728 12.8305C18.7313 12.5179 18.0642 12.5179 17.5228 12.8305L14.6724 14.4761C14.1309 14.7887 13.7974 15.3665 13.7974 15.9917V19.283C13.7974 19.9082 14.1309 20.486 14.6724 20.7986L17.5228 22.4443C18.0642 22.7569 18.7313 22.7569 19.2728 22.4443L22.1231 20.7986C22.6646 20.486 22.9981 19.9082 22.9981 19.283V15.9917C22.9981 15.3665 22.6646 14.7887 22.1231 14.4761L19.2728 12.8305ZM18.2728 14.1295C18.3501 14.0848 18.4454 14.0848 18.5228 14.1295L21.3731 15.7752C21.4505 15.8198 21.4981 15.9024 21.4981 15.9917V19.283C21.4981 19.3723 21.4505 19.4549 21.3731 19.4995L18.5228 21.1452C18.4454 21.1899 18.3501 21.1899 18.2728 21.1452L15.4224 19.4995C15.345 19.4549 15.2974 19.3723 15.2974 19.283V15.9917C15.2974 15.9024 15.345 15.8198 15.4224 15.7752L18.2728 14.1295Z" fill="#161823"/>
</svg>
