<svg width="20" height="20" viewBox="0 0 20 20" fill="none" xmlns="http://www.w3.org/2000/svg">
<path d="M1.66699 5.25C1.66699 3.73122 2.89821 2.5 4.41699 2.5H6.7779C7.50725 2.5 8.20672 2.78973 8.72245 3.30546L9.19487 3.77788C9.71059 4.2936 10.4101 4.58333 11.1394 4.58333H15.5837C17.1024 4.58333 18.3337 5.81455 18.3337 7.33333V14.75C18.3337 16.2688 17.1024 17.5 15.5837 17.5H4.41699C2.89821 17.5 1.66699 16.2688 1.66699 14.75V5.25ZM16.8337 8.9964H3.16699V14.75C3.16699 15.4404 3.72664 16 4.41699 16H15.5837C16.274 16 16.8337 15.4404 16.8337 14.75V8.9964ZM16.8337 7.4964V7.33333C16.8337 6.64298 16.274 6.08333 15.5837 6.08333H11.1394C10.0122 6.08333 8.93124 5.63557 8.13421 4.83854L7.66179 4.36612C7.42737 4.1317 7.10943 4 6.7779 4H4.41699C3.72664 4 3.16699 4.55964 3.16699 5.25V7.4964H16.8337Z" fill="#161823"/>
</svg>
