<svg width="20" height="20" viewBox="0 0 20 20" fill="none" xmlns="http://www.w3.org/2000/svg">
<path d="M16.7432 14.8977C17.7436 13.5228 18.3337 11.8303 18.3337 9.99996C18.3337 5.39759 14.6027 1.66663 10.0003 1.66663C5.39795 1.66663 1.66699 5.39759 1.66699 9.99996C1.66699 11.8303 2.25709 13.5228 3.25741 14.8977C4.40713 16.4778 6.09876 17.6383 8.05921 18.106C8.68203 18.2546 9.33199 18.3333 10.0003 18.3333C10.6687 18.3333 11.3186 18.2546 11.9414 18.106C13.9019 17.6383 15.5935 16.4778 16.7432 14.8977ZM4.21102 13.6319C5.48128 12.4422 7.57704 11.6666 10.0003 11.6666C12.4236 11.6666 14.5194 12.4422 15.7896 13.6319C14.5806 15.5551 12.4397 16.8333 10.0003 16.8333C7.56093 16.8333 5.42008 15.5551 4.21102 13.6319ZM12.3584 7.1026C12.3584 8.54712 11.3044 9.71813 10.0044 9.71813C8.7043 9.71813 7.65039 8.54712 7.65039 7.1026C7.65039 5.65808 8.7043 4.48706 10.0044 4.48706C11.3044 4.48706 12.3584 5.65808 12.3584 7.1026Z" fill="#161823"/>
</svg>
