<svg width="20" height="20" viewBox="0 0 20 20" fill="none" xmlns="http://www.w3.org/2000/svg">
<path d="M12.4068 7.26195C12.4068 8.74129 11.3274 9.94053 9.99605 9.94053C8.66464 9.94053 7.58533 8.74129 7.58533 7.26195C7.58533 5.78261 8.66464 4.58337 9.99605 4.58337C11.3274 4.58337 12.4068 5.78261 12.4068 7.26195Z" fill="#161823"/>
<path d="M18.3337 9.99996C18.3337 14.6023 14.6027 18.3333 10.0003 18.3333C5.39795 18.3333 1.66699 14.6023 1.66699 9.99996C1.66699 5.39759 5.39795 1.66663 10.0003 1.66663C14.6027 1.66663 18.3337 5.39759 18.3337 9.99996ZM4.26724 13.7198C5.22 12.2655 7.39577 11.25 10.0003 11.25C12.6049 11.25 14.7807 12.2655 15.7334 13.7198C16.4294 12.6493 16.8337 11.3719 16.8337 9.99996C16.8337 6.22601 13.7743 3.16663 10.0003 3.16663C6.22638 3.16663 3.16699 6.22601 3.16699 9.99996C3.16699 11.3719 3.57129 12.6494 4.26724 13.7198Z" fill="#161823"/>
</svg>
