<svg width="16" height="16" viewBox="0 0 16 16" fill="none" xmlns="http://www.w3.org/2000/svg">
<path d="M8.38482 1.43333C7.38697 1.43333 6.07899 1.76019 5.32534 2.51209L3.45502 4.37805C2.60864 5.22245 2.60864 6.59164 3.45502 7.43604C4.30121 8.28026 5.67303 8.28026 6.51922 7.43604L8.40871 5.55096C8.65501 5.39221 8.99505 5.4545 9.16423 5.71026C9.47047 6.17323 9.77676 6.63438 10.0827 7.09496L10.0833 7.09596C10.7588 8.11297 11.4325 9.12725 12.0999 10.1524C12.4132 10.6339 12.2762 11.2777 11.7934 11.5905C11.4731 11.798 11.1066 11.8626 10.7583 11.7166L10.1799 11.4741L9.961 12.061C9.87389 12.2945 9.70741 12.4685 9.49016 12.6093C9.19377 12.8013 8.83619 12.8245 8.52967 12.7007L8.06497 12.513L7.79594 12.9352C7.72706 13.0433 7.63421 13.1392 7.5177 13.2147C7.08654 13.4941 6.51012 13.3717 6.23029 12.9418C6.18 12.8646 6.12971 12.7873 6.07942 12.71C5.63363 12.025 5.18763 11.3396 4.73556 10.658C4.50221 10.3061 4.10762 10.0946 3.68499 10.0946H1.25981C1.2287 10.0946 1.20404 10.0696 1.20404 10.0393V5.1265C1.20404 5.09625 1.2287 5.07118 1.25981 5.07118H1.89953C2.00483 5.07118 2.09527 5.00312 2.12893 4.9072C2.20826 4.68115 2.31533 4.46263 2.45016 4.25691C2.55338 4.09942 2.45023 3.86929 2.24642 3.86929H1.25981C0.564346 3.86929 0 4.43185 0 5.1265V10.0393C0 10.734 0.564344 11.2965 1.25981 11.2965H3.68499C3.70386 11.2965 3.72133 11.306 3.73159 11.3214C4.181 11.9991 4.62453 12.6806 5.06835 13.3626L5.06861 13.363L5.07346 13.3705C5.12252 13.4459 5.17159 13.5213 5.22067 13.5967C5.86281 14.5832 7.18468 14.8634 8.17322 14.2229C8.30063 14.1403 8.41658 14.0462 8.5204 13.9428C9.0635 14.0413 9.64525 13.9416 10.1457 13.6174C10.4101 13.4461 10.6463 13.2386 10.8303 12.9753C11.4075 13.0615 11.9672 12.9107 12.4489 12.5986C13.4895 11.9244 13.7854 10.536 13.1095 9.4976C12.0969 7.94195 11.0454 6.41378 9.98134 4.89456C9.42304 4.09748 8.27886 3.99704 7.58966 4.68431L7.58939 4.68458L6.36352 5.89213L5.66807 6.58595C5.29203 6.96111 4.68221 6.96111 4.30617 6.58595C3.93031 6.21096 3.93031 5.60313 4.30617 5.22814L6.17649 3.36218C6.8577 2.68256 7.72472 2.59925 8.66971 2.59925C9.38398 2.59925 10.0684 2.88281 10.5764 3.38661L10.5809 3.39106L10.5858 3.39496C10.7092 3.49174 10.8267 3.59708 10.9374 3.7106L11.9406 4.73925C12.1468 4.95075 12.4299 5.07 12.7255 5.07H14.796V10.1057H14.4647C14.3155 10.1057 14.2071 10.238 14.2231 10.3796C14.2478 10.5983 14.2481 10.8182 14.225 11.0352C14.2099 11.1764 14.3182 11.3076 14.4667 11.3076H15.2335C15.6565 11.3076 16 10.9654 16 10.5425V4.63312C16 4.21031 15.6565 3.86811 15.2335 3.86811H12.7713L11.8002 2.87225C10.903 1.95226 9.67123 1.43333 8.38482 1.43333Z" fill="#161823"/>
</svg>
