<svg width="20" height="20" viewBox="0 0 20 20" fill="none" xmlns="http://www.w3.org/2000/svg">
<path fill-rule="evenodd" clip-rule="evenodd" d="M10.6101 17.8469C10.2391 18.2624 9.70849 18.5 9.15144 18.5C7.83915 18.5 6.89938 17.2329 7.28028 15.9771L8.07812 13.3467H4.06254C3.1881 13.3467 2.47921 12.6378 2.47921 11.7634V10.3163C2.47921 9.90156 2.5586 9.49065 2.71308 9.10575L4.84876 3.78465C5.15306 3.02648 5.8879 2.5296 6.70486 2.52961L16.7975 2.52971C17.672 2.52971 18.3809 3.23859 18.3809 4.11304V11.7634C18.3809 12.6378 17.672 13.3467 16.7975 13.3467H14.6276L10.6101 17.8469ZM15.0417 11.8467H16.7975C16.8435 11.8467 16.8809 11.8094 16.8809 11.7634V4.11304C16.8809 4.06702 16.8435 4.02971 16.7975 4.02971H15.0417V11.8467ZM13.5417 4.0297L6.70484 4.02961C6.5006 4.02961 6.31689 4.15383 6.24082 4.34337L4.10514 9.66447C4.02196 9.87173 3.97921 10.093 3.97921 10.3163V11.7634C3.97921 11.8094 4.01652 11.8467 4.06254 11.8467H9.08935C9.32683 11.8467 9.55028 11.9592 9.69175 12.1499C9.83322 12.3407 9.87599 12.5871 9.80706 12.8144L8.71571 16.4125C8.62701 16.7049 8.84585 17 9.15144 17C9.28115 17 9.40472 16.9447 9.4911 16.8479L13.5417 12.3106V4.0297Z" fill="#161823"/>
</svg>
