<svg width="16" height="16" viewBox="0 0 16 16" fill="none" xmlns="http://www.w3.org/2000/svg">
<path d="M10.4108 9.22321C10.3873 9.4816 10.4618 9.63012 10.5901 9.72008C10.7858 9.85717 11.0445 9.85671 11.2767 9.85629C11.2895 9.85626 11.3021 9.85624 11.3147 9.85624C12.3711 9.74595 13.0673 8.63903 12.9777 7.02113C12.8931 5.49371 11.9286 3.76889 9.61889 3.00796C8.57005 2.66242 7.43409 2.66545 6.37789 3.00843C5.32368 3.35077 4.40489 4.01802 3.75319 4.91459C3.10148 5.81116 2.75031 6.89101 2.75 7.99941C2.74969 9.10781 3.10024 10.1879 3.75144 11.0848C4.40264 11.9817 5.32105 12.6495 6.37506 12.9924C7.42907 13.3354 8.56459 13.3359 9.6189 12.9938C10.0129 12.866 10.4359 13.0818 10.5637 13.4758C10.6916 13.8698 10.4758 14.2928 10.0818 14.4206C8.72619 14.8604 7.26618 14.8598 5.91097 14.4188C4.55575 13.9779 3.3749 13.1193 2.53762 11.9661C1.70033 10.8128 1.2496 9.42412 1.25 7.99898C1.2504 6.57384 1.70193 5.18541 2.53986 4.03264C3.3778 2.87987 4.55914 2.02193 5.9146 1.58177C7.26808 1.14225 8.73078 1.13607 10.0882 1.58329C13.0034 2.54368 14.3578 4.81509 14.4754 6.93818C14.588 8.9708 13.5 11.1591 11.1742 11.3967C10.702 11.4204 10.2337 11.361 9.80144 11.1591C9.48405 11.0108 9.21963 10.8013 9.05816 10.5509C8.55605 11.0894 7.77062 11.3753 6.90956 11.3753C6.18387 11.3753 5.61188 11.0999 5.24383 10.5986C4.70813 9.86893 4.75902 8.95429 4.83686 8.10063C4.91795 7.21135 5.0696 6.32042 5.71257 5.64609C6.18095 5.15486 6.81486 4.88464 7.55187 4.88464C7.8064 4.88464 8.17247 4.92564 8.51432 5.06203C8.77937 5.16777 9.03489 5.33306 9.2093 5.58558C9.25563 5.46277 9.32465 5.35587 9.41483 5.26958C9.57016 5.12095 9.77756 5.04381 10.0105 5.04381C10.2445 5.04381 10.4357 5.12371 10.5614 5.27366C10.6864 5.42273 10.7384 5.63111 10.7164 5.87223L10.4108 9.22321ZM6.44098 8.07969C6.39649 8.56758 6.33056 9.1224 6.61087 9.55475C6.77982 9.81535 7.05466 9.95299 7.44882 9.95299C7.8397 9.95299 8.13997 9.81878 8.35628 9.56873C8.71577 9.15316 8.75216 8.58558 8.79981 8.06294C8.84416 7.57662 8.9077 7.04377 8.60233 6.62309C8.42031 6.37233 8.1385 6.23152 7.77133 6.23152C7.40587 6.23152 7.10787 6.37503 6.88704 6.63942C6.54921 7.04388 6.48705 7.57442 6.44098 8.07969Z" fill="#161823"/>
</svg>
