<svg width="16" height="16" viewBox="0 0 16 16" fill="none" xmlns="http://www.w3.org/2000/svg">
<path d="M3.32192 6.10041C3.37127 6.08357 3.42019 6.06734 3.46846 6.05174C4.00573 5.8781 4.53288 6.27482 4.57999 6.83749C4.64001 7.55441 4.72577 8.46464 4.81287 9.00354C4.88584 9.45496 5.00649 10.1122 5.1161 10.6933C5.23779 11.3384 4.71951 11.9272 4.06575 11.8672C3.79148 11.842 3.50872 11.8133 3.25603 11.7824C2.80395 11.7271 2.40829 11.5563 2.13181 11.4045C1.85392 11.2518 1.68818 10.9671 1.63353 10.6548C1.55711 10.2182 1.4522 9.59013 1.41449 9.22901C1.39062 9.00043 1.35577 8.67386 1.32194 8.35863C1.25447 7.73 1.43897 7.10989 1.96329 6.75869C2.32508 3.76747 4.87484 1.40002 8.01954 1.40002C11.2175 1.40002 13.8031 3.8493 14.0927 6.91699C14.4667 7.27945 14.5963 7.81586 14.538 8.35863C14.5042 8.67386 14.4694 9.00043 14.4455 9.22901C14.4078 9.59013 14.3029 10.2182 14.2265 10.6548C14.1759 10.9435 14.0305 11.2086 13.7893 11.3676C13.5825 12.3973 13.0316 13.2117 12.0948 13.7608C11.3951 14.171 10.5061 14.418 9.43605 14.5294C9.22339 14.815 8.88315 14.9999 8.49971 14.9999C7.85538 14.9999 7.33304 14.4776 7.33304 13.8333C7.33304 13.1889 7.85538 12.6666 8.49971 12.6666C8.95549 12.6666 9.35023 12.928 9.54222 13.309C10.3814 13.2011 11.0186 13.0007 11.4879 12.7256C11.8912 12.4892 12.1862 12.1889 12.3824 11.8082C12.1914 11.8293 11.9907 11.8491 11.7942 11.8672C11.1405 11.9272 10.6222 11.3384 10.7439 10.6933C10.8535 10.1122 10.9741 9.45496 11.0471 9.00354C11.1342 8.46464 11.22 7.55441 11.28 6.83749C11.3271 6.27482 11.8542 5.8781 12.3915 6.05174C12.5043 6.08819 12.6207 6.12808 12.7377 6.1713C12.1615 4.12498 10.2811 2.60002 8.01954 2.60002C5.78292 2.60002 3.92096 4.0909 3.32192 6.10041Z" fill="#161823"/>
</svg>
