<svg width="20" height="20" viewBox="0 0 20 20" fill="none" xmlns="http://www.w3.org/2000/svg">
<path d="M9.7961 1.77935C9.9319 1.7402 10.076 1.74022 10.2118 1.7794L16.8752 3.70217C17.1963 3.79481 17.4173 4.08864 17.4173 4.42277V8.36591C17.4173 12.8392 14.5196 16.8026 10.2361 18.2124C10.0838 18.2625 9.91949 18.2625 9.76721 18.2124C5.48257 16.8026 2.58398 12.8384 2.58398 8.36409V4.42277C2.58398 4.08857 2.80511 3.79469 3.12624 3.70212L9.7961 1.77935ZM4.08398 4.98711V8.36409C4.08398 12.0991 6.45261 15.4316 10.0016 16.7069C13.5495 15.4316 15.9173 12.1 15.9173 8.36591V4.98696L10.0038 3.28057L4.08398 4.98711Z" fill="#161823"/>
</svg>
