<svg width="12" height="12" viewBox="0 0 12 12" fill="none" xmlns="http://www.w3.org/2000/svg">
<path d="M5.50725 3.99995C5.50326 3.72502 5.72504 3.5 6 3.5C6.27496 3.5 6.49674 3.72502 6.49275 3.99995L6.45574 6.55083C6.45212 6.79995 6.24914 7 6 7C5.75086 7 5.54788 6.79995 5.54426 6.55083L5.50725 3.99995Z" fill="#161823"/>
<path d="M6 8.6C6.30375 8.6 6.55 8.35376 6.55 8.05C6.55 7.74624 6.30375 7.5 6 7.5C5.69624 7.5 5.45 7.74624 5.45 8.05C5.45 8.35376 5.69624 8.6 6 8.6Z" fill="#161823"/>
<path d="M6 11C8.76142 11 11 8.76142 11 6C11 3.23858 8.76142 1 6 1C3.23858 1 1 3.23858 1 6C1 8.76142 3.23858 11 6 11ZM6 10C3.79086 10 2 8.20914 2 6C2 3.79086 3.79086 2 6 2C8.20914 2 10 3.79086 10 6C10 8.20914 8.20914 10 6 10Z" fill="#161823"/>
</svg>
