<svg width="20" height="20" viewBox="0 0 20 20" fill="none" xmlns="http://www.w3.org/2000/svg">
<path d="M8.54167 15.0001C8.54167 14.6549 8.82149 14.3751 9.16667 14.3751H10.8333C11.1785 14.3751 11.4583 14.6549 11.4583 15.0001C11.4583 15.3453 11.1785 15.6251 10.8333 15.6251H9.16667C8.82149 15.6251 8.54167 15.3453 8.54167 15.0001Z" fill="#161823"/>
<path fill-rule="evenodd" clip-rule="evenodd" d="M6.10672 2.16675C4.59801 2.16675 3.25493 3.12252 2.76058 4.54793L2.13968 6.33823C1.75469 7.44833 1.6492 9.03373 2.82519 9.98119C2.89389 10.0365 2.96606 10.0907 3.04167 10.1429V14.2917C3.04167 16.2478 4.62732 17.8334 6.58333 17.8334H13.4167C15.3727 17.8334 16.9583 16.2478 16.9583 14.2917V10.1428C17.0339 10.0907 17.106 10.0365 17.1747 9.98119C18.3507 9.03373 18.2452 7.44833 17.8602 6.33823L17.2393 4.54794C16.745 3.12252 15.4019 2.16675 13.8932 2.16675H6.10672ZM15.7083 10.6603C15.5527 10.6864 15.3899 10.7007 15.2201 10.7007C13.9633 10.7007 13.1014 9.9295 12.6142 9.32227C12.1295 9.93176 11.2698 10.7007 9.99995 10.7007C8.7217 10.7007 7.86491 9.93734 7.382 9.32689C6.89443 9.93306 6.03363 10.7007 4.7798 10.7007C4.61005 10.7007 4.44731 10.6864 4.29167 10.6603V14.2917C4.29167 15.5574 5.31768 16.5834 6.58333 16.5834H13.4167C14.6823 16.5834 15.7083 15.5574 15.7083 14.2917V10.6603ZM3.94157 4.95752C4.26144 4.03519 5.1305 3.41675 6.10672 3.41675H13.8932C14.8694 3.41675 15.7385 4.03519 16.0583 4.95752L16.6792 6.74781C17.0141 7.71336 16.9253 8.57695 16.3905 9.00781C16.0667 9.2687 15.6802 9.4507 15.2201 9.4507C14.3836 9.4507 13.7759 8.83448 13.4186 8.30927C13.2098 8.00234 12.873 7.8968 12.6089 7.89798C12.3448 7.89917 12.0097 8.00763 11.8034 8.31496C11.4544 8.83511 10.853 9.4507 9.99995 9.4507C9.1359 9.4507 8.5414 8.84074 8.1985 8.32577C7.99237 8.01621 7.65564 7.90723 7.39201 7.90498C7.12838 7.90274 6.78831 8.00615 6.57735 8.31504C6.21908 8.8396 5.61287 9.4507 4.7798 9.4507C4.31967 9.4507 3.93324 9.2687 3.60942 9.00781C3.07464 8.57695 2.98581 7.71336 3.32068 6.74781L3.94157 4.95752Z" fill="#161823"/>
</svg>
