<svg width="20" height="20" viewBox="0 0 20 20" fill="none" xmlns="http://www.w3.org/2000/svg">
<path d="M14.9093 4.67863L14.909 4.67966L12.3769 13.6458C12.1489 14.4559 11.398 14.9876 10.577 14.9876L2.47921 14.9876C1.52983 14.9876 0.738544 14.0891 1.04899 13.0948L1.92589 10.2483C2.05337 9.81344 2.39712 9.48346 2.81716 9.35206L4.81734 8.67536L4.83107 8.67129C5.0477 8.60711 5.26971 8.60023 5.48013 8.64055L5.8737 7.34371C6.00219 6.90309 6.35275 6.56995 6.77985 6.44162L6.79196 6.43798L8.92141 5.8372C9.13753 5.77419 9.35889 5.76811 9.56861 5.80893L9.97034 4.48601C10.0979 4.04857 10.4443 3.71697 10.8672 3.58643L12.9938 2.89397L12.9954 2.89344C14.0638 2.54225 15.2503 3.48013 14.9093 4.67863ZM9.10237 7.3443L7.28534 7.85744L6.58322 10.171C6.57321 10.2277 6.55947 10.2852 6.54179 10.3434L6.53181 10.3404L5.5767 13.4876H7.23686L9.10237 7.3443ZM8.80449 13.4876H10.577C10.7611 13.4876 10.8965 13.3691 10.9332 13.2389L13.4511 4.32258L11.3831 4.99595L10.6589 7.38101C10.65 7.42367 10.639 7.46677 10.6257 7.51024L10.6201 7.50853L8.80449 13.4876ZM5.00864 10.1942L3.338 10.7594L2.49754 13.4876H4.00915L5.00864 10.1942Z" fill="#161823"/>
<path d="M4.93291 15.6333C5.44837 15.6333 5.86624 16.0512 5.86624 16.5667C5.86624 17.0821 5.44837 17.5 4.93291 17.5C4.41744 17.5 3.99957 17.0821 3.99957 16.5667C3.99957 16.0512 4.41744 15.6333 4.93291 15.6333Z" fill="#161823"/>
<path d="M12.4143 16.5667C12.4143 16.0512 11.9965 15.6334 11.481 15.6334C10.9656 15.6334 10.5477 16.0512 10.5477 16.5667C10.5477 17.0822 10.9656 17.5 11.481 17.5C11.9965 17.5 12.4143 17.0822 12.4143 16.5667Z" fill="#161823"/>
<path d="M16.0662 6.91879C15.652 6.91879 15.3162 7.25457 15.3162 7.66879C15.3162 8.083 15.652 8.41879 16.0662 8.41879H17.3329C17.7471 8.41879 18.0829 8.083 18.0829 7.66879C18.0829 7.25457 17.7471 6.91879 17.3329 6.91879H16.0662Z" fill="#161823"/>
<path d="M14.4496 10.4688C14.4496 10.0546 14.7854 9.71878 15.1996 9.71878H18.2662C18.6805 9.71878 19.0162 10.0546 19.0162 10.4688C19.0162 10.883 18.6805 11.2188 18.2662 11.2188H15.1996C14.7854 11.2188 14.4496 10.883 14.4496 10.4688Z" fill="#161823"/>
<path d="M14.2662 12.5521C13.852 12.5521 13.5162 12.8879 13.5162 13.3021C13.5162 13.7163 13.852 14.0521 14.2662 14.0521H16.2662C16.6804 14.0521 17.0162 13.7163 17.0162 13.3021C17.0162 12.8879 16.6804 12.5521 16.2662 12.5521H14.2662Z" fill="#161823"/>
</svg>
