<svg width="24" height="24" viewBox="0 0 24 24" fill="none" xmlns="http://www.w3.org/2000/svg">
<path d="M12 1C9.10051 1 6.75 3.35051 6.75 6.25V9C5.23122 9 4 10.2312 4 11.75V19.25C4 20.7688 5.23122 22 6.75 22H17.25C18.7688 22 20 20.7688 20 19.25V11.75C20 10.2312 18.7688 9 17.25 9V6.25C17.25 3.3505 14.8995 1 12 1ZM15.75 9H8.25V6.25C8.25 4.17893 9.92893 2.5 12 2.5C14.0711 2.5 15.75 4.17893 15.75 6.25V9ZM18.5 11.75V19.25C18.5 19.9404 17.9404 20.5 17.25 20.5H6.75C6.05964 20.5 5.5 19.9404 5.5 19.25V11.75C5.5 11.0596 6.05964 10.5 6.75 10.5H17.25C17.9404 10.5 18.5 11.0596 18.5 11.75Z" fill="#161823"/>
</svg>
