<svg width="24" height="24" viewBox="0 0 24 24" fill="none" xmlns="http://www.w3.org/2000/svg">
<path d="M12.0889 1.61685C11.7896 1.35279 11.3188 1.56528 11.3188 1.96437V3.91729C9.51309 4.04966 7.77974 4.70671 6.33552 5.81484C4.71069 7.06154 3.54263 8.80953 3.01246 10.7877C2.4823 12.7659 2.61966 14.8638 3.40325 16.7559C4.18683 18.6481 5.57286 20.2288 7.34637 21.253C9.11989 22.2772 11.1818 22.6876 13.2123 22.4206C15.2428 22.1535 17.1285 21.2239 18.5769 19.776C20.0252 18.3281 20.9554 16.4427 21.2231 14.4123C21.4908 12.3818 21.081 10.3198 20.0574 8.54597C19.8373 8.16451 19.3496 8.03372 18.9681 8.25385C18.5866 8.47399 18.4559 8.96168 18.676 9.34315C19.5241 10.8129 19.8636 12.5214 19.6418 14.2038C19.42 15.8862 18.6493 17.4483 17.4493 18.648C16.2492 19.8477 14.6868 20.618 13.0043 20.8392C11.3219 21.0605 9.61347 20.7205 8.14399 19.8719C6.6745 19.0232 5.52608 17.7135 4.87683 16.1457C4.22757 14.5779 4.11375 12.8397 4.55303 11.2006C4.99231 9.56153 5.96014 8.11319 7.30642 7.08021C8.47193 6.18593 9.86471 5.64621 11.3188 5.5174V7.41539C11.3188 7.8145 11.7896 8.02697 12.0889 7.76292L15.0465 5.15325C15.3253 4.90725 15.3253 4.47252 15.0465 4.22651L12.0889 1.61685Z" fill="#161823"/>
<path d="M11.8054 17.3873C10.3984 17.3873 9.4016 16.5929 9.4016 15.7986C9.4016 15.4507 9.62485 15.1755 9.97271 15.1755C10.1908 15.1755 10.3569 15.269 10.5282 15.513C10.8553 16.0011 11.2707 16.2451 11.8002 16.2451C12.5842 16.2451 13.1397 15.6999 13.1397 14.916C13.1397 14.1579 12.605 13.6388 11.8573 13.6388C11.5095 13.6388 11.1564 13.7686 10.8501 14.0074C10.5438 14.267 10.3932 14.3293 10.2011 14.3293C9.77542 14.3293 9.48467 14.023 9.51582 13.5453L9.70792 10.8767C9.74426 10.3835 10.0402 10.1446 10.6113 10.1446H13.5499C13.9652 10.1446 14.2093 10.3575 14.2093 10.7209C14.2093 11.0844 13.9704 11.2869 13.5499 11.2869H10.8657L10.7203 13.1196H10.793C11.037 12.7873 11.6133 12.5589 12.2208 12.5589C13.5707 12.5589 14.5 13.4934 14.5 14.864C14.5 16.3749 13.4149 17.3873 11.8054 17.3873Z" fill="#161823"/>
</svg>
