<svg width="20" height="20" viewBox="0 0 20 20" fill="none" xmlns="http://www.w3.org/2000/svg">
<path d="M11.6489 4.66881V8.25502H10.5019C9.51288 8.25502 9.07521 8.25601 8.71464 8.29313C5.33702 8.64082 2.65881 11.2843 2.25815 14.6455C3.86589 13.0168 6.07022 12.0634 8.40865 12.0428C8.44714 12.0425 8.48762 12.0425 8.55851 12.0425H11.6489V15.0622L17.4531 9.90286C17.4755 9.88297 17.4755 9.848 17.4531 9.82811L11.6489 4.66881ZM2.35711 16.9189C2.34051 16.9451 2.32284 16.9736 2.28271 17.0384L2.28151 17.0403L2.27327 17.0535L2.2693 17.0596C1.81313 17.7601 0.725951 17.4504 0.707246 16.6148L0.707079 16.6073L0.707035 16.5901L0.707033 16.5881L0.707032 16.5279C0.707012 15.589 0.707 15.0562 0.753028 14.609C1.17752 10.4854 4.43739 7.2255 8.56104 6.80101C8.95775 6.76018 9.41202 6.75558 10.1489 6.75508V3.44405C10.1489 2.62434 11.1174 2.18942 11.73 2.73401L18.4497 8.707C19.1433 9.32358 19.1433 10.4074 18.4497 11.024L11.73 16.997C11.1174 17.5415 10.1489 17.1066 10.1489 16.2869V13.5425H8.56262C8.48643 13.5425 8.45291 13.5425 8.42183 13.5427C5.95789 13.5644 3.67362 14.836 2.35711 16.9189Z" fill="#161823"/>
</svg>
