<svg width="16" height="16" viewBox="0 0 16 16" fill="none" xmlns="http://www.w3.org/2000/svg">
<path d="M8.16897 13.7433C8.57947 13.3738 8.61275 12.7415 8.24329 12.331L4.34536 8L8.24329 3.66896C8.61275 3.25845 8.57947 2.62616 8.16896 2.2567C7.75845 1.88724 7.12616 1.92052 6.75671 2.33103L2.25671 7.33104C1.91443 7.71134 1.91443 8.28866 2.25671 8.66897L6.75671 13.669C7.12617 14.0795 7.75846 14.1127 8.16897 13.7433Z" fill="#161823"/>
<path d="M13.669 13.7433C14.0795 13.3738 14.1128 12.7415 13.7433 12.331L9.84536 8L13.7433 3.66896C14.1128 3.25845 14.0795 2.62616 13.669 2.2567C13.2585 1.88724 12.6262 1.92052 12.2567 2.33103L7.75671 7.33104C7.41443 7.71135 7.41443 8.28866 7.75671 8.66897L12.2567 13.669C12.6262 14.0795 13.2585 14.1127 13.669 13.7433Z" fill="#161823"/>
</svg>
