<svg width="24" height="24" viewBox="0 0 24 24" fill="none" xmlns="http://www.w3.org/2000/svg">
<path fill-rule="evenodd" clip-rule="evenodd" d="M11.1825 8.28333C10.1547 8.28333 9.32143 9.11657 9.32143 10.1444V10.8548H8.61111C7.58325 10.8548 6.75 11.688 6.75 12.7159V14.3508C6.75 15.3786 7.58325 16.2119 8.61111 16.2119H9.32143V16.9222C9.32143 17.9501 10.1547 18.7833 11.1825 18.7833H12.8175C13.8453 18.7833 14.6786 17.9501 14.6786 16.9222V16.2119H15.3889C16.4168 16.2119 17.25 15.3786 17.25 14.3508V12.7159C17.25 11.688 16.4168 10.8548 15.3889 10.8548H14.6786V10.1444C14.6786 9.11657 13.8453 8.28333 12.8175 8.28333H11.1825ZM10.8214 10.1444C10.8214 9.945 10.9831 9.78333 11.1825 9.78333H12.8175C13.0169 9.78333 13.1786 9.945 13.1786 10.1444V11.6048C13.1786 12.019 13.5144 12.3548 13.9286 12.3548H15.3889C15.5883 12.3548 15.75 12.5164 15.75 12.7159V14.3508C15.75 14.5502 15.5883 14.7119 15.3889 14.7119H13.9286C13.5144 14.7119 13.1786 15.0477 13.1786 15.4619V16.9222C13.1786 17.1216 13.0169 17.2833 12.8175 17.2833H11.1825C10.9831 17.2833 10.8214 17.1217 10.8214 16.9222V15.4619C10.8214 15.0477 10.4856 14.7119 10.0714 14.7119H8.61111C8.41167 14.7119 8.25 14.5502 8.25 14.3508V12.7159C8.25 12.5164 8.41168 12.3548 8.61111 12.3548H10.0714C10.4856 12.3548 10.8214 12.019 10.8214 11.6048V10.1444Z" fill="#161823"/>
<path fill-rule="evenodd" clip-rule="evenodd" d="M17.7 4.5V5.02673C19.5589 5.24906 21 6.83124 21 8.75V18.25C21 20.3211 19.3211 22 17.25 22H6.75C4.67893 22 3 20.3211 3 18.25V8.75C3 6.83121 4.44112 5.249 6.30005 5.02672V4.5C6.30005 3.11929 7.41934 2 8.80005 2H15.2C16.5808 2 17.7 3.11929 17.7 4.5ZM8.80005 3.5H15.2C15.7523 3.5 16.2 3.94772 16.2 4.5V5H7.80005V4.5C7.80005 3.94771 8.24776 3.5 8.80005 3.5ZM17.25 6.5H6.75C5.50736 6.5 4.5 7.50736 4.5 8.75V18.25C4.5 19.4926 5.50736 20.5 6.75 20.5H17.25C18.4926 20.5 19.5 19.4926 19.5 18.25V8.75C19.5 7.50736 18.4926 6.5 17.25 6.5Z" fill="#161823"/>
</svg>
