<svg width="24" height="24" viewBox="0 0 24 24" fill="none" xmlns="http://www.w3.org/2000/svg">
<path d="M18.061 3H5.93904C5.39592 2.99999 4.94254 2.99998 4.57239 3.03072C4.18625 3.06279 3.82396 3.13215 3.48232 3.30961C2.98005 3.57052 2.57052 3.98005 2.30962 4.48232C2.13215 4.82396 2.06279 5.18625 2.03072 5.57239C1.99998 5.94254 1.99999 6.39586 2 6.93898V14.061C1.99999 14.6041 1.99998 15.0575 2.03072 15.4276C2.06279 15.8138 2.13215 16.176 2.30962 16.5177C2.57052 17.0199 2.98005 17.4295 3.48232 17.6904C3.82396 17.8679 4.18625 17.9372 4.57239 17.9693C4.94255 18 5.3959 18 5.93905 18H12.5974C12.4533 17.523 12.3689 17.0201 12.3528 16.5H5.97C5.38792 16.5 4.99722 16.4994 4.69653 16.4744C4.40482 16.4502 4.26563 16.407 4.17378 16.3593C3.94548 16.2407 3.75933 16.0545 3.64074 15.8262C3.59303 15.7344 3.5498 15.5952 3.52558 15.3035C3.5006 15.0028 3.5 14.6121 3.5 14.03V6.97C3.5 6.38792 3.5006 5.99722 3.52558 5.69653C3.5498 5.40482 3.59303 5.26563 3.64074 5.17378C3.75933 4.94548 3.94548 4.75933 4.17378 4.64073C4.26563 4.59303 4.40482 4.5498 4.69653 4.52558C4.99722 4.5006 5.38792 4.5 5.97 4.5H18.03C18.6121 4.5 19.0028 4.5006 19.3035 4.52558C19.5952 4.5498 19.7344 4.59303 19.8262 4.64073C20.0545 4.75933 20.2407 4.94548 20.3593 5.17378C20.407 5.26563 20.4502 5.40482 20.4744 5.69653C20.4994 5.99722 20.5 6.38792 20.5 6.97V10.9871C21.0496 11.2281 21.5549 11.5516 22 11.9421V6.93904C22 6.3959 22 5.94255 21.9693 5.57239C21.9372 5.18625 21.8679 4.82396 21.6904 4.48232C21.4295 3.98005 21.0199 3.57052 20.5177 3.30961C20.176 3.13215 19.8138 3.06279 19.4276 3.03072C19.0575 2.99998 18.6041 2.99999 18.061 3Z" fill="#161823"/>
<path d="M13.2978 19.5C13.6781 20.0805 14.1595 20.5888 14.7169 21H5.75C5.33579 21 5 20.6642 5 20.25C5 19.8358 5.33579 19.5 5.75 19.5H13.2978Z" fill="#161823"/>
<path d="M17.75 7.25V10.5147C17.228 10.5516 16.7249 10.6574 16.25 10.8231V7.25C16.25 6.83579 16.5858 6.5 17 6.5C17.4142 6.5 17.75 6.83579 17.75 7.25Z" fill="#161823"/>
<path d="M14.41 11.8755V10.25C14.41 9.83579 14.0742 9.5 13.66 9.5C13.2458 9.5 12.91 9.83579 12.91 10.25V13.75C12.91 13.7725 12.911 13.7948 12.913 13.8168C13.2702 13.0673 13.7832 12.4062 14.41 11.8755Z" fill="#161823"/>
<path d="M10.3334 8.5C10.7476 8.5 11.0834 8.83579 11.0834 9.25V13.75C11.0834 14.1642 10.7476 14.5 10.3334 14.5C9.91916 14.5 9.58338 14.1642 9.58338 13.75V9.25C9.58338 8.83579 9.91916 8.5 10.3334 8.5Z" fill="#161823"/>
<path d="M7 11.5C7.41422 11.5 7.75 11.8358 7.75 12.25V13.75C7.75 14.1642 7.41422 14.5 7 14.5C6.58579 14.5 6.25 14.1642 6.25 13.75V12.25C6.25 11.8358 6.58579 11.5 7 11.5Z" fill="#161823"/>
<path fill-rule="evenodd" clip-rule="evenodd" d="M13.85 16.3164C13.85 13.9325 15.7825 12 18.1664 12C20.5503 12 22.4828 13.9325 22.4828 16.3164C22.4828 17.2375 22.1943 18.0912 21.7027 18.7921L23.6437 20.733C23.9366 21.0259 23.9366 21.5008 23.6437 21.7937C23.3508 22.0866 22.8759 22.0866 22.583 21.7937L20.6421 19.8527C19.9412 20.3443 19.0875 20.6328 18.1664 20.6328C15.7825 20.6328 13.85 18.7003 13.85 16.3164ZM18.1664 13.5C16.6109 13.5 15.35 14.7609 15.35 16.3164C15.35 17.8719 16.6109 19.1328 18.1664 19.1328C19.7218 19.1328 20.9828 17.8719 20.9828 16.3164C20.9828 14.7609 19.7218 13.5 18.1664 13.5Z" fill="#161823"/>
</svg>
