<svg width="24" height="24" viewBox="0 0 24 24" fill="none" xmlns="http://www.w3.org/2000/svg">
<path fill-rule="evenodd" clip-rule="evenodd" d="M12.4117 2.98367C12.8284 2.51689 13.4245 2.25 14.0502 2.25C15.5243 2.25 16.5799 3.6733 16.152 5.08391L15.1359 8.43395H20.1569C21.1234 8.43395 21.9069 9.21745 21.9069 10.184V11.9204C21.9069 12.399 21.8153 12.8731 21.637 13.3172L19.5244 18.5809L22.044 21.1005C22.3369 21.3934 22.3369 21.8683 22.044 22.1612C21.7511 22.4541 21.2762 22.4541 20.9833 22.1612L2.98334 4.16119C2.69045 3.8683 2.69045 3.39342 2.98334 3.10053C3.27623 2.80764 3.75111 2.80764 4.044 3.10053L8.40983 7.46636L12.4117 2.98367ZM9.47219 8.52872L18.371 17.4275L20.2449 12.7585C20.3519 12.492 20.4069 12.2076 20.4069 11.9204V10.184C20.4069 10.0459 20.2949 9.93395 20.1569 9.93395H14.1247C13.8872 9.93395 13.6638 9.82148 13.5223 9.63074C13.3808 9.43999 13.338 9.19352 13.407 8.96626L14.7166 4.64853C14.8523 4.20128 14.5176 3.75 14.0502 3.75C13.8518 3.75 13.6628 3.83462 13.5307 3.98262L9.47219 8.52872Z" fill="#161823"/>
<path d="M16.3174 19.6145L17.701 20.998C17.4745 21.0739 17.2336 21.1145 16.9861 21.1145L4.87488 21.1143C3.90838 21.1143 3.12488 20.3308 3.12488 19.3643V10.184C3.12488 9.21746 3.90838 8.43395 4.87488 8.43395H5.13695L6.63695 9.93395H4.87488C4.73681 9.93395 4.62488 10.0459 4.62488 10.184V19.3643C4.62488 19.5024 4.73681 19.6143 4.87488 19.6143H7.13184V10.4289L8.63184 11.9289V19.6144L16.3174 19.6145Z" fill="#161823"/>
</svg>
