<svg width="24" height="24" viewBox="0 0 24 24" fill="none" xmlns="http://www.w3.org/2000/svg">
<path d="M16.0341 3.03536C16.6394 2.43004 17.6208 2.43004 18.2261 3.03536L20.0646 4.87383C20.6699 5.47915 20.6699 6.46055 20.0646 7.06586L9.59506 17.5354C9.35667 17.7738 9.05451 17.9383 8.7249 18.009L5.48001 18.7055C4.80028 18.8515 4.19919 18.2418 4.3547 17.5642L5.0909 14.3563C5.16442 14.036 5.32669 13.7428 5.55912 13.5103L16.0341 3.03536Z" fill="#161823"/>
<path d="M3.75 20.5249C3.33579 20.5249 3 20.8607 3 21.2749C3 21.6891 3.33579 22.0249 3.75 22.0249H20.25C20.6642 22.0249 21 21.6891 21 21.2749C21 20.8607 20.6642 20.5249 20.25 20.5249H3.75Z" fill="#161823"/>
</svg>
