<svg width="24" height="24" viewBox="0 0 24 24" fill="none" xmlns="http://www.w3.org/2000/svg">
<path d="M16.1722 10.835C17.0035 11.3891 17.0035 12.6106 16.1722 13.1647L11.2569 16.4416C10.3265 17.0618 9.08034 16.3949 9.08034 15.2767L9.08034 8.72297C9.08034 7.6048 10.3265 6.93785 11.2569 7.5581L16.1722 10.835ZM10.5803 8.90982V15.0899L15.2154 11.9998L10.5803 8.90982Z" fill="#161823"/>
<path d="M22 12C22 17.5228 17.5228 22 12 22C6.47715 22 2 17.5228 2 12C2 6.47715 6.47715 2 12 2C17.5228 2 22 6.47715 22 12ZM20.5 12C20.5 7.30558 16.6944 3.5 12 3.5C7.30558 3.5 3.5 7.30558 3.5 12C3.5 16.6944 7.30558 20.5 12 20.5C16.6944 20.5 20.5 16.6944 20.5 12Z" fill="#161823"/>
</svg>
