<svg width="24" height="24" viewBox="0 0 24 24" fill="none" xmlns="http://www.w3.org/2000/svg">
<path d="M11.9949 5.67008C12.2615 5.17815 12.5832 4.73447 12.9589 4.35644C13.7941 3.51594 14.8958 3 16.2506 3C19.4015 3 22 5.53708 22 9.28133C22 13.4348 18.5115 17.5575 13.1714 21.0358C12.7621 21.312 12.3018 21.5575 11.9949 21.5575C11.688 21.5575 11.2379 21.312 10.8286 21.0358C5.48849 17.5575 2 13.4348 2 9.28133C2 5.53708 4.59847 3 7.74936 3C9.1023 3 10.2077 3.51449 11.0388 4.35291C11.4143 4.7317 11.7338 5.17662 11.9949 5.67008ZM12.3527 19.7789C14.9317 18.0991 16.9965 16.3054 18.4031 14.4923C19.8097 12.6792 20.5 10.9253 20.5 9.28133C20.5 6.28694 18.4967 4.5 16.2506 4.5C15.4574 4.5 14.7865 4.75091 14.2363 5.21528L13.4021 7.38072C13.3466 7.52501 13.3609 7.6869 13.4409 7.81921L14.2798 9.20634C14.3928 9.39317 14.3715 9.63173 14.2272 9.79558L11.3824 14C11.2533 14.1465 11.0124 14.0403 11.0335 13.8462L11.5316 9.86524C11.5482 9.71187 11.4932 9.55941 11.3824 9.45209L9.6591 7.78306C9.54624 7.67376 9.49132 7.51776 9.51082 7.36187L9.77792 5.22562C9.22963 4.75667 8.55219 4.5 7.74936 4.5C5.50334 4.5 3.5 6.28694 3.5 9.28133C3.5 10.9253 4.19033 12.6792 5.59694 14.4923C7.00346 16.3054 9.06828 18.0991 11.6473 19.7789L11.6576 19.7856L11.6679 19.7925C11.8689 19.9282 12.1311 19.9282 12.3321 19.7925L12.3424 19.7856L12.3527 19.7789Z" fill="#161823"/>
</svg>
