<svg width="20" height="20" viewBox="0 0 20 20" fill="none" xmlns="http://www.w3.org/2000/svg">
<path d="M15.4027 1.12532L8.16807 2.26803C7.19602 2.42156 6.4801 3.25943 6.4801 4.24354L6.47992 13.0882C6.47992 13.5096 6.17993 13.8714 5.76575 13.9494L5.7684 13.9518L4.29072 14.2289C3.27336 14.4196 2.53613 15.3079 2.53613 16.343C2.53613 17.6904 3.76072 18.706 5.08485 18.4569L5.65151 18.3503C6.89429 18.1165 7.79456 17.031 7.79456 15.7664L7.79453 6.71467L15.244 5.54042V11.4477C15.244 11.8695 14.9436 12.2314 14.5291 12.3091L14.535 12.3144L13.0574 12.5885C12.039 12.7775 11.3002 13.666 11.3002 14.7018C11.3002 16.0481 12.5238 17.063 13.8469 16.814L14.4156 16.707C15.6583 16.4732 16.5586 15.3877 16.5586 14.1231L16.5588 2.11308C16.5588 1.49858 16.0097 1.02945 15.4027 1.12532Z" fill="#161823"/>
</svg>
