<svg width="24" height="24" viewBox="0 0 24 24" fill="none" xmlns="http://www.w3.org/2000/svg">
<path d="M10.0001 8.49982C10.0001 9.32824 9.32849 9.99982 8.50006 9.99982C7.67163 9.99982 7.00006 9.32824 7.00006 8.49982C7.00006 7.67139 7.67163 6.99982 8.50006 6.99982C9.32849 6.99982 10.0001 7.67139 10.0001 8.49982Z" fill="#161823"/>
<path d="M3 6.75V17.25C3 19.3211 4.67893 21 6.75 21H17.25C19.0622 21 20.5741 19.7146 20.9238 18.0058C20.9738 17.7616 21 17.5089 21 17.25V6.75C21 4.67893 19.3211 3 17.25 3H6.75C4.67893 3 3 4.67893 3 6.75ZM17.25 4.5C18.4926 4.5 19.5 5.50736 19.5 6.75V13.4393L16.5302 10.4695C16.3896 10.3288 16.1988 10.2498 15.9999 10.2498C15.801 10.2498 15.6102 10.3288 15.4695 10.4695L11 14.9393L8.53034 12.4697C8.23745 12.1768 7.76257 12.1768 7.46968 12.4697L4.5 15.4393V6.75C4.5 5.50736 5.50736 4.5 6.75 4.5H17.25Z" fill="#161823"/>
</svg>
