<svg width="24" height="24" viewBox="0 0 24 24" fill="none" xmlns="http://www.w3.org/2000/svg">
<path d="M8.23916 5.46435C9.57002 3.46311 11.8455 2.1442 14.429 2.1442C18.5316 2.1442 21.8574 5.46997 21.8574 9.57251C21.8574 12.1479 20.5468 14.4171 18.5562 15.7497C18.6272 15.2943 18.6641 14.8275 18.6641 14.3522C18.6641 9.38162 14.6346 5.35218 9.66406 5.35218C9.17918 5.35218 8.70326 5.39052 8.23916 5.46435Z" fill="#161823"/>
<path d="M2.16406 14.3522C2.16406 10.21 5.52193 6.85218 9.66406 6.85218C13.8062 6.85218 17.1641 10.21 17.1641 14.3522C17.1641 18.4943 13.8062 21.8522 9.66406 21.8522C5.52193 21.8522 2.16406 18.4943 2.16406 14.3522ZM8.28516 12.7508C8.28516 11.9699 7.81039 11.3369 7.22474 11.3369C6.63908 11.3369 6.16431 11.9699 6.16431 12.7508C6.16431 13.5317 6.63908 14.1647 7.22474 14.1647C7.81039 14.1647 8.28516 13.5317 8.28516 12.7508ZM13.2337 12.7508C13.2337 11.9699 12.759 11.3369 12.1733 11.3369C11.5877 11.3369 11.1129 11.9699 11.1129 12.7508C11.1129 13.5317 11.5877 14.1647 12.1733 14.1647C12.759 14.1647 13.2337 13.5317 13.2337 12.7508ZM7.5784 15.8526C7.5784 16.6893 8.52794 17.3675 9.69926 17.3675C10.8706 17.3675 11.8201 16.6893 11.8201 15.8526C11.8201 15.016 7.5784 15.016 7.5784 15.8526Z" fill="#161823"/>
</svg>
