<svg width="24" height="24" viewBox="0 0 24 24" fill="none" xmlns="http://www.w3.org/2000/svg">
<path d="M13.3057 21.6874C13.3057 21.2413 12.9441 20.8797 12.498 20.8797C12.052 20.8797 11.6904 21.2413 11.6904 21.6874C11.6904 22.1335 12.052 22.4951 12.498 22.4951C12.9441 22.4951 13.3057 22.1335 13.3057 21.6874Z" fill="#161823"/>
<path d="M16.956 20.6471C16.7889 20.2335 16.3182 20.0337 15.9046 20.2008C15.491 20.3679 15.2912 20.8386 15.4583 21.2522C15.6254 21.6658 16.0961 21.8656 16.5097 21.6985C16.9233 21.5314 17.1231 21.0607 16.956 20.6471Z" fill="#161823"/>
<path d="M9.10455 20.2062C8.69394 20.0319 8.21977 20.2234 8.04548 20.6341C7.87118 21.0447 8.06276 21.5188 8.47337 21.6931C8.88399 21.8674 9.35815 21.6758 9.53245 21.2652C9.70674 20.8546 9.51517 20.3805 9.10455 20.2062Z" fill="#161823"/>
<path d="M19.9227 18.2775C19.6072 17.9621 19.0958 17.9621 18.7804 18.2775C18.465 18.5929 18.465 19.1043 18.7804 19.4197C19.0958 19.7352 19.6072 19.7352 19.9227 19.4197C20.2381 19.1043 20.2381 18.5929 19.9227 18.2775Z" fill="#161823"/>
<path d="M6.21568 18.2775C5.90025 17.9621 5.38885 17.9621 5.07343 18.2775C4.758 18.5929 4.758 19.1043 5.07343 19.4197C5.38885 19.7352 5.90025 19.7352 6.21568 19.4197C6.5311 19.1043 6.5311 18.5929 6.21568 18.2775Z" fill="#161823"/>
<path d="M22.1961 16.0198C22.3704 15.6092 22.1788 15.135 21.7682 14.9607C21.3575 14.7864 20.8834 14.978 20.7091 15.3886C20.5348 15.7992 20.7264 16.2734 21.137 16.4477C21.5476 16.622 22.0218 16.4304 22.1961 16.0198Z" fill="#161823"/>
<path d="M4.28701 15.3886C4.11271 14.978 3.63855 14.7864 3.22793 14.9607C2.81732 15.135 2.62574 15.6092 2.80004 16.0198C2.97433 16.4304 3.4485 16.622 3.85911 16.4477C4.26973 16.2734 4.4613 15.7992 4.28701 15.3886Z" fill="#161823"/>
<path d="M22.998 11.9951C22.998 11.549 22.6364 11.1874 22.1904 11.1874C21.7443 11.1874 21.3827 11.549 21.3827 11.9951C21.3827 12.4412 21.7443 12.8028 22.1904 12.8028C22.6364 12.8028 22.998 12.4412 22.998 11.9951Z" fill="#161823"/>
<path d="M3.61343 11.9951C3.61343 11.549 3.25182 11.1874 2.80574 11.1874C2.35966 11.1874 1.99805 11.549 1.99805 11.9951C1.99805 12.4412 2.35966 12.8028 2.80574 12.8028C3.25182 12.8028 3.61343 12.4412 3.61343 11.9951Z" fill="#161823"/>
<path d="M22.2015 7.98346C22.0343 7.56987 21.5636 7.37005 21.15 7.53715C20.7364 7.70426 20.5366 8.175 20.7037 8.5886C20.8708 9.00219 21.3415 9.20201 21.7551 9.03491C22.1687 8.86781 22.3686 8.39706 22.2015 7.98346Z" fill="#161823"/>
<path d="M3.85911 7.54255C3.4485 7.36825 2.97433 7.55983 2.80004 7.97044C2.62574 8.38106 2.81732 8.85522 3.22793 9.02952C3.63855 9.20381 4.11271 9.01224 4.28701 8.60162C4.4613 8.19101 4.26973 7.71684 3.85911 7.54255Z" fill="#161823"/>
<path d="M19.9227 4.5705C19.6072 4.25507 19.0958 4.25507 18.7804 4.5705C18.465 4.88592 18.465 5.39732 18.7804 5.71275C19.0958 6.02817 19.6072 6.02817 19.9227 5.71275C20.2381 5.39732 20.2381 4.88592 19.9227 4.5705Z" fill="#161823"/>
<path d="M6.21568 4.5705C5.90025 4.25507 5.38885 4.25507 5.07343 4.5705C4.758 4.88592 4.758 5.39732 5.07343 5.71275C5.38885 6.02817 5.90025 6.02817 6.21568 5.71275C6.5311 5.39732 6.5311 4.88592 6.21568 4.5705Z" fill="#161823"/>
<path d="M16.5227 2.29711C16.1121 2.12281 15.6379 2.31439 15.4636 2.725C15.2894 3.13562 15.4809 3.60978 15.8915 3.78408C16.3022 3.95837 16.7763 3.7668 16.9506 3.35618C17.1249 2.94557 16.9333 2.4714 16.5227 2.29711Z" fill="#161823"/>
<path d="M9.53784 2.73803C9.37074 2.32443 8.89999 2.12461 8.48639 2.29171C8.0728 2.45882 7.87298 2.92956 8.04008 3.34316C8.20718 3.75675 8.67793 3.95657 9.09153 3.78947C9.50512 3.62237 9.70494 3.15162 9.53784 2.73803Z" fill="#161823"/>
<path d="M13.3057 2.30281C13.3057 1.85673 12.9441 1.49512 12.498 1.49512C12.052 1.49512 11.6904 1.85673 11.6904 2.30281C11.6904 2.74889 12.052 3.1105 12.498 3.1105C12.9441 3.1105 13.3057 2.74889 13.3057 2.30281Z" fill="#161823"/>
<path fill-rule="evenodd" clip-rule="evenodd" d="M9.06535 11.9951C9.06535 10.0993 10.6022 8.56242 12.498 8.56242C14.3939 8.56242 15.9307 10.0993 15.9307 11.9951C15.9307 13.8909 14.3939 15.4278 12.498 15.4278C10.6022 15.4278 9.06535 13.8909 9.06535 11.9951ZM12.498 10.5817C11.7174 10.5817 11.0846 11.2145 11.0846 11.9951C11.0846 12.7758 11.7174 13.4086 12.498 13.4086C13.2787 13.4086 13.9115 12.7758 13.9115 11.9951C13.9115 11.2145 13.2787 10.5817 12.498 10.5817Z" fill="#161823"/>
<path fill-rule="evenodd" clip-rule="evenodd" d="M5.22882 11.9951C5.22882 7.98043 8.48336 4.72589 12.498 4.72589C16.5127 4.72589 19.7673 7.98043 19.7673 11.9951C19.7673 16.0098 16.5127 19.2643 12.498 19.2643C8.48336 19.2643 5.22882 16.0098 5.22882 11.9951ZM12.498 6.34127C9.37551 6.34127 6.8442 8.87258 6.8442 11.9951C6.8442 15.1177 9.37551 17.649 12.498 17.649C15.6206 17.649 18.1519 15.1177 18.1519 11.9951C18.1519 8.87258 15.6206 6.34127 12.498 6.34127Z" fill="#161823"/>
</svg>
