<svg width="24" height="24" viewBox="0 0 24 24" fill="none" xmlns="http://www.w3.org/2000/svg">
<path fill-rule="evenodd" clip-rule="evenodd" d="M20.8799 15.5996C21.9402 15.5996 22.7996 16.4594 22.7998 17.5195V20.8799L22.79 21.0762C22.6982 21.9797 21.9798 22.6984 21.0762 22.79L20.8799 22.7998H13.9199L13.7236 22.79C12.8201 22.6982 12.1016 21.9796 12.0098 21.0762L12 20.8799V17.5195C12.0002 16.4594 12.8597 15.5997 13.9199 15.5996H20.8799ZM13.9199 17.3994C13.8538 17.3995 13.8 17.4535 13.7998 17.5195V20.8799C13.8 20.946 13.8538 20.9999 13.9199 21H20.8799C20.9461 21 20.9999 20.946 21 20.8799V17.5195C20.9998 17.4534 20.946 17.3994 20.8799 17.3994H13.9199Z" fill="#161823"/>
<path d="M14.8457 1.72461C16.9587 1.83215 18.6395 3.58002 18.6396 5.71973V14.1084C18.6396 14.1968 18.5679 14.2686 18.4795 14.2686H17C16.9116 14.2686 16.8398 14.1968 16.8398 14.1084V5.71973C16.8397 4.50503 15.8543 3.51987 14.6396 3.51953H6.39941C5.18447 3.51953 4.19936 4.50482 4.19922 5.71973V17.5996C4.19922 18.8146 5.18439 19.7998 6.39941 19.7998H10.5059C10.5942 19.7998 10.666 19.8716 10.666 19.96V20.7705C10.666 20.9853 10.6859 21.1964 10.7236 21.4004C10.7422 21.5023 10.6661 21.5993 10.5625 21.5996H6.39941C4.19028 21.5996 2.39941 19.8087 2.39941 17.5996V5.71973C2.39955 3.57981 4.08006 1.83184 6.19336 1.72461L6.39941 1.71973H14.6396L14.8457 1.72461Z" fill="#161823"/>
<path d="M7.7832 8.0498C8.13468 7.69844 8.7052 7.69838 9.05664 8.0498L11.7598 10.7529V8.68652L11.7646 8.59473C11.8107 8.14091 12.1942 7.78711 12.6602 7.78711C13.126 7.78723 13.5096 8.14096 13.5557 8.59473L13.5596 8.68652V12.9268C13.5595 13.4237 13.1571 13.827 12.6602 13.8271H8.41992C7.92291 13.8271 7.5196 13.4238 7.51953 12.9268C7.51953 12.4297 7.92287 12.0264 8.41992 12.0264H10.4863L7.7832 9.32324C7.43175 8.97177 7.43174 8.40127 7.7832 8.0498Z" fill="#161823"/>
</svg>
