<svg width="24" height="24" viewBox="0 0 24 24" fill="none" xmlns="http://www.w3.org/2000/svg">
<path fill-rule="evenodd" clip-rule="evenodd" d="M3 6.75C3 4.67893 4.67893 3 6.75 3H17.25C19.3211 3 21 4.67893 21 6.75V17.25C21 19.3211 19.3211 21 17.25 21H6.75C4.67893 21 3 19.3211 3 17.25V6.75ZM12 7.7168C12.4142 7.7168 12.75 8.05258 12.75 8.4668V11.2501H15.55C15.9642 11.2501 16.3 11.5859 16.3 12.0001C16.3 12.4143 15.9642 12.7501 15.55 12.7501H12.75V15.5335C12.75 15.9477 12.4142 16.2835 12 16.2835C11.5858 16.2835 11.25 15.9477 11.25 15.5335V12.7501H8.45001C8.0358 12.7501 7.70001 12.4143 7.70001 12.0001C7.70001 11.5859 8.0358 11.2501 8.45001 11.2501H11.25V8.4668C11.25 8.05258 11.5858 7.7168 12 7.7168Z" fill="#161823"/>
</svg>
