<svg width="24" height="24" viewBox="0 0 24 24" fill="none" xmlns="http://www.w3.org/2000/svg">
<path d="M12.71 19.633C11.227 18.7723 9.74163 17.5739 8.37309 16.2054C7.00451 14.8368 5.8149 13.3602 4.96314 11.8856C4.11607 10.4191 3.57352 8.90311 3.57352 7.47066C3.57352 6.18123 4.00386 4.97216 5.01942 4.00075L5.02076 3.99947C5.63127 3.41839 6.40837 3.02577 7.2287 3.03459L7.23037 3.03462C7.90079 3.04332 8.58221 3.30686 9.04641 3.96049C9.04642 3.96051 9.0464 3.96047 9.04641 3.96049L10.9166 6.59356C10.9172 6.59444 10.9179 6.59533 10.9185 6.59621C11.2554 7.06288 11.4842 7.56049 11.4842 8.0994C11.4842 8.80604 11.0612 9.34991 10.6564 9.76776L10.6532 9.77102L10.1705 10.2633C10.4531 10.7291 11.1313 11.5412 12.0843 12.4942C13.0113 13.4211 13.8523 14.1038 14.3266 14.4183L14.8084 13.9366C15.2231 13.5218 15.7676 13.0947 16.4836 13.1004C17.023 13.0937 17.5228 13.3283 17.9821 13.6598L20.6618 15.5616C21.2798 16.011 21.5578 16.6728 21.5501 17.3322C21.5484 18.1567 21.142 18.9242 20.5916 19.5318L20.5893 19.5344C19.6524 20.559 18.4809 21.0419 17.1448 21.0419C15.7101 21.0419 14.1839 20.4885 12.71 19.633ZM13.463 18.3357C14.8169 19.1215 16.0769 19.5419 17.1448 19.5419C18.0765 19.5419 18.8401 19.2239 19.481 18.5235C19.8779 18.0849 20.0501 17.6591 20.0501 17.327L20.0501 17.3164C20.0531 17.1034 19.9743 16.9177 19.7825 16.7769L17.106 14.8774C16.7684 14.6333 16.5832 14.5987 16.4999 14.6003L16.4868 14.6006L16.4737 14.6004C16.3948 14.5992 16.2285 14.6378 15.869 14.9972L15.2465 15.6198C14.979 15.8872 14.6622 15.963 14.4082 15.9686C14.0418 15.9898 13.7566 15.8268 13.6619 15.7726L13.6484 15.7649L13.6372 15.758C13.0508 15.395 12.0615 14.5927 11.0236 13.5548C10.0031 12.5343 9.16495 11.5516 8.80735 10.9021L8.80397 10.896C8.73049 10.7595 8.62996 10.5243 8.61658 10.2432L8.61479 10.2056L8.61676 10.1681C8.62995 9.91758 8.70692 9.64059 8.93279 9.3846L8.94585 9.3698L9.57906 8.72407C9.57956 8.72355 9.58006 8.72304 9.58056 8.72252C9.93874 8.35244 9.98415 8.18165 9.98415 8.0994C9.98415 7.99827 9.9425 7.80637 9.70107 7.47247L9.69735 7.46734L7.8235 4.8291C7.68374 4.63229 7.49004 4.53826 7.21158 4.5345C6.88574 4.53133 6.46775 4.69335 6.05569 5.08525C5.37038 5.74105 5.07352 6.54129 5.07352 7.47066C5.07352 8.54083 5.4864 9.79251 6.26202 11.1353C7.03295 12.47 8.13329 13.8442 9.43375 15.1447C10.7343 16.4452 12.1182 17.5552 13.463 18.3357Z" fill="#161823"/>
</svg>
