<svg width="20" height="20" viewBox="0 0 20 20" fill="none" xmlns="http://www.w3.org/2000/svg">
<path d="M9.9944 4.93078C8.25535 4.93078 6.84557 6.34056 6.84557 8.07962C6.84557 9.81867 8.25535 11.2285 9.9944 11.2285C11.7335 11.2285 13.1432 9.81867 13.1432 8.07962C13.1432 6.34056 11.7335 4.93078 9.9944 4.93078ZM8.29888 8.07962C8.29888 7.1432 9.05799 6.38409 9.9944 6.38409C10.9308 6.38409 11.6899 7.1432 11.6899 8.07962C11.6899 9.01603 10.9308 9.77514 9.9944 9.77514C9.05799 9.77514 8.29888 9.01603 8.29888 8.07962Z" fill="#161823"/>
<path d="M9.9944 1.10236C6.18028 1.10236 3.01855 4.03699 3.01855 7.74075C3.01855 10.0342 4.16492 12.4001 5.42465 14.3276C6.6983 16.2763 8.1608 17.8855 8.93432 18.6863C9.5177 19.2903 10.4711 19.2903 11.0545 18.6863C11.828 17.8855 13.2905 16.2763 14.5642 14.3276C15.8239 12.4001 16.9703 10.0342 16.9703 7.74075C16.9703 4.03699 13.8085 1.10236 9.9944 1.10236ZM4.47186 7.74075C4.47186 4.91459 6.90585 2.55566 9.9944 2.55566C13.083 2.55566 15.5169 4.91459 15.5169 7.74075C15.5169 9.59979 14.565 11.6699 13.3476 13.5325C12.1442 15.3738 10.7508 16.9088 10.0092 17.6766C9.9985 17.6877 9.9898 17.6872 9.97964 17.6766C9.238 16.9088 7.84462 15.3738 6.64117 13.5325C5.42381 11.6699 4.47186 9.59979 4.47186 7.74075Z" fill="#161823"/>
</svg>
