<svg width="24" height="24" viewBox="0 0 24 24" fill="none" xmlns="http://www.w3.org/2000/svg">
<path d="M3 8.00001C2.44772 8.00001 2 8.44772 2 9V15C2 15.5523 2.44772 16 3 16H6.36668C6.77881 16 7.18088 16.1273 7.51789 16.3645L12.4244 19.8182C13.0869 20.2846 14 19.8107 14 19.0005V5.00693C14 4.19714 13.0878 3.72316 12.4251 4.18867L7.51739 7.63652C7.18068 7.87307 6.77919 8.00001 6.36769 8.00001H3Z" fill="#161823"/>
<path d="M18.4405 6.13104C18.7529 5.81862 19.2594 5.81862 19.5719 6.13104C20.3426 6.90177 20.954 7.81676 21.3711 8.82376C21.7882 9.83076 22.0029 10.9101 22.0029 12C22.0029 13.09 21.7882 14.1693 21.3711 15.1763C20.954 16.1833 20.3426 17.0983 19.5719 17.869C19.2594 18.1814 18.7529 18.1814 18.4405 17.869C18.1281 17.5566 18.1281 17.0501 18.4405 16.7376C19.0626 16.1155 19.5562 15.3769 19.8929 14.564C20.2296 13.7511 20.4029 12.8799 20.4029 12C20.4029 11.1202 20.2296 10.2489 19.8929 9.43605C19.5562 8.62317 19.0626 7.88457 18.4405 7.26241C18.1281 6.94999 18.1281 6.44346 18.4405 6.13104Z" fill="#161823"/>
<path d="M15.9656 8.6059C16.2781 8.29348 16.7846 8.29348 17.097 8.6059C17.5427 9.05162 17.8963 9.58077 18.1375 10.1631C18.3787 10.7455 18.5029 11.3697 18.5029 12C18.5029 12.6304 18.3787 13.2545 18.1375 13.8369C17.8963 14.4193 17.5427 14.9484 17.097 15.3941C16.7846 15.7065 16.2781 15.7065 15.9656 15.3941C15.6532 15.0817 15.6532 14.5752 15.9656 14.2628C16.2628 13.9656 16.4985 13.6128 16.6593 13.2246C16.8201 12.8364 16.9029 12.4202 16.9029 12C16.9029 11.5798 16.8201 11.1637 16.6593 10.7754C16.4985 10.3872 16.2628 10.0344 15.9656 9.73727C15.6532 9.42485 15.6532 8.91832 15.9656 8.6059Z" fill="#161823"/>
</svg>
