<svg width="24" height="24" viewBox="0 0 24 24" fill="none" xmlns="http://www.w3.org/2000/svg">
<path d="M15.3551 15.7681H15.4313L17.1598 10.2544C17.3238 9.69775 17.5641 9.46924 17.9859 9.46924C18.4371 9.46924 18.7652 9.75635 18.7652 10.1782C18.7652 10.3364 18.7125 10.6001 18.6422 10.8169L16.6617 16.5005C16.4039 17.2739 16.0348 17.6021 15.3844 17.6021C14.7223 17.6021 14.3414 17.2681 14.0836 16.5005L12.109 10.8169C12.027 10.5767 11.9801 10.3481 11.9801 10.1841C11.9801 9.76221 12.3141 9.46924 12.7711 9.46924C13.1813 9.46924 13.4391 9.71533 13.6031 10.2544L15.3551 15.7681Z" fill="#161823"/>
<path d="M9.24048 16.7583C9.24048 17.2798 8.93579 17.6021 8.44946 17.6021C7.95728 17.6021 7.65845 17.2856 7.65845 16.7583V10.8755H5.96509C5.57251 10.8755 5.2854 10.5942 5.2854 10.2134C5.2854 9.82666 5.57251 9.54541 5.96509 9.54541H10.9397C11.3381 9.54541 11.6194 9.8208 11.6194 10.2134C11.6194 10.6001 11.3381 10.8755 10.9397 10.8755H9.24048V16.7583Z" fill="#161823"/>
<path d="M8.65119 2.38193C8.44568 2.02229 7.98754 1.89734 7.6279 2.10285C7.26826 2.30836 7.14332 2.7665 7.34882 3.12614L8.70755 5.50391H5.75C3.67893 5.50391 2 7.18284 2 9.25391V17.2539C2 19.325 3.67893 21.0039 5.75 21.0039H18.25C20.3211 21.0039 22 19.325 22 17.2539V9.25391C22 7.18284 20.3211 5.50391 18.25 5.50391H15.2925L16.6512 3.12614C16.8567 2.7665 16.7317 2.30836 16.3721 2.10285C16.0125 1.89734 15.5543 2.02229 15.3488 2.38193L13.5648 5.50391H10.4352L8.65119 2.38193ZM14.0189 7.00391H18.25C19.4926 7.00391 20.5 8.01127 20.5 9.25391V17.2539C20.5 18.4965 19.4926 19.5039 18.25 19.5039H5.75C4.50736 19.5039 3.5 18.4965 3.5 17.2539V9.25391C3.5 8.01127 4.50736 7.00391 5.75 7.00391H9.98109C9.99414 7.00425 10.0072 7.00425 10.0203 7.00391H13.9797C13.9928 7.00425 14.0059 7.00425 14.0189 7.00391Z" fill="#161823"/>
</svg>
