<svg width="20" height="20" viewBox="0 0 20 20" fill="none" xmlns="http://www.w3.org/2000/svg">
<path d="M1 2.06665C1 1.65244 1.33579 1.31665 1.75 1.31665H2.3041C3.55497 1.31665 4.61331 2.24115 4.78142 3.48067L4.85079 3.99216H16.413C17.968 3.99216 19.1458 5.39673 18.8747 6.92798L17.9727 12.023C17.719 13.4558 16.4737 14.5 15.0186 14.5H7.38277C5.88172 14.5 4.61171 13.3906 4.40998 11.9032L3.29503 3.68226C3.22778 3.18645 2.80445 2.81665 2.3041 2.81665L1.75 2.81665C1.33579 2.81665 1 2.48086 1 2.06665Z" fill="#161823"/>
<path d="M7.80005 16.75C7.80005 17.4404 7.2404 18 6.55005 18C5.85969 18 5.30005 17.4404 5.30005 16.75C5.30005 16.0596 5.85969 15.5 6.55005 15.5C7.2404 15.5 7.80005 16.0596 7.80005 16.75Z" fill="#161823"/>
<path d="M16.7 16.75C16.7 17.4404 16.1403 18 15.45 18C14.7596 18 14.2 17.4404 14.2 16.75C14.2 16.0596 14.7596 15.5 15.45 15.5C16.1403 15.5 16.7 16.0596 16.7 16.75Z" fill="#161823"/>
</svg>
