<svg width="16" height="16" viewBox="0 0 16 16" fill="none" xmlns="http://www.w3.org/2000/svg">
<path d="M2.14888 2.13987C2.44178 1.84697 2.91665 1.84697 3.20954 2.13987L5.66466 4.59498L8.0573 2.82542C8.58535 2.43488 9.33301 2.81185 9.33301 3.46862V8.26333L10.4929 9.42327L10.5256 9.39065C10.7082 9.20802 10.8531 8.99122 10.9519 8.75261C11.0507 8.51401 11.1016 8.25827 11.1016 8C11.1016 7.74173 11.0507 7.486 10.9519 7.24739C10.8531 7.00878 10.7082 6.79198 10.5256 6.60936C10.2522 6.33599 10.2522 5.89278 10.5256 5.61941C10.7989 5.34604 11.2422 5.34604 11.5155 5.61941C11.8281 5.93203 12.0761 6.30317 12.2453 6.71163C12.4145 7.1201 12.5016 7.55788 12.5016 8C12.5016 8.44212 12.4145 8.87991 12.2453 9.28837C12.0761 9.69683 11.8281 10.068 11.5155 10.3806L11.4829 10.4132L12.2009 11.1312L12.2915 11.0406C12.6908 10.6413 13.0075 10.1673 13.2236 9.64555C13.4397 9.12385 13.5509 8.5647 13.5509 8.00002C13.5509 7.43533 13.4397 6.87618 13.2236 6.35448C13.0075 5.83278 12.6908 5.35875 12.2915 4.95946C12.0181 4.68609 12.0181 4.24287 12.2915 3.96951C12.5648 3.69614 13.0081 3.69614 13.2814 3.96951C13.8107 4.4988 14.2306 5.12716 14.517 5.81872C14.8035 6.51028 14.9509 7.25148 14.9509 8.00002C14.9509 8.74855 14.8035 9.48975 14.517 10.1813C14.2306 10.8729 13.8107 11.5012 13.2814 12.0305L13.1908 12.1211L13.8762 12.8065C14.1691 13.0994 14.1691 13.5743 13.8762 13.8672C13.5854 14.158 13.1152 14.1601 12.8219 13.8734L2.4593 3.51087C2.45719 3.50876 2.45506 3.50666 2.45293 3.50457L2.14888 3.20053C1.85599 2.90763 1.85599 2.43276 2.14888 2.13987Z" fill="#161823"/>
<path d="M2.17315 5.34604C1.69685 5.42256 1.33301 5.83545 1.33301 6.33333V9.66666C1.33301 10.2189 1.78072 10.6667 2.33301 10.6667H4.22739C4.5125 10.6667 4.7901 10.758 5.01945 10.9274L8.05777 13.1711C8.58588 13.5611 9.33301 13.1841 9.33301 12.5276V12.5059L2.17315 5.34604Z" fill="#161823"/>
</svg>
