<svg width="24" height="24" viewBox="0 0 24 24" fill="none" xmlns="http://www.w3.org/2000/svg">
<path d="M17.8072 3H6.19281C5.42019 3 4.6899 3.39658 4.28273 4.07614C3.9326 4.66051 3.3841 5.601 2.92028 6.50916C2.68899 6.96202 2.47024 7.42335 2.30689 7.83759C2.16005 8.20997 2 8.68208 2 9.1C2 10.7338 3.36964 12.2 5.1 12.2C6.01263 12.2 6.83283 11.8059 7.4 11.1784C7.96718 11.8059 8.78738 12.2 9.70001 12.2C10.6126 12.2 11.4328 11.8059 12 11.1784C12.5672 11.8059 13.3874 12.2 14.3 12.2C15.2126 12.2 16.0328 11.8059 16.6 11.1784C17.1672 11.8059 17.9874 12.2 18.9 12.2C20.6304 12.2 22 10.7338 22 9.1C22 8.68208 21.8399 8.20996 21.6931 7.83759C21.5298 7.42335 21.311 6.96202 21.0797 6.50916C20.6159 5.601 20.0674 4.66051 19.7173 4.07614C19.3101 3.39658 18.5798 3 17.8072 3Z" fill="#161823"/>
<path d="M3.75 19.2499V13.4951C4.17509 13.6278 4.62802 13.7 5.1 13.7C5.93811 13.7 6.72357 13.4761 7.40001 13.0847C8.07644 13.4761 8.86189 13.7 9.70001 13.7C10.5381 13.7 11.3236 13.4761 12 13.0847C12.6764 13.4761 13.4619 13.7 14.3 13.7C15.1381 13.7 15.9236 13.4761 16.6 13.0847C17.2764 13.4761 18.0619 13.7 18.9 13.7C19.372 13.7 19.8249 13.6278 20.25 13.4951V19.2499C20.25 20.7687 19.0188 21.9999 17.5 21.9999H6.5C4.98122 21.9999 3.75 20.7687 3.75 19.2499Z" fill="#161823"/>
</svg>
