<svg width="24" height="24" viewBox="0 0 24 24" fill="none" xmlns="http://www.w3.org/2000/svg">
<path d="M6.75 13.1283C6.75 12.7141 7.08579 12.3783 7.5 12.3783H16.5C16.9142 12.3783 17.25 12.7141 17.25 13.1283C17.25 13.5425 16.9142 13.8783 16.5 13.8783H7.5C7.08579 13.8783 6.75 13.5425 6.75 13.1283Z" fill="#161823"/>
<path d="M7.5 15.6283C7.08579 15.6283 6.75 15.9641 6.75 16.3783C6.75 16.7925 7.08579 17.1283 7.5 17.1283H14C14.4142 17.1283 14.75 16.7925 14.75 16.3783C14.75 15.9641 14.4142 15.6283 14 15.6283H7.5Z" fill="#161823"/>
<path d="M8 2.75C8.41421 2.75 8.75 3.08579 8.75 3.5V4H15.25V3.5C15.25 3.08579 15.5858 2.75 16 2.75C16.4142 2.75 16.75 3.08579 16.75 3.5V4H17.25C19.3211 4 21 5.67893 21 7.75V17.25C21 19.3211 19.3211 21 17.25 21H6.75C4.67893 21 3 19.3211 3 17.25V7.75C3 5.67893 4.67893 4 6.75 4H7.25V3.5C7.25 3.08579 7.58579 2.75 8 2.75ZM15.25 5.5H8.75V6C8.75 6.41421 8.41421 6.75 8 6.75C7.58579 6.75 7.25 6.41421 7.25 6V5.5H6.75C5.50736 5.5 4.5 6.50736 4.5 7.75V8.5H19.5V7.75C19.5 6.50736 18.4926 5.5 17.25 5.5H16.75V6C16.75 6.41421 16.4142 6.75 16 6.75C15.5858 6.75 15.25 6.41421 15.25 6V5.5ZM4.5 10V17.25C4.5 18.4926 5.50736 19.5 6.75 19.5H17.25C18.4926 19.5 19.5 18.4926 19.5 17.25V10H4.5Z" fill="#161823"/>
</svg>
