<svg width="20" height="20" viewBox="0 0 20 20" fill="none" xmlns="http://www.w3.org/2000/svg">
<path d="M5.75 2C3.67893 2 2 3.67893 2 5.75V14.25C2 16.3211 3.67893 18 5.75 18H11.1362C11.3109 18 11.4077 17.7856 11.3098 17.6408C11.11 17.3453 10.9641 17.0145 10.8811 16.6641C10.8588 16.5698 10.7765 16.5 10.6795 16.5H5.75C4.50736 16.5 3.5 15.4926 3.5 14.25V5.75C3.5 4.50736 4.50736 3.5 5.75 3.5H14.25C15.4926 3.5 16.5 4.50736 16.5 5.75V9.02277C16.5 9.12017 16.5704 9.20268 16.6653 9.2246C16.9471 9.2897 17.2217 9.39665 17.4794 9.54544L17.7 9.67282C17.8333 9.7498 18 9.65357 18 9.49961V5.75C18 3.67893 16.3211 2 14.25 2H5.75Z" fill="#161823"/>
<path fill-rule="evenodd" clip-rule="evenodd" d="M15.0451 7.54019V9.16292C15.0451 9.24856 14.9903 9.32407 14.9106 9.35554C14.7762 9.40862 14.6448 9.47192 14.5174 9.54544L12.2825 10.8358C12.1149 10.9325 11.9591 11.0443 11.8164 11.1687C11.7186 11.2541 11.553 11.1884 11.553 11.0585H10.6096C9.86403 11.0585 9.25962 10.4541 9.25962 9.70852V7.54019C9.25962 6.80685 9.84434 6.21008 10.573 6.19068L10.2775 5.7475C10.0937 5.47179 10.1682 5.09926 10.444 4.91545C10.7197 4.73164 11.0922 4.80614 11.276 5.08186L12.0149 6.19019H12.2901L13.029 5.08186C13.2128 4.80614 13.5853 4.73164 13.8611 4.91545C14.1368 5.09926 14.2113 5.47179 14.0275 5.7475L13.732 6.19069C14.4605 6.21025 15.0451 6.80696 15.0451 7.54019ZM13.8451 8.02404V7.54019C13.8451 7.45735 13.7779 7.39019 13.6951 7.39019H12.753V8.02404H13.8451ZM12.753 9.22404H13.8451V9.70852C13.8451 9.79136 13.7779 9.85852 13.6951 9.85852H12.753V9.22404ZM11.553 8.02404V7.39019H10.6096C10.5268 7.39019 10.4596 7.45735 10.4596 7.54019V8.02404H11.553ZM10.4596 9.22404H11.553V9.85852H10.6096C10.5268 9.85852 10.4596 9.79136 10.4596 9.70852V9.22404Z" fill="#161823"/>
<path d="M10.6755 12.9C10.7729 12.9 10.8554 12.8296 10.8773 12.7347C10.9343 12.4878 11.0225 12.2505 11.1388 12.0283C11.2138 11.8848 11.1159 11.7 10.954 11.7H9.51868C9.18731 11.7 8.91868 11.9686 8.91868 12.3C8.91868 12.6314 9.18731 12.9 9.51868 12.9H10.6755Z" fill="#161823"/>
<path d="M5 5.87303C5 5.54166 5.26863 5.27303 5.6 5.27303H6.89273C7.77638 5.27303 8.49273 5.98938 8.49273 6.87303V7.62428C8.49273 8.50794 7.77638 9.22428 6.89273 9.22428H6.6C6.37909 9.22428 6.2 9.40337 6.2 9.62428V9.91699C6.2 10.1379 6.37909 10.317 6.6 10.317H6.89273C7.77638 10.317 8.49273 11.0333 8.49273 11.917V12.1268C8.49273 13.5627 7.32867 14.7268 5.89273 14.7268H5.6C5.26863 14.7268 5 14.4581 5 14.1268C5 13.7954 5.26863 13.5268 5.6 13.5268H5.89273C6.66593 13.5268 7.29273 12.9 7.29273 12.1268V11.917C7.29273 11.6961 7.11364 11.517 6.89273 11.517H6.6C5.71634 11.517 5 10.8006 5 9.91699V9.62428C5 8.74063 5.71634 8.02428 6.6 8.02428H6.89273C7.11364 8.02428 7.29273 7.8452 7.29273 7.62428V6.87303C7.29273 6.65212 7.11364 6.47303 6.89273 6.47303H5.6C5.26863 6.47303 5 6.2044 5 5.87303Z" fill="#161823"/>
<path d="M17.2484 14.6913C17.2484 15.3816 16.6887 15.9413 15.9984 15.9413C15.308 15.9413 14.7484 15.3816 14.7484 14.6913C14.7484 14.0009 15.308 13.4413 15.9984 13.4413C16.6887 13.4413 17.2484 14.0009 17.2484 14.6913Z" fill="#161823"/>
<path fill-rule="evenodd" clip-rule="evenodd" d="M15.1174 10.5847C15.6626 10.2699 16.3342 10.2699 16.8793 10.5847L19.1143 11.875C19.6595 12.1898 19.9953 12.7714 19.9953 13.4009V15.9816C19.9953 16.6111 19.6595 17.1928 19.1143 17.5075L16.8793 18.7979C16.3342 19.1126 15.6626 19.1126 15.1174 18.7979L12.8824 17.5075C12.3373 17.1928 12.0015 16.6111 12.0015 15.9816V13.4009C12.0015 12.7714 12.3373 12.1898 12.8824 11.875L15.1174 10.5847ZM16.1293 11.8837C16.0483 11.8369 15.9485 11.8369 15.8674 11.8837L13.6324 13.1741C13.5514 13.2208 13.5015 13.3073 13.5015 13.4009V15.9816C13.5015 16.0752 13.5514 16.1617 13.6324 16.2085L15.8674 17.4988C15.9485 17.5456 16.0483 17.5456 16.1293 17.4988L18.3643 16.2085C18.4454 16.1617 18.4953 16.0752 18.4953 15.9816V13.4009C18.4953 13.3073 18.4454 13.2208 18.3643 13.1741L16.1293 11.8837Z" fill="#161823"/>
</svg>
