<svg width="24" height="24" viewBox="0 0 24 24" fill="none" xmlns="http://www.w3.org/2000/svg">
<path d="M12.0002 13.55C10.0672 13.55 8.50024 11.983 8.50024 10.05C8.50024 9.63584 8.83603 9.30005 9.25024 9.30005C9.66446 9.30005 10.0002 9.63584 10.0002 10.05C10.0002 11.1546 10.8957 12.05 12.0002 12.05C13.1048 12.05 14.0002 11.1546 14.0002 10.05C14.0002 9.63584 14.336 9.30005 14.7502 9.30005C15.1645 9.30005 15.5002 9.63584 15.5002 10.05C15.5002 11.983 13.9332 13.55 12.0002 13.55Z" fill="#161823"/>
<path fill-rule="evenodd" clip-rule="evenodd" d="M12.0002 2C9.8586 2 8.06642 3.49601 7.61169 5.5H7.26843C5.80891 5.5 4.60362 6.64019 4.52266 8.09746L3.91155 19.0975C3.82398 20.6738 5.07858 22 6.65731 22H17.3433C18.922 22 20.1766 20.6738 20.089 19.0975L19.4779 8.09746C19.397 6.64019 18.1917 5.5 16.7322 5.5H16.3887C15.9339 3.49601 14.1418 2 12.0002 2ZM14.8295 5.5C14.4176 4.33481 13.3064 3.5 12.0002 3.5C10.694 3.5 9.58273 4.33481 9.17089 5.5H14.8295ZM16.7322 7H7.26843C6.60501 7 6.05715 7.51827 6.02035 8.18066L5.40924 19.1807C5.36943 19.8972 5.93971 20.5 6.65731 20.5H17.3433C18.0609 20.5 18.6312 19.8972 18.5914 19.1807L17.9802 8.18066C17.9434 7.51827 17.3956 7 16.7322 7Z" fill="#161823"/>
</svg>
