<svg width="24" height="24" viewBox="0 0 24 24" fill="none" xmlns="http://www.w3.org/2000/svg">
<path d="M11.6307 3.93052C11.2214 3.21867 11.8415 2.35529 12.6435 2.52058L19.7623 3.98781C20.6712 4.17514 21.2131 5.11757 20.9202 6.00161L18.6264 12.9253C18.368 13.7053 17.3132 13.8129 16.9039 13.101L15.7417 11.0799L13.6678 12.2822C11.8787 13.3193 11.035 15.4559 11.6303 17.4422C11.8821 18.2827 10.8176 18.8769 10.2396 18.2184L10.1801 18.1506C7.03829 14.5712 7.94742 8.99995 12.0626 6.61438L12.8961 6.1312L11.6307 3.93052Z" fill="#161823"/>
<path d="M6.25 5H10.311C10.3794 5 10.4137 5 10.4442 5.01011C10.4702 5.01869 10.4941 5.0325 10.5145 5.05067C10.5385 5.0721 10.5556 5.10173 10.5899 5.161L10.8558 5.62168C10.4855 5.86515 10.1393 6.1311 9.81771 6.41648C9.78176 6.44839 9.76379 6.46434 9.74433 6.47509C9.72746 6.4844 9.71037 6.49089 9.69157 6.49512C9.66989 6.5 9.64661 6.5 9.60007 6.5H6.25C5.00736 6.5 4 7.50736 4 8.75V18.25C4 19.4926 5.00736 20.5 6.25 20.5H15.75C16.9926 20.5 18 19.4926 18 18.25V15.351C18 15.2486 18 15.1974 18.0166 15.1592C18.0319 15.1241 18.0506 15.1007 18.0813 15.078C18.1149 15.0533 18.1713 15.0404 18.2841 15.0146C18.4828 14.9692 18.6763 14.8996 18.8591 14.8063C19.1307 14.6678 19.2665 14.5985 19.3301 14.6082C19.3924 14.6177 19.4257 14.6381 19.4624 14.6892C19.5 14.7415 19.5 14.8718 19.5 15.1325V18.25C19.5 20.3211 17.8211 22 15.75 22H6.25C4.17893 22 2.5 20.3211 2.5 18.25V8.75C2.5 6.67893 4.17893 5 6.25 5Z" fill="#161823"/>
</svg>
