<svg width="20" height="20" viewBox="0 0 20 20" fill="none" xmlns="http://www.w3.org/2000/svg">
<path d="M8.02001 3.44092C4.91539 3.44092 2.60254 5.57624 2.60254 7.97732C2.60254 9.09852 3.0909 10.1414 3.93351 10.9521C4.14119 11.1519 4.21601 11.453 4.12601 11.7268L3.89833 12.4193L5.09903 12.0246C5.26979 11.9685 5.45503 11.9755 5.62102 12.0445C5.87714 12.1509 6.14504 12.241 6.42284 12.3128C6.51659 12.3371 6.58159 12.423 6.57955 12.5198C6.57864 12.5629 6.57818 12.6062 6.57818 12.6497C6.57818 12.9822 6.605 13.3046 6.65628 13.6161C6.67926 13.7557 6.56001 13.8805 6.42148 13.852C6.03836 13.773 5.6671 13.6662 5.31077 13.534L2.95642 14.3079C2.68762 14.3963 2.39195 14.3259 2.19187 14.1258C1.99179 13.9257 1.92134 13.63 2.00971 13.3612L2.5601 11.687C1.65618 10.6745 1.10254 9.38909 1.10254 7.97732C1.10254 4.53921 4.31223 1.94092 8.02001 1.94092C11.065 1.94092 13.7741 3.69333 14.6453 6.22417C14.6931 6.3631 14.5723 6.49796 14.4266 6.47906C14.1112 6.43815 13.7929 6.41724 13.4743 6.41724C13.3979 6.41724 13.3214 6.41844 13.245 6.42084C13.162 6.42345 13.0855 6.37598 13.0497 6.30104C12.2668 4.66466 10.3703 3.44092 8.02001 3.44092Z" fill="#161823"/>
<path d="M13.4743 7.91724C16.3419 7.91724 18.8705 9.93172 18.8705 12.6497C18.8705 13.8375 18.3742 14.9059 17.5834 15.7199L18.0703 17.1097C18.1656 17.3816 18.0966 17.6842 17.8928 17.888C17.689 18.0917 17.3865 18.1607 17.1145 18.0655L14.7715 17.2447C14.3551 17.3346 13.9205 17.3821 13.4743 17.3821C10.6067 17.3821 8.07816 15.3676 8.07816 12.6497C8.07816 9.93172 10.6067 7.91724 13.4743 7.91724ZM17.3705 12.6497C17.3705 10.9687 15.7387 9.41724 13.4743 9.41724C11.2099 9.41724 9.57816 10.9687 9.57816 12.6497C9.57816 14.3306 11.2099 15.8821 13.4743 15.8821C13.8765 15.8821 14.263 15.8314 14.6257 15.7381C14.7693 15.7011 14.9207 15.7075 15.0606 15.7566L16.1392 16.1344L16.0055 15.7528C15.9021 15.4575 15.9928 15.129 16.2331 14.9287C16.9549 14.327 17.3705 13.5165 17.3705 12.6497Z" fill="#161823"/>
</svg>
