<svg width="20" height="20" viewBox="0 0 20 20" fill="none" xmlns="http://www.w3.org/2000/svg">
<path d="M13.0342 1.25C15.2891 1.25021 17.117 3.07812 17.1172 5.33301V5.56445L17.2646 5.41699C17.5574 5.12421 18.0323 5.12443 18.3252 5.41699C18.6181 5.70989 18.6181 6.18465 18.3252 6.47754L16.9111 7.8916C16.6182 8.18449 16.1435 8.18449 15.8506 7.8916L14.4365 6.47754C14.1438 6.18463 14.1437 5.70983 14.4365 5.41699C14.7294 5.12422 15.2042 5.1243 15.4971 5.41699L15.6172 5.53711V5.33301C15.617 3.90655 14.4606 2.75021 13.0342 2.75H6.9668C5.54032 2.75018 4.38397 3.90653 4.38379 5.33301V14.667C4.38396 16.0935 5.54032 17.2498 6.9668 17.25H13.0342C14.4606 17.2498 15.617 16.0934 15.6172 14.667V11.6162C15.6174 11.2022 15.9531 10.8662 16.3672 10.8662C16.7812 10.8662 17.1169 11.2022 17.1172 11.6162V14.667C17.117 16.9219 15.2891 18.7498 13.0342 18.75H6.9668C4.71189 18.7498 2.88396 16.9219 2.88379 14.667V5.33301C2.88397 3.0781 4.71189 1.25018 6.9668 1.25H13.0342Z" fill="#161823"/>
<path fill-rule="evenodd" clip-rule="evenodd" d="M7.61621 8.08203C7.6165 6.8358 9.01863 6.19914 9.99023 6.83789L12.9062 8.75586C13.8077 9.3488 13.8076 10.6501 12.9062 11.2432L9.99023 13.1621C9.01859 13.8007 7.61638 13.1642 7.61621 11.918V8.08203ZM9.12012 8.08887L9.11621 8.09082V11.9072L9.12012 11.9102C9.12917 11.9147 9.13871 11.9163 9.14551 11.916C9.14837 11.9159 9.15091 11.9158 9.15332 11.915C9.15569 11.9143 9.15988 11.9122 9.16602 11.9082L12.0674 9.99902L9.16602 8.09082C9.15995 8.08687 9.15563 8.08471 9.15332 8.08398C9.15096 8.08328 9.14831 8.08313 9.14551 8.08301C9.13878 8.08277 9.12908 8.08444 9.12012 8.08887Z" fill="#161823"/>
</svg>
