<svg width="24" height="24" viewBox="0 0 24 24" fill="none" xmlns="http://www.w3.org/2000/svg">
<path d="M17.25 3.5H10.75C10.2024 3.5 9.73701 3.85216 9.56799 4.34237C9.53699 4.4323 9.45666 4.5 9.36154 4.5H8.23006C8.11252 4.5 8.0197 4.39879 8.03952 4.28293C8.26131 2.98661 9.39045 2 10.75 2H17.25C18.7688 2 20 3.23122 20 4.75V15.25C20 16.6096 19.0134 17.7387 17.7171 17.9605C17.6012 17.9803 17.5 17.8875 17.5 17.77V16.6385C17.5 16.5434 17.5677 16.463 17.6576 16.432C18.1479 16.263 18.5 15.7976 18.5 15.25V4.75C18.5 4.05964 17.9404 3.5 17.25 3.5Z" fill="#161823"/>
<path d="M6.75 6C5.23122 6 4 7.23122 4 8.75V19.25C4 20.7688 5.23122 22 6.75 22H13.25C14.7688 22 16 20.7688 16 19.25V8.75C16 7.23122 14.7688 6 13.25 6H6.75Z" fill="#161823"/>
</svg>
