<svg width="20" height="20" viewBox="0 0 20 20" fill="none" xmlns="http://www.w3.org/2000/svg">
<path d="M5.28375 3.22309C4.99085 2.93019 4.51598 2.93019 4.22309 3.22309C3.93019 3.51598 3.93019 3.99085 4.22309 4.28375L8.93931 8.99997L7.10914 10.8301C7.09623 10.8431 7.08389 10.8563 7.07211 10.8699C6.59942 10.6319 6.06536 10.4978 5.5 10.4978C3.567 10.4978 2 12.0648 2 13.9978C2 15.9308 3.567 17.4978 5.5 17.4978C7.433 17.4978 9 15.9308 9 13.9978C9 13.1747 8.71586 12.4179 8.24032 11.8203L9.99997 10.0606L11.7606 11.8213C11.2845 12.4191 11 13.1763 11 14C11 15.933 12.567 17.5 14.5 17.5C16.433 17.5 18 15.933 18 14C18 12.067 16.433 10.5 14.5 10.5C13.9351 10.5 13.4015 10.6338 12.9292 10.8715C12.917 10.8573 12.9042 10.8435 12.8908 10.8301L11.0606 8.99997L15.7769 4.28375C16.0697 3.99085 16.0697 3.51598 15.7769 3.22309C15.484 2.93019 15.0091 2.93019 14.7162 3.22309L9.99997 7.93931L5.28375 3.22309ZM12.5 14C12.5 12.8954 13.3954 12 14.5 12C15.6046 12 16.5 12.8954 16.5 14C16.5 15.1046 15.6046 16 14.5 16C13.3954 16 12.5 15.1046 12.5 14ZM7.5 13.9978C7.5 15.1024 6.60457 15.9978 5.5 15.9978C4.39543 15.9978 3.5 15.1024 3.5 13.9978C3.5 12.8932 4.39543 11.9978 5.5 11.9978C6.60457 11.9978 7.5 12.8932 7.5 13.9978Z" fill="#161823"/>
</svg>
