<svg width="16" height="16" viewBox="0 0 16 16" fill="none" xmlns="http://www.w3.org/2000/svg">
<path d="M6.84756 1.79396L5.62541 5.06242L2.13925 5.21475C1.00267 5.26441 0.536891 6.69791 1.42721 7.40616L4.15804 9.57851L3.22563 12.9411C2.92164 14.0374 4.14105 14.9234 5.08975 14.2955L7.99966 12.3696L10.9096 14.2955C11.8583 14.9234 13.0777 14.0374 12.7737 12.9411L11.8413 9.57851L14.5721 7.40616C15.4624 6.69792 14.9966 5.26441 13.8601 5.21475L10.3739 5.06242L9.15175 1.79396C8.75329 0.728351 7.24602 0.728348 6.84756 1.79396ZM7.99966 2.99565L9.0315 5.75516C9.20436 6.21745 9.63682 6.53164 10.1299 6.55319L13.0621 6.6875L10.7676 8.51588C10.3814 8.82313 10.2162 9.33151 10.3481 9.80712L11.1353 12.6461L8.6785 11.0201C8.26693 10.7477 7.73239 10.7477 7.32081 11.0201L4.86403 12.6461L5.65125 9.80712C5.78313 9.33151 5.61794 8.82313 5.2317 8.51588L2.92611 6.6818L5.86941 6.55319C6.3625 6.53164 6.79495 6.21745 6.96781 5.75516L7.99966 2.99565Z" fill="#161823"/>
</svg>
