<svg width="16" height="16" viewBox="0 0 16 16" fill="none" xmlns="http://www.w3.org/2000/svg">
<path d="M3.53431 8.24806C3.61358 8.18198 3.55836 8.05094 3.45691 8.0699C2.76582 8.19905 2.12788 8.4352 1.59031 8.76837C0.751345 9.28833 0.00683594 10.1585 0.00683594 11.3172V11.5721C0.00683594 12.5235 0.763612 13.2574 1.68003 13.3232C1.74681 13.328 1.79501 13.2635 1.77834 13.1987C1.70725 12.922 1.66943 12.632 1.66943 12.3332V11.9999C1.66943 10.337 2.53646 9.07975 3.53431 8.24806Z" fill="#161823"/>
<path d="M6.43422 8.17124L6.43528 8.17152C5.92292 8.32633 5.44458 8.53291 5.01529 8.78856C5.44429 8.53304 5.92226 8.32623 6.43422 8.17124Z" fill="#161823"/>
<path d="M5.14275 2.73518C5.16364 2.67441 5.12447 2.60876 5.06033 2.60482C5.02507 2.60266 4.98956 2.60156 4.95382 2.60156C3.90375 2.60156 3.05249 3.5474 3.05249 4.71416C3.05249 5.88091 3.90375 6.82675 4.95382 6.82675C5.17133 6.82675 5.38031 6.78617 5.57496 6.71144C5.633 6.68917 5.65207 6.6183 5.61801 6.5663C5.1607 5.86811 4.90283 5.02692 4.90283 4.16471C4.90283 3.67389 4.9864 3.18988 5.14275 2.73518Z" fill="#161823"/>
<path d="M11.2028 4.16471C11.2028 5.63747 10.1283 6.83138 8.80283 6.83138C7.47735 6.83138 6.40283 5.63747 6.40283 4.16471C6.40283 2.69195 7.47735 1.49805 8.80283 1.49805C10.1283 1.49805 11.2028 2.69195 11.2028 4.16471Z" fill="#161823"/>
<path d="M4.93185 8.83926C5.98804 8.18468 7.35654 7.8331 8.80306 7.8331C9.20075 7.8331 9.59252 7.85967 9.97352 7.91179C10.0662 7.92448 10.0884 8.04552 10.0074 8.09231L9.64443 8.30184C8.7317 8.82881 8.16943 9.80269 8.16943 10.8566V12.666C8.16943 13.2716 8.35514 13.8509 8.68635 14.3341C8.73366 14.4031 8.68592 14.5007 8.60224 14.5007H5.13639C3.93978 14.5007 2.96943 13.5298 2.96943 12.3332V11.9999C2.96943 10.5614 3.89366 9.48268 4.93185 8.83926Z" fill="#161823"/>
<path d="M12.3363 8.19093C12.5529 8.06589 12.8197 8.06589 13.0363 8.19093L15.6032 9.67295C15.8198 9.79799 15.9532 10.0291 15.9532 10.2792V13.2432C15.9532 13.4933 15.8198 13.7244 15.6032 13.8494L13.0363 15.3314C12.8197 15.4565 12.5529 15.4565 12.3363 15.3314L9.76939 13.8494C9.5528 13.7244 9.41938 13.4933 9.41938 13.2432V10.2792C9.41938 10.0291 9.5528 9.79799 9.76939 9.67295L12.3363 8.19093ZM12.6863 9.60544L10.8194 10.6833V12.8391L12.6863 13.9169L14.5532 12.8391V10.6833L12.6863 9.60544Z" fill="#161823"/>
<path d="M13.6463 11.7588C13.6463 12.289 13.2165 12.7188 12.6863 12.7188C12.1561 12.7188 11.7263 12.289 11.7263 11.7588C11.7263 11.2286 12.1561 10.7988 12.6863 10.7988C13.2165 10.7988 13.6463 11.2286 13.6463 11.7588Z" fill="#161823"/>
</svg>
