<svg width="12" height="12" viewBox="0 0 12 12" fill="none" xmlns="http://www.w3.org/2000/svg">
<path d="M8.92202 1.09132L4.46274 1.79566C3.97671 1.87242 3.61875 2.29136 3.61875 2.78341L3.61875 8.09683C3.61875 8.33728 3.4476 8.54368 3.21131 8.58819L2.34057 8.75221C1.74718 8.86398 1.31738 9.3823 1.31738 9.98613C1.31738 10.7726 2.03222 11.3655 2.80517 11.2201L3.16324 11.1527C3.87226 11.0193 4.38588 10.4001 4.38588 9.67859L4.38588 4.36817L8.73291 3.68296L8.73291 7.13957C8.73291 7.38018 8.56154 7.58666 8.32505 7.63101L7.4554 7.79406C6.86174 7.90538 6.43154 8.42374 6.43154 9.02775C6.43154 9.81399 7.14613 10.4067 7.91881 10.2613L8.27739 10.1938C8.98642 10.0604 9.50003 9.44115 9.50003 8.71968V1.5852C9.50003 1.27794 9.22551 1.04338 8.92202 1.09132Z" fill="#161823"/>
</svg>
