<svg width="24" height="24" viewBox="0 0 24 24" fill="none" xmlns="http://www.w3.org/2000/svg">
<path d="M12 11C14.2091 11 16 8.9853 16 6.50002C16 4.01473 14.2091 2.00002 12 2.00002C9.79086 2.00002 8 4.01473 8 6.50002C8 8.9853 9.79086 11 12 11Z" fill="#161823"/>
<path d="M14.6932 12.77C14.8259 12.7975 14.8901 12.9477 14.8284 13.0684C14.4819 13.7469 14.3315 14.4897 14.3315 15.2552C13.6183 15.8514 13.1646 16.7477 13.1646 17.75V21.25C13.1646 21.4207 13.1777 21.5884 13.2031 21.752C13.2229 21.8795 13.1278 22 12.9988 22H5.5C4.11929 22 3 20.8807 3 19.5V18.7273C3 16.7372 4.25055 15.1424 5.86408 14.1182C7.49136 13.0852 9.6563 12.5 12 12.5C12.9337 12.5 13.839 12.5929 14.6932 12.77Z" fill="#161823"/>
<path d="M18.8315 12.125C17.1747 12.125 15.8315 13.4681 15.8315 15.125V16.0995C15.1517 16.3396 14.6646 16.9879 14.6646 17.75V21.25C14.6646 22.2165 15.4481 23 16.4146 23H21.2487C22.2152 23 22.9987 22.2165 22.9987 21.25V17.75C22.9987 16.9878 22.5115 16.3395 21.8315 16.0994V15.125C21.8315 13.4681 20.4884 12.125 18.8315 12.125ZM20.3315 16H17.3315V15.125C17.3315 14.2966 18.0031 13.625 18.8315 13.625C19.66 13.625 20.3315 14.2966 20.3315 15.125V16ZM16.4146 17.5H21.2487C21.3868 17.5 21.4987 17.6119 21.4987 17.75V21.25C21.4987 21.3881 21.3868 21.5 21.2487 21.5H16.4146C16.2765 21.5 16.1646 21.3881 16.1646 21.25V17.75C16.1646 17.6119 16.2765 17.5 16.4146 17.5Z" fill="#161823"/>
</svg>
