<svg width="24" height="24" viewBox="0 0 24 24" fill="none" xmlns="http://www.w3.org/2000/svg">
<path d="M9.31274 12.5037H10.7416L10.5023 14.9369C10.4103 15.805 11.5063 16.249 12.0072 15.5238L15.3303 10.4036C15.7125 9.85051 15.3273 9.0594 14.6459 9.0594H13.5641L14.3998 7.08777C14.6379 6.52601 14.2422 5.88751 13.6376 5.88751H10.6572C10.2795 5.88751 9.95216 6.14887 9.85444 6.52029L8.51107 11.418C8.36766 11.963 8.76033 12.5037 9.31274 12.5037Z" fill="#161823"/>
<path d="M22 10.94C22 5.91936 17.4348 2 12 2C6.56526 2 2 5.91937 2 10.9402C2 15.7965 6.3494 19.006 11.3841 19.2972V19.499C11.3841 21.5753 12.7407 21.6605 13.9123 21.0012C15.2813 20.2307 17.4074 18.9198 18.8736 17.4511C20.7866 15.5348 22 13.4411 22 10.94ZM12 3.5C16.7831 3.5 20.5 6.91415 20.5 10.94C20.5 12.897 19.5685 14.6318 17.8121 16.3913C16.4995 17.7062 14.5262 18.9345 13.1766 19.694C13.1044 19.7347 13.0411 19.7278 12.9869 19.6949C12.9298 19.6603 12.8841 19.5958 12.8841 19.499V18.5688C12.8841 18.1546 12.5483 17.8188 12.1341 17.8188C7.26084 17.8188 3.5 14.8911 3.5 10.9402C3.5 6.91414 7.21693 3.5 12 3.5Z" fill="#161823"/>
</svg>
