<svg width="24" height="24" viewBox="0 0 24 24" fill="none" xmlns="http://www.w3.org/2000/svg">
<path fill-rule="evenodd" clip-rule="evenodd" d="M5.16401 2.80378C4.72937 2.53885 4.18806 2.53191 3.74699 2.78562C3.30591 3.03933 3.03327 3.51446 3.03327 4.0294V6.4508C3.03327 6.96574 3.30591 7.44087 3.74699 7.69457C4.18806 7.94828 4.72937 7.94134 5.16401 7.67641L7.15021 6.46571C7.57398 6.2074 7.83327 5.74216 7.83327 5.2401C7.83327 4.73804 7.57398 4.27279 7.15021 4.01448L5.16401 2.80378ZM9.74994 4.51676C9.33572 4.51676 8.99994 4.85255 8.99994 5.26676C8.99994 5.68098 9.33572 6.01676 9.74994 6.01676H20.2166C20.6308 6.01676 20.9666 5.68098 20.9666 5.26676C20.9666 4.85255 20.6308 4.51676 20.2166 4.51676H9.74994ZM3.0166 12.0168C3.0166 11.6025 3.35239 11.2668 3.7666 11.2668H20.1999C20.6142 11.2668 20.9499 11.6025 20.9499 12.0168C20.9499 12.431 20.6141 12.7668 20.1999 12.7668H3.7666C3.35239 12.7668 3.0166 12.431 3.0166 12.0168ZM11.0499 19.5168L3.7666 19.5168C3.35239 19.5168 3.0166 19.181 3.0166 18.7668C3.0166 18.3526 3.35239 18.0168 3.7666 18.0168L11.0499 18.0168C11.4641 18.0168 11.7999 18.3525 11.7999 18.7668C11.7999 19.181 11.4641 19.5168 11.0499 19.5168ZM18.1271 20.8925C19.5991 20.8925 20.7923 19.6992 20.7923 18.2273C20.7923 16.7553 19.5991 15.5621 18.1271 15.5621C16.6552 15.5621 15.4619 16.7553 15.4619 18.2273C15.4619 19.6992 16.6552 20.8925 18.1271 20.8925ZM18.1271 21.9878C20.204 21.9878 21.8876 20.3042 21.8876 18.2273C21.8876 16.1504 20.204 14.4668 18.1271 14.4668C16.0502 14.4668 14.3666 16.1504 14.3666 18.2273C14.3666 20.3042 16.0502 21.9878 18.1271 21.9878ZM17.8982 16.187C18.2006 16.187 18.4458 16.4322 18.4458 16.7347V17.9748H19.686C19.9885 17.9748 20.2337 18.22 20.2337 18.5225C20.2337 18.8249 19.9885 19.0701 19.686 19.0701H17.8982C17.5957 19.0701 17.3505 18.8249 17.3505 18.5225V16.7347C17.3505 16.4322 17.5957 16.187 17.8982 16.187Z" fill="#161823"/>
</svg>
