<svg width="20" height="20" viewBox="0 0 20 20" fill="none" xmlns="http://www.w3.org/2000/svg">
<path d="M9.60635 2.4444C9.8543 2.32583 10.1457 2.32583 10.3936 2.4444L17.5057 5.84548C18.1596 6.15819 18.1596 7.05529 17.5057 7.368L10.3936 10.7691C10.1457 10.8876 9.8543 10.8876 9.60635 10.7691L2.49434 7.368C1.84043 7.05529 1.84043 6.15818 2.49434 5.84547L9.60635 2.4444Z" fill="#161823"/>
<path d="M10.0004 12.6729L10.4478 12.4585C10.4639 12.4508 10.4813 12.4665 10.4755 12.4833C10.3016 12.9869 10.1968 13.5226 10.1723 14.0792C10.1682 14.1711 10.1043 14.2531 10.0123 14.2546C9.89717 14.2565 9.78173 14.2319 9.67534 14.1808L2.47884 10.7248C2.10545 10.5455 1.94812 10.0975 2.12744 9.72408C2.30675 9.35069 2.7548 9.19336 3.12819 9.37267L10.0004 12.6729Z" fill="#161823"/>
<path d="M10.452 16.1135C10.4131 15.9958 10.2802 15.9357 10.1684 15.9893L10.0004 16.0698L3.12819 12.7696C2.7548 12.5903 2.30675 12.7476 2.12744 13.121C1.94812 13.4944 2.10545 13.9424 2.47884 14.1217L9.67534 17.5777C9.88036 17.6762 10.119 17.6763 10.3241 17.578L10.7829 17.3581C10.8895 17.3071 10.9285 17.1754 10.8713 17.0721C10.7034 16.7685 10.5626 16.4479 10.452 16.1135Z" fill="#161823"/>
<path fill-rule="evenodd" clip-rule="evenodd" d="M17.7015 10.6078C17.1396 10.3254 16.505 10.1665 15.8333 10.1665C15.5816 10.1665 15.3351 10.1888 15.0957 10.2316C14.3409 10.3664 13.6565 10.7045 13.1012 11.1872C12.4226 11.7771 11.9367 12.5829 11.7505 13.4977C11.6955 13.7676 11.6667 14.047 11.6667 14.3332C11.6667 14.6395 11.6997 14.9381 11.7625 15.2255C11.8718 15.7269 12.0715 16.1945 12.3435 16.6104C13.0874 17.7481 14.3726 18.4998 15.8333 18.4998C18.1345 18.4998 20 16.6344 20 14.3332C20 12.7037 19.0646 11.2927 17.7015 10.6078ZM15.8333 11.7833C16.1647 11.7833 16.4333 12.052 16.4333 12.3833V13.7H17.75C18.0814 13.7 18.35 13.9686 18.35 14.3C18.35 14.6313 18.0814 14.9 17.75 14.9H16.4333V16.2167C16.4333 16.548 16.1647 16.8167 15.8333 16.8167C15.502 16.8167 15.2333 16.548 15.2333 16.2167V14.9H13.9167C13.5853 14.9 13.3167 14.6313 13.3167 14.3C13.3167 13.9686 13.5853 13.7 13.9167 13.7H15.2333V12.3833C15.2333 12.052 15.502 11.7833 15.8333 11.7833Z" fill="#161823"/>
</svg>
