<svg width="20" height="20" viewBox="0 0 20 20" fill="none" xmlns="http://www.w3.org/2000/svg">
<path d="M13.7666 17.25C14.1808 17.25 14.5166 17.5858 14.5166 18C14.5166 18.4142 14.1808 18.75 13.7666 18.75H6.2002C5.78598 18.75 5.4502 18.4142 5.4502 18C5.4502 17.5858 5.78598 17.25 6.2002 17.25H13.7666Z" fill="#161823"/>
<path d="M10.75 5.92676C11.116 5.79735 11.5154 5.96891 11.6777 6.3125L11.707 6.38379L13 10.0361L14.293 6.38379C14.4312 5.9934 14.8596 5.78871 15.25 5.92676C15.6402 6.06506 15.845 6.49349 15.707 6.88379L13.9902 11.7354C13.6598 12.6676 12.3402 12.6675 12.0098 11.7354L10.293 6.88379L10.2715 6.81055C10.1814 6.44117 10.3839 6.05636 10.75 5.92676Z" fill="#161823"/>
<path d="M6.98633 5.88379H8.83301C9.24722 5.88379 9.58301 6.21958 9.58301 6.63379C9.58274 7.04778 9.24706 7.38379 8.83301 7.38379H7.7168V11.667C7.71653 12.081 7.38085 12.416 6.9668 12.416C6.55258 12.416 6.2168 12.0802 6.2168 11.666V7.38379H5.06641C4.65236 7.38379 4.31667 7.04778 4.31641 6.63379C4.31641 6.21958 4.65219 5.88379 5.06641 5.88379H6.94727C6.95376 5.88362 6.96026 5.88281 6.9668 5.88281C6.97333 5.88281 6.97984 5.88362 6.98633 5.88379Z" fill="#161823"/>
<path fill-rule="evenodd" clip-rule="evenodd" d="M15.8379 2.00391C17.599 2.09313 18.9998 3.5497 19 5.33301V12.667L18.9951 12.8379C18.9089 14.5425 17.5424 15.9097 15.8379 15.9961L15.667 16H4.36621C2.58284 15.9998 1.12622 14.5992 1.03711 12.8379L1.0332 12.667V5.33301C1.03338 3.49232 2.52553 2.00018 4.36621 2H15.667L15.8379 2.00391ZM4.36621 3.5C3.35395 3.50018 2.53338 4.32074 2.5332 5.33301V12.667C2.53338 13.6793 3.35395 14.4998 4.36621 14.5H15.667C16.6791 14.4997 17.4998 13.6792 17.5 12.667V5.33301C17.4998 4.32082 16.6791 3.5003 15.667 3.5H4.36621Z" fill="#161823"/>
</svg>
