<svg width="20" height="20" viewBox="0 0 20 20" fill="none" xmlns="http://www.w3.org/2000/svg">
<path d="M11.2647 2.30808C10.8274 1.13851 9.17308 1.13852 8.73575 2.30808L7.17246 6.48885L3.03057 2.34696C2.73768 2.05407 2.26281 2.05407 1.96991 2.34696C1.67702 2.63985 1.67702 3.11473 1.96991 3.40762L16.9699 18.4076C17.2628 18.7005 17.7377 18.7005 18.0306 18.4076C18.3235 18.1147 18.3235 17.6399 18.0306 17.347L15.3562 14.6726L14.5884 11.9036L18.0991 9.11093C19.0763 8.33359 18.565 6.76024 17.3176 6.70573L12.8359 6.5099L11.2647 2.30808Z" fill="#161823"/>
<path d="M2.68291 6.70573L3.13433 6.686L14.0059 17.5576C14.1371 17.6887 14.0372 17.8762 13.8727 17.7906C13.8284 17.7675 13.7845 17.7417 13.7411 17.713L10.0002 15.2371L6.25938 17.713C5.21812 18.4021 3.87975 17.4297 4.21339 16.2265L5.41206 11.9036L1.90141 9.11093C0.924233 8.33359 1.43544 6.76024 2.68291 6.70573Z" fill="#161823"/>
</svg>
