<svg width="20" height="20" viewBox="0 0 20 20" fill="none" xmlns="http://www.w3.org/2000/svg">
<path d="M1.66699 5.25C1.66699 3.73122 2.89821 2.5 4.41699 2.5H6.7779C7.50725 2.5 8.20672 2.78973 8.72245 3.30546L9.19487 3.77788C9.71059 4.2936 10.4101 4.58333 11.1394 4.58333H15.5837C17.1024 4.58333 18.3337 5.81455 18.3337 7.33333V10.7466C17.8663 10.5165 17.3627 10.3489 16.8337 10.2547V9H3.16699V14.75C3.16699 15.4404 3.72664 16 4.41699 16H10.1692C10.1842 16.5206 10.2695 17.0237 10.4158 17.5H4.41699C2.89821 17.5 1.66699 16.2688 1.66699 14.75V5.25ZM16.8337 7.5V7.33333C16.8337 6.64298 16.274 6.08333 15.5837 6.08333H11.1394C10.0122 6.08333 8.93124 5.63557 8.13421 4.83854L7.66179 4.36612C7.42737 4.1317 7.10943 4 6.7779 4H4.41699C3.72664 4 3.16699 4.55964 3.16699 5.25V7.5H16.8337Z" fill="#161823"/>
<path d="M20.0003 15.8333C20.0003 18.1345 18.1348 20 15.8337 20C13.5325 20 11.667 18.1345 11.667 15.8333C11.667 13.5321 13.5325 11.6667 15.8337 11.6667C18.1348 11.6667 20.0003 13.5321 20.0003 15.8333ZM16.334 13.9583C16.334 13.6822 16.1101 13.4583 15.834 13.4583C15.5578 13.4583 15.334 13.6822 15.334 13.9583V15.3333H13.959C13.6828 15.3333 13.459 15.5572 13.459 15.8333C13.459 16.1095 13.6828 16.3333 13.959 16.3333H15.334V17.7083C15.334 17.9845 15.5578 18.2083 15.834 18.2083C16.1101 18.2083 16.334 17.9845 16.334 17.7083V16.3333H17.709C17.9851 16.3333 18.209 16.1095 18.209 15.8333C18.209 15.5572 17.9851 15.3333 17.709 15.3333H16.334V13.9583Z" fill="#161823"/>
</svg>
