<svg width="20" height="20" viewBox="0 0 20 20" fill="none" xmlns="http://www.w3.org/2000/svg">
<path d="M5.24389 10.8099C5.32711 10.749 5.27955 10.6146 5.1771 10.6264C4.09316 10.7513 3.08872 11.0787 2.27036 11.5859C1.22165 12.2358 0.291016 13.3235 0.291016 14.772V15.0906C0.291016 16.3028 1.27371 17.2855 2.48592 17.2855H3.08441C3.15977 17.2855 3.20835 17.2051 3.17623 17.1369C2.99433 16.7509 2.87933 16.3272 2.84615 15.8806C2.84219 15.8274 2.79838 15.7855 2.74501 15.7855H2.48592C2.10214 15.7855 1.79102 15.4743 1.79102 15.0906V14.772C1.79102 13.8744 2.48579 13.079 3.57693 12.5875C4.01814 11.8655 4.61379 11.271 5.24389 10.8099Z" fill="#161823"/>
<path d="M7.37133 8.68529C7.40255 8.7315 7.39143 8.79472 7.3441 8.82422C7.00071 9.03831 6.6046 9.16039 6.18282 9.16039C4.87022 9.16039 3.80615 7.97809 3.80615 6.51965C3.80615 5.06121 4.87022 3.87891 6.18282 3.87891C6.37722 3.87891 6.56616 3.90484 6.74701 3.95376C6.80245 3.96876 6.83087 4.02892 6.81127 4.0829C6.66807 4.47722 6.57205 4.89241 6.52884 5.31777C6.52146 5.39046 6.4416 5.43373 6.37212 5.41114C6.30566 5.38954 6.2413 5.37891 6.18282 5.37891C5.8434 5.37891 5.30615 5.73706 5.30615 6.51965C5.30615 7.30223 5.8434 7.66039 6.18282 7.66039C6.31271 7.66039 6.47157 7.60794 6.61821 7.49932C6.67926 7.4541 6.77289 7.47599 6.79829 7.54759C6.94177 7.95211 7.13479 8.33515 7.37133 8.68529Z" fill="#161823"/>
<path d="M11.0028 9.16667C12.6596 9.16667 14.0028 7.67428 14.0028 5.83333C14.0028 3.99238 12.6596 2.5 11.0028 2.5C9.34591 2.5 8.00277 3.99238 8.00277 5.83333C8.00277 7.67428 9.34591 9.16667 11.0028 9.16667ZM11.0028 7.66667C10.3191 7.66667 9.50277 6.99842 9.50277 5.83333C9.50277 4.66824 10.3191 4 11.0028 4C11.6864 4 12.5028 4.66824 12.5028 5.83333C12.5028 6.99842 11.6864 7.66667 11.0028 7.66667Z" fill="#161823"/>
<path d="M6.36175 11.368C7.6126 10.5928 9.25164 10.1667 11.0028 10.1667C11.5676 10.1667 12.1207 10.211 12.6529 10.297C12.7444 10.3118 12.7651 10.4318 12.6848 10.4782L12.1833 10.7677C11.8058 10.9856 11.4882 11.2797 11.2452 11.6243C11.2256 11.652 11.1937 11.6686 11.1597 11.668C11.1076 11.6671 11.0553 11.6667 11.0028 11.6667C7.95597 11.6667 5.58618 13.159 5.58618 15V15.4167C5.58618 15.8769 5.95928 16.25 6.41951 16.25H10.6152C10.6681 16.25 10.7117 16.2912 10.7165 16.3439C10.7575 16.7894 10.8985 17.2144 11.1229 17.5899C11.1642 17.6591 11.116 17.75 11.0354 17.75H6.41951C5.13085 17.75 4.08618 16.7053 4.08618 15.4167V15C4.08618 13.3774 5.1289 12.132 6.36175 11.368Z" fill="#161823"/>
<path d="M17.2379 14.698C17.2379 15.3608 16.7006 15.898 16.0379 15.898C15.3751 15.898 14.8379 15.3608 14.8379 14.698C14.8379 14.0353 15.3751 13.498 16.0379 13.498C16.7006 13.498 17.2379 14.0353 17.2379 14.698Z" fill="#161823"/>
<path d="M15.1628 10.6356C15.7042 10.323 16.3713 10.323 16.9128 10.6356L19.1214 11.9108C19.6629 12.2234 19.9964 12.8011 19.9964 13.4263V15.9766C19.9964 16.6019 19.6629 17.1796 19.1214 17.4922L16.9128 18.7674C16.3713 19.08 15.7042 19.08 15.1628 18.7674L12.9541 17.4922C12.4127 17.1796 12.0791 16.6019 12.0791 15.9766V13.4263C12.0791 12.8011 12.4126 12.2234 12.9541 11.9108L15.1628 10.6356ZM16.1628 11.9346C16.0854 11.89 15.9901 11.89 15.9128 11.9346L13.7041 13.2098C13.6268 13.2545 13.5791 13.337 13.5791 13.4263V15.9766C13.5791 16.066 13.6268 16.1485 13.7041 16.1931L15.9128 17.4683C15.9901 17.513 16.0854 17.513 16.1628 17.4683L18.3714 16.1931C18.4488 16.1485 18.4964 16.066 18.4964 15.9766V13.4263C18.4964 13.337 18.4488 13.2545 18.3714 13.2098L16.1628 11.9346Z" fill="#161823"/>
</svg>
