<svg width="24" height="24" viewBox="0 0 24 24" fill="none" xmlns="http://www.w3.org/2000/svg">
<path d="M10.7504 1.90002C5.86268 1.90002 1.90039 5.8623 1.90039 10.75C1.90039 15.6377 5.86268 19.6 10.7504 19.6C12.5451 19.6 14.215 19.0658 15.6098 18.1477L19.4852 22.0304C20.1875 22.734 21.3272 22.7351 22.0308 22.0328C22.7344 21.3305 22.7355 20.1908 22.0332 19.4872L18.1539 15.6006C19.0685 14.2076 19.6004 12.5409 19.6004 10.75C19.6004 5.8623 15.6381 1.90002 10.7504 1.90002ZM4.10039 10.75C4.10039 7.07733 7.0777 4.10002 10.7504 4.10002C14.4231 4.10002 17.4004 7.07733 17.4004 10.75C17.4004 14.4227 14.4231 17.4 10.7504 17.4C7.0777 17.4 4.10039 14.4227 4.10039 10.75Z" fill="#161823"/>
</svg>
