<svg width="24" height="24" viewBox="0 0 24 24" fill="none" xmlns="http://www.w3.org/2000/svg">
<path d="M12.0003 1.1001C12.4973 1.1001 12.9003 1.50304 12.9003 2.0001V4.0001C12.9003 4.49715 12.4973 4.9001 12.0003 4.9001C11.5032 4.9001 11.1003 4.49715 11.1003 4.0001V2.0001C11.1003 1.50304 11.5032 1.1001 12.0003 1.1001Z" fill="#161823"/>
<path fill-rule="evenodd" clip-rule="evenodd" d="M12.0003 17.4993C15.0374 17.4993 17.4995 15.0372 17.4995 12.0001C17.4995 8.96295 15.0374 6.50086 12.0003 6.50086C8.96315 6.50086 6.50106 8.96295 6.50106 12.0001C6.50106 15.0372 8.96315 17.4993 12.0003 17.4993ZM12.0003 15.6993C14.0433 15.6993 15.6995 14.0431 15.6995 12.0001C15.6995 9.95706 14.0433 8.30087 12.0003 8.30087C9.95726 8.30087 8.30106 9.95706 8.30106 12.0001C8.30106 14.0431 9.95726 15.6993 12.0003 15.6993Z" fill="#161823"/>
<path d="M5.56936 4.2863C5.21804 3.93467 4.64819 3.93442 4.29657 4.28573C3.94494 4.63705 3.94469 5.2069 4.296 5.55852L5.71021 6.97399C6.06153 7.32562 6.63138 7.32587 6.98301 6.97456C7.33463 6.62324 7.33489 6.05339 6.98357 5.70177L5.56936 4.2863Z" fill="#161823"/>
<path d="M1.10156 12.0003C1.10178 11.5032 1.50491 11.1005 2.00196 11.1007L4.00285 11.1016C4.49991 11.1018 4.90267 11.5049 4.90245 12.002C4.90223 12.499 4.49911 12.9018 4.00205 12.9016L2.00116 12.9007C1.50411 12.9005 1.10134 12.4973 1.10156 12.0003Z" fill="#161823"/>
<path d="M4.29791 18.4417C3.94628 18.793 3.94603 19.3629 4.29734 19.7145C4.64866 20.0661 5.21851 20.0664 5.57014 19.7151L6.9856 18.3009C7.33723 17.9496 7.33749 17.3797 6.98617 17.0281C6.63485 16.6764 6.06501 16.6762 5.71338 17.0275L4.29791 18.4417Z" fill="#161823"/>
<path d="M19.726 4.28579C19.3744 3.93448 18.8046 3.93473 18.4532 4.28636L17.039 5.70183C16.6877 6.05345 16.688 6.6233 17.0396 6.97462C17.3912 7.32593 17.9611 7.32568 18.3124 6.97405L19.7266 5.55859C20.0779 5.20696 20.0777 4.63711 19.726 4.28579Z" fill="#161823"/>
<path d="M22.0207 11.1007C22.5177 11.1005 22.9208 11.5032 22.9211 12.0003C22.9213 12.4973 22.5185 12.9005 22.0215 12.9007L20.0206 12.9016C19.5235 12.9018 19.1204 12.499 19.1202 12.002C19.1199 11.5049 19.5227 11.1018 20.0198 11.1016L22.0207 11.1007Z" fill="#161823"/>
<path d="M19.7253 19.7145C20.0766 19.3628 20.0763 18.793 19.7247 18.4417L18.3092 17.0275C17.9576 16.6761 17.3878 16.6764 17.0365 17.028C16.6851 17.3796 16.6854 17.9495 17.037 18.3008L18.4525 19.715C18.8041 20.0663 19.374 20.0661 19.7253 19.7145Z" fill="#161823"/>
<path d="M11.1122 22.009C11.112 22.5061 11.5148 22.9092 12.0118 22.9094C12.5089 22.9097 12.912 22.5069 12.9122 22.0098L12.9131 20.009C12.9133 19.5119 12.5106 19.1088 12.0135 19.1086C11.5165 19.1083 11.1133 19.5111 11.1131 20.0082L11.1122 22.009Z" fill="#161823"/>
</svg>
