<svg width="16" height="16" viewBox="0 0 16 16" fill="none" xmlns="http://www.w3.org/2000/svg">
<path d="M2.16113 3.73887C2.16113 2.41338 3.23565 1.33887 4.56113 1.33887H10.4398C11.7653 1.33887 12.8398 2.41338 12.8398 3.73887V6.07083C12.8398 6.13838 12.7741 6.18652 12.7084 6.17079C12.2297 6.05618 11.7175 6.12541 11.2793 6.37845L8.28606 8.10658C7.68272 8.45491 7.31106 9.09866 7.31106 9.79533V13.2516C7.31106 13.705 7.46851 14.136 7.7448 14.4778C7.8015 14.5479 7.75438 14.6611 7.6642 14.6611H4.56113C3.23565 14.6611 2.16113 13.5866 2.16113 12.2611V3.73887ZM4.82813 3.89999C4.49676 3.89999 4.22813 4.16862 4.22813 4.49999C4.22813 4.83136 4.49676 5.09999 4.82813 5.09999H9.4948C9.82617 5.09999 10.0948 4.83136 10.0948 4.49999C10.0948 4.16862 9.82617 3.89999 9.4948 3.89999H4.82813ZM4.22813 6.66537C4.22813 6.99674 4.49676 7.26537 4.82813 7.26537H7.82813C8.1595 7.26537 8.42813 6.99674 8.42813 6.66537C8.42813 6.334 8.1595 6.06537 7.82813 6.06537H4.82813C4.49676 6.06537 4.22813 6.334 4.22813 6.66537Z" fill="#161823"/>
<path d="M13.3814 11.5234C13.3814 12.1448 12.8777 12.6484 12.2564 12.6484C11.6351 12.6484 11.1314 12.1448 11.1314 11.5234C11.1314 10.9021 11.6351 10.3984 12.2564 10.3984C12.8777 10.3984 13.3814 10.9021 13.3814 11.5234Z" fill="#161823"/>
<path d="M12.6293 7.41768C12.3972 7.28371 12.1113 7.28371 11.8793 7.41768L8.88606 9.14581C8.65401 9.27978 8.51106 9.52738 8.51106 9.79533V13.2516C8.51106 13.5195 8.65401 13.7671 8.88606 13.9011L11.8793 15.6292C12.1113 15.7632 12.3972 15.7632 12.6293 15.6292L15.6225 13.9011C15.8545 13.7671 15.9975 13.5195 15.9975 13.2516V9.79533C15.9975 9.52738 15.8545 9.27978 15.6225 9.14581L12.6293 7.41768ZM10.0111 12.8186V10.2283L12.2543 8.93323L14.4975 10.2283V12.8186L12.2543 14.1137L10.0111 12.8186Z" fill="#161823"/>
</svg>
