<svg width="24" height="24" viewBox="0 0 24 24" fill="none" xmlns="http://www.w3.org/2000/svg">
<path d="M18.2511 12.0001C18.2511 11.5859 17.9153 11.2501 17.5011 11.2501C17.0869 11.2501 16.7511 11.5859 16.7511 12.0001C16.7511 12.624 16.6282 13.2418 16.3894 13.8182C16.1507 14.3946 15.8007 14.9183 15.3596 15.3594C14.9184 15.8006 14.3947 16.1506 13.8183 16.3893C13.2419 16.6281 12.6241 16.7509 12.0002 16.7509C11.586 16.7509 11.2502 17.0867 11.2502 17.5009C11.2502 17.9152 11.586 18.2509 12.0002 18.2509C12.8211 18.2509 13.6339 18.0893 14.3923 17.7751C15.1507 17.461 15.8398 17.0006 16.4202 16.4201C17.0007 15.8397 17.4611 15.1506 17.7752 14.3922C18.0894 13.6338 18.2511 12.821 18.2511 12.0001Z" fill="#161823"/>
<path d="M22.0002 12.0001C22.0002 17.523 17.523 22.0002 12.0001 22.0002C6.4772 22.0002 2 17.523 2 12.0001C2 6.4772 6.4772 2 12.0001 2C17.523 2 22.0002 6.4772 22.0002 12.0001ZM20.5002 12.0001C20.5002 7.30562 16.6946 3.5 12.0001 3.5C7.30562 3.5 3.5 7.30562 3.5 12.0001C3.5 16.6946 7.30562 20.5002 12.0001 20.5002C16.6946 20.5002 20.5002 16.6946 20.5002 12.0001Z" fill="#161823"/>
</svg>
