<svg width="24" height="24" viewBox="0 0 24 24" fill="none" xmlns="http://www.w3.org/2000/svg">
<path d="M16.7996 13.9395C17.2966 13.9395 17.7 14.3429 17.7 14.8398V16.3398H19.2L19.2918 16.3447C19.7454 16.391 20.0994 16.7744 20.0994 17.2402C20.0992 17.7059 19.7453 18.0885 19.2918 18.1348L19.2 18.1396H16.7996C16.3027 18.1396 15.8995 17.7371 15.8992 17.2402V14.8398C15.8993 14.3428 16.3026 13.9395 16.7996 13.9395Z" fill="#161823"/>
<path fill-rule="evenodd" clip-rule="evenodd" d="M16.8797 10.96C20.1491 10.96 22.7995 13.6105 22.7996 16.8799C22.7996 20.1494 20.1492 22.7998 16.8797 22.7998C13.6102 22.7998 10.9598 20.1494 10.9598 16.8799C10.9599 13.6105 13.6103 10.96 16.8797 10.96ZM16.8797 12.7598C14.6044 12.7598 12.7597 14.6046 12.7596 16.8799C12.7596 19.1553 14.6043 21 16.8797 21C19.1551 20.9999 20.9998 19.1553 20.9998 16.8799C20.9997 14.6046 19.155 12.7598 16.8797 12.7598Z" fill="#161823"/>
<path d="M7.72444 3.90039C8.17847 3.6984 8.71078 3.90244 8.91292 4.35645C9.11443 4.81021 8.91038 5.34273 8.45686 5.54492C6.86487 6.25372 5.56475 7.48797 4.77425 9.04102C3.98385 10.594 3.75036 12.372 4.11409 14.0762C4.478 15.78 5.41689 17.3076 6.77229 18.4023C7.79695 19.2298 9.01349 19.771 10.2987 19.9854C10.3504 19.994 10.3954 20.0272 10.4188 20.0742C10.7316 20.7017 11.134 21.2765 11.6082 21.7832C11.6449 21.8226 11.618 21.8903 11.5643 21.8906C9.4092 21.8942 7.31707 21.1567 5.64046 19.8027C3.96408 18.4486 2.8033 16.5586 2.35335 14.4512C1.9036 12.3436 2.1923 10.1452 3.16975 8.22461C4.14745 6.30379 5.75545 4.77704 7.72444 3.90039Z" fill="#161823"/>
<path d="M14.1571 4.34766C14.3452 3.92132 14.8238 3.71333 15.2576 3.85449L15.3436 3.8877L15.7088 4.05859C17.5141 4.94966 18.9904 6.39883 19.9129 8.19629C20.2855 8.92251 20.5591 9.68899 20.7313 10.4756C20.7613 10.6126 20.6092 10.7153 20.4881 10.6445C19.9572 10.3343 19.3835 10.0894 18.7772 9.92285C18.7265 9.90893 18.6853 9.87147 18.6668 9.82227C18.5644 9.5489 18.4457 9.28045 18.3114 9.01855C17.5655 7.56521 16.3716 6.39332 14.9119 5.67285L14.617 5.53418L14.534 5.49316C14.1377 5.26778 13.9692 4.77382 14.1571 4.34766Z" fill="#161823"/>
<path d="M11.5194 1.5C12.0163 1.5001 12.4198 1.90339 12.4198 2.40039V9.28027C12.4196 9.7771 12.0162 10.1806 11.5194 10.1807C11.0224 10.1807 10.6192 9.77716 10.619 9.28027V2.40039C10.619 1.90333 11.0223 1.5 11.5194 1.5Z" fill="#161823"/>
</svg>
