<svg width="24" height="24" viewBox="0 0 24 24" fill="none" xmlns="http://www.w3.org/2000/svg">
<path d="M7.75 2C5.67893 2 4 3.67893 4 5.75V18.25C4 20.3211 5.67893 22 7.75 22H16.25C18.3211 22 20 20.3211 20 18.25V5.75C20 3.67893 18.3211 2 16.25 2H7.75ZM8.5 6H15.5C15.9142 6 16.25 6.33579 16.25 6.75C16.25 7.16421 15.9142 7.5 15.5 7.5H8.5C8.08579 7.5 7.75 7.16421 7.75 6.75C7.75 6.33579 8.08579 6 8.5 6ZM7.75 10C7.75 9.58579 8.08579 9.25 8.5 9.25H15.5C15.9142 9.25 16.25 9.58579 16.25 10C16.25 10.4142 15.9142 10.75 15.5 10.75H8.5C8.08579 10.75 7.75 10.4142 7.75 10ZM8.5 12.5H13C13.4142 12.5 13.75 12.8358 13.75 13.25C13.75 13.6642 13.4142 14 13 14H8.5C8.08579 14 7.75 13.6642 7.75 13.25C7.75 12.8358 8.08579 12.5 8.5 12.5Z" fill="#161823"/>
</svg>
