<svg width="24" height="24" viewBox="0 0 24 24" fill="none" xmlns="http://www.w3.org/2000/svg">
<path fill-rule="evenodd" clip-rule="evenodd" d="M13.4321 18.3289C12.0488 18.5373 10.6353 18.2844 9.40917 17.6089C8.86095 17.3068 8.17167 17.5064 7.86961 18.0546C7.56756 18.6028 7.76712 19.2921 8.31533 19.5941C9.97737 20.5099 11.8939 20.8529 13.7698 20.5703C15.6457 20.2876 17.3766 19.395 18.6961 18.0303C20.0156 16.6657 20.8507 14.9046 21.0735 13.0184C21.2963 11.1321 20.8944 9.22455 19.9294 7.58925C18.9644 5.95391 17.4896 4.68122 15.7316 3.96757C13.9735 3.2539 12.03 3.13901 10.2003 3.64067C8.37065 4.14232 6.75665 5.23255 5.60643 6.74305C4.63894 8.01358 4.04459 9.52229 3.88019 11.1H2.79548C2.20601 11.1 1.89506 11.7982 2.2894 12.2363L4.25759 14.4232C4.66329 14.874 5.37012 14.874 5.77582 14.4232L7.74401 12.2363C8.13834 11.7982 7.8274 11.1 7.23793 11.1H6.16352C6.31657 10.0197 6.74345 8.99129 7.40977 8.11627C8.2591 7.00091 9.45027 6.19663 10.7997 5.82666C12.149 5.4567 13.5823 5.54139 14.879 6.06779C16.1758 6.5942 17.2645 7.53334 17.9773 8.74118C18.69 9.94907 18.9871 11.3585 18.8225 12.7525C18.6579 14.1465 18.0407 15.4473 17.0666 16.4547C16.0925 17.4622 14.8154 18.1205 13.4321 18.3289Z" fill="#161823"/>
</svg>
