<svg width="16" height="16" viewBox="0 0 16 16" fill="none" xmlns="http://www.w3.org/2000/svg">
<path d="M12.8373 11.7765C13.1302 12.0694 13.1302 12.5442 12.8373 12.8371C12.5444 13.13 12.0695 13.13 11.7766 12.8371L8.00015 9.06066L4.22369 12.8371C3.9308 13.13 3.45592 13.13 3.16303 12.8371C2.87014 12.5442 2.87014 12.0694 3.16303 11.7765L6.93949 8L3.16303 4.22354C2.87014 3.93064 2.87014 3.45577 3.16303 3.16288C3.45592 2.86998 3.9308 2.86998 4.22369 3.16288L8.00015 6.93934L11.7766 3.16288C12.0695 2.86999 12.5444 2.86999 12.8373 3.16288C13.1302 3.45577 13.1302 3.93065 12.8373 4.22354L9.06081 8L12.8373 11.7765Z" fill="#161823"/>
</svg>
