<svg width="24" height="24" viewBox="0 0 24 24" fill="none" xmlns="http://www.w3.org/2000/svg">
<path d="M5 3C5 2.44772 5.44772 2 6 2C6.55228 2 7 2.44772 7 3V5C7 5.55228 6.55228 6 6 6C5.44772 6 5 5.55228 5 5V4.5H3.5V7.75C3.5 10.6495 5.85051 13 8.75 13C11.6495 13 14 10.6495 14 7.75V4.5H12.5V5C12.5 5.55228 12.0523 6 11.5 6C10.9477 6 10.5 5.55228 10.5 5V3C10.5 2.44772 10.9477 2 11.5 2C12.0523 2 12.5 2.44772 12.5 3H14.2738C14.951 3 15.5 3.54898 15.5 4.22619V7.75C15.5 11.1381 13.0037 13.9432 9.75 14.4264V16.25C9.75 18.5972 11.6528 20.5 14 20.5C16.3472 20.5 18.25 18.5972 18.25 16.25V14.9055C16.9561 14.5725 16 13.3979 16 12C16 10.3431 17.3431 9 19 9C20.6569 9 22 10.3431 22 12C22 13.3979 21.0439 14.5725 19.75 14.9055V16.25C19.75 19.4256 17.1756 22 14 22C10.8244 22 8.25 19.4256 8.25 16.25V14.4818C4.75556 14.2259 2 11.3097 2 7.75V4.22619C2 3.54898 2.54898 3 3.22619 3H5ZM19 13.5C19.8284 13.5 20.5 12.8284 20.5 12C20.5 11.1716 19.8284 10.5 19 10.5C18.1716 10.5 17.5 11.1716 17.5 12C17.5 12.8284 18.1716 13.5 19 13.5Z" fill="#161823"/>
</svg>
