<svg width="24" height="24" viewBox="0 0 24 24" fill="none" xmlns="http://www.w3.org/2000/svg">
<path d="M10.1443 1.24758C10.3427 1.00301 10.6829 0.848336 11.056 0.937217C11.7093 1.09285 12.4021 1.58009 13.0197 2.20326C13.6563 2.84574 14.285 3.70492 14.7929 4.72119C15.4789 6.09375 15.9561 7.77811 15.9172 9.62626C16.2463 8.85724 16.4236 8.06168 16.346 7.48514C16.3109 7.22404 16.3811 6.91794 16.6084 6.69238C16.727 6.57465 16.8931 6.47752 17.0967 6.44871C17.303 6.41951 17.4942 6.46804 17.6475 6.55347C18.0653 6.78636 18.4607 7.25362 18.7965 7.74401C19.1526 8.26408 19.5127 8.91734 19.8346 9.63757C20.4731 11.0665 21 12.8468 21 14.4675C21 19.2247 16.9296 23.0091 12 23.0091C7.0704 23.0091 3 19.2247 3 14.4675C3 10.2355 5.47994 8.084 7.42723 6.39459L7.46235 6.36412C8.34467 5.59857 9.06248 4.96876 9.52372 4.27777C9.95399 3.63316 10.1479 2.95188 9.95475 2.05016C9.89518 1.77197 9.96018 1.47448 10.1443 1.24758ZM11.527 2.86974C11.4968 3.71572 11.2118 4.45059 10.7713 5.11054C10.1865 5.9867 9.3177 6.74037 8.49076 7.45774C8.47562 7.47087 8.46049 7.48399 8.44539 7.4971C6.48973 9.19392 4.5 10.9461 4.5 14.4675C4.5 18.3167 7.8169 21.5091 12 21.5091C16.1831 21.5091 19.5 18.3167 19.5 14.4675C19.5 13.1327 19.0546 11.5687 18.4651 10.2496C18.2307 9.72506 17.9797 9.25339 17.7367 8.86397C17.5836 9.56161 17.3091 10.2492 17.0061 10.8265C16.7312 11.3503 16.4073 11.833 16.0719 12.197C15.9046 12.3785 15.7186 12.548 15.5181 12.677C15.326 12.8006 15.0605 12.9258 14.75 12.9258C14.5119 12.9258 14.288 12.8128 14.1466 12.6212C14.0052 12.4297 13.9631 12.1823 14.0333 11.9548C14.799 9.47157 14.3311 7.1525 13.4511 5.39176C13.0107 4.51052 12.4734 3.78301 11.9542 3.2591C11.8044 3.1079 11.6612 2.97873 11.527 2.86974Z" fill="#161823"/>
</svg>
