<svg width="16" height="16" viewBox="0 0 16 16" fill="none" xmlns="http://www.w3.org/2000/svg">
<path d="M11.2471 3.24805C8.62283 3.24805 6.49542 5.37545 6.49542 7.99974C6.49542 10.624 8.62283 12.7514 11.2471 12.7514C13.8714 12.7514 15.9988 10.624 15.9988 7.99974C15.9988 5.37545 13.8714 3.24805 11.2471 3.24805ZM7.99542 7.99974C7.99542 6.20388 9.45125 4.74805 11.2471 4.74805C13.043 4.74805 14.4988 6.20388 14.4988 7.99974C14.4988 9.7956 13.043 11.2514 11.2471 11.2514C9.45125 11.2514 7.99542 9.7956 7.99542 7.99974Z" fill="#161823"/>
<path d="M1.50391 7.99975C1.50391 6.20389 2.95974 4.74805 4.7556 4.74805C5.04303 4.74805 5.32066 4.78517 5.58447 4.85446C5.9851 4.95968 6.39517 4.72021 6.5004 4.31959C6.60562 3.91896 6.36615 3.50889 5.96553 3.40366C5.57841 3.30199 5.17274 3.24805 4.7556 3.24805C2.13131 3.24805 0.00390625 5.37546 0.00390625 7.99975C0.00390625 10.624 2.13131 12.7514 4.7556 12.7514C5.17274 12.7514 5.57841 12.6975 5.96553 12.5958C6.36615 12.4906 6.60562 12.0805 6.5004 11.6799C6.39517 11.2793 5.9851 11.0398 5.58447 11.145C5.32066 11.2143 5.04303 11.2514 4.7556 11.2514C2.95974 11.2514 1.50391 9.79561 1.50391 7.99975Z" fill="#161823"/>
</svg>
