<svg width="24" height="24" viewBox="0 0 24 24" fill="none" xmlns="http://www.w3.org/2000/svg">
<path d="M22 12C22 14.1964 21.2919 16.2274 20.0915 17.8772C19.9302 18.0989 19.7601 18.3136 19.5816 18.5209L21.5303 20.4697C21.8232 20.7626 21.8232 21.2374 21.5303 21.5303C21.2391 21.8216 20.7679 21.8232 20.4747 21.5353L3.45904 4.51966C3.45742 4.51804 3.45579 4.51642 3.45416 4.51482L2.46967 3.53033C2.17678 3.23744 2.17678 2.76256 2.46967 2.46967C2.76256 2.17678 3.23744 2.17678 3.53033 2.46967L5.47906 4.4184C7.22987 2.91114 9.50853 2 12 2C17.5228 2 22 6.47715 22 12ZM15.5664 14.5057L18.5174 17.4568C18.7518 17.1771 18.9686 16.8822 19.1659 16.5736C18.2989 15.6757 17.0542 14.9538 15.5664 14.5057ZM12.6939 11.6332C14.0728 11.4255 15.1356 10.1123 15.1356 8.52316C15.1356 6.78974 13.8709 5.38452 12.3109 5.38452C10.7798 5.38452 9.53326 6.73792 9.48739 8.42673L12.6939 11.6332Z" fill="#161823"/>
<path d="M3.5183 6.70024C2.55618 8.23676 2 10.0534 2 12C2 14.1964 2.70812 16.2274 3.90851 17.8772C5.28817 19.7734 7.31812 21.166 9.67065 21.7273C10.418 21.9056 11.198 22 12 22C12.802 22 13.582 21.9056 14.3293 21.7273C15.396 21.4728 16.3963 21.0474 17.2998 20.4817L16.2061 19.3881C14.9659 20.0957 13.5301 20.5 12 20.5C8.98932 20.5 6.34422 18.9347 4.8341 16.5736C6.14063 15.2205 8.30485 14.2672 10.8661 14.048L3.5183 6.70024Z" fill="#161823"/>
</svg>
