<svg width="20" height="20" viewBox="0 0 20 20" fill="none" xmlns="http://www.w3.org/2000/svg">
<path d="M10.8337 9.16667C12.4906 9.16667 13.8337 7.67428 13.8337 5.83333C13.8337 3.99238 12.4906 2.5 10.8337 2.5C9.17689 2.5 7.83374 3.99238 7.83374 5.83333C7.83374 7.67428 9.17689 9.16667 10.8337 9.16667Z" fill="#161823"/>
<path d="M6.32426 11.5805C7.52885 10.8339 9.12041 10.4167 10.8337 10.4167C11.5665 10.4167 12.2771 10.493 12.9446 10.6388C13.0957 10.6718 13.2707 10.8 13.2707 10.9671L13.2707 10.9679L13.2707 10.9691C13.2709 11.015 13.2746 11.8618 13.2757 12.6666H12.5004C11.497 12.6666 10.6837 13.48 10.6837 14.4833C10.6837 15.4866 11.497 16.3 12.5004 16.3H13.27C13.2699 16.4235 13.2699 16.5829 13.2699 16.801V17.3C13.2699 17.4105 13.1804 17.5 13.0699 17.5H6.25032C5.09973 17.5 4.16699 16.5673 4.16699 15.4167V15C4.16699 13.4944 5.13467 12.3178 6.32426 11.5805Z" fill="#161823"/>
<path d="M6.58362 5.83331C6.58362 5.04377 6.77582 4.2785 7.1214 3.6067C6.83188 3.47659 6.51544 3.40495 6.18394 3.40495C4.80231 3.40495 3.68227 4.64943 3.68227 6.18458C3.68227 7.71972 4.80231 8.96421 6.18394 8.96421C6.6414 8.96421 7.07018 8.82777 7.43912 8.58953C6.89555 7.80557 6.58362 6.83913 6.58362 5.83331Z" fill="#161823"/>
<path d="M6.32812 10.3464C6.09942 10.4593 5.87829 10.5816 5.66577 10.7133C4.25989 11.5846 2.91699 13.1046 2.91699 15.1953V15.612C2.91699 15.9808 2.97689 16.3356 3.08749 16.6673H2.3619C1.28776 16.6673 0.416992 15.7965 0.416992 14.7224V14.3749C0.416992 13.0222 1.28625 11.984 2.31417 11.3469C3.35708 10.7006 4.72371 10.3453 6.18389 10.3453C6.23207 10.3453 6.28015 10.3457 6.32812 10.3464Z" fill="#161823"/>
<path d="M15.8337 10.3833C16.2479 10.3833 16.5837 10.7191 16.5837 11.1333V13.7166H19.167C19.5812 13.7166 19.917 14.0524 19.917 14.4666C19.917 14.8809 19.5812 15.2166 19.167 15.2166H16.5837V17.8C16.5837 18.2142 16.2479 18.55 15.8337 18.55C15.4195 18.55 15.0837 18.2142 15.0837 17.8V15.2166H12.5004C12.0862 15.2166 11.7504 14.8809 11.7504 14.4666C11.7504 14.0524 12.0862 13.7166 12.5004 13.7166H15.0837V11.1333C15.0837 10.7191 15.4195 10.3833 15.8337 10.3833Z" fill="#161823"/>
</svg>
