<svg width="24" height="24" viewBox="0 0 24 24" fill="none" xmlns="http://www.w3.org/2000/svg">
<path d="M10.0001 9.49994C10.0001 10.6045 9.32849 11.4999 8.50006 11.4999C7.67163 11.4999 7.00006 10.6045 7.00006 9.49994C7.00006 8.39537 7.67163 7.49994 8.50006 7.49994C9.32849 7.49994 10.0001 8.39537 10.0001 9.49994Z" fill="#161823"/>
<path d="M15.5001 11.4999C16.3285 11.4999 17.0001 10.6045 17.0001 9.49994C17.0001 8.39537 16.3285 7.49994 15.5001 7.49994C14.6716 7.49994 14.0001 8.39537 14.0001 9.49994C14.0001 10.6045 14.6716 11.4999 15.5001 11.4999Z" fill="#161823"/>
<path d="M8.03791 14.5374C8.00193 14.3514 8.19244 14.2179 8.37142 14.28C9.0414 14.5126 10.5207 14.9593 12.0001 14.9593C13.4794 14.9593 14.9587 14.5126 15.6287 14.28C15.8077 14.2179 15.9982 14.3514 15.9622 14.5374C15.6932 15.9286 14.0218 16.9999 12.0001 16.9999C9.97838 16.9999 8.30699 15.9286 8.03791 14.5374Z" fill="#161823"/>
<path d="M3.35573 2.86594C3.43385 2.39719 3.89207 2.09219 4.35465 2.20103L4.8064 2.30732C9.53757 3.42054 14.4625 3.42054 19.1937 2.30732L19.6455 2.20103C20.108 2.09219 20.5663 2.39719 20.6444 2.86594L20.8126 3.8755C21.2681 6.60812 21.2907 9.39537 20.8798 12.135L20.8253 12.4984C20.3016 15.9898 18.2764 19.0772 15.2826 20.9484C13.2742 22.2036 10.7259 22.2036 8.71753 20.9484C5.72372 19.0772 3.69854 15.9898 3.17483 12.4984L3.12032 12.135C2.70937 9.39537 2.73203 6.60811 3.18747 3.8755L3.35573 2.86594ZM4.66706 4.1221C4.23749 6.69951 4.21611 9.32846 4.60372 11.9125L4.65823 12.2759C5.1169 15.3337 6.89055 18.0376 9.51253 19.6764C11.0345 20.6276 12.9656 20.6276 14.4876 19.6764C17.1096 18.0376 18.8832 15.3337 19.3419 12.2759L19.3964 11.9125C19.784 9.32846 19.7626 6.69951 19.3331 4.1221L19.2837 3.82605C14.4889 4.9143 9.51117 4.9143 4.7164 3.82605L4.66706 4.1221Z" fill="#161823"/>
</svg>
