<svg width="20" height="20" viewBox="0 0 20 20" fill="none" xmlns="http://www.w3.org/2000/svg">
<path d="M8.3494 11.4551C8.05651 11.1622 8.05651 10.6873 8.3494 10.3944C8.6423 10.1015 9.11717 10.1015 9.41006 10.3944L10.0088 10.9932C10.4969 11.4813 11.2884 11.4813 11.7766 10.9932L15.9515 6.81818C16.7163 6.05341 16.7163 4.81346 15.9515 4.04868C15.1868 3.2839 13.9468 3.2839 13.182 4.04868L11.423 5.80771C11.1301 6.1006 10.6552 6.1006 10.3623 5.80771C10.0695 5.51482 10.0695 5.03994 10.3623 4.74705L12.1214 2.98802C13.4719 1.63746 15.6616 1.63746 17.0122 2.98802C18.3628 4.33858 18.3628 6.52828 17.0122 7.87884L12.8372 12.0538C11.7633 13.1278 10.0221 13.1278 8.94813 12.0538L8.3494 11.4551Z" fill="#161823"/>
<path d="M2.84058 16.865C1.57137 15.5958 1.57137 13.538 2.84057 12.2688L7.15373 7.95564C8.42294 6.68643 10.4807 6.68643 11.7499 7.95564L11.7961 8.00178C12.089 8.29467 12.089 8.76955 11.7961 9.06244C11.5032 9.35533 11.0283 9.35533 10.7354 9.06244L10.6893 9.0163C10.0058 8.33288 8.89781 8.33288 8.21439 9.0163L3.90123 13.3295C3.21782 14.0129 3.21782 15.1209 3.90124 15.8043L4.19586 16.099C4.87928 16.7824 5.98732 16.7824 6.67074 16.099L8.86172 13.908C9.15462 13.6151 9.62949 13.6151 9.92238 13.908C10.2153 14.2009 10.2153 14.6757 9.92238 14.9686L7.7314 17.1596C6.46219 18.4288 4.40441 18.4288 3.1352 17.1596L2.84058 16.865Z" fill="#161823"/>
</svg>
