<svg width="16" height="16" viewBox="0 0 16 16" fill="none" xmlns="http://www.w3.org/2000/svg">
<path d="M11.3 4H3.70068C3.72715 3.05663 4.50021 2.3 5.44998 2.3H13.25C14.2165 2.3 15 3.0835 15 4.05V9.55C15 10.4998 14.2434 11.2728 13.3 11.2993V6C13.3 4.89543 12.4045 4 11.3 4Z" fill="#161823"/>
<path d="M1 6.75002C1 5.78352 1.7835 5.00002 2.75 5.00002H10.55C11.5165 5.00002 12.3 5.78352 12.3 6.75002V12.25C12.3 13.2165 11.5165 14 10.55 14H2.75C1.7835 14 1 13.2165 1 12.25V6.75002ZM8.41777 9.05964L6.03369 7.49524C5.68342 7.2654 5.21802 7.51666 5.21802 7.9356V11.0644C5.21802 11.4834 5.68342 11.7346 6.03369 11.5048L8.41777 9.94038C8.73476 9.73237 8.73476 9.26765 8.41777 9.05964Z" fill="#161823"/>
</svg>
