<svg width="12" height="12" viewBox="0 0 12 12" fill="none" xmlns="http://www.w3.org/2000/svg">
<path d="M0.996094 4.84365C0.996094 2.89948 2.37329 1.49155 4.11184 1.49155C4.89817 1.49155 5.53488 1.80448 6.00068 2.28876C6.46711 1.80574 7.10084 1.49155 7.88906 1.49155C9.6276 1.49155 11.0048 2.89948 11.0048 4.84365C11.0048 5.92828 10.5493 6.96552 9.81544 7.91149C9.08229 8.85653 8.04973 9.73987 6.83095 10.5341C6.72652 10.6044 6.60519 10.6781 6.4807 10.7364C6.36919 10.7887 6.19258 10.8594 5.99818 10.8594C5.80252 10.8594 5.6263 10.7879 5.51546 10.7353C5.39219 10.6767 5.27243 10.6031 5.16993 10.5341C3.95115 9.73986 2.9186 8.85653 2.18546 7.91149C1.45161 6.96552 0.996094 5.92828 0.996094 4.84365Z" fill="#161823"/>
</svg>
