<svg width="24" height="24" viewBox="0 0 24 24" fill="none" xmlns="http://www.w3.org/2000/svg">
<path fill-rule="evenodd" clip-rule="evenodd" d="M15.9873 4C16.9293 4 17.8057 4.48217 18.31 5.27783L21.5729 10.4259C21.8519 10.8662 22.0001 11.3768 22.0001 11.8981L22.0001 17.25C22.0001 18.7688 20.7689 20 19.2501 20H4.75012C3.98647 20 3.29551 19.6887 2.79722 19.1861C2.29465 18.6878 1.9834 17.9969 1.9834 17.2333V12.2333C1.9834 12.1508 1.9891 12.0698 2.00012 11.9904V11.8981C2.00012 11.3768 2.14829 10.8662 2.42736 10.4259L5.69023 5.27783C6.19452 4.48217 7.07098 4 8.01299 4H15.9873ZM3.8579 18.1255C3.6366 17.9 3.50012 17.5909 3.50012 17.25V12.1432C3.53628 12.0496 3.62709 11.9833 3.7334 11.9833H8.30802C8.65575 13.7042 10.1766 14.9999 12 14.9999C13.8234 14.9999 15.3442 13.7042 15.692 11.9833H20.2334C20.3715 11.9833 20.4834 12.0952 20.4834 12.2333V17.2333C20.4834 17.9236 19.9238 18.4833 19.2334 18.4833H4.7334C4.39246 18.4833 4.08341 18.3468 3.8579 18.1255ZM19.8333 10.4833H15.0167C14.6025 10.4833 14.2667 10.8191 14.2667 11.2333C14.2666 12.4851 13.2518 13.4999 12 13.4999C10.7482 13.4999 9.73336 12.4851 9.73333 11.2333C9.73332 10.8191 9.39754 10.4833 8.98333 10.4833H4.16691L6.95719 6.08083C7.18641 5.71917 7.5848 5.5 8.01299 5.5H15.9873C16.4154 5.5 16.8138 5.71917 17.0431 6.08083L19.8333 10.4833Z" fill="#161823"/>
</svg>
