<svg width="16" height="16" viewBox="0 0 16 16" fill="none" xmlns="http://www.w3.org/2000/svg">
<path d="M4.62317 5.86739C4.62317 5.31282 5.07273 4.86326 5.6273 4.86326H10.3876C10.9422 4.86326 11.3917 5.31282 11.3917 5.86739V6.72276C11.3917 7.27732 10.9422 7.72689 10.3876 7.72689H5.6273C5.07273 7.72689 4.62317 7.27732 4.62317 6.72276V5.86739ZM5.73887 5.97896V6.61119H10.276V5.97896H5.73887Z" fill="#161823"/>
<path d="M6.33944 2.93075C6.35214 2.95275 6.36346 2.97517 6.3734 2.99791H7.33802V2.10538C7.33802 1.73567 7.63773 1.43596 8.00744 1.43596C8.37715 1.43596 8.67686 1.73567 8.67686 2.10538V2.99791H9.62538C9.63533 2.97517 9.64664 2.95275 9.65934 2.93075L10.1445 2.09049C10.3293 1.77031 10.7387 1.66061 11.0589 1.84546C11.3791 2.03032 11.4888 2.43973 11.3039 2.75991L11.1665 2.99791H12.1488C12.765 2.99791 13.2646 3.49743 13.2646 4.11361V5.00617C13.2646 5.37588 12.9648 5.67559 12.5951 5.67559C12.2254 5.67559 11.9257 5.37588 11.9257 5.00617V4.30507H4.08917V5.00617C4.08917 5.37588 3.78946 5.67559 3.41975 5.67559C3.05004 5.67559 2.75033 5.37588 2.75033 5.00617V4.11361C2.75033 3.49743 3.24985 2.99791 3.86603 2.99791H4.83226L4.69485 2.75991C4.50999 2.43973 4.61969 2.03032 4.93987 1.84546C5.26005 1.66061 5.66946 1.77031 5.85432 2.09049L6.33944 2.93075Z" fill="#161823"/>
<path d="M5.14783 8.42621C4.53164 8.42621 4.03213 8.92572 4.03213 9.54191V11.1119C4.03213 11.4816 4.33184 11.7813 4.70155 11.7813C5.07126 11.7813 5.37097 11.4816 5.37097 11.1119V9.76505H10.6439V10.9844C10.6439 11.3541 10.9436 11.6539 11.3133 11.6539C11.683 11.6539 11.9827 11.3541 11.9827 10.9844V9.54191C11.9827 8.92572 11.4832 8.42621 10.867 8.42621H5.14783Z" fill="#161823"/>
<path d="M8.19313 10.1295C8.54832 10.2321 8.75306 10.6032 8.65043 10.9584C8.34374 12.0199 7.54814 12.7393 6.59706 13.1696C5.65199 13.5972 4.51101 13.7634 3.37879 13.7178C3.00938 13.7029 2.72199 13.3913 2.73688 13.0219C2.75178 12.6525 3.06332 12.3651 3.43273 12.38C4.41474 12.4196 5.33684 12.2703 6.04514 11.9498C6.74742 11.6321 7.19548 11.1707 7.3642 10.5868C7.46683 10.2316 7.83795 10.0268 8.19313 10.1295Z" fill="#161823"/>
<path d="M9.50924 11.5953C9.14429 11.5361 8.80047 11.784 8.74129 12.1489C8.68211 12.5139 8.92998 12.8577 9.29493 12.9169C9.94025 13.0215 11.2454 13.4025 12.3138 13.7646C12.664 13.8833 13.044 13.6957 13.1627 13.3455C13.2814 12.9954 13.0938 12.6153 12.7436 12.4966C11.6178 12.115 10.2399 11.7138 9.50924 11.5953Z" fill="#161823"/>
</svg>
