<svg width="20" height="20" viewBox="0 0 20 20" fill="none" xmlns="http://www.w3.org/2000/svg">
<path fill-rule="evenodd" clip-rule="evenodd" d="M10.6798 1.40889C9.94807 0.996223 9.05342 0.997929 8.32326 1.41338L3.37537 4.22864L3.40591 4.28232C2.55103 4.80404 1.94727 5.73946 1.94727 6.88253V12.0278C1.94727 13.0272 3.03 13.651 3.89459 13.1498L7.31293 11.168C7.71305 10.9361 7.95936 10.5086 7.95936 10.0461V6.77768L10.8077 8.38247C11.211 8.6097 11.7048 8.60473 12.1035 8.36941L15.5029 6.36279C16.3629 5.85517 16.3506 4.60687 15.4808 4.11634L10.6798 1.40889ZM6.48975 4.22799C6.47625 4.22038 6.46272 4.21288 6.44917 4.20551L9.06506 2.71712C9.33708 2.56234 9.67038 2.56171 9.94299 2.71544L14.4373 5.24998L11.4419 7.01811L6.48975 4.22799ZM5.75345 5.53484L6.45936 5.93256V9.92905L3.44727 11.6753V6.88253C3.44727 5.69896 4.72229 4.95386 5.75345 5.53484Z" fill="#161823"/>
<path fill-rule="evenodd" clip-rule="evenodd" d="M9.27254 18.5719C10.0025 18.9877 10.8972 18.9898 11.6291 18.5774L16.589 15.7834L16.5587 15.7295C17.4158 15.2115 18.0235 14.2787 18.0284 13.1356L18.0504 7.99035C18.0547 6.991 16.9746 6.36254 16.1079 6.86007L12.6811 8.82719C12.28 9.05744 12.0319 9.48388 12.0299 9.94638L12.0159 13.2147L9.1745 11.5978C8.77216 11.3688 8.27829 11.3717 7.87863 11.6053L4.47063 13.5974C3.6085 14.1013 3.6155 15.3497 4.48322 15.8439L9.27254 18.5719ZM13.4746 15.7707C13.4881 15.7784 13.5016 15.7859 13.5151 15.7934L10.8929 17.2706C10.6202 17.4242 10.2869 17.4234 10.0149 17.2685L5.5315 14.7147L8.53444 12.9594L13.4746 15.7707ZM14.2165 14.467L13.5123 14.0663L13.5294 10.0698L16.5489 8.33649L16.5284 13.1292C16.5234 14.3127 15.2452 15.0524 14.2165 14.467Z" fill="#161823"/>
</svg>
