<svg width="20" height="20" viewBox="0 0 20 20" fill="none" xmlns="http://www.w3.org/2000/svg">
<path d="M1.97455 1.97406C2.26745 1.68117 2.74232 1.68117 3.03521 1.97406L4.89867 3.83752C6.28342 2.68986 8.06133 2 10.0004 2C14.4186 2 18.0004 5.58172 18.0004 10C18.0004 11.939 17.3105 13.717 16.1628 15.1017L18.0352 16.9741C18.3281 17.267 18.3281 17.7418 18.0352 18.0347C17.7423 18.3276 17.2674 18.3276 16.9746 18.0347L1.97455 3.03472C1.68166 2.74183 1.68166 2.26696 1.97455 1.97406Z" fill="#161823"/>
<path d="M2.97876 6.1632C2.35501 7.30228 2.00037 8.60972 2.00037 10C2.00037 14.4183 5.58209 18 10.0004 18C11.3906 18 12.6981 17.6454 13.8372 17.0216L2.97876 6.1632Z" fill="#161823"/>
</svg>
