<svg width="24" height="24" viewBox="0 0 24 24" fill="none" xmlns="http://www.w3.org/2000/svg">
<path d="M2 2.7334C2 2.31918 2.33579 1.9834 2.75 1.9834H3.25735C4.63863 1.9834 5.80558 3.008 5.98425 4.37767L6.08834 5.17561H19.2457C20.9497 5.17561 22.2435 6.70946 21.9563 8.38909L20.9417 14.3233C20.6543 16.0043 19.1971 17.2334 17.4918 17.2334H9.22166C7.46368 17.2334 5.97847 15.9294 5.75107 14.1861L4.49685 4.5717C4.41564 3.94913 3.88521 3.4834 3.25735 3.4834H2.75C2.33579 3.4834 2 3.14761 2 2.7334Z" fill="#161823"/>
<path d="M9.18335 20.1251C9.18335 20.8845 8.56774 21.5001 7.80835 21.5001C7.04896 21.5001 6.43335 20.8845 6.43335 20.1251C6.43335 19.3657 7.04896 18.7501 7.80835 18.7501C8.56774 18.7501 9.18335 19.3657 9.18335 20.1251Z" fill="#161823"/>
<path d="M18.5583 21.5001C19.3177 21.5001 19.9333 20.8845 19.9333 20.1251C19.9333 19.3657 19.3177 18.7501 18.5583 18.7501C17.799 18.7501 17.1833 19.3657 17.1833 20.1251C17.1833 20.8845 17.799 21.5001 18.5583 21.5001Z" fill="#161823"/>
</svg>
