<svg width="20" height="20" viewBox="0 0 20 20" fill="none" xmlns="http://www.w3.org/2000/svg">
<path fill-rule="evenodd" clip-rule="evenodd" d="M13.2662 14.9938C13.3246 15.178 13.3561 15.3741 13.3561 15.5777C13.3561 16.643 12.4925 17.5066 11.4272 17.5066H6.91491C6.86016 17.5066 6.80594 17.5043 6.75234 17.4998H4.58284C2.51177 17.4998 0.83284 15.8209 0.83284 13.7498V8.23318C0.83284 8.21259 0.833137 8.19207 0.833725 8.17162C0.803312 7.33784 1.18309 6.50607 1.91741 5.99189L6.50758 2.77782C7.65885 1.97169 9.24564 2.25148 10.0518 3.40276C10.2137 3.63404 10.3318 3.8829 10.4079 4.13948C10.5488 4.61514 10.5451 5.11732 10.4079 5.5832H16.4995C17.8342 5.5832 18.9162 6.66518 18.9162 7.99987C18.9162 9.33456 17.8342 10.4165 16.4995 10.4165H14.6978C14.7316 10.5595 14.7495 10.7087 14.7495 10.862C14.7495 11.0153 14.7316 11.1644 14.6978 11.3074C14.5941 11.746 14.3408 12.1267 13.9946 12.3926C14.1138 12.6433 14.1805 12.9238 14.1805 13.2199C14.1805 13.913 13.815 14.5207 13.2662 14.8607V14.9938ZM8.96902 5.15926L8.40216 7.0832H16.4995C17.0058 7.0832 17.4162 7.49361 17.4162 7.99987C17.4162 8.50613 17.0058 8.91654 16.4995 8.91654H14.0662V8.89987H10.5162C10.102 8.89987 9.76617 9.23566 9.76617 9.64987C9.76617 10.0641 10.102 10.3999 10.5162 10.3999H13.1525L13.238 10.7616C13.2453 10.7924 13.2495 10.8257 13.2495 10.862C13.2495 10.9998 13.1862 11.1221 13.0808 11.203L12.9982 11.2665H10.2495C9.83529 11.2665 9.4995 11.6023 9.4995 12.0165C9.4995 12.4307 9.83529 12.7665 10.2495 12.7665H12.5115L12.64 13.0367C12.6655 13.0904 12.6805 13.1513 12.6805 13.2199C12.6805 13.3757 12.5983 13.514 12.4676 13.5908L12.3388 13.6665H9.91617C9.50196 13.6665 9.16617 14.0023 9.16617 14.4165C9.16617 14.8307 9.50196 15.1665 9.91617 15.1665H11.7289L11.8281 15.4236C11.8457 15.4694 11.8561 15.5206 11.8561 15.5777C11.8561 15.8146 11.6641 16.0066 11.4272 16.0066H6.91491C6.90183 16.0066 6.88923 16.0061 6.87709 16.005L6.81483 15.9998H4.58284C3.3402 15.9998 2.33284 14.9925 2.33284 13.7498V8.23318C2.33284 8.22698 2.33293 8.22085 2.3331 8.21478L2.33451 8.16585L2.33273 8.11694C2.32008 7.77004 2.47756 7.43083 2.77777 7.22062L7.36794 4.00655C7.84061 3.67558 8.49208 3.79046 8.82304 4.26312C9.01239 4.53354 9.05689 4.86103 8.96902 5.15926Z" fill="#161823"/>
</svg>
