<svg width="16" height="16" viewBox="0 0 16 16" fill="none" xmlns="http://www.w3.org/2000/svg">
<path d="M9.32602 13.9062C8.70764 14.9701 7.116 14.776 6.77156 13.5945L5.37357 8.79922C5.36915 8.78408 5.36121 8.77019 5.3504 8.7587L1.78144 4.96434C0.941185 4.07103 1.57414 2.60574 2.80053 2.60514L13.4635 2.59998C14.5434 2.59945 15.2172 3.76988 14.6746 4.70347L9.32602 13.9062ZM2.80111 3.80514C2.74152 3.80517 2.70957 3.82065 2.68888 3.83498C2.66308 3.85284 2.63599 3.88329 2.61761 3.92583C2.59923 3.96838 2.59563 4.00897 2.60031 4.04001C2.60407 4.06489 2.6147 4.09876 2.65553 4.14217L5.79751 7.48258L10.4015 5.53964C10.6165 5.44893 10.7863 5.73709 10.6028 5.8812L6.67266 8.96776L7.9236 13.2587C7.94039 13.3162 7.96429 13.3426 7.9838 13.3583C8.0082 13.3781 8.04516 13.3956 8.09139 13.4012C8.13762 13.4068 8.1777 13.3988 8.20614 13.3855C8.22886 13.3748 8.2584 13.355 8.28853 13.3032L13.6371 4.10047C13.7147 3.96711 13.6184 3.7999 13.4641 3.79998L2.80111 3.80514Z" fill="#161823"/>
</svg>
