<svg width="24" height="24" viewBox="0 0 24 24" fill="none" xmlns="http://www.w3.org/2000/svg">
<path fill-rule="evenodd" clip-rule="evenodd" d="M22 10.8541C22 13.2638 20.8406 15.3333 18.8571 17.3202C17.4106 18.7693 15.302 20.4924 13.8355 21.3272C13.0653 21.7656 12.1449 21.8966 12.1449 20.3135V19C6.6217 19 2 15.7444 2 10.8542C2 5.96406 6.47686 2 12 2C17.5232 2 22 5.96406 22 10.8541ZM10.238 11.9653C10.0365 11.8401 9.7785 11.7701 8.91456 11.5686L8.57921 11.4904C8.24158 11.4117 8.00271 11.1107 8.00271 10.764C8.00271 10.4173 8.24158 10.1163 8.57921 10.0376L8.91456 9.95938C9.7785 9.75789 10.0365 9.68794 10.238 9.56275C10.4385 9.4382 10.6094 9.27131 10.7386 9.07378C10.8684 8.87524 10.9443 8.61891 11.1659 7.7599L11.2778 7.32627C11.3628 6.99686 11.6599 6.76667 12.0001 6.76667C12.3403 6.76667 12.6374 6.99685 12.7223 7.32627L12.8342 7.7599C13.0558 8.61891 13.1317 8.87524 13.2616 9.07378C13.3907 9.27131 13.5616 9.4382 13.7621 9.56275C13.9636 9.68794 14.2216 9.75789 15.0856 9.95938L15.4209 10.0376C15.7585 10.1163 15.9974 10.4173 15.9974 10.764C15.9974 11.1107 15.7585 11.4117 15.4209 11.4904L15.0856 11.5686C14.2216 11.7701 13.9636 11.8401 13.7621 11.9653C13.5616 12.0898 13.3907 12.2567 13.2616 12.4542C13.1317 12.6528 13.0558 12.9091 12.8342 13.7681L12.7223 14.2017C12.6374 14.5312 12.3403 14.7614 12.0001 14.7614C11.6599 14.7614 11.3628 14.5312 11.2778 14.2017L11.1659 13.7681C10.9443 12.9091 10.8684 12.6528 10.7386 12.4542C10.6094 12.2567 10.4385 12.0898 10.238 11.9653Z" fill="#161823"/>
</svg>
