<svg width="20" height="20" viewBox="0 0 20 20" fill="none" xmlns="http://www.w3.org/2000/svg">
<path d="M9.99984 9.16669C11.8408 9.16669 13.3332 7.48775 13.3332 5.41669C13.3332 3.34562 11.8408 1.66669 9.99984 1.66669C8.15889 1.66669 6.6665 3.34562 6.6665 5.41669C6.6665 7.48775 8.15889 9.16669 9.99984 9.16669Z" fill="#161823"/>
<path d="M10 10.1667C8.00786 10.1667 6.15542 10.6637 4.75275 11.5541C3.36383 12.4358 2.25 13.8336 2.25 15.6061V16.25C2.25 17.5387 3.29467 18.5834 4.58333 18.5834H11.3917C11.5627 18.5834 11.6576 18.3802 11.5567 18.2421C10.8922 17.333 10.5 16.2123 10.5 15C10.5 13.3044 11.2673 11.7881 12.4736 10.7792C12.6037 10.6703 12.5618 10.4544 12.3961 10.4183C11.6366 10.2531 10.8304 10.1667 10 10.1667Z" fill="#161823"/>
<path d="M16 19C18.2091 19 20 17.2091 20 15C20 12.7909 18.2091 11 16 11C13.7909 11 12 12.7909 12 15C12 17.2091 13.7909 19 16 19ZM16 17.752C14.4801 17.752 13.248 16.5199 13.248 15C13.248 14.5014 13.3806 14.0338 13.6124 13.6305L17.3695 17.3876C16.9662 17.6194 16.4986 17.752 16 17.752ZM14.6307 12.6123C15.0339 12.3805 15.5015 12.248 16 12.248C17.5199 12.248 18.752 13.4801 18.752 15C18.752 15.4985 18.6195 15.9661 18.3877 16.3693L14.6307 12.6123Z" fill="#161823"/>
</svg>
