<svg width="20" height="20" viewBox="0 0 20 20" fill="none" xmlns="http://www.w3.org/2000/svg">
<path fill-rule="evenodd" clip-rule="evenodd" d="M10 18C14.4183 18 18 14.4183 18 10C18 5.58172 14.4183 2 10 2C5.58172 2 2 5.58172 2 10C2 14.4183 5.58172 18 10 18ZM10 5.25C10.4142 5.25 10.75 5.58579 10.75 6L10.75 9.55324L12.5494 11.4894C12.8314 11.7929 12.814 12.2674 12.5106 12.5494C12.2071 12.8314 11.7326 12.814 11.4506 12.5106L9.45062 10.3585C9.32167 10.2198 9.25 10.0374 9.25 9.84793L9.25001 6C9.25001 5.58578 9.5858 5.25 10 5.25Z" fill="#161823"/>
</svg>
