<svg width="16" height="16" viewBox="0 0 16 16" fill="none" xmlns="http://www.w3.org/2000/svg">
<path fill-rule="evenodd" clip-rule="evenodd" d="M1.33301 8.00004C1.33301 11.6819 4.31778 14.6667 7.99967 14.6667C11.6816 14.6667 14.6663 11.6819 14.6663 8.00004C14.6663 4.31814 11.6816 1.33337 7.99967 1.33337C4.31778 1.33337 1.33301 4.31814 1.33301 8.00004ZM11.5918 7.57576C11.8261 7.81008 11.8261 8.18998 11.5918 8.42429L8.83777 11.1783C8.60346 11.4126 8.22356 11.4126 7.98924 11.1783C7.75493 10.944 7.75493 10.5641 7.98924 10.3298L9.71901 8.60002H4.61297C4.2816 8.60002 4.01297 8.3314 4.01297 8.00002C4.01297 7.66865 4.2816 7.40002 4.61297 7.40002H9.71901L7.98924 5.67026C7.75493 5.43595 7.75493 5.05605 7.98924 4.82173C8.22356 4.58742 8.60346 4.58742 8.83777 4.82173L11.5918 7.57576Z" fill="#161823"/>
</svg>
