<svg width="24" height="24" viewBox="0 0 24 24" fill="none" xmlns="http://www.w3.org/2000/svg">
<path d="M1.96967 1.96967C1.67678 2.26256 1.67678 2.73744 1.96967 3.03033L3.25096 4.31162C3.25029 4.31191 3.24962 4.3122 3.24895 4.31249L4.45555 5.51909C4.4564 5.51898 4.45725 5.51887 4.4581 5.51876L7.41604 8.4767C7.41567 8.47729 7.4153 8.47788 7.41493 8.47848L8.4677 9.53125L8.47076 9.53142L8.47207 9.53562L10.6869 11.7505L10.6854 11.746L12.6341 13.6948V13.6977L14.9365 16H14.9393L17.4393 18.5H17.4365L18.9365 20H18.9393L20.9697 22.0303C21.2626 22.3232 21.7374 22.3232 22.0303 22.0303C22.3232 21.7374 22.3232 21.2626 22.0303 20.9697L20.749 19.6884C22.074 19.1099 23 17.7881 23 16.25V7.75C23 5.67893 21.3211 4 19.25 4H5.06066L3.03033 1.96967C2.73744 1.67678 2.26256 1.67678 1.96967 1.96967ZM6.56066 5.5H19.25C20.4926 5.5 21.5 6.50736 21.5 7.75V16.25C21.5 17.3937 20.6466 18.3381 19.5419 18.4812L16.8789 15.8182C18.355 15.3644 19.1263 14.068 19.1263 12.0039C19.1263 9.38477 17.89 8.00195 15.5521 8.00195H13.6888C12.9857 8.00195 12.6341 8.33594 12.6341 9.01562V11.5735L9.38077 8.32011C9.33598 8.26637 9.28839 8.21873 9.23758 8.17692L6.56066 5.5ZM14.2162 13.1555V9.29102H15.3529C16.8177 9.29102 17.5091 10.1582 17.5091 12.0039C17.5091 13.6672 16.9452 14.5353 15.7431 14.6825L14.2162 13.1555Z" fill="#161823"/>
<path d="M2.00752 5.19238C1.38248 5.86231 1 6.76149 1 7.75V16.25C1 18.3211 2.67893 20 4.75 20H16.8151L15.3151 18.5H4.75C3.50736 18.5 2.5 17.4926 2.5 16.25V7.75C2.5 7.17572 2.71515 6.65169 3.06925 6.25411L2.00752 5.19238Z" fill="#161823"/>
<path d="M6.82618 10.011L5.16602 14.7695C5.06641 15.0684 5.02539 15.25 5.02539 15.4082C5.02539 15.8066 5.32422 16.0703 5.75781 16.0703C6.17969 16.0703 6.41406 15.8535 6.57812 15.3027L7.02344 13.9434H9.83008L10.2812 15.3027C10.4395 15.8477 10.6855 16.0703 11.1133 16.0703C11.5645 16.0703 11.8633 15.8008 11.8633 15.3789C11.8633 15.2663 11.844 15.1399 11.8053 14.9902L9.44038 12.6252L9.48438 12.7656H7.375L7.90365 11.0885L6.82618 10.011Z" fill="#161823"/>
</svg>
