<svg width="20" height="20" viewBox="0 0 20 20" fill="none" xmlns="http://www.w3.org/2000/svg">
<path d="M5.8591 2.5C4.66723 2.5 3.67433 3.4136 3.57535 4.60135L2.70729 15.018C2.59595 16.3541 3.65033 17.5 4.99104 17.5H10.555C10.6325 17.5 10.6809 17.4154 10.6437 17.3474C10.2602 16.645 10.0421 15.8393 10.0421 14.9826C10.0421 12.2538 12.2543 10.0416 14.9831 10.0416C15.6087 10.0416 16.2071 10.1579 16.7579 10.37C16.8282 10.397 16.904 10.342 16.8977 10.267L16.4256 4.60135C16.3266 3.4136 15.3337 2.5 14.1418 2.5H5.8591ZM10.0005 8.875C8.20554 8.875 6.75046 7.41993 6.75046 5.625C6.75046 5.21079 7.08625 4.875 7.50046 4.875C7.91468 4.875 8.25046 5.21079 8.25046 5.625C8.25046 6.5915 9.03396 7.375 10.0005 7.375C10.967 7.375 11.7505 6.5915 11.7505 5.625C11.7505 5.21079 12.0862 4.875 12.5005 4.875C12.9147 4.875 13.2505 5.21079 13.2505 5.625C13.2505 7.41993 11.7954 8.875 10.0005 8.875ZM14.9831 13.0416C13.9111 13.0416 13.0421 13.9106 13.0421 14.9826C13.0421 16.0546 13.9111 16.9236 14.9831 16.9236C16.0551 16.9236 16.9241 16.0546 16.9241 14.9826C16.9241 13.9106 16.0551 13.0416 14.9831 13.0416ZM11.5421 14.9826C11.5421 13.0822 13.0827 11.5416 14.9831 11.5416C16.8835 11.5416 18.4241 13.0822 18.4241 14.9826C18.4241 15.6613 18.2276 16.2941 17.8884 16.8272L19.2461 18.1849C19.539 18.4778 19.539 18.9527 19.2461 19.2456C18.9532 19.5384 18.4783 19.5384 18.1854 19.2456L16.8277 17.8879C16.2946 18.2271 15.6618 18.4236 14.9831 18.4236C13.0827 18.4236 11.5421 16.883 11.5421 14.9826Z" fill="#161823"/>
</svg>
