<svg width="20" height="20" viewBox="0 0 20 20" fill="none" xmlns="http://www.w3.org/2000/svg">
<path fill-rule="evenodd" clip-rule="evenodd" d="M5.17593 3.25C4.11227 3.25 3.25 4.11227 3.25 5.17593V14.8241C3.25 15.8877 4.11227 16.75 5.17593 16.75H14.8241C15.8877 16.75 16.75 15.8877 16.75 14.8241V5.17593C16.75 4.11227 15.8877 3.25 14.8241 3.25H5.17593ZM10.7181 7.50049C10.4762 7.50049 10.258 7.63282 10.1654 7.83577C10.0728 8.03872 10.124 8.27233 10.2951 8.42766L11.1716 9.2234L10.1053 10.302L9.05936 9.48412C8.77595 9.2625 8.34967 9.28613 8.09805 9.53739L6.18051 11.4523C5.92405 11.7083 5.94484 12.1047 6.22694 12.3375C6.50904 12.5703 6.94563 12.5515 7.20209 12.2954L8.66755 10.832L9.71672 11.6524C10.0014 11.875 10.43 11.85 10.681 11.5961L12.1493 10.1109L12.9797 10.8648C13.1508 11.0201 13.4081 11.0666 13.6317 10.9825C13.8552 10.8984 14.001 10.7004 14.001 10.4807V8.04361C14.001 7.74365 13.7331 7.50049 13.4027 7.50049H10.7181Z" fill="#161823"/>
</svg>
