<svg width="24" height="24" viewBox="0 0 24 24" fill="none" xmlns="http://www.w3.org/2000/svg">
<path d="M14.8657 2.4194C12.804 1.80271 10.5983 1.86757 8.57636 2.60433C6.55442 3.34109 4.8241 4.71046 3.64244 6.509C2.46078 8.30754 1.89084 10.4393 2.01728 12.5876C2.14372 14.7358 2.9598 16.786 4.34428 18.4335C5.72876 20.081 7.60777 21.2379 9.70218 21.7324C11.7966 22.2269 13.9946 22.0326 15.9698 21.1783C16.35 21.0138 16.5249 20.5724 16.3604 20.1922C16.196 19.812 15.7545 19.6371 15.3743 19.8015C13.6954 20.5277 11.8271 20.6929 10.0469 20.2726C8.26661 19.8522 6.66945 18.8688 5.49264 17.4685C4.31583 16.0681 3.62216 14.3254 3.51469 12.4994C3.40722 10.6734 3.89167 8.8614 4.89608 7.33265C5.90048 5.80389 7.37126 4.63993 9.0899 4.01368C10.8085 3.38743 12.6834 3.33231 14.4358 3.85649C16.2008 4.38442 17.7639 5.43586 18.8069 6.9088C19.6231 8.06141 19.9843 9.76443 19.8877 11.4161C19.8024 12.8745 19.0782 15.8278 17.1284 15.722C16.2391 15.6738 15.7717 15.2025 15.8149 14.4068L16.1482 8.26345C16.1799 7.67837 15.872 7.29785 15.322 7.26801C14.772 7.23817 14.413 7.58251 14.3812 8.16759L14.3432 8.86968L14.2495 8.8646C13.8263 7.79714 12.7476 7.12835 11.4488 7.05788C9.10846 6.93092 7.32722 8.8294 7.16979 11.7314C7.01045 14.6685 8.56224 16.783 10.9611 16.9131C12.3301 16.9874 13.4682 16.345 14.0484 15.1676L14.142 15.1727C14.2405 16.3869 15.3023 17.1486 16.7416 17.2267C19.7612 17.3905 21.1757 14.2726 21.3728 11.687C21.52 9.7564 21.1344 7.60006 20.0311 6.04196C18.7734 4.26581 16.9149 3.03236 14.8657 2.4194ZM11.3431 15.2791C9.78683 15.1946 8.93033 13.8924 9.0427 11.8212C9.15379 9.77347 10.1442 8.60666 11.7122 8.69172C13.3037 8.77806 14.2531 10.0971 14.1452 12.0863C14.0347 14.1224 12.9345 15.3654 11.3431 15.2791Z" fill="#161823"/>
</svg>
