<svg width="20" height="20" viewBox="0 0 20 20" fill="none" xmlns="http://www.w3.org/2000/svg">
<path opacity="0.9" fill-rule="evenodd" clip-rule="evenodd" d="M15.7146 14.4329C17.3675 12.7771 18.3337 11.0526 18.3337 9.04442C18.3337 4.9694 14.603 1.66602 10.0003 1.66602C5.39771 1.66602 1.66699 4.9694 1.66699 9.04454C1.66699 13.1197 5.51841 15.9172 10.1211 15.9172V17.396C10.1211 17.7654 10.5046 18.0032 10.83 17.8285C11.9752 17.214 14.2514 15.8986 15.7146 14.4329ZM8.52988 9.96547C8.36195 9.86115 8.14691 9.80286 7.42697 9.63495L7.14751 9.56977C6.86615 9.50415 6.66709 9.25333 6.66709 8.96442C6.66709 8.67551 6.86615 8.42469 7.14751 8.35907L7.42697 8.29389C8.14691 8.12598 8.36195 8.0677 8.52988 7.96337C8.69695 7.85958 8.8393 7.72051 8.94696 7.5559C9.05518 7.39045 9.11846 7.17683 9.30311 6.461L9.39632 6.09964C9.46713 5.82512 9.71471 5.6333 9.99821 5.6333C10.2817 5.6333 10.5293 5.82512 10.6001 6.09964L10.6933 6.461C10.878 7.17683 10.9413 7.39045 11.0495 7.5559C11.1571 7.72051 11.2995 7.85958 11.4666 7.96337C11.6345 8.0677 11.8495 8.12598 12.5695 8.29389L12.8489 8.35907C13.1303 8.42469 13.3293 8.67551 13.3293 8.96442C13.3293 9.25333 13.1303 9.50415 12.8489 9.56977L12.5695 9.63495C11.8495 9.80286 11.6345 9.86115 11.4666 9.96547C11.2995 10.0693 11.1571 10.2083 11.0495 10.3729C10.9413 10.5384 10.878 10.752 10.6933 11.4678L10.6001 11.8292C10.5293 12.1037 10.2817 12.2955 9.99821 12.2955C9.71471 12.2955 9.46713 12.1037 9.39632 11.8292L9.30311 11.4678C9.11846 10.752 9.05518 10.5384 8.94696 10.3729C8.8393 10.2083 8.69695 10.0693 8.52988 9.96547Z" fill="#161823"/>
</svg>
