<svg width="12" height="12" viewBox="0 0 12 12" fill="none" xmlns="http://www.w3.org/2000/svg">
<g clip-path="url(#clip0_3435_3225)">
<path fill-rule="evenodd" clip-rule="evenodd" d="M5.99995 11.2495C8.89942 11.2495 11.2499 8.89905 11.2499 5.99959C11.2499 3.10012 8.89942 0.749634 5.99995 0.749634C3.10048 0.749634 0.75 3.10012 0.75 5.99959C0.75 8.89905 3.10048 11.2495 5.99995 11.2495ZM5.09985 4.75C5.09985 5.30228 4.76407 5.75 4.34985 5.75C3.93564 5.75 3.59985 5.30228 3.59985 4.75C3.59985 4.19772 3.93564 3.75 4.34985 3.75C4.76407 3.75 5.09985 4.19772 5.09985 4.75ZM7.6499 5.75C8.06412 5.75 8.3999 5.30228 8.3999 4.75C8.3999 4.19772 8.06412 3.75 7.6499 3.75C7.23569 3.75 6.8999 4.19772 6.8999 4.75C6.8999 5.30228 7.23569 5.75 7.6499 5.75ZM5.99986 8.63046C6.74413 8.63046 7.57087 8.27013 8.01958 7.64062C8.17986 7.41575 8.12751 7.10353 7.90264 6.94325C7.67778 6.78297 7.36555 6.83532 7.20527 7.06019C6.97143 7.38825 6.47076 7.63046 5.99986 7.63046C5.52913 7.63046 5.0286 7.38841 4.79466 7.06048C4.63428 6.83568 4.32204 6.78345 4.09724 6.94382C3.87244 7.10419 3.82021 7.41643 3.98058 7.64124C4.42938 8.27035 5.2558 8.63046 5.99986 8.63046Z" fill="#161823"/>
</g>
<defs>
<clipPath id="clip0_3435_3225">
<rect width="12" height="12" fill="white"/>
</clipPath>
</defs>
</svg>
