<svg width="20" height="20" viewBox="0 0 20 20" fill="none" xmlns="http://www.w3.org/2000/svg">
<path d="M19.0032 16.0016C19.0032 17.3832 17.8832 18.5032 16.5016 18.5032C15.12 18.5032 14 17.3832 14 16.0016C14 14.62 15.12 13.5 16.5016 13.5C17.8832 13.5 19.0032 14.62 19.0032 16.0016Z" fill="#161823"/>
<path d="M13.3333 5.41667C13.3333 7.48774 11.8409 9.16667 9.99996 9.16667C8.15901 9.16667 6.66663 7.48774 6.66663 5.41667C6.66663 3.3456 8.15901 1.66667 9.99996 1.66667C11.8409 1.66667 13.3333 3.3456 13.3333 5.41667Z" fill="#161823"/>
<path d="M4.75275 11.5541C6.15542 10.6637 8.00786 10.1667 10 10.1667C11.9921 10.1667 13.8446 10.6637 15.2472 11.5541C15.3543 11.622 15.4597 11.693 15.563 11.767C15.7041 11.868 15.6464 12.0877 15.4787 12.1319C13.7642 12.5839 12.5 14.1451 12.5 16.0016C12.5 16.8308 12.7522 17.6011 13.1841 18.24C13.2795 18.381 13.1834 18.5833 13.0132 18.5833H4.58333C3.29467 18.5833 2.25 17.5387 2.25 16.25V15.6061C2.25 13.8335 3.36383 12.4358 4.75275 11.5541Z" fill="#161823"/>
</svg>
