<svg width="20" height="20" viewBox="0 0 20 20" fill="none" xmlns="http://www.w3.org/2000/svg">
<path d="M1.8584 16.2809C2.28027 16.2809 2.51758 16.0876 2.68457 15.5602L3.69531 12.5631H8.18652L9.19727 15.5602C9.36426 16.0788 9.60156 16.2809 10.0234 16.2809C10.4717 16.2809 10.7617 16.026 10.7617 15.6129C10.7617 15.446 10.7178 15.2614 10.6475 15.068L7.03516 4.96939C6.81543 4.35416 6.50781 4.07291 5.94531 4.07291C5.38281 4.07291 5.0752 4.35416 4.85547 4.96939L1.24316 15.068C1.17285 15.279 1.12891 15.446 1.12891 15.6217C1.12891 16.026 1.41895 16.2809 1.8584 16.2809ZM4.1084 11.3239L5.91016 5.98013H5.97168L7.77344 11.3239H4.1084Z" fill="#161823"/>
<path d="M17.3539 14.9362H17.4154V15.4547C17.433 15.9557 17.6966 16.2545 18.1449 16.2545C18.6107 16.2545 18.8832 15.9469 18.8832 15.4196V9.84732C18.8832 7.86978 17.6527 6.77994 15.4291 6.77994C14.5238 6.77994 13.8295 6.94693 13.2933 7.25455C12.555 7.67642 12.1947 8.18619 12.1947 8.70474C12.1947 9.06509 12.432 9.3024 12.7836 9.3024C13.056 9.3024 13.2582 9.21451 13.4691 8.96841C14.0228 8.3356 14.5502 8.06314 15.3324 8.06314C16.6595 8.06314 17.3714 8.66959 17.3714 9.85611V10.7526H14.9281C12.8978 10.7526 11.6761 11.7985 11.6761 13.4772C11.6761 15.1735 12.889 16.3161 14.6908 16.3161C15.8597 16.3161 16.8002 15.8327 17.3539 14.9362ZM13.223 13.442C13.223 12.5016 13.8734 11.9743 15.0072 11.9743H17.3714V13.0202C17.3714 14.1715 16.3783 15.0504 15.1039 15.0504C13.9789 15.0504 13.223 14.4001 13.223 13.442Z" fill="#161823"/>
</svg>
