<svg width="20" height="20" viewBox="0 0 20 20" fill="none" xmlns="http://www.w3.org/2000/svg">
<path d="M9.60635 2.4444C9.8543 2.32583 10.1457 2.32583 10.3936 2.4444L17.5057 5.84548C18.1596 6.15819 18.1596 7.05529 17.5057 7.368L10.3936 10.7691C10.1457 10.8876 9.8543 10.8876 9.60635 10.7691L2.49434 7.368C1.84043 7.05529 1.84043 6.15818 2.49434 5.84547L9.60635 2.4444Z" fill="#161823"/>
<path fill-rule="evenodd" clip-rule="evenodd" d="M2.12743 9.72411C2.30674 9.35072 2.7548 9.19339 3.12819 9.3727L10.0004 12.6729L16.8641 9.38437C17.2376 9.20539 17.6855 9.36312 17.8645 9.73667C18.0435 10.1102 17.8858 10.5581 17.5122 10.7371L10.3241 14.1811C10.119 14.2794 9.88035 14.2793 9.67534 14.1808L2.47884 10.7249C2.10545 10.5456 1.94812 10.0975 2.12743 9.72411Z" fill="#161823"/>
<path fill-rule="evenodd" clip-rule="evenodd" d="M2.12743 13.121C2.30674 12.7476 2.7548 12.5903 3.12819 12.7696L10.0004 16.0698L16.8641 12.7813C17.2376 12.6023 17.6855 12.76 17.8645 13.1336C18.0435 13.5071 17.8858 13.955 17.5122 14.134L10.3241 17.578C10.119 17.6763 9.88035 17.6762 9.67534 17.5777L2.47884 14.1218C2.10545 13.9425 1.94812 13.4944 2.12743 13.121Z" fill="#161823"/>
</svg>
