<svg width="24" height="24" viewBox="0 0 24 24" fill="none" xmlns="http://www.w3.org/2000/svg">
<path d="M22.1593 6.70865C22.8606 5.50856 21.9949 4.00026 20.6049 4.00049L3.80027 4.00328C2.25469 4.00354 1.42814 5.82329 2.44487 6.98737L6.34474 11.4524C6.62251 11.7577 7.05879 11.8621 7.44463 11.7154L14.727 8.94751C14.8118 8.9153 14.8502 8.92862 14.867 8.93529C14.8964 8.94697 14.9384 8.97725 14.9714 9.03317C15.0044 9.08908 15.0106 9.14052 15.0067 9.17186C15.0044 9.18977 14.9975 9.22989 14.9284 9.28852L8.94926 14.3599C8.64113 14.6212 8.51957 15.0418 8.64075 15.4272L10.367 20.9217C10.775 22.2204 12.3569 22.56 13.2788 21.7337C12.9865 21.2404 12.8248 20.6702 12.8248 20.0769V16.7856C12.8248 15.6245 13.4443 14.5515 14.4498 13.971L17.3002 12.3253C17.8636 12.0001 18.5002 11.857 19.1279 11.8962L22.1593 6.70865Z" fill="#161823"/>
<path d="M18.9252 19.8666C19.7205 19.8666 20.3652 19.2219 20.3652 18.4266C20.3652 17.6313 19.7205 16.9866 18.9252 16.9866C18.1299 16.9866 17.4852 17.6313 17.4852 18.4266C17.4852 19.2219 18.1299 19.8666 18.9252 19.8666Z" fill="#161823"/>
<path d="M18.0502 13.6243C18.5917 13.3117 19.2588 13.3117 19.8002 13.6243L22.6506 15.2699C23.1921 15.5825 23.5256 16.1603 23.5256 16.7855V20.0768C23.5256 20.702 23.1921 21.2798 22.6506 21.5924L19.8002 23.2381C19.2588 23.5507 18.5917 23.5507 18.0502 23.2381L15.1998 21.5924C14.6584 21.2798 14.3248 20.702 14.3248 20.0768V16.7855C14.3248 16.1603 14.6584 15.5825 15.1998 15.2699L18.0502 13.6243ZM19.0502 14.9233C18.9729 14.8786 18.8776 14.8786 18.8002 14.9233L15.9498 16.569C15.8725 16.6136 15.8248 16.6962 15.8248 16.7855V20.0768C15.8248 20.1661 15.8725 20.2487 15.9498 20.2933L18.8002 21.939C18.8776 21.9837 18.9729 21.9837 19.0502 21.939L21.9006 20.2933C21.978 20.2487 22.0256 20.1661 22.0256 20.0768V16.7855C22.0256 16.6962 21.978 16.6136 21.9006 16.569L19.0502 14.9233Z" fill="#161823"/>
</svg>
