<svg width="24" height="24" viewBox="0 0 24 24" fill="none" xmlns="http://www.w3.org/2000/svg">
<path d="M5.25049 2C5.25049 1.58579 5.58627 1.25 6.00049 1.25H18.0005C18.4147 1.25 18.7505 1.58579 18.7505 2C18.7505 2.41421 18.4147 2.75 18.0005 2.75H6.00049C5.58627 2.75 5.25049 2.41421 5.25049 2Z" fill="#161823"/>
<path d="M12.5106 4.22145C12.3769 4.08327 12.1928 4.00525 12.0006 4.00525C11.8083 4.00525 11.6243 4.08327 11.4906 4.22145L4.36435 11.5873C3.63825 12.3378 4.17008 13.5923 5.21434 13.5923H8.76228L8.76236 22.2927C8.76236 22.6846 9.08007 23.0023 9.47197 23.0023H14.5294C14.7176 23.0023 14.898 22.9275 15.0311 22.7945C15.1642 22.6614 15.239 22.4809 15.239 22.2927L15.2389 13.5923H18.7868C19.8311 13.5923 20.3629 12.3378 19.6368 11.5873L12.5106 4.22145Z" fill="#161823"/>
</svg>
