<svg width="20" height="20" viewBox="0 0 20 20" fill="none" xmlns="http://www.w3.org/2000/svg">
<path d="M3.5 11.4667C4.32843 11.4667 5 10.7951 5 9.96666C5 9.13823 4.32843 8.46666 3.5 8.46666C2.67157 8.46666 2 9.13823 2 9.96666C2 10.7951 2.67157 11.4667 3.5 11.4667Z" fill="#161823"/>
<path d="M11.5 10C11.5 10.8284 10.8284 11.5 10 11.5C9.17157 11.5 8.5 10.8284 8.5 10C8.5 9.17157 9.17157 8.5 10 8.5C10.8284 8.5 11.5 9.17157 11.5 10Z" fill="#161823"/>
<path d="M18 10C18 10.8284 17.3284 11.5 16.5 11.5C15.6716 11.5 15 10.8284 15 10C15 9.17157 15.6716 8.5 16.5 8.5C17.3284 8.5 18 9.17157 18 10Z" fill="#161823"/>
</svg>
