<svg width="20" height="20" viewBox="0 0 20 20" fill="none" xmlns="http://www.w3.org/2000/svg">
<path fill-rule="evenodd" clip-rule="evenodd" d="M4.73353 3.9834C3.21475 3.9834 1.98353 5.21461 1.98353 6.7334V7.68462L1.9834 7.68463V8.6174C1.9834 8.92539 2.25472 9.16099 2.53987 9.27738C3.0086 9.4687 3.3502 9.93116 3.3502 10.4667C3.3502 11.0023 3.00859 11.4648 2.53986 11.6561C2.25471 11.7725 1.9834 12.0081 1.9834 12.3161V13.2488L1.98353 13.2488V13.9001C1.98353 15.4188 3.21475 16.6501 4.73353 16.6501H15.2669C16.7856 16.6501 18.0169 15.4188 18.0169 13.9001V13.2488L18.0185 13.2488L18.0175 12.3143C18.0172 12.0063 17.7455 11.7711 17.4602 11.6551C16.9915 11.4645 16.6502 11.0028 16.6502 10.4667C16.6502 9.93067 16.9915 9.46703 17.4603 9.27553C17.7455 9.15906 18.0172 8.92378 18.0175 8.61577L18.0185 7.68467L18.0169 7.68462V6.7334C18.0169 5.21462 16.7856 3.9834 15.2669 3.9834H4.73353ZM4.8502 10.4667C4.8502 9.44686 4.30166 8.5551 3.48353 8.07039V6.7334C3.48353 6.04304 4.04317 5.4834 4.73353 5.4834H15.2669C15.9572 5.4834 16.5169 6.04304 16.5169 6.7334V8.0704C15.6987 8.5551 15.1502 9.44686 15.1502 10.4667C15.1502 11.4866 15.6987 12.3784 16.5169 12.8631V13.9001C16.5169 14.5904 15.9572 15.1501 15.2669 15.1501H4.73353C4.04317 15.1501 3.48353 14.5904 3.48353 13.9001V12.8631C4.30166 12.3784 4.8502 11.4866 4.8502 10.4667ZM8.16686 8.58954C8.16686 8.24557 7.83108 7.96673 7.41686 7.96673C7.00265 7.96673 6.66686 8.24557 6.66686 8.58954V12.0773C6.66686 12.4212 7.00265 12.7001 7.41686 12.7001C7.83108 12.7001 8.16686 12.4212 8.16686 12.0773V8.58954Z" fill="black"/>
</svg>
