<svg width="16" height="16" viewBox="0 0 16 16" fill="none" xmlns="http://www.w3.org/2000/svg">
<path d="M6.79993 6.3333C6.79993 7.06968 6.35221 7.66664 5.79993 7.66664C5.24764 7.66664 4.79993 7.06968 4.79993 6.3333C4.79993 5.59692 5.24764 4.99997 5.79993 4.99997C6.35221 4.99997 6.79993 5.59692 6.79993 6.3333Z" fill="#161823"/>
<path d="M10.1998 7.66664C10.7521 7.66664 11.1998 7.06968 11.1998 6.3333C11.1998 5.59692 10.7521 4.99997 10.1998 4.99997C9.64754 4.99997 9.19983 5.59692 9.19983 6.3333C9.19983 7.06968 9.64754 7.66664 10.1998 7.66664Z" fill="#161823"/>
<path d="M7.99981 11.5073C8.97395 11.5073 10.0545 11.0347 10.6385 10.2154C10.8308 9.9456 10.768 9.57093 10.4982 9.37859C10.2283 9.18625 9.85366 9.24908 9.66132 9.51892C9.33521 9.97643 8.6459 10.3073 7.99981 10.3073C7.35396 10.3073 6.66485 9.97665 6.3386 9.51933C6.14616 9.24957 5.77146 9.18689 5.5017 9.37934C5.23194 9.57178 5.16926 9.94648 5.36171 10.2162C5.94579 11.035 7.02596 11.5073 7.99981 11.5073Z" fill="#161823"/>
<path fill-rule="evenodd" clip-rule="evenodd" d="M14.9999 7.99945C14.9999 11.8654 11.8659 14.9994 7.99994 14.9994C4.13398 14.9994 1 11.8654 1 7.99945C1 4.13349 4.13398 0.999512 7.99994 0.999512C11.8659 0.999512 14.9999 4.13349 14.9999 7.99945ZM13.7999 7.99945C13.7999 11.2027 11.2032 13.7994 7.99994 13.7994C4.79672 13.7994 2.2 11.2027 2.2 7.99945C2.2 4.79623 4.79672 2.19951 7.99994 2.19951C11.2032 2.19951 13.7999 4.79623 13.7999 7.99945Z" fill="#161823"/>
</svg>
