<svg width="20" height="20" viewBox="0 0 20 20" fill="none" xmlns="http://www.w3.org/2000/svg">
<path fill-rule="evenodd" clip-rule="evenodd" d="M13.052 4C13.9583 4 14.8065 4.44661 15.3194 5.19393L17.5174 8.3968C17.8318 8.85484 18 9.39734 18 9.95287V10.2474C18 10.2483 18 10.2491 18 10.25L18 13.25C18 14.7688 16.7688 16 15.25 16H4.75C4.56015 16 4.3748 15.9808 4.19578 15.9441C3.03659 15.7069 2.14307 14.7404 2.01563 13.5449C2.00899 13.4826 2.00443 13.4197 2.00202 13.3563C2.00068 13.321 2 13.2856 2 13.25V9.95287C2 9.39734 2.16825 8.85484 2.48259 8.3968L4.68063 5.19393C5.1935 4.44661 6.04167 4 6.94805 4H13.052ZM3.5 10.25V13.25C3.5 13.8541 3.92848 14.358 4.49808 14.4746C4.57945 14.4913 4.66371 14.5 4.75 14.5H15.25C15.9404 14.5 16.5 13.9404 16.5 13.25L16.5 10.25C16.5 10.2498 16.5 10.2502 16.5 10.25C16.4996 10.1122 16.3878 10 16.25 10H12.9571C12.6229 11.3218 11.4257 12.3 10 12.3C8.57432 12.3 7.37711 11.3218 7.0429 10H3.75C3.61193 10 3.5 10.1119 3.5 10.25ZM15.769 8.5H12.3C11.8858 8.5 11.55 8.83579 11.55 9.25C11.55 10.106 10.856 10.8 10 10.8C9.14396 10.8 8.45 10.106 8.45 9.25C8.45 8.83579 8.11421 8.5 7.7 8.5H4.23102L5.9174 6.0427C6.15053 5.70301 6.53606 5.5 6.94805 5.5H13.052C13.4639 5.5 13.8495 5.70301 14.0826 6.0427L15.769 8.5Z" fill="#161823"/>
</svg>
