<svg width="24" height="24" viewBox="0 0 24 24" fill="none" xmlns="http://www.w3.org/2000/svg">
<path d="M2 12C2 6.47715 6.47715 2 12 2C17.5228 2 22 6.47715 22 12C22 12.6995 21.9282 13.3821 21.7915 14.0411C21.7738 14.1264 21.7019 14.1894 21.6151 14.1967C19.8078 14.3481 17.8341 14.3505 17.2251 14.3505C16.1205 14.3505 15.2251 15.246 15.2251 16.3505C15.2251 16.7549 15.3451 17.1312 15.5514 17.4459C15.6398 17.5807 15.6613 17.751 15.6095 17.9036C15.541 18.1055 15.5038 18.3219 15.5038 18.547V21.2303C15.5038 21.3137 15.4521 21.3885 15.3735 21.4167C14.3196 21.7943 13.1838 22 12 22C6.47715 22 2 17.5228 2 12ZM13.995 7.00317C13.9828 6.57196 13.6295 6.22614 13.1953 6.22614C12.7535 6.22614 12.3953 6.58431 12.3953 7.02614V14.1918C12.3953 15.0981 11.6606 15.8329 10.7542 15.8329C9.84782 15.8329 9.11306 15.0981 9.11306 14.1918C9.11306 13.2854 9.84782 12.5506 10.7542 12.5506C11.196 12.5506 11.5542 12.1925 11.5542 11.7506C11.5542 11.3088 11.196 10.9506 10.7542 10.9506C8.96416 10.9506 7.51306 12.4017 7.51306 14.1918C7.51306 15.9818 8.96416 17.4329 10.7542 17.4329C12.5442 17.4329 13.9953 15.9818 13.9953 14.1918V10.0057C14.5 10.7516 15.6114 11.2255 16.5918 11.2255C17.0336 11.2255 17.3918 10.8673 17.3918 10.4255C17.3918 9.98367 17.0336 9.6255 16.5918 9.6255C15.1578 9.6255 13.9954 8.46308 13.9954 7.02915C13.9954 7.02046 13.9953 7.0118 13.995 7.00317Z" fill="#161823"/>
<path d="M23.404 16.71C23.7863 16.6525 24.0496 16.296 23.9922 15.9137C23.9347 15.5314 23.5782 15.2681 23.1959 15.3256C21.0437 15.6492 17.9779 15.6505 17.2251 15.6505C16.8385 15.6505 16.5251 15.9639 16.5251 16.3505C16.5251 16.7371 16.8385 17.0505 17.2251 17.0505H17.2339C17.5907 17.0505 18.4954 17.0506 19.5898 17.0136V17.847H17.5038C17.1172 17.847 16.8038 18.1604 16.8038 18.547V22.2776C16.8038 22.6642 17.1172 22.9776 17.5038 22.9776C17.8904 22.9776 18.2038 22.6642 18.2038 22.2776V19.347C18.2038 19.2918 18.2486 19.247 18.3038 19.247H19.5898V23.3C19.5898 23.6866 19.9032 24 20.2898 24C20.6764 24 20.9898 23.6866 20.9898 23.3V19.247H22.276C22.3313 19.247 22.376 19.2918 22.376 19.347V21.5776H22.1706C21.784 21.5776 21.4706 21.891 21.4706 22.2776C21.4706 22.6642 21.784 22.9776 22.1706 22.9776H22.576C23.2388 22.9776 23.776 22.4403 23.776 21.7776V18.547C23.776 18.1604 23.4626 17.847 23.076 17.847H20.9898V16.9481C21.8126 16.8976 22.6569 16.8223 23.404 16.71Z" fill="#161823"/>
</svg>
