<svg width="20" height="20" viewBox="0 0 20 20" fill="none" xmlns="http://www.w3.org/2000/svg">
<path d="M6.625 5.63672C6.625 3.77275 8.13604 2.26172 10 2.26172C11.864 2.26172 13.375 3.77276 13.375 5.63672V9.58672C13.375 11.4507 11.864 12.9617 10 12.9617C8.13604 12.9617 6.625 11.4507 6.625 9.58672V5.63672ZM11.875 5.63672C11.875 4.60119 11.0355 3.76172 10 3.76172C8.96446 3.76172 8.125 4.60118 8.125 5.63672V9.58672C8.125 10.6223 8.96447 11.4617 10 11.4617C11.0355 11.4617 11.875 10.6223 11.875 9.58672V5.63672Z" fill="#161823"/>
<path d="M4.375 8.41663C4.78921 8.41663 5.125 8.75241 5.125 9.16663V9.58329C5.125 12.2757 7.30761 14.4583 10 14.4583C12.6924 14.4583 14.875 12.2757 14.875 9.58329V9.16663C14.875 8.75241 15.2108 8.41663 15.625 8.41663C16.0392 8.41663 16.375 8.75241 16.375 9.16663V9.58329C16.375 12.8504 13.9174 15.5434 10.75 15.9146V16.9584H12.5C12.9142 16.9584 13.25 17.2942 13.25 17.7084C13.25 18.1226 12.9142 18.4584 12.5 18.4584H7.5C7.08579 18.4584 6.75 18.1226 6.75 17.7084C6.75 17.2942 7.08579 16.9584 7.5 16.9584H9.25V15.9146C6.08262 15.5434 3.625 12.8504 3.625 9.58329V9.16663C3.625 8.75241 3.96079 8.41663 4.375 8.41663Z" fill="#161823"/>
</svg>
