<svg width="24" height="24" viewBox="0 0 24 24" fill="none" xmlns="http://www.w3.org/2000/svg">
<path d="M10.4993 12.4785C10.4993 13.4732 9.89452 14.2796 9.14847 14.2796C8.40242 14.2796 7.79763 13.4732 7.79763 12.4785C7.79763 11.4838 8.40242 10.6774 9.14847 10.6774C9.89452 10.6774 10.4993 11.4838 10.4993 12.4785Z" fill="#161823"/>
<path d="M14.8517 14.2796C15.5977 14.2796 16.2025 13.4732 16.2025 12.4785C16.2025 11.4838 15.5977 10.6774 14.8517 10.6774C14.1056 10.6774 13.5009 11.4838 13.5009 12.4785C13.5009 13.4732 14.1056 14.2796 14.8517 14.2796Z" fill="#161823"/>
<path d="M7.49567 3.82672C6.68664 2.94921 5.55183 2.34031 4.31625 2.88305C3.76004 3.12737 3.37232 3.51182 3.13838 3.97569C2.91182 4.42493 2.84956 4.90728 2.86075 5.33872C2.87604 5.9279 3.0303 6.50062 3.19562 6.9363C1.7637 8.60794 0.886719 10.6659 0.886719 12.7913C0.886719 15.3904 2.19669 17.5224 4.2362 18.9788C6.26283 20.4261 9.01441 21.2173 12.0001 21.2173C14.9857 21.2173 17.7373 20.4261 19.7639 18.9788C21.8035 17.5224 23.1135 15.3904 23.1135 12.7913C23.1135 10.6784 22.2467 8.63202 20.8296 6.96565C20.8789 6.85048 20.9245 6.72937 20.9652 6.60607C21.0845 6.24485 21.1803 5.80919 21.1957 5.35763C21.2111 4.90921 21.1483 4.40276 20.9079 3.93813C20.658 3.45525 20.2396 3.06481 19.6398 2.84407C18.3706 2.37696 17.2715 3.0509 16.524 3.83493C15.1433 3.25474 13.612 2.92214 12.0001 2.92214C10.3958 2.92214 8.87134 3.25161 7.49567 3.82672ZM6.67434 5.18712C6.88733 5.47882 7.27798 5.57728 7.60378 5.42139C8.92294 4.79017 10.4171 4.42214 12.0001 4.42214C13.586 4.42214 15.0829 4.79157 16.4038 5.42497C16.7235 5.57825 17.1068 5.48677 17.3228 5.20567C17.9819 4.34793 18.6202 4.06719 19.1217 4.25176C19.3723 4.344 19.4991 4.47956 19.5756 4.62745C19.6616 4.7936 19.7063 5.0227 19.6966 5.30641C19.687 5.58697 19.6253 5.87998 19.5409 6.13578C19.453 6.40203 19.3584 6.57436 19.3169 6.6308C19.1028 6.92228 19.1272 7.32509 19.3749 7.58861C20.7923 9.0961 21.6135 10.9517 21.6135 12.7913C21.6135 14.8301 20.6035 16.5361 18.8922 17.7582C17.168 18.9894 14.7379 19.7173 12.0001 19.7173C9.26219 19.7173 6.8321 18.9894 5.10793 17.7582C3.39665 16.5361 2.38672 14.8301 2.38672 12.7913C2.38672 10.9529 3.20686 9.09839 4.62261 7.59138C4.84001 7.35997 4.88813 7.01675 4.74276 6.73447C4.59179 6.44132 4.37457 5.85201 4.36025 5.29982C4.35327 5.03105 4.39559 4.81395 4.4777 4.65113C4.55244 4.50293 4.67748 4.36271 4.91951 4.2564C5.34824 4.06807 5.97638 4.23123 6.67434 5.18712Z" fill="#161823"/>
</svg>
