<svg width="20" height="20" viewBox="0 0 20 20" fill="none" xmlns="http://www.w3.org/2000/svg">
<path fill-rule="evenodd" clip-rule="evenodd" d="M6.65015 2.34033C7.06436 2.34033 7.40015 2.67612 7.40015 3.09033V3.3501H12.5667V3.09033C12.5667 2.67612 12.9024 2.34033 13.3167 2.34033C13.7309 2.34033 14.0667 2.67612 14.0667 3.09033V3.3501H14.4834C16.1403 3.3501 17.4834 4.69324 17.4834 6.3501V14.5168C17.4834 16.1736 16.1403 17.5168 14.4834 17.5168H5.4834C3.82654 17.5168 2.4834 16.1736 2.4834 14.5168V6.3501C2.4834 4.69325 3.82654 3.3501 5.4834 3.3501H5.90015V3.09033C5.90015 2.67612 6.23593 2.34033 6.65015 2.34033ZM12.5667 4.8501V5.09033C12.5667 5.50455 12.9024 5.84033 13.3167 5.84033C13.7309 5.84033 14.0667 5.50455 14.0667 5.09033V4.8501H14.4834C15.3118 4.8501 15.9834 5.52167 15.9834 6.3501V7.26611H3.9834V6.3501C3.9834 5.52167 4.65497 4.8501 5.4834 4.8501H5.90015V5.09033C5.90015 5.50455 6.23593 5.84033 6.65015 5.84033C7.06436 5.84033 7.40015 5.50455 7.40015 5.09033V4.8501H12.5667ZM3.9834 8.76611V14.5168C3.9834 15.3452 4.65497 16.0168 5.4834 16.0168H14.4834C15.3118 16.0168 15.9834 15.3452 15.9834 14.5168V8.76611H3.9834Z" fill="#161823"/>
</svg>
