<svg width="24" height="24" viewBox="0 0 24 24" fill="none" xmlns="http://www.w3.org/2000/svg">
<path d="M18.5001 10.5C18.5001 11.7172 18.4125 12.8993 18.2568 14.0168C19.1261 14.7544 19.7928 15.4293 20.2403 16.2716C20.324 16.4292 20.4012 16.5901 20.4717 16.7541C21.0024 17.9886 21.0015 19.3545 21.0003 21.218L21.0001 21.4983C21.0001 22.1784 20.5426 22.7734 19.8853 22.948C19.2294 23.1222 18.5385 22.8345 18.2001 22.2467L16.1315 20.711C15.444 21.8416 14.6921 22.5001 14.0001 22.5001H10.0001C9.30821 22.5001 8.55646 21.8418 7.86908 20.7116L5.8004 22.2481C5.46214 22.8361 4.77119 23.124 4.11527 22.9498C3.45789 22.7753 3.00025 22.1802 3.00025 21.5001L3.00012 21.2196C2.99885 19.3546 2.99792 17.9875 3.52951 16.7521C3.59947 16.5895 3.67604 16.4298 3.75904 16.2735C4.20658 15.4304 4.8737 14.755 5.74344 14.0169C5.5878 12.8994 5.50013 11.7172 5.50013 10.5C5.50013 8.69192 6.52222 6.60419 7.69972 5.03196C8.30272 4.22681 8.98912 3.49837 9.6862 2.96062C10.3504 2.44824 11.1644 2 12.0001 2C12.8359 2 13.6498 2.44824 14.3141 2.96062C15.0111 3.49837 15.6975 4.22682 16.3005 5.03196C17.478 6.60419 18.5001 8.69193 18.5001 10.5ZM12.0001 12.5001C13.3808 12.5001 14.5001 11.3808 14.5001 10.0001C14.5001 8.61935 13.3808 7.50006 12.0001 7.50006C10.6194 7.50006 9.50012 8.61935 9.50012 10.0001C9.50012 11.3808 10.6194 12.5001 12.0001 12.5001Z" fill="#161823"/>
</svg>
