<svg width="16" height="16" viewBox="0 0 16 16" fill="none" xmlns="http://www.w3.org/2000/svg">
<path d="M5.66667 6.66602C6.21896 6.66602 6.66667 6.2183 6.66667 5.66602C6.66667 5.11373 6.21896 4.66602 5.66667 4.66602C5.11439 4.66602 4.66667 5.11373 4.66667 5.66602C4.66667 6.2183 5.11439 6.66602 5.66667 6.66602Z" fill="#161823"/>
<path fill-rule="evenodd" clip-rule="evenodd" d="M14 11.4999C14 11.5052 14 11.5106 14 11.5159C13.9914 12.8893 12.8754 14 11.5 14H4.5C3.11929 14 2 12.8807 2 11.5V4.5C2 3.11929 3.11929 2 4.5 2H11.5C12.8807 2 14 3.11929 14 4.5V11.4999ZM11.5 3.2H4.5C3.78203 3.2 3.2 3.78203 3.2 4.5V9.95209L4.90897 8.24308C5.02149 8.13056 5.1741 8.06734 5.33323 8.06734C5.49237 8.06734 5.64498 8.13056 5.7575 8.24308L7.33323 9.8188L10.2422 6.90964C10.3547 6.79711 10.5073 6.73389 10.6665 6.73389C10.8256 6.73388 10.9782 6.7971 11.0908 6.90962L12.8 8.61887V4.5C12.8 3.78203 12.218 3.2 11.5 3.2ZM3.20762 11.6415C3.27815 12.2929 3.82986 12.8 4.5 12.8H11.5C12.218 12.8 12.8 12.218 12.8 11.5V10.3159L10.6665 8.18243L7.75751 11.0916C7.64499 11.2041 7.49238 11.2673 7.33325 11.2673C7.17411 11.2673 7.0215 11.2041 6.90897 11.0916L5.33324 9.51587L3.20762 11.6415Z" fill="#161823"/>
</svg>
