<svg width="16" height="16" viewBox="0 0 16 16" fill="none" xmlns="http://www.w3.org/2000/svg">
<path fill-rule="evenodd" clip-rule="evenodd" d="M3.43066 3.27783C3.43066 2.11097 4.37659 1.16504 5.54345 1.16504H10.4294C11.5963 1.16504 12.5422 2.11097 12.5422 3.27783V12.7223C12.5422 13.8892 11.5963 14.8351 10.4294 14.8351H5.54345C4.37659 14.8351 3.43066 13.8892 3.43066 12.7223V3.27783ZM4.63402 6.81383L4.634 6.81585V12.7223C4.634 13.2246 5.04118 13.6318 5.54345 13.6318H10.4294C10.9317 13.6318 11.3389 13.2246 11.3389 12.7223L11.3389 6.81585L11.3389 6.81365V3.27783C11.3389 2.83839 11.0271 2.47166 10.6127 2.38686C10.5572 2.3755 10.4996 2.36919 10.4409 2.36845L10.4294 2.36838H9.96038C9.93276 2.36838 9.91038 2.39076 9.91038 2.41838V2.48451C9.91038 2.92113 9.55643 3.27507 9.11982 3.27507H6.85314C6.41653 3.27507 6.0625 2.92113 6.0625 2.48451V2.41838C6.0625 2.39076 6.04011 2.36838 6.0125 2.36838H5.54347C5.04119 2.36838 4.63402 2.77555 4.63402 3.27783V6.81383Z" fill="#161823"/>
</svg>
