<svg width="16" height="16" viewBox="0 0 16 16" fill="none" xmlns="http://www.w3.org/2000/svg">
<path d="M11.8236 10.975V4.93305C11.8236 4.51222 11.4825 4.17107 11.0616 4.17107H7.6567C7.32533 4.17107 7.0567 3.90244 7.0567 3.57107C7.0567 3.2397 7.32533 2.97107 7.6567 2.97107H11.0616C12.1452 2.97107 13.0236 3.84948 13.0236 4.93305V10.9751L14.0423 9.95634C14.2767 9.72202 14.6566 9.72202 14.8909 9.95634C15.1252 10.1907 15.1252 10.5706 14.8909 10.8049L12.9442 12.7515C12.6567 13.039 12.1906 13.039 11.9031 12.7515L9.95641 10.8049C9.7221 10.5706 9.7221 10.1907 9.95641 9.95634C10.1907 9.72202 10.5706 9.72202 10.8049 9.95634L11.8236 10.975Z" fill="#161823"/>
<path d="M5.1894 6.03753L4.1707 5.01883V11.0611C4.1707 11.4819 4.51185 11.8231 4.93268 11.8231H8.33763C8.669 11.8231 8.93763 12.0917 8.93763 12.4231C8.93763 12.7545 8.669 13.0231 8.33763 13.0231H4.93268C3.84911 13.0231 2.9707 12.1447 2.9707 11.0611V5.01882L1.952 6.03753C1.71768 6.27184 1.33778 6.27184 1.10347 6.03753C0.869156 5.80321 0.869156 5.42331 1.10347 5.189L3.05013 3.24234C3.33763 2.95484 3.80377 2.95484 4.09127 3.24234L6.03793 5.189C6.27225 5.42331 6.27225 5.80321 6.03793 6.03753C5.80362 6.27184 5.42372 6.27184 5.1894 6.03753Z" fill="#161823"/>
</svg>
