<svg width="24" height="24" viewBox="0 0 24 24" fill="none" xmlns="http://www.w3.org/2000/svg">
<path d="M16.5393 10.992C18.1972 10.992 19.5413 9.49865 19.5413 7.65648C19.5413 5.8143 18.1972 4.32092 16.5393 4.32092C14.8813 4.32092 13.5373 5.8143 13.5373 7.65648C13.5373 9.49865 14.8813 10.992 16.5393 10.992Z" fill="#161823"/>
<path d="M15.7297 12.6801C17.2802 13.8667 18.6215 15.7133 18.6215 18.1485V18.6965C18.6215 19.2381 18.5264 19.7568 18.3525 20.2357H21.1255C22.4144 20.2357 23.4594 19.1908 23.4594 17.9018V17.4849C23.4594 15.8617 22.4162 14.6158 21.1827 13.8513C19.9312 13.0757 18.2913 12.6493 16.5391 12.6493C16.2662 12.6493 15.9961 12.6597 15.7297 12.6801Z" fill="#161823"/>
<path d="M12.1392 7C12.1392 9.20914 10.5274 11 8.53916 11C8.22629 11 7.92274 10.9557 7.63333 10.8723L9.28312 12.5221C11.0533 12.6278 12.6809 13.1098 13.9503 13.8966C15.3779 14.7813 16.5391 16.1933 16.5391 18V18.5C16.5391 18.8744 16.4568 19.2295 16.3093 19.5483L17.5252 20.7642C17.8181 21.0571 17.8181 21.532 17.5252 21.8249C17.2381 22.112 16.776 22.1176 16.482 21.8418L2.60992 7.96967C2.60416 7.96391 2.59834 7.95827 2.59245 7.95274L1.62909 6.98939C1.3362 6.6965 1.3362 6.22162 1.62909 5.92873C1.92199 5.63584 2.39686 5.63584 2.68975 5.92873L5.16826 8.40724C5.02017 7.96949 4.93916 7.49526 4.93916 7C4.93916 4.79086 6.55093 3 8.53916 3C10.5274 3 12.1392 4.79086 12.1392 7Z" fill="#161823"/>
<path d="M13.5189 21L5.42853 12.9096C4.58173 13.1449 3.80395 13.4775 3.12778 13.8966C1.70027 14.7813 0.539062 16.1933 0.539062 18V18.5C0.539062 19.8807 1.65835 21 3.03906 21H13.5189Z" fill="#161823"/>
</svg>
