<svg width="24" height="24" viewBox="0 0 24 24" fill="none" xmlns="http://www.w3.org/2000/svg">
<path d="M12 22C17.5228 22 22 17.5228 22 12C22 6.47715 17.5228 2 12 2C6.47715 2 2 6.47715 2 12C2 17.5228 6.47715 22 12 22ZM7.97668 7.40002H8.97668C9.25283 7.40002 9.47668 7.62388 9.47668 7.90002V8.90002C9.47668 9.17617 9.25283 9.40002 8.97668 9.40002H7.97668C7.70054 9.40002 7.47668 9.17617 7.47668 8.90002V7.90002C7.47668 7.62388 7.70054 7.40002 7.97668 7.40002ZM11.5767 7.40002H12.5767C12.8529 7.40002 13.0767 7.62388 13.0767 7.90002V8.90002C13.0767 9.17617 12.8529 9.40002 12.5767 9.40002H11.5767C11.3006 9.40002 11.0767 9.17617 11.0767 8.90002V7.90002C11.0767 7.62388 11.3006 7.40002 11.5767 7.40002ZM14.6767 7.90002C14.6767 7.62388 14.9006 7.40002 15.1767 7.40002H16.1767C16.4528 7.40002 16.6767 7.62388 16.6767 7.90002V8.90002C16.6767 9.17617 16.4528 9.40002 16.1767 9.40002H15.1767C14.9006 9.40002 14.6767 9.17617 14.6767 8.90002V7.90002ZM7.97668 11H8.97668C9.25283 11 9.47668 11.2239 9.47668 11.5V12.5C9.47668 12.7761 9.25283 13 8.97668 13H7.97668C7.70054 13 7.47668 12.7761 7.47668 12.5V11.5C7.47668 11.2239 7.70054 11 7.97668 11ZM7.47668 15.1C7.47668 14.8238 7.70054 14.6 7.97668 14.6H16.1C16.3762 14.6 16.6 14.8238 16.6 15.1V16.1C16.6 16.3761 16.3762 16.6 16.1 16.6H7.97668C7.70054 16.6 7.47668 16.3761 7.47668 16.1V15.1ZM11.5767 11H12.5767C12.8529 11 13.0767 11.2239 13.0767 11.5V12.5C13.0767 12.7761 12.8529 13 12.5767 13H11.5767C11.3006 13 11.0767 12.7761 11.0767 12.5V11.5C11.0767 11.2239 11.3006 11 11.5767 11ZM14.6767 11.5C14.6767 11.2239 14.9006 11 15.1767 11H16.1767C16.4528 11 16.6767 11.2239 16.6767 11.5V12.5C16.6767 12.7761 16.4528 13 16.1767 13H15.1767C14.9006 13 14.6767 12.7761 14.6767 12.5V11.5Z" fill="#161823"/>
</svg>
