<svg width="20" height="20" viewBox="0 0 20 20" fill="none" xmlns="http://www.w3.org/2000/svg">
<path d="M9.99954 6.50003C8.06655 6.50003 6.49954 8.06703 6.49954 10C6.49954 11.933 8.06655 13.5 9.99954 13.5C11.9325 13.5 13.4995 11.933 13.4995 10C13.4995 8.06703 11.9325 6.50003 9.99954 6.50003ZM7.89954 10C7.89954 8.84023 8.83974 7.90003 9.99954 7.90003C11.1593 7.90003 12.0995 8.84023 12.0995 10C12.0995 11.1598 11.1593 12.1 9.99954 12.1C8.83974 12.1 7.89954 11.1598 7.89954 10Z" fill="#161823"/>
<path d="M9.25482 1.63623C8.5603 1.63623 7.97076 2.1454 7.86972 2.83255L7.70262 3.96881C7.58641 4.01308 7.47183 4.0606 7.35899 4.11126L6.43729 3.4259C5.87996 3.01147 5.10305 3.06829 4.61195 3.55939L3.55884 4.61251C3.06774 5.10361 3.01093 5.88052 3.42534 6.43785L4.11064 7.35945C4.05995 7.47235 4.01241 7.58698 3.96811 7.70324L2.83206 7.87031C2.14492 7.97135 1.63574 8.56088 1.63574 9.2554V10.7447C1.63574 11.4393 2.14496 12.0288 2.83211 12.1298L3.96808 12.2969C4.03566 12.4743 4.11082 12.6479 4.19314 12.8173L3.54722 13.74C3.1577 14.2966 3.22384 15.0524 3.70425 15.5328L4.467 16.2956C4.94744 16.7761 5.70335 16.8421 6.25981 16.4525L7.18263 15.8066C7.40978 15.917 7.64446 16.0144 7.88569 16.098L8.08141 17.2071C8.19946 17.8761 8.78073 18.3638 9.46011 18.3638H10.5389C11.2181 18.3638 11.7996 17.8761 11.9176 17.207L12.1133 16.0979C12.3546 16.0143 12.5893 15.9168 12.8164 15.8064L13.7394 16.4526C14.296 16.8421 15.0519 16.7759 15.5322 16.2956L16.295 15.5328C16.7755 15.0524 16.8414 14.2964 16.4519 13.74L15.8058 12.8169C15.9162 12.5898 16.0136 12.3551 16.0972 12.1139L17.2066 11.9181C17.8757 11.8001 18.3634 11.2187 18.3634 10.5394V9.46069C18.3634 8.78131 17.8756 8.20005 17.2066 8.08199L16.0972 7.8862C16.035 7.70702 15.9653 7.53145 15.8883 7.35988L16.5739 6.43787C16.9882 5.8806 16.9315 5.1037 16.4404 4.61255L15.3873 3.55943C14.8961 3.06833 14.1192 3.01156 13.5619 3.42594L12.6401 4.11141C12.5272 4.06073 12.4126 4.01319 12.2963 3.9689L12.1292 2.83254C12.0282 2.14538 11.4387 1.63623 10.7442 1.63623H9.25482ZM9.15589 3.02167C9.1631 2.9726 9.2052 2.93623 9.25482 2.93623H10.7442C10.7938 2.93623 10.8359 2.97266 10.8431 3.02168L11.109 4.82986C11.1202 4.90613 11.1743 4.969 11.2477 4.99266C11.7377 5.15062 12.2004 5.34261 12.6572 5.57704C12.7258 5.61226 12.8086 5.6061 12.8705 5.56007L14.3376 4.46916C14.3774 4.43953 14.433 4.44361 14.468 4.47869L15.5211 5.53181C15.5562 5.56683 15.5603 5.62233 15.5306 5.66221L14.4396 7.12937C14.3936 7.19126 14.3875 7.27402 14.4226 7.34267C14.6817 7.84873 14.8845 8.3602 15.0423 8.90454C15.0639 8.9787 15.1252 9.03476 15.2012 9.04818L16.9807 9.36221C17.0285 9.37065 17.0634 9.41221 17.0634 9.46069V10.5394C17.0634 10.588 17.0284 10.6295 16.9807 10.6379L15.2012 10.952C15.1251 10.9654 15.0638 11.0215 15.0422 11.0957C14.8692 11.6915 14.6399 12.2451 14.3397 12.7907C14.3024 12.8584 14.3061 12.9414 14.3504 13.0047L15.387 14.4855C15.4148 14.5253 15.4099 14.5793 15.3757 14.6135L14.6129 15.3763C14.5786 15.4106 14.5247 15.4154 14.4849 15.3875L13.0042 14.351C12.941 14.3067 12.8579 14.303 12.7902 14.3403C12.2466 14.6394 11.693 14.8692 11.095 15.0429C11.0208 15.0644 10.9647 15.1258 10.9513 15.2018L10.6373 16.9813C10.6289 17.0289 10.5874 17.0638 10.5389 17.0638H9.46011C9.41162 17.0638 9.37007 17.029 9.36163 16.9812L9.04764 15.202C9.03421 15.1259 8.97813 15.0646 8.90395 15.043C8.30813 14.87 7.75446 14.6407 7.20887 14.3405C7.14118 14.3032 7.05813 14.3069 6.99484 14.3512L5.5143 15.3875C5.47449 15.4154 5.42051 15.4106 5.38624 15.3763L4.62342 14.6135C4.58918 14.5793 4.58437 14.5253 4.61227 14.4855L5.64852 13.0051C5.69282 12.9418 5.69654 12.8588 5.65926 12.7911C5.38566 12.2946 5.16682 11.7894 4.99191 11.2483C4.9682 11.1749 4.90534 11.1208 4.82907 11.1096L3.02114 10.8436C2.97211 10.8364 2.93574 10.7944 2.93574 10.7447V9.2554C2.93574 9.2058 2.97212 9.16369 3.02119 9.15647L4.82909 8.8906C4.90537 8.87938 4.96824 8.82526 4.99189 8.75188C5.14944 8.26314 5.34123 7.80033 5.57625 7.34227C5.61146 7.27365 5.6053 7.19087 5.55928 7.12898L4.46854 5.66213C4.43894 5.62232 4.44301 5.56683 4.47808 5.53175L5.53119 4.47863C5.56627 4.44355 5.62177 4.4395 5.66158 4.4691L7.1285 5.55988C7.19039 5.6059 7.27316 5.61207 7.34178 5.57686C7.7986 5.34249 8.2613 5.15053 8.75125 4.99261C8.82463 4.96896 8.87876 4.90609 8.88998 4.82981L9.15589 3.02167Z" fill="#161823"/>
</svg>
