<svg width="20" height="20" viewBox="0 0 20 20" fill="none" xmlns="http://www.w3.org/2000/svg">
<path d="M11.0112 1.63698C11.0112 1.3044 10.6188 1.12732 10.3695 1.34737L7.90478 3.52209C7.67244 3.72709 7.67244 4.08937 7.90478 4.29437L10.3695 6.46909C10.6188 6.68913 11.0112 6.51207 11.0112 6.17949V4.65267C12.0616 4.8199 13.0596 5.24631 13.9118 5.90019C15.0337 6.76101 15.8402 7.96795 16.2063 9.33385C16.5723 10.6997 16.4775 12.1482 15.9364 13.4547C15.3954 14.7612 14.4384 15.8527 13.2138 16.5599C11.9893 17.2671 10.5656 17.5504 9.16354 17.366C7.76152 17.1816 6.45951 16.5398 5.45944 15.54C4.45937 14.5403 3.81712 13.2385 3.63228 11.8365C3.44745 10.4345 3.73037 9.01077 4.43716 7.78598C4.6206 7.46809 4.51161 7.06167 4.19372 6.87823C3.87583 6.69478 3.46942 6.80377 3.28597 7.12166C2.43295 8.59986 2.0915 10.3182 2.31457 12.0102C2.53765 13.7023 3.31278 15.2734 4.51977 16.48C5.72675 17.6866 7.29814 18.4613 8.99023 18.6838C10.6823 18.9063 12.4006 18.5643 13.8785 17.7109C15.3564 16.8574 16.5114 15.5401 17.1644 13.9633C17.8174 12.3865 17.9319 10.6383 17.4901 8.98978C17.0483 7.34129 16.0749 5.88463 14.7209 4.84572C13.636 4.0133 12.3553 3.48633 11.0112 3.30973V1.63698Z" fill="#161823"/>
<path d="M7.91501 13.1654C7.91501 13.8274 8.7457 14.4894 9.91819 14.4894C11.2594 14.4894 12.1637 13.6457 12.1637 12.3867C12.1637 11.2445 11.3892 10.4657 10.2643 10.4657C9.75811 10.4657 9.27787 10.6561 9.07452 10.933H9.01395L9.13509 9.40568H11.3719C11.7224 9.40568 11.9214 9.23695 11.9214 8.93409C11.9214 8.63123 11.718 8.45385 11.3719 8.45385H8.92309C8.44717 8.45385 8.20056 8.65287 8.17027 9.06389L8.01019 11.2877C7.98423 11.6858 8.22652 11.941 8.5813 11.941C8.74138 11.941 8.86685 11.8891 9.12211 11.6728C9.37738 11.4738 9.67158 11.3656 9.96146 11.3656C10.5845 11.3656 11.0301 11.7983 11.0301 12.4299C11.0301 13.0832 10.5672 13.5375 9.91387 13.5375C9.47256 13.5375 9.12644 13.3342 8.85387 12.9275C8.71109 12.7241 8.57264 12.6463 8.39093 12.6463C8.10105 12.6463 7.91501 12.8756 7.91501 13.1654Z" fill="#161823"/>
</svg>
