<svg width="20" height="20" viewBox="0 0 20 20" fill="none" xmlns="http://www.w3.org/2000/svg">
<path fill-rule="evenodd" clip-rule="evenodd" d="M15.2314 16.7C17.221 15.1442 18.5 12.7215 18.5 10C18.5 5.30558 14.6944 1.5 10 1.5C5.30558 1.5 1.5 5.30558 1.5 10C1.5 14.6507 5.23509 18.4291 9.86919 18.499L9.8667 18.5H9.97065L10 18.5L10.0293 18.5H17.6C18.0971 18.5 18.5 18.097 18.5 17.6C18.5 17.1029 18.0971 16.7 17.6 16.7H15.2314ZM9.15147 8.02019C8.68284 7.55156 8.68284 6.79177 9.15147 6.32314C9.6201 5.85451 10.3799 5.85451 10.8485 6.32314C11.3172 6.79177 11.3172 7.55156 10.8485 8.02019C10.3799 8.48882 9.6201 8.48882 9.15147 8.02019ZM11.9798 10.8486C12.4485 11.3172 13.2083 11.3172 13.6769 10.8486C14.1455 10.3799 14.1455 9.62014 13.6769 9.15151C13.2083 8.68288 12.4485 8.68288 11.9798 9.15151C11.5112 9.62014 11.5112 10.3799 11.9798 10.8486ZM8.02016 10.8486C7.55153 11.3172 6.79173 11.3172 6.3231 10.8486C5.85447 10.3799 5.85447 9.62014 6.3231 9.15151C6.79173 8.68288 7.55153 8.68288 8.02016 9.15151C8.48879 9.62014 8.48879 10.3799 8.02016 10.8486ZM9.15147 13.6769C9.6201 14.1456 10.3799 14.1456 10.8485 13.6769C11.3172 13.2083 11.3172 12.4485 10.8485 11.9799C10.3799 11.5112 9.6201 11.5112 9.15147 11.9799C8.68284 12.4485 8.68284 13.2083 9.15147 13.6769Z" fill="#161823"/>
</svg>
