<svg width="12" height="12" viewBox="0 0 12 12" fill="none" xmlns="http://www.w3.org/2000/svg">
<path d="M2.66556 4.52161C3.04536 4.4406 3.40154 4.72858 3.43499 5.12812C3.48001 5.66581 3.54433 6.34848 3.60966 6.75266C3.66438 7.09123 3.75487 7.58414 3.83708 8.01999C3.92834 8.50384 3.53964 8.94538 3.04931 8.90038C2.84361 8.8815 2.63154 8.85999 2.44202 8.83681C2.10296 8.79536 1.80622 8.66727 1.59886 8.55336C1.39044 8.43887 1.26613 8.22535 1.22514 7.99112C1.16783 7.66362 1.08915 7.1926 1.06087 6.92176C1.04296 6.75032 1.01683 6.5054 0.991455 6.26898C0.948713 5.87075 1.0408 5.47707 1.30741 5.20565C1.5164 2.81606 3.52478 0.900024 6.01465 0.900024C8.56814 0.900024 10.6177 2.91602 10.7345 5.39456C10.8873 5.64496 10.9372 5.95556 10.9035 6.26898C10.8781 6.5054 10.852 6.75032 10.8341 6.92176C10.8058 7.1926 10.7271 7.66362 10.6698 7.99112C10.647 8.12137 10.5985 8.24521 10.524 8.34919C10.3968 9.25652 9.95137 9.97845 9.14698 10.45C8.55957 10.7944 7.81053 10.9876 6.91559 11.0629C6.76673 11.1801 6.57892 11.25 6.37477 11.25C5.89152 11.25 5.49977 10.8582 5.49977 10.375C5.49977 9.89172 5.89152 9.49996 6.37477 9.49996C6.65722 9.49996 6.90841 9.63379 7.0684 9.8415C7.7184 9.76468 8.19749 9.61563 8.5401 9.41478C8.78459 9.27145 8.97105 9.09538 9.10423 8.87546C9.01833 8.88418 8.93144 8.89251 8.84566 8.90038C8.35534 8.94538 7.96663 8.50384 8.0579 8.01999C8.14011 7.58414 8.2306 7.09123 8.28532 6.75266C8.35065 6.34848 8.41497 5.66581 8.45998 5.12812C8.49531 4.70612 8.89068 4.40858 9.29363 4.53881C9.32157 4.54784 9.34982 4.55716 9.37827 4.56675C8.93104 3.14647 7.60365 2.10002 6.01465 2.10002C4.44169 2.10002 3.12632 3.12504 2.66556 4.52161Z" fill="#161823"/>
</svg>
