<svg width="20" height="20" viewBox="0 0 20 20" fill="none" xmlns="http://www.w3.org/2000/svg">
<path d="M15.2832 12.0752C17.0197 11.6162 18.3332 9.48108 18.3332 6.9165C18.3332 4.01701 16.6543 1.6665 14.5832 1.6665C12.5121 1.6665 10.8332 4.01701 10.8332 6.9165C10.8332 9.48108 12.1467 11.6162 13.8832 12.0752V17.6339C13.8832 18.0205 14.1966 18.3339 14.5832 18.3339C14.9698 18.3339 15.2832 18.0205 15.2832 17.6339L15.2832 12.0752ZM16.9332 6.9165C16.9332 8.1081 16.5861 9.12844 16.0956 9.81508C15.6032 10.5044 15.0492 10.7665 14.5832 10.7665C14.1171 10.7665 13.5631 10.5044 13.0708 9.81508C12.5803 9.12844 12.2332 8.1081 12.2332 6.9165C12.2332 5.72491 12.5803 4.70457 13.0708 4.01793C13.5631 3.3286 14.1171 3.0665 14.5832 3.0665C15.0492 3.0665 15.6032 3.3286 16.0956 4.01793C16.5861 4.70457 16.9332 5.72491 16.9332 6.9165Z" fill="#161823"/>
<path d="M2.41484 1.8009C2.80144 1.8009 3.11484 2.1143 3.11484 2.5009V8.99985C3.11484 9.71782 3.69687 10.2999 4.41484 10.2999H6.66484C7.38281 10.2999 7.96484 9.71782 7.96484 8.99985V2.5009C7.96484 2.1143 8.27824 1.8009 8.66484 1.8009C9.05144 1.8009 9.36484 2.1143 9.36484 2.5009V8.99985C9.36484 10.491 8.15601 11.6999 6.66484 11.6999H6.23984V17.6288C6.23984 18.0154 5.92644 18.3288 5.53984 18.3288C5.15324 18.3288 4.83984 18.0154 4.83984 17.6288L4.83984 11.6999H4.41484C2.92368 11.6999 1.71484 10.491 1.71484 8.99985V2.5009C1.71484 2.1143 2.02824 1.8009 2.41484 1.8009Z" fill="#161823"/>
<path d="M5.53984 1.8009C5.92644 1.8009 6.23984 2.1143 6.23984 2.5009V8.5009C6.23984 8.8875 5.92644 9.2009 5.53984 9.2009C5.15324 9.2009 4.83984 8.8875 4.83984 8.5009V2.5009C4.83984 2.1143 5.15324 1.8009 5.53984 1.8009Z" fill="#161823"/>
</svg>
