<svg width="24" height="24" viewBox="0 0 24 24" fill="none" xmlns="http://www.w3.org/2000/svg">
<path d="M2 5.75V18.25C2 19.7688 3.23122 21 4.75 21H19.25C20.7688 21 22 19.7688 22 18.25V8.25C22 6.73122 20.7688 5.5 19.25 5.5H13.1391C12.4097 5.5 11.7103 5.21027 11.1945 4.69454L10.3055 3.80546C9.78973 3.28973 9.09026 3 8.36091 3H4.75C3.23122 3 2 4.23122 2 5.75ZM20.5 10.5V18.25C20.5 18.9404 19.9404 19.5 19.25 19.5H4.75C4.05964 19.5 3.5 18.9404 3.5 18.25V10.5H20.5ZM20.5 9H3.5V5.75C3.5 5.05964 4.05964 4.5 4.75 4.5H8.36091C8.69243 4.5 9.01038 4.6317 9.2448 4.86612L10.1339 5.7552C10.9309 6.55223 12.0119 7 13.1391 7H19.25C19.9404 7 20.5 7.55964 20.5 8.25V9Z" fill="#161823"/>
</svg>
