<svg width="20" height="20" viewBox="0 0 20 20" fill="none" xmlns="http://www.w3.org/2000/svg">
<path d="M5.77361 2.01258C5.5665 1.65386 5.10781 1.53095 4.74909 1.73806C3.60276 2.39989 2.59188 3.27246 1.76968 4.30982C1.51239 4.63443 1.56697 5.10616 1.89159 5.36345C2.21621 5.62073 2.68793 5.56615 2.94522 5.24154C3.64998 4.35235 4.51649 3.6044 5.49909 3.0371C5.85781 2.82999 5.98072 2.3713 5.77361 2.01258Z" fill="#161823"/>
<path d="M15.2512 1.73806C14.8925 1.53095 14.4338 1.65386 14.2267 2.01258C14.0196 2.3713 14.1425 2.82999 14.5012 3.0371C15.4838 3.6044 16.3503 4.35235 17.0551 5.24154C17.3124 5.56615 17.7841 5.62073 18.1087 5.36345C18.4333 5.10616 18.4879 4.63443 18.2306 4.30982C17.4084 3.27246 16.3976 2.39989 15.2512 1.73806Z" fill="#161823"/>
<path d="M10.7502 7.08977C10.7502 6.67555 10.4144 6.33977 10.0002 6.33977C9.58595 6.33977 9.25016 6.67555 9.25016 7.08977V10.8333C9.25016 11.0322 9.32918 11.2229 9.46983 11.3636L11.1365 13.0303C11.4294 13.3231 11.9043 13.3231 12.1972 13.0303C12.49 12.7374 12.49 12.2625 12.1972 11.9696L10.7502 10.5226V7.08977Z" fill="#161823"/>
<path d="M17.5002 10.8333C17.5002 14.9754 14.1423 18.3333 10.0002 18.3333C5.85803 18.3333 2.50016 14.9754 2.50016 10.8333C2.50016 6.69113 5.85803 3.33327 10.0002 3.33327C14.1423 3.33327 17.5002 6.69113 17.5002 10.8333ZM16.0002 10.8333C16.0002 7.51956 13.3139 4.83327 10.0002 4.83327C6.68645 4.83327 4.00016 7.51956 4.00016 10.8333C4.00016 14.147 6.68645 16.8333 10.0002 16.8333C13.3139 16.8333 16.0002 14.147 16.0002 10.8333Z" fill="#161823"/>
</svg>
