<svg width="24" height="24" viewBox="0 0 24 24" fill="none" xmlns="http://www.w3.org/2000/svg">
<path d="M3.53057 2.46967C3.23768 2.17678 2.76281 2.17678 2.46991 2.46967C2.17702 2.76256 2.17702 3.23744 2.46991 3.53033L20.4699 21.5303C20.7628 21.8232 21.2377 21.8232 21.5306 21.5303C21.8235 21.2374 21.8235 20.7626 21.5306 20.4697L18.4028 17.3419C20.798 15.8046 22.279 13.7574 22.8534 12.8649C23.1946 12.3348 23.1946 11.6652 22.8534 11.1351C21.8756 9.61569 18.2703 4.75 12.0002 4.75C10.065 4.75 8.38437 5.21209 6.95676 5.89586L3.53057 2.46967ZM9.57227 8.51136C10.2606 8.03144 11.0975 7.75 12.0002 7.75C14.3475 7.75 16.2502 9.65279 16.2502 12C16.2502 12.9027 15.9688 13.7397 15.4889 14.428L14.4018 13.3409C14.6237 12.9442 14.7502 12.4869 14.7502 12C14.7502 10.4812 13.519 9.25 12.0002 9.25C11.5134 9.25 11.0561 9.37652 10.6594 9.59848L9.57227 8.51136Z" fill="#161823"/>
<path d="M1.19571 11.0586C1.68554 10.3076 2.74009 8.86376 4.36504 7.54673L7.85897 11.0407C7.78783 11.349 7.75024 11.6701 7.75024 12C7.75024 14.3472 9.65303 16.25 12.0002 16.25C12.3302 16.25 12.6513 16.2124 12.9596 16.1413L15.5244 18.7061C14.4617 19.045 13.2871 19.25 12.0002 19.25C9.36006 19.25 6.98191 18.0239 5.14836 16.6657C3.30621 15.301 1.93761 13.7466 1.30097 12.964C0.859035 12.4208 0.803451 11.66 1.19571 11.0586Z" fill="#161823"/>
</svg>
