<svg width="16" height="16" viewBox="0 0 16 16" fill="none" xmlns="http://www.w3.org/2000/svg">
<path d="M5.6 8.39999C5.26863 8.39999 5 8.66862 5 8.99999C5 9.33136 5.26863 9.59999 5.6 9.59999H10.4C10.7314 9.59999 11 9.33136 11 8.99999C11 8.66862 10.7314 8.39999 10.4 8.39999H5.6Z" fill="#161823"/>
<path fill-rule="evenodd" clip-rule="evenodd" d="M1 4V12C1 13.1046 1.89543 14 3 14H13C14.1046 14 15 13.1046 15 12V5.45455C15 4.34998 14.1046 3.45455 13 3.45455H8.59483C8.22967 3.45455 7.87365 3.34032 7.57666 3.12786L6.45668 2.32668C6.15968 2.11423 5.80367 2 5.43851 2H3C1.89543 2 1 2.89543 1 4ZM2.2 4V6H13.8V5.45455C13.8 5.01272 13.4418 4.65455 13 4.65455H8.59483C7.97927 4.65455 7.37913 4.46199 6.87848 4.10385L5.7585 3.30267C5.66516 3.2359 5.55327 3.2 5.43851 3.2H3C2.55817 3.2 2.2 3.55817 2.2 4ZM2.2 12V7.2H13.8V12C13.8 12.4418 13.4418 12.8 13 12.8H3C2.55817 12.8 2.2 12.4418 2.2 12Z" fill="#161823"/>
</svg>
