<svg width="20" height="20" viewBox="0 0 20 20" fill="none" xmlns="http://www.w3.org/2000/svg">
<path d="M2 4C2 2.89543 2.89543 2 4 2H7.25C8.35457 2 9.25 2.89543 9.25 4V16C9.25 17.1046 8.35457 18 7.25 18H4C2.89543 18 2 17.1046 2 16V4Z" fill="#161823"/>
<path d="M10.75 14.0167C10.75 12.9122 11.6454 12.0167 12.75 12.0167H16C17.1046 12.0167 18 12.9122 18 14.0167V16.0167C18 17.1213 17.1046 18.0167 16 18.0167H12.75C11.6454 18.0167 10.75 17.1213 10.75 16.0167V14.0167Z" fill="#161823"/>
<path d="M12.75 2.01672C11.6454 2.01672 10.75 2.91215 10.75 4.01672V8.51672C10.75 9.62129 11.6454 10.5167 12.75 10.5167H16C17.1046 10.5167 18 9.62129 18 8.51672V4.01672C18 2.91215 17.1046 2.01672 16 2.01672H12.75Z" fill="#161823"/>
</svg>
