<svg width="20" height="20" viewBox="0 0 20 20" fill="none" xmlns="http://www.w3.org/2000/svg">
<path d="M5.58535 9.2676C5.58535 7.52041 6.83524 6.21551 8.44247 6.21551C9.06832 6.21551 9.59224 6.42925 10.0008 6.76901C10.4085 6.43025 10.9305 6.21551 11.5582 6.21551C13.1654 6.21551 14.4153 7.52041 14.4153 9.2676C14.4153 10.2451 14.0048 11.161 13.374 11.9741C12.7441 12.786 11.8658 13.5346 10.8438 14.2009C10.7506 14.2635 10.638 14.3322 10.5183 14.3883C10.4158 14.4363 10.2234 14.5168 9.99845 14.5168C9.77186 14.5168 9.57938 14.4352 9.47718 14.3867C9.3586 14.3304 9.24745 14.2618 9.15678 14.2008C8.13478 13.5346 7.25649 12.786 6.62666 11.9741C5.99587 11.161 5.58535 10.2451 5.58535 9.2676Z" fill="#161823"/>
<path fill-rule="evenodd" clip-rule="evenodd" d="M10.0003 18.3333C14.6027 18.3333 18.3337 14.6024 18.3337 9.99999C18.3337 5.39762 14.6027 1.66666 10.0003 1.66666C5.39795 1.66666 1.66699 5.39762 1.66699 9.99999C1.66699 14.6024 5.39795 18.3333 10.0003 18.3333ZM10.0003 3.16666C13.7743 3.16666 16.8337 6.22604 16.8337 9.99999C16.8337 13.7739 13.7743 16.8333 10.0003 16.8333C6.22638 16.8333 3.16699 13.7739 3.16699 9.99999C3.16699 6.22604 6.22638 3.16666 10.0003 3.16666Z" fill="#161823"/>
</svg>
