<svg width="24" height="24" viewBox="0 0 24 24" fill="none" xmlns="http://www.w3.org/2000/svg">
<path d="M20.4697 21.5303C20.7626 21.8232 21.2374 21.8232 21.5303 21.5303C21.8232 21.2374 21.8232 20.7626 21.5303 20.4697L19.5816 18.5209C21.0889 16.7701 22 14.4915 22 12C22 6.47715 17.5228 2 12 2C9.50853 2 7.22987 2.91114 5.47906 4.4184L3.53033 2.46967C3.23744 2.17678 2.76256 2.17678 2.46967 2.46967C2.17678 2.76256 2.17678 3.23744 2.46967 3.53033L20.4697 21.5303ZM12 3.5C16.6944 3.5 20.5 7.30558 20.5 12C20.5 13.7588 19.9658 15.3929 19.0508 16.7488C18.3464 15.4595 16.8626 14.4215 14.9498 13.8892L12.9047 11.8441C14.1834 11.5115 15.1357 10.2365 15.1357 8.71429C15.1357 6.93909 13.8405 5.5 12.2428 5.5C10.7678 5.5 9.55068 6.72656 9.37244 8.31178L6.54322 5.48256C8.01967 4.24508 9.92282 3.5 12 3.5Z" fill="#161823"/>
<path d="M4.61192 7.79392C3.90431 9.03418 3.5 10.4699 3.5 12C3.5 13.7588 4.0342 15.3929 4.94921 16.7488C5.81453 15.165 7.85617 13.9603 10.4245 13.6065L17.2997 20.4817C15.7632 21.4438 13.9466 22 12 22C6.47715 22 2 17.5228 2 12C2 10.0534 2.55617 8.23679 3.51828 6.70028L4.61192 7.79392Z" fill="#161823"/>
</svg>
