<svg width="24" height="24" viewBox="0 0 24 24" fill="none" xmlns="http://www.w3.org/2000/svg">
<path d="M2.99615 6.74609C2.99615 4.67503 4.67508 2.99609 6.74615 2.99609H8.24609C8.66031 2.99609 8.99609 3.33188 8.99609 3.74609C8.99609 4.16031 8.66031 4.49609 8.24609 4.49609H6.74615C5.50351 4.49609 4.49615 5.50345 4.49615 6.74609L4.49609 8.25C4.49609 8.66421 4.16031 9 3.74609 9C3.33188 9 2.99609 8.66421 2.99609 8.25L2.99615 6.74609Z" fill="#161823"/>
<path d="M3.00177 17.248C3.00177 19.3191 4.6807 20.998 6.75176 20.998H8.24856C8.66277 20.998 8.99856 20.6623 8.99856 20.248C8.99856 19.8338 8.66277 19.498 8.24856 19.498H6.75176C5.50912 19.498 4.50177 18.4907 4.50177 17.248L4.49609 15.75C4.49609 15.3358 4.16031 15 3.74609 15C3.33188 15 2.99609 15.3358 2.99609 15.75L3.00177 17.248Z" fill="#161823"/>
<path d="M21.0025 6.74756C21.0025 4.67649 19.3236 2.99756 17.2525 2.99756H15.7501C15.3359 2.99756 15.0001 3.33334 15.0001 3.74756C15.0001 4.16177 15.3359 4.49756 15.7501 4.49756H17.2525C18.4951 4.49756 19.5025 5.50492 19.5025 6.74756V8.25C19.5025 8.66421 19.8383 9 20.2525 9C20.6667 9 21.0025 8.66421 21.0025 8.25V6.74756Z" fill="#161823"/>
<path d="M20.9983 17.248C20.9983 19.3191 19.3194 20.998 17.2483 20.998H15.748C15.3338 20.998 14.998 20.6623 14.998 20.248C14.998 19.8338 15.3338 19.498 15.748 19.498H17.2483C18.491 19.498 19.4983 18.4907 19.4983 17.248V15.6858C19.4983 15.2716 19.8341 14.9358 20.2483 14.9358C20.6626 14.9358 20.9983 15.2716 20.9983 15.6858V17.248Z" fill="#161823"/>
<path d="M3.75 11.25C3.33579 11.25 3 11.5858 3 12C3 12.4142 3.33579 12.75 3.75 12.75L20.25 12.75C20.6642 12.75 21 12.4142 21 12C21 11.5858 20.6642 11.25 20.25 11.25L3.75 11.25Z" fill="#161823"/>
</svg>
