<svg width="24" height="24" viewBox="0 0 24 24" fill="none" xmlns="http://www.w3.org/2000/svg">
<path d="M12.25 6.25C12.25 3.35051 14.6005 1 17.5 1C20.3995 1 22.75 3.3505 22.75 6.25V8.75C22.75 9.16421 22.4142 9.5 22 9.5C21.5858 9.5 21.25 9.16421 21.25 8.75V6.25C21.25 4.17893 19.5711 2.5 17.5 2.5C15.4289 2.5 13.75 4.17893 13.75 6.25V9H14.25C15.7688 9 17 10.2312 17 11.75V19.25C17 20.7688 15.7688 22 14.25 22H3.75C2.23122 22 1 20.7688 1 19.25V11.75C1 10.2312 2.23122 9 3.75 9H12.25V6.25ZM14.25 10.5H3.75C3.05964 10.5 2.5 11.0596 2.5 11.75V19.25C2.5 19.9404 3.05964 20.5 3.75 20.5H14.25C14.9404 20.5 15.5 19.9404 15.5 19.25V11.75C15.5 11.0596 14.9404 10.5 14.25 10.5Z" fill="#161823"/>
</svg>
