<svg width="16" height="16" viewBox="0 0 16 16" fill="none" xmlns="http://www.w3.org/2000/svg">
<path d="M1.33008 8C1.33008 4.31626 4.31634 1.33 8.00008 1.33C11.6838 1.33 14.6701 4.31626 14.6701 8C14.6701 8.05573 14.6694 8.11129 14.668 8.16669H13.5668C12.4622 8.16669 11.5668 9.06212 11.5668 10.1667C11.5668 10.228 11.5695 10.2886 11.5749 10.3485C10.8843 10.6629 10.4039 11.3587 10.4027 12.1667L10.2335 12.1667C9.12896 12.1667 8.23353 13.0621 8.23352 14.1667C8.23352 14.3382 8.25511 14.5047 8.29572 14.6636C8.19771 14.6678 8.09915 14.67 8.00008 14.67C4.31634 14.67 1.33008 11.6837 1.33008 8ZM7.23163 10.813L10.6279 8.49564C10.977 8.25743 10.977 7.7426 10.6279 7.5044L7.23163 5.18703C6.83336 4.91528 6.29346 5.2005 6.29346 5.68265V10.3174C6.29346 10.7995 6.83336 11.0848 7.23163 10.813Z" fill="#161823"/>
<path d="M10.2335 13.5667C9.90218 13.5667 9.63355 13.8353 9.63354 14.1667C9.63354 14.4981 9.90217 14.7667 10.2335 14.7667L15.2335 14.7667C15.5648 14.7667 15.8335 14.4981 15.8335 14.1667C15.8335 13.8354 15.5649 13.5667 15.2335 13.5667L10.2335 13.5667Z" fill="#161823"/>
<path d="M12.9668 10.1667C12.9668 9.83531 13.2354 9.56668 13.5668 9.56668H15.2335C15.5648 9.56668 15.8335 9.83531 15.8335 10.1667C15.8335 10.4981 15.5648 10.7667 15.2335 10.7667H13.5668C13.2354 10.7667 12.9668 10.4981 12.9668 10.1667Z" fill="#161823"/>
<path d="M12.4027 11.5697C12.0714 11.5697 11.8027 11.8383 11.8027 12.1697C11.8027 12.501 12.0714 12.7697 12.4027 12.7697L15.2335 12.7697C15.5648 12.7697 15.8335 12.501 15.8335 12.1697C15.8335 11.8383 15.5649 11.5697 15.2335 11.5697L12.4027 11.5697Z" fill="#161823"/>
</svg>
