<svg width="20" height="20" viewBox="0 0 20 20" fill="none" xmlns="http://www.w3.org/2000/svg">
<path fill-rule="evenodd" clip-rule="evenodd" d="M9.88172 1.00086C11.8602 0.971205 13.7727 1.71124 15.214 3.06463C15.2222 3.0724 15.2318 3.08143 15.2424 3.09129L15.2432 3.09207L15.2434 3.09223C15.2824 3.12854 15.3343 3.1769 15.3812 3.2236C15.386 3.22847 15.3902 3.2328 15.3936 3.23628C15.4758 3.31769 15.5604 3.40515 15.6436 3.49909C16.865 4.8461 17.5626 6.58539 17.6093 8.40183C17.656 10.22 17.0476 11.9943 15.8949 13.4027L15.8941 13.4035C15.7797 13.5429 15.6608 13.6746 15.5441 13.7985L15.5363 13.8068L10.58 18.759C10.5035 18.8354 10.4127 18.896 10.3128 18.9374C10.213 18.9787 10.106 19 9.99806 19C9.89005 19 9.78308 18.9789 9.68326 18.9376C9.58342 18.8964 9.49255 18.8359 9.41592 18.7595L4.61362 13.969C3.18603 12.5441 2.38376 10.6116 2.38379 8.59634C2.38382 6.58105 3.18614 4.6486 4.61378 3.22375L4.61399 3.22354C6.01383 1.82753 7.90329 1.03051 9.88172 1.00086ZM12.2174 15.0025L14.4598 12.7619C14.5559 12.6597 14.6446 12.561 14.7257 12.4628C15.0222 12.0695 15.2389 11.6278 15.369 11.1621C15.3772 11.1327 15.385 11.1032 15.3926 11.0736C15.5053 10.6301 15.54 10.1664 15.4911 9.70339C15.3867 8.71555 14.909 7.80401 14.1547 7.15424C13.5964 6.67337 12.9176 6.36262 12.1985 6.25012C12.2532 6.30123 12.3062 6.3543 12.3573 6.40926C13.5602 7.70031 13.4479 9.69894 12.2322 10.9116L11.0524 12.0884C11.3917 12.4737 11.6659 12.9126 11.8632 13.3878C12.0765 13.9012 12.1962 14.448 12.2174 15.0025ZM9.99728 11.0222L11.1728 9.84962C11.8501 9.17406 11.8795 8.0968 11.2599 7.43179L11.2594 7.4313C11.1025 7.26259 10.913 7.12699 10.7023 7.0327C10.4915 6.9384 10.2638 6.88735 10.0327 6.88265C9.8016 6.87795 9.57197 6.9197 9.3575 7.00537C9.14617 7.08978 8.95388 7.2151 8.79168 7.37395L8.78724 7.37864L8.78409 7.38197C8.78111 7.38511 8.77714 7.38927 8.77259 7.39395L8.77096 7.39562L8.76933 7.39728C8.47421 7.69717 8.29909 8.09373 8.27627 8.51262C8.25345 8.9315 8.38443 9.34457 8.64512 9.67447C8.74527 9.7869 8.85219 9.89386 8.96548 9.99471L8.98138 10.0089L9.99728 11.0222ZM15.8157 6.72208C15.6115 6.46876 15.3835 6.23274 15.1337 6.01754C14.0906 5.11908 12.7445 4.6507 11.368 4.70727C9.99615 4.76365 8.69613 5.33728 7.73143 6.31269C7.76503 6.14481 7.80978 5.9787 7.86563 5.81545C8.11444 5.08822 8.57271 4.44998 9.18346 3.98068C9.79423 3.51136 10.5303 3.23188 11.2998 3.17739L11.3007 3.17733C11.8261 3.13948 12.3536 3.20787 12.8518 3.37836C12.9386 3.4081 13.0243 3.44083 13.1086 3.47648C13.5024 3.64322 13.8694 3.87447 14.1935 4.16413C14.2096 4.17923 14.2237 4.19242 14.2366 4.2044C14.2673 4.23305 14.2907 4.2548 14.3152 4.27902C14.3185 4.28247 14.3227 4.28678 14.3275 4.29164L14.3294 4.29345L14.3312 4.29525C14.4012 4.36432 14.4648 4.43037 14.5228 4.49604L14.5262 4.49989L14.5297 4.50369C15.1155 5.14896 15.5514 5.90638 15.8157 6.72208ZM5.6734 4.28544C6.42347 3.53751 7.34891 3.00351 8.35414 2.72398C8.14964 2.87474 7.95494 3.04048 7.77175 3.22048C6.78745 4.18767 6.21008 5.49355 6.15813 6.87156C6.12774 7.67729 6.27833 8.4719 6.59031 9.20049C6.89889 9.9224 7.36245 10.5716 7.95164 11.1004L9.78595 12.9301C10.0825 13.2258 10.3176 13.5769 10.4779 13.9631C10.6383 14.3492 10.7208 14.7631 10.7208 15.181C10.7208 15.5989 10.6383 16.0127 10.4779 16.3989C10.3559 16.6929 10.1905 16.9665 9.98766 17.2109L5.67311 12.9072C4.52715 11.7633 3.88377 10.2127 3.88379 8.59636C3.88381 6.98006 4.52722 5.4295 5.67319 4.28565L5.6734 4.28544Z" fill="#161823"/>
</svg>
