<svg width="24" height="24" viewBox="0 0 24 24" fill="none" xmlns="http://www.w3.org/2000/svg">
<path d="M11.0701 3.30127C11.0701 2.88706 10.7343 2.55127 10.3201 2.55127C9.90585 2.55127 9.57007 2.88706 9.57007 3.30127L9.57007 20.6987C9.57007 21.1129 9.90586 21.4487 10.3201 21.4487C10.7343 21.4487 11.0701 21.1129 11.0701 20.6987L11.0701 3.30127Z" fill="#161823"/>
<path d="M7.70996 6.89651L7.70996 17.1035C7.70996 17.5177 7.37418 17.8535 6.95996 17.8535C6.54575 17.8535 6.20996 17.5177 6.20996 17.1035L6.20996 6.89651C6.20996 6.48229 6.54575 6.14651 6.95996 6.14651C7.37417 6.14651 7.70996 6.48229 7.70996 6.89651Z" fill="#161823"/>
<path d="M17.04 4.96874C17.4543 4.96874 17.79 5.30452 17.79 5.71874L17.79 18.2812C17.79 18.6954 17.4543 19.0312 17.04 19.0312C16.6258 19.0312 16.29 18.6954 16.29 18.2812L16.29 5.71874C16.29 5.30452 16.6258 4.96874 17.04 4.96874Z" fill="#161823"/>
<path d="M4.75 9.99999C4.75 9.58577 4.41421 9.24999 4 9.24999C3.58579 9.24999 3.25 9.58577 3.25 9.99999V13.0554C3.25 13.4696 3.58579 13.8054 4 13.8054C4.41421 13.8054 4.75 13.4696 4.75 13.0554L4.75 9.99999Z" fill="#161823"/>
<path d="M20 8.99999C20.4142 8.99999 20.75 9.33577 20.75 9.74999V14.25C20.75 14.6642 20.4142 15 20 15C19.5858 15 19.25 14.6642 19.25 14.25V9.74999C19.25 9.33577 19.5858 8.99999 20 8.99999Z" fill="#161823"/>
<path d="M14.4299 8.62499C14.4299 8.21077 14.0941 7.87499 13.6799 7.87499C13.2657 7.87499 12.9299 8.21077 12.9299 8.62499V15.375C12.9299 15.7892 13.2657 16.125 13.6799 16.125C14.0941 16.125 14.4299 15.7892 14.4299 15.375V8.62499Z" fill="#161823"/>
</svg>
