<svg width="20" height="20" viewBox="0 0 20 20" fill="none" xmlns="http://www.w3.org/2000/svg">
<path d="M10.07 1.59158C9.83546 1.38463 9.46644 1.55116 9.46644 1.86394V3.26917C8.02374 3.37315 6.63857 3.89727 5.48485 4.7825C4.1896 5.77633 3.25846 7.16976 2.83583 8.74671C2.4132 10.3237 2.5227 11.996 3.14735 13.5044C3.772 15.0127 4.87689 16.2728 6.29067 17.0893C7.70446 17.9057 9.34813 18.2329 10.9668 18.02C12.5854 17.8071 14.0886 17.0661 15.2432 15.9119C16.3978 14.7576 17.1393 13.2547 17.3527 11.6361C17.5661 10.0175 17.2395 8.37371 16.4235 6.95967C16.2164 6.6009 15.7578 6.4779 15.399 6.68493C15.0403 6.89196 14.9173 7.35063 15.1243 7.70939C15.7753 8.83745 16.0358 10.1488 15.8656 11.44C15.6954 12.7312 15.1038 13.9302 14.1827 14.851C13.2617 15.7718 12.0625 16.363 10.7712 16.5328C9.4799 16.7026 8.16866 16.4417 7.04081 15.7903C5.91296 15.139 5.03153 14.1337 4.53321 12.9304C4.0349 11.7271 3.94754 10.393 4.2847 9.13501C4.62185 7.877 5.36467 6.76538 6.39796 5.97255C7.28956 5.28844 8.35443 4.87467 9.46644 4.77406V6.13607C9.46644 6.44886 9.83546 6.61538 10.07 6.40844L12.388 4.36316C12.6065 4.17036 12.6065 3.82965 12.388 3.63685L10.07 1.59158Z" fill="#161823"/>
<path d="M8.13381 13.5488C7.79201 13.5488 7.59263 13.3291 7.59263 12.9588V9.00374H7.56822L7.01076 9.39843C6.83579 9.51236 6.73407 9.54898 6.61607 9.54898C6.39227 9.54898 6.22544 9.38215 6.22544 9.15836C6.22544 8.98746 6.33124 8.83691 6.53876 8.69856L7.26711 8.18993C7.56008 7.99055 7.79201 7.90917 8.01988 7.90917C8.41457 7.90917 8.67906 8.1818 8.67906 8.59277V12.9588C8.67906 13.3332 8.47967 13.5488 8.13381 13.5488Z" fill="#161823"/>
<path d="M11.489 13.618C10.3863 13.618 9.605 12.9954 9.605 12.3729C9.605 12.1003 9.77997 11.8846 10.0526 11.8846C10.2235 11.8846 10.3537 11.9578 10.488 12.1491C10.7443 12.5316 11.0698 12.7228 11.4849 12.7228C12.0993 12.7228 12.5347 12.2956 12.5347 11.6811C12.5347 11.0871 12.1156 10.6802 11.5296 10.6802C11.257 10.6802 10.9803 10.7819 10.7403 10.9691C10.5002 11.1725 10.3822 11.2213 10.2316 11.2213C9.89797 11.2213 9.6701 10.9813 9.69452 10.6069L9.84507 8.51545C9.87355 8.1289 10.1055 7.94172 10.5531 7.94172H12.8561C13.1817 7.94172 13.3729 8.10855 13.3729 8.39338C13.3729 8.67822 13.1857 8.83691 12.8561 8.83691H10.7525L10.6385 10.2733H10.6955C10.8867 10.0129 11.3384 9.83381 11.8145 9.83381C12.8724 9.83381 13.6008 10.5662 13.6008 11.6405C13.6008 12.8245 12.7503 13.618 11.489 13.618Z" fill="#161823"/>
</svg>
