<svg width="20" height="20" viewBox="0 0 20 20" fill="none" xmlns="http://www.w3.org/2000/svg">
<path d="M14.0007 11.6172C14.4148 11.6173 14.7507 11.9531 14.7507 12.3672V13.6172H16.0007C16.4148 13.6173 16.7507 13.9531 16.7507 14.3672C16.7504 14.7811 16.4146 15.1171 16.0007 15.1172H14.0007C13.5866 15.1172 13.251 14.7812 13.2507 14.3672V12.3672C13.2507 11.953 13.5865 11.6172 14.0007 11.6172Z" fill="#161823"/>
<path fill-rule="evenodd" clip-rule="evenodd" d="M14.322 9.14062C16.9283 9.27305 19.0007 11.4281 19.0007 14.0674L18.9948 14.3213C18.8623 16.9274 16.707 18.9997 14.0681 19L13.8142 18.9941C11.2918 18.8664 9.26958 16.8435 9.14131 14.3213L9.13448 14.0674C9.13448 11.3428 11.3435 9.13379 14.0681 9.13379L14.322 9.14062ZM14.0681 10.6338C12.1719 10.6338 10.6345 12.1712 10.6345 14.0674C10.6349 15.9632 12.1721 17.5 14.0681 17.5C15.9638 17.4997 17.5003 15.963 17.5007 14.0674C17.5007 12.1714 15.964 10.6341 14.0681 10.6338Z" fill="#161823"/>
<path d="M6.5837 3.29004C6.94472 3.17112 7.34447 3.34278 7.50264 3.69727C7.67074 4.07548 7.50082 4.519 7.12276 4.6875L6.88057 4.80176C5.6829 5.39777 4.70542 6.36415 4.09639 7.56055C3.44697 8.83664 3.25558 10.2979 3.5544 11.6982C3.85334 13.0983 4.62437 14.3542 5.73799 15.2539C6.49047 15.8616 7.36939 16.2818 8.30147 16.4902C8.34337 16.4996 8.37849 16.5283 8.3962 16.5674C8.61273 17.0469 8.88869 17.4935 9.21456 17.8984C9.28798 17.9897 9.22195 18.1285 9.10518 18.1201C7.53376 18.0066 6.02831 17.4164 4.79561 16.4209C3.41449 15.3052 2.45838 13.748 2.0876 12.0117C1.71702 10.2752 1.95422 8.46334 2.75948 6.88086C3.565 5.29829 4.8902 4.03976 6.51241 3.31738L6.5837 3.29004Z" fill="#161823"/>
<path d="M11.8015 3.69043C11.9581 3.33543 12.3572 3.16232 12.7185 3.2793L12.7907 3.30664L13.0915 3.44727C14.5792 4.18143 15.7952 5.37632 16.5554 6.85742C16.8139 7.36117 17.0151 7.88885 17.1569 8.42969C17.1863 8.54288 17.0628 8.63258 16.9597 8.57715C16.5046 8.33253 16.0151 8.14372 15.5007 8.01855C15.4589 8.00838 15.4238 7.97905 15.4069 7.93945C15.3497 7.80525 15.2874 7.67252 15.2204 7.54199C14.6074 6.34789 13.6269 5.38491 12.4274 4.79297L12.1853 4.67969L12.1169 4.64453C11.7867 4.45676 11.6451 4.04555 11.8015 3.69043Z" fill="#161823"/>
<path d="M9.6003 1.25C10.0144 1.25013 10.3503 1.58587 10.3503 2V7.7334C10.3503 8.1475 10.0144 8.48326 9.6003 8.4834C9.18611 8.4834 8.85033 8.14758 8.8503 7.7334V2C8.8503 1.58579 9.18608 1.25 9.6003 1.25Z" fill="#161823"/>
</svg>
