<svg width="24" height="24" viewBox="0 0 24 24" fill="none" xmlns="http://www.w3.org/2000/svg">
<path fill-rule="evenodd" clip-rule="evenodd" d="M10.7671 2.80701C10.8953 3.20088 10.68 3.62411 10.2861 3.75233C8.0818 4.46987 6.49023 6.54177 6.49023 8.98343C6.49023 12.021 8.95267 14.4834 11.9902 14.4834C14.448 14.4834 16.531 12.8708 17.2353 10.6441C17.3602 10.2492 17.7816 10.0303 18.1765 10.1552C18.5715 10.2801 18.7904 10.7015 18.6655 11.0964C17.7696 13.9289 15.1208 15.9834 11.9902 15.9834C8.12424 15.9834 4.99023 12.8494 4.99023 8.98343C4.99023 5.87325 7.0181 3.23866 9.82178 2.32599C10.2156 2.19778 10.6389 2.41314 10.7671 2.80701Z" fill="#161823"/>
<path fill-rule="evenodd" clip-rule="evenodd" d="M12.4682 2.70638C12.5481 2.29997 12.9425 2.03534 13.3489 2.11533C16.1081 2.65839 18.2838 4.82008 18.8477 7.57166C18.9308 7.97744 18.6693 8.3738 18.2635 8.45695C17.8577 8.54009 17.4613 8.27855 17.3782 7.87276C16.9357 5.71308 15.2247 4.0133 13.0592 3.5871C12.6528 3.50711 12.3882 3.1128 12.4682 2.70638Z" fill="#161823"/>
<path fill-rule="evenodd" clip-rule="evenodd" d="M7.99023 18.2501C7.99023 17.8359 8.32602 17.5001 8.74023 17.5001H15.2402C15.6544 17.5001 15.9902 17.8359 15.9902 18.2501C15.9902 18.6643 15.6544 19.0001 15.2402 19.0001H8.74023C8.32602 19.0001 7.99023 18.6643 7.99023 18.2501Z" fill="#161823"/>
<path fill-rule="evenodd" clip-rule="evenodd" d="M9.99023 21.2668C9.99023 20.8526 10.326 20.5168 10.7402 20.5168H13.2402C13.6544 20.5168 13.9902 20.8526 13.9902 21.2668C13.9902 21.681 13.6544 22.0168 13.2402 22.0168H10.7402C10.326 22.0168 9.99023 21.681 9.99023 21.2668Z" fill="#161823"/>
</svg>
