<svg width="20" height="20" viewBox="0 0 20 20" fill="none" xmlns="http://www.w3.org/2000/svg">
<path d="M10.7499 2.75C10.7499 2.33579 10.4141 2 9.99993 2C9.58572 2 9.24993 2.33579 9.24993 2.75V4.25C9.24993 4.66421 9.58572 5 9.99993 5C10.4141 5 10.7499 4.66421 10.7499 4.25V2.75Z" fill="#161823"/>
<path d="M15.7806 4.21967C16.0735 4.51256 16.0735 4.98744 15.7806 5.28033L14.7806 6.28027C14.4878 6.57316 14.0129 6.57316 13.72 6.28027C13.4271 5.98738 13.4271 5.5125 13.72 5.21961L14.7199 4.21967C15.0128 3.92678 15.4877 3.92678 15.7806 4.21967Z" fill="#161823"/>
<path d="M9.24993 9.07733L5.29693 13.0303C5.00404 13.3232 4.52916 13.3232 4.23627 13.0303C3.94338 12.7374 3.94338 12.2626 4.23627 11.9697L9.4696 6.73634C9.7625 6.44344 10.2374 6.44344 10.5303 6.73634L15.7803 11.9863C16.0732 12.2792 16.0732 12.7541 15.7803 13.047C15.4874 13.3399 15.0125 13.3399 14.7196 13.047L10.7499 9.07732L10.7499 17.25C10.7499 17.6642 10.4141 18 9.99993 18C9.58572 18 9.24993 17.6642 9.24993 17.25L9.24993 9.07733Z" fill="#161823"/>
<path d="M6.34081 6.34124C6.04792 6.63414 5.57304 6.63414 5.28015 6.34124L4.28015 5.34124C3.98725 5.04835 3.98725 4.57348 4.28015 4.28058C4.57304 3.98769 5.04792 3.98769 5.34081 4.28058L6.34081 5.28058C6.6337 5.57348 6.6337 6.04835 6.34081 6.34124Z" fill="#161823"/>
</svg>
