<svg width="20" height="20" viewBox="0 0 20 20" fill="none" xmlns="http://www.w3.org/2000/svg">
<path d="M8.50024 7.91667C8.50024 8.83714 7.9406 9.58333 7.25024 9.58333C6.55989 9.58333 6.00024 8.83714 6.00024 7.91667C6.00024 6.99619 6.55989 6.25 7.25024 6.25C7.9406 6.25 8.50024 6.99619 8.50024 7.91667Z" fill="#161823"/>
<path d="M12.7502 9.58333C13.4406 9.58333 14.0002 8.83714 14.0002 7.91667C14.0002 6.99619 13.4406 6.25 12.7502 6.25C12.0599 6.25 11.5002 6.99619 11.5002 7.91667C11.5002 8.83714 12.0599 9.58333 12.7502 9.58333Z" fill="#161823"/>
<path d="M10.0001 14.1667C11.1768 14.1667 12.4786 13.5937 13.1763 12.6148C13.3687 12.345 13.3058 11.9703 13.036 11.778C12.7662 11.5857 12.3915 11.6485 12.1992 11.9183C11.7593 12.5354 10.8487 12.9667 10.0001 12.9667C9.15181 12.9667 8.24155 12.5357 7.80151 11.9189C7.60906 11.6491 7.23437 11.5864 6.96461 11.7789C6.69485 11.9713 6.63217 12.346 6.82461 12.6158C7.52249 13.594 8.82382 14.1667 10.0001 14.1667Z" fill="#161823"/>
<path fill-rule="evenodd" clip-rule="evenodd" d="M18.3337 9.99935C18.3337 14.6017 14.6027 18.3327 10.0003 18.3327C5.39795 18.3327 1.66699 14.6017 1.66699 9.99935C1.66699 5.39698 5.39795 1.66602 10.0003 1.66602C14.6027 1.66602 18.3337 5.39698 18.3337 9.99935ZM16.8337 9.99935C16.8337 13.7733 13.7743 16.8327 10.0003 16.8327C6.22638 16.8327 3.16699 13.7733 3.16699 9.99935C3.16699 6.2254 6.22638 3.16602 10.0003 3.16602C13.7743 3.16602 16.8337 6.2254 16.8337 9.99935Z" fill="#161823"/>
</svg>
