<svg width="24" height="24" viewBox="0 0 24 24" fill="none" xmlns="http://www.w3.org/2000/svg">
<path d="M17.9833 2.74813C17.9833 3.16131 17.6476 3.49626 17.2333 3.49626H6.73334C6.31912 3.49626 5.98334 3.16131 5.98334 2.74813C5.98334 2.33495 6.31912 2 6.73334 2H17.2333C17.6476 2 17.9833 2.33495 17.9833 2.74813Z" fill="#161823"/>
<path d="M17.9833 21.2519C17.9833 21.6651 17.6476 22 17.2333 22H6.73334C6.31912 22 5.98334 21.6651 5.98334 21.2519C5.98334 20.8387 6.31912 20.5037 6.73334 20.5037H17.2333C17.6476 20.5037 17.9833 20.8387 17.9833 21.2519Z" fill="#161823"/>
<path fill-rule="evenodd" clip-rule="evenodd" d="M4 8.71659C4 6.65069 5.67893 4.97595 7.75 4.97595H16.25C18.3211 4.97595 20 6.65069 20 8.71659V15.2669C20 17.3328 18.3211 19.0075 16.25 19.0075H7.75C5.67893 19.0075 4 17.3328 4 15.2669V8.71659ZM7.75 6.47221H16.25C17.4926 6.47221 18.5 7.47705 18.5 8.71659V15.2669C18.5 16.5064 17.4926 17.5112 16.25 17.5112H7.75C6.50736 17.5112 5.5 16.5064 5.5 15.2669V8.71659C5.5 7.47705 6.50736 6.47221 7.75 6.47221Z" fill="#161823"/>
</svg>
