<svg width="24" height="24" viewBox="0 0 24 24" fill="none" xmlns="http://www.w3.org/2000/svg">
<path d="M11.4808 10.5654C12.4313 11.2857 12.4313 12.7144 11.4808 13.4347L4.38418 18.8123C3.1987 19.7106 1.49707 18.865 1.49707 17.3776V6.62241C1.49707 5.13502 3.19872 4.28946 4.38419 5.18778L11.4808 10.5654Z" fill="#161823"/>
<path d="M22.4924 13.1341C23.1162 12.3683 23.0122 11.1956 22.1805 10.5654L15.0839 5.18778C14.9357 5.07549 14.7795 4.99045 14.6195 4.9305C13.4996 4.51088 12.1968 5.32094 12.1968 6.62241V17.3776C12.1968 18.865 13.8984 19.7106 15.0839 18.8122L22.1805 13.4347C22.2994 13.3446 22.4033 13.2435 22.4924 13.1341Z" fill="#161823"/>
</svg>
