<svg width="16" height="16" viewBox="0 0 16 16" fill="none" xmlns="http://www.w3.org/2000/svg">
<path fill-rule="evenodd" clip-rule="evenodd" d="M8.48747 14.1775C8.19069 14.5099 7.7662 14.7 7.32056 14.7C6.27074 14.7 5.51892 13.6863 5.82364 12.6817L6.46191 10.5774H3.24945C2.54989 10.5774 1.98278 10.0103 1.98278 9.31071V8.15306C1.98278 7.82126 2.04629 7.49253 2.16988 7.18461L3.87842 2.92774C4.12186 2.3212 4.70973 1.92369 5.3633 1.9237L13.4374 1.92378C14.137 1.92378 14.7041 2.49088 14.7041 3.19044V9.31071C14.7041 10.0103 14.137 10.5774 13.4374 10.5774H11.7015L8.48747 14.1775ZM12.0328 9.37738H13.4374C13.4743 9.37738 13.5041 9.34753 13.5041 9.31071V3.19044C13.5041 3.15363 13.4743 3.12378 13.4374 3.12378H12.0328V9.37738ZM10.8328 3.12377L5.36329 3.1237C5.1999 3.1237 5.05293 3.22307 4.99207 3.37471L3.28353 7.63159C3.21698 7.79739 3.18278 7.9744 3.18278 8.15306V9.31071C3.18278 9.34753 3.21263 9.37738 3.24945 9.37738H7.2709C7.46088 9.37738 7.63964 9.46735 7.75281 9.61995C7.86599 9.77254 7.90021 9.96972 7.84506 10.1515L6.97198 13.03C6.90102 13.264 7.07609 13.5 7.32056 13.5C7.42434 13.5 7.52319 13.4558 7.5923 13.3783L10.8328 9.74852V3.12377Z" fill="#161823"/>
</svg>
