<svg width="20" height="20" viewBox="0 0 20 20" fill="none" xmlns="http://www.w3.org/2000/svg">
<path d="M11.667 6.17346C11.667 6.86382 11.1073 7.42346 10.417 7.42346C9.7266 7.42346 9.16695 6.86382 9.16695 6.17346C9.16695 5.48311 9.7266 4.92346 10.417 4.92346C11.1073 4.92346 11.667 5.48311 11.667 6.17346Z" fill="#161823"/>
<path d="M15.0792 3.15968C13.5582 2.01757 11.6967 1.42145 9.7952 1.46758C7.89371 1.51371 6.06326 2.19939 4.59944 3.41391C3.13563 4.62843 2.12389 6.30088 1.72761 8.16119C1.33133 10.0215 1.57364 11.9611 2.41542 13.6667C3.25719 15.3724 4.64929 16.7445 6.36691 17.5616C8.08453 18.3787 10.0274 18.5929 11.8818 18.1698C13.5792 17.7826 15.1118 16.882 16.2743 15.5963C16.7534 15.0664 16.618 14.2782 16.0862 13.8941L11.6282 10.6741L17.3168 8.78892C17.8923 8.59822 18.2571 7.9741 18.0575 7.34946C17.5246 5.68111 16.4854 4.21556 15.0792 3.15968ZM9.83158 2.96714C11.3959 2.92919 12.9273 3.41959 14.1785 4.35916C15.2414 5.15723 16.0494 6.23981 16.5136 7.47487L10.5377 9.45522C9.63441 9.75457 9.45016 10.9512 10.2216 11.5084L14.8863 14.8778C13.969 15.7824 12.8143 16.4185 11.5481 16.7074C10.0226 17.0555 8.42428 16.8792 7.01126 16.207C5.59824 15.5349 4.45302 14.4061 3.76053 13.0029C3.06803 11.5997 2.86869 10.0041 3.1947 8.47371C3.5207 6.9433 4.35301 5.56744 5.55724 4.56831C6.76146 3.56917 8.26729 3.00508 9.83158 2.96714Z" fill="#161823"/>
</svg>
