<svg width="20" height="20" viewBox="0 0 20 20" fill="none" xmlns="http://www.w3.org/2000/svg">
<path d="M9.21896 3.54736C10.6326 3.37535 12.0634 3.67477 13.2895 4.39914C14.1002 4.87811 14.7913 5.52517 15.3202 6.29057L14.2722 6.67201C14.0096 6.76757 13.9857 7.13689 14.2331 7.27605L16.6781 8.65136C16.9086 8.78101 17.1946 8.67691 17.2878 8.42945L18.2767 5.80431C18.3767 5.5387 18.1211 5.27114 17.8585 5.36671L16.7678 5.76368C16.0936 4.6781 15.1643 3.76459 14.0525 3.1077C12.542 2.21531 10.7793 1.84644 9.03778 2.05834C7.29627 2.27024 5.67341 3.05106 4.42105 4.27962C3.43654 5.24543 2.7243 6.44548 2.34551 7.7585C2.2307 8.15648 2.46026 8.57219 2.85824 8.687C3.25622 8.80181 3.67193 8.57226 3.78674 8.17427C4.09421 7.10845 4.67237 6.13435 5.47149 5.35041C6.48805 4.35317 7.80535 3.71936 9.21896 3.54736Z" fill="#161823"/>
<path d="M17.6544 12.2421C17.7692 11.8441 17.5397 11.4284 17.1417 11.3136C16.7437 11.1987 16.328 11.4283 16.2132 11.8262C15.9085 12.882 15.3386 13.8468 14.5526 14.626C13.5945 15.5757 12.3634 16.202 11.0317 16.4172C9.70001 16.6324 8.33433 16.4258 7.1259 15.8262C6.1408 15.3374 5.3004 14.6075 4.67985 13.7094L5.72783 13.328C5.9904 13.2324 6.0143 12.8631 5.76691 12.724L3.32197 11.3486C3.09149 11.219 2.80548 11.3231 2.71226 11.5706L1.72337 14.1957C1.62331 14.4613 1.879 14.7289 2.14157 14.6333L3.23224 14.2363C4.01224 15.4923 5.12857 16.5097 6.45922 17.1699C7.94796 17.9085 9.63042 18.1631 11.271 17.898C12.9116 17.6328 14.4283 16.8613 15.6086 15.6913C16.5769 14.7314 17.2791 13.5427 17.6544 12.2421Z" fill="#161823"/>
<path d="M7.25 7.9C7.25 7.62044 7.25 7.48065 7.29709 7.37039C7.35987 7.22337 7.4803 7.10657 7.63187 7.04567C7.74555 7 7.88966 7 8.17789 7C8.46612 7 8.61024 7 8.72392 7.04567C8.87549 7.10657 8.99591 7.22337 9.0587 7.37039C9.10579 7.48065 9.10579 7.62044 9.10579 7.9V12.1C9.10579 12.3796 9.10579 12.5193 9.0587 12.6296C8.99591 12.7766 8.87549 12.8934 8.72392 12.9543C8.61024 13 8.46612 13 8.17789 13C7.88966 13 7.74555 13 7.63187 12.9543C7.4803 12.8934 7.35987 12.7766 7.29709 12.6296C7.25 12.5193 7.25 12.3796 7.25 12.1V7.9Z" fill="#161823"/>
<path d="M10.8942 7.9C10.8942 7.62044 10.8942 7.48065 10.9413 7.37039C11.0041 7.22337 11.1245 7.10657 11.2761 7.04567C11.3898 7 11.5339 7 11.8221 7C12.1103 7 12.2545 7 12.3681 7.04567C12.5197 7.10657 12.6401 7.22337 12.7029 7.37039C12.75 7.48065 12.75 7.62044 12.75 7.9V12.1C12.75 12.3796 12.75 12.5193 12.7029 12.6296C12.6401 12.7766 12.5197 12.8934 12.3681 12.9543C12.2545 13 12.1103 13 11.8221 13C11.5339 13 11.3898 13 11.2761 12.9543C11.1245 12.8934 11.0041 12.7766 10.9413 12.6296C10.8942 12.5193 10.8942 12.3796 10.8942 12.1V7.9Z" fill="#161823"/>
</svg>
