<svg width="16" height="16" viewBox="0 0 16 16" fill="none" xmlns="http://www.w3.org/2000/svg">
<path d="M8.00033 1C6.34244 1 5.13366 2.51264 5.13366 4.2C5.13366 5.88736 6.34244 7.4 8.00033 7.4C9.65821 7.4 10.867 5.88736 10.867 4.2C10.867 2.51264 9.65821 1 8.00033 1ZM6.33366 4.2C6.33366 3.01548 7.15452 2.2 8.00033 2.2C8.84614 2.2 9.66699 3.01548 9.66699 4.2C9.66699 5.38452 8.84614 6.2 8.00033 6.2C7.15452 6.2 6.33366 5.38452 6.33366 4.2Z" fill="#161823"/>
<path d="M7.98366 8.29999C6.26966 8.29999 4.71568 8.77648 3.57385 9.5811C2.43242 10.3854 1.66699 11.5508 1.66699 12.9C1.66699 14.0598 2.6072 15 3.76699 15H12.2003C13.3601 15 14.3003 14.0598 14.3003 12.9C14.3003 11.5508 13.5349 10.3854 12.3935 9.5811C11.2516 8.77648 9.69766 8.29999 7.98366 8.29999ZM2.86699 12.9C2.86699 12.04 3.35209 11.2054 4.26508 10.562C5.17768 9.91893 6.48203 9.49999 7.98366 9.49999C9.48529 9.49999 10.7896 9.91893 11.7022 10.562C12.6152 11.2054 13.1003 12.04 13.1003 12.9C13.1003 13.397 12.6974 13.8 12.2003 13.8H3.76699C3.26994 13.8 2.86699 13.397 2.86699 12.9Z" fill="#161823"/>
</svg>
