<svg width="20" height="20" viewBox="0 0 20 20" fill="none" xmlns="http://www.w3.org/2000/svg">
<path d="M2.58301 5C2.58301 4.58579 2.91879 4.25 3.33301 4.25H16.6663C17.0806 4.25 17.4163 4.58579 17.4163 5C17.4163 5.41421 17.0806 5.75 16.6663 5.75H3.33301C2.91879 5.75 2.58301 5.41421 2.58301 5Z" fill="#161823"/>
<path d="M16.2241 16.5264C15.9436 16.4104 15.7607 16.1368 15.7607 15.8333V8.74999C15.7607 8.33577 16.0965 7.99999 16.5107 7.99999C16.9249 7.99999 17.2607 8.33577 17.2607 8.74999V14.0193L17.802 13.4766C18.0945 13.1833 18.5694 13.1827 18.8627 13.4752C19.1559 13.7678 19.1565 14.2426 18.864 14.5359L17.0417 16.363C16.8274 16.5779 16.5046 16.6424 16.2241 16.5264Z" fill="#161823"/>
<path d="M13.9274 8.74523C13.9274 8.44213 13.7449 8.16882 13.465 8.05258C13.1851 7.93634 12.8627 8.00001 12.648 8.21395L10.8144 10.041C10.5209 10.3334 10.5201 10.8083 10.8125 11.1017C11.1048 11.3951 11.5797 11.3959 11.8731 11.1036L12.4274 10.5513V15.8333C12.4274 16.2475 12.7631 16.5833 13.1774 16.5833C13.5916 16.5833 13.9274 16.2475 13.9274 15.8333V8.74523Z" fill="#161823"/>
<path d="M2.58301 10C2.58301 9.58579 2.91879 9.25 3.33301 9.25H9.10126V10.75H3.33301C2.91879 10.75 2.58301 10.4142 2.58301 10Z" fill="#161823"/>
<path d="M3.33301 14.25C2.91879 14.25 2.58301 14.5858 2.58301 15C2.58301 15.4142 2.91879 15.75 3.33301 15.75H9.10132V14.25H3.33301Z" fill="#161823"/>
</svg>
