<svg width="16" height="16" viewBox="0 0 16 16" fill="none" xmlns="http://www.w3.org/2000/svg">
<path d="M7.9998 7.33334C9.47256 7.33334 10.6665 5.9902 10.6665 4.33334C10.6665 2.67649 9.47256 1.33334 7.9998 1.33334C6.52704 1.33334 5.33313 2.67649 5.33313 4.33334C5.33313 5.9902 6.52704 7.33334 7.9998 7.33334Z" fill="#161823"/>
<path d="M7.9998 8.13333C6.40609 8.13333 4.92414 8.53096 3.80201 9.24327C2.69087 9.9486 1.7998 11.0668 1.7998 12.4848V13C1.7998 14.0309 2.63554 14.8667 3.66647 14.8667H8.40283C8.56636 14.8667 8.66293 14.6794 8.578 14.5396C8.14592 13.8287 7.89709 12.9941 7.89709 12.1014C7.89709 10.7087 8.50262 9.45751 9.46476 8.59665C9.59391 8.48109 9.54222 8.26023 9.37084 8.23443C8.92771 8.16774 8.46859 8.13333 7.9998 8.13333Z" fill="#161823"/>
<path d="M11.1652 12.1013C11.1652 11.77 11.4338 11.5013 11.7652 11.5013H13.4318C13.7632 11.5013 14.0318 11.77 14.0318 12.1013C14.0318 12.4327 13.7632 12.7013 13.4318 12.7013H11.7652C11.4338 12.7013 11.1652 12.4327 11.1652 12.1013Z" fill="#161823"/>
<path d="M12.5985 15.5026C14.477 15.5026 15.9998 13.9798 15.9998 12.1013C15.9998 10.2228 14.477 8.69998 12.5985 8.69998C10.72 8.69998 9.19714 10.2228 9.19714 12.1013C9.19714 13.9798 10.72 15.5026 12.5985 15.5026ZM12.5985 14.5026C11.2723 14.5026 10.1971 13.4275 10.1971 12.1013C10.1971 10.7751 11.2723 9.69998 12.5985 9.69998C13.9247 9.69998 14.9998 10.7751 14.9998 12.1013C14.9998 13.4275 13.9247 14.5026 12.5985 14.5026Z" fill="#161823"/>
</svg>
