<svg width="16" height="16" viewBox="0 0 16 16" fill="none" xmlns="http://www.w3.org/2000/svg">
<path d="M1.32617 6.1793C1.32617 3.60502 3.14258 1.76389 5.41845 1.76389C6.51103 1.76389 7.38243 2.22599 8.00039 2.93348C8.62046 2.22765 9.48741 1.76389 10.5823 1.76389C12.8582 1.76389 14.6746 3.60502 14.6746 6.1793C14.6746 7.61383 14.0721 8.99671 13.0837 10.2708C12.096 11.544 10.6999 12.7399 9.04334 13.8194C8.90466 13.9128 8.74617 14.0087 8.58593 14.0839C8.43963 14.1524 8.22542 14.2361 7.99727 14.2361C7.76778 14.2361 7.55433 14.1516 7.40908 14.0826C7.25049 14.0073 7.09401 13.9114 6.9574 13.8194C5.30088 12.7399 3.90472 11.544 2.91706 10.2708C1.92863 8.99671 1.32617 7.61383 1.32617 6.1793ZM5.41845 2.96389C3.86648 2.96389 2.52617 4.20491 2.52617 6.1793C2.52617 7.26765 2.9832 8.39835 3.8652 9.53528C4.74716 10.6722 6.0309 11.7838 7.61634 12.8164L7.6246 12.8218C7.73556 12.8967 7.83844 12.9581 7.92367 12.9985C7.95512 13.0135 7.97981 13.0235 7.99799 13.0299C8.01722 13.0233 8.04339 13.0129 8.07661 12.9973C8.16331 12.9567 8.26732 12.8954 8.3762 12.8219L8.38437 12.8164C9.96981 11.7837 11.2536 10.6722 12.1356 9.53528C13.0176 8.39835 13.4746 7.26765 13.4746 6.1793C13.4746 4.20491 12.1343 2.96389 10.5823 2.96389C9.65082 2.96389 8.96322 3.46261 8.52479 4.27162L8.16886 4.92839C8.09277 5.0688 7.89092 5.06779 7.81624 4.92662L7.46691 4.26632C7.04266 3.46438 6.35197 2.96389 5.41845 2.96389Z" fill="#161823"/>
</svg>
