<svg width="20" height="20" viewBox="0 0 20 20" fill="none" xmlns="http://www.w3.org/2000/svg">
<path d="M6.84598 8.08417C6.84598 7.59632 7.24146 7.20084 7.72931 7.20084H12.2712C12.759 7.20084 13.1545 7.59632 13.1545 8.08417V9.07476C13.1545 9.56261 12.759 9.95809 12.2712 9.95809H7.72931C7.24146 9.95809 6.84598 9.56261 6.84598 9.07476V8.08417ZM7.94598 8.30084V8.85809H12.0545V8.30084H7.94598Z" fill="#161823"/>
<path d="M8.40485 5.55224C8.42533 5.58771 8.4414 5.62451 8.45325 5.66202H9.45018V4.75235C9.45018 4.44859 9.69642 4.20235 10.0002 4.20235C10.3039 4.20235 10.5502 4.44859 10.5502 4.75235V5.66202H11.5471C11.559 5.62451 11.575 5.58771 11.5955 5.55224L12.0394 4.78337C12.1913 4.52031 12.5277 4.43018 12.7907 4.58206C13.0538 4.73393 13.1439 5.07031 12.992 5.33337L12.8023 5.66202H13.8396C14.3274 5.66202 14.7229 6.0575 14.7229 6.54535V7.42536C14.7229 7.72912 14.4766 7.97536 14.1729 7.97536C13.8691 7.97536 13.6229 7.72912 13.6229 7.42536V6.76202H6.37744V7.42536C6.37744 7.72912 6.13119 7.97536 5.82744 7.97536C5.52368 7.97536 5.27744 7.72912 5.27744 7.42536V6.54535C5.27744 6.0575 5.67292 5.66202 6.16077 5.66202H7.19806L7.00831 5.33337C6.85643 5.07031 6.94656 4.73393 7.20963 4.58206C7.47269 4.43018 7.80906 4.52031 7.96094 4.78337L8.40485 5.55224Z" fill="#161823"/>
<path d="M7.32765 10.397C6.8398 10.397 6.44431 10.7925 6.44431 11.2803V12.9002C6.44431 13.2039 6.69056 13.4502 6.99431 13.4502C7.29807 13.4502 7.54431 13.2039 7.54431 12.9002V11.497H12.4563V12.9002C12.4563 13.2039 12.7025 13.4502 13.0063 13.4502C13.31 13.4502 13.5563 13.2039 13.5563 12.9002V11.2803C13.5563 10.7925 13.1608 10.397 12.6729 10.397H7.32765Z" fill="#161823"/>
<path d="M10.1928 11.9653C10.4803 12.0635 10.6337 12.3761 10.5355 12.6636C10.205 13.6311 9.56255 14.2744 8.71715 14.6616C7.89441 15.0384 6.89543 15.1665 5.8275 15.1665C5.52374 15.1665 5.2775 14.9203 5.2775 14.6165C5.2775 14.3128 5.52374 14.0665 5.8275 14.0665C6.82727 14.0665 7.64404 13.9432 8.25914 13.6615C8.85157 13.3902 9.26906 12.9681 9.49456 12.308C9.59275 12.0205 9.90538 11.8671 10.1928 11.9653Z" fill="#161823"/>
<path d="M11.238 13.3628C10.9378 13.3166 10.6569 13.5225 10.6107 13.8227C10.5645 14.123 10.7704 14.4038 11.0707 14.45C11.6943 14.546 12.8807 14.8748 13.9492 15.2186C14.2383 15.3116 14.5482 15.1526 14.6412 14.8634C14.7342 14.5743 14.5752 14.2645 14.2861 14.1714C13.2153 13.827 11.9559 13.4733 11.238 13.3628Z" fill="#161823"/>
<path d="M10.0002 18.8782C14.9035 18.8782 18.8783 14.9033 18.8783 10C18.8783 5.09677 14.9035 1.12189 10.0002 1.12189C5.09695 1.12189 1.12207 5.09677 1.12207 10C1.12207 14.9033 5.09695 18.8782 10.0002 18.8782ZM10.0002 17.6782C5.75969 17.6782 2.32207 14.2405 2.32207 10C2.32207 5.75951 5.75969 2.32189 10.0002 2.32189C14.2407 2.32189 17.6783 5.75951 17.6783 10C17.6783 14.2405 14.2407 17.6782 10.0002 17.6782Z" fill="#161823"/>
</svg>
