<svg width="20" height="20" viewBox="0 0 20 20" fill="none" xmlns="http://www.w3.org/2000/svg">
<path fill-rule="evenodd" clip-rule="evenodd" d="M1.0498 5.7998C1.0498 4.28102 2.28102 3.0498 3.7998 3.0498H15.2998C16.8186 3.0498 18.0498 4.28102 18.0498 5.7998V7.42074C18.0498 7.63183 17.8369 7.77781 17.6332 7.72217C17.3759 7.65184 17.1103 7.6049 16.839 7.57999C16.678 7.56522 16.5498 7.43366 16.5498 7.27202V5.7998C16.5498 5.69047 16.5358 5.58441 16.5094 5.48334L9.82781 10.3747C9.56581 10.5665 9.21013 10.5679 8.94661 10.3782L2.55008 5.77354L2.5498 5.7998V14.2998C2.5498 14.9902 3.10945 15.5498 3.7998 15.5498H8.40062C8.58165 15.5498 8.72075 15.709 8.70968 15.8897C8.70339 15.9924 8.7002 16.0959 8.7002 16.2002C8.7002 16.368 8.70846 16.5338 8.7246 16.6974C8.74286 16.8824 8.60228 17.0498 8.41637 17.0498H3.7998C2.28102 17.0498 1.0498 15.8186 1.0498 14.2998V5.7998ZM3.7998 4.5498H15.2452L9.38108 8.84277L3.47631 4.59207C3.57949 4.5645 3.68793 4.5498 3.7998 4.5498Z" fill="#161823"/>
<path d="M18.3132 9.76747C17.1498 8.79121 15.4152 8.94296 14.439 10.1064L13.4105 11.3321C12.5768 12.3256 12.5657 13.7356 13.3047 14.7342C13.5183 15.0227 13.9365 14.9835 14.1673 14.7085L14.328 14.5169C14.541 14.2631 14.4886 13.8844 14.362 13.5782C14.1898 13.1615 14.2497 12.6656 14.5596 12.2963L15.588 11.0706C16.0318 10.5418 16.8202 10.4728 17.3491 10.9165C17.8779 11.3603 17.9469 12.1487 17.5031 12.6776L16.9889 13.2904C16.7226 13.6077 16.764 14.0808 17.0813 14.347C17.3986 14.6133 17.8717 14.5719 18.138 14.2546L18.6522 13.6418C19.6284 12.4783 19.4767 10.7437 18.3132 9.76747Z" fill="#161823"/>
<path d="M15.2524 13.4152C15.4832 13.1402 15.9014 13.101 16.1149 13.3895C16.8539 14.3881 16.8428 15.7981 16.0092 16.7916L14.9807 18.0173C14.0045 19.1807 12.2699 19.3325 11.1064 18.3562C9.94297 17.38 9.79121 15.6454 10.7675 14.4819L11.2817 13.8691C11.5479 13.5518 12.021 13.5104 12.3383 13.7766C12.6556 14.0429 12.697 14.516 12.4308 14.8333L11.9165 15.4461C11.4728 15.975 11.5418 16.7634 12.0706 17.2071C12.5994 17.6509 13.3879 17.5819 13.8316 17.0531L14.8601 15.8274C15.17 15.4581 15.2298 14.9622 15.0576 14.5455C14.9311 14.2392 14.8787 13.8606 15.0917 13.6067L15.2524 13.4152Z" fill="#161823"/>
</svg>
