<svg width="24" height="24" viewBox="0 0 24 24" fill="none" xmlns="http://www.w3.org/2000/svg">
<path d="M13.8378 20.8704C12.9544 22.3903 10.6806 22.1129 10.1886 20.4252L8.07063 13.1604C8.06621 13.1452 8.05828 13.1313 8.04747 13.1198L2.64675 7.37807C1.44639 6.1019 2.35061 4.00863 4.1026 4.00778L20.1662 4C21.7088 3.99925 22.6715 5.67129 21.8964 7.00499L13.8378 20.8704ZM4.10333 5.50778C3.66533 5.508 3.43928 6.03131 3.73937 6.35035L8.48667 11.3975L16.1621 8.18954C16.3767 8.09988 16.5457 8.3867 16.3633 8.53094L9.79742 13.7241L11.6286 20.0053C11.7516 20.4273 12.3201 20.4966 12.5409 20.1166L20.5995 6.25125C20.7933 5.91783 20.5526 5.49981 20.167 5.5L4.10333 5.50778Z" fill="#161823"/>
</svg>
