<svg width="24" height="24" viewBox="0 0 24 24" fill="none" xmlns="http://www.w3.org/2000/svg">
<path d="M1.2998 7.44995C1.2998 5.37888 2.97874 3.69995 5.0498 3.69995H15.5498C17.6209 3.69995 19.2998 5.37888 19.2998 7.44995V7.94995H17.7998V7.44995C17.7998 6.20731 16.7924 5.19995 15.5498 5.19995H5.0498C3.80716 5.19995 2.7998 6.20731 2.7998 7.44995V15.15C2.7998 16.3926 3.80716 17.4 5.0498 17.4H7.28554L5.97167 18.7138C5.91159 18.7739 5.85654 18.8361 5.80636 18.9H5.0498C2.97874 18.9 1.2998 17.221 1.2998 15.15V7.44995Z" fill="#161823"/>
<path fill-rule="evenodd" clip-rule="evenodd" d="M18.0498 9.44995C16.8072 9.44995 15.7998 10.4573 15.7998 11.7V17.7C15.7998 18.9426 16.8072 19.95 18.0498 19.95H20.7998C22.0424 19.95 23.0498 18.9426 23.0498 17.7V11.7C23.0498 10.4573 22.0424 9.44995 20.7998 9.44995H18.0498ZM17.2998 11.7C17.2998 11.2857 17.6356 10.95 18.0498 10.95V11.2C18.0498 11.6142 18.3856 11.95 18.7998 11.95H20.0498C20.464 11.95 20.7998 11.6142 20.7998 11.2V10.95C21.214 10.95 21.5498 11.2857 21.5498 11.7V17.7C21.5498 18.1142 21.214 18.45 20.7998 18.45H18.0498C17.6356 18.45 17.2998 18.1142 17.2998 17.7V11.7Z" fill="#161823"/>
<path d="M11.2464 16.7669C10.9172 16.4377 10.3836 16.4377 10.0544 16.7669L7.29952 19.5218C6.98095 19.8404 7.20657 20.3851 7.6571 20.3851H13.6437C14.0942 20.3851 14.3198 19.8404 14.0013 19.5218L11.2464 16.7669Z" fill="#161823"/>
</svg>
