<svg width="20" height="20" viewBox="0 0 20 20" fill="none" xmlns="http://www.w3.org/2000/svg">
<path d="M3.5 5.2334C3.5 3.43848 4.95507 1.9834 6.75 1.9834H13.25C15.0449 1.9834 16.5 3.43847 16.5 5.2334V14.7667C16.5 16.5617 15.0449 18.0167 13.25 18.0167H6.75C4.95507 18.0167 3.5 16.5617 3.5 14.7667V5.2334ZM6.7 6.05005C6.7 6.46426 7.03579 6.80005 7.45 6.80005H12.547C12.9612 6.80005 13.297 6.46426 13.297 6.05005C13.297 5.63584 12.9612 5.30005 12.547 5.30005H7.45C7.03579 5.30005 6.7 5.63584 6.7 6.05005ZM6.7 8.75006C6.7 9.16427 7.03579 9.50006 7.45 9.50006H12.547C12.9612 9.50006 13.297 9.16427 13.297 8.75006C13.297 8.33585 12.9612 8.00006 12.547 8.00006H7.45C7.03579 8.00006 6.7 8.33585 6.7 8.75006ZM6.7 11.4501C6.7 11.8643 7.03579 12.2001 7.45 12.2001H10.7266C11.1408 12.2001 11.4766 11.8643 11.4766 11.4501C11.4766 11.0359 11.1408 10.7001 10.7266 10.7001H7.45C7.03579 10.7001 6.7 11.0359 6.7 11.4501Z" fill="#161823"/>
</svg>
