<svg width="24" height="24" viewBox="0 0 24 24" fill="none" xmlns="http://www.w3.org/2000/svg">
<path d="M4.25 9.75C4.25 5.46979 7.71979 2 12 2C16.2802 2 19.75 5.46979 19.75 9.75C19.75 12.607 18.2039 15.1017 15.9057 16.4452V18.2493C15.9057 18.6635 15.5699 19 15.1557 19H8.84427C8.43006 19 8.09427 18.6642 8.09427 18.25V16.4452C5.79606 15.1017 4.25 12.607 4.25 9.75ZM12 3.5C8.54822 3.5 5.75 6.29822 5.75 9.75C5.75 12.187 7.14466 14.2996 9.18284 15.3308C9.43519 15.4584 9.59427 15.7172 9.59427 16V17.5H11.25L11.25 13.6623C10.6686 13.5244 10.1313 13.2275 9.7019 12.7981C9.09241 12.1886 8.75 11.362 8.75 10.5C8.75 10.0858 9.08579 9.75 9.5 9.75C9.91421 9.75 10.25 10.0858 10.25 10.5C10.25 10.9641 10.4344 11.4092 10.7626 11.7374C11.0908 12.0656 11.5359 12.25 12 12.25C12.4641 12.25 12.9092 12.0656 13.2374 11.7374C13.5656 11.4092 13.75 10.9641 13.75 10.5C13.75 10.0858 14.0858 9.75 14.5 9.75C14.9142 9.75 15.25 10.0858 15.25 10.5C15.25 11.362 14.9076 12.1886 14.2981 12.7981C13.8687 13.2275 13.3314 13.5244 12.75 13.6623V17.5H14.4057V16C14.4057 15.7172 14.5648 15.4584 14.8172 15.3308C16.8553 14.2996 18.25 12.187 18.25 9.75C18.25 6.29822 15.4518 3.5 12 3.5Z" fill="#161823"/>
<path d="M9.45 20.4972C9.33954 20.4972 9.25 20.5867 9.25 20.6972V21C9.25 21.5523 9.69772 22 10.25 22H13.75C14.3023 22 14.75 21.5523 14.75 21V20.6972C14.75 20.5867 14.6605 20.4972 14.55 20.4972H9.45Z" fill="#161823"/>
</svg>
