<svg width="24" height="24" viewBox="0 0 24 24" fill="none" xmlns="http://www.w3.org/2000/svg">
<path d="M4.78369 4C4.36948 4 4.03369 4.33579 4.03369 4.75C4.03369 5.16421 4.36948 5.5 4.78369 5.5H19.2504C19.6646 5.5 20.0004 5.16421 20.0004 4.75C20.0004 4.33579 19.6646 4 19.2504 4H4.78369Z" fill="#161823"/>
<path d="M2.58895 10.5123C2.43423 8.89725 3.70402 7.5 5.32642 7.5H18.6899C20.3067 7.5 21.5746 8.88802 21.4287 10.4982L20.7037 18.4982C20.5753 19.915 19.3875 21 17.9649 21H6.09284C4.67564 21 3.49052 19.923 3.35537 18.5123L2.58895 10.5123ZM5.32642 9C4.58897 9 4.01179 9.63511 4.08212 10.3692L4.84854 18.3692C4.90997 19.0105 5.44866 19.5 6.09284 19.5H17.9649C18.6115 19.5 19.1514 19.0068 19.2098 18.3628L19.9348 10.3628C20.0011 9.63092 19.4248 9 18.6899 9H5.32642Z" fill="#161823"/>
</svg>
