<svg width="30" height="30" viewBox="0 0 30 30" fill="none" xmlns="http://www.w3.org/2000/svg">
<path d="M6.87871 4.34436C5.21937 4.34436 3.87421 5.68952 3.87421 7.34886V11.0188C3.87421 12.6781 5.21937 14.0233 6.87871 14.0233H10.5486C12.208 14.0233 13.5531 12.6781 13.5531 11.0188V7.34886C13.5531 5.68952 12.208 4.34436 10.5486 4.34436H6.87871ZM5.68901 7.34886C5.68901 6.69181 6.22166 6.15916 6.87871 6.15916H10.5486C11.2057 6.15916 11.7383 6.69181 11.7383 7.34886V11.0188C11.7383 11.6758 11.2057 12.2085 10.5486 12.2085H6.87871C6.22166 12.2085 5.68901 11.6758 5.68901 11.0188V7.34886Z" fill="#161823"/>
<path d="M15.9729 19.4475C15.9729 17.7882 17.318 16.443 18.9774 16.443H22.6473C24.3067 16.443 25.6518 17.7882 25.6518 19.4475V23.1175C25.6518 24.7768 24.3067 26.122 22.6473 26.122H18.9774C17.318 26.122 15.9729 24.7768 15.9729 23.1175V19.4475ZM18.9774 18.2578C18.3203 18.2578 17.7877 18.7905 17.7877 19.4475V23.1175C17.7877 23.7745 18.3203 24.3072 18.9774 24.3072H22.6473C23.3044 24.3072 23.837 23.7745 23.837 23.1175V19.4475C23.837 18.7905 23.3044 18.2578 22.6473 18.2578H18.9774Z" fill="#161823"/>
<path d="M6.87871 16.443C5.21937 16.443 3.87421 17.7882 3.87421 19.4475V23.1175C3.87421 24.7768 5.21937 26.122 6.87871 26.122H10.5486C12.208 26.122 13.5531 24.7768 13.5531 23.1175V19.4475C13.5531 17.7882 12.208 16.443 10.5486 16.443H6.87871ZM5.68901 19.4475C5.68901 18.7905 6.22166 18.2578 6.87871 18.2578H10.5486C11.2057 18.2578 11.7383 18.7905 11.7383 19.4475V23.1175C11.7383 23.7745 11.2057 24.3072 10.5486 24.3072H6.87871C6.22166 24.3072 5.68901 23.7745 5.68901 23.1175V19.4475Z" fill="#161823"/>
<path d="M16.2154 7.21546C15.0886 8.34232 15.0886 10.1693 16.2154 11.2962L18.7077 13.7884C19.8346 14.9153 21.6616 14.9153 22.7884 13.7884L25.2807 11.2962C26.4076 10.1693 26.4076 8.34232 25.2807 7.21546L22.7884 4.7232C21.6616 3.59634 19.8346 3.59634 18.7077 4.7232L16.2154 7.21546ZM17.4479 10.0638C17.0017 9.61755 17.0017 8.8941 17.4479 8.44789L19.9401 5.95564C20.3863 5.50943 21.1098 5.50943 21.556 5.95564L24.0483 8.44789C24.4945 8.8941 24.4945 9.61755 24.0483 10.0638L21.556 12.556C21.1098 13.0022 20.3863 13.0022 19.9401 12.556L17.4479 10.0638Z" fill="#161823"/>
</svg>
