<svg width="24" height="24" viewBox="0 0 24 24" fill="none" xmlns="http://www.w3.org/2000/svg">
<path d="M15 4C17.2091 4 19 5.79086 19 8V8.28711L22.1709 6.33594L22.3232 6.25586C23.0951 5.91703 24 6.47826 24 7.3584V16.6416C24 17.5804 22.9704 18.1561 22.1709 17.6641L19 15.7119V16C19 18.2091 17.2091 20 15 20H5C2.79086 20 1 18.2091 1 16V8C1 5.79086 2.79086 4 5 4H15ZM5 6C3.89543 6 3 6.89543 3 8V16C3 17.1046 3.89543 18 5 18H15C16.1046 18 17 17.1046 17 16V8C17 6.89543 16.1046 6 15 6H5ZM19 10.6357V13.3643L22 15.21V8.79004L19 10.6357Z" fill="#161823"/>
</svg>
