<svg width="30" height="30" viewBox="0 0 30 30" fill="none" xmlns="http://www.w3.org/2000/svg">
<path d="M15 2.8125C21.731 2.8125 27.1875 8.26903 27.1875 15C27.1875 21.731 21.731 27.1875 15 27.1875C8.26903 27.1875 2.8125 21.731 2.8125 15C2.8125 8.26903 8.26903 2.8125 15 2.8125Z" stroke="currentColor" stroke-width="1.875"/>
<path fill-rule="evenodd" clip-rule="evenodd" d="M11.0448 16.3184C10.3168 16.3184 9.72656 15.7283 9.72656 15C9.72656 14.2717 10.3167 13.6816 11.0448 13.6816C11.7734 13.6816 12.3633 14.2717 12.3633 15C12.3633 15.7283 11.7734 16.3184 11.0448 16.3184Z" fill="currentColor"/>
<path d="M14.1211 12.052C14.9302 12.7762 15.4395 13.8286 15.4395 15C15.4395 16.1714 14.9302 17.2238 14.1211 17.948" stroke="currentColor" stroke-width="1.875" stroke-linecap="round"/>
<path d="M16.7578 8.72339C18.385 10.3185 19.3945 12.5414 19.3945 15C19.3945 17.4587 18.385 19.6815 16.7578 21.2767" stroke="currentColor" stroke-width="1.875" stroke-linecap="round"/>
</svg>
