<svg width="30" height="30" viewBox="0 0 30 30" fill="none" xmlns="http://www.w3.org/2000/svg">
<path d="M2.8125 15C2.8125 8.26903 8.26903 2.8125 15 2.8125C21.731 2.8125 27.1875 8.26903 27.1875 15C27.1875 21.731 21.731 27.1875 15 27.1875C8.26903 27.1875 2.8125 21.731 2.8125 15Z" stroke="#161823" stroke-width="1.875"/>
<path d="M8.4375 15C8.4375 14.4822 8.85723 14.0625 9.375 14.0625L14.0625 14.0625L14.0625 9.375C14.0625 8.85723 14.4822 8.4375 15 8.4375C15.5178 8.4375 15.9375 8.85723 15.9375 9.375L15.9375 14.0625L20.625 14.0625C21.1428 14.0625 21.5625 14.4822 21.5625 15C21.5625 15.5178 21.1428 15.9375 20.625 15.9375L15.9375 15.9375L15.9375 20.625C15.9375 21.1428 15.5178 21.5625 15 21.5625C14.4822 21.5625 14.0625 21.1428 14.0625 20.625L14.0625 15.9375L9.375 15.9375C8.85723 15.9375 8.4375 15.5178 8.4375 15Z" fill="#161823"/>
</svg>
