<svg width="30" height="30" viewBox="0 0 30 30" fill="none" xmlns="http://www.w3.org/2000/svg">
<path d="M15 2.8125C21.731 2.8125 27.1875 8.26903 27.1875 15C27.1875 21.731 21.731 27.1875 15 27.1875C8.26903 27.1875 2.8125 21.731 2.8125 15C2.8125 8.26903 8.26903 2.8125 15 2.8125Z" stroke="currentColor" stroke-width="1.875"/>
<path fill-rule="evenodd" clip-rule="evenodd" d="M10.8984 14.4141C11.8693 14.4141 12.6563 13.3647 12.6563 12.0703C12.6563 10.7759 11.8693 9.72656 10.8984 9.72656C9.92762 9.72656 9.14062 10.7759 9.14062 12.0703C9.14062 13.3647 9.92762 14.4141 10.8984 14.4141Z" fill="currentColor"/>
<path fill-rule="evenodd" clip-rule="evenodd" d="M19.1016 14.4141C20.0724 14.4141 20.8594 13.3647 20.8594 12.0703C20.8594 10.7759 20.0724 9.72656 19.1016 9.72656C18.1307 9.72656 17.3438 10.7759 17.3438 12.0703C17.3438 13.3647 18.1307 14.4141 19.1016 14.4141Z" fill="currentColor"/>
<path fill-rule="evenodd" clip-rule="evenodd" d="M11.4844 17.212C11.4844 18.5989 13.0584 19.7232 15 19.7232C16.9416 19.7232 18.5156 18.5989 18.5156 17.212C18.5156 15.8252 11.4844 15.8252 11.4844 17.212Z" fill="currentColor"/>
</svg>
