<svg width="22" height="22" viewBox="0 0 22 22" fill="none" xmlns="http://www.w3.org/2000/svg">
<path fill-rule="evenodd" clip-rule="evenodd" d="M0 11C0 4.92487 4.92487 0 11 0C17.0751 0 22 4.92487 22 11C22 17.0751 17.0751 22 11 22C4.92487 22 0 17.0751 0 11ZM11 2C6.02944 2 2 6.02944 2 11C2 15.9706 6.02944 20 11 20C15.9706 20 20 15.9706 20 11C20 6.02944 15.9706 2 11 2Z" fill="currentColor"/>
<path fill-rule="evenodd" clip-rule="evenodd" d="M11 6.66666C11.5523 6.66666 12 7.11437 12 7.66666V10H14.3333C14.8856 10 15.3333 10.4477 15.3333 11C15.3333 11.5523 14.8856 12 14.3333 12H12V14.3333C12 14.8856 11.5523 15.3333 11 15.3333C10.4477 15.3333 10 14.8856 10 14.3333V12H7.66666C7.11437 12 6.66666 11.5523 6.66666 11C6.66666 10.4477 7.11437 10 7.66666 10H10V7.66666C10 7.11437 10.4477 6.66666 11 6.66666Z" fill="currentColor"/>
</svg>
