<svg width="75" height="49" viewBox="0 0 75 49" fill="none" xmlns="http://www.w3.org/2000/svg">
<path d="M46.3965 9.5C51.6432 9.50004 55.8965 13.7533 55.8965 19V30C55.8965 35.2467 51.6432 39.5 46.3965 39.5H28.6035C23.3568 39.5 19.1035 35.2467 19.1035 30V19C19.1035 13.7533 23.3568 9.5 28.6035 9.5H46.3965ZM28.6035 12.5C25.0137 12.5 22.1035 15.4101 22.1035 19V30C22.1035 33.5899 25.0137 36.5 28.6035 36.5H46.3965C49.9863 36.5 52.8965 33.5898 52.8965 30V19C52.8965 15.4102 49.9863 12.5 46.3965 12.5H28.6035ZM37.5 18C38.3284 18 39 18.6716 39 19.5V23H42.5C43.3284 23 44 23.6716 44 24.5C44 25.3284 43.3284 26 42.5 26H39V29.5C39 30.3284 38.3284 31 37.5 31C36.6716 31 36 30.3284 36 29.5V26H32.5C31.6716 26 31 25.3284 31 24.5C31 23.6716 31.6716 23 32.5 23H36V19.5C36 18.6716 36.6716 18 37.5 18Z" fill="currentColor"/>
</svg>
