<svg width="14" height="14" viewBox="0 0 14 14" fill="none" xmlns="http://www.w3.org/2000/svg">
<path d="M4.26751 6.01758C4.1151 7.41171 3.80697 9.02961 3.18254 10.5H8.98626L9.90715 11.375H7.87493L7.87004 11.4648C7.82505 11.9058 7.45271 12.2499 6.99993 12.25C6.54708 12.25 6.17482 11.9058 6.12981 11.4648L6.12493 11.375H2.75872C2.31872 11.3748 2.04459 10.8848 2.23137 10.4863C2.94455 8.96496 3.2774 7.19488 3.42571 5.68164C3.43912 5.54493 3.46022 5.40977 3.48723 5.27637L4.26751 6.01758ZM2.70012 2.71777C2.89035 2.51788 3.20706 2.5101 3.40715 2.7002L12.1572 11.0127C12.357 11.2029 12.3648 11.5196 12.1747 11.7197C11.9845 11.9196 11.6678 11.9274 11.4677 11.7373L2.7177 3.4248C2.51777 3.23458 2.51002 2.91788 2.70012 2.71777ZM6.99993 2.1875C8.88761 2.1877 10.3898 3.80295 10.5741 5.68164C10.6755 6.71578 10.863 7.86978 11.1991 8.98242L10.0175 7.86035C9.86802 7.13336 9.76821 6.42237 9.70403 5.76758C9.55557 4.25282 8.35792 3.0627 6.99993 3.0625C6.45826 3.06252 5.94291 3.25339 5.50872 3.57715L4.86516 2.96582C5.45798 2.48211 6.19392 2.18752 6.99993 2.1875Z" fill="currentColor" fill-opacity="0.34"/>
</svg>
