<svg width="44" height="44" viewBox="0 0 44 44" fill="none" xmlns="http://www.w3.org/2000/svg">
<path d="M20.5 12C25.1944 12 29 15.8056 29 20.5C29 22.4413 28.3473 24.2291 27.252 25.6602L32.5459 30.9541C32.9852 31.3934 32.9852 32.1066 32.5459 32.5459C32.1066 32.9852 31.3934 32.9852 30.9541 32.5459L25.6602 27.252C24.2291 28.3473 22.4413 29 20.5 29C15.8056 29 12 25.1944 12 20.5C12 15.8056 15.8056 12 20.5 12ZM20.5 14C16.9101 14 14 16.9101 14 20.5C14 24.0899 16.9101 27 20.5 27C24.0899 27 27 24.0899 27 20.5C27 16.9101 24.0899 14 20.5 14Z" fill="currentColor"/>
</svg>
