<svg width="16" height="20" viewBox="0 0 16 20" fill="none" xmlns="http://www.w3.org/2000/svg">
<path d="M1.47552 0.802429H14.0596V11.2922C14.0596 14.7672 11.2425 17.5842 7.76756 17.5842C4.29256 17.5842 1.47552 14.7672 1.47552 11.2922V0.802429Z" fill="white" fill-opacity="0.01"/>
<mask id="mask0_17250_7400" style="mask-type:luminance" maskUnits="userSpaceOnUse" x="1" y="0" width="14" height="18">
<path d="M1.47552 0.802429H14.0596V11.2922C14.0596 14.7672 11.2425 17.5842 7.76756 17.5842C4.29256 17.5842 1.47552 14.7672 1.47552 11.2922V0.802429Z" fill="white"/>
</mask>
<g mask="url(#mask0_17250_7400)">
<path fill-rule="evenodd" clip-rule="evenodd" d="M12.4294 7.26831C13.7344 8.59831 14.0548 9.83481 14.0548 11.6883C14.0548 15.2212 11.1637 18.8575 6.90015 18.8575C3.53515 18.8575 2.5837 18.2985 4.16458 13.232C4.1892 13.1531 4.25241 13.0915 4.33302 13.0678C5.43418 12.7444 7.76802 12.507 9.17344 11.4964C11.1327 10.0876 11.6308 8.37337 12.0407 7.23889C12.1506 7.12594 12.3194 7.15615 12.4294 7.26831Z" fill="url(#paint0_linear_17250_7400)"/>
<path fill-rule="evenodd" clip-rule="evenodd" d="M7.04291 1.27649C7.04298 1.09748 7.22378 0.978232 7.38363 1.05176C8.76375 1.90991 9.89048 4.18105 10.0859 6.4183C10.3173 9.06799 9.48104 10.8384 9.23598 11.7359C8.72278 13.6152 10.1801 15.289 11.7792 16.2248C11.8973 16.386 10.0859 18.9667 7.56544 17.7163C4.21996 17.7747 1.47798 16.0455 1.47495 11.1689C1.48172 8.96241 2.89592 7.33044 5.54719 4.7627C7.09761 3.17067 7.04256 2.20429 7.04291 1.27649Z" fill="url(#paint1_linear_17250_7400)"/>
<path fill-rule="evenodd" clip-rule="evenodd" d="M7.04291 1.27649C7.04298 1.09748 7.22378 0.978232 7.38363 1.05176C8.76375 1.90991 9.89048 4.18105 10.0859 6.4183C10.3173 9.06799 9.48104 10.8384 9.23598 11.7359C8.72278 13.6152 10.1801 15.289 11.7792 16.2248C11.8973 16.386 10.0859 18.9667 7.56544 17.7163C4.21996 17.7747 1.47798 16.0455 1.47495 11.1689C1.48172 8.96241 2.89592 7.33044 5.54719 4.7627C7.09761 3.17067 7.04256 2.20429 7.04291 1.27649Z" fill="url(#paint2_linear_17250_7400)"/>
</g>
<defs>
<linearGradient id="paint0_linear_17250_7400" x1="3.48673" y1="5.80839" x2="3.48673" y2="17.9648" gradientUnits="userSpaceOnUse">
<stop stop-color="#B591FF"/>
<stop offset="1" stop-color="#5C1FD8"/>
</linearGradient>
<linearGradient id="paint1_linear_17250_7400" x1="11.8201" y1="17.4685" x2="11.5319" y2="0.955522" gradientUnits="userSpaceOnUse">
<stop stop-color="#FF4513"/>
<stop offset="0.510006" stop-color="#FF6D23"/>
<stop offset="1" stop-color="#FFC047"/>
</linearGradient>
<linearGradient id="paint2_linear_17250_7400" x1="9.58768" y1="16.285" x2="9.31877" y2="0.878757" gradientUnits="userSpaceOnUse">
<stop stop-color="#8346FF"/>
<stop offset="0.510006" stop-color="#A375FF"/>
<stop offset="1" stop-color="#C89DFF"/>
</linearGradient>
</defs>
</svg>
