<svg width="20" height="20" viewBox="0 0 20 20" fill="none" xmlns="http://www.w3.org/2000/svg">
<path d="M3.95817 4.91524C3.0377 4.91524 2.2915 5.66143 2.2915 6.58191V10.7848C2.2915 11.7052 3.03769 12.4514 3.95817 12.4514H8.21483C9.08812 12.4514 9.94618 12.6802 10.7036 13.1148L13.5856 14.7688C14.3078 15.1833 15.2082 14.6619 15.2082 13.8292V3.53746C15.2082 2.70475 14.3078 2.18338 13.5856 2.59786L10.7036 4.25184C9.94618 4.68652 9.08812 4.91524 8.21483 4.91524H3.95817Z" fill="#161823"/>
<path d="M18.3332 8.6833C18.3332 9.92715 17.5546 10.9891 16.4582 11.4085V5.95813C17.5546 6.37747 18.3332 7.43946 18.3332 8.6833Z" fill="#161823"/>
<path d="M6.84563 17.8446L4.45357 13.7014H8.21482C8.23859 13.7014 8.26234 13.7017 8.28607 13.7021L9.71971 16.1852C10.1779 16.9789 9.906 17.9937 9.11234 18.452C8.31869 18.9102 7.30384 18.6383 6.84563 17.8446Z" fill="#161823"/>
</svg>
