<svg width="14" height="18" viewBox="0 0 14 18" fill="none" xmlns="http://www.w3.org/2000/svg">
<path d="M1.328 0.722168H12.6541V10.1634C12.6541 13.291 10.1187 15.8264 6.99107 15.8264C3.86344 15.8264 1.328 13.291 1.328 10.1634V0.722168Z" fill="white" fill-opacity="0.01"/>
<mask id="mask0_17250_4217" style="mask-type:luminance" maskUnits="userSpaceOnUse" x="1" y="0" width="12" height="16">
<path d="M1.328 0.722168H12.6541V10.1634C12.6541 13.291 10.1187 15.8264 6.99107 15.8264C3.86344 15.8264 1.328 13.291 1.328 10.1634V0.722168Z" fill="white"/>
</mask>
<g mask="url(#mask0_17250_4217)">
<path fill-rule="evenodd" clip-rule="evenodd" d="M11.1869 6.5417C12.3614 7.73875 12.6499 8.85165 12.6499 10.5199C12.6499 13.6996 10.0478 16.9724 6.21039 16.9724C3.18176 16.9724 2.32542 16.4693 3.74828 11.9093C3.77044 11.8383 3.82733 11.7828 3.89988 11.7615C4.89096 11.4703 6.99151 11.2568 8.25644 10.3472C10.0198 9.0792 10.4681 7.5363 10.8371 6.51522C10.936 6.41357 11.0879 6.44076 11.1869 6.5417Z" fill="url(#paint0_linear_17250_4217)"/>
<path fill-rule="evenodd" clip-rule="evenodd" d="M11.1869 6.5417C12.3614 7.73875 12.6499 8.85165 12.6499 10.5199C12.6499 13.6996 10.0478 16.9724 6.21039 16.9724C3.18176 16.9724 2.32542 16.4693 3.74828 11.9093C3.77044 11.8383 3.82733 11.7828 3.89988 11.7615C4.89096 11.4703 6.99151 11.2568 8.25644 10.3472C10.0198 9.0792 10.4681 7.5363 10.8371 6.51522C10.936 6.41357 11.0879 6.44076 11.1869 6.5417Z" fill="url(#paint1_linear_17250_4217)"/>
<path fill-rule="evenodd" clip-rule="evenodd" d="M6.33881 1.14895C6.33888 0.987836 6.5016 0.880506 6.64547 0.946685C7.88763 1.71905 8.90173 3.76316 9.07761 5.77677C9.28591 8.1616 8.53322 9.75506 8.31265 10.5628C7.85076 12.2543 9.16237 13.7607 10.6017 14.603C10.7079 14.748 9.07761 17.0708 6.80911 15.9454C3.79805 15.998 1.33016 14.4417 1.32744 10.0525C1.33353 8.06657 2.60637 6.59773 4.99261 4.28667C6.38804 2.85379 6.3385 1.984 6.33881 1.14895Z" fill="url(#paint2_linear_17250_4217)"/>
</g>
<defs>
<linearGradient id="paint0_linear_17250_4217" x1="3.13819" y1="5.22772" x2="3.13819" y2="16.1689" gradientUnits="userSpaceOnUse">
<stop stop-color="#B591FF"/>
<stop offset="1" stop-color="#5C1FD8"/>
</linearGradient>
<linearGradient id="paint1_linear_17250_4217" x1="3.13819" y1="5.22772" x2="3.13819" y2="16.1689" gradientUnits="userSpaceOnUse">
<stop stop-color="#FF702F"/>
<stop offset="1" stop-color="#ED2800"/>
</linearGradient>
<linearGradient id="paint2_linear_17250_4217" x1="10.6385" y1="15.7224" x2="10.379" y2="0.860067" gradientUnits="userSpaceOnUse">
<stop stop-color="#FF4513"/>
<stop offset="0.510006" stop-color="#FF6D23"/>
<stop offset="1" stop-color="#FFC047"/>
</linearGradient>
</defs>
</svg>
